<svg xmlns="http://www.w3.org/2000/svg" xmlns:xlink="http://www.w3.org/1999/xlink" version="1.1" width="1024" height="1024" viewBox="0 0 1024 1024" xml:space="preserve">
<desc>Created with Fabric.js 3.5.0</desc>
<defs>
</defs>
<rect x="0" y="0" width="100%" height="100%" fill="#fff"/>
<g transform="matrix(10.3033 0 0 10.7279 528.0437 429.116)" id="657917">
<g style="" vector-effect="non-scaling-stroke">
		<g transform="matrix(1 0 0 1 -0.2388 0.0093)">
<linearGradient id="SVGID_1796" gradientUnits="userSpaceOnUse" gradientTransform="matrix(1 0 0 1 0 0)" x1="91.1658" y1="103.929" x2="19.6517" y2="15.1126">
<stop offset="0%" style="stop-color:rgb(218,227,254);stop-opacity: 1"/>
<stop offset="100%" style="stop-color:rgb(233,239,253);stop-opacity: 1"/>
</linearGradient>
<path style="stroke: none; stroke-width: 1; stroke-dasharray: none; stroke-linecap: butt; stroke-dashoffset: 0; stroke-linejoin: miter; stroke-miterlimit: 4; is-custom-font: none; font-file-url: none; fill: url(#SVGID_1796); fill-rule: nonzero; opacity: 1;" transform=" translate(-40.7612, -40.0093)" d="M 71.7128 68.7498 C 70.0582 70.4708 68.4922 71.5805 67.2553 72.4573 C 52.7142 82.7643 35.5081 79.7599 31.8514 79.0263 C 26.4515 77.9428 16.0137 75.8485 8.46738 67.0816 C -2.94977 53.8179 -1.17185 32.9214 7.68398 19.1273 C 9.30342 16.604 17.8603 2.59988 35.2516 0.354111 C 45.7767 -1.00495 58.0457 1.73625 66.9302 9.08974 C 85.5801 24.5255 84.2526 55.7081 71.7128 68.7498 Z" stroke-linecap="round"/>
</g>
		<g transform="matrix(1 0 0 1 20.0749 14.651)">
<path style="stroke: none; stroke-width: 1; stroke-dasharray: none; stroke-linecap: butt; stroke-dashoffset: 0; stroke-linejoin: miter; stroke-miterlimit: 4; is-custom-font: none; font-file-url: none; fill: rgb(125,151,244); fill-rule: nonzero; opacity: 1;" transform=" translate(-61.0749, -54.6511)" d="M 40.9512 76.9041 C 40.9512 76.9041 56.8297 36.7911 80.4184 32.4093 C 80.837 32.3316 81.2185 32.6661 81.1979 33.0914 C 80.9595 38.0392 77.9379 64.2256 40.9515 76.9041 H 40.9512 Z" stroke-linecap="round"/>
</g>
		<g transform="matrix(1 0 0 1 17.8785 17.0729)">
<path style="stroke: none; stroke-width: 1; stroke-dasharray: none; stroke-linecap: butt; stroke-dashoffset: 0; stroke-linejoin: miter; stroke-miterlimit: 4; is-custom-font: none; font-file-url: none; fill: rgb(255,255,255); fill-rule: nonzero; opacity: 0.62;" transform=" translate(-58.8785, -57.073)" d="M 76.1807 38.9158 C 74.9762 40.6346 73.7139 42.3084 72.4345 43.9695 C 72.115 44.385 71.7885 44.7951 71.4659 45.2081 C 71.1408 45.619 70.8224 46.0356 70.4914 46.4421 L 69.5022 47.6644 C 69.1709 48.0706 68.8469 48.4827 68.5074 48.8821 C 67.8335 49.6849 67.1658 50.4934 66.4865 51.292 L 64.4274 53.6692 C 63.0304 55.2326 61.6344 56.7975 60.1946 58.3221 L 59.1229 59.4734 C 58.7699 59.8613 58.3958 60.2289 58.0333 60.6075 L 55.846 62.8693 L 53.6025 65.0757 C 53.2276 65.4425 52.8566 65.8135 52.4746 66.1727 L 51.3174 67.239 C 50.5444 67.9481 49.7793 68.6661 48.993 69.3609 L 46.6032 71.4088 L 46.003 71.9174 C 45.8012 72.0849 45.6053 72.2591 45.3989 72.4213 L 44.1643 73.3972 C 43.7539 73.7238 43.3378 74.0433 42.9249 74.3664 C 42.5116 74.689 42.0975 75.0108 41.6812 75.3294 C 41.6494 75.3539 41.6038 75.3477 41.5793 75.3159 C 41.556 75.2852 41.5607 75.2416 41.5894 75.2168 L 41.5914 75.2151 C 41.9892 74.8737 42.3892 74.5359 42.79 74.1986 C 43.1912 73.8617 43.5889 73.5214 43.9926 73.1881 L 45.1999 72.1843 C 45.5979 71.8445 45.9836 71.4901 46.3785 71.1467 L 48.7428 69.0805 L 51.0584 66.9597 L 52.217 65.9002 C 52.4107 65.7242 52.5951 65.5382 52.7848 65.358 L 53.3528 64.8161 L 55.6245 62.6472 C 57.1021 61.1637 58.6044 59.7031 60.031 58.1692 C 60.7517 57.4092 61.4807 56.657 62.1769 55.8742 C 62.8789 55.097 63.5871 54.3254 64.2838 53.5434 L 66.35 51.1763 C 67.0318 50.3811 67.7018 49.576 68.3782 48.7763 C 68.7188 48.3782 69.0442 47.9678 69.3767 47.5633 L 70.3698 46.3456 C 70.7019 45.9408 71.0217 45.5256 71.348 45.1163 C 71.672 44.7047 71.9999 44.2963 72.3205 43.8822 C 73.5988 42.2234 74.8593 40.5479 76.0596 38.8336 L 76.0605 38.8325 C 76.0836 38.7995 76.1289 38.7917 76.1615 38.8147 C 76.1945 38.8378 76.2023 38.8831 76.1795 38.9158 H 76.1807 Z" stroke-linecap="round"/>
</g>
		<g transform="matrix(1 0 0 1 12.7922 -13.0505)">
<path style="stroke: none; stroke-width: 1; stroke-dasharray: none; stroke-linecap: butt; stroke-dashoffset: 0; stroke-linejoin: miter; stroke-miterlimit: 4; is-custom-font: none; font-file-url: none; fill: rgb(145,179,250); fill-rule: nonzero; opacity: 0.79;" transform=" translate(-53.7922, -26.9495)" d="M 37.1038 53.899 C 37.1038 53.899 44.823 18.4773 68.1254 0.115417 C 68.4291 -0.124135 68.8789 0.0273093 68.9716 0.402823 C 70.4373 6.3342 78.0692 44.166 37.1035 53.899 H 37.1038 Z" stroke-linecap="round"/>
</g>
		<g transform="matrix(1 0 0 1 10.9886 -8.6974)">
<path style="stroke: none; stroke-width: 1; stroke-dasharray: none; stroke-linecap: butt; stroke-dashoffset: 0; stroke-linejoin: miter; stroke-miterlimit: 4; is-custom-font: none; font-file-url: none; fill: rgb(255,255,255); fill-rule: nonzero; opacity: 0.4898;" transform=" translate(-51.9886, -31.3026)" d="M 65.651 10.334 C 65.3833 11.3617 65.072 12.374 64.7435 13.3817 C 64.4144 14.3889 64.0684 15.391 63.7011 16.385 C 62.9641 18.3723 62.1613 20.3355 61.2963 22.2713 C 61.0818 22.7561 60.8555 23.2354 60.6356 23.7179 C 60.4144 24.1996 60.1754 24.673 59.9462 25.151 C 59.7185 25.6298 59.4725 26.0997 59.2338 26.5729 L 58.8723 27.2814 L 58.4985 27.9831 C 57.5026 29.8551 56.4532 31.7003 55.3221 33.4951 C 54.1877 35.2871 53.0088 37.0529 51.737 38.7514 C 51.5796 38.9648 51.4251 39.1804 51.2652 39.3918 L 50.7774 40.0204 L 50.2895 40.6487 C 50.126 40.8573 49.9672 41.0701 49.7958 41.2725 L 48.7824 42.4996 L 48.528 42.8053 L 48.2645 43.1034 L 47.7375 43.6993 C 44.9409 46.8903 41.8104 49.7869 38.4257 52.3372 C 38.3978 52.3583 38.3581 52.3527 38.337 52.3248 C 38.3164 52.2975 38.3212 52.2593 38.3474 52.2379 L 38.3488 52.2367 L 39.5778 51.2343 L 40.1932 50.735 L 40.7888 50.2119 L 41.9784 49.1651 L 43.1286 48.0751 C 43.3189 47.8921 43.5151 47.7151 43.7026 47.5293 L 44.2596 46.966 C 44.6293 46.5888 45.0065 46.2189 45.3693 45.8355 C 46.0829 45.0569 46.8134 44.2941 47.4926 43.4848 L 48.0106 42.8858 L 48.2695 42.5863 L 48.5195 42.2789 L 49.5216 41.0524 C 49.6917 40.8503 49.8487 40.638 50.0109 40.4297 L 50.4942 39.8025 L 50.9775 39.1754 C 51.136 38.9643 51.2889 38.7489 51.4448 38.5361 C 52.7045 36.8407 53.8716 35.0782 54.9945 33.2902 C 56.1233 31.5049 57.178 29.6732 58.1765 27.8114 L 58.5517 27.1136 L 58.9143 26.409 C 59.1541 25.9384 59.401 25.4714 59.6296 24.9951 C 60.0985 24.0484 60.5512 23.0939 60.9968 22.1356 C 61.8812 20.2164 62.7032 18.2679 63.4618 16.2949 C 63.8469 15.3105 64.2103 14.3177 64.5574 13.3192 C 64.7316 12.8201 64.8991 12.3191 65.0613 11.816 C 65.226 11.3141 65.3833 10.8086 65.5286 10.3022 V 10.301 C 65.5387 10.2675 65.5736 10.2481 65.6071 10.2577 C 65.6403 10.2673 65.6595 10.3013 65.651 10.3345 V 10.334 Z" stroke-linecap="round"/>
</g>
		<g transform="matrix(1 0 0 1 -28.5033 -12.9239)">
<path style="stroke: none; stroke-width: 1; stroke-dasharray: none; stroke-linecap: butt; stroke-dashoffset: 0; stroke-linejoin: miter; stroke-miterlimit: 4; is-custom-font: none; font-file-url: none; fill: rgb(145,179,250); fill-rule: nonzero; opacity: 0.76;" transform=" translate(-12.4967, -27.0761)" d="M 24.9934 51.9978 C 24.9934 51.9978 21.9834 20.5757 3.73605 2.29116 C 3.49818 2.05274 3.09368 2.13718 2.9746 2.45218 C 1.09394 7.42844 -9.41652 39.3469 24.9934 51.9981 V 51.9978 Z" stroke-linecap="round"/>
</g>
		<g transform="matrix(1 0 0 1 -26.5395 -9.0782)">
<path style="stroke: none; stroke-width: 1; stroke-dasharray: none; stroke-linecap: butt; stroke-dashoffset: 0; stroke-linejoin: miter; stroke-miterlimit: 4; is-custom-font: none; font-file-url: none; fill: rgb(255,255,255); fill-rule: nonzero; opacity: 0.4712;" transform=" translate(-14.4605, -30.9218)" d="M 4.93566 11.3651 C 5.24699 13.1768 5.6501 14.9761 6.1109 16.7572 C 6.56439 18.5404 7.07474 20.3093 7.64223 22.0591 C 7.92936 22.9329 8.2224 23.8047 8.52979 24.6714 C 8.67814 25.1066 8.84337 25.5359 9.00214 25.9674 L 9.24282 26.6137 L 9.49503 27.2555 C 10.1658 28.9676 10.889 30.6596 11.68 32.319 C 12.4651 33.981 13.291 35.6252 14.2042 37.2207 C 14.317 37.4209 14.4268 37.6227 14.5417 37.8217 L 14.8944 38.414 L 15.2471 39.0062 C 15.3656 39.203 15.4793 39.4029 15.6052 39.5951 L 16.3438 40.7591 L 16.5276 41.0507 L 16.7202 41.3364 L 17.1055 41.9079 C 17.6083 42.6778 18.16 43.4133 18.6957 44.1604 C 18.9696 44.5294 19.257 44.8883 19.5371 45.2529 L 19.9599 45.7976 C 20.1026 45.9777 20.2538 46.1511 20.399 46.329 L 21.279 47.3911 L 22.1975 48.4203 L 22.6575 48.9346 L 23.1368 49.4305 L 24.0936 50.4256 L 24.0948 50.4268 C 24.119 50.4521 24.1181 50.4921 24.0931 50.5163 C 24.0686 50.5399 24.0297 50.5396 24.0055 50.5163 C 21.3378 47.9659 18.9274 45.1389 16.8364 42.0914 L 16.4418 41.5217 L 16.2444 41.2368 L 16.0558 40.946 L 15.3059 39.7803 C 15.1784 39.5875 15.0633 39.3874 14.9434 39.19 L 14.5862 38.5961 L 14.2289 38.0021 C 14.1124 37.8028 14.0012 37.6002 13.8869 37.3995 C 12.9622 35.7992 12.125 34.1504 11.329 32.4834 C 10.5368 30.8139 9.82072 29.1097 9.15358 27.3875 L 8.90305 26.7418 L 8.66406 26.0918 C 8.50671 25.6577 8.34259 25.2262 8.19537 24.7885 C 8.04674 24.3513 7.88911 23.9173 7.7478 23.4778 C 7.60789 23.0379 7.46236 22.5996 7.32724 22.1582 C 6.24236 18.6291 5.3413 15.0389 4.80927 11.3823 C 4.8042 11.3477 4.82813 11.3156 4.86275 11.3105 C 4.89682 11.3054 4.92834 11.3285 4.93425 11.3623 L 4.93482 11.3648 L 4.93566 11.3651 Z" stroke-linecap="round"/>
</g>
		<g transform="matrix(1 0 0 1 -8.1849 -1.0891)">
<linearGradient id="SVGID_1797" gradientUnits="userSpaceOnUse" gradientTransform="matrix(1 0 0 1 0 0)" x1="54.2846" y1="-0.0332137" x2="-30.9771" y2="154.656">
<stop offset="0%" style="stop-color:rgb(9,0,93);stop-opacity: 1"/>
<stop offset="100%" style="stop-color:rgb(26,15,145);stop-opacity: 1"/>
</linearGradient>
<path style="stroke: none; stroke-width: 1; stroke-dasharray: none; stroke-linecap: butt; stroke-dashoffset: 0; stroke-linejoin: miter; stroke-miterlimit: 4; is-custom-font: none; font-file-url: none; fill: url(#SVGID_1797); fill-rule: nonzero; opacity: 1;" transform=" translate(-32.8151, -38.9109)" d="M 8.8119 4.15966 C 8.55067 16.4903 7.70309 59.0236 8.1076 74.0959 C 8.15039 75.6926 9.24456 76.9742 10.6095 77.0266 C 17.3603 77.285 42.1082 77.94 53.1502 77.3981 C 55.45 77.2853 57.2788 75.1059 57.3267 72.4137 C 57.5561 59.4711 58.0625 23.0685 56.8591 6.39219 C 56.715 4.39414 55.3745 2.80313 53.669 2.60355 C 46.3172 1.74302 21.4628 -0.360027 11.9233 0.36426 C 10.2028 0.494873 8.85469 2.14359 8.8119 4.15966 Z" stroke-linecap="round"/>
</g>
		<g transform="matrix(1 0 0 1 -8.184 -3.9445)">
<path style="stroke: none; stroke-width: 1; stroke-dasharray: none; stroke-linecap: butt; stroke-dashoffset: 0; stroke-linejoin: miter; stroke-miterlimit: 4; is-custom-font: none; font-file-url: none; fill: rgb(125,151,244); fill-rule: nonzero; opacity: 1;" transform=" translate(-32.816, -36.0555)" d="M 11.8246 7.94294 C 11.4612 17.8958 10.3149 51.006 10.6789 63.2494 C 10.7321 65.0388 11.9377 66.486 13.4657 66.5904 C 19.7571 67.0211 41.2216 67.9709 50.4496 67.1064 C 52.1113 66.9507 53.4152 65.3786 53.5049 63.4315 C 53.9725 53.2777 55.3152 22.4472 54.9665 10.341 C 54.9107 8.40966 53.6319 6.83244 51.9868 6.65961 C 45.1806 5.94461 22.3719 4.24354 14.5303 4.74403 C 13.0584 4.83805 11.8873 6.21963 11.8246 7.94266 V 7.94294 Z" stroke-linecap="round"/>
</g>
		<g transform="matrix(1 0 0 1 -7.6432 -36.9442)">
<linearGradient id="SVGID_1798" gradientUnits="userSpaceOnUse" gradientTransform="matrix(1 0 0 1 0 0)" x1="28.7079" y1="-44.3512" x2="31.6214" y2="-14.6332">
<stop offset="0%" style="stop-color:rgb(79,82,255);stop-opacity: 1"/>
<stop offset="100%" style="stop-color:rgb(64,66,226);stop-opacity: 1"/>
</linearGradient>
<path style="stroke: none; stroke-width: 1; stroke-dasharray: none; stroke-linecap: butt; stroke-dashoffset: 0; stroke-linejoin: miter; stroke-miterlimit: 4; is-custom-font: none; font-file-url: none; fill: url(#SVGID_1798); fill-rule: nonzero; opacity: 1;" transform=" translate(-33.3568, -3.0558)" d="M 28.7012 2.81022 C 28.7012 3.18855 28.9531 3.50072 29.2763 3.52043 C 30.8707 3.61811 35.3625 3.89453 37.3698 4.03078 C 37.7656 4.0578 38.0764 3.64147 38.0012 3.18601 L 37.9885 3.10832 C 37.9373 2.79755 37.7169 2.56363 37.4475 2.53491 C 36.0907 2.38938 31.9961 1.986 29.2833 2.09944 C 28.9573 2.11295 28.7012 2.42907 28.7012 2.8105 V 2.81022 Z" stroke-linecap="round"/>
</g>
		<g transform="matrix(1 0 0 1 -9.1621 -20.5989)">
<linearGradient id="SVGID_1799" gradientUnits="userSpaceOnUse" gradientTransform="matrix(1 0 0 1 0 0)" x1="22.4216" y1="19.4011" x2="41.2539" y2="19.4011">
<stop offset="0%" style="stop-color:rgb(79,82,255);stop-opacity: 1"/>
<stop offset="100%" style="stop-color:rgb(64,66,226);stop-opacity: 1"/>
</linearGradient>
<path style="stroke: none; stroke-width: 1; stroke-dasharray: none; stroke-linecap: butt; stroke-dashoffset: 0; stroke-linejoin: miter; stroke-miterlimit: 4; is-custom-font: none; font-file-url: none; fill: url(#SVGID_1799); fill-rule: nonzero; opacity: 1;" transform=" translate(-31.8379, -19.4011)" d="M 31.8379 28.8171 C 37.0382 28.8171 41.2539 24.6014 41.2539 19.4011 C 41.2539 14.2008 37.0382 9.98511 31.8379 9.98511 C 26.6376 9.98511 22.4219 14.2008 22.4219 19.4011 C 22.4219 24.6014 26.6376 28.8171 31.8379 28.8171 Z" stroke-linecap="round"/>
</g>
		<g transform="matrix(1 0 0 1 -9.1657 -23.8618)">
<path style="stroke: none; stroke-width: 1; stroke-dasharray: none; stroke-linecap: butt; stroke-dashoffset: 0; stroke-linejoin: miter; stroke-miterlimit: 4; is-custom-font: none; font-file-url: none; fill: rgb(255,255,255); fill-rule: nonzero; opacity: 1;" transform=" translate(-31.8343, -16.1382)" d="M 34.7213 15.8431 C 34.7213 17.4375 33.4287 19.1588 31.8343 19.1588 C 30.2399 19.1588 28.9473 17.4375 28.9473 15.8431 C 28.9473 14.2487 30.2399 13.1177 31.8343 13.1177 C 33.4287 13.1177 34.7213 14.2487 34.7213 15.8431 Z" stroke-linecap="round"/>
</g>
		<g transform="matrix(1 0 0 1 -9.1805 -17.3115)">
<path style="stroke: none; stroke-width: 1; stroke-dasharray: none; stroke-linecap: butt; stroke-dashoffset: 0; stroke-linejoin: miter; stroke-miterlimit: 4; is-custom-font: none; font-file-url: none; fill: rgb(255,255,255); fill-rule: nonzero; opacity: 1;" transform=" translate(-31.8196, -22.6885)" d="M 28.2521 25.2974 H 35.2996 C 36.0413 25.2974 36.6983 24.818 36.9243 24.1115 L 37.3035 22.9261 C 37.5811 22.0583 37.1298 21.1186 36.2741 20.8059 C 33.4059 19.7573 30.4404 19.8919 27.4025 20.9027 C 26.5515 21.1859 26.0792 22.0963 26.314 22.9619 L 26.6059 24.0383 C 26.8074 24.7814 27.4822 25.2974 28.2523 25.2974 H 28.2521 Z" stroke-linecap="round"/>
</g>
		<g transform="matrix(1 0 0 1 -8.2845 1.1824)">
<path style="stroke: none; stroke-width: 1; stroke-dasharray: none; stroke-linecap: butt; stroke-dashoffset: 0; stroke-linejoin: miter; stroke-miterlimit: 4; is-custom-font: none; font-file-url: none; fill: rgb(255,255,255); fill-rule: nonzero; opacity: 0.4615;" transform=" translate(-32.7155, -41.1824)" d="M 49.8982 38.5096 H 15.5328 C 15.4278 38.5096 15.3428 38.5947 15.3428 38.6997 V 43.6652 C 15.3428 43.7702 15.4278 43.8552 15.5328 43.8552 H 49.8982 C 50.0032 43.8552 50.0883 43.7702 50.0883 43.6652 V 38.6997 C 50.0883 38.5947 50.0032 38.5096 49.8982 38.5096 Z" stroke-linecap="round"/>
</g>
		<g transform="matrix(1 0 0 1 -8.472 9.904)">
<path style="stroke: none; stroke-width: 1; stroke-dasharray: none; stroke-linecap: butt; stroke-dashoffset: 0; stroke-linejoin: miter; stroke-miterlimit: 4; is-custom-font: none; font-file-url: none; fill: rgb(255,255,255); fill-rule: nonzero; opacity: 0.4615;" transform=" translate(-32.528, -49.904)" d="M 49.7107 47.2312 H 15.3453 C 15.2403 47.2312 15.1553 47.3163 15.1553 47.4212 V 52.3868 C 15.1553 52.4917 15.2403 52.5768 15.3453 52.5768 H 49.7107 C 49.8157 52.5768 49.9007 52.4917 49.9007 52.3868 V 47.4212 C 49.9007 47.3163 49.8157 47.2312 49.7107 47.2312 Z" stroke-linecap="round"/>
</g>
		<g transform="matrix(1 0 0 1 -8.987 19.5713)">
<path style="stroke: none; stroke-width: 1; stroke-dasharray: none; stroke-linecap: butt; stroke-dashoffset: 0; stroke-linejoin: miter; stroke-miterlimit: 4; is-custom-font: none; font-file-url: none; fill: rgb(255,255,255); fill-rule: nonzero; opacity: 0.4615;" transform=" translate(-32.013, -59.5713)" d="M 21.0245 56.1638 H 43.0014 C 43.1309 56.1638 43.2359 56.2688 43.2359 56.3983 V 62.7443 C 43.2359 62.8738 43.1309 62.9788 43.0014 62.9788 H 21.0245 C 20.895 62.9788 20.79 62.8738 20.79 62.7443 V 56.3983 C 20.79 56.2688 20.895 56.1638 21.0245 56.1638 Z" stroke-linecap="round"/>
</g>
		<g transform="matrix(1 0 0 1 -13.7706 1.2052)">
<path style="stroke: none; stroke-width: 1; stroke-dasharray: none; stroke-linecap: butt; stroke-dashoffset: 0; stroke-linejoin: miter; stroke-miterlimit: 4; is-custom-font: none; font-file-url: none; fill: rgb(255,255,255); fill-rule: nonzero; opacity: 0.75;" transform=" translate(-27.2294, -41.2052)" d="M 37.2393 39.7203 H 17.2196 C 17.0331 39.7203 16.8818 39.8716 16.8818 40.0581 V 42.3523 C 16.8818 42.5389 17.0331 42.6901 17.2196 42.6901 H 37.2393 C 37.4258 42.6901 37.5771 42.5389 37.5771 42.3523 V 40.0581 C 37.5771 39.8716 37.4258 39.7203 37.2393 39.7203 Z" stroke-linecap="round"/>
</g>
		<g transform="matrix(1 0 0 1 -23.3992 9.7552)">
<path style="stroke: none; stroke-width: 1; stroke-dasharray: none; stroke-linecap: butt; stroke-dashoffset: 0; stroke-linejoin: miter; stroke-miterlimit: 4; is-custom-font: none; font-file-url: none; fill: rgb(255,255,255); fill-rule: nonzero; opacity: 0.75;" transform=" translate(-17.6007, -49.7552)" d="M 18.0673 50.8815 C 18.6893 50.6238 18.9847 49.9107 18.7271 49.2886 C 18.4694 48.6665 17.7562 48.3711 17.1342 48.6288 C 16.5121 48.8865 16.2167 49.5996 16.4744 50.2217 C 16.732 50.8438 17.4452 51.1392 18.0673 50.8815 Z" stroke-linecap="round"/>
</g>
		<g transform="matrix(1 0 0 1 -20.0542 9.8176)">
<path style="stroke: none; stroke-width: 1; stroke-dasharray: none; stroke-linecap: butt; stroke-dashoffset: 0; stroke-linejoin: miter; stroke-miterlimit: 4; is-custom-font: none; font-file-url: none; fill: rgb(255,255,255); fill-rule: nonzero; opacity: 0.75;" transform=" translate(-20.9458, -49.8175)" d="M 20.9457 51.0367 C 21.619 51.0367 22.1649 50.4909 22.1649 49.8175 C 22.1649 49.1442 21.619 48.5984 20.9457 48.5984 C 20.2724 48.5984 19.7266 49.1442 19.7266 49.8175 C 19.7266 50.4909 20.2724 51.0367 20.9457 51.0367 Z" stroke-linecap="round"/>
</g>
		<g transform="matrix(1 0 0 1 -16.8352 9.9713)">
<path style="stroke: none; stroke-width: 1; stroke-dasharray: none; stroke-linecap: butt; stroke-dashoffset: 0; stroke-linejoin: miter; stroke-miterlimit: 4; is-custom-font: none; font-file-url: none; fill: rgb(255,255,255); fill-rule: nonzero; opacity: 0.75;" transform=" translate(-24.1649, -49.9713)" d="M 25.3514 50.2514 C 25.5061 49.596 25.1002 48.9394 24.4449 48.7848 C 23.7896 48.6301 23.133 49.0359 22.9783 49.6913 C 22.8236 50.3466 23.2295 51.0032 23.8848 51.1579 C 24.5401 51.3125 25.1967 50.9067 25.3514 50.2514 Z" stroke-linecap="round"/>
</g>
		<g transform="matrix(1 0 0 1 -13.4889 10.0365)">
<path style="stroke: none; stroke-width: 1; stroke-dasharray: none; stroke-linecap: butt; stroke-dashoffset: 0; stroke-linejoin: miter; stroke-miterlimit: 4; is-custom-font: none; font-file-url: none; fill: rgb(255,255,255); fill-rule: nonzero; opacity: 0.75;" transform=" translate(-27.5112, -50.0365)" d="M 27.5111 51.2557 C 28.1845 51.2557 28.7303 50.7099 28.7303 50.0365 C 28.7303 49.3632 28.1845 48.8174 27.5111 48.8174 C 26.8378 48.8174 26.292 49.3632 26.292 50.0365 C 26.292 50.7099 26.8378 51.2557 27.5111 51.2557 Z" stroke-linecap="round"/>
</g>
		<g transform="matrix(1 0 0 1 -10.1441 10.0051)">
<path style="stroke: none; stroke-width: 1; stroke-dasharray: none; stroke-linecap: butt; stroke-dashoffset: 0; stroke-linejoin: miter; stroke-miterlimit: 4; is-custom-font: none; font-file-url: none; fill: rgb(255,255,255); fill-rule: nonzero; opacity: 0.75;" transform=" translate(-30.8559, -50.005)" d="M 30.8559 51.2242 C 31.5292 51.2242 32.075 50.6784 32.075 50.005 C 32.075 49.3317 31.5292 48.7859 30.8559 48.7859 C 30.1826 48.7859 29.6367 49.3317 29.6367 50.005 C 29.6367 50.6784 30.1826 51.2242 30.8559 51.2242 Z" stroke-linecap="round"/>
</g>
		<g transform="matrix(1 0 0 1 -6.7994 10.0678)">
<path style="stroke: none; stroke-width: 1; stroke-dasharray: none; stroke-linecap: butt; stroke-dashoffset: 0; stroke-linejoin: miter; stroke-miterlimit: 4; is-custom-font: none; font-file-url: none; fill: rgb(255,255,255); fill-rule: nonzero; opacity: 0.75;" transform=" translate(-34.2006, -50.0678)" d="M 34.2006 51.2869 C 34.8739 51.2869 35.4198 50.7411 35.4198 50.0678 C 35.4198 49.3945 34.8739 48.8486 34.2006 48.8486 C 33.5273 48.8486 32.9814 49.3945 32.9814 50.0678 C 32.9814 50.7411 33.5273 51.2869 34.2006 51.2869 Z" stroke-linecap="round"/>
</g>
		<g transform="matrix(1 0 0 1 10.4032 26.7294)">
<linearGradient id="SVGID_1800" gradientUnits="userSpaceOnUse" gradientTransform="matrix(1 0 0 1 0 0)" x1="56.4868" y1="78.7946" x2="45.9417" y2="51.6484">
<stop offset="0%" style="stop-color:rgb(254,187,186);stop-opacity: 1"/>
<stop offset="100%" style="stop-color:rgb(255,146,142);stop-opacity: 1"/>
</linearGradient>
<path style="stroke: none; stroke-width: 1; stroke-dasharray: none; stroke-linecap: butt; stroke-dashoffset: 0; stroke-linejoin: miter; stroke-miterlimit: 4; is-custom-font: none; font-file-url: none; fill: url(#SVGID_1800); fill-rule: nonzero; opacity: 1;" transform=" translate(-51.4031, -66.7293)" d="M 48.123 54.0476 L 51.8582 54.9813 L 50.9245 61.9846 C 50.9245 61.9846 52.3252 63.3853 52.7919 65.2527 C 53.2589 67.1202 53.6893 74.9618 53.6893 74.9618 L 54.5755 75.4975 L 54.6833 75.9448 L 52.1048 79.4117 L 52.5324 76.6522 C 52.6002 76.2142 52.4826 75.3258 52.5197 75.3072 C 51.119 71.572 48.123 61.0503 48.123 61.0503 V 54.047 V 54.0476 Z" stroke-linecap="round"/>
</g>
		<g transform="matrix(1 0 0 1 7.0133 23.5634)">
<linearGradient id="SVGID_1801" gradientUnits="userSpaceOnUse" gradientTransform="matrix(1 0 0 1 0 0)" x1="56.6474" y1="166.113" x2="21.7947" y2="-241.227">
<stop offset="0%" style="stop-color:rgb(254,187,186);stop-opacity: 1"/>
<stop offset="100%" style="stop-color:rgb(255,146,142);stop-opacity: 1"/>
</linearGradient>
<path style="stroke: none; stroke-width: 1; stroke-dasharray: none; stroke-linecap: butt; stroke-dashoffset: 0; stroke-linejoin: miter; stroke-miterlimit: 4; is-custom-font: none; font-file-url: none; fill: url(#SVGID_1801); fill-rule: nonzero; opacity: 1;" transform=" translate(-48.0132, -63.5635)" d="M 47.0321 75.9932 C 47.0726 75.9926 47.1123 75.9957 47.1529 75.9932 C 46.9724 73.7415 46.1476 63.8315 45.322 60.1171 C 44.3883 55.9153 46.7227 47.5112 46.7227 47.5112 L 50.9249 51.7134 L 48.5905 59.6504 C 50.1902 62.0502 48.3295 76.1032 48.3695 76.097 L 48.3669 76.1283 L 48.9761 76.9657 L 48.9021 77.4198 L 45.181 79.6157 L 46.645 77.2379 C 46.8776 76.8605 47.0059 76.4326 47.0321 75.9932 Z" stroke-linecap="round"/>
</g>
		<g transform="matrix(1 0 0 1 12.1586 -4.1508)">
<linearGradient id="SVGID_1802" gradientUnits="userSpaceOnUse" gradientTransform="matrix(1 0 0 1 0 0)" x1="55.3934" y1="35.8492" x2="50.9238" y2="35.8492">
<stop offset="0%" style="stop-color:rgb(254,187,186);stop-opacity: 1"/>
<stop offset="100%" style="stop-color:rgb(255,146,142);stop-opacity: 1"/>
</linearGradient>
<path style="stroke: none; stroke-width: 1; stroke-dasharray: none; stroke-linecap: butt; stroke-dashoffset: 0; stroke-linejoin: miter; stroke-miterlimit: 4; is-custom-font: none; font-file-url: none; fill: url(#SVGID_1802); fill-rule: nonzero; opacity: 1;" transform=" translate(-53.1586, -35.8492)" d="M 51.7573 28.8749 C 51.7573 28.8749 59.9387 38.0958 51.7573 42.8235 L 50.9238 42.22 C 50.9238 42.22 54.9855 38.3306 50.9238 33.5691 L 51.7573 28.8749 Z" stroke-linecap="round"/>
</g>
		<g transform="matrix(1 0 0 1 5.9447 38.1949)">
<linearGradient id="SVGID_1803" gradientUnits="userSpaceOnUse" gradientTransform="matrix(1 0 0 1 0 0)" x1="47.6601" y1="79.5646" x2="37.0272" y2="63.2514">
<stop offset="0%" style="stop-color:rgb(79,82,255);stop-opacity: 1"/>
<stop offset="100%" style="stop-color:rgb(64,66,226);stop-opacity: 1"/>
</linearGradient>
<path style="stroke: none; stroke-width: 1; stroke-dasharray: none; stroke-linecap: butt; stroke-dashoffset: 0; stroke-linejoin: miter; stroke-miterlimit: 4; is-custom-font: none; font-file-url: none; fill: url(#SVGID_1803); fill-rule: nonzero; opacity: 1;" transform=" translate(-46.9447, -78.1949)" d="M 44.935 79.9601 H 46.1226 C 46.345 79.9601 46.5544 79.8582 46.6901 79.682 C 47.0602 79.2009 47.8273 78.2624 48.1941 78.2379 C 48.6878 78.205 48.6248 79.9601 48.6248 79.9601 H 48.9015 L 49.252 77.7791 C 49.3401 77.2304 49.0673 76.6866 48.5744 76.4296 C 48.5744 76.4296 48.4615 77.2642 47.8496 77.6332 C 47.2376 78.0026 45.3595 79.3245 45.3595 79.3245 C 45.3595 79.3245 45.1295 79.2915 44.8767 79.3374 C 44.502 79.4052 44.5544 79.9601 44.935 79.9601 Z" stroke-linecap="round"/>
</g>
		<g transform="matrix(1 0 0 1 12.6206 37.5052)">
<linearGradient id="SVGID_1804" gradientUnits="userSpaceOnUse" gradientTransform="matrix(1 0 0 1 0 0)" x1="57.2407" y1="84.5326" x2="45.4427" y2="64.1411">
<stop offset="0%" style="stop-color:rgb(79,82,255);stop-opacity: 1"/>
<stop offset="100%" style="stop-color:rgb(64,66,226);stop-opacity: 1"/>
</linearGradient>
<path style="stroke: none; stroke-width: 1; stroke-dasharray: none; stroke-linecap: butt; stroke-dashoffset: 0; stroke-linejoin: miter; stroke-miterlimit: 4; is-custom-font: none; font-file-url: none; fill: url(#SVGID_1804); fill-rule: nonzero; opacity: 1;" transform=" translate(-53.6206, -77.5052)" d="M 52.0125 79.8246 L 53.1069 79.3641 C 53.3119 79.2779 53.4656 79.1026 53.5222 78.8875 C 53.677 78.3006 54.0198 77.138 54.3483 76.9733 C 54.7906 76.7515 55.413 78.3938 55.413 78.3938 L 55.668 78.2865 L 55.1453 76.1401 C 55.0138 75.6002 54.5513 75.2047 53.9976 75.1588 C 53.9976 75.1588 54.2172 75.9718 53.7963 76.5494 C 53.3755 77.127 52.1569 79.0741 52.1569 79.0741 C 52.1569 79.0741 51.9323 79.1332 51.7169 79.2731 C 51.3977 79.4809 51.6612 79.9721 52.0122 79.8243 L 52.0125 79.8246 Z" stroke-linecap="round"/>
</g>
		<g transform="matrix(1 0 0 1 8.147 8.6315)">
<linearGradient id="SVGID_1805" gradientUnits="userSpaceOnUse" gradientTransform="matrix(1 0 0 1 0 0)" x1="59.0153" y1="34.8963" x2="49.693" y2="47.5202">
<stop offset="0%" style="stop-color:rgb(79,82,255);stop-opacity: 1"/>
<stop offset="100%" style="stop-color:rgb(64,66,226);stop-opacity: 1"/>
</linearGradient>
<path style="stroke: none; stroke-width: 1; stroke-dasharray: none; stroke-linecap: butt; stroke-dashoffset: 0; stroke-linejoin: miter; stroke-miterlimit: 4; is-custom-font: none; font-file-url: none; fill: url(#SVGID_1805); fill-rule: nonzero; opacity: 1;" transform=" translate(-49.147, -48.6315)" d="M 45.6527 40.406 C 45.6527 40.406 45.7901 41.2477 45.5888 43.5613 C 45.3875 45.8749 44.426 51.3069 44.6219 56.5042 C 44.6219 56.5042 47.3558 57.1412 52.1054 56.8394 C 52.1054 56.8394 54.1099 48.725 53.6216 45.6401 C 53.1332 42.5552 50.4843 40.3424 50.4843 40.3424 L 45.6527 40.406 Z" stroke-linecap="round"/>
</g>
		<g transform="matrix(1 0 0 1 7.9253 -14.1237)">
<linearGradient id="SVGID_1806" gradientUnits="userSpaceOnUse" gradientTransform="matrix(1 0 0 1 0 0)" x1="50.5123" y1="25.8762" x2="47.3379" y2="25.8762">
<stop offset="0%" style="stop-color:rgb(254,187,186);stop-opacity: 1"/>
<stop offset="100%" style="stop-color:rgb(255,146,142);stop-opacity: 1"/>
</linearGradient>
<path style="stroke: none; stroke-width: 1; stroke-dasharray: none; stroke-linecap: butt; stroke-dashoffset: 0; stroke-linejoin: miter; stroke-miterlimit: 4; is-custom-font: none; font-file-url: none; fill: url(#SVGID_1806); fill-rule: nonzero; opacity: 1;" transform=" translate(-48.9252, -25.8763)" d="M 47.672 24.9461 L 47.3379 28.8749 H 50.5126 L 49.7233 22.8777 L 47.672 24.9461 Z" stroke-linecap="round"/>
</g>
		<g transform="matrix(1 0 0 1 7.1363 -5.4954)">
<linearGradient id="SVGID_1807" gradientUnits="userSpaceOnUse" gradientTransform="matrix(1 0 0 1 0 0)" x1="87.4038" y1="21.4307" x2="74.3914" y2="25.7035">
<stop offset="0%" style="stop-color:rgb(255,146,142);stop-opacity: 1"/>
<stop offset="100%" style="stop-color:rgb(254,112,98);stop-opacity: 1"/>
</linearGradient>
<path style="stroke: none; stroke-width: 1; stroke-dasharray: none; stroke-linecap: butt; stroke-dashoffset: 0; stroke-linejoin: miter; stroke-miterlimit: 4; is-custom-font: none; font-file-url: none; fill: url(#SVGID_1807); fill-rule: nonzero; opacity: 1;" transform=" translate(-48.1363, -34.5046)" d="M 51.4532 28.3316 C 50.3576 28.271 47.9081 28.1593 46.1727 28.2539 C 45.2589 28.3037 44.4935 28.9593 44.3066 29.855 L 43.8833 31.8835 C 43.7256 32.639 43.7493 33.421 43.9519 34.1658 L 45.6519 40.4063 C 45.6519 40.4063 47.1641 41.3149 50.4835 40.3427 C 50.4835 40.3427 53.3986 33.3909 52.2054 28.9438 C 52.1128 28.5984 51.8099 28.3515 51.4527 28.3318 L 51.4532 28.3316 Z" stroke-linecap="round"/>
</g>
		<g transform="matrix(1 0 0 1 -0.3483 -6.075)">
<linearGradient id="SVGID_1808" gradientUnits="userSpaceOnUse" gradientTransform="matrix(1 0 0 1 0 0)" x1="31.8877" y1="27.6861" x2="59.3436" y2="43.4152">
<stop offset="0%" style="stop-color:rgb(254,187,186);stop-opacity: 1"/>
<stop offset="100%" style="stop-color:rgb(255,146,142);stop-opacity: 1"/>
</linearGradient>
<path style="stroke: none; stroke-width: 1; stroke-dasharray: none; stroke-linecap: butt; stroke-dashoffset: 0; stroke-linejoin: miter; stroke-miterlimit: 4; is-custom-font: none; font-file-url: none; fill: url(#SVGID_1808); fill-rule: nonzero; opacity: 1;" transform=" translate(-40.6517, -33.925)" d="M 44.3903 29.4911 C 43.9227 30.7229 43.5002 32.0144 43.0467 33.2243 C 42.8159 33.8298 42.582 34.4231 42.3317 34.9681 C 42.2051 35.2395 42.066 35.4889 41.9385 35.7152 C 41.8107 35.939 41.6668 36.1253 41.5917 36.2112 C 41.577 36.2239 41.6263 36.2337 41.6426 36.2343 C 41.6525 36.2354 41.3265 36.2878 41.2266 36.3044 L 40.8359 36.3021 C 40.2757 36.2734 39.6412 36.1746 39.005 36.051 C 37.7214 35.8118 36.3871 35.4757 35.0168 35.2215 L 35.0064 35.2195 C 34.7443 35.1708 34.4921 35.3439 34.4437 35.6063 C 34.4116 35.7791 34.4766 35.948 34.5994 36.0567 C 35.1519 36.5431 35.7374 36.9425 36.3449 37.3313 C 36.6506 37.5182 36.9617 37.7014 37.2781 37.8774 C 37.6007 38.0418 37.9238 38.2073 38.2596 38.3607 C 38.9358 38.6554 39.6345 38.9268 40.4392 39.101 C 40.6506 39.1365 40.8595 39.1737 41.0771 39.2027 C 41.3212 39.2111 41.5427 39.2328 41.8093 39.2173 C 41.9509 39.2032 42.093 39.1858 42.2349 39.1652 C 42.3106 39.152 42.3661 39.1506 42.4578 39.1252 C 42.555 39.096 42.6521 39.0633 42.7478 39.0276 C 42.9476 38.9558 43.0769 38.8691 43.2393 38.7787 C 43.3741 38.6898 43.4971 38.5969 43.6162 38.5017 C 44.0562 38.1271 44.3292 37.7549 44.5702 37.398 C 44.8103 37.0413 45.0006 36.6838 45.1715 36.3334 C 45.5143 35.6336 45.7817 34.9403 45.9991 34.2421 C 46.439 32.8431 46.7371 31.468 46.863 30.0076 C 46.9232 29.3081 46.405 28.6922 45.7055 28.632 C 45.1264 28.5821 44.6048 28.9284 44.408 29.446 L 44.3914 29.4911 H 44.3903 Z" stroke-linecap="round"/>
</g>
		<g transform="matrix(1 0 0 1 -7.3358 -4.9637)">
<linearGradient id="SVGID_1809" gradientUnits="userSpaceOnUse" gradientTransform="matrix(1 0 0 1 0 0)" x1="29.1586" y1="32.4483" x2="56.6145" y2="48.1771">
<stop offset="0%" style="stop-color:rgb(254,187,186);stop-opacity: 1"/>
<stop offset="100%" style="stop-color:rgb(255,146,142);stop-opacity: 1"/>
</linearGradient>
<path style="stroke: none; stroke-width: 1; stroke-dasharray: none; stroke-linecap: butt; stroke-dashoffset: 0; stroke-linejoin: miter; stroke-miterlimit: 4; is-custom-font: none; font-file-url: none; fill: url(#SVGID_1809); fill-rule: nonzero; opacity: 1;" transform=" translate(-33.6642, -35.0363)" d="M 35.447 35.8493 L 34.8806 34.5046 L 31.899 33.7617 C 31.899 33.7617 31.6606 34.2785 32.9127 34.5046 C 32.9127 34.5046 32.4654 34.9989 32.7041 35.5805 C 32.9425 36.1617 35.4771 36.7444 35.4472 35.8493 H 35.447 Z" stroke-linecap="round"/>
</g>
		<g transform="matrix(1 0 0 1 6.8358 -17.3879)">
<linearGradient id="SVGID_1810" gradientUnits="userSpaceOnUse" gradientTransform="matrix(1 0 0 1 0 0)" x1="45.2246" y1="25.8751" x2="51.3936" y2="16.8543">
<stop offset="0%" style="stop-color:rgb(254,187,186);stop-opacity: 1"/>
<stop offset="100%" style="stop-color:rgb(255,146,142);stop-opacity: 1"/>
</linearGradient>
<path style="stroke: none; stroke-width: 1; stroke-dasharray: none; stroke-linecap: butt; stroke-dashoffset: 0; stroke-linejoin: miter; stroke-miterlimit: 4; is-custom-font: none; font-file-url: none; fill: url(#SVGID_1810); fill-rule: nonzero; opacity: 1;" transform=" translate(-47.8357, -22.6121)" d="M 46.3275 20.4084 C 46.2141 20.4751 45.3212 23.6254 46.0694 24.9458 C 46.8179 26.2666 49.1033 24.7874 49.7226 22.8774 C 50.3419 20.9678 49.3468 18.6274 46.3275 20.4081 V 20.4084 Z" stroke-linecap="round"/>
</g>
		<g transform="matrix(1 0 0 1 14.3938 -11.6418)">
<linearGradient id="SVGID_1811" gradientUnits="userSpaceOnUse" gradientTransform="matrix(1 0 0 1 0 0)" x1="48.4921" y1="19.4299" x2="57.2314" y2="30.791">
<stop offset="0%" style="stop-color:rgb(9,0,93);stop-opacity: 1"/>
<stop offset="100%" style="stop-color:rgb(26,15,145);stop-opacity: 1"/>
</linearGradient>
<path style="stroke: none; stroke-width: 1; stroke-dasharray: none; stroke-linecap: butt; stroke-dashoffset: 0; stroke-linejoin: miter; stroke-miterlimit: 4; is-custom-font: none; font-file-url: none; fill: url(#SVGID_1811); fill-rule: nonzero; opacity: 1;" transform=" translate(-55.3938, -28.3582)" d="M 52.2512 22.8776 C 52.7638 25.3891 54.4623 24.702 55.6654 25.8192 C 57.6154 27.6304 60.4044 25.7632 63.1161 27.4795 C 65.0736 28.7186 66.0169 31.8883 65.0775 34.4476 C 63.7764 37.9922 59.3299 39.4498 57.0256 38.3703 C 54.8235 37.3386 55.1371 34.2483 52.1738 33.0539 C 50.9158 32.547 50.2948 32.8763 49.5415 32.125 C 48.2227 30.8096 48.5785 28.2567 48.7156 27.2732 C 49.0132 25.1392 49.7284 24.7529 49.3867 23.815 C 48.7215 21.9909 45.6192 22.3673 45.3608 21.0794 C 45.1254 19.9067 47.374 17.6838 49.49 18.0342 C 52.7641 18.5761 52.0229 21.7587 52.2515 22.8776 H 52.2512 Z" stroke-linecap="round"/>
</g>
		<g transform="matrix(1 0 0 1 21.0107 -9.2876)">
<path style="stroke: none; stroke-width: 1; stroke-dasharray: none; stroke-linecap: butt; stroke-dashoffset: 0; stroke-linejoin: miter; stroke-miterlimit: 4; is-custom-font: none; font-file-url: none; fill: rgb(255,255,255); fill-rule: nonzero; opacity: 0.6;" transform=" translate(-62.0108, -30.7125)" d="M 64.1007 33.8473 C 64.1395 33.8473 64.1744 33.8211 64.184 33.7817 C 64.6031 32.0415 64.4131 30.6143 63.6185 29.5398 C 62.3 27.7566 59.7375 27.5801 59.7119 27.5784 C 59.6716 27.5716 59.6241 27.6113 59.6212 27.6589 C 59.6184 27.7062 59.6542 27.7467 59.7015 27.7495 C 59.7265 27.7509 62.2113 27.9235 63.4814 29.6429 C 64.2437 30.6746 64.4241 32.0536 64.0174 33.7417 C 64.0064 33.7876 64.0345 33.834 64.0807 33.845 C 64.0874 33.8464 64.0942 33.8473 64.1007 33.8473 Z" stroke-linecap="round"/>
</g>
		<g transform="matrix(1 0 0 1 11.5933 -9.3482)">
<path style="stroke: none; stroke-width: 1; stroke-dasharray: none; stroke-linecap: butt; stroke-dashoffset: 0; stroke-linejoin: miter; stroke-miterlimit: 4; is-custom-font: none; font-file-url: none; fill: rgb(255,255,255); fill-rule: nonzero; opacity: 0.72;" transform=" translate(-52.5932, -30.6518)" d="M 55.7079 35.4403 C 55.7113 35.4403 55.7152 35.4397 55.7189 35.4389 C 55.7417 35.433 55.7554 35.4093 55.7495 35.3865 C 55.3414 33.82 54.6247 32.732 53.6203 32.1527 C 52.8895 31.731 52.2052 31.6919 51.6017 31.6573 C 51.0196 31.6238 50.5168 31.5948 50.1123 31.235 C 49.276 30.4913 49.3244 28.703 50.2562 25.9199 C 50.2638 25.8973 50.2514 25.8731 50.2291 25.8655 C 50.2066 25.8579 50.1824 25.8703 50.1748 25.8925 C 49.231 28.7112 49.1907 30.5299 50.0552 31.2987 C 50.4819 31.6784 50.9985 31.7082 51.5966 31.7426 C 52.1909 31.7766 52.8642 31.8155 53.5775 32.2267 C 54.5613 32.794 55.2642 33.8645 55.6665 35.4082 C 55.6716 35.4273 55.689 35.4403 55.7082 35.4403 H 55.7079 Z" stroke-linecap="round"/>
</g>
		<g transform="matrix(1 0 0 1 7.6272 -18.8616)">
<path style="stroke: none; stroke-width: 1; stroke-dasharray: none; stroke-linecap: butt; stroke-dashoffset: 0; stroke-linejoin: miter; stroke-miterlimit: 4; is-custom-font: none; font-file-url: none; fill: rgb(255,255,255); fill-rule: nonzero; opacity: 0.72;" transform=" translate(-48.6271, -21.1384)" d="M 51.0394 22.2541 C 51.0439 22.2541 51.0484 22.2535 51.0532 22.2518 C 51.0757 22.2442 51.0875 22.2198 51.0802 22.1975 C 50.7556 21.232 49.8205 21.3753 48.8296 21.5278 C 48.2025 21.6244 47.5542 21.7235 47.0041 21.5608 C 46.5937 21.4392 46.35 21.2506 46.2796 21.0003 C 46.1591 20.5741 46.5808 20.0993 46.585 20.0942 C 46.601 20.0767 46.5994 20.0494 46.5819 20.0337 C 46.5645 20.0179 46.5371 20.0193 46.5214 20.0368 C 46.5025 20.0576 46.0642 20.5513 46.1968 21.0231 C 46.2759 21.3035 46.5391 21.5121 46.9797 21.6424 C 47.5483 21.8107 48.2061 21.71 48.8426 21.612 C 49.8371 21.4594 50.6971 21.3269 50.9988 22.2245 C 51.0047 22.2426 51.0216 22.2535 51.0394 22.2535 V 22.2541 Z" stroke-linecap="round"/>
</g>
</g>
</g>
<g transform="matrix(1 0 0 1 514.672 956.5174)" style="" id="241745">
		
<path xml:space="preserve" font-family="Lato" font-size="108" font-style="normal" font-weight="normal" style="stroke: none; stroke-width: 1; stroke-dasharray: none; stroke-linecap: butt; stroke-dashoffset: 0; stroke-linejoin: miter; stroke-miterlimit: 4; is-custom-font: none; font-file-url: none; fill: rgb(0,0,0); fill-rule: nonzero; opacity: 1; white-space: pre;" d="M-412.61 4.98L-425.03 4.98L-425.03 33.93L-435.46 33.93L-435.46-43.45L-412.61-43.45Q-405.27-43.45-399.84-41.75Q-394.42-40.05-390.85-36.92Q-387.29-33.79-385.53-29.36Q-383.78-24.93-383.78-19.48L-383.78-19.48Q-383.78-14.08-385.67-9.60Q-387.56-5.11-391.20-1.87Q-394.85 1.37-400.25 3.17Q-405.65 4.98-412.61 4.98L-412.61 4.98ZM-425.03-35.19L-425.03-3.33L-412.61-3.33Q-408.13-3.33-404.70-4.52Q-401.27-5.71-398.95-7.84Q-396.63-9.97-395.44-12.94Q-394.25-15.91-394.25-19.48L-394.25-19.48Q-394.25-26.88-398.82-31.03Q-403.38-35.19-412.61-35.19L-412.61-35.19L-425.03-35.19ZM-351.54-21.64L-351.54-21.64Q-345.55-21.64-340.71-19.64Q-335.88-17.64-332.50-13.97Q-329.13-10.30-327.32-5.09Q-325.51 0.12-325.51 6.55L-325.51 6.55Q-325.51 13.03-327.32 18.21Q-329.13 23.40-332.50 27.07Q-335.88 30.74-340.71 32.71Q-345.55 34.68-351.54 34.68L-351.54 34.68Q-357.53 34.68-362.37 32.71Q-367.20 30.74-370.60 27.07Q-374.00 23.40-375.84 18.21Q-377.68 13.03-377.68 6.55L-377.68 6.55Q-377.68 0.12-375.84-5.09Q-374.00-10.30-370.60-13.97Q-367.20-17.64-362.37-19.64Q-357.53-21.64-351.54-21.64ZM-351.54 27.18L-351.54 27.18Q-343.44 27.18-339.44 21.75Q-335.45 16.32-335.45 6.60L-335.45 6.60Q-335.45-3.17-339.44-8.62Q-343.44-14.08-351.54-14.08L-351.54-14.08Q-355.64-14.08-358.67-12.67Q-361.69-11.27-363.72-8.62Q-365.74-5.98-366.74-2.12Q-367.74 1.74-367.74 6.60L-367.74 6.60Q-367.74 11.46-366.74 15.30Q-365.74 19.13-363.72 21.75Q-361.69 24.37-358.67 25.77Q-355.64 27.18-351.54 27.18ZM-304.02 33.93L-313.63 33.93L-313.63-20.77L-308.12-20.77Q-306.56-20.77-305.96-20.18Q-305.37-19.59-305.15-18.13L-305.15-18.13L-304.51-9.60Q-301.70-15.32-297.57-18.53Q-293.44-21.75-287.87-21.75L-287.87-21.75Q-285.61-21.75-283.77-21.23Q-281.93-20.72-280.37-19.80L-280.37-19.80L-281.61-12.62Q-281.99-11.27-283.28-11.27L-283.28-11.27Q-284.04-11.27-285.61-11.78Q-287.17-12.30-289.98-12.30L-289.98-12.30Q-295.00-12.30-298.38-9.38Q-301.75-6.46-304.02-0.90L-304.02-0.90L-304.02 33.93ZM-253.53 34.79L-253.53 34.79Q-260.01 34.79-263.49 31.17Q-266.98 27.56-266.98 20.75L-266.98 20.75L-266.98-12.73L-273.56-12.73Q-274.43-12.73-275.02-13.24Q-275.62-13.75-275.62-14.83L-275.62-14.83L-275.62-18.67L-266.65-19.80L-264.44-36.70Q-264.33-37.51-263.74-38.03Q-263.14-38.54-262.22-38.54L-262.22-38.54L-257.36-38.54L-257.36-19.69L-241.70-19.69L-241.70-12.73L-257.36-12.73L-257.36 20.10Q-257.36 23.56-255.69 25.23Q-254.02 26.91-251.37 26.91L-251.37 26.91Q-249.86 26.91-248.75 26.50Q-247.64 26.10-246.83 25.61Q-246.02 25.13-245.46 24.72Q-244.89 24.32-244.46 24.32L-244.46 24.32Q-243.70 24.32-243.11 25.23L-243.11 25.23L-240.30 29.82Q-242.78 32.15-246.29 33.47Q-249.80 34.79-253.53 34.79ZM-189.65-1.06L-189.65 33.93L-193.91 33.93Q-195.32 33.93-196.18 33.50Q-197.05 33.06-197.32 31.66L-197.32 31.66L-198.40 26.58Q-200.56 28.53-202.61 30.07Q-204.66 31.61-206.93 32.66Q-209.20 33.71-211.76 34.25Q-214.33 34.79-217.46 34.79L-217.46 34.79Q-220.64 34.79-223.43 33.90Q-226.21 33.01-228.26 31.23Q-230.31 29.45-231.53 26.72Q-232.74 23.99-232.74 20.27L-232.74 20.27Q-232.74 17.03-230.96 14.03Q-229.18 11.03-225.21 8.71Q-221.24 6.39-214.81 4.90Q-208.39 3.42-199.10 3.20L-199.10 3.20L-199.10-1.06Q-199.10-7.44-201.83-10.70Q-204.55-13.97-209.90-13.97L-209.90-13.97Q-213.41-13.97-215.81-13.08Q-218.21-12.19-219.97-11.08Q-221.72-9.97-222.99-9.08Q-224.26-8.19-225.50-8.19L-225.50-8.19Q-226.48-8.19-227.21-8.71Q-227.93-9.22-228.37-9.97L-228.37-9.97L-230.09-13.05Q-225.56-17.43-220.32-19.59Q-215.08-21.75-208.71-21.75L-208.71-21.75Q-204.12-21.75-200.56-20.23Q-196.99-18.72-194.56-16.02Q-192.13-13.32-190.89-9.49Q-189.65-5.65-189.65-1.06L-189.65-1.06ZM-214.60 28.04L-214.60 28.04Q-212.06 28.04-209.95 27.53Q-207.85 27.02-205.98 26.07Q-204.12 25.13-202.42 23.78Q-200.72 22.43-199.10 20.70L-199.10 20.70L-199.10 9.30Q-205.74 9.52-210.38 10.36Q-215.03 11.19-217.94 12.54Q-220.86 13.89-222.18 15.73Q-223.51 17.57-223.51 19.83L-223.51 19.83Q-223.51 21.99-222.80 23.56Q-222.10 25.13-220.91 26.12Q-219.73 27.12-218.11 27.58Q-216.49 28.04-214.60 28.04ZM-173.99-45.61L-164.38-45.61L-164.38 33.93L-173.99 33.93L-173.99-45.61ZM-105.62 1.64L-113.56 1.64L-113.56 33.93L-123.98 33.93L-123.98-43.45L-102.11-43.45Q-94.77-43.45-89.42-41.97Q-84.08-40.48-80.60-37.68Q-77.11-34.87-75.44-30.90Q-73.76-26.93-73.76-22.02L-73.76-22.02Q-73.76-17.91-75.06-14.35Q-76.36-10.78-78.81-7.95Q-81.27-5.11-84.81-3.12Q-88.34-1.12-92.83-0.09L-92.83-0.09Q-90.88 1.04-89.37 3.20L-89.37 3.20L-66.80 33.93L-76.09 33.93Q-78.95 33.93-80.30 31.71L-80.30 31.71L-100.39 4.07Q-101.30 2.77-102.38 2.20Q-103.46 1.64-105.62 1.64L-105.62 1.64ZM-113.56-35.19L-113.56-5.98L-102.60-5.98Q-98.01-5.98-94.53-7.09Q-91.04-8.19-88.70-10.22Q-86.35-12.24-85.16-15.05Q-83.97-17.86-83.97-21.26L-83.97-21.26Q-83.97-28.17-88.53-31.68Q-93.10-35.19-102.11-35.19L-102.11-35.19L-113.56-35.19ZM-35.37-21.64L-35.37-21.64Q-30.46-21.64-26.30-19.99Q-22.14-18.34-19.12-15.24Q-16.09-12.13-14.39-7.57Q-12.69-3.01-12.69 2.82L-12.69 2.82Q-12.69 5.09-13.18 5.85Q-13.66 6.60-15.01 6.60L-15.01 6.60L-51.41 6.60Q-51.30 11.79-50.00 15.62Q-48.71 19.46-46.44 22.02Q-44.17 24.59-41.04 25.85Q-37.91 27.12-34.02 27.12L-34.02 27.12Q-30.40 27.12-27.78 26.29Q-25.16 25.45-23.27 24.48Q-21.38 23.51-20.12 22.67Q-18.85 21.83-17.93 21.83L-17.93 21.83Q-16.74 21.83-16.09 22.75L-16.09 22.75L-13.39 26.26Q-15.17 28.42-17.66 30.01Q-20.14 31.61-22.98 32.63Q-25.81 33.66-28.84 34.17Q-31.86 34.68-34.83 34.68L-34.83 34.68Q-40.50 34.68-45.28 32.77Q-50.06 30.85-53.54 27.15Q-57.02 23.45-58.97 18.00Q-60.91 12.54-60.91 5.47L-60.91 5.47Q-60.91-0.25-59.16-5.22Q-57.40-10.19-54.11-13.84Q-50.81-17.48-46.06-19.56Q-41.31-21.64-35.37-21.64ZM-35.15-14.56L-35.15-14.56Q-42.12-14.56-46.12-10.54Q-50.11-6.52-51.08 0.61L-51.08 0.61L-21.33 0.61Q-21.33-2.74-22.25-5.52Q-23.17-8.30-24.95-10.33Q-26.73-12.35-29.30-13.46Q-31.86-14.56-35.15-14.56ZM17.98-21.69L17.98-21.69Q21.55-21.69 24.65-20.91Q27.76-20.13 30.29-18.61L30.29-18.61L45.14-18.61L45.14-15.05Q45.14-13.27 42.88-12.78L42.88-12.78L36.67-11.92Q38.50-8.41 38.50-4.09L38.50-4.09Q38.50-0.09 36.96 3.17Q35.42 6.44 32.70 8.76Q29.97 11.09 26.22 12.33Q22.46 13.57 17.98 13.57L17.98 13.57Q14.15 13.57 10.75 12.65L10.75 12.65Q9.02 13.73 8.13 14.97Q7.24 16.22 7.24 17.40L7.24 17.40Q7.24 19.35 8.80 20.35Q10.37 21.35 12.96 21.78Q15.55 22.21 18.85 22.32Q22.14 22.43 25.57 22.67Q29.00 22.91 32.29 23.51Q35.59 24.10 38.18 25.45Q40.77 26.80 42.34 29.18Q43.90 31.55 43.90 35.33L43.90 35.33Q43.90 38.84 42.15 42.14Q40.39 45.43 37.10 47.99Q33.80 50.56 29.05 52.10Q24.30 53.64 18.31 53.64L18.31 53.64Q12.31 53.64 7.80 52.45Q3.29 51.26 0.32 49.26Q-2.65 47.27-4.13 44.65Q-5.62 42.03-5.62 39.17L-5.62 39.17Q-5.62 35.12-3.05 32.28Q-0.49 29.45 4.00 27.77L4.00 27.77Q1.67 26.69 0.30 24.88Q-1.08 23.07-1.08 20.05L-1.08 20.05Q-1.08 18.86-0.65 17.59Q-0.22 16.32 0.67 15.08Q1.57 13.84 2.86 12.71Q4.16 11.57 5.89 10.71L5.89 10.71Q1.84 8.44-0.46 4.69Q-2.75 0.93-2.75-4.09L-2.75-4.09Q-2.75-8.08-1.22-11.35Q0.32-14.62 3.08-16.91Q5.83-19.21 9.64-20.45Q13.45-21.69 17.98-21.69ZM35.05 36.90L35.05 36.90Q35.05 34.85 33.91 33.60Q32.78 32.36 30.83 31.69Q28.89 31.01 26.35 30.69Q23.81 30.36 21.01 30.23Q18.20 30.09 15.28 29.93Q12.37 29.77 9.72 29.34L9.72 29.34Q6.64 30.80 4.72 32.90Q2.81 35.01 2.81 37.92L2.81 37.92Q2.81 39.76 3.75 41.35Q4.70 42.95 6.64 44.11Q8.59 45.27 11.53 45.94Q14.47 46.62 18.47 46.62L18.47 46.62Q22.36 46.62 25.43 45.92Q28.51 45.21 30.64 43.92Q32.78 42.62 33.91 40.84Q35.05 39.06 35.05 36.90ZM17.98 7.20L17.98 7.20Q20.90 7.20 23.14 6.39Q25.38 5.58 26.89 4.12Q28.40 2.66 29.16 0.64Q29.92-1.39 29.92-3.82L29.92-3.82Q29.92-8.84 26.86-11.81Q23.81-14.78 17.98-14.78L17.98-14.78Q12.20-14.78 9.15-11.81Q6.10-8.84 6.10-3.82L6.10-3.82Q6.10-1.39 6.88 0.64Q7.67 2.66 9.18 4.12Q10.69 5.58 12.91 6.39Q15.12 7.20 17.98 7.20ZM55.84-20.77L65.45-20.77L65.45 33.93L55.84 33.93L55.84-20.77ZM67.61-37.95L67.61-37.95Q67.61-36.54 67.04-35.33Q66.47-34.11 65.53-33.17Q64.58-32.22 63.34-31.68Q62.10-31.14 60.70-31.14L60.70-31.14Q59.29-31.14 58.08-31.68Q56.86-32.22 55.92-33.17Q54.97-34.11 54.43-35.33Q53.89-36.54 53.89-37.95L53.89-37.95Q53.89-39.35 54.43-40.62Q54.97-41.89 55.92-42.83Q56.86-43.78 58.08-44.32Q59.29-44.86 60.70-44.86L60.70-44.86Q62.10-44.86 63.34-44.32Q64.58-43.78 65.53-42.83Q66.47-41.89 67.04-40.62Q67.61-39.35 67.61-37.95ZM115.88-15.27L113.72-11.76Q113.08-10.57 111.73-10.57L111.73-10.57Q110.92-10.57 109.89-11.16Q108.86-11.76 107.38-12.49Q105.89-13.21 103.84-13.84Q101.79-14.46 98.98-14.46L98.98-14.46Q96.55-14.46 94.61-13.84Q92.66-13.21 91.29-12.13Q89.91-11.05 89.18-9.62Q88.45-8.19 88.45-6.52L88.45-6.52Q88.45-4.41 89.67-3.01Q90.88-1.60 92.88-0.58Q94.88 0.45 97.42 1.23Q99.95 2.01 102.63 2.90Q105.30 3.80 107.84 4.88Q110.38 5.96 112.37 7.58Q114.37 9.20 115.59 11.54Q116.80 13.89 116.80 17.19L116.80 17.19Q116.80 20.97 115.45 24.18Q114.10 27.39 111.46 29.74Q108.81 32.09 104.98 33.44Q101.14 34.79 96.12 34.79L96.12 34.79Q90.40 34.79 85.75 32.93Q81.11 31.07 77.87 28.15L77.87 28.15L80.14 24.48Q80.57 23.78 81.16 23.40Q81.76 23.02 82.73 23.02L82.73 23.02Q83.70 23.02 84.78 23.78Q85.86 24.53 87.40 25.45Q88.94 26.37 91.12 27.12Q93.31 27.88 96.61 27.88L96.61 27.88Q99.41 27.88 101.52 27.15Q103.63 26.42 105.03 25.18Q106.43 23.94 107.11 22.32Q107.78 20.70 107.78 18.86L107.78 18.86Q107.78 16.59 106.57 15.11Q105.35 13.62 103.36 12.57Q101.36 11.52 98.79 10.73Q96.23 9.95 93.55 9.09Q90.88 8.22 88.32 7.12Q85.75 6.01 83.75 4.34Q81.76 2.66 80.54 0.20Q79.33-2.25 79.33-5.76L79.33-5.76Q79.33-8.89 80.62-11.78Q81.92-14.67 84.40-16.86Q86.89-19.05 90.50-20.34Q94.12-21.64 98.77-21.64L98.77-21.64Q104.17-21.64 108.46-19.94Q112.75-18.24 115.88-15.27L115.88-15.27ZM145.85 34.79L145.85 34.79Q139.37 34.79 135.89 31.17Q132.41 27.56 132.41 20.75L132.41 20.75L132.41-12.73L125.82-12.73Q124.96-12.73 124.36-13.24Q123.77-13.75 123.77-14.83L123.77-14.83L123.77-18.67L132.73-19.80L134.95-36.70Q135.05-37.51 135.65-38.03Q136.24-38.54 137.16-38.54L137.16-38.54L142.02-38.54L142.02-19.69L157.68-19.69L157.68-12.73L142.02-12.73L142.02 20.10Q142.02 23.56 143.69 25.23Q145.37 26.91 148.01 26.91L148.01 26.91Q149.53 26.91 150.63 26.50Q151.74 26.10 152.55 25.61Q153.36 25.13 153.93 24.72Q154.49 24.32 154.93 24.32L154.93 24.32Q155.68 24.32 156.28 25.23L156.28 25.23L159.08 29.82Q156.60 32.15 153.09 33.47Q149.58 34.79 145.85 34.79ZM179.17 33.93L169.56 33.93L169.56-20.77L175.07-20.77Q176.63-20.77 177.23-20.18Q177.82-19.59 178.04-18.13L178.04-18.13L178.69-9.60Q181.49-15.32 185.62-18.53Q189.76-21.75 195.32-21.75L195.32-21.75Q197.59-21.75 199.42-21.23Q201.26-20.72 202.82-19.80L202.82-19.80L201.58-12.62Q201.20-11.27 199.91-11.27L199.91-11.27Q199.15-11.27 197.59-11.78Q196.02-12.30 193.21-12.30L193.21-12.30Q188.19-12.30 184.81-9.38Q181.44-6.46 179.17-0.90L179.17-0.90L179.17 33.93ZM251.21-1.06L251.21 33.93L246.94 33.93Q245.54 33.93 244.67 33.50Q243.81 33.06 243.54 31.66L243.54 31.66L242.46 26.58Q240.30 28.53 238.25 30.07Q236.20 31.61 233.93 32.66Q231.66 33.71 229.09 34.25Q226.53 34.79 223.40 34.79L223.40 34.79Q220.21 34.79 217.43 33.90Q214.65 33.01 212.60 31.23Q210.55 29.45 209.33 26.72Q208.12 23.99 208.12 20.27L208.12 20.27Q208.12 17.03 209.90 14.03Q211.68 11.03 215.65 8.71Q219.62 6.39 226.04 4.90Q232.47 3.42 241.76 3.20L241.76 3.20L241.76-1.06Q241.76-7.44 239.03-10.70Q236.30-13.97 230.96-13.97L230.96-13.97Q227.45-13.97 225.04-13.08Q222.64-12.19 220.89-11.08Q219.13-9.97 217.86-9.08Q216.59-8.19 215.35-8.19L215.35-8.19Q214.38-8.19 213.65-8.71Q212.92-9.22 212.49-9.97L212.49-9.97L210.76-13.05Q215.30-17.43 220.54-19.59Q225.77-21.75 232.15-21.75L232.15-21.75Q236.74-21.75 240.30-20.23Q243.86-18.72 246.29-16.02Q248.72-13.32 249.97-9.49Q251.21-5.65 251.21-1.06L251.21-1.06ZM226.26 28.04L226.26 28.04Q228.80 28.04 230.90 27.53Q233.01 27.02 234.87 26.07Q236.74 25.13 238.44 23.78Q240.14 22.43 241.76 20.70L241.76 20.70L241.76 9.30Q235.12 9.52 230.47 10.36Q225.83 11.19 222.91 12.54Q220.00 13.89 218.67 15.73Q217.35 17.57 217.35 19.83L217.35 19.83Q217.35 21.99 218.05 23.56Q218.75 25.13 219.94 26.12Q221.13 27.12 222.75 27.58Q224.37 28.04 226.26 28.04ZM282.37 34.79L282.37 34.79Q275.89 34.79 272.40 31.17Q268.92 27.56 268.92 20.75L268.92 20.75L268.92-12.73L262.33-12.73Q261.47-12.73 260.87-13.24Q260.28-13.75 260.28-14.83L260.28-14.83L260.28-18.67L269.24-19.80L271.46-36.70Q271.57-37.51 272.16-38.03Q272.75-38.54 273.67-38.54L273.67-38.54L278.53-38.54L278.53-19.69L294.19-19.69L294.19-12.73L278.53-12.73L278.53 20.10Q278.53 23.56 280.21 25.23Q281.88 26.91 284.53 26.91L284.53 26.91Q286.04 26.91 287.14 26.50Q288.25 26.10 289.06 25.61Q289.87 25.13 290.44 24.72Q291.01 24.32 291.44 24.32L291.44 24.32Q292.19 24.32 292.79 25.23L292.79 25.23L295.60 29.82Q293.11 32.15 289.60 33.47Q286.09 34.79 282.37 34.79ZM307.15-20.77L316.76-20.77L316.76 33.93L307.15 33.93L307.15-20.77ZM318.92-37.95L318.92-37.95Q318.92-36.54 318.36-35.33Q317.79-34.11 316.84-33.17Q315.90-32.22 314.66-31.68Q313.42-31.14 312.01-31.14L312.01-31.14Q310.61-31.14 309.39-31.68Q308.18-32.22 307.23-33.17Q306.29-34.11 305.75-35.33Q305.21-36.54 305.21-37.95L305.21-37.95Q305.21-39.35 305.75-40.62Q306.29-41.89 307.23-42.83Q308.18-43.78 309.39-44.32Q310.61-44.86 312.01-44.86L312.01-44.86Q313.42-44.86 314.66-44.32Q315.90-43.78 316.84-42.83Q317.79-41.89 318.36-40.62Q318.92-39.35 318.92-37.95ZM355.86-21.64L355.86-21.64Q361.85-21.64 366.69-19.64Q371.52-17.64 374.89-13.97Q378.27-10.30 380.08-5.09Q381.89 0.12 381.89 6.55L381.89 6.55Q381.89 13.03 380.08 18.21Q378.27 23.40 374.89 27.07Q371.52 30.74 366.69 32.71Q361.85 34.68 355.86 34.68L355.86 34.68Q349.87 34.68 345.03 32.71Q340.20 30.74 336.80 27.07Q333.40 23.40 331.56 18.21Q329.72 13.03 329.72 6.55L329.72 6.55Q329.72 0.12 331.56-5.09Q333.40-10.30 336.80-13.97Q340.20-17.64 345.03-19.64Q349.87-21.64 355.86-21.64ZM355.86 27.18L355.86 27.18Q363.96 27.18 367.96 21.75Q371.95 16.32 371.95 6.60L371.95 6.60Q371.95-3.17 367.96-8.62Q363.96-14.08 355.86-14.08L355.86-14.08Q351.76-14.08 348.73-12.67Q345.71-11.27 343.68-8.62Q341.66-5.98 340.66-2.12Q339.66 1.74 339.66 6.60L339.66 6.60Q339.66 11.46 340.66 15.30Q341.66 19.13 343.68 21.75Q345.71 24.37 348.73 25.77Q351.76 27.18 355.86 27.18ZM403.38 33.93L393.77 33.93L393.77-20.77L399.49-20.77Q401.54-20.77 402.08-18.78L402.08-18.78L402.84-12.84Q406.40-16.78 410.81-19.21Q415.21-21.64 420.98-21.64L420.98-21.64Q425.47-21.64 428.90-20.15Q432.32-18.67 434.62-15.94Q436.91-13.21 438.10-9.38Q439.29-5.55 439.29-0.90L439.29-0.90L439.29 33.93L429.68 33.93L429.68-0.90Q429.68-7.11 426.84-10.54Q424.01-13.97 418.18-13.97L418.18-13.97Q413.91-13.97 410.21-11.92Q406.51-9.87 403.38-6.36L403.38-6.36L403.38 33.93Z"/></g>
</svg>