<svg xmlns="http://www.w3.org/2000/svg" xmlns:xlink="http://www.w3.org/1999/xlink" version="1.1" width="1024" height="1024" viewBox="0 0 1024 1024" xml:space="preserve">
<desc>Created with Fabric.js 3.5.0</desc>
<defs>
</defs>
<rect x="0" y="0" width="100%" height="100%" fill="#fff"/>
<g transform="matrix(10.5625 0 0 10.6945 512.0005 427.78)" id="274040">
<g style="" vector-effect="non-scaling-stroke">
		<g transform="matrix(1 0 0 1 -0.4811 -0.1497)">
<linearGradient id="SVGID_1165" gradientUnits="userSpaceOnUse" gradientTransform="matrix(1 0 0 1 0 0)" x1="84.614" y1="90.1113" x2="25.99" y2="26.8347">
<stop offset="0%" style="stop-color:rgb(218,227,254);stop-opacity: 1"/>
<stop offset="100%" style="stop-color:rgb(233,239,253);stop-opacity: 1"/>
</linearGradient>
<path style="stroke: none; stroke-width: 1; stroke-dasharray: none; stroke-linecap: butt; stroke-dashoffset: 0; stroke-linejoin: miter; stroke-miterlimit: 4; is-custom-font: none; font-file-url: none; fill: url(#SVGID_1165); fill-rule: nonzero; opacity: 1;" transform=" translate(-40.0189, -39.8503)" d="M 76.4834 54.0381 C 68.4191 72.8487 47.1323 80.9281 30.4537 79.5507 C 25.8997 79.1747 16.7371 78.4178 9.58286 71.6661 C -4.15657 58.6998 -2.04057 31.597 11.112 15.6404 C 12.8057 13.5853 24.5297 -0.182453 42.7991 0.00183307 C 56.1751 0.13669 65.5637 7.67726 66.7051 8.61669 C 68.1474 9.80326 71.328 12.6233 74.1949 17.0973 C 80.9306 27.609 81.5226 42.2835 76.4834 54.0381 Z" stroke-linecap="round"/>
</g>
		<g transform="matrix(1 0 0 1 -18.8504 -4.1507)">
<path style="stroke: none; stroke-width: 1; stroke-dasharray: none; stroke-linecap: butt; stroke-dashoffset: 0; stroke-linejoin: miter; stroke-miterlimit: 4; is-custom-font: none; font-file-url: none; fill: rgb(125,151,244); fill-rule: nonzero; opacity: 1;" transform=" translate(-21.6497, -35.8493)" d="M 8.92897 1.42795 C 8.78555 0.922517 9.38326 0.53366 9.7924 0.863088 C 13.9478 4.20852 24.0964 14.4017 23.229 33.6345 C 22.1404 57.7651 27.7867 66.1091 34.3921 70.9574 C 34.3921 70.9574 25.6875 69.1045 19.6555 60.6611 C 4.84555 39.9305 11.4773 10.4145 8.92897 1.42795 Z" stroke-linecap="round"/>
</g>
		<g transform="matrix(1 0 0 1 -18.5442 -1.061)">
<path style="stroke: none; stroke-width: 1; stroke-dasharray: none; stroke-linecap: butt; stroke-dashoffset: 0; stroke-linejoin: miter; stroke-miterlimit: 4; is-custom-font: none; font-file-url: none; fill: rgb(255,255,255); fill-rule: nonzero; opacity: 1;" transform=" translate(-21.9558, -38.9389)" d="M 12.449 8.67007 C 13.1373 11.2946 13.7733 13.9315 14.3122 16.5875 C 14.8647 19.2404 15.3367 21.9089 15.7247 24.5884 C 16.1024 27.2689 16.4299 29.9564 16.6427 32.6535 C 16.8676 35.3495 16.9764 38.0524 17.0764 40.7664 C 17.1913 43.4784 17.2916 46.2109 17.6722 48.9415 C 18.0493 51.6666 18.7579 54.3909 19.943 56.9046 C 20.239 57.5312 20.5479 58.1546 20.8902 58.7538 C 21.2216 59.3595 21.5799 59.9506 21.9487 60.5352 C 22.6922 61.7009 23.5144 62.8192 24.4156 63.8712 C 26.2239 65.9712 28.3507 67.7944 30.655 69.2989 C 30.8976 69.4572 31.2224 69.3889 31.381 69.1464 C 31.5364 68.9081 31.4736 68.5906 31.2416 68.4292 L 31.2399 68.4281 C 30.6899 68.0464 30.1447 67.6586 29.6187 67.2481 C 29.3525 67.0469 29.0956 66.8344 28.835 66.6269 C 28.5824 66.4098 28.3213 66.2024 28.0759 65.9775 C 27.0787 65.0952 26.1447 64.1441 25.2859 63.1284 C 23.5599 61.1078 22.1267 58.8189 20.9904 56.4195 C 20.4356 55.2129 19.9707 53.9678 19.603 52.6909 C 19.2364 51.4138 18.9673 50.1064 18.7727 48.7826 C 18.383 46.1338 18.2613 43.4301 18.127 40.7192 C 17.989 38.0078 17.8319 35.2844 17.5627 32.5712 C 17.4319 31.2146 17.2767 29.8604 17.0973 28.5098 C 17.0116 27.8341 16.9127 27.1598 16.815 26.4858 C 16.711 25.8126 16.603 25.1401 16.4899 24.4686 C 16.0319 21.7835 15.4919 19.1135 14.8684 16.4641 C 14.2324 13.8178 13.5262 11.1895 12.7202 8.59264 C 12.697 8.51835 12.6182 8.47693 12.5442 8.50007 C 12.4722 8.52235 12.431 8.59778 12.4499 8.67007 H 12.449 Z" stroke-linecap="round"/>
</g>
		<g transform="matrix(1 0 0 1 -27.8914 5.7058)">
<path style="stroke: none; stroke-width: 1; stroke-dasharray: none; stroke-linecap: butt; stroke-dashoffset: 0; stroke-linejoin: miter; stroke-miterlimit: 4; is-custom-font: none; font-file-url: none; fill: rgb(189,208,251); fill-rule: nonzero; opacity: 1;" transform=" translate(-12.6086, -45.7058)" d="M 23.5937 74.7783 C 23.3774 75.7218 22.2677 76.1378 21.4771 75.5792 C 17.1148 72.4975 5.56851 62.6692 4.3268 44.2726 C 3.27823 28.7378 1.23337 20.4138 0.0433686 16.6992 C -0.208346 15.9138 0.689083 15.2635 1.35794 15.7461 C 8.73851 21.0692 31.4314 40.5895 23.5937 74.7781 V 74.7783 Z" stroke-linecap="round"/>
</g>
		<g transform="matrix(1 0 0 1 -25.488 13.5447)">
<path style="stroke: none; stroke-width: 1; stroke-dasharray: none; stroke-linecap: butt; stroke-dashoffset: 0; stroke-linejoin: miter; stroke-miterlimit: 4; is-custom-font: none; font-file-url: none; fill: rgb(255,255,255); fill-rule: nonzero; opacity: 1;" transform=" translate(-15.012, -53.5447)" d="M 22.2936 74.9454 C 22.2753 74.9612 22.2553 74.9752 22.2336 74.9874 C 22.0519 75.0903 21.8213 75.0263 21.7185 74.8449 C 21.6019 74.6389 10.0348 54.0074 7.60106 32.4732 C 7.57763 32.266 7.72677 32.0789 7.9342 32.0552 C 8.14163 32.0317 8.32877 32.1809 8.3522 32.3883 C 10.7682 53.766 22.2605 74.268 22.3762 74.4726 C 22.4668 74.6326 22.4282 74.8306 22.2933 74.9457 L 22.2936 74.9454 Z" stroke-linecap="round"/>
</g>
		<g transform="matrix(1 0 0 1 7.3496 0.7134)">
<linearGradient id="SVGID_1166" gradientUnits="userSpaceOnUse" gradientTransform="matrix(1 0 0 1 0 0)" x1="75.043" y1="103.939" x2="62.4924" y2="75.7487">
<stop offset="0%" style="stop-color:rgb(9,0,93);stop-opacity: 1"/>
<stop offset="100%" style="stop-color:rgb(26,15,145);stop-opacity: 1"/>
</linearGradient>
<path style="stroke: none; stroke-width: 1; stroke-dasharray: none; stroke-linecap: butt; stroke-dashoffset: 0; stroke-linejoin: miter; stroke-miterlimit: 4; is-custom-font: none; font-file-url: none; fill: url(#SVGID_1166); fill-rule: nonzero; opacity: 1;" transform=" translate(-47.8496, -40.7134)" d="M 23.4836 6.79471 C 23.1853 18.8299 22.2176 60.3438 22.6796 75.0553 C 22.7284 76.6138 23.9778 77.8647 25.5364 77.9158 C 33.2447 78.1681 55.419 78.8076 68.027 78.2784 C 70.653 78.1681 72.7413 76.0413 72.7959 73.4133 C 73.0579 60.7807 73.6358 25.2504 72.2618 8.97385 C 72.0973 7.02357 70.5667 5.47071 68.6193 5.27585 C 60.2247 4.43614 37.929 2.38328 27.0364 3.09014 C 25.0719 3.21757 23.5327 4.82671 23.4838 6.79471 H 23.4836 Z" stroke-linecap="round"/>
</g>
		<g transform="matrix(1 0 0 1 7.3499 -1.6242)">
<path style="stroke: none; stroke-width: 1; stroke-dasharray: none; stroke-linecap: butt; stroke-dashoffset: 0; stroke-linejoin: miter; stroke-miterlimit: 4; is-custom-font: none; font-file-url: none; fill: rgb(145,179,250); fill-rule: nonzero; opacity: 1;" transform=" translate(-47.8499, -38.3758)" d="M 26.616 10.5342 C 26.1949 20.391 24.8672 53.1819 25.2886 65.3073 C 25.3503 67.0796 26.7472 68.5128 28.5175 68.6162 C 35.8066 69.0428 54.5023 69.9833 65.1935 69.127 C 67.1186 68.973 68.6292 67.4159 68.7332 65.4876 C 69.2749 55.4316 70.8306 24.8985 70.4266 12.909 C 70.362 10.9965 68.8806 9.43447 66.9743 9.26333 C 59.0886 8.55533 38.8358 6.87075 29.7509 7.36647 C 28.0455 7.45961 26.6889 8.8279 26.616 10.5342 Z" stroke-linecap="round"/>
</g>
		<g transform="matrix(1 0 0 1 7.3492 -34.5675)">
<path style="stroke: none; stroke-width: 1; stroke-dasharray: none; stroke-linecap: butt; stroke-dashoffset: 0; stroke-linejoin: miter; stroke-miterlimit: 4; is-custom-font: none; font-file-url: none; fill: rgb(63,103,249); fill-rule: nonzero; opacity: 0.5;" transform=" translate(-47.8492, -5.4326)" d="M 42.5335 5.19306 C 42.5335 5.56249 42.8212 5.86706 43.1901 5.88621 C 45.0106 5.98163 50.1395 6.25135 52.4315 6.38421 C 52.8835 6.41049 53.2381 6.00421 53.1523 5.55963 L 53.1378 5.48392 C 53.0792 5.18049 52.8278 4.95221 52.5201 4.92421 C 50.9706 4.78221 46.2958 4.38849 43.1981 4.49906 C 42.8261 4.51249 42.5332 4.82078 42.5332 5.19306 H 42.5335 Z" stroke-linecap="round"/>
</g>
		<g transform="matrix(1 0 0 1 23.6259 -20.2655)">
<path style="stroke: none; stroke-width: 1; stroke-dasharray: none; stroke-linecap: butt; stroke-dashoffset: 0; stroke-linejoin: miter; stroke-miterlimit: 4; is-custom-font: none; font-file-url: none; fill: rgb(255,255,255); fill-rule: nonzero; opacity: 0.78;" transform=" translate(-64.1258, -19.7345)" d="M 67.2076 17.6967 L 66.8682 22.0287 C 66.8059 22.8227 66.1696 23.4504 65.3745 23.5012 L 62.8616 23.6624 C 61.9553 23.7204 61.1822 23.0138 61.159 22.1058 L 61.0396 17.4452 C 61.0156 16.5098 61.7959 15.7532 62.7302 15.8058 L 65.7019 15.9735 C 66.5982 16.0241 67.2779 16.8018 67.2076 17.6969 V 17.6967 Z" stroke-linecap="round"/>
</g>
		<g transform="matrix(1 0 0 1 3.5035 -22.5452)">
<linearGradient id="SVGID_1167" gradientUnits="userSpaceOnUse" gradientTransform="matrix(1 0 0 1 0 0)" x1="30.0635" y1="17.4546" x2="57.9438" y2="17.4546">
<stop offset="0%" style="stop-color:rgb(218,227,254);stop-opacity: 1"/>
<stop offset="100%" style="stop-color:rgb(233,239,253);stop-opacity: 1"/>
</linearGradient>
<path style="stroke: none; stroke-width: 1; stroke-dasharray: none; stroke-linecap: butt; stroke-dashoffset: 0; stroke-linejoin: miter; stroke-miterlimit: 4; is-custom-font: none; font-file-url: none; fill: url(#SVGID_1167); fill-rule: nonzero; opacity: 1;" transform=" translate(-44.0035, -17.4548)" d="M 56.9846 16.5489 C 52.5175 16.5332 35.3681 16.4504 31.0375 16.4292 C 30.4912 16.4266 30.0506 16.8486 30.0638 17.3606 C 30.0763 17.8481 30.4978 18.2378 31.0175 18.2426 L 56.9509 18.4804 C 57.4503 18.4849 57.8726 18.1318 57.9249 17.6655 L 57.938 17.5475 C 57.9978 17.0144 57.5555 16.5506 56.9843 16.5486 L 56.9846 16.5489 Z" stroke-linecap="round"/>
</g>
		<g transform="matrix(1 0 0 1 7.6779 -18.4075)">
<linearGradient id="SVGID_1168" gradientUnits="userSpaceOnUse" gradientTransform="matrix(1 0 0 1 0 0)" x1="38.8123" y1="21.5928" x2="57.5429" y2="21.5928">
<stop offset="0%" style="stop-color:rgb(218,227,254);stop-opacity: 1"/>
<stop offset="100%" style="stop-color:rgb(233,239,253);stop-opacity: 1"/>
</linearGradient>
<path style="stroke: none; stroke-width: 1; stroke-dasharray: none; stroke-linecap: butt; stroke-dashoffset: 0; stroke-linejoin: miter; stroke-miterlimit: 4; is-custom-font: none; font-file-url: none; fill: url(#SVGID_1168); fill-rule: nonzero; opacity: 1;" transform=" translate(-48.1779, -21.5925)" d="M 57.4106 22.2373 C 57.3378 22.3585 57.2015 22.4339 57.0535 22.4345 L 39.2529 22.5282 C 39.0292 22.5293 38.8463 22.3628 38.8409 22.153 L 38.8126 21.053 C 38.8069 20.8345 38.9961 20.6548 39.2292 20.6568 L 56.5401 20.8196 C 57.3112 20.8268 57.7898 21.6059 57.4109 22.237 L 57.4106 22.2373 Z" stroke-linecap="round"/>
</g>
		<g transform="matrix(1 0 0 1 23.5234 -5.9857)">
<path style="stroke: none; stroke-width: 1; stroke-dasharray: none; stroke-linecap: butt; stroke-dashoffset: 0; stroke-linejoin: miter; stroke-miterlimit: 4; is-custom-font: none; font-file-url: none; fill: rgb(255,255,255); fill-rule: nonzero; opacity: 0.78;" transform=" translate(-64.0233, -34.0143)" d="M 67.1051 31.9765 L 66.7656 36.3085 C 66.7033 37.1025 66.0671 37.7302 65.2719 37.781 L 62.7591 37.9422 C 61.8528 38.0002 61.0796 37.2936 61.0565 36.3856 L 60.9371 31.725 C 60.9131 30.7896 61.6933 30.033 62.6276 30.0856 L 65.5993 30.2533 C 66.4956 30.3039 67.1753 31.0816 67.1051 31.9767 V 31.9765 Z" stroke-linecap="round"/>
</g>
		<g transform="matrix(1 0 0 1 3.7554 -8.4521)">
<linearGradient id="SVGID_1169" gradientUnits="userSpaceOnUse" gradientTransform="matrix(1 0 0 1 0 0)" x1="29.8903" y1="31.5479" x2="58.6203" y2="31.5479">
<stop offset="0%" style="stop-color:rgb(218,227,254);stop-opacity: 1"/>
<stop offset="100%" style="stop-color:rgb(233,239,253);stop-opacity: 1"/>
</linearGradient>
<path style="stroke: none; stroke-width: 1; stroke-dasharray: none; stroke-linecap: butt; stroke-dashoffset: 0; stroke-linejoin: miter; stroke-miterlimit: 4; is-custom-font: none; font-file-url: none; fill: url(#SVGID_1169); fill-rule: nonzero; opacity: 1;" transform=" translate(-44.2554, -31.5479)" d="M 57.6326 30.6319 C 53.0292 30.6196 35.3575 30.5502 30.8949 30.5325 C 30.332 30.5302 29.8778 30.9528 29.8909 31.4648 C 29.9035 31.9522 30.3375 32.3416 30.8732 32.3459 L 57.5966 32.5633 C 58.1115 32.5676 58.5469 32.2139 58.6009 31.7479 L 58.6146 31.6299 C 58.6766 31.0968 58.2212 30.6333 57.6326 30.6319 Z" stroke-linecap="round"/>
</g>
		<g transform="matrix(1 0 0 1 8.0537 -4.3103)">
<linearGradient id="SVGID_1170" gradientUnits="userSpaceOnUse" gradientTransform="matrix(1 0 0 1 0 0)" x1="38.9034" y1="35.6896" x2="58.2043" y2="35.6896">
<stop offset="0%" style="stop-color:rgb(218,227,254);stop-opacity: 1"/>
<stop offset="100%" style="stop-color:rgb(233,239,253);stop-opacity: 1"/>
</linearGradient>
<path style="stroke: none; stroke-width: 1; stroke-dasharray: none; stroke-linecap: butt; stroke-dashoffset: 0; stroke-linejoin: miter; stroke-miterlimit: 4; is-custom-font: none; font-file-url: none; fill: url(#SVGID_1170); fill-rule: nonzero; opacity: 1;" transform=" translate(-48.5537, -35.6896)" d="M 58.0674 36.3202 C 57.9923 36.4413 57.8517 36.5168 57.6992 36.5176 L 39.356 36.6254 C 39.1257 36.6268 38.9372 36.4602 38.9317 36.2505 L 38.9034 35.1505 C 38.8977 34.9319 39.0929 34.7519 39.3329 34.7539 L 57.1712 34.9034 C 57.9657 34.9099 58.4583 35.6888 58.0672 36.3202 H 58.0674 Z" stroke-linecap="round"/>
</g>
		<g transform="matrix(1 0 0 1 22.4628 8.8663)">
<path style="stroke: none; stroke-width: 1; stroke-dasharray: none; stroke-linecap: butt; stroke-dashoffset: 0; stroke-linejoin: miter; stroke-miterlimit: 4; is-custom-font: none; font-file-url: none; fill: rgb(255,255,255); fill-rule: nonzero; opacity: 0.78;" transform=" translate(-62.9627, -48.8663)" d="M 66.0445 46.8285 L 65.7051 51.1605 C 65.6428 51.9545 65.0065 52.5822 64.2114 52.6331 L 61.6985 52.7942 C 60.7922 52.8522 60.0191 52.1456 59.9959 51.2376 L 59.8765 46.5771 C 59.8525 45.6416 60.6328 44.8851 61.5671 44.9376 L 64.5388 45.1054 C 65.4351 45.1559 66.1148 45.9336 66.0445 46.8288 V 46.8285 Z" stroke-linecap="round"/>
</g>
		<g transform="matrix(1 0 0 1 2.6058 6.1226)">
<linearGradient id="SVGID_1171" gradientUnits="userSpaceOnUse" gradientTransform="matrix(1 0 0 1 0 0)" x1="29.5114" y1="46.1229" x2="56.6994" y2="46.1229">
<stop offset="0%" style="stop-color:rgb(218,227,254);stop-opacity: 1"/>
<stop offset="100%" style="stop-color:rgb(233,239,253);stop-opacity: 1"/>
</linearGradient>
<path style="stroke: none; stroke-width: 1; stroke-dasharray: none; stroke-linecap: butt; stroke-dashoffset: 0; stroke-linejoin: miter; stroke-miterlimit: 4; is-custom-font: none; font-file-url: none; fill: url(#SVGID_1171); fill-rule: nonzero; opacity: 1;" transform=" translate(-43.1058, -46.1226)" d="M 55.7637 45.2252 C 51.4074 45.2066 34.684 45.1129 30.4609 45.0889 C 29.9283 45.086 29.4989 45.5077 29.512 46.0197 C 29.5246 46.5072 29.9357 46.8972 30.4429 46.9023 L 55.7323 47.1563 C 56.2194 47.1612 56.6309 46.8083 56.6817 46.3423 L 56.6946 46.2243 C 56.7526 45.6915 56.3209 45.2275 55.764 45.2249 L 55.7637 45.2252 Z" stroke-linecap="round"/>
</g>
		<g transform="matrix(1 0 0 1 6.679 10.2578)">
<linearGradient id="SVGID_1172" gradientUnits="userSpaceOnUse" gradientTransform="matrix(1 0 0 1 0 0)" x1="38.046" y1="50.2578" x2="56.312" y2="50.2578">
<stop offset="0%" style="stop-color:rgb(218,227,254);stop-opacity: 1"/>
<stop offset="100%" style="stop-color:rgb(233,239,253);stop-opacity: 1"/>
</linearGradient>
<path style="stroke: none; stroke-width: 1; stroke-dasharray: none; stroke-linecap: butt; stroke-dashoffset: 0; stroke-linejoin: miter; stroke-miterlimit: 4; is-custom-font: none; font-file-url: none; fill: url(#SVGID_1172); fill-rule: nonzero; opacity: 1;" transform=" translate(-47.179, -50.2577)" d="M 56.1832 50.9138 C 56.1123 51.0349 55.9795 51.11 55.8349 51.1109 L 38.4763 51.1935 C 38.2583 51.1946 38.0797 51.0278 38.0743 50.818 L 38.046 49.718 C 38.0403 49.4995 38.2246 49.3198 38.452 49.322 L 55.3332 49.496 C 56.0852 49.5038 56.5523 50.2832 56.1832 50.914 V 50.9138 Z" stroke-linecap="round"/>
</g>
		<g transform="matrix(1 0 0 1 6.2044 22.5929)">
<linearGradient id="SVGID_1173" gradientUnits="userSpaceOnUse" gradientTransform="matrix(1 0 0 1 0 0)" x1="44.3126" y1="-18.7285" x2="47.0344" y2="73.8082">
<stop offset="0%" style="stop-color:rgb(225,71,61);stop-opacity: 1"/>
<stop offset="100%" style="stop-color:rgb(233,96,90);stop-opacity: 1"/>
</linearGradient>
<path style="stroke: none; stroke-width: 1; stroke-dasharray: none; stroke-linecap: butt; stroke-dashoffset: 0; stroke-linejoin: miter; stroke-miterlimit: 4; is-custom-font: none; font-file-url: none; fill: url(#SVGID_1173); fill-rule: nonzero; opacity: 1;" transform=" translate(-46.7043, -62.5928)" d="M 56.7415 58.6753 H 36.6672 C 36.4384 58.6753 36.2529 58.8608 36.2529 59.0896 V 66.0962 C 36.2529 66.325 36.4384 66.5104 36.6672 66.5104 H 56.7415 C 56.9703 66.5104 57.1558 66.325 57.1558 66.0962 V 59.0896 C 57.1558 58.8608 56.9703 58.6753 56.7415 58.6753 Z" stroke-linecap="round"/>
</g>
		<g transform="matrix(1 0 0 1 23.0335 15.9339)">
<linearGradient id="SVGID_1174" gradientUnits="userSpaceOnUse" gradientTransform="matrix(1 0 0 1 0 0)" x1="56.4681" y1="53.386" x2="71.4221" y2="59.346">
<stop offset="0%" style="stop-color:rgb(255,146,142);stop-opacity: 1"/>
<stop offset="100%" style="stop-color:rgb(254,112,98);stop-opacity: 1"/>
</linearGradient>
<path style="stroke: none; stroke-width: 1; stroke-dasharray: none; stroke-linecap: butt; stroke-dashoffset: 0; stroke-linejoin: miter; stroke-miterlimit: 4; is-custom-font: none; font-file-url: none; fill: url(#SVGID_1174); fill-rule: nonzero; opacity: 0.3;" transform=" translate(-63.5335, -55.9339)" d="M 59.1784 47.6259 C 59.3164 47.6985 59.3695 47.8691 59.297 48.0071 C 59.1561 48.2751 59.025 48.5534 58.9067 48.8339 C 58.847 48.9759 58.6847 49.0434 58.5421 48.9865 C 58.5404 48.9859 58.5387 48.9851 58.537 48.9845 C 58.3933 48.9239 58.3258 48.7585 58.3864 48.6148 C 58.5107 48.3194 58.649 48.0265 58.7973 47.7445 C 58.865 47.6154 59.0187 47.5608 59.1513 47.6134 C 59.1604 47.6171 59.1695 47.6211 59.1784 47.6259 Z M 58.4258 50.2391 C 58.3473 50.5331 58.2804 50.8331 58.227 51.1311 C 58.1995 51.2845 58.053 51.3868 57.8995 51.3594 C 57.7455 51.3314 57.6438 51.1854 57.6713 51.0319 C 57.7273 50.7182 57.7975 50.4025 57.8804 50.0931 C 57.9207 49.9425 58.0755 49.8531 58.2261 49.8934 C 58.237 49.8962 58.2475 49.8999 58.2578 49.9039 C 58.389 49.9562 58.463 50.0994 58.4255 50.2388 L 58.4258 50.2391 Z M 58.0687 52.6071 C 58.0575 52.9102 58.0593 53.2176 58.0741 53.5208 C 58.0818 53.6765 57.9615 53.8088 57.8061 53.8165 C 57.6507 53.8239 57.5181 53.7042 57.5104 53.5485 C 57.4947 53.2291 57.493 52.9054 57.5047 52.5862 C 57.5104 52.4305 57.6415 52.3088 57.7973 52.3145 C 57.8304 52.3156 57.8621 52.3228 57.8913 52.3342 C 57.999 52.3771 58.0733 52.4845 58.0687 52.6071 Z M 58.2501 54.9956 C 58.307 55.2942 58.3775 55.5936 58.4595 55.8856 C 58.5015 56.0356 58.4141 56.1916 58.2641 56.2336 C 58.1141 56.2756 57.9584 56.1882 57.9161 56.0382 C 57.8298 55.7305 57.7555 55.4154 57.6955 55.1014 C 57.6664 54.9482 57.7667 54.8005 57.9198 54.7714 C 57.9747 54.7608 58.0287 54.7671 58.077 54.7862 C 58.1635 54.8208 58.2313 54.8974 58.2501 54.9956 Z M 58.959 57.2842 C 59.0804 57.5619 59.2155 57.8385 59.3604 58.1056 C 59.4347 58.2428 59.3838 58.4139 59.2467 58.4882 C 59.1095 58.5625 58.9384 58.5116 58.8641 58.3745 C 58.7115 58.0931 58.5695 57.8022 58.4418 57.5102 C 58.3793 57.3674 58.4444 57.2011 58.5873 57.1385 C 58.6593 57.1071 58.7373 57.1079 58.8047 57.1348 C 58.8713 57.1614 58.9278 57.2131 58.9587 57.2839 L 58.959 57.2842 Z M 60.1567 59.3588 C 60.3367 59.6031 60.5295 59.8428 60.7298 60.0711 C 60.8327 60.1882 60.821 60.3665 60.7038 60.4694 C 60.5867 60.5722 60.4084 60.5605 60.3055 60.4434 C 60.0947 60.2031 59.8918 59.9508 59.7024 59.6936 C 59.6098 59.5682 59.6367 59.3916 59.7621 59.2991 C 59.8435 59.2391 59.9467 59.2294 60.0344 59.2642 C 60.0815 59.2831 60.1244 59.3148 60.1567 59.3588 Z M 69.5695 63.9668 C 69.577 64.1225 69.4567 64.2548 69.301 64.2619 C 68.9821 64.2771 68.6581 64.2782 68.3381 64.2656 C 68.1824 64.2596 68.061 64.1285 68.0673 63.9725 C 68.0733 63.8168 68.2044 63.6956 68.3601 63.7016 C 68.6638 63.7136 68.9715 63.7122 69.2744 63.6979 C 69.3158 63.6959 69.3558 63.7031 69.3921 63.7176 C 69.4918 63.7574 69.5644 63.8525 69.5695 63.9668 Z M 61.7835 61.1154 C 62.0133 61.3134 62.2544 61.5039 62.5004 61.6814 C 62.6267 61.7728 62.6553 61.9491 62.5641 62.0754 C 62.4727 62.2016 62.2967 62.2297 62.1701 62.1388 C 61.9113 61.9517 61.6573 61.7511 61.4153 61.5425 C 61.2973 61.4408 61.2841 61.2625 61.3858 61.1445 C 61.4664 61.0508 61.5953 61.0231 61.7041 61.0665 C 61.7324 61.0776 61.7593 61.0939 61.7838 61.1151 L 61.7835 61.1154 Z M 67.1118 63.8682 C 67.0841 64.0216 66.9373 64.1234 66.7838 64.0959 C 66.4695 64.0391 66.1538 63.9682 65.845 63.8848 C 65.6941 63.8448 65.6055 63.6894 65.6458 63.5388 C 65.6864 63.3882 65.8413 63.2994 65.9918 63.3396 C 66.2853 63.4188 66.5855 63.4862 66.8841 63.5402 C 66.9033 63.5436 66.9213 63.5491 66.9387 63.5559 C 67.0607 63.6045 67.1358 63.7339 67.1115 63.8682 H 67.1118 Z M 63.7615 62.4639 C 64.0298 62.6054 64.3075 62.7374 64.5873 62.8556 C 64.731 62.9162 64.7978 63.0819 64.7373 63.2256 C 64.6773 63.3674 64.5153 63.4345 64.373 63.3779 C 64.3713 63.3771 64.3693 63.3765 64.3675 63.3756 C 64.073 63.2511 63.7804 63.1122 63.4981 62.9634 C 63.3604 62.8905 63.3075 62.7199 63.3804 62.5819 C 63.4484 62.4531 63.6018 62.3988 63.7341 62.4514 C 63.7433 62.4551 63.7527 62.4594 63.7615 62.4639 Z" stroke-linecap="round"/>
</g>
		<g transform="matrix(1 0 0 1 30.5294 23.7545)">
<linearGradient id="SVGID_1175" gradientUnits="userSpaceOnUse" gradientTransform="matrix(1 0 0 1 0 0)" x1="70.5789" y1="63.5744" x2="71.4521" y2="63.9224">
<stop offset="0%" style="stop-color:rgb(255,146,142);stop-opacity: 1"/>
<stop offset="100%" style="stop-color:rgb(254,112,98);stop-opacity: 1"/>
</linearGradient>
<path style="stroke: none; stroke-width: 1; stroke-dasharray: none; stroke-linecap: butt; stroke-dashoffset: 0; stroke-linejoin: miter; stroke-miterlimit: 4; is-custom-font: none; font-file-url: none; fill: url(#SVGID_1175); fill-rule: nonzero; opacity: 0.3;" transform=" translate(-71.0294, -63.7545)" d="M 71.3542 63.4456 C 71.3025 63.425 71.2445 63.4193 71.1862 63.433 C 71.0445 63.4659 70.8997 63.4964 70.756 63.5239 C 70.6028 63.553 70.5023 63.7007 70.5314 63.8539 C 70.5605 64.007 70.7082 64.1079 70.8614 64.0784 C 71.0128 64.0499 71.1648 64.0176 71.314 63.983 C 71.4657 63.9479 71.5602 63.7962 71.5251 63.6442 C 71.5034 63.5504 71.4374 63.4787 71.3545 63.4456 H 71.3542 Z" stroke-linecap="round"/>
</g>
		<g transform="matrix(1 0 0 1 37.5855 18.8331)">
<linearGradient id="SVGID_1176" gradientUnits="userSpaceOnUse" gradientTransform="matrix(1 0 0 1 0 0)" x1="77.772" y1="58.7071" x2="78.3713" y2="58.9459">
<stop offset="0%" style="stop-color:rgb(255,146,142);stop-opacity: 1"/>
<stop offset="100%" style="stop-color:rgb(254,112,98);stop-opacity: 1"/>
</linearGradient>
<path style="stroke: none; stroke-width: 1; stroke-dasharray: none; stroke-linecap: butt; stroke-dashoffset: 0; stroke-linejoin: miter; stroke-miterlimit: 4; is-custom-font: none; font-file-url: none; fill: url(#SVGID_1176); fill-rule: nonzero; opacity: 0.3;" transform=" translate(-78.0855, -58.8331)" d="M 78.3095 58.3794 C 78.1829 58.3288 78.0349 58.3762 77.9629 58.4971 C 77.8883 58.622 77.81 58.7474 77.7297 58.87 C 77.6443 59.0005 77.6809 59.1754 77.8115 59.2605 C 77.9423 59.3463 78.1169 59.3094 78.202 59.1788 C 78.2863 59.05 78.3689 58.9177 78.4475 58.7862 C 78.5275 58.6525 78.4835 58.4791 78.3497 58.3991 C 78.3366 58.3914 78.3232 58.3845 78.3092 58.3791 L 78.3095 58.3794 Z" stroke-linecap="round"/>
</g>
		<g transform="matrix(1 0 0 1 33.2402 9.6568)">
<linearGradient id="SVGID_1177" gradientUnits="userSpaceOnUse" gradientTransform="matrix(1 0 0 1 0 0)" x1="65.8137" y1="46.0413" x2="81.2168" y2="52.1803">
<stop offset="0%" style="stop-color:rgb(255,146,142);stop-opacity: 1"/>
<stop offset="100%" style="stop-color:rgb(254,112,98);stop-opacity: 1"/>
</linearGradient>
<path style="stroke: none; stroke-width: 1; stroke-dasharray: none; stroke-linecap: butt; stroke-dashoffset: 0; stroke-linejoin: miter; stroke-miterlimit: 4; is-custom-font: none; font-file-url: none; fill: url(#SVGID_1177); fill-rule: nonzero; opacity: 0.3;" transform=" translate(-73.7402, -49.6568)" d="M 73.4676 42.7503 C 73.6093 42.8149 73.6719 42.9826 73.607 43.1243 C 73.5421 43.266 73.375 43.3283 73.233 43.2637 C 72.963 43.1406 72.6836 43.0269 72.3996 42.9246 C 72.2536 42.8726 72.177 42.71 72.2296 42.5634 C 72.2821 42.4169 72.4441 42.3409 72.5907 42.3934 C 72.7139 42.4377 72.8359 42.484 72.9564 42.532 C 73.1284 42.6006 73.3004 42.674 73.4673 42.7503 H 73.4676 Z M 71.329 42.3066 C 71.2964 42.4589 71.1467 42.5563 70.9941 42.5237 C 70.7016 42.4614 70.403 42.4106 70.107 42.3731 C 69.9524 42.354 69.843 42.2123 69.8624 42.0577 C 69.8821 41.9031 70.0233 41.7937 70.1779 41.8134 C 70.4896 41.8529 70.8036 41.9063 71.1116 41.972 C 71.1276 41.9754 71.143 41.98 71.1576 41.986 C 71.283 42.036 71.3579 42.1703 71.3287 42.3069 L 71.329 42.3066 Z M 74.8196 43.4834 C 75.0847 43.6517 75.3461 43.8334 75.597 44.024 C 75.721 44.1183 75.7453 44.2954 75.651 44.4194 C 75.5567 44.5434 75.3799 44.5674 75.2556 44.4731 C 75.0176 44.292 74.7693 44.1194 74.5173 43.9597 C 74.3856 43.8763 74.3467 43.7017 74.4301 43.57 C 74.5041 43.4537 74.649 43.4097 74.7727 43.4589 C 74.7887 43.4651 74.8044 43.4731 74.8196 43.4829 V 43.4834 Z M 68.9276 42.004 C 68.9293 42.1597 68.8044 42.2877 68.6487 42.2894 C 68.3499 42.2929 68.0479 42.3091 67.7507 42.3377 C 67.5956 42.3529 67.4576 42.2391 67.4427 42.0837 C 67.4279 41.9286 67.5413 41.7909 67.6964 41.7757 C 68.0093 41.7457 68.3276 41.7286 68.6421 41.7249 C 68.6801 41.7246 68.7164 41.7314 68.7499 41.7449 C 68.853 41.786 68.9261 41.8863 68.9276 42.004 Z M 76.7536 45.0363 C 76.975 45.2586 77.1901 45.4934 77.3927 45.7346 C 77.493 45.8537 77.4776 46.0317 77.3584 46.132 C 77.239 46.2326 77.061 46.2171 76.9607 46.0977 C 76.7681 45.8689 76.5639 45.6457 76.3536 45.4346 C 76.2436 45.324 76.2439 45.1454 76.3544 45.0354 C 76.4367 44.9534 76.557 44.9329 76.6581 44.9731 C 76.6927 44.9869 76.7253 45.008 76.7533 45.0363 H 76.7536 Z M 78.3001 46.9754 C 78.4681 47.2414 78.6267 47.5174 78.7719 47.7963 C 78.8439 47.9346 78.7901 48.1049 78.6519 48.1769 C 78.5133 48.2489 78.343 48.1951 78.2713 48.0569 C 78.1336 47.792 77.9827 47.5297 77.8233 47.2769 C 77.7401 47.1451 77.7796 46.9709 77.9113 46.8874 C 77.9907 46.8374 78.0856 46.8317 78.1667 46.864 C 78.2201 46.8854 78.2676 46.9231 78.3007 46.9754 H 78.3001 Z M 79.3873 49.2057 C 79.4933 49.502 79.5881 49.8063 79.669 50.1097 C 79.709 50.2603 79.6196 50.4149 79.469 50.4551 C 79.3181 50.4954 79.1639 50.4057 79.1236 50.2551 C 79.0467 49.9669 78.9567 49.678 78.8559 49.3963 C 78.8033 49.2494 78.8796 49.088 79.0264 49.0354 C 79.0939 49.0111 79.1644 49.0143 79.2259 49.0389 C 79.2984 49.0677 79.3587 49.1266 79.3873 49.206 V 49.2057 Z M 79.9621 51.62 C 80.001 51.9323 80.0267 52.25 80.0387 52.5643 C 80.0447 52.72 79.9233 52.8511 79.7676 52.8571 C 79.6121 52.8631 79.4807 52.7417 79.4747 52.586 C 79.4633 52.2877 79.4387 51.9863 79.4019 51.6894 C 79.3827 51.5349 79.4924 51.3937 79.6473 51.3746 C 79.6961 51.3686 79.7436 51.3754 79.7864 51.3923 C 79.879 51.4291 79.949 51.514 79.9621 51.62 Z M 79.9924 54.1029 C 79.9616 54.4154 79.9167 54.7306 79.8593 55.04 C 79.831 55.1931 79.6836 55.2946 79.5304 55.266 C 79.3776 55.2377 79.2759 55.0903 79.3044 54.9372 C 79.359 54.6431 79.4016 54.3437 79.431 54.0469 C 79.4464 53.8917 79.5847 53.7786 79.7396 53.794 C 79.7667 53.7966 79.7924 53.8031 79.8164 53.8126 C 79.9304 53.858 80.0053 53.9746 79.9927 54.1026 L 79.9924 54.1029 Z M 79.4773 56.5291 C 79.405 56.7489 79.3247 56.9691 79.2393 57.1837 C 79.2084 57.2614 79.1767 57.3386 79.1441 57.4151 C 79.0833 57.5586 78.9181 57.6291 78.7741 57.5649 C 78.6307 57.504 78.5636 57.3383 78.6244 57.1949 C 78.6553 57.122 78.6856 57.0486 78.715 56.9749 C 78.7964 56.7709 78.8724 56.5617 78.9413 56.3526 C 78.9901 56.2046 79.1496 56.124 79.2976 56.1729 C 79.303 56.1749 79.3087 56.1766 79.3141 56.1789 C 79.4516 56.2337 79.5244 56.3869 79.4773 56.5291 Z" stroke-linecap="round"/>
</g>
		<g transform="matrix(1 0 0 1 25.5181 2.3606)">
<linearGradient id="SVGID_1178" gradientUnits="userSpaceOnUse" gradientTransform="matrix(1 0 0 1 0 0)" x1="65.5717" y1="42.1829" x2="66.434" y2="42.5266">
<stop offset="0%" style="stop-color:rgb(255,146,142);stop-opacity: 1"/>
<stop offset="100%" style="stop-color:rgb(254,112,98);stop-opacity: 1"/>
</linearGradient>
<path style="stroke: none; stroke-width: 1; stroke-dasharray: none; stroke-linecap: butt; stroke-dashoffset: 0; stroke-linejoin: miter; stroke-miterlimit: 4; is-custom-font: none; font-file-url: none; fill: url(#SVGID_1178); fill-rule: nonzero; opacity: 0.3;" transform=" translate(-66.0182, -42.3606)" d="M 66.3408 42.0418 C 66.2888 42.0209 66.2299 42.0155 66.1714 42.0295 C 66.0228 42.0649 65.8719 42.1041 65.7234 42.1458 C 65.5734 42.1881 65.4859 42.3438 65.5282 42.4938 C 65.5705 42.6438 65.7262 42.7312 65.8762 42.6889 C 66.0174 42.6492 66.1605 42.6121 66.3017 42.5783 C 66.4534 42.5423 66.5471 42.3903 66.5111 42.2386 C 66.4891 42.1458 66.4234 42.0746 66.3408 42.0415 V 42.0418 Z" stroke-linecap="round"/>
</g>
		<g transform="matrix(1 0 0 1 28.2468 13.0825)">
<linearGradient id="SVGID_1179" gradientUnits="userSpaceOnUse" gradientTransform="matrix(1 0 0 1 0 0)" x1="75.6701" y1="40.1178" x2="95.365" y2="3.23842">
<stop offset="0%" style="stop-color:rgb(255,146,142);stop-opacity: 1"/>
<stop offset="100%" style="stop-color:rgb(254,112,98);stop-opacity: 1"/>
</linearGradient>
<path style="stroke: none; stroke-width: 1; stroke-dasharray: none; stroke-linecap: butt; stroke-dashoffset: 0; stroke-linejoin: miter; stroke-miterlimit: 4; is-custom-font: none; font-file-url: none; fill: url(#SVGID_1179); fill-rule: nonzero; opacity: 1;" transform=" translate(-68.7467, -53.0824)" d="M 63.7993 46.1587 C 63.7502 46.1861 63.7236 46.2416 63.7336 46.297 L 64.013 47.8778 C 63.4579 48.3818 62.9793 48.9778 62.6036 49.6518 L 61.0016 49.7378 C 60.9453 49.741 60.8973 49.7793 60.8819 49.8333 L 60.3527 51.6847 C 60.3373 51.7387 60.3579 51.7967 60.4039 51.829 L 61.7184 52.7487 C 61.6813 53.5193 61.7727 54.2784 61.9776 54.9996 L 60.905 56.1941 C 60.8673 56.2361 60.8604 56.297 60.8879 56.3464 L 61.823 58.0298 C 61.8504 58.079 61.9059 58.1056 61.9613 58.0956 L 63.5422 57.8161 C 64.0462 58.3713 64.6422 58.8501 65.3162 59.2256 L 65.4022 60.8276 C 65.4053 60.8838 65.4436 60.9318 65.4976 60.9473 L 67.349 61.4764 C 67.403 61.4918 67.461 61.4713 67.4933 61.4253 L 68.413 60.1107 C 69.1836 60.1479 69.9427 60.0564 70.6639 59.8516 L 71.8584 60.9241 C 71.9004 60.9618 71.9613 60.9687 72.0107 60.9413 L 73.6942 60.0061 C 73.7433 59.9787 73.7699 59.9233 73.7599 59.8679 L 73.4804 58.287 C 74.0356 57.783 74.5141 57.187 74.8899 56.513 L 76.4919 56.427 C 76.5482 56.4241 76.5961 56.3856 76.6116 56.3316 L 77.1407 54.4801 C 77.1561 54.4261 77.1356 54.3681 77.0896 54.3358 L 75.775 53.4161 C 75.8122 52.6456 75.7207 51.8864 75.5159 51.1653 L 76.5884 49.9707 C 76.6262 49.929 76.633 49.8678 76.6056 49.8184 L 75.6704 48.135 C 75.643 48.0858 75.5876 48.0593 75.5322 48.0693 L 73.9513 48.3487 C 73.4473 47.7936 72.8513 47.315 72.1773 46.9393 L 72.0913 45.3373 C 72.0882 45.281 72.0499 45.233 71.9959 45.2176 L 70.1444 44.6884 C 70.0904 44.673 70.0324 44.6936 70.0002 44.7396 L 69.0804 46.0541 C 68.3099 46.017 67.5507 46.1084 66.8296 46.3133 L 65.635 45.2407 C 65.593 45.203 65.5321 45.1961 65.4827 45.2236 L 63.7993 46.1587 Z" stroke-linecap="round"/>
</g>
		<g transform="matrix(1 0 0 1 28.2466 13.0831)">
<path style="stroke: none; stroke-width: 1; stroke-dasharray: none; stroke-linecap: butt; stroke-dashoffset: 0; stroke-linejoin: miter; stroke-miterlimit: 4; is-custom-font: none; font-file-url: none; fill: rgb(255,255,255); fill-rule: nonzero; opacity: 0.7;" transform=" translate(-68.7467, -53.0831)" d="M 69.7178 51.4081 C 70.6409 51.9436 70.9564 53.1304 70.4209 54.0538 C 70.1615 54.501 69.7435 54.8204 69.2438 54.9533 C 68.7441 55.0861 68.2226 55.0164 67.7755 54.757 C 66.8524 54.2213 66.5369 53.0347 67.0724 52.1113 C 67.5595 51.2713 68.5858 50.9344 69.4624 51.2838 C 69.5492 51.3184 69.6346 51.3598 69.7181 51.4081 H 69.7178 Z M 69.1278 54.5167 C 69.5109 54.415 69.8315 54.1698 70.0304 53.827 C 70.4409 53.1193 70.1992 52.2093 69.4912 51.7987 C 68.7832 51.3878 67.8735 51.6298 67.4626 52.3378 C 67.0521 53.0456 67.2938 53.9556 68.0018 54.3661 C 68.0661 54.4033 68.1321 54.4353 68.1998 54.4624 C 68.4938 54.5796 68.8164 54.5996 69.1278 54.5167 Z" stroke-linecap="round"/>
</g>
		<g transform="matrix(1 0 0 1 28.2636 13.1255)">
<path style="stroke: none; stroke-width: 1; stroke-dasharray: none; stroke-linecap: butt; stroke-dashoffset: 0; stroke-linejoin: miter; stroke-miterlimit: 4; is-custom-font: none; font-file-url: none; fill: rgb(255,255,255); fill-rule: nonzero; opacity: 0.7;" transform=" translate(-68.7636, -53.1255)" d="M 70.5335 48.7017 C 70.3829 48.6417 70.2286 48.5888 70.0706 48.5437 C 70.0209 48.5294 69.9709 48.5159 69.9209 48.5034 C 69.6735 48.4411 69.4218 48.3988 69.1692 48.3768 C 69.1658 48.3765 69.1623 48.3762 69.1589 48.3759 C 69.1492 48.3751 69.1395 48.3742 69.1295 48.3736 C 69.1103 48.3722 69.0915 48.3708 69.0723 48.3697 C 69.0223 48.3662 68.9778 48.3962 68.96 48.4402 C 68.9558 48.4511 68.9532 48.4625 68.9523 48.4748 C 68.9483 48.5371 68.9955 48.5905 69.0575 48.5948 C 69.3775 48.6159 69.6975 48.6719 70.0086 48.7608 C 71.5535 49.2019 72.682 50.3982 73.1092 51.8345 C 73.3469 52.6334 73.3675 53.5065 73.122 54.3657 C 73.0789 54.5162 73.0286 54.6636 72.9715 54.8074 C 72.586 55.7736 71.886 56.5714 70.9646 57.0831 C 69.906 57.6711 68.6817 57.8117 67.5175 57.4791 C 65.1129 56.7917 63.7172 54.2776 64.404 51.8742 C 64.4463 51.7259 64.496 51.5805 64.5529 51.4382 C 64.7986 50.8219 65.1766 50.2662 65.6615 49.8122 C 65.674 49.8005 65.6832 49.7865 65.6892 49.7716 C 65.7049 49.7322 65.6978 49.6856 65.6666 49.6528 C 65.6238 49.6074 65.5526 49.6048 65.5069 49.6477 C 64.9978 50.1242 64.6009 50.7077 64.3429 51.3545 C 64.2835 51.5037 64.2312 51.6565 64.1866 51.8119 C 63.4655 54.3354 64.9323 56.9751 67.4552 57.6962 C 68.6775 58.0456 69.9629 57.8979 71.074 57.2805 C 72.0415 56.7431 72.7766 55.9056 73.1809 54.8914 C 73.2409 54.7405 73.2937 54.5859 73.3389 54.4279 C 73.6883 53.2054 73.5406 51.9202 72.9232 50.8088 C 72.3858 49.8411 71.5478 49.1059 70.5332 48.7017 H 70.5335 Z" stroke-linecap="round"/>
</g>
		<g transform="matrix(1 0 0 1 13.2824 -2.1741)">
<linearGradient id="SVGID_1180" gradientUnits="userSpaceOnUse" gradientTransform="matrix(1 0 0 1 0 0)" x1="53.5675" y1="37.7416" x2="53.9654" y2="37.9002">
<stop offset="0%" style="stop-color:rgb(255,146,142);stop-opacity: 1"/>
<stop offset="100%" style="stop-color:rgb(254,112,98);stop-opacity: 1"/>
</linearGradient>
<path style="stroke: none; stroke-width: 1; stroke-dasharray: none; stroke-linecap: butt; stroke-dashoffset: 0; stroke-linejoin: miter; stroke-miterlimit: 4; is-custom-font: none; font-file-url: none; fill: url(#SVGID_1180); fill-rule: nonzero; opacity: 0.3;" transform=" translate(-53.7824, -37.8259)" d="M 53.9631 37.511 C 53.8976 37.485 53.8205 37.5036 53.7748 37.5619 C 53.6896 37.6707 53.6065 37.7833 53.5279 37.897 C 53.4768 37.971 53.4953 38.0722 53.5693 38.1233 C 53.6431 38.1747 53.7448 38.1559 53.7956 38.0819 C 53.8705 37.9736 53.9496 37.8659 54.0311 37.7622 C 54.0865 37.6916 54.0742 37.5893 54.0033 37.5336 C 53.9908 37.5239 53.9771 37.5162 53.9631 37.5104 V 37.511 Z" stroke-linecap="round"/>
</g>
		<g transform="matrix(1 0 0 1 14.6823 3.669)">
<linearGradient id="SVGID_1181" gradientUnits="userSpaceOnUse" gradientTransform="matrix(1 0 0 1 0 0)" x1="51.6244" y1="42.1483" x2="59.424" y2="45.2569">
<stop offset="0%" style="stop-color:rgb(255,146,142);stop-opacity: 1"/>
<stop offset="100%" style="stop-color:rgb(254,112,98);stop-opacity: 1"/>
</linearGradient>
<path style="stroke: none; stroke-width: 1; stroke-dasharray: none; stroke-linecap: butt; stroke-dashoffset: 0; stroke-linejoin: miter; stroke-miterlimit: 4; is-custom-font: none; font-file-url: none; fill: url(#SVGID_1181); fill-rule: nonzero; opacity: 0.3;" transform=" translate(-55.1823, -43.669)" d="M 53.2995 38.57 C 53.3792 38.6117 53.41 38.71 53.3683 38.7897 C 53.2635 38.9908 53.1675 39.1997 53.0838 39.4103 C 53.066 39.4548 53.0489 39.4994 53.032 39.5445 C 53.0006 39.6285 52.9066 39.6714 52.8226 39.6397 C 52.7443 39.6068 52.6958 39.5143 52.7272 39.43 C 52.7449 39.3828 52.7629 39.336 52.7815 39.2894 C 52.8695 39.0685 52.97 38.8497 53.08 38.6385 C 53.1189 38.564 53.2078 38.532 53.2843 38.5625 C 53.2895 38.5645 53.2946 38.5668 53.2995 38.5694 V 38.57 Z M 52.7898 40.3348 C 52.7255 40.6023 52.6769 40.876 52.6458 41.1485 C 52.6355 41.238 52.5549 41.302 52.4658 41.2917 C 52.3769 41.2814 52.3123 41.2008 52.3226 41.1117 C 52.3552 40.826 52.4058 40.5391 52.4735 40.2588 C 52.4946 40.1714 52.5823 40.1177 52.6698 40.1385 C 52.6775 40.1403 52.6849 40.1428 52.692 40.1457 C 52.766 40.1751 52.8089 40.2551 52.7898 40.3348 Z M 52.6038 41.974 C 52.6069 42.2485 52.6272 42.526 52.6643 42.7983 C 52.6763 42.8871 52.614 42.9694 52.5249 42.9814 C 52.4355 42.9934 52.3538 42.9314 52.3418 42.8423 C 52.3029 42.5565 52.2815 42.2657 52.2783 41.9777 C 52.2775 41.8877 52.3495 41.814 52.4392 41.8131 C 52.4612 41.8131 52.482 41.8171 52.5012 41.8245 C 52.5606 41.8483 52.6029 41.906 52.6038 41.974 Z M 52.826 43.6088 C 52.8963 43.8748 52.984 44.1388 53.0863 44.3931 C 53.1198 44.4765 53.0795 44.5714 52.996 44.6048 C 52.9129 44.6383 52.818 44.598 52.7843 44.5145 C 52.6769 44.2477 52.5852 43.9711 52.5115 43.6923 C 52.4883 43.6054 52.5403 43.5163 52.6272 43.4931 C 52.6623 43.484 52.6975 43.4868 52.7289 43.4994 C 52.7752 43.518 52.8123 43.5571 52.826 43.6091 V 43.6088 Z M 53.4409 45.1397 C 53.5738 45.3803 53.7229 45.6148 53.8838 45.8371 C 53.9366 45.9097 53.9203 46.0117 53.8475 46.0643 C 53.7746 46.1171 53.6729 46.1008 53.6203 46.028 C 53.4515 45.7951 53.2955 45.5491 53.156 45.2968 C 53.1126 45.218 53.1412 45.1191 53.2198 45.0757 C 53.2643 45.0511 53.3152 45.0497 53.3589 45.0668 C 53.3926 45.0802 53.422 45.1051 53.4412 45.1394 L 53.4409 45.1397 Z M 54.4086 46.4751 C 54.5958 46.676 54.7975 46.8671 55.0078 47.0428 C 55.0766 47.1005 55.0858 47.2031 55.0283 47.272 C 54.9706 47.3408 54.8683 47.35 54.7989 47.2925 C 54.5783 47.1083 54.3669 46.9077 54.1703 46.6968 C 54.1092 46.6311 54.1126 46.528 54.1783 46.4668 C 54.226 46.4225 54.2932 46.412 54.3498 46.4345 C 54.3715 46.4431 54.3915 46.4565 54.4086 46.4748 V 46.4751 Z M 55.6729 47.5328 C 55.9029 47.6811 56.1455 47.8171 56.3938 47.9365 C 56.4746 47.9757 56.5086 48.0728 56.4698 48.1537 C 56.4309 48.2345 56.3343 48.2674 56.2523 48.2297 C 55.992 48.1043 55.7378 47.9617 55.4966 47.8062 C 55.4212 47.7574 55.3992 47.6568 55.448 47.5811 C 55.4909 47.5145 55.574 47.49 55.6449 47.518 C 55.6546 47.5217 55.6638 47.5265 55.6729 47.5323 V 47.5328 Z M 58.0832 48.6571 C 58.0649 48.7451 57.9789 48.8017 57.8909 48.7837 C 57.6472 48.7334 57.402 48.6688 57.1629 48.5922 C 57.1266 48.5808 57.0903 48.5688 57.0543 48.5568 C 56.9689 48.5305 56.9235 48.4357 56.9526 48.3503 C 56.9815 48.2651 57.0738 48.2197 57.1592 48.2485 C 57.1929 48.26 57.2269 48.2711 57.2615 48.2823 C 57.4903 48.3557 57.724 48.4171 57.9566 48.4651 C 57.9663 48.4671 57.9755 48.47 57.984 48.4734 C 58.056 48.502 58.0992 48.5791 58.0829 48.6574 L 58.0832 48.6571 Z" stroke-linecap="round"/>
</g>
		<g transform="matrix(1 0 0 1 21.9138 -1.8295)">
<linearGradient id="SVGID_1182" gradientUnits="userSpaceOnUse" gradientTransform="matrix(1 0 0 1 0 0)" x1="58.0851" y1="36.0583" x2="66.9873" y2="39.6063">
<stop offset="0%" style="stop-color:rgb(255,146,142);stop-opacity: 1"/>
<stop offset="100%" style="stop-color:rgb(254,112,98);stop-opacity: 1"/>
</linearGradient>
<path style="stroke: none; stroke-width: 1; stroke-dasharray: none; stroke-linecap: butt; stroke-dashoffset: 0; stroke-linejoin: miter; stroke-miterlimit: 4; is-custom-font: none; font-file-url: none; fill: url(#SVGID_1182); fill-rule: nonzero; opacity: 0.3;" transform=" translate(-62.4138, -38.1704)" d="M 62.0018 35.4059 C 62.2638 35.5141 62.5215 35.6399 62.7678 35.7784 C 62.8461 35.8227 62.8738 35.9219 62.8295 36.0001 C 62.7852 36.0784 62.6861 36.105 62.6078 36.0619 C 62.3729 35.9296 62.1272 35.8099 61.8772 35.7064 C 61.7941 35.6721 61.7547 35.5767 61.789 35.4939 C 61.823 35.4116 61.9169 35.3719 61.9995 35.4047 C 61.9995 35.4047 62.0009 35.4053 62.0015 35.4056 L 62.0018 35.4059 Z M 61.3089 35.3284 C 61.2847 35.415 61.1949 35.4656 61.1084 35.4413 C 60.8481 35.3687 60.5807 35.311 60.3135 35.2699 C 60.2252 35.2561 60.1638 35.1733 60.1775 35.0841 C 60.1912 34.9953 60.2741 34.9344 60.3629 34.9479 C 60.6429 34.9907 60.9232 35.0513 61.1961 35.1276 C 61.2018 35.1293 61.2072 35.131 61.2129 35.1333 C 61.2892 35.1636 61.3318 35.2473 61.3092 35.3281 L 61.3089 35.3284 Z M 63.4835 36.2419 C 63.7118 36.4104 63.9315 36.5944 64.1369 36.7887 C 64.2021 36.8504 64.2052 36.9536 64.1432 37.0187 C 64.0815 37.0841 63.9789 37.0867 63.9132 37.0253 C 63.7172 36.8399 63.5075 36.6644 63.2898 36.5033 C 63.2175 36.4499 63.2024 36.3479 63.2555 36.2759 C 63.3004 36.215 63.3795 36.1947 63.4467 36.2213 C 63.4592 36.2264 63.4715 36.233 63.4832 36.2416 L 63.4835 36.2419 Z M 59.6715 35.0384 C 59.6689 35.1281 59.5938 35.199 59.5041 35.1964 C 59.2338 35.1884 58.9607 35.197 58.6915 35.2221 C 58.6021 35.2304 58.5229 35.1644 58.5144 35.0753 C 58.5061 34.9859 58.5718 34.9064 58.6615 34.8981 C 58.9435 34.8719 59.2304 34.8627 59.5138 34.8713 C 59.5335 34.8719 59.5521 34.8759 59.5692 34.8827 C 59.6309 34.9073 59.6738 34.9684 59.6715 35.0387 V 35.0384 Z M 64.7189 37.4107 C 64.8995 37.6287 65.0687 37.8601 65.2215 38.0987 C 65.2701 38.1744 65.2481 38.275 65.1724 38.3236 C 65.0967 38.3721 64.9961 38.3504 64.9475 38.2744 C 64.8018 38.047 64.6404 37.8261 64.4681 37.6184 C 64.4109 37.5493 64.4204 37.4467 64.4898 37.3893 C 64.5372 37.3499 64.6004 37.3421 64.6541 37.3636 C 64.6787 37.3733 64.7009 37.389 64.7189 37.4107 Z M 65.6381 38.8421 C 65.7615 39.0976 65.8704 39.363 65.9618 39.6304 C 65.9909 39.7153 65.9455 39.8079 65.8604 39.837 C 65.7755 39.8661 65.6829 39.8207 65.6538 39.7356 C 65.5667 39.4804 65.4627 39.2273 65.345 38.9836 C 65.3058 38.9027 65.3398 38.8053 65.4207 38.7661 C 65.4635 38.7456 65.5107 38.7453 65.5518 38.7616 C 65.5884 38.7761 65.6195 38.8039 65.6381 38.8419 V 38.8421 Z M 66.1881 40.4524 C 66.2467 40.7301 66.2887 41.0141 66.3132 41.2959 C 66.3209 41.3856 66.2547 41.4644 66.1649 41.4721 C 66.0755 41.4799 65.9967 41.4136 65.9887 41.3241 C 65.9655 41.0553 65.9252 40.7847 65.8692 40.5201 C 65.8507 40.4321 65.9069 40.3459 65.9949 40.3273 C 66.0275 40.3204 66.0598 40.3239 66.0887 40.3353 C 66.1375 40.3547 66.1761 40.3976 66.1878 40.4527 L 66.1881 40.4524 Z" stroke-linecap="round"/>
</g>
		<g transform="matrix(1 0 0 1 17.1491 -4.7618)">
<linearGradient id="SVGID_1183" gradientUnits="userSpaceOnUse" gradientTransform="matrix(1 0 0 1 0 0)" x1="57.3284" y1="35.1115" x2="57.9373" y2="35.3542">
<stop offset="0%" style="stop-color:rgb(255,146,142);stop-opacity: 1"/>
<stop offset="100%" style="stop-color:rgb(254,112,98);stop-opacity: 1"/>
</linearGradient>
<path style="stroke: none; stroke-width: 1; stroke-dasharray: none; stroke-linecap: butt; stroke-dashoffset: 0; stroke-linejoin: miter; stroke-miterlimit: 4; is-custom-font: none; font-file-url: none; fill: url(#SVGID_1183); fill-rule: nonzero; opacity: 0.3;" transform=" translate(-57.6491, -35.2382)" d="M 57.9063 35.0376 C 57.8772 35.0259 57.8443 35.0228 57.8115 35.0299 C 57.6755 35.0596 57.5395 35.0936 57.4077 35.1308 C 57.3212 35.1551 57.2709 35.2451 57.2952 35.3316 C 57.3197 35.4179 57.4095 35.4685 57.496 35.4442 C 57.6217 35.4088 57.7512 35.3765 57.8812 35.3479 C 57.9689 35.3288 58.0246 35.2419 58.0052 35.1542 C 57.9932 35.0993 57.9549 35.0571 57.9063 35.0379 V 35.0376 Z" stroke-linecap="round"/>
</g>
		<g transform="matrix(1 0 0 1 18.7927 1.9507)">
<linearGradient id="SVGID_1184" gradientUnits="userSpaceOnUse" gradientTransform="matrix(1 0 0 1 0 0)" x1="65.1176" y1="30.3003" x2="84.0398" y2="-7.54453">
<stop offset="0%" style="stop-color:rgb(255,146,142);stop-opacity: 1"/>
<stop offset="100%" style="stop-color:rgb(254,112,98);stop-opacity: 1"/>
</linearGradient>
<path style="stroke: none; stroke-width: 1; stroke-dasharray: none; stroke-linecap: butt; stroke-dashoffset: 0; stroke-linejoin: miter; stroke-miterlimit: 4; is-custom-font: none; font-file-url: none; fill: url(#SVGID_1184); fill-rule: nonzero; opacity: 1;" transform=" translate(-59.2927, -41.9508)" d="M 56.2016 37.6249 C 56.1707 37.642 56.1544 37.6766 56.1604 37.7112 L 56.335 38.6989 C 55.9881 39.0138 55.689 39.386 55.4544 39.8072 L 54.4536 39.8609 C 54.4184 39.8629 54.3884 39.8866 54.3787 39.9206 L 54.0481 41.0775 C 54.0384 41.1112 54.0513 41.1475 54.0801 41.1678 L 54.9016 41.7423 C 54.8784 42.2238 54.9356 42.698 55.0636 43.1486 L 54.3936 43.8949 C 54.3701 43.9212 54.3658 43.9592 54.3827 43.99 L 54.967 45.0418 C 54.9841 45.0726 55.0187 45.0889 55.0533 45.0829 L 56.041 44.9083 C 56.3558 45.2552 56.7281 45.5543 57.1493 45.7889 L 57.203 46.7898 C 57.205 46.8249 57.2287 46.8549 57.2627 46.8646 L 58.4196 47.1952 C 58.4533 47.2049 58.4896 47.192 58.5098 47.1632 L 59.0844 46.3418 C 59.5658 46.3649 60.0401 46.3078 60.4907 46.1798 L 61.237 46.85 C 61.2633 46.8735 61.3013 46.8778 61.3321 46.8609 L 62.3838 46.2766 C 62.4147 46.2595 62.431 46.2249 62.425 46.1903 L 62.2504 45.2026 C 62.5973 44.8878 62.8964 44.5155 63.131 44.0943 L 64.1318 44.0406 C 64.167 44.0386 64.197 44.0149 64.2067 43.9809 L 64.5373 42.824 C 64.547 42.7903 64.5341 42.754 64.5053 42.7338 L 63.6838 42.1592 C 63.707 41.6778 63.6498 41.2035 63.5218 40.7529 L 64.1918 40.0066 C 64.2153 39.9803 64.2196 39.9423 64.2027 39.9115 L 63.6184 38.8598 C 63.6013 38.8289 63.5667 38.8126 63.5321 38.8186 L 62.5444 38.9932 C 62.2296 38.6463 61.8573 38.3472 61.4361 38.1126 L 61.3824 37.1118 C 61.3804 37.0766 61.3567 37.0466 61.3227 37.0369 L 60.1658 36.7063 C 60.1321 36.6966 60.0958 36.7095 60.0756 36.7383 L 59.501 37.5598 C 59.0196 37.5366 58.5453 37.5938 58.0947 37.7218 L 57.3484 37.0518 C 57.3221 37.0283 57.2841 37.024 57.2533 37.0409 L 56.2016 37.6252 V 37.6249 Z" stroke-linecap="round"/>
</g>
		<g transform="matrix(1 0 0 1 18.7928 1.9495)">
<path style="stroke: none; stroke-width: 1; stroke-dasharray: none; stroke-linecap: butt; stroke-dashoffset: 0; stroke-linejoin: miter; stroke-miterlimit: 4; is-custom-font: none; font-file-url: none; fill: rgb(255,255,255); fill-rule: nonzero; opacity: 0.7;" transform=" translate(-59.2927, -41.9495)" d="M 59.91 40.8855 C 60.1946 41.0503 60.3977 41.3163 60.482 41.634 C 60.5666 41.9517 60.522 42.2835 60.3572 42.5677 C 60.0166 43.1549 59.2632 43.3549 58.6746 43.0149 C 58.0875 42.674 57.8869 41.9195 58.2275 41.3323 C 58.3923 41.0477 58.6583 40.8446 58.976 40.7603 C 59.2343 40.6917 59.5017 40.708 59.7457 40.8055 C 59.8017 40.8277 59.8566 40.8546 59.9097 40.8852 L 59.91 40.8855 Z M 60.0757 42.4049 C 60.1972 42.1957 60.2297 41.9517 60.1677 41.7177 C 60.1057 41.484 59.956 41.2886 59.7469 41.1672 C 59.5374 41.046 59.2937 41.0132 59.0597 41.0755 C 58.826 41.1375 58.6306 41.2872 58.5092 41.4963 C 58.2586 41.9283 58.406 42.4835 58.838 42.734 C 58.8772 42.7566 58.9169 42.776 58.9577 42.792 C 59.3677 42.9555 59.848 42.7977 60.0757 42.4052 V 42.4049 Z" stroke-linecap="round"/>
</g>
		<g transform="matrix(1 0 0 1 18.804 1.9776)">
<path style="stroke: none; stroke-width: 1; stroke-dasharray: none; stroke-linecap: butt; stroke-dashoffset: 0; stroke-linejoin: miter; stroke-miterlimit: 4; is-custom-font: none; font-file-url: none; fill: rgb(255,255,255); fill-rule: nonzero; opacity: 0.7;" transform=" translate(-59.304, -41.9776)" d="M 60.4411 39.1268 C 60.3454 39.0888 60.2471 39.055 60.1459 39.0262 C 59.9454 38.9688 59.7385 38.9316 59.5311 38.9162 C 59.5216 38.9156 59.5125 38.915 59.5031 38.9142 C 59.4308 38.9093 59.3665 38.9525 59.3411 39.0162 C 59.3348 39.0316 59.3311 39.0485 59.3299 39.0659 C 59.3239 39.1556 59.3922 39.2328 59.4816 39.239 C 59.6756 39.2519 59.8688 39.2856 60.0565 39.3393 C 60.0668 39.3422 60.0771 39.3453 60.0874 39.3485 C 60.5299 39.4796 60.9231 39.7159 61.2408 40.0342 C 61.4134 40.207 61.5634 40.4039 61.6871 40.6219 C 61.6882 40.6236 61.6891 40.6253 61.6902 40.6273 C 61.6934 40.6328 61.6962 40.6382 61.6994 40.6436 C 62.0548 41.2836 62.1396 42.0233 61.9385 42.7273 C 61.9125 42.8185 61.8822 42.9073 61.8476 42.9942 C 61.6148 43.5782 61.1916 44.0605 60.6345 44.3699 C 59.9945 44.7253 59.2548 44.8102 58.5511 44.609 C 57.8479 44.4079 57.2639 43.9448 56.9085 43.305 C 56.5531 42.665 56.4682 41.9253 56.6694 41.2213 C 56.6948 41.1319 56.7251 41.0439 56.7594 40.9579 C 56.9079 40.5853 57.1362 40.2493 57.4294 39.975 C 57.4474 39.9582 57.4608 39.9382 57.4694 39.9165 C 57.4919 39.8599 57.4816 39.7925 57.4371 39.745 C 57.3754 39.6796 57.2728 39.6759 57.2071 39.7376 C 56.8791 40.0445 56.6236 40.4205 56.4574 40.837 C 56.4191 40.9333 56.3854 41.0316 56.3568 41.1319 C 56.1316 41.9193 56.2268 42.7473 56.6245 43.463 C 57.0222 44.1788 57.6742 44.6973 58.4622 44.9219 C 59.2496 45.147 60.0774 45.0519 60.7934 44.6542 C 61.4165 44.3082 61.8899 43.7688 62.1505 43.1153 C 62.1891 43.0185 62.2234 42.9188 62.2525 42.8168 C 62.6879 41.2922 61.8845 39.7022 60.4422 39.1273 L 60.4411 39.1268 Z" stroke-linecap="round"/>
</g>
		<g transform="matrix(1 0 0 1 -26.1645 -7.0497)">
<linearGradient id="SVGID_1185" gradientUnits="userSpaceOnUse" gradientTransform="matrix(1 0 0 1 0 0)" x1="19.4784" y1="21.1172" x2="15.8939" y2="30.1095">
<stop offset="0%" style="stop-color:rgb(9,0,93);stop-opacity: 1"/>
<stop offset="100%" style="stop-color:rgb(26,15,145);stop-opacity: 1"/>
</linearGradient>
<path style="stroke: none; stroke-width: 1; stroke-dasharray: none; stroke-linecap: butt; stroke-dashoffset: 0; stroke-linejoin: miter; stroke-miterlimit: 4; is-custom-font: none; font-file-url: none; fill: url(#SVGID_1185); fill-rule: nonzero; opacity: 1;" transform=" translate(-14.3355, -32.9503)" d="M 17.353 25.9543 C 17.353 25.9543 16.1444 26.5421 15.9222 27.2175 C 15.7439 27.7592 14.4076 27.8292 14.2756 28.8946 C 14.2073 29.4449 13.8004 29.8855 13.2524 29.9695 C 11.8876 30.1786 9.78444 30.8875 9.44787 33.2569 C 9.19101 35.0655 10.113 35.7515 11.0807 35.9889 C 11.7916 36.1632 12.2639 36.8546 12.1199 37.5721 C 11.9819 38.2603 12.1876 39.0558 13.3799 39.6849 C 16.0516 41.0946 18.7199 36.3449 18.7199 36.3449 L 19.2667 28.0515 L 17.3527 25.9543 H 17.353 Z" stroke-linecap="round"/>
</g>
		<g transform="matrix(1 0 0 1 -14.2871 -9.0165)">
<linearGradient id="SVGID_1186" gradientUnits="userSpaceOnUse" gradientTransform="matrix(1 0 0 1 0 0)" x1="27.9109" y1="27.963" x2="18.263" y2="41.2976">
<stop offset="0%" style="stop-color:rgb(254,187,186);stop-opacity: 1"/>
<stop offset="100%" style="stop-color:rgb(255,146,142);stop-opacity: 1"/>
</linearGradient>
<path style="stroke: none; stroke-width: 1; stroke-dasharray: none; stroke-linecap: butt; stroke-dashoffset: 0; stroke-linejoin: miter; stroke-miterlimit: 4; is-custom-font: none; font-file-url: none; fill: url(#SVGID_1186); fill-rule: nonzero; opacity: 1;" transform=" translate(-26.2129, -30.9835)" d="M 31.8912 23.9881 C 31.8912 23.9881 26.5566 32.4261 20.2129 34.0558 C 20.2129 34.0558 21.4489 37.5764 22.4029 37.9792 C 22.4029 37.9792 30.2072 31.4672 32.2129 25.1869 L 31.8912 23.9878 V 23.9881 Z" stroke-linecap="round"/>
</g>
		<g transform="matrix(1 0 0 1 -35.646 38.687)">
<linearGradient id="SVGID_1187" gradientUnits="userSpaceOnUse" gradientTransform="matrix(1 0 0 1 0 0)" x1="2.29832" y1="37.2618" x2="4.27289" y2="69.2504">
<stop offset="0%" style="stop-color:rgb(79,82,255);stop-opacity: 1"/>
<stop offset="100%" style="stop-color:rgb(64,66,226);stop-opacity: 1"/>
</linearGradient>
<path style="stroke: none; stroke-width: 1; stroke-dasharray: none; stroke-linecap: butt; stroke-dashoffset: 0; stroke-linejoin: miter; stroke-miterlimit: 4; is-custom-font: none; font-file-url: none; fill: url(#SVGID_1187); fill-rule: nonzero; opacity: 1;" transform=" translate(-4.854, -78.687)" d="M 6.37003 77.9579 L 6.19718 79.3793 C 6.16432 79.649 5.95203 79.8621 5.68232 79.893 C 5.2266 79.945 4.49546 79.9984 3.78003 79.9227 C 3.46603 79.8896 3.26203 79.5716 3.35775 79.2707 C 3.53203 78.7221 3.85118 77.8984 4.31118 77.4136 H 5.88803 C 6.17946 77.4136 6.40546 77.6684 6.37032 77.9579 H 6.37003 Z" stroke-linecap="round"/>
</g>
		<g transform="matrix(1 0 0 1 -22.7088 30.4716)">
<linearGradient id="SVGID_1188" gradientUnits="userSpaceOnUse" gradientTransform="matrix(1 0 0 1 0 0)" x1="19.2185" y1="90.6739" x2="14.844" y2="39.5482">
<stop offset="0%" style="stop-color:rgb(254,187,186);stop-opacity: 1"/>
<stop offset="100%" style="stop-color:rgb(255,146,142);stop-opacity: 1"/>
</linearGradient>
<path style="stroke: none; stroke-width: 1; stroke-dasharray: none; stroke-linecap: butt; stroke-dashoffset: 0; stroke-linejoin: miter; stroke-miterlimit: 4; is-custom-font: none; font-file-url: none; fill: url(#SVGID_1188); fill-rule: nonzero; opacity: 1;" transform=" translate(-17.7913, -70.4716)" d="M 18.72 61.3076 L 18.986 62.873 C 18.986 62.873 18.0948 71.9002 17.9363 75.511 C 17.9114 76.077 18.058 76.6365 18.3551 77.119 L 19.9048 79.6356 L 15.9665 77.3116 L 15.8883 76.831 L 16.5331 75.9445 L 15.6885 65.8319 C 15.6388 65.2379 15.7614 64.6419 16.0417 64.1159 L 16.8563 62.5856 L 18.7203 61.3079 L 18.72 61.3076 Z" stroke-linecap="round"/>
</g>
		<g transform="matrix(1 0 0 1 -22.4625 38.132)">
<linearGradient id="SVGID_1189" gradientUnits="userSpaceOnUse" gradientTransform="matrix(1 0 0 1 0 0)" x1="15.4367" y1="36.4511" x2="17.4112" y2="68.4397">
<stop offset="0%" style="stop-color:rgb(79,82,255);stop-opacity: 1"/>
<stop offset="100%" style="stop-color:rgb(64,66,226);stop-opacity: 1"/>
</linearGradient>
<path style="stroke: none; stroke-width: 1; stroke-dasharray: none; stroke-linecap: butt; stroke-dashoffset: 0; stroke-linejoin: miter; stroke-miterlimit: 4; is-custom-font: none; font-file-url: none; fill: url(#SVGID_1189); fill-rule: nonzero; opacity: 1;" transform=" translate(-18.0375, -78.132)" d="M 20.1644 80.0002 H 18.9075 C 18.6724 80.0002 18.4504 79.8922 18.307 79.7057 C 17.9152 79.1965 17.1032 78.2034 16.7152 78.1774 C 16.1927 78.1425 16.2595 80.0002 16.2595 80.0002 H 15.9667 L 15.5955 77.692 C 15.5021 77.1111 15.791 76.5357 16.3127 76.2637 C 16.3127 76.2637 16.4321 77.1471 17.0798 77.5377 C 17.7275 77.9285 19.7155 79.3277 19.7155 79.3277 C 19.7155 79.3277 19.959 79.2928 20.2264 79.3414 C 20.623 79.4131 20.5675 80.0002 20.1647 80.0002 H 20.1644 Z" stroke-linecap="round"/>
</g>
		<g transform="matrix(1 0 0 1 -31.8936 30.2445)">
<linearGradient id="SVGID_1190" gradientUnits="userSpaceOnUse" gradientTransform="matrix(1 0 0 1 0 0)" x1="10.4195" y1="91.4344" x2="6.04378" y2="40.2952">
<stop offset="0%" style="stop-color:rgb(254,187,186);stop-opacity: 1"/>
<stop offset="100%" style="stop-color:rgb(255,146,142);stop-opacity: 1"/>
</linearGradient>
<path style="stroke: none; stroke-width: 1; stroke-dasharray: none; stroke-linecap: butt; stroke-dashoffset: 0; stroke-linejoin: miter; stroke-miterlimit: 4; is-custom-font: none; font-file-url: none; fill: url(#SVGID_1190); fill-rule: nonzero; opacity: 1;" transform=" translate(-8.6064, -70.2445)" d="M 13.3258 62.0509 C 13.3258 62.0509 8.10492 71.9546 7.27492 74.2158 C 6.44492 76.4769 6.15435 78.3632 6.14321 78.5418 C 6.12578 78.8209 5.77864 79.0886 4.82178 79.0886 C 4.32778 79.0886 4.08607 78.8906 3.9675 78.6989 C 3.86635 78.5355 3.86121 78.3309 3.94635 78.1586 C 4.24835 77.5475 5.20664 75.5941 5.56178 74.7084 C 5.9855 73.6506 6.89721 68.8572 7.39721 67.1906 C 7.89721 65.5241 8.46235 63.7161 10.6395 62.0509 C 10.6395 62.0509 12.1341 60.5872 13.3261 62.0509 H 13.3258 Z" stroke-linecap="round"/>
</g>
		<g transform="matrix(1 0 0 1 -21.2361 0.2559)">
<linearGradient id="SVGID_1191" gradientUnits="userSpaceOnUse" gradientTransform="matrix(1 0 0 1 0 0)" x1="69.6709" y1="7.81208" x2="44.7626" y2="24.0315">
<stop offset="0%" style="stop-color:rgb(255,146,142);stop-opacity: 1"/>
<stop offset="100%" style="stop-color:rgb(254,112,98);stop-opacity: 1"/>
</linearGradient>
<path style="stroke: none; stroke-width: 1; stroke-dasharray: none; stroke-linecap: butt; stroke-dashoffset: 0; stroke-linejoin: miter; stroke-miterlimit: 4; is-custom-font: none; font-file-url: none; fill: url(#SVGID_1191); fill-rule: nonzero; opacity: 1;" transform=" translate(-19.2639, -40.2559)" d="M 16.6237 45.8232 C 17.9706 40.1164 14.5586 36.8887 14.5586 36.8887 C 16.7115 34.8224 20.6337 33.8821 20.6337 33.8821 C 20.6337 33.8821 24.3766 36.6184 23.9326 38.7601 C 23.6723 40.0152 21.3017 46.2789 21.3017 46.2789 C 21.3017 46.2789 19.1097 47.3164 16.6237 45.8232 Z" stroke-linecap="round"/>
</g>
		<g transform="matrix(1 0 0 1 -24.4762 14.4432)">
<linearGradient id="SVGID_1192" gradientUnits="userSpaceOnUse" gradientTransform="matrix(1 0 0 1 0 0)" x1="56.7925" y1="24.2586" x2="45.4956" y2="32.9483">
<stop offset="0%" style="stop-color:rgb(79,82,255);stop-opacity: 1"/>
<stop offset="100%" style="stop-color:rgb(64,66,226);stop-opacity: 1"/>
</linearGradient>
<path style="stroke: none; stroke-width: 1; stroke-dasharray: none; stroke-linecap: butt; stroke-dashoffset: 0; stroke-linejoin: miter; stroke-miterlimit: 4; is-custom-font: none; font-file-url: none; fill: url(#SVGID_1192); fill-rule: nonzero; opacity: 1;" transform=" translate(-16.0238, -54.4432)" d="M 13.6382 48.6486 C 14.1862 46.9975 16.6242 45.8235 16.6242 45.8235 C 19.1102 47.3166 21.3022 46.2792 21.3022 46.2792 C 21.3022 46.2792 21.7939 48.1583 21.4545 49.9043 C 21.1151 51.6506 18.9865 62.8729 18.9865 62.8729 C 15.6325 63.5526 10.4736 62.1892 10.4736 62.1892 C 12.6102 58.3961 13.0899 50.2998 13.6382 48.6486 Z" stroke-linecap="round"/>
</g>
		<g transform="matrix(1 0 0 1 -21.8108 -7.4937)">
<linearGradient id="SVGID_1193" gradientUnits="userSpaceOnUse" gradientTransform="matrix(1 0 0 1 0 0)" x1="19.6986" y1="40.279" x2="18.8768" y2="34.2676">
<stop offset="0%" style="stop-color:rgb(254,187,186);stop-opacity: 1"/>
<stop offset="100%" style="stop-color:rgb(255,146,142);stop-opacity: 1"/>
</linearGradient>
<path style="stroke: none; stroke-width: 1; stroke-dasharray: none; stroke-linecap: butt; stroke-dashoffset: 0; stroke-linejoin: miter; stroke-miterlimit: 4; is-custom-font: none; font-file-url: none; fill: url(#SVGID_1193); fill-rule: nonzero; opacity: 1;" transform=" translate(-18.6892, -32.5064)" d="M 18.1871 30.111 L 17.0923 35.0293 C 16.9874 35.4625 17.3823 35.3916 17.8203 35.309 C 18.5374 35.1739 19.462 34.8953 19.7711 34.337 C 19.8026 34.2802 19.8183 34.2159 19.8271 34.1516 L 20.2974 30.741 C 20.3348 30.4705 20.1886 30.2079 19.9388 30.097 L 19.0311 29.6945 C 18.6817 29.5396 18.2771 29.739 18.1871 30.1104 V 30.111 Z" stroke-linecap="round"/>
</g>
		<g transform="matrix(1 0 0 1 -25.3053 0.5241)">
<linearGradient id="SVGID_1194" gradientUnits="userSpaceOnUse" gradientTransform="matrix(1 0 0 1 0 0)" x1="2.69157" y1="45.9918" x2="21.2439" y2="38.2306">
<stop offset="0%" style="stop-color:rgb(254,187,186);stop-opacity: 1"/>
<stop offset="100%" style="stop-color:rgb(255,146,142);stop-opacity: 1"/>
</linearGradient>
<path style="stroke: none; stroke-width: 1; stroke-dasharray: none; stroke-linecap: butt; stroke-dashoffset: 0; stroke-linejoin: miter; stroke-miterlimit: 4; is-custom-font: none; font-file-url: none; fill: url(#SVGID_1194); fill-rule: nonzero; opacity: 1;" transform=" translate(-15.1947, -40.5241)" d="M 14.559 36.8889 C 14.559 36.8889 3.99043 47.3509 19.3176 43.1749 C 19.3176 43.1749 19.4924 41.8523 19.2641 41.8752 C 14.2939 42.3712 12.215 43.5089 16.2553 39.5912 C 16.3981 39.4526 16.3539 38.9298 16.2621 38.7535 C 15.9824 38.2161 15.3424 37.1489 14.559 36.8892 V 36.8889 Z" stroke-linecap="round"/>
</g>
		<g transform="matrix(1 0 0 1 -20.7332 -11.7167)">
<linearGradient id="SVGID_1195" gradientUnits="userSpaceOnUse" gradientTransform="matrix(1 0 0 1 0 0)" x1="21.1569" y1="33.0516" x2="16.6019" y2="19.1419">
<stop offset="0%" style="stop-color:rgb(254,187,186);stop-opacity: 1"/>
<stop offset="100%" style="stop-color:rgb(255,146,142);stop-opacity: 1"/>
</linearGradient>
<path style="stroke: none; stroke-width: 1; stroke-dasharray: none; stroke-linecap: butt; stroke-dashoffset: 0; stroke-linejoin: miter; stroke-miterlimit: 4; is-custom-font: none; font-file-url: none; fill: url(#SVGID_1195); fill-rule: nonzero; opacity: 1;" transform=" translate(-19.7668, -28.2832)" d="M 20.2848 25.6274 C 20.2848 25.6274 21.4505 26.4165 21.9514 28.4259 C 22.4522 30.4354 21.6382 31.1562 20.804 31.1122 C 19.9697 31.0679 18.7597 30.8099 17.7114 29.3685 C 16.6631 27.9268 18.7574 24.6634 20.2848 25.6276 V 25.6274 Z" stroke-linecap="round"/>
</g>
		<g transform="matrix(1 0 0 1 -21.6409 -13.0639)">
<linearGradient id="SVGID_1196" gradientUnits="userSpaceOnUse" gradientTransform="matrix(1 0 0 1 0 0)" x1="21.8019" y1="21.8518" x2="16.5386" y2="29.9768">
<stop offset="0%" style="stop-color:rgb(9,0,93);stop-opacity: 1"/>
<stop offset="100%" style="stop-color:rgb(26,15,145);stop-opacity: 1"/>
</linearGradient>
<path style="stroke: none; stroke-width: 1; stroke-dasharray: none; stroke-linecap: butt; stroke-dashoffset: 0; stroke-linejoin: miter; stroke-miterlimit: 4; is-custom-font: none; font-file-url: none; fill: url(#SVGID_1196); fill-rule: nonzero; opacity: 1;" transform=" translate(-18.8591, -26.9361)" d="M 18.7678 28.5578 C 18.7678 28.5578 18.3407 25.6783 20.7313 26.1186 L 21.2147 26.6218 C 21.2147 26.6218 22.385 25.304 21.0898 24.3078 C 19.795 23.3115 17.9978 23.5666 17.0038 25.3803 C 16.0095 27.1938 15.6487 28.468 16.4821 29.5952 C 17.3155 30.722 17.9421 29.7555 17.9421 29.7555 C 17.9421 29.7555 17.5598 28.78 17.877 28.3617 C 18.1941 27.9432 18.6033 28.6052 18.6033 28.6052 L 18.7675 28.5578 H 18.7678 Z" stroke-linecap="round"/>
</g>
		<g transform="matrix(1 0 0 1 -22.6771 -11.4362)">
<linearGradient id="SVGID_1197" gradientUnits="userSpaceOnUse" gradientTransform="matrix(1 0 0 1 0 0)" x1="19.4932" y1="33.5965" x2="14.9385" y2="19.6869">
<stop offset="0%" style="stop-color:rgb(254,187,186);stop-opacity: 1"/>
<stop offset="100%" style="stop-color:rgb(255,146,142);stop-opacity: 1"/>
</linearGradient>
<path style="stroke: none; stroke-width: 1; stroke-dasharray: none; stroke-linecap: butt; stroke-dashoffset: 0; stroke-linejoin: miter; stroke-miterlimit: 4; is-custom-font: none; font-file-url: none; fill: url(#SVGID_1197); fill-rule: nonzero; opacity: 1;" transform=" translate(-17.823, -28.5637)" d="M 18.4418 28.8045 C 18.4418 28.8045 18.2309 27.3231 17.4744 27.7465 C 16.7178 28.1699 17.7469 29.1305 18.1598 29.4571 L 18.4418 28.8045 Z" stroke-linecap="round"/>
</g>
		<g transform="matrix(1 0 0 1 -7.4002 -16.6492)">
<linearGradient id="SVGID_1198" gradientUnits="userSpaceOnUse" gradientTransform="matrix(1 0 0 1 0 0)" x1="29.0693" y1="28.8012" x2="19.4214" y2="42.1359">
<stop offset="0%" style="stop-color:rgb(254,187,186);stop-opacity: 1"/>
<stop offset="100%" style="stop-color:rgb(255,146,142);stop-opacity: 1"/>
</linearGradient>
<path style="stroke: none; stroke-width: 1; stroke-dasharray: none; stroke-linecap: butt; stroke-dashoffset: 0; stroke-linejoin: miter; stroke-miterlimit: 4; is-custom-font: none; font-file-url: none; fill: url(#SVGID_1198); fill-rule: nonzero; opacity: 1;" transform=" translate(-33.0998, -23.3508)" d="M 31.8547 25.7253 C 31.871 25.8993 31.2236 26.0195 31.0176 25.2775 C 31.0741 24.9553 31.1747 23.5447 31.4219 23.3255 C 32.7376 22.1581 35.0833 20.845 35.0833 20.845 C 35.3456 21.2455 35.0016 21.5093 35.0016 21.5093 L 33.8304 22.2995 C 33.9527 22.7041 34.1307 23.0618 34.151 23.5238 C 34.1662 23.8735 34.037 24.2161 33.805 24.4815 C 33.5719 24.7478 33.2581 25.0915 32.9753 25.3527 C 32.4399 25.8467 31.8547 25.7253 31.8547 25.7253 Z" stroke-linecap="round"/>
</g>
		<g transform="matrix(1 0 0 1 -7.8799 -16.0545)">
<linearGradient id="SVGID_1199" gradientUnits="userSpaceOnUse" gradientTransform="matrix(1 0 0 1 0 0)" x1="31.7282" y1="23.9453" x2="33.5117" y2="23.9453">
<stop offset="0%" style="stop-color:rgb(255,146,142);stop-opacity: 1"/>
<stop offset="100%" style="stop-color:rgb(254,112,98);stop-opacity: 1"/>
</linearGradient>
<path style="stroke: none; stroke-width: 1; stroke-dasharray: none; stroke-linecap: butt; stroke-dashoffset: 0; stroke-linejoin: miter; stroke-miterlimit: 4; is-custom-font: none; font-file-url: none; fill: url(#SVGID_1199); fill-rule: nonzero; opacity: 1;" transform=" translate(-32.6201, -23.9455)" d="M 32.4905 25.1502 L 32.3117 25.0765 C 32.3354 25.0185 32.8974 23.653 33.1691 23.369 C 33.2725 23.2613 33.3222 23.1691 33.3177 23.0945 C 33.3154 23.0542 33.2954 23.0145 33.2577 22.9739 L 32.3102 23.4808 L 31.8917 24.1362 L 31.7285 24.0319 L 32.1742 23.3339 L 33.2842 22.7405 L 33.3342 22.7813 C 33.4465 22.8731 33.5045 22.9716 33.5111 23.0831 C 33.5194 23.2156 33.4534 23.3531 33.3094 23.5033 C 33.1045 23.7173 32.6491 24.7648 32.4908 25.1505 L 32.4905 25.1502 Z" stroke-linecap="round"/>
</g>
		<g transform="matrix(1 0 0 1 -17.1757 0.5368)">
<linearGradient id="SVGID_1200" gradientUnits="userSpaceOnUse" gradientTransform="matrix(1 0 0 1 0 0)" x1="27.5283" y1="36.3465" x2="45.8715" y2="18.9685">
<stop offset="0%" style="stop-color:rgb(79,82,255);stop-opacity: 1"/>
<stop offset="100%" style="stop-color:rgb(64,66,226);stop-opacity: 1"/>
</linearGradient>
<path style="stroke: none; stroke-width: 1; stroke-dasharray: none; stroke-linecap: butt; stroke-dashoffset: 0; stroke-linejoin: miter; stroke-miterlimit: 4; is-custom-font: none; font-file-url: none; fill: url(#SVGID_1200); fill-rule: nonzero; opacity: 1;" transform=" translate(-23.3243, -40.5367)" d="M 26.3658 37.3625 L 23.2078 36.9465 C 22.8312 36.8842 22.4426 37.1047 22.2098 37.5127 L 20.1323 42.1047 C 19.7412 42.7907 20.0195 43.701 20.6523 43.8059 L 23.1883 44.131 C 23.4309 44.1713 23.6803 44.0182 23.8172 43.7447 L 26.6269 38.1367 C 26.7892 37.8127 26.6535 37.4099 26.3658 37.3622 V 37.3625 Z" stroke-linecap="round"/>
</g>
		<g transform="matrix(1 0 0 1 -19.7259 1.6605)">
<linearGradient id="SVGID_1201" gradientUnits="userSpaceOnUse" gradientTransform="matrix(1 0 0 1 0 0)" x1="19.0705" y1="41.6605" x2="22.4779" y2="41.6605">
<stop offset="0%" style="stop-color:rgb(254,187,186);stop-opacity: 1"/>
<stop offset="100%" style="stop-color:rgb(255,146,142);stop-opacity: 1"/>
</linearGradient>
<path style="stroke: none; stroke-width: 1; stroke-dasharray: none; stroke-linecap: butt; stroke-dashoffset: 0; stroke-linejoin: miter; stroke-miterlimit: 4; is-custom-font: none; font-file-url: none; fill: url(#SVGID_1201); fill-rule: nonzero; opacity: 1;" transform=" translate(-20.7741, -41.6605)" d="M 19.317 43.1747 C 19.317 43.1747 18.9608 41.7096 19.1045 41.1899 C 19.2482 40.6702 19.5268 40.0019 20.4548 40.1505 C 21.383 40.299 22.4779 40.6899 22.4779 40.6899 C 22.4779 40.6899 22.4225 41.367 21.717 41.1485 L 22.1545 41.487 C 22.1545 41.487 22.0919 42.029 21.4962 41.7396 L 21.903 42.1885 C 21.903 42.1885 21.647 42.6336 21.2088 42.3482 C 20.7705 42.0627 20.5602 43.3513 19.317 43.175 V 43.1747 Z" stroke-linecap="round"/>
</g>
</g>
</g>
<g transform="matrix(1 0 0 1 506.1485 970.6264)" style="" id="802090">
		
<path xml:space="preserve" font-family="Lato" font-size="96" font-style="normal" font-weight="normal" style="stroke: none; stroke-width: 0; stroke-dasharray: none; stroke-linecap: butt; stroke-dashoffset: 0; stroke-linejoin: miter; stroke-miterlimit: 4; is-custom-font: none; font-file-url: none; fill: rgb(0,0,0); fill-rule: nonzero; opacity: 1; white-space: pre;" d="M-450.34-38.63L-422.83 30.16L-430.03 30.16Q-431.28 30.16-432.05 29.53Q-432.82 28.91-433.20 27.95L-433.20 27.95L-439.63 11.34L-470.50 11.34L-476.93 27.95Q-477.26 28.81-478.08 29.49Q-478.90 30.16-480.10 30.16L-480.10 30.16L-487.30 30.16L-459.79-38.63L-450.34-38.63ZM-457.10-23.31L-467.90 4.62L-442.22 4.62L-453.02-23.36Q-454.08-25.95-455.09-29.84L-455.09-29.84Q-455.62-27.87-456.12-26.22Q-456.62-24.56-457.10-23.31L-457.10-23.31ZM-406.94 46.62L-415.49 46.62L-415.49-18.47L-410.40-18.47Q-408.58-18.47-408.10-16.69L-408.10-16.69L-407.38-10.93Q-404.26-14.72-400.25-17.03Q-396.24-19.33-391.01-19.33L-391.01-19.33Q-386.83-19.33-383.42-17.72Q-380.02-16.11-377.62-12.97Q-375.22-9.83-373.92-5.17Q-372.62-0.51-372.62 5.53L-372.62 5.53Q-372.62 10.91-374.06 15.54Q-375.50 20.17-378.19 23.56Q-380.88 26.94-384.79 28.89Q-388.70 30.83-393.60 30.83L-393.60 30.83Q-398.11 30.83-401.30 29.34Q-404.50 27.85-406.94 25.12L-406.94 25.12L-406.94 46.62ZM-393.84-12.42L-393.84-12.42Q-398.02-12.42-401.16-10.50Q-404.30-8.58-406.94-5.07L-406.94-5.07L-406.94 18.45Q-404.59 21.61-401.78 22.91Q-398.98 24.21-395.52 24.21L-395.52 24.21Q-388.75 24.21-385.10 19.36Q-381.46 14.51-381.46 5.53L-381.46 5.53Q-381.46 0.78-382.30-2.63Q-383.14-6.03-384.72-8.22Q-386.30-10.40-388.61-11.41Q-390.91-12.42-393.84-12.42ZM-353.95 46.62L-362.50 46.62L-362.50-18.47L-357.41-18.47Q-355.58-18.47-355.10-16.69L-355.10-16.69L-354.38-10.93Q-351.26-14.72-347.26-17.03Q-343.25-19.33-338.02-19.33L-338.02-19.33Q-333.84-19.33-330.43-17.72Q-327.02-16.11-324.62-12.97Q-322.22-9.83-320.93-5.17Q-319.63-0.51-319.63 5.53L-319.63 5.53Q-319.63 10.91-321.07 15.54Q-322.51 20.17-325.20 23.56Q-327.89 26.94-331.80 28.89Q-335.71 30.83-340.61 30.83L-340.61 30.83Q-345.12 30.83-348.31 29.34Q-351.50 27.85-353.95 25.12L-353.95 25.12L-353.95 46.62ZM-340.85-12.42L-340.85-12.42Q-345.02-12.42-348.17-10.50Q-351.31-8.58-353.95-5.07L-353.95-5.07L-353.95 18.45Q-351.60 21.61-348.79 22.91Q-345.98 24.21-342.53 24.21L-342.53 24.21Q-335.76 24.21-332.11 19.36Q-328.46 14.51-328.46 5.53L-328.46 5.53Q-328.46 0.78-329.30-2.63Q-330.14-6.03-331.73-8.22Q-333.31-10.40-335.62-11.41Q-337.92-12.42-340.85-12.42ZM-308.54-40.55L-300.00-40.55L-300.00 30.16L-308.54 30.16L-308.54-40.55ZM-283.97-18.47L-275.42-18.47L-275.42 30.16L-283.97 30.16L-283.97-18.47ZM-273.50-33.73L-273.50-33.73Q-273.50-32.48-274.01-31.40Q-274.51-30.32-275.35-29.48Q-276.19-28.64-277.30-28.16Q-278.40-27.68-279.65-27.68L-279.65-27.68Q-280.90-27.68-281.98-28.16Q-283.06-28.64-283.90-29.48Q-284.74-30.32-285.22-31.40Q-285.70-32.48-285.70-33.73L-285.70-33.73Q-285.70-34.98-285.22-36.11Q-284.74-37.23-283.90-38.07Q-283.06-38.91-281.98-39.39Q-280.90-39.87-279.65-39.87L-279.65-39.87Q-278.40-39.87-277.30-39.39Q-276.19-38.91-275.35-38.07Q-274.51-37.23-274.01-36.11Q-273.50-34.98-273.50-33.73ZM-224.93-12.90L-227.18-9.83Q-227.57-9.30-227.95-9.01Q-228.34-8.72-229.06-8.72L-229.06-8.72Q-229.78-8.72-230.62-9.32Q-231.46-9.92-232.75-10.64Q-234.05-11.36-235.90-11.96Q-237.74-12.56-240.43-12.56L-240.43-12.56Q-243.98-12.56-246.72-11.29Q-249.46-10.02-251.30-7.62Q-253.15-5.22-254.09-1.81Q-255.02 1.60-255.02 5.82L-255.02 5.82Q-255.02 10.24-254.02 13.67Q-253.01 17.10-251.18 19.43Q-249.36 21.76-246.74 22.98Q-244.13 24.21-240.86 24.21L-240.86 24.21Q-237.74 24.21-235.73 23.46Q-233.71 22.72-232.37 21.81Q-231.02 20.89-230.16 20.15Q-229.30 19.41-228.43 19.41L-228.43 19.41Q-227.33 19.41-226.80 20.22L-226.80 20.22L-224.40 23.34Q-227.57 27.23-232.32 29.03Q-237.07 30.83-242.35 30.83L-242.35 30.83Q-246.91 30.83-250.82 29.15Q-254.74 27.47-257.62 24.28Q-260.50 21.09-262.15 16.43Q-263.81 11.77-263.81 5.82L-263.81 5.82Q-263.81 0.40-262.30-4.21Q-260.78-8.82-257.88-12.15Q-254.98-15.49-250.70-17.36Q-246.43-19.23-240.91-19.23L-240.91-19.23Q-235.82-19.23-231.89-17.58Q-227.95-15.92-224.93-12.90L-224.93-12.90ZM-179.81-0.95L-179.81 30.16L-183.60 30.16Q-184.85 30.16-185.62 29.77Q-186.38 29.39-186.62 28.14L-186.62 28.14L-187.58 23.63Q-189.50 25.36-191.33 26.73Q-193.15 28.09-195.17 29.03Q-197.18 29.97-199.46 30.45Q-201.74 30.93-204.53 30.93L-204.53 30.93Q-207.36 30.93-209.83 30.13Q-212.30 29.34-214.13 27.76Q-215.95 26.17-217.03 23.75Q-218.11 21.33-218.11 18.01L-218.11 18.01Q-218.11 15.13-216.53 12.47Q-214.94 9.81-211.42 7.74Q-207.89 5.68-202.18 4.36Q-196.46 3.04-188.21 2.85L-188.21 2.85L-188.21-0.95Q-188.21-6.61-190.63-9.51Q-193.06-12.42-197.81-12.42L-197.81-12.42Q-200.93-12.42-203.06-11.63Q-205.20-10.83-206.76-9.85Q-208.32-8.87-209.45-8.07Q-210.58-7.28-211.68-7.28L-211.68-7.28Q-212.54-7.28-213.19-7.74Q-213.84-8.19-214.22-8.87L-214.22-8.87L-215.76-11.60Q-211.73-15.49-207.07-17.41Q-202.42-19.33-196.75-19.33L-196.75-19.33Q-192.67-19.33-189.50-17.99Q-186.34-16.64-184.18-14.24Q-182.02-11.84-180.91-8.43Q-179.81-5.03-179.81-0.95L-179.81-0.95ZM-201.98 24.93L-201.98 24.93Q-199.73 24.93-197.86 24.47Q-195.98 24.01-194.33 23.17Q-192.67 22.33-191.16 21.13Q-189.65 19.93-188.21 18.40L-188.21 18.40L-188.21 8.27Q-194.11 8.46-198.24 9.21Q-202.37 9.95-204.96 11.15Q-207.55 12.35-208.73 13.98Q-209.90 15.61-209.90 17.63L-209.90 17.63Q-209.90 19.55-209.28 20.94Q-208.66 22.33-207.60 23.22Q-206.54 24.11-205.10 24.52Q-203.66 24.93-201.98 24.93ZM-152.11 30.93L-152.11 30.93Q-157.87 30.93-160.97 27.71Q-164.06 24.49-164.06 18.45L-164.06 18.45L-164.06-11.31L-169.92-11.31Q-170.69-11.31-171.22-11.77Q-171.74-12.23-171.74-13.19L-171.74-13.19L-171.74-16.59L-163.78-17.60L-161.81-32.63Q-161.71-33.35-161.18-33.80Q-160.66-34.26-159.84-34.26L-159.84-34.26L-155.52-34.26L-155.52-17.51L-141.60-17.51L-141.60-11.31L-155.52-11.31L-155.52 17.87Q-155.52 20.94-154.03 22.43Q-152.54 23.92-150.19 23.92L-150.19 23.92Q-148.85 23.92-147.86 23.56Q-146.88 23.20-146.16 22.77Q-145.44 22.33-144.94 21.97Q-144.43 21.61-144.05 21.61L-144.05 21.61Q-143.38 21.61-142.85 22.43L-142.85 22.43L-140.35 26.51Q-142.56 28.57-145.68 29.75Q-148.80 30.93-152.11 30.93ZM-130.08-18.47L-121.54-18.47L-121.54 30.16L-130.08 30.16L-130.08-18.47ZM-119.62-33.73L-119.62-33.73Q-119.62-32.48-120.12-31.40Q-120.62-30.32-121.46-29.48Q-122.30-28.64-123.41-28.16Q-124.51-27.68-125.76-27.68L-125.76-27.68Q-127.01-27.68-128.09-28.16Q-129.17-28.64-130.01-29.48Q-130.85-30.32-131.33-31.40Q-131.81-32.48-131.81-33.73L-131.81-33.73Q-131.81-34.98-131.33-36.11Q-130.85-37.23-130.01-38.07Q-129.17-38.91-128.09-39.39Q-127.01-39.87-125.76-39.87L-125.76-39.87Q-124.51-39.87-123.41-39.39Q-122.30-38.91-121.46-38.07Q-120.62-37.23-120.12-36.11Q-119.62-34.98-119.62-33.73ZM-86.78-19.23L-86.78-19.23Q-81.46-19.23-77.16-17.46Q-72.86-15.68-69.86-12.42Q-66.86-9.15-65.26-4.52Q-63.65 0.11-63.65 5.82L-63.65 5.82Q-63.65 11.58-65.26 16.19Q-66.86 20.80-69.86 24.06Q-72.86 27.33-77.16 29.08Q-81.46 30.83-86.78 30.83L-86.78 30.83Q-92.11 30.83-96.41 29.08Q-100.70 27.33-103.73 24.06Q-106.75 20.80-108.38 16.19Q-110.02 11.58-110.02 5.82L-110.02 5.82Q-110.02 0.11-108.38-4.52Q-106.75-9.15-103.73-12.42Q-100.70-15.68-96.41-17.46Q-92.11-19.23-86.78-19.23ZM-86.78 24.16L-86.78 24.16Q-79.58 24.16-76.03 19.33Q-72.48 14.51-72.48 5.87L-72.48 5.87Q-72.48-2.82-76.03-7.67Q-79.58-12.51-86.78-12.51L-86.78-12.51Q-90.43-12.51-93.12-11.27Q-95.81-10.02-97.61-7.67Q-99.41-5.31-100.30-1.88Q-101.18 1.55-101.18 5.87L-101.18 5.87Q-101.18 10.19-100.30 13.60Q-99.41 17.01-97.61 19.33Q-95.81 21.66-93.12 22.91Q-90.43 24.16-86.78 24.16ZM-44.54 30.16L-53.09 30.16L-53.09-18.47L-48.00-18.47Q-46.18-18.47-45.70-16.69L-45.70-16.69L-45.02-11.41Q-41.86-14.91-37.94-17.07Q-34.03-19.23-28.90-19.23L-28.90-19.23Q-24.91-19.23-21.86-17.91Q-18.82-16.59-16.78-14.17Q-14.74-11.75-13.68-8.34Q-12.62-4.93-12.62-0.80L-12.62-0.80L-12.62 30.16L-21.17 30.16L-21.17-0.80Q-21.17-6.32-23.69-9.37Q-26.21-12.42-31.39-12.42L-31.39-12.42Q-35.18-12.42-38.47-10.59Q-41.76-8.77-44.54-5.65L-44.54-5.65L-44.54 30.16ZM57.65-32.29L55.39-27.87Q54.96-27.15 54.48-26.79Q54.00-26.43 53.23-26.43L53.23-26.43Q52.42-26.43 51.34-27.25Q50.26-28.07 48.60-29.05Q46.94-30.03 44.62-30.85Q42.29-31.67 38.98-31.67L38.98-31.67Q35.86-31.67 33.46-30.83Q31.06-29.99 29.45-28.55Q27.84-27.11 27.02-25.16Q26.21-23.22 26.21-20.96L26.21-20.96Q26.21-18.08 27.62-16.19Q29.04-14.29 31.37-12.95Q33.70-11.60 36.65-10.62Q39.60-9.63 42.70-8.58Q45.79-7.52 48.74-6.20Q51.70-4.88 54.02-2.87Q56.35-0.85 57.77 2.08Q59.18 5.01 59.18 9.28L59.18 9.28Q59.18 13.79 57.65 17.75Q56.11 21.71 53.16 24.64Q50.21 27.57 45.91 29.25Q41.62 30.93 36.14 30.93L36.14 30.93Q29.47 30.93 23.98 28.50Q18.48 26.08 14.59 21.95L14.59 21.95L17.28 17.53Q17.66 17.01 18.22 16.65Q18.77 16.29 19.44 16.29L19.44 16.29Q20.45 16.29 21.74 17.37Q23.04 18.45 24.98 19.74Q26.93 21.04 29.69 22.12Q32.45 23.20 36.43 23.20L36.43 23.20Q39.74 23.20 42.34 22.29Q44.93 21.37 46.73 19.72Q48.53 18.06 49.49 15.76Q50.45 13.45 50.45 10.62L50.45 10.62Q50.45 7.50 49.03 5.51Q47.62 3.52 45.31 2.17Q43.01 0.83 40.06-0.11Q37.10-1.04 34.01-2.03Q30.91-3.01 27.96-4.31Q25.01-5.60 22.70-7.67Q20.40-9.73 18.98-12.83Q17.57-15.92 17.57-20.48L17.57-20.48Q17.57-24.13 18.98-27.54Q20.40-30.95 23.09-33.59Q25.78-36.23 29.74-37.81Q33.70-39.39 38.83-39.39L38.83-39.39Q44.59-39.39 49.34-37.57Q54.10-35.75 57.65-32.29L57.65-32.29ZM68.54-18.47L77.09-18.47L77.09 12.54Q77.09 18.06 79.63 21.09Q82.18 24.11 87.31 24.11L87.31 24.11Q91.06 24.11 94.37 22.33Q97.68 20.56 100.46 17.39L100.46 17.39L100.46-18.47L109.01-18.47L109.01 30.16L103.92 30.16Q102.10 30.16 101.62 28.38L101.62 28.38L100.94 23.15Q97.78 26.65 93.84 28.79Q89.90 30.93 84.82 30.93L84.82 30.93Q80.83 30.93 77.78 29.61Q74.74 28.29 72.67 25.89Q70.61 23.49 69.58 20.08Q68.54 16.67 68.54 12.54L68.54 12.54L68.54-18.47ZM128.88 30.16L123.36 30.16L123.36-40.55L131.95-40.55L131.95-11.46Q134.98-14.96 138.89-17.10Q142.80-19.23 147.84-19.23L147.84-19.23Q152.06-19.23 155.47-17.65Q158.88-16.07 161.28-12.92Q163.68-9.78 164.98-5.15Q166.27-0.51 166.27 5.53L166.27 5.53Q166.27 10.91 164.83 15.54Q163.39 20.17 160.68 23.56Q157.97 26.94 154.06 28.89Q150.14 30.83 145.25 30.83L145.25 30.83Q140.54 30.83 137.26 29.01Q133.97 27.18 131.52 23.92L131.52 23.92L131.09 28.33Q130.70 30.16 128.88 30.16L128.88 30.16ZM145.06-12.42L145.06-12.42Q140.88-12.42 137.74-10.50Q134.59-8.58 131.95-5.07L131.95-5.07L131.95 18.45Q134.26 21.61 137.06 22.91Q139.87 24.21 143.33 24.21L143.33 24.21Q150.14 24.21 153.79 19.36Q157.44 14.51 157.44 5.53L157.44 5.53Q157.44 0.78 156.60-2.63Q155.76-6.03 154.18-8.22Q152.59-10.40 150.29-11.41Q147.98-12.42 145.06-12.42ZM185.28 30.16L176.74 30.16L176.74-18.47L181.82-18.47Q183.65-18.47 184.13-16.69L184.13-16.69L184.75-11.70Q187.44-15.01 190.78-17.12Q194.11-19.23 198.53-19.23L198.53-19.23Q203.47-19.23 206.52-16.50Q209.57-13.76 210.91-9.11L210.91-9.11Q211.92-11.75 213.58-13.67Q215.23-15.59 217.30-16.83Q219.36-18.08 221.69-18.66Q224.02-19.23 226.42-19.23L226.42-19.23Q230.26-19.23 233.26-18.01Q236.26-16.79 238.34-14.43Q240.43-12.08 241.54-8.65Q242.64-5.22 242.64-0.80L242.64-0.80L242.64 30.16L234.10 30.16L234.10-0.80Q234.10-6.51 231.60-9.47Q229.10-12.42 224.35-12.42L224.35-12.42Q222.24-12.42 220.34-11.67Q218.45-10.93 217.01-9.49Q215.57-8.05 214.73-5.87Q213.89-3.68 213.89-0.80L213.89-0.80L213.89 30.16L205.34 30.16L205.34-0.80Q205.34-6.66 202.99-9.54Q200.64-12.42 196.13-12.42L196.13-12.42Q192.96-12.42 190.25-10.71Q187.54-9.01 185.28-6.08L185.28-6.08L185.28 30.16ZM256.51-18.47L265.06-18.47L265.06 30.16L256.51 30.16L256.51-18.47ZM266.98-33.73L266.98-33.73Q266.98-32.48 266.47-31.40Q265.97-30.32 265.13-29.48Q264.29-28.64 263.18-28.16Q262.08-27.68 260.83-27.68L260.83-27.68Q259.58-27.68 258.50-28.16Q257.42-28.64 256.58-29.48Q255.74-30.32 255.26-31.40Q254.78-32.48 254.78-33.73L254.78-33.73Q254.78-34.98 255.26-36.11Q255.74-37.23 256.58-38.07Q257.42-38.91 258.50-39.39Q259.58-39.87 260.83-39.87L260.83-39.87Q262.08-39.87 263.18-39.39Q264.29-38.91 265.13-38.07Q265.97-37.23 266.47-36.11Q266.98-34.98 266.98-33.73ZM309.89-13.57L307.97-10.45Q307.39-9.39 306.19-9.39L306.19-9.39Q305.47-9.39 304.56-9.92Q303.65-10.45 302.33-11.10Q301.01-11.75 299.18-12.30Q297.36-12.85 294.86-12.85L294.86-12.85Q292.70-12.85 290.98-12.30Q289.25-11.75 288.02-10.79Q286.80-9.83 286.15-8.55Q285.50-7.28 285.50-5.79L285.50-5.79Q285.50-3.92 286.58-2.67Q287.66-1.43 289.44-0.51Q291.22 0.40 293.47 1.09Q295.73 1.79 298.10 2.58Q300.48 3.37 302.74 4.33Q304.99 5.29 306.77 6.73Q308.54 8.17 309.62 10.26Q310.70 12.35 310.70 15.28L310.70 15.28Q310.70 18.64 309.50 21.49Q308.30 24.35 305.95 26.44Q303.60 28.53 300.19 29.73Q296.78 30.93 292.32 30.93L292.32 30.93Q287.23 30.93 283.10 29.27Q278.98 27.61 276.10 25.02L276.10 25.02L278.11 21.76Q278.50 21.13 279.02 20.80Q279.55 20.46 280.42 20.46L280.42 20.46Q281.28 20.46 282.24 21.13Q283.20 21.81 284.57 22.62Q285.94 23.44 287.88 24.11Q289.82 24.78 292.75 24.78L292.75 24.78Q295.25 24.78 297.12 24.13Q298.99 23.49 300.24 22.38Q301.49 21.28 302.09 19.84Q302.69 18.40 302.69 16.77L302.69 16.77Q302.69 14.75 301.61 13.43Q300.53 12.11 298.75 11.17Q296.98 10.24 294.70 9.54Q292.42 8.85 290.04 8.08Q287.66 7.31 285.38 6.33Q283.10 5.34 281.33 3.85Q279.55 2.37 278.47 0.18Q277.39-2.00 277.39-5.12L277.39-5.12Q277.39-7.91 278.54-10.47Q279.70-13.04 281.90-14.99Q284.11-16.93 287.33-18.08Q290.54-19.23 294.67-19.23L294.67-19.23Q299.47-19.23 303.29-17.72Q307.10-16.21 309.89-13.57L309.89-13.57ZM351.55-13.57L349.63-10.45Q349.06-9.39 347.86-9.39L347.86-9.39Q347.14-9.39 346.22-9.92Q345.31-10.45 343.99-11.10Q342.67-11.75 340.85-12.30Q339.02-12.85 336.53-12.85L336.53-12.85Q334.37-12.85 332.64-12.30Q330.91-11.75 329.69-10.79Q328.46-9.83 327.82-8.55Q327.17-7.28 327.17-5.79L327.17-5.79Q327.17-3.92 328.25-2.67Q329.33-1.43 331.10-0.51Q332.88 0.40 335.14 1.09Q337.39 1.79 339.77 2.58Q342.14 3.37 344.40 4.33Q346.66 5.29 348.43 6.73Q350.21 8.17 351.29 10.26Q352.37 12.35 352.37 15.28L352.37 15.28Q352.37 18.64 351.17 21.49Q349.97 24.35 347.62 26.44Q345.26 28.53 341.86 29.73Q338.45 30.93 333.98 30.93L333.98 30.93Q328.90 30.93 324.77 29.27Q320.64 27.61 317.76 25.02L317.76 25.02L319.78 21.76Q320.16 21.13 320.69 20.80Q321.22 20.46 322.08 20.46L322.08 20.46Q322.94 20.46 323.90 21.13Q324.86 21.81 326.23 22.62Q327.60 23.44 329.54 24.11Q331.49 24.78 334.42 24.78L334.42 24.78Q336.91 24.78 338.78 24.13Q340.66 23.49 341.90 22.38Q343.15 21.28 343.75 19.84Q344.35 18.40 344.35 16.77L344.35 16.77Q344.35 14.75 343.27 13.43Q342.19 12.11 340.42 11.17Q338.64 10.24 336.36 9.54Q334.08 8.85 331.70 8.08Q329.33 7.31 327.05 6.33Q324.77 5.34 322.99 3.85Q321.22 2.37 320.14 0.18Q319.06-2.00 319.06-5.12L319.06-5.12Q319.06-7.91 320.21-10.47Q321.36-13.04 323.57-14.99Q325.78-16.93 328.99-18.08Q332.21-19.23 336.34-19.23L336.34-19.23Q341.14-19.23 344.95-17.72Q348.77-16.21 351.55-13.57L351.55-13.57ZM364.42-18.47L372.96-18.47L372.96 30.16L364.42 30.16L364.42-18.47ZM374.88-33.73L374.88-33.73Q374.88-32.48 374.38-31.40Q373.87-30.32 373.03-29.48Q372.19-28.64 371.09-28.16Q369.98-27.68 368.74-27.68L368.74-27.68Q367.49-27.68 366.41-28.16Q365.33-28.64 364.49-29.48Q363.65-30.32 363.17-31.40Q362.69-32.48 362.69-33.73L362.69-33.73Q362.69-34.98 363.17-36.11Q363.65-37.23 364.49-38.07Q365.33-38.91 366.41-39.39Q367.49-39.87 368.74-39.87L368.74-39.87Q369.98-39.87 371.09-39.39Q372.19-38.91 373.03-38.07Q373.87-37.23 374.38-36.11Q374.88-34.98 374.88-33.73ZM407.71-19.23L407.71-19.23Q413.04-19.23 417.34-17.46Q421.63-15.68 424.63-12.42Q427.63-9.15 429.24-4.52Q430.85 0.11 430.85 5.82L430.85 5.82Q430.85 11.58 429.24 16.19Q427.63 20.80 424.63 24.06Q421.63 27.33 417.34 29.08Q413.04 30.83 407.71 30.83L407.71 30.83Q402.38 30.83 398.09 29.08Q393.79 27.33 390.77 24.06Q387.74 20.80 386.11 16.19Q384.48 11.58 384.48 5.82L384.48 5.82Q384.48 0.11 386.11-4.52Q387.74-9.15 390.77-12.42Q393.79-15.68 398.09-17.46Q402.38-19.23 407.71-19.23ZM407.71 24.16L407.71 24.16Q414.91 24.16 418.46 19.33Q422.02 14.51 422.02 5.87L422.02 5.87Q422.02-2.82 418.46-7.67Q414.91-12.51 407.71-12.51L407.71-12.51Q404.06-12.51 401.38-11.27Q398.69-10.02 396.89-7.67Q395.09-5.31 394.20-1.88Q393.31 1.55 393.31 5.87L393.31 5.87Q393.31 10.19 394.20 13.60Q395.09 17.01 396.89 19.33Q398.69 21.66 401.38 22.91Q404.06 24.16 407.71 24.16ZM449.95 30.16L441.41 30.16L441.41-18.47L446.50-18.47Q448.32-18.47 448.80-16.69L448.80-16.69L449.47-11.41Q452.64-14.91 456.55-17.07Q460.46-19.23 465.60-19.23L465.60-19.23Q469.58-19.23 472.63-17.91Q475.68-16.59 477.72-14.17Q479.76-11.75 480.82-8.34Q481.87-4.93 481.87-0.80L481.87-0.80L481.87 30.16L473.33 30.16L473.33-0.80Q473.33-6.32 470.81-9.37Q468.29-12.42 463.10-12.42L463.10-12.42Q459.31-12.42 456.02-10.59Q452.74-8.77 449.95-5.65L449.95-5.65L449.95 30.16Z"/></g>
</svg>