<svg xmlns="http://www.w3.org/2000/svg" xmlns:xlink="http://www.w3.org/1999/xlink" width="3400" zoomAndPan="magnify" viewBox="0 0 2550 3224.999865" height="4300" preserveAspectRatio="xMidYMid meet" version="1.0"><defs><g/><clipPath id="8175b4ad1f"><path d="M 0 2799.246094 L 2550 2799.246094 L 2550 3225 L 0 3225 Z M 0 2799.246094 " clip-rule="nonzero"/></clipPath><clipPath id="c8d190d023"><path d="M 401.613281 1430 L 878 1430 L 878 2028.363281 L 401.613281 2028.363281 Z M 401.613281 1430 " clip-rule="nonzero"/></clipPath><clipPath id="223d07b3cf"><path d="M 815 1265 L 1091 1265 L 1091 2028.363281 L 815 2028.363281 Z M 815 1265 " clip-rule="nonzero"/></clipPath><clipPath id="08999f843f"><path d="M 1768 1428 L 2245 1428 L 2245 2028.363281 L 1768 2028.363281 Z M 1768 1428 " clip-rule="nonzero"/></clipPath><clipPath id="764e95783e"><path d="M 1554 1265 L 1830 1265 L 1830 2028.363281 L 1554 2028.363281 Z M 1554 1265 " clip-rule="nonzero"/></clipPath></defs><path stroke-linecap="butt" transform="matrix(0.75, 0, 0, 0.75, 0.000116248, 0.00046875)" fill="none" stroke-linejoin="miter" d="M -0.000154997 -0.000625 L 3399.999911 -0.000625 L 3399.999911 4299.999459 L -0.000154997 4299.999459 L -0.000154997 -0.000625 " stroke="#ffffff" stroke-width="50" stroke-opacity="1" stroke-miterlimit="4"/><g clip-path="url(#8175b4ad1f)"><path fill="#ffffff" d="M -90 2799.246094 L 2602.265625 2799.246094 L 2602.265625 3224.988281 L -90 3224.988281 Z M -90 2799.246094 " fill-opacity="1" fill-rule="nonzero"/></g><g fill="#000000" fill-opacity="1"><g transform="translate(662.27947, 3077.001139)"><g><path d="M 70.671875 -157.703125 L 138.34375 0 L 119.78125 0 L 102.015625 -42.71875 L 37.734375 -42.71875 L 19.5625 0 L 1.203125 0 Z M 44.515625 -58.296875 L 95.421875 -58.296875 L 70.265625 -118.578125 Z M 27.15625 -150.515625 Z M 27.15625 -150.515625 "/></g></g></g><g fill="#000000" fill-opacity="1"><g transform="translate(801.819098, 3077.001139)"><g><path d="M 32.34375 -150.515625 L 32.34375 0 L 15.578125 0 L 15.578125 -150.515625 Z M 32.34375 -150.515625 "/></g></g></g><g fill="#000000" fill-opacity="1"><g transform="translate(849.530074, 3077.001139)"><g><path d="M 38.125 -150.515625 C 74.0625 -150.515625 92.03125 -136.675781 92.03125 -109 C 92.03125 -97.414062 88.664062 -87.863281 81.9375 -80.34375 C 75.21875 -72.820312 66.003906 -68.53125 54.296875 -67.46875 L 102.203125 0 L 81.640625 0 L 36.125 -66.078125 L 31.9375 -66.078125 L 31.9375 0 L 15.171875 0 L 15.171875 -150.515625 Z M 31.9375 -80.84375 L 39.328125 -80.84375 C 51.171875 -80.84375 60.117188 -83.035156 66.171875 -87.421875 C 72.234375 -91.816406 75.265625 -98.609375 75.265625 -107.796875 C 75.265625 -117.773438 72.300781 -124.796875 66.375 -128.859375 C 60.445312 -132.921875 51.894531 -134.953125 40.71875 -134.953125 L 31.9375 -134.953125 Z M 31.9375 -80.84375 "/></g></g></g><g fill="#000000" fill-opacity="1"><g transform="translate(1019.213445, 3077.001139)"><g><path d="M 58.296875 -77.453125 C 56.691406 -78.648438 55.191406 -79.644531 53.796875 -80.4375 C 52.398438 -81.238281 50.703125 -81.640625 48.703125 -81.640625 C 42.710938 -81.640625 38.15625 -78.976562 35.03125 -73.65625 C 31.90625 -68.332031 30.34375 -59.75 30.34375 -47.90625 L 30.34375 0 L 14.375 0 L 14.375 -93.828125 L 30.34375 -93.828125 L 30.34375 -83.640625 L 30.75 -83.640625 C 34.601562 -88.828125 38.023438 -92.253906 41.015625 -93.921875 C 44.015625 -95.585938 47.507812 -96.421875 51.5 -96.421875 C 53.894531 -96.421875 56.320312 -96.019531 58.78125 -95.21875 C 61.25 -94.414062 63.613281 -93.351562 65.875 -92.03125 Z M 58.296875 -77.453125 "/></g></g></g><g fill="#000000" fill-opacity="1"><g transform="translate(1086.088673, 3077.001139)"><g><path d="M 96.8125 -43.515625 L 23.15625 -43.515625 C 23.425781 -34.203125 26.488281 -26.648438 32.34375 -20.859375 C 38.195312 -15.066406 45.382812 -12.171875 53.90625 -12.171875 C 59.882812 -12.171875 65.171875 -13.703125 69.765625 -16.765625 C 74.359375 -19.828125 78.582031 -24.753906 82.4375 -31.546875 L 96.015625 -23.75 C 91.492188 -15.363281 85.539062 -8.875 78.15625 -4.28125 C 70.769531 0.300781 62.285156 2.59375 52.703125 2.59375 C 43.515625 2.59375 35.394531 0.398438 28.34375 -3.984375 C 21.289062 -8.378906 15.929688 -14.269531 12.265625 -21.65625 C 8.609375 -29.039062 6.78125 -37.0625 6.78125 -45.71875 C 6.78125 -55.300781 8.609375 -63.953125 12.265625 -71.671875 C 15.929688 -79.390625 21.222656 -85.441406 28.140625 -89.828125 C 35.066406 -94.222656 43.117188 -96.421875 52.296875 -96.421875 C 61.210938 -96.421875 69.097656 -94.253906 75.953125 -89.921875 C 82.804688 -85.597656 88.03125 -79.644531 91.625 -72.0625 C 95.21875 -64.476562 97.015625 -55.960938 97.015625 -46.515625 C 97.015625 -45.578125 96.945312 -44.578125 96.8125 -43.515625 Z M 80.046875 -57.09375 C 78.710938 -64.414062 75.453125 -70.335938 70.265625 -74.859375 C 65.078125 -79.378906 59.15625 -81.640625 52.5 -81.640625 C 45.976562 -81.640625 39.851562 -79.273438 34.125 -74.546875 C 28.40625 -69.828125 25.015625 -64.007812 23.953125 -57.09375 Z M 80.046875 -57.09375 "/></g></g></g><g fill="#000000" fill-opacity="1"><g transform="translate(1189.695345, 3077.001139)"><g><path d="M 83.84375 -80.453125 L 83.84375 -93.828125 L 99.8125 -93.828125 L 99.8125 3.390625 C 99.8125 19.097656 95.421875 31.175781 86.640625 39.625 C 77.859375 48.070312 66.945312 52.296875 53.90625 52.296875 C 40.59375 52.296875 29.644531 48.335938 21.0625 40.421875 C 12.476562 32.503906 8.050781 22.09375 7.78125 9.1875 L 23.75 9.1875 C 23.75 17.4375 26.507812 24.222656 32.03125 29.546875 C 37.5625 34.867188 44.851562 37.53125 53.90625 37.53125 C 63.75 37.53125 71.195312 34.46875 76.25 28.34375 C 81.3125 22.21875 83.84375 12.101562 83.84375 -2 L 83.84375 -12.96875 L 83.4375 -12.96875 C 79.71875 -8.1875 74.960938 -4.394531 69.171875 -1.59375 C 63.378906 1.195312 57.289062 2.59375 50.90625 2.59375 C 42.25 2.59375 34.523438 0.398438 27.734375 -3.984375 C 20.953125 -8.378906 15.664062 -14.335938 11.875 -21.859375 C 8.082031 -29.378906 6.1875 -37.597656 6.1875 -46.515625 C 6.1875 -55.691406 8.148438 -64.109375 12.078125 -71.765625 C 16.003906 -79.421875 21.425781 -85.441406 28.34375 -89.828125 C 35.269531 -94.222656 42.988281 -96.421875 51.5 -96.421875 C 58.019531 -96.421875 64.007812 -95.019531 69.46875 -92.21875 C 74.925781 -89.425781 79.582031 -85.503906 83.4375 -80.453125 Z M 53.09375 -81.640625 C 47.507812 -81.640625 42.390625 -80.175781 37.734375 -77.25 C 33.078125 -74.320312 29.382812 -70.226562 26.65625 -64.96875 C 23.925781 -59.71875 22.5625 -54.03125 22.5625 -47.90625 C 22.5625 -37.65625 25.421875 -29.132812 31.140625 -22.34375 C 36.859375 -15.5625 44.242188 -12.171875 53.296875 -12.171875 C 62.742188 -12.171875 70.328125 -15.5 76.046875 -22.15625 C 81.773438 -28.8125 84.640625 -37.328125 84.640625 -47.703125 C 84.640625 -57.691406 81.675781 -65.84375 75.75 -72.15625 C 69.832031 -78.476562 62.28125 -81.640625 53.09375 -81.640625 Z M 53.09375 -81.640625 "/></g></g></g><g fill="#000000" fill-opacity="1"><g transform="translate(1305.479302, 3077.001139)"><g><path d="M 34.140625 -93.828125 L 34.140625 0 L 18.171875 0 L 18.171875 -93.828125 Z M 14.765625 -129.5625 C 14.765625 -132.488281 15.929688 -135.046875 18.265625 -137.234375 C 20.597656 -139.429688 23.226562 -140.53125 26.15625 -140.53125 C 29.21875 -140.53125 31.878906 -139.429688 34.140625 -137.234375 C 36.398438 -135.046875 37.53125 -132.488281 37.53125 -129.5625 C 37.53125 -126.09375 36.398438 -123.257812 34.140625 -121.0625 C 31.878906 -118.875 29.21875 -117.78125 26.15625 -117.78125 C 23.09375 -117.78125 20.425781 -118.84375 18.15625 -120.96875 C 15.894531 -123.101562 14.765625 -125.96875 14.765625 -129.5625 Z M 14.765625 -129.5625 "/></g></g></g><g fill="#000000" fill-opacity="1"><g transform="translate(1357.781737, 3077.001139)"><g><path d="M 53.09375 -72.0625 C 51.632812 -75.125 49.769531 -77.484375 47.5 -79.140625 C 45.238281 -80.804688 42.847656 -81.640625 40.328125 -81.640625 C 37.398438 -81.640625 34.738281 -80.609375 32.34375 -78.546875 C 29.945312 -76.484375 28.75 -74.054688 28.75 -71.265625 C 28.75 -65.804688 33.972656 -61.179688 44.421875 -57.390625 C 54.867188 -53.597656 62.117188 -49.4375 66.171875 -44.90625 C 70.234375 -40.382812 72.265625 -34.734375 72.265625 -27.953125 C 72.265625 -22.753906 71.066406 -17.894531 68.671875 -13.375 C 66.273438 -8.851562 62.582031 -5.0625 57.59375 -2 C 52.601562 1.0625 46.914062 2.59375 40.53125 2.59375 C 32.8125 2.59375 26.019531 0.53125 20.15625 -3.59375 C 14.300781 -7.71875 10.046875 -13.570312 7.390625 -21.15625 L 21.5625 -27.15625 C 23.957031 -21.5625 26.648438 -17.664062 29.640625 -15.46875 C 32.640625 -13.269531 36.332031 -12.171875 40.71875 -12.171875 C 45.25 -12.171875 48.910156 -13.535156 51.703125 -16.265625 C 54.492188 -18.992188 55.890625 -22.421875 55.890625 -26.546875 C 55.890625 -30.003906 54.625 -33.03125 52.09375 -35.625 C 49.570312 -38.226562 44.945312 -40.859375 38.21875 -43.515625 C 31.5 -46.179688 26.28125 -48.84375 22.5625 -51.5 C 16.707031 -55.757812 13.710938 -61.882812 13.578125 -69.875 C 13.578125 -77.320312 16.238281 -83.609375 21.5625 -88.734375 C 26.882812 -93.859375 33.535156 -96.421875 41.515625 -96.421875 C 46.578125 -96.421875 51.4375 -94.820312 56.09375 -91.625 C 60.75 -88.4375 64.207031 -84.242188 66.46875 -79.046875 Z M 53.09375 -72.0625 "/></g></g></g><g fill="#000000" fill-opacity="1"><g transform="translate(1437.433106, 3077.001139)"><g><path d="M 31.9375 -127.5625 L 31.9375 -93.828125 L 48.703125 -93.828125 L 48.703125 -79.046875 L 31.9375 -79.046875 L 31.9375 0 L 15.96875 0 L 15.96875 -79.046875 L 6.1875 -79.046875 L 6.1875 -93.828125 L 15.96875 -93.828125 L 15.96875 -127.5625 Z M 31.9375 -127.5625 "/></g></g></g><g fill="#000000" fill-opacity="1"><g transform="translate(1485.343713, 3077.001139)"><g><path d="M 58.296875 -77.453125 C 56.691406 -78.648438 55.191406 -79.644531 53.796875 -80.4375 C 52.398438 -81.238281 50.703125 -81.640625 48.703125 -81.640625 C 42.710938 -81.640625 38.15625 -78.976562 35.03125 -73.65625 C 31.90625 -68.332031 30.34375 -59.75 30.34375 -47.90625 L 30.34375 0 L 14.375 0 L 14.375 -93.828125 L 30.34375 -93.828125 L 30.34375 -83.640625 L 30.75 -83.640625 C 34.601562 -88.828125 38.023438 -92.253906 41.015625 -93.921875 C 44.015625 -95.585938 47.507812 -96.421875 51.5 -96.421875 C 53.894531 -96.421875 56.320312 -96.019531 58.78125 -95.21875 C 61.25 -94.414062 63.613281 -93.351562 65.875 -92.03125 Z M 58.296875 -77.453125 "/></g></g></g><g fill="#000000" fill-opacity="1"><g transform="translate(1552.21894, 3077.001139)"><g><path d="M 84.84375 -80.453125 L 84.84375 -93.828125 L 100.8125 -93.828125 L 100.8125 0 L 84.84375 0 L 84.84375 -12.96875 L 84.4375 -12.96875 C 76.1875 -2.59375 65.410156 2.59375 52.109375 2.59375 C 39.054688 2.59375 28.304688 -2.195312 19.859375 -11.78125 C 11.410156 -21.363281 7.1875 -33.007812 7.1875 -46.71875 C 7.1875 -61.082031 11.441406 -72.957031 19.953125 -82.34375 C 28.472656 -91.726562 39.253906 -96.421875 52.296875 -96.421875 C 58.816406 -96.421875 64.835938 -95.019531 70.359375 -92.21875 C 75.890625 -89.425781 80.582031 -85.503906 84.4375 -80.453125 Z M 54.09375 -81.640625 C 45.582031 -81.640625 38.363281 -78.378906 32.4375 -71.859375 C 26.519531 -65.335938 23.5625 -57.351562 23.5625 -47.90625 C 23.5625 -37.789062 26.453125 -29.304688 32.234375 -22.453125 C 38.023438 -15.597656 45.378906 -12.171875 54.296875 -12.171875 C 63.742188 -12.171875 71.328125 -15.429688 77.046875 -21.953125 C 82.773438 -28.472656 85.640625 -37.054688 85.640625 -47.703125 C 85.640625 -57.421875 82.710938 -65.503906 76.859375 -71.953125 C 71.003906 -78.410156 63.414062 -81.640625 54.09375 -81.640625 Z M 54.09375 -81.640625 "/></g></g></g><g fill="#000000" fill-opacity="1"><g transform="translate(1667.404038, 3077.001139)"><g><path d="M 31.9375 -127.5625 L 31.9375 -93.828125 L 48.703125 -93.828125 L 48.703125 -79.046875 L 31.9375 -79.046875 L 31.9375 0 L 15.96875 0 L 15.96875 -79.046875 L 6.1875 -79.046875 L 6.1875 -93.828125 L 15.96875 -93.828125 L 15.96875 -127.5625 Z M 31.9375 -127.5625 "/></g></g></g><g fill="#000000" fill-opacity="1"><g transform="translate(1715.314646, 3077.001139)"><g><path d="M 34.140625 -93.828125 L 34.140625 0 L 18.171875 0 L 18.171875 -93.828125 Z M 14.765625 -129.5625 C 14.765625 -132.488281 15.929688 -135.046875 18.265625 -137.234375 C 20.597656 -139.429688 23.226562 -140.53125 26.15625 -140.53125 C 29.21875 -140.53125 31.878906 -139.429688 34.140625 -137.234375 C 36.398438 -135.046875 37.53125 -132.488281 37.53125 -129.5625 C 37.53125 -126.09375 36.398438 -123.257812 34.140625 -121.0625 C 31.878906 -118.875 29.21875 -117.78125 26.15625 -117.78125 C 23.09375 -117.78125 20.425781 -118.84375 18.15625 -120.96875 C 15.894531 -123.101562 14.765625 -125.96875 14.765625 -129.5625 Z M 14.765625 -129.5625 "/></g></g></g><g fill="#000000" fill-opacity="1"><g transform="translate(1767.617081, 3077.001139)"><g><path d="M 6.78125 -46.71875 C 6.78125 -55.632812 8.976562 -63.953125 13.375 -71.671875 C 17.769531 -79.390625 23.757812 -85.441406 31.34375 -89.828125 C 38.925781 -94.222656 47.175781 -96.421875 56.09375 -96.421875 C 65.007812 -96.421875 73.226562 -94.222656 80.75 -89.828125 C 88.269531 -85.441406 94.257812 -79.421875 98.71875 -71.765625 C 103.175781 -64.109375 105.40625 -55.757812 105.40625 -46.71875 C 105.40625 -37.800781 103.207031 -29.515625 98.8125 -21.859375 C 94.425781 -14.203125 88.4375 -8.210938 80.84375 -3.890625 C 73.257812 0.429688 65.007812 2.59375 56.09375 2.59375 C 47.175781 2.59375 38.890625 0.398438 31.234375 -3.984375 C 23.585938 -8.378906 17.597656 -14.398438 13.265625 -22.046875 C 8.941406 -29.703125 6.78125 -37.925781 6.78125 -46.71875 Z M 55.890625 -81.640625 C 46.441406 -81.640625 38.554688 -78.28125 32.234375 -71.5625 C 25.910156 -64.84375 22.75 -56.625 22.75 -46.90625 C 22.75 -39.71875 24.476562 -33.363281 27.9375 -27.84375 C 31.40625 -22.320312 35.632812 -18.328125 40.625 -15.859375 C 45.613281 -13.398438 50.769531 -12.171875 56.09375 -12.171875 C 62.21875 -12.171875 67.804688 -13.601562 72.859375 -16.46875 C 77.921875 -19.332031 81.945312 -23.457031 84.9375 -28.84375 C 87.9375 -34.238281 89.4375 -40.257812 89.4375 -46.90625 C 89.4375 -53.03125 88.070312 -58.753906 85.34375 -64.078125 C 82.613281 -69.398438 78.648438 -73.65625 73.453125 -76.84375 C 68.265625 -80.039062 62.410156 -81.640625 55.890625 -81.640625 Z M 55.890625 -81.640625 "/></g></g></g><g fill="#000000" fill-opacity="1"><g transform="translate(1879.807738, 3077.001139)"><g><path d="M 90.234375 0 L 74.265625 0 L 74.265625 -54.703125 C 74.265625 -64.148438 72.832031 -71 69.96875 -75.25 C 67.101562 -79.507812 61.945312 -81.640625 54.5 -81.640625 C 45.976562 -81.640625 39.953125 -78.710938 36.421875 -72.859375 C 32.898438 -67.003906 31.140625 -58.085938 31.140625 -46.109375 L 31.140625 0 L 15.171875 0 L 15.171875 -93.828125 L 31.140625 -93.828125 L 31.140625 -82.4375 L 31.546875 -82.4375 C 34.867188 -86.96875 38.691406 -90.429688 43.015625 -92.828125 C 47.335938 -95.222656 52.429688 -96.421875 58.296875 -96.421875 C 68.804688 -96.421875 76.753906 -93.191406 82.140625 -86.734375 C 87.535156 -80.285156 90.234375 -70.269531 90.234375 -56.6875 Z M 90.234375 0 "/></g></g></g><g clip-path="url(#c8d190d023)"><path fill="#ffffff" d="M 773.417969 1629.789062 L 794.921875 1615.519531 L 877.648438 1560.542969 L 848.867188 1546.808594 L 812.222656 1529.324219 L 832.453125 1494.121094 L 868.96875 1430.707031 C 705.460938 1516.035156 518.136719 1623.550781 481.289062 1644.523438 C 417.121094 1681 401.113281 1715.671875 401.113281 1800.054688 L 401.113281 1988.488281 C 401.113281 2010.566406 419.167969 2028.566406 441.191406 2028.566406 L 861.808594 2028.566406 L 778.992188 1654.988281 Z M 773.417969 1629.789062 " fill-opacity="1" fill-rule="nonzero"/></g><path fill="#ffffff" d="M 1322.8125 1471.875 C 1383.457031 1434.195312 1590.5 1299.230469 1603.347656 1204.929688 L 1603.347656 1043.324219 C 1653.339844 1006.769531 1683.523438 950.519531 1683.523438 865.175781 L 1683.523438 673.105469 C 1694.433594 666.425781 1725.003906 644.050781 1726.167969 601.496094 C 1738.851562 441.882812 1708.316406 416.980469 1674.238281 355.875 C 1640.140625 294.75 1608.421875 292.40625 1608.421875 292.40625 L 1714.203125 252.4375 C 1714.203125 252.4375 1667.277344 223.066406 1617.839844 205.433594 C 1568.363281 187.804688 1481.503906 185.441406 1387.464844 188.988281 C 1293.460938 192.511719 1170.050781 211.324219 1107.761719 247.746094 C 1045.476562 284.191406 1007.871094 347.640625 997.292969 379.355469 C 986.734375 411.089844 997.21875 445.648438 997.21875 445.648438 C 997.21875 445.648438 953.816406 428.71875 936.203125 461.617188 C 918.554688 494.535156 910.359375 590.882812 922.101562 644.953125 C 933.839844 699.027344 958.082031 702.941406 958.082031 702.941406 L 962.214844 702.828125 L 962.214844 865.175781 C 962.214844 951.386719 992.308594 1007.824219 1042.375 1044.152344 L 1042.375 1204.929688 C 1055.167969 1299.230469 1262.171875 1434.195312 1322.8125 1471.875 Z M 1322.8125 1471.875 " fill-opacity="1" fill-rule="nonzero"/><g clip-path="url(#223d07b3cf)"><path fill="#ffffff" d="M 1029.15625 1265.390625 L 1001.6875 1270.523438 L 930.59375 1399.066406 L 865.09375 1512.859375 L 953.6875 1555.191406 L 815.710938 1646.828125 L 900.316406 2028.566406 L 1090.722656 2028.566406 L 1008.351562 1361.292969 Z M 1029.15625 1265.390625 " fill-opacity="1" fill-rule="nonzero"/></g><g clip-path="url(#08999f843f)"><path fill="#ffffff" d="M 2164.429688 1644.523438 C 2127.175781 1623.347656 1941.808594 1513.929688 1776.457031 1428.289062 L 1813.191406 1494.101562 L 1833.425781 1529.308594 L 1796.78125 1546.789062 L 1768 1560.523438 L 1850.722656 1615.5 L 1872.230469 1629.773438 L 1866.65625 1654.972656 L 1783.839844 2028.546875 L 2204.453125 2028.546875 C 2226.476562 2028.546875 2244.53125 2010.546875 2244.53125 1988.46875 L 2244.53125 1800.039062 C 2244.550781 1715.671875 2228.546875 1680.984375 2164.429688 1644.523438 Z M 2164.429688 1644.523438 " fill-opacity="1" fill-rule="nonzero"/></g><path fill="#ffffff" d="M 1389.476562 1531.207031 L 1352.074219 1497.589844 L 1293.589844 1497.589844 L 1256.171875 1531.207031 C 1267.800781 1551.886719 1278.894531 1581 1277.308594 1615.558594 C 1274.078125 1685.636719 1189.472656 1736.882812 1191.796875 2027.402344 L 1453.851562 2027.402344 C 1456.195312 1736.902344 1371.605469 1685.636719 1368.355469 1615.558594 C 1366.75 1581 1377.847656 1551.886719 1389.476562 1531.207031 Z M 1389.476562 1531.207031 " fill-opacity="1" fill-rule="nonzero"/><g clip-path="url(#764e95783e)"><path fill="#ffffff" d="M 1691.960938 1555.191406 L 1780.589844 1512.859375 L 1713.707031 1396.480469 C 1713.6875 1396.480469 1713.6875 1396.425781 1713.632812 1396.425781 L 1712.285156 1394.007812 L 1711.898438 1393.269531 C 1711.898438 1393.269531 1711.898438 1393.269531 1711.933594 1393.269531 L 1643.960938 1270.523438 L 1616.507812 1265.40625 L 1637.332031 1361.292969 L 1554.941406 2028.585938 L 1745.332031 2028.585938 L 1829.957031 1646.828125 Z M 1673.167969 1728.410156 L 1673.167969 1775.207031 C 1673.167969 1779.085938 1670.046875 1782.222656 1666.132812 1782.222656 C 1662.257812 1782.222656 1659.117188 1779.085938 1659.117188 1775.207031 L 1659.117188 1676.203125 C 1659.117188 1672.324219 1662.257812 1669.1875 1666.132812 1669.1875 C 1670.046875 1669.1875 1673.167969 1672.324219 1673.167969 1676.203125 L 1673.167969 1679.359375 C 1697.976562 1691.78125 1718.378906 1670.40625 1750.589844 1683.273438 L 1750.589844 1732.304688 C 1718.414062 1719.398438 1697.960938 1740.796875 1673.167969 1728.410156 Z M 1673.167969 1728.410156 " fill-opacity="1" fill-rule="nonzero"/></g></svg>