<svg xmlns="http://www.w3.org/2000/svg" xmlns:xlink="http://www.w3.org/1999/xlink" width="1200" zoomAndPan="magnify" viewBox="0 0 900 525.000007" height="700" preserveAspectRatio="xMidYMid meet" version="1.0"><defs><g/><clipPath id="9f14e024bb"><path d="M 183.160156 20.601562 L 752.078125 20.601562 L 752.078125 510.167969 L 183.160156 510.167969 Z M 183.160156 20.601562 " clip-rule="nonzero"/></clipPath><clipPath id="102e6cfe3c"><path d="M 240 73.023438 L 664 73.023438 L 664 510.191406 L 240 510.191406 Z M 240 73.023438 " clip-rule="nonzero"/></clipPath></defs><g clip-path="url(#9f14e024bb)"><path stroke-linecap="butt" transform="matrix(0.748097, 0, 0, 0.748556, 183.162052, 20.602128)" fill="none" stroke-linejoin="miter" d="M -0.00253354 -0.000756076 L 760.484002 -0.000756076 L 760.484002 654.013427 L -0.00253354 654.013427 L -0.00253354 -0.000756076 " stroke="#ffffff" stroke-width="8" stroke-opacity="1" stroke-miterlimit="4"/></g><g fill="#082a71" fill-opacity="1"><g transform="translate(328.164455, 49.794937)"><g><path d="M 2.78125 0 L 2.78125 -21.375 L 11.90625 -21.375 C 13.21875 -21.375 14.328125 -21.164062 15.234375 -20.75 C 16.148438 -20.332031 16.84375 -19.738281 17.3125 -18.96875 C 17.78125 -18.207031 18.015625 -17.304688 18.015625 -16.265625 C 18.015625 -15.328125 17.785156 -14.492188 17.328125 -13.765625 C 16.867188 -13.046875 16.207031 -12.46875 15.34375 -12.03125 L 15.34375 -11.71875 C 16.6875 -11.375 17.722656 -10.738281 18.453125 -9.8125 C 19.191406 -8.882812 19.5625 -7.75 19.5625 -6.40625 C 19.5625 -4.351562 18.941406 -2.769531 17.703125 -1.65625 C 16.472656 -0.550781 14.644531 0 12.21875 0 Z M 11.015625 -12.84375 C 12.984375 -12.84375 13.96875 -13.734375 13.96875 -15.515625 C 13.96875 -16.421875 13.722656 -17.09375 13.234375 -17.53125 C 12.753906 -17.976562 12.015625 -18.203125 11.015625 -18.203125 L 7 -18.203125 L 7 -12.84375 Z M 11.796875 -3.34375 C 14.128906 -3.34375 15.296875 -4.398438 15.296875 -6.515625 C 15.296875 -8.640625 14.128906 -9.703125 11.796875 -9.703125 L 7 -9.703125 L 7 -3.34375 Z M 11.796875 -3.34375 "/></g></g><g transform="translate(349.071896, 49.794937)"><g><path d="M 11.65625 0.3125 C 9.695312 0.3125 7.96875 -0.0859375 6.46875 -0.890625 C 4.96875 -1.691406 3.796875 -2.910156 2.953125 -4.546875 C 2.109375 -6.191406 1.6875 -8.238281 1.6875 -10.6875 C 1.6875 -13.132812 2.109375 -15.175781 2.953125 -16.8125 C 3.796875 -18.457031 4.96875 -19.675781 6.46875 -20.46875 C 7.96875 -21.269531 9.695312 -21.671875 11.65625 -21.671875 C 13.613281 -21.671875 15.335938 -21.273438 16.828125 -20.484375 C 18.316406 -19.691406 19.484375 -18.472656 20.328125 -16.828125 C 21.171875 -15.179688 21.59375 -13.132812 21.59375 -10.6875 C 21.59375 -8.238281 21.171875 -6.191406 20.328125 -4.546875 C 19.484375 -2.898438 18.316406 -1.675781 16.828125 -0.875 C 15.335938 -0.0820312 13.613281 0.3125 11.65625 0.3125 Z M 11.65625 -3.359375 C 13.46875 -3.359375 14.847656 -3.941406 15.796875 -5.109375 C 16.753906 -6.273438 17.234375 -8.132812 17.234375 -10.6875 C 17.234375 -13.238281 16.753906 -15.097656 15.796875 -16.265625 C 14.847656 -17.441406 13.46875 -18.03125 11.65625 -18.03125 C 9.832031 -18.03125 8.4375 -17.441406 7.46875 -16.265625 C 6.507812 -15.097656 6.03125 -13.238281 6.03125 -10.6875 C 6.03125 -8.132812 6.507812 -6.273438 7.46875 -5.109375 C 8.4375 -3.941406 9.832031 -3.359375 11.65625 -3.359375 Z M 11.65625 -3.359375 "/></g></g><g transform="translate(372.362493, 49.794937)"><g><path d="M 6.65625 0 L 2.78125 0 L 2.78125 -21.375 L 8.296875 -21.375 L 13.71875 -5.65625 L 14.015625 -5.65625 L 19.390625 -21.375 L 24.796875 -21.375 L 24.796875 0 L 20.78125 0 L 20.78125 -14.125 L 20.421875 -14.171875 L 15.484375 0 L 11.953125 0 L 7.015625 -14.171875 L 6.65625 -14.125 Z M 6.65625 0 "/></g></g><g transform="translate(399.951544, 49.794937)"><g/></g><g transform="translate(407.013288, 49.794937)"><g><path d="M 9.46875 0.3125 C 7.988281 0.3125 6.671875 0.128906 5.515625 -0.234375 C 4.359375 -0.609375 3.394531 -1.09375 2.625 -1.6875 C 1.851562 -2.28125 1.265625 -2.929688 0.859375 -3.640625 L 3.1875 -6.46875 L 3.546875 -6.46875 C 4.191406 -5.519531 5.007812 -4.757812 6 -4.1875 C 6.988281 -3.625 8.144531 -3.34375 9.46875 -3.34375 C 10.601562 -3.34375 11.457031 -3.582031 12.03125 -4.0625 C 12.601562 -4.539062 12.890625 -5.195312 12.890625 -6.03125 C 12.890625 -6.539062 12.796875 -6.96875 12.609375 -7.3125 C 12.429688 -7.65625 12.125 -7.945312 11.6875 -8.1875 C 11.257812 -8.425781 10.679688 -8.632812 9.953125 -8.8125 L 7.203125 -9.4375 C 5.285156 -9.875 3.851562 -10.601562 2.90625 -11.625 C 1.96875 -12.644531 1.5 -13.96875 1.5 -15.59375 C 1.5 -16.800781 1.800781 -17.863281 2.40625 -18.78125 C 3.007812 -19.695312 3.890625 -20.40625 5.046875 -20.90625 C 6.203125 -21.414062 7.582031 -21.671875 9.1875 -21.671875 C 10.84375 -21.671875 12.253906 -21.453125 13.421875 -21.015625 C 14.597656 -20.585938 15.59375 -19.925781 16.40625 -19.03125 L 14.3125 -16.171875 L 13.953125 -16.171875 C 13.347656 -16.804688 12.65625 -17.28125 11.875 -17.59375 C 11.09375 -17.90625 10.195312 -18.0625 9.1875 -18.0625 C 8.03125 -18.0625 7.148438 -17.859375 6.546875 -17.453125 C 5.941406 -17.046875 5.640625 -16.484375 5.640625 -15.765625 C 5.640625 -15.085938 5.851562 -14.546875 6.28125 -14.140625 C 6.707031 -13.742188 7.441406 -13.4375 8.484375 -13.21875 L 11.28125 -12.625 C 13.363281 -12.1875 14.867188 -11.441406 15.796875 -10.390625 C 16.734375 -9.347656 17.203125 -7.984375 17.203125 -6.296875 C 17.203125 -4.960938 16.914062 -3.800781 16.34375 -2.8125 C 15.769531 -1.820312 14.898438 -1.050781 13.734375 -0.5 C 12.578125 0.0390625 11.15625 0.3125 9.46875 0.3125 Z M 9.46875 0.3125 "/></g></g><g transform="translate(425.376747, 49.794937)"><g><path d="M 7.375 0.3125 C 5.5625 0.3125 4.222656 -0.179688 3.359375 -1.171875 C 2.503906 -2.160156 2.078125 -3.582031 2.078125 -5.4375 L 2.078125 -16.125 L 6.125 -16.125 L 6.125 -5.953125 C 6.125 -4.960938 6.332031 -4.238281 6.75 -3.78125 C 7.175781 -3.332031 7.835938 -3.109375 8.734375 -3.109375 C 9.847656 -3.109375 10.71875 -3.476562 11.34375 -4.21875 C 11.96875 -4.957031 12.28125 -6.113281 12.28125 -7.6875 L 12.28125 -16.125 L 16.328125 -16.125 L 16.328125 0 L 12.4375 0 L 12.4375 -2.375 L 12.140625 -2.4375 C 11.617188 -1.507812 10.984375 -0.816406 10.234375 -0.359375 C 9.492188 0.0859375 8.539062 0.3125 7.375 0.3125 Z M 7.375 0.3125 "/></g></g><g transform="translate(444.032618, 49.794937)"><g><path d="M 11.265625 0.3125 C 9.210938 0.3125 7.6875 -0.457031 6.6875 -2 L 6.375 -1.9375 L 6.375 0 L 2.328125 0 L 2.328125 -22.59375 L 6.375 -22.59375 L 6.375 -14.21875 L 6.6875 -14.171875 C 7.238281 -14.929688 7.890625 -15.5 8.640625 -15.875 C 9.398438 -16.25 10.304688 -16.4375 11.359375 -16.4375 C 12.660156 -16.4375 13.796875 -16.128906 14.765625 -15.515625 C 15.742188 -14.898438 16.503906 -13.960938 17.046875 -12.703125 C 17.597656 -11.453125 17.875 -9.898438 17.875 -8.046875 C 17.875 -6.222656 17.59375 -4.679688 17.03125 -3.421875 C 16.46875 -2.171875 15.6875 -1.234375 14.6875 -0.609375 C 13.695312 0.00390625 12.554688 0.3125 11.265625 0.3125 Z M 10.046875 -3.125 C 11.234375 -3.125 12.140625 -3.519531 12.765625 -4.3125 C 13.390625 -5.113281 13.703125 -6.359375 13.703125 -8.046875 C 13.703125 -9.753906 13.390625 -11.003906 12.765625 -11.796875 C 12.140625 -12.597656 11.234375 -13 10.046875 -13 C 8.898438 -13 7.992188 -12.585938 7.328125 -11.765625 C 6.660156 -10.953125 6.328125 -9.710938 6.328125 -8.046875 C 6.328125 -6.390625 6.660156 -5.15625 7.328125 -4.34375 C 7.992188 -3.53125 8.898438 -3.125 10.046875 -3.125 Z M 10.046875 -3.125 "/></g></g><g transform="translate(463.346415, 49.794937)"><g><path d="M 2.328125 0 L 2.328125 -16.125 L 6.21875 -16.125 L 6.21875 -13.953125 L 6.515625 -13.90625 C 7.046875 -14.769531 7.660156 -15.40625 8.359375 -15.8125 C 9.066406 -16.226562 9.972656 -16.4375 11.078125 -16.4375 C 12.296875 -16.4375 13.273438 -16.191406 14.015625 -15.703125 C 14.753906 -15.222656 15.296875 -14.519531 15.640625 -13.59375 L 15.953125 -13.59375 C 16.441406 -14.5625 17.078125 -15.273438 17.859375 -15.734375 C 18.648438 -16.203125 19.628906 -16.4375 20.796875 -16.4375 C 24.140625 -16.4375 25.8125 -14.570312 25.8125 -10.84375 L 25.8125 0 L 21.765625 0 L 21.765625 -10.328125 C 21.765625 -11.273438 21.578125 -11.957031 21.203125 -12.375 C 20.835938 -12.800781 20.242188 -13.015625 19.421875 -13.015625 C 17.203125 -13.015625 16.09375 -11.523438 16.09375 -8.546875 L 16.09375 0 L 12.046875 0 L 12.046875 -10.328125 C 12.046875 -11.273438 11.859375 -11.957031 11.484375 -12.375 C 11.109375 -12.800781 10.507812 -13.015625 9.6875 -13.015625 C 8.644531 -13.015625 7.832031 -12.664062 7.25 -11.96875 C 6.664062 -11.269531 6.375 -10.160156 6.375 -8.640625 L 6.375 0 Z M 2.328125 0 "/></g></g><g transform="translate(491.242497, 49.794937)"><g><path d="M 4.34375 -18.046875 C 3.613281 -18.046875 3.019531 -18.269531 2.5625 -18.71875 C 2.101562 -19.164062 1.875 -19.738281 1.875 -20.4375 C 1.875 -21.125 2.101562 -21.6875 2.5625 -22.125 C 3.019531 -22.570312 3.613281 -22.796875 4.34375 -22.796875 C 4.832031 -22.796875 5.265625 -22.691406 5.640625 -22.484375 C 6.023438 -22.285156 6.320312 -22.007812 6.53125 -21.65625 C 6.738281 -21.300781 6.84375 -20.894531 6.84375 -20.4375 C 6.84375 -19.976562 6.738281 -19.566406 6.53125 -19.203125 C 6.320312 -18.847656 6.023438 -18.566406 5.640625 -18.359375 C 5.265625 -18.148438 4.832031 -18.046875 4.34375 -18.046875 Z M 2.328125 0 L 2.328125 -16.125 L 6.375 -16.125 L 6.375 0 Z M 2.328125 0 "/></g></g><g transform="translate(499.927127, 49.794937)"><g><path d="M 7.546875 0.3125 C 6.441406 0.3125 5.429688 0.179688 4.515625 -0.078125 C 3.597656 -0.335938 2.816406 -0.691406 2.171875 -1.140625 C 1.523438 -1.597656 1.046875 -2.117188 0.734375 -2.703125 L 2.984375 -5.125 L 3.28125 -5.125 C 3.820312 -4.40625 4.457031 -3.863281 5.1875 -3.5 C 5.914062 -3.144531 6.710938 -2.96875 7.578125 -2.96875 C 8.359375 -2.96875 8.945312 -3.109375 9.34375 -3.390625 C 9.75 -3.671875 9.953125 -4.078125 9.953125 -4.609375 C 9.953125 -5.015625 9.804688 -5.351562 9.515625 -5.625 C 9.234375 -5.90625 8.769531 -6.125 8.125 -6.28125 L 6 -6.796875 C 4.394531 -7.179688 3.222656 -7.765625 2.484375 -8.546875 C 1.753906 -9.328125 1.390625 -10.320312 1.390625 -11.53125 C 1.390625 -12.539062 1.644531 -13.414062 2.15625 -14.15625 C 2.664062 -14.894531 3.382812 -15.457031 4.3125 -15.84375 C 5.25 -16.238281 6.335938 -16.4375 7.578125 -16.4375 C 9.023438 -16.4375 10.222656 -16.222656 11.171875 -15.796875 C 12.128906 -15.378906 12.878906 -14.820312 13.421875 -14.125 L 11.25 -11.78125 L 10.96875 -11.78125 C 10.519531 -12.289062 10.015625 -12.660156 9.453125 -12.890625 C 8.890625 -13.128906 8.265625 -13.25 7.578125 -13.25 C 5.972656 -13.25 5.171875 -12.75 5.171875 -11.75 C 5.171875 -11.332031 5.316406 -10.988281 5.609375 -10.71875 C 5.910156 -10.457031 6.4375 -10.25 7.1875 -10.09375 L 9.1875 -9.640625 C 10.820312 -9.296875 12.015625 -8.734375 12.765625 -7.953125 C 13.523438 -7.179688 13.90625 -6.144531 13.90625 -4.84375 C 13.90625 -3.8125 13.648438 -2.90625 13.140625 -2.125 C 12.628906 -1.351562 11.894531 -0.753906 10.9375 -0.328125 C 9.988281 0.0976562 8.859375 0.3125 7.546875 0.3125 Z M 7.546875 0.3125 "/></g></g><g transform="translate(514.796265, 49.794937)"><g><path d="M 7.546875 0.3125 C 6.441406 0.3125 5.429688 0.179688 4.515625 -0.078125 C 3.597656 -0.335938 2.816406 -0.691406 2.171875 -1.140625 C 1.523438 -1.597656 1.046875 -2.117188 0.734375 -2.703125 L 2.984375 -5.125 L 3.28125 -5.125 C 3.820312 -4.40625 4.457031 -3.863281 5.1875 -3.5 C 5.914062 -3.144531 6.710938 -2.96875 7.578125 -2.96875 C 8.359375 -2.96875 8.945312 -3.109375 9.34375 -3.390625 C 9.75 -3.671875 9.953125 -4.078125 9.953125 -4.609375 C 9.953125 -5.015625 9.804688 -5.351562 9.515625 -5.625 C 9.234375 -5.90625 8.769531 -6.125 8.125 -6.28125 L 6 -6.796875 C 4.394531 -7.179688 3.222656 -7.765625 2.484375 -8.546875 C 1.753906 -9.328125 1.390625 -10.320312 1.390625 -11.53125 C 1.390625 -12.539062 1.644531 -13.414062 2.15625 -14.15625 C 2.664062 -14.894531 3.382812 -15.457031 4.3125 -15.84375 C 5.25 -16.238281 6.335938 -16.4375 7.578125 -16.4375 C 9.023438 -16.4375 10.222656 -16.222656 11.171875 -15.796875 C 12.128906 -15.378906 12.878906 -14.820312 13.421875 -14.125 L 11.25 -11.78125 L 10.96875 -11.78125 C 10.519531 -12.289062 10.015625 -12.660156 9.453125 -12.890625 C 8.890625 -13.128906 8.265625 -13.25 7.578125 -13.25 C 5.972656 -13.25 5.171875 -12.75 5.171875 -11.75 C 5.171875 -11.332031 5.316406 -10.988281 5.609375 -10.71875 C 5.910156 -10.457031 6.4375 -10.25 7.1875 -10.09375 L 9.1875 -9.640625 C 10.820312 -9.296875 12.015625 -8.734375 12.765625 -7.953125 C 13.523438 -7.179688 13.90625 -6.144531 13.90625 -4.84375 C 13.90625 -3.8125 13.648438 -2.90625 13.140625 -2.125 C 12.628906 -1.351562 11.894531 -0.753906 10.9375 -0.328125 C 9.988281 0.0976562 8.859375 0.3125 7.546875 0.3125 Z M 7.546875 0.3125 "/></g></g><g transform="translate(529.665403, 49.794937)"><g><path d="M 4.34375 -18.046875 C 3.613281 -18.046875 3.019531 -18.269531 2.5625 -18.71875 C 2.101562 -19.164062 1.875 -19.738281 1.875 -20.4375 C 1.875 -21.125 2.101562 -21.6875 2.5625 -22.125 C 3.019531 -22.570312 3.613281 -22.796875 4.34375 -22.796875 C 4.832031 -22.796875 5.265625 -22.691406 5.640625 -22.484375 C 6.023438 -22.285156 6.320312 -22.007812 6.53125 -21.65625 C 6.738281 -21.300781 6.84375 -20.894531 6.84375 -20.4375 C 6.84375 -19.976562 6.738281 -19.566406 6.53125 -19.203125 C 6.320312 -18.847656 6.023438 -18.566406 5.640625 -18.359375 C 5.265625 -18.148438 4.832031 -18.046875 4.34375 -18.046875 Z M 2.328125 0 L 2.328125 -16.125 L 6.375 -16.125 L 6.375 0 Z M 2.328125 0 "/></g></g><g transform="translate(538.350033, 49.794937)"><g><path d="M 9.375 0.3125 C 7.789062 0.3125 6.398438 -0.0078125 5.203125 -0.65625 C 4.015625 -1.3125 3.09375 -2.265625 2.4375 -3.515625 C 1.78125 -4.765625 1.453125 -6.273438 1.453125 -8.046875 C 1.453125 -9.828125 1.78125 -11.34375 2.4375 -12.59375 C 3.09375 -13.851562 4.015625 -14.804688 5.203125 -15.453125 C 6.398438 -16.109375 7.789062 -16.4375 9.375 -16.4375 C 10.945312 -16.4375 12.328125 -16.109375 13.515625 -15.453125 C 14.710938 -14.804688 15.644531 -13.851562 16.3125 -12.59375 C 16.976562 -11.34375 17.3125 -9.828125 17.3125 -8.046875 C 17.3125 -6.273438 16.976562 -4.765625 16.3125 -3.515625 C 15.644531 -2.265625 14.710938 -1.3125 13.515625 -0.65625 C 12.328125 -0.0078125 10.945312 0.3125 9.375 0.3125 Z M 9.375 -3.125 C 11.875 -3.125 13.125 -4.765625 13.125 -8.046875 C 13.125 -9.753906 12.800781 -11.003906 12.15625 -11.796875 C 11.519531 -12.597656 10.59375 -13 9.375 -13 C 6.863281 -13 5.609375 -11.347656 5.609375 -8.046875 C 5.609375 -4.765625 6.863281 -3.125 9.375 -3.125 Z M 9.375 -3.125 "/></g></g><g transform="translate(557.093627, 49.794937)"><g><path d="M 2.328125 0 L 2.328125 -16.125 L 6.21875 -16.125 L 6.21875 -13.75 L 6.515625 -13.6875 C 7.523438 -15.519531 9.15625 -16.4375 11.40625 -16.4375 C 13.257812 -16.4375 14.625 -15.925781 15.5 -14.90625 C 16.375 -13.894531 16.8125 -12.421875 16.8125 -10.484375 L 16.8125 0 L 12.765625 0 L 12.765625 -9.984375 C 12.765625 -11.054688 12.546875 -11.828125 12.109375 -12.296875 C 11.679688 -12.773438 11 -13.015625 10.0625 -13.015625 C 8.894531 -13.015625 7.988281 -12.640625 7.34375 -11.890625 C 6.695312 -11.140625 6.375 -9.957031 6.375 -8.34375 L 6.375 0 Z M 2.328125 0 "/></g></g></g><g clip-path="url(#102e6cfe3c)"><path fill="#082a71" d="M 502.953125 388.171875 L 393.832031 388.171875 C 393.3125 388.171875 392.796875 388.117188 392.285156 388.015625 C 391.773438 387.914062 391.28125 387.761719 390.800781 387.5625 C 390.320312 387.363281 389.863281 387.117188 389.429688 386.828125 C 388.996094 386.539062 388.597656 386.210938 388.230469 385.839844 C 387.863281 385.472656 387.535156 385.070312 387.246094 384.636719 C 386.957031 384.207031 386.710938 383.75 386.511719 383.265625 C 386.3125 382.785156 386.164062 382.289062 386.0625 381.78125 C 385.960938 381.269531 385.910156 380.753906 385.910156 380.234375 C 385.910156 379.710938 385.960938 379.195312 386.0625 378.6875 C 386.164062 378.175781 386.3125 377.679688 386.511719 377.199219 C 386.710938 376.71875 386.957031 376.261719 387.246094 375.828125 C 387.535156 375.394531 387.863281 374.992188 388.230469 374.625 C 388.597656 374.257812 388.996094 373.929688 389.429688 373.636719 C 389.863281 373.347656 390.320312 373.105469 390.800781 372.902344 C 391.28125 372.703125 391.773438 372.550781 392.285156 372.449219 C 392.796875 372.347656 393.3125 372.296875 393.832031 372.296875 L 502.953125 372.296875 C 503.472656 372.296875 503.988281 372.347656 504.5 372.449219 C 505.007812 372.550781 505.503906 372.703125 505.984375 372.902344 C 506.464844 373.105469 506.921875 373.347656 507.355469 373.636719 C 507.785156 373.929688 508.1875 374.257812 508.554688 374.625 C 508.921875 374.992188 509.25 375.394531 509.539062 375.828125 C 509.828125 376.261719 510.070312 376.71875 510.269531 377.199219 C 510.46875 377.679688 510.621094 378.175781 510.722656 378.6875 C 510.824219 379.195312 510.875 379.710938 510.875 380.234375 C 510.875 380.753906 510.824219 381.269531 510.722656 381.78125 C 510.621094 382.289062 510.46875 382.785156 510.269531 383.265625 C 510.070312 383.75 509.828125 384.207031 509.539062 384.636719 C 509.25 385.070312 508.921875 385.472656 508.554688 385.839844 C 508.1875 386.210938 507.785156 386.539062 507.355469 386.828125 C 506.921875 387.117188 506.464844 387.363281 505.984375 387.5625 C 505.503906 387.761719 505.007812 387.914062 504.5 388.015625 C 503.988281 388.117188 503.472656 388.171875 502.953125 388.171875 Z M 620.042969 328.027344 L 393.855469 328.027344 C 393.332031 328.027344 392.820312 328.082031 392.308594 328.183594 C 391.796875 328.285156 391.300781 328.4375 390.820312 328.636719 C 390.339844 328.835938 389.886719 329.082031 389.453125 329.371094 C 389.019531 329.660156 388.621094 329.992188 388.253906 330.359375 C 387.882812 330.726562 387.554688 331.128906 387.269531 331.5625 C 386.980469 331.992188 386.734375 332.449219 386.535156 332.933594 C 386.335938 333.414062 386.1875 333.910156 386.085938 334.417969 C 385.984375 334.929688 385.933594 335.445312 385.933594 335.964844 C 385.933594 336.488281 385.984375 337.003906 386.085938 337.511719 C 386.1875 338.023438 386.335938 338.519531 386.535156 339 C 386.734375 339.480469 386.980469 339.9375 387.269531 340.371094 C 387.554688 340.804688 387.882812 341.207031 388.253906 341.574219 C 388.621094 341.941406 389.019531 342.273438 389.453125 342.5625 C 389.886719 342.851562 390.339844 343.097656 390.820312 343.296875 C 391.300781 343.496094 391.796875 343.648438 392.308594 343.75 C 392.820312 343.851562 393.332031 343.902344 393.855469 343.90625 L 620.042969 343.90625 C 620.5625 343.902344 621.078125 343.851562 621.589844 343.75 C 622.097656 343.648438 622.59375 343.496094 623.074219 343.296875 C 623.554688 343.097656 624.011719 342.851562 624.445312 342.5625 C 624.878906 342.273438 625.277344 341.941406 625.644531 341.574219 C 626.011719 341.207031 626.339844 340.804688 626.628906 340.371094 C 626.917969 339.9375 627.164062 339.480469 627.363281 339 C 627.558594 338.519531 627.710938 338.023438 627.8125 337.511719 C 627.914062 337.003906 627.964844 336.488281 627.964844 335.964844 C 627.964844 335.445312 627.914062 334.929688 627.8125 334.417969 C 627.710938 333.910156 627.558594 333.414062 627.363281 332.933594 C 627.164062 332.449219 626.917969 331.992188 626.628906 331.5625 C 626.339844 331.128906 626.011719 330.726562 625.644531 330.359375 C 625.277344 329.992188 624.878906 329.660156 624.445312 329.371094 C 624.011719 329.082031 623.554688 328.835938 623.074219 328.636719 C 622.59375 328.4375 622.097656 328.285156 621.589844 328.183594 C 621.078125 328.082031 620.5625 328.027344 620.042969 328.027344 Z M 620.042969 285.109375 L 393.855469 285.109375 C 393.332031 285.109375 392.816406 285.160156 392.304688 285.261719 C 391.792969 285.363281 391.296875 285.515625 390.816406 285.714844 C 390.335938 285.914062 389.878906 286.160156 389.445312 286.449219 C 389.011719 286.738281 388.609375 287.066406 388.242188 287.4375 C 387.875 287.804688 387.542969 288.207031 387.253906 288.640625 C 386.964844 289.074219 386.722656 289.53125 386.523438 290.011719 C 386.324219 290.492188 386.171875 290.988281 386.070312 291.5 C 385.96875 292.011719 385.917969 292.527344 385.917969 293.050781 C 385.917969 293.570312 385.96875 294.085938 386.070312 294.597656 C 386.171875 295.109375 386.324219 295.605469 386.523438 296.085938 C 386.722656 296.570312 386.964844 297.027344 387.253906 297.460938 C 387.542969 297.894531 387.875 298.292969 388.242188 298.664062 C 388.609375 299.03125 389.011719 299.359375 389.445312 299.648438 C 389.878906 299.9375 390.335938 300.183594 390.816406 300.382812 C 391.296875 300.582031 391.792969 300.734375 392.304688 300.835938 C 392.816406 300.9375 393.332031 300.988281 393.855469 300.988281 L 620.042969 300.988281 C 620.566406 300.988281 621.082031 300.9375 621.59375 300.835938 C 622.105469 300.734375 622.601562 300.582031 623.085938 300.382812 C 623.566406 300.183594 624.023438 299.9375 624.457031 299.648438 C 624.890625 299.359375 625.292969 299.027344 625.664062 298.660156 C 626.03125 298.289062 626.363281 297.886719 626.652344 297.453125 C 626.941406 297.019531 627.1875 296.5625 627.386719 296.078125 C 627.585938 295.597656 627.734375 295.101562 627.839844 294.589844 C 627.941406 294.078125 627.992188 293.558594 627.992188 293.039062 C 627.992188 292.515625 627.941406 292 627.839844 291.488281 C 627.734375 290.976562 627.585938 290.476562 627.386719 289.996094 C 627.1875 289.511719 626.941406 289.054688 626.652344 288.621094 C 626.363281 288.1875 626.03125 287.785156 625.664062 287.417969 C 625.292969 287.046875 624.890625 286.71875 624.457031 286.429688 C 624.023438 286.136719 623.566406 285.894531 623.085938 285.695312 C 622.601562 285.492188 622.105469 285.34375 621.59375 285.242188 C 621.082031 285.140625 620.566406 285.089844 620.042969 285.089844 Z M 663.546875 81.046875 L 663.546875 462.863281 C 663.542969 464.410156 663.460938 465.953125 663.304688 467.492188 C 663.148438 469.03125 662.917969 470.558594 662.613281 472.074219 C 662.308594 473.589844 661.929688 475.085938 661.476562 476.566406 C 661.023438 478.042969 660.5 479.496094 659.90625 480.925781 C 659.3125 482.351562 658.652344 483.75 657.921875 485.109375 C 657.191406 486.472656 656.394531 487.796875 655.535156 489.082031 C 654.675781 490.367188 653.753906 491.609375 652.773438 492.804688 C 651.792969 494 650.753906 495.140625 649.660156 496.234375 C 648.566406 497.328125 647.421875 498.367188 646.230469 499.347656 C 645.035156 500.332031 643.792969 501.25 642.507812 502.109375 C 641.226562 502.972656 639.902344 503.765625 638.539062 504.496094 C 637.175781 505.226562 635.78125 505.890625 634.351562 506.484375 C 632.925781 507.078125 631.472656 507.601562 629.996094 508.054688 C 628.515625 508.507812 627.019531 508.886719 625.503906 509.191406 C 623.988281 509.496094 622.460938 509.726562 620.921875 509.882812 C 619.382812 510.039062 617.84375 510.121094 616.296875 510.125 L 287.546875 510.125 C 286 510.117188 284.457031 510.039062 282.917969 509.882812 C 281.382812 509.726562 279.855469 509.496094 278.339844 509.1875 C 276.824219 508.882812 275.328125 508.503906 273.847656 508.050781 C 272.371094 507.597656 270.917969 507.078125 269.488281 506.480469 C 268.0625 505.886719 266.667969 505.226562 265.304688 504.496094 C 263.941406 503.761719 262.621094 502.96875 261.335938 502.109375 C 260.050781 501.246094 258.808594 500.328125 257.617188 499.34375 C 256.421875 498.363281 255.277344 497.324219 254.183594 496.234375 C 253.089844 495.140625 252.054688 493.996094 251.074219 492.800781 C 250.089844 491.605469 249.171875 490.367188 248.308594 489.082031 C 247.449219 487.796875 246.65625 486.472656 245.925781 485.109375 C 245.195312 483.746094 244.53125 482.351562 243.9375 480.921875 C 243.34375 479.496094 242.820312 478.042969 242.367188 476.5625 C 241.914062 475.085938 241.535156 473.589844 241.230469 472.074219 C 240.925781 470.554688 240.695312 469.03125 240.539062 467.492188 C 240.382812 465.953125 240.300781 464.410156 240.296875 462.863281 L 240.296875 423.625 C 240.292969 423.097656 240.34375 422.574219 240.445312 422.054688 C 240.546875 421.539062 240.699219 421.035156 240.898438 420.546875 C 241.101562 420.054688 241.347656 419.589844 241.640625 419.152344 C 241.933594 418.710938 242.265625 418.304688 242.636719 417.929688 C 243.007812 417.554688 243.414062 417.21875 243.851562 416.921875 C 244.289062 416.628906 244.753906 416.378906 245.238281 416.171875 C 245.726562 415.96875 246.230469 415.8125 246.746094 415.707031 C 247.265625 415.601562 247.789062 415.550781 248.316406 415.546875 L 347.4375 415.546875 L 347.4375 83.066406 C 347.414062 82.445312 347.46875 81.828125 347.605469 81.21875 C 347.742188 80.609375 347.957031 80.03125 348.242188 79.476562 C 348.53125 78.925781 348.886719 78.417969 349.304688 77.957031 C 349.722656 77.496094 350.195312 77.09375 350.71875 76.757812 C 351.058594 76.234375 351.457031 75.765625 351.917969 75.347656 C 352.378906 74.929688 352.886719 74.578125 353.4375 74.292969 C 353.988281 74.003906 354.570312 73.792969 355.175781 73.660156 C 355.78125 73.523438 356.398438 73.464844 357.019531 73.492188 L 471.230469 73.492188 L 471.230469 73.023438 L 655.523438 73.023438 C 656.050781 73.027344 656.574219 73.078125 657.089844 73.179688 C 657.605469 73.285156 658.105469 73.4375 658.59375 73.636719 C 659.078125 73.839844 659.542969 74.085938 659.980469 74.378906 C 660.417969 74.671875 660.824219 75.003906 661.195312 75.375 C 661.566406 75.75 661.898438 76.15625 662.191406 76.59375 C 662.484375 77.03125 662.730469 77.492188 662.933594 77.980469 C 663.136719 78.464844 663.289062 78.96875 663.390625 79.484375 C 663.492188 80 663.546875 80.523438 663.546875 81.046875 Z M 488.230469 494.019531 C 486.347656 491.886719 484.667969 489.601562 483.199219 487.160156 C 481.734375 484.722656 480.496094 482.171875 479.492188 479.507812 C 478.484375 476.84375 477.726562 474.109375 477.21875 471.308594 C 476.710938 468.507812 476.457031 465.683594 476.460938 462.835938 L 476.460938 431.648438 L 256.394531 431.648438 L 256.394531 462.863281 C 256.398438 463.882812 256.449219 464.902344 256.550781 465.917969 C 256.652344 466.933594 256.804688 467.941406 257.007812 468.941406 C 257.207031 469.945312 257.457031 470.933594 257.753906 471.910156 C 258.050781 472.886719 258.394531 473.84375 258.789062 474.785156 C 259.179688 475.730469 259.617188 476.652344 260.097656 477.550781 C 260.578125 478.449219 261.105469 479.324219 261.671875 480.171875 C 262.238281 481.019531 262.847656 481.839844 263.496094 482.628906 C 264.140625 483.417969 264.828125 484.171875 265.546875 484.894531 C 266.269531 485.617188 267.023438 486.300781 267.8125 486.949219 C 268.601562 487.597656 269.421875 488.203125 270.269531 488.769531 C 271.117188 489.339844 271.992188 489.863281 272.890625 490.34375 C 273.789062 490.828125 274.710938 491.265625 275.652344 491.65625 C 276.597656 492.046875 277.554688 492.394531 278.53125 492.691406 C 279.507812 492.988281 280.496094 493.238281 281.496094 493.4375 C 282.496094 493.640625 283.503906 493.789062 284.519531 493.894531 C 285.535156 493.996094 286.554688 494.046875 287.574219 494.050781 Z M 647.445312 89.128906 L 521.28125 89.128906 C 520.628906 89.285156 519.96875 89.363281 519.300781 89.367188 L 363.308594 89.367188 L 363.308594 413.074219 L 364.445312 413.074219 L 364.445312 415.546875 L 484.484375 415.546875 C 485.011719 415.546875 485.539062 415.597656 486.058594 415.703125 C 486.578125 415.808594 487.082031 415.960938 487.574219 416.164062 C 488.0625 416.367188 488.527344 416.617188 488.96875 416.910156 C 489.410156 417.203125 489.820312 417.539062 490.191406 417.914062 C 490.566406 418.289062 490.902344 418.699219 491.199219 419.140625 C 491.492188 419.578125 491.742188 420.046875 491.945312 420.535156 C 492.148438 421.027344 492.300781 421.53125 492.40625 422.050781 C 492.507812 422.570312 492.5625 423.097656 492.5625 423.625 L 492.5625 462.863281 C 492.5625 463.882812 492.613281 464.902344 492.714844 465.917969 C 492.816406 466.933594 492.964844 467.941406 493.164062 468.945312 C 493.363281 469.945312 493.613281 470.933594 493.910156 471.910156 C 494.207031 472.886719 494.550781 473.847656 494.941406 474.789062 C 495.332031 475.730469 495.769531 476.652344 496.25 477.554688 C 496.734375 478.453125 497.257812 479.328125 497.824219 480.175781 C 498.394531 481.023438 499 481.84375 499.648438 482.632812 C 500.296875 483.421875 500.980469 484.175781 501.703125 484.898438 C 502.425781 485.617188 503.179688 486.304688 503.96875 486.949219 C 504.757812 487.597656 505.578125 488.203125 506.425781 488.773438 C 507.277344 489.339844 508.148438 489.863281 509.050781 490.34375 C 509.949219 490.824219 510.871094 491.257812 511.816406 491.648438 C 512.757812 492.039062 513.71875 492.382812 514.695312 492.679688 C 515.671875 492.976562 516.660156 493.222656 517.660156 493.421875 C 518.660156 493.621094 519.671875 493.769531 520.6875 493.871094 C 521.703125 493.972656 522.71875 494.019531 523.738281 494.019531 L 616.296875 494.019531 C 617.316406 494.019531 618.335938 493.972656 619.351562 493.871094 C 620.367188 493.769531 621.378906 493.621094 622.378906 493.421875 C 623.378906 493.222656 624.371094 492.976562 625.347656 492.679688 C 626.324219 492.382812 627.285156 492.039062 628.226562 491.648438 C 629.171875 491.257812 630.09375 490.820312 630.992188 490.339844 C 631.894531 489.859375 632.769531 489.332031 633.617188 488.765625 C 634.46875 488.199219 635.285156 487.589844 636.074219 486.941406 C 636.863281 486.292969 637.621094 485.609375 638.34375 484.886719 C 639.066406 484.164062 639.75 483.410156 640.398438 482.621094 C 641.046875 481.832031 641.652344 481.011719 642.21875 480.160156 C 642.789062 479.3125 643.3125 478.4375 643.792969 477.535156 C 644.273438 476.636719 644.710938 475.714844 645.101562 474.769531 C 645.492188 473.828125 645.835938 472.867188 646.132812 471.886719 C 646.429688 470.910156 646.675781 469.921875 646.875 468.917969 C 647.074219 467.917969 647.226562 466.910156 647.324219 465.890625 C 647.425781 464.875 647.476562 463.855469 647.476562 462.835938 Z M 513.234375 124.46875 C 513.234375 123.953125 513.183594 123.445312 513.085938 122.9375 C 512.984375 122.433594 512.835938 121.941406 512.636719 121.464844 C 512.441406 120.988281 512.199219 120.535156 511.914062 120.109375 C 511.625 119.679688 511.300781 119.28125 510.9375 118.917969 C 510.570312 118.554688 510.175781 118.226562 509.746094 117.941406 C 509.316406 117.652344 508.863281 117.414062 508.386719 117.214844 C 507.914062 117.019531 507.421875 116.867188 506.914062 116.769531 C 506.410156 116.667969 505.898438 116.617188 505.382812 116.617188 C 504.867188 116.617188 504.359375 116.667969 503.851562 116.769531 C 503.347656 116.867188 502.855469 117.019531 502.378906 117.214844 C 501.902344 117.414062 501.449219 117.652344 501.023438 117.941406 C 500.59375 118.226562 500.195312 118.554688 499.832031 118.917969 C 499.46875 119.28125 499.140625 119.679688 498.855469 120.109375 C 498.570312 120.535156 498.328125 120.988281 498.128906 121.464844 C 497.933594 121.941406 497.785156 122.433594 497.683594 122.9375 C 497.582031 123.445312 497.53125 123.953125 497.53125 124.46875 L 497.53125 129.097656 C 496.230469 129.3125 494.957031 129.636719 493.714844 130.074219 C 492.472656 130.511719 491.273438 131.058594 490.125 131.707031 C 488.980469 132.355469 487.894531 133.097656 486.878906 133.9375 C 485.863281 134.777344 484.925781 135.699219 484.070312 136.703125 C 483.214844 137.707031 482.457031 138.78125 481.789062 139.917969 C 481.125 141.058594 480.5625 142.246094 480.105469 143.480469 C 479.648438 144.71875 479.300781 145.988281 479.066406 147.285156 C 478.835938 148.582031 478.714844 149.890625 478.710938 151.210938 C 478.714844 152.636719 478.851562 154.050781 479.125 155.449219 C 479.394531 156.847656 479.796875 158.210938 480.324219 159.535156 C 480.855469 160.855469 481.503906 162.121094 482.273438 163.320312 C 483.042969 164.519531 483.917969 165.636719 484.898438 166.671875 L 485.289062 167.058594 C 486.851562 168.636719 488.609375 169.957031 490.554688 171.027344 C 493.878906 172.800781 497.421875 173.695312 501.1875 173.714844 L 509.566406 173.714844 C 510.515625 173.71875 511.417969 173.914062 512.28125 174.296875 C 513.144531 174.683594 513.894531 175.230469 514.527344 175.933594 C 514.8125 176.226562 515.066406 176.546875 515.289062 176.890625 C 515.59375 177.398438 515.828125 177.941406 515.992188 178.511719 C 516.15625 179.082031 516.246094 179.664062 516.253906 180.261719 C 516.261719 180.855469 516.195312 181.4375 516.050781 182.015625 C 515.902344 182.59375 515.6875 183.140625 515.394531 183.65625 C 515.105469 184.175781 514.75 184.648438 514.335938 185.074219 C 513.921875 185.496094 513.457031 185.859375 512.945312 186.164062 C 512.433594 186.464844 511.890625 186.695312 511.316406 186.855469 C 510.746094 187.011719 510.160156 187.09375 509.566406 187.097656 L 501.179688 187.097656 C 500.289062 187.085938 499.433594 186.90625 498.613281 186.5625 C 497.796875 186.21875 497.070312 185.734375 496.4375 185.105469 C 495.816406 184.480469 495.335938 183.753906 495.003906 182.933594 C 494.671875 182.113281 494.507812 181.261719 494.515625 180.378906 C 494.476562 179.886719 494.386719 179.402344 494.257812 178.929688 C 494.125 178.453125 493.949219 177.996094 493.734375 177.550781 C 493.515625 177.109375 493.261719 176.691406 492.964844 176.296875 C 492.671875 175.902344 492.339844 175.535156 491.976562 175.203125 C 491.617188 174.871094 491.226562 174.570312 490.804688 174.3125 C 490.386719 174.050781 489.949219 173.832031 489.488281 173.652344 C 489.03125 173.472656 488.558594 173.335938 488.074219 173.246094 C 487.589844 173.15625 487.101562 173.109375 486.609375 173.109375 C 486.117188 173.109375 485.628906 173.15625 485.144531 173.246094 C 484.660156 173.335938 484.1875 173.472656 483.726562 173.652344 C 483.269531 173.832031 482.828125 174.050781 482.410156 174.3125 C 481.992188 174.570312 481.601562 174.871094 481.238281 175.203125 C 480.875 175.535156 480.546875 175.902344 480.25 176.296875 C 479.957031 176.691406 479.699219 177.109375 479.484375 177.550781 C 479.265625 177.996094 479.09375 178.453125 478.960938 178.929688 C 478.828125 179.402344 478.742188 179.886719 478.699219 180.378906 C 478.699219 181.855469 478.84375 183.320312 479.136719 184.773438 C 479.425781 186.222656 479.855469 187.628906 480.421875 188.996094 C 480.992188 190.359375 481.691406 191.65625 482.515625 192.882812 C 483.34375 194.109375 484.28125 195.242188 485.332031 196.28125 C 486.882812 197.851562 488.636719 199.148438 490.59375 200.167969 C 492.773438 201.34375 495.082031 202.136719 497.519531 202.554688 L 497.519531 207.199219 C 497.519531 207.714844 497.570312 208.222656 497.671875 208.730469 C 497.773438 209.234375 497.921875 209.726562 498.117188 210.203125 C 498.316406 210.679688 498.558594 211.132812 498.84375 211.5625 C 499.132812 211.988281 499.457031 212.386719 499.820312 212.75 C 500.183594 213.117188 500.582031 213.441406 501.011719 213.726562 C 501.4375 214.015625 501.890625 214.253906 502.367188 214.453125 C 502.84375 214.648438 503.335938 214.800781 503.839844 214.898438 C 504.347656 215 504.855469 215.050781 505.371094 215.050781 C 505.886719 215.050781 506.398438 215 506.90625 214.898438 C 507.410156 214.800781 507.902344 214.648438 508.378906 214.453125 C 508.855469 214.253906 509.304688 214.015625 509.734375 213.726562 C 510.164062 213.441406 510.558594 213.117188 510.925781 212.75 C 511.289062 212.386719 511.613281 211.988281 511.902344 211.5625 C 512.1875 211.132812 512.429688 210.679688 512.625 210.203125 C 512.824219 209.726562 512.972656 209.234375 513.074219 208.730469 C 513.175781 208.222656 513.222656 207.714844 513.222656 207.199219 L 513.222656 202.554688 C 515.542969 202.171875 517.746094 201.445312 519.835938 200.375 C 521.925781 199.304688 523.804688 197.941406 525.46875 196.28125 C 526.574219 195.148438 527.558594 193.914062 528.417969 192.578125 C 529.597656 190.761719 530.492188 188.816406 531.113281 186.742188 C 531.730469 184.664062 532.039062 182.542969 532.042969 180.378906 C 532.0625 178.667969 531.859375 176.980469 531.425781 175.324219 C 530.992188 173.394531 530.308594 171.554688 529.371094 169.808594 C 528.4375 168.0625 527.285156 166.472656 525.917969 165.039062 L 525.46875 164.53125 C 524.597656 163.648438 523.652344 162.855469 522.632812 162.148438 C 520.726562 160.78125 518.65625 159.738281 516.421875 159.023438 C 514.1875 158.304688 511.898438 157.949219 509.550781 157.953125 L 501.105469 157.953125 C 500.183594 157.929688 499.300781 157.734375 498.457031 157.367188 C 497.609375 157 496.867188 156.484375 496.222656 155.828125 C 495.652344 155.195312 495.214844 154.484375 494.910156 153.695312 C 494.601562 152.902344 494.445312 152.082031 494.441406 151.234375 C 494.453125 149.960938 494.792969 148.78125 495.464844 147.699219 C 495.722656 147.25 496.042969 146.851562 496.425781 146.5 C 497.050781 145.882812 497.765625 145.40625 498.574219 145.074219 C 499.386719 144.738281 500.226562 144.574219 501.105469 144.570312 L 509.566406 144.570312 C 510.445312 144.574219 511.285156 144.742188 512.097656 145.074219 C 512.90625 145.40625 513.621094 145.882812 514.246094 146.5 C 514.96875 147.222656 515.496094 148.070312 515.820312 149.039062 C 516.101562 149.742188 516.238281 150.476562 516.230469 151.234375 C 516.269531 151.726562 516.355469 152.207031 516.488281 152.683594 C 516.621094 153.15625 516.792969 153.617188 517.011719 154.058594 C 517.230469 154.503906 517.484375 154.921875 517.78125 155.316406 C 518.074219 155.710938 518.402344 156.074219 518.765625 156.410156 C 519.128906 156.742188 519.519531 157.039062 519.9375 157.300781 C 520.355469 157.5625 520.796875 157.78125 521.253906 157.960938 C 521.714844 158.140625 522.1875 158.273438 522.671875 158.363281 C 523.15625 158.457031 523.644531 158.5 524.136719 158.5 C 524.628906 158.5 525.117188 158.457031 525.601562 158.363281 C 526.085938 158.273438 526.558594 158.140625 527.019531 157.960938 C 527.476562 157.78125 527.917969 157.5625 528.335938 157.300781 C 528.753906 157.039062 529.144531 156.742188 529.507812 156.410156 C 529.871094 156.074219 530.199219 155.710938 530.492188 155.316406 C 530.789062 154.921875 531.042969 154.503906 531.261719 154.058594 C 531.480469 153.617188 531.652344 153.15625 531.785156 152.683594 C 531.917969 152.207031 532.003906 151.726562 532.042969 151.234375 C 532.058594 150.117188 531.972656 149.007812 531.789062 147.90625 C 531.425781 145.535156 530.703125 143.28125 529.617188 141.140625 C 528.53125 139.003906 527.140625 137.089844 525.441406 135.398438 C 525.246094 135.191406 525.039062 135.003906 524.816406 134.828125 C 523.210938 133.332031 521.425781 132.09375 519.457031 131.121094 C 517.484375 130.148438 515.417969 129.480469 513.253906 129.113281 Z M 393.832031 260.371094 L 620.019531 260.371094 C 620.542969 260.371094 621.058594 260.320312 621.570312 260.21875 C 622.078125 260.117188 622.574219 259.96875 623.058594 259.769531 C 623.539062 259.570312 623.996094 259.324219 624.429688 259.035156 C 624.863281 258.746094 625.265625 258.414062 625.632812 258.046875 C 626 257.679688 626.328125 257.277344 626.621094 256.84375 C 626.910156 256.410156 627.152344 255.953125 627.351562 255.472656 C 627.550781 254.988281 627.703125 254.492188 627.804688 253.984375 C 627.90625 253.472656 627.957031 252.957031 627.957031 252.433594 C 627.957031 251.914062 627.90625 251.398438 627.804688 250.886719 C 627.703125 250.375 627.550781 249.878906 627.351562 249.394531 C 627.152344 248.914062 626.910156 248.457031 626.621094 248.023438 C 626.328125 247.589844 626 247.1875 625.632812 246.820312 C 625.265625 246.453125 624.863281 246.125 624.429688 245.832031 C 623.996094 245.542969 623.539062 245.300781 623.058594 245.101562 C 622.574219 244.902344 622.078125 244.75 621.570312 244.648438 C 621.058594 244.546875 620.542969 244.496094 620.019531 244.496094 L 393.832031 244.496094 C 393.308594 244.496094 392.792969 244.546875 392.285156 244.648438 C 391.773438 244.75 391.277344 244.902344 390.792969 245.101562 C 390.3125 245.300781 389.855469 245.542969 389.421875 245.832031 C 388.988281 246.125 388.589844 246.453125 388.21875 246.820312 C 387.851562 247.1875 387.523438 247.589844 387.234375 248.023438 C 386.941406 248.457031 386.699219 248.914062 386.5 249.394531 C 386.300781 249.878906 386.148438 250.375 386.046875 250.886719 C 385.945312 251.398438 385.894531 251.914062 385.894531 252.433594 C 385.894531 252.957031 385.945312 253.472656 386.046875 253.984375 C 386.148438 254.492188 386.300781 254.988281 386.5 255.472656 C 386.699219 255.953125 386.941406 256.410156 387.234375 256.84375 C 387.523438 257.277344 387.851562 257.679688 388.21875 258.046875 C 388.589844 258.414062 388.988281 258.746094 389.421875 259.035156 C 389.855469 259.324219 390.3125 259.570312 390.792969 259.769531 C 391.277344 259.96875 391.773438 260.117188 392.285156 260.21875 C 392.792969 260.320312 393.308594 260.371094 393.832031 260.371094 Z M 393.832031 260.371094 " fill-opacity="1" fill-rule="nonzero"/></g></svg>