<svg xmlns="http://www.w3.org/2000/svg" xmlns:xlink="http://www.w3.org/1999/xlink" width="3400" zoomAndPan="magnify" viewBox="0 0 2550 3224.999865" height="4300" preserveAspectRatio="xMidYMid meet" version="1.0"><defs><g/><clipPath id="cff562eef4"><path d="M 0 2799.246094 L 2550 2799.246094 L 2550 3225 L 0 3225 Z M 0 2799.246094 " clip-rule="nonzero"/></clipPath><clipPath id="040e5b0e6f"><path d="M 360 175.460938 L 2189 175.460938 L 2189 2063 L 360 2063 Z M 360 175.460938 " clip-rule="nonzero"/></clipPath></defs><path stroke-linecap="butt" transform="matrix(0.75, 0, 0, 0.75, 0.000116248, 0.0009375)" fill="none" stroke-linejoin="miter" d="M -0.000154997 -0.00125 L 3399.999911 -0.00125 L 3399.999911 4299.998834 L -0.000154997 4299.998834 L -0.000154997 -0.00125 " stroke="#ffffff" stroke-width="50" stroke-opacity="1" stroke-miterlimit="4"/><g clip-path="url(#cff562eef4)"><path fill="#ffffff" d="M -90 2799.246094 L 2602.265625 2799.246094 L 2602.265625 3224.988281 L -90 3224.988281 Z M -90 2799.246094 " fill-opacity="1" fill-rule="nonzero"/></g><g fill="#000000" fill-opacity="1"><g transform="translate(530.188953, 3077.002531)"><g><path d="M 40.921875 -150.515625 C 56.753906 -150.515625 68.929688 -147.019531 77.453125 -140.03125 C 85.972656 -133.050781 90.234375 -122.972656 90.234375 -109.796875 C 90.234375 -103.671875 89.066406 -98.113281 86.734375 -93.125 C 84.410156 -88.132812 80.648438 -83.910156 75.453125 -80.453125 C 83.835938 -78.316406 90.691406 -73.6875 96.015625 -66.5625 C 101.335938 -59.445312 104 -51.164062 104 -41.71875 C 104 -28.675781 99.304688 -18.460938 89.921875 -11.078125 C 80.546875 -3.691406 67.609375 0 51.109375 0 L 15.171875 0 L 15.171875 -150.515625 Z M 31.9375 -84.234375 L 39.71875 -84.234375 C 49.4375 -84.234375 56.523438 -85.234375 60.984375 -87.234375 C 65.441406 -89.234375 68.632812 -92.0625 70.5625 -95.71875 C 72.5 -99.375 73.46875 -104.066406 73.46875 -109.796875 C 73.46875 -118.710938 71.171875 -125.132812 66.578125 -129.0625 C 61.984375 -132.988281 52.96875 -134.953125 39.53125 -134.953125 L 31.9375 -134.953125 Z M 49.703125 -15.578125 C 62.078125 -15.578125 71.425781 -17.867188 77.75 -22.453125 C 84.070312 -27.046875 87.234375 -33.9375 87.234375 -43.125 C 87.234375 -51.90625 83.972656 -58.554688 77.453125 -63.078125 C 70.929688 -67.609375 60.953125 -69.875 47.515625 -69.875 L 31.9375 -69.875 L 31.9375 -15.578125 Z M 49.703125 -15.578125 "/></g></g></g><g fill="#000000" fill-opacity="1"><g transform="translate(643.577383, 3077.002531)"><g><path d="M 7.578125 -75.0625 C 7.578125 -88.894531 11.070312 -101.800781 18.0625 -113.78125 C 25.050781 -125.757812 34.597656 -135.304688 46.703125 -142.421875 C 58.816406 -149.546875 71.925781 -153.109375 86.03125 -153.109375 C 100.007812 -153.109375 113.019531 -149.644531 125.0625 -142.71875 C 137.101562 -135.800781 146.679688 -126.285156 153.796875 -114.171875 C 160.921875 -102.066406 164.484375 -89.03125 164.484375 -75.0625 C 164.484375 -61.21875 160.988281 -48.304688 154 -36.328125 C 147.019531 -24.347656 137.503906 -14.863281 125.453125 -7.875 C 113.410156 -0.894531 100.269531 2.59375 86.03125 2.59375 C 72.0625 2.59375 59.019531 -0.863281 46.90625 -7.78125 C 34.800781 -14.707031 25.21875 -24.191406 18.15625 -36.234375 C 11.101562 -48.273438 7.578125 -61.21875 7.578125 -75.0625 Z M 85.84375 -137.546875 C 74.65625 -137.546875 64.335938 -134.679688 54.890625 -128.953125 C 45.441406 -123.234375 37.988281 -115.613281 32.53125 -106.09375 C 27.082031 -96.582031 24.359375 -86.304688 24.359375 -75.265625 C 24.359375 -64.210938 27.148438 -53.894531 32.734375 -44.3125 C 38.328125 -34.726562 45.878906 -27.109375 55.390625 -21.453125 C 64.910156 -15.796875 75.125 -12.96875 86.03125 -12.96875 C 97.082031 -12.96875 107.429688 -15.828125 117.078125 -21.546875 C 126.722656 -27.273438 134.238281 -34.929688 139.625 -44.515625 C 145.019531 -54.097656 147.71875 -64.347656 147.71875 -75.265625 C 147.71875 -86.441406 144.957031 -96.851562 139.4375 -106.5 C 133.914062 -116.144531 126.394531 -123.726562 116.875 -129.25 C 107.363281 -134.78125 97.019531 -137.546875 85.84375 -137.546875 Z M 85.84375 -137.546875 "/></g></g></g><g fill="#000000" fill-opacity="1"><g transform="translate(815.6563, 3077.002531)"><g><path d="M 34.734375 -159.09375 L 89.4375 -32.734375 L 144.328125 -159.09375 L 174.875 0 L 157.703125 0 L 138.34375 -101.8125 L 137.9375 -101.8125 L 89.4375 6.1875 L 41.125 -101.8125 L 40.71875 -101.8125 L 21.359375 0 L 4.1875 0 Z M 8.390625 -150.515625 Z M 8.390625 -150.515625 "/></g></g></g><g fill="#000000" fill-opacity="1"><g transform="translate(994.52257, 3077.002531)"><g/></g></g><g fill="#000000" fill-opacity="1"><g transform="translate(1056.007848, 3077.002531)"><g><path d="M 83.4375 -121.171875 C 80.113281 -127.023438 76.421875 -131.21875 72.359375 -133.75 C 68.304688 -136.28125 63.414062 -137.546875 57.6875 -137.546875 C 50.375 -137.546875 44.351562 -135.28125 39.625 -130.75 C 34.894531 -126.226562 32.53125 -120.707031 32.53125 -114.1875 C 32.53125 -109.125 34.492188 -104.796875 38.421875 -101.203125 C 42.347656 -97.609375 47.101562 -94.546875 52.6875 -92.015625 C 58.28125 -89.492188 63.335938 -87.300781 67.859375 -85.4375 C 72.390625 -83.570312 77.648438 -80.773438 83.640625 -77.046875 C 89.628906 -73.328125 94.21875 -68.671875 97.40625 -63.078125 C 100.601562 -57.492188 102.203125 -51.109375 102.203125 -43.921875 C 102.203125 -35.671875 100.140625 -27.953125 96.015625 -20.765625 C 91.890625 -13.578125 86.164062 -7.882812 78.84375 -3.6875 C 71.53125 0.5 63.546875 2.59375 54.890625 2.59375 C 43.046875 2.59375 32.898438 -0.894531 24.453125 -7.875 C 16.003906 -14.863281 10.515625 -24.347656 7.984375 -36.328125 L 24.359375 -40.921875 C 25.679688 -32.671875 29.101562 -25.945312 34.625 -20.75 C 40.15625 -15.5625 46.78125 -12.96875 54.5 -12.96875 C 62.882812 -12.96875 70.132812 -15.828125 76.25 -21.546875 C 82.375 -27.273438 85.4375 -34.203125 85.4375 -42.328125 C 85.4375 -49.503906 83.109375 -55.390625 78.453125 -59.984375 C 73.796875 -64.578125 65.273438 -69.332031 52.890625 -74.25 C 40.515625 -79.175781 31.234375 -84.703125 25.046875 -90.828125 C 18.859375 -96.953125 15.765625 -104.9375 15.765625 -114.78125 C 15.765625 -125.957031 19.890625 -135.140625 28.140625 -142.328125 C 36.398438 -149.515625 46.316406 -153.109375 57.890625 -153.109375 C 66.410156 -153.109375 73.960938 -151.113281 80.546875 -147.125 C 87.140625 -143.132812 92.5625 -137.34375 96.8125 -129.75 Z M 83.4375 -121.171875 "/></g></g></g><g fill="#000000" fill-opacity="1"><g transform="translate(1167.599646, 3077.002531)"><g><path d="M 29.9375 -93.828125 L 29.9375 -40.125 C 29.9375 -30.28125 31.46875 -23.160156 34.53125 -18.765625 C 37.59375 -14.367188 43.117188 -12.171875 51.109375 -12.171875 C 58.953125 -12.171875 64.4375 -14.332031 67.5625 -18.65625 C 70.695312 -22.988281 72.265625 -29.878906 72.265625 -39.328125 L 72.265625 -93.828125 L 88.234375 -93.828125 L 88.234375 -38.734375 C 88.234375 -25.148438 85.140625 -14.863281 78.953125 -7.875 C 72.765625 -0.894531 63.484375 2.59375 51.109375 2.59375 C 38.722656 2.59375 29.4375 -0.929688 23.25 -7.984375 C 17.0625 -15.035156 13.96875 -25.285156 13.96875 -38.734375 L 13.96875 -93.828125 Z M 29.9375 -93.828125 "/></g></g></g><g fill="#000000" fill-opacity="1"><g transform="translate(1269.808933, 3077.002531)"><g><path d="M 30.34375 -164.6875 L 30.34375 -80.453125 L 30.75 -80.453125 C 34.601562 -85.503906 39.320312 -89.425781 44.90625 -92.21875 C 50.5 -95.019531 56.488281 -96.421875 62.875 -96.421875 C 72.0625 -96.421875 80.113281 -94.085938 87.03125 -89.421875 C 93.957031 -84.765625 99.179688 -78.675781 102.703125 -71.15625 C 106.234375 -63.644531 108 -55.5625 108 -46.90625 C 108 -38.394531 106.234375 -30.34375 102.703125 -22.75 C 99.179688 -15.164062 93.925781 -9.046875 86.9375 -4.390625 C 79.945312 0.265625 71.992188 2.59375 63.078125 2.59375 C 56.554688 2.59375 50.5 1.265625 44.90625 -1.390625 C 39.320312 -4.054688 34.601562 -7.914062 30.75 -12.96875 L 30.34375 -12.96875 L 30.34375 0 L 14.375 0 L 14.375 -164.6875 Z M 59.890625 -81.640625 C 51.367188 -81.640625 44.179688 -78.3125 38.328125 -71.65625 C 32.472656 -65.007812 29.546875 -57.09375 29.546875 -47.90625 C 29.546875 -37.65625 32.40625 -29.132812 38.125 -22.34375 C 43.851562 -15.5625 51.238281 -12.171875 60.28125 -12.171875 C 69.726562 -12.171875 77.3125 -15.460938 83.03125 -22.046875 C 88.757812 -28.640625 91.625 -37.191406 91.625 -47.703125 C 91.625 -57.691406 88.660156 -65.84375 82.734375 -72.15625 C 76.816406 -78.476562 69.203125 -81.640625 59.890625 -81.640625 Z M 59.890625 -81.640625 "/></g></g></g><g fill="#000000" fill-opacity="1"><g transform="translate(1384.994031, 3077.002531)"><g><path d="M 80.046875 -80.84375 C 82.835938 -85.769531 86.726562 -89.597656 91.71875 -92.328125 C 96.71875 -95.054688 102.210938 -96.421875 108.203125 -96.421875 C 118.046875 -96.421875 125.492188 -93.09375 130.546875 -86.4375 C 135.609375 -79.78125 138.140625 -70.332031 138.140625 -58.09375 L 138.140625 0 L 122.171875 0 L 122.171875 -55.703125 C 122.171875 -65.148438 120.769531 -71.832031 117.96875 -75.75 C 115.175781 -79.675781 110.851562 -81.640625 105 -81.640625 C 98.082031 -81.640625 92.957031 -79.109375 89.625 -74.046875 C 86.300781 -68.992188 84.640625 -61.210938 84.640625 -50.703125 L 84.640625 0 L 68.671875 0 L 68.671875 -54.09375 C 68.671875 -63.675781 67.238281 -70.660156 64.375 -75.046875 C 61.519531 -79.441406 57.363281 -81.640625 51.90625 -81.640625 C 45.113281 -81.640625 39.953125 -79.078125 36.421875 -73.953125 C 32.898438 -68.835938 31.140625 -60.6875 31.140625 -49.5 L 31.140625 0 L 15.171875 0 L 15.171875 -93.828125 L 31.140625 -93.828125 L 31.140625 -83.640625 L 31.546875 -83.640625 C 34.066406 -87.503906 37.253906 -90.597656 41.109375 -92.921875 C 44.972656 -95.253906 49.300781 -96.421875 54.09375 -96.421875 C 59.550781 -96.421875 64.609375 -95.054688 69.265625 -92.328125 C 73.921875 -89.597656 77.515625 -85.769531 80.046875 -80.84375 Z M 80.046875 -80.84375 "/></g></g></g><g fill="#000000" fill-opacity="1"><g transform="translate(1538.307961, 3077.002531)"><g><path d="M 34.140625 -93.828125 L 34.140625 0 L 18.171875 0 L 18.171875 -93.828125 Z M 14.765625 -129.5625 C 14.765625 -132.488281 15.929688 -135.046875 18.265625 -137.234375 C 20.597656 -139.429688 23.226562 -140.53125 26.15625 -140.53125 C 29.21875 -140.53125 31.878906 -139.429688 34.140625 -137.234375 C 36.398438 -135.046875 37.53125 -132.488281 37.53125 -129.5625 C 37.53125 -126.09375 36.398438 -123.257812 34.140625 -121.0625 C 31.878906 -118.875 29.21875 -117.78125 26.15625 -117.78125 C 23.09375 -117.78125 20.425781 -118.84375 18.15625 -120.96875 C 15.894531 -123.101562 14.765625 -125.96875 14.765625 -129.5625 Z M 14.765625 -129.5625 "/></g></g></g><g fill="#000000" fill-opacity="1"><g transform="translate(1590.610397, 3077.002531)"><g><path d="M 53.09375 -72.0625 C 51.632812 -75.125 49.769531 -77.484375 47.5 -79.140625 C 45.238281 -80.804688 42.847656 -81.640625 40.328125 -81.640625 C 37.398438 -81.640625 34.738281 -80.609375 32.34375 -78.546875 C 29.945312 -76.484375 28.75 -74.054688 28.75 -71.265625 C 28.75 -65.804688 33.972656 -61.179688 44.421875 -57.390625 C 54.867188 -53.597656 62.117188 -49.4375 66.171875 -44.90625 C 70.234375 -40.382812 72.265625 -34.734375 72.265625 -27.953125 C 72.265625 -22.753906 71.066406 -17.894531 68.671875 -13.375 C 66.273438 -8.851562 62.582031 -5.0625 57.59375 -2 C 52.601562 1.0625 46.914062 2.59375 40.53125 2.59375 C 32.8125 2.59375 26.019531 0.53125 20.15625 -3.59375 C 14.300781 -7.71875 10.046875 -13.570312 7.390625 -21.15625 L 21.5625 -27.15625 C 23.957031 -21.5625 26.648438 -17.664062 29.640625 -15.46875 C 32.640625 -13.269531 36.332031 -12.171875 40.71875 -12.171875 C 45.25 -12.171875 48.910156 -13.535156 51.703125 -16.265625 C 54.492188 -18.992188 55.890625 -22.421875 55.890625 -26.546875 C 55.890625 -30.003906 54.625 -33.03125 52.09375 -35.625 C 49.570312 -38.226562 44.945312 -40.859375 38.21875 -43.515625 C 31.5 -46.179688 26.28125 -48.84375 22.5625 -51.5 C 16.707031 -55.757812 13.710938 -61.882812 13.578125 -69.875 C 13.578125 -77.320312 16.238281 -83.609375 21.5625 -88.734375 C 26.882812 -93.859375 33.535156 -96.421875 41.515625 -96.421875 C 46.578125 -96.421875 51.4375 -94.820312 56.09375 -91.625 C 60.75 -88.4375 64.207031 -84.242188 66.46875 -79.046875 Z M 53.09375 -72.0625 "/></g></g></g><g fill="#000000" fill-opacity="1"><g transform="translate(1670.261765, 3077.002531)"><g><path d="M 53.09375 -72.0625 C 51.632812 -75.125 49.769531 -77.484375 47.5 -79.140625 C 45.238281 -80.804688 42.847656 -81.640625 40.328125 -81.640625 C 37.398438 -81.640625 34.738281 -80.609375 32.34375 -78.546875 C 29.945312 -76.484375 28.75 -74.054688 28.75 -71.265625 C 28.75 -65.804688 33.972656 -61.179688 44.421875 -57.390625 C 54.867188 -53.597656 62.117188 -49.4375 66.171875 -44.90625 C 70.234375 -40.382812 72.265625 -34.734375 72.265625 -27.953125 C 72.265625 -22.753906 71.066406 -17.894531 68.671875 -13.375 C 66.273438 -8.851562 62.582031 -5.0625 57.59375 -2 C 52.601562 1.0625 46.914062 2.59375 40.53125 2.59375 C 32.8125 2.59375 26.019531 0.53125 20.15625 -3.59375 C 14.300781 -7.71875 10.046875 -13.570312 7.390625 -21.15625 L 21.5625 -27.15625 C 23.957031 -21.5625 26.648438 -17.664062 29.640625 -15.46875 C 32.640625 -13.269531 36.332031 -12.171875 40.71875 -12.171875 C 45.25 -12.171875 48.910156 -13.535156 51.703125 -16.265625 C 54.492188 -18.992188 55.890625 -22.421875 55.890625 -26.546875 C 55.890625 -30.003906 54.625 -33.03125 52.09375 -35.625 C 49.570312 -38.226562 44.945312 -40.859375 38.21875 -43.515625 C 31.5 -46.179688 26.28125 -48.84375 22.5625 -51.5 C 16.707031 -55.757812 13.710938 -61.882812 13.578125 -69.875 C 13.578125 -77.320312 16.238281 -83.609375 21.5625 -88.734375 C 26.882812 -93.859375 33.535156 -96.421875 41.515625 -96.421875 C 46.578125 -96.421875 51.4375 -94.820312 56.09375 -91.625 C 60.75 -88.4375 64.207031 -84.242188 66.46875 -79.046875 Z M 53.09375 -72.0625 "/></g></g></g><g fill="#000000" fill-opacity="1"><g transform="translate(1749.913134, 3077.002531)"><g><path d="M 34.140625 -93.828125 L 34.140625 0 L 18.171875 0 L 18.171875 -93.828125 Z M 14.765625 -129.5625 C 14.765625 -132.488281 15.929688 -135.046875 18.265625 -137.234375 C 20.597656 -139.429688 23.226562 -140.53125 26.15625 -140.53125 C 29.21875 -140.53125 31.878906 -139.429688 34.140625 -137.234375 C 36.398438 -135.046875 37.53125 -132.488281 37.53125 -129.5625 C 37.53125 -126.09375 36.398438 -123.257812 34.140625 -121.0625 C 31.878906 -118.875 29.21875 -117.78125 26.15625 -117.78125 C 23.09375 -117.78125 20.425781 -118.84375 18.15625 -120.96875 C 15.894531 -123.101562 14.765625 -125.96875 14.765625 -129.5625 Z M 14.765625 -129.5625 "/></g></g></g><g fill="#000000" fill-opacity="1"><g transform="translate(1802.215569, 3077.002531)"><g><path d="M 6.78125 -46.71875 C 6.78125 -55.632812 8.976562 -63.953125 13.375 -71.671875 C 17.769531 -79.390625 23.757812 -85.441406 31.34375 -89.828125 C 38.925781 -94.222656 47.175781 -96.421875 56.09375 -96.421875 C 65.007812 -96.421875 73.226562 -94.222656 80.75 -89.828125 C 88.269531 -85.441406 94.257812 -79.421875 98.71875 -71.765625 C 103.175781 -64.109375 105.40625 -55.757812 105.40625 -46.71875 C 105.40625 -37.800781 103.207031 -29.515625 98.8125 -21.859375 C 94.425781 -14.203125 88.4375 -8.210938 80.84375 -3.890625 C 73.257812 0.429688 65.007812 2.59375 56.09375 2.59375 C 47.175781 2.59375 38.890625 0.398438 31.234375 -3.984375 C 23.585938 -8.378906 17.597656 -14.398438 13.265625 -22.046875 C 8.941406 -29.703125 6.78125 -37.925781 6.78125 -46.71875 Z M 55.890625 -81.640625 C 46.441406 -81.640625 38.554688 -78.28125 32.234375 -71.5625 C 25.910156 -64.84375 22.75 -56.625 22.75 -46.90625 C 22.75 -39.71875 24.476562 -33.363281 27.9375 -27.84375 C 31.40625 -22.320312 35.632812 -18.328125 40.625 -15.859375 C 45.613281 -13.398438 50.769531 -12.171875 56.09375 -12.171875 C 62.21875 -12.171875 67.804688 -13.601562 72.859375 -16.46875 C 77.921875 -19.332031 81.945312 -23.457031 84.9375 -28.84375 C 87.9375 -34.238281 89.4375 -40.257812 89.4375 -46.90625 C 89.4375 -53.03125 88.070312 -58.753906 85.34375 -64.078125 C 82.613281 -69.398438 78.648438 -73.65625 73.453125 -76.84375 C 68.265625 -80.039062 62.410156 -81.640625 55.890625 -81.640625 Z M 55.890625 -81.640625 "/></g></g></g><g fill="#000000" fill-opacity="1"><g transform="translate(1914.406226, 3077.002531)"><g><path d="M 90.234375 0 L 74.265625 0 L 74.265625 -54.703125 C 74.265625 -64.148438 72.832031 -71 69.96875 -75.25 C 67.101562 -79.507812 61.945312 -81.640625 54.5 -81.640625 C 45.976562 -81.640625 39.953125 -78.710938 36.421875 -72.859375 C 32.898438 -67.003906 31.140625 -58.085938 31.140625 -46.109375 L 31.140625 0 L 15.171875 0 L 15.171875 -93.828125 L 31.140625 -93.828125 L 31.140625 -82.4375 L 31.546875 -82.4375 C 34.867188 -86.96875 38.691406 -90.429688 43.015625 -92.828125 C 47.335938 -95.222656 52.429688 -96.421875 58.296875 -96.421875 C 68.804688 -96.421875 76.753906 -93.191406 82.140625 -86.734375 C 87.535156 -80.285156 90.234375 -70.269531 90.234375 -56.6875 Z M 90.234375 0 "/></g></g></g><g clip-path="url(#040e5b0e6f)"><path fill="#ffffff" d="M 1495.09375 1536.304688 L 1023.78125 1536.304688 C 1022.660156 1536.304688 1021.542969 1536.246094 1020.425781 1536.136719 C 1019.3125 1536.023438 1018.203125 1535.855469 1017.105469 1535.636719 C 1016.003906 1535.414062 1014.917969 1535.140625 1013.847656 1534.816406 C 1012.773438 1534.488281 1011.722656 1534.109375 1010.6875 1533.679688 C 1009.648438 1533.246094 1008.640625 1532.765625 1007.652344 1532.238281 C 1006.664062 1531.707031 1005.703125 1531.128906 1004.769531 1530.507812 C 1003.839844 1529.882812 1002.941406 1529.214844 1002.074219 1528.503906 C 1001.207031 1527.789062 1000.378906 1527.035156 999.585938 1526.242188 C 998.796875 1525.449219 998.042969 1524.617188 997.332031 1523.75 C 996.621094 1522.882812 995.957031 1521.984375 995.335938 1521.050781 C 994.710938 1520.117188 994.136719 1519.15625 993.609375 1518.167969 C 993.082031 1517.179688 992.601562 1516.167969 992.175781 1515.128906 C 991.746094 1514.09375 991.367188 1513.039062 991.042969 1511.96875 C 990.71875 1510.894531 990.445312 1509.808594 990.226562 1508.707031 C 990.007812 1507.609375 989.84375 1506.5 989.734375 1505.382812 C 989.625 1504.269531 989.570312 1503.148438 989.570312 1502.027344 C 989.570312 1500.90625 989.625 1499.789062 989.734375 1498.671875 C 989.84375 1497.558594 990.007812 1496.449219 990.226562 1495.347656 C 990.445312 1494.25 990.71875 1493.164062 991.042969 1492.089844 C 991.367188 1491.015625 991.746094 1489.960938 992.175781 1488.925781 C 992.601562 1487.890625 993.082031 1486.878906 993.609375 1485.886719 C 994.136719 1484.898438 994.710938 1483.9375 995.335938 1483.003906 C 995.957031 1482.074219 996.621094 1481.171875 997.332031 1480.304688 C 998.042969 1479.4375 998.796875 1478.605469 999.585938 1477.8125 C 1000.378906 1477.019531 1001.207031 1476.265625 1002.074219 1475.554688 C 1002.941406 1474.84375 1003.839844 1474.175781 1004.769531 1473.550781 C 1005.703125 1472.925781 1006.664062 1472.347656 1007.652344 1471.820312 C 1008.636719 1471.289062 1009.648438 1470.808594 1010.6875 1470.378906 C 1011.722656 1469.949219 1012.773438 1469.570312 1013.847656 1469.242188 C 1014.917969 1468.914062 1016.003906 1468.640625 1017.105469 1468.421875 C 1018.203125 1468.199219 1019.3125 1468.035156 1020.425781 1467.921875 C 1021.542969 1467.808594 1022.660156 1467.753906 1023.78125 1467.75 L 1495.09375 1467.75 C 1496.214844 1467.753906 1497.335938 1467.808594 1498.449219 1467.921875 C 1499.566406 1468.035156 1500.671875 1468.199219 1501.773438 1468.421875 C 1502.871094 1468.640625 1503.957031 1468.914062 1505.03125 1469.242188 C 1506.101562 1469.570312 1507.15625 1469.949219 1508.191406 1470.378906 C 1509.226562 1470.808594 1510.238281 1471.289062 1511.226562 1471.820312 C 1512.214844 1472.347656 1513.175781 1472.925781 1514.105469 1473.550781 C 1515.039062 1474.175781 1515.9375 1474.84375 1516.804688 1475.554688 C 1517.667969 1476.265625 1518.5 1477.019531 1519.289062 1477.8125 C 1520.082031 1478.605469 1520.832031 1479.4375 1521.542969 1480.304688 C 1522.253906 1481.171875 1522.921875 1482.074219 1523.542969 1483.003906 C 1524.164062 1483.9375 1524.742188 1484.898438 1525.269531 1485.886719 C 1525.796875 1486.878906 1526.273438 1487.890625 1526.703125 1488.925781 C 1527.132812 1489.960938 1527.507812 1491.015625 1527.835938 1492.089844 C 1528.160156 1493.164062 1528.429688 1494.25 1528.648438 1495.347656 C 1528.867188 1496.449219 1529.03125 1497.558594 1529.140625 1498.671875 C 1529.253906 1499.789062 1529.308594 1500.90625 1529.308594 1502.027344 C 1529.308594 1503.148438 1529.25 1504.269531 1529.140625 1505.382812 C 1529.03125 1506.5 1528.867188 1507.609375 1528.648438 1508.707031 C 1528.429688 1509.808594 1528.160156 1510.894531 1527.835938 1511.964844 C 1527.507812 1513.039062 1527.132812 1514.09375 1526.703125 1515.128906 C 1526.273438 1516.167969 1525.796875 1517.179688 1525.269531 1518.167969 C 1524.742188 1519.15625 1524.164062 1520.117188 1523.542969 1521.050781 C 1522.921875 1521.984375 1522.253906 1522.882812 1521.542969 1523.75 C 1520.832031 1524.617188 1520.082031 1525.449219 1519.289062 1526.242188 C 1518.5 1527.035156 1517.667969 1527.789062 1516.804688 1528.503906 C 1515.9375 1529.214844 1515.039062 1529.882812 1514.105469 1530.507812 C 1513.175781 1531.128906 1512.214844 1531.707031 1511.226562 1532.238281 C 1510.238281 1532.765625 1509.226562 1533.246094 1508.191406 1533.679688 C 1507.15625 1534.109375 1506.101562 1534.488281 1505.03125 1534.816406 C 1503.957031 1535.140625 1502.871094 1535.414062 1501.773438 1535.636719 C 1500.671875 1535.855469 1499.566406 1536.023438 1498.449219 1536.136719 C 1497.335938 1536.246094 1496.214844 1536.304688 1495.09375 1536.304688 Z M 2000.832031 1276.601562 L 1023.882812 1276.601562 C 1022.757812 1276.601562 1021.640625 1276.660156 1020.527344 1276.769531 C 1019.410156 1276.882812 1018.300781 1277.050781 1017.203125 1277.269531 C 1016.105469 1277.492188 1015.019531 1277.765625 1013.945312 1278.09375 C 1012.871094 1278.417969 1011.820312 1278.796875 1010.785156 1279.226562 C 1009.75 1279.660156 1008.738281 1280.140625 1007.75 1280.667969 C 1006.761719 1281.199219 1005.800781 1281.777344 1004.867188 1282.398438 C 1003.9375 1283.023438 1003.039062 1283.691406 1002.171875 1284.40625 C 1001.304688 1285.117188 1000.476562 1285.871094 999.683594 1286.664062 C 998.894531 1287.457031 998.140625 1288.289062 997.429688 1289.15625 C 996.722656 1290.023438 996.054688 1290.921875 995.433594 1291.855469 C 994.808594 1292.789062 994.234375 1293.75 993.707031 1294.738281 C 993.179688 1295.726562 992.699219 1296.738281 992.273438 1297.777344 C 991.84375 1298.8125 991.464844 1299.867188 991.140625 1300.941406 C 990.816406 1302.011719 990.542969 1303.097656 990.324219 1304.199219 C 990.109375 1305.300781 989.945312 1306.40625 989.832031 1307.523438 C 989.722656 1308.636719 989.667969 1309.757812 989.667969 1310.878906 C 989.667969 1312 989.722656 1313.117188 989.832031 1314.234375 C 989.945312 1315.351562 990.109375 1316.457031 990.324219 1317.558594 C 990.542969 1318.65625 990.816406 1319.742188 991.140625 1320.816406 C 991.464844 1321.890625 991.84375 1322.945312 992.273438 1323.980469 C 992.699219 1325.015625 993.179688 1326.03125 993.707031 1327.019531 C 994.234375 1328.007812 994.808594 1328.96875 995.433594 1329.902344 C 996.054688 1330.835938 996.722656 1331.734375 997.429688 1332.601562 C 998.140625 1333.46875 998.894531 1334.300781 999.683594 1335.09375 C 1000.476562 1335.886719 1001.304688 1336.640625 1002.171875 1337.351562 C 1003.039062 1338.0625 1003.9375 1338.730469 1004.867188 1339.355469 C 1005.800781 1339.980469 1006.761719 1340.558594 1007.75 1341.085938 C 1008.738281 1341.617188 1009.75 1342.097656 1010.785156 1342.527344 C 1011.820312 1342.957031 1012.871094 1343.335938 1013.945312 1343.664062 C 1015.019531 1343.992188 1016.105469 1344.265625 1017.203125 1344.488281 C 1018.300781 1344.707031 1019.410156 1344.875 1020.527344 1344.984375 C 1021.640625 1345.097656 1022.757812 1345.152344 1023.882812 1345.15625 L 2000.832031 1345.15625 C 2001.953125 1345.152344 2003.070312 1345.097656 2004.1875 1344.984375 C 2005.304688 1344.875 2006.410156 1344.707031 2007.511719 1344.488281 C 2008.609375 1344.265625 2009.695312 1343.992188 2010.769531 1343.664062 C 2011.839844 1343.335938 2012.894531 1342.957031 2013.929688 1342.527344 C 2014.964844 1342.097656 2015.976562 1341.617188 2016.964844 1341.085938 C 2017.953125 1340.558594 2018.914062 1339.980469 2019.84375 1339.355469 C 2020.777344 1338.730469 2021.675781 1338.0625 2022.539062 1337.351562 C 2023.40625 1336.640625 2024.234375 1335.886719 2025.027344 1335.09375 C 2025.820312 1334.300781 2026.570312 1333.46875 2027.28125 1332.601562 C 2027.992188 1331.734375 2028.660156 1330.835938 2029.28125 1329.902344 C 2029.902344 1328.96875 2030.480469 1328.007812 2031.007812 1327.019531 C 2031.535156 1326.027344 2032.011719 1325.015625 2032.441406 1323.980469 C 2032.871094 1322.945312 2033.246094 1321.890625 2033.570312 1320.816406 C 2033.898438 1319.742188 2034.167969 1318.65625 2034.386719 1317.558594 C 2034.605469 1316.457031 2034.769531 1315.351562 2034.878906 1314.234375 C 2034.988281 1313.117188 2035.042969 1312 2035.042969 1310.878906 C 2035.042969 1309.757812 2034.988281 1308.636719 2034.878906 1307.523438 C 2034.769531 1306.40625 2034.605469 1305.300781 2034.386719 1304.199219 C 2034.167969 1303.097656 2033.898438 1302.011719 2033.570312 1300.941406 C 2033.246094 1299.867188 2032.871094 1298.8125 2032.441406 1297.777344 C 2032.011719 1296.738281 2031.535156 1295.726562 2031.007812 1294.738281 C 2030.480469 1293.75 2029.902344 1292.789062 2029.28125 1291.855469 C 2028.660156 1290.921875 2027.992188 1290.023438 2027.28125 1289.15625 C 2026.570312 1288.289062 2025.820312 1287.457031 2025.027344 1286.664062 C 2024.234375 1285.871094 2023.40625 1285.117188 2022.539062 1284.40625 C 2021.675781 1283.691406 2020.777344 1283.023438 2019.84375 1282.398438 C 2018.914062 1281.777344 2017.953125 1281.199219 2016.964844 1280.667969 C 2015.976562 1280.140625 2014.964844 1279.660156 2013.929688 1279.226562 C 2012.894531 1278.796875 2011.839844 1278.417969 2010.769531 1278.09375 C 2009.695312 1277.765625 2008.609375 1277.492188 2007.511719 1277.269531 C 2006.410156 1277.050781 2005.304688 1276.882812 2004.1875 1276.769531 C 2003.070312 1276.660156 2001.953125 1276.601562 2000.832031 1276.601562 Z M 2000.832031 1091.277344 L 1023.882812 1091.277344 C 1022.757812 1091.277344 1021.636719 1091.332031 1020.519531 1091.441406 C 1019.402344 1091.550781 1018.292969 1091.71875 1017.195312 1091.9375 C 1016.09375 1092.15625 1015.003906 1092.425781 1013.929688 1092.753906 C 1012.855469 1093.078125 1011.800781 1093.457031 1010.761719 1093.886719 C 1009.726562 1094.316406 1008.710938 1094.796875 1007.722656 1095.324219 C 1006.730469 1095.855469 1005.769531 1096.429688 1004.835938 1097.054688 C 1003.902344 1097.679688 1003.003906 1098.347656 1002.132812 1099.058594 C 1001.265625 1099.769531 1000.4375 1100.523438 999.640625 1101.316406 C 998.847656 1102.109375 998.09375 1102.941406 997.382812 1103.808594 C 996.671875 1104.675781 996.003906 1105.578125 995.378906 1106.511719 C 994.753906 1107.445312 994.179688 1108.40625 993.648438 1109.398438 C 993.121094 1110.386719 992.640625 1111.402344 992.210938 1112.4375 C 991.78125 1113.476562 991.402344 1114.53125 991.078125 1115.605469 C 990.753906 1116.679688 990.480469 1117.765625 990.261719 1118.867188 C 990.042969 1119.96875 989.878906 1121.078125 989.765625 1122.195312 C 989.65625 1123.3125 989.601562 1124.433594 989.601562 1125.554688 C 989.601562 1126.679688 989.65625 1127.796875 989.765625 1128.914062 C 989.878906 1130.03125 990.042969 1131.140625 990.261719 1132.242188 C 990.480469 1133.34375 990.753906 1134.429688 991.078125 1135.507812 C 991.402344 1136.582031 991.78125 1137.636719 992.210938 1138.671875 C 992.640625 1139.710938 993.121094 1140.722656 993.648438 1141.714844 C 994.179688 1142.703125 994.753906 1143.664062 995.378906 1144.597656 C 996.003906 1145.53125 996.671875 1146.433594 997.382812 1147.300781 C 998.09375 1148.167969 998.847656 1149 999.640625 1149.792969 C 1000.4375 1150.585938 1001.265625 1151.339844 1002.132812 1152.054688 C 1003.003906 1152.765625 1003.902344 1153.433594 1004.835938 1154.058594 C 1005.769531 1154.679688 1006.730469 1155.257812 1007.722656 1155.785156 C 1008.710938 1156.316406 1009.726562 1156.792969 1010.761719 1157.222656 C 1011.800781 1157.652344 1012.855469 1158.03125 1013.929688 1158.359375 C 1015.003906 1158.683594 1016.09375 1158.957031 1017.195312 1159.175781 C 1018.292969 1159.394531 1019.402344 1159.558594 1020.519531 1159.667969 C 1021.636719 1159.777344 1022.757812 1159.832031 1023.882812 1159.832031 L 2000.832031 1159.832031 C 2001.957031 1159.832031 2003.078125 1159.777344 2004.195312 1159.667969 C 2005.316406 1159.558594 2006.425781 1159.394531 2007.527344 1159.175781 C 2008.632812 1158.953125 2009.722656 1158.683594 2010.796875 1158.355469 C 2011.871094 1158.03125 2012.929688 1157.652344 2013.96875 1157.21875 C 2015.007812 1156.789062 2016.023438 1156.308594 2017.015625 1155.78125 C 2018.003906 1155.25 2018.96875 1154.671875 2019.902344 1154.046875 C 2020.839844 1153.425781 2021.742188 1152.753906 2022.609375 1152.042969 C 2023.480469 1151.328125 2024.3125 1150.574219 2025.105469 1149.78125 C 2025.902344 1148.984375 2026.65625 1148.152344 2027.367188 1147.285156 C 2028.082031 1146.414062 2028.75 1145.511719 2029.375 1144.578125 C 2030 1143.644531 2030.578125 1142.679688 2031.105469 1141.6875 C 2031.636719 1140.695312 2032.117188 1139.683594 2032.546875 1138.644531 C 2032.976562 1137.605469 2033.355469 1136.546875 2033.683594 1135.472656 C 2034.007812 1134.394531 2034.28125 1133.304688 2034.5 1132.203125 C 2034.71875 1131.101562 2034.882812 1129.988281 2034.996094 1128.871094 C 2035.105469 1127.753906 2035.160156 1126.632812 2035.160156 1125.507812 C 2035.160156 1124.382812 2035.105469 1123.261719 2034.996094 1122.140625 C 2034.882812 1121.023438 2034.71875 1119.914062 2034.5 1118.808594 C 2034.28125 1117.707031 2034.007812 1116.617188 2033.683594 1115.542969 C 2033.355469 1114.464844 2032.976562 1113.410156 2032.546875 1112.371094 C 2032.117188 1111.332031 2031.636719 1110.316406 2031.105469 1109.324219 C 2030.578125 1108.332031 2030 1107.371094 2029.375 1106.433594 C 2028.75 1105.5 2028.082031 1104.597656 2027.367188 1103.730469 C 2026.65625 1102.859375 2025.902344 1102.027344 2025.105469 1101.234375 C 2024.3125 1100.4375 2023.480469 1099.683594 2022.609375 1098.972656 C 2021.742188 1098.257812 2020.839844 1097.589844 2019.902344 1096.964844 C 2018.96875 1096.339844 2018.003906 1095.761719 2017.015625 1095.234375 C 2016.023438 1094.703125 2015.007812 1094.222656 2013.96875 1093.792969 C 2012.929688 1093.363281 2011.871094 1092.984375 2010.796875 1092.65625 C 2009.722656 1092.332031 2008.632812 1092.058594 2007.527344 1091.839844 C 2006.425781 1091.621094 2005.316406 1091.453125 2004.195312 1091.34375 C 2003.078125 1091.234375 2001.957031 1091.179688 2000.832031 1091.179688 Z M 2188.730469 210.105469 L 2188.730469 1858.839844 C 2188.71875 1862.175781 2188.625 1865.511719 2188.453125 1868.84375 C 2188.277344 1872.175781 2188.023438 1875.5 2187.6875 1878.820312 C 2187.347656 1882.140625 2186.929688 1885.449219 2186.433594 1888.75 C 2185.933594 1892.050781 2185.355469 1895.335938 2184.695312 1898.605469 C 2184.035156 1901.878906 2183.296875 1905.128906 2182.480469 1908.363281 C 2181.660156 1911.601562 2180.765625 1914.8125 2179.789062 1918.003906 C 2178.8125 1921.195312 2177.761719 1924.359375 2176.632812 1927.5 C 2175.5 1930.640625 2174.292969 1933.75 2173.011719 1936.832031 C 2171.730469 1939.910156 2170.375 1942.960938 2168.941406 1945.972656 C 2167.511719 1948.988281 2166.007812 1951.964844 2164.429688 1954.90625 C 2162.855469 1957.847656 2161.207031 1960.746094 2159.488281 1963.609375 C 2157.769531 1966.46875 2155.984375 1969.285156 2154.125 1972.058594 C 2152.269531 1974.832031 2150.347656 1977.558594 2148.359375 1980.234375 C 2146.367188 1982.914062 2144.316406 1985.542969 2142.195312 1988.121094 C 2140.078125 1990.699219 2137.898438 1993.226562 2135.65625 1995.699219 C 2133.414062 1998.167969 2131.117188 2000.585938 2128.757812 2002.945312 C 2126.394531 2005.304688 2123.980469 2007.605469 2121.507812 2009.847656 C 2119.035156 2012.085938 2116.511719 2014.265625 2113.933594 2016.386719 C 2111.355469 2018.503906 2108.726562 2020.558594 2106.046875 2022.546875 C 2103.367188 2024.535156 2100.640625 2026.457031 2097.867188 2028.316406 C 2095.09375 2030.171875 2092.277344 2031.957031 2089.417969 2033.675781 C 2086.558594 2035.394531 2083.65625 2037.042969 2080.714844 2038.621094 C 2077.773438 2040.195312 2074.796875 2041.699219 2071.785156 2043.128906 C 2068.769531 2044.5625 2065.722656 2045.917969 2062.640625 2047.199219 C 2059.558594 2048.484375 2056.449219 2049.6875 2053.308594 2050.820312 C 2050.171875 2051.949219 2047.003906 2053 2043.8125 2053.976562 C 2040.621094 2054.953125 2037.410156 2055.847656 2034.175781 2056.667969 C 2030.9375 2057.484375 2027.6875 2058.222656 2024.414062 2058.882812 C 2021.144531 2059.542969 2017.859375 2060.121094 2014.558594 2060.621094 C 2011.257812 2061.117188 2007.949219 2061.535156 2004.628906 2061.875 C 2001.308594 2062.210938 1997.984375 2062.464844 1994.652344 2062.640625 C 1991.320312 2062.8125 1987.984375 2062.90625 1984.648438 2062.917969 L 564.714844 2062.917969 C 561.378906 2062.90625 558.042969 2062.8125 554.710938 2062.636719 C 551.378906 2062.460938 548.054688 2062.207031 544.734375 2061.867188 C 541.414062 2061.53125 538.105469 2061.113281 534.804688 2060.613281 C 531.507812 2060.113281 528.222656 2059.535156 524.949219 2058.875 C 521.679688 2058.214844 518.425781 2057.476562 515.191406 2056.65625 C 511.957031 2055.839844 508.746094 2054.941406 505.554688 2053.964844 C 502.363281 2052.992188 499.199219 2051.9375 496.058594 2050.808594 C 492.917969 2049.675781 489.808594 2048.46875 486.730469 2047.1875 C 483.648438 2045.90625 480.601562 2044.546875 477.585938 2043.117188 C 474.574219 2041.6875 471.59375 2040.183594 468.65625 2038.605469 C 465.714844 2037.027344 462.8125 2035.378906 459.953125 2033.660156 C 457.09375 2031.945312 454.277344 2030.15625 451.503906 2028.300781 C 448.730469 2026.445312 446.007812 2024.519531 443.328125 2022.53125 C 440.648438 2020.542969 438.019531 2018.488281 435.441406 2016.371094 C 432.863281 2014.253906 430.339844 2012.074219 427.867188 2009.832031 C 425.394531 2007.589844 422.980469 2005.289062 420.621094 2002.929688 C 418.261719 2000.570312 415.960938 1998.15625 413.71875 1995.683594 C 411.476562 1993.210938 409.296875 1990.6875 407.179688 1988.109375 C 405.0625 1985.53125 403.007812 1982.902344 401.019531 1980.222656 C 399.027344 1977.546875 397.105469 1974.820312 395.25 1972.046875 C 393.394531 1969.273438 391.605469 1966.457031 389.886719 1963.597656 C 388.167969 1960.738281 386.523438 1957.835938 384.945312 1954.898438 C 383.367188 1951.957031 381.863281 1948.980469 380.433594 1945.964844 C 379 1942.949219 377.644531 1939.902344 376.363281 1936.824219 C 375.078125 1933.742188 373.871094 1930.632812 372.742188 1927.492188 C 371.613281 1924.355469 370.558594 1921.191406 369.582031 1918 C 368.609375 1914.808594 367.710938 1911.59375 366.890625 1908.359375 C 366.074219 1905.125 365.332031 1901.875 364.675781 1898.601562 C 364.015625 1895.332031 363.433594 1892.046875 362.933594 1888.75 C 362.4375 1885.449219 362.019531 1882.140625 361.679688 1878.820312 C 361.34375 1875.5 361.085938 1872.175781 360.910156 1868.84375 C 360.738281 1865.511719 360.644531 1862.175781 360.632812 1858.839844 L 360.632812 1689.40625 C 360.628906 1688.269531 360.683594 1687.132812 360.792969 1686 C 360.902344 1684.867188 361.066406 1683.742188 361.285156 1682.625 C 361.503906 1681.507812 361.777344 1680.40625 362.105469 1679.316406 C 362.433594 1678.226562 362.8125 1677.152344 363.246094 1676.101562 C 363.675781 1675.046875 364.160156 1674.019531 364.695312 1673.011719 C 365.226562 1672.007812 365.808594 1671.03125 366.4375 1670.082031 C 367.066406 1669.132812 367.742188 1668.21875 368.460938 1667.335938 C 369.179688 1666.453125 369.941406 1665.609375 370.742188 1664.800781 C 371.546875 1663.992188 372.382812 1663.226562 373.261719 1662.5 C 374.140625 1661.777344 375.050781 1661.09375 375.992188 1660.460938 C 376.9375 1659.824219 377.910156 1659.234375 378.914062 1658.695312 C 379.914062 1658.152344 380.941406 1657.664062 381.988281 1657.222656 C 383.039062 1656.785156 384.109375 1656.394531 385.195312 1656.0625 C 386.285156 1655.726562 387.386719 1655.445312 388.5 1655.21875 C 389.617188 1654.988281 390.738281 1654.816406 391.871094 1654.699219 C 393.003906 1654.585938 394.140625 1654.523438 395.277344 1654.515625 L 823.398438 1654.515625 L 823.398438 218.824219 C 823.347656 217.484375 823.382812 216.144531 823.503906 214.8125 C 823.628906 213.476562 823.835938 212.152344 824.128906 210.847656 C 824.425781 209.539062 824.800781 208.253906 825.261719 206.996094 C 825.722656 205.734375 826.261719 204.511719 826.878906 203.320312 C 827.5 202.132812 828.191406 200.988281 828.957031 199.886719 C 829.726562 198.789062 830.558594 197.742188 831.464844 196.75 C 832.367188 195.761719 833.328125 194.832031 834.351562 193.964844 C 835.375 193.097656 836.449219 192.300781 837.574219 191.574219 C 838.304688 190.453125 839.101562 189.382812 839.96875 188.363281 C 840.835938 187.347656 841.765625 186.386719 842.753906 185.488281 C 843.746094 184.59375 844.789062 183.761719 845.886719 183 C 846.984375 182.234375 848.128906 181.546875 849.316406 180.929688 C 850.503906 180.316406 851.722656 179.777344 852.980469 179.320312 C 854.238281 178.863281 855.515625 178.488281 856.820312 178.195312 C 858.125 177.90625 859.445312 177.699219 860.777344 177.578125 C 862.109375 177.453125 863.441406 177.417969 864.777344 177.46875 L 1358.078125 177.46875 L 1358.078125 175.460938 L 2154.082031 175.460938 C 2155.21875 175.460938 2156.351562 175.519531 2157.480469 175.628906 C 2158.609375 175.742188 2159.730469 175.910156 2160.839844 176.132812 C 2161.953125 176.351562 2163.054688 176.628906 2164.136719 176.957031 C 2165.222656 177.289062 2166.289062 177.671875 2167.339844 178.105469 C 2168.386719 178.539062 2169.410156 179.023438 2170.410156 179.558594 C 2171.410156 180.09375 2172.382812 180.675781 2173.328125 181.308594 C 2174.269531 181.9375 2175.179688 182.613281 2176.058594 183.332031 C 2176.933594 184.054688 2177.773438 184.8125 2178.574219 185.617188 C 2179.378906 186.417969 2180.136719 187.257812 2180.859375 188.132812 C 2181.578125 189.011719 2182.253906 189.921875 2182.882812 190.863281 C 2183.515625 191.808594 2184.097656 192.78125 2184.632812 193.78125 C 2185.167969 194.78125 2185.652344 195.804688 2186.085938 196.851562 C 2186.519531 197.902344 2186.902344 198.96875 2187.234375 200.050781 C 2187.5625 201.136719 2187.839844 202.238281 2188.058594 203.351562 C 2188.28125 204.460938 2188.449219 205.582031 2188.5625 206.710938 C 2188.671875 207.839844 2188.730469 208.972656 2188.730469 210.105469 Z M 1431.507812 1993.382812 C 1427.445312 1988.78125 1423.601562 1984.007812 1419.976562 1979.0625 C 1416.347656 1974.113281 1412.953125 1969.011719 1409.785156 1963.757812 C 1406.621094 1958.503906 1403.699219 1953.113281 1401.023438 1947.59375 C 1398.347656 1942.074219 1395.925781 1936.445312 1393.757812 1930.703125 C 1391.59375 1924.964844 1389.691406 1919.140625 1388.050781 1913.226562 C 1386.414062 1907.316406 1385.046875 1901.339844 1383.949219 1895.304688 C 1382.851562 1889.269531 1382.03125 1883.195312 1381.484375 1877.085938 C 1380.9375 1870.976562 1380.667969 1864.851562 1380.675781 1858.71875 L 1380.675781 1724.054688 L 430.167969 1724.054688 L 430.167969 1858.839844 C 430.175781 1861.042969 430.234375 1863.242188 430.347656 1865.441406 C 430.460938 1867.640625 430.625 1869.839844 430.847656 1872.03125 C 431.066406 1874.222656 431.339844 1876.40625 431.667969 1878.582031 C 431.996094 1880.761719 432.375 1882.929688 432.808594 1885.089844 C 433.242188 1887.25 433.730469 1889.394531 434.265625 1891.53125 C 434.804688 1893.667969 435.394531 1895.789062 436.039062 1897.894531 C 436.679688 1900 437.375 1902.089844 438.121094 1904.164062 C 438.863281 1906.238281 439.660156 1908.289062 440.503906 1910.324219 C 441.351562 1912.359375 442.246094 1914.371094 443.1875 1916.359375 C 444.132812 1918.351562 445.125 1920.316406 446.164062 1922.257812 C 447.203125 1924.199219 448.289062 1926.113281 449.425781 1928.003906 C 450.558594 1929.890625 451.738281 1931.75 452.960938 1933.582031 C 454.1875 1935.410156 455.457031 1937.210938 456.769531 1938.980469 C 458.082031 1940.746094 459.4375 1942.480469 460.835938 1944.183594 C 462.230469 1945.886719 463.671875 1947.554688 465.148438 1949.183594 C 466.628906 1950.816406 468.148438 1952.410156 469.703125 1953.96875 C 471.261719 1955.527344 472.855469 1957.042969 474.488281 1958.523438 C 476.121094 1960.003906 477.789062 1961.441406 479.488281 1962.839844 C 481.191406 1964.238281 482.925781 1965.59375 484.695312 1966.90625 C 486.464844 1968.21875 488.261719 1969.488281 490.09375 1970.710938 C 491.925781 1971.9375 493.785156 1973.113281 495.671875 1974.25 C 497.5625 1975.382812 499.476562 1976.46875 501.417969 1977.507812 C 503.359375 1978.550781 505.324219 1979.542969 507.316406 1980.484375 C 509.304688 1981.429688 511.316406 1982.324219 513.351562 1983.167969 C 515.382812 1984.015625 517.4375 1984.808594 519.511719 1985.554688 C 521.582031 1986.296875 523.671875 1986.992188 525.78125 1987.632812 C 527.886719 1988.277344 530.007812 1988.867188 532.144531 1989.40625 C 534.277344 1989.945312 536.425781 1990.429688 538.585938 1990.863281 C 540.746094 1991.296875 542.914062 1991.679688 545.09375 1992.003906 C 547.269531 1992.332031 549.457031 1992.605469 551.648438 1992.828125 C 553.839844 1993.046875 556.035156 1993.214844 558.234375 1993.328125 C 560.433594 1993.441406 562.632812 1993.5 564.835938 1993.503906 Z M 2119.191406 244.996094 L 1574.253906 244.996094 C 1571.445312 245.667969 1568.597656 246.007812 1565.710938 246.027344 L 891.957031 246.027344 L 891.957031 1643.84375 L 896.851562 1643.84375 L 896.851562 1654.515625 L 1415.324219 1654.515625 C 1416.464844 1654.519531 1417.605469 1654.574219 1418.742188 1654.6875 C 1419.878906 1654.800781 1421.007812 1654.96875 1422.128906 1655.191406 C 1423.25 1655.414062 1424.355469 1655.691406 1425.449219 1656.023438 C 1426.542969 1656.355469 1427.617188 1656.742188 1428.671875 1657.179688 C 1429.726562 1657.617188 1430.757812 1658.105469 1431.765625 1658.644531 C 1432.773438 1659.183594 1433.75 1659.769531 1434.703125 1660.40625 C 1435.652344 1661.039062 1436.566406 1661.71875 1437.449219 1662.445312 C 1438.332031 1663.167969 1439.179688 1663.9375 1439.988281 1664.742188 C 1440.796875 1665.550781 1441.5625 1666.398438 1442.285156 1667.28125 C 1443.011719 1668.164062 1443.691406 1669.078125 1444.324219 1670.03125 C 1444.960938 1670.980469 1445.546875 1671.957031 1446.085938 1672.964844 C 1446.625 1673.972656 1447.113281 1675.003906 1447.550781 1676.058594 C 1447.988281 1677.113281 1448.375 1678.1875 1448.707031 1679.28125 C 1449.039062 1680.375 1449.316406 1681.480469 1449.539062 1682.601562 C 1449.761719 1683.722656 1449.929688 1684.851562 1450.042969 1685.988281 C 1450.15625 1687.125 1450.214844 1688.265625 1450.214844 1689.40625 L 1450.214844 1858.839844 C 1450.214844 1861.042969 1450.273438 1863.242188 1450.382812 1865.445312 C 1450.492188 1867.644531 1450.65625 1869.839844 1450.875 1872.03125 C 1451.089844 1874.222656 1451.363281 1876.40625 1451.6875 1878.585938 C 1452.011719 1880.765625 1452.390625 1882.933594 1452.820312 1885.09375 C 1453.253906 1887.253906 1453.738281 1889.402344 1454.273438 1891.539062 C 1454.8125 1893.675781 1455.398438 1895.796875 1456.042969 1897.902344 C 1456.683594 1900.011719 1457.375 1902.101562 1458.117188 1904.175781 C 1458.863281 1906.246094 1459.65625 1908.300781 1460.5 1910.335938 C 1461.34375 1912.371094 1462.238281 1914.382812 1463.179688 1916.375 C 1464.125 1918.363281 1465.113281 1920.328125 1466.15625 1922.273438 C 1467.195312 1924.214844 1468.28125 1926.128906 1469.414062 1928.019531 C 1470.546875 1929.90625 1471.726562 1931.765625 1472.953125 1933.597656 C 1474.175781 1935.425781 1475.445312 1937.226562 1476.757812 1938.996094 C 1478.070312 1940.765625 1479.425781 1942.5 1480.824219 1944.199219 C 1482.222656 1945.902344 1483.664062 1947.570312 1485.144531 1949.199219 C 1486.621094 1950.832031 1488.140625 1952.425781 1489.699219 1953.984375 C 1491.257812 1955.539062 1492.855469 1957.058594 1494.488281 1958.535156 C 1496.117188 1960.015625 1497.785156 1961.453125 1499.488281 1962.847656 C 1501.195312 1964.246094 1502.929688 1965.597656 1504.699219 1966.910156 C 1506.46875 1968.222656 1508.269531 1969.488281 1510.101562 1970.710938 C 1511.933594 1971.933594 1513.792969 1973.113281 1515.683594 1974.246094 C 1517.574219 1975.375 1519.488281 1976.460938 1521.433594 1977.5 C 1523.375 1978.535156 1525.34375 1979.527344 1527.335938 1980.46875 C 1529.324219 1981.410156 1531.339844 1982.300781 1533.375 1983.144531 C 1535.410156 1983.984375 1537.464844 1984.777344 1539.539062 1985.519531 C 1541.613281 1986.261719 1543.703125 1986.949219 1545.8125 1987.589844 C 1547.917969 1988.230469 1550.042969 1988.816406 1552.179688 1989.351562 C 1554.316406 1989.886719 1556.464844 1990.367188 1558.625 1990.796875 C 1560.785156 1991.226562 1562.953125 1991.601562 1565.132812 1991.925781 C 1567.3125 1992.25 1569.496094 1992.519531 1571.6875 1992.734375 C 1573.882812 1992.949219 1576.078125 1993.113281 1578.277344 1993.21875 C 1580.476562 1993.328125 1582.679688 1993.382812 1584.882812 1993.382812 L 1984.648438 1993.382812 C 1986.851562 1993.382812 1989.054688 1993.328125 1991.253906 1993.21875 C 1993.457031 1993.113281 1995.652344 1992.949219 1997.847656 1992.734375 C 2000.039062 1992.515625 2002.226562 1992.246094 2004.40625 1991.925781 C 2006.585938 1991.601562 2008.757812 1991.222656 2010.921875 1990.792969 C 2013.082031 1990.363281 2015.230469 1989.882812 2017.371094 1989.347656 C 2019.507812 1988.8125 2021.628906 1988.222656 2023.738281 1987.582031 C 2025.847656 1986.945312 2027.941406 1986.253906 2030.015625 1985.511719 C 2032.089844 1984.765625 2034.144531 1983.972656 2036.183594 1983.132812 C 2038.21875 1982.289062 2040.234375 1981.394531 2042.226562 1980.453125 C 2044.21875 1979.511719 2046.1875 1978.519531 2048.128906 1977.480469 C 2050.074219 1976.441406 2051.988281 1975.355469 2053.878906 1974.222656 C 2055.769531 1973.089844 2057.632812 1971.910156 2059.464844 1970.6875 C 2061.296875 1969.460938 2063.097656 1968.195312 2064.867188 1966.878906 C 2066.640625 1965.566406 2068.375 1964.210938 2070.078125 1962.8125 C 2071.78125 1961.417969 2073.453125 1959.976562 2075.085938 1958.496094 C 2076.71875 1957.015625 2078.3125 1955.496094 2079.871094 1953.9375 C 2081.429688 1952.378906 2082.949219 1950.785156 2084.429688 1949.152344 C 2085.910156 1947.519531 2087.347656 1945.851562 2088.746094 1944.148438 C 2090.144531 1942.445312 2091.5 1940.707031 2092.8125 1938.9375 C 2094.125 1937.167969 2095.394531 1935.367188 2096.621094 1933.53125 C 2097.84375 1931.699219 2099.023438 1929.839844 2100.15625 1927.949219 C 2101.289062 1926.058594 2102.375 1924.140625 2103.414062 1922.199219 C 2104.453125 1920.253906 2105.441406 1918.285156 2106.386719 1916.292969 C 2107.328125 1914.300781 2108.21875 1912.285156 2109.0625 1910.25 C 2109.90625 1908.214844 2110.699219 1906.160156 2111.441406 1904.085938 C 2112.183594 1902.007812 2112.875 1899.917969 2113.515625 1897.808594 C 2114.15625 1895.699219 2114.742188 1893.574219 2115.277344 1891.4375 C 2115.816406 1889.300781 2116.296875 1887.148438 2116.726562 1884.988281 C 2117.15625 1882.828125 2117.535156 1880.65625 2117.859375 1878.476562 C 2118.179688 1876.296875 2118.449219 1874.109375 2118.667969 1871.917969 C 2118.882812 1869.722656 2119.042969 1867.527344 2119.152344 1865.324219 C 2119.261719 1863.125 2119.316406 1860.921875 2119.316406 1858.71875 Z M 1539.511719 397.609375 C 1539.511719 396.5 1539.457031 395.390625 1539.347656 394.285156 C 1539.238281 393.179688 1539.074219 392.082031 1538.859375 390.992188 C 1538.640625 389.902344 1538.371094 388.828125 1538.050781 387.765625 C 1537.726562 386.703125 1537.355469 385.65625 1536.929688 384.632812 C 1536.503906 383.605469 1536.03125 382.601562 1535.507812 381.625 C 1534.984375 380.644531 1534.414062 379.691406 1533.796875 378.769531 C 1533.179688 377.84375 1532.515625 376.953125 1531.8125 376.097656 C 1531.109375 375.238281 1530.363281 374.414062 1529.578125 373.628906 C 1528.792969 372.84375 1527.96875 372.101562 1527.113281 371.394531 C 1526.253906 370.691406 1525.363281 370.03125 1524.4375 369.414062 C 1523.515625 368.796875 1522.5625 368.226562 1521.585938 367.703125 C 1520.605469 367.179688 1519.601562 366.703125 1518.574219 366.277344 C 1517.550781 365.855469 1516.503906 365.480469 1515.441406 365.15625 C 1514.378906 364.835938 1513.304688 364.566406 1512.214844 364.347656 C 1511.125 364.132812 1510.027344 363.96875 1508.921875 363.859375 C 1507.816406 363.753906 1506.710938 363.699219 1505.597656 363.699219 C 1504.488281 363.699219 1503.378906 363.753906 1502.273438 363.859375 C 1501.167969 363.96875 1500.070312 364.132812 1498.984375 364.347656 C 1497.894531 364.566406 1496.816406 364.835938 1495.753906 365.15625 C 1494.691406 365.480469 1493.648438 365.855469 1492.621094 366.277344 C 1491.59375 366.703125 1490.59375 367.179688 1489.613281 367.703125 C 1488.632812 368.226562 1487.683594 368.796875 1486.757812 369.414062 C 1485.835938 370.03125 1484.945312 370.691406 1484.085938 371.394531 C 1483.226562 372.101562 1482.40625 372.84375 1481.621094 373.628906 C 1480.835938 374.414062 1480.089844 375.238281 1479.382812 376.097656 C 1478.679688 376.953125 1478.019531 377.84375 1477.402344 378.769531 C 1476.785156 379.691406 1476.214844 380.644531 1475.691406 381.625 C 1475.167969 382.601562 1474.695312 383.605469 1474.269531 384.632812 C 1473.84375 385.65625 1473.46875 386.703125 1473.148438 387.765625 C 1472.824219 388.828125 1472.554688 389.902344 1472.339844 390.992188 C 1472.121094 392.082031 1471.960938 393.179688 1471.851562 394.285156 C 1471.742188 395.390625 1471.6875 396.5 1471.6875 397.609375 L 1471.6875 417.589844 C 1468.882812 418.050781 1466.101562 418.632812 1463.347656 419.339844 C 1460.597656 420.042969 1457.878906 420.867188 1455.199219 421.8125 C 1452.515625 422.757812 1449.882812 423.816406 1447.292969 424.992188 C 1444.707031 426.167969 1442.175781 427.453125 1439.699219 428.851562 C 1437.226562 430.25 1434.816406 431.753906 1432.472656 433.363281 C 1430.132812 434.976562 1427.863281 436.683594 1425.671875 438.492188 C 1423.480469 440.300781 1421.371094 442.203125 1419.34375 444.199219 C 1417.320312 446.191406 1415.386719 448.273438 1413.542969 450.4375 C 1411.699219 452.601562 1409.957031 454.84375 1408.3125 457.160156 C 1406.664062 459.476562 1405.125 461.863281 1403.6875 464.316406 C 1402.253906 466.769531 1400.925781 469.28125 1399.710938 471.847656 C 1398.496094 474.417969 1397.394531 477.035156 1396.410156 479.703125 C 1395.425781 482.371094 1394.558594 485.074219 1393.8125 487.816406 C 1393.066406 490.558594 1392.4375 493.328125 1391.933594 496.125 C 1391.429688 498.921875 1391.050781 501.738281 1390.792969 504.566406 C 1390.535156 507.398438 1390.40625 510.234375 1390.398438 513.078125 C 1390.40625 516.148438 1390.558594 519.210938 1390.855469 522.269531 C 1391.152344 525.328125 1391.59375 528.363281 1392.179688 531.378906 C 1392.761719 534.390625 1393.488281 537.375 1394.355469 540.320312 C 1395.222656 543.265625 1396.226562 546.164062 1397.367188 549.015625 C 1398.507812 551.867188 1399.78125 554.660156 1401.1875 557.390625 C 1402.589844 560.121094 1404.121094 562.78125 1405.777344 565.367188 C 1407.433594 567.953125 1409.207031 570.457031 1411.101562 572.875 C 1412.996094 575.292969 1414.996094 577.617188 1417.109375 579.847656 L 1418.800781 581.511719 C 1425.558594 588.316406 1433.140625 594.03125 1441.546875 598.652344 C 1448.617188 602.421875 1456.035156 605.289062 1463.804688 607.253906 C 1471.574219 609.214844 1479.464844 610.21875 1487.480469 610.257812 L 1523.667969 610.257812 C 1525.691406 610.261719 1527.6875 610.476562 1529.664062 610.902344 C 1531.640625 611.324219 1533.550781 611.949219 1535.394531 612.773438 C 1537.238281 613.597656 1538.980469 614.605469 1540.613281 615.792969 C 1542.246094 616.984375 1543.742188 618.328125 1545.09375 619.828125 C 1546.328125 621.097656 1547.421875 622.476562 1548.375 623.96875 C 1549.035156 625.0625 1549.617188 626.195312 1550.128906 627.367188 C 1550.640625 628.535156 1551.070312 629.738281 1551.421875 630.964844 C 1551.777344 632.191406 1552.046875 633.4375 1552.234375 634.703125 C 1552.421875 635.96875 1552.527344 637.238281 1552.546875 638.515625 C 1552.566406 639.792969 1552.503906 641.066406 1552.355469 642.335938 C 1552.207031 643.605469 1551.976562 644.859375 1551.664062 646.097656 C 1551.351562 647.335938 1550.957031 648.550781 1550.484375 649.734375 C 1550.011719 650.921875 1549.464844 652.074219 1548.839844 653.1875 C 1548.214844 654.300781 1547.519531 655.371094 1546.753906 656.394531 C 1545.988281 657.417969 1545.15625 658.386719 1544.265625 659.296875 C 1543.371094 660.210938 1542.421875 661.0625 1541.414062 661.851562 C 1540.410156 662.640625 1539.355469 663.359375 1538.257812 664.007812 C 1537.15625 664.65625 1536.015625 665.230469 1534.839844 665.730469 C 1533.664062 666.230469 1532.460938 666.648438 1531.230469 666.988281 C 1529.996094 667.328125 1528.75 667.589844 1527.484375 667.765625 C 1526.21875 667.941406 1524.945312 668.03125 1523.667969 668.039062 L 1487.429688 668.039062 C 1485.527344 668.015625 1483.648438 667.808594 1481.785156 667.417969 C 1479.921875 667.03125 1478.113281 666.46875 1476.359375 665.730469 C 1474.605469 664.996094 1472.9375 664.097656 1471.359375 663.042969 C 1469.777344 661.984375 1468.3125 660.785156 1466.960938 659.445312 C 1465.628906 658.101562 1464.441406 656.640625 1463.398438 655.0625 C 1462.355469 653.484375 1461.476562 651.820312 1460.765625 650.066406 C 1460.050781 648.316406 1459.519531 646.507812 1459.164062 644.652344 C 1458.8125 642.792969 1458.644531 640.917969 1458.660156 639.027344 C 1458.570312 637.96875 1458.433594 636.914062 1458.246094 635.871094 C 1458.058594 634.824219 1457.820312 633.789062 1457.539062 632.765625 C 1457.253906 631.742188 1456.925781 630.734375 1456.546875 629.742188 C 1456.167969 628.75 1455.746094 627.777344 1455.277344 626.820312 C 1454.8125 625.867188 1454.300781 624.9375 1453.746094 624.03125 C 1453.191406 623.125 1452.597656 622.25 1451.960938 621.398438 C 1451.324219 620.546875 1450.652344 619.726562 1449.9375 618.9375 C 1449.226562 618.152344 1448.480469 617.398438 1447.695312 616.679688 C 1446.914062 615.960938 1446.101562 615.28125 1445.257812 614.636719 C 1444.410156 613.992188 1443.535156 613.390625 1442.636719 612.828125 C 1441.734375 612.269531 1440.808594 611.75 1439.859375 611.273438 C 1438.910156 610.796875 1437.941406 610.367188 1436.949219 609.980469 C 1435.960938 609.59375 1434.953125 609.257812 1433.933594 608.964844 C 1432.914062 608.671875 1431.878906 608.429688 1430.835938 608.230469 C 1429.792969 608.035156 1428.742188 607.886719 1427.683594 607.789062 C 1426.625 607.691406 1425.566406 607.640625 1424.503906 607.640625 C 1423.441406 607.640625 1422.382812 607.691406 1421.324219 607.789062 C 1420.265625 607.886719 1419.214844 608.035156 1418.171875 608.230469 C 1417.128906 608.429688 1416.097656 608.671875 1415.074219 608.964844 C 1414.054688 609.257812 1413.046875 609.59375 1412.058594 609.980469 C 1411.070312 610.367188 1410.097656 610.796875 1409.148438 611.273438 C 1408.199219 611.75 1407.273438 612.269531 1406.375 612.828125 C 1405.472656 613.390625 1404.597656 613.992188 1403.753906 614.636719 C 1402.90625 615.28125 1402.09375 615.960938 1401.3125 616.679688 C 1400.53125 617.398438 1399.78125 618.152344 1399.070312 618.9375 C 1398.359375 619.726562 1397.683594 620.546875 1397.046875 621.398438 C 1396.414062 622.25 1395.816406 623.125 1395.261719 624.03125 C 1394.707031 624.9375 1394.199219 625.867188 1393.730469 626.820312 C 1393.261719 627.777344 1392.839844 628.75 1392.460938 629.742188 C 1392.085938 630.734375 1391.753906 631.742188 1391.46875 632.765625 C 1391.1875 633.789062 1390.953125 634.824219 1390.765625 635.871094 C 1390.578125 636.914062 1390.4375 637.96875 1390.347656 639.027344 C 1390.347656 642.210938 1390.503906 645.390625 1390.816406 648.558594 C 1391.128906 651.730469 1391.597656 654.875 1392.222656 658 C 1392.847656 661.121094 1393.625 664.207031 1394.554688 667.253906 C 1395.484375 670.300781 1396.5625 673.296875 1397.789062 676.234375 C 1399.015625 679.175781 1400.386719 682.046875 1401.894531 684.851562 C 1403.40625 687.65625 1405.050781 690.378906 1406.832031 693.019531 C 1408.613281 695.664062 1410.519531 698.210938 1412.550781 700.664062 C 1414.582031 703.117188 1416.730469 705.464844 1418.996094 707.703125 C 1425.691406 714.484375 1433.265625 720.074219 1441.71875 724.476562 C 1451.125 729.550781 1461.101562 732.984375 1471.636719 734.785156 L 1471.636719 754.835938 C 1471.636719 755.949219 1471.691406 757.054688 1471.800781 758.160156 C 1471.910156 759.265625 1472.074219 760.363281 1472.289062 761.453125 C 1472.507812 762.542969 1472.777344 763.617188 1473.097656 764.679688 C 1473.421875 765.742188 1473.792969 766.789062 1474.21875 767.8125 C 1474.644531 768.839844 1475.117188 769.84375 1475.640625 770.820312 C 1476.164062 771.800781 1476.734375 772.753906 1477.351562 773.675781 C 1477.96875 774.601562 1478.632812 775.492188 1479.335938 776.351562 C 1480.039062 777.207031 1480.785156 778.03125 1481.570312 778.816406 C 1482.355469 779.601562 1483.175781 780.34375 1484.035156 781.050781 C 1484.894531 781.753906 1485.785156 782.414062 1486.710938 783.03125 C 1487.632812 783.648438 1488.585938 784.21875 1489.5625 784.742188 C 1490.542969 785.265625 1491.546875 785.742188 1492.570312 786.167969 C 1493.597656 786.589844 1494.644531 786.964844 1495.707031 787.289062 C 1496.769531 787.609375 1497.84375 787.878906 1498.933594 788.097656 C 1500.023438 788.3125 1501.121094 788.476562 1502.226562 788.585938 C 1503.332031 788.691406 1504.4375 788.746094 1505.550781 788.746094 C 1506.660156 788.746094 1507.769531 788.691406 1508.875 788.585938 C 1509.980469 788.476562 1511.078125 788.3125 1512.164062 788.097656 C 1513.253906 787.878906 1514.332031 787.609375 1515.394531 787.289062 C 1516.457031 786.964844 1517.5 786.589844 1518.527344 786.167969 C 1519.554688 785.742188 1520.554688 785.265625 1521.535156 784.742188 C 1522.515625 784.21875 1523.464844 783.648438 1524.390625 783.03125 C 1525.3125 782.414062 1526.203125 781.753906 1527.0625 781.050781 C 1527.921875 780.34375 1528.742188 779.601562 1529.527344 778.816406 C 1530.3125 778.03125 1531.058594 777.207031 1531.765625 776.351562 C 1532.46875 775.492188 1533.128906 774.601562 1533.746094 773.675781 C 1534.363281 772.753906 1534.933594 771.800781 1535.457031 770.820312 C 1535.980469 769.84375 1536.453125 768.839844 1536.878906 767.8125 C 1537.304688 766.789062 1537.679688 765.742188 1538 764.679688 C 1538.324219 763.617188 1538.59375 762.542969 1538.808594 761.453125 C 1539.027344 760.363281 1539.1875 759.265625 1539.296875 758.160156 C 1539.40625 757.054688 1539.460938 755.949219 1539.460938 754.835938 L 1539.460938 734.785156 C 1544.4375 733.964844 1549.316406 732.765625 1554.105469 731.1875 C 1558.894531 729.609375 1563.53125 727.671875 1568.019531 725.375 C 1572.507812 723.078125 1576.792969 720.445312 1580.871094 717.484375 C 1584.949219 714.519531 1588.777344 711.261719 1592.347656 707.703125 C 1597.128906 702.800781 1601.371094 697.472656 1605.082031 691.714844 C 1607.613281 687.8125 1609.855469 683.75 1611.804688 679.527344 C 1613.753906 675.300781 1615.394531 670.960938 1616.71875 666.5 C 1618.046875 662.042969 1619.046875 657.511719 1619.722656 652.910156 C 1620.398438 648.304688 1620.742188 643.675781 1620.75 639.027344 C 1620.832031 631.632812 1619.941406 624.363281 1618.082031 617.210938 C 1617.148438 613.054688 1615.941406 608.984375 1614.453125 604.996094 C 1612.96875 601.003906 1611.21875 597.132812 1609.210938 593.378906 C 1607.199219 589.628906 1604.945312 586.027344 1602.445312 582.582031 C 1599.945312 579.132812 1597.226562 575.871094 1594.285156 572.796875 L 1592.347656 570.589844 C 1588.585938 566.785156 1584.507812 563.355469 1580.105469 560.308594 C 1576.011719 557.375 1571.714844 554.773438 1567.21875 552.511719 C 1562.71875 550.25 1558.070312 548.347656 1553.273438 546.8125 C 1548.476562 545.273438 1543.589844 544.117188 1538.613281 543.34375 C 1533.636719 542.566406 1528.632812 542.183594 1523.59375 542.191406 L 1487.113281 542.191406 C 1485.140625 542.140625 1483.195312 541.90625 1481.269531 541.480469 C 1479.347656 541.054688 1477.480469 540.449219 1475.671875 539.660156 C 1473.867188 538.875 1472.152344 537.921875 1470.53125 536.800781 C 1468.90625 535.683594 1467.40625 534.417969 1466.03125 533.007812 C 1464.8125 531.660156 1463.726562 530.210938 1462.773438 528.664062 C 1461.816406 527.117188 1461.011719 525.496094 1460.355469 523.800781 C 1459.699219 522.105469 1459.199219 520.367188 1458.863281 518.582031 C 1458.523438 516.792969 1458.351562 514.992188 1458.34375 513.175781 C 1458.363281 510.480469 1458.746094 507.835938 1459.496094 505.246094 C 1460.246094 502.65625 1461.328125 500.214844 1462.75 497.921875 C 1463.875 495.980469 1465.261719 494.25 1466.914062 492.730469 C 1468.242188 491.414062 1469.691406 490.234375 1471.25 489.199219 C 1472.8125 488.164062 1474.460938 487.289062 1476.191406 486.578125 C 1477.921875 485.863281 1479.707031 485.324219 1481.546875 484.957031 C 1483.382812 484.59375 1485.238281 484.410156 1487.113281 484.40625 L 1523.667969 484.40625 C 1525.542969 484.410156 1527.398438 484.59375 1529.234375 484.960938 C 1531.070312 485.324219 1532.855469 485.863281 1534.589844 486.578125 C 1536.320312 487.292969 1537.96875 488.167969 1539.527344 489.203125 C 1541.089844 490.238281 1542.535156 491.414062 1543.867188 492.730469 C 1547 495.851562 1549.265625 499.507812 1550.675781 503.699219 C 1551.898438 506.742188 1552.484375 509.898438 1552.4375 513.175781 C 1552.527344 514.234375 1552.667969 515.285156 1552.855469 516.332031 C 1553.042969 517.375 1553.277344 518.410156 1553.5625 519.433594 C 1553.84375 520.457031 1554.175781 521.464844 1554.550781 522.460938 C 1554.929688 523.453125 1555.351562 524.425781 1555.820312 525.378906 C 1556.289062 526.332031 1556.800781 527.261719 1557.351562 528.167969 C 1557.90625 529.074219 1558.503906 529.953125 1559.136719 530.804688 C 1559.773438 531.65625 1560.449219 532.472656 1561.160156 533.261719 C 1561.871094 534.050781 1562.621094 534.804688 1563.402344 535.523438 C 1564.183594 536.242188 1564.996094 536.921875 1565.84375 537.566406 C 1566.6875 538.207031 1567.5625 538.808594 1568.464844 539.371094 C 1569.363281 539.933594 1570.289062 540.453125 1571.238281 540.929688 C 1572.191406 541.402344 1573.160156 541.835938 1574.148438 542.21875 C 1575.140625 542.605469 1576.144531 542.945312 1577.164062 543.238281 C 1578.1875 543.527344 1579.21875 543.773438 1580.261719 543.96875 C 1581.308594 544.164062 1582.359375 544.3125 1583.414062 544.410156 C 1584.472656 544.511719 1585.53125 544.558594 1586.59375 544.558594 C 1587.65625 544.558594 1588.71875 544.511719 1589.773438 544.410156 C 1590.832031 544.3125 1591.882812 544.164062 1592.925781 543.96875 C 1593.972656 543.773438 1595.003906 543.527344 1596.023438 543.238281 C 1597.046875 542.945312 1598.050781 542.605469 1599.039062 542.21875 C 1600.03125 541.835938 1601 541.402344 1601.949219 540.929688 C 1602.898438 540.453125 1603.824219 539.933594 1604.726562 539.371094 C 1605.628906 538.808594 1606.5 538.207031 1607.347656 537.566406 C 1608.191406 536.921875 1609.007812 536.242188 1609.789062 535.523438 C 1610.570312 534.804688 1611.316406 534.050781 1612.03125 533.261719 C 1612.742188 532.472656 1613.414062 531.65625 1614.050781 530.804688 C 1614.6875 529.953125 1615.28125 529.074219 1615.835938 528.167969 C 1616.390625 527.261719 1616.902344 526.332031 1617.371094 525.378906 C 1617.835938 524.425781 1618.261719 523.453125 1618.636719 522.460938 C 1619.015625 521.464844 1619.34375 520.457031 1619.628906 519.433594 C 1619.914062 518.410156 1620.148438 517.375 1620.335938 516.332031 C 1620.523438 515.285156 1620.660156 514.234375 1620.75 513.175781 C 1620.804688 508.351562 1620.4375 503.5625 1619.648438 498.804688 C 1618.871094 493.71875 1617.695312 488.726562 1616.125 483.828125 C 1614.550781 478.929688 1612.597656 474.183594 1610.269531 469.597656 C 1607.941406 465.011719 1605.261719 460.636719 1602.234375 456.476562 C 1599.210938 452.316406 1595.875 448.417969 1592.226562 444.789062 C 1591.394531 443.902344 1590.496094 443.085938 1589.535156 442.34375 C 1586.085938 439.121094 1582.421875 436.171875 1578.539062 433.488281 C 1574.660156 430.804688 1570.605469 428.417969 1566.375 426.328125 C 1562.144531 424.238281 1557.785156 422.464844 1553.296875 421.015625 C 1548.808594 419.5625 1544.238281 418.445312 1539.582031 417.660156 Z M 1023.78125 984.453125 L 2000.734375 984.453125 C 2001.855469 984.453125 2002.976562 984.398438 2004.09375 984.285156 C 2005.210938 984.175781 2006.320312 984.011719 2007.421875 983.792969 C 2008.523438 983.574219 2009.609375 983.300781 2010.683594 982.976562 C 2011.757812 982.648438 2012.816406 982.273438 2013.851562 981.84375 C 2014.890625 981.414062 2015.902344 980.933594 2016.894531 980.402344 C 2017.882812 979.875 2018.84375 979.296875 2019.777344 978.675781 C 2020.710938 978.050781 2021.613281 977.382812 2022.480469 976.671875 C 2023.347656 975.957031 2024.179688 975.207031 2024.972656 974.410156 C 2025.765625 973.617188 2026.519531 972.789062 2027.230469 971.917969 C 2027.945312 971.050781 2028.613281 970.152344 2029.234375 969.21875 C 2029.859375 968.285156 2030.4375 967.324219 2030.964844 966.332031 C 2031.496094 965.34375 2031.972656 964.328125 2032.402344 963.292969 C 2032.832031 962.253906 2033.210938 961.199219 2033.535156 960.125 C 2033.863281 959.050781 2034.136719 957.960938 2034.355469 956.859375 C 2034.574219 955.761719 2034.738281 954.652344 2034.847656 953.535156 C 2034.957031 952.417969 2035.011719 951.296875 2035.011719 950.171875 C 2035.011719 949.050781 2034.957031 947.929688 2034.847656 946.8125 C 2034.738281 945.695312 2034.574219 944.585938 2034.355469 943.484375 C 2034.136719 942.386719 2033.863281 941.296875 2033.535156 940.222656 C 2033.210938 939.148438 2032.832031 938.09375 2032.402344 937.054688 C 2031.972656 936.019531 2031.496094 935.003906 2030.964844 934.015625 C 2030.4375 933.023438 2029.859375 932.0625 2029.234375 931.128906 C 2028.613281 930.195312 2027.945312 929.296875 2027.230469 928.425781 C 2026.519531 927.558594 2025.765625 926.730469 2024.972656 925.933594 C 2024.179688 925.140625 2023.347656 924.386719 2022.480469 923.675781 C 2021.613281 922.964844 2020.710938 922.296875 2019.777344 921.671875 C 2018.84375 921.046875 2017.882812 920.472656 2016.894531 919.941406 C 2015.902344 919.414062 2014.890625 918.933594 2013.851562 918.503906 C 2012.816406 918.074219 2011.757812 917.695312 2010.683594 917.371094 C 2009.609375 917.046875 2008.523438 916.773438 2007.421875 916.554688 C 2006.320312 916.335938 2005.210938 916.171875 2004.09375 916.058594 C 2002.976562 915.949219 2001.855469 915.894531 2000.734375 915.894531 L 1023.78125 915.894531 C 1022.660156 915.894531 1021.539062 915.949219 1020.421875 916.058594 C 1019.304688 916.171875 1018.195312 916.335938 1017.09375 916.554688 C 1015.996094 916.773438 1014.90625 917.046875 1013.832031 917.371094 C 1012.757812 917.695312 1011.703125 918.074219 1010.664062 918.503906 C 1009.628906 918.933594 1008.613281 919.414062 1007.625 919.941406 C 1006.632812 920.472656 1005.671875 921.046875 1004.738281 921.671875 C 1003.804688 922.296875 1002.90625 922.964844 1002.035156 923.675781 C 1001.167969 924.386719 1000.339844 925.140625 999.542969 925.933594 C 998.75 926.730469 997.996094 927.558594 997.285156 928.425781 C 996.574219 929.296875 995.90625 930.195312 995.28125 931.128906 C 994.65625 932.0625 994.082031 933.023438 993.550781 934.015625 C 993.023438 935.003906 992.542969 936.019531 992.113281 937.054688 C 991.683594 938.09375 991.304688 939.148438 990.980469 940.222656 C 990.652344 941.296875 990.382812 942.386719 990.164062 943.484375 C 989.945312 944.585938 989.777344 945.695312 989.667969 946.8125 C 989.558594 947.929688 989.503906 949.050781 989.503906 950.171875 C 989.503906 951.296875 989.558594 952.417969 989.667969 953.535156 C 989.777344 954.652344 989.945312 955.757812 990.164062 956.859375 C 990.382812 957.960938 990.65625 959.050781 990.980469 960.125 C 991.304688 961.199219 991.683594 962.253906 992.113281 963.292969 C 992.542969 964.328125 993.023438 965.34375 993.550781 966.332031 C 994.082031 967.324219 994.65625 968.285156 995.28125 969.21875 C 995.90625 970.152344 996.574219 971.050781 997.285156 971.917969 C 997.996094 972.789062 998.75 973.617188 999.542969 974.410156 C 1000.339844 975.207031 1001.167969 975.957031 1002.035156 976.671875 C 1002.90625 977.382812 1003.804688 978.050781 1004.738281 978.675781 C 1005.671875 979.296875 1006.632812 979.875 1007.625 980.40625 C 1008.613281 980.933594 1009.628906 981.414062 1010.664062 981.84375 C 1011.703125 982.273438 1012.757812 982.648438 1013.832031 982.976562 C 1014.90625 983.300781 1015.996094 983.574219 1017.09375 983.792969 C 1018.195312 984.011719 1019.304688 984.175781 1020.421875 984.285156 C 1021.539062 984.398438 1022.660156 984.453125 1023.78125 984.453125 Z M 1023.78125 984.453125 " fill-opacity="1" fill-rule="nonzero"/></g></svg>