<svg xmlns="http://www.w3.org/2000/svg" xmlns:xlink="http://www.w3.org/1999/xlink" width="1200" zoomAndPan="magnify" viewBox="0 0 900 525.000007" height="700" preserveAspectRatio="xMidYMid meet" version="1.0"><defs><g/><clipPath id="c4253da489"><path d="M 183.160156 20.601562 L 752.078125 20.601562 L 752.078125 510.167969 L 183.160156 510.167969 Z M 183.160156 20.601562 " clip-rule="nonzero"/></clipPath><clipPath id="44783bfdeb"><path d="M 206.019531 67 L 650.671875 67 L 650.671875 509 L 206.019531 509 Z M 206.019531 67 " clip-rule="nonzero"/></clipPath></defs><g clip-path="url(#c4253da489)"><path stroke-linecap="butt" transform="matrix(0.748097, 0, 0, 0.748556, 183.162052, 20.602128)" fill="none" stroke-linejoin="miter" d="M -0.00253354 -0.000756076 L 760.484002 -0.000756076 L 760.484002 654.013427 L -0.00253354 654.013427 L -0.00253354 -0.000756076 " stroke="#ffffff" stroke-width="8" stroke-opacity="1" stroke-miterlimit="4"/></g><g fill="#082a71" fill-opacity="1"><g transform="translate(251.537894, 45.663041)"><g><path d="M 7 0 L 2.78125 0 L 2.78125 -21.375 L 7 -21.375 Z M 7 0 "/></g></g><g transform="translate(261.333688, 45.663041)"><g><path d="M 7.546875 0.3125 C 6.441406 0.3125 5.429688 0.179688 4.515625 -0.078125 C 3.597656 -0.335938 2.816406 -0.691406 2.171875 -1.140625 C 1.523438 -1.597656 1.046875 -2.117188 0.734375 -2.703125 L 2.984375 -5.125 L 3.28125 -5.125 C 3.820312 -4.40625 4.457031 -3.863281 5.1875 -3.5 C 5.914062 -3.144531 6.710938 -2.96875 7.578125 -2.96875 C 8.359375 -2.96875 8.945312 -3.109375 9.34375 -3.390625 C 9.75 -3.671875 9.953125 -4.078125 9.953125 -4.609375 C 9.953125 -5.015625 9.804688 -5.351562 9.515625 -5.625 C 9.234375 -5.90625 8.769531 -6.125 8.125 -6.28125 L 6 -6.796875 C 4.394531 -7.179688 3.222656 -7.765625 2.484375 -8.546875 C 1.753906 -9.328125 1.390625 -10.320312 1.390625 -11.53125 C 1.390625 -12.539062 1.644531 -13.414062 2.15625 -14.15625 C 2.664062 -14.894531 3.382812 -15.457031 4.3125 -15.84375 C 5.25 -16.238281 6.335938 -16.4375 7.578125 -16.4375 C 9.023438 -16.4375 10.222656 -16.222656 11.171875 -15.796875 C 12.128906 -15.378906 12.878906 -14.820312 13.421875 -14.125 L 11.25 -11.78125 L 10.96875 -11.78125 C 10.519531 -12.289062 10.015625 -12.660156 9.453125 -12.890625 C 8.890625 -13.128906 8.265625 -13.25 7.578125 -13.25 C 5.972656 -13.25 5.171875 -12.75 5.171875 -11.75 C 5.171875 -11.332031 5.316406 -10.988281 5.609375 -10.71875 C 5.910156 -10.457031 6.4375 -10.25 7.1875 -10.09375 L 9.1875 -9.640625 C 10.820312 -9.296875 12.015625 -8.734375 12.765625 -7.953125 C 13.523438 -7.179688 13.90625 -6.144531 13.90625 -4.84375 C 13.90625 -3.8125 13.648438 -2.90625 13.140625 -2.125 C 12.628906 -1.351562 11.894531 -0.753906 10.9375 -0.328125 C 9.988281 0.0976562 8.859375 0.3125 7.546875 0.3125 Z M 7.546875 0.3125 "/></g></g><g transform="translate(276.202826, 45.663041)"><g><path d="M 7.546875 0.3125 C 6.441406 0.3125 5.429688 0.179688 4.515625 -0.078125 C 3.597656 -0.335938 2.816406 -0.691406 2.171875 -1.140625 C 1.523438 -1.597656 1.046875 -2.117188 0.734375 -2.703125 L 2.984375 -5.125 L 3.28125 -5.125 C 3.820312 -4.40625 4.457031 -3.863281 5.1875 -3.5 C 5.914062 -3.144531 6.710938 -2.96875 7.578125 -2.96875 C 8.359375 -2.96875 8.945312 -3.109375 9.34375 -3.390625 C 9.75 -3.671875 9.953125 -4.078125 9.953125 -4.609375 C 9.953125 -5.015625 9.804688 -5.351562 9.515625 -5.625 C 9.234375 -5.90625 8.769531 -6.125 8.125 -6.28125 L 6 -6.796875 C 4.394531 -7.179688 3.222656 -7.765625 2.484375 -8.546875 C 1.753906 -9.328125 1.390625 -10.320312 1.390625 -11.53125 C 1.390625 -12.539062 1.644531 -13.414062 2.15625 -14.15625 C 2.664062 -14.894531 3.382812 -15.457031 4.3125 -15.84375 C 5.25 -16.238281 6.335938 -16.4375 7.578125 -16.4375 C 9.023438 -16.4375 10.222656 -16.222656 11.171875 -15.796875 C 12.128906 -15.378906 12.878906 -14.820312 13.421875 -14.125 L 11.25 -11.78125 L 10.96875 -11.78125 C 10.519531 -12.289062 10.015625 -12.660156 9.453125 -12.890625 C 8.890625 -13.128906 8.265625 -13.25 7.578125 -13.25 C 5.972656 -13.25 5.171875 -12.75 5.171875 -11.75 C 5.171875 -11.332031 5.316406 -10.988281 5.609375 -10.71875 C 5.910156 -10.457031 6.4375 -10.25 7.1875 -10.09375 L 9.1875 -9.640625 C 10.820312 -9.296875 12.015625 -8.734375 12.765625 -7.953125 C 13.523438 -7.179688 13.90625 -6.144531 13.90625 -4.84375 C 13.90625 -3.8125 13.648438 -2.90625 13.140625 -2.125 C 12.628906 -1.351562 11.894531 -0.753906 10.9375 -0.328125 C 9.988281 0.0976562 8.859375 0.3125 7.546875 0.3125 Z M 7.546875 0.3125 "/></g></g><g transform="translate(291.071964, 45.663041)"><g><path d="M 7.375 0.3125 C 5.5625 0.3125 4.222656 -0.179688 3.359375 -1.171875 C 2.503906 -2.160156 2.078125 -3.582031 2.078125 -5.4375 L 2.078125 -16.125 L 6.125 -16.125 L 6.125 -5.953125 C 6.125 -4.960938 6.332031 -4.238281 6.75 -3.78125 C 7.175781 -3.332031 7.835938 -3.109375 8.734375 -3.109375 C 9.847656 -3.109375 10.71875 -3.476562 11.34375 -4.21875 C 11.96875 -4.957031 12.28125 -6.113281 12.28125 -7.6875 L 12.28125 -16.125 L 16.328125 -16.125 L 16.328125 0 L 12.4375 0 L 12.4375 -2.375 L 12.140625 -2.4375 C 11.617188 -1.507812 10.984375 -0.816406 10.234375 -0.359375 C 9.492188 0.0859375 8.539062 0.3125 7.375 0.3125 Z M 7.375 0.3125 "/></g></g><g transform="translate(309.727835, 45.663041)"><g><path d="M 6.28125 0.3125 C 5.25 0.3125 4.351562 0.125 3.59375 -0.25 C 2.832031 -0.632812 2.25 -1.195312 1.84375 -1.9375 C 1.4375 -2.675781 1.234375 -3.5625 1.234375 -4.59375 C 1.234375 -5.539062 1.4375 -6.335938 1.84375 -6.984375 C 2.25 -7.640625 2.878906 -8.171875 3.734375 -8.578125 C 4.597656 -8.992188 5.722656 -9.316406 7.109375 -9.546875 C 8.066406 -9.703125 8.796875 -9.867188 9.296875 -10.046875 C 9.804688 -10.234375 10.144531 -10.441406 10.3125 -10.671875 C 10.488281 -10.910156 10.578125 -11.210938 10.578125 -11.578125 C 10.578125 -12.097656 10.394531 -12.492188 10.03125 -12.765625 C 9.675781 -13.035156 9.082031 -13.171875 8.25 -13.171875 C 7.351562 -13.171875 6.5 -12.96875 5.6875 -12.5625 C 4.875 -12.164062 4.171875 -11.644531 3.578125 -11 L 3.28125 -11 L 1.59375 -13.546875 C 2.414062 -14.453125 3.414062 -15.160156 4.59375 -15.671875 C 5.769531 -16.179688 7.054688 -16.4375 8.453125 -16.4375 C 10.585938 -16.4375 12.128906 -15.984375 13.078125 -15.078125 C 14.035156 -14.171875 14.515625 -12.882812 14.515625 -11.21875 L 14.515625 -4.203125 C 14.515625 -3.484375 14.832031 -3.125 15.46875 -3.125 C 15.707031 -3.125 15.945312 -3.171875 16.1875 -3.265625 L 16.390625 -3.203125 L 16.671875 -0.375 C 16.453125 -0.226562 16.140625 -0.109375 15.734375 -0.015625 C 15.335938 0.0664062 14.898438 0.109375 14.421875 0.109375 C 13.460938 0.109375 12.710938 -0.0703125 12.171875 -0.4375 C 11.628906 -0.8125 11.238281 -1.390625 11 -2.171875 L 10.703125 -2.203125 C 9.910156 -0.523438 8.4375 0.3125 6.28125 0.3125 Z M 7.578125 -2.71875 C 8.503906 -2.71875 9.25 -3.03125 9.8125 -3.65625 C 10.375 -4.289062 10.65625 -5.164062 10.65625 -6.28125 L 10.65625 -7.921875 L 10.375 -7.984375 C 10.132812 -7.785156 9.816406 -7.617188 9.421875 -7.484375 C 9.023438 -7.359375 8.457031 -7.234375 7.71875 -7.109375 C 6.84375 -6.960938 6.210938 -6.707031 5.828125 -6.34375 C 5.441406 -5.988281 5.25 -5.488281 5.25 -4.84375 C 5.25 -4.144531 5.453125 -3.613281 5.859375 -3.25 C 6.265625 -2.894531 6.835938 -2.71875 7.578125 -2.71875 Z M 7.578125 -2.71875 "/></g></g><g transform="translate(326.731579, 45.663041)"><g><path d="M 2.328125 0 L 2.328125 -16.125 L 6.21875 -16.125 L 6.21875 -13.75 L 6.515625 -13.6875 C 7.523438 -15.519531 9.15625 -16.4375 11.40625 -16.4375 C 13.257812 -16.4375 14.625 -15.925781 15.5 -14.90625 C 16.375 -13.894531 16.8125 -12.421875 16.8125 -10.484375 L 16.8125 0 L 12.765625 0 L 12.765625 -9.984375 C 12.765625 -11.054688 12.546875 -11.828125 12.109375 -12.296875 C 11.679688 -12.773438 11 -13.015625 10.0625 -13.015625 C 8.894531 -13.015625 7.988281 -12.640625 7.34375 -11.890625 C 6.695312 -11.140625 6.375 -9.957031 6.375 -8.34375 L 6.375 0 Z M 2.328125 0 "/></g></g><g transform="translate(345.62138, 45.663041)"><g><path d="M 9.40625 0.3125 C 7.84375 0.3125 6.460938 -0.0078125 5.265625 -0.65625 C 4.066406 -1.3125 3.128906 -2.265625 2.453125 -3.515625 C 1.785156 -4.773438 1.453125 -6.285156 1.453125 -8.046875 C 1.453125 -9.828125 1.785156 -11.34375 2.453125 -12.59375 C 3.128906 -13.851562 4.0625 -14.804688 5.25 -15.453125 C 6.4375 -16.109375 7.796875 -16.4375 9.328125 -16.4375 C 12.722656 -16.4375 14.898438 -15.203125 15.859375 -12.734375 L 13.078125 -10.75 L 12.78125 -10.75 C 12.445312 -11.507812 12.015625 -12.070312 11.484375 -12.4375 C 10.953125 -12.8125 10.234375 -13 9.328125 -13 C 8.160156 -13 7.25 -12.59375 6.59375 -11.78125 C 5.9375 -10.96875 5.609375 -9.722656 5.609375 -8.046875 C 5.609375 -6.390625 5.9375 -5.15625 6.59375 -4.34375 C 7.257812 -3.53125 8.195312 -3.125 9.40625 -3.125 C 10.28125 -3.125 11.019531 -3.359375 11.625 -3.828125 C 12.238281 -4.304688 12.675781 -4.988281 12.9375 -5.875 L 13.25 -5.90625 L 16.125 -4.328125 C 15.71875 -2.960938 14.957031 -1.847656 13.84375 -0.984375 C 12.738281 -0.117188 11.257812 0.3125 9.40625 0.3125 Z M 9.40625 0.3125 "/></g></g><g transform="translate(362.244989, 45.663041)"><g><path d="M 15.9375 -7.140625 L 5.5625 -7.140625 C 5.6875 -5.742188 6.085938 -4.722656 6.765625 -4.078125 C 7.453125 -3.441406 8.382812 -3.125 9.5625 -3.125 C 10.488281 -3.125 11.238281 -3.296875 11.8125 -3.640625 C 12.382812 -3.992188 12.847656 -4.519531 13.203125 -5.21875 L 13.5 -5.21875 L 16.203125 -3.5 C 15.671875 -2.363281 14.875 -1.441406 13.8125 -0.734375 C 12.75 -0.0351562 11.332031 0.3125 9.5625 0.3125 C 7.894531 0.3125 6.453125 -0.00390625 5.234375 -0.640625 C 4.023438 -1.273438 3.09375 -2.21875 2.4375 -3.46875 C 1.78125 -4.71875 1.453125 -6.242188 1.453125 -8.046875 C 1.453125 -9.878906 1.796875 -11.425781 2.484375 -12.6875 C 3.171875 -13.945312 4.101562 -14.882812 5.28125 -15.5 C 6.46875 -16.125 7.796875 -16.4375 9.265625 -16.4375 C 11.546875 -16.4375 13.289062 -15.832031 14.5 -14.625 C 15.71875 -13.414062 16.328125 -11.640625 16.328125 -9.296875 C 16.328125 -8.453125 16.296875 -7.796875 16.234375 -7.328125 Z M 12.453125 -9.765625 C 12.410156 -10.992188 12.125 -11.882812 11.59375 -12.4375 C 11.0625 -13 10.285156 -13.28125 9.265625 -13.28125 C 7.222656 -13.28125 6.019531 -12.109375 5.65625 -9.765625 Z M 12.453125 -9.765625 "/></g></g><g transform="translate(379.775074, 45.663041)"><g/></g><g transform="translate(386.836818, 45.663041)"><g><path d="M 9.375 0.3125 C 7.789062 0.3125 6.398438 -0.0078125 5.203125 -0.65625 C 4.015625 -1.3125 3.09375 -2.265625 2.4375 -3.515625 C 1.78125 -4.765625 1.453125 -6.273438 1.453125 -8.046875 C 1.453125 -9.828125 1.78125 -11.34375 2.4375 -12.59375 C 3.09375 -13.851562 4.015625 -14.804688 5.203125 -15.453125 C 6.398438 -16.109375 7.789062 -16.4375 9.375 -16.4375 C 10.945312 -16.4375 12.328125 -16.109375 13.515625 -15.453125 C 14.710938 -14.804688 15.644531 -13.851562 16.3125 -12.59375 C 16.976562 -11.34375 17.3125 -9.828125 17.3125 -8.046875 C 17.3125 -6.273438 16.976562 -4.765625 16.3125 -3.515625 C 15.644531 -2.265625 14.710938 -1.3125 13.515625 -0.65625 C 12.328125 -0.0078125 10.945312 0.3125 9.375 0.3125 Z M 9.375 -3.125 C 11.875 -3.125 13.125 -4.765625 13.125 -8.046875 C 13.125 -9.753906 12.800781 -11.003906 12.15625 -11.796875 C 11.519531 -12.597656 10.59375 -13 9.375 -13 C 6.863281 -13 5.609375 -11.347656 5.609375 -8.046875 C 5.609375 -4.765625 6.863281 -3.125 9.375 -3.125 Z M 9.375 -3.125 "/></g></g><g transform="translate(405.580412, 45.663041)"><g><path d="M 2.828125 0 L 2.828125 -12.921875 L 0.546875 -12.921875 L 0.546875 -16.140625 L 2.828125 -16.140625 C 2.660156 -16.816406 2.578125 -17.453125 2.578125 -18.046875 C 2.578125 -19.078125 2.804688 -19.953125 3.265625 -20.671875 C 3.734375 -21.398438 4.40625 -21.953125 5.28125 -22.328125 C 6.164062 -22.710938 7.210938 -22.90625 8.421875 -22.90625 C 10.203125 -22.90625 11.53125 -22.597656 12.40625 -21.984375 L 11.453125 -19 L 11.15625 -18.9375 C 10.550781 -19.375 9.773438 -19.59375 8.828125 -19.59375 C 8.097656 -19.59375 7.550781 -19.410156 7.1875 -19.046875 C 6.820312 -18.691406 6.640625 -18.207031 6.640625 -17.59375 C 6.640625 -17.332031 6.65625 -17.09375 6.6875 -16.875 C 6.71875 -16.65625 6.78125 -16.410156 6.875 -16.140625 L 11.46875 -16.140625 L 11.46875 -12.921875 L 6.875 -12.921875 L 6.875 0 Z M 2.828125 0 "/></g></g><g transform="translate(417.218401, 45.663041)"><g/></g><g transform="translate(424.280145, 45.663041)"><g><path d="M 9.40625 0.3125 C 7.84375 0.3125 6.460938 -0.0078125 5.265625 -0.65625 C 4.066406 -1.3125 3.128906 -2.265625 2.453125 -3.515625 C 1.785156 -4.773438 1.453125 -6.285156 1.453125 -8.046875 C 1.453125 -9.828125 1.785156 -11.34375 2.453125 -12.59375 C 3.128906 -13.851562 4.0625 -14.804688 5.25 -15.453125 C 6.4375 -16.109375 7.796875 -16.4375 9.328125 -16.4375 C 12.722656 -16.4375 14.898438 -15.203125 15.859375 -12.734375 L 13.078125 -10.75 L 12.78125 -10.75 C 12.445312 -11.507812 12.015625 -12.070312 11.484375 -12.4375 C 10.953125 -12.8125 10.234375 -13 9.328125 -13 C 8.160156 -13 7.25 -12.59375 6.59375 -11.78125 C 5.9375 -10.96875 5.609375 -9.722656 5.609375 -8.046875 C 5.609375 -6.390625 5.9375 -5.15625 6.59375 -4.34375 C 7.257812 -3.53125 8.195312 -3.125 9.40625 -3.125 C 10.28125 -3.125 11.019531 -3.359375 11.625 -3.828125 C 12.238281 -4.304688 12.675781 -4.988281 12.9375 -5.875 L 13.25 -5.90625 L 16.125 -4.328125 C 15.71875 -2.960938 14.957031 -1.847656 13.84375 -0.984375 C 12.738281 -0.117188 11.257812 0.3125 9.40625 0.3125 Z M 9.40625 0.3125 "/></g></g><g transform="translate(440.903754, 45.663041)"><g><path d="M 15.9375 -7.140625 L 5.5625 -7.140625 C 5.6875 -5.742188 6.085938 -4.722656 6.765625 -4.078125 C 7.453125 -3.441406 8.382812 -3.125 9.5625 -3.125 C 10.488281 -3.125 11.238281 -3.296875 11.8125 -3.640625 C 12.382812 -3.992188 12.847656 -4.519531 13.203125 -5.21875 L 13.5 -5.21875 L 16.203125 -3.5 C 15.671875 -2.363281 14.875 -1.441406 13.8125 -0.734375 C 12.75 -0.0351562 11.332031 0.3125 9.5625 0.3125 C 7.894531 0.3125 6.453125 -0.00390625 5.234375 -0.640625 C 4.023438 -1.273438 3.09375 -2.21875 2.4375 -3.46875 C 1.78125 -4.71875 1.453125 -6.242188 1.453125 -8.046875 C 1.453125 -9.878906 1.796875 -11.425781 2.484375 -12.6875 C 3.171875 -13.945312 4.101562 -14.882812 5.28125 -15.5 C 6.46875 -16.125 7.796875 -16.4375 9.265625 -16.4375 C 11.546875 -16.4375 13.289062 -15.832031 14.5 -14.625 C 15.71875 -13.414062 16.328125 -11.640625 16.328125 -9.296875 C 16.328125 -8.453125 16.296875 -7.796875 16.234375 -7.328125 Z M 12.453125 -9.765625 C 12.410156 -10.992188 12.125 -11.882812 11.59375 -12.4375 C 11.0625 -13 10.285156 -13.28125 9.265625 -13.28125 C 7.222656 -13.28125 6.019531 -12.109375 5.65625 -9.765625 Z M 12.453125 -9.765625 "/></g></g><g transform="translate(458.433839, 45.663041)"><g><path d="M 2.328125 0 L 2.328125 -16.125 L 6.25 -16.125 L 6.25 -13.71875 L 6.5625 -13.671875 C 6.945312 -14.566406 7.457031 -15.222656 8.09375 -15.640625 C 8.726562 -16.054688 9.5 -16.265625 10.40625 -16.265625 C 11.320312 -16.265625 12.019531 -16.109375 12.5 -15.796875 L 11.8125 -12.3125 L 11.5 -12.25 C 11.238281 -12.351562 10.984375 -12.429688 10.734375 -12.484375 C 10.492188 -12.535156 10.203125 -12.5625 9.859375 -12.5625 C 8.722656 -12.5625 7.859375 -12.160156 7.265625 -11.359375 C 6.671875 -10.566406 6.375 -9.296875 6.375 -7.546875 L 6.375 0 Z M 2.328125 0 "/></g></g><g transform="translate(471.080648, 45.663041)"><g><path d="M 11.125 -3.84375 L 12.171875 -0.84375 C 11.734375 -0.488281 11.179688 -0.207031 10.515625 0 C 9.859375 0.207031 9.113281 0.3125 8.28125 0.3125 C 6.53125 0.3125 5.203125 -0.160156 4.296875 -1.109375 C 3.390625 -2.066406 2.9375 -3.453125 2.9375 -5.265625 L 2.9375 -12.921875 L 0.484375 -12.921875 L 0.484375 -16.140625 L 2.9375 -16.140625 L 2.9375 -19.28125 L 6.984375 -19.9375 L 6.984375 -16.140625 L 11.5625 -16.140625 L 11.5625 -12.921875 L 6.984375 -12.921875 L 6.984375 -5.5625 C 6.984375 -4.757812 7.148438 -4.175781 7.484375 -3.8125 C 7.816406 -3.445312 8.300781 -3.265625 8.9375 -3.265625 C 9.65625 -3.265625 10.28125 -3.457031 10.8125 -3.84375 Z M 11.125 -3.84375 "/></g></g><g transform="translate(483.610492, 45.663041)"><g><path d="M 4.34375 -18.046875 C 3.613281 -18.046875 3.019531 -18.269531 2.5625 -18.71875 C 2.101562 -19.164062 1.875 -19.738281 1.875 -20.4375 C 1.875 -21.125 2.101562 -21.6875 2.5625 -22.125 C 3.019531 -22.570312 3.613281 -22.796875 4.34375 -22.796875 C 4.832031 -22.796875 5.265625 -22.691406 5.640625 -22.484375 C 6.023438 -22.285156 6.320312 -22.007812 6.53125 -21.65625 C 6.738281 -21.300781 6.84375 -20.894531 6.84375 -20.4375 C 6.84375 -19.976562 6.738281 -19.566406 6.53125 -19.203125 C 6.320312 -18.847656 6.023438 -18.566406 5.640625 -18.359375 C 5.265625 -18.148438 4.832031 -18.046875 4.34375 -18.046875 Z M 2.328125 0 L 2.328125 -16.125 L 6.375 -16.125 L 6.375 0 Z M 2.328125 0 "/></g></g><g transform="translate(492.295122, 45.663041)"><g><path d="M 2.828125 0 L 2.828125 -12.921875 L 0.546875 -12.921875 L 0.546875 -16.140625 L 2.828125 -16.140625 C 2.660156 -16.816406 2.578125 -17.453125 2.578125 -18.046875 C 2.578125 -19.078125 2.804688 -19.953125 3.265625 -20.671875 C 3.734375 -21.398438 4.40625 -21.953125 5.28125 -22.328125 C 6.164062 -22.710938 7.210938 -22.90625 8.421875 -22.90625 C 10.203125 -22.90625 11.53125 -22.597656 12.40625 -21.984375 L 11.453125 -19 L 11.15625 -18.9375 C 10.550781 -19.375 9.773438 -19.59375 8.828125 -19.59375 C 8.097656 -19.59375 7.550781 -19.410156 7.1875 -19.046875 C 6.820312 -18.691406 6.640625 -18.207031 6.640625 -17.59375 C 6.640625 -17.332031 6.65625 -17.09375 6.6875 -16.875 C 6.71875 -16.65625 6.78125 -16.410156 6.875 -16.140625 L 11.46875 -16.140625 L 11.46875 -12.921875 L 6.875 -12.921875 L 6.875 0 Z M 2.828125 0 "/></g></g><g transform="translate(503.93311, 45.663041)"><g><path d="M 4.34375 -18.046875 C 3.613281 -18.046875 3.019531 -18.269531 2.5625 -18.71875 C 2.101562 -19.164062 1.875 -19.738281 1.875 -20.4375 C 1.875 -21.125 2.101562 -21.6875 2.5625 -22.125 C 3.019531 -22.570312 3.613281 -22.796875 4.34375 -22.796875 C 4.832031 -22.796875 5.265625 -22.691406 5.640625 -22.484375 C 6.023438 -22.285156 6.320312 -22.007812 6.53125 -21.65625 C 6.738281 -21.300781 6.84375 -20.894531 6.84375 -20.4375 C 6.84375 -19.976562 6.738281 -19.566406 6.53125 -19.203125 C 6.320312 -18.847656 6.023438 -18.566406 5.640625 -18.359375 C 5.265625 -18.148438 4.832031 -18.046875 4.34375 -18.046875 Z M 2.328125 0 L 2.328125 -16.125 L 6.375 -16.125 L 6.375 0 Z M 2.328125 0 "/></g></g><g transform="translate(512.61774, 45.663041)"><g><path d="M 9.40625 0.3125 C 7.84375 0.3125 6.460938 -0.0078125 5.265625 -0.65625 C 4.066406 -1.3125 3.128906 -2.265625 2.453125 -3.515625 C 1.785156 -4.773438 1.453125 -6.285156 1.453125 -8.046875 C 1.453125 -9.828125 1.785156 -11.34375 2.453125 -12.59375 C 3.128906 -13.851562 4.0625 -14.804688 5.25 -15.453125 C 6.4375 -16.109375 7.796875 -16.4375 9.328125 -16.4375 C 12.722656 -16.4375 14.898438 -15.203125 15.859375 -12.734375 L 13.078125 -10.75 L 12.78125 -10.75 C 12.445312 -11.507812 12.015625 -12.070312 11.484375 -12.4375 C 10.953125 -12.8125 10.234375 -13 9.328125 -13 C 8.160156 -13 7.25 -12.59375 6.59375 -11.78125 C 5.9375 -10.96875 5.609375 -9.722656 5.609375 -8.046875 C 5.609375 -6.390625 5.9375 -5.15625 6.59375 -4.34375 C 7.257812 -3.53125 8.195312 -3.125 9.40625 -3.125 C 10.28125 -3.125 11.019531 -3.359375 11.625 -3.828125 C 12.238281 -4.304688 12.675781 -4.988281 12.9375 -5.875 L 13.25 -5.90625 L 16.125 -4.328125 C 15.71875 -2.960938 14.957031 -1.847656 13.84375 -0.984375 C 12.738281 -0.117188 11.257812 0.3125 9.40625 0.3125 Z M 9.40625 0.3125 "/></g></g><g transform="translate(529.241348, 45.663041)"><g><path d="M 6.28125 0.3125 C 5.25 0.3125 4.351562 0.125 3.59375 -0.25 C 2.832031 -0.632812 2.25 -1.195312 1.84375 -1.9375 C 1.4375 -2.675781 1.234375 -3.5625 1.234375 -4.59375 C 1.234375 -5.539062 1.4375 -6.335938 1.84375 -6.984375 C 2.25 -7.640625 2.878906 -8.171875 3.734375 -8.578125 C 4.597656 -8.992188 5.722656 -9.316406 7.109375 -9.546875 C 8.066406 -9.703125 8.796875 -9.867188 9.296875 -10.046875 C 9.804688 -10.234375 10.144531 -10.441406 10.3125 -10.671875 C 10.488281 -10.910156 10.578125 -11.210938 10.578125 -11.578125 C 10.578125 -12.097656 10.394531 -12.492188 10.03125 -12.765625 C 9.675781 -13.035156 9.082031 -13.171875 8.25 -13.171875 C 7.351562 -13.171875 6.5 -12.96875 5.6875 -12.5625 C 4.875 -12.164062 4.171875 -11.644531 3.578125 -11 L 3.28125 -11 L 1.59375 -13.546875 C 2.414062 -14.453125 3.414062 -15.160156 4.59375 -15.671875 C 5.769531 -16.179688 7.054688 -16.4375 8.453125 -16.4375 C 10.585938 -16.4375 12.128906 -15.984375 13.078125 -15.078125 C 14.035156 -14.171875 14.515625 -12.882812 14.515625 -11.21875 L 14.515625 -4.203125 C 14.515625 -3.484375 14.832031 -3.125 15.46875 -3.125 C 15.707031 -3.125 15.945312 -3.171875 16.1875 -3.265625 L 16.390625 -3.203125 L 16.671875 -0.375 C 16.453125 -0.226562 16.140625 -0.109375 15.734375 -0.015625 C 15.335938 0.0664062 14.898438 0.109375 14.421875 0.109375 C 13.460938 0.109375 12.710938 -0.0703125 12.171875 -0.4375 C 11.628906 -0.8125 11.238281 -1.390625 11 -2.171875 L 10.703125 -2.203125 C 9.910156 -0.523438 8.4375 0.3125 6.28125 0.3125 Z M 7.578125 -2.71875 C 8.503906 -2.71875 9.25 -3.03125 9.8125 -3.65625 C 10.375 -4.289062 10.65625 -5.164062 10.65625 -6.28125 L 10.65625 -7.921875 L 10.375 -7.984375 C 10.132812 -7.785156 9.816406 -7.617188 9.421875 -7.484375 C 9.023438 -7.359375 8.457031 -7.234375 7.71875 -7.109375 C 6.84375 -6.960938 6.210938 -6.707031 5.828125 -6.34375 C 5.441406 -5.988281 5.25 -5.488281 5.25 -4.84375 C 5.25 -4.144531 5.453125 -3.613281 5.859375 -3.25 C 6.265625 -2.894531 6.835938 -2.71875 7.578125 -2.71875 Z M 7.578125 -2.71875 "/></g></g><g transform="translate(546.245093, 45.663041)"><g><path d="M 11.125 -3.84375 L 12.171875 -0.84375 C 11.734375 -0.488281 11.179688 -0.207031 10.515625 0 C 9.859375 0.207031 9.113281 0.3125 8.28125 0.3125 C 6.53125 0.3125 5.203125 -0.160156 4.296875 -1.109375 C 3.390625 -2.066406 2.9375 -3.453125 2.9375 -5.265625 L 2.9375 -12.921875 L 0.484375 -12.921875 L 0.484375 -16.140625 L 2.9375 -16.140625 L 2.9375 -19.28125 L 6.984375 -19.9375 L 6.984375 -16.140625 L 11.5625 -16.140625 L 11.5625 -12.921875 L 6.984375 -12.921875 L 6.984375 -5.5625 C 6.984375 -4.757812 7.148438 -4.175781 7.484375 -3.8125 C 7.816406 -3.445312 8.300781 -3.265625 8.9375 -3.265625 C 9.65625 -3.265625 10.28125 -3.457031 10.8125 -3.84375 Z M 11.125 -3.84375 "/></g></g><g transform="translate(558.774937, 45.663041)"><g><path d="M 4.34375 -18.046875 C 3.613281 -18.046875 3.019531 -18.269531 2.5625 -18.71875 C 2.101562 -19.164062 1.875 -19.738281 1.875 -20.4375 C 1.875 -21.125 2.101562 -21.6875 2.5625 -22.125 C 3.019531 -22.570312 3.613281 -22.796875 4.34375 -22.796875 C 4.832031 -22.796875 5.265625 -22.691406 5.640625 -22.484375 C 6.023438 -22.285156 6.320312 -22.007812 6.53125 -21.65625 C 6.738281 -21.300781 6.84375 -20.894531 6.84375 -20.4375 C 6.84375 -19.976562 6.738281 -19.566406 6.53125 -19.203125 C 6.320312 -18.847656 6.023438 -18.566406 5.640625 -18.359375 C 5.265625 -18.148438 4.832031 -18.046875 4.34375 -18.046875 Z M 2.328125 0 L 2.328125 -16.125 L 6.375 -16.125 L 6.375 0 Z M 2.328125 0 "/></g></g><g transform="translate(567.459566, 45.663041)"><g><path d="M 9.375 0.3125 C 7.789062 0.3125 6.398438 -0.0078125 5.203125 -0.65625 C 4.015625 -1.3125 3.09375 -2.265625 2.4375 -3.515625 C 1.78125 -4.765625 1.453125 -6.273438 1.453125 -8.046875 C 1.453125 -9.828125 1.78125 -11.34375 2.4375 -12.59375 C 3.09375 -13.851562 4.015625 -14.804688 5.203125 -15.453125 C 6.398438 -16.109375 7.789062 -16.4375 9.375 -16.4375 C 10.945312 -16.4375 12.328125 -16.109375 13.515625 -15.453125 C 14.710938 -14.804688 15.644531 -13.851562 16.3125 -12.59375 C 16.976562 -11.34375 17.3125 -9.828125 17.3125 -8.046875 C 17.3125 -6.273438 16.976562 -4.765625 16.3125 -3.515625 C 15.644531 -2.265625 14.710938 -1.3125 13.515625 -0.65625 C 12.328125 -0.0078125 10.945312 0.3125 9.375 0.3125 Z M 9.375 -3.125 C 11.875 -3.125 13.125 -4.765625 13.125 -8.046875 C 13.125 -9.753906 12.800781 -11.003906 12.15625 -11.796875 C 11.519531 -12.597656 10.59375 -13 9.375 -13 C 6.863281 -13 5.609375 -11.347656 5.609375 -8.046875 C 5.609375 -4.765625 6.863281 -3.125 9.375 -3.125 Z M 9.375 -3.125 "/></g></g><g transform="translate(586.20316, 45.663041)"><g><path d="M 2.328125 0 L 2.328125 -16.125 L 6.21875 -16.125 L 6.21875 -13.75 L 6.515625 -13.6875 C 7.523438 -15.519531 9.15625 -16.4375 11.40625 -16.4375 C 13.257812 -16.4375 14.625 -15.925781 15.5 -14.90625 C 16.375 -13.894531 16.8125 -12.421875 16.8125 -10.484375 L 16.8125 0 L 12.765625 0 L 12.765625 -9.984375 C 12.765625 -11.054688 12.546875 -11.828125 12.109375 -12.296875 C 11.679688 -12.773438 11 -13.015625 10.0625 -13.015625 C 8.894531 -13.015625 7.988281 -12.640625 7.34375 -11.890625 C 6.695312 -11.140625 6.375 -9.957031 6.375 -8.34375 L 6.375 0 Z M 2.328125 0 "/></g></g></g><g clip-path="url(#44783bfdeb)"><path fill="#082a71" d="M 645.699219 123.171875 L 594.785156 72.257812 C 591.601562 69.074219 587.285156 67.285156 582.785156 67.285156 L 311.242188 67.285156 C 301.867188 67.285156 294.269531 74.882812 294.269531 84.257812 L 294.269531 151.933594 C 286.996094 154.4375 280.085938 158.375 273.964844 163.984375 C 259.820312 164.597656 247.183594 169.761719 237.761719 178.902344 C 227.949219 188.414062 222.28125 201.65625 221.402344 216.761719 C 211.34375 228.050781 205.988281 241.425781 206.195312 255.082031 C 206.394531 268.207031 211.683594 280.804688 221.253906 291.246094 C 221.867188 305.390625 227.03125 318.027344 236.171875 327.449219 C 238.359375 329.707031 240.792969 331.691406 243.355469 333.5 L 243.355469 440.65625 C 243.355469 446.914062 246.800781 452.664062 252.320312 455.625 C 257.808594 458.566406 264.511719 458.25 269.742188 454.777344 L 294.269531 438.425781 L 294.269531 491.570312 C 294.269531 500.945312 301.867188 508.542969 311.242188 508.542969 L 633.699219 508.542969 C 643.070312 508.542969 650.671875 500.945312 650.671875 491.570312 L 650.671875 135.171875 C 650.671875 130.671875 648.878906 126.355469 645.699219 123.171875 Z M 582.785156 108.253906 L 609.699219 135.171875 L 582.785156 135.171875 Z M 260.535156 303.816406 C 255.378906 298.503906 254.816406 290.9375 255.246094 285.527344 C 255.6875 280.089844 253.488281 274.78125 249.339844 271.25 C 245.203125 267.726562 240.246094 261.976562 240.140625 254.574219 C 240.050781 248.410156 243.355469 242.113281 249.71875 236.363281 C 253.5 232.949219 255.535156 228.015625 255.28125 222.929688 C 254.859375 214.359375 256.96875 207.554688 261.394531 203.265625 C 266.714844 198.117188 274.296875 197.613281 279.683594 197.976562 C 285.269531 198.53125 290.433594 196.21875 293.964844 192.070312 C 297.484375 187.933594 303.234375 182.976562 310.636719 182.871094 C 316.777344 182.488281 323.089844 186.085938 328.851562 192.449219 C 332.265625 196.21875 337.15625 198.308594 342.285156 198.011719 C 350.820312 197.621094 357.65625 199.691406 361.949219 204.125 C 367.101562 209.4375 367.667969 217.003906 367.234375 222.414062 C 366.796875 227.851562 368.992188 233.164062 373.144531 236.691406 C 377.277344 240.214844 382.234375 245.964844 382.34375 253.367188 C 382.433594 259.53125 379.128906 265.828125 372.761719 271.582031 C 368.984375 274.996094 366.945312 279.925781 367.203125 285.015625 C 367.625 293.582031 365.511719 300.386719 361.085938 304.679688 C 355.78125 309.839844 348.226562 310.371094 342.796875 309.964844 C 337.320312 309.527344 332.058594 311.730469 328.519531 315.875 C 324.996094 320.007812 319.246094 324.964844 311.847656 325.074219 C 305.679688 324.914062 299.382812 321.847656 293.632812 315.492188 C 290.261719 311.769531 285.222656 309.636719 280.199219 309.933594 C 271.621094 310.289062 264.828125 308.242188 260.535156 303.816406 Z M 301.828125 392.59375 L 277.296875 408.945312 L 277.296875 346.273438 C 287.386719 354.21875 299.441406 359.015625 312.351562 359.015625 C 324.144531 358.835938 335.425781 354.351562 345.183594 346.539062 L 345.183594 408.945312 L 320.65625 392.59375 C 314.953125 388.796875 307.527344 388.796875 301.828125 392.59375 Z M 616.726562 474.601562 L 328.210938 474.601562 L 328.210938 438.425781 L 352.742188 454.777344 C 357.898438 458.222656 364.707031 458.546875 370.160156 455.625 C 375.679688 452.664062 379.128906 446.914062 379.128906 440.65625 L 379.128906 333.507812 C 381.054688 332.105469 382.996094 330.714844 384.71875 329.042969 C 394.53125 319.527344 400.199219 306.285156 401.078125 291.179688 C 411.140625 279.890625 416.492188 266.515625 416.285156 252.859375 C 416.085938 239.734375 410.800781 227.136719 401.226562 216.695312 C 400.613281 202.550781 395.453125 189.914062 386.3125 180.492188 C 376.796875 170.679688 363.554688 165.011719 348.449219 164.132812 C 342.292969 158.644531 335.367188 154.839844 328.210938 152.34375 L 328.210938 101.226562 L 548.84375 101.226562 L 548.84375 152.140625 C 548.84375 161.515625 556.441406 169.113281 565.8125 169.113281 L 616.726562 169.113281 Z M 565.8125 203.058594 C 587.691406 203.058594 587.652344 237 565.8125 237 L 463.984375 237 C 442.109375 237 442.144531 203.058594 463.984375 203.058594 Z M 565.8125 321.855469 L 463.984375 321.855469 C 442.109375 321.855469 442.144531 287.914062 463.984375 287.914062 L 565.8125 287.914062 C 587.691406 287.914062 587.652344 321.855469 565.8125 321.855469 Z M 565.8125 406.714844 L 463.984375 406.714844 C 442.109375 406.714844 442.144531 372.773438 463.984375 372.773438 L 565.8125 372.773438 C 587.691406 372.773438 587.652344 406.714844 565.8125 406.714844 Z M 565.8125 406.714844 " fill-opacity="1" fill-rule="nonzero"/></g></svg>