<svg xmlns="http://www.w3.org/2000/svg" xmlns:xlink="http://www.w3.org/1999/xlink" width="3400" zoomAndPan="magnify" viewBox="0 0 2550 3224.999865" height="4300" preserveAspectRatio="xMidYMid meet" version="1.0"><defs><g/><clipPath id="d7bc1444d8"><path d="M 0 2799.246094 L 2550 2799.246094 L 2550 3225 L 0 3225 Z M 0 2799.246094 " clip-rule="nonzero"/></clipPath><clipPath id="7da7c15d1a"><path d="M 334.078125 262 L 2178.328125 262 L 2178.328125 2093 L 334.078125 2093 Z M 334.078125 262 " clip-rule="nonzero"/></clipPath></defs><path stroke-linecap="butt" transform="matrix(0.75, 0, 0, 0.75, 0.000116248, 0.00046875)" fill="none" stroke-linejoin="miter" d="M -0.000154997 -0.000625 L 3399.999911 -0.000625 L 3399.999911 4299.999459 L -0.000154997 4299.999459 L -0.000154997 -0.000625 " stroke="#ffffff" stroke-width="50" stroke-opacity="1" stroke-miterlimit="4"/><g clip-path="url(#d7bc1444d8)"><path fill="#ffffff" d="M -90 2799.246094 L 2602.265625 2799.246094 L 2602.265625 3224.988281 L -90 3224.988281 Z M -90 2799.246094 " fill-opacity="1" fill-rule="nonzero"/></g><g fill="#000000" fill-opacity="1"><g transform="translate(246.727943, 3077.001139)"><g><path d="M 32.34375 -150.515625 L 32.34375 0 L 15.578125 0 L 15.578125 -150.515625 Z M 32.34375 -150.515625 "/></g></g></g><g fill="#000000" fill-opacity="1"><g transform="translate(294.438919, 3077.001139)"><g><path d="M 53.09375 -72.0625 C 51.632812 -75.125 49.769531 -77.484375 47.5 -79.140625 C 45.238281 -80.804688 42.847656 -81.640625 40.328125 -81.640625 C 37.398438 -81.640625 34.738281 -80.609375 32.34375 -78.546875 C 29.945312 -76.484375 28.75 -74.054688 28.75 -71.265625 C 28.75 -65.804688 33.972656 -61.179688 44.421875 -57.390625 C 54.867188 -53.597656 62.117188 -49.4375 66.171875 -44.90625 C 70.234375 -40.382812 72.265625 -34.734375 72.265625 -27.953125 C 72.265625 -22.753906 71.066406 -17.894531 68.671875 -13.375 C 66.273438 -8.851562 62.582031 -5.0625 57.59375 -2 C 52.601562 1.0625 46.914062 2.59375 40.53125 2.59375 C 32.8125 2.59375 26.019531 0.53125 20.15625 -3.59375 C 14.300781 -7.71875 10.046875 -13.570312 7.390625 -21.15625 L 21.5625 -27.15625 C 23.957031 -21.5625 26.648438 -17.664062 29.640625 -15.46875 C 32.640625 -13.269531 36.332031 -12.171875 40.71875 -12.171875 C 45.25 -12.171875 48.910156 -13.535156 51.703125 -16.265625 C 54.492188 -18.992188 55.890625 -22.421875 55.890625 -26.546875 C 55.890625 -30.003906 54.625 -33.03125 52.09375 -35.625 C 49.570312 -38.226562 44.945312 -40.859375 38.21875 -43.515625 C 31.5 -46.179688 26.28125 -48.84375 22.5625 -51.5 C 16.707031 -55.757812 13.710938 -61.882812 13.578125 -69.875 C 13.578125 -77.320312 16.238281 -83.609375 21.5625 -88.734375 C 26.882812 -93.859375 33.535156 -96.421875 41.515625 -96.421875 C 46.578125 -96.421875 51.4375 -94.820312 56.09375 -91.625 C 60.75 -88.4375 64.207031 -84.242188 66.46875 -79.046875 Z M 53.09375 -72.0625 "/></g></g></g><g fill="#000000" fill-opacity="1"><g transform="translate(374.090288, 3077.001139)"><g><path d="M 53.09375 -72.0625 C 51.632812 -75.125 49.769531 -77.484375 47.5 -79.140625 C 45.238281 -80.804688 42.847656 -81.640625 40.328125 -81.640625 C 37.398438 -81.640625 34.738281 -80.609375 32.34375 -78.546875 C 29.945312 -76.484375 28.75 -74.054688 28.75 -71.265625 C 28.75 -65.804688 33.972656 -61.179688 44.421875 -57.390625 C 54.867188 -53.597656 62.117188 -49.4375 66.171875 -44.90625 C 70.234375 -40.382812 72.265625 -34.734375 72.265625 -27.953125 C 72.265625 -22.753906 71.066406 -17.894531 68.671875 -13.375 C 66.273438 -8.851562 62.582031 -5.0625 57.59375 -2 C 52.601562 1.0625 46.914062 2.59375 40.53125 2.59375 C 32.8125 2.59375 26.019531 0.53125 20.15625 -3.59375 C 14.300781 -7.71875 10.046875 -13.570312 7.390625 -21.15625 L 21.5625 -27.15625 C 23.957031 -21.5625 26.648438 -17.664062 29.640625 -15.46875 C 32.640625 -13.269531 36.332031 -12.171875 40.71875 -12.171875 C 45.25 -12.171875 48.910156 -13.535156 51.703125 -16.265625 C 54.492188 -18.992188 55.890625 -22.421875 55.890625 -26.546875 C 55.890625 -30.003906 54.625 -33.03125 52.09375 -35.625 C 49.570312 -38.226562 44.945312 -40.859375 38.21875 -43.515625 C 31.5 -46.179688 26.28125 -48.84375 22.5625 -51.5 C 16.707031 -55.757812 13.710938 -61.882812 13.578125 -69.875 C 13.578125 -77.320312 16.238281 -83.609375 21.5625 -88.734375 C 26.882812 -93.859375 33.535156 -96.421875 41.515625 -96.421875 C 46.578125 -96.421875 51.4375 -94.820312 56.09375 -91.625 C 60.75 -88.4375 64.207031 -84.242188 66.46875 -79.046875 Z M 53.09375 -72.0625 "/></g></g></g><g fill="#000000" fill-opacity="1"><g transform="translate(453.741657, 3077.001139)"><g><path d="M 29.9375 -93.828125 L 29.9375 -40.125 C 29.9375 -30.28125 31.46875 -23.160156 34.53125 -18.765625 C 37.59375 -14.367188 43.117188 -12.171875 51.109375 -12.171875 C 58.953125 -12.171875 64.4375 -14.332031 67.5625 -18.65625 C 70.695312 -22.988281 72.265625 -29.878906 72.265625 -39.328125 L 72.265625 -93.828125 L 88.234375 -93.828125 L 88.234375 -38.734375 C 88.234375 -25.148438 85.140625 -14.863281 78.953125 -7.875 C 72.765625 -0.894531 63.484375 2.59375 51.109375 2.59375 C 38.722656 2.59375 29.4375 -0.929688 23.25 -7.984375 C 17.0625 -15.035156 13.96875 -25.285156 13.96875 -38.734375 L 13.96875 -93.828125 Z M 29.9375 -93.828125 "/></g></g></g><g fill="#000000" fill-opacity="1"><g transform="translate(555.950944, 3077.001139)"><g><path d="M 84.84375 -80.453125 L 84.84375 -93.828125 L 100.8125 -93.828125 L 100.8125 0 L 84.84375 0 L 84.84375 -12.96875 L 84.4375 -12.96875 C 76.1875 -2.59375 65.410156 2.59375 52.109375 2.59375 C 39.054688 2.59375 28.304688 -2.195312 19.859375 -11.78125 C 11.410156 -21.363281 7.1875 -33.007812 7.1875 -46.71875 C 7.1875 -61.082031 11.441406 -72.957031 19.953125 -82.34375 C 28.472656 -91.726562 39.253906 -96.421875 52.296875 -96.421875 C 58.816406 -96.421875 64.835938 -95.019531 70.359375 -92.21875 C 75.890625 -89.425781 80.582031 -85.503906 84.4375 -80.453125 Z M 54.09375 -81.640625 C 45.582031 -81.640625 38.363281 -78.378906 32.4375 -71.859375 C 26.519531 -65.335938 23.5625 -57.351562 23.5625 -47.90625 C 23.5625 -37.789062 26.453125 -29.304688 32.234375 -22.453125 C 38.023438 -15.597656 45.378906 -12.171875 54.296875 -12.171875 C 63.742188 -12.171875 71.328125 -15.429688 77.046875 -21.953125 C 82.773438 -28.472656 85.640625 -37.054688 85.640625 -47.703125 C 85.640625 -57.421875 82.710938 -65.503906 76.859375 -71.953125 C 71.003906 -78.410156 63.414062 -81.640625 54.09375 -81.640625 Z M 54.09375 -81.640625 "/></g></g></g><g fill="#000000" fill-opacity="1"><g transform="translate(671.136004, 3077.001139)"><g><path d="M 90.234375 0 L 74.265625 0 L 74.265625 -54.703125 C 74.265625 -64.148438 72.832031 -71 69.96875 -75.25 C 67.101562 -79.507812 61.945312 -81.640625 54.5 -81.640625 C 45.976562 -81.640625 39.953125 -78.710938 36.421875 -72.859375 C 32.898438 -67.003906 31.140625 -58.085938 31.140625 -46.109375 L 31.140625 0 L 15.171875 0 L 15.171875 -93.828125 L 31.140625 -93.828125 L 31.140625 -82.4375 L 31.546875 -82.4375 C 34.867188 -86.96875 38.691406 -90.429688 43.015625 -92.828125 C 47.335938 -95.222656 52.429688 -96.421875 58.296875 -96.421875 C 68.804688 -96.421875 76.753906 -93.191406 82.140625 -86.734375 C 87.535156 -80.285156 90.234375 -70.269531 90.234375 -56.6875 Z M 90.234375 0 "/></g></g></g><g fill="#000000" fill-opacity="1"><g transform="translate(776.539327, 3077.001139)"><g><path d="M 84.84375 -65.875 L 84.4375 -65.875 C 80.976562 -70.53125 76.753906 -74.320312 71.765625 -77.25 C 66.773438 -80.175781 61.285156 -81.640625 55.296875 -81.640625 C 45.984375 -81.640625 38.128906 -78.242188 31.734375 -71.453125 C 25.347656 -64.671875 22.15625 -56.488281 22.15625 -46.90625 C 22.15625 -37.320312 25.21875 -29.132812 31.34375 -22.34375 C 37.46875 -15.5625 45.1875 -12.171875 54.5 -12.171875 C 61.28125 -12.171875 67.097656 -13.601562 71.953125 -16.46875 C 76.816406 -19.332031 81.179688 -23.289062 85.046875 -28.34375 L 85.4375 -28.34375 L 85.4375 -6.984375 C 81.050781 -3.921875 76.394531 -1.5625 71.46875 0.09375 C 66.539062 1.757812 61.285156 2.59375 55.703125 2.59375 C 46.785156 2.59375 38.429688 0.460938 30.640625 -3.796875 C 22.859375 -8.054688 16.769531 -14.007812 12.375 -21.65625 C 7.988281 -29.3125 5.796875 -37.726562 5.796875 -46.90625 C 5.796875 -55.5625 7.957031 -63.710938 12.28125 -71.359375 C 16.601562 -79.015625 22.691406 -85.101562 30.546875 -89.625 C 38.398438 -94.15625 46.847656 -96.421875 55.890625 -96.421875 C 60.679688 -96.421875 65.375 -95.753906 69.96875 -94.421875 C 74.5625 -93.085938 79.519531 -90.625 84.84375 -87.03125 Z M 84.84375 -65.875 "/></g></g></g><g fill="#000000" fill-opacity="1"><g transform="translate(871.562015, 3077.001139)"><g><path d="M 96.8125 -43.515625 L 23.15625 -43.515625 C 23.425781 -34.203125 26.488281 -26.648438 32.34375 -20.859375 C 38.195312 -15.066406 45.382812 -12.171875 53.90625 -12.171875 C 59.882812 -12.171875 65.171875 -13.703125 69.765625 -16.765625 C 74.359375 -19.828125 78.582031 -24.753906 82.4375 -31.546875 L 96.015625 -23.75 C 91.492188 -15.363281 85.539062 -8.875 78.15625 -4.28125 C 70.769531 0.300781 62.285156 2.59375 52.703125 2.59375 C 43.515625 2.59375 35.394531 0.398438 28.34375 -3.984375 C 21.289062 -8.378906 15.929688 -14.269531 12.265625 -21.65625 C 8.609375 -29.039062 6.78125 -37.0625 6.78125 -45.71875 C 6.78125 -55.300781 8.609375 -63.953125 12.265625 -71.671875 C 15.929688 -79.390625 21.222656 -85.441406 28.140625 -89.828125 C 35.066406 -94.222656 43.117188 -96.421875 52.296875 -96.421875 C 61.210938 -96.421875 69.097656 -94.253906 75.953125 -89.921875 C 82.804688 -85.597656 88.03125 -79.644531 91.625 -72.0625 C 95.21875 -64.476562 97.015625 -55.960938 97.015625 -46.515625 C 97.015625 -45.578125 96.945312 -44.578125 96.8125 -43.515625 Z M 80.046875 -57.09375 C 78.710938 -64.414062 75.453125 -70.335938 70.265625 -74.859375 C 65.078125 -79.378906 59.15625 -81.640625 52.5 -81.640625 C 45.976562 -81.640625 39.851562 -79.273438 34.125 -74.546875 C 28.40625 -69.828125 25.015625 -64.007812 23.953125 -57.09375 Z M 80.046875 -57.09375 "/></g></g></g><g fill="#000000" fill-opacity="1"><g transform="translate(1036.653964, 3077.001139)"><g><path d="M 6.78125 -46.71875 C 6.78125 -55.632812 8.976562 -63.953125 13.375 -71.671875 C 17.769531 -79.390625 23.757812 -85.441406 31.34375 -89.828125 C 38.925781 -94.222656 47.175781 -96.421875 56.09375 -96.421875 C 65.007812 -96.421875 73.226562 -94.222656 80.75 -89.828125 C 88.269531 -85.441406 94.257812 -79.421875 98.71875 -71.765625 C 103.175781 -64.109375 105.40625 -55.757812 105.40625 -46.71875 C 105.40625 -37.800781 103.207031 -29.515625 98.8125 -21.859375 C 94.425781 -14.203125 88.4375 -8.210938 80.84375 -3.890625 C 73.257812 0.429688 65.007812 2.59375 56.09375 2.59375 C 47.175781 2.59375 38.890625 0.398438 31.234375 -3.984375 C 23.585938 -8.378906 17.597656 -14.398438 13.265625 -22.046875 C 8.941406 -29.703125 6.78125 -37.925781 6.78125 -46.71875 Z M 55.890625 -81.640625 C 46.441406 -81.640625 38.554688 -78.28125 32.234375 -71.5625 C 25.910156 -64.84375 22.75 -56.625 22.75 -46.90625 C 22.75 -39.71875 24.476562 -33.363281 27.9375 -27.84375 C 31.40625 -22.320312 35.632812 -18.328125 40.625 -15.859375 C 45.613281 -13.398438 50.769531 -12.171875 56.09375 -12.171875 C 62.21875 -12.171875 67.804688 -13.601562 72.859375 -16.46875 C 77.921875 -19.332031 81.945312 -23.457031 84.9375 -28.84375 C 87.9375 -34.238281 89.4375 -40.257812 89.4375 -46.90625 C 89.4375 -53.03125 88.070312 -58.753906 85.34375 -64.078125 C 82.613281 -69.398438 78.648438 -73.65625 73.453125 -76.84375 C 68.265625 -80.039062 62.410156 -81.640625 55.890625 -81.640625 Z M 55.890625 -81.640625 "/></g></g></g><g fill="#000000" fill-opacity="1"><g transform="translate(1148.844622, 3077.001139)"><g><path d="M 56.296875 -149.125 C 54.160156 -149.789062 52.328125 -150.320312 50.796875 -150.71875 C 49.273438 -151.113281 47.515625 -151.3125 45.515625 -151.3125 C 40.722656 -151.3125 37.359375 -149.914062 35.421875 -147.125 C 33.492188 -144.332031 32.53125 -139.140625 32.53125 -131.546875 L 32.53125 -93.828125 L 56.296875 -93.828125 L 56.296875 -79.046875 L 32.53125 -79.046875 L 32.53125 0 L 16.5625 0 L 16.5625 -79.046875 L 7.78125 -79.046875 L 7.78125 -93.828125 L 16.5625 -93.828125 L 16.5625 -135.546875 C 16.5625 -142.734375 17.523438 -148.519531 19.453125 -152.90625 C 21.390625 -157.300781 24.550781 -160.765625 28.9375 -163.296875 C 33.332031 -165.828125 38.660156 -167.15625 44.921875 -167.28125 C 46.910156 -167.28125 48.9375 -167.082031 51 -166.6875 C 53.0625 -166.289062 54.828125 -165.828125 56.296875 -165.296875 Z M 56.296875 -149.125 "/></g></g></g><g fill="#000000" fill-opacity="1"><g transform="translate(1265.027842, 3077.001139)"><g><path d="M 84.84375 -65.875 L 84.4375 -65.875 C 80.976562 -70.53125 76.753906 -74.320312 71.765625 -77.25 C 66.773438 -80.175781 61.285156 -81.640625 55.296875 -81.640625 C 45.984375 -81.640625 38.128906 -78.242188 31.734375 -71.453125 C 25.347656 -64.671875 22.15625 -56.488281 22.15625 -46.90625 C 22.15625 -37.320312 25.21875 -29.132812 31.34375 -22.34375 C 37.46875 -15.5625 45.1875 -12.171875 54.5 -12.171875 C 61.28125 -12.171875 67.097656 -13.601562 71.953125 -16.46875 C 76.816406 -19.332031 81.179688 -23.289062 85.046875 -28.34375 L 85.4375 -28.34375 L 85.4375 -6.984375 C 81.050781 -3.921875 76.394531 -1.5625 71.46875 0.09375 C 66.539062 1.757812 61.285156 2.59375 55.703125 2.59375 C 46.785156 2.59375 38.429688 0.460938 30.640625 -3.796875 C 22.859375 -8.054688 16.769531 -14.007812 12.375 -21.65625 C 7.988281 -29.3125 5.796875 -37.726562 5.796875 -46.90625 C 5.796875 -55.5625 7.957031 -63.710938 12.28125 -71.359375 C 16.601562 -79.015625 22.691406 -85.101562 30.546875 -89.625 C 38.398438 -94.15625 46.847656 -96.421875 55.890625 -96.421875 C 60.679688 -96.421875 65.375 -95.753906 69.96875 -94.421875 C 74.5625 -93.085938 79.519531 -90.625 84.84375 -87.03125 Z M 84.84375 -65.875 "/></g></g></g><g fill="#000000" fill-opacity="1"><g transform="translate(1360.050529, 3077.001139)"><g><path d="M 96.8125 -43.515625 L 23.15625 -43.515625 C 23.425781 -34.203125 26.488281 -26.648438 32.34375 -20.859375 C 38.195312 -15.066406 45.382812 -12.171875 53.90625 -12.171875 C 59.882812 -12.171875 65.171875 -13.703125 69.765625 -16.765625 C 74.359375 -19.828125 78.582031 -24.753906 82.4375 -31.546875 L 96.015625 -23.75 C 91.492188 -15.363281 85.539062 -8.875 78.15625 -4.28125 C 70.769531 0.300781 62.285156 2.59375 52.703125 2.59375 C 43.515625 2.59375 35.394531 0.398438 28.34375 -3.984375 C 21.289062 -8.378906 15.929688 -14.269531 12.265625 -21.65625 C 8.609375 -29.039062 6.78125 -37.0625 6.78125 -45.71875 C 6.78125 -55.300781 8.609375 -63.953125 12.265625 -71.671875 C 15.929688 -79.390625 21.222656 -85.441406 28.140625 -89.828125 C 35.066406 -94.222656 43.117188 -96.421875 52.296875 -96.421875 C 61.210938 -96.421875 69.097656 -94.253906 75.953125 -89.921875 C 82.804688 -85.597656 88.03125 -79.644531 91.625 -72.0625 C 95.21875 -64.476562 97.015625 -55.960938 97.015625 -46.515625 C 97.015625 -45.578125 96.945312 -44.578125 96.8125 -43.515625 Z M 80.046875 -57.09375 C 78.710938 -64.414062 75.453125 -70.335938 70.265625 -74.859375 C 65.078125 -79.378906 59.15625 -81.640625 52.5 -81.640625 C 45.976562 -81.640625 39.851562 -79.273438 34.125 -74.546875 C 28.40625 -69.828125 25.015625 -64.007812 23.953125 -57.09375 Z M 80.046875 -57.09375 "/></g></g></g><g fill="#000000" fill-opacity="1"><g transform="translate(1463.657202, 3077.001139)"><g><path d="M 58.296875 -77.453125 C 56.691406 -78.648438 55.191406 -79.644531 53.796875 -80.4375 C 52.398438 -81.238281 50.703125 -81.640625 48.703125 -81.640625 C 42.710938 -81.640625 38.15625 -78.976562 35.03125 -73.65625 C 31.90625 -68.332031 30.34375 -59.75 30.34375 -47.90625 L 30.34375 0 L 14.375 0 L 14.375 -93.828125 L 30.34375 -93.828125 L 30.34375 -83.640625 L 30.75 -83.640625 C 34.601562 -88.828125 38.023438 -92.253906 41.015625 -93.921875 C 44.015625 -95.585938 47.507812 -96.421875 51.5 -96.421875 C 53.894531 -96.421875 56.320312 -96.019531 58.78125 -95.21875 C 61.25 -94.414062 63.613281 -93.351562 65.875 -92.03125 Z M 58.296875 -77.453125 "/></g></g></g><g fill="#000000" fill-opacity="1"><g transform="translate(1530.532353, 3077.001139)"><g><path d="M 31.9375 -127.5625 L 31.9375 -93.828125 L 48.703125 -93.828125 L 48.703125 -79.046875 L 31.9375 -79.046875 L 31.9375 0 L 15.96875 0 L 15.96875 -79.046875 L 6.1875 -79.046875 L 6.1875 -93.828125 L 15.96875 -93.828125 L 15.96875 -127.5625 Z M 31.9375 -127.5625 "/></g></g></g><g fill="#000000" fill-opacity="1"><g transform="translate(1578.44296, 3077.001139)"><g><path d="M 34.140625 -93.828125 L 34.140625 0 L 18.171875 0 L 18.171875 -93.828125 Z M 14.765625 -129.5625 C 14.765625 -132.488281 15.929688 -135.046875 18.265625 -137.234375 C 20.597656 -139.429688 23.226562 -140.53125 26.15625 -140.53125 C 29.21875 -140.53125 31.878906 -139.429688 34.140625 -137.234375 C 36.398438 -135.046875 37.53125 -132.488281 37.53125 -129.5625 C 37.53125 -126.09375 36.398438 -123.257812 34.140625 -121.0625 C 31.878906 -118.875 29.21875 -117.78125 26.15625 -117.78125 C 23.09375 -117.78125 20.425781 -118.84375 18.15625 -120.96875 C 15.894531 -123.101562 14.765625 -125.96875 14.765625 -129.5625 Z M 14.765625 -129.5625 "/></g></g></g><g fill="#000000" fill-opacity="1"><g transform="translate(1630.745396, 3077.001139)"><g><path d="M 56.296875 -149.125 C 54.160156 -149.789062 52.328125 -150.320312 50.796875 -150.71875 C 49.273438 -151.113281 47.515625 -151.3125 45.515625 -151.3125 C 40.722656 -151.3125 37.359375 -149.914062 35.421875 -147.125 C 33.492188 -144.332031 32.53125 -139.140625 32.53125 -131.546875 L 32.53125 -93.828125 L 56.296875 -93.828125 L 56.296875 -79.046875 L 32.53125 -79.046875 L 32.53125 0 L 16.5625 0 L 16.5625 -79.046875 L 7.78125 -79.046875 L 7.78125 -93.828125 L 16.5625 -93.828125 L 16.5625 -135.546875 C 16.5625 -142.734375 17.523438 -148.519531 19.453125 -152.90625 C 21.390625 -157.300781 24.550781 -160.765625 28.9375 -163.296875 C 33.332031 -165.828125 38.660156 -167.15625 44.921875 -167.28125 C 46.910156 -167.28125 48.9375 -167.082031 51 -166.6875 C 53.0625 -166.289062 54.828125 -165.828125 56.296875 -165.296875 Z M 56.296875 -149.125 "/></g></g></g><g fill="#000000" fill-opacity="1"><g transform="translate(1685.443415, 3077.001139)"><g><path d="M 34.140625 -93.828125 L 34.140625 0 L 18.171875 0 L 18.171875 -93.828125 Z M 14.765625 -129.5625 C 14.765625 -132.488281 15.929688 -135.046875 18.265625 -137.234375 C 20.597656 -139.429688 23.226562 -140.53125 26.15625 -140.53125 C 29.21875 -140.53125 31.878906 -139.429688 34.140625 -137.234375 C 36.398438 -135.046875 37.53125 -132.488281 37.53125 -129.5625 C 37.53125 -126.09375 36.398438 -123.257812 34.140625 -121.0625 C 31.878906 -118.875 29.21875 -117.78125 26.15625 -117.78125 C 23.09375 -117.78125 20.425781 -118.84375 18.15625 -120.96875 C 15.894531 -123.101562 14.765625 -125.96875 14.765625 -129.5625 Z M 14.765625 -129.5625 "/></g></g></g><g fill="#000000" fill-opacity="1"><g transform="translate(1737.74585, 3077.001139)"><g><path d="M 84.84375 -65.875 L 84.4375 -65.875 C 80.976562 -70.53125 76.753906 -74.320312 71.765625 -77.25 C 66.773438 -80.175781 61.285156 -81.640625 55.296875 -81.640625 C 45.984375 -81.640625 38.128906 -78.242188 31.734375 -71.453125 C 25.347656 -64.671875 22.15625 -56.488281 22.15625 -46.90625 C 22.15625 -37.320312 25.21875 -29.132812 31.34375 -22.34375 C 37.46875 -15.5625 45.1875 -12.171875 54.5 -12.171875 C 61.28125 -12.171875 67.097656 -13.601562 71.953125 -16.46875 C 76.816406 -19.332031 81.179688 -23.289062 85.046875 -28.34375 L 85.4375 -28.34375 L 85.4375 -6.984375 C 81.050781 -3.921875 76.394531 -1.5625 71.46875 0.09375 C 66.539062 1.757812 61.285156 2.59375 55.703125 2.59375 C 46.785156 2.59375 38.429688 0.460938 30.640625 -3.796875 C 22.859375 -8.054688 16.769531 -14.007812 12.375 -21.65625 C 7.988281 -29.3125 5.796875 -37.726562 5.796875 -46.90625 C 5.796875 -55.5625 7.957031 -63.710938 12.28125 -71.359375 C 16.601562 -79.015625 22.691406 -85.101562 30.546875 -89.625 C 38.398438 -94.15625 46.847656 -96.421875 55.890625 -96.421875 C 60.679688 -96.421875 65.375 -95.753906 69.96875 -94.421875 C 74.5625 -93.085938 79.519531 -90.625 84.84375 -87.03125 Z M 84.84375 -65.875 "/></g></g></g><g fill="#000000" fill-opacity="1"><g transform="translate(1832.768538, 3077.001139)"><g><path d="M 84.84375 -80.453125 L 84.84375 -93.828125 L 100.8125 -93.828125 L 100.8125 0 L 84.84375 0 L 84.84375 -12.96875 L 84.4375 -12.96875 C 76.1875 -2.59375 65.410156 2.59375 52.109375 2.59375 C 39.054688 2.59375 28.304688 -2.195312 19.859375 -11.78125 C 11.410156 -21.363281 7.1875 -33.007812 7.1875 -46.71875 C 7.1875 -61.082031 11.441406 -72.957031 19.953125 -82.34375 C 28.472656 -91.726562 39.253906 -96.421875 52.296875 -96.421875 C 58.816406 -96.421875 64.835938 -95.019531 70.359375 -92.21875 C 75.890625 -89.425781 80.582031 -85.503906 84.4375 -80.453125 Z M 54.09375 -81.640625 C 45.582031 -81.640625 38.363281 -78.378906 32.4375 -71.859375 C 26.519531 -65.335938 23.5625 -57.351562 23.5625 -47.90625 C 23.5625 -37.789062 26.453125 -29.304688 32.234375 -22.453125 C 38.023438 -15.597656 45.378906 -12.171875 54.296875 -12.171875 C 63.742188 -12.171875 71.328125 -15.429688 77.046875 -21.953125 C 82.773438 -28.472656 85.640625 -37.054688 85.640625 -47.703125 C 85.640625 -57.421875 82.710938 -65.503906 76.859375 -71.953125 C 71.003906 -78.410156 63.414062 -81.640625 54.09375 -81.640625 Z M 54.09375 -81.640625 "/></g></g></g><g fill="#000000" fill-opacity="1"><g transform="translate(1947.953636, 3077.001139)"><g><path d="M 31.9375 -127.5625 L 31.9375 -93.828125 L 48.703125 -93.828125 L 48.703125 -79.046875 L 31.9375 -79.046875 L 31.9375 0 L 15.96875 0 L 15.96875 -79.046875 L 6.1875 -79.046875 L 6.1875 -93.828125 L 15.96875 -93.828125 L 15.96875 -127.5625 Z M 31.9375 -127.5625 "/></g></g></g><g fill="#000000" fill-opacity="1"><g transform="translate(1995.864243, 3077.001139)"><g><path d="M 34.140625 -93.828125 L 34.140625 0 L 18.171875 0 L 18.171875 -93.828125 Z M 14.765625 -129.5625 C 14.765625 -132.488281 15.929688 -135.046875 18.265625 -137.234375 C 20.597656 -139.429688 23.226562 -140.53125 26.15625 -140.53125 C 29.21875 -140.53125 31.878906 -139.429688 34.140625 -137.234375 C 36.398438 -135.046875 37.53125 -132.488281 37.53125 -129.5625 C 37.53125 -126.09375 36.398438 -123.257812 34.140625 -121.0625 C 31.878906 -118.875 29.21875 -117.78125 26.15625 -117.78125 C 23.09375 -117.78125 20.425781 -118.84375 18.15625 -120.96875 C 15.894531 -123.101562 14.765625 -125.96875 14.765625 -129.5625 Z M 14.765625 -129.5625 "/></g></g></g><g fill="#000000" fill-opacity="1"><g transform="translate(2048.166678, 3077.001139)"><g><path d="M 6.78125 -46.71875 C 6.78125 -55.632812 8.976562 -63.953125 13.375 -71.671875 C 17.769531 -79.390625 23.757812 -85.441406 31.34375 -89.828125 C 38.925781 -94.222656 47.175781 -96.421875 56.09375 -96.421875 C 65.007812 -96.421875 73.226562 -94.222656 80.75 -89.828125 C 88.269531 -85.441406 94.257812 -79.421875 98.71875 -71.765625 C 103.175781 -64.109375 105.40625 -55.757812 105.40625 -46.71875 C 105.40625 -37.800781 103.207031 -29.515625 98.8125 -21.859375 C 94.425781 -14.203125 88.4375 -8.210938 80.84375 -3.890625 C 73.257812 0.429688 65.007812 2.59375 56.09375 2.59375 C 47.175781 2.59375 38.890625 0.398438 31.234375 -3.984375 C 23.585938 -8.378906 17.597656 -14.398438 13.265625 -22.046875 C 8.941406 -29.703125 6.78125 -37.925781 6.78125 -46.71875 Z M 55.890625 -81.640625 C 46.441406 -81.640625 38.554688 -78.28125 32.234375 -71.5625 C 25.910156 -64.84375 22.75 -56.625 22.75 -46.90625 C 22.75 -39.71875 24.476562 -33.363281 27.9375 -27.84375 C 31.40625 -22.320312 35.632812 -18.328125 40.625 -15.859375 C 45.613281 -13.398438 50.769531 -12.171875 56.09375 -12.171875 C 62.21875 -12.171875 67.804688 -13.601562 72.859375 -16.46875 C 77.921875 -19.332031 81.945312 -23.457031 84.9375 -28.84375 C 87.9375 -34.238281 89.4375 -40.257812 89.4375 -46.90625 C 89.4375 -53.03125 88.070312 -58.753906 85.34375 -64.078125 C 82.613281 -69.398438 78.648438 -73.65625 73.453125 -76.84375 C 68.265625 -80.039062 62.410156 -81.640625 55.890625 -81.640625 Z M 55.890625 -81.640625 "/></g></g></g><g fill="#000000" fill-opacity="1"><g transform="translate(2160.357336, 3077.001139)"><g><path d="M 90.234375 0 L 74.265625 0 L 74.265625 -54.703125 C 74.265625 -64.148438 72.832031 -71 69.96875 -75.25 C 67.101562 -79.507812 61.945312 -81.640625 54.5 -81.640625 C 45.976562 -81.640625 39.953125 -78.710938 36.421875 -72.859375 C 32.898438 -67.003906 31.140625 -58.085938 31.140625 -46.109375 L 31.140625 0 L 15.171875 0 L 15.171875 -93.828125 L 31.140625 -93.828125 L 31.140625 -82.4375 L 31.546875 -82.4375 C 34.867188 -86.96875 38.691406 -90.429688 43.015625 -92.828125 C 47.335938 -95.222656 52.429688 -96.421875 58.296875 -96.421875 C 68.804688 -96.421875 76.753906 -93.191406 82.140625 -86.734375 C 87.535156 -80.285156 90.234375 -70.269531 90.234375 -56.6875 Z M 90.234375 0 "/></g></g></g><g clip-path="url(#7da7c15d1a)"><path fill="#ffffff" d="M 2157.707031 493.835938 L 1946.53125 282.664062 C 1933.335938 269.464844 1915.429688 262.039062 1896.765625 262.039062 L 770.503906 262.039062 C 731.632812 262.039062 700.113281 293.558594 700.113281 332.429688 L 700.113281 613.132812 C 669.949219 623.519531 641.289062 639.84375 615.90625 663.109375 C 557.234375 665.65625 504.820312 687.066406 465.738281 724.980469 C 425.046875 764.4375 401.535156 819.359375 397.890625 882.019531 C 356.167969 928.832031 333.960938 984.304688 334.820312 1040.949219 C 335.648438 1095.390625 357.574219 1147.636719 397.273438 1190.941406 C 399.816406 1249.613281 421.230469 1302.027344 459.140625 1341.109375 C 468.21875 1350.472656 478.316406 1358.6875 488.941406 1366.199219 L 488.941406 1810.644531 C 488.941406 1836.597656 503.238281 1860.449219 526.128906 1872.71875 C 548.882812 1884.921875 576.6875 1883.617188 598.375 1869.214844 L 700.113281 1801.382812 L 700.113281 2021.820312 C 700.113281 2060.695312 731.632812 2092.210938 770.503906 2092.210938 L 2107.9375 2092.210938 C 2146.8125 2092.210938 2178.328125 2060.695312 2178.328125 2021.820312 L 2178.328125 543.605469 C 2178.328125 524.941406 2170.90625 507.035156 2157.707031 493.835938 Z M 1896.765625 431.96875 L 2008.402344 543.605469 L 1896.765625 543.605469 Z M 560.191406 1243.082031 C 538.8125 1221.050781 536.476562 1189.671875 538.261719 1167.226562 C 540.085938 1144.679688 530.976562 1122.648438 513.757812 1108.003906 C 496.605469 1093.398438 476.050781 1069.542969 475.605469 1038.851562 C 475.226562 1013.28125 488.941406 987.15625 515.335938 963.304688 C 531.011719 949.144531 539.464844 928.695312 538.402344 907.589844 C 536.648438 872.050781 545.414062 843.832031 563.765625 826.027344 C 585.832031 804.683594 617.28125 802.585938 639.621094 804.101562 C 662.789062 806.402344 684.203125 796.8125 698.84375 779.59375 C 713.449219 762.445312 737.304688 741.890625 767.996094 741.441406 C 793.464844 739.863281 819.65625 754.777344 843.542969 781.175781 C 857.703125 796.8125 877.984375 805.476562 899.257812 804.238281 C 934.660156 802.621094 963.015625 811.214844 980.820312 829.605469 C 1002.199219 851.636719 1004.535156 883.015625 1002.75 905.460938 C 1000.925781 928.007812 1010.035156 950.039062 1027.253906 964.679688 C 1044.40625 979.289062 1064.957031 1003.140625 1065.40625 1033.835938 C 1065.785156 1059.40625 1052.070312 1085.527344 1025.671875 1109.382812 C 1010 1123.542969 1001.546875 1143.992188 1002.609375 1165.097656 C 1004.363281 1200.636719 995.597656 1228.855469 977.246094 1246.65625 C 955.246094 1268.070312 923.902344 1270.269531 901.386719 1268.585938 C 878.667969 1266.765625 856.84375 1275.90625 842.167969 1293.09375 C 827.558594 1310.242188 803.707031 1330.796875 773.015625 1331.242188 C 747.441406 1330.589844 721.320312 1317.875 697.46875 1291.511719 C 683.492188 1276.0625 662.597656 1267.222656 641.753906 1268.449219 C 606.179688 1269.925781 577.996094 1261.4375 560.191406 1243.082031 Z M 731.460938 1611.296875 L 629.722656 1679.109375 L 629.722656 1419.183594 C 671.566406 1452.128906 721.566406 1472.027344 775.113281 1472.027344 C 824.03125 1471.28125 870.808594 1452.683594 911.289062 1420.28125 L 911.289062 1679.109375 L 809.550781 1611.296875 C 785.902344 1595.554688 755.109375 1595.554688 731.460938 1611.296875 Z M 2037.546875 1951.429688 L 840.894531 1951.429688 L 840.894531 1801.382812 L 942.632812 1869.214844 C 964.03125 1883.5 992.269531 1884.847656 1014.882812 1872.71875 C 1037.773438 1860.449219 1052.070312 1836.597656 1052.070312 1810.644531 L 1052.070312 1366.222656 C 1060.070312 1360.40625 1068.121094 1354.644531 1075.269531 1347.707031 C 1115.964844 1308.25 1139.476562 1253.324219 1143.117188 1190.667969 C 1184.84375 1143.851562 1207.046875 1088.378906 1206.1875 1031.738281 C 1205.363281 977.292969 1183.433594 925.050781 1143.738281 881.742188 C 1141.195312 823.070312 1119.78125 770.65625 1081.871094 731.578125 C 1042.410156 690.882812 987.488281 667.371094 924.828125 663.730469 C 899.300781 640.972656 870.566406 625.183594 840.894531 614.835938 L 840.894531 402.820312 L 1755.980469 402.820312 L 1755.980469 613.996094 C 1755.980469 652.867188 1787.5 684.386719 1826.375 684.386719 L 2037.546875 684.386719 Z M 1826.375 825.167969 C 1917.109375 825.167969 1916.957031 965.953125 1826.375 965.953125 L 1404.027344 965.953125 C 1313.292969 965.953125 1313.441406 825.167969 1404.027344 825.167969 Z M 1826.375 1317.90625 L 1404.027344 1317.90625 C 1313.292969 1317.90625 1313.441406 1177.125 1404.027344 1177.125 L 1826.375 1177.125 C 1917.109375 1177.125 1916.957031 1317.90625 1826.375 1317.90625 Z M 1826.375 1669.863281 L 1404.027344 1669.863281 C 1313.292969 1669.863281 1313.441406 1529.082031 1404.027344 1529.082031 L 1826.375 1529.082031 C 1917.109375 1529.082031 1916.957031 1669.863281 1826.375 1669.863281 Z M 1826.375 1669.863281 " fill-opacity="1" fill-rule="nonzero"/></g></svg>