<svg xmlns="http://www.w3.org/2000/svg" xmlns:xlink="http://www.w3.org/1999/xlink" version="1.1" width="1024" height="1024" viewBox="0 0 1024 1024" xml:space="preserve">
<desc>Created with Fabric.js 3.5.0</desc>
<defs>
</defs>
<rect x="0" y="0" width="100%" height="100%" fill="#fff"/>
<g transform="matrix(10.5625 0 0 10.6945 512.0005 427.78)" id="274040">
<g style="" vector-effect="non-scaling-stroke">
		<g transform="matrix(1 0 0 1 -0.4811 -0.1497)">
<linearGradient id="SVGID_1759" gradientUnits="userSpaceOnUse" gradientTransform="matrix(1 0 0 1 0 0)" x1="84.614" y1="90.1113" x2="25.99" y2="26.8347">
<stop offset="0%" style="stop-color:rgb(218,227,254);stop-opacity: 1"/>
<stop offset="100%" style="stop-color:rgb(233,239,253);stop-opacity: 1"/>
</linearGradient>
<path style="stroke: none; stroke-width: 1; stroke-dasharray: none; stroke-linecap: butt; stroke-dashoffset: 0; stroke-linejoin: miter; stroke-miterlimit: 4; is-custom-font: none; font-file-url: none; fill: url(#SVGID_1759); fill-rule: nonzero; opacity: 1;" transform=" translate(-40.0189, -39.8503)" d="M 76.4834 54.0381 C 68.4191 72.8487 47.1323 80.9281 30.4537 79.5507 C 25.8997 79.1747 16.7371 78.4178 9.58286 71.6661 C -4.15657 58.6998 -2.04057 31.597 11.112 15.6404 C 12.8057 13.5853 24.5297 -0.182453 42.7991 0.00183307 C 56.1751 0.13669 65.5637 7.67726 66.7051 8.61669 C 68.1474 9.80326 71.328 12.6233 74.1949 17.0973 C 80.9306 27.609 81.5226 42.2835 76.4834 54.0381 Z" stroke-linecap="round"/>
</g>
		<g transform="matrix(1 0 0 1 -18.8504 -4.1507)">
<path style="stroke: none; stroke-width: 1; stroke-dasharray: none; stroke-linecap: butt; stroke-dashoffset: 0; stroke-linejoin: miter; stroke-miterlimit: 4; is-custom-font: none; font-file-url: none; fill: rgb(125,151,244); fill-rule: nonzero; opacity: 1;" transform=" translate(-21.6497, -35.8493)" d="M 8.92897 1.42795 C 8.78555 0.922517 9.38326 0.53366 9.7924 0.863088 C 13.9478 4.20852 24.0964 14.4017 23.229 33.6345 C 22.1404 57.7651 27.7867 66.1091 34.3921 70.9574 C 34.3921 70.9574 25.6875 69.1045 19.6555 60.6611 C 4.84555 39.9305 11.4773 10.4145 8.92897 1.42795 Z" stroke-linecap="round"/>
</g>
		<g transform="matrix(1 0 0 1 -18.5442 -1.061)">
<path style="stroke: none; stroke-width: 1; stroke-dasharray: none; stroke-linecap: butt; stroke-dashoffset: 0; stroke-linejoin: miter; stroke-miterlimit: 4; is-custom-font: none; font-file-url: none; fill: rgb(255,255,255); fill-rule: nonzero; opacity: 1;" transform=" translate(-21.9558, -38.9389)" d="M 12.449 8.67007 C 13.1373 11.2946 13.7733 13.9315 14.3122 16.5875 C 14.8647 19.2404 15.3367 21.9089 15.7247 24.5884 C 16.1024 27.2689 16.4299 29.9564 16.6427 32.6535 C 16.8676 35.3495 16.9764 38.0524 17.0764 40.7664 C 17.1913 43.4784 17.2916 46.2109 17.6722 48.9415 C 18.0493 51.6666 18.7579 54.3909 19.943 56.9046 C 20.239 57.5312 20.5479 58.1546 20.8902 58.7538 C 21.2216 59.3595 21.5799 59.9506 21.9487 60.5352 C 22.6922 61.7009 23.5144 62.8192 24.4156 63.8712 C 26.2239 65.9712 28.3507 67.7944 30.655 69.2989 C 30.8976 69.4572 31.2224 69.3889 31.381 69.1464 C 31.5364 68.9081 31.4736 68.5906 31.2416 68.4292 L 31.2399 68.4281 C 30.6899 68.0464 30.1447 67.6586 29.6187 67.2481 C 29.3525 67.0469 29.0956 66.8344 28.835 66.6269 C 28.5824 66.4098 28.3213 66.2024 28.0759 65.9775 C 27.0787 65.0952 26.1447 64.1441 25.2859 63.1284 C 23.5599 61.1078 22.1267 58.8189 20.9904 56.4195 C 20.4356 55.2129 19.9707 53.9678 19.603 52.6909 C 19.2364 51.4138 18.9673 50.1064 18.7727 48.7826 C 18.383 46.1338 18.2613 43.4301 18.127 40.7192 C 17.989 38.0078 17.8319 35.2844 17.5627 32.5712 C 17.4319 31.2146 17.2767 29.8604 17.0973 28.5098 C 17.0116 27.8341 16.9127 27.1598 16.815 26.4858 C 16.711 25.8126 16.603 25.1401 16.4899 24.4686 C 16.0319 21.7835 15.4919 19.1135 14.8684 16.4641 C 14.2324 13.8178 13.5262 11.1895 12.7202 8.59264 C 12.697 8.51835 12.6182 8.47693 12.5442 8.50007 C 12.4722 8.52235 12.431 8.59778 12.4499 8.67007 H 12.449 Z" stroke-linecap="round"/>
</g>
		<g transform="matrix(1 0 0 1 -27.8914 5.7058)">
<path style="stroke: none; stroke-width: 1; stroke-dasharray: none; stroke-linecap: butt; stroke-dashoffset: 0; stroke-linejoin: miter; stroke-miterlimit: 4; is-custom-font: none; font-file-url: none; fill: rgb(189,208,251); fill-rule: nonzero; opacity: 1;" transform=" translate(-12.6086, -45.7058)" d="M 23.5937 74.7783 C 23.3774 75.7218 22.2677 76.1378 21.4771 75.5792 C 17.1148 72.4975 5.56851 62.6692 4.3268 44.2726 C 3.27823 28.7378 1.23337 20.4138 0.0433686 16.6992 C -0.208346 15.9138 0.689083 15.2635 1.35794 15.7461 C 8.73851 21.0692 31.4314 40.5895 23.5937 74.7781 V 74.7783 Z" stroke-linecap="round"/>
</g>
		<g transform="matrix(1 0 0 1 -25.488 13.5447)">
<path style="stroke: none; stroke-width: 1; stroke-dasharray: none; stroke-linecap: butt; stroke-dashoffset: 0; stroke-linejoin: miter; stroke-miterlimit: 4; is-custom-font: none; font-file-url: none; fill: rgb(255,255,255); fill-rule: nonzero; opacity: 1;" transform=" translate(-15.012, -53.5447)" d="M 22.2936 74.9454 C 22.2753 74.9612 22.2553 74.9752 22.2336 74.9874 C 22.0519 75.0903 21.8213 75.0263 21.7185 74.8449 C 21.6019 74.6389 10.0348 54.0074 7.60106 32.4732 C 7.57763 32.266 7.72677 32.0789 7.9342 32.0552 C 8.14163 32.0317 8.32877 32.1809 8.3522 32.3883 C 10.7682 53.766 22.2605 74.268 22.3762 74.4726 C 22.4668 74.6326 22.4282 74.8306 22.2933 74.9457 L 22.2936 74.9454 Z" stroke-linecap="round"/>
</g>
		<g transform="matrix(1 0 0 1 7.3496 0.7134)">
<linearGradient id="SVGID_1760" gradientUnits="userSpaceOnUse" gradientTransform="matrix(1 0 0 1 0 0)" x1="75.043" y1="103.939" x2="62.4924" y2="75.7487">
<stop offset="0%" style="stop-color:rgb(9,0,93);stop-opacity: 1"/>
<stop offset="100%" style="stop-color:rgb(26,15,145);stop-opacity: 1"/>
</linearGradient>
<path style="stroke: none; stroke-width: 1; stroke-dasharray: none; stroke-linecap: butt; stroke-dashoffset: 0; stroke-linejoin: miter; stroke-miterlimit: 4; is-custom-font: none; font-file-url: none; fill: url(#SVGID_1760); fill-rule: nonzero; opacity: 1;" transform=" translate(-47.8496, -40.7134)" d="M 23.4836 6.79471 C 23.1853 18.8299 22.2176 60.3438 22.6796 75.0553 C 22.7284 76.6138 23.9778 77.8647 25.5364 77.9158 C 33.2447 78.1681 55.419 78.8076 68.027 78.2784 C 70.653 78.1681 72.7413 76.0413 72.7959 73.4133 C 73.0579 60.7807 73.6358 25.2504 72.2618 8.97385 C 72.0973 7.02357 70.5667 5.47071 68.6193 5.27585 C 60.2247 4.43614 37.929 2.38328 27.0364 3.09014 C 25.0719 3.21757 23.5327 4.82671 23.4838 6.79471 H 23.4836 Z" stroke-linecap="round"/>
</g>
		<g transform="matrix(1 0 0 1 7.3499 -1.6242)">
<path style="stroke: none; stroke-width: 1; stroke-dasharray: none; stroke-linecap: butt; stroke-dashoffset: 0; stroke-linejoin: miter; stroke-miterlimit: 4; is-custom-font: none; font-file-url: none; fill: rgb(145,179,250); fill-rule: nonzero; opacity: 1;" transform=" translate(-47.8499, -38.3758)" d="M 26.616 10.5342 C 26.1949 20.391 24.8672 53.1819 25.2886 65.3073 C 25.3503 67.0796 26.7472 68.5128 28.5175 68.6162 C 35.8066 69.0428 54.5023 69.9833 65.1935 69.127 C 67.1186 68.973 68.6292 67.4159 68.7332 65.4876 C 69.2749 55.4316 70.8306 24.8985 70.4266 12.909 C 70.362 10.9965 68.8806 9.43447 66.9743 9.26333 C 59.0886 8.55533 38.8358 6.87075 29.7509 7.36647 C 28.0455 7.45961 26.6889 8.8279 26.616 10.5342 Z" stroke-linecap="round"/>
</g>
		<g transform="matrix(1 0 0 1 7.3492 -34.5675)">
<path style="stroke: none; stroke-width: 1; stroke-dasharray: none; stroke-linecap: butt; stroke-dashoffset: 0; stroke-linejoin: miter; stroke-miterlimit: 4; is-custom-font: none; font-file-url: none; fill: rgb(63,103,249); fill-rule: nonzero; opacity: 0.5;" transform=" translate(-47.8492, -5.4326)" d="M 42.5335 5.19306 C 42.5335 5.56249 42.8212 5.86706 43.1901 5.88621 C 45.0106 5.98163 50.1395 6.25135 52.4315 6.38421 C 52.8835 6.41049 53.2381 6.00421 53.1523 5.55963 L 53.1378 5.48392 C 53.0792 5.18049 52.8278 4.95221 52.5201 4.92421 C 50.9706 4.78221 46.2958 4.38849 43.1981 4.49906 C 42.8261 4.51249 42.5332 4.82078 42.5332 5.19306 H 42.5335 Z" stroke-linecap="round"/>
</g>
		<g transform="matrix(1 0 0 1 23.6259 -20.2655)">
<path style="stroke: none; stroke-width: 1; stroke-dasharray: none; stroke-linecap: butt; stroke-dashoffset: 0; stroke-linejoin: miter; stroke-miterlimit: 4; is-custom-font: none; font-file-url: none; fill: rgb(255,255,255); fill-rule: nonzero; opacity: 0.78;" transform=" translate(-64.1258, -19.7345)" d="M 67.2076 17.6967 L 66.8682 22.0287 C 66.8059 22.8227 66.1696 23.4504 65.3745 23.5012 L 62.8616 23.6624 C 61.9553 23.7204 61.1822 23.0138 61.159 22.1058 L 61.0396 17.4452 C 61.0156 16.5098 61.7959 15.7532 62.7302 15.8058 L 65.7019 15.9735 C 66.5982 16.0241 67.2779 16.8018 67.2076 17.6969 V 17.6967 Z" stroke-linecap="round"/>
</g>
		<g transform="matrix(1 0 0 1 3.5035 -22.5452)">
<linearGradient id="SVGID_1761" gradientUnits="userSpaceOnUse" gradientTransform="matrix(1 0 0 1 0 0)" x1="30.0635" y1="17.4546" x2="57.9438" y2="17.4546">
<stop offset="0%" style="stop-color:rgb(218,227,254);stop-opacity: 1"/>
<stop offset="100%" style="stop-color:rgb(233,239,253);stop-opacity: 1"/>
</linearGradient>
<path style="stroke: none; stroke-width: 1; stroke-dasharray: none; stroke-linecap: butt; stroke-dashoffset: 0; stroke-linejoin: miter; stroke-miterlimit: 4; is-custom-font: none; font-file-url: none; fill: url(#SVGID_1761); fill-rule: nonzero; opacity: 1;" transform=" translate(-44.0035, -17.4548)" d="M 56.9846 16.5489 C 52.5175 16.5332 35.3681 16.4504 31.0375 16.4292 C 30.4912 16.4266 30.0506 16.8486 30.0638 17.3606 C 30.0763 17.8481 30.4978 18.2378 31.0175 18.2426 L 56.9509 18.4804 C 57.4503 18.4849 57.8726 18.1318 57.9249 17.6655 L 57.938 17.5475 C 57.9978 17.0144 57.5555 16.5506 56.9843 16.5486 L 56.9846 16.5489 Z" stroke-linecap="round"/>
</g>
		<g transform="matrix(1 0 0 1 7.6779 -18.4075)">
<linearGradient id="SVGID_1762" gradientUnits="userSpaceOnUse" gradientTransform="matrix(1 0 0 1 0 0)" x1="38.8123" y1="21.5928" x2="57.5429" y2="21.5928">
<stop offset="0%" style="stop-color:rgb(218,227,254);stop-opacity: 1"/>
<stop offset="100%" style="stop-color:rgb(233,239,253);stop-opacity: 1"/>
</linearGradient>
<path style="stroke: none; stroke-width: 1; stroke-dasharray: none; stroke-linecap: butt; stroke-dashoffset: 0; stroke-linejoin: miter; stroke-miterlimit: 4; is-custom-font: none; font-file-url: none; fill: url(#SVGID_1762); fill-rule: nonzero; opacity: 1;" transform=" translate(-48.1779, -21.5925)" d="M 57.4106 22.2373 C 57.3378 22.3585 57.2015 22.4339 57.0535 22.4345 L 39.2529 22.5282 C 39.0292 22.5293 38.8463 22.3628 38.8409 22.153 L 38.8126 21.053 C 38.8069 20.8345 38.9961 20.6548 39.2292 20.6568 L 56.5401 20.8196 C 57.3112 20.8268 57.7898 21.6059 57.4109 22.237 L 57.4106 22.2373 Z" stroke-linecap="round"/>
</g>
		<g transform="matrix(1 0 0 1 23.5234 -5.9857)">
<path style="stroke: none; stroke-width: 1; stroke-dasharray: none; stroke-linecap: butt; stroke-dashoffset: 0; stroke-linejoin: miter; stroke-miterlimit: 4; is-custom-font: none; font-file-url: none; fill: rgb(255,255,255); fill-rule: nonzero; opacity: 0.78;" transform=" translate(-64.0233, -34.0143)" d="M 67.1051 31.9765 L 66.7656 36.3085 C 66.7033 37.1025 66.0671 37.7302 65.2719 37.781 L 62.7591 37.9422 C 61.8528 38.0002 61.0796 37.2936 61.0565 36.3856 L 60.9371 31.725 C 60.9131 30.7896 61.6933 30.033 62.6276 30.0856 L 65.5993 30.2533 C 66.4956 30.3039 67.1753 31.0816 67.1051 31.9767 V 31.9765 Z" stroke-linecap="round"/>
</g>
		<g transform="matrix(1 0 0 1 3.7554 -8.4521)">
<linearGradient id="SVGID_1763" gradientUnits="userSpaceOnUse" gradientTransform="matrix(1 0 0 1 0 0)" x1="29.8903" y1="31.5479" x2="58.6203" y2="31.5479">
<stop offset="0%" style="stop-color:rgb(218,227,254);stop-opacity: 1"/>
<stop offset="100%" style="stop-color:rgb(233,239,253);stop-opacity: 1"/>
</linearGradient>
<path style="stroke: none; stroke-width: 1; stroke-dasharray: none; stroke-linecap: butt; stroke-dashoffset: 0; stroke-linejoin: miter; stroke-miterlimit: 4; is-custom-font: none; font-file-url: none; fill: url(#SVGID_1763); fill-rule: nonzero; opacity: 1;" transform=" translate(-44.2554, -31.5479)" d="M 57.6326 30.6319 C 53.0292 30.6196 35.3575 30.5502 30.8949 30.5325 C 30.332 30.5302 29.8778 30.9528 29.8909 31.4648 C 29.9035 31.9522 30.3375 32.3416 30.8732 32.3459 L 57.5966 32.5633 C 58.1115 32.5676 58.5469 32.2139 58.6009 31.7479 L 58.6146 31.6299 C 58.6766 31.0968 58.2212 30.6333 57.6326 30.6319 Z" stroke-linecap="round"/>
</g>
		<g transform="matrix(1 0 0 1 8.0537 -4.3103)">
<linearGradient id="SVGID_1764" gradientUnits="userSpaceOnUse" gradientTransform="matrix(1 0 0 1 0 0)" x1="38.9034" y1="35.6896" x2="58.2043" y2="35.6896">
<stop offset="0%" style="stop-color:rgb(218,227,254);stop-opacity: 1"/>
<stop offset="100%" style="stop-color:rgb(233,239,253);stop-opacity: 1"/>
</linearGradient>
<path style="stroke: none; stroke-width: 1; stroke-dasharray: none; stroke-linecap: butt; stroke-dashoffset: 0; stroke-linejoin: miter; stroke-miterlimit: 4; is-custom-font: none; font-file-url: none; fill: url(#SVGID_1764); fill-rule: nonzero; opacity: 1;" transform=" translate(-48.5537, -35.6896)" d="M 58.0674 36.3202 C 57.9923 36.4413 57.8517 36.5168 57.6992 36.5176 L 39.356 36.6254 C 39.1257 36.6268 38.9372 36.4602 38.9317 36.2505 L 38.9034 35.1505 C 38.8977 34.9319 39.0929 34.7519 39.3329 34.7539 L 57.1712 34.9034 C 57.9657 34.9099 58.4583 35.6888 58.0672 36.3202 H 58.0674 Z" stroke-linecap="round"/>
</g>
		<g transform="matrix(1 0 0 1 22.4628 8.8663)">
<path style="stroke: none; stroke-width: 1; stroke-dasharray: none; stroke-linecap: butt; stroke-dashoffset: 0; stroke-linejoin: miter; stroke-miterlimit: 4; is-custom-font: none; font-file-url: none; fill: rgb(255,255,255); fill-rule: nonzero; opacity: 0.78;" transform=" translate(-62.9627, -48.8663)" d="M 66.0445 46.8285 L 65.7051 51.1605 C 65.6428 51.9545 65.0065 52.5822 64.2114 52.6331 L 61.6985 52.7942 C 60.7922 52.8522 60.0191 52.1456 59.9959 51.2376 L 59.8765 46.5771 C 59.8525 45.6416 60.6328 44.8851 61.5671 44.9376 L 64.5388 45.1054 C 65.4351 45.1559 66.1148 45.9336 66.0445 46.8288 V 46.8285 Z" stroke-linecap="round"/>
</g>
		<g transform="matrix(1 0 0 1 2.6058 6.1226)">
<linearGradient id="SVGID_1765" gradientUnits="userSpaceOnUse" gradientTransform="matrix(1 0 0 1 0 0)" x1="29.5114" y1="46.1229" x2="56.6994" y2="46.1229">
<stop offset="0%" style="stop-color:rgb(218,227,254);stop-opacity: 1"/>
<stop offset="100%" style="stop-color:rgb(233,239,253);stop-opacity: 1"/>
</linearGradient>
<path style="stroke: none; stroke-width: 1; stroke-dasharray: none; stroke-linecap: butt; stroke-dashoffset: 0; stroke-linejoin: miter; stroke-miterlimit: 4; is-custom-font: none; font-file-url: none; fill: url(#SVGID_1765); fill-rule: nonzero; opacity: 1;" transform=" translate(-43.1058, -46.1226)" d="M 55.7637 45.2252 C 51.4074 45.2066 34.684 45.1129 30.4609 45.0889 C 29.9283 45.086 29.4989 45.5077 29.512 46.0197 C 29.5246 46.5072 29.9357 46.8972 30.4429 46.9023 L 55.7323 47.1563 C 56.2194 47.1612 56.6309 46.8083 56.6817 46.3423 L 56.6946 46.2243 C 56.7526 45.6915 56.3209 45.2275 55.764 45.2249 L 55.7637 45.2252 Z" stroke-linecap="round"/>
</g>
		<g transform="matrix(1 0 0 1 6.679 10.2578)">
<linearGradient id="SVGID_1766" gradientUnits="userSpaceOnUse" gradientTransform="matrix(1 0 0 1 0 0)" x1="38.046" y1="50.2578" x2="56.312" y2="50.2578">
<stop offset="0%" style="stop-color:rgb(218,227,254);stop-opacity: 1"/>
<stop offset="100%" style="stop-color:rgb(233,239,253);stop-opacity: 1"/>
</linearGradient>
<path style="stroke: none; stroke-width: 1; stroke-dasharray: none; stroke-linecap: butt; stroke-dashoffset: 0; stroke-linejoin: miter; stroke-miterlimit: 4; is-custom-font: none; font-file-url: none; fill: url(#SVGID_1766); fill-rule: nonzero; opacity: 1;" transform=" translate(-47.179, -50.2577)" d="M 56.1832 50.9138 C 56.1123 51.0349 55.9795 51.11 55.8349 51.1109 L 38.4763 51.1935 C 38.2583 51.1946 38.0797 51.0278 38.0743 50.818 L 38.046 49.718 C 38.0403 49.4995 38.2246 49.3198 38.452 49.322 L 55.3332 49.496 C 56.0852 49.5038 56.5523 50.2832 56.1832 50.914 V 50.9138 Z" stroke-linecap="round"/>
</g>
		<g transform="matrix(1 0 0 1 6.2044 22.5929)">
<linearGradient id="SVGID_1767" gradientUnits="userSpaceOnUse" gradientTransform="matrix(1 0 0 1 0 0)" x1="44.3126" y1="-18.7285" x2="47.0344" y2="73.8082">
<stop offset="0%" style="stop-color:rgb(225,71,61);stop-opacity: 1"/>
<stop offset="100%" style="stop-color:rgb(233,96,90);stop-opacity: 1"/>
</linearGradient>
<path style="stroke: none; stroke-width: 1; stroke-dasharray: none; stroke-linecap: butt; stroke-dashoffset: 0; stroke-linejoin: miter; stroke-miterlimit: 4; is-custom-font: none; font-file-url: none; fill: url(#SVGID_1767); fill-rule: nonzero; opacity: 1;" transform=" translate(-46.7043, -62.5928)" d="M 56.7415 58.6753 H 36.6672 C 36.4384 58.6753 36.2529 58.8608 36.2529 59.0896 V 66.0962 C 36.2529 66.325 36.4384 66.5104 36.6672 66.5104 H 56.7415 C 56.9703 66.5104 57.1558 66.325 57.1558 66.0962 V 59.0896 C 57.1558 58.8608 56.9703 58.6753 56.7415 58.6753 Z" stroke-linecap="round"/>
</g>
		<g transform="matrix(1 0 0 1 23.0335 15.9339)">
<linearGradient id="SVGID_1768" gradientUnits="userSpaceOnUse" gradientTransform="matrix(1 0 0 1 0 0)" x1="56.4681" y1="53.386" x2="71.4221" y2="59.346">
<stop offset="0%" style="stop-color:rgb(255,146,142);stop-opacity: 1"/>
<stop offset="100%" style="stop-color:rgb(254,112,98);stop-opacity: 1"/>
</linearGradient>
<path style="stroke: none; stroke-width: 1; stroke-dasharray: none; stroke-linecap: butt; stroke-dashoffset: 0; stroke-linejoin: miter; stroke-miterlimit: 4; is-custom-font: none; font-file-url: none; fill: url(#SVGID_1768); fill-rule: nonzero; opacity: 0.3;" transform=" translate(-63.5335, -55.9339)" d="M 59.1784 47.6259 C 59.3164 47.6985 59.3695 47.8691 59.297 48.0071 C 59.1561 48.2751 59.025 48.5534 58.9067 48.8339 C 58.847 48.9759 58.6847 49.0434 58.5421 48.9865 C 58.5404 48.9859 58.5387 48.9851 58.537 48.9845 C 58.3933 48.9239 58.3258 48.7585 58.3864 48.6148 C 58.5107 48.3194 58.649 48.0265 58.7973 47.7445 C 58.865 47.6154 59.0187 47.5608 59.1513 47.6134 C 59.1604 47.6171 59.1695 47.6211 59.1784 47.6259 Z M 58.4258 50.2391 C 58.3473 50.5331 58.2804 50.8331 58.227 51.1311 C 58.1995 51.2845 58.053 51.3868 57.8995 51.3594 C 57.7455 51.3314 57.6438 51.1854 57.6713 51.0319 C 57.7273 50.7182 57.7975 50.4025 57.8804 50.0931 C 57.9207 49.9425 58.0755 49.8531 58.2261 49.8934 C 58.237 49.8962 58.2475 49.8999 58.2578 49.9039 C 58.389 49.9562 58.463 50.0994 58.4255 50.2388 L 58.4258 50.2391 Z M 58.0687 52.6071 C 58.0575 52.9102 58.0593 53.2176 58.0741 53.5208 C 58.0818 53.6765 57.9615 53.8088 57.8061 53.8165 C 57.6507 53.8239 57.5181 53.7042 57.5104 53.5485 C 57.4947 53.2291 57.493 52.9054 57.5047 52.5862 C 57.5104 52.4305 57.6415 52.3088 57.7973 52.3145 C 57.8304 52.3156 57.8621 52.3228 57.8913 52.3342 C 57.999 52.3771 58.0733 52.4845 58.0687 52.6071 Z M 58.2501 54.9956 C 58.307 55.2942 58.3775 55.5936 58.4595 55.8856 C 58.5015 56.0356 58.4141 56.1916 58.2641 56.2336 C 58.1141 56.2756 57.9584 56.1882 57.9161 56.0382 C 57.8298 55.7305 57.7555 55.4154 57.6955 55.1014 C 57.6664 54.9482 57.7667 54.8005 57.9198 54.7714 C 57.9747 54.7608 58.0287 54.7671 58.077 54.7862 C 58.1635 54.8208 58.2313 54.8974 58.2501 54.9956 Z M 58.959 57.2842 C 59.0804 57.5619 59.2155 57.8385 59.3604 58.1056 C 59.4347 58.2428 59.3838 58.4139 59.2467 58.4882 C 59.1095 58.5625 58.9384 58.5116 58.8641 58.3745 C 58.7115 58.0931 58.5695 57.8022 58.4418 57.5102 C 58.3793 57.3674 58.4444 57.2011 58.5873 57.1385 C 58.6593 57.1071 58.7373 57.1079 58.8047 57.1348 C 58.8713 57.1614 58.9278 57.2131 58.9587 57.2839 L 58.959 57.2842 Z M 60.1567 59.3588 C 60.3367 59.6031 60.5295 59.8428 60.7298 60.0711 C 60.8327 60.1882 60.821 60.3665 60.7038 60.4694 C 60.5867 60.5722 60.4084 60.5605 60.3055 60.4434 C 60.0947 60.2031 59.8918 59.9508 59.7024 59.6936 C 59.6098 59.5682 59.6367 59.3916 59.7621 59.2991 C 59.8435 59.2391 59.9467 59.2294 60.0344 59.2642 C 60.0815 59.2831 60.1244 59.3148 60.1567 59.3588 Z M 69.5695 63.9668 C 69.577 64.1225 69.4567 64.2548 69.301 64.2619 C 68.9821 64.2771 68.6581 64.2782 68.3381 64.2656 C 68.1824 64.2596 68.061 64.1285 68.0673 63.9725 C 68.0733 63.8168 68.2044 63.6956 68.3601 63.7016 C 68.6638 63.7136 68.9715 63.7122 69.2744 63.6979 C 69.3158 63.6959 69.3558 63.7031 69.3921 63.7176 C 69.4918 63.7574 69.5644 63.8525 69.5695 63.9668 Z M 61.7835 61.1154 C 62.0133 61.3134 62.2544 61.5039 62.5004 61.6814 C 62.6267 61.7728 62.6553 61.9491 62.5641 62.0754 C 62.4727 62.2016 62.2967 62.2297 62.1701 62.1388 C 61.9113 61.9517 61.6573 61.7511 61.4153 61.5425 C 61.2973 61.4408 61.2841 61.2625 61.3858 61.1445 C 61.4664 61.0508 61.5953 61.0231 61.7041 61.0665 C 61.7324 61.0776 61.7593 61.0939 61.7838 61.1151 L 61.7835 61.1154 Z M 67.1118 63.8682 C 67.0841 64.0216 66.9373 64.1234 66.7838 64.0959 C 66.4695 64.0391 66.1538 63.9682 65.845 63.8848 C 65.6941 63.8448 65.6055 63.6894 65.6458 63.5388 C 65.6864 63.3882 65.8413 63.2994 65.9918 63.3396 C 66.2853 63.4188 66.5855 63.4862 66.8841 63.5402 C 66.9033 63.5436 66.9213 63.5491 66.9387 63.5559 C 67.0607 63.6045 67.1358 63.7339 67.1115 63.8682 H 67.1118 Z M 63.7615 62.4639 C 64.0298 62.6054 64.3075 62.7374 64.5873 62.8556 C 64.731 62.9162 64.7978 63.0819 64.7373 63.2256 C 64.6773 63.3674 64.5153 63.4345 64.373 63.3779 C 64.3713 63.3771 64.3693 63.3765 64.3675 63.3756 C 64.073 63.2511 63.7804 63.1122 63.4981 62.9634 C 63.3604 62.8905 63.3075 62.7199 63.3804 62.5819 C 63.4484 62.4531 63.6018 62.3988 63.7341 62.4514 C 63.7433 62.4551 63.7527 62.4594 63.7615 62.4639 Z" stroke-linecap="round"/>
</g>
		<g transform="matrix(1 0 0 1 30.5294 23.7545)">
<linearGradient id="SVGID_1769" gradientUnits="userSpaceOnUse" gradientTransform="matrix(1 0 0 1 0 0)" x1="70.5789" y1="63.5744" x2="71.4521" y2="63.9224">
<stop offset="0%" style="stop-color:rgb(255,146,142);stop-opacity: 1"/>
<stop offset="100%" style="stop-color:rgb(254,112,98);stop-opacity: 1"/>
</linearGradient>
<path style="stroke: none; stroke-width: 1; stroke-dasharray: none; stroke-linecap: butt; stroke-dashoffset: 0; stroke-linejoin: miter; stroke-miterlimit: 4; is-custom-font: none; font-file-url: none; fill: url(#SVGID_1769); fill-rule: nonzero; opacity: 0.3;" transform=" translate(-71.0294, -63.7545)" d="M 71.3542 63.4456 C 71.3025 63.425 71.2445 63.4193 71.1862 63.433 C 71.0445 63.4659 70.8997 63.4964 70.756 63.5239 C 70.6028 63.553 70.5023 63.7007 70.5314 63.8539 C 70.5605 64.007 70.7082 64.1079 70.8614 64.0784 C 71.0128 64.0499 71.1648 64.0176 71.314 63.983 C 71.4657 63.9479 71.5602 63.7962 71.5251 63.6442 C 71.5034 63.5504 71.4374 63.4787 71.3545 63.4456 H 71.3542 Z" stroke-linecap="round"/>
</g>
		<g transform="matrix(1 0 0 1 37.5855 18.8331)">
<linearGradient id="SVGID_1770" gradientUnits="userSpaceOnUse" gradientTransform="matrix(1 0 0 1 0 0)" x1="77.772" y1="58.7071" x2="78.3713" y2="58.9459">
<stop offset="0%" style="stop-color:rgb(255,146,142);stop-opacity: 1"/>
<stop offset="100%" style="stop-color:rgb(254,112,98);stop-opacity: 1"/>
</linearGradient>
<path style="stroke: none; stroke-width: 1; stroke-dasharray: none; stroke-linecap: butt; stroke-dashoffset: 0; stroke-linejoin: miter; stroke-miterlimit: 4; is-custom-font: none; font-file-url: none; fill: url(#SVGID_1770); fill-rule: nonzero; opacity: 0.3;" transform=" translate(-78.0855, -58.8331)" d="M 78.3095 58.3794 C 78.1829 58.3288 78.0349 58.3762 77.9629 58.4971 C 77.8883 58.622 77.81 58.7474 77.7297 58.87 C 77.6443 59.0005 77.6809 59.1754 77.8115 59.2605 C 77.9423 59.3463 78.1169 59.3094 78.202 59.1788 C 78.2863 59.05 78.3689 58.9177 78.4475 58.7862 C 78.5275 58.6525 78.4835 58.4791 78.3497 58.3991 C 78.3366 58.3914 78.3232 58.3845 78.3092 58.3791 L 78.3095 58.3794 Z" stroke-linecap="round"/>
</g>
		<g transform="matrix(1 0 0 1 33.2402 9.6568)">
<linearGradient id="SVGID_1771" gradientUnits="userSpaceOnUse" gradientTransform="matrix(1 0 0 1 0 0)" x1="65.8137" y1="46.0413" x2="81.2168" y2="52.1803">
<stop offset="0%" style="stop-color:rgb(255,146,142);stop-opacity: 1"/>
<stop offset="100%" style="stop-color:rgb(254,112,98);stop-opacity: 1"/>
</linearGradient>
<path style="stroke: none; stroke-width: 1; stroke-dasharray: none; stroke-linecap: butt; stroke-dashoffset: 0; stroke-linejoin: miter; stroke-miterlimit: 4; is-custom-font: none; font-file-url: none; fill: url(#SVGID_1771); fill-rule: nonzero; opacity: 0.3;" transform=" translate(-73.7402, -49.6568)" d="M 73.4676 42.7503 C 73.6093 42.8149 73.6719 42.9826 73.607 43.1243 C 73.5421 43.266 73.375 43.3283 73.233 43.2637 C 72.963 43.1406 72.6836 43.0269 72.3996 42.9246 C 72.2536 42.8726 72.177 42.71 72.2296 42.5634 C 72.2821 42.4169 72.4441 42.3409 72.5907 42.3934 C 72.7139 42.4377 72.8359 42.484 72.9564 42.532 C 73.1284 42.6006 73.3004 42.674 73.4673 42.7503 H 73.4676 Z M 71.329 42.3066 C 71.2964 42.4589 71.1467 42.5563 70.9941 42.5237 C 70.7016 42.4614 70.403 42.4106 70.107 42.3731 C 69.9524 42.354 69.843 42.2123 69.8624 42.0577 C 69.8821 41.9031 70.0233 41.7937 70.1779 41.8134 C 70.4896 41.8529 70.8036 41.9063 71.1116 41.972 C 71.1276 41.9754 71.143 41.98 71.1576 41.986 C 71.283 42.036 71.3579 42.1703 71.3287 42.3069 L 71.329 42.3066 Z M 74.8196 43.4834 C 75.0847 43.6517 75.3461 43.8334 75.597 44.024 C 75.721 44.1183 75.7453 44.2954 75.651 44.4194 C 75.5567 44.5434 75.3799 44.5674 75.2556 44.4731 C 75.0176 44.292 74.7693 44.1194 74.5173 43.9597 C 74.3856 43.8763 74.3467 43.7017 74.4301 43.57 C 74.5041 43.4537 74.649 43.4097 74.7727 43.4589 C 74.7887 43.4651 74.8044 43.4731 74.8196 43.4829 V 43.4834 Z M 68.9276 42.004 C 68.9293 42.1597 68.8044 42.2877 68.6487 42.2894 C 68.3499 42.2929 68.0479 42.3091 67.7507 42.3377 C 67.5956 42.3529 67.4576 42.2391 67.4427 42.0837 C 67.4279 41.9286 67.5413 41.7909 67.6964 41.7757 C 68.0093 41.7457 68.3276 41.7286 68.6421 41.7249 C 68.6801 41.7246 68.7164 41.7314 68.7499 41.7449 C 68.853 41.786 68.9261 41.8863 68.9276 42.004 Z M 76.7536 45.0363 C 76.975 45.2586 77.1901 45.4934 77.3927 45.7346 C 77.493 45.8537 77.4776 46.0317 77.3584 46.132 C 77.239 46.2326 77.061 46.2171 76.9607 46.0977 C 76.7681 45.8689 76.5639 45.6457 76.3536 45.4346 C 76.2436 45.324 76.2439 45.1454 76.3544 45.0354 C 76.4367 44.9534 76.557 44.9329 76.6581 44.9731 C 76.6927 44.9869 76.7253 45.008 76.7533 45.0363 H 76.7536 Z M 78.3001 46.9754 C 78.4681 47.2414 78.6267 47.5174 78.7719 47.7963 C 78.8439 47.9346 78.7901 48.1049 78.6519 48.1769 C 78.5133 48.2489 78.343 48.1951 78.2713 48.0569 C 78.1336 47.792 77.9827 47.5297 77.8233 47.2769 C 77.7401 47.1451 77.7796 46.9709 77.9113 46.8874 C 77.9907 46.8374 78.0856 46.8317 78.1667 46.864 C 78.2201 46.8854 78.2676 46.9231 78.3007 46.9754 H 78.3001 Z M 79.3873 49.2057 C 79.4933 49.502 79.5881 49.8063 79.669 50.1097 C 79.709 50.2603 79.6196 50.4149 79.469 50.4551 C 79.3181 50.4954 79.1639 50.4057 79.1236 50.2551 C 79.0467 49.9669 78.9567 49.678 78.8559 49.3963 C 78.8033 49.2494 78.8796 49.088 79.0264 49.0354 C 79.0939 49.0111 79.1644 49.0143 79.2259 49.0389 C 79.2984 49.0677 79.3587 49.1266 79.3873 49.206 V 49.2057 Z M 79.9621 51.62 C 80.001 51.9323 80.0267 52.25 80.0387 52.5643 C 80.0447 52.72 79.9233 52.8511 79.7676 52.8571 C 79.6121 52.8631 79.4807 52.7417 79.4747 52.586 C 79.4633 52.2877 79.4387 51.9863 79.4019 51.6894 C 79.3827 51.5349 79.4924 51.3937 79.6473 51.3746 C 79.6961 51.3686 79.7436 51.3754 79.7864 51.3923 C 79.879 51.4291 79.949 51.514 79.9621 51.62 Z M 79.9924 54.1029 C 79.9616 54.4154 79.9167 54.7306 79.8593 55.04 C 79.831 55.1931 79.6836 55.2946 79.5304 55.266 C 79.3776 55.2377 79.2759 55.0903 79.3044 54.9372 C 79.359 54.6431 79.4016 54.3437 79.431 54.0469 C 79.4464 53.8917 79.5847 53.7786 79.7396 53.794 C 79.7667 53.7966 79.7924 53.8031 79.8164 53.8126 C 79.9304 53.858 80.0053 53.9746 79.9927 54.1026 L 79.9924 54.1029 Z M 79.4773 56.5291 C 79.405 56.7489 79.3247 56.9691 79.2393 57.1837 C 79.2084 57.2614 79.1767 57.3386 79.1441 57.4151 C 79.0833 57.5586 78.9181 57.6291 78.7741 57.5649 C 78.6307 57.504 78.5636 57.3383 78.6244 57.1949 C 78.6553 57.122 78.6856 57.0486 78.715 56.9749 C 78.7964 56.7709 78.8724 56.5617 78.9413 56.3526 C 78.9901 56.2046 79.1496 56.124 79.2976 56.1729 C 79.303 56.1749 79.3087 56.1766 79.3141 56.1789 C 79.4516 56.2337 79.5244 56.3869 79.4773 56.5291 Z" stroke-linecap="round"/>
</g>
		<g transform="matrix(1 0 0 1 25.5181 2.3606)">
<linearGradient id="SVGID_1772" gradientUnits="userSpaceOnUse" gradientTransform="matrix(1 0 0 1 0 0)" x1="65.5717" y1="42.1829" x2="66.434" y2="42.5266">
<stop offset="0%" style="stop-color:rgb(255,146,142);stop-opacity: 1"/>
<stop offset="100%" style="stop-color:rgb(254,112,98);stop-opacity: 1"/>
</linearGradient>
<path style="stroke: none; stroke-width: 1; stroke-dasharray: none; stroke-linecap: butt; stroke-dashoffset: 0; stroke-linejoin: miter; stroke-miterlimit: 4; is-custom-font: none; font-file-url: none; fill: url(#SVGID_1772); fill-rule: nonzero; opacity: 0.3;" transform=" translate(-66.0182, -42.3606)" d="M 66.3408 42.0418 C 66.2888 42.0209 66.2299 42.0155 66.1714 42.0295 C 66.0228 42.0649 65.8719 42.1041 65.7234 42.1458 C 65.5734 42.1881 65.4859 42.3438 65.5282 42.4938 C 65.5705 42.6438 65.7262 42.7312 65.8762 42.6889 C 66.0174 42.6492 66.1605 42.6121 66.3017 42.5783 C 66.4534 42.5423 66.5471 42.3903 66.5111 42.2386 C 66.4891 42.1458 66.4234 42.0746 66.3408 42.0415 V 42.0418 Z" stroke-linecap="round"/>
</g>
		<g transform="matrix(1 0 0 1 28.2468 13.0825)">
<linearGradient id="SVGID_1773" gradientUnits="userSpaceOnUse" gradientTransform="matrix(1 0 0 1 0 0)" x1="75.6701" y1="40.1178" x2="95.365" y2="3.23842">
<stop offset="0%" style="stop-color:rgb(255,146,142);stop-opacity: 1"/>
<stop offset="100%" style="stop-color:rgb(254,112,98);stop-opacity: 1"/>
</linearGradient>
<path style="stroke: none; stroke-width: 1; stroke-dasharray: none; stroke-linecap: butt; stroke-dashoffset: 0; stroke-linejoin: miter; stroke-miterlimit: 4; is-custom-font: none; font-file-url: none; fill: url(#SVGID_1773); fill-rule: nonzero; opacity: 1;" transform=" translate(-68.7467, -53.0824)" d="M 63.7993 46.1587 C 63.7502 46.1861 63.7236 46.2416 63.7336 46.297 L 64.013 47.8778 C 63.4579 48.3818 62.9793 48.9778 62.6036 49.6518 L 61.0016 49.7378 C 60.9453 49.741 60.8973 49.7793 60.8819 49.8333 L 60.3527 51.6847 C 60.3373 51.7387 60.3579 51.7967 60.4039 51.829 L 61.7184 52.7487 C 61.6813 53.5193 61.7727 54.2784 61.9776 54.9996 L 60.905 56.1941 C 60.8673 56.2361 60.8604 56.297 60.8879 56.3464 L 61.823 58.0298 C 61.8504 58.079 61.9059 58.1056 61.9613 58.0956 L 63.5422 57.8161 C 64.0462 58.3713 64.6422 58.8501 65.3162 59.2256 L 65.4022 60.8276 C 65.4053 60.8838 65.4436 60.9318 65.4976 60.9473 L 67.349 61.4764 C 67.403 61.4918 67.461 61.4713 67.4933 61.4253 L 68.413 60.1107 C 69.1836 60.1479 69.9427 60.0564 70.6639 59.8516 L 71.8584 60.9241 C 71.9004 60.9618 71.9613 60.9687 72.0107 60.9413 L 73.6942 60.0061 C 73.7433 59.9787 73.7699 59.9233 73.7599 59.8679 L 73.4804 58.287 C 74.0356 57.783 74.5141 57.187 74.8899 56.513 L 76.4919 56.427 C 76.5482 56.4241 76.5961 56.3856 76.6116 56.3316 L 77.1407 54.4801 C 77.1561 54.4261 77.1356 54.3681 77.0896 54.3358 L 75.775 53.4161 C 75.8122 52.6456 75.7207 51.8864 75.5159 51.1653 L 76.5884 49.9707 C 76.6262 49.929 76.633 49.8678 76.6056 49.8184 L 75.6704 48.135 C 75.643 48.0858 75.5876 48.0593 75.5322 48.0693 L 73.9513 48.3487 C 73.4473 47.7936 72.8513 47.315 72.1773 46.9393 L 72.0913 45.3373 C 72.0882 45.281 72.0499 45.233 71.9959 45.2176 L 70.1444 44.6884 C 70.0904 44.673 70.0324 44.6936 70.0002 44.7396 L 69.0804 46.0541 C 68.3099 46.017 67.5507 46.1084 66.8296 46.3133 L 65.635 45.2407 C 65.593 45.203 65.5321 45.1961 65.4827 45.2236 L 63.7993 46.1587 Z" stroke-linecap="round"/>
</g>
		<g transform="matrix(1 0 0 1 28.2466 13.0831)">
<path style="stroke: none; stroke-width: 1; stroke-dasharray: none; stroke-linecap: butt; stroke-dashoffset: 0; stroke-linejoin: miter; stroke-miterlimit: 4; is-custom-font: none; font-file-url: none; fill: rgb(255,255,255); fill-rule: nonzero; opacity: 0.7;" transform=" translate(-68.7467, -53.0831)" d="M 69.7178 51.4081 C 70.6409 51.9436 70.9564 53.1304 70.4209 54.0538 C 70.1615 54.501 69.7435 54.8204 69.2438 54.9533 C 68.7441 55.0861 68.2226 55.0164 67.7755 54.757 C 66.8524 54.2213 66.5369 53.0347 67.0724 52.1113 C 67.5595 51.2713 68.5858 50.9344 69.4624 51.2838 C 69.5492 51.3184 69.6346 51.3598 69.7181 51.4081 H 69.7178 Z M 69.1278 54.5167 C 69.5109 54.415 69.8315 54.1698 70.0304 53.827 C 70.4409 53.1193 70.1992 52.2093 69.4912 51.7987 C 68.7832 51.3878 67.8735 51.6298 67.4626 52.3378 C 67.0521 53.0456 67.2938 53.9556 68.0018 54.3661 C 68.0661 54.4033 68.1321 54.4353 68.1998 54.4624 C 68.4938 54.5796 68.8164 54.5996 69.1278 54.5167 Z" stroke-linecap="round"/>
</g>
		<g transform="matrix(1 0 0 1 28.2636 13.1255)">
<path style="stroke: none; stroke-width: 1; stroke-dasharray: none; stroke-linecap: butt; stroke-dashoffset: 0; stroke-linejoin: miter; stroke-miterlimit: 4; is-custom-font: none; font-file-url: none; fill: rgb(255,255,255); fill-rule: nonzero; opacity: 0.7;" transform=" translate(-68.7636, -53.1255)" d="M 70.5335 48.7017 C 70.3829 48.6417 70.2286 48.5888 70.0706 48.5437 C 70.0209 48.5294 69.9709 48.5159 69.9209 48.5034 C 69.6735 48.4411 69.4218 48.3988 69.1692 48.3768 C 69.1658 48.3765 69.1623 48.3762 69.1589 48.3759 C 69.1492 48.3751 69.1395 48.3742 69.1295 48.3736 C 69.1103 48.3722 69.0915 48.3708 69.0723 48.3697 C 69.0223 48.3662 68.9778 48.3962 68.96 48.4402 C 68.9558 48.4511 68.9532 48.4625 68.9523 48.4748 C 68.9483 48.5371 68.9955 48.5905 69.0575 48.5948 C 69.3775 48.6159 69.6975 48.6719 70.0086 48.7608 C 71.5535 49.2019 72.682 50.3982 73.1092 51.8345 C 73.3469 52.6334 73.3675 53.5065 73.122 54.3657 C 73.0789 54.5162 73.0286 54.6636 72.9715 54.8074 C 72.586 55.7736 71.886 56.5714 70.9646 57.0831 C 69.906 57.6711 68.6817 57.8117 67.5175 57.4791 C 65.1129 56.7917 63.7172 54.2776 64.404 51.8742 C 64.4463 51.7259 64.496 51.5805 64.5529 51.4382 C 64.7986 50.8219 65.1766 50.2662 65.6615 49.8122 C 65.674 49.8005 65.6832 49.7865 65.6892 49.7716 C 65.7049 49.7322 65.6978 49.6856 65.6666 49.6528 C 65.6238 49.6074 65.5526 49.6048 65.5069 49.6477 C 64.9978 50.1242 64.6009 50.7077 64.3429 51.3545 C 64.2835 51.5037 64.2312 51.6565 64.1866 51.8119 C 63.4655 54.3354 64.9323 56.9751 67.4552 57.6962 C 68.6775 58.0456 69.9629 57.8979 71.074 57.2805 C 72.0415 56.7431 72.7766 55.9056 73.1809 54.8914 C 73.2409 54.7405 73.2937 54.5859 73.3389 54.4279 C 73.6883 53.2054 73.5406 51.9202 72.9232 50.8088 C 72.3858 49.8411 71.5478 49.1059 70.5332 48.7017 H 70.5335 Z" stroke-linecap="round"/>
</g>
		<g transform="matrix(1 0 0 1 13.2824 -2.1741)">
<linearGradient id="SVGID_1774" gradientUnits="userSpaceOnUse" gradientTransform="matrix(1 0 0 1 0 0)" x1="53.5675" y1="37.7416" x2="53.9654" y2="37.9002">
<stop offset="0%" style="stop-color:rgb(255,146,142);stop-opacity: 1"/>
<stop offset="100%" style="stop-color:rgb(254,112,98);stop-opacity: 1"/>
</linearGradient>
<path style="stroke: none; stroke-width: 1; stroke-dasharray: none; stroke-linecap: butt; stroke-dashoffset: 0; stroke-linejoin: miter; stroke-miterlimit: 4; is-custom-font: none; font-file-url: none; fill: url(#SVGID_1774); fill-rule: nonzero; opacity: 0.3;" transform=" translate(-53.7824, -37.8259)" d="M 53.9631 37.511 C 53.8976 37.485 53.8205 37.5036 53.7748 37.5619 C 53.6896 37.6707 53.6065 37.7833 53.5279 37.897 C 53.4768 37.971 53.4953 38.0722 53.5693 38.1233 C 53.6431 38.1747 53.7448 38.1559 53.7956 38.0819 C 53.8705 37.9736 53.9496 37.8659 54.0311 37.7622 C 54.0865 37.6916 54.0742 37.5893 54.0033 37.5336 C 53.9908 37.5239 53.9771 37.5162 53.9631 37.5104 V 37.511 Z" stroke-linecap="round"/>
</g>
		<g transform="matrix(1 0 0 1 14.6823 3.669)">
<linearGradient id="SVGID_1775" gradientUnits="userSpaceOnUse" gradientTransform="matrix(1 0 0 1 0 0)" x1="51.6244" y1="42.1483" x2="59.424" y2="45.2569">
<stop offset="0%" style="stop-color:rgb(255,146,142);stop-opacity: 1"/>
<stop offset="100%" style="stop-color:rgb(254,112,98);stop-opacity: 1"/>
</linearGradient>
<path style="stroke: none; stroke-width: 1; stroke-dasharray: none; stroke-linecap: butt; stroke-dashoffset: 0; stroke-linejoin: miter; stroke-miterlimit: 4; is-custom-font: none; font-file-url: none; fill: url(#SVGID_1775); fill-rule: nonzero; opacity: 0.3;" transform=" translate(-55.1823, -43.669)" d="M 53.2995 38.57 C 53.3792 38.6117 53.41 38.71 53.3683 38.7897 C 53.2635 38.9908 53.1675 39.1997 53.0838 39.4103 C 53.066 39.4548 53.0489 39.4994 53.032 39.5445 C 53.0006 39.6285 52.9066 39.6714 52.8226 39.6397 C 52.7443 39.6068 52.6958 39.5143 52.7272 39.43 C 52.7449 39.3828 52.7629 39.336 52.7815 39.2894 C 52.8695 39.0685 52.97 38.8497 53.08 38.6385 C 53.1189 38.564 53.2078 38.532 53.2843 38.5625 C 53.2895 38.5645 53.2946 38.5668 53.2995 38.5694 V 38.57 Z M 52.7898 40.3348 C 52.7255 40.6023 52.6769 40.876 52.6458 41.1485 C 52.6355 41.238 52.5549 41.302 52.4658 41.2917 C 52.3769 41.2814 52.3123 41.2008 52.3226 41.1117 C 52.3552 40.826 52.4058 40.5391 52.4735 40.2588 C 52.4946 40.1714 52.5823 40.1177 52.6698 40.1385 C 52.6775 40.1403 52.6849 40.1428 52.692 40.1457 C 52.766 40.1751 52.8089 40.2551 52.7898 40.3348 Z M 52.6038 41.974 C 52.6069 42.2485 52.6272 42.526 52.6643 42.7983 C 52.6763 42.8871 52.614 42.9694 52.5249 42.9814 C 52.4355 42.9934 52.3538 42.9314 52.3418 42.8423 C 52.3029 42.5565 52.2815 42.2657 52.2783 41.9777 C 52.2775 41.8877 52.3495 41.814 52.4392 41.8131 C 52.4612 41.8131 52.482 41.8171 52.5012 41.8245 C 52.5606 41.8483 52.6029 41.906 52.6038 41.974 Z M 52.826 43.6088 C 52.8963 43.8748 52.984 44.1388 53.0863 44.3931 C 53.1198 44.4765 53.0795 44.5714 52.996 44.6048 C 52.9129 44.6383 52.818 44.598 52.7843 44.5145 C 52.6769 44.2477 52.5852 43.9711 52.5115 43.6923 C 52.4883 43.6054 52.5403 43.5163 52.6272 43.4931 C 52.6623 43.484 52.6975 43.4868 52.7289 43.4994 C 52.7752 43.518 52.8123 43.5571 52.826 43.6091 V 43.6088 Z M 53.4409 45.1397 C 53.5738 45.3803 53.7229 45.6148 53.8838 45.8371 C 53.9366 45.9097 53.9203 46.0117 53.8475 46.0643 C 53.7746 46.1171 53.6729 46.1008 53.6203 46.028 C 53.4515 45.7951 53.2955 45.5491 53.156 45.2968 C 53.1126 45.218 53.1412 45.1191 53.2198 45.0757 C 53.2643 45.0511 53.3152 45.0497 53.3589 45.0668 C 53.3926 45.0802 53.422 45.1051 53.4412 45.1394 L 53.4409 45.1397 Z M 54.4086 46.4751 C 54.5958 46.676 54.7975 46.8671 55.0078 47.0428 C 55.0766 47.1005 55.0858 47.2031 55.0283 47.272 C 54.9706 47.3408 54.8683 47.35 54.7989 47.2925 C 54.5783 47.1083 54.3669 46.9077 54.1703 46.6968 C 54.1092 46.6311 54.1126 46.528 54.1783 46.4668 C 54.226 46.4225 54.2932 46.412 54.3498 46.4345 C 54.3715 46.4431 54.3915 46.4565 54.4086 46.4748 V 46.4751 Z M 55.6729 47.5328 C 55.9029 47.6811 56.1455 47.8171 56.3938 47.9365 C 56.4746 47.9757 56.5086 48.0728 56.4698 48.1537 C 56.4309 48.2345 56.3343 48.2674 56.2523 48.2297 C 55.992 48.1043 55.7378 47.9617 55.4966 47.8062 C 55.4212 47.7574 55.3992 47.6568 55.448 47.5811 C 55.4909 47.5145 55.574 47.49 55.6449 47.518 C 55.6546 47.5217 55.6638 47.5265 55.6729 47.5323 V 47.5328 Z M 58.0832 48.6571 C 58.0649 48.7451 57.9789 48.8017 57.8909 48.7837 C 57.6472 48.7334 57.402 48.6688 57.1629 48.5922 C 57.1266 48.5808 57.0903 48.5688 57.0543 48.5568 C 56.9689 48.5305 56.9235 48.4357 56.9526 48.3503 C 56.9815 48.2651 57.0738 48.2197 57.1592 48.2485 C 57.1929 48.26 57.2269 48.2711 57.2615 48.2823 C 57.4903 48.3557 57.724 48.4171 57.9566 48.4651 C 57.9663 48.4671 57.9755 48.47 57.984 48.4734 C 58.056 48.502 58.0992 48.5791 58.0829 48.6574 L 58.0832 48.6571 Z" stroke-linecap="round"/>
</g>
		<g transform="matrix(1 0 0 1 21.9138 -1.8295)">
<linearGradient id="SVGID_1776" gradientUnits="userSpaceOnUse" gradientTransform="matrix(1 0 0 1 0 0)" x1="58.0851" y1="36.0583" x2="66.9873" y2="39.6063">
<stop offset="0%" style="stop-color:rgb(255,146,142);stop-opacity: 1"/>
<stop offset="100%" style="stop-color:rgb(254,112,98);stop-opacity: 1"/>
</linearGradient>
<path style="stroke: none; stroke-width: 1; stroke-dasharray: none; stroke-linecap: butt; stroke-dashoffset: 0; stroke-linejoin: miter; stroke-miterlimit: 4; is-custom-font: none; font-file-url: none; fill: url(#SVGID_1776); fill-rule: nonzero; opacity: 0.3;" transform=" translate(-62.4138, -38.1704)" d="M 62.0018 35.4059 C 62.2638 35.5141 62.5215 35.6399 62.7678 35.7784 C 62.8461 35.8227 62.8738 35.9219 62.8295 36.0001 C 62.7852 36.0784 62.6861 36.105 62.6078 36.0619 C 62.3729 35.9296 62.1272 35.8099 61.8772 35.7064 C 61.7941 35.6721 61.7547 35.5767 61.789 35.4939 C 61.823 35.4116 61.9169 35.3719 61.9995 35.4047 C 61.9995 35.4047 62.0009 35.4053 62.0015 35.4056 L 62.0018 35.4059 Z M 61.3089 35.3284 C 61.2847 35.415 61.1949 35.4656 61.1084 35.4413 C 60.8481 35.3687 60.5807 35.311 60.3135 35.2699 C 60.2252 35.2561 60.1638 35.1733 60.1775 35.0841 C 60.1912 34.9953 60.2741 34.9344 60.3629 34.9479 C 60.6429 34.9907 60.9232 35.0513 61.1961 35.1276 C 61.2018 35.1293 61.2072 35.131 61.2129 35.1333 C 61.2892 35.1636 61.3318 35.2473 61.3092 35.3281 L 61.3089 35.3284 Z M 63.4835 36.2419 C 63.7118 36.4104 63.9315 36.5944 64.1369 36.7887 C 64.2021 36.8504 64.2052 36.9536 64.1432 37.0187 C 64.0815 37.0841 63.9789 37.0867 63.9132 37.0253 C 63.7172 36.8399 63.5075 36.6644 63.2898 36.5033 C 63.2175 36.4499 63.2024 36.3479 63.2555 36.2759 C 63.3004 36.215 63.3795 36.1947 63.4467 36.2213 C 63.4592 36.2264 63.4715 36.233 63.4832 36.2416 L 63.4835 36.2419 Z M 59.6715 35.0384 C 59.6689 35.1281 59.5938 35.199 59.5041 35.1964 C 59.2338 35.1884 58.9607 35.197 58.6915 35.2221 C 58.6021 35.2304 58.5229 35.1644 58.5144 35.0753 C 58.5061 34.9859 58.5718 34.9064 58.6615 34.8981 C 58.9435 34.8719 59.2304 34.8627 59.5138 34.8713 C 59.5335 34.8719 59.5521 34.8759 59.5692 34.8827 C 59.6309 34.9073 59.6738 34.9684 59.6715 35.0387 V 35.0384 Z M 64.7189 37.4107 C 64.8995 37.6287 65.0687 37.8601 65.2215 38.0987 C 65.2701 38.1744 65.2481 38.275 65.1724 38.3236 C 65.0967 38.3721 64.9961 38.3504 64.9475 38.2744 C 64.8018 38.047 64.6404 37.8261 64.4681 37.6184 C 64.4109 37.5493 64.4204 37.4467 64.4898 37.3893 C 64.5372 37.3499 64.6004 37.3421 64.6541 37.3636 C 64.6787 37.3733 64.7009 37.389 64.7189 37.4107 Z M 65.6381 38.8421 C 65.7615 39.0976 65.8704 39.363 65.9618 39.6304 C 65.9909 39.7153 65.9455 39.8079 65.8604 39.837 C 65.7755 39.8661 65.6829 39.8207 65.6538 39.7356 C 65.5667 39.4804 65.4627 39.2273 65.345 38.9836 C 65.3058 38.9027 65.3398 38.8053 65.4207 38.7661 C 65.4635 38.7456 65.5107 38.7453 65.5518 38.7616 C 65.5884 38.7761 65.6195 38.8039 65.6381 38.8419 V 38.8421 Z M 66.1881 40.4524 C 66.2467 40.7301 66.2887 41.0141 66.3132 41.2959 C 66.3209 41.3856 66.2547 41.4644 66.1649 41.4721 C 66.0755 41.4799 65.9967 41.4136 65.9887 41.3241 C 65.9655 41.0553 65.9252 40.7847 65.8692 40.5201 C 65.8507 40.4321 65.9069 40.3459 65.9949 40.3273 C 66.0275 40.3204 66.0598 40.3239 66.0887 40.3353 C 66.1375 40.3547 66.1761 40.3976 66.1878 40.4527 L 66.1881 40.4524 Z" stroke-linecap="round"/>
</g>
		<g transform="matrix(1 0 0 1 17.1491 -4.7618)">
<linearGradient id="SVGID_1777" gradientUnits="userSpaceOnUse" gradientTransform="matrix(1 0 0 1 0 0)" x1="57.3284" y1="35.1115" x2="57.9373" y2="35.3542">
<stop offset="0%" style="stop-color:rgb(255,146,142);stop-opacity: 1"/>
<stop offset="100%" style="stop-color:rgb(254,112,98);stop-opacity: 1"/>
</linearGradient>
<path style="stroke: none; stroke-width: 1; stroke-dasharray: none; stroke-linecap: butt; stroke-dashoffset: 0; stroke-linejoin: miter; stroke-miterlimit: 4; is-custom-font: none; font-file-url: none; fill: url(#SVGID_1777); fill-rule: nonzero; opacity: 0.3;" transform=" translate(-57.6491, -35.2382)" d="M 57.9063 35.0376 C 57.8772 35.0259 57.8443 35.0228 57.8115 35.0299 C 57.6755 35.0596 57.5395 35.0936 57.4077 35.1308 C 57.3212 35.1551 57.2709 35.2451 57.2952 35.3316 C 57.3197 35.4179 57.4095 35.4685 57.496 35.4442 C 57.6217 35.4088 57.7512 35.3765 57.8812 35.3479 C 57.9689 35.3288 58.0246 35.2419 58.0052 35.1542 C 57.9932 35.0993 57.9549 35.0571 57.9063 35.0379 V 35.0376 Z" stroke-linecap="round"/>
</g>
		<g transform="matrix(1 0 0 1 18.7927 1.9507)">
<linearGradient id="SVGID_1778" gradientUnits="userSpaceOnUse" gradientTransform="matrix(1 0 0 1 0 0)" x1="65.1176" y1="30.3003" x2="84.0398" y2="-7.54453">
<stop offset="0%" style="stop-color:rgb(255,146,142);stop-opacity: 1"/>
<stop offset="100%" style="stop-color:rgb(254,112,98);stop-opacity: 1"/>
</linearGradient>
<path style="stroke: none; stroke-width: 1; stroke-dasharray: none; stroke-linecap: butt; stroke-dashoffset: 0; stroke-linejoin: miter; stroke-miterlimit: 4; is-custom-font: none; font-file-url: none; fill: url(#SVGID_1778); fill-rule: nonzero; opacity: 1;" transform=" translate(-59.2927, -41.9508)" d="M 56.2016 37.6249 C 56.1707 37.642 56.1544 37.6766 56.1604 37.7112 L 56.335 38.6989 C 55.9881 39.0138 55.689 39.386 55.4544 39.8072 L 54.4536 39.8609 C 54.4184 39.8629 54.3884 39.8866 54.3787 39.9206 L 54.0481 41.0775 C 54.0384 41.1112 54.0513 41.1475 54.0801 41.1678 L 54.9016 41.7423 C 54.8784 42.2238 54.9356 42.698 55.0636 43.1486 L 54.3936 43.8949 C 54.3701 43.9212 54.3658 43.9592 54.3827 43.99 L 54.967 45.0418 C 54.9841 45.0726 55.0187 45.0889 55.0533 45.0829 L 56.041 44.9083 C 56.3558 45.2552 56.7281 45.5543 57.1493 45.7889 L 57.203 46.7898 C 57.205 46.8249 57.2287 46.8549 57.2627 46.8646 L 58.4196 47.1952 C 58.4533 47.2049 58.4896 47.192 58.5098 47.1632 L 59.0844 46.3418 C 59.5658 46.3649 60.0401 46.3078 60.4907 46.1798 L 61.237 46.85 C 61.2633 46.8735 61.3013 46.8778 61.3321 46.8609 L 62.3838 46.2766 C 62.4147 46.2595 62.431 46.2249 62.425 46.1903 L 62.2504 45.2026 C 62.5973 44.8878 62.8964 44.5155 63.131 44.0943 L 64.1318 44.0406 C 64.167 44.0386 64.197 44.0149 64.2067 43.9809 L 64.5373 42.824 C 64.547 42.7903 64.5341 42.754 64.5053 42.7338 L 63.6838 42.1592 C 63.707 41.6778 63.6498 41.2035 63.5218 40.7529 L 64.1918 40.0066 C 64.2153 39.9803 64.2196 39.9423 64.2027 39.9115 L 63.6184 38.8598 C 63.6013 38.8289 63.5667 38.8126 63.5321 38.8186 L 62.5444 38.9932 C 62.2296 38.6463 61.8573 38.3472 61.4361 38.1126 L 61.3824 37.1118 C 61.3804 37.0766 61.3567 37.0466 61.3227 37.0369 L 60.1658 36.7063 C 60.1321 36.6966 60.0958 36.7095 60.0756 36.7383 L 59.501 37.5598 C 59.0196 37.5366 58.5453 37.5938 58.0947 37.7218 L 57.3484 37.0518 C 57.3221 37.0283 57.2841 37.024 57.2533 37.0409 L 56.2016 37.6252 V 37.6249 Z" stroke-linecap="round"/>
</g>
		<g transform="matrix(1 0 0 1 18.7928 1.9495)">
<path style="stroke: none; stroke-width: 1; stroke-dasharray: none; stroke-linecap: butt; stroke-dashoffset: 0; stroke-linejoin: miter; stroke-miterlimit: 4; is-custom-font: none; font-file-url: none; fill: rgb(255,255,255); fill-rule: nonzero; opacity: 0.7;" transform=" translate(-59.2927, -41.9495)" d="M 59.91 40.8855 C 60.1946 41.0503 60.3977 41.3163 60.482 41.634 C 60.5666 41.9517 60.522 42.2835 60.3572 42.5677 C 60.0166 43.1549 59.2632 43.3549 58.6746 43.0149 C 58.0875 42.674 57.8869 41.9195 58.2275 41.3323 C 58.3923 41.0477 58.6583 40.8446 58.976 40.7603 C 59.2343 40.6917 59.5017 40.708 59.7457 40.8055 C 59.8017 40.8277 59.8566 40.8546 59.9097 40.8852 L 59.91 40.8855 Z M 60.0757 42.4049 C 60.1972 42.1957 60.2297 41.9517 60.1677 41.7177 C 60.1057 41.484 59.956 41.2886 59.7469 41.1672 C 59.5374 41.046 59.2937 41.0132 59.0597 41.0755 C 58.826 41.1375 58.6306 41.2872 58.5092 41.4963 C 58.2586 41.9283 58.406 42.4835 58.838 42.734 C 58.8772 42.7566 58.9169 42.776 58.9577 42.792 C 59.3677 42.9555 59.848 42.7977 60.0757 42.4052 V 42.4049 Z" stroke-linecap="round"/>
</g>
		<g transform="matrix(1 0 0 1 18.804 1.9776)">
<path style="stroke: none; stroke-width: 1; stroke-dasharray: none; stroke-linecap: butt; stroke-dashoffset: 0; stroke-linejoin: miter; stroke-miterlimit: 4; is-custom-font: none; font-file-url: none; fill: rgb(255,255,255); fill-rule: nonzero; opacity: 0.7;" transform=" translate(-59.304, -41.9776)" d="M 60.4411 39.1268 C 60.3454 39.0888 60.2471 39.055 60.1459 39.0262 C 59.9454 38.9688 59.7385 38.9316 59.5311 38.9162 C 59.5216 38.9156 59.5125 38.915 59.5031 38.9142 C 59.4308 38.9093 59.3665 38.9525 59.3411 39.0162 C 59.3348 39.0316 59.3311 39.0485 59.3299 39.0659 C 59.3239 39.1556 59.3922 39.2328 59.4816 39.239 C 59.6756 39.2519 59.8688 39.2856 60.0565 39.3393 C 60.0668 39.3422 60.0771 39.3453 60.0874 39.3485 C 60.5299 39.4796 60.9231 39.7159 61.2408 40.0342 C 61.4134 40.207 61.5634 40.4039 61.6871 40.6219 C 61.6882 40.6236 61.6891 40.6253 61.6902 40.6273 C 61.6934 40.6328 61.6962 40.6382 61.6994 40.6436 C 62.0548 41.2836 62.1396 42.0233 61.9385 42.7273 C 61.9125 42.8185 61.8822 42.9073 61.8476 42.9942 C 61.6148 43.5782 61.1916 44.0605 60.6345 44.3699 C 59.9945 44.7253 59.2548 44.8102 58.5511 44.609 C 57.8479 44.4079 57.2639 43.9448 56.9085 43.305 C 56.5531 42.665 56.4682 41.9253 56.6694 41.2213 C 56.6948 41.1319 56.7251 41.0439 56.7594 40.9579 C 56.9079 40.5853 57.1362 40.2493 57.4294 39.975 C 57.4474 39.9582 57.4608 39.9382 57.4694 39.9165 C 57.4919 39.8599 57.4816 39.7925 57.4371 39.745 C 57.3754 39.6796 57.2728 39.6759 57.2071 39.7376 C 56.8791 40.0445 56.6236 40.4205 56.4574 40.837 C 56.4191 40.9333 56.3854 41.0316 56.3568 41.1319 C 56.1316 41.9193 56.2268 42.7473 56.6245 43.463 C 57.0222 44.1788 57.6742 44.6973 58.4622 44.9219 C 59.2496 45.147 60.0774 45.0519 60.7934 44.6542 C 61.4165 44.3082 61.8899 43.7688 62.1505 43.1153 C 62.1891 43.0185 62.2234 42.9188 62.2525 42.8168 C 62.6879 41.2922 61.8845 39.7022 60.4422 39.1273 L 60.4411 39.1268 Z" stroke-linecap="round"/>
</g>
		<g transform="matrix(1 0 0 1 -26.1645 -7.0497)">
<linearGradient id="SVGID_1779" gradientUnits="userSpaceOnUse" gradientTransform="matrix(1 0 0 1 0 0)" x1="19.4784" y1="21.1172" x2="15.8939" y2="30.1095">
<stop offset="0%" style="stop-color:rgb(9,0,93);stop-opacity: 1"/>
<stop offset="100%" style="stop-color:rgb(26,15,145);stop-opacity: 1"/>
</linearGradient>
<path style="stroke: none; stroke-width: 1; stroke-dasharray: none; stroke-linecap: butt; stroke-dashoffset: 0; stroke-linejoin: miter; stroke-miterlimit: 4; is-custom-font: none; font-file-url: none; fill: url(#SVGID_1779); fill-rule: nonzero; opacity: 1;" transform=" translate(-14.3355, -32.9503)" d="M 17.353 25.9543 C 17.353 25.9543 16.1444 26.5421 15.9222 27.2175 C 15.7439 27.7592 14.4076 27.8292 14.2756 28.8946 C 14.2073 29.4449 13.8004 29.8855 13.2524 29.9695 C 11.8876 30.1786 9.78444 30.8875 9.44787 33.2569 C 9.19101 35.0655 10.113 35.7515 11.0807 35.9889 C 11.7916 36.1632 12.2639 36.8546 12.1199 37.5721 C 11.9819 38.2603 12.1876 39.0558 13.3799 39.6849 C 16.0516 41.0946 18.7199 36.3449 18.7199 36.3449 L 19.2667 28.0515 L 17.3527 25.9543 H 17.353 Z" stroke-linecap="round"/>
</g>
		<g transform="matrix(1 0 0 1 -14.2871 -9.0165)">
<linearGradient id="SVGID_1780" gradientUnits="userSpaceOnUse" gradientTransform="matrix(1 0 0 1 0 0)" x1="27.9109" y1="27.963" x2="18.263" y2="41.2976">
<stop offset="0%" style="stop-color:rgb(254,187,186);stop-opacity: 1"/>
<stop offset="100%" style="stop-color:rgb(255,146,142);stop-opacity: 1"/>
</linearGradient>
<path style="stroke: none; stroke-width: 1; stroke-dasharray: none; stroke-linecap: butt; stroke-dashoffset: 0; stroke-linejoin: miter; stroke-miterlimit: 4; is-custom-font: none; font-file-url: none; fill: url(#SVGID_1780); fill-rule: nonzero; opacity: 1;" transform=" translate(-26.2129, -30.9835)" d="M 31.8912 23.9881 C 31.8912 23.9881 26.5566 32.4261 20.2129 34.0558 C 20.2129 34.0558 21.4489 37.5764 22.4029 37.9792 C 22.4029 37.9792 30.2072 31.4672 32.2129 25.1869 L 31.8912 23.9878 V 23.9881 Z" stroke-linecap="round"/>
</g>
		<g transform="matrix(1 0 0 1 -35.646 38.687)">
<linearGradient id="SVGID_1781" gradientUnits="userSpaceOnUse" gradientTransform="matrix(1 0 0 1 0 0)" x1="2.29832" y1="37.2618" x2="4.27289" y2="69.2504">
<stop offset="0%" style="stop-color:rgb(79,82,255);stop-opacity: 1"/>
<stop offset="100%" style="stop-color:rgb(64,66,226);stop-opacity: 1"/>
</linearGradient>
<path style="stroke: none; stroke-width: 1; stroke-dasharray: none; stroke-linecap: butt; stroke-dashoffset: 0; stroke-linejoin: miter; stroke-miterlimit: 4; is-custom-font: none; font-file-url: none; fill: url(#SVGID_1781); fill-rule: nonzero; opacity: 1;" transform=" translate(-4.854, -78.687)" d="M 6.37003 77.9579 L 6.19718 79.3793 C 6.16432 79.649 5.95203 79.8621 5.68232 79.893 C 5.2266 79.945 4.49546 79.9984 3.78003 79.9227 C 3.46603 79.8896 3.26203 79.5716 3.35775 79.2707 C 3.53203 78.7221 3.85118 77.8984 4.31118 77.4136 H 5.88803 C 6.17946 77.4136 6.40546 77.6684 6.37032 77.9579 H 6.37003 Z" stroke-linecap="round"/>
</g>
		<g transform="matrix(1 0 0 1 -22.7088 30.4716)">
<linearGradient id="SVGID_1782" gradientUnits="userSpaceOnUse" gradientTransform="matrix(1 0 0 1 0 0)" x1="19.2185" y1="90.6739" x2="14.844" y2="39.5482">
<stop offset="0%" style="stop-color:rgb(254,187,186);stop-opacity: 1"/>
<stop offset="100%" style="stop-color:rgb(255,146,142);stop-opacity: 1"/>
</linearGradient>
<path style="stroke: none; stroke-width: 1; stroke-dasharray: none; stroke-linecap: butt; stroke-dashoffset: 0; stroke-linejoin: miter; stroke-miterlimit: 4; is-custom-font: none; font-file-url: none; fill: url(#SVGID_1782); fill-rule: nonzero; opacity: 1;" transform=" translate(-17.7913, -70.4716)" d="M 18.72 61.3076 L 18.986 62.873 C 18.986 62.873 18.0948 71.9002 17.9363 75.511 C 17.9114 76.077 18.058 76.6365 18.3551 77.119 L 19.9048 79.6356 L 15.9665 77.3116 L 15.8883 76.831 L 16.5331 75.9445 L 15.6885 65.8319 C 15.6388 65.2379 15.7614 64.6419 16.0417 64.1159 L 16.8563 62.5856 L 18.7203 61.3079 L 18.72 61.3076 Z" stroke-linecap="round"/>
</g>
		<g transform="matrix(1 0 0 1 -22.4625 38.132)">
<linearGradient id="SVGID_1783" gradientUnits="userSpaceOnUse" gradientTransform="matrix(1 0 0 1 0 0)" x1="15.4367" y1="36.4511" x2="17.4112" y2="68.4397">
<stop offset="0%" style="stop-color:rgb(79,82,255);stop-opacity: 1"/>
<stop offset="100%" style="stop-color:rgb(64,66,226);stop-opacity: 1"/>
</linearGradient>
<path style="stroke: none; stroke-width: 1; stroke-dasharray: none; stroke-linecap: butt; stroke-dashoffset: 0; stroke-linejoin: miter; stroke-miterlimit: 4; is-custom-font: none; font-file-url: none; fill: url(#SVGID_1783); fill-rule: nonzero; opacity: 1;" transform=" translate(-18.0375, -78.132)" d="M 20.1644 80.0002 H 18.9075 C 18.6724 80.0002 18.4504 79.8922 18.307 79.7057 C 17.9152 79.1965 17.1032 78.2034 16.7152 78.1774 C 16.1927 78.1425 16.2595 80.0002 16.2595 80.0002 H 15.9667 L 15.5955 77.692 C 15.5021 77.1111 15.791 76.5357 16.3127 76.2637 C 16.3127 76.2637 16.4321 77.1471 17.0798 77.5377 C 17.7275 77.9285 19.7155 79.3277 19.7155 79.3277 C 19.7155 79.3277 19.959 79.2928 20.2264 79.3414 C 20.623 79.4131 20.5675 80.0002 20.1647 80.0002 H 20.1644 Z" stroke-linecap="round"/>
</g>
		<g transform="matrix(1 0 0 1 -31.8936 30.2445)">
<linearGradient id="SVGID_1784" gradientUnits="userSpaceOnUse" gradientTransform="matrix(1 0 0 1 0 0)" x1="10.4195" y1="91.4344" x2="6.04378" y2="40.2952">
<stop offset="0%" style="stop-color:rgb(254,187,186);stop-opacity: 1"/>
<stop offset="100%" style="stop-color:rgb(255,146,142);stop-opacity: 1"/>
</linearGradient>
<path style="stroke: none; stroke-width: 1; stroke-dasharray: none; stroke-linecap: butt; stroke-dashoffset: 0; stroke-linejoin: miter; stroke-miterlimit: 4; is-custom-font: none; font-file-url: none; fill: url(#SVGID_1784); fill-rule: nonzero; opacity: 1;" transform=" translate(-8.6064, -70.2445)" d="M 13.3258 62.0509 C 13.3258 62.0509 8.10492 71.9546 7.27492 74.2158 C 6.44492 76.4769 6.15435 78.3632 6.14321 78.5418 C 6.12578 78.8209 5.77864 79.0886 4.82178 79.0886 C 4.32778 79.0886 4.08607 78.8906 3.9675 78.6989 C 3.86635 78.5355 3.86121 78.3309 3.94635 78.1586 C 4.24835 77.5475 5.20664 75.5941 5.56178 74.7084 C 5.9855 73.6506 6.89721 68.8572 7.39721 67.1906 C 7.89721 65.5241 8.46235 63.7161 10.6395 62.0509 C 10.6395 62.0509 12.1341 60.5872 13.3261 62.0509 H 13.3258 Z" stroke-linecap="round"/>
</g>
		<g transform="matrix(1 0 0 1 -21.2361 0.2559)">
<linearGradient id="SVGID_1785" gradientUnits="userSpaceOnUse" gradientTransform="matrix(1 0 0 1 0 0)" x1="69.6709" y1="7.81208" x2="44.7626" y2="24.0315">
<stop offset="0%" style="stop-color:rgb(255,146,142);stop-opacity: 1"/>
<stop offset="100%" style="stop-color:rgb(254,112,98);stop-opacity: 1"/>
</linearGradient>
<path style="stroke: none; stroke-width: 1; stroke-dasharray: none; stroke-linecap: butt; stroke-dashoffset: 0; stroke-linejoin: miter; stroke-miterlimit: 4; is-custom-font: none; font-file-url: none; fill: url(#SVGID_1785); fill-rule: nonzero; opacity: 1;" transform=" translate(-19.2639, -40.2559)" d="M 16.6237 45.8232 C 17.9706 40.1164 14.5586 36.8887 14.5586 36.8887 C 16.7115 34.8224 20.6337 33.8821 20.6337 33.8821 C 20.6337 33.8821 24.3766 36.6184 23.9326 38.7601 C 23.6723 40.0152 21.3017 46.2789 21.3017 46.2789 C 21.3017 46.2789 19.1097 47.3164 16.6237 45.8232 Z" stroke-linecap="round"/>
</g>
		<g transform="matrix(1 0 0 1 -24.4762 14.4432)">
<linearGradient id="SVGID_1786" gradientUnits="userSpaceOnUse" gradientTransform="matrix(1 0 0 1 0 0)" x1="56.7925" y1="24.2586" x2="45.4956" y2="32.9483">
<stop offset="0%" style="stop-color:rgb(79,82,255);stop-opacity: 1"/>
<stop offset="100%" style="stop-color:rgb(64,66,226);stop-opacity: 1"/>
</linearGradient>
<path style="stroke: none; stroke-width: 1; stroke-dasharray: none; stroke-linecap: butt; stroke-dashoffset: 0; stroke-linejoin: miter; stroke-miterlimit: 4; is-custom-font: none; font-file-url: none; fill: url(#SVGID_1786); fill-rule: nonzero; opacity: 1;" transform=" translate(-16.0238, -54.4432)" d="M 13.6382 48.6486 C 14.1862 46.9975 16.6242 45.8235 16.6242 45.8235 C 19.1102 47.3166 21.3022 46.2792 21.3022 46.2792 C 21.3022 46.2792 21.7939 48.1583 21.4545 49.9043 C 21.1151 51.6506 18.9865 62.8729 18.9865 62.8729 C 15.6325 63.5526 10.4736 62.1892 10.4736 62.1892 C 12.6102 58.3961 13.0899 50.2998 13.6382 48.6486 Z" stroke-linecap="round"/>
</g>
		<g transform="matrix(1 0 0 1 -21.8108 -7.4937)">
<linearGradient id="SVGID_1787" gradientUnits="userSpaceOnUse" gradientTransform="matrix(1 0 0 1 0 0)" x1="19.6986" y1="40.279" x2="18.8768" y2="34.2676">
<stop offset="0%" style="stop-color:rgb(254,187,186);stop-opacity: 1"/>
<stop offset="100%" style="stop-color:rgb(255,146,142);stop-opacity: 1"/>
</linearGradient>
<path style="stroke: none; stroke-width: 1; stroke-dasharray: none; stroke-linecap: butt; stroke-dashoffset: 0; stroke-linejoin: miter; stroke-miterlimit: 4; is-custom-font: none; font-file-url: none; fill: url(#SVGID_1787); fill-rule: nonzero; opacity: 1;" transform=" translate(-18.6892, -32.5064)" d="M 18.1871 30.111 L 17.0923 35.0293 C 16.9874 35.4625 17.3823 35.3916 17.8203 35.309 C 18.5374 35.1739 19.462 34.8953 19.7711 34.337 C 19.8026 34.2802 19.8183 34.2159 19.8271 34.1516 L 20.2974 30.741 C 20.3348 30.4705 20.1886 30.2079 19.9388 30.097 L 19.0311 29.6945 C 18.6817 29.5396 18.2771 29.739 18.1871 30.1104 V 30.111 Z" stroke-linecap="round"/>
</g>
		<g transform="matrix(1 0 0 1 -25.3053 0.5241)">
<linearGradient id="SVGID_1788" gradientUnits="userSpaceOnUse" gradientTransform="matrix(1 0 0 1 0 0)" x1="2.69157" y1="45.9918" x2="21.2439" y2="38.2306">
<stop offset="0%" style="stop-color:rgb(254,187,186);stop-opacity: 1"/>
<stop offset="100%" style="stop-color:rgb(255,146,142);stop-opacity: 1"/>
</linearGradient>
<path style="stroke: none; stroke-width: 1; stroke-dasharray: none; stroke-linecap: butt; stroke-dashoffset: 0; stroke-linejoin: miter; stroke-miterlimit: 4; is-custom-font: none; font-file-url: none; fill: url(#SVGID_1788); fill-rule: nonzero; opacity: 1;" transform=" translate(-15.1947, -40.5241)" d="M 14.559 36.8889 C 14.559 36.8889 3.99043 47.3509 19.3176 43.1749 C 19.3176 43.1749 19.4924 41.8523 19.2641 41.8752 C 14.2939 42.3712 12.215 43.5089 16.2553 39.5912 C 16.3981 39.4526 16.3539 38.9298 16.2621 38.7535 C 15.9824 38.2161 15.3424 37.1489 14.559 36.8892 V 36.8889 Z" stroke-linecap="round"/>
</g>
		<g transform="matrix(1 0 0 1 -20.7332 -11.7167)">
<linearGradient id="SVGID_1789" gradientUnits="userSpaceOnUse" gradientTransform="matrix(1 0 0 1 0 0)" x1="21.1569" y1="33.0516" x2="16.6019" y2="19.1419">
<stop offset="0%" style="stop-color:rgb(254,187,186);stop-opacity: 1"/>
<stop offset="100%" style="stop-color:rgb(255,146,142);stop-opacity: 1"/>
</linearGradient>
<path style="stroke: none; stroke-width: 1; stroke-dasharray: none; stroke-linecap: butt; stroke-dashoffset: 0; stroke-linejoin: miter; stroke-miterlimit: 4; is-custom-font: none; font-file-url: none; fill: url(#SVGID_1789); fill-rule: nonzero; opacity: 1;" transform=" translate(-19.7668, -28.2832)" d="M 20.2848 25.6274 C 20.2848 25.6274 21.4505 26.4165 21.9514 28.4259 C 22.4522 30.4354 21.6382 31.1562 20.804 31.1122 C 19.9697 31.0679 18.7597 30.8099 17.7114 29.3685 C 16.6631 27.9268 18.7574 24.6634 20.2848 25.6276 V 25.6274 Z" stroke-linecap="round"/>
</g>
		<g transform="matrix(1 0 0 1 -21.6409 -13.0639)">
<linearGradient id="SVGID_1790" gradientUnits="userSpaceOnUse" gradientTransform="matrix(1 0 0 1 0 0)" x1="21.8019" y1="21.8518" x2="16.5386" y2="29.9768">
<stop offset="0%" style="stop-color:rgb(9,0,93);stop-opacity: 1"/>
<stop offset="100%" style="stop-color:rgb(26,15,145);stop-opacity: 1"/>
</linearGradient>
<path style="stroke: none; stroke-width: 1; stroke-dasharray: none; stroke-linecap: butt; stroke-dashoffset: 0; stroke-linejoin: miter; stroke-miterlimit: 4; is-custom-font: none; font-file-url: none; fill: url(#SVGID_1790); fill-rule: nonzero; opacity: 1;" transform=" translate(-18.8591, -26.9361)" d="M 18.7678 28.5578 C 18.7678 28.5578 18.3407 25.6783 20.7313 26.1186 L 21.2147 26.6218 C 21.2147 26.6218 22.385 25.304 21.0898 24.3078 C 19.795 23.3115 17.9978 23.5666 17.0038 25.3803 C 16.0095 27.1938 15.6487 28.468 16.4821 29.5952 C 17.3155 30.722 17.9421 29.7555 17.9421 29.7555 C 17.9421 29.7555 17.5598 28.78 17.877 28.3617 C 18.1941 27.9432 18.6033 28.6052 18.6033 28.6052 L 18.7675 28.5578 H 18.7678 Z" stroke-linecap="round"/>
</g>
		<g transform="matrix(1 0 0 1 -22.6771 -11.4362)">
<linearGradient id="SVGID_1791" gradientUnits="userSpaceOnUse" gradientTransform="matrix(1 0 0 1 0 0)" x1="19.4932" y1="33.5965" x2="14.9385" y2="19.6869">
<stop offset="0%" style="stop-color:rgb(254,187,186);stop-opacity: 1"/>
<stop offset="100%" style="stop-color:rgb(255,146,142);stop-opacity: 1"/>
</linearGradient>
<path style="stroke: none; stroke-width: 1; stroke-dasharray: none; stroke-linecap: butt; stroke-dashoffset: 0; stroke-linejoin: miter; stroke-miterlimit: 4; is-custom-font: none; font-file-url: none; fill: url(#SVGID_1791); fill-rule: nonzero; opacity: 1;" transform=" translate(-17.823, -28.5637)" d="M 18.4418 28.8045 C 18.4418 28.8045 18.2309 27.3231 17.4744 27.7465 C 16.7178 28.1699 17.7469 29.1305 18.1598 29.4571 L 18.4418 28.8045 Z" stroke-linecap="round"/>
</g>
		<g transform="matrix(1 0 0 1 -7.4002 -16.6492)">
<linearGradient id="SVGID_1792" gradientUnits="userSpaceOnUse" gradientTransform="matrix(1 0 0 1 0 0)" x1="29.0693" y1="28.8012" x2="19.4214" y2="42.1359">
<stop offset="0%" style="stop-color:rgb(254,187,186);stop-opacity: 1"/>
<stop offset="100%" style="stop-color:rgb(255,146,142);stop-opacity: 1"/>
</linearGradient>
<path style="stroke: none; stroke-width: 1; stroke-dasharray: none; stroke-linecap: butt; stroke-dashoffset: 0; stroke-linejoin: miter; stroke-miterlimit: 4; is-custom-font: none; font-file-url: none; fill: url(#SVGID_1792); fill-rule: nonzero; opacity: 1;" transform=" translate(-33.0998, -23.3508)" d="M 31.8547 25.7253 C 31.871 25.8993 31.2236 26.0195 31.0176 25.2775 C 31.0741 24.9553 31.1747 23.5447 31.4219 23.3255 C 32.7376 22.1581 35.0833 20.845 35.0833 20.845 C 35.3456 21.2455 35.0016 21.5093 35.0016 21.5093 L 33.8304 22.2995 C 33.9527 22.7041 34.1307 23.0618 34.151 23.5238 C 34.1662 23.8735 34.037 24.2161 33.805 24.4815 C 33.5719 24.7478 33.2581 25.0915 32.9753 25.3527 C 32.4399 25.8467 31.8547 25.7253 31.8547 25.7253 Z" stroke-linecap="round"/>
</g>
		<g transform="matrix(1 0 0 1 -7.8799 -16.0545)">
<linearGradient id="SVGID_1793" gradientUnits="userSpaceOnUse" gradientTransform="matrix(1 0 0 1 0 0)" x1="31.7282" y1="23.9453" x2="33.5117" y2="23.9453">
<stop offset="0%" style="stop-color:rgb(255,146,142);stop-opacity: 1"/>
<stop offset="100%" style="stop-color:rgb(254,112,98);stop-opacity: 1"/>
</linearGradient>
<path style="stroke: none; stroke-width: 1; stroke-dasharray: none; stroke-linecap: butt; stroke-dashoffset: 0; stroke-linejoin: miter; stroke-miterlimit: 4; is-custom-font: none; font-file-url: none; fill: url(#SVGID_1793); fill-rule: nonzero; opacity: 1;" transform=" translate(-32.6201, -23.9455)" d="M 32.4905 25.1502 L 32.3117 25.0765 C 32.3354 25.0185 32.8974 23.653 33.1691 23.369 C 33.2725 23.2613 33.3222 23.1691 33.3177 23.0945 C 33.3154 23.0542 33.2954 23.0145 33.2577 22.9739 L 32.3102 23.4808 L 31.8917 24.1362 L 31.7285 24.0319 L 32.1742 23.3339 L 33.2842 22.7405 L 33.3342 22.7813 C 33.4465 22.8731 33.5045 22.9716 33.5111 23.0831 C 33.5194 23.2156 33.4534 23.3531 33.3094 23.5033 C 33.1045 23.7173 32.6491 24.7648 32.4908 25.1505 L 32.4905 25.1502 Z" stroke-linecap="round"/>
</g>
		<g transform="matrix(1 0 0 1 -17.1757 0.5368)">
<linearGradient id="SVGID_1794" gradientUnits="userSpaceOnUse" gradientTransform="matrix(1 0 0 1 0 0)" x1="27.5283" y1="36.3465" x2="45.8715" y2="18.9685">
<stop offset="0%" style="stop-color:rgb(79,82,255);stop-opacity: 1"/>
<stop offset="100%" style="stop-color:rgb(64,66,226);stop-opacity: 1"/>
</linearGradient>
<path style="stroke: none; stroke-width: 1; stroke-dasharray: none; stroke-linecap: butt; stroke-dashoffset: 0; stroke-linejoin: miter; stroke-miterlimit: 4; is-custom-font: none; font-file-url: none; fill: url(#SVGID_1794); fill-rule: nonzero; opacity: 1;" transform=" translate(-23.3243, -40.5367)" d="M 26.3658 37.3625 L 23.2078 36.9465 C 22.8312 36.8842 22.4426 37.1047 22.2098 37.5127 L 20.1323 42.1047 C 19.7412 42.7907 20.0195 43.701 20.6523 43.8059 L 23.1883 44.131 C 23.4309 44.1713 23.6803 44.0182 23.8172 43.7447 L 26.6269 38.1367 C 26.7892 37.8127 26.6535 37.4099 26.3658 37.3622 V 37.3625 Z" stroke-linecap="round"/>
</g>
		<g transform="matrix(1 0 0 1 -19.7259 1.6605)">
<linearGradient id="SVGID_1795" gradientUnits="userSpaceOnUse" gradientTransform="matrix(1 0 0 1 0 0)" x1="19.0705" y1="41.6605" x2="22.4779" y2="41.6605">
<stop offset="0%" style="stop-color:rgb(254,187,186);stop-opacity: 1"/>
<stop offset="100%" style="stop-color:rgb(255,146,142);stop-opacity: 1"/>
</linearGradient>
<path style="stroke: none; stroke-width: 1; stroke-dasharray: none; stroke-linecap: butt; stroke-dashoffset: 0; stroke-linejoin: miter; stroke-miterlimit: 4; is-custom-font: none; font-file-url: none; fill: url(#SVGID_1795); fill-rule: nonzero; opacity: 1;" transform=" translate(-20.7741, -41.6605)" d="M 19.317 43.1747 C 19.317 43.1747 18.9608 41.7096 19.1045 41.1899 C 19.2482 40.6702 19.5268 40.0019 20.4548 40.1505 C 21.383 40.299 22.4779 40.6899 22.4779 40.6899 C 22.4779 40.6899 22.4225 41.367 21.717 41.1485 L 22.1545 41.487 C 22.1545 41.487 22.0919 42.029 21.4962 41.7396 L 21.903 42.1885 C 21.903 42.1885 21.647 42.6336 21.2088 42.3482 C 20.7705 42.0627 20.5602 43.3513 19.317 43.175 V 43.1747 Z" stroke-linecap="round"/>
</g>
</g>
</g>
<g transform="matrix(1 0 0 1 510.6616 961.8646)" style="" id="802090">
		
<path xml:space="preserve" font-family="Lato" font-size="108" font-style="normal" font-weight="normal" style="stroke: none; stroke-width: 1; stroke-dasharray: none; stroke-linecap: butt; stroke-dashoffset: 0; stroke-linejoin: miter; stroke-miterlimit: 4; is-custom-font: none; font-file-url: none; fill: rgb(0,0,0); fill-rule: nonzero; opacity: 1; white-space: pre;" d="M-384.37-43.45L-336.69-43.45L-336.69-34.92L-373.84-34.92L-373.84-7.87L-342.09-7.87L-342.09 0.66L-373.84 0.66L-373.84 33.93L-384.37 33.93L-384.37-43.45ZM-323.68-20.77L-314.06-20.77L-314.06 33.93L-323.68 33.93L-323.68-20.77ZM-311.90-37.95L-311.90-37.95Q-311.90-36.54-312.47-35.33Q-313.04-34.11-313.98-33.17Q-314.93-32.22-316.17-31.68Q-317.41-31.14-318.82-31.14L-318.82-31.14Q-320.22-31.14-321.44-31.68Q-322.65-32.22-323.59-33.17Q-324.54-34.11-325.08-35.33Q-325.62-36.54-325.62-37.95L-325.62-37.95Q-325.62-39.35-325.08-40.62Q-324.54-41.89-323.59-42.83Q-322.65-43.78-321.44-44.32Q-320.22-44.86-318.82-44.86L-318.82-44.86Q-317.41-44.86-316.17-44.32Q-314.93-43.78-313.98-42.83Q-313.04-41.89-312.47-40.62Q-311.90-39.35-311.90-37.95ZM-287.50 33.93L-297.11 33.93L-297.11-20.77L-291.38-20.77Q-289.33-20.77-288.79-18.78L-288.79-18.78L-288.04-12.84Q-284.47-16.78-280.07-19.21Q-275.67-21.64-269.89-21.64L-269.89-21.64Q-265.41-21.64-261.98-20.15Q-258.55-18.67-256.26-15.94Q-253.96-13.21-252.77-9.38Q-251.59-5.55-251.59-0.90L-251.59-0.90L-251.59 33.93L-261.20 33.93L-261.20-0.90Q-261.20-7.11-264.03-10.54Q-266.87-13.97-272.70-13.97L-272.70-13.97Q-276.97-13.97-280.66-11.92Q-284.36-9.87-287.50-6.36L-287.50-6.36L-287.50 33.93ZM-196.88-1.06L-196.88 33.93L-201.15 33.93Q-202.55 33.93-203.42 33.50Q-204.28 33.06-204.55 31.66L-204.55 31.66L-205.63 26.58Q-207.79 28.53-209.84 30.07Q-211.90 31.61-214.16 32.66Q-216.43 33.71-219.00 34.25Q-221.56 34.79-224.69 34.79L-224.69 34.79Q-227.88 34.79-230.66 33.90Q-233.44 33.01-235.49 31.23Q-237.55 29.45-238.76 26.72Q-239.98 23.99-239.98 20.27L-239.98 20.27Q-239.98 17.03-238.19 14.03Q-236.41 11.03-232.44 8.71Q-228.47 6.39-222.05 4.90Q-215.62 3.42-206.33 3.20L-206.33 3.20L-206.33-1.06Q-206.33-7.44-209.06-10.70Q-211.79-13.97-217.13-13.97L-217.13-13.97Q-220.64-13.97-223.05-13.08Q-225.45-12.19-227.20-11.08Q-228.96-9.97-230.23-9.08Q-231.50-8.19-232.74-8.19L-232.74-8.19Q-233.71-8.19-234.44-8.71Q-235.17-9.22-235.60-9.97L-235.60-9.97L-237.33-13.05Q-232.79-17.43-227.56-19.59Q-222.32-21.75-215.95-21.75L-215.95-21.75Q-211.36-21.75-207.79-20.23Q-204.23-18.72-201.80-16.02Q-199.37-13.32-198.13-9.49Q-196.88-5.65-196.88-1.06L-196.88-1.06ZM-221.83 28.04L-221.83 28.04Q-219.29 28.04-217.19 27.53Q-215.08 27.02-213.22 26.07Q-211.36 25.13-209.65 23.78Q-207.95 22.43-206.33 20.70L-206.33 20.70L-206.33 9.30Q-212.98 9.52-217.62 10.36Q-222.26 11.19-225.18 12.54Q-228.10 13.89-229.42 15.73Q-230.74 17.57-230.74 19.83L-230.74 19.83Q-230.74 21.99-230.04 23.56Q-229.34 25.13-228.15 26.12Q-226.96 27.12-225.34 27.58Q-223.72 28.04-221.83 28.04ZM-181.22-45.61L-171.61-45.61L-171.61 33.93L-181.22 33.93L-181.22-45.61ZM-90.13-36.33L-92.66-31.36Q-93.15-30.55-93.69-30.14Q-94.23-29.74-95.09-29.74L-95.09-29.74Q-96.01-29.74-97.23-30.66Q-98.44-31.57-100.30-32.68Q-102.17-33.79-104.79-34.71Q-107.41-35.62-111.13-35.62L-111.13-35.62Q-114.64-35.62-117.34-34.68Q-120.04-33.73-121.85-32.11Q-123.66-30.49-124.58-28.31Q-125.50-26.12-125.50-23.58L-125.50-23.58Q-125.50-20.34-123.90-18.21Q-122.31-16.08-119.69-14.56Q-117.07-13.05-113.75-11.95Q-110.43-10.84-106.95-9.65Q-103.46-8.46-100.14-6.98Q-96.82-5.49-94.20-3.22Q-91.58-0.96-89.99 2.34Q-88.40 5.63-88.40 10.44L-88.40 10.44Q-88.40 15.51-90.13 19.97Q-91.85 24.42-95.17 27.72Q-98.50 31.01-103.33 32.90Q-108.16 34.79-114.32 34.79L-114.32 34.79Q-121.82 34.79-128.01 32.06Q-134.19 29.34-138.56 24.69L-138.56 24.69L-135.54 19.73Q-135.11 19.13-134.49 18.73Q-133.87 18.32-133.11 18.32L-133.11 18.32Q-131.98 18.32-130.52 19.54Q-129.06 20.75-126.87 22.21Q-124.69 23.67-121.58 24.88Q-118.48 26.10-113.99 26.10L-113.99 26.10Q-110.27 26.10-107.35 25.07Q-104.44 24.05-102.41 22.18Q-100.39 20.32-99.31 17.73Q-98.23 15.14-98.23 11.95L-98.23 11.95Q-98.23 8.44-99.82 6.20Q-101.41 3.96-104.00 2.45Q-106.60 0.93-109.92-0.12Q-113.24-1.17-116.72-2.28Q-120.20-3.39-123.52-4.84Q-126.85-6.30-129.44-8.62Q-132.03-10.95-133.62-14.43Q-135.22-17.91-135.22-23.04L-135.22-23.04Q-135.22-27.15-133.62-30.98Q-132.03-34.81-129.01-37.78Q-125.98-40.75-121.53-42.54Q-117.07-44.32-111.29-44.32L-111.29-44.32Q-104.81-44.32-99.47-42.27Q-94.12-40.21-90.13-36.33L-90.13-36.33ZM-77.87-20.77L-68.26-20.77L-68.26 14.11Q-68.26 20.32-65.39 23.72Q-62.53 27.12-56.75 27.12L-56.75 27.12Q-52.54 27.12-48.82 25.13Q-45.09 23.13-41.96 19.56L-41.96 19.56L-41.96-20.77L-32.35-20.77L-32.35 33.93L-38.07 33.93Q-40.12 33.93-40.66 31.93L-40.66 31.93L-41.42 26.04Q-44.98 29.99-49.41 32.39Q-53.84 34.79-59.56 34.79L-59.56 34.79Q-64.04 34.79-67.47 33.31Q-70.90 31.82-73.22 29.12Q-75.55 26.42-76.71 22.59Q-77.87 18.75-77.87 14.11L-77.87 14.11L-77.87-20.77ZM-9.99 33.93L-16.20 33.93L-16.20-45.61L-6.53-45.61L-6.53-12.89Q-3.13-16.83 1.27-19.24Q5.67-21.64 11.34-21.64L11.34-21.64Q16.09-21.64 19.93-19.86Q23.76-18.07 26.46-14.54Q29.16-11.00 30.62-5.79Q32.08-0.58 32.08 6.23L32.08 6.23Q32.08 12.27 30.46 17.48Q28.84 22.70 25.79 26.50Q22.73 30.31 18.33 32.50Q13.93 34.68 8.42 34.68L8.42 34.68Q3.13 34.68-0.57 32.63Q-4.27 30.58-7.02 26.91L-7.02 26.91L-7.51 31.88Q-7.94 33.93-9.99 33.93L-9.99 33.93ZM8.21-13.97L8.21-13.97Q3.51-13.97-0.03-11.81Q-3.56-9.65-6.53-5.71L-6.53-5.71L-6.53 20.75Q-3.94 24.32-0.78 25.77Q2.38 27.23 6.26 27.23L6.26 27.23Q13.93 27.23 18.04 21.78Q22.14 16.32 22.14 6.23L22.14 6.23Q22.14 0.88 21.20-2.95Q20.25-6.79 18.47-9.25Q16.69-11.70 14.09-12.84Q11.50-13.97 8.21-13.97ZM53.46 33.93L43.85 33.93L43.85-20.77L49.57-20.77Q51.62-20.77 52.16-18.78L52.16-18.78L52.87-13.16Q55.89-16.89 59.64-19.26Q63.40-21.64 68.36-21.64L68.36-21.64Q73.93-21.64 77.36-18.56Q80.78-15.48 82.30-10.24L82.30-10.24Q83.43-13.21 85.29-15.37Q87.16-17.53 89.48-18.94Q91.80-20.34 94.42-20.99Q97.04-21.64 99.74-21.64L99.74-21.64Q104.06-21.64 107.43-20.26Q110.81-18.88 113.16-16.24Q115.51-13.59 116.75-9.73Q117.99-5.87 117.99-0.90L117.99-0.90L117.99 33.93L108.38 33.93L108.38-0.90Q108.38-7.33 105.57-10.65Q102.76-13.97 97.42-13.97L97.42-13.97Q95.04-13.97 92.91-13.13Q90.77-12.30 89.15-10.68Q87.53-9.06 86.59-6.60Q85.64-4.14 85.64-0.90L85.64-0.90L85.64 33.93L76.03 33.93L76.03-0.90Q76.03-7.49 73.39-10.73Q70.74-13.97 65.66-13.97L65.66-13.97Q62.10-13.97 59.05-12.05Q56.00-10.14 53.46-6.84L53.46-6.84L53.46 33.93ZM133.60-20.77L143.21-20.77L143.21 33.93L133.60 33.93L133.60-20.77ZM145.37-37.95L145.37-37.95Q145.37-36.54 144.80-35.33Q144.23-34.11 143.29-33.17Q142.34-32.22 141.10-31.68Q139.86-31.14 138.46-31.14L138.46-31.14Q137.05-31.14 135.84-31.68Q134.62-32.22 133.68-33.17Q132.73-34.11 132.19-35.33Q131.65-36.54 131.65-37.95L131.65-37.95Q131.65-39.35 132.19-40.62Q132.73-41.89 133.68-42.83Q134.62-43.78 135.84-44.32Q137.05-44.86 138.46-44.86L138.46-44.86Q139.86-44.86 141.10-44.32Q142.34-43.78 143.29-42.83Q144.23-41.89 144.80-40.62Q145.37-39.35 145.37-37.95ZM193.64-15.27L191.48-11.76Q190.84-10.57 189.49-10.57L189.49-10.57Q188.68-10.57 187.65-11.16Q186.62-11.76 185.14-12.49Q183.65-13.21 181.60-13.84Q179.55-14.46 176.74-14.46L176.74-14.46Q174.31-14.46 172.37-13.84Q170.42-13.21 169.05-12.13Q167.67-11.05 166.94-9.62Q166.21-8.19 166.21-6.52L166.21-6.52Q166.21-4.41 167.43-3.01Q168.64-1.60 170.64-0.58Q172.64 0.45 175.18 1.23Q177.71 2.01 180.39 2.90Q183.06 3.80 185.60 4.88Q188.14 5.96 190.13 7.58Q192.13 9.20 193.35 11.54Q194.56 13.89 194.56 17.19L194.56 17.19Q194.56 20.97 193.21 24.18Q191.86 27.39 189.22 29.74Q186.57 32.09 182.74 33.44Q178.90 34.79 173.88 34.79L173.88 34.79Q168.16 34.79 163.51 32.93Q158.87 31.07 155.63 28.15L155.63 28.15L157.90 24.48Q158.33 23.78 158.92 23.40Q159.52 23.02 160.49 23.02L160.49 23.02Q161.46 23.02 162.54 23.78Q163.62 24.53 165.16 25.45Q166.70 26.37 168.89 27.12Q171.07 27.88 174.37 27.88L174.37 27.88Q177.17 27.88 179.28 27.15Q181.39 26.42 182.79 25.18Q184.19 23.94 184.87 22.32Q185.54 20.70 185.54 18.86L185.54 18.86Q185.54 16.59 184.33 15.11Q183.11 13.62 181.12 12.57Q179.12 11.52 176.55 10.73Q173.99 9.95 171.32 9.09Q168.64 8.22 166.08 7.12Q163.51 6.01 161.51 4.34Q159.52 2.66 158.30 0.20Q157.09-2.25 157.09-5.76L157.09-5.76Q157.09-8.89 158.38-11.78Q159.68-14.67 162.16-16.86Q164.65-19.05 168.26-20.34Q171.88-21.64 176.53-21.64L176.53-21.64Q181.93-21.64 186.22-19.94Q190.51-18.24 193.64-15.27L193.64-15.27ZM240.52-15.27L238.36-11.76Q237.71-10.57 236.36-10.57L236.36-10.57Q235.55-10.57 234.52-11.16Q233.50-11.76 232.01-12.49Q230.53-13.21 228.47-13.84Q226.42-14.46 223.61-14.46L223.61-14.46Q221.18-14.46 219.24-13.84Q217.30-13.21 215.92-12.13Q214.54-11.05 213.81-9.62Q213.08-8.19 213.08-6.52L213.08-6.52Q213.08-4.41 214.30-3.01Q215.51-1.60 217.51-0.58Q219.51 0.45 222.05 1.23Q224.59 2.01 227.26 2.90Q229.93 3.80 232.47 4.88Q235.01 5.96 237.01 7.58Q239.00 9.20 240.22 11.54Q241.43 13.89 241.43 17.19L241.43 17.19Q241.43 20.97 240.08 24.18Q238.73 27.39 236.09 29.74Q233.44 32.09 229.61 33.44Q225.77 34.79 220.75 34.79L220.75 34.79Q215.03 34.79 210.38 32.93Q205.74 31.07 202.50 28.15L202.50 28.15L204.77 24.48Q205.20 23.78 205.79 23.40Q206.39 23.02 207.36 23.02L207.36 23.02Q208.33 23.02 209.41 23.78Q210.49 24.53 212.03 25.45Q213.57 26.37 215.76 27.12Q217.94 27.88 221.24 27.88L221.24 27.88Q224.05 27.88 226.15 27.15Q228.26 26.42 229.66 25.18Q231.07 23.94 231.74 22.32Q232.42 20.70 232.42 18.86L232.42 18.86Q232.42 16.59 231.20 15.11Q229.99 13.62 227.99 12.57Q225.99 11.52 223.43 10.73Q220.86 9.95 218.19 9.09Q215.51 8.22 212.95 7.12Q210.38 6.01 208.39 4.34Q206.39 2.66 205.17 0.20Q203.96-2.25 203.96-5.76L203.96-5.76Q203.96-8.89 205.25-11.78Q206.55-14.67 209.03-16.86Q211.52-19.05 215.14-20.34Q218.75-21.64 223.40-21.64L223.40-21.64Q228.80-21.64 233.09-19.94Q237.38-18.24 240.52-15.27L240.52-15.27ZM254.99-20.77L264.60-20.77L264.60 33.93L254.99 33.93L254.99-20.77ZM266.76-37.95L266.76-37.95Q266.76-36.54 266.19-35.33Q265.63-34.11 264.68-33.17Q263.74-32.22 262.49-31.68Q261.25-31.14 259.85-31.14L259.85-31.14Q258.44-31.14 257.23-31.68Q256.01-32.22 255.07-33.17Q254.12-34.11 253.58-35.33Q253.04-36.54 253.04-37.95L253.04-37.95Q253.04-39.35 253.58-40.62Q254.12-41.89 255.07-42.83Q256.01-43.78 257.23-44.32Q258.44-44.86 259.85-44.86L259.85-44.86Q261.25-44.86 262.49-44.32Q263.74-43.78 264.68-42.83Q265.63-41.89 266.19-40.62Q266.76-39.35 266.76-37.95ZM303.70-21.64L303.70-21.64Q309.69-21.64 314.52-19.64Q319.36-17.64 322.73-13.97Q326.11-10.30 327.92-5.09Q329.72 0.12 329.72 6.55L329.72 6.55Q329.72 13.03 327.92 18.21Q326.11 23.40 322.73 27.07Q319.36 30.74 314.52 32.71Q309.69 34.68 303.70 34.68L303.70 34.68Q297.70 34.68 292.87 32.71Q288.04 30.74 284.63 27.07Q281.23 23.40 279.40 18.21Q277.56 13.03 277.56 6.55L277.56 6.55Q277.56 0.12 279.40-5.09Q281.23-10.30 284.63-13.97Q288.04-17.64 292.87-19.64Q297.70-21.64 303.70-21.64ZM303.70 27.18L303.70 27.18Q311.80 27.18 315.79 21.75Q319.79 16.32 319.79 6.60L319.79 6.60Q319.79-3.17 315.79-8.62Q311.80-14.08 303.70-14.08L303.70-14.08Q299.59-14.08 296.57-12.67Q293.54-11.27 291.52-8.62Q289.49-5.98 288.50-2.12Q287.50 1.74 287.50 6.60L287.50 6.60Q287.50 11.46 288.50 15.30Q289.49 19.13 291.52 21.75Q293.54 24.37 296.57 25.77Q299.59 27.18 303.70 27.18ZM351.22 33.93L341.60 33.93L341.60-20.77L347.33-20.77Q349.38-20.77 349.92-18.78L349.92-18.78L350.68-12.84Q354.24-16.78 358.64-19.21Q363.04-21.64 368.82-21.64L368.82-21.64Q373.30-21.64 376.73-20.15Q380.16-18.67 382.46-15.94Q384.75-13.21 385.94-9.38Q387.13-5.55 387.13-0.90L387.13-0.90L387.13 33.93L377.51 33.93L377.51-0.90Q377.51-7.11 374.68-10.54Q371.84-13.97 366.01-13.97L366.01-13.97Q361.75-13.97 358.05-11.92Q354.35-9.87 351.22-6.36L351.22-6.36L351.22 33.93Z"/></g>
</svg>