<svg xmlns="http://www.w3.org/2000/svg" xmlns:xlink="http://www.w3.org/1999/xlink" width="1200" zoomAndPan="magnify" viewBox="0 0 900 525.000007" height="700" preserveAspectRatio="xMidYMid meet" version="1.0"><defs><g/><clipPath id="9835caca8d"><path d="M 183.160156 20.601562 L 752.078125 20.601562 L 752.078125 510.167969 L 183.160156 510.167969 Z M 183.160156 20.601562 " clip-rule="nonzero"/></clipPath><clipPath id="5b3b6ef4a4"><path d="M 301 52.398438 L 573 52.398438 L 573 275 L 301 275 Z M 301 52.398438 " clip-rule="nonzero"/></clipPath><clipPath id="395282cfee"><path d="M 543 331 L 665.917969 331 L 665.917969 510.527344 L 543 510.527344 Z M 543 331 " clip-rule="nonzero"/></clipPath><clipPath id="1c16e551ee"><path d="M 251.210938 288 L 623 288 L 623 389 L 251.210938 389 Z M 251.210938 288 " clip-rule="nonzero"/></clipPath></defs><g clip-path="url(#9835caca8d)"><path stroke-linecap="butt" transform="matrix(0.748097, 0, 0, 0.748556, 183.162052, 20.602128)" fill="none" stroke-linejoin="miter" d="M -0.00253354 -0.000756076 L 760.484002 -0.000756076 L 760.484002 654.013427 L -0.00253354 654.013427 L -0.00253354 -0.000756076 " stroke="#ffffff" stroke-width="8" stroke-opacity="1" stroke-miterlimit="4"/></g><g fill="#082a71" fill-opacity="1"><g transform="translate(331.527659, 45.663041)"><g><path d="M 16.328125 -21.375 L 16.328125 -17.828125 L 7 -17.828125 L 7 -12.171875 L 15.46875 -12.171875 L 15.46875 -8.6875 L 7 -8.6875 L 7 0 L 2.78125 0 L 2.78125 -21.375 Z M 16.328125 -21.375 "/></g></g><g transform="translate(348.809195, 45.663041)"><g><path d="M 4.34375 -18.046875 C 3.613281 -18.046875 3.019531 -18.269531 2.5625 -18.71875 C 2.101562 -19.164062 1.875 -19.738281 1.875 -20.4375 C 1.875 -21.125 2.101562 -21.6875 2.5625 -22.125 C 3.019531 -22.570312 3.613281 -22.796875 4.34375 -22.796875 C 4.832031 -22.796875 5.265625 -22.691406 5.640625 -22.484375 C 6.023438 -22.285156 6.320312 -22.007812 6.53125 -21.65625 C 6.738281 -21.300781 6.84375 -20.894531 6.84375 -20.4375 C 6.84375 -19.976562 6.738281 -19.566406 6.53125 -19.203125 C 6.320312 -18.847656 6.023438 -18.566406 5.640625 -18.359375 C 5.265625 -18.148438 4.832031 -18.046875 4.34375 -18.046875 Z M 2.328125 0 L 2.328125 -16.125 L 6.375 -16.125 L 6.375 0 Z M 2.328125 0 "/></g></g><g transform="translate(357.493824, 45.663041)"><g><path d="M 2.328125 0 L 2.328125 -16.125 L 6.21875 -16.125 L 6.21875 -13.75 L 6.515625 -13.6875 C 7.523438 -15.519531 9.15625 -16.4375 11.40625 -16.4375 C 13.257812 -16.4375 14.625 -15.925781 15.5 -14.90625 C 16.375 -13.894531 16.8125 -12.421875 16.8125 -10.484375 L 16.8125 0 L 12.765625 0 L 12.765625 -9.984375 C 12.765625 -11.054688 12.546875 -11.828125 12.109375 -12.296875 C 11.679688 -12.773438 11 -13.015625 10.0625 -13.015625 C 8.894531 -13.015625 7.988281 -12.640625 7.34375 -11.890625 C 6.695312 -11.140625 6.375 -9.957031 6.375 -8.34375 L 6.375 0 Z M 2.328125 0 "/></g></g><g transform="translate(376.383624, 45.663041)"><g><path d="M 6.28125 0.3125 C 5.25 0.3125 4.351562 0.125 3.59375 -0.25 C 2.832031 -0.632812 2.25 -1.195312 1.84375 -1.9375 C 1.4375 -2.675781 1.234375 -3.5625 1.234375 -4.59375 C 1.234375 -5.539062 1.4375 -6.335938 1.84375 -6.984375 C 2.25 -7.640625 2.878906 -8.171875 3.734375 -8.578125 C 4.597656 -8.992188 5.722656 -9.316406 7.109375 -9.546875 C 8.066406 -9.703125 8.796875 -9.867188 9.296875 -10.046875 C 9.804688 -10.234375 10.144531 -10.441406 10.3125 -10.671875 C 10.488281 -10.910156 10.578125 -11.210938 10.578125 -11.578125 C 10.578125 -12.097656 10.394531 -12.492188 10.03125 -12.765625 C 9.675781 -13.035156 9.082031 -13.171875 8.25 -13.171875 C 7.351562 -13.171875 6.5 -12.96875 5.6875 -12.5625 C 4.875 -12.164062 4.171875 -11.644531 3.578125 -11 L 3.28125 -11 L 1.59375 -13.546875 C 2.414062 -14.453125 3.414062 -15.160156 4.59375 -15.671875 C 5.769531 -16.179688 7.054688 -16.4375 8.453125 -16.4375 C 10.585938 -16.4375 12.128906 -15.984375 13.078125 -15.078125 C 14.035156 -14.171875 14.515625 -12.882812 14.515625 -11.21875 L 14.515625 -4.203125 C 14.515625 -3.484375 14.832031 -3.125 15.46875 -3.125 C 15.707031 -3.125 15.945312 -3.171875 16.1875 -3.265625 L 16.390625 -3.203125 L 16.671875 -0.375 C 16.453125 -0.226562 16.140625 -0.109375 15.734375 -0.015625 C 15.335938 0.0664062 14.898438 0.109375 14.421875 0.109375 C 13.460938 0.109375 12.710938 -0.0703125 12.171875 -0.4375 C 11.628906 -0.8125 11.238281 -1.390625 11 -2.171875 L 10.703125 -2.203125 C 9.910156 -0.523438 8.4375 0.3125 6.28125 0.3125 Z M 7.578125 -2.71875 C 8.503906 -2.71875 9.25 -3.03125 9.8125 -3.65625 C 10.375 -4.289062 10.65625 -5.164062 10.65625 -6.28125 L 10.65625 -7.921875 L 10.375 -7.984375 C 10.132812 -7.785156 9.816406 -7.617188 9.421875 -7.484375 C 9.023438 -7.359375 8.457031 -7.234375 7.71875 -7.109375 C 6.84375 -6.960938 6.210938 -6.707031 5.828125 -6.34375 C 5.441406 -5.988281 5.25 -5.488281 5.25 -4.84375 C 5.25 -4.144531 5.453125 -3.613281 5.859375 -3.25 C 6.265625 -2.894531 6.835938 -2.71875 7.578125 -2.71875 Z M 7.578125 -2.71875 "/></g></g><g transform="translate(393.387368, 45.663041)"><g><path d="M 6.6875 0.3125 C 5.238281 0.3125 4.128906 -0.078125 3.359375 -0.859375 C 2.597656 -1.648438 2.21875 -2.84375 2.21875 -4.4375 L 2.21875 -22.59375 L 6.265625 -22.59375 L 6.265625 -4.609375 C 6.265625 -3.617188 6.675781 -3.125 7.5 -3.125 C 7.726562 -3.125 7.976562 -3.164062 8.25 -3.25 L 8.453125 -3.1875 L 8.8125 -0.078125 C 8.59375 0.046875 8.296875 0.140625 7.921875 0.203125 C 7.554688 0.273438 7.144531 0.3125 6.6875 0.3125 Z M 6.6875 0.3125 "/></g></g><g transform="translate(402.656821, 45.663041)"><g/></g><g transform="translate(409.718565, 45.663041)"><g><path d="M 9.46875 0.3125 C 7.988281 0.3125 6.671875 0.128906 5.515625 -0.234375 C 4.359375 -0.609375 3.394531 -1.09375 2.625 -1.6875 C 1.851562 -2.28125 1.265625 -2.929688 0.859375 -3.640625 L 3.1875 -6.46875 L 3.546875 -6.46875 C 4.191406 -5.519531 5.007812 -4.757812 6 -4.1875 C 6.988281 -3.625 8.144531 -3.34375 9.46875 -3.34375 C 10.601562 -3.34375 11.457031 -3.582031 12.03125 -4.0625 C 12.601562 -4.539062 12.890625 -5.195312 12.890625 -6.03125 C 12.890625 -6.539062 12.796875 -6.96875 12.609375 -7.3125 C 12.429688 -7.65625 12.125 -7.945312 11.6875 -8.1875 C 11.257812 -8.425781 10.679688 -8.632812 9.953125 -8.8125 L 7.203125 -9.4375 C 5.285156 -9.875 3.851562 -10.601562 2.90625 -11.625 C 1.96875 -12.644531 1.5 -13.96875 1.5 -15.59375 C 1.5 -16.800781 1.800781 -17.863281 2.40625 -18.78125 C 3.007812 -19.695312 3.890625 -20.40625 5.046875 -20.90625 C 6.203125 -21.414062 7.582031 -21.671875 9.1875 -21.671875 C 10.84375 -21.671875 12.253906 -21.453125 13.421875 -21.015625 C 14.597656 -20.585938 15.59375 -19.925781 16.40625 -19.03125 L 14.3125 -16.171875 L 13.953125 -16.171875 C 13.347656 -16.804688 12.65625 -17.28125 11.875 -17.59375 C 11.09375 -17.90625 10.195312 -18.0625 9.1875 -18.0625 C 8.03125 -18.0625 7.148438 -17.859375 6.546875 -17.453125 C 5.941406 -17.046875 5.640625 -16.484375 5.640625 -15.765625 C 5.640625 -15.085938 5.851562 -14.546875 6.28125 -14.140625 C 6.707031 -13.742188 7.441406 -13.4375 8.484375 -13.21875 L 11.28125 -12.625 C 13.363281 -12.1875 14.867188 -11.441406 15.796875 -10.390625 C 16.734375 -9.347656 17.203125 -7.984375 17.203125 -6.296875 C 17.203125 -4.960938 16.914062 -3.800781 16.34375 -2.8125 C 15.769531 -1.820312 14.898438 -1.050781 13.734375 -0.5 C 12.578125 0.0390625 11.15625 0.3125 9.46875 0.3125 Z M 9.46875 0.3125 "/></g></g><g transform="translate(428.082024, 45.663041)"><g><path d="M 7.375 0.3125 C 5.5625 0.3125 4.222656 -0.179688 3.359375 -1.171875 C 2.503906 -2.160156 2.078125 -3.582031 2.078125 -5.4375 L 2.078125 -16.125 L 6.125 -16.125 L 6.125 -5.953125 C 6.125 -4.960938 6.332031 -4.238281 6.75 -3.78125 C 7.175781 -3.332031 7.835938 -3.109375 8.734375 -3.109375 C 9.847656 -3.109375 10.71875 -3.476562 11.34375 -4.21875 C 11.96875 -4.957031 12.28125 -6.113281 12.28125 -7.6875 L 12.28125 -16.125 L 16.328125 -16.125 L 16.328125 0 L 12.4375 0 L 12.4375 -2.375 L 12.140625 -2.4375 C 11.617188 -1.507812 10.984375 -0.816406 10.234375 -0.359375 C 9.492188 0.0859375 8.539062 0.3125 7.375 0.3125 Z M 7.375 0.3125 "/></g></g><g transform="translate(446.737895, 45.663041)"><g><path d="M 11.265625 0.3125 C 9.210938 0.3125 7.6875 -0.457031 6.6875 -2 L 6.375 -1.9375 L 6.375 0 L 2.328125 0 L 2.328125 -22.59375 L 6.375 -22.59375 L 6.375 -14.21875 L 6.6875 -14.171875 C 7.238281 -14.929688 7.890625 -15.5 8.640625 -15.875 C 9.398438 -16.25 10.304688 -16.4375 11.359375 -16.4375 C 12.660156 -16.4375 13.796875 -16.128906 14.765625 -15.515625 C 15.742188 -14.898438 16.503906 -13.960938 17.046875 -12.703125 C 17.597656 -11.453125 17.875 -9.898438 17.875 -8.046875 C 17.875 -6.222656 17.59375 -4.679688 17.03125 -3.421875 C 16.46875 -2.171875 15.6875 -1.234375 14.6875 -0.609375 C 13.695312 0.00390625 12.554688 0.3125 11.265625 0.3125 Z M 10.046875 -3.125 C 11.234375 -3.125 12.140625 -3.519531 12.765625 -4.3125 C 13.390625 -5.113281 13.703125 -6.359375 13.703125 -8.046875 C 13.703125 -9.753906 13.390625 -11.003906 12.765625 -11.796875 C 12.140625 -12.597656 11.234375 -13 10.046875 -13 C 8.898438 -13 7.992188 -12.585938 7.328125 -11.765625 C 6.660156 -10.953125 6.328125 -9.710938 6.328125 -8.046875 C 6.328125 -6.390625 6.660156 -5.15625 7.328125 -4.34375 C 7.992188 -3.53125 8.898438 -3.125 10.046875 -3.125 Z M 10.046875 -3.125 "/></g></g><g transform="translate(466.051692, 45.663041)"><g><path d="M 2.328125 0 L 2.328125 -16.125 L 6.21875 -16.125 L 6.21875 -13.953125 L 6.515625 -13.90625 C 7.046875 -14.769531 7.660156 -15.40625 8.359375 -15.8125 C 9.066406 -16.226562 9.972656 -16.4375 11.078125 -16.4375 C 12.296875 -16.4375 13.273438 -16.191406 14.015625 -15.703125 C 14.753906 -15.222656 15.296875 -14.519531 15.640625 -13.59375 L 15.953125 -13.59375 C 16.441406 -14.5625 17.078125 -15.273438 17.859375 -15.734375 C 18.648438 -16.203125 19.628906 -16.4375 20.796875 -16.4375 C 24.140625 -16.4375 25.8125 -14.570312 25.8125 -10.84375 L 25.8125 0 L 21.765625 0 L 21.765625 -10.328125 C 21.765625 -11.273438 21.578125 -11.957031 21.203125 -12.375 C 20.835938 -12.800781 20.242188 -13.015625 19.421875 -13.015625 C 17.203125 -13.015625 16.09375 -11.523438 16.09375 -8.546875 L 16.09375 0 L 12.046875 0 L 12.046875 -10.328125 C 12.046875 -11.273438 11.859375 -11.957031 11.484375 -12.375 C 11.109375 -12.800781 10.507812 -13.015625 9.6875 -13.015625 C 8.644531 -13.015625 7.832031 -12.664062 7.25 -11.96875 C 6.664062 -11.269531 6.375 -10.160156 6.375 -8.640625 L 6.375 0 Z M 2.328125 0 "/></g></g><g transform="translate(493.947775, 45.663041)"><g><path d="M 4.34375 -18.046875 C 3.613281 -18.046875 3.019531 -18.269531 2.5625 -18.71875 C 2.101562 -19.164062 1.875 -19.738281 1.875 -20.4375 C 1.875 -21.125 2.101562 -21.6875 2.5625 -22.125 C 3.019531 -22.570312 3.613281 -22.796875 4.34375 -22.796875 C 4.832031 -22.796875 5.265625 -22.691406 5.640625 -22.484375 C 6.023438 -22.285156 6.320312 -22.007812 6.53125 -21.65625 C 6.738281 -21.300781 6.84375 -20.894531 6.84375 -20.4375 C 6.84375 -19.976562 6.738281 -19.566406 6.53125 -19.203125 C 6.320312 -18.847656 6.023438 -18.566406 5.640625 -18.359375 C 5.265625 -18.148438 4.832031 -18.046875 4.34375 -18.046875 Z M 2.328125 0 L 2.328125 -16.125 L 6.375 -16.125 L 6.375 0 Z M 2.328125 0 "/></g></g><g transform="translate(502.632405, 45.663041)"><g><path d="M 7.546875 0.3125 C 6.441406 0.3125 5.429688 0.179688 4.515625 -0.078125 C 3.597656 -0.335938 2.816406 -0.691406 2.171875 -1.140625 C 1.523438 -1.597656 1.046875 -2.117188 0.734375 -2.703125 L 2.984375 -5.125 L 3.28125 -5.125 C 3.820312 -4.40625 4.457031 -3.863281 5.1875 -3.5 C 5.914062 -3.144531 6.710938 -2.96875 7.578125 -2.96875 C 8.359375 -2.96875 8.945312 -3.109375 9.34375 -3.390625 C 9.75 -3.671875 9.953125 -4.078125 9.953125 -4.609375 C 9.953125 -5.015625 9.804688 -5.351562 9.515625 -5.625 C 9.234375 -5.90625 8.769531 -6.125 8.125 -6.28125 L 6 -6.796875 C 4.394531 -7.179688 3.222656 -7.765625 2.484375 -8.546875 C 1.753906 -9.328125 1.390625 -10.320312 1.390625 -11.53125 C 1.390625 -12.539062 1.644531 -13.414062 2.15625 -14.15625 C 2.664062 -14.894531 3.382812 -15.457031 4.3125 -15.84375 C 5.25 -16.238281 6.335938 -16.4375 7.578125 -16.4375 C 9.023438 -16.4375 10.222656 -16.222656 11.171875 -15.796875 C 12.128906 -15.378906 12.878906 -14.820312 13.421875 -14.125 L 11.25 -11.78125 L 10.96875 -11.78125 C 10.519531 -12.289062 10.015625 -12.660156 9.453125 -12.890625 C 8.890625 -13.128906 8.265625 -13.25 7.578125 -13.25 C 5.972656 -13.25 5.171875 -12.75 5.171875 -11.75 C 5.171875 -11.332031 5.316406 -10.988281 5.609375 -10.71875 C 5.910156 -10.457031 6.4375 -10.25 7.1875 -10.09375 L 9.1875 -9.640625 C 10.820312 -9.296875 12.015625 -8.734375 12.765625 -7.953125 C 13.523438 -7.179688 13.90625 -6.144531 13.90625 -4.84375 C 13.90625 -3.8125 13.648438 -2.90625 13.140625 -2.125 C 12.628906 -1.351562 11.894531 -0.753906 10.9375 -0.328125 C 9.988281 0.0976562 8.859375 0.3125 7.546875 0.3125 Z M 7.546875 0.3125 "/></g></g><g transform="translate(517.501543, 45.663041)"><g><path d="M 7.546875 0.3125 C 6.441406 0.3125 5.429688 0.179688 4.515625 -0.078125 C 3.597656 -0.335938 2.816406 -0.691406 2.171875 -1.140625 C 1.523438 -1.597656 1.046875 -2.117188 0.734375 -2.703125 L 2.984375 -5.125 L 3.28125 -5.125 C 3.820312 -4.40625 4.457031 -3.863281 5.1875 -3.5 C 5.914062 -3.144531 6.710938 -2.96875 7.578125 -2.96875 C 8.359375 -2.96875 8.945312 -3.109375 9.34375 -3.390625 C 9.75 -3.671875 9.953125 -4.078125 9.953125 -4.609375 C 9.953125 -5.015625 9.804688 -5.351562 9.515625 -5.625 C 9.234375 -5.90625 8.769531 -6.125 8.125 -6.28125 L 6 -6.796875 C 4.394531 -7.179688 3.222656 -7.765625 2.484375 -8.546875 C 1.753906 -9.328125 1.390625 -10.320312 1.390625 -11.53125 C 1.390625 -12.539062 1.644531 -13.414062 2.15625 -14.15625 C 2.664062 -14.894531 3.382812 -15.457031 4.3125 -15.84375 C 5.25 -16.238281 6.335938 -16.4375 7.578125 -16.4375 C 9.023438 -16.4375 10.222656 -16.222656 11.171875 -15.796875 C 12.128906 -15.378906 12.878906 -14.820312 13.421875 -14.125 L 11.25 -11.78125 L 10.96875 -11.78125 C 10.519531 -12.289062 10.015625 -12.660156 9.453125 -12.890625 C 8.890625 -13.128906 8.265625 -13.25 7.578125 -13.25 C 5.972656 -13.25 5.171875 -12.75 5.171875 -11.75 C 5.171875 -11.332031 5.316406 -10.988281 5.609375 -10.71875 C 5.910156 -10.457031 6.4375 -10.25 7.1875 -10.09375 L 9.1875 -9.640625 C 10.820312 -9.296875 12.015625 -8.734375 12.765625 -7.953125 C 13.523438 -7.179688 13.90625 -6.144531 13.90625 -4.84375 C 13.90625 -3.8125 13.648438 -2.90625 13.140625 -2.125 C 12.628906 -1.351562 11.894531 -0.753906 10.9375 -0.328125 C 9.988281 0.0976562 8.859375 0.3125 7.546875 0.3125 Z M 7.546875 0.3125 "/></g></g><g transform="translate(532.370681, 45.663041)"><g><path d="M 4.34375 -18.046875 C 3.613281 -18.046875 3.019531 -18.269531 2.5625 -18.71875 C 2.101562 -19.164062 1.875 -19.738281 1.875 -20.4375 C 1.875 -21.125 2.101562 -21.6875 2.5625 -22.125 C 3.019531 -22.570312 3.613281 -22.796875 4.34375 -22.796875 C 4.832031 -22.796875 5.265625 -22.691406 5.640625 -22.484375 C 6.023438 -22.285156 6.320312 -22.007812 6.53125 -21.65625 C 6.738281 -21.300781 6.84375 -20.894531 6.84375 -20.4375 C 6.84375 -19.976562 6.738281 -19.566406 6.53125 -19.203125 C 6.320312 -18.847656 6.023438 -18.566406 5.640625 -18.359375 C 5.265625 -18.148438 4.832031 -18.046875 4.34375 -18.046875 Z M 2.328125 0 L 2.328125 -16.125 L 6.375 -16.125 L 6.375 0 Z M 2.328125 0 "/></g></g><g transform="translate(541.055311, 45.663041)"><g><path d="M 9.375 0.3125 C 7.789062 0.3125 6.398438 -0.0078125 5.203125 -0.65625 C 4.015625 -1.3125 3.09375 -2.265625 2.4375 -3.515625 C 1.78125 -4.765625 1.453125 -6.273438 1.453125 -8.046875 C 1.453125 -9.828125 1.78125 -11.34375 2.4375 -12.59375 C 3.09375 -13.851562 4.015625 -14.804688 5.203125 -15.453125 C 6.398438 -16.109375 7.789062 -16.4375 9.375 -16.4375 C 10.945312 -16.4375 12.328125 -16.109375 13.515625 -15.453125 C 14.710938 -14.804688 15.644531 -13.851562 16.3125 -12.59375 C 16.976562 -11.34375 17.3125 -9.828125 17.3125 -8.046875 C 17.3125 -6.273438 16.976562 -4.765625 16.3125 -3.515625 C 15.644531 -2.265625 14.710938 -1.3125 13.515625 -0.65625 C 12.328125 -0.0078125 10.945312 0.3125 9.375 0.3125 Z M 9.375 -3.125 C 11.875 -3.125 13.125 -4.765625 13.125 -8.046875 C 13.125 -9.753906 12.800781 -11.003906 12.15625 -11.796875 C 11.519531 -12.597656 10.59375 -13 9.375 -13 C 6.863281 -13 5.609375 -11.347656 5.609375 -8.046875 C 5.609375 -4.765625 6.863281 -3.125 9.375 -3.125 Z M 9.375 -3.125 "/></g></g><g transform="translate(559.798905, 45.663041)"><g><path d="M 2.328125 0 L 2.328125 -16.125 L 6.21875 -16.125 L 6.21875 -13.75 L 6.515625 -13.6875 C 7.523438 -15.519531 9.15625 -16.4375 11.40625 -16.4375 C 13.257812 -16.4375 14.625 -15.925781 15.5 -14.90625 C 16.375 -13.894531 16.8125 -12.421875 16.8125 -10.484375 L 16.8125 0 L 12.765625 0 L 12.765625 -9.984375 C 12.765625 -11.054688 12.546875 -11.828125 12.109375 -12.296875 C 11.679688 -12.773438 11 -13.015625 10.0625 -13.015625 C 8.894531 -13.015625 7.988281 -12.640625 7.34375 -11.890625 C 6.695312 -11.140625 6.375 -9.957031 6.375 -8.34375 L 6.375 0 Z M 2.328125 0 "/></g></g></g><g fill="#082a71" fill-opacity="1"><g transform="translate(578.685785, 45.663041)"><g/></g></g><path fill="#082a71" d="M 344 188.566406 L 401.105469 188.566406 C 408.957031 188.566406 415.378906 182.136719 415.378906 174.273438 L 415.378906 95.667969 C 415.378906 87.808594 408.957031 81.378906 401.105469 81.378906 L 344 81.378906 C 336.148438 81.378906 329.726562 87.808594 329.726562 95.667969 L 329.726562 174.273438 C 329.726562 182.136719 336.148438 188.566406 344 188.566406 Z M 344 95.667969 L 401.105469 95.667969 L 401.105469 174.273438 L 344 174.273438 Z M 344 95.667969 " fill-opacity="1" fill-rule="nonzero"/><path fill="#082a71" d="M 536.722656 159.984375 L 443.933594 159.984375 C 440.007812 159.984375 436.792969 163.199219 436.792969 167.128906 C 436.792969 171.058594 440.007812 174.273438 443.933594 174.273438 L 536.722656 174.273438 C 540.648438 174.273438 543.863281 171.058594 543.863281 167.128906 C 543.863281 163.199219 540.648438 159.984375 536.722656 159.984375 Z M 536.722656 159.984375 " fill-opacity="1" fill-rule="nonzero"/><path fill="#082a71" d="M 536.722656 202.859375 L 336.863281 202.859375 C 332.9375 202.859375 329.726562 206.074219 329.726562 210.003906 C 329.726562 213.933594 332.9375 217.148438 336.863281 217.148438 L 536.722656 217.148438 C 540.648438 217.148438 543.863281 213.933594 543.863281 210.003906 C 543.863281 206.074219 540.648438 202.859375 536.722656 202.859375 Z M 536.722656 202.859375 " fill-opacity="1" fill-rule="nonzero"/><path fill="#082a71" d="M 536.722656 231.441406 L 336.863281 231.441406 C 332.9375 231.441406 329.726562 234.65625 329.726562 238.589844 C 329.726562 242.519531 332.9375 245.734375 336.863281 245.734375 L 536.722656 245.734375 C 540.648438 245.734375 543.863281 242.519531 543.863281 238.589844 C 543.863281 234.65625 540.648438 231.441406 536.722656 231.441406 Z M 536.722656 231.441406 " fill-opacity="1" fill-rule="nonzero"/><path fill="#082a71" d="M 536.722656 258.238281 L 336.863281 258.238281 C 332.9375 258.238281 329.726562 261.457031 329.726562 265.386719 C 329.726562 269.316406 332.9375 272.53125 336.863281 272.53125 L 536.722656 272.53125 C 540.648438 272.53125 543.863281 269.316406 543.863281 265.386719 C 543.863281 261.457031 540.648438 258.238281 536.722656 258.238281 Z M 536.722656 258.238281 " fill-opacity="1" fill-rule="nonzero"/><g clip-path="url(#5b3b6ef4a4)"><path fill="#082a71" d="M 301.175781 67.800781 L 301.175781 274.316406 L 315.449219 274.316406 L 315.449219 67.800781 C 315.449219 67.441406 315.808594 67.085938 316.164062 67.085938 L 557.425781 67.085938 C 557.78125 67.085938 558.136719 67.441406 558.136719 67.800781 L 558.136719 274.316406 L 572.414062 274.316406 L 572.414062 67.800781 C 572.414062 59.582031 565.632812 52.792969 557.425781 52.792969 L 316.164062 52.792969 C 307.957031 52.792969 301.175781 59.582031 301.175781 67.800781 Z M 301.175781 67.800781 " fill-opacity="1" fill-rule="nonzero"/></g><path fill="#082a71" d="M 332.222656 352.921875 C 330.796875 353.636719 329.011719 353.996094 326.515625 353.996094 C 323.300781 353.996094 319.375 352.921875 314.738281 351.136719 C 314.023438 353.28125 313.308594 355.066406 312.953125 356.855469 C 312.59375 358.640625 312.238281 360.425781 311.882812 362.214844 C 314.738281 363.285156 317.234375 364 319.375 364.355469 C 321.515625 364.714844 324.371094 365.070312 327.226562 365.070312 C 330.441406 365.070312 333.652344 364.714844 336.148438 364 C 338.648438 363.285156 340.789062 362.214844 342.574219 360.425781 C 344.359375 358.996094 345.785156 357.210938 346.5 355.066406 C 347.570312 352.921875 347.925781 350.78125 347.925781 347.921875 C 347.925781 345.421875 347.570312 343.632812 346.855469 341.847656 C 346.144531 340.0625 345.429688 338.632812 344 337.558594 C 342.929688 336.488281 341.503906 335.414062 339.71875 334.34375 C 337.933594 333.628906 336.148438 332.558594 334.367188 331.84375 L 330.796875 330.414062 C 329.367188 330.054688 328.296875 329.339844 327.585938 328.628906 C 326.871094 328.984375 326.15625 327.914062 326.15625 326.484375 C 326.15625 325.769531 326.15625 325.054688 326.515625 324.339844 C 326.871094 323.625 327.226562 323.269531 327.941406 322.910156 C 328.65625 322.554688 329.011719 322.195312 329.726562 322.195312 C 330.441406 322.195312 331.152344 321.839844 331.867188 321.839844 C 334.367188 321.839844 336.507812 322.195312 338.292969 322.554688 C 340.074219 323.269531 341.503906 323.625 342.929688 324.339844 C 343.644531 322.554688 344.359375 320.765625 344.714844 318.980469 C 345.074219 317.195312 345.429688 315.40625 345.785156 313.976562 C 343.289062 312.90625 340.789062 312.191406 338.292969 311.835938 C 336.148438 311.476562 333.652344 311.121094 331.152344 311.121094 C 328.296875 311.121094 325.800781 311.476562 323.660156 312.191406 C 321.515625 312.90625 319.375 313.976562 317.949219 315.40625 C 316.519531 316.835938 315.09375 318.621094 314.378906 320.410156 C 313.664062 322.554688 312.953125 324.695312 312.953125 327.199219 C 312.953125 329.34375 313.308594 331.128906 313.664062 332.558594 C 314.378906 333.988281 315.09375 335.414062 316.164062 336.84375 C 317.234375 337.917969 318.304688 338.988281 319.734375 340.0625 C 321.160156 340.773438 322.589844 341.847656 324.371094 342.203125 L 328.296875 343.632812 C 329.011719 343.992188 329.726562 343.992188 330.082031 344.347656 C 330.796875 344.707031 331.152344 345.0625 331.867188 345.421875 C 332.222656 345.777344 332.582031 346.136719 332.9375 346.847656 C 333.292969 347.5625 333.292969 347.921875 333.292969 348.992188 C 334.007812 351.136719 333.292969 352.207031 332.222656 352.921875 Z M 332.222656 352.921875 " fill-opacity="1" fill-rule="nonzero"/><path fill="#082a71" d="M 364.34375 311.835938 C 363.273438 311.835938 362.558594 311.835938 361.488281 311.835938 C 360.417969 311.835938 359.703125 311.835938 358.632812 311.835938 C 357.5625 311.835938 356.492188 312.191406 355.066406 312.191406 L 355.066406 342.203125 C 355.066406 345.777344 355.421875 348.992188 356.136719 351.851562 C 356.851562 354.710938 357.921875 357.210938 359.347656 359.355469 C 360.777344 361.5 362.917969 362.929688 365.414062 364 C 367.914062 365.070312 371.125 365.785156 375.410156 365.785156 C 379.691406 365.785156 382.546875 365.070312 385.402344 364 C 387.898438 362.929688 390.039062 361.5 391.46875 359.355469 C 392.894531 357.210938 393.964844 354.710938 394.679688 351.851562 C 395.394531 348.992188 395.75 345.777344 395.75 342.203125 L 395.75 312.191406 C 394.324219 311.835938 393.253906 311.835938 392.183594 311.835938 C 391.113281 311.835938 390.039062 311.835938 389.328125 311.835938 C 388.613281 311.835938 387.542969 311.835938 386.472656 311.835938 C 385.402344 311.835938 384.332031 312.191406 382.902344 312.191406 L 382.902344 340.417969 C 382.902344 342.917969 382.902344 345.0625 382.546875 346.492188 C 382.546875 348.277344 382.1875 349.707031 381.476562 350.78125 C 381.117188 351.851562 380.40625 352.566406 379.335938 352.921875 C 378.261719 353.28125 377.191406 353.636719 375.765625 353.636719 C 374.335938 353.636719 372.910156 353.28125 372.195312 352.921875 C 371.125 352.566406 370.410156 351.851562 370.054688 350.78125 C 369.699219 349.707031 369.339844 348.277344 368.984375 346.492188 C 368.628906 344.707031 368.628906 342.5625 368.628906 340.417969 L 368.628906 312.191406 C 366.484375 312.191406 365.414062 311.835938 364.34375 311.835938 Z M 364.34375 311.835938 " fill-opacity="1" fill-rule="nonzero"/><path fill="#082a71" d="M 435.722656 331.84375 C 436.792969 330.054688 437.152344 327.914062 437.152344 325.410156 C 437.152344 322.554688 436.792969 320.410156 435.722656 318.621094 C 434.652344 316.835938 433.226562 315.40625 431.441406 314.335938 C 429.65625 313.261719 427.515625 312.546875 425.015625 311.835938 C 422.519531 311.121094 420.019531 311.121094 417.164062 311.121094 C 414.308594 311.121094 411.8125 311.121094 409.3125 311.476562 C 406.816406 311.835938 405.03125 311.835938 403.246094 312.191406 L 403.246094 364.355469 C 405.746094 364.714844 407.886719 365.070312 410.027344 365.070312 C 412.167969 365.429688 414.308594 365.429688 417.164062 365.429688 C 420.375 365.429688 423.589844 365.070312 426.445312 364.714844 C 429.300781 364.355469 431.796875 363.285156 433.582031 362.214844 C 435.722656 361.140625 437.152344 359.355469 438.578125 357.210938 C 439.648438 355.066406 440.363281 352.566406 440.363281 349.351562 C 440.363281 347.5625 440.007812 345.777344 439.648438 344.347656 C 439.292969 342.917969 438.578125 341.488281 437.863281 340.417969 C 437.152344 339.347656 436.082031 338.632812 435.007812 337.917969 C 433.9375 337.203125 432.867188 336.488281 431.796875 336.128906 C 433.582031 335.058594 434.652344 333.628906 435.722656 331.84375 Z M 416.449219 321.480469 C 416.808594 321.480469 417.164062 321.480469 417.523438 321.480469 C 417.878906 321.480469 418.234375 321.480469 418.59375 321.480469 C 419.304688 321.480469 420.019531 321.480469 420.734375 321.839844 C 421.449219 322.195312 422.160156 322.195312 422.875 322.554688 C 423.589844 322.910156 423.945312 323.625 424.300781 324.339844 C 424.660156 325.054688 425.015625 325.769531 425.015625 326.839844 C 425.015625 328.984375 424.300781 330.414062 423.230469 331.128906 C 422.160156 331.84375 420.375 332.558594 418.234375 332.558594 L 416.09375 332.558594 L 416.09375 321.480469 Z M 426.800781 351.851562 C 426.445312 352.566406 425.730469 353.28125 425.015625 353.636719 C 424.300781 353.996094 423.230469 354.351562 422.519531 354.710938 C 421.804688 355.066406 420.734375 355.066406 419.664062 355.066406 C 418.949219 355.066406 418.234375 355.066406 417.523438 355.066406 C 416.808594 355.066406 416.449219 355.066406 416.09375 355.066406 L 416.09375 342.917969 L 418.949219 342.917969 C 421.449219 342.917969 423.230469 343.277344 425.015625 344.347656 C 426.445312 345.421875 427.15625 346.847656 427.15625 349.351562 C 427.515625 350.066406 427.15625 351.136719 426.800781 351.851562 Z M 426.800781 351.851562 " fill-opacity="1" fill-rule="nonzero"/><path fill="#082a71" d="M 488.898438 311.835938 C 487.828125 311.835938 487.117188 311.835938 486.046875 312.191406 C 484.972656 312.191406 483.902344 312.546875 483.191406 312.546875 L 472.484375 339.703125 L 461.777344 312.191406 C 460.707031 312.191406 459.636719 311.835938 458.5625 311.835938 C 457.492188 311.835938 456.421875 311.476562 455.351562 311.476562 C 454.28125 311.476562 453.210938 311.476562 452.140625 311.835938 C 451.070312 312.191406 450 312.191406 448.929688 312.191406 L 446.785156 364.355469 C 448.929688 364.714844 451.070312 365.070312 452.855469 365.070312 C 454.636719 365.070312 456.78125 364.714844 458.5625 364.355469 L 459.277344 334.34375 L 466.417969 353.996094 C 467.128906 354.351562 468.199219 354.351562 468.914062 354.351562 C 469.628906 354.351562 470.34375 354.351562 471.054688 354.351562 C 471.769531 354.351562 472.484375 354.351562 473.554688 354.351562 C 474.269531 354.351562 475.339844 353.996094 476.050781 353.996094 L 484.261719 333.988281 L 485.332031 364.355469 C 487.828125 364.714844 489.613281 365.070312 491.398438 365.070312 C 492.824219 365.070312 494.253906 365.070312 495.324219 364.714844 C 496.394531 364.355469 497.109375 364.355469 497.824219 364.355469 L 495.324219 312.191406 C 494.253906 312.191406 493.183594 311.835938 492.113281 311.835938 C 491.042969 311.835938 489.972656 311.835938 488.898438 311.835938 Z M 488.898438 311.835938 " fill-opacity="1" fill-rule="nonzero"/><path fill="#082a71" d="M 509.242188 311.835938 C 508.171875 311.835938 507.101562 312.191406 505.675781 312.191406 L 505.675781 364.355469 C 508.171875 364.714844 510.3125 365.070312 512.097656 365.070312 C 513.882812 365.070312 516.023438 364.714844 518.523438 364.355469 L 518.523438 312.191406 C 517.09375 311.835938 516.023438 311.835938 514.953125 311.835938 C 513.882812 311.835938 512.8125 311.835938 512.097656 311.835938 C 511.382812 311.835938 510.3125 311.835938 509.242188 311.835938 Z M 509.242188 311.835938 " fill-opacity="1" fill-rule="nonzero"/><path fill="#082a71" d="M 543.503906 365.070312 C 545.289062 365.070312 547.429688 364.714844 549.929688 364.355469 L 549.929688 323.625 L 562.0625 323.625 C 562.421875 321.480469 562.777344 319.335938 562.777344 317.910156 C 562.777344 317.195312 562.777344 316.121094 562.777344 315.40625 C 562.777344 314.335938 562.421875 313.621094 562.421875 312.546875 L 524.945312 312.546875 C 524.589844 314.691406 524.234375 316.480469 524.234375 318.265625 C 524.234375 320.050781 524.589844 321.839844 524.945312 323.980469 L 537.082031 323.980469 L 537.082031 365.070312 C 539.578125 365.070312 541.71875 365.070312 543.503906 365.070312 Z M 543.503906 365.070312 " fill-opacity="1" fill-rule="nonzero"/><path fill="#082a71" d="M 543.863281 92.097656 C 543.863281 86.023438 539.222656 81.378906 533.15625 81.378906 L 447.5 81.378906 C 441.433594 81.378906 436.792969 86.023438 436.792969 92.097656 L 436.792969 106.386719 C 436.792969 112.460938 441.433594 117.105469 447.5 117.105469 L 533.15625 117.105469 C 539.222656 117.105469 543.863281 112.460938 543.863281 106.386719 Z M 529.585938 102.816406 L 451.070312 102.816406 L 451.070312 95.667969 L 529.585938 95.667969 Z M 529.585938 102.816406 " fill-opacity="1" fill-rule="nonzero"/><path fill="#082a71" d="M 536.722656 131.398438 L 443.933594 131.398438 C 440.007812 131.398438 436.792969 134.613281 436.792969 138.542969 C 436.792969 142.476562 440.007812 145.691406 443.933594 145.691406 L 536.722656 145.691406 C 540.648438 145.691406 543.863281 142.476562 543.863281 138.542969 C 543.863281 134.613281 540.648438 131.398438 536.722656 131.398438 Z M 536.722656 131.398438 " fill-opacity="1" fill-rule="nonzero"/><g clip-path="url(#395282cfee)"><path fill="#082a71" d="M 649.503906 382.222656 L 645.21875 382.222656 C 644.863281 382.222656 644.148438 382.222656 643.792969 382.222656 C 642.363281 375.074219 635.941406 369.714844 627.730469 369.714844 L 623.449219 369.714844 C 621.664062 369.714844 620.238281 370.074219 618.453125 370.429688 C 618.097656 369.714844 617.382812 369 617.023438 368.644531 C 612.742188 364.355469 607.03125 364.355469 605.246094 364.355469 L 600.964844 364.355469 C 600.25 364.355469 599.539062 364.355469 598.824219 364.714844 L 598.824219 346.847656 C 598.824219 338.273438 592.042969 331.484375 583.835938 331.484375 L 579.910156 331.484375 C 571.699219 331.484375 564.917969 338.273438 564.917969 346.847656 L 564.917969 399.371094 C 564.5625 399.371094 564.203125 399.371094 563.847656 399.371094 L 559.566406 399.371094 C 551 399.371094 543.863281 406.160156 543.863281 414.734375 L 543.863281 474.40625 C 543.863281 477.976562 544.933594 481.195312 547.429688 484.050781 L 567.058594 507.632812 C 568.488281 509.417969 570.628906 510.132812 572.414062 510.132812 C 573.839844 510.132812 575.625 509.417969 577.054688 508.347656 C 580.265625 505.847656 580.621094 501.203125 578.125 498.34375 L 558.496094 474.761719 C 558.496094 474.761719 558.496094 474.40625 558.496094 474.40625 L 558.496094 414.734375 C 558.496094 414.019531 559.207031 413.664062 559.921875 413.664062 L 564.203125 413.664062 C 565.277344 413.664062 565.277344 414.734375 565.277344 414.734375 L 565.277344 445.820312 C 565.277344 449.75 568.488281 452.96875 572.414062 452.96875 C 576.339844 452.96875 579.550781 449.75 579.550781 445.820312 L 579.550781 346.847656 C 579.550781 346.136719 579.910156 345.777344 580.265625 345.777344 L 584.191406 345.777344 C 584.546875 345.777344 584.90625 346.132812 584.90625 346.847656 L 584.90625 379.007812 C 584.90625 379.363281 584.90625 379.363281 584.90625 379.722656 L 584.90625 402.585938 C 584.90625 406.519531 588.117188 409.734375 592.042969 409.734375 C 595.96875 409.734375 599.179688 406.519531 599.179688 402.585938 L 599.179688 379.722656 C 599.179688 379.363281 599.894531 379.007812 601.320312 379.007812 L 605.605469 379.007812 C 606.316406 379.007812 607.03125 379.007812 607.03125 379.007812 C 607.390625 379.722656 607.746094 381.148438 607.390625 384.722656 C 607.390625 384.722656 607.390625 385.082031 607.390625 385.082031 L 607.390625 406.160156 C 607.390625 410.089844 610.601562 413.308594 614.527344 413.308594 C 618.453125 413.308594 621.664062 410.089844 621.664062 406.160156 L 621.664062 385.082031 C 621.664062 385.082031 622.378906 384.007812 623.804688 384.007812 L 628.089844 384.007812 C 629.515625 384.007812 630.230469 384.722656 630.230469 385.082031 L 630.230469 412.949219 C 630.230469 416.878906 633.441406 420.09375 637.367188 420.09375 C 641.292969 420.09375 644.507812 416.878906 644.507812 412.949219 L 644.507812 397.585938 C 644.507812 397.226562 644.863281 396.515625 645.578125 396.515625 L 649.859375 396.515625 C 650.929688 396.515625 651.285156 397.226562 651.285156 397.585938 L 651.285156 463.328125 C 651.285156 463.328125 651.285156 463.6875 651.285156 463.6875 L 631.65625 494.054688 C 629.515625 497.273438 630.585938 501.917969 633.800781 504.058594 C 634.871094 504.773438 636.296875 505.132812 637.726562 505.132812 C 640.222656 505.132812 642.363281 504.058594 643.792969 501.917969 L 663.0625 472.261719 C 664.847656 469.761719 665.917969 466.542969 665.917969 463.328125 L 665.917969 397.226562 C 665.207031 389.011719 658.066406 382.222656 649.503906 382.222656 Z M 649.503906 382.222656 " fill-opacity="1" fill-rule="nonzero"/></g><g clip-path="url(#1c16e551ee)"><path fill="#082a71" d="M 550.644531 386.507812 L 550.644531 374.363281 L 296.890625 374.363281 C 279.761719 374.363281 265.484375 360.425781 265.484375 342.917969 L 265.484375 334.34375 C 265.484375 317.195312 279.402344 302.902344 296.890625 302.902344 L 576.695312 302.902344 C 592.398438 302.902344 605.605469 314.691406 607.746094 330.054688 C 610.957031 334.703125 613.097656 340.773438 613.097656 346.847656 L 613.097656 351.136719 C 616.3125 351.851562 618.808594 352.921875 621.308594 354.351562 C 622.023438 350.78125 622.734375 347.207031 622.734375 343.277344 L 622.734375 334.703125 C 622.734375 309.691406 602.390625 288.96875 577.054688 288.96875 L 296.890625 288.96875 C 271.550781 288.609375 251.210938 308.976562 251.210938 334.34375 L 251.210938 342.917969 C 251.210938 367.929688 271.550781 388.652344 296.890625 388.652344 L 545.289062 388.652344 C 547.074219 387.582031 548.859375 386.867188 550.644531 386.507812 Z M 550.644531 386.507812 " fill-opacity="1" fill-rule="nonzero"/></g></svg>