<svg xmlns="http://www.w3.org/2000/svg" xmlns:xlink="http://www.w3.org/1999/xlink" width="3400" zoomAndPan="magnify" viewBox="0 0 2550 3224.999865" height="4300" preserveAspectRatio="xMidYMid meet" version="1.0"><defs><g/><clipPath id="cddc8107c9"><path d="M 0 2799.246094 L 2550 2799.246094 L 2550 3225 L 0 3225 Z M 0 2799.246094 " clip-rule="nonzero"/></clipPath><clipPath id="105a967a2c"><path d="M 1633 1403 L 2173.253906 1403 L 2173.253906 2193 L 1633 2193 Z M 1633 1403 " clip-rule="nonzero"/></clipPath><clipPath id="0ed7a9fc7b"><path d="M 339.503906 1215 L 1983 1215 L 1983 1656 L 339.503906 1656 Z M 339.503906 1215 " clip-rule="nonzero"/></clipPath></defs><path stroke-linecap="butt" transform="matrix(0.75, 0, 0, 0.75, 0.000116248, 0.000234375)" fill="none" stroke-linejoin="miter" d="M -0.000154997 -0.0003125 L 3399.999911 -0.0003125 L 3399.999911 4299.999771 L -0.000154997 4299.999771 L -0.000154997 -0.0003125 " stroke="#ffffff" stroke-width="50" stroke-opacity="1" stroke-miterlimit="4"/><g clip-path="url(#cddc8107c9)"><path fill="#ffffff" d="M -90 2799.246094 L 2602.265625 2799.246094 L 2602.265625 3224.988281 L -90 3224.988281 Z M -90 2799.246094 " fill-opacity="1" fill-rule="nonzero"/></g><g fill="#000000" fill-opacity="1"><g transform="translate(506.06805, 3077.000899)"><g><path d="M 83.640625 -150.515625 L 83.640625 -134.953125 L 31.9375 -134.953125 L 31.9375 -90.234375 L 82.046875 -90.234375 L 82.046875 -74.65625 L 31.9375 -74.65625 L 31.9375 0 L 15.171875 0 L 15.171875 -150.515625 Z M 83.640625 -150.515625 "/></g></g></g><g fill="#000000" fill-opacity="1"><g transform="translate(601.490002, 3077.000899)"><g><path d="M 34.140625 -93.828125 L 34.140625 0 L 18.171875 0 L 18.171875 -93.828125 Z M 14.765625 -129.5625 C 14.765625 -132.488281 15.929688 -135.046875 18.265625 -137.234375 C 20.597656 -139.429688 23.226562 -140.53125 26.15625 -140.53125 C 29.21875 -140.53125 31.878906 -139.429688 34.140625 -137.234375 C 36.398438 -135.046875 37.53125 -132.488281 37.53125 -129.5625 C 37.53125 -126.09375 36.398438 -123.257812 34.140625 -121.0625 C 31.878906 -118.875 29.21875 -117.78125 26.15625 -117.78125 C 23.09375 -117.78125 20.425781 -118.84375 18.15625 -120.96875 C 15.894531 -123.101562 14.765625 -125.96875 14.765625 -129.5625 Z M 14.765625 -129.5625 "/></g></g></g><g fill="#000000" fill-opacity="1"><g transform="translate(653.792419, 3077.000899)"><g><path d="M 90.234375 0 L 74.265625 0 L 74.265625 -54.703125 C 74.265625 -64.148438 72.832031 -71 69.96875 -75.25 C 67.101562 -79.507812 61.945312 -81.640625 54.5 -81.640625 C 45.976562 -81.640625 39.953125 -78.710938 36.421875 -72.859375 C 32.898438 -67.003906 31.140625 -58.085938 31.140625 -46.109375 L 31.140625 0 L 15.171875 0 L 15.171875 -93.828125 L 31.140625 -93.828125 L 31.140625 -82.4375 L 31.546875 -82.4375 C 34.867188 -86.96875 38.691406 -90.429688 43.015625 -92.828125 C 47.335938 -95.222656 52.429688 -96.421875 58.296875 -96.421875 C 68.804688 -96.421875 76.753906 -93.191406 82.140625 -86.734375 C 87.535156 -80.285156 90.234375 -70.269531 90.234375 -56.6875 Z M 90.234375 0 "/></g></g></g><g fill="#000000" fill-opacity="1"><g transform="translate(759.195742, 3077.000899)"><g><path d="M 84.84375 -80.453125 L 84.84375 -93.828125 L 100.8125 -93.828125 L 100.8125 0 L 84.84375 0 L 84.84375 -12.96875 L 84.4375 -12.96875 C 76.1875 -2.59375 65.410156 2.59375 52.109375 2.59375 C 39.054688 2.59375 28.304688 -2.195312 19.859375 -11.78125 C 11.410156 -21.363281 7.1875 -33.007812 7.1875 -46.71875 C 7.1875 -61.082031 11.441406 -72.957031 19.953125 -82.34375 C 28.472656 -91.726562 39.253906 -96.421875 52.296875 -96.421875 C 58.816406 -96.421875 64.835938 -95.019531 70.359375 -92.21875 C 75.890625 -89.425781 80.582031 -85.503906 84.4375 -80.453125 Z M 54.09375 -81.640625 C 45.582031 -81.640625 38.363281 -78.378906 32.4375 -71.859375 C 26.519531 -65.335938 23.5625 -57.351562 23.5625 -47.90625 C 23.5625 -37.789062 26.453125 -29.304688 32.234375 -22.453125 C 38.023438 -15.597656 45.378906 -12.171875 54.296875 -12.171875 C 63.742188 -12.171875 71.328125 -15.429688 77.046875 -21.953125 C 82.773438 -28.472656 85.640625 -37.054688 85.640625 -47.703125 C 85.640625 -57.421875 82.710938 -65.503906 76.859375 -71.953125 C 71.003906 -78.410156 63.414062 -81.640625 54.09375 -81.640625 Z M 54.09375 -81.640625 "/></g></g></g><g fill="#000000" fill-opacity="1"><g transform="translate(874.380821, 3077.000899)"><g><path d="M 30.75 -164.6875 L 30.75 0 L 14.765625 0 L 14.765625 -164.6875 Z M 30.75 -164.6875 "/></g></g></g><g fill="#000000" fill-opacity="1"><g transform="translate(981.181567, 3077.000899)"><g><path d="M 83.4375 -121.171875 C 80.113281 -127.023438 76.421875 -131.21875 72.359375 -133.75 C 68.304688 -136.28125 63.414062 -137.546875 57.6875 -137.546875 C 50.375 -137.546875 44.351562 -135.28125 39.625 -130.75 C 34.894531 -126.226562 32.53125 -120.707031 32.53125 -114.1875 C 32.53125 -109.125 34.492188 -104.796875 38.421875 -101.203125 C 42.347656 -97.609375 47.101562 -94.546875 52.6875 -92.015625 C 58.28125 -89.492188 63.335938 -87.300781 67.859375 -85.4375 C 72.390625 -83.570312 77.648438 -80.773438 83.640625 -77.046875 C 89.628906 -73.328125 94.21875 -68.671875 97.40625 -63.078125 C 100.601562 -57.492188 102.203125 -51.109375 102.203125 -43.921875 C 102.203125 -35.671875 100.140625 -27.953125 96.015625 -20.765625 C 91.890625 -13.578125 86.164062 -7.882812 78.84375 -3.6875 C 71.53125 0.5 63.546875 2.59375 54.890625 2.59375 C 43.046875 2.59375 32.898438 -0.894531 24.453125 -7.875 C 16.003906 -14.863281 10.515625 -24.347656 7.984375 -36.328125 L 24.359375 -40.921875 C 25.679688 -32.671875 29.101562 -25.945312 34.625 -20.75 C 40.15625 -15.5625 46.78125 -12.96875 54.5 -12.96875 C 62.882812 -12.96875 70.132812 -15.828125 76.25 -21.546875 C 82.375 -27.273438 85.4375 -34.203125 85.4375 -42.328125 C 85.4375 -49.503906 83.109375 -55.390625 78.453125 -59.984375 C 73.796875 -64.578125 65.273438 -69.332031 52.890625 -74.25 C 40.515625 -79.175781 31.234375 -84.703125 25.046875 -90.828125 C 18.859375 -96.953125 15.765625 -104.9375 15.765625 -114.78125 C 15.765625 -125.957031 19.890625 -135.140625 28.140625 -142.328125 C 36.398438 -149.515625 46.316406 -153.109375 57.890625 -153.109375 C 66.410156 -153.109375 73.960938 -151.113281 80.546875 -147.125 C 87.140625 -143.132812 92.5625 -137.34375 96.8125 -129.75 Z M 83.4375 -121.171875 "/></g></g></g><g fill="#000000" fill-opacity="1"><g transform="translate(1092.773366, 3077.000899)"><g><path d="M 29.9375 -93.828125 L 29.9375 -40.125 C 29.9375 -30.28125 31.46875 -23.160156 34.53125 -18.765625 C 37.59375 -14.367188 43.117188 -12.171875 51.109375 -12.171875 C 58.953125 -12.171875 64.4375 -14.332031 67.5625 -18.65625 C 70.695312 -22.988281 72.265625 -29.878906 72.265625 -39.328125 L 72.265625 -93.828125 L 88.234375 -93.828125 L 88.234375 -38.734375 C 88.234375 -25.148438 85.140625 -14.863281 78.953125 -7.875 C 72.765625 -0.894531 63.484375 2.59375 51.109375 2.59375 C 38.722656 2.59375 29.4375 -0.929688 23.25 -7.984375 C 17.0625 -15.035156 13.96875 -25.285156 13.96875 -38.734375 L 13.96875 -93.828125 Z M 29.9375 -93.828125 "/></g></g></g><g fill="#000000" fill-opacity="1"><g transform="translate(1194.982652, 3077.000899)"><g><path d="M 30.34375 -164.6875 L 30.34375 -80.453125 L 30.75 -80.453125 C 34.601562 -85.503906 39.320312 -89.425781 44.90625 -92.21875 C 50.5 -95.019531 56.488281 -96.421875 62.875 -96.421875 C 72.0625 -96.421875 80.113281 -94.085938 87.03125 -89.421875 C 93.957031 -84.765625 99.179688 -78.675781 102.703125 -71.15625 C 106.234375 -63.644531 108 -55.5625 108 -46.90625 C 108 -38.394531 106.234375 -30.34375 102.703125 -22.75 C 99.179688 -15.164062 93.925781 -9.046875 86.9375 -4.390625 C 79.945312 0.265625 71.992188 2.59375 63.078125 2.59375 C 56.554688 2.59375 50.5 1.265625 44.90625 -1.390625 C 39.320312 -4.054688 34.601562 -7.914062 30.75 -12.96875 L 30.34375 -12.96875 L 30.34375 0 L 14.375 0 L 14.375 -164.6875 Z M 59.890625 -81.640625 C 51.367188 -81.640625 44.179688 -78.3125 38.328125 -71.65625 C 32.472656 -65.007812 29.546875 -57.09375 29.546875 -47.90625 C 29.546875 -37.65625 32.40625 -29.132812 38.125 -22.34375 C 43.851562 -15.5625 51.238281 -12.171875 60.28125 -12.171875 C 69.726562 -12.171875 77.3125 -15.460938 83.03125 -22.046875 C 88.757812 -28.640625 91.625 -37.191406 91.625 -47.703125 C 91.625 -57.691406 88.660156 -65.84375 82.734375 -72.15625 C 76.816406 -78.476562 69.203125 -81.640625 59.890625 -81.640625 Z M 59.890625 -81.640625 "/></g></g></g><g fill="#000000" fill-opacity="1"><g transform="translate(1310.167751, 3077.000899)"><g><path d="M 80.046875 -80.84375 C 82.835938 -85.769531 86.726562 -89.597656 91.71875 -92.328125 C 96.71875 -95.054688 102.210938 -96.421875 108.203125 -96.421875 C 118.046875 -96.421875 125.492188 -93.09375 130.546875 -86.4375 C 135.609375 -79.78125 138.140625 -70.332031 138.140625 -58.09375 L 138.140625 0 L 122.171875 0 L 122.171875 -55.703125 C 122.171875 -65.148438 120.769531 -71.832031 117.96875 -75.75 C 115.175781 -79.675781 110.851562 -81.640625 105 -81.640625 C 98.082031 -81.640625 92.957031 -79.109375 89.625 -74.046875 C 86.300781 -68.992188 84.640625 -61.210938 84.640625 -50.703125 L 84.640625 0 L 68.671875 0 L 68.671875 -54.09375 C 68.671875 -63.675781 67.238281 -70.660156 64.375 -75.046875 C 61.519531 -79.441406 57.363281 -81.640625 51.90625 -81.640625 C 45.113281 -81.640625 39.953125 -79.078125 36.421875 -73.953125 C 32.898438 -68.835938 31.140625 -60.6875 31.140625 -49.5 L 31.140625 0 L 15.171875 0 L 15.171875 -93.828125 L 31.140625 -93.828125 L 31.140625 -83.640625 L 31.546875 -83.640625 C 34.066406 -87.503906 37.253906 -90.597656 41.109375 -92.921875 C 44.972656 -95.253906 49.300781 -96.421875 54.09375 -96.421875 C 59.550781 -96.421875 64.609375 -95.054688 69.265625 -92.328125 C 73.921875 -89.597656 77.515625 -85.769531 80.046875 -80.84375 Z M 80.046875 -80.84375 "/></g></g></g><g fill="#000000" fill-opacity="1"><g transform="translate(1463.481681, 3077.000899)"><g><path d="M 34.140625 -93.828125 L 34.140625 0 L 18.171875 0 L 18.171875 -93.828125 Z M 14.765625 -129.5625 C 14.765625 -132.488281 15.929688 -135.046875 18.265625 -137.234375 C 20.597656 -139.429688 23.226562 -140.53125 26.15625 -140.53125 C 29.21875 -140.53125 31.878906 -139.429688 34.140625 -137.234375 C 36.398438 -135.046875 37.53125 -132.488281 37.53125 -129.5625 C 37.53125 -126.09375 36.398438 -123.257812 34.140625 -121.0625 C 31.878906 -118.875 29.21875 -117.78125 26.15625 -117.78125 C 23.09375 -117.78125 20.425781 -118.84375 18.15625 -120.96875 C 15.894531 -123.101562 14.765625 -125.96875 14.765625 -129.5625 Z M 14.765625 -129.5625 "/></g></g></g><g fill="#000000" fill-opacity="1"><g transform="translate(1515.784116, 3077.000899)"><g><path d="M 53.09375 -72.0625 C 51.632812 -75.125 49.769531 -77.484375 47.5 -79.140625 C 45.238281 -80.804688 42.847656 -81.640625 40.328125 -81.640625 C 37.398438 -81.640625 34.738281 -80.609375 32.34375 -78.546875 C 29.945312 -76.484375 28.75 -74.054688 28.75 -71.265625 C 28.75 -65.804688 33.972656 -61.179688 44.421875 -57.390625 C 54.867188 -53.597656 62.117188 -49.4375 66.171875 -44.90625 C 70.234375 -40.382812 72.265625 -34.734375 72.265625 -27.953125 C 72.265625 -22.753906 71.066406 -17.894531 68.671875 -13.375 C 66.273438 -8.851562 62.582031 -5.0625 57.59375 -2 C 52.601562 1.0625 46.914062 2.59375 40.53125 2.59375 C 32.8125 2.59375 26.019531 0.53125 20.15625 -3.59375 C 14.300781 -7.71875 10.046875 -13.570312 7.390625 -21.15625 L 21.5625 -27.15625 C 23.957031 -21.5625 26.648438 -17.664062 29.640625 -15.46875 C 32.640625 -13.269531 36.332031 -12.171875 40.71875 -12.171875 C 45.25 -12.171875 48.910156 -13.535156 51.703125 -16.265625 C 54.492188 -18.992188 55.890625 -22.421875 55.890625 -26.546875 C 55.890625 -30.003906 54.625 -33.03125 52.09375 -35.625 C 49.570312 -38.226562 44.945312 -40.859375 38.21875 -43.515625 C 31.5 -46.179688 26.28125 -48.84375 22.5625 -51.5 C 16.707031 -55.757812 13.710938 -61.882812 13.578125 -69.875 C 13.578125 -77.320312 16.238281 -83.609375 21.5625 -88.734375 C 26.882812 -93.859375 33.535156 -96.421875 41.515625 -96.421875 C 46.578125 -96.421875 51.4375 -94.820312 56.09375 -91.625 C 60.75 -88.4375 64.207031 -84.242188 66.46875 -79.046875 Z M 53.09375 -72.0625 "/></g></g></g><g fill="#000000" fill-opacity="1"><g transform="translate(1595.435485, 3077.000899)"><g><path d="M 53.09375 -72.0625 C 51.632812 -75.125 49.769531 -77.484375 47.5 -79.140625 C 45.238281 -80.804688 42.847656 -81.640625 40.328125 -81.640625 C 37.398438 -81.640625 34.738281 -80.609375 32.34375 -78.546875 C 29.945312 -76.484375 28.75 -74.054688 28.75 -71.265625 C 28.75 -65.804688 33.972656 -61.179688 44.421875 -57.390625 C 54.867188 -53.597656 62.117188 -49.4375 66.171875 -44.90625 C 70.234375 -40.382812 72.265625 -34.734375 72.265625 -27.953125 C 72.265625 -22.753906 71.066406 -17.894531 68.671875 -13.375 C 66.273438 -8.851562 62.582031 -5.0625 57.59375 -2 C 52.601562 1.0625 46.914062 2.59375 40.53125 2.59375 C 32.8125 2.59375 26.019531 0.53125 20.15625 -3.59375 C 14.300781 -7.71875 10.046875 -13.570312 7.390625 -21.15625 L 21.5625 -27.15625 C 23.957031 -21.5625 26.648438 -17.664062 29.640625 -15.46875 C 32.640625 -13.269531 36.332031 -12.171875 40.71875 -12.171875 C 45.25 -12.171875 48.910156 -13.535156 51.703125 -16.265625 C 54.492188 -18.992188 55.890625 -22.421875 55.890625 -26.546875 C 55.890625 -30.003906 54.625 -33.03125 52.09375 -35.625 C 49.570312 -38.226562 44.945312 -40.859375 38.21875 -43.515625 C 31.5 -46.179688 26.28125 -48.84375 22.5625 -51.5 C 16.707031 -55.757812 13.710938 -61.882812 13.578125 -69.875 C 13.578125 -77.320312 16.238281 -83.609375 21.5625 -88.734375 C 26.882812 -93.859375 33.535156 -96.421875 41.515625 -96.421875 C 46.578125 -96.421875 51.4375 -94.820312 56.09375 -91.625 C 60.75 -88.4375 64.207031 -84.242188 66.46875 -79.046875 Z M 53.09375 -72.0625 "/></g></g></g><g fill="#000000" fill-opacity="1"><g transform="translate(1675.086853, 3077.000899)"><g><path d="M 34.140625 -93.828125 L 34.140625 0 L 18.171875 0 L 18.171875 -93.828125 Z M 14.765625 -129.5625 C 14.765625 -132.488281 15.929688 -135.046875 18.265625 -137.234375 C 20.597656 -139.429688 23.226562 -140.53125 26.15625 -140.53125 C 29.21875 -140.53125 31.878906 -139.429688 34.140625 -137.234375 C 36.398438 -135.046875 37.53125 -132.488281 37.53125 -129.5625 C 37.53125 -126.09375 36.398438 -123.257812 34.140625 -121.0625 C 31.878906 -118.875 29.21875 -117.78125 26.15625 -117.78125 C 23.09375 -117.78125 20.425781 -118.84375 18.15625 -120.96875 C 15.894531 -123.101562 14.765625 -125.96875 14.765625 -129.5625 Z M 14.765625 -129.5625 "/></g></g></g><g fill="#000000" fill-opacity="1"><g transform="translate(1727.389289, 3077.000899)"><g><path d="M 6.78125 -46.71875 C 6.78125 -55.632812 8.976562 -63.953125 13.375 -71.671875 C 17.769531 -79.390625 23.757812 -85.441406 31.34375 -89.828125 C 38.925781 -94.222656 47.175781 -96.421875 56.09375 -96.421875 C 65.007812 -96.421875 73.226562 -94.222656 80.75 -89.828125 C 88.269531 -85.441406 94.257812 -79.421875 98.71875 -71.765625 C 103.175781 -64.109375 105.40625 -55.757812 105.40625 -46.71875 C 105.40625 -37.800781 103.207031 -29.515625 98.8125 -21.859375 C 94.425781 -14.203125 88.4375 -8.210938 80.84375 -3.890625 C 73.257812 0.429688 65.007812 2.59375 56.09375 2.59375 C 47.175781 2.59375 38.890625 0.398438 31.234375 -3.984375 C 23.585938 -8.378906 17.597656 -14.398438 13.265625 -22.046875 C 8.941406 -29.703125 6.78125 -37.925781 6.78125 -46.71875 Z M 55.890625 -81.640625 C 46.441406 -81.640625 38.554688 -78.28125 32.234375 -71.5625 C 25.910156 -64.84375 22.75 -56.625 22.75 -46.90625 C 22.75 -39.71875 24.476562 -33.363281 27.9375 -27.84375 C 31.40625 -22.320312 35.632812 -18.328125 40.625 -15.859375 C 45.613281 -13.398438 50.769531 -12.171875 56.09375 -12.171875 C 62.21875 -12.171875 67.804688 -13.601562 72.859375 -16.46875 C 77.921875 -19.332031 81.945312 -23.457031 84.9375 -28.84375 C 87.9375 -34.238281 89.4375 -40.257812 89.4375 -46.90625 C 89.4375 -53.03125 88.070312 -58.753906 85.34375 -64.078125 C 82.613281 -69.398438 78.648438 -73.65625 73.453125 -76.84375 C 68.265625 -80.039062 62.410156 -81.640625 55.890625 -81.640625 Z M 55.890625 -81.640625 "/></g></g></g><g fill="#000000" fill-opacity="1"><g transform="translate(1839.579946, 3077.000899)"><g><path d="M 90.234375 0 L 74.265625 0 L 74.265625 -54.703125 C 74.265625 -64.148438 72.832031 -71 69.96875 -75.25 C 67.101562 -79.507812 61.945312 -81.640625 54.5 -81.640625 C 45.976562 -81.640625 39.953125 -78.710938 36.421875 -72.859375 C 32.898438 -67.003906 31.140625 -58.085938 31.140625 -46.109375 L 31.140625 0 L 15.171875 0 L 15.171875 -93.828125 L 31.140625 -93.828125 L 31.140625 -82.4375 L 31.546875 -82.4375 C 34.867188 -86.96875 38.691406 -90.429688 43.015625 -92.828125 C 47.335938 -95.222656 52.429688 -96.421875 58.296875 -96.421875 C 68.804688 -96.421875 76.753906 -93.191406 82.140625 -86.734375 C 87.535156 -80.285156 90.234375 -70.269531 90.234375 -56.6875 Z M 90.234375 0 "/></g></g></g><path fill="#ffffff" d="M 749.808594 772.121094 L 1002.304688 772.121094 C 1037.023438 772.121094 1065.429688 743.714844 1065.429688 708.992188 L 1065.429688 361.804688 C 1065.429688 327.082031 1037.023438 298.675781 1002.304688 298.675781 L 749.808594 298.675781 C 715.089844 298.675781 686.683594 327.082031 686.683594 361.804688 L 686.683594 708.992188 C 686.683594 743.714844 715.089844 772.121094 749.808594 772.121094 Z M 749.808594 361.804688 L 1002.304688 361.804688 L 1002.304688 708.992188 L 749.808594 708.992188 Z M 749.808594 361.804688 " fill-opacity="1" fill-rule="nonzero"/><path fill="#ffffff" d="M 1601.980469 645.867188 L 1191.675781 645.867188 C 1174.316406 645.867188 1160.113281 660.070312 1160.113281 677.429688 C 1160.113281 694.789062 1174.316406 708.992188 1191.675781 708.992188 L 1601.980469 708.992188 C 1619.339844 708.992188 1633.542969 694.789062 1633.542969 677.429688 C 1633.542969 660.070312 1619.339844 645.867188 1601.980469 645.867188 Z M 1601.980469 645.867188 " fill-opacity="1" fill-rule="nonzero"/><path fill="#ffffff" d="M 1601.980469 835.246094 L 718.246094 835.246094 C 700.886719 835.246094 686.683594 849.449219 686.683594 866.808594 C 686.683594 884.167969 700.886719 898.371094 718.246094 898.371094 L 1601.980469 898.371094 C 1619.339844 898.371094 1633.542969 884.167969 1633.542969 866.808594 C 1633.542969 849.449219 1619.339844 835.246094 1601.980469 835.246094 Z M 1601.980469 835.246094 " fill-opacity="1" fill-rule="nonzero"/><path fill="#ffffff" d="M 1601.980469 961.496094 L 718.246094 961.496094 C 700.886719 961.496094 686.683594 975.699219 686.683594 993.058594 C 686.683594 1010.417969 700.886719 1024.621094 718.246094 1024.621094 L 1601.980469 1024.621094 C 1619.339844 1024.621094 1633.542969 1010.417969 1633.542969 993.058594 C 1633.542969 975.699219 1619.339844 961.496094 1601.980469 961.496094 Z M 1601.980469 961.496094 " fill-opacity="1" fill-rule="nonzero"/><path fill="#ffffff" d="M 1601.980469 1079.855469 L 718.246094 1079.855469 C 700.886719 1079.855469 686.683594 1094.058594 686.683594 1111.417969 C 686.683594 1128.78125 700.886719 1142.984375 718.246094 1142.984375 L 1601.980469 1142.984375 C 1619.339844 1142.984375 1633.542969 1128.78125 1633.542969 1111.417969 C 1633.542969 1094.058594 1619.339844 1079.855469 1601.980469 1079.855469 Z M 1601.980469 1079.855469 " fill-opacity="1" fill-rule="nonzero"/><path fill="#ffffff" d="M 560.4375 238.707031 L 560.4375 1150.875 L 623.5625 1150.875 L 623.5625 238.707031 C 623.5625 237.128906 625.140625 235.550781 626.71875 235.550781 L 1693.511719 235.550781 C 1695.089844 235.550781 1696.667969 237.128906 1696.667969 238.707031 L 1696.667969 1150.875 L 1759.792969 1150.875 L 1759.792969 238.707031 C 1759.792969 202.410156 1729.808594 172.425781 1693.511719 172.425781 L 626.71875 172.425781 C 590.421875 172.425781 560.4375 202.410156 560.4375 238.707031 Z M 560.4375 238.707031 " fill-opacity="1" fill-rule="nonzero"/><path fill="#ffffff" d="M 697.730469 1498.0625 C 691.417969 1501.21875 683.53125 1502.800781 672.484375 1502.800781 C 658.28125 1502.800781 640.921875 1498.0625 620.40625 1490.171875 C 617.25 1499.640625 614.09375 1507.535156 612.515625 1515.425781 C 610.9375 1523.316406 609.359375 1531.207031 607.78125 1539.097656 C 620.40625 1543.832031 631.453125 1546.988281 640.921875 1548.566406 C 650.390625 1550.144531 663.015625 1551.722656 675.640625 1551.722656 C 689.839844 1551.722656 704.042969 1550.144531 715.089844 1546.988281 C 726.136719 1543.832031 735.605469 1539.097656 743.496094 1531.207031 C 751.386719 1524.894531 757.699219 1517 760.855469 1507.53125 C 765.589844 1498.0625 767.167969 1488.59375 767.167969 1475.96875 C 767.167969 1464.921875 765.589844 1457.03125 762.433594 1449.140625 C 759.277344 1441.25 756.121094 1434.9375 749.808594 1430.203125 C 745.074219 1425.46875 738.761719 1420.734375 730.871094 1416 C 722.980469 1412.84375 715.089844 1408.109375 707.199219 1404.953125 L 691.417969 1398.640625 C 685.109375 1397.0625 680.375 1393.90625 677.21875 1390.75 C 674.0625 1392.328125 670.90625 1387.59375 670.90625 1381.28125 C 670.90625 1378.125 670.90625 1374.96875 672.484375 1371.8125 C 674.0625 1368.65625 675.640625 1367.078125 678.796875 1365.5 C 681.953125 1363.921875 683.53125 1362.34375 686.683594 1362.34375 C 689.839844 1362.34375 692.996094 1360.765625 696.152344 1360.765625 C 707.199219 1360.765625 716.667969 1362.34375 724.558594 1363.921875 C 732.449219 1367.078125 738.761719 1368.65625 745.074219 1371.8125 C 748.230469 1363.921875 751.386719 1356.03125 752.964844 1348.140625 C 754.542969 1340.25 756.121094 1332.359375 757.699219 1326.046875 C 746.652344 1321.3125 735.605469 1318.15625 724.558594 1316.578125 C 715.089844 1315 704.042969 1313.421875 692.996094 1313.421875 C 680.375 1313.421875 669.328125 1315 659.859375 1318.15625 C 650.390625 1321.3125 640.921875 1326.046875 634.609375 1332.359375 C 628.296875 1338.671875 621.984375 1346.5625 618.828125 1354.453125 C 615.671875 1363.921875 612.515625 1373.390625 612.515625 1384.4375 C 612.515625 1393.90625 614.09375 1401.796875 615.671875 1408.109375 C 618.828125 1414.421875 621.984375 1420.734375 626.71875 1427.046875 C 631.453125 1431.78125 636.1875 1436.515625 642.5 1441.25 C 648.8125 1444.40625 655.125 1449.140625 663.015625 1450.71875 L 680.375 1457.03125 C 683.527344 1458.609375 686.683594 1458.609375 688.261719 1460.1875 C 691.417969 1461.765625 692.996094 1463.34375 696.152344 1464.921875 C 697.730469 1466.5 699.308594 1468.078125 700.886719 1471.234375 C 702.464844 1474.390625 702.464844 1475.96875 702.464844 1480.703125 C 705.621094 1490.171875 702.464844 1494.90625 697.730469 1498.0625 Z M 697.730469 1498.0625 " fill-opacity="1" fill-rule="nonzero"/><path fill="#ffffff" d="M 839.761719 1316.578125 C 835.027344 1316.578125 831.871094 1316.578125 827.136719 1316.578125 C 822.402344 1316.578125 819.246094 1316.578125 814.511719 1316.578125 C 809.777344 1316.578125 805.042969 1318.15625 798.730469 1318.15625 L 798.730469 1450.71875 C 798.730469 1466.5 800.308594 1480.703125 803.464844 1493.328125 C 806.621094 1505.957031 811.355469 1517.003906 817.667969 1526.472656 C 823.980469 1535.941406 833.449219 1542.253906 844.496094 1546.988281 C 855.542969 1551.722656 869.746094 1554.878906 888.683594 1554.878906 C 907.621094 1554.878906 920.242188 1551.722656 932.867188 1546.988281 C 943.914062 1542.253906 953.382812 1535.941406 959.695312 1526.472656 C 966.007812 1517.003906 970.742188 1505.953125 973.898438 1493.328125 C 977.054688 1480.703125 978.632812 1466.5 978.632812 1450.71875 L 978.632812 1318.15625 C 972.320312 1316.578125 967.585938 1316.578125 962.851562 1316.578125 C 958.117188 1316.578125 953.382812 1316.578125 950.226562 1316.578125 C 947.070312 1316.578125 942.335938 1316.578125 937.601562 1316.578125 C 932.867188 1316.578125 928.132812 1318.15625 921.820312 1318.15625 L 921.820312 1442.828125 C 921.820312 1453.875 921.820312 1463.34375 920.242188 1469.65625 C 920.242188 1477.546875 918.667969 1483.859375 915.511719 1488.59375 C 913.933594 1493.328125 910.777344 1496.484375 906.042969 1498.0625 C 901.308594 1499.640625 896.574219 1501.21875 890.261719 1501.21875 C 883.949219 1501.21875 877.636719 1499.640625 874.480469 1498.0625 C 869.746094 1496.484375 866.589844 1493.328125 865.011719 1488.59375 C 863.433594 1483.859375 861.855469 1477.546875 860.277344 1469.65625 C 858.699219 1461.765625 858.699219 1452.296875 858.699219 1442.828125 L 858.699219 1318.15625 C 849.230469 1318.15625 844.496094 1316.578125 839.761719 1316.578125 Z M 839.761719 1316.578125 " fill-opacity="1" fill-rule="nonzero"/><path fill="#ffffff" d="M 1155.378906 1404.953125 C 1160.113281 1397.0625 1161.691406 1387.59375 1161.691406 1376.546875 C 1161.691406 1363.921875 1160.113281 1354.453125 1155.378906 1346.5625 C 1150.644531 1338.671875 1144.332031 1332.359375 1136.445312 1327.625 C 1128.554688 1322.890625 1119.085938 1319.734375 1108.039062 1316.578125 C 1096.992188 1313.421875 1085.945312 1313.421875 1073.320312 1313.421875 C 1060.695312 1313.421875 1049.648438 1313.421875 1038.601562 1315 C 1027.554688 1316.578125 1019.664062 1316.578125 1011.773438 1318.15625 L 1011.773438 1548.566406 C 1022.820312 1550.144531 1032.289062 1551.722656 1041.757812 1551.722656 C 1051.226562 1553.300781 1060.695312 1553.300781 1073.320312 1553.300781 C 1087.523438 1553.300781 1101.726562 1551.722656 1114.351562 1550.144531 C 1126.976562 1548.566406 1138.023438 1543.832031 1145.910156 1539.097656 C 1155.378906 1534.363281 1161.691406 1526.472656 1168.003906 1517.003906 C 1172.738281 1507.535156 1175.894531 1496.484375 1175.894531 1482.28125 C 1175.894531 1474.390625 1174.316406 1466.5 1172.738281 1460.1875 C 1171.160156 1453.875 1168.003906 1447.5625 1164.847656 1442.828125 C 1161.691406 1438.09375 1156.957031 1434.9375 1152.222656 1431.78125 C 1147.488281 1428.625 1142.757812 1425.46875 1138.023438 1423.890625 C 1145.910156 1419.15625 1150.644531 1412.84375 1155.378906 1404.953125 Z M 1070.164062 1359.1875 C 1071.742188 1359.1875 1073.320312 1359.1875 1074.898438 1359.1875 C 1076.476562 1359.1875 1078.054688 1359.1875 1079.632812 1359.1875 C 1082.789062 1359.1875 1085.945312 1359.1875 1089.101562 1360.765625 C 1092.257812 1362.34375 1095.414062 1362.34375 1098.570312 1363.921875 C 1101.726562 1365.5 1103.304688 1368.65625 1104.882812 1371.8125 C 1106.460938 1374.96875 1108.039062 1378.125 1108.039062 1382.859375 C 1108.039062 1392.328125 1104.882812 1398.640625 1100.148438 1401.796875 C 1095.414062 1404.953125 1087.523438 1408.109375 1078.054688 1408.109375 L 1068.585938 1408.109375 L 1068.585938 1359.1875 Z M 1115.929688 1493.328125 C 1114.351562 1496.484375 1111.195312 1499.640625 1108.039062 1501.21875 C 1104.882812 1502.796875 1100.148438 1504.375 1096.992188 1505.957031 C 1093.835938 1507.535156 1089.101562 1507.535156 1084.367188 1507.535156 C 1081.210938 1507.535156 1078.054688 1507.535156 1074.898438 1507.535156 C 1071.742188 1507.535156 1070.164062 1507.535156 1068.585938 1507.535156 L 1068.585938 1453.875 L 1081.210938 1453.875 C 1092.257812 1453.875 1100.148438 1455.453125 1108.039062 1460.1875 C 1114.351562 1464.921875 1117.507812 1471.234375 1117.507812 1482.28125 C 1119.085938 1485.4375 1117.507812 1490.171875 1115.929688 1493.328125 Z M 1115.929688 1493.328125 " fill-opacity="1" fill-rule="nonzero"/><path fill="#ffffff" d="M 1390.515625 1316.578125 C 1385.78125 1316.578125 1382.625 1316.578125 1377.890625 1318.15625 C 1373.15625 1318.15625 1368.421875 1319.734375 1365.265625 1319.734375 L 1317.925781 1439.671875 L 1270.582031 1318.15625 C 1265.847656 1318.15625 1261.113281 1316.578125 1256.378906 1316.578125 C 1251.644531 1316.578125 1246.910156 1315 1242.175781 1315 C 1237.441406 1315 1232.707031 1315 1227.972656 1316.578125 C 1223.238281 1318.15625 1218.503906 1318.15625 1213.769531 1318.15625 L 1204.300781 1548.566406 C 1213.769531 1550.144531 1223.238281 1551.722656 1231.128906 1551.722656 C 1239.019531 1551.722656 1248.488281 1550.144531 1256.378906 1548.566406 L 1259.535156 1416 L 1291.097656 1502.796875 C 1294.253906 1504.375 1298.988281 1504.375 1302.144531 1504.375 C 1305.300781 1504.375 1308.457031 1504.375 1311.613281 1504.375 C 1314.769531 1504.375 1317.925781 1504.375 1322.660156 1504.375 C 1325.816406 1504.375 1330.550781 1502.796875 1333.707031 1502.796875 L 1370 1414.421875 L 1374.734375 1548.566406 C 1385.78125 1550.144531 1393.671875 1551.722656 1401.5625 1551.722656 C 1407.875 1551.722656 1414.1875 1551.722656 1418.921875 1550.144531 C 1423.65625 1548.566406 1426.8125 1548.566406 1429.96875 1548.566406 L 1418.921875 1318.15625 C 1414.1875 1318.15625 1409.453125 1316.578125 1404.71875 1316.578125 C 1399.984375 1316.578125 1395.25 1316.578125 1390.515625 1316.578125 Z M 1390.515625 1316.578125 " fill-opacity="1" fill-rule="nonzero"/><path fill="#ffffff" d="M 1480.46875 1316.578125 C 1475.734375 1316.578125 1471 1318.15625 1464.6875 1318.15625 L 1464.6875 1548.566406 C 1475.734375 1550.144531 1485.203125 1551.722656 1493.09375 1551.722656 C 1500.984375 1551.722656 1510.453125 1550.144531 1521.5 1548.566406 L 1521.5 1318.15625 C 1515.1875 1316.578125 1510.453125 1316.578125 1505.71875 1316.578125 C 1500.984375 1316.578125 1496.25 1316.578125 1493.09375 1316.578125 C 1489.9375 1316.578125 1485.203125 1316.578125 1480.46875 1316.578125 Z M 1480.46875 1316.578125 " fill-opacity="1" fill-rule="nonzero"/><path fill="#ffffff" d="M 1631.964844 1551.722656 C 1639.855469 1551.722656 1649.324219 1550.144531 1660.371094 1548.566406 L 1660.371094 1368.65625 L 1714.027344 1368.65625 C 1715.605469 1359.1875 1717.183594 1349.71875 1717.183594 1343.40625 C 1717.183594 1340.25 1717.183594 1335.515625 1717.183594 1332.359375 C 1717.183594 1327.625 1715.605469 1324.46875 1715.605469 1319.734375 L 1549.90625 1319.734375 C 1548.328125 1329.203125 1546.75 1337.09375 1546.75 1344.984375 C 1546.75 1352.875 1548.328125 1360.765625 1549.90625 1370.234375 L 1603.558594 1370.234375 L 1603.558594 1551.722656 C 1614.605469 1551.722656 1624.074219 1551.722656 1631.964844 1551.722656 Z M 1631.964844 1551.722656 " fill-opacity="1" fill-rule="nonzero"/><path fill="#ffffff" d="M 1633.542969 346.019531 C 1633.542969 319.191406 1613.027344 298.675781 1586.203125 298.675781 L 1207.457031 298.675781 C 1180.628906 298.675781 1160.113281 319.191406 1160.113281 346.019531 L 1160.113281 409.148438 C 1160.113281 435.976562 1180.628906 456.492188 1207.457031 456.492188 L 1586.203125 456.492188 C 1613.027344 456.492188 1633.542969 435.976562 1633.542969 409.148438 Z M 1570.421875 393.367188 L 1223.238281 393.367188 L 1223.238281 361.804688 L 1570.421875 361.804688 Z M 1570.421875 393.367188 " fill-opacity="1" fill-rule="nonzero"/><path fill="#ffffff" d="M 1601.980469 519.617188 L 1191.675781 519.617188 C 1174.316406 519.617188 1160.113281 533.820312 1160.113281 551.179688 C 1160.113281 568.539062 1174.316406 582.742188 1191.675781 582.742188 L 1601.980469 582.742188 C 1619.339844 582.742188 1633.542969 568.539062 1633.542969 551.179688 C 1633.542969 533.820312 1619.339844 519.617188 1601.980469 519.617188 Z M 1601.980469 519.617188 " fill-opacity="1" fill-rule="nonzero"/><g clip-path="url(#105a967a2c)"><path fill="#ffffff" d="M 2100.660156 1627.472656 L 2081.722656 1627.472656 C 2080.144531 1627.472656 2076.988281 1627.472656 2075.410156 1627.472656 C 2069.097656 1595.910156 2040.695312 1572.238281 2004.398438 1572.238281 L 1985.460938 1572.238281 C 1977.570312 1572.238281 1971.257812 1573.816406 1963.367188 1575.394531 C 1961.789062 1572.238281 1958.632812 1569.082031 1957.054688 1567.503906 C 1938.117188 1548.566406 1912.867188 1548.566406 1904.976562 1548.566406 L 1886.039062 1548.566406 C 1882.882812 1548.566406 1879.726562 1548.566406 1876.570312 1550.144531 L 1876.570312 1471.234375 C 1876.570312 1433.359375 1846.585938 1403.375 1810.292969 1403.375 L 1792.933594 1403.375 C 1756.636719 1403.375 1726.652344 1433.359375 1726.652344 1471.234375 L 1726.652344 1703.222656 C 1725.074219 1703.222656 1723.496094 1703.222656 1721.917969 1703.222656 L 1702.980469 1703.222656 C 1665.105469 1703.222656 1633.542969 1733.207031 1633.542969 1771.082031 L 1633.542969 2034.632812 C 1633.542969 2050.414062 1638.277344 2064.617188 1649.324219 2077.242188 L 1736.121094 2181.398438 C 1742.433594 2189.289062 1751.902344 2192.445312 1759.792969 2192.445312 C 1766.105469 2192.445312 1773.996094 2189.289062 1780.308594 2184.554688 C 1794.511719 2173.507812 1796.089844 2152.992188 1785.042969 2140.367188 L 1698.246094 2036.210938 C 1698.246094 2036.210938 1698.246094 2034.632812 1698.246094 2034.632812 L 1698.246094 1771.082031 C 1698.246094 1767.925781 1701.402344 1766.347656 1704.558594 1766.347656 L 1723.496094 1766.347656 C 1728.230469 1766.347656 1728.230469 1771.082031 1728.230469 1771.082031 L 1728.230469 1908.378906 C 1728.230469 1925.742188 1742.433594 1939.945312 1759.792969 1939.945312 C 1777.152344 1939.945312 1791.355469 1925.742188 1791.355469 1908.378906 L 1791.355469 1471.234375 C 1791.355469 1468.078125 1792.933594 1466.5 1794.511719 1466.5 L 1811.871094 1466.5 C 1813.449219 1466.5 1815.027344 1468.078125 1815.027344 1471.234375 L 1815.027344 1613.269531 C 1815.027344 1614.847656 1815.027344 1614.847656 1815.027344 1616.425781 L 1815.027344 1717.425781 C 1815.027344 1734.785156 1829.230469 1748.988281 1846.585938 1748.988281 C 1863.945312 1748.988281 1878.148438 1734.785156 1878.148438 1717.425781 L 1878.148438 1616.425781 C 1878.148438 1614.847656 1881.304688 1613.269531 1887.617188 1613.269531 L 1906.554688 1613.269531 C 1909.710938 1613.269531 1912.867188 1613.269531 1912.867188 1613.269531 C 1914.445312 1616.425781 1916.023438 1622.738281 1914.445312 1638.519531 C 1914.445312 1638.519531 1914.445312 1640.097656 1914.445312 1640.097656 L 1914.445312 1733.207031 C 1914.445312 1750.566406 1928.648438 1764.769531 1946.007812 1764.769531 C 1963.367188 1764.769531 1977.570312 1750.566406 1977.570312 1733.207031 L 1977.570312 1640.097656 C 1977.570312 1640.097656 1980.726562 1635.363281 1987.039062 1635.363281 L 2005.976562 1635.363281 C 2012.289062 1635.363281 2015.445312 1638.519531 2015.445312 1640.097656 L 2015.445312 1763.191406 C 2015.445312 1780.550781 2029.648438 1794.753906 2047.007812 1794.753906 C 2064.363281 1794.753906 2078.566406 1780.550781 2078.566406 1763.191406 L 2078.566406 1695.332031 C 2078.566406 1693.753906 2080.144531 1690.597656 2083.300781 1690.597656 L 2102.238281 1690.597656 C 2106.972656 1690.597656 2108.550781 1693.753906 2108.550781 1695.332031 L 2108.550781 1985.710938 C 2108.550781 1985.710938 2108.550781 1987.289062 2108.550781 1987.289062 L 2021.757812 2121.429688 C 2012.289062 2135.632812 2017.023438 2156.148438 2031.226562 2165.617188 C 2035.960938 2168.773438 2042.273438 2170.351562 2048.585938 2170.351562 C 2059.628906 2170.351562 2069.097656 2165.617188 2075.410156 2156.148438 L 2160.628906 2025.164062 C 2168.519531 2014.117188 2173.253906 1999.914062 2173.253906 1985.710938 L 2173.253906 1693.753906 C 2170.097656 1657.457031 2138.535156 1627.472656 2100.660156 1627.472656 Z M 2100.660156 1627.472656 " fill-opacity="1" fill-rule="nonzero"/></g><g clip-path="url(#0ed7a9fc7b)"><path fill="#ffffff" d="M 1663.527344 1646.410156 L 1663.527344 1592.753906 L 541.5 1592.753906 C 465.75 1592.753906 402.628906 1531.207031 402.628906 1453.875 L 402.628906 1416 C 402.628906 1340.25 464.171875 1277.125 541.5 1277.125 L 1778.730469 1277.125 C 1848.164062 1277.125 1906.554688 1329.203125 1916.023438 1397.0625 C 1930.226562 1417.578125 1939.695312 1444.40625 1939.695312 1471.234375 L 1939.695312 1490.171875 C 1953.898438 1493.328125 1964.945312 1498.0625 1975.992188 1504.375 C 1979.148438 1488.59375 1982.304688 1472.8125 1982.304688 1455.453125 L 1982.304688 1417.578125 C 1982.304688 1307.109375 1892.351562 1215.578125 1780.308594 1215.578125 L 541.5 1215.578125 C 429.457031 1214 339.503906 1303.953125 339.503906 1416 L 339.503906 1453.875 C 339.503906 1564.347656 429.457031 1655.878906 541.5 1655.878906 L 1639.855469 1655.878906 C 1647.746094 1651.144531 1655.636719 1647.988281 1663.527344 1646.410156 Z M 1663.527344 1646.410156 " fill-opacity="1" fill-rule="nonzero"/></g></svg>