<svg xmlns="http://www.w3.org/2000/svg" xmlns:xlink="http://www.w3.org/1999/xlink" width="3400" zoomAndPan="magnify" viewBox="0 0 2550 3224.999865" height="4300" preserveAspectRatio="xMidYMid meet" version="1.0"><defs><g/><clipPath id="9d48cf2780"><path d="M 0 2799.246094 L 2550 2799.246094 L 2550 3225 L 0 3225 Z M 0 2799.246094 " clip-rule="nonzero"/></clipPath><clipPath id="2721c6ccdd"><path d="M 774.074219 137.316406 L 1873 137.316406 L 1873 2145.066406 L 774.074219 2145.066406 Z M 774.074219 137.316406 " clip-rule="nonzero"/></clipPath></defs><path stroke-linecap="butt" transform="matrix(0.75, 0, 0, 0.75, 0.000116248, 0)" fill="none" stroke-linejoin="miter" d="M -0.000154997 0 L 3399.999911 0 L 3399.999911 4300.000084 L -0.000154997 4300.000084 L -0.000154997 0 " stroke="#ffffff" stroke-width="50" stroke-opacity="1" stroke-miterlimit="4"/><g clip-path="url(#9d48cf2780)"><path fill="#ffffff" d="M -90 2799.246094 L 2602.265625 2799.246094 L 2602.265625 3224.988281 L -90 3224.988281 Z M -90 2799.246094 " fill-opacity="1" fill-rule="nonzero"/></g><g fill="#000000" fill-opacity="1"><g transform="translate(204.033231, 3077.000659)"><g><path d="M 83.640625 -150.515625 L 83.640625 -134.953125 L 31.9375 -134.953125 L 31.9375 -90.234375 L 82.046875 -90.234375 L 82.046875 -74.65625 L 31.9375 -74.65625 L 31.9375 0 L 15.171875 0 L 15.171875 -150.515625 Z M 83.640625 -150.515625 "/></g></g></g><g fill="#000000" fill-opacity="1"><g transform="translate(299.455183, 3077.000659)"><g><path d="M 6.78125 -46.71875 C 6.78125 -55.632812 8.976562 -63.953125 13.375 -71.671875 C 17.769531 -79.390625 23.757812 -85.441406 31.34375 -89.828125 C 38.925781 -94.222656 47.175781 -96.421875 56.09375 -96.421875 C 65.007812 -96.421875 73.226562 -94.222656 80.75 -89.828125 C 88.269531 -85.441406 94.257812 -79.421875 98.71875 -71.765625 C 103.175781 -64.109375 105.40625 -55.757812 105.40625 -46.71875 C 105.40625 -37.800781 103.207031 -29.515625 98.8125 -21.859375 C 94.425781 -14.203125 88.4375 -8.210938 80.84375 -3.890625 C 73.257812 0.429688 65.007812 2.59375 56.09375 2.59375 C 47.175781 2.59375 38.890625 0.398438 31.234375 -3.984375 C 23.585938 -8.378906 17.597656 -14.398438 13.265625 -22.046875 C 8.941406 -29.703125 6.78125 -37.925781 6.78125 -46.71875 Z M 55.890625 -81.640625 C 46.441406 -81.640625 38.554688 -78.28125 32.234375 -71.5625 C 25.910156 -64.84375 22.75 -56.625 22.75 -46.90625 C 22.75 -39.71875 24.476562 -33.363281 27.9375 -27.84375 C 31.40625 -22.320312 35.632812 -18.328125 40.625 -15.859375 C 45.613281 -13.398438 50.769531 -12.171875 56.09375 -12.171875 C 62.21875 -12.171875 67.804688 -13.601562 72.859375 -16.46875 C 77.921875 -19.332031 81.945312 -23.457031 84.9375 -28.84375 C 87.9375 -34.238281 89.4375 -40.257812 89.4375 -46.90625 C 89.4375 -53.03125 88.070312 -58.753906 85.34375 -64.078125 C 82.613281 -69.398438 78.648438 -73.65625 73.453125 -76.84375 C 68.265625 -80.039062 62.410156 -81.640625 55.890625 -81.640625 Z M 55.890625 -81.640625 "/></g></g></g><g fill="#000000" fill-opacity="1"><g transform="translate(411.64584, 3077.000659)"><g><path d="M 58.296875 -77.453125 C 56.691406 -78.648438 55.191406 -79.644531 53.796875 -80.4375 C 52.398438 -81.238281 50.703125 -81.640625 48.703125 -81.640625 C 42.710938 -81.640625 38.15625 -78.976562 35.03125 -73.65625 C 31.90625 -68.332031 30.34375 -59.75 30.34375 -47.90625 L 30.34375 0 L 14.375 0 L 14.375 -93.828125 L 30.34375 -93.828125 L 30.34375 -83.640625 L 30.75 -83.640625 C 34.601562 -88.828125 38.023438 -92.253906 41.015625 -93.921875 C 44.015625 -95.585938 47.507812 -96.421875 51.5 -96.421875 C 53.894531 -96.421875 56.320312 -96.019531 58.78125 -95.21875 C 61.25 -94.414062 63.613281 -93.351562 65.875 -92.03125 Z M 58.296875 -77.453125 "/></g></g></g><g fill="#000000" fill-opacity="1"><g transform="translate(478.521048, 3077.000659)"><g><path d="M 96.8125 -43.515625 L 23.15625 -43.515625 C 23.425781 -34.203125 26.488281 -26.648438 32.34375 -20.859375 C 38.195312 -15.066406 45.382812 -12.171875 53.90625 -12.171875 C 59.882812 -12.171875 65.171875 -13.703125 69.765625 -16.765625 C 74.359375 -19.828125 78.582031 -24.753906 82.4375 -31.546875 L 96.015625 -23.75 C 91.492188 -15.363281 85.539062 -8.875 78.15625 -4.28125 C 70.769531 0.300781 62.285156 2.59375 52.703125 2.59375 C 43.515625 2.59375 35.394531 0.398438 28.34375 -3.984375 C 21.289062 -8.378906 15.929688 -14.269531 12.265625 -21.65625 C 8.609375 -29.039062 6.78125 -37.0625 6.78125 -45.71875 C 6.78125 -55.300781 8.609375 -63.953125 12.265625 -71.671875 C 15.929688 -79.390625 21.222656 -85.441406 28.140625 -89.828125 C 35.066406 -94.222656 43.117188 -96.421875 52.296875 -96.421875 C 61.210938 -96.421875 69.097656 -94.253906 75.953125 -89.921875 C 82.804688 -85.597656 88.03125 -79.644531 91.625 -72.0625 C 95.21875 -64.476562 97.015625 -55.960938 97.015625 -46.515625 C 97.015625 -45.578125 96.945312 -44.578125 96.8125 -43.515625 Z M 80.046875 -57.09375 C 78.710938 -64.414062 75.453125 -70.335938 70.265625 -74.859375 C 65.078125 -79.378906 59.15625 -81.640625 52.5 -81.640625 C 45.976562 -81.640625 39.851562 -79.273438 34.125 -74.546875 C 28.40625 -69.828125 25.015625 -64.007812 23.953125 -57.09375 Z M 80.046875 -57.09375 "/></g></g></g><g fill="#000000" fill-opacity="1"><g transform="translate(582.127739, 3077.000659)"><g><path d="M 34.140625 -93.828125 L 34.140625 0 L 18.171875 0 L 18.171875 -93.828125 Z M 14.765625 -129.5625 C 14.765625 -132.488281 15.929688 -135.046875 18.265625 -137.234375 C 20.597656 -139.429688 23.226562 -140.53125 26.15625 -140.53125 C 29.21875 -140.53125 31.878906 -139.429688 34.140625 -137.234375 C 36.398438 -135.046875 37.53125 -132.488281 37.53125 -129.5625 C 37.53125 -126.09375 36.398438 -123.257812 34.140625 -121.0625 C 31.878906 -118.875 29.21875 -117.78125 26.15625 -117.78125 C 23.09375 -117.78125 20.425781 -118.84375 18.15625 -120.96875 C 15.894531 -123.101562 14.765625 -125.96875 14.765625 -129.5625 Z M 14.765625 -129.5625 "/></g></g></g><g fill="#000000" fill-opacity="1"><g transform="translate(634.430174, 3077.000659)"><g><path d="M 83.84375 -80.453125 L 83.84375 -93.828125 L 99.8125 -93.828125 L 99.8125 3.390625 C 99.8125 19.097656 95.421875 31.175781 86.640625 39.625 C 77.859375 48.070312 66.945312 52.296875 53.90625 52.296875 C 40.59375 52.296875 29.644531 48.335938 21.0625 40.421875 C 12.476562 32.503906 8.050781 22.09375 7.78125 9.1875 L 23.75 9.1875 C 23.75 17.4375 26.507812 24.222656 32.03125 29.546875 C 37.5625 34.867188 44.851562 37.53125 53.90625 37.53125 C 63.75 37.53125 71.195312 34.46875 76.25 28.34375 C 81.3125 22.21875 83.84375 12.101562 83.84375 -2 L 83.84375 -12.96875 L 83.4375 -12.96875 C 79.71875 -8.1875 74.960938 -4.394531 69.171875 -1.59375 C 63.378906 1.195312 57.289062 2.59375 50.90625 2.59375 C 42.25 2.59375 34.523438 0.398438 27.734375 -3.984375 C 20.953125 -8.378906 15.664062 -14.335938 11.875 -21.859375 C 8.082031 -29.378906 6.1875 -37.597656 6.1875 -46.515625 C 6.1875 -55.691406 8.148438 -64.109375 12.078125 -71.765625 C 16.003906 -79.421875 21.425781 -85.441406 28.34375 -89.828125 C 35.269531 -94.222656 42.988281 -96.421875 51.5 -96.421875 C 58.019531 -96.421875 64.007812 -95.019531 69.46875 -92.21875 C 74.925781 -89.425781 79.582031 -85.503906 83.4375 -80.453125 Z M 53.09375 -81.640625 C 47.507812 -81.640625 42.390625 -80.175781 37.734375 -77.25 C 33.078125 -74.320312 29.382812 -70.226562 26.65625 -64.96875 C 23.925781 -59.71875 22.5625 -54.03125 22.5625 -47.90625 C 22.5625 -37.65625 25.421875 -29.132812 31.140625 -22.34375 C 36.859375 -15.5625 44.242188 -12.171875 53.296875 -12.171875 C 62.742188 -12.171875 70.328125 -15.5 76.046875 -22.15625 C 81.773438 -28.8125 84.640625 -37.328125 84.640625 -47.703125 C 84.640625 -57.691406 81.675781 -65.84375 75.75 -72.15625 C 69.832031 -78.476562 62.28125 -81.640625 53.09375 -81.640625 Z M 53.09375 -81.640625 "/></g></g></g><g fill="#000000" fill-opacity="1"><g transform="translate(750.214131, 3077.000659)"><g><path d="M 90.234375 0 L 74.265625 0 L 74.265625 -54.703125 C 74.265625 -64.148438 72.832031 -71 69.96875 -75.25 C 67.101562 -79.507812 61.945312 -81.640625 54.5 -81.640625 C 45.976562 -81.640625 39.953125 -78.710938 36.421875 -72.859375 C 32.898438 -67.003906 31.140625 -58.085938 31.140625 -46.109375 L 31.140625 0 L 15.171875 0 L 15.171875 -93.828125 L 31.140625 -93.828125 L 31.140625 -82.4375 L 31.546875 -82.4375 C 34.867188 -86.96875 38.691406 -90.429688 43.015625 -92.828125 C 47.335938 -95.222656 52.429688 -96.421875 58.296875 -96.421875 C 68.804688 -96.421875 76.753906 -93.191406 82.140625 -86.734375 C 87.535156 -80.285156 90.234375 -70.269531 90.234375 -56.6875 Z M 90.234375 0 "/></g></g></g><g fill="#000000" fill-opacity="1"><g transform="translate(917.102731, 3077.000659)"><g><path d="M 7.578125 -75.0625 C 7.578125 -88.894531 11.070312 -101.800781 18.0625 -113.78125 C 25.050781 -125.757812 34.597656 -135.304688 46.703125 -142.421875 C 58.816406 -149.546875 71.925781 -153.109375 86.03125 -153.109375 C 100.007812 -153.109375 113.019531 -149.644531 125.0625 -142.71875 C 137.101562 -135.800781 146.679688 -126.285156 153.796875 -114.171875 C 160.921875 -102.066406 164.484375 -89.03125 164.484375 -75.0625 C 164.484375 -61.21875 160.988281 -48.304688 154 -36.328125 C 147.019531 -24.347656 137.503906 -14.863281 125.453125 -7.875 C 113.410156 -0.894531 100.269531 2.59375 86.03125 2.59375 C 72.0625 2.59375 59.019531 -0.863281 46.90625 -7.78125 C 34.800781 -14.707031 25.21875 -24.191406 18.15625 -36.234375 C 11.101562 -48.273438 7.578125 -61.21875 7.578125 -75.0625 Z M 85.84375 -137.546875 C 74.65625 -137.546875 64.335938 -134.679688 54.890625 -128.953125 C 45.441406 -123.234375 37.988281 -115.613281 32.53125 -106.09375 C 27.082031 -96.582031 24.359375 -86.304688 24.359375 -75.265625 C 24.359375 -64.210938 27.148438 -53.894531 32.734375 -44.3125 C 38.328125 -34.726562 45.878906 -27.109375 55.390625 -21.453125 C 64.910156 -15.796875 75.125 -12.96875 86.03125 -12.96875 C 97.082031 -12.96875 107.429688 -15.828125 117.078125 -21.546875 C 126.722656 -27.273438 134.238281 -34.929688 139.625 -44.515625 C 145.019531 -54.097656 147.71875 -64.347656 147.71875 -75.265625 C 147.71875 -86.441406 144.957031 -96.851562 139.4375 -106.5 C 133.914062 -116.144531 126.394531 -123.726562 116.875 -129.25 C 107.363281 -134.78125 97.019531 -137.546875 85.84375 -137.546875 Z M 85.84375 -137.546875 "/></g></g></g><g fill="#000000" fill-opacity="1"><g transform="translate(1089.181686, 3077.000659)"><g><path d="M 93.21875 -150.515625 L 93.21875 -134.953125 L 31.9375 -134.953125 L 31.9375 -90.234375 L 91.421875 -90.234375 L 91.421875 -74.65625 L 31.9375 -74.65625 L 31.9375 -15.578125 L 93.21875 -15.578125 L 93.21875 0 L 15.171875 0 L 15.171875 -150.515625 Z M 93.21875 -150.515625 "/></g></g></g><g fill="#000000" fill-opacity="1"><g transform="translate(1195.782799, 3077.000659)"><g><path d="M 34.734375 -159.09375 L 89.4375 -32.734375 L 144.328125 -159.09375 L 174.875 0 L 157.703125 0 L 138.34375 -101.8125 L 137.9375 -101.8125 L 89.4375 6.1875 L 41.125 -101.8125 L 40.71875 -101.8125 L 21.359375 0 L 4.1875 0 Z M 8.390625 -150.515625 Z M 8.390625 -150.515625 "/></g></g></g><g fill="#000000" fill-opacity="1"><g transform="translate(1436.134366, 3077.000659)"><g><path d="M 38.125 -150.515625 C 74.0625 -150.515625 92.03125 -136.675781 92.03125 -109 C 92.03125 -97.414062 88.664062 -87.863281 81.9375 -80.34375 C 75.21875 -72.820312 66.003906 -68.53125 54.296875 -67.46875 L 102.203125 0 L 81.640625 0 L 36.125 -66.078125 L 31.9375 -66.078125 L 31.9375 0 L 15.171875 0 L 15.171875 -150.515625 Z M 31.9375 -80.84375 L 39.328125 -80.84375 C 51.171875 -80.84375 60.117188 -83.035156 66.171875 -87.421875 C 72.234375 -91.816406 75.265625 -98.609375 75.265625 -107.796875 C 75.265625 -117.773438 72.300781 -124.796875 66.375 -128.859375 C 60.445312 -132.921875 51.894531 -134.953125 40.71875 -134.953125 L 31.9375 -134.953125 Z M 31.9375 -80.84375 "/></g></g></g><g fill="#000000" fill-opacity="1"><g transform="translate(1544.332536, 3077.000659)"><g><path d="M 96.8125 -43.515625 L 23.15625 -43.515625 C 23.425781 -34.203125 26.488281 -26.648438 32.34375 -20.859375 C 38.195312 -15.066406 45.382812 -12.171875 53.90625 -12.171875 C 59.882812 -12.171875 65.171875 -13.703125 69.765625 -16.765625 C 74.359375 -19.828125 78.582031 -24.753906 82.4375 -31.546875 L 96.015625 -23.75 C 91.492188 -15.363281 85.539062 -8.875 78.15625 -4.28125 C 70.769531 0.300781 62.285156 2.59375 52.703125 2.59375 C 43.515625 2.59375 35.394531 0.398438 28.34375 -3.984375 C 21.289062 -8.378906 15.929688 -14.269531 12.265625 -21.65625 C 8.609375 -29.039062 6.78125 -37.0625 6.78125 -45.71875 C 6.78125 -55.300781 8.609375 -63.953125 12.265625 -71.671875 C 15.929688 -79.390625 21.222656 -85.441406 28.140625 -89.828125 C 35.066406 -94.222656 43.117188 -96.421875 52.296875 -96.421875 C 61.210938 -96.421875 69.097656 -94.253906 75.953125 -89.921875 C 82.804688 -85.597656 88.03125 -79.644531 91.625 -72.0625 C 95.21875 -64.476562 97.015625 -55.960938 97.015625 -46.515625 C 97.015625 -45.578125 96.945312 -44.578125 96.8125 -43.515625 Z M 80.046875 -57.09375 C 78.710938 -64.414062 75.453125 -70.335938 70.265625 -74.859375 C 65.078125 -79.378906 59.15625 -81.640625 52.5 -81.640625 C 45.976562 -81.640625 39.851562 -79.273438 34.125 -74.546875 C 28.40625 -69.828125 25.015625 -64.007812 23.953125 -57.09375 Z M 80.046875 -57.09375 "/></g></g></g><g fill="#000000" fill-opacity="1"><g transform="translate(1647.939208, 3077.000659)"><g><path d="M 83.84375 -80.453125 L 83.84375 -93.828125 L 99.8125 -93.828125 L 99.8125 3.390625 C 99.8125 19.097656 95.421875 31.175781 86.640625 39.625 C 77.859375 48.070312 66.945312 52.296875 53.90625 52.296875 C 40.59375 52.296875 29.644531 48.335938 21.0625 40.421875 C 12.476562 32.503906 8.050781 22.09375 7.78125 9.1875 L 23.75 9.1875 C 23.75 17.4375 26.507812 24.222656 32.03125 29.546875 C 37.5625 34.867188 44.851562 37.53125 53.90625 37.53125 C 63.75 37.53125 71.195312 34.46875 76.25 28.34375 C 81.3125 22.21875 83.84375 12.101562 83.84375 -2 L 83.84375 -12.96875 L 83.4375 -12.96875 C 79.71875 -8.1875 74.960938 -4.394531 69.171875 -1.59375 C 63.378906 1.195312 57.289062 2.59375 50.90625 2.59375 C 42.25 2.59375 34.523438 0.398438 27.734375 -3.984375 C 20.953125 -8.378906 15.664062 -14.335938 11.875 -21.859375 C 8.082031 -29.378906 6.1875 -37.597656 6.1875 -46.515625 C 6.1875 -55.691406 8.148438 -64.109375 12.078125 -71.765625 C 16.003906 -79.421875 21.425781 -85.441406 28.34375 -89.828125 C 35.269531 -94.222656 42.988281 -96.421875 51.5 -96.421875 C 58.019531 -96.421875 64.007812 -95.019531 69.46875 -92.21875 C 74.925781 -89.425781 79.582031 -85.503906 83.4375 -80.453125 Z M 53.09375 -81.640625 C 47.507812 -81.640625 42.390625 -80.175781 37.734375 -77.25 C 33.078125 -74.320312 29.382812 -70.226562 26.65625 -64.96875 C 23.925781 -59.71875 22.5625 -54.03125 22.5625 -47.90625 C 22.5625 -37.65625 25.421875 -29.132812 31.140625 -22.34375 C 36.859375 -15.5625 44.242188 -12.171875 53.296875 -12.171875 C 62.742188 -12.171875 70.328125 -15.5 76.046875 -22.15625 C 81.773438 -28.8125 84.640625 -37.328125 84.640625 -47.703125 C 84.640625 -57.691406 81.675781 -65.84375 75.75 -72.15625 C 69.832031 -78.476562 62.28125 -81.640625 53.09375 -81.640625 Z M 53.09375 -81.640625 "/></g></g></g><g fill="#000000" fill-opacity="1"><g transform="translate(1763.723165, 3077.000659)"><g><path d="M 34.140625 -93.828125 L 34.140625 0 L 18.171875 0 L 18.171875 -93.828125 Z M 14.765625 -129.5625 C 14.765625 -132.488281 15.929688 -135.046875 18.265625 -137.234375 C 20.597656 -139.429688 23.226562 -140.53125 26.15625 -140.53125 C 29.21875 -140.53125 31.878906 -139.429688 34.140625 -137.234375 C 36.398438 -135.046875 37.53125 -132.488281 37.53125 -129.5625 C 37.53125 -126.09375 36.398438 -123.257812 34.140625 -121.0625 C 31.878906 -118.875 29.21875 -117.78125 26.15625 -117.78125 C 23.09375 -117.78125 20.425781 -118.84375 18.15625 -120.96875 C 15.894531 -123.101562 14.765625 -125.96875 14.765625 -129.5625 Z M 14.765625 -129.5625 "/></g></g></g><g fill="#000000" fill-opacity="1"><g transform="translate(1816.0256, 3077.000659)"><g><path d="M 53.09375 -72.0625 C 51.632812 -75.125 49.769531 -77.484375 47.5 -79.140625 C 45.238281 -80.804688 42.847656 -81.640625 40.328125 -81.640625 C 37.398438 -81.640625 34.738281 -80.609375 32.34375 -78.546875 C 29.945312 -76.484375 28.75 -74.054688 28.75 -71.265625 C 28.75 -65.804688 33.972656 -61.179688 44.421875 -57.390625 C 54.867188 -53.597656 62.117188 -49.4375 66.171875 -44.90625 C 70.234375 -40.382812 72.265625 -34.734375 72.265625 -27.953125 C 72.265625 -22.753906 71.066406 -17.894531 68.671875 -13.375 C 66.273438 -8.851562 62.582031 -5.0625 57.59375 -2 C 52.601562 1.0625 46.914062 2.59375 40.53125 2.59375 C 32.8125 2.59375 26.019531 0.53125 20.15625 -3.59375 C 14.300781 -7.71875 10.046875 -13.570312 7.390625 -21.15625 L 21.5625 -27.15625 C 23.957031 -21.5625 26.648438 -17.664062 29.640625 -15.46875 C 32.640625 -13.269531 36.332031 -12.171875 40.71875 -12.171875 C 45.25 -12.171875 48.910156 -13.535156 51.703125 -16.265625 C 54.492188 -18.992188 55.890625 -22.421875 55.890625 -26.546875 C 55.890625 -30.003906 54.625 -33.03125 52.09375 -35.625 C 49.570312 -38.226562 44.945312 -40.859375 38.21875 -43.515625 C 31.5 -46.179688 26.28125 -48.84375 22.5625 -51.5 C 16.707031 -55.757812 13.710938 -61.882812 13.578125 -69.875 C 13.578125 -77.320312 16.238281 -83.609375 21.5625 -88.734375 C 26.882812 -93.859375 33.535156 -96.421875 41.515625 -96.421875 C 46.578125 -96.421875 51.4375 -94.820312 56.09375 -91.625 C 60.75 -88.4375 64.207031 -84.242188 66.46875 -79.046875 Z M 53.09375 -72.0625 "/></g></g></g><g fill="#000000" fill-opacity="1"><g transform="translate(1895.676893, 3077.000659)"><g><path d="M 31.9375 -127.5625 L 31.9375 -93.828125 L 48.703125 -93.828125 L 48.703125 -79.046875 L 31.9375 -79.046875 L 31.9375 0 L 15.96875 0 L 15.96875 -79.046875 L 6.1875 -79.046875 L 6.1875 -93.828125 L 15.96875 -93.828125 L 15.96875 -127.5625 Z M 31.9375 -127.5625 "/></g></g></g><g fill="#000000" fill-opacity="1"><g transform="translate(1943.5875, 3077.000659)"><g><path d="M 58.296875 -77.453125 C 56.691406 -78.648438 55.191406 -79.644531 53.796875 -80.4375 C 52.398438 -81.238281 50.703125 -81.640625 48.703125 -81.640625 C 42.710938 -81.640625 38.15625 -78.976562 35.03125 -73.65625 C 31.90625 -68.332031 30.34375 -59.75 30.34375 -47.90625 L 30.34375 0 L 14.375 0 L 14.375 -93.828125 L 30.34375 -93.828125 L 30.34375 -83.640625 L 30.75 -83.640625 C 34.601562 -88.828125 38.023438 -92.253906 41.015625 -93.921875 C 44.015625 -95.585938 47.507812 -96.421875 51.5 -96.421875 C 53.894531 -96.421875 56.320312 -96.019531 58.78125 -95.21875 C 61.25 -94.414062 63.613281 -93.351562 65.875 -92.03125 Z M 58.296875 -77.453125 "/></g></g></g><g fill="#000000" fill-opacity="1"><g transform="translate(2010.462651, 3077.000659)"><g><path d="M 84.84375 -80.453125 L 84.84375 -93.828125 L 100.8125 -93.828125 L 100.8125 0 L 84.84375 0 L 84.84375 -12.96875 L 84.4375 -12.96875 C 76.1875 -2.59375 65.410156 2.59375 52.109375 2.59375 C 39.054688 2.59375 28.304688 -2.195312 19.859375 -11.78125 C 11.410156 -21.363281 7.1875 -33.007812 7.1875 -46.71875 C 7.1875 -61.082031 11.441406 -72.957031 19.953125 -82.34375 C 28.472656 -91.726562 39.253906 -96.421875 52.296875 -96.421875 C 58.816406 -96.421875 64.835938 -95.019531 70.359375 -92.21875 C 75.890625 -89.425781 80.582031 -85.503906 84.4375 -80.453125 Z M 54.09375 -81.640625 C 45.582031 -81.640625 38.363281 -78.378906 32.4375 -71.859375 C 26.519531 -65.335938 23.5625 -57.351562 23.5625 -47.90625 C 23.5625 -37.789062 26.453125 -29.304688 32.234375 -22.453125 C 38.023438 -15.597656 45.378906 -12.171875 54.296875 -12.171875 C 63.742188 -12.171875 71.328125 -15.429688 77.046875 -21.953125 C 82.773438 -28.472656 85.640625 -37.054688 85.640625 -47.703125 C 85.640625 -57.421875 82.710938 -65.503906 76.859375 -71.953125 C 71.003906 -78.410156 63.414062 -81.640625 54.09375 -81.640625 Z M 54.09375 -81.640625 "/></g></g></g><g fill="#000000" fill-opacity="1"><g transform="translate(2125.647749, 3077.000659)"><g><path d="M 31.9375 -127.5625 L 31.9375 -93.828125 L 48.703125 -93.828125 L 48.703125 -79.046875 L 31.9375 -79.046875 L 31.9375 0 L 15.96875 0 L 15.96875 -79.046875 L 6.1875 -79.046875 L 6.1875 -93.828125 L 15.96875 -93.828125 L 15.96875 -127.5625 Z M 31.9375 -127.5625 "/></g></g></g><g fill="#000000" fill-opacity="1"><g transform="translate(2173.558357, 3077.000659)"><g><path d="M 34.140625 -93.828125 L 34.140625 0 L 18.171875 0 L 18.171875 -93.828125 Z M 14.765625 -129.5625 C 14.765625 -132.488281 15.929688 -135.046875 18.265625 -137.234375 C 20.597656 -139.429688 23.226562 -140.53125 26.15625 -140.53125 C 29.21875 -140.53125 31.878906 -139.429688 34.140625 -137.234375 C 36.398438 -135.046875 37.53125 -132.488281 37.53125 -129.5625 C 37.53125 -126.09375 36.398438 -123.257812 34.140625 -121.0625 C 31.878906 -118.875 29.21875 -117.78125 26.15625 -117.78125 C 23.09375 -117.78125 20.425781 -118.84375 18.15625 -120.96875 C 15.894531 -123.101562 14.765625 -125.96875 14.765625 -129.5625 Z M 14.765625 -129.5625 "/></g></g></g><g fill="#000000" fill-opacity="1"><g transform="translate(2225.860792, 3077.000659)"><g><path d="M 6.78125 -46.71875 C 6.78125 -55.632812 8.976562 -63.953125 13.375 -71.671875 C 17.769531 -79.390625 23.757812 -85.441406 31.34375 -89.828125 C 38.925781 -94.222656 47.175781 -96.421875 56.09375 -96.421875 C 65.007812 -96.421875 73.226562 -94.222656 80.75 -89.828125 C 88.269531 -85.441406 94.257812 -79.421875 98.71875 -71.765625 C 103.175781 -64.109375 105.40625 -55.757812 105.40625 -46.71875 C 105.40625 -37.800781 103.207031 -29.515625 98.8125 -21.859375 C 94.425781 -14.203125 88.4375 -8.210938 80.84375 -3.890625 C 73.257812 0.429688 65.007812 2.59375 56.09375 2.59375 C 47.175781 2.59375 38.890625 0.398438 31.234375 -3.984375 C 23.585938 -8.378906 17.597656 -14.398438 13.265625 -22.046875 C 8.941406 -29.703125 6.78125 -37.925781 6.78125 -46.71875 Z M 55.890625 -81.640625 C 46.441406 -81.640625 38.554688 -78.28125 32.234375 -71.5625 C 25.910156 -64.84375 22.75 -56.625 22.75 -46.90625 C 22.75 -39.71875 24.476562 -33.363281 27.9375 -27.84375 C 31.40625 -22.320312 35.632812 -18.328125 40.625 -15.859375 C 45.613281 -13.398438 50.769531 -12.171875 56.09375 -12.171875 C 62.21875 -12.171875 67.804688 -13.601562 72.859375 -16.46875 C 77.921875 -19.332031 81.945312 -23.457031 84.9375 -28.84375 C 87.9375 -34.238281 89.4375 -40.257812 89.4375 -46.90625 C 89.4375 -53.03125 88.070312 -58.753906 85.34375 -64.078125 C 82.613281 -69.398438 78.648438 -73.65625 73.453125 -76.84375 C 68.265625 -80.039062 62.410156 -81.640625 55.890625 -81.640625 Z M 55.890625 -81.640625 "/></g></g></g><g fill="#000000" fill-opacity="1"><g transform="translate(2338.051449, 3077.000659)"><g><path d="M 90.234375 0 L 74.265625 0 L 74.265625 -54.703125 C 74.265625 -64.148438 72.832031 -71 69.96875 -75.25 C 67.101562 -79.507812 61.945312 -81.640625 54.5 -81.640625 C 45.976562 -81.640625 39.953125 -78.710938 36.421875 -72.859375 C 32.898438 -67.003906 31.140625 -58.085938 31.140625 -46.109375 L 31.140625 0 L 15.171875 0 L 15.171875 -93.828125 L 31.140625 -93.828125 L 31.140625 -82.4375 L 31.546875 -82.4375 C 34.867188 -86.96875 38.691406 -90.429688 43.015625 -92.828125 C 47.335938 -95.222656 52.429688 -96.421875 58.296875 -96.421875 C 68.804688 -96.421875 76.753906 -93.191406 82.140625 -86.734375 C 87.535156 -80.285156 90.234375 -70.269531 90.234375 -56.6875 Z M 90.234375 0 "/></g></g></g><path fill="#ffffff" d="M 1323.824219 1360.789062 C 1444.632812 1360.789062 1543.472656 1261.96875 1543.472656 1141.191406 C 1543.472656 1020.410156 1444.632812 921.59375 1323.824219 921.59375 C 1203.015625 921.59375 1104.171875 1020.410156 1104.171875 1141.191406 C 1104.171875 1261.96875 1203.015625 1360.789062 1323.824219 1360.789062 Z M 1323.824219 984.335938 C 1410.113281 984.335938 1480.714844 1054.921875 1480.714844 1141.191406 C 1480.714844 1227.460938 1410.113281 1298.046875 1323.824219 1298.046875 C 1237.53125 1298.046875 1166.929688 1227.460938 1166.929688 1141.191406 C 1166.929688 1054.921875 1237.53125 984.335938 1323.824219 984.335938 Z M 1323.824219 984.335938 " fill-opacity="1" fill-rule="nonzero"/><path fill="#ffffff" d="M 1272.050781 1194.519531 C 1278.324219 1200.796875 1286.167969 1203.933594 1295.582031 1203.933594 C 1301.859375 1203.933594 1308.132812 1202.363281 1312.839844 1199.226562 L 1406.976562 1136.484375 C 1421.097656 1127.074219 1425.804688 1106.683594 1414.820312 1092.566406 C 1405.40625 1078.449219 1385.011719 1073.742188 1370.890625 1084.722656 L 1300.289062 1133.347656 L 1283.03125 1114.523438 C 1272.050781 1101.976562 1251.652344 1100.40625 1239.101562 1112.957031 C 1226.550781 1123.9375 1224.980469 1144.328125 1237.53125 1156.875 Z M 1272.050781 1194.519531 " fill-opacity="1" fill-rule="nonzero"/><g clip-path="url(#2721c6ccdd)"><path fill="#ffffff" d="M 1747.433594 2145.066406 C 1816.46875 2145.066406 1872.949219 2088.597656 1872.949219 2019.582031 L 1872.949219 262.800781 C 1872.949219 193.785156 1816.46875 137.316406 1747.433594 137.316406 L 900.214844 137.316406 C 831.179688 137.316406 774.699219 193.785156 774.699219 262.800781 L 774.699219 2019.582031 C 774.699219 2088.597656 831.179688 2145.066406 900.214844 2145.066406 Z M 1386.582031 2019.582031 L 1261.066406 2019.582031 C 1243.808594 2019.582031 1229.6875 2005.464844 1229.6875 1988.210938 C 1229.6875 1970.957031 1243.808594 1956.839844 1261.066406 1956.839844 L 1386.582031 1956.839844 C 1403.839844 1956.839844 1417.960938 1970.957031 1417.960938 1988.210938 C 1417.960938 2005.464844 1403.839844 2019.582031 1386.582031 2019.582031 Z M 1554.457031 200.058594 L 1551.316406 228.292969 C 1549.75 247.113281 1530.921875 262.800781 1512.09375 262.800781 L 1135.550781 262.800781 C 1116.726562 262.800781 1097.898438 247.113281 1096.328125 228.292969 L 1093.191406 200.058594 Z M 931.589844 1105.113281 C 931.589844 1075.3125 956.695312 1050.214844 986.503906 1050.214844 L 1022.589844 1050.214844 C 1021.019531 1050.214844 1022.589844 1050.214844 1022.589844 1048.644531 C 1028.863281 1029.824219 1036.710938 1009.433594 1046.125 992.179688 C 1046.125 992.179688 1046.125 990.609375 1046.125 990.609375 L 1022.589844 967.082031 C 1000.625 945.121094 1000.625 910.613281 1022.589844 888.652344 L 1072.796875 838.460938 C 1083.777344 827.480469 1096.328125 822.773438 1112.019531 822.773438 C 1126.140625 822.773438 1140.257812 829.046875 1151.242188 838.460938 L 1176.34375 863.554688 C 1195.171875 852.578125 1214 844.734375 1234.394531 838.460938 C 1234.394531 838.460938 1235.964844 836.890625 1235.964844 836.890625 L 1235.964844 802.382812 C 1235.964844 772.582031 1261.066406 747.484375 1290.875 747.484375 L 1361.476562 747.484375 C 1391.289062 747.484375 1416.390625 772.582031 1416.390625 802.382812 L 1416.390625 838.460938 C 1416.390625 838.460938 1416.390625 838.460938 1417.960938 838.460938 C 1436.785156 844.734375 1457.183594 852.578125 1474.441406 861.988281 L 1476.007812 861.988281 L 1499.542969 838.460938 C 1510.527344 827.480469 1523.078125 822.773438 1538.765625 822.773438 C 1552.886719 822.773438 1567.007812 829.046875 1577.988281 838.460938 L 1628.195312 888.652344 C 1639.175781 899.632812 1643.882812 912.179688 1643.882812 927.867188 C 1643.882812 941.984375 1637.609375 956.101562 1628.195312 967.082031 L 1603.09375 992.179688 C 1603.09375 992.179688 1603.09375 992.179688 1603.09375 993.746094 C 1612.507812 1011 1620.351562 1031.390625 1626.625 1050.214844 C 1626.625 1050.214844 1628.195312 1051.78125 1628.195312 1051.78125 L 1662.710938 1051.78125 C 1692.519531 1051.78125 1717.625 1076.878906 1717.625 1106.683594 L 1717.625 1177.265625 C 1717.625 1207.070312 1692.519531 1232.167969 1662.710938 1232.167969 L 1626.625 1232.167969 C 1628.195312 1232.167969 1626.625 1232.167969 1626.625 1233.734375 C 1620.351562 1252.558594 1612.507812 1271.378906 1603.09375 1290.203125 C 1603.09375 1290.203125 1603.09375 1291.773438 1603.09375 1291.773438 L 1626.625 1315.300781 C 1637.609375 1326.28125 1642.316406 1338.828125 1642.316406 1354.515625 C 1642.316406 1368.632812 1636.039062 1382.746094 1626.625 1393.726562 L 1576.421875 1443.921875 C 1565.4375 1454.902344 1552.886719 1459.605469 1537.199219 1459.605469 C 1523.078125 1459.605469 1508.957031 1453.332031 1497.972656 1443.921875 L 1472.871094 1418.824219 C 1454.042969 1429.804688 1435.21875 1437.648438 1414.820312 1443.921875 C 1414.820312 1443.921875 1413.253906 1445.488281 1413.253906 1445.488281 L 1413.253906 1480 C 1413.253906 1509.800781 1388.148438 1534.898438 1358.339844 1534.898438 L 1287.738281 1534.898438 C 1257.929688 1534.898438 1232.824219 1509.800781 1232.824219 1480 L 1232.824219 1443.921875 C 1232.824219 1443.921875 1232.824219 1443.921875 1231.257812 1443.921875 C 1212.429688 1437.648438 1192.035156 1429.804688 1174.773438 1420.394531 L 1173.207031 1420.394531 L 1149.671875 1443.921875 C 1138.691406 1454.902344 1126.136719 1459.605469 1110.449219 1459.605469 C 1096.328125 1459.605469 1082.207031 1453.332031 1071.226562 1443.921875 L 1021.019531 1393.726562 C 999.054688 1371.769531 999.054688 1337.257812 1021.019531 1315.300781 L 1046.125 1290.203125 C 1046.125 1290.203125 1046.125 1290.203125 1046.125 1288.632812 C 1036.710938 1271.378906 1028.863281 1250.988281 1022.589844 1232.167969 C 1022.589844 1232.167969 1021.019531 1230.597656 1021.019531 1230.597656 L 986.503906 1230.597656 C 956.695312 1230.597656 931.589844 1205.5 931.589844 1175.699219 Z M 931.589844 1105.113281 " fill-opacity="1" fill-rule="nonzero"/></g></svg>