<svg xmlns="http://www.w3.org/2000/svg" xmlns:xlink="http://www.w3.org/1999/xlink" width="3400" zoomAndPan="magnify" viewBox="0 0 2550 3224.999865" height="4300" preserveAspectRatio="xMidYMid meet" version="1.0"><defs><g/><clipPath id="9719e76e19"><path d="M 0 2799.246094 L 2550 2799.246094 L 2550 3225 L 0 3225 Z M 0 2799.246094 " clip-rule="nonzero"/></clipPath><clipPath id="31670684b0"><path d="M 353 165 L 2195 165 L 2195 2067.179688 L 353 2067.179688 Z M 353 165 " clip-rule="nonzero"/></clipPath></defs><path stroke-linecap="butt" transform="matrix(0.75, 0, 0, 0.75, 0.000116248, 0)" fill="none" stroke-linejoin="miter" d="M -0.000154997 0 L 3399.999911 0 L 3399.999911 4300.000084 L -0.000154997 4300.000084 L -0.000154997 0 " stroke="#ffffff" stroke-width="50" stroke-opacity="1" stroke-miterlimit="4"/><g clip-path="url(#9719e76e19)"><path fill="#ffffff" d="M -90 2799.246094 L 2602.265625 2799.246094 L 2602.265625 3224.988281 L -90 3224.988281 Z M -90 2799.246094 " fill-opacity="1" fill-rule="nonzero"/></g><g fill="#000000" fill-opacity="1"><g transform="translate(383.288253, 3077.000899)"><g><path d="M 70.671875 -157.703125 L 138.34375 0 L 119.78125 0 L 102.015625 -42.71875 L 37.734375 -42.71875 L 19.5625 0 L 1.203125 0 Z M 44.515625 -58.296875 L 95.421875 -58.296875 L 70.265625 -118.578125 Z M 27.15625 -150.515625 Z M 27.15625 -150.515625 "/></g></g></g><g fill="#000000" fill-opacity="1"><g transform="translate(522.827881, 3077.000899)"><g><path d="M 30.75 -13.171875 L 30.34375 -13.171875 L 30.34375 52.703125 L 14.375 52.703125 L 14.375 -93.828125 L 30.34375 -93.828125 L 30.34375 -80.453125 L 30.75 -80.453125 C 34.601562 -85.640625 39.320312 -89.597656 44.90625 -92.328125 C 50.5 -95.054688 56.554688 -96.421875 63.078125 -96.421875 C 71.460938 -96.421875 79.113281 -94.222656 86.03125 -89.828125 C 92.957031 -85.441406 98.347656 -79.421875 102.203125 -71.765625 C 106.066406 -64.109375 108 -55.757812 108 -46.71875 C 108 -37.664062 106.132812 -29.3125 102.40625 -21.65625 C 98.675781 -14.007812 93.316406 -8.054688 86.328125 -3.796875 C 79.347656 0.460938 71.53125 2.59375 62.875 2.59375 C 56.488281 2.59375 50.5 1.265625 44.90625 -1.390625 C 39.320312 -4.054688 34.601562 -7.984375 30.75 -13.171875 Z M 59.890625 -81.640625 C 54.703125 -81.640625 49.773438 -80.242188 45.109375 -77.453125 C 40.453125 -74.660156 36.691406 -70.601562 33.828125 -65.28125 C 30.972656 -59.957031 29.546875 -54.164062 29.546875 -47.90625 C 29.546875 -37.925781 32.375 -29.472656 38.03125 -22.546875 C 43.6875 -15.628906 51.101562 -12.171875 60.28125 -12.171875 C 66.539062 -12.171875 72.066406 -13.664062 76.859375 -16.65625 C 81.648438 -19.65625 85.304688 -23.882812 87.828125 -29.34375 C 90.359375 -34.800781 91.625 -40.921875 91.625 -47.703125 C 91.625 -57.691406 88.695312 -65.84375 82.84375 -72.15625 C 76.988281 -78.476562 69.335938 -81.640625 59.890625 -81.640625 Z M 59.890625 -81.640625 "/></g></g></g><g fill="#000000" fill-opacity="1"><g transform="translate(638.012961, 3077.000899)"><g><path d="M 30.75 -13.171875 L 30.34375 -13.171875 L 30.34375 52.703125 L 14.375 52.703125 L 14.375 -93.828125 L 30.34375 -93.828125 L 30.34375 -80.453125 L 30.75 -80.453125 C 34.601562 -85.640625 39.320312 -89.597656 44.90625 -92.328125 C 50.5 -95.054688 56.554688 -96.421875 63.078125 -96.421875 C 71.460938 -96.421875 79.113281 -94.222656 86.03125 -89.828125 C 92.957031 -85.441406 98.347656 -79.421875 102.203125 -71.765625 C 106.066406 -64.109375 108 -55.757812 108 -46.71875 C 108 -37.664062 106.132812 -29.3125 102.40625 -21.65625 C 98.675781 -14.007812 93.316406 -8.054688 86.328125 -3.796875 C 79.347656 0.460938 71.53125 2.59375 62.875 2.59375 C 56.488281 2.59375 50.5 1.265625 44.90625 -1.390625 C 39.320312 -4.054688 34.601562 -7.984375 30.75 -13.171875 Z M 59.890625 -81.640625 C 54.703125 -81.640625 49.773438 -80.242188 45.109375 -77.453125 C 40.453125 -74.660156 36.691406 -70.601562 33.828125 -65.28125 C 30.972656 -59.957031 29.546875 -54.164062 29.546875 -47.90625 C 29.546875 -37.925781 32.375 -29.472656 38.03125 -22.546875 C 43.6875 -15.628906 51.101562 -12.171875 60.28125 -12.171875 C 66.539062 -12.171875 72.066406 -13.664062 76.859375 -16.65625 C 81.648438 -19.65625 85.304688 -23.882812 87.828125 -29.34375 C 90.359375 -34.800781 91.625 -40.921875 91.625 -47.703125 C 91.625 -57.691406 88.695312 -65.84375 82.84375 -72.15625 C 76.988281 -78.476562 69.335938 -81.640625 59.890625 -81.640625 Z M 59.890625 -81.640625 "/></g></g></g><g fill="#000000" fill-opacity="1"><g transform="translate(753.19804, 3077.000899)"><g><path d="M 30.75 -164.6875 L 30.75 0 L 14.765625 0 L 14.765625 -164.6875 Z M 30.75 -164.6875 "/></g></g></g><g fill="#000000" fill-opacity="1"><g transform="translate(798.51347, 3077.000899)"><g><path d="M 34.140625 -93.828125 L 34.140625 0 L 18.171875 0 L 18.171875 -93.828125 Z M 14.765625 -129.5625 C 14.765625 -132.488281 15.929688 -135.046875 18.265625 -137.234375 C 20.597656 -139.429688 23.226562 -140.53125 26.15625 -140.53125 C 29.21875 -140.53125 31.878906 -139.429688 34.140625 -137.234375 C 36.398438 -135.046875 37.53125 -132.488281 37.53125 -129.5625 C 37.53125 -126.09375 36.398438 -123.257812 34.140625 -121.0625 C 31.878906 -118.875 29.21875 -117.78125 26.15625 -117.78125 C 23.09375 -117.78125 20.425781 -118.84375 18.15625 -120.96875 C 15.894531 -123.101562 14.765625 -125.96875 14.765625 -129.5625 Z M 14.765625 -129.5625 "/></g></g></g><g fill="#000000" fill-opacity="1"><g transform="translate(850.815905, 3077.000899)"><g><path d="M 84.84375 -65.875 L 84.4375 -65.875 C 80.976562 -70.53125 76.753906 -74.320312 71.765625 -77.25 C 66.773438 -80.175781 61.285156 -81.640625 55.296875 -81.640625 C 45.984375 -81.640625 38.128906 -78.242188 31.734375 -71.453125 C 25.347656 -64.671875 22.15625 -56.488281 22.15625 -46.90625 C 22.15625 -37.320312 25.21875 -29.132812 31.34375 -22.34375 C 37.46875 -15.5625 45.1875 -12.171875 54.5 -12.171875 C 61.28125 -12.171875 67.097656 -13.601562 71.953125 -16.46875 C 76.816406 -19.332031 81.179688 -23.289062 85.046875 -28.34375 L 85.4375 -28.34375 L 85.4375 -6.984375 C 81.050781 -3.921875 76.394531 -1.5625 71.46875 0.09375 C 66.539062 1.757812 61.285156 2.59375 55.703125 2.59375 C 46.785156 2.59375 38.429688 0.460938 30.640625 -3.796875 C 22.859375 -8.054688 16.769531 -14.007812 12.375 -21.65625 C 7.988281 -29.3125 5.796875 -37.726562 5.796875 -46.90625 C 5.796875 -55.5625 7.957031 -63.710938 12.28125 -71.359375 C 16.601562 -79.015625 22.691406 -85.101562 30.546875 -89.625 C 38.398438 -94.15625 46.847656 -96.421875 55.890625 -96.421875 C 60.679688 -96.421875 65.375 -95.753906 69.96875 -94.421875 C 74.5625 -93.085938 79.519531 -90.625 84.84375 -87.03125 Z M 84.84375 -65.875 "/></g></g></g><g fill="#000000" fill-opacity="1"><g transform="translate(945.838593, 3077.000899)"><g><path d="M 84.84375 -80.453125 L 84.84375 -93.828125 L 100.8125 -93.828125 L 100.8125 0 L 84.84375 0 L 84.84375 -12.96875 L 84.4375 -12.96875 C 76.1875 -2.59375 65.410156 2.59375 52.109375 2.59375 C 39.054688 2.59375 28.304688 -2.195312 19.859375 -11.78125 C 11.410156 -21.363281 7.1875 -33.007812 7.1875 -46.71875 C 7.1875 -61.082031 11.441406 -72.957031 19.953125 -82.34375 C 28.472656 -91.726562 39.253906 -96.421875 52.296875 -96.421875 C 58.816406 -96.421875 64.835938 -95.019531 70.359375 -92.21875 C 75.890625 -89.425781 80.582031 -85.503906 84.4375 -80.453125 Z M 54.09375 -81.640625 C 45.582031 -81.640625 38.363281 -78.378906 32.4375 -71.859375 C 26.519531 -65.335938 23.5625 -57.351562 23.5625 -47.90625 C 23.5625 -37.789062 26.453125 -29.304688 32.234375 -22.453125 C 38.023438 -15.597656 45.378906 -12.171875 54.296875 -12.171875 C 63.742188 -12.171875 71.328125 -15.429688 77.046875 -21.953125 C 82.773438 -28.472656 85.640625 -37.054688 85.640625 -47.703125 C 85.640625 -57.421875 82.710938 -65.503906 76.859375 -71.953125 C 71.003906 -78.410156 63.414062 -81.640625 54.09375 -81.640625 Z M 54.09375 -81.640625 "/></g></g></g><g fill="#000000" fill-opacity="1"><g transform="translate(1061.023691, 3077.000899)"><g><path d="M 31.9375 -127.5625 L 31.9375 -93.828125 L 48.703125 -93.828125 L 48.703125 -79.046875 L 31.9375 -79.046875 L 31.9375 0 L 15.96875 0 L 15.96875 -79.046875 L 6.1875 -79.046875 L 6.1875 -93.828125 L 15.96875 -93.828125 L 15.96875 -127.5625 Z M 31.9375 -127.5625 "/></g></g></g><g fill="#000000" fill-opacity="1"><g transform="translate(1108.934299, 3077.000899)"><g><path d="M 34.140625 -93.828125 L 34.140625 0 L 18.171875 0 L 18.171875 -93.828125 Z M 14.765625 -129.5625 C 14.765625 -132.488281 15.929688 -135.046875 18.265625 -137.234375 C 20.597656 -139.429688 23.226562 -140.53125 26.15625 -140.53125 C 29.21875 -140.53125 31.878906 -139.429688 34.140625 -137.234375 C 36.398438 -135.046875 37.53125 -132.488281 37.53125 -129.5625 C 37.53125 -126.09375 36.398438 -123.257812 34.140625 -121.0625 C 31.878906 -118.875 29.21875 -117.78125 26.15625 -117.78125 C 23.09375 -117.78125 20.425781 -118.84375 18.15625 -120.96875 C 15.894531 -123.101562 14.765625 -125.96875 14.765625 -129.5625 Z M 14.765625 -129.5625 "/></g></g></g><g fill="#000000" fill-opacity="1"><g transform="translate(1161.236734, 3077.000899)"><g><path d="M 6.78125 -46.71875 C 6.78125 -55.632812 8.976562 -63.953125 13.375 -71.671875 C 17.769531 -79.390625 23.757812 -85.441406 31.34375 -89.828125 C 38.925781 -94.222656 47.175781 -96.421875 56.09375 -96.421875 C 65.007812 -96.421875 73.226562 -94.222656 80.75 -89.828125 C 88.269531 -85.441406 94.257812 -79.421875 98.71875 -71.765625 C 103.175781 -64.109375 105.40625 -55.757812 105.40625 -46.71875 C 105.40625 -37.800781 103.207031 -29.515625 98.8125 -21.859375 C 94.425781 -14.203125 88.4375 -8.210938 80.84375 -3.890625 C 73.257812 0.429688 65.007812 2.59375 56.09375 2.59375 C 47.175781 2.59375 38.890625 0.398438 31.234375 -3.984375 C 23.585938 -8.378906 17.597656 -14.398438 13.265625 -22.046875 C 8.941406 -29.703125 6.78125 -37.925781 6.78125 -46.71875 Z M 55.890625 -81.640625 C 46.441406 -81.640625 38.554688 -78.28125 32.234375 -71.5625 C 25.910156 -64.84375 22.75 -56.625 22.75 -46.90625 C 22.75 -39.71875 24.476562 -33.363281 27.9375 -27.84375 C 31.40625 -22.320312 35.632812 -18.328125 40.625 -15.859375 C 45.613281 -13.398438 50.769531 -12.171875 56.09375 -12.171875 C 62.21875 -12.171875 67.804688 -13.601562 72.859375 -16.46875 C 77.921875 -19.332031 81.945312 -23.457031 84.9375 -28.84375 C 87.9375 -34.238281 89.4375 -40.257812 89.4375 -46.90625 C 89.4375 -53.03125 88.070312 -58.753906 85.34375 -64.078125 C 82.613281 -69.398438 78.648438 -73.65625 73.453125 -76.84375 C 68.265625 -80.039062 62.410156 -81.640625 55.890625 -81.640625 Z M 55.890625 -81.640625 "/></g></g></g><g fill="#000000" fill-opacity="1"><g transform="translate(1273.427391, 3077.000899)"><g><path d="M 90.234375 0 L 74.265625 0 L 74.265625 -54.703125 C 74.265625 -64.148438 72.832031 -71 69.96875 -75.25 C 67.101562 -79.507812 61.945312 -81.640625 54.5 -81.640625 C 45.976562 -81.640625 39.953125 -78.710938 36.421875 -72.859375 C 32.898438 -67.003906 31.140625 -58.085938 31.140625 -46.109375 L 31.140625 0 L 15.171875 0 L 15.171875 -93.828125 L 31.140625 -93.828125 L 31.140625 -82.4375 L 31.546875 -82.4375 C 34.867188 -86.96875 38.691406 -90.429688 43.015625 -92.828125 C 47.335938 -95.222656 52.429688 -96.421875 58.296875 -96.421875 C 68.804688 -96.421875 76.753906 -93.191406 82.140625 -86.734375 C 87.535156 -80.285156 90.234375 -70.269531 90.234375 -56.6875 Z M 90.234375 0 "/></g></g></g><g fill="#000000" fill-opacity="1"><g transform="translate(1440.315991, 3077.000899)"><g><path d="M 41.515625 -150.515625 C 54.691406 -150.515625 64.671875 -148.953125 71.453125 -145.828125 C 78.242188 -142.703125 83.734375 -137.8125 87.921875 -131.15625 C 92.117188 -124.5 94.21875 -116.976562 94.21875 -108.59375 C 94.21875 -96.351562 90.191406 -86.171875 82.140625 -78.046875 C 74.085938 -69.929688 62.007812 -65.875 45.90625 -65.875 L 31.9375 -65.875 L 31.9375 0 L 15.171875 0 L 15.171875 -150.515625 Z M 31.9375 -81.453125 L 40.921875 -81.453125 C 54.097656 -81.453125 63.476562 -83.710938 69.0625 -88.234375 C 74.65625 -92.753906 77.453125 -99.539062 77.453125 -108.59375 C 77.453125 -117.78125 74.691406 -124.46875 69.171875 -128.65625 C 63.648438 -132.851562 53.898438 -134.953125 39.921875 -134.953125 L 31.9375 -134.953125 Z M 31.9375 -81.453125 "/></g></g></g><g fill="#000000" fill-opacity="1"><g transform="translate(1540.728629, 3077.000899)"><g><path d="M 84.84375 -80.453125 L 84.84375 -93.828125 L 100.8125 -93.828125 L 100.8125 0 L 84.84375 0 L 84.84375 -12.96875 L 84.4375 -12.96875 C 76.1875 -2.59375 65.410156 2.59375 52.109375 2.59375 C 39.054688 2.59375 28.304688 -2.195312 19.859375 -11.78125 C 11.410156 -21.363281 7.1875 -33.007812 7.1875 -46.71875 C 7.1875 -61.082031 11.441406 -72.957031 19.953125 -82.34375 C 28.472656 -91.726562 39.253906 -96.421875 52.296875 -96.421875 C 58.816406 -96.421875 64.835938 -95.019531 70.359375 -92.21875 C 75.890625 -89.425781 80.582031 -85.503906 84.4375 -80.453125 Z M 54.09375 -81.640625 C 45.582031 -81.640625 38.363281 -78.378906 32.4375 -71.859375 C 26.519531 -65.335938 23.5625 -57.351562 23.5625 -47.90625 C 23.5625 -37.789062 26.453125 -29.304688 32.234375 -22.453125 C 38.023438 -15.597656 45.378906 -12.171875 54.296875 -12.171875 C 63.742188 -12.171875 71.328125 -15.429688 77.046875 -21.953125 C 82.773438 -28.472656 85.640625 -37.054688 85.640625 -47.703125 C 85.640625 -57.421875 82.710938 -65.503906 76.859375 -71.953125 C 71.003906 -78.410156 63.414062 -81.640625 54.09375 -81.640625 Z M 54.09375 -81.640625 "/></g></g></g><g fill="#000000" fill-opacity="1"><g transform="translate(1655.913727, 3077.000899)"><g><path d="M 18.171875 -93.828125 L 51.296875 -26.546875 L 81.640625 -93.828125 L 99.8125 -93.828125 L 30.546875 52.703125 L 12.375 52.703125 L 42.71875 -8.78125 L -0.40625 -93.828125 Z M 18.171875 -93.828125 "/></g></g></g><g fill="#000000" fill-opacity="1"><g transform="translate(1755.328242, 3077.000899)"><g><path d="M 80.046875 -80.84375 C 82.835938 -85.769531 86.726562 -89.597656 91.71875 -92.328125 C 96.71875 -95.054688 102.210938 -96.421875 108.203125 -96.421875 C 118.046875 -96.421875 125.492188 -93.09375 130.546875 -86.4375 C 135.609375 -79.78125 138.140625 -70.332031 138.140625 -58.09375 L 138.140625 0 L 122.171875 0 L 122.171875 -55.703125 C 122.171875 -65.148438 120.769531 -71.832031 117.96875 -75.75 C 115.175781 -79.675781 110.851562 -81.640625 105 -81.640625 C 98.082031 -81.640625 92.957031 -79.109375 89.625 -74.046875 C 86.300781 -68.992188 84.640625 -61.210938 84.640625 -50.703125 L 84.640625 0 L 68.671875 0 L 68.671875 -54.09375 C 68.671875 -63.675781 67.238281 -70.660156 64.375 -75.046875 C 61.519531 -79.441406 57.363281 -81.640625 51.90625 -81.640625 C 45.113281 -81.640625 39.953125 -79.078125 36.421875 -73.953125 C 32.898438 -68.835938 31.140625 -60.6875 31.140625 -49.5 L 31.140625 0 L 15.171875 0 L 15.171875 -93.828125 L 31.140625 -93.828125 L 31.140625 -83.640625 L 31.546875 -83.640625 C 34.066406 -87.503906 37.253906 -90.597656 41.109375 -92.921875 C 44.972656 -95.253906 49.300781 -96.421875 54.09375 -96.421875 C 59.550781 -96.421875 64.609375 -95.054688 69.265625 -92.328125 C 73.921875 -89.597656 77.515625 -85.769531 80.046875 -80.84375 Z M 80.046875 -80.84375 "/></g></g></g><g fill="#000000" fill-opacity="1"><g transform="translate(1908.642249, 3077.000899)"><g><path d="M 96.8125 -43.515625 L 23.15625 -43.515625 C 23.425781 -34.203125 26.488281 -26.648438 32.34375 -20.859375 C 38.195312 -15.066406 45.382812 -12.171875 53.90625 -12.171875 C 59.882812 -12.171875 65.171875 -13.703125 69.765625 -16.765625 C 74.359375 -19.828125 78.582031 -24.753906 82.4375 -31.546875 L 96.015625 -23.75 C 91.492188 -15.363281 85.539062 -8.875 78.15625 -4.28125 C 70.769531 0.300781 62.285156 2.59375 52.703125 2.59375 C 43.515625 2.59375 35.394531 0.398438 28.34375 -3.984375 C 21.289062 -8.378906 15.929688 -14.269531 12.265625 -21.65625 C 8.609375 -29.039062 6.78125 -37.0625 6.78125 -45.71875 C 6.78125 -55.300781 8.609375 -63.953125 12.265625 -71.671875 C 15.929688 -79.390625 21.222656 -85.441406 28.140625 -89.828125 C 35.066406 -94.222656 43.117188 -96.421875 52.296875 -96.421875 C 61.210938 -96.421875 69.097656 -94.253906 75.953125 -89.921875 C 82.804688 -85.597656 88.03125 -79.644531 91.625 -72.0625 C 95.21875 -64.476562 97.015625 -55.960938 97.015625 -46.515625 C 97.015625 -45.578125 96.945312 -44.578125 96.8125 -43.515625 Z M 80.046875 -57.09375 C 78.710938 -64.414062 75.453125 -70.335938 70.265625 -74.859375 C 65.078125 -79.378906 59.15625 -81.640625 52.5 -81.640625 C 45.976562 -81.640625 39.851562 -79.273438 34.125 -74.546875 C 28.40625 -69.828125 25.015625 -64.007812 23.953125 -57.09375 Z M 80.046875 -57.09375 "/></g></g></g><g fill="#000000" fill-opacity="1"><g transform="translate(2012.248921, 3077.000899)"><g><path d="M 90.234375 0 L 74.265625 0 L 74.265625 -54.703125 C 74.265625 -64.148438 72.832031 -71 69.96875 -75.25 C 67.101562 -79.507812 61.945312 -81.640625 54.5 -81.640625 C 45.976562 -81.640625 39.953125 -78.710938 36.421875 -72.859375 C 32.898438 -67.003906 31.140625 -58.085938 31.140625 -46.109375 L 31.140625 0 L 15.171875 0 L 15.171875 -93.828125 L 31.140625 -93.828125 L 31.140625 -82.4375 L 31.546875 -82.4375 C 34.867188 -86.96875 38.691406 -90.429688 43.015625 -92.828125 C 47.335938 -95.222656 52.429688 -96.421875 58.296875 -96.421875 C 68.804688 -96.421875 76.753906 -93.191406 82.140625 -86.734375 C 87.535156 -80.285156 90.234375 -70.269531 90.234375 -56.6875 Z M 90.234375 0 "/></g></g></g><g fill="#000000" fill-opacity="1"><g transform="translate(2117.652166, 3077.000899)"><g><path d="M 31.9375 -127.5625 L 31.9375 -93.828125 L 48.703125 -93.828125 L 48.703125 -79.046875 L 31.9375 -79.046875 L 31.9375 0 L 15.96875 0 L 15.96875 -79.046875 L 6.1875 -79.046875 L 6.1875 -93.828125 L 15.96875 -93.828125 L 15.96875 -127.5625 Z M 31.9375 -127.5625 "/></g></g></g><path fill="#ffffff" d="M 1989.769531 1374.160156 C 1989.769531 1370.144531 1988.183594 1366.3125 1985.347656 1363.488281 L 1057.957031 436.949219 C 1052.058594 431.0625 1042.519531 431.0625 1036.617188 436.949219 C 1021.363281 452.210938 1001.078125 460.601562 979.453125 460.601562 C 957.839844 460.601562 937.542969 452.195312 922.285156 436.949219 C 916.382812 431.046875 906.84375 431.0625 900.945312 436.949219 L 550.378906 787.15625 C 547.542969 789.992188 545.957031 793.828125 545.957031 797.828125 C 545.957031 801.84375 547.542969 805.679688 550.378906 808.515625 C 578.359375 836.515625 582.011719 880.203125 559.027344 912.402344 C 554.738281 918.410156 555.417969 926.636719 560.625 931.859375 L 1325.476562 1696.113281 C 1325.476562 1696.125 1325.476562 1696.125 1325.488281 1696.125 L 1489.988281 1860.363281 C 1495.210938 1865.570312 1503.390625 1866.234375 1509.351562 1861.992188 C 1541.710938 1839.136719 1585.460938 1842.777344 1613.441406 1870.625 C 1616.367188 1873.554688 1620.230469 1875.019531 1624.078125 1875.019531 C 1627.945312 1875.019531 1631.808594 1873.539062 1634.75 1870.613281 L 1985.332031 1520.417969 C 1988.167969 1517.582031 1989.753906 1513.746094 1989.753906 1509.730469 C 1989.753906 1505.730469 1988.167969 1501.882812 1985.332031 1499.058594 C 1953.847656 1467.570312 1953.847656 1416.335938 1985.332031 1384.847656 C 1988.183594 1382.011719 1989.769531 1378.160156 1989.769531 1374.160156 Z M 1530.796875 1176.25 C 1530.796875 1240.855469 1505.625 1301.570312 1459.957031 1347.171875 C 1459.941406 1347.1875 1459.941406 1347.1875 1459.925781 1347.203125 C 1414.335938 1392.878906 1353.636719 1418.058594 1289.042969 1418.058594 C 1224.464844 1418.058594 1163.722656 1392.878906 1118.039062 1347.1875 C 1023.835938 1252.976562 1023.835938 1099.550781 1118.039062 1005.207031 C 1165.199219 958.078125 1227.136719 934.53125 1289.042969 934.53125 C 1350.949219 934.53125 1412.855469 958.09375 1459.941406 1005.191406 C 1505.625 1050.898438 1530.796875 1111.640625 1530.796875 1176.25 Z M 1530.796875 1176.25 " fill-opacity="1" fill-rule="nonzero"/><g clip-path="url(#31670684b0)"><path fill="#ffffff" d="M 2192.886719 439.257812 C 2190.910156 435.785156 2187.621094 433.21875 2183.773438 432.164062 L 1503.574219 245.105469 L 1483.289062 176.042969 C 1480.949219 168.058594 1472.589844 163.453125 1464.558594 165.808594 L 1045.433594 288.730469 L 990.183594 233.464844 C 984.28125 227.5625 974.742188 227.5625 968.84375 233.464844 L 859.050781 343.28125 L 680.695312 395.542969 C 676.847656 396.660156 673.617188 399.269531 671.6875 402.789062 C 669.769531 406.289062 669.332031 410.425781 670.449219 414.277344 L 697.054688 505.011719 L 358.09375 843.746094 C 355.257812 846.601562 353.671875 850.433594 353.671875 854.449219 C 353.671875 858.464844 355.257812 862.300781 358.09375 865.136719 L 987.285156 1493.761719 L 1063.136719 1752.175781 C 1063.136719 1752.191406 1063.152344 1752.207031 1063.164062 1752.234375 L 1121.871094 1951.761719 C 1123.804688 1958.34375 1129.8125 1962.601562 1136.34375 1962.601562 C 1137.75 1962.601562 1139.183594 1962.40625 1140.601562 1961.996094 L 1384.300781 1890.417969 L 1556.832031 2062.789062 C 1559.773438 2065.730469 1563.636719 2067.210938 1567.5 2067.210938 C 1571.363281 2067.210938 1575.226562 2065.730469 1578.171875 2062.804688 L 2188.949219 1452.65625 C 2191.785156 1449.820312 2193.371094 1445.984375 2193.371094 1441.96875 C 2193.371094 1437.953125 2191.785156 1434.105469 2188.949219 1431.28125 L 1981.332031 1223.828125 L 2194.320312 450.746094 C 2195.378906 446.867188 2194.878906 442.746094 2192.886719 439.257812 Z M 1458.570312 199.019531 L 1667.257812 909.96875 L 1578.019531 820.804688 L 1447.203125 375.585938 C 1444.867188 367.601562 1436.519531 363.042969 1428.507812 365.351562 C 1409.097656 371.027344 1388.679688 368.808594 1370.929688 359.132812 C 1353.183594 349.457031 1340.296875 333.484375 1334.652344 314.164062 C 1333.535156 310.332031 1330.921875 307.085938 1327.40625 305.152344 C 1323.890625 303.21875 1319.726562 302.765625 1315.921875 303.914062 L 1118.523438 361.820312 L 1069.761719 313.046875 Z M 703.664062 420.285156 L 814.300781 387.859375 L 721.398438 480.710938 Z M 1146.546875 1928.742188 L 1092.113281 1743.722656 C 1092.113281 1743.707031 1092.113281 1743.691406 1092.113281 1743.675781 L 1031.789062 1538.199219 L 1359.945312 1866.066406 Z M 1567.5 2030.757812 L 390.121094 854.449219 L 877.191406 367.707031 C 877.3125 367.585938 877.476562 367.554688 877.613281 367.433594 L 979.527344 265.496094 L 1103.476562 389.472656 C 1103.609375 389.609375 1103.808594 389.65625 1103.957031 389.792969 L 2156.925781 1441.953125 Z M 1959.824219 1188.402344 L 1956.808594 1199.316406 L 1910.070312 1152.609375 L 2063.324219 596.398438 C 2064.382812 592.535156 2063.882812 588.414062 2061.890625 584.925781 C 2059.914062 581.453125 2056.625 578.886719 2052.777344 577.832031 C 2034.121094 572.699219 2018.546875 560.59375 2008.964844 543.730469 C 1999.382812 526.886719 1996.921875 507.367188 2002.050781 488.769531 C 2003.109375 484.90625 2002.609375 480.785156 2000.617188 477.296875 C 1998.640625 473.8125 1995.367188 471.257812 1991.503906 470.1875 L 1555.050781 350.03125 C 1547.503906 347.976562 1539.839844 352.144531 1537.105469 359.34375 L 1513.5625 279.144531 L 2161.210938 457.25 Z M 1959.824219 1188.402344 " fill-opacity="1" fill-rule="nonzero"/></g><path fill="#ffffff" d="M 1387.230469 1056.710938 L 1360.730469 1083.777344 C 1350.164062 1077.132812 1338.015625 1073.449219 1325.277344 1073.449219 C 1307.773438 1073.449219 1290.6875 1080.515625 1278.402344 1092.816406 C 1266.011719 1105.210938 1258.890625 1122.375 1258.890625 1139.886719 C 1258.890625 1157.378906 1266.011719 1174.542969 1278.402344 1186.9375 C 1285.179688 1193.714844 1289.074219 1203.027344 1289.074219 1212.476562 C 1289.074219 1222.0625 1285.253906 1231.210938 1278.328125 1238.261719 C 1264.851562 1251.9375 1240.539062 1251.9375 1227.078125 1238.261719 C 1220.242188 1231.332031 1216.484375 1222.167969 1216.484375 1212.476562 C 1216.484375 1202.921875 1220.316406 1193.609375 1227 1186.953125 C 1232.902344 1181.050781 1232.902344 1171.507812 1227.015625 1165.59375 C 1221.117188 1159.691406 1211.5625 1159.703125 1205.660156 1165.578125 C 1193.363281 1177.878906 1186.300781 1194.96875 1186.300781 1212.476562 C 1186.300781 1225.035156 1189.90625 1237.023438 1196.378906 1247.5 L 1169.410156 1274.59375 C 1163.527344 1280.511719 1163.554688 1290.050781 1169.457031 1295.953125 C 1172.398438 1298.882812 1176.261719 1300.347656 1180.113281 1300.347656 C 1183.988281 1300.347656 1187.851562 1298.851562 1190.8125 1295.910156 L 1217.675781 1268.933594 C 1228.058594 1275.425781 1240.039062 1279.0625 1252.71875 1279.0625 C 1270.648438 1279.0625 1287.398438 1272.101562 1299.847656 1259.453125 C 1312.375 1246.714844 1319.273438 1230.046875 1319.273438 1212.492188 C 1319.273438 1195.101562 1312.148438 1178 1299.757812 1165.605469 C 1292.980469 1158.828125 1289.089844 1149.453125 1289.089844 1139.898438 C 1289.089844 1130.34375 1292.980469 1120.96875 1299.773438 1114.175781 C 1313.175781 1100.710938 1337.050781 1100.441406 1351.34375 1114.507812 C 1365.167969 1128.667969 1365.015625 1151.582031 1351.011719 1165.605469 C 1345.109375 1171.507812 1345.109375 1181.050781 1351.011719 1186.953125 C 1356.910156 1192.855469 1366.449219 1192.855469 1372.351562 1186.953125 C 1394.234375 1165.0625 1397.460938 1131.371094 1381.84375 1105.421875 L 1408.839844 1077.84375 C 1414.667969 1071.882812 1414.578125 1062.324219 1408.601562 1056.5 C 1402.652344 1050.671875 1393.101562 1050.746094 1387.230469 1056.710938 Z M 1387.230469 1056.710938 " fill-opacity="1" fill-rule="nonzero"/></svg>