<svg xmlns="http://www.w3.org/2000/svg" xmlns:xlink="http://www.w3.org/1999/xlink" width="3400" zoomAndPan="magnify" viewBox="0 0 2550 3224.999865" height="4300" preserveAspectRatio="xMidYMid meet" version="1.0"><defs><g/><clipPath id="3153de1928"><path d="M 374.972656 148.507812 L 1759 148.507812 L 1759 1993.507812 L 374.972656 1993.507812 Z M 374.972656 148.507812 " clip-rule="nonzero"/></clipPath><clipPath id="e966d45e52"><path d="M 1239 854 L 2219.972656 854 L 2219.972656 1835 L 1239 1835 Z M 1239 854 " clip-rule="nonzero"/></clipPath><clipPath id="09e0735a8c"><path d="M 0 2799.246094 L 2550 2799.246094 L 2550 3225 L 0 3225 Z M 0 2799.246094 " clip-rule="nonzero"/></clipPath></defs><path stroke-linecap="butt" transform="matrix(0.75, 0, 0, 0.75, 0.000116248, 0)" fill="none" stroke-linejoin="miter" d="M -0.000154997 0 L 3399.999911 0 L 3399.999911 4300.000084 L -0.000154997 4300.000084 L -0.000154997 0 " stroke="#ffffff" stroke-width="50" stroke-opacity="1" stroke-miterlimit="4"/><path fill="#ffffff" d="M 620.011719 523.273438 L 1506.476562 523.273438 C 1522.332031 523.273438 1535.304688 510.300781 1535.304688 494.445312 C 1535.304688 478.589844 1522.332031 465.617188 1506.476562 465.617188 L 620.011719 465.617188 C 604.15625 465.617188 591.183594 478.589844 591.183594 494.445312 C 591.183594 510.300781 604.15625 523.273438 620.011719 523.273438 Z M 620.011719 523.273438 " fill-opacity="1" fill-rule="nonzero"/><path fill="#ffffff" d="M 1542.511719 782.726562 C 1542.511719 766.871094 1529.539062 753.898438 1513.683594 753.898438 L 627.21875 753.898438 C 611.363281 753.898438 598.390625 766.871094 598.390625 782.726562 C 598.390625 798.582031 611.363281 811.554688 627.21875 811.554688 L 1513.683594 811.554688 C 1529.539062 811.554688 1542.511719 798.582031 1542.511719 782.726562 Z M 1542.511719 782.726562 " fill-opacity="1" fill-rule="nonzero"/><path fill="#ffffff" d="M 598.390625 1647.570312 C 598.390625 1663.425781 611.363281 1676.398438 627.21875 1676.398438 L 1294.589844 1676.398438 C 1280.175781 1657.660156 1267.203125 1638.921875 1255.671875 1618.742188 L 627.21875 1618.742188 C 611.363281 1618.742188 598.390625 1631.714844 598.390625 1647.570312 Z M 598.390625 1647.570312 " fill-opacity="1" fill-rule="nonzero"/><path fill="#ffffff" d="M 1182.160156 1330.460938 L 627.21875 1330.460938 C 611.363281 1330.460938 598.390625 1343.433594 598.390625 1359.289062 C 598.390625 1375.144531 611.363281 1388.117188 627.21875 1388.117188 L 1183.601562 1388.117188 C 1182.160156 1373.703125 1182.160156 1359.289062 1182.160156 1344.875 C 1182.160156 1340.550781 1182.160156 1334.785156 1182.160156 1330.460938 Z M 1182.160156 1330.460938 " fill-opacity="1" fill-rule="nonzero"/><path fill="#ffffff" d="M 1274.410156 1042.179688 L 627.21875 1042.179688 C 611.363281 1042.179688 598.390625 1055.152344 598.390625 1071.007812 C 598.390625 1086.863281 611.363281 1099.835938 627.21875 1099.835938 L 1239.816406 1099.835938 C 1249.90625 1079.65625 1261.4375 1060.917969 1274.410156 1042.179688 Z M 1274.410156 1042.179688 " fill-opacity="1" fill-rule="nonzero"/><g clip-path="url(#3153de1928)"><path fill="#ffffff" d="M 490.285156 1993.507812 L 1643.410156 1993.507812 C 1702.507812 1993.507812 1751.515625 1948.824219 1757.28125 1892.609375 C 1748.632812 1892.609375 1738.542969 1892.609375 1729.894531 1892.609375 C 1719.804688 1892.609375 1709.714844 1892.609375 1699.625 1891.167969 C 1693.859375 1917.113281 1670.796875 1935.851562 1643.410156 1935.851562 L 490.285156 1935.851562 C 458.574219 1935.851562 432.628906 1909.90625 432.628906 1878.195312 L 432.628906 263.820312 C 432.628906 232.109375 458.574219 206.164062 490.285156 206.164062 L 1643.410156 206.164062 C 1675.121094 206.164062 1701.066406 232.109375 1701.066406 263.820312 L 1701.066406 798.582031 C 1711.15625 798.582031 1719.804688 797.140625 1729.894531 797.140625 C 1739.984375 797.140625 1748.632812 797.140625 1758.722656 798.582031 L 1758.722656 263.820312 C 1758.722656 200.398438 1706.832031 148.507812 1643.410156 148.507812 L 490.285156 148.507812 C 426.863281 148.507812 374.972656 200.398438 374.972656 263.820312 L 374.972656 1878.195312 C 374.972656 1941.617188 426.863281 1993.507812 490.285156 1993.507812 Z M 490.285156 1993.507812 " fill-opacity="1" fill-rule="nonzero"/></g><g clip-path="url(#e966d45e52)"><path fill="#ffffff" d="M 1729.894531 854.796875 C 1460.351562 854.796875 1239.816406 1075.332031 1239.816406 1344.875 C 1239.816406 1614.417969 1460.351562 1834.953125 1729.894531 1834.953125 C 1999.4375 1834.953125 2219.972656 1614.417969 2219.972656 1344.875 C 2219.972656 1075.332031 1999.4375 854.796875 1729.894531 854.796875 Z M 1729.894531 1777.296875 C 1492.0625 1777.296875 1297.472656 1582.707031 1297.472656 1344.875 C 1297.472656 1107.042969 1492.0625 912.453125 1729.894531 912.453125 C 1967.726562 912.453125 2162.316406 1107.042969 2162.316406 1344.875 C 2162.316406 1582.707031 1967.726562 1777.296875 1729.894531 1777.296875 Z M 1729.894531 1777.296875 " fill-opacity="1" fill-rule="nonzero"/></g><path fill="#ffffff" d="M 1878.359375 1052.269531 L 1868.269531 1047.945312 C 1819.261719 1023.441406 1758.722656 1043.621094 1734.21875 1092.628906 L 1559.808594 1435.683594 C 1559.808594 1435.683594 1559.808594 1435.683594 1559.808594 1437.125 C 1559.808594 1438.566406 1558.367188 1438.566406 1558.367188 1440.007812 C 1558.367188 1441.449219 1558.367188 1441.449219 1556.925781 1442.890625 C 1556.925781 1444.332031 1556.925781 1444.332031 1556.925781 1445.773438 C 1556.925781 1447.210938 1556.925781 1447.210938 1556.925781 1448.652344 C 1556.925781 1448.652344 1556.925781 1450.09375 1556.925781 1450.09375 L 1558.367188 1618.738281 C 1558.367188 1630.269531 1564.132812 1638.917969 1574.222656 1644.683594 C 1584.3125 1649.007812 1595.84375 1649.007812 1604.492188 1641.800781 L 1742.867188 1540.902344 C 1744.308594 1539.460938 1745.75 1539.460938 1745.75 1538.023438 C 1745.75 1538.023438 1745.75 1538.023438 1747.191406 1536.582031 C 1748.632812 1535.140625 1750.074219 1532.253906 1751.515625 1530.816406 L 1924.484375 1189.203125 C 1937.457031 1164.699219 1938.898438 1137.3125 1930.25 1111.367188 C 1921.601562 1085.421875 1902.863281 1063.800781 1878.359375 1052.269531 Z M 1614.582031 1562.527344 L 1614.582031 1496.222656 L 1669.355469 1523.609375 Z M 1712.597656 1478.925781 L 1624.671875 1435.683594 L 1742.867188 1202.175781 L 1830.792969 1245.417969 Z M 1872.59375 1163.257812 L 1856.738281 1194.96875 L 1768.8125 1151.726562 L 1784.667969 1120.015625 C 1794.757812 1098.394531 1820.703125 1089.746094 1842.324219 1101.277344 L 1852.414062 1105.601562 C 1874.035156 1114.25 1884.125 1141.636719 1872.59375 1163.257812 Z M 1872.59375 1163.257812 " fill-opacity="1" fill-rule="nonzero"/><g clip-path="url(#09e0735a8c)"><path fill="#ffffff" d="M -90 2799.246094 L 2602.265625 2799.246094 L 2602.265625 3224.988281 L -90 3224.988281 Z M -90 2799.246094 " fill-opacity="1" fill-rule="nonzero"/></g><g fill="#000000" fill-opacity="1"><g transform="translate(496.648068, 3077.000899)"><g><path d="M 41.515625 -150.515625 C 54.691406 -150.515625 64.671875 -148.953125 71.453125 -145.828125 C 78.242188 -142.703125 83.734375 -137.8125 87.921875 -131.15625 C 92.117188 -124.5 94.21875 -116.976562 94.21875 -108.59375 C 94.21875 -96.351562 90.191406 -86.171875 82.140625 -78.046875 C 74.085938 -69.929688 62.007812 -65.875 45.90625 -65.875 L 31.9375 -65.875 L 31.9375 0 L 15.171875 0 L 15.171875 -150.515625 Z M 31.9375 -81.453125 L 40.921875 -81.453125 C 54.097656 -81.453125 63.476562 -83.710938 69.0625 -88.234375 C 74.65625 -92.753906 77.453125 -99.539062 77.453125 -108.59375 C 77.453125 -117.78125 74.691406 -124.46875 69.171875 -128.65625 C 63.648438 -132.851562 53.898438 -134.953125 39.921875 -134.953125 L 31.9375 -134.953125 Z M 31.9375 -81.453125 "/></g></g></g><g fill="#000000" fill-opacity="1"><g transform="translate(597.060706, 3077.000899)"><g><path d="M 6.78125 -46.71875 C 6.78125 -55.632812 8.976562 -63.953125 13.375 -71.671875 C 17.769531 -79.390625 23.757812 -85.441406 31.34375 -89.828125 C 38.925781 -94.222656 47.175781 -96.421875 56.09375 -96.421875 C 65.007812 -96.421875 73.226562 -94.222656 80.75 -89.828125 C 88.269531 -85.441406 94.257812 -79.421875 98.71875 -71.765625 C 103.175781 -64.109375 105.40625 -55.757812 105.40625 -46.71875 C 105.40625 -37.800781 103.207031 -29.515625 98.8125 -21.859375 C 94.425781 -14.203125 88.4375 -8.210938 80.84375 -3.890625 C 73.257812 0.429688 65.007812 2.59375 56.09375 2.59375 C 47.175781 2.59375 38.890625 0.398438 31.234375 -3.984375 C 23.585938 -8.378906 17.597656 -14.398438 13.265625 -22.046875 C 8.941406 -29.703125 6.78125 -37.925781 6.78125 -46.71875 Z M 55.890625 -81.640625 C 46.441406 -81.640625 38.554688 -78.28125 32.234375 -71.5625 C 25.910156 -64.84375 22.75 -56.625 22.75 -46.90625 C 22.75 -39.71875 24.476562 -33.363281 27.9375 -27.84375 C 31.40625 -22.320312 35.632812 -18.328125 40.625 -15.859375 C 45.613281 -13.398438 50.769531 -12.171875 56.09375 -12.171875 C 62.21875 -12.171875 67.804688 -13.601562 72.859375 -16.46875 C 77.921875 -19.332031 81.945312 -23.457031 84.9375 -28.84375 C 87.9375 -34.238281 89.4375 -40.257812 89.4375 -46.90625 C 89.4375 -53.03125 88.070312 -58.753906 85.34375 -64.078125 C 82.613281 -69.398438 78.648438 -73.65625 73.453125 -76.84375 C 68.265625 -80.039062 62.410156 -81.640625 55.890625 -81.640625 Z M 55.890625 -81.640625 "/></g></g></g><g fill="#000000" fill-opacity="1"><g transform="translate(709.251363, 3077.000899)"><g><path d="M 58.296875 -77.453125 C 56.691406 -78.648438 55.191406 -79.644531 53.796875 -80.4375 C 52.398438 -81.238281 50.703125 -81.640625 48.703125 -81.640625 C 42.710938 -81.640625 38.15625 -78.976562 35.03125 -73.65625 C 31.90625 -68.332031 30.34375 -59.75 30.34375 -47.90625 L 30.34375 0 L 14.375 0 L 14.375 -93.828125 L 30.34375 -93.828125 L 30.34375 -83.640625 L 30.75 -83.640625 C 34.601562 -88.828125 38.023438 -92.253906 41.015625 -93.921875 C 44.015625 -95.585938 47.507812 -96.421875 51.5 -96.421875 C 53.894531 -96.421875 56.320312 -96.019531 58.78125 -95.21875 C 61.25 -94.414062 63.613281 -93.351562 65.875 -92.03125 Z M 58.296875 -77.453125 "/></g></g></g><g fill="#000000" fill-opacity="1"><g transform="translate(776.12657, 3077.000899)"><g><path d="M 31.9375 -127.5625 L 31.9375 -93.828125 L 48.703125 -93.828125 L 48.703125 -79.046875 L 31.9375 -79.046875 L 31.9375 0 L 15.96875 0 L 15.96875 -79.046875 L 6.1875 -79.046875 L 6.1875 -93.828125 L 15.96875 -93.828125 L 15.96875 -127.5625 Z M 31.9375 -127.5625 "/></g></g></g><g fill="#000000" fill-opacity="1"><g transform="translate(824.037197, 3077.000899)"><g><path d="M 84.84375 -80.453125 L 84.84375 -93.828125 L 100.8125 -93.828125 L 100.8125 0 L 84.84375 0 L 84.84375 -12.96875 L 84.4375 -12.96875 C 76.1875 -2.59375 65.410156 2.59375 52.109375 2.59375 C 39.054688 2.59375 28.304688 -2.195312 19.859375 -11.78125 C 11.410156 -21.363281 7.1875 -33.007812 7.1875 -46.71875 C 7.1875 -61.082031 11.441406 -72.957031 19.953125 -82.34375 C 28.472656 -91.726562 39.253906 -96.421875 52.296875 -96.421875 C 58.816406 -96.421875 64.835938 -95.019531 70.359375 -92.21875 C 75.890625 -89.425781 80.582031 -85.503906 84.4375 -80.453125 Z M 54.09375 -81.640625 C 45.582031 -81.640625 38.363281 -78.378906 32.4375 -71.859375 C 26.519531 -65.335938 23.5625 -57.351562 23.5625 -47.90625 C 23.5625 -37.789062 26.453125 -29.304688 32.234375 -22.453125 C 38.023438 -15.597656 45.378906 -12.171875 54.296875 -12.171875 C 63.742188 -12.171875 71.328125 -15.429688 77.046875 -21.953125 C 82.773438 -28.472656 85.640625 -37.054688 85.640625 -47.703125 C 85.640625 -57.421875 82.710938 -65.503906 76.859375 -71.953125 C 71.003906 -78.410156 63.414062 -81.640625 54.09375 -81.640625 Z M 54.09375 -81.640625 "/></g></g></g><g fill="#000000" fill-opacity="1"><g transform="translate(939.222295, 3077.000899)"><g><path d="M 30.75 -164.6875 L 30.75 0 L 14.765625 0 L 14.765625 -164.6875 Z M 30.75 -164.6875 "/></g></g></g><g fill="#000000" fill-opacity="1"><g transform="translate(1046.023002, 3077.000899)"><g><path d="M 38.125 -150.515625 C 74.0625 -150.515625 92.03125 -136.675781 92.03125 -109 C 92.03125 -97.414062 88.664062 -87.863281 81.9375 -80.34375 C 75.21875 -72.820312 66.003906 -68.53125 54.296875 -67.46875 L 102.203125 0 L 81.640625 0 L 36.125 -66.078125 L 31.9375 -66.078125 L 31.9375 0 L 15.171875 0 L 15.171875 -150.515625 Z M 31.9375 -80.84375 L 39.328125 -80.84375 C 51.171875 -80.84375 60.117188 -83.035156 66.171875 -87.421875 C 72.234375 -91.816406 75.265625 -98.609375 75.265625 -107.796875 C 75.265625 -117.773438 72.300781 -124.796875 66.375 -128.859375 C 60.445312 -132.921875 51.894531 -134.953125 40.71875 -134.953125 L 31.9375 -134.953125 Z M 31.9375 -80.84375 "/></g></g></g><g fill="#000000" fill-opacity="1"><g transform="translate(1154.221096, 3077.000899)"><g><path d="M 96.8125 -43.515625 L 23.15625 -43.515625 C 23.425781 -34.203125 26.488281 -26.648438 32.34375 -20.859375 C 38.195312 -15.066406 45.382812 -12.171875 53.90625 -12.171875 C 59.882812 -12.171875 65.171875 -13.703125 69.765625 -16.765625 C 74.359375 -19.828125 78.582031 -24.753906 82.4375 -31.546875 L 96.015625 -23.75 C 91.492188 -15.363281 85.539062 -8.875 78.15625 -4.28125 C 70.769531 0.300781 62.285156 2.59375 52.703125 2.59375 C 43.515625 2.59375 35.394531 0.398438 28.34375 -3.984375 C 21.289062 -8.378906 15.929688 -14.269531 12.265625 -21.65625 C 8.609375 -29.039062 6.78125 -37.0625 6.78125 -45.71875 C 6.78125 -55.300781 8.609375 -63.953125 12.265625 -71.671875 C 15.929688 -79.390625 21.222656 -85.441406 28.140625 -89.828125 C 35.066406 -94.222656 43.117188 -96.421875 52.296875 -96.421875 C 61.210938 -96.421875 69.097656 -94.253906 75.953125 -89.921875 C 82.804688 -85.597656 88.03125 -79.644531 91.625 -72.0625 C 95.21875 -64.476562 97.015625 -55.960938 97.015625 -46.515625 C 97.015625 -45.578125 96.945312 -44.578125 96.8125 -43.515625 Z M 80.046875 -57.09375 C 78.710938 -64.414062 75.453125 -70.335938 70.265625 -74.859375 C 65.078125 -79.378906 59.15625 -81.640625 52.5 -81.640625 C 45.976562 -81.640625 39.851562 -79.273438 34.125 -74.546875 C 28.40625 -69.828125 25.015625 -64.007812 23.953125 -57.09375 Z M 80.046875 -57.09375 "/></g></g></g><g fill="#000000" fill-opacity="1"><g transform="translate(1257.827769, 3077.000899)"><g><path d="M 83.84375 -80.453125 L 83.84375 -93.828125 L 99.8125 -93.828125 L 99.8125 3.390625 C 99.8125 19.097656 95.421875 31.175781 86.640625 39.625 C 77.859375 48.070312 66.945312 52.296875 53.90625 52.296875 C 40.59375 52.296875 29.644531 48.335938 21.0625 40.421875 C 12.476562 32.503906 8.050781 22.09375 7.78125 9.1875 L 23.75 9.1875 C 23.75 17.4375 26.507812 24.222656 32.03125 29.546875 C 37.5625 34.867188 44.851562 37.53125 53.90625 37.53125 C 63.75 37.53125 71.195312 34.46875 76.25 28.34375 C 81.3125 22.21875 83.84375 12.101562 83.84375 -2 L 83.84375 -12.96875 L 83.4375 -12.96875 C 79.71875 -8.1875 74.960938 -4.394531 69.171875 -1.59375 C 63.378906 1.195312 57.289062 2.59375 50.90625 2.59375 C 42.25 2.59375 34.523438 0.398438 27.734375 -3.984375 C 20.953125 -8.378906 15.664062 -14.335938 11.875 -21.859375 C 8.082031 -29.378906 6.1875 -37.597656 6.1875 -46.515625 C 6.1875 -55.691406 8.148438 -64.109375 12.078125 -71.765625 C 16.003906 -79.421875 21.425781 -85.441406 28.34375 -89.828125 C 35.269531 -94.222656 42.988281 -96.421875 51.5 -96.421875 C 58.019531 -96.421875 64.007812 -95.019531 69.46875 -92.21875 C 74.925781 -89.425781 79.582031 -85.503906 83.4375 -80.453125 Z M 53.09375 -81.640625 C 47.507812 -81.640625 42.390625 -80.175781 37.734375 -77.25 C 33.078125 -74.320312 29.382812 -70.226562 26.65625 -64.96875 C 23.925781 -59.71875 22.5625 -54.03125 22.5625 -47.90625 C 22.5625 -37.65625 25.421875 -29.132812 31.140625 -22.34375 C 36.859375 -15.5625 44.242188 -12.171875 53.296875 -12.171875 C 62.742188 -12.171875 70.328125 -15.5 76.046875 -22.15625 C 81.773438 -28.8125 84.640625 -37.328125 84.640625 -47.703125 C 84.640625 -57.691406 81.675781 -65.84375 75.75 -72.15625 C 69.832031 -78.476562 62.28125 -81.640625 53.09375 -81.640625 Z M 53.09375 -81.640625 "/></g></g></g><g fill="#000000" fill-opacity="1"><g transform="translate(1373.611726, 3077.000899)"><g><path d="M 34.140625 -93.828125 L 34.140625 0 L 18.171875 0 L 18.171875 -93.828125 Z M 14.765625 -129.5625 C 14.765625 -132.488281 15.929688 -135.046875 18.265625 -137.234375 C 20.597656 -139.429688 23.226562 -140.53125 26.15625 -140.53125 C 29.21875 -140.53125 31.878906 -139.429688 34.140625 -137.234375 C 36.398438 -135.046875 37.53125 -132.488281 37.53125 -129.5625 C 37.53125 -126.09375 36.398438 -123.257812 34.140625 -121.0625 C 31.878906 -118.875 29.21875 -117.78125 26.15625 -117.78125 C 23.09375 -117.78125 20.425781 -118.84375 18.15625 -120.96875 C 15.894531 -123.101562 14.765625 -125.96875 14.765625 -129.5625 Z M 14.765625 -129.5625 "/></g></g></g><g fill="#000000" fill-opacity="1"><g transform="translate(1425.914161, 3077.000899)"><g><path d="M 53.09375 -72.0625 C 51.632812 -75.125 49.769531 -77.484375 47.5 -79.140625 C 45.238281 -80.804688 42.847656 -81.640625 40.328125 -81.640625 C 37.398438 -81.640625 34.738281 -80.609375 32.34375 -78.546875 C 29.945312 -76.484375 28.75 -74.054688 28.75 -71.265625 C 28.75 -65.804688 33.972656 -61.179688 44.421875 -57.390625 C 54.867188 -53.597656 62.117188 -49.4375 66.171875 -44.90625 C 70.234375 -40.382812 72.265625 -34.734375 72.265625 -27.953125 C 72.265625 -22.753906 71.066406 -17.894531 68.671875 -13.375 C 66.273438 -8.851562 62.582031 -5.0625 57.59375 -2 C 52.601562 1.0625 46.914062 2.59375 40.53125 2.59375 C 32.8125 2.59375 26.019531 0.53125 20.15625 -3.59375 C 14.300781 -7.71875 10.046875 -13.570312 7.390625 -21.15625 L 21.5625 -27.15625 C 23.957031 -21.5625 26.648438 -17.664062 29.640625 -15.46875 C 32.640625 -13.269531 36.332031 -12.171875 40.71875 -12.171875 C 45.25 -12.171875 48.910156 -13.535156 51.703125 -16.265625 C 54.492188 -18.992188 55.890625 -22.421875 55.890625 -26.546875 C 55.890625 -30.003906 54.625 -33.03125 52.09375 -35.625 C 49.570312 -38.226562 44.945312 -40.859375 38.21875 -43.515625 C 31.5 -46.179688 26.28125 -48.84375 22.5625 -51.5 C 16.707031 -55.757812 13.710938 -61.882812 13.578125 -69.875 C 13.578125 -77.320312 16.238281 -83.609375 21.5625 -88.734375 C 26.882812 -93.859375 33.535156 -96.421875 41.515625 -96.421875 C 46.578125 -96.421875 51.4375 -94.820312 56.09375 -91.625 C 60.75 -88.4375 64.207031 -84.242188 66.46875 -79.046875 Z M 53.09375 -72.0625 "/></g></g></g><g fill="#000000" fill-opacity="1"><g transform="translate(1505.56553, 3077.000899)"><g><path d="M 31.9375 -127.5625 L 31.9375 -93.828125 L 48.703125 -93.828125 L 48.703125 -79.046875 L 31.9375 -79.046875 L 31.9375 0 L 15.96875 0 L 15.96875 -79.046875 L 6.1875 -79.046875 L 6.1875 -93.828125 L 15.96875 -93.828125 L 15.96875 -127.5625 Z M 31.9375 -127.5625 "/></g></g></g><g fill="#000000" fill-opacity="1"><g transform="translate(1553.476137, 3077.000899)"><g><path d="M 58.296875 -77.453125 C 56.691406 -78.648438 55.191406 -79.644531 53.796875 -80.4375 C 52.398438 -81.238281 50.703125 -81.640625 48.703125 -81.640625 C 42.710938 -81.640625 38.15625 -78.976562 35.03125 -73.65625 C 31.90625 -68.332031 30.34375 -59.75 30.34375 -47.90625 L 30.34375 0 L 14.375 0 L 14.375 -93.828125 L 30.34375 -93.828125 L 30.34375 -83.640625 L 30.75 -83.640625 C 34.601562 -88.828125 38.023438 -92.253906 41.015625 -93.921875 C 44.015625 -95.585938 47.507812 -96.421875 51.5 -96.421875 C 53.894531 -96.421875 56.320312 -96.019531 58.78125 -95.21875 C 61.25 -94.414062 63.613281 -93.351562 65.875 -92.03125 Z M 58.296875 -77.453125 "/></g></g></g><g fill="#000000" fill-opacity="1"><g transform="translate(1620.351364, 3077.000899)"><g><path d="M 84.84375 -80.453125 L 84.84375 -93.828125 L 100.8125 -93.828125 L 100.8125 0 L 84.84375 0 L 84.84375 -12.96875 L 84.4375 -12.96875 C 76.1875 -2.59375 65.410156 2.59375 52.109375 2.59375 C 39.054688 2.59375 28.304688 -2.195312 19.859375 -11.78125 C 11.410156 -21.363281 7.1875 -33.007812 7.1875 -46.71875 C 7.1875 -61.082031 11.441406 -72.957031 19.953125 -82.34375 C 28.472656 -91.726562 39.253906 -96.421875 52.296875 -96.421875 C 58.816406 -96.421875 64.835938 -95.019531 70.359375 -92.21875 C 75.890625 -89.425781 80.582031 -85.503906 84.4375 -80.453125 Z M 54.09375 -81.640625 C 45.582031 -81.640625 38.363281 -78.378906 32.4375 -71.859375 C 26.519531 -65.335938 23.5625 -57.351562 23.5625 -47.90625 C 23.5625 -37.789062 26.453125 -29.304688 32.234375 -22.453125 C 38.023438 -15.597656 45.378906 -12.171875 54.296875 -12.171875 C 63.742188 -12.171875 71.328125 -15.429688 77.046875 -21.953125 C 82.773438 -28.472656 85.640625 -37.054688 85.640625 -47.703125 C 85.640625 -57.421875 82.710938 -65.503906 76.859375 -71.953125 C 71.003906 -78.410156 63.414062 -81.640625 54.09375 -81.640625 Z M 54.09375 -81.640625 "/></g></g></g><g fill="#000000" fill-opacity="1"><g transform="translate(1735.536462, 3077.000899)"><g><path d="M 31.9375 -127.5625 L 31.9375 -93.828125 L 48.703125 -93.828125 L 48.703125 -79.046875 L 31.9375 -79.046875 L 31.9375 0 L 15.96875 0 L 15.96875 -79.046875 L 6.1875 -79.046875 L 6.1875 -93.828125 L 15.96875 -93.828125 L 15.96875 -127.5625 Z M 31.9375 -127.5625 "/></g></g></g><g fill="#000000" fill-opacity="1"><g transform="translate(1783.44707, 3077.000899)"><g><path d="M 34.140625 -93.828125 L 34.140625 0 L 18.171875 0 L 18.171875 -93.828125 Z M 14.765625 -129.5625 C 14.765625 -132.488281 15.929688 -135.046875 18.265625 -137.234375 C 20.597656 -139.429688 23.226562 -140.53125 26.15625 -140.53125 C 29.21875 -140.53125 31.878906 -139.429688 34.140625 -137.234375 C 36.398438 -135.046875 37.53125 -132.488281 37.53125 -129.5625 C 37.53125 -126.09375 36.398438 -123.257812 34.140625 -121.0625 C 31.878906 -118.875 29.21875 -117.78125 26.15625 -117.78125 C 23.09375 -117.78125 20.425781 -118.84375 18.15625 -120.96875 C 15.894531 -123.101562 14.765625 -125.96875 14.765625 -129.5625 Z M 14.765625 -129.5625 "/></g></g></g><g fill="#000000" fill-opacity="1"><g transform="translate(1835.749505, 3077.000899)"><g><path d="M 6.78125 -46.71875 C 6.78125 -55.632812 8.976562 -63.953125 13.375 -71.671875 C 17.769531 -79.390625 23.757812 -85.441406 31.34375 -89.828125 C 38.925781 -94.222656 47.175781 -96.421875 56.09375 -96.421875 C 65.007812 -96.421875 73.226562 -94.222656 80.75 -89.828125 C 88.269531 -85.441406 94.257812 -79.421875 98.71875 -71.765625 C 103.175781 -64.109375 105.40625 -55.757812 105.40625 -46.71875 C 105.40625 -37.800781 103.207031 -29.515625 98.8125 -21.859375 C 94.425781 -14.203125 88.4375 -8.210938 80.84375 -3.890625 C 73.257812 0.429688 65.007812 2.59375 56.09375 2.59375 C 47.175781 2.59375 38.890625 0.398438 31.234375 -3.984375 C 23.585938 -8.378906 17.597656 -14.398438 13.265625 -22.046875 C 8.941406 -29.703125 6.78125 -37.925781 6.78125 -46.71875 Z M 55.890625 -81.640625 C 46.441406 -81.640625 38.554688 -78.28125 32.234375 -71.5625 C 25.910156 -64.84375 22.75 -56.625 22.75 -46.90625 C 22.75 -39.71875 24.476562 -33.363281 27.9375 -27.84375 C 31.40625 -22.320312 35.632812 -18.328125 40.625 -15.859375 C 45.613281 -13.398438 50.769531 -12.171875 56.09375 -12.171875 C 62.21875 -12.171875 67.804688 -13.601562 72.859375 -16.46875 C 77.921875 -19.332031 81.945312 -23.457031 84.9375 -28.84375 C 87.9375 -34.238281 89.4375 -40.257812 89.4375 -46.90625 C 89.4375 -53.03125 88.070312 -58.753906 85.34375 -64.078125 C 82.613281 -69.398438 78.648438 -73.65625 73.453125 -76.84375 C 68.265625 -80.039062 62.410156 -81.640625 55.890625 -81.640625 Z M 55.890625 -81.640625 "/></g></g></g><g fill="#000000" fill-opacity="1"><g transform="translate(1947.940162, 3077.000899)"><g><path d="M 90.234375 0 L 74.265625 0 L 74.265625 -54.703125 C 74.265625 -64.148438 72.832031 -71 69.96875 -75.25 C 67.101562 -79.507812 61.945312 -81.640625 54.5 -81.640625 C 45.976562 -81.640625 39.953125 -78.710938 36.421875 -72.859375 C 32.898438 -67.003906 31.140625 -58.085938 31.140625 -46.109375 L 31.140625 0 L 15.171875 0 L 15.171875 -93.828125 L 31.140625 -93.828125 L 31.140625 -82.4375 L 31.546875 -82.4375 C 34.867188 -86.96875 38.691406 -90.429688 43.015625 -92.828125 C 47.335938 -95.222656 52.429688 -96.421875 58.296875 -96.421875 C 68.804688 -96.421875 76.753906 -93.191406 82.140625 -86.734375 C 87.535156 -80.285156 90.234375 -70.269531 90.234375 -56.6875 Z M 90.234375 0 "/></g></g></g></svg>