<svg xmlns="http://www.w3.org/2000/svg" xmlns:xlink="http://www.w3.org/1999/xlink" width="500" zoomAndPan="magnify" viewBox="0 0 375 749.999995" height="1000" preserveAspectRatio="xMidYMid meet" version="1.0"><defs><g/><clipPath id="7aae9e7447"><path d="M 9.375 0.0078125 L 308.625 0.0078125 L 308.625 531.75 L 9.375 531.75 Z M 9.375 0.0078125 " clip-rule="nonzero"/></clipPath><clipPath id="31b9842613"><path d="M 45.335938 0.0078125 L 272.664062 0.0078125 C 282.203125 0.0078125 291.347656 3.800781 298.09375 10.554688 C 304.835938 17.308594 308.625 26.46875 308.625 36.019531 L 308.625 495.730469 C 308.625 505.28125 304.835938 514.441406 298.09375 521.195312 C 291.347656 527.949219 282.203125 531.742188 272.664062 531.742188 L 45.335938 531.742188 C 35.796875 531.742188 26.652344 527.949219 19.90625 521.195312 C 13.164062 514.441406 9.375 505.28125 9.375 495.730469 L 9.375 36.019531 C 9.375 16.128906 25.476562 0.0078125 45.335938 0.0078125 " clip-rule="nonzero"/></clipPath><clipPath id="b426430fd6"><path d="M 155 59.34375 L 223 59.34375 L 223 160 L 155 160 Z M 155 59.34375 " clip-rule="nonzero"/></clipPath><clipPath id="ac4f2f111e"><path d="M 50.238281 171 L 118 171 L 118 272 L 50.238281 272 Z M 50.238281 171 " clip-rule="nonzero"/></clipPath><clipPath id="277ce7e4bb"><path d="M 211 318 L 257 318 L 257 344.34375 L 211 344.34375 Z M 211 318 " clip-rule="nonzero"/></clipPath><clipPath id="003fc05d28"><path d="M 200 222 L 267.738281 222 L 267.738281 324 L 200 324 Z M 200 222 " clip-rule="nonzero"/></clipPath></defs><rect x="-37.5" width="450" fill="#ffffff" y="-74.999999" height="899.999994" fill-opacity="1"/><rect x="-37.5" width="450" fill="#ffffff" y="-74.999999" height="899.999994" fill-opacity="1"/><rect x="-37.5" width="450" fill="#ffffff" y="-74.999999" height="899.999994" fill-opacity="1"/><g clip-path="url(#7aae9e7447)"><g clip-path="url(#31b9842613)"><path stroke-linecap="butt" transform="matrix(0.749208, 0, 0, 0.750281, 9.375001, 0.00655119)" fill="none" stroke-linejoin="miter" d="M 47.998615 0.00168112 L 351.423281 0.00168112 C 364.15548 0.00168112 376.36108 5.057078 385.365383 14.058912 C 394.364472 23.060747 399.421897 35.269713 399.421897 47.999317 L 399.421897 660.717587 C 399.421897 673.447191 394.364472 685.656157 385.365383 694.657991 C 376.36108 703.659826 364.15548 708.715222 351.423281 708.715222 L 47.998615 708.715222 C 35.266416 708.715222 23.060816 703.659826 14.056513 694.657991 C 5.057424 685.656157 -0.00000115872 673.447191 -0.00000115872 660.717587 L -0.00000115872 47.999317 C -0.00000115872 21.48842 21.49145 0.00168112 47.998615 0.00168112 " stroke="#082a71" stroke-width="8" stroke-opacity="1" stroke-miterlimit="4"/></g></g><path fill="#082a71" d="M 183.800781 178.390625 C 185.132812 176.886719 184.96875 174.550781 183.46875 173.046875 C 181.96875 171.710938 179.472656 171.878906 178.140625 173.382812 L 96.203125 271.539062 C 94.871094 273.042969 95.035156 275.546875 96.535156 276.882812 C 98.199219 278.21875 100.53125 278.050781 101.863281 276.546875 Z M 101.363281 281.054688 C 99.367188 280.386719 97.367188 281.390625 96.535156 283.394531 C 95.867188 285.230469 96.867188 287.398438 98.867188 288.066406 L 213.945312 329.632812 C 215.945312 330.300781 218.109375 329.300781 218.773438 327.464844 C 219.441406 325.460938 218.441406 323.289062 216.441406 322.625 Z M 101.363281 281.054688 " fill-opacity="1" fill-rule="nonzero"/><path fill="#082a71" d="M 175.808594 155.019531 C 174.308594 155.6875 172.808594 156.519531 171.644531 157.355469 C 168.3125 159.859375 166.316406 163.03125 166.316406 166.539062 C 166.316406 170.878906 169.3125 174.71875 173.976562 177.222656 C 177.804688 179.390625 183.300781 180.726562 189.128906 180.726562 C 194.960938 180.726562 200.457031 179.390625 204.453125 177.222656 C 209.117188 174.71875 211.945312 170.878906 211.945312 166.539062 C 211.945312 163.03125 209.949219 159.859375 206.617188 157.355469 C 205.453125 156.519531 203.953125 155.6875 202.453125 155.019531 C 201.621094 156.519531 200.789062 158.023438 199.957031 159.527344 L 199.121094 161.027344 C 196.292969 166.539062 189.464844 168.707031 183.800781 165.871094 C 181.636719 164.703125 179.972656 162.863281 178.972656 160.695312 C 177.972656 158.691406 176.972656 156.855469 175.808594 155.019531 Z M 175.808594 155.019531 " fill-opacity="1" fill-rule="nonzero"/><g clip-path="url(#b426430fd6)"><path fill="#082a71" d="M 222.9375 93.253906 C 222.9375 83.902344 219.109375 75.390625 212.945312 69.378906 C 206.949219 63.203125 198.457031 59.363281 189.128906 59.363281 C 179.804688 59.363281 171.3125 63.203125 165.316406 69.378906 C 159.152344 75.390625 155.324219 83.902344 155.324219 93.253906 C 155.324219 103.101562 168.3125 126.640625 177.972656 143.5 C 178.472656 144.503906 179.136719 145.503906 179.636719 146.503906 C 182.136719 150.84375 184.300781 154.683594 185.632812 157.355469 C 185.964844 158.023438 186.632812 158.691406 187.464844 159.191406 C 189.296875 160.027344 191.460938 159.359375 192.460938 157.523438 C 193.960938 154.851562 196.125 151.011719 198.625 146.503906 C 199.121094 145.503906 199.789062 144.503906 200.289062 143.5 C 209.949219 126.640625 222.9375 103.101562 222.9375 93.253906 Z M 177.304688 81.234375 C 180.304688 78.226562 184.46875 76.390625 189.128906 76.390625 C 198.457031 76.390625 205.949219 83.902344 205.949219 93.085938 C 205.949219 97.757812 203.953125 101.933594 200.953125 104.9375 C 197.957031 107.941406 193.792969 109.945312 189.128906 109.945312 C 179.972656 109.945312 172.308594 102.433594 172.308594 93.085938 C 172.308594 88.410156 174.308594 84.238281 177.304688 81.234375 Z M 177.304688 81.234375 " fill-opacity="1" fill-rule="evenodd"/></g><path fill="#082a71" d="M 70.722656 267.035156 C 69.054688 267.699219 67.722656 268.535156 66.390625 269.371094 C 63.226562 271.875 61.230469 275.046875 61.230469 278.550781 C 61.230469 282.890625 64.058594 286.730469 68.722656 289.234375 C 72.71875 291.40625 78.050781 292.742188 84.042969 292.742188 C 89.875 292.742188 95.203125 291.40625 99.199219 289.234375 C 103.863281 286.730469 106.695312 282.890625 106.695312 278.550781 C 106.695312 275.046875 104.695312 271.875 101.53125 269.371094 C 100.199219 268.535156 98.867188 267.699219 97.199219 267.035156 C 96.367188 268.535156 95.535156 270.039062 94.703125 271.539062 L 93.871094 273.042969 C 91.039062 278.550781 84.210938 280.722656 78.714844 277.882812 C 76.550781 276.714844 74.886719 274.878906 73.71875 272.710938 C 72.886719 270.707031 71.71875 268.871094 70.722656 267.035156 Z M 70.722656 267.035156 " fill-opacity="1" fill-rule="nonzero"/><g clip-path="url(#ac4f2f111e)"><path fill="#082a71" d="M 117.683594 205.265625 C 117.683594 195.917969 114.023438 187.40625 107.859375 181.394531 C 101.699219 175.21875 93.371094 171.378906 84.042969 171.378906 C 74.71875 171.378906 66.226562 175.21875 60.0625 181.394531 C 53.902344 187.40625 50.238281 195.917969 50.238281 205.265625 C 50.238281 215.117188 63.226562 238.652344 72.71875 255.515625 C 73.386719 256.515625 73.886719 257.519531 74.550781 258.519531 C 76.882812 262.859375 79.046875 266.699219 80.546875 269.371094 C 80.878906 270.039062 81.378906 270.707031 82.210938 271.207031 C 84.042969 272.042969 86.375 271.375 87.207031 269.539062 C 88.707031 266.867188 90.871094 263.027344 93.371094 258.519531 C 94.035156 257.519531 94.535156 256.515625 95.203125 255.515625 C 104.695312 238.652344 117.683594 215.117188 117.683594 205.265625 Z M 72.054688 193.246094 C 75.21875 190.242188 79.382812 188.40625 84.042969 188.40625 C 93.203125 188.40625 100.699219 195.917969 100.699219 205.101562 C 100.699219 209.773438 98.867188 213.949219 95.867188 216.953125 C 92.703125 219.957031 88.542969 221.960938 84.042969 221.960938 C 74.71875 221.960938 67.222656 214.449219 67.222656 205.101562 C 67.222656 200.425781 69.054688 196.253906 72.054688 193.246094 Z M 72.054688 193.246094 " fill-opacity="1" fill-rule="evenodd"/></g><g clip-path="url(#277ce7e4bb)"><path fill="#082a71" d="M 220.605469 318.617188 C 219.109375 319.285156 217.609375 320.121094 216.441406 320.953125 C 213.113281 323.457031 211.113281 326.628906 211.113281 330.136719 C 211.113281 334.476562 213.945312 338.316406 218.609375 340.820312 C 222.605469 342.988281 228.101562 344.324219 233.929688 344.324219 C 239.757812 344.324219 245.085938 342.988281 249.085938 340.820312 C 253.746094 338.316406 256.746094 334.476562 256.746094 330.136719 C 256.746094 326.628906 254.746094 323.457031 251.417969 320.953125 C 250.25 320.121094 248.75 319.285156 247.253906 318.617188 C 246.421875 320.121094 245.421875 321.621094 244.589844 323.125 L 243.921875 324.625 C 240.925781 330.300781 234.097656 332.304688 228.601562 329.46875 C 226.433594 328.300781 224.769531 326.460938 223.769531 324.292969 C 222.773438 322.457031 221.773438 320.453125 220.605469 318.617188 Z M 220.605469 318.617188 " fill-opacity="1" fill-rule="nonzero"/></g><g clip-path="url(#003fc05d28)"><path fill="#082a71" d="M 267.738281 256.851562 C 267.738281 247.5 263.90625 239.15625 257.746094 232.976562 C 251.75 226.800781 243.253906 222.960938 233.929688 222.960938 C 224.601562 222.960938 216.109375 226.800781 209.949219 232.976562 C 203.953125 239.15625 200.121094 247.5 200.121094 256.851562 C 200.121094 266.699219 213.113281 290.238281 222.605469 307.097656 C 223.269531 308.101562 223.9375 309.101562 224.4375 310.101562 C 226.933594 314.441406 229.101562 318.28125 230.433594 320.953125 C 230.765625 321.789062 231.429688 322.289062 232.097656 322.789062 C 233.929688 323.792969 236.261719 322.957031 237.261719 321.121094 C 238.59375 318.449219 240.757812 314.609375 243.421875 310.101562 C 243.921875 309.101562 244.589844 308.101562 245.085938 307.097656 C 254.582031 290.238281 267.738281 266.699219 267.738281 256.851562 Z M 222.105469 244.832031 C 225.101562 241.824219 229.265625 239.988281 233.929688 239.988281 C 243.089844 239.988281 250.582031 247.5 250.582031 256.683594 C 250.582031 261.359375 248.75 265.53125 245.753906 268.535156 C 242.757812 271.707031 238.59375 273.542969 233.929688 273.542969 C 224.601562 273.542969 217.109375 266.03125 217.109375 256.683594 C 217.109375 252.175781 218.941406 247.835938 222.105469 244.832031 Z M 222.105469 244.832031 " fill-opacity="1" fill-rule="evenodd"/></g><g fill="#082a71" fill-opacity="1"><g transform="translate(63.468748, 407.85)"><g><path d="M 22.109375 -27.609375 L 22.109375 -23.171875 L 13.65625 -23.171875 L 13.65625 0 L 8.734375 0 L 8.734375 -23.171875 L 0.265625 -23.171875 L 0.265625 -27.609375 Z M 22.109375 -27.609375 "/></g></g></g><g fill="#082a71" fill-opacity="1"><g transform="translate(85.854764, 407.85)"><g><path d="M 12.953125 -19.1875 C 13.335938 -19.1875 13.894531 -19.097656 14.625 -18.921875 L 14.625 -14.390625 C 13.820312 -14.617188 13.066406 -14.734375 12.359375 -14.734375 C 10.828125 -14.734375 9.601562 -14.28125 8.6875 -13.375 C 7.78125 -12.46875 7.328125 -11.257812 7.328125 -9.75 L 7.328125 0 L 2.65625 0 L 2.65625 -18.71875 L 7.328125 -18.71875 L 7.328125 -15.75 L 7.40625 -15.75 C 7.925781 -16.84375 8.664062 -17.6875 9.625 -18.28125 C 10.59375 -18.882812 11.703125 -19.1875 12.953125 -19.1875 Z M 12.953125 -19.1875 "/></g></g></g><g fill="#082a71" fill-opacity="1"><g transform="translate(101.025772, 407.85)"><g><path d="M 10.5625 -19.1875 C 13.25 -19.1875 15.253906 -18.539062 16.578125 -17.25 C 17.898438 -15.96875 18.5625 -13.945312 18.5625 -11.1875 L 18.5625 0 L 14.359375 0 L 14.359375 -2.578125 L 14.234375 -2.578125 C 12.960938 -0.546875 10.960938 0.46875 8.234375 0.46875 C 6.203125 0.46875 4.554688 -0.0546875 3.296875 -1.109375 C 2.035156 -2.160156 1.40625 -3.503906 1.40625 -5.140625 C 1.40625 -7.328125 2.3125 -8.957031 4.125 -10.03125 C 5.945312 -11.113281 8.875 -11.65625 12.90625 -11.65625 L 14.359375 -11.65625 L 14.359375 -12.203125 C 14.359375 -13.296875 13.96875 -14.144531 13.1875 -14.75 C 12.40625 -15.363281 11.363281 -15.671875 10.0625 -15.671875 C 8.132812 -15.671875 6.46875 -15.023438 5.0625 -13.734375 L 2.609375 -16.1875 C 4.554688 -18.1875 7.207031 -19.1875 10.5625 -19.1875 Z M 6.078125 -5.5 C 6.078125 -4.695312 6.410156 -4.085938 7.078125 -3.671875 C 7.742188 -3.253906 8.519531 -3.046875 9.40625 -3.046875 C 11.007812 -3.046875 12.1875 -3.441406 12.9375 -4.234375 C 13.695312 -5.023438 14.078125 -6.019531 14.078125 -7.21875 L 14.078125 -8.390625 L 12.71875 -8.390625 C 8.289062 -8.390625 6.078125 -7.425781 6.078125 -5.5 Z M 6.078125 -5.5 "/></g></g></g><g fill="#082a71" fill-opacity="1"><g transform="translate(121.96879, 407.85)"><g><path d="M 11.890625 -19.1875 C 14.722656 -19.1875 16.988281 -18.238281 18.6875 -16.34375 L 15.4375 -13.109375 C 14.269531 -14.347656 13.085938 -14.96875 11.890625 -14.96875 C 10.234375 -14.96875 8.898438 -14.414062 7.890625 -13.3125 C 6.890625 -12.207031 6.390625 -10.890625 6.390625 -9.359375 C 6.390625 -7.691406 6.914062 -6.335938 7.96875 -5.296875 C 9.03125 -4.265625 10.335938 -3.75 11.890625 -3.75 C 13.398438 -3.75 14.609375 -4.332031 15.515625 -5.5 L 18.640625 -2.140625 C 17.910156 -1.410156 16.914062 -0.789062 15.65625 -0.28125 C 14.394531 0.21875 13.140625 0.46875 11.890625 0.46875 C 9.035156 0.46875 6.625 -0.4375 4.65625 -2.25 C 2.695312 -4.070312 1.71875 -6.441406 1.71875 -9.359375 C 1.71875 -12.191406 2.675781 -14.535156 4.59375 -16.390625 C 6.519531 -18.253906 8.953125 -19.1875 11.890625 -19.1875 Z M 11.890625 -19.1875 "/></g></g></g><g fill="#082a71" fill-opacity="1"><g transform="translate(140.766809, 407.85)"><g><path d="M 7.328125 -29.484375 L 7.328125 -10.953125 L 14.546875 -18.71875 L 20.546875 -18.71875 L 12.515625 -10.21875 L 21.0625 0 L 14.859375 0 L 7.40625 -9.5625 L 7.328125 -9.5625 L 7.328125 0 L 2.65625 0 L 2.65625 -29.484375 Z M 7.328125 -29.484375 "/></g></g></g><g fill="#082a71" fill-opacity="1"><g transform="translate(161.709827, 407.85)"><g/></g></g><g fill="#082a71" fill-opacity="1"><g transform="translate(173.253837, 407.85)"><g><path d="M 5.265625 -18.71875 L 10.484375 -5.734375 L 10.5625 -5.734375 L 15.25 -18.71875 L 20.125 -18.71875 L 11.578125 3.203125 C 10.742188 5.222656 10.039062 6.570312 9.46875 7.25 C 8.90625 7.925781 8.207031 8.445312 7.375 8.8125 C 6.539062 9.175781 5.460938 9.359375 4.140625 9.359375 C 2.910156 9.359375 1.710938 9.203125 0.546875 8.890625 L 1.125 4.6875 C 2.007812 4.988281 2.804688 5.140625 3.515625 5.140625 C 4.472656 5.140625 5.203125 4.976562 5.703125 4.65625 C 6.210938 4.332031 6.742188 3.507812 7.296875 2.1875 L 8.109375 0.15625 L 0.109375 -18.71875 Z M 5.265625 -18.71875 "/></g></g></g><g fill="#082a71" fill-opacity="1"><g transform="translate(193.494853, 407.85)"><g><path d="M 11.890625 -19.1875 C 14.753906 -19.1875 17.164062 -18.273438 19.125 -16.453125 C 21.09375 -14.640625 22.078125 -12.273438 22.078125 -9.359375 C 22.078125 -6.441406 21.09375 -4.070312 19.125 -2.25 C 17.164062 -0.4375 14.753906 0.46875 11.890625 0.46875 C 9.035156 0.46875 6.625 -0.4375 4.65625 -2.25 C 2.695312 -4.070312 1.71875 -6.441406 1.71875 -9.359375 C 1.71875 -12.273438 2.695312 -14.640625 4.65625 -16.453125 C 6.625 -18.273438 9.035156 -19.1875 11.890625 -19.1875 Z M 6.390625 -9.359375 C 6.390625 -7.691406 6.914062 -6.335938 7.96875 -5.296875 C 9.03125 -4.265625 10.335938 -3.75 11.890625 -3.75 C 13.484375 -3.75 14.796875 -4.273438 15.828125 -5.328125 C 16.867188 -6.378906 17.390625 -7.722656 17.390625 -9.359375 C 17.390625 -11.023438 16.863281 -12.375 15.8125 -13.40625 C 14.757812 -14.445312 13.441406 -14.96875 11.859375 -14.96875 C 10.328125 -14.96875 9.03125 -14.4375 7.96875 -13.375 C 6.914062 -12.3125 6.390625 -10.972656 6.390625 -9.359375 Z M 6.390625 -9.359375 "/></g></g></g><g fill="#082a71" fill-opacity="1"><g transform="translate(217.284875, 407.85)"><g><path d="M 7.328125 -18.71875 L 7.328125 -9.046875 C 7.328125 -7.171875 7.613281 -5.816406 8.1875 -4.984375 C 8.757812 -4.160156 9.617188 -3.75 10.765625 -3.75 C 12.171875 -3.75 13.234375 -4.175781 13.953125 -5.03125 C 14.679688 -5.882812 15.046875 -7.039062 15.046875 -8.5 L 15.046875 -18.71875 L 19.734375 -18.71875 L 19.734375 0 L 15.28125 0 L 15.28125 -3 L 15.203125 -3 C 14.117188 -0.6875 12.210938 0.46875 9.484375 0.46875 C 7.367188 0.46875 5.703125 -0.160156 4.484375 -1.421875 C 3.265625 -2.679688 2.65625 -4.457031 2.65625 -6.75 L 2.65625 -18.71875 Z M 7.328125 -18.71875 "/></g></g></g><g fill="#082a71" fill-opacity="1"><g transform="translate(239.670891, 407.85)"><g><path d="M 12.953125 -19.1875 C 13.335938 -19.1875 13.894531 -19.097656 14.625 -18.921875 L 14.625 -14.390625 C 13.820312 -14.617188 13.066406 -14.734375 12.359375 -14.734375 C 10.828125 -14.734375 9.601562 -14.28125 8.6875 -13.375 C 7.78125 -12.46875 7.328125 -11.257812 7.328125 -9.75 L 7.328125 0 L 2.65625 0 L 2.65625 -18.71875 L 7.328125 -18.71875 L 7.328125 -15.75 L 7.40625 -15.75 C 7.925781 -16.84375 8.664062 -17.6875 9.625 -18.28125 C 10.59375 -18.882812 11.703125 -19.1875 12.953125 -19.1875 Z M 12.953125 -19.1875 "/></g></g></g><g fill="#082a71" fill-opacity="1"><g transform="translate(58.359373, 461.849997)"><g><path d="M 10.5625 -19.1875 C 13.25 -19.1875 15.253906 -18.539062 16.578125 -17.25 C 17.898438 -15.96875 18.5625 -13.945312 18.5625 -11.1875 L 18.5625 0 L 14.359375 0 L 14.359375 -2.578125 L 14.234375 -2.578125 C 12.960938 -0.546875 10.960938 0.46875 8.234375 0.46875 C 6.203125 0.46875 4.554688 -0.0546875 3.296875 -1.109375 C 2.035156 -2.160156 1.40625 -3.503906 1.40625 -5.140625 C 1.40625 -7.328125 2.3125 -8.957031 4.125 -10.03125 C 5.945312 -11.113281 8.875 -11.65625 12.90625 -11.65625 L 14.359375 -11.65625 L 14.359375 -12.203125 C 14.359375 -13.296875 13.96875 -14.144531 13.1875 -14.75 C 12.40625 -15.363281 11.363281 -15.671875 10.0625 -15.671875 C 8.132812 -15.671875 6.46875 -15.023438 5.0625 -13.734375 L 2.609375 -16.1875 C 4.554688 -18.1875 7.207031 -19.1875 10.5625 -19.1875 Z M 6.078125 -5.5 C 6.078125 -4.695312 6.410156 -4.085938 7.078125 -3.671875 C 7.742188 -3.253906 8.519531 -3.046875 9.40625 -3.046875 C 11.007812 -3.046875 12.1875 -3.441406 12.9375 -4.234375 C 13.695312 -5.023438 14.078125 -6.019531 14.078125 -7.21875 L 14.078125 -8.390625 L 12.71875 -8.390625 C 8.289062 -8.390625 6.078125 -7.425781 6.078125 -5.5 Z M 6.078125 -5.5 "/></g></g></g><g fill="#082a71" fill-opacity="1"><g transform="translate(79.302392, 461.849997)"><g><path d="M 13.65625 -19.1875 C 16.351562 -19.1875 18.5625 -18.273438 20.28125 -16.453125 C 22 -14.640625 22.859375 -12.273438 22.859375 -9.359375 C 22.859375 -6.578125 22.019531 -4.242188 20.34375 -2.359375 C 18.664062 -0.472656 16.488281 0.46875 13.8125 0.46875 C 11.082031 0.46875 8.960938 -0.476562 7.453125 -2.375 L 7.328125 -2.375 L 7.328125 8.890625 L 2.65625 8.890625 L 2.65625 -18.71875 L 7.09375 -18.71875 L 7.09375 -15.90625 L 7.171875 -15.90625 C 8.554688 -18.09375 10.71875 -19.1875 13.65625 -19.1875 Z M 7.171875 -9.359375 C 7.171875 -7.742188 7.679688 -6.40625 8.703125 -5.34375 C 9.734375 -4.28125 11.054688 -3.75 12.671875 -3.75 C 14.203125 -3.75 15.5 -4.273438 16.5625 -5.328125 C 17.632812 -6.378906 18.171875 -7.722656 18.171875 -9.359375 C 18.171875 -10.941406 17.644531 -12.269531 16.59375 -13.34375 C 15.539062 -14.425781 14.222656 -14.96875 12.640625 -14.96875 C 11.097656 -14.96875 9.800781 -14.4375 8.75 -13.375 C 7.695312 -12.3125 7.171875 -10.972656 7.171875 -9.359375 Z M 7.171875 -9.359375 "/></g></g></g><g fill="#082a71" fill-opacity="1"><g transform="translate(103.87241, 461.849997)"><g><path d="M 13.65625 -19.1875 C 16.351562 -19.1875 18.5625 -18.273438 20.28125 -16.453125 C 22 -14.640625 22.859375 -12.273438 22.859375 -9.359375 C 22.859375 -6.578125 22.019531 -4.242188 20.34375 -2.359375 C 18.664062 -0.472656 16.488281 0.46875 13.8125 0.46875 C 11.082031 0.46875 8.960938 -0.476562 7.453125 -2.375 L 7.328125 -2.375 L 7.328125 8.890625 L 2.65625 8.890625 L 2.65625 -18.71875 L 7.09375 -18.71875 L 7.09375 -15.90625 L 7.171875 -15.90625 C 8.554688 -18.09375 10.71875 -19.1875 13.65625 -19.1875 Z M 7.171875 -9.359375 C 7.171875 -7.742188 7.679688 -6.40625 8.703125 -5.34375 C 9.734375 -4.28125 11.054688 -3.75 12.671875 -3.75 C 14.203125 -3.75 15.5 -4.273438 16.5625 -5.328125 C 17.632812 -6.378906 18.171875 -7.722656 18.171875 -9.359375 C 18.171875 -10.941406 17.644531 -12.269531 16.59375 -13.34375 C 15.539062 -14.425781 14.222656 -14.96875 12.640625 -14.96875 C 11.097656 -14.96875 9.800781 -14.4375 8.75 -13.375 C 7.695312 -12.3125 7.171875 -10.972656 7.171875 -9.359375 Z M 7.171875 -9.359375 "/></g></g></g><g fill="#082a71" fill-opacity="1"><g transform="translate(128.442427, 461.849997)"><g><path d="M 7.40625 -29.484375 L 7.40625 0 L 2.734375 0 L 2.734375 -29.484375 Z M 7.40625 -29.484375 "/></g></g></g><g fill="#082a71" fill-opacity="1"><g transform="translate(138.582441, 461.849997)"><g><path d="M 5.03125 -27.890625 C 5.882812 -27.890625 6.601562 -27.617188 7.1875 -27.078125 C 7.78125 -26.546875 8.078125 -25.878906 8.078125 -25.078125 C 8.078125 -24.242188 7.773438 -23.566406 7.171875 -23.046875 C 6.578125 -22.523438 5.863281 -22.265625 5.03125 -22.265625 C 4.195312 -22.265625 3.492188 -22.546875 2.921875 -23.109375 C 2.347656 -23.671875 2.0625 -24.328125 2.0625 -25.078125 C 2.0625 -25.828125 2.347656 -26.484375 2.921875 -27.046875 C 3.492188 -27.609375 4.195312 -27.890625 5.03125 -27.890625 Z M 7.40625 -18.71875 L 7.40625 0 L 2.734375 0 L 2.734375 -18.71875 Z M 7.40625 -18.71875 "/></g></g></g><g fill="#082a71" fill-opacity="1"><g transform="translate(148.722455, 461.849997)"><g><path d="M 11.890625 -19.1875 C 14.722656 -19.1875 16.988281 -18.238281 18.6875 -16.34375 L 15.4375 -13.109375 C 14.269531 -14.347656 13.085938 -14.96875 11.890625 -14.96875 C 10.234375 -14.96875 8.898438 -14.414062 7.890625 -13.3125 C 6.890625 -12.207031 6.390625 -10.890625 6.390625 -9.359375 C 6.390625 -7.691406 6.914062 -6.335938 7.96875 -5.296875 C 9.03125 -4.265625 10.335938 -3.75 11.890625 -3.75 C 13.398438 -3.75 14.609375 -4.332031 15.515625 -5.5 L 18.640625 -2.140625 C 17.910156 -1.410156 16.914062 -0.789062 15.65625 -0.28125 C 14.394531 0.21875 13.140625 0.46875 11.890625 0.46875 C 9.035156 0.46875 6.625 -0.4375 4.65625 -2.25 C 2.695312 -4.070312 1.71875 -6.441406 1.71875 -9.359375 C 1.71875 -12.191406 2.675781 -14.535156 4.59375 -16.390625 C 6.519531 -18.253906 8.953125 -19.1875 11.890625 -19.1875 Z M 11.890625 -19.1875 "/></g></g></g><g fill="#082a71" fill-opacity="1"><g transform="translate(167.520474, 461.849997)"><g><path d="M 10.5625 -19.1875 C 13.25 -19.1875 15.253906 -18.539062 16.578125 -17.25 C 17.898438 -15.96875 18.5625 -13.945312 18.5625 -11.1875 L 18.5625 0 L 14.359375 0 L 14.359375 -2.578125 L 14.234375 -2.578125 C 12.960938 -0.546875 10.960938 0.46875 8.234375 0.46875 C 6.203125 0.46875 4.554688 -0.0546875 3.296875 -1.109375 C 2.035156 -2.160156 1.40625 -3.503906 1.40625 -5.140625 C 1.40625 -7.328125 2.3125 -8.957031 4.125 -10.03125 C 5.945312 -11.113281 8.875 -11.65625 12.90625 -11.65625 L 14.359375 -11.65625 L 14.359375 -12.203125 C 14.359375 -13.296875 13.96875 -14.144531 13.1875 -14.75 C 12.40625 -15.363281 11.363281 -15.671875 10.0625 -15.671875 C 8.132812 -15.671875 6.46875 -15.023438 5.0625 -13.734375 L 2.609375 -16.1875 C 4.554688 -18.1875 7.207031 -19.1875 10.5625 -19.1875 Z M 6.078125 -5.5 C 6.078125 -4.695312 6.410156 -4.085938 7.078125 -3.671875 C 7.742188 -3.253906 8.519531 -3.046875 9.40625 -3.046875 C 11.007812 -3.046875 12.1875 -3.441406 12.9375 -4.234375 C 13.695312 -5.023438 14.078125 -6.019531 14.078125 -7.21875 L 14.078125 -8.390625 L 12.71875 -8.390625 C 8.289062 -8.390625 6.078125 -7.425781 6.078125 -5.5 Z M 6.078125 -5.5 "/></g></g></g><g fill="#082a71" fill-opacity="1"><g transform="translate(188.463492, 461.849997)"><g><path d="M 9.015625 -24.140625 L 9.015625 -18.71875 L 14.15625 -18.71875 L 14.15625 -14.734375 L 9.015625 -14.734375 L 9.015625 -6.4375 C 9.015625 -4.488281 9.882812 -3.515625 11.625 -3.515625 C 12.789062 -3.515625 13.632812 -3.707031 14.15625 -4.09375 L 14.15625 -0.15625 C 13.269531 0.257812 12.035156 0.46875 10.453125 0.46875 C 8.296875 0.46875 6.734375 -0.00390625 5.765625 -0.953125 C 4.804688 -1.898438 4.328125 -3.570312 4.328125 -5.96875 L 4.328125 -14.734375 L 0.46875 -14.734375 L 0.46875 -18.71875 L 4.328125 -18.71875 L 4.328125 -24.140625 Z M 9.015625 -24.140625 "/></g></g></g><g fill="#082a71" fill-opacity="1"><g transform="translate(203.634501, 461.849997)"><g><path d="M 5.03125 -27.890625 C 5.882812 -27.890625 6.601562 -27.617188 7.1875 -27.078125 C 7.78125 -26.546875 8.078125 -25.878906 8.078125 -25.078125 C 8.078125 -24.242188 7.773438 -23.566406 7.171875 -23.046875 C 6.578125 -22.523438 5.863281 -22.265625 5.03125 -22.265625 C 4.195312 -22.265625 3.492188 -22.546875 2.921875 -23.109375 C 2.347656 -23.671875 2.0625 -24.328125 2.0625 -25.078125 C 2.0625 -25.828125 2.347656 -26.484375 2.921875 -27.046875 C 3.492188 -27.609375 4.195312 -27.890625 5.03125 -27.890625 Z M 7.40625 -18.71875 L 7.40625 0 L 2.734375 0 L 2.734375 -18.71875 Z M 7.40625 -18.71875 "/></g></g></g><g fill="#082a71" fill-opacity="1"><g transform="translate(213.774515, 461.849997)"><g><path d="M 11.890625 -19.1875 C 14.753906 -19.1875 17.164062 -18.273438 19.125 -16.453125 C 21.09375 -14.640625 22.078125 -12.273438 22.078125 -9.359375 C 22.078125 -6.441406 21.09375 -4.070312 19.125 -2.25 C 17.164062 -0.4375 14.753906 0.46875 11.890625 0.46875 C 9.035156 0.46875 6.625 -0.4375 4.65625 -2.25 C 2.695312 -4.070312 1.71875 -6.441406 1.71875 -9.359375 C 1.71875 -12.273438 2.695312 -14.640625 4.65625 -16.453125 C 6.625 -18.273438 9.035156 -19.1875 11.890625 -19.1875 Z M 6.390625 -9.359375 C 6.390625 -7.691406 6.914062 -6.335938 7.96875 -5.296875 C 9.03125 -4.265625 10.335938 -3.75 11.890625 -3.75 C 13.484375 -3.75 14.796875 -4.273438 15.828125 -5.328125 C 16.867188 -6.378906 17.390625 -7.722656 17.390625 -9.359375 C 17.390625 -11.023438 16.863281 -12.375 15.8125 -13.40625 C 14.757812 -14.445312 13.441406 -14.96875 11.859375 -14.96875 C 10.328125 -14.96875 9.03125 -14.4375 7.96875 -13.375 C 6.914062 -12.3125 6.390625 -10.972656 6.390625 -9.359375 Z M 6.390625 -9.359375 "/></g></g></g><g fill="#082a71" fill-opacity="1"><g transform="translate(237.564538, 461.849997)"><g><path d="M 12.90625 -19.1875 C 15.039062 -19.1875 16.710938 -18.546875 17.921875 -17.265625 C 19.128906 -15.992188 19.734375 -14.226562 19.734375 -11.96875 L 19.734375 0 L 15.046875 0 L 15.046875 -9.71875 C 15.046875 -13.21875 13.90625 -14.96875 11.625 -14.96875 C 10.300781 -14.96875 9.253906 -14.539062 8.484375 -13.6875 C 7.710938 -12.832031 7.328125 -11.703125 7.328125 -10.296875 L 7.328125 0 L 2.65625 0 L 2.65625 -18.71875 L 7.09375 -18.71875 L 7.09375 -15.71875 L 7.171875 -15.71875 C 8.242188 -18.03125 10.15625 -19.1875 12.90625 -19.1875 Z M 12.90625 -19.1875 "/></g></g></g></svg>