<svg xmlns="http://www.w3.org/2000/svg" xmlns:xlink="http://www.w3.org/1999/xlink" version="1.1" width="1024" height="1024" viewBox="0 0 1024 1024" xml:space="preserve">
<desc>Created with Fabric.js 3.5.0</desc>
<defs>
</defs>
<rect x="0" y="0" width="100%" height="100%" fill="#fff"/>
<g transform="matrix(1 0 0 1 508.8235 956.0174)" style="" id="563851">
		
<path xml:space="preserve" font-family="Lato" font-size="108" font-style="normal" font-weight="normal" style="stroke: none; stroke-width: 0; stroke-dasharray: none; stroke-linecap: butt; stroke-dashoffset: 0; stroke-linejoin: miter; stroke-miterlimit: 4; is-custom-font: none; font-file-url: none; fill: rgb(0,0,0); fill-rule: nonzero; opacity: 1; white-space: pre;" d="M-293.65-4.74L-293.65-4.74Q-293.65 3.96-296.41 11.09Q-299.16 18.21-304.18 23.29Q-309.20 28.37-316.22 31.15Q-323.24 33.93-331.78 33.93L-331.78 33.93L-360.72 33.93L-360.72-43.45L-331.78-43.45Q-323.24-43.45-316.22-40.67Q-309.20-37.89-304.18-32.79Q-299.16-27.69-296.41-20.56Q-293.65-13.43-293.65-4.74ZM-304.40-4.74L-304.40-4.74Q-304.40-11.86-306.34-17.48Q-308.29-23.10-311.85-26.98Q-315.41-30.87-320.49-32.92Q-325.57-34.98-331.78-34.98L-331.78-34.98L-350.19-34.98L-350.19 25.45L-331.78 25.45Q-325.57 25.45-320.49 23.40Q-315.41 21.35-311.85 17.48Q-308.29 13.62-306.34 8.01Q-304.40 2.39-304.40-4.74ZM-258.77-21.64L-258.77-21.64Q-252.77-21.64-247.94-19.64Q-243.11-17.64-239.73-13.97Q-236.36-10.30-234.55-5.09Q-232.74 0.12-232.74 6.55L-232.74 6.55Q-232.74 13.03-234.55 18.21Q-236.36 23.40-239.73 27.07Q-243.11 30.74-247.94 32.71Q-252.77 34.68-258.77 34.68L-258.77 34.68Q-264.76 34.68-269.59 32.71Q-274.43 30.74-277.83 27.07Q-281.23 23.40-283.07 18.21Q-284.90 13.03-284.90 6.55L-284.90 6.55Q-284.90 0.12-283.07-5.09Q-281.23-10.30-277.83-13.97Q-274.43-17.64-269.59-19.64Q-264.76-21.64-258.77-21.64ZM-258.77 27.18L-258.77 27.18Q-250.67 27.18-246.67 21.75Q-242.68 16.32-242.68 6.60L-242.68 6.60Q-242.68-3.17-246.67-8.62Q-250.67-14.08-258.77-14.08L-258.77-14.08Q-262.87-14.08-265.90-12.67Q-268.92-11.27-270.94-8.62Q-272.97-5.98-273.97-2.12Q-274.97 1.74-274.97 6.60L-274.97 6.60Q-274.97 11.46-273.97 15.30Q-272.97 19.13-270.94 21.75Q-268.92 24.37-265.90 25.77Q-262.87 27.18-258.77 27.18ZM-181.01-14.51L-183.55-11.05Q-183.98-10.46-184.41-10.14Q-184.84-9.81-185.65-9.81L-185.65-9.81Q-186.46-9.81-187.41-10.49Q-188.35-11.16-189.81-11.97Q-191.27-12.78-193.35-13.46Q-195.43-14.13-198.45-14.13L-198.45-14.13Q-202.45-14.13-205.52-12.70Q-208.60-11.27-210.68-8.57Q-212.76-5.87-213.81-2.04Q-214.87 1.80-214.87 6.55L-214.87 6.55Q-214.87 11.52-213.73 15.38Q-212.60 19.24-210.55 21.86Q-208.49 24.48-205.55 25.85Q-202.61 27.23-198.94 27.23L-198.94 27.23Q-195.43 27.23-193.16 26.39Q-190.89 25.56-189.38 24.53Q-187.87 23.51-186.89 22.67Q-185.92 21.83-184.95 21.83L-184.95 21.83Q-183.71 21.83-183.11 22.75L-183.11 22.75L-180.41 26.26Q-183.98 30.63-189.32 32.66Q-194.67 34.68-200.61 34.68L-200.61 34.68Q-205.74 34.68-210.14 32.79Q-214.54 30.90-217.78 27.31Q-221.02 23.72-222.88 18.48Q-224.75 13.25-224.75 6.55L-224.75 6.55Q-224.75 0.45-223.05-4.74Q-221.35-9.92-218.08-13.67Q-214.81-17.43-210.01-19.53Q-205.20-21.64-198.99-21.64L-198.99-21.64Q-193.27-21.64-188.84-19.78Q-184.41-17.91-181.01-14.51L-181.01-14.51ZM-171.72-20.77L-162.11-20.77L-162.11 14.11Q-162.11 20.32-159.25 23.72Q-156.38 27.12-150.61 27.12L-150.61 27.12Q-146.39 27.12-142.67 25.13Q-138.94 23.13-135.81 19.56L-135.81 19.56L-135.81-20.77L-126.20-20.77L-126.20 33.93L-131.92 33.93Q-133.97 33.93-134.51 31.93L-134.51 31.93L-135.27 26.04Q-138.83 29.99-143.26 32.39Q-147.69 34.79-153.41 34.79L-153.41 34.79Q-157.90 34.79-161.32 33.31Q-164.75 31.82-167.08 29.12Q-169.40 26.42-170.56 22.59Q-171.72 18.75-171.72 14.11L-171.72 14.11L-171.72-20.77ZM-100.76 33.93L-110.38 33.93L-110.38-20.77L-104.65-20.77Q-102.60-20.77-102.06-18.78L-102.06-18.78L-101.36-13.16Q-98.33-16.89-94.58-19.26Q-90.83-21.64-85.86-21.64L-85.86-21.64Q-80.30-21.64-76.87-18.56Q-73.44-15.48-71.93-10.24L-71.93-10.24Q-70.79-13.21-68.93-15.37Q-67.07-17.53-64.75-18.94Q-62.42-20.34-59.80-20.99Q-57.19-21.64-54.49-21.64L-54.49-21.64Q-50.17-21.64-46.79-20.26Q-43.42-18.88-41.07-16.24Q-38.72-13.59-37.48-9.73Q-36.23-5.87-36.23-0.90L-36.23-0.90L-36.23 33.93L-45.85 33.93L-45.85-0.90Q-45.85-7.33-48.65-10.65Q-51.46-13.97-56.81-13.97L-56.81-13.97Q-59.18-13.97-61.32-13.13Q-63.45-12.30-65.07-10.68Q-66.69-9.06-67.63-6.60Q-68.58-4.14-68.58-0.90L-68.58-0.90L-68.58 33.93L-78.19 33.93L-78.19-0.90Q-78.19-7.49-80.84-10.73Q-83.48-13.97-88.56-13.97L-88.56-13.97Q-92.12-13.97-95.17-12.05Q-98.23-10.14-100.76-6.84L-100.76-6.84L-100.76 33.93ZM-0.05-21.64L-0.05-21.64Q4.86-21.64 9.02-19.99Q13.18-18.34 16.20-15.24Q19.22-12.13 20.93-7.57Q22.63-3.01 22.63 2.82L22.63 2.82Q22.63 5.09 22.14 5.85Q21.65 6.60 20.30 6.60L20.30 6.60L-16.09 6.60Q-15.98 11.79-14.69 15.62Q-13.39 19.46-11.12 22.02Q-8.86 24.59-5.72 25.85Q-2.59 27.12 1.30 27.12L1.30 27.12Q4.91 27.12 7.53 26.29Q10.15 25.45 12.04 24.48Q13.93 23.51 15.20 22.67Q16.47 21.83 17.39 21.83L17.39 21.83Q18.58 21.83 19.22 22.75L19.22 22.75L21.92 26.26Q20.14 28.42 17.66 30.01Q15.17 31.61 12.34 32.63Q9.50 33.66 6.48 34.17Q3.46 34.68 0.49 34.68L0.49 34.68Q-5.18 34.68-9.96 32.77Q-14.74 30.85-18.22 27.15Q-21.71 23.45-23.65 18.00Q-25.60 12.54-25.60 5.47L-25.60 5.47Q-25.60-0.25-23.84-5.22Q-22.09-10.19-18.79-13.84Q-15.50-17.48-10.75-19.56Q-5.99-21.64-0.05-21.64ZM0.16-14.56L0.16-14.56Q-6.80-14.56-10.80-10.54Q-14.80-6.52-15.77 0.61L-15.77 0.61L13.99 0.61Q13.99-2.74 13.07-5.52Q12.15-8.30 10.37-10.33Q8.59-12.35 6.02-13.46Q3.46-14.56 0.16-14.56ZM44.50 33.93L34.88 33.93L34.88-20.77L40.61-20.77Q42.66-20.77 43.20-18.78L43.20-18.78L43.96-12.84Q47.52-16.78 51.92-19.21Q56.32-21.64 62.10-21.64L62.10-21.64Q66.58-21.64 70.01-20.15Q73.44-18.67 75.74-15.94Q78.03-13.21 79.22-9.38Q80.41-5.55 80.41-0.90L80.41-0.90L80.41 33.93L70.79 33.93L70.79-0.90Q70.79-7.11 67.96-10.54Q65.12-13.97 59.29-13.97L59.29-13.97Q55.03-13.97 51.33-11.92Q47.63-9.87 44.50-6.36L44.50-6.36L44.50 33.93ZM111.51 34.79L111.51 34.79Q105.03 34.79 101.55 31.17Q98.06 27.56 98.06 20.75L98.06 20.75L98.06-12.73L91.48-12.73Q90.61-12.73 90.02-13.24Q89.42-13.75 89.42-14.83L89.42-14.83L89.42-18.67L98.39-19.80L100.60-36.70Q100.71-37.51 101.30-38.03Q101.90-38.54 102.82-38.54L102.82-38.54L107.68-38.54L107.68-19.69L123.34-19.69L123.34-12.73L107.68-12.73L107.68 20.10Q107.68 23.56 109.35 25.23Q111.02 26.91 113.67 26.91L113.67 26.91Q115.18 26.91 116.29 26.50Q117.40 26.10 118.21 25.61Q119.02 25.13 119.58 24.72Q120.15 24.32 120.58 24.32L120.58 24.32Q121.34 24.32 121.93 25.23L121.93 25.23L124.74 29.82Q122.26 32.15 118.75 33.47Q115.24 34.79 111.51 34.79ZM175.39-1.06L175.39 33.93L171.13 33.93Q169.72 33.93 168.86 33.50Q167.99 33.06 167.72 31.66L167.72 31.66L166.64 26.58Q164.48 28.53 162.43 30.07Q160.38 31.61 158.11 32.66Q155.84 33.71 153.28 34.25Q150.71 34.79 147.58 34.79L147.58 34.79Q144.40 34.79 141.62 33.90Q138.83 33.01 136.78 31.23Q134.73 29.45 133.52 26.72Q132.30 23.99 132.30 20.27L132.30 20.27Q132.30 17.03 134.08 14.03Q135.86 11.03 139.83 8.71Q143.80 6.39 150.23 4.90Q156.65 3.42 165.94 3.20L165.94 3.20L165.94-1.06Q165.94-7.44 163.22-10.70Q160.49-13.97 155.14-13.97L155.14-13.97Q151.63-13.97 149.23-13.08Q146.83-12.19 145.07-11.08Q143.32-9.97 142.05-9.08Q140.78-8.19 139.54-8.19L139.54-8.19Q138.56-8.19 137.84-8.71Q137.11-9.22 136.67-9.97L136.67-9.97L134.95-13.05Q139.48-17.43 144.72-19.59Q149.96-21.75 156.33-21.75L156.33-21.75Q160.92-21.75 164.48-20.23Q168.05-18.72 170.48-16.02Q172.91-13.32 174.15-9.49Q175.39-5.65 175.39-1.06L175.39-1.06ZM150.44 28.04L150.44 28.04Q152.98 28.04 155.09 27.53Q157.19 27.02 159.06 26.07Q160.92 25.13 162.62 23.78Q164.32 22.43 165.94 20.70L165.94 20.70L165.94 9.30Q159.30 9.52 154.66 10.36Q150.01 11.19 147.10 12.54Q144.18 13.89 142.86 15.73Q141.53 17.57 141.53 19.83L141.53 19.83Q141.53 21.99 142.24 23.56Q142.94 25.13 144.13 26.12Q145.31 27.12 146.93 27.58Q148.55 28.04 150.44 28.04ZM206.55 34.79L206.55 34.79Q200.07 34.79 196.59 31.17Q193.10 27.56 193.10 20.75L193.10 20.75L193.10-12.73L186.52-12.73Q185.65-12.73 185.06-13.24Q184.46-13.75 184.46-14.83L184.46-14.83L184.46-18.67L193.43-19.80L195.64-36.70Q195.75-37.51 196.34-38.03Q196.94-38.54 197.86-38.54L197.86-38.54L202.72-38.54L202.72-19.69L218.38-19.69L218.38-12.73L202.72-12.73L202.72 20.10Q202.72 23.56 204.39 25.23Q206.06 26.91 208.71 26.91L208.71 26.91Q210.22 26.91 211.33 26.50Q212.44 26.10 213.25 25.61Q214.06 25.13 214.62 24.72Q215.19 24.32 215.62 24.32L215.62 24.32Q216.38 24.32 216.97 25.23L216.97 25.23L219.78 29.82Q217.30 32.15 213.79 33.47Q210.28 34.79 206.55 34.79ZM231.34-20.77L240.95-20.77L240.95 33.93L231.34 33.93L231.34-20.77ZM243.11-37.95L243.11-37.95Q243.11-36.54 242.54-35.33Q241.97-34.11 241.03-33.17Q240.08-32.22 238.84-31.68Q237.60-31.14 236.20-31.14L236.20-31.14Q234.79-31.14 233.58-31.68Q232.36-32.22 231.42-33.17Q230.47-34.11 229.93-35.33Q229.39-36.54 229.39-37.95L229.39-37.95Q229.39-39.35 229.93-40.62Q230.47-41.89 231.42-42.83Q232.36-43.78 233.58-44.32Q234.79-44.86 236.20-44.86L236.20-44.86Q237.60-44.86 238.84-44.32Q240.08-43.78 241.03-42.83Q241.97-41.89 242.54-40.62Q243.11-39.35 243.11-37.95ZM280.04-21.64L280.04-21.64Q286.04-21.64 290.87-19.64Q295.70-17.64 299.08-13.97Q302.45-10.30 304.26-5.09Q306.07 0.12 306.07 6.55L306.07 6.55Q306.07 13.03 304.26 18.21Q302.45 23.40 299.08 27.07Q295.70 30.74 290.87 32.71Q286.04 34.68 280.04 34.68L280.04 34.68Q274.05 34.68 269.22 32.71Q264.38 30.74 260.98 27.07Q257.58 23.40 255.74 18.21Q253.91 13.03 253.91 6.55L253.91 6.55Q253.91 0.12 255.74-5.09Q257.58-10.30 260.98-13.97Q264.38-17.64 269.22-19.64Q274.05-21.64 280.04-21.64ZM280.04 27.18L280.04 27.18Q288.14 27.18 292.14 21.75Q296.14 16.32 296.14 6.60L296.14 6.60Q296.14-3.17 292.14-8.62Q288.14-14.08 280.04-14.08L280.04-14.08Q275.94-14.08 272.92-12.67Q269.89-11.27 267.87-8.62Q265.84-5.98 264.84-2.12Q263.84 1.74 263.84 6.60L263.84 6.60Q263.84 11.46 264.84 15.30Q265.84 19.13 267.87 21.75Q269.89 24.37 272.92 25.77Q275.94 27.18 280.04 27.18ZM327.56 33.93L317.95 33.93L317.95-20.77L323.68-20.77Q325.73-20.77 326.27-18.78L326.27-18.78L327.02-12.84Q330.59-16.78 334.99-19.21Q339.39-21.64 345.17-21.64L345.17-21.64Q349.65-21.64 353.08-20.15Q356.51-18.67 358.80-15.94Q361.10-13.21 362.29-9.38Q363.47-5.55 363.47-0.90L363.47-0.90L363.47 33.93L353.86 33.93L353.86-0.90Q353.86-7.11 351.03-10.54Q348.19-13.97 342.36-13.97L342.36-13.97Q338.09-13.97 334.39-11.92Q330.70-9.87 327.56-6.36L327.56-6.36L327.56 33.93Z"/></g>
<g transform="matrix(9.1973 0 0 8.56 498.6326 448.8512)" id="434770">
<g style="" vector-effect="non-scaling-stroke">
		<g transform="matrix(1 0 0 1 -0.031 -0.1961)" id="Layer_1">
<linearGradient id="SVGID_1535" gradientUnits="userSpaceOnUse" gradientTransform="matrix(1 0 0 1 0 0)" x1="94.78" y1="100.31" x2="35.86" y2="36.72">
<stop offset="0%" style="stop-color:rgb(218,227,254);stop-opacity: 1"/>
<stop offset="100%" style="stop-color:rgb(233,239,253);stop-opacity: 1"/>
</linearGradient>
<path style="stroke: none; stroke-width: 1; stroke-dasharray: none; stroke-linecap: butt; stroke-dashoffset: 0; stroke-linejoin: miter; stroke-miterlimit: 4; is-custom-font: none; font-file-url: none; fill: url(#SVGID_1535); fill-rule: nonzero; opacity: 1;" transform=" translate(-49.969, -49.8039)" d="m 86.57 64.07 c -8.1 18.92 -29.47 27.05 -46.21 25.67 c -4.57 -0.38 -13.77 -1.14 -20.95 -7.93 c -13.79 -13.04 -11.67 -40.31 1.54 -56.36 c 1.7 -2.07 13.47 -15.92 31.81 -15.73 c 13.43 0.14 22.85 7.72 24 8.67 c 1.45 1.19 4.64 4.03 7.52 8.53 c 6.76 10.57 7.36 25.34 2.3 37.16 Z" stroke-linecap="round"/>
</g>
		<g transform="matrix(1 0 0 1 30.5272 -18.5158)" id="Layer_1">
<path style="stroke: none; stroke-width: 1; stroke-dasharray: none; stroke-linecap: butt; stroke-dashoffset: 0; stroke-linejoin: miter; stroke-miterlimit: 4; is-custom-font: none; font-file-url: none; fill: rgb(145,179,250); fill-rule: nonzero; opacity: 1;" transform=" translate(-80.5272, -31.4842)" d="m 72.98 47.66 s 0.58 -7.33 4.15 -8.93 c 3.57 -1.61 10.09 -2.17 11.42 -12.63 c 0.78 -6.13 1.21 -8.8 1.43 -9.96 c 0.09 -0.45 -0.28 -0.86 -0.74 -0.83 c -3.25 0.27 -13.86 1.67 -16.77 8.51 c -3.44 8.11 0.5 23.84 0.5 23.84 Z" stroke-linecap="round"/>
</g>
		<g transform="matrix(1 0 0 1 29.6216 -18.3211)" id="Layer_1">
<path style="stroke: none; stroke-width: 1; stroke-dasharray: none; stroke-linecap: butt; stroke-dashoffset: 0; stroke-linejoin: miter; stroke-miterlimit: 4; is-custom-font: none; font-file-url: none; fill: rgb(189,208,251); fill-rule: nonzero; opacity: 1;" transform=" translate(-79.6216, -31.6789)" d="m 86.48 17.97 c -3.82 2.76 -8.44 7.86 -11.17 13.16 c -0.37 0.88 -1.38 2.73 -2.09 6.14 c -0.61 2.84 -0.77 5.88 -0.6 7.93 c 0.01 0.13 0.12 0.23 0.25 0.21 c 0.22 -0.02 0.22 -0.26 0.21 -0.25 c -0.08 -3.47 0.54 -7.72 1.94 -11.47 c 1.76 -4.6 5.08 -8.88 8.42 -12.47 l 0.34 -0.35 c 2.58 -2.69 3.06 -2.66 2.87 -2.88 c -0.05 -0.05 -0.12 -0.06 -0.18 -0.02 Z" stroke-linecap="round"/>
</g>
		<g transform="matrix(1 0 0 1 27.9884 -2.3414)" id="Layer_1">
<path style="stroke: none; stroke-width: 1; stroke-dasharray: none; stroke-linecap: butt; stroke-dashoffset: 0; stroke-linejoin: miter; stroke-miterlimit: 4; is-custom-font: none; font-file-url: none; fill: rgb(189,208,251); fill-rule: nonzero; opacity: 1;" transform=" translate(-77.9884, -47.6585)" d="m 66.12 61.15 c -0.48 0.18 4.91 -5.32 7.38 -14.58 c 1.16 -4.36 1.75 -9.92 4.5 -11.8 c 2.29 -1.56 9.33 0.3 11.63 0.97 c 0.29 0.08 0.35 0.46 0.1 0.63 c -1.22 0.83 -3.85 2.8 -4.71 4.98 c -1.13 2.87 -4.14 4.46 -6.7 4.71 c -2.57 0.25 -4.02 0.6 -5.66 4.49 c -1.64 3.9 -5.17 10.1 -6.53 10.6 Z" stroke-linecap="round"/>
</g>
		<g transform="matrix(1 0 0 1 29.8511 -7.7463)" id="Layer_1">
<linearGradient id="SVGID_1536" gradientUnits="userSpaceOnUse" gradientTransform="matrix(0.9947 0.1031 -0.1031 0.9947 -129.86 -30.14)" x1="220.6" y1="45.57" x2="183.04" y2="74.77">
<stop offset="0%" style="stop-color:rgb(218,227,254);stop-opacity: 1"/>
<stop offset="100%" style="stop-color:rgb(233,239,253);stop-opacity: 1"/>
</linearGradient>
<path style="stroke: none; stroke-width: 1; stroke-dasharray: none; stroke-linecap: butt; stroke-dashoffset: 0; stroke-linejoin: miter; stroke-miterlimit: 4; is-custom-font: none; font-file-url: none; fill: url(#SVGID_1536); fill-rule: nonzero; opacity: 1;" transform=" translate(-79.8511, -42.2537)" d="m 86.19 36.65 c -3 -0.18 -6.35 0.85 -8.24 3.23 l -0.18 0.23 c -0.41 0.54 -2.85 4.39 -4.31 7.65 c -0.02 0.04 0 0.09 0.04 0.11 c 0.07 0.03 0.11 -0.04 0.11 -0.04 c 0.98 -1.82 2.34 -4.12 3.42 -5.83 c 1.16 -1.87 1.96 -3.14 4.27 -4.19 c 2.57 -1.13 4.9 -1.03 4.89 -1.03 c 0.04 0 0.06 -0.03 0.06 -0.06 c 0 -0.03 -0.03 -0.06 -0.06 -0.06 Z" stroke-linecap="round"/>
</g>
		<g transform="matrix(1 0 0 1 1.9276 2.5825)" id="Layer_1">
<linearGradient id="SVGID_1537" gradientUnits="userSpaceOnUse" gradientTransform="matrix(0.9998 -0.0218 0.0218 0.9998 67.39 -67.54)" x1="-43.71" y1="119.61" x2="6.99" y2="119.61">
<stop offset="0%" style="stop-color:rgb(9,0,93);stop-opacity: 1"/>
<stop offset="100%" style="stop-color:rgb(26,15,145);stop-opacity: 1"/>
</linearGradient>
<path style="stroke: none; stroke-width: 1; stroke-dasharray: none; stroke-linecap: butt; stroke-dashoffset: 0; stroke-linejoin: miter; stroke-miterlimit: 4; is-custom-font: none; font-file-url: none; fill: url(#SVGID_1537); fill-rule: nonzero; opacity: 1;" transform=" translate(-51.9276, -52.5825)" d="m 29.97 15.19 c -1.97 0.17 -3.47 1.82 -3.48 3.79 c -0.03 12.07 -0.09 53.7 0.7 68.43 c 0.08 1.56 1.36 2.79 2.93 2.8 c 7.73 0.08 29.97 0.24 42.59 -0.57 c 2.63 -0.17 4.68 -2.35 4.67 -4.98 c -0.02 -12.67 -0.22 -48.29 -1.95 -64.57 c -0.21 -1.95 -1.78 -3.47 -3.73 -3.63 c -8.43 -0.66 -30.82 -2.22 -41.72 -1.28 Z" stroke-linecap="round"/>
</g>
		<g transform="matrix(1 0 0 1 1.6093 0.8527)" id="Layer_1">
<linearGradient id="SVGID_1538" gradientUnits="userSpaceOnUse" gradientTransform="matrix(1 0 0 1 0 0)" x1="77.33" y1="9.66" x2="16.18" y2="105.91">
<stop offset="0%" style="stop-color:rgb(79,82,255);stop-opacity: 1"/>
<stop offset="100%" style="stop-color:rgb(64,66,226);stop-opacity: 1"/>
</linearGradient>
<path style="stroke: none; stroke-width: 1; stroke-dasharray: none; stroke-linecap: butt; stroke-dashoffset: 0; stroke-linejoin: miter; stroke-miterlimit: 4; is-custom-font: none; font-file-url: none; fill: url(#SVGID_1538); fill-rule: nonzero; opacity: 1;" transform=" translate(-51.6093, -50.8527)" d="m 29.59 22.15 c -0.15 10.32 -0.58 44.67 0.17 57.34 c 0.11 1.85 1.55 3.32 3.33 3.38 c 7.32 0.25 26.08 0.75 36.77 -0.43 c 1.93 -0.21 3.4 -1.88 3.45 -3.9 c 0.27 -10.54 0.99 -42.52 0.26 -55.06 c -0.12 -2 -1.64 -3.59 -3.56 -3.72 c -7.92 -0.53 -28.26 -1.76 -37.36 -1.01 c -1.71 0.14 -3.03 1.61 -3.05 3.4 Z" stroke-linecap="round"/>
</g>
		<g transform="matrix(1 0 0 1 1.3799 -32.932)" id="Layer_1">
<path style="stroke: none; stroke-width: 1; stroke-dasharray: none; stroke-linecap: butt; stroke-dashoffset: 0; stroke-linejoin: miter; stroke-miterlimit: 4; is-custom-font: none; font-file-url: none; fill: rgb(31,90,169); fill-rule: nonzero; opacity: 1;" transform=" translate(-51.3799, -17.068)" d="m 47.27 16.99 c 0 0.29 0.23 0.52 0.52 0.52 c 1.41 0.04 5.37 0.16 7.15 0.23 c 0.35 0.01 0.62 -0.31 0.54 -0.65 c 0 -0.01 -0.05 -0.45 -0.5 -0.48 c -1.2 -0.08 -4.82 -0.31 -7.21 -0.17 c -0.49 0.03 -0.52 0.59 -0.5 0.55 Z" stroke-linecap="round"/>
</g>
		<g transform="matrix(1 0 0 1 1.21 -4.815)" id="Layer_1">
<linearGradient id="SVGID_1539" gradientUnits="userSpaceOnUse" gradientTransform="matrix(1 0 0 1 0 0)" x1="32.16" y1="73.21" x2="102.26" y2="-30.44">
<stop offset="0%" style="stop-color:rgb(254,112,98);stop-opacity: 1"/>
<stop offset="100%" style="stop-color:rgb(255,146,142);stop-opacity: 1"/>
</linearGradient>
<path style="stroke: none; stroke-width: 1; stroke-dasharray: none; stroke-linecap: butt; stroke-dashoffset: 0; stroke-linejoin: miter; stroke-miterlimit: 4; is-custom-font: none; font-file-url: none; fill: url(#SVGID_1539); fill-rule: nonzero; opacity: 1;" transform=" translate(-51.21, -45.185)" d="m 30.64 10.73 h 40.93 c 0.32 0 0.58 0.26 0.58 0.58 v 67.56 c 0 0.42 -0.34 0.77 -0.77 0.77 H 31.04 c -0.42 0 -0.77 -0.34 -0.77 -0.77 V 11.1 c 0 -0.2 0.16 -0.37 0.37 -0.37 Z" stroke-linecap="round"/>
</g>
		<g transform="matrix(1 0 0 1 1.21 -4.88)" id="Layer_1">
<linearGradient id="SVGID_1540" gradientUnits="userSpaceOnUse" gradientTransform="matrix(1 0 0 1 0 0)" x1="47.91" y1="85.36" x2="56.4" y2="-18.8">
<stop offset="0%" style="stop-color:rgb(254,187,186);stop-opacity: 1"/>
<stop offset="100%" style="stop-color:rgb(255,146,142);stop-opacity: 1"/>
</linearGradient>
<path style="stroke: none; stroke-width: 1; stroke-dasharray: none; stroke-linecap: butt; stroke-dashoffset: 0; stroke-linejoin: miter; stroke-miterlimit: 4; is-custom-font: none; font-file-url: none; fill: url(#SVGID_1540); fill-rule: nonzero; opacity: 1;" transform=" translate(-51.21, -45.12)" d="m 31.35 11.87 h 39.3 c 0.42 0 0.77 0.34 0.77 0.77 v 64.96 c 0 0.42 -0.34 0.77 -0.77 0.77 H 31.77 c -0.42 0 -0.77 -0.34 -0.77 -0.77 V 12.22 c 0 -0.19 0.15 -0.35 0.35 -0.35 Z" stroke-linecap="round"/>
</g>
		<g transform="matrix(1 0 0 1 1.49 -29.755)" id="Layer_1">
<rect style="stroke: none; stroke-width: 1; stroke-dasharray: none; stroke-linecap: butt; stroke-dashoffset: 0; stroke-linejoin: miter; stroke-miterlimit: 4; is-custom-font: none; font-file-url: none; fill: rgb(255,255,255); fill-rule: nonzero; opacity: 1;" x="-12.4" y="-3.095" rx="0.17" ry="0.17" width="24.8" height="6.19"/>
</g>
		<g transform="matrix(1 0 0 1 5.28 1.875)" id="Layer_1">
<rect style="stroke: none; stroke-width: 1; stroke-dasharray: none; stroke-linecap: butt; stroke-dashoffset: 0; stroke-linejoin: miter; stroke-miterlimit: 4; is-custom-font: none; font-file-url: none; fill: rgb(255,255,255); fill-rule: nonzero; opacity: 1;" x="-11.95" y="-1.705" rx="0.16" ry="0.16" width="23.9" height="3.41"/>
</g>
		<g transform="matrix(1 0 0 1 -11.925 1.87)" id="Layer_1">
<linearGradient id="SVGID_1541" gradientUnits="userSpaceOnUse" gradientTransform="matrix(1 0 0 1 -38.075 -51.87)" x1="23.82" y1="69.76" x2="59.32" y2="25.19">
<stop offset="0%" style="stop-color:rgb(254,112,98);stop-opacity: 1"/>
<stop offset="100%" style="stop-color:rgb(255,146,142);stop-opacity: 1"/>
</linearGradient>
<rect style="stroke: none; stroke-width: 1; stroke-dasharray: none; stroke-linecap: butt; stroke-dashoffset: 0; stroke-linejoin: miter; stroke-miterlimit: 4; is-custom-font: none; font-file-url: none; fill: url(#SVGID_1541); fill-rule: nonzero; opacity: 1;" x="-3.075" y="-2.99" rx="0.17" ry="0.17" width="6.15" height="5.98"/>
</g>
		<g transform="matrix(1 0 0 1 5.37 -6.825)" id="Layer_1">
<rect style="stroke: none; stroke-width: 1; stroke-dasharray: none; stroke-linecap: butt; stroke-dashoffset: 0; stroke-linejoin: miter; stroke-miterlimit: 4; is-custom-font: none; font-file-url: none; fill: rgb(255,255,255); fill-rule: nonzero; opacity: 1;" x="-11.95" y="-1.705" rx="0.16" ry="0.16" width="23.9" height="3.41"/>
</g>
		<g transform="matrix(1 0 0 1 -11.845 -6.83)" id="Layer_1">
<linearGradient id="SVGID_1542" gradientUnits="userSpaceOnUse" gradientTransform="matrix(1 0 0 1 -38.155 -43.17)" x1="23.91" y1="61.06" x2="59.41" y2="16.49">
<stop offset="0%" style="stop-color:rgb(254,112,98);stop-opacity: 1"/>
<stop offset="100%" style="stop-color:rgb(255,146,142);stop-opacity: 1"/>
</linearGradient>
<rect style="stroke: none; stroke-width: 1; stroke-dasharray: none; stroke-linecap: butt; stroke-dashoffset: 0; stroke-linejoin: miter; stroke-miterlimit: 4; is-custom-font: none; font-file-url: none; fill: url(#SVGID_1542); fill-rule: nonzero; opacity: 1;" x="-3.075" y="-2.99" rx="0.17" ry="0.17" width="6.15" height="5.98"/>
</g>
		<g transform="matrix(1 0 0 1 5.28 19.265)" id="Layer_1">
<rect style="stroke: none; stroke-width: 1; stroke-dasharray: none; stroke-linecap: butt; stroke-dashoffset: 0; stroke-linejoin: miter; stroke-miterlimit: 4; is-custom-font: none; font-file-url: none; fill: rgb(255,255,255); fill-rule: nonzero; opacity: 1;" x="-11.95" y="-1.705" rx="0.16" ry="0.16" width="23.9" height="3.41"/>
</g>
		<g transform="matrix(1 0 0 1 -11.925 19.27)" id="Layer_1">
<linearGradient id="SVGID_1543" gradientUnits="userSpaceOnUse" gradientTransform="matrix(1 0 0 1 -38.075 -69.27)" x1="23.82" y1="87.16" x2="59.32" y2="42.59">
<stop offset="0%" style="stop-color:rgb(254,112,98);stop-opacity: 1"/>
<stop offset="100%" style="stop-color:rgb(255,146,142);stop-opacity: 1"/>
</linearGradient>
<rect style="stroke: none; stroke-width: 1; stroke-dasharray: none; stroke-linecap: butt; stroke-dashoffset: 0; stroke-linejoin: miter; stroke-miterlimit: 4; is-custom-font: none; font-file-url: none; fill: url(#SVGID_1543); fill-rule: nonzero; opacity: 1;" x="-3.075" y="-2.99" rx="0.17" ry="0.17" width="6.15" height="5.98"/>
</g>
		<g transform="matrix(1 0 0 1 5.37 10.565)" id="Layer_1">
<rect style="stroke: none; stroke-width: 1; stroke-dasharray: none; stroke-linecap: butt; stroke-dashoffset: 0; stroke-linejoin: miter; stroke-miterlimit: 4; is-custom-font: none; font-file-url: none; fill: rgb(255,255,255); fill-rule: nonzero; opacity: 1;" x="-11.95" y="-1.705" rx="0.16" ry="0.16" width="23.9" height="3.41"/>
</g>
		<g transform="matrix(1 0 0 1 -11.845 10.57)" id="Layer_1">
<linearGradient id="SVGID_1544" gradientUnits="userSpaceOnUse" gradientTransform="matrix(1 0 0 1 -38.155 -60.57)" x1="23.91" y1="78.46" x2="59.41" y2="33.89">
<stop offset="0%" style="stop-color:rgb(254,112,98);stop-opacity: 1"/>
<stop offset="100%" style="stop-color:rgb(255,146,142);stop-opacity: 1"/>
</linearGradient>
<rect style="stroke: none; stroke-width: 1; stroke-dasharray: none; stroke-linecap: butt; stroke-dashoffset: 0; stroke-linejoin: miter; stroke-miterlimit: 4; is-custom-font: none; font-file-url: none; fill: url(#SVGID_1544); fill-rule: nonzero; opacity: 1;" x="-3.075" y="-2.99" rx="0.17" ry="0.17" width="6.15" height="5.98"/>
</g>
		<g transform="matrix(1 0 0 1 5.37 -15.525)" id="Layer_1">
<rect style="stroke: none; stroke-width: 1; stroke-dasharray: none; stroke-linecap: butt; stroke-dashoffset: 0; stroke-linejoin: miter; stroke-miterlimit: 4; is-custom-font: none; font-file-url: none; fill: rgb(255,255,255); fill-rule: nonzero; opacity: 1;" x="-11.95" y="-1.705" rx="0.16" ry="0.16" width="23.9" height="3.41"/>
</g>
		<g transform="matrix(1 0 0 1 -11.845 -15.53)" id="Layer_1">
<linearGradient id="SVGID_1545" gradientUnits="userSpaceOnUse" gradientTransform="matrix(1 0 0 1 -38.155 -34.47)" x1="23.91" y1="52.36" x2="59.41" y2="7.79">
<stop offset="0%" style="stop-color:rgb(254,112,98);stop-opacity: 1"/>
<stop offset="100%" style="stop-color:rgb(255,146,142);stop-opacity: 1"/>
</linearGradient>
<rect style="stroke: none; stroke-width: 1; stroke-dasharray: none; stroke-linecap: butt; stroke-dashoffset: 0; stroke-linejoin: miter; stroke-miterlimit: 4; is-custom-font: none; font-file-url: none; fill: url(#SVGID_1545); fill-rule: nonzero; opacity: 1;" x="-3.075" y="-2.99" rx="0.17" ry="0.17" width="6.15" height="5.98"/>
</g>
		<g transform="matrix(1 0 0 1 -34.4944 28.6692)" id="Layer_1">
<path style="stroke: none; stroke-width: 1; stroke-dasharray: none; stroke-linecap: butt; stroke-dashoffset: 0; stroke-linejoin: miter; stroke-miterlimit: 4; is-custom-font: none; font-file-url: none; fill: rgb(145,179,250); fill-rule: nonzero; opacity: 1;" transform=" translate(-15.5056, -78.6692)" d="m 15.51 79.04 s -0.08 -0.05 -0.09 -0.1 c -0.03 -0.16 -0.05 -0.33 -0.08 -0.5 c 0 -0.07 0.04 -0.13 0.11 -0.14 c 0.17 -0.02 0.14 0.15 0.22 0.6 c 0.01 0.07 -0.04 0.13 -0.1 0.14 c -0.02 0 -0.04 0 -0.05 0 Z" stroke-linecap="round"/>
</g>
		<g transform="matrix(1 0 0 1 -25.0659 20.81)" id="Layer_1">
<path style="stroke: none; stroke-width: 1; stroke-dasharray: none; stroke-linecap: butt; stroke-dashoffset: 0; stroke-linejoin: miter; stroke-miterlimit: 4; is-custom-font: none; font-file-url: none; fill: rgb(145,179,250); fill-rule: nonzero; opacity: 1;" transform=" translate(-24.9341, -70.81)" d="m 15.24 76.87 c 0 -0.32 0.01 -0.65 0.04 -0.97 c 0 -0.07 0.07 -0.12 0.14 -0.11 c 0.19 0.02 0.08 0.14 0.08 1.08 c 0 0.07 -0.06 0.12 -0.13 0.12 c -0.07 0 -0.13 -0.06 -0.13 -0.13 Z m 0.27 -2.52 c 0.07 -0.32 0.15 -0.63 0.24 -0.94 c 0.05 -0.16 0.29 -0.08 0.24 0.07 c -0.09 0.3 -0.17 0.61 -0.23 0.92 c -0.01 0.07 -0.08 0.11 -0.15 0.1 c -0.07 -0.02 -0.11 -0.08 -0.1 -0.15 Z m 0.78 -2.41 c 0.13 -0.29 0.27 -0.58 0.43 -0.87 c 0.08 -0.15 0.3 -0.03 0.23 0.12 c -0.15 0.28 -0.29 0.56 -0.42 0.85 c -0.07 0.15 -0.3 0.05 -0.23 -0.1 Z m 1.3 -2.02 c -0.06 -0.04 -0.07 -0.12 -0.03 -0.17 c 0.19 -0.26 0.39 -0.52 0.6 -0.76 c 0.11 -0.13 0.3 0.04 0.2 0.16 c -0.21 0.24 -0.4 0.49 -0.59 0.75 c -0.04 0.06 -0.12 0.07 -0.18 0.03 Z m 1.67 -1.89 c -0.05 -0.05 -0.05 -0.13 0 -0.18 c 0.24 -0.22 0.49 -0.43 0.75 -0.62 c 0.13 -0.1 0.29 0.1 0.16 0.2 c -0.25 0.19 -0.5 0.4 -0.73 0.61 c -0.05 0.05 -0.13 0.04 -0.18 0 Z m 2.1 -1.46 s -0.06 -0.03 -0.08 -0.06 c -0.04 -0.06 -0.02 -0.14 0.04 -0.17 c 0.28 -0.16 0.57 -0.32 0.86 -0.46 c 0.06 -0.03 0.14 0 0.17 0.06 c 0.03 0.06 0 0.14 -0.06 0.17 c -0.29 0.14 -0.57 0.29 -0.85 0.45 c -0.03 0.02 -0.07 0.02 -0.1 0.01 Z m 2.31 -1.05 s -0.07 -0.04 -0.09 -0.08 c -0.02 -0.07 0.01 -0.14 0.08 -0.16 c 0.31 -0.1 0.63 -0.2 0.94 -0.28 c 0.07 -0.02 0.14 0.02 0.16 0.09 c 0.02 0.07 -0.02 0.13 -0.09 0.15 c -0.31 0.08 -0.62 0.17 -0.92 0.27 c -0.03 0 -0.05 0 -0.08 0 Z m 2.39 -0.67 c 0 -0.07 0.04 -0.13 0.11 -0.14 c 0.32 -0.04 0.65 -0.07 0.98 -0.08 c 0.17 0 0.18 0.24 0.01 0.25 c -0.32 0.01 -0.64 0.04 -0.96 0.08 c -0.07 0 -0.13 -0.04 -0.14 -0.11 Z m 8.37 1.93 c -0.81 -0.51 -0.98 -0.48 -0.89 -0.65 c 0.03 -0.06 0.11 -0.08 0.17 -0.05 c 0.29 0.15 0.58 0.32 0.86 0.49 c 0.14 0.09 0 0.3 -0.13 0.21 Z m -5.81 -2 c 0 -0.07 0.07 -0.12 0.14 -0.11 c 0.33 0.03 0.66 0.07 0.98 0.12 c 0.17 0.03 0.13 0.27 -0.04 0.25 c -0.32 -0.05 -0.64 -0.09 -0.96 -0.11 c -0.07 0 -0.12 -0.07 -0.12 -0.13 Z m 3.54 0.89 c -0.9 -0.33 -1.06 -0.27 -1.01 -0.46 c 0.03 -0.12 0.17 -0.09 0.16 -0.08 c 0.32 0.09 0.63 0.19 0.94 0.31 c 0.07 0.02 0.1 0.1 0.08 0.16 c -0.02 0.06 -0.09 0.1 -0.16 0.07 Z" stroke-linecap="round"/>
</g>
		<g transform="matrix(1 0 0 1 -14.0091 17.7596)" id="Layer_1">
<path style="stroke: none; stroke-width: 1; stroke-dasharray: none; stroke-linecap: butt; stroke-dashoffset: 0; stroke-linejoin: miter; stroke-miterlimit: 4; is-custom-font: none; font-file-url: none; fill: rgb(145,179,250); fill-rule: nonzero; opacity: 1;" transform=" translate(-35.991, -67.7596)" d="m 36.1 68.02 c -0.32 -0.28 -0.51 -0.37 -0.4 -0.5 c 0.04 -0.05 0.12 -0.06 0.18 -0.02 c 0.34 0.28 0.51 0.39 0.4 0.51 c -0.03 0.04 -0.13 0.05 -0.18 0 Z" stroke-linecap="round"/>
</g>
		<g transform="matrix(1 0 0 1 -9.615 26.405)" id="Layer_1">
<path style="stroke: none; stroke-width: 1; stroke-dasharray: none; stroke-linecap: butt; stroke-dashoffset: 0; stroke-linejoin: miter; stroke-miterlimit: 4; is-custom-font: none; font-file-url: none; fill: rgb(145,179,250); fill-rule: nonzero; opacity: 1;" transform=" translate(-40.385, -76.405)" d="m 40.36 76.77 c -0.05 -0.01 -0.09 -0.06 -0.09 -0.12 c 0 -0.16 -0.02 -0.33 -0.03 -0.49 c 0 -0.07 0.05 -0.13 0.12 -0.13 c 0.07 0 0.13 0.05 0.14 0.12 c 0.01 0.17 0.02 0.34 0.03 0.5 c 0 0.07 -0.05 0.13 -0.12 0.13 c -0.01 0 -0.03 0 -0.04 0 Z" stroke-linecap="round"/>
</g>
		<g transform="matrix(1 0 0 1 -19.3714 33.7993)" id="Layer_1">
<path style="stroke: none; stroke-width: 1; stroke-dasharray: none; stroke-linecap: butt; stroke-dashoffset: 0; stroke-linejoin: miter; stroke-miterlimit: 4; is-custom-font: none; font-file-url: none; fill: rgb(145,179,250); fill-rule: nonzero; opacity: 1;" transform=" translate(-30.6286, -83.7994)" d="m 24.29 88.86 c -0.34 -0.1 -0.68 -0.22 -1.01 -0.35 c -0.07 -0.03 -0.1 -0.1 -0.07 -0.16 c 0.07 -0.18 0.16 -0.03 1.15 0.27 c 0.07 0.02 0.11 0.09 0.09 0.16 c -0.03 0.12 -0.17 0.08 -0.16 0.08 Z m 1.58 0.24 c 0.03 -0.19 0.15 -0.06 1.18 0.02 c 0.07 0 0.12 0.07 0.12 0.13 c 0 0.07 -0.07 0.12 -0.14 0.11 c -0.35 -0.03 -0.71 -0.07 -1.06 -0.13 c -0.07 -0.01 -0.12 -0.08 -0.11 -0.14 Z m -4.14 -1.33 c -0.31 -0.17 -0.61 -0.36 -0.9 -0.56 c -0.06 -0.04 -0.07 -0.12 -0.03 -0.17 c 0.11 -0.16 0.16 0 1.06 0.51 c 0.06 0.03 0.08 0.11 0.05 0.17 c -0.03 0.06 -0.11 0.08 -0.17 0.05 Z m 6.99 1.62 c -0.05 -0.01 -0.09 -0.06 -0.09 -0.11 c 0 -0.07 0.05 -0.13 0.12 -0.13 c 0.35 -0.02 0.69 -0.05 1.03 -0.1 c 0.07 0 0.13 0.04 0.15 0.11 c 0.01 0.07 -0.04 0.13 -0.11 0.14 c -0.35 0.05 -0.7 0.08 -1.06 0.1 c -0.01 0 -0.03 0 -0.04 0 Z m 2.71 -0.45 s -0.08 -0.04 -0.09 -0.09 c -0.02 -0.07 0.02 -0.14 0.09 -0.15 c 0.33 -0.09 0.66 -0.2 0.98 -0.32 c 0.07 -0.02 0.14 0 0.17 0.07 c 0.03 0.06 0 0.14 -0.07 0.16 c -0.33 0.12 -0.67 0.23 -1 0.33 c -0.02 0 -0.05 0 -0.07 0 Z m 2.54 -1.02 s -0.06 -0.03 -0.08 -0.06 c -0.03 -0.06 -0.01 -0.14 0.05 -0.17 c 0.3 -0.16 0.6 -0.34 0.89 -0.52 c 0.06 -0.04 0.14 -0.02 0.18 0.04 c 0.04 0.06 0.02 0.14 -0.03 0.17 c -0.29 0.19 -0.6 0.37 -0.9 0.54 c -0.03 0.02 -0.06 0.02 -0.09 0.01 Z m 2.24 -1.54 s -0.04 -0.02 -0.06 -0.04 c -0.05 -0.05 -0.04 -0.13 0.01 -0.18 c 0.26 -0.22 0.51 -0.46 0.75 -0.7 c 0.05 -0.05 0.13 -0.05 0.18 0 c 0.05 0.05 0.05 0.13 0 0.18 c -0.24 0.25 -0.5 0.49 -0.76 0.72 c -0.03 0.03 -0.08 0.04 -0.12 0.03 Z m 1.8 -2.01 c -0.16 -0.11 0.01 -0.16 0.54 -1.02 c 0.09 -0.14 0.31 -0.01 0.22 0.13 c -0.18 0.3 -0.38 0.59 -0.58 0.87 c -0.04 0.06 -0.12 0.07 -0.18 0.03 Z m 1.37 -2.33 c -0.18 -0.08 -0.02 -0.15 0.29 -1.12 c 0.05 -0.16 0.29 -0.08 0.24 0.08 c -0.11 0.33 -0.23 0.65 -0.37 0.97 c -0.03 0.06 -0.1 0.09 -0.17 0.06 Z m 0.8 -2.58 c -0.06 -0.02 -0.1 -0.08 -0.09 -0.14 c 0.06 -0.33 0.11 -0.67 0.14 -1.01 c 0 -0.07 0.07 -0.12 0.14 -0.11 c 0.07 0 0.12 0.07 0.11 0.14 c -0.03 0.34 -0.08 0.69 -0.15 1.03 c -0.01 0.07 -0.08 0.11 -0.15 0.1 c 0 0 0 0 -0.01 0 Z" stroke-linecap="round"/>
</g>
		<g transform="matrix(1 0 0 1 -30.6516 35.8887)" id="Layer_1">
<path style="stroke: none; stroke-width: 1; stroke-dasharray: none; stroke-linecap: butt; stroke-dashoffset: 0; stroke-linejoin: miter; stroke-miterlimit: 4; is-custom-font: none; font-file-url: none; fill: rgb(145,179,250); fill-rule: nonzero; opacity: 1;" transform=" translate(-19.3484, -85.8887)" d="m 19.45 86.16 c -0.33 -0.29 -0.49 -0.41 -0.38 -0.53 c 0.12 -0.12 0.21 0.04 0.55 0.34 c 0.05 0.05 0.06 0.13 0 0.18 c -0.05 0.05 -0.13 0.05 -0.18 0 Z" stroke-linecap="round"/>
</g>
		<g transform="matrix(1 0 0 1 -22.088 26.9294)" id="Layer_1">
<path style="stroke: none; stroke-width: 1; stroke-dasharray: none; stroke-linecap: butt; stroke-dashoffset: 0; stroke-linejoin: miter; stroke-miterlimit: 4; is-custom-font: none; font-file-url: none; fill: rgb(145,179,250); fill-rule: nonzero; opacity: 1;" transform=" translate(-27.912, -76.9293)" d="m 20.53 82.88 l 1.78 -0.4 c 0.61 0.59 1.32 1.09 2.11 1.48 c 0.24 1.73 0.13 1.87 0.32 1.91 l 2.14 0.49 c 0.06 0.01 0.13 -0.01 0.16 -0.06 l 0.96 -1.51 c 0.88 0 1.74 -0.14 2.54 -0.41 l 1.43 1.13 c 0.05 0.04 0.12 0.04 0.17 0.01 l 1.85 -1.13 c 0.05 -0.03 0.08 -0.1 0.07 -0.16 l -0.42 -1.75 c 0.6 -0.59 1.1 -1.28 1.48 -2.05 l 1.82 -0.18 c 0.06 0 0.12 -0.05 0.13 -0.11 l 0.48 -2.09 c 0.01 -0.06 -0.01 -0.12 -0.07 -0.16 l -1.56 -0.96 c 0 -0.86 -0.16 -1.7 -0.45 -2.5 c 1.08 -1.38 1.25 -1.4 1.15 -1.56 c -1.18 -1.77 -1.14 -1.94 -1.34 -1.89 l -1.78 0.4 c -0.61 -0.59 -1.32 -1.09 -2.11 -1.48 c -0.24 -1.73 -0.13 -1.87 -0.32 -1.91 c -2.13 -0.45 -2.2 -0.59 -2.3 -0.43 l -0.96 1.51 c -0.88 0 -1.74 0.14 -2.54 0.41 c -1.4 -1.07 -1.44 -1.25 -1.6 -1.14 c -1.81 1.15 -1.96 1.1 -1.92 1.29 l 0.42 1.75 c -0.6 0.59 -1.1 1.28 -1.48 2.05 c -1.73 0.21 -1.9 0.1 -1.94 0.29 c -0.43 2.08 -0.58 2.15 -0.41 2.25 l 1.56 0.96 c 0 0.86 0.16 1.7 0.45 2.5 c -1.08 1.38 -1.25 1.4 -1.15 1.56 c 1.18 1.77 1.14 1.94 1.34 1.89 Z" stroke-linecap="round"/>
</g>
		<g transform="matrix(1 0 0 1 -22.09 26.925)" id="Layer_1">
<path style="stroke: none; stroke-width: 1; stroke-dasharray: none; stroke-linecap: butt; stroke-dashoffset: 0; stroke-linejoin: miter; stroke-miterlimit: 4; is-custom-font: none; font-file-url: none; fill: rgb(189,208,251); fill-rule: nonzero; opacity: 1;" transform=" translate(-27.91, -76.925)" d="m 25.77 76.96 c -0.03 -1.16 0.9 -2.11 2.08 -2.13 c 1.18 -0.02 2.16 0.91 2.2 2.06 c 0.03 1.16 -0.9 2.11 -2.08 2.13 h 0 c -1.18 0.02 -2.16 -0.91 -2.2 -2.06 Z m 2.19 1.87 h 0 s 0 0 0 0 Z m -0.1 -3.63 c -0.96 0.02 -1.73 0.79 -1.71 1.75 c 0.03 0.95 0.84 1.71 1.8 1.69 c 0.97 -0.02 1.73 -0.8 1.71 -1.75 c -0.03 -0.95 -0.84 -1.71 -1.8 -1.69 Z" stroke-linecap="round"/>
</g>
		<g transform="matrix(1 0 0 1 -22.0676 26.9069)" id="Layer_1">
<path style="stroke: none; stroke-width: 1; stroke-dasharray: none; stroke-linecap: butt; stroke-dashoffset: 0; stroke-linejoin: miter; stroke-miterlimit: 4; is-custom-font: none; font-file-url: none; fill: rgb(189,208,251); fill-rule: nonzero; opacity: 1;" transform=" translate(-27.9325, -76.9069)" d="m 26.53 82.08 h 0 c -0.31 -0.08 -0.6 -0.19 -0.89 -0.32 c -0.09 -0.04 -0.13 -0.13 -0.1 -0.22 c 0 -0.01 0 -0.02 0.01 -0.03 c 0.04 -0.09 0.16 -0.13 0.25 -0.09 c 0.33 0.15 0.67 0.27 1.03 0.35 h 0 c 2.68 0.62 5.34 -0.96 6.04 -3.52 c 0.02 -0.07 0.03 -0.13 0.05 -0.2 c 0.62 -2.7 -1.13 -5.38 -3.87 -6.01 c -2.74 -0.63 -5.47 1.03 -6.09 3.72 c -0.37 1.6 0.18 2.6 0.14 2.77 c -0.05 0.18 -0.31 0.18 -0.37 0 c -0.33 -0.96 -0.38 -2.03 -0.09 -3.07 c 1.22 -4.5 7.37 -5.35 9.92 -1.39 c 0.79 1.22 1.04 2.66 0.72 4.06 c -0.02 0.07 -0.03 0.14 -0.05 0.22 c -0.35 1.3 -1.18 2.41 -2.36 3.12 c -1.24 0.76 -2.7 0.99 -4.13 0.66 c -0.07 -0.02 -0.15 -0.03 -0.22 -0.05 Z" stroke-linecap="round"/>
</g>
		<g transform="matrix(1 0 0 1 -30.54 10.21)" id="Layer_1">
<path style="stroke: none; stroke-width: 1; stroke-dasharray: none; stroke-linecap: butt; stroke-dashoffset: 0; stroke-linejoin: miter; stroke-miterlimit: 4; is-custom-font: none; font-file-url: none; fill: rgb(145,179,250); fill-rule: nonzero; opacity: 1;" transform=" translate(-19.46, -60.21)" d="m 16.34 63.91 c 0.39 0.33 0.85 0.61 1.34 0.8 l 0.2 1.09 c 0.02 0.12 0.12 0.06 1.39 0.27 c 0.12 0.02 0.09 -0.08 0.6 -1.03 c 0.53 -0.04 1.04 -0.18 1.51 -0.38 l 0.91 0.62 c 0.1 0.07 0.12 -0.04 1.17 -0.79 c 0.03 -0.02 0.04 -0.06 0.03 -0.1 l -0.33 -1.05 c 0.33 -0.39 0.61 -0.85 0.8 -1.34 c 1.03 -0.22 1.14 -0.16 1.16 -0.28 c 0.17 -1.3 0.25 -1.35 0.14 -1.41 l -0.98 -0.51 c -0.04 -0.53 -0.18 -1.04 -0.38 -1.51 l 0.62 -0.91 c 0.07 -0.1 -0.04 -0.12 -0.79 -1.17 c -0.07 -0.09 -0.12 0 -1.15 0.3 c -0.39 -0.33 -0.85 -0.61 -1.34 -0.8 l -0.2 -1.09 c -0.02 -0.12 -0.12 -0.06 -1.39 -0.27 c -0.12 -0.02 -0.08 0.08 -0.6 1.03 c -0.53 0.04 -1.04 0.18 -1.51 0.38 l -0.91 -0.62 s -0.07 -0.02 -0.11 0 l -1.06 0.79 s -0.04 0.06 -0.03 0.1 l 0.33 1.05 c -0.33 0.39 -0.61 0.85 -0.8 1.34 c -1.03 0.22 -1.14 0.16 -1.16 0.28 c -0.17 1.3 -0.25 1.35 -0.14 1.41 l 0.98 0.51 c 0.04 0.53 0.18 1.04 0.38 1.51 c -0.58 0.88 -0.69 0.92 -0.62 1.02 l 0.79 1.06 c 0.07 0.1 0.12 0 1.15 -0.3 Z" stroke-linecap="round"/>
</g>
		<g transform="matrix(1 0 0 1 -30.54 10.21)" id="Layer_1">
<path style="stroke: none; stroke-width: 1; stroke-dasharray: none; stroke-linecap: butt; stroke-dashoffset: 0; stroke-linejoin: miter; stroke-miterlimit: 4; is-custom-font: none; font-file-url: none; fill: rgb(189,208,251); fill-rule: nonzero; opacity: 1;" transform=" translate(-19.46, -60.21)" d="m 18.08 60.35 c -0.08 -0.76 0.48 -1.44 1.24 -1.52 c 0.76 -0.08 1.44 0.48 1.52 1.24 c 0.08 0.76 -0.48 1.44 -1.24 1.52 h 0 c -0.76 0.08 -1.44 -0.48 -1.52 -1.24 Z m 1.5 1.03 h 0 s 0 0 0 0 Z m -1.09 -1.07 c 0.05 0.53 0.53 0.92 1.06 0.87 h 0 c 0.86 -0.09 1.18 -1.17 0.52 -1.72 c -0.67 -0.54 -1.67 0 -1.58 0.85 Z" stroke-linecap="round"/>
</g>
		<g transform="matrix(1 0 0 1 -37.0398 13.0843)" id="Layer_1">
<path style="stroke: none; stroke-width: 1; stroke-dasharray: none; stroke-linecap: butt; stroke-dashoffset: 0; stroke-linejoin: miter; stroke-miterlimit: 4; is-custom-font: none; font-file-url: none; fill: rgb(145,179,250); fill-rule: nonzero; opacity: 1;" transform=" translate(-12.9602, -63.0843)" d="m 12.95 63.4 c -0.08 -0.17 -0.16 -0.34 -0.23 -0.51 c -0.03 -0.07 0 -0.15 0.08 -0.18 c 0.18 -0.07 0.19 0.14 0.4 0.57 c 0.03 0.07 0 0.15 -0.06 0.18 c -0.07 0.03 -0.15 0 -0.18 -0.06 Z" stroke-linecap="round"/>
</g>
		<g transform="matrix(1 0 0 1 -33.7334 7.095)" id="Layer_1">
<path style="stroke: none; stroke-width: 1; stroke-dasharray: none; stroke-linecap: butt; stroke-dashoffset: 0; stroke-linejoin: miter; stroke-miterlimit: 4; is-custom-font: none; font-file-url: none; fill: rgb(145,179,250); fill-rule: nonzero; opacity: 1;" transform=" translate(-16.2666, -57.095)" d="m 12.27 61.11 c -0.05 -0.36 -0.07 -0.74 -0.05 -1.13 c 0 -0.18 0.28 -0.17 0.27 0 c -0.03 1 0.16 1.21 -0.07 1.24 c -0.08 0 -0.14 -0.04 -0.15 -0.12 Z m 0.33 -2.78 c -0.07 -0.02 -0.11 -0.1 -0.09 -0.17 c 0.11 -0.36 0.24 -0.72 0.4 -1.06 c 0.08 -0.16 0.33 -0.05 0.25 0.12 c -0.16 0.33 -0.29 0.67 -0.39 1.02 c -0.04 0.13 -0.19 0.1 -0.17 0.09 Z m 1.37 -2.55 s -0.04 -0.01 -0.05 -0.03 c -0.06 -0.05 -0.07 -0.14 -0.02 -0.19 c 0.24 -0.29 0.51 -0.56 0.79 -0.81 c 0.06 -0.05 0.14 -0.04 0.19 0.01 c 0.05 0.06 0.04 0.14 -0.01 0.19 c -0.27 0.24 -0.53 0.5 -0.76 0.78 c -0.04 0.04 -0.09 0.06 -0.14 0.04 Z m 2.27 -1.8 s -0.07 -0.03 -0.09 -0.07 c -0.03 -0.07 0 -0.15 0.06 -0.18 c 0.34 -0.17 0.69 -0.31 1.05 -0.43 c 0.07 -0.02 0.15 0.02 0.17 0.09 c 0.02 0.07 -0.02 0.15 -0.09 0.17 c -0.35 0.11 -0.69 0.25 -1.01 0.41 c -0.03 0.02 -0.07 0.02 -0.1 0 Z m 2.7 -0.86 c 0 -0.08 0.05 -0.14 0.13 -0.14 c 0.38 -0.02 0.76 -0.01 1.13 0.03 c 0.18 0.02 0.15 0.29 -0.03 0.27 c -0.36 -0.04 -0.73 -0.05 -1.09 -0.03 c -0.08 0 -0.14 -0.06 -0.14 -0.13 Z" stroke-linecap="round"/>
</g>
		<g transform="matrix(1 0 0 1 -27.7948 3.6557)" id="Layer_1">
<path style="stroke: none; stroke-width: 1; stroke-dasharray: none; stroke-linecap: butt; stroke-dashoffset: 0; stroke-linejoin: miter; stroke-miterlimit: 4; is-custom-font: none; font-file-url: none; fill: rgb(145,179,250); fill-rule: nonzero; opacity: 1;" transform=" translate(-22.2052, -53.6558)" d="m 22.4 53.89 c -0.46 -0.21 -0.64 -0.21 -0.58 -0.39 c 0.03 -0.07 0.1 -0.11 0.18 -0.08 c 0.17 0.07 0.35 0.14 0.52 0.22 c 0.07 0.03 0.1 0.11 0.07 0.18 c -0.03 0.07 -0.11 0.1 -0.18 0.07 Z" stroke-linecap="round"/>
</g>
		<g transform="matrix(1 0 0 1 -23.829 7.8769)" id="Layer_1">
<path style="stroke: none; stroke-width: 1; stroke-dasharray: none; stroke-linecap: butt; stroke-dashoffset: 0; stroke-linejoin: miter; stroke-miterlimit: 4; is-custom-font: none; font-file-url: none; fill: rgb(145,179,250); fill-rule: nonzero; opacity: 1;" transform=" translate(-26.171, -57.8769)" d="m 26.13 58.18 c -0.15 -0.48 -0.27 -0.62 -0.1 -0.69 c 0.07 -0.03 0.15 0 0.18 0.08 c 0.07 0.17 0.13 0.35 0.18 0.53 c 0.02 0.07 -0.02 0.15 -0.09 0.17 c -0.07 0.02 -0.15 -0.02 -0.17 -0.09 Z" stroke-linecap="round"/>
</g>
		<g transform="matrix(1 0 0 1 -27.5311 13.605)" id="Layer_1">
<path style="stroke: none; stroke-width: 1; stroke-dasharray: none; stroke-linecap: butt; stroke-dashoffset: 0; stroke-linejoin: miter; stroke-miterlimit: 4; is-custom-font: none; font-file-url: none; fill: rgb(145,179,250); fill-rule: nonzero; opacity: 1;" transform=" translate(-22.4689, -63.605)" d="m 18.23 67.21 c 0.03 -0.23 0.23 -0.03 1.23 -0.03 c 0.18 0 0.18 0.27 0 0.27 c -0.37 0 -0.75 -0.03 -1.11 -0.08 c -0.07 -0.01 -0.13 -0.08 -0.11 -0.16 Z m 2.85 -0.08 c -0.02 -0.07 0.03 -0.15 0.1 -0.17 c 0.97 -0.25 1.11 -0.48 1.2 -0.27 c 0.03 0.07 0 0.15 -0.07 0.18 c -0.34 0.15 -0.7 0.27 -1.06 0.36 c -0.07 0.02 -0.15 -0.03 -0.17 -0.1 Z m 2.59 -1.19 c -0.14 -0.18 0.13 -0.19 0.82 -0.91 c 0.13 -0.13 0.32 0.06 0.2 0.19 c -0.26 0.27 -0.54 0.52 -0.83 0.74 c -0.06 0.05 -0.15 0.03 -0.19 -0.03 Z m 1.91 -2.12 c -0.2 -0.11 0.05 -0.23 0.4 -1.16 c 0.06 -0.17 0.32 -0.07 0.26 0.1 c -0.13 0.35 -0.29 0.69 -0.47 1.01 c -0.04 0.07 -0.12 0.09 -0.19 0.05 Z m 0.81 -2.85 c 0.11 -0.99 -0.06 -1.2 0.17 -1.21 c 0.08 0 0.14 0.06 0.14 0.13 c 0.02 0.37 0 0.75 -0.04 1.11 c 0 0.08 -0.08 0.13 -0.15 0.12 c -0.08 0 -0.13 -0.08 -0.12 -0.15 Z" stroke-linecap="round"/>
</g>
		<g transform="matrix(1 0 0 1 -33.601 16.6187)" id="Layer_1">
<path style="stroke: none; stroke-width: 1; stroke-dasharray: none; stroke-linecap: butt; stroke-dashoffset: 0; stroke-linejoin: miter; stroke-miterlimit: 4; is-custom-font: none; font-file-url: none; fill: rgb(145,179,250); fill-rule: nonzero; opacity: 1;" transform=" translate(-16.399, -66.6187)" d="m 16.6 66.87 c -0.17 -0.07 -0.34 -0.15 -0.51 -0.24 c -0.07 -0.04 -0.09 -0.12 -0.06 -0.19 c 0.09 -0.17 0.23 -0.02 0.67 0.17 c 0.07 0.03 0.1 0.11 0.07 0.18 c -0.03 0.07 -0.11 0.1 -0.18 0.07 Z" stroke-linecap="round"/>
</g>
		<g transform="matrix(1 0 0 1 -30.5134 10.1809)" id="Layer_1">
<path style="stroke: none; stroke-width: 1; stroke-dasharray: none; stroke-linecap: butt; stroke-dashoffset: 0; stroke-linejoin: miter; stroke-miterlimit: 4; is-custom-font: none; font-file-url: none; fill: rgb(189,208,251); fill-rule: nonzero; opacity: 1;" transform=" translate(-19.4865, -60.1809)" d="m 18.29 63.38 c -0.12 -0.05 -0.17 -0.17 -0.13 -0.27 c 0.04 -0.11 0.16 -0.16 0.27 -0.12 c 0.2 0.07 0.41 0.13 0.62 0.16 c 0.04 0 1.15 0.24 2.22 -0.56 c 2.13 -1.58 1.28 -4.98 -1.35 -5.36 c -1.51 -0.22 -2.93 0.73 -3.32 2.17 c -0.39 1.45 0.42 2.03 0.01 2.2 c -0.11 0.04 -0.23 0 -0.27 -0.11 c -0.24 -0.57 -0.31 -1.19 -0.22 -1.8 c 0.27 -1.86 2 -3.15 3.86 -2.88 c 2 0.29 3.33 2.28 2.79 4.27 c -0.44 1.61 -2.03 2.73 -3.78 2.47 h 0 c -0.24 -0.03 -0.47 -0.09 -0.69 -0.18 Z" stroke-linecap="round"/>
</g>
</g>
</g>
</svg>