<svg xmlns="http://www.w3.org/2000/svg" xmlns:xlink="http://www.w3.org/1999/xlink" version="1.1" width="1024" height="1024" viewBox="0 0 1024 1024" xml:space="preserve">
<desc>Created with Fabric.js 3.5.0</desc>
<defs>
</defs>
<rect x="0" y="0" width="100%" height="100%" fill="#fff"/>
<g transform="matrix(1 0 0 1 506.1485 970.6264)" style="" id="802090">
		
<path xml:space="preserve" font-family="Lato" font-size="96" font-style="normal" font-weight="normal" style="stroke: none; stroke-width: 0; stroke-dasharray: none; stroke-linecap: butt; stroke-dashoffset: 0; stroke-linejoin: miter; stroke-miterlimit: 4; is-custom-font: none; font-file-url: none; fill: rgb(0,0,0); fill-rule: nonzero; opacity: 1; white-space: pre;" d="M-312.67-38.63L-312.67 22.33L-282.91 22.33L-282.91 30.16L-321.98 30.16L-321.98-38.63L-312.67-38.63ZM-273.02-18.47L-264.48-18.47L-264.48 30.16L-273.02 30.16L-273.02-18.47ZM-262.56-33.73L-262.56-33.73Q-262.56-32.48-263.06-31.40Q-263.57-30.32-264.41-29.48Q-265.25-28.64-266.35-28.16Q-267.46-27.68-268.70-27.68L-268.70-27.68Q-269.95-27.68-271.03-28.16Q-272.11-28.64-272.95-29.48Q-273.79-30.32-274.27-31.40Q-274.75-32.48-274.75-33.73L-274.75-33.73Q-274.75-34.98-274.27-36.11Q-273.79-37.23-272.95-38.07Q-272.11-38.91-271.03-39.39Q-269.95-39.87-268.70-39.87L-268.70-39.87Q-267.46-39.87-266.35-39.39Q-265.25-38.91-264.41-38.07Q-263.57-37.23-263.06-36.11Q-262.56-34.98-262.56-33.73ZM-213.98-12.90L-216.24-9.83Q-216.62-9.30-217.01-9.01Q-217.39-8.72-218.11-8.72L-218.11-8.72Q-218.83-8.72-219.67-9.32Q-220.51-9.92-221.81-10.64Q-223.10-11.36-224.95-11.96Q-226.80-12.56-229.49-12.56L-229.49-12.56Q-233.04-12.56-235.78-11.29Q-238.51-10.02-240.36-7.62Q-242.21-5.22-243.14-1.81Q-244.08 1.60-244.08 5.82L-244.08 5.82Q-244.08 10.24-243.07 13.67Q-242.06 17.10-240.24 19.43Q-238.42 21.76-235.80 22.98Q-233.18 24.21-229.92 24.21L-229.92 24.21Q-226.80 24.21-224.78 23.46Q-222.77 22.72-221.42 21.81Q-220.08 20.89-219.22 20.15Q-218.35 19.41-217.49 19.41L-217.49 19.41Q-216.38 19.41-215.86 20.22L-215.86 20.22L-213.46 23.34Q-216.62 27.23-221.38 29.03Q-226.13 30.83-231.41 30.83L-231.41 30.83Q-235.97 30.83-239.88 29.15Q-243.79 27.47-246.67 24.28Q-249.55 21.09-251.21 16.43Q-252.86 11.77-252.86 5.82L-252.86 5.82Q-252.86 0.40-251.35-4.21Q-249.84-8.82-246.94-12.15Q-244.03-15.49-239.76-17.36Q-235.49-19.23-229.97-19.23L-229.97-19.23Q-224.88-19.23-220.94-17.58Q-217.01-15.92-213.98-12.90L-213.98-12.90ZM-185.33-19.23L-185.33-19.23Q-180.96-19.23-177.26-17.77Q-173.57-16.31-170.88-13.55Q-168.19-10.79-166.68-6.73Q-165.17-2.67-165.17 2.51L-165.17 2.51Q-165.17 4.53-165.60 5.20Q-166.03 5.87-167.23 5.87L-167.23 5.87L-199.58 5.87Q-199.49 10.48-198.34 13.89Q-197.18 17.29-195.17 19.57Q-193.15 21.85-190.37 22.98Q-187.58 24.11-184.13 24.11L-184.13 24.11Q-180.91 24.11-178.58 23.37Q-176.26 22.62-174.58 21.76Q-172.90 20.89-171.77 20.15Q-170.64 19.41-169.82 19.41L-169.82 19.41Q-168.77 19.41-168.19 20.22L-168.19 20.22L-165.79 23.34Q-167.38 25.26-169.58 26.68Q-171.79 28.09-174.31 29.01Q-176.83 29.92-179.52 30.37Q-182.21 30.83-184.85 30.83L-184.85 30.83Q-189.89 30.83-194.14 29.13Q-198.38 27.42-201.48 24.13Q-204.58 20.85-206.30 16.00Q-208.03 11.15-208.03 4.86L-208.03 4.86Q-208.03-0.23-206.47-4.64Q-204.91-9.06-201.98-12.30Q-199.06-15.54-194.83-17.39Q-190.61-19.23-185.33-19.23ZM-185.14-12.95L-185.14-12.95Q-191.33-12.95-194.88-9.37Q-198.43-5.79-199.30 0.54L-199.30 0.54L-172.85 0.54Q-172.85-2.43-173.66-4.91Q-174.48-7.38-176.06-9.18Q-177.65-10.98-179.93-11.96Q-182.21-12.95-185.14-12.95ZM-145.73 30.16L-154.27 30.16L-154.27-18.47L-149.18-18.47Q-147.36-18.47-146.88-16.69L-146.88-16.69L-146.21-11.41Q-143.04-14.91-139.13-17.07Q-135.22-19.23-130.08-19.23L-130.08-19.23Q-126.10-19.23-123.05-17.91Q-120-16.59-117.96-14.17Q-115.92-11.75-114.86-8.34Q-113.81-4.93-113.81-0.80L-113.81-0.80L-113.81 30.16L-122.35 30.16L-122.35-0.80Q-122.35-6.32-124.87-9.37Q-127.39-12.42-132.58-12.42L-132.58-12.42Q-136.37-12.42-139.66-10.59Q-142.94-8.77-145.73-5.65L-145.73-5.65L-145.73 30.16ZM-71.14-13.57L-73.06-10.45Q-73.63-9.39-74.83-9.39L-74.83-9.39Q-75.55-9.39-76.46-9.92Q-77.38-10.45-78.70-11.10Q-80.02-11.75-81.84-12.30Q-83.66-12.85-86.16-12.85L-86.16-12.85Q-88.32-12.85-90.05-12.30Q-91.78-11.75-93-10.79Q-94.22-9.83-94.87-8.55Q-95.52-7.28-95.52-5.79L-95.52-5.79Q-95.52-3.92-94.44-2.67Q-93.36-1.43-91.58-0.51Q-89.81 0.40-87.55 1.09Q-85.30 1.79-82.92 2.58Q-80.54 3.37-78.29 4.33Q-76.03 5.29-74.26 6.73Q-72.48 8.17-71.40 10.26Q-70.32 12.35-70.32 15.28L-70.32 15.28Q-70.32 18.64-71.52 21.49Q-72.72 24.35-75.07 26.44Q-77.42 28.53-80.83 29.73Q-84.24 30.93-88.70 30.93L-88.70 30.93Q-93.79 30.93-97.92 29.27Q-102.05 27.61-104.93 25.02L-104.93 25.02L-102.91 21.76Q-102.53 21.13-102 20.80Q-101.47 20.46-100.61 20.46L-100.61 20.46Q-99.74 20.46-98.78 21.13Q-97.82 21.81-96.46 22.62Q-95.09 23.44-93.14 24.11Q-91.20 24.78-88.27 24.78L-88.27 24.78Q-85.78 24.78-83.90 24.13Q-82.03 23.49-80.78 22.38Q-79.54 21.28-78.94 19.84Q-78.34 18.40-78.34 16.77L-78.34 16.77Q-78.34 14.75-79.42 13.43Q-80.50 12.11-82.27 11.17Q-84.05 10.24-86.33 9.54Q-88.61 8.85-90.98 8.08Q-93.36 7.31-95.64 6.33Q-97.92 5.34-99.70 3.85Q-101.47 2.37-102.55 0.18Q-103.63-2.00-103.63-5.12L-103.63-5.12Q-103.63-7.91-102.48-10.47Q-101.33-13.04-99.12-14.99Q-96.91-16.93-93.70-18.08Q-90.48-19.23-86.35-19.23L-86.35-19.23Q-81.55-19.23-77.74-17.72Q-73.92-16.21-71.14-13.57L-71.14-13.57ZM-39.98-19.23L-39.98-19.23Q-35.62-19.23-31.92-17.77Q-28.22-16.31-25.54-13.55Q-22.85-10.79-21.34-6.73Q-19.82-2.67-19.82 2.51L-19.82 2.51Q-19.82 4.53-20.26 5.20Q-20.69 5.87-21.89 5.87L-21.89 5.87L-54.24 5.87Q-54.14 10.48-52.99 13.89Q-51.84 17.29-49.82 19.57Q-47.81 21.85-45.02 22.98Q-42.24 24.11-38.78 24.11L-38.78 24.11Q-35.57 24.11-33.24 23.37Q-30.91 22.62-29.23 21.76Q-27.55 20.89-26.42 20.15Q-25.30 19.41-24.48 19.41L-24.48 19.41Q-23.42 19.41-22.85 20.22L-22.85 20.22L-20.45 23.34Q-22.03 25.26-24.24 26.68Q-26.45 28.09-28.97 29.01Q-31.49 29.92-34.18 30.37Q-36.86 30.83-39.50 30.83L-39.50 30.83Q-44.54 30.83-48.79 29.13Q-53.04 27.42-56.14 24.13Q-59.23 20.85-60.96 16.00Q-62.69 11.15-62.69 4.86L-62.69 4.86Q-62.69-0.23-61.13-4.64Q-59.57-9.06-56.64-12.30Q-53.71-15.54-49.49-17.39Q-45.26-19.23-39.98-19.23ZM-39.79-12.95L-39.79-12.95Q-45.98-12.95-49.54-9.37Q-53.09-5.79-53.95 0.54L-53.95 0.54L-27.50 0.54Q-27.50-2.43-28.32-4.91Q-29.14-7.38-30.72-9.18Q-32.30-10.98-34.58-11.96Q-36.86-12.95-39.79-12.95ZM25.97-19.28L25.97-19.28Q29.14-19.28 31.90-18.59Q34.66-17.89 36.91-16.55L36.91-16.55L50.11-16.55L50.11-13.38Q50.11-11.79 48.10-11.36L48.10-11.36L42.58-10.59Q44.21-7.47 44.21-3.63L44.21-3.63Q44.21-0.08 42.84 2.82Q41.47 5.73 39.05 7.79Q36.62 9.85 33.29 10.96Q29.95 12.06 25.97 12.06L25.97 12.06Q22.56 12.06 19.54 11.25L19.54 11.25Q18.00 12.21 17.21 13.31Q16.42 14.41 16.42 15.47L16.42 15.47Q16.42 17.20 17.81 18.09Q19.20 18.97 21.50 19.36Q23.81 19.74 26.74 19.84Q29.66 19.93 32.71 20.15Q35.76 20.37 38.69 20.89Q41.62 21.42 43.92 22.62Q46.22 23.82 47.62 25.93Q49.01 28.05 49.01 31.41L49.01 31.41Q49.01 34.53 47.45 37.45Q45.89 40.38 42.96 42.66Q40.03 44.94 35.81 46.31Q31.58 47.68 26.26 47.68L26.26 47.68Q20.93 47.68 16.92 46.62Q12.91 45.57 10.27 43.79Q7.63 42.01 6.31 39.69Q4.99 37.36 4.99 34.81L4.99 34.81Q4.99 31.21 7.27 28.69Q9.55 26.17 13.54 24.69L13.54 24.69Q11.47 23.73 10.25 22.12Q9.02 20.51 9.02 17.82L9.02 17.82Q9.02 16.77 9.41 15.64Q9.79 14.51 10.58 13.41Q11.38 12.30 12.53 11.29Q13.68 10.29 15.22 9.52L15.22 9.52Q11.62 7.50 9.58 4.17Q7.54 0.83 7.54-3.63L7.54-3.63Q7.54-7.19 8.90-10.09Q10.27-12.99 12.72-15.03Q15.17-17.07 18.55-18.18Q21.94-19.28 25.97-19.28ZM41.14 32.80L41.14 32.80Q41.14 30.97 40.13 29.87Q39.12 28.77 37.39 28.17Q35.66 27.57 33.41 27.28Q31.15 26.99 28.66 26.87Q26.16 26.75 23.57 26.61Q20.98 26.46 18.62 26.08L18.62 26.08Q15.89 27.37 14.18 29.25Q12.48 31.12 12.48 33.71L12.48 33.71Q12.48 35.34 13.32 36.76Q14.16 38.17 15.89 39.21Q17.62 40.24 20.23 40.84Q22.85 41.44 26.40 41.44L26.40 41.44Q29.86 41.44 32.59 40.81Q35.33 40.19 37.22 39.04Q39.12 37.89 40.13 36.30Q41.14 34.72 41.14 32.80ZM25.97 6.40L25.97 6.40Q28.56 6.40 30.55 5.68Q32.54 4.96 33.89 3.66Q35.23 2.37 35.90 0.57Q36.58-1.23 36.58-3.39L36.58-3.39Q36.58-7.86 33.86-10.50Q31.15-13.14 25.97-13.14L25.97-13.14Q20.83-13.14 18.12-10.50Q15.41-7.86 15.41-3.39L15.41-3.39Q15.41-1.23 16.10 0.57Q16.80 2.37 18.14 3.66Q19.49 4.96 21.46 5.68Q23.42 6.40 25.97 6.40ZM67.20 30.16L58.66 30.16L58.66-18.47L63.55-18.47Q64.94-18.47 65.47-17.94Q66.00-17.41 66.19-16.11L66.19-16.11L66.77-8.53Q69.26-13.62 72.94-16.47Q76.61-19.33 81.55-19.33L81.55-19.33Q83.57-19.33 85.20-18.87Q86.83-18.42 88.22-17.60L88.22-17.60L87.12-11.22Q86.78-10.02 85.63-10.02L85.63-10.02Q84.96-10.02 83.57-10.47Q82.18-10.93 79.68-10.93L79.68-10.93Q75.22-10.93 72.22-8.34Q69.22-5.75 67.20-0.80L67.20-0.80L67.20 30.16ZM131.23-0.95L131.23 30.16L127.44 30.16Q126.19 30.16 125.42 29.77Q124.66 29.39 124.42 28.14L124.42 28.14L123.46 23.63Q121.54 25.36 119.71 26.73Q117.89 28.09 115.87 29.03Q113.86 29.97 111.58 30.45Q109.30 30.93 106.51 30.93L106.51 30.93Q103.68 30.93 101.21 30.13Q98.74 29.34 96.91 27.76Q95.09 26.17 94.01 23.75Q92.93 21.33 92.93 18.01L92.93 18.01Q92.93 15.13 94.51 12.47Q96.10 9.81 99.62 7.74Q103.15 5.68 108.86 4.36Q114.58 3.04 122.83 2.85L122.83 2.85L122.83-0.95Q122.83-6.61 120.41-9.51Q117.98-12.42 113.23-12.42L113.23-12.42Q110.11-12.42 107.98-11.63Q105.84-10.83 104.28-9.85Q102.72-8.87 101.59-8.07Q100.46-7.28 99.36-7.28L99.36-7.28Q98.50-7.28 97.85-7.74Q97.20-8.19 96.82-8.87L96.82-8.87L95.28-11.60Q99.31-15.49 103.97-17.41Q108.62-19.33 114.29-19.33L114.29-19.33Q118.37-19.33 121.54-17.99Q124.70-16.64 126.86-14.24Q129.02-11.84 130.13-8.43Q131.23-5.03 131.23-0.95L131.23-0.95ZM109.06 24.93L109.06 24.93Q111.31 24.93 113.18 24.47Q115.06 24.01 116.71 23.17Q118.37 22.33 119.88 21.13Q121.39 19.93 122.83 18.40L122.83 18.40L122.83 8.27Q116.93 8.46 112.80 9.21Q108.67 9.95 106.08 11.15Q103.49 12.35 102.31 13.98Q101.14 15.61 101.14 17.63L101.14 17.63Q101.14 19.55 101.76 20.94Q102.38 22.33 103.44 23.22Q104.50 24.11 105.94 24.52Q107.38 24.93 109.06 24.93ZM152.74 30.16L144.19 30.16L144.19-18.47L149.28-18.47Q151.10-18.47 151.58-16.69L151.58-16.69L152.26-11.41Q155.42-14.91 159.34-17.07Q163.25-19.23 168.38-19.23L168.38-19.23Q172.37-19.23 175.42-17.91Q178.46-16.59 180.50-14.17Q182.54-11.75 183.60-8.34Q184.66-4.93 184.66-0.80L184.66-0.80L184.66 30.16L176.11 30.16L176.11-0.80Q176.11-6.32 173.59-9.37Q171.07-12.42 165.89-12.42L165.89-12.42Q162.10-12.42 158.81-10.59Q155.52-8.77 152.74-5.65L152.74-5.65L152.74 30.16ZM212.30 30.93L212.30 30.93Q206.54 30.93 203.45 27.71Q200.35 24.49 200.35 18.45L200.35 18.45L200.35-11.31L194.50-11.31Q193.73-11.31 193.20-11.77Q192.67-12.23 192.67-13.19L192.67-13.19L192.67-16.59L200.64-17.60L202.61-32.63Q202.70-33.35 203.23-33.80Q203.76-34.26 204.58-34.26L204.58-34.26L208.90-34.26L208.90-17.51L222.82-17.51L222.82-11.31L208.90-11.31L208.90 17.87Q208.90 20.94 210.38 22.43Q211.87 23.92 214.22 23.92L214.22 23.92Q215.57 23.92 216.55 23.56Q217.54 23.20 218.26 22.77Q218.98 22.33 219.48 21.97Q219.98 21.61 220.37 21.61L220.37 21.61Q221.04 21.61 221.57 22.43L221.57 22.43L224.06 26.51Q221.86 28.57 218.74 29.75Q215.62 30.93 212.30 30.93ZM252.62-19.23L252.62-19.23Q256.99-19.23 260.69-17.77Q264.38-16.31 267.07-13.55Q269.76-10.79 271.27-6.73Q272.78-2.67 272.78 2.51L272.78 2.51Q272.78 4.53 272.35 5.20Q271.92 5.87 270.72 5.87L270.72 5.87L238.37 5.87Q238.46 10.48 239.62 13.89Q240.77 17.29 242.78 19.57Q244.80 21.85 247.58 22.98Q250.37 24.11 253.82 24.11L253.82 24.11Q257.04 24.11 259.37 23.37Q261.70 22.62 263.38 21.76Q265.06 20.89 266.18 20.15Q267.31 19.41 268.13 19.41L268.13 19.41Q269.18 19.41 269.76 20.22L269.76 20.22L272.16 23.34Q270.58 25.26 268.37 26.68Q266.16 28.09 263.64 29.01Q261.12 29.92 258.43 30.37Q255.74 30.83 253.10 30.83L253.10 30.83Q248.06 30.83 243.82 29.13Q239.57 27.42 236.47 24.13Q233.38 20.85 231.65 16.00Q229.92 11.15 229.92 4.86L229.92 4.86Q229.92-0.23 231.48-4.64Q233.04-9.06 235.97-12.30Q238.90-15.54 243.12-17.39Q247.34-19.23 252.62-19.23ZM252.82-12.95L252.82-12.95Q246.62-12.95 243.07-9.37Q239.52-5.79 238.66 0.54L238.66 0.54L265.10 0.54Q265.10-2.43 264.29-4.91Q263.47-7.38 261.89-9.18Q260.30-10.98 258.02-11.96Q255.74-12.95 252.82-12.95ZM322.99 30.16L317.90 30.16Q316.08 30.16 315.60 28.38L315.60 28.38L314.83 22.48Q311.71 26.27 307.70 28.55Q303.70 30.83 298.51 30.83L298.51 30.83Q294.34 30.83 290.93 29.22Q287.52 27.61 285.12 24.49Q282.72 21.37 281.42 16.72Q280.13 12.06 280.13 6.01L280.13 6.01Q280.13 0.64 281.57-3.99Q283.01-8.63 285.72-12.03Q288.43-15.44 292.32-17.39Q296.21-19.33 301.15-19.33L301.15-19.33Q305.62-19.33 308.78-17.82Q311.95-16.31 314.45-13.57L314.45-13.57L314.45-40.55L322.99-40.55L322.99 30.16ZM301.34 23.92L301.34 23.92Q305.52 23.92 308.66 22.00Q311.81 20.08 314.45 16.57L314.45 16.57L314.45-6.95Q312.10-10.11 309.29-11.39Q306.48-12.66 303.07-12.66L303.07-12.66Q296.26-12.66 292.61-7.81Q288.96-2.96 288.96 6.01L288.96 6.01Q288.96 10.77 289.78 14.15Q290.59 17.53 292.18 19.72Q293.76 21.90 296.06 22.91Q298.37 23.92 301.34 23.92Z"/></g>
<g transform="matrix(8.56 0 0 8.56 494.3029 428)" id="350176">
<g style="" vector-effect="non-scaling-stroke">
		<g transform="matrix(1 0 0 1 -0.0239 0.1897)" id="Layer_1">
<linearGradient id="SVGID_1618" gradientUnits="userSpaceOnUse" gradientTransform="matrix(1 0 0 1 0 0)" x1="10.48" y1="50.18" x2="89.49" y2="50.18">
<stop offset="0%" style="stop-color:rgb(218,227,254);stop-opacity: 1"/>
<stop offset="100%" style="stop-color:rgb(233,239,253);stop-opacity: 1"/>
</linearGradient>
<path style="stroke: none; stroke-width: 1; stroke-dasharray: none; stroke-linecap: butt; stroke-dashoffset: 0; stroke-linejoin: miter; stroke-miterlimit: 4; is-custom-font: none; font-file-url: none; fill: url(#SVGID_1618); fill-rule: nonzero; opacity: 1;" transform=" translate(-49.9761, -50.1897)" d="m 79.98 78.66 c -2.06 2.14 -3.9 3.39 -5.31 4.34 c -13.74 9.24 -29.45 6.58 -34.3 5.67 c -7.83 -1.47 -14.45 -2.51 -20.13 -7.68 c -12.91 -11.75 -12.28 -36.27 -2.42 -51.45 c 1.17 -1.8 11.02 -16.51 26.76 -18.58 c 0.38 -0.05 0.67 -0.08 0.92 -0.11 c 2.44 -0.26 17.52 -1.63 29.83 8.75 c 1.76 1.49 4.6 4.17 7.22 8.26 c 9.61 14.95 9.64 38.11 -2.58 50.8 Z" stroke-linecap="round"/>
</g>
		<g transform="matrix(1 0 0 1 -38.905 -14.5539)" id="Layer_1">
<path style="stroke: none; stroke-width: 1; stroke-dasharray: none; stroke-linecap: butt; stroke-dashoffset: 0; stroke-linejoin: miter; stroke-miterlimit: 4; is-custom-font: none; font-file-url: none; fill: rgb(145,179,250); fill-rule: nonzero; opacity: 1;" transform=" translate(-11.095, -35.4462)" d="m 11.18 35.72 s -0.07 -0.02 -0.09 -0.06 c -0.05 -0.12 -0.1 -0.24 -0.15 -0.36 c -0.02 -0.05 0 -0.11 0.05 -0.12 c 0.05 -0.02 0.11 0 0.12 0.05 c 0.05 0.12 0.09 0.24 0.14 0.35 c 0.02 0.05 0 0.11 -0.05 0.13 c -0.01 0 -0.03 0 -0.04 0 Z" stroke-linecap="round"/>
</g>
		<g transform="matrix(1 0 0 1 -30.6012 -24.6207)" id="Layer_1">
<path style="stroke: none; stroke-width: 1; stroke-dasharray: none; stroke-linecap: butt; stroke-dashoffset: 0; stroke-linejoin: miter; stroke-miterlimit: 4; is-custom-font: none; font-file-url: none; fill: rgb(145,179,250); fill-rule: nonzero; opacity: 1;" transform=" translate(-19.3988, -25.3794)" d="m 10.64 34.21 s -0.08 -0.03 -0.09 -0.07 c -0.07 -0.24 -0.14 -0.49 -0.19 -0.73 c -0.01 -0.05 0.02 -0.1 0.07 -0.12 c 0.05 -0.01 0.1 0.02 0.12 0.07 c 0.06 0.24 0.12 0.48 0.19 0.72 c 0.01 0.05 -0.01 0.1 -0.07 0.12 c 0 0 -0.02 0 -0.03 0 Z m -0.41 -1.93 s -0.09 -0.03 -0.09 -0.08 c -0.03 -0.25 -0.06 -0.5 -0.08 -0.75 c 0 -0.05 0.03 -0.1 0.09 -0.1 c 0.05 0 0.1 0.03 0.1 0.09 c 0.02 0.25 0.05 0.5 0.08 0.74 c 0 0.05 -0.03 0.1 -0.08 0.11 c 0 0 0 0 -0.01 0 Z m -0.13 -1.97 h 0 c -0.05 0 -0.1 -0.04 -0.1 -0.1 c 0 -0.25 0 -0.51 0.02 -0.76 c 0 -0.05 0.05 -0.09 0.1 -0.09 c 0.05 0 0.09 0.05 0.09 0.1 c -0.01 0.25 -0.02 0.5 -0.02 0.75 c 0 0.05 -0.04 0.1 -0.1 0.1 Z m 0.15 -1.97 s 0 0 -0.01 0 c -0.05 0 -0.09 -0.06 -0.08 -0.11 c 0.04 -0.25 0.08 -0.5 0.13 -0.75 c 0.01 -0.05 0.06 -0.09 0.11 -0.07 c 0.05 0.01 0.09 0.06 0.07 0.11 c -0.05 0.24 -0.09 0.49 -0.13 0.74 c 0 0.05 -0.05 0.08 -0.09 0.08 Z m 0.43 -1.93 s -0.02 0 -0.03 0 c -0.05 -0.02 -0.08 -0.07 -0.06 -0.12 c 0.07 -0.24 0.15 -0.48 0.24 -0.72 c 0.02 -0.05 0.07 -0.08 0.12 -0.06 c 0.05 0.02 0.08 0.07 0.06 0.12 c -0.09 0.23 -0.17 0.47 -0.24 0.71 c -0.01 0.04 -0.05 0.07 -0.09 0.07 Z m 0.71 -1.84 s -0.03 0 -0.04 0 c -0.05 -0.02 -0.07 -0.08 -0.05 -0.13 c 0.11 -0.23 0.22 -0.46 0.34 -0.68 c 0.03 -0.05 0.08 -0.06 0.13 -0.04 c 0.05 0.03 0.06 0.08 0.04 0.13 c -0.12 0.22 -0.23 0.44 -0.34 0.67 c -0.02 0.03 -0.05 0.06 -0.09 0.06 Z m 0.97 -1.72 s -0.04 0 -0.05 -0.02 c -0.04 -0.03 -0.06 -0.09 -0.03 -0.13 c 0.14 -0.21 0.29 -0.42 0.44 -0.62 c 0.03 -0.04 0.09 -0.05 0.13 -0.02 c 0.04 0.03 0.05 0.09 0.02 0.13 c -0.15 0.2 -0.29 0.41 -0.43 0.61 c -0.02 0.03 -0.05 0.04 -0.08 0.04 Z m 1.21 -1.56 s -0.05 0 -0.06 -0.02 c -0.04 -0.04 -0.04 -0.1 0 -0.14 c 0.17 -0.19 0.34 -0.37 0.52 -0.55 c 0.04 -0.04 0.1 -0.04 0.14 0 c 0.04 0.04 0.04 0.1 0 0.14 c -0.18 0.18 -0.35 0.36 -0.51 0.54 c -0.02 0.02 -0.05 0.03 -0.07 0.03 Z m 1.42 -1.37 s -0.05 -0.01 -0.07 -0.03 c -0.03 -0.04 -0.03 -0.1 0.01 -0.14 c 0.19 -0.16 0.39 -0.32 0.59 -0.47 c 0.04 -0.03 0.1 -0.02 0.13 0.02 c 0.03 0.04 0.02 0.1 -0.02 0.13 c -0.2 0.15 -0.39 0.3 -0.59 0.46 c -0.02 0.02 -0.04 0.02 -0.06 0.02 Z m 1.6 -1.16 s -0.06 -0.02 -0.08 -0.05 c -0.03 -0.05 -0.01 -0.1 0.03 -0.13 c 0.21 -0.13 0.43 -0.26 0.65 -0.38 c 0.05 -0.03 0.1 0 0.13 0.04 c 0.03 0.05 0 0.1 -0.04 0.13 c -0.22 0.12 -0.43 0.24 -0.65 0.37 c -0.02 0 -0.03 0.01 -0.05 0.01 Z m 1.75 -0.91 s -0.07 -0.02 -0.09 -0.06 c -0.02 -0.05 0 -0.11 0.05 -0.13 c 0.23 -0.1 0.47 -0.19 0.7 -0.28 c 0.05 -0.02 0.1 0 0.12 0.06 c 0.02 0.05 0 0.1 -0.06 0.12 c -0.23 0.09 -0.47 0.18 -0.69 0.28 c -0.01 0 -0.03 0 -0.04 0 Z m 10.36 -0.19 s -0.02 0 -0.03 0 c -0.23 -0.09 -0.47 -0.17 -0.7 -0.25 c -0.05 -0.02 -0.08 -0.07 -0.06 -0.12 c 0.02 -0.05 0.07 -0.08 0.12 -0.06 c 0.24 0.08 0.48 0.16 0.71 0.26 c 0.05 0.02 0.07 0.07 0.05 0.12 c -0.01 0.04 -0.05 0.06 -0.09 0.06 Z m -8.5 -0.46 s -0.08 -0.03 -0.09 -0.07 c -0.01 -0.05 0.02 -0.1 0.07 -0.12 c 0.24 -0.07 0.49 -0.12 0.74 -0.18 c 0.05 -0.01 0.1 0.02 0.11 0.07 c 0.01 0.05 -0.02 0.1 -0.07 0.11 c -0.24 0.05 -0.49 0.11 -0.73 0.17 c 0 0 -0.02 0 -0.03 0 Z m 6.61 -0.12 s -0.01 0 -0.02 0 c -0.24 -0.06 -0.49 -0.1 -0.73 -0.15 c -0.05 0 -0.09 -0.06 -0.08 -0.11 c 0 -0.05 0.06 -0.09 0.11 -0.08 c 0.25 0.04 0.5 0.09 0.74 0.15 c 0.05 0.01 0.08 0.06 0.07 0.12 c -0.01 0.04 -0.05 0.07 -0.09 0.07 Z m -4.68 -0.25 s -0.09 -0.04 -0.1 -0.08 c 0 -0.05 0.03 -0.1 0.08 -0.11 c 0.25 -0.03 0.5 -0.05 0.75 -0.07 c 0.05 0 0.1 0.04 0.1 0.09 s -0.04 0.1 -0.09 0.1 c -0.25 0.02 -0.5 0.04 -0.74 0.07 c 0 0 0 0 -0.01 0 Z m 2.72 -0.05 s 0 0 0 0 c -0.25 -0.02 -0.5 -0.03 -0.75 -0.04 c -0.05 0 -0.09 -0.05 -0.09 -0.1 s 0.04 -0.1 0.1 -0.09 c 0.25 0 0.51 0.02 0.76 0.04 c 0.05 0 0.09 0.05 0.09 0.1 c 0 0.05 -0.05 0.09 -0.1 0.09 Z" stroke-linecap="round"/>
</g>
		<g transform="matrix(1 0 0 1 -20.0172 -31.8471)" id="Layer_1">
<path style="stroke: none; stroke-width: 1; stroke-dasharray: none; stroke-linecap: butt; stroke-dashoffset: 0; stroke-linejoin: miter; stroke-miterlimit: 4; is-custom-font: none; font-file-url: none; fill: rgb(145,179,250); fill-rule: nonzero; opacity: 1;" transform=" translate(-29.9828, -18.153)" d="m 30.16 18.33 s -0.03 0 -0.05 -0.01 c -0.11 -0.06 -0.22 -0.12 -0.34 -0.17 c -0.05 -0.02 -0.07 -0.08 -0.04 -0.13 c 0.02 -0.05 0.08 -0.07 0.13 -0.04 c 0.12 0.06 0.23 0.12 0.34 0.18 c 0.05 0.02 0.06 0.08 0.04 0.13 c -0.02 0.03 -0.05 0.05 -0.08 0.05 Z" stroke-linecap="round"/>
</g>
		<g transform="matrix(1 0 0 1 -13.23 -23.8082)" id="Layer_1">
<path style="stroke: none; stroke-width: 1; stroke-dasharray: none; stroke-linecap: butt; stroke-dashoffset: 0; stroke-linejoin: miter; stroke-miterlimit: 4; is-custom-font: none; font-file-url: none; fill: rgb(145,179,250); fill-rule: nonzero; opacity: 1;" transform=" translate(-36.77, -26.1919)" d="m 36.82 26.47 s -0.08 -0.03 -0.09 -0.07 c -0.04 -0.12 -0.07 -0.24 -0.11 -0.36 c -0.02 -0.05 0.01 -0.1 0.06 -0.12 c 0.05 -0.02 0.1 0.01 0.12 0.06 c 0.04 0.12 0.08 0.25 0.12 0.37 c 0.02 0.05 -0.01 0.1 -0.06 0.12 c 0 0 -0.02 0 -0.03 0 Z" stroke-linecap="round"/>
</g>
		<g transform="matrix(1 0 0 1 -22.1689 -14.226)" id="Layer_1">
<path style="stroke: none; stroke-width: 1; stroke-dasharray: none; stroke-linecap: butt; stroke-dashoffset: 0; stroke-linejoin: miter; stroke-miterlimit: 4; is-custom-font: none; font-file-url: none; fill: rgb(145,179,250); fill-rule: nonzero; opacity: 1;" transform=" translate(-27.8312, -35.7741)" d="m 24.31 44.01 c -0.05 0 -0.09 -0.04 -0.1 -0.09 c 0 -0.05 0.04 -0.1 0.09 -0.1 h 0.09 c 0.23 -0.02 0.46 -0.03 0.69 -0.05 c 0.05 0 0.1 0.03 0.11 0.09 c 0 0.05 -0.03 0.1 -0.09 0.11 c -0.23 0.02 -0.47 0.04 -0.7 0.05 h -0.09 s 0 0 0 0 Z m -1.28 0 s 0 0 0 0 c -0.26 -0.01 -0.53 -0.03 -0.79 -0.06 c -0.05 0 -0.09 -0.05 -0.09 -0.11 c 0 -0.05 0.05 -0.09 0.11 -0.09 c 0.26 0.03 0.52 0.05 0.78 0.06 c 0.05 0 0.09 0.05 0.09 0.1 c 0 0.05 -0.05 0.09 -0.1 0.09 Z m 3.33 -0.23 s -0.09 -0.03 -0.09 -0.08 c -0.01 -0.05 0.02 -0.1 0.08 -0.11 c 0.26 -0.05 0.51 -0.11 0.76 -0.17 c 0.05 -0.01 0.1 0.02 0.12 0.07 s -0.02 0.1 -0.07 0.12 c -0.25 0.07 -0.52 0.12 -0.77 0.17 c 0 0 -0.01 0 -0.02 0 Z m -5.38 -0.03 s -0.01 0 -0.02 0 c -0.26 -0.05 -0.52 -0.11 -0.77 -0.18 c -0.05 -0.01 -0.08 -0.07 -0.07 -0.12 c 0.01 -0.05 0.07 -0.08 0.12 -0.07 c 0.25 0.07 0.51 0.13 0.76 0.18 c 0.05 0.01 0.09 0.06 0.07 0.11 c 0 0.05 -0.05 0.08 -0.09 0.08 Z m 7.38 -0.52 s -0.08 -0.02 -0.09 -0.06 c -0.02 -0.05 0 -0.1 0.06 -0.12 c 0.24 -0.09 0.49 -0.18 0.73 -0.29 c 0.05 -0.02 0.11 0 0.13 0.05 c 0.02 0.05 0 0.11 -0.05 0.13 c -0.24 0.1 -0.49 0.2 -0.74 0.29 c -0.01 0 -0.02 0 -0.03 0 Z m -9.36 -0.05 s -0.02 0 -0.03 0 c -0.25 -0.09 -0.49 -0.19 -0.74 -0.3 c -0.05 -0.02 -0.07 -0.08 -0.05 -0.13 c 0.02 -0.05 0.08 -0.07 0.13 -0.05 c 0.24 0.1 0.48 0.2 0.73 0.29 c 0.05 0.02 0.08 0.07 0.06 0.12 c -0.01 0.04 -0.05 0.06 -0.09 0.06 Z m 11.25 -0.8 s -0.07 -0.02 -0.08 -0.05 c -0.03 -0.05 0 -0.1 0.04 -0.13 c 0.23 -0.12 0.45 -0.26 0.68 -0.39 c 0.05 -0.03 0.1 -0.01 0.13 0.03 c 0.03 0.05 0.01 0.1 -0.03 0.13 c -0.22 0.14 -0.45 0.27 -0.69 0.4 c -0.01 0 -0.03 0.01 -0.05 0.01 Z m 1.74 -1.12 s -0.06 -0.01 -0.08 -0.04 c -0.03 -0.04 -0.02 -0.1 0.02 -0.13 c 0.21 -0.16 0.41 -0.32 0.61 -0.49 c 0.04 -0.03 0.1 -0.03 0.14 0.01 c 0.03 0.04 0.03 0.1 -0.01 0.14 c -0.2 0.17 -0.41 0.34 -0.62 0.5 c -0.02 0.01 -0.04 0.02 -0.06 0.02 Z m 1.55 -1.37 s -0.05 0 -0.07 -0.03 c -0.04 -0.04 -0.04 -0.1 0 -0.14 c 0.18 -0.19 0.36 -0.38 0.53 -0.58 c 0.03 -0.04 0.1 -0.04 0.14 0 c 0.04 0.03 0.04 0.1 0 0.14 c -0.17 0.2 -0.35 0.4 -0.54 0.58 c -0.02 0.02 -0.04 0.03 -0.07 0.03 Z m 1.32 -1.59 s -0.04 0 -0.06 -0.02 c -0.04 -0.03 -0.05 -0.09 -0.02 -0.13 c 0.15 -0.21 0.3 -0.43 0.44 -0.65 c 0.03 -0.04 0.09 -0.06 0.13 -0.03 c 0.04 0.03 0.06 0.09 0.03 0.13 c -0.14 0.22 -0.29 0.44 -0.44 0.66 c -0.02 0.03 -0.05 0.04 -0.08 0.04 Z m 1.07 -1.77 s -0.03 0 -0.04 -0.01 c -0.05 -0.02 -0.07 -0.08 -0.04 -0.13 c 0.12 -0.23 0.23 -0.47 0.33 -0.71 c 0.02 -0.05 0.08 -0.07 0.13 -0.05 c 0.05 0.02 0.07 0.08 0.05 0.13 c -0.11 0.24 -0.22 0.48 -0.34 0.72 c -0.02 0.03 -0.05 0.05 -0.09 0.05 Z m 0.79 -1.91 s -0.02 0 -0.03 0 c -0.05 -0.02 -0.08 -0.07 -0.06 -0.12 c 0.08 -0.25 0.16 -0.5 0.22 -0.75 c 0.01 -0.05 0.07 -0.08 0.12 -0.07 c 0.05 0.01 0.08 0.07 0.07 0.12 c -0.07 0.26 -0.14 0.51 -0.23 0.76 c -0.01 0.04 -0.05 0.07 -0.09 0.07 Z m 0.49 -2.01 s -0.01 0 -0.02 0 c -0.05 0 -0.09 -0.06 -0.08 -0.11 c 0.04 -0.26 0.08 -0.52 0.11 -0.78 c 0 -0.05 0.05 -0.09 0.11 -0.09 c 0.05 0 0.09 0.05 0.09 0.11 c -0.03 0.26 -0.06 0.53 -0.11 0.79 c 0 0.05 -0.05 0.08 -0.09 0.08 Z m 0.18 -2.06 h 0 c -0.05 0 -0.1 -0.04 -0.09 -0.1 c 0 -0.06 0 -0.11 0 -0.17 c 0 -0.2 0 -0.41 -0.01 -0.62 c 0 -0.05 0.04 -0.1 0.09 -0.1 c 0.05 0 0.1 0.04 0.1 0.09 c 0 0.21 0.01 0.42 0.01 0.62 c 0 0.06 0 0.11 0 0.17 c 0 0.05 -0.04 0.09 -0.1 0.09 Z m -0.13 -2.06 s -0.09 -0.03 -0.09 -0.08 c -0.04 -0.26 -0.08 -0.52 -0.13 -0.77 c -0.01 -0.05 0.02 -0.1 0.08 -0.11 c 0.05 -0.01 0.1 0.02 0.11 0.08 c 0.05 0.26 0.1 0.52 0.13 0.78 c 0 0.05 -0.03 0.1 -0.08 0.11 c 0 0 0 0 -0.01 0 Z" stroke-linecap="round"/>
</g>
		<g transform="matrix(1 0 0 1 -33.0536 -7.8835)" id="Layer_1">
<path style="stroke: none; stroke-width: 1; stroke-dasharray: none; stroke-linecap: butt; stroke-dashoffset: 0; stroke-linejoin: miter; stroke-miterlimit: 4; is-custom-font: none; font-file-url: none; fill: rgb(145,179,250); fill-rule: nonzero; opacity: 1;" transform=" translate(-16.9464, -42.1166)" d="m 17.11 42.3 s -0.03 0 -0.05 -0.01 c -0.11 -0.06 -0.22 -0.13 -0.33 -0.19 c -0.05 -0.03 -0.06 -0.09 -0.03 -0.13 c 0.03 -0.05 0.09 -0.06 0.13 -0.03 c 0.11 0.06 0.22 0.13 0.33 0.19 c 0.05 0.03 0.06 0.08 0.04 0.13 c -0.02 0.03 -0.05 0.05 -0.08 0.05 Z" stroke-linecap="round"/>
</g>
		<g transform="matrix(1 0 0 1 -26.25 -19.83)" id="Layer_1">
<path style="stroke: none; stroke-width: 1; stroke-dasharray: none; stroke-linecap: butt; stroke-dashoffset: 0; stroke-linejoin: miter; stroke-miterlimit: 4; is-custom-font: none; font-file-url: none; fill: rgb(145,179,250); fill-rule: nonzero; opacity: 1;" transform=" translate(-23.75, -30.17)" d="m 17.3 38.55 c 0.05 0.05 0.13 0.06 0.19 0.03 l 1.78 -0.9 c 0.8 0.48 1.68 0.83 2.62 1.03 l 0.68 1.87 c 0.02 0.07 0.09 0.11 0.16 0.11 l 2.39 -0.04 c 0.07 0 0.13 -0.05 0.15 -0.11 l 0.62 -1.89 c 0.93 -0.23 1.8 -0.62 2.58 -1.12 l 1.81 0.84 c 0.06 0.03 0.14 0.02 0.19 -0.03 l 1.66 -1.72 c 0.05 -0.05 0.06 -0.13 0.03 -0.19 l -0.9 -1.78 c 0.48 -0.8 0.83 -1.68 1.03 -2.62 l 1.87 -0.68 c 0.07 -0.02 0.11 -0.09 0.11 -0.16 l -0.04 -2.39 c 0 -0.07 -0.05 -0.13 -0.11 -0.15 l -1.89 -0.62 c -0.23 -0.93 -0.62 -1.8 -1.12 -2.58 l 0.84 -1.81 c 0.03 -0.06 0.02 -0.14 -0.03 -0.19 l -1.72 -1.66 c -0.05 -0.05 -0.13 -0.06 -0.19 -0.03 l -1.78 0.9 c -0.8 -0.48 -1.68 -0.83 -2.62 -1.03 l -0.68 -1.87 c -0.02 -0.07 -0.09 -0.11 -0.16 -0.11 l -2.39 0.04 c -0.07 0 -0.13 0.05 -0.15 0.11 l -0.62 1.89 c -0.93 0.23 -1.8 0.62 -2.58 1.12 l -1.81 -0.84 c -0.06 -0.03 -0.14 -0.02 -0.19 0.03 l -1.66 1.72 c -0.05 0.05 -0.06 0.13 -0.03 0.19 l 0.9 1.78 c -0.48 0.8 -0.83 1.68 -1.03 2.62 l -1.87 0.68 c -0.07 0.02 -0.11 0.09 -0.11 0.16 l 0.04 2.39 c 0 0.07 0.05 0.13 0.11 0.15 l 1.89 0.62 c 0.23 0.93 0.62 1.8 1.12 2.58 l -0.84 1.81 c -0.03 0.06 -0.02 0.14 0.03 0.19 l 1.72 1.66 Z" stroke-linecap="round"/>
</g>
		<g transform="matrix(1 0 0 1 -26.26 -19.83)" id="Layer_1">
<path style="stroke: none; stroke-width: 1; stroke-dasharray: none; stroke-linecap: butt; stroke-dashoffset: 0; stroke-linejoin: miter; stroke-miterlimit: 4; is-custom-font: none; font-file-url: none; fill: rgb(189,208,251); fill-rule: nonzero; opacity: 1;" transform=" translate(-23.74, -30.1699)" d="m 23.74 32.44 c -1 0 -1.92 -0.67 -2.19 -1.68 c -0.33 -1.21 0.39 -2.45 1.6 -2.78 c 1.21 -0.33 2.45 0.39 2.78 1.6 c 0.33 1.21 -0.39 2.45 -1.6 2.78 h 0 c -0.2 0.05 -0.4 0.08 -0.59 0.08 Z m 0 -4.25 c -0.17 0 -0.34 0.02 -0.52 0.07 c -1.05 0.28 -1.68 1.37 -1.39 2.43 c 0.28 1.05 1.37 1.68 2.43 1.39 h 0 c 1.05 -0.28 1.68 -1.37 1.39 -2.43 c -0.24 -0.88 -1.04 -1.46 -1.91 -1.46 Z" stroke-linecap="round"/>
</g>
		<g transform="matrix(1 0 0 1 -26.235 -19.8653)" id="Layer_1">
<path style="stroke: none; stroke-width: 1; stroke-dasharray: none; stroke-linecap: butt; stroke-dashoffset: 0; stroke-linejoin: miter; stroke-miterlimit: 4; is-custom-font: none; font-file-url: none; fill: rgb(189,208,251); fill-rule: nonzero; opacity: 1;" transform=" translate(-23.765, -30.1346)" d="m 23.77 36.04 h 0 c -0.39 0 -0.78 -0.04 -1.16 -0.11 l 0.06 -0.28 c 0.39 0.08 0.79 0.11 1.19 0.11 c 0.28 0 0.57 -0.03 0.84 -0.08 c 0 0 0 0 0 0 c 0 0 0 0 0 0 c 1.18 -0.2 2.26 -0.76 3.1 -1.64 c 1.02 -1.06 1.58 -2.44 1.58 -3.91 c 0 -0.03 0 -0.06 0 -0.09 c -0.05 -3.07 -2.56 -5.53 -5.62 -5.53 c -0.03 0 -0.06 0 -0.09 0 c -3.07 0.05 -5.53 2.56 -5.53 5.62 c 0 0.03 0 0.06 0 0.09 c 0.02 1.02 0.31 2.01 0.84 2.88 l -0.24 0.15 c -0.56 -0.91 -0.87 -1.95 -0.89 -3.02 c 0 -0.03 0 -0.07 0 -0.1 c 0 -3.22 2.59 -5.86 5.82 -5.91 c 3.26 -0.05 5.96 2.56 6.01 5.82 c 0 0.03 0 0.07 0 0.1 c 0 1.54 -0.59 3 -1.66 4.11 c -1.1 1.14 -2.57 1.77 -4.15 1.8 c -0.03 0 -0.07 0 -0.1 0 Z" stroke-linecap="round"/>
</g>
		<g transform="matrix(1 0 0 1 -13.285 -32.285)" id="Layer_1">
<path style="stroke: none; stroke-width: 1; stroke-dasharray: none; stroke-linecap: butt; stroke-dashoffset: 0; stroke-linejoin: miter; stroke-miterlimit: 4; is-custom-font: none; font-file-url: none; fill: rgb(145,179,250); fill-rule: nonzero; opacity: 1;" transform=" translate(-36.715, -17.715)" d="m 33.61 22.68 l 0.95 -0.58 c 0.47 0.23 0.98 0.39 1.51 0.46 l 0.46 1.02 s 0.05 0.06 0.09 0.05 l 1.33 -0.13 s 0.07 -0.03 0.08 -0.07 l 0.26 -1.09 c 0.51 -0.17 0.98 -0.42 1.39 -0.74 l 1.05 0.39 s 0.08 0 0.1 -0.03 l 0.85 -1.03 s 0.03 -0.07 0 -0.11 l -0.58 -0.95 c 0.23 -0.47 0.39 -0.98 0.46 -1.51 l 1.02 -0.46 s 0.06 -0.05 0.05 -0.09 l -0.13 -1.33 s -0.03 -0.07 -0.07 -0.08 l -1.09 -0.26 c -0.17 -0.51 -0.42 -0.98 -0.74 -1.39 l 0.39 -1.05 s 0 -0.08 -0.03 -0.1 l -1.03 -0.85 s -0.07 -0.03 -0.11 0 l -0.95 0.58 c -0.47 -0.23 -0.98 -0.39 -1.51 -0.46 l -0.46 -1.02 s -0.05 -0.06 -0.09 -0.05 l -1.33 0.13 s -0.07 0.03 -0.08 0.07 l -0.26 1.09 c -0.51 0.17 -0.98 0.42 -1.39 0.74 l -1.05 -0.39 s -0.08 0 -0.1 0.03 l -0.85 1.03 s -0.03 0.07 0 0.11 l 0.58 0.95 c -0.23 0.47 -0.39 0.98 -0.46 1.51 l -1.02 0.46 s -0.06 0.05 -0.05 0.09 l 0.13 1.33 s 0.03 0.07 0.07 0.08 l 1.09 0.26 c 0.17 0.51 0.42 0.98 0.74 1.39 l -0.39 1.05 s 0 0.08 0.03 0.1 l 1.03 0.85 s 0.07 0.03 0.11 0 Z" stroke-linecap="round"/>
</g>
		<g transform="matrix(1 0 0 1 -13.2693 -32.2889)" id="Layer_1">
<path style="stroke: none; stroke-width: 1; stroke-dasharray: none; stroke-linecap: butt; stroke-dashoffset: 0; stroke-linejoin: miter; stroke-miterlimit: 4; is-custom-font: none; font-file-url: none; fill: rgb(189,208,251); fill-rule: nonzero; opacity: 1;" transform=" translate(-36.7307, -17.711)" d="m 36.73 19.05 c -0.55 0 -1.06 -0.34 -1.26 -0.89 c -0.12 -0.34 -0.1 -0.7 0.05 -1.02 c 0.15 -0.32 0.42 -0.57 0.76 -0.69 s 0.7 -0.1 1.02 0.05 c 0.32 0.15 0.57 0.42 0.69 0.76 c 0.25 0.69 -0.11 1.46 -0.81 1.7 h 0 c -0.15 0.05 -0.3 0.08 -0.45 0.08 Z m 0.4 -0.21 h 0 h 0 Z m -0.4 -2.17 c -0.12 0 -0.24 0.02 -0.35 0.06 c -0.26 0.09 -0.47 0.28 -0.59 0.54 c -0.12 0.25 -0.13 0.54 -0.04 0.8 c 0.19 0.54 0.79 0.83 1.34 0.63 c 0.54 -0.19 0.83 -0.79 0.63 -1.34 c -0.09 -0.26 -0.28 -0.47 -0.54 -0.59 c -0.14 -0.07 -0.29 -0.1 -0.45 -0.1 Z" stroke-linecap="round"/>
</g>
		<g transform="matrix(1 0 0 1 -18.893 -27.8087)" id="Layer_1">
<path style="stroke: none; stroke-width: 1; stroke-dasharray: none; stroke-linecap: butt; stroke-dashoffset: 0; stroke-linejoin: miter; stroke-miterlimit: 4; is-custom-font: none; font-file-url: none; fill: rgb(145,179,250); fill-rule: nonzero; opacity: 1;" transform=" translate(-31.107, -22.1913)" d="m 31.22 22.42 s -0.05 -0.01 -0.07 -0.03 c -0.08 -0.1 -0.16 -0.2 -0.24 -0.3 c -0.03 -0.04 -0.02 -0.1 0.02 -0.13 c 0.04 -0.03 0.1 -0.02 0.13 0.02 c 0.08 0.1 0.15 0.2 0.24 0.3 c 0.03 0.04 0.03 0.1 -0.01 0.14 c -0.02 0.02 -0.04 0.02 -0.06 0.02 Z" stroke-linecap="round"/>
</g>
		<g transform="matrix(1 0 0 1 -16.95 -34.235)" id="Layer_1">
<path style="stroke: none; stroke-width: 1; stroke-dasharray: none; stroke-linecap: butt; stroke-dashoffset: 0; stroke-linejoin: miter; stroke-miterlimit: 4; is-custom-font: none; font-file-url: none; fill: rgb(145,179,250); fill-rule: nonzero; opacity: 1;" transform=" translate(-33.05, -15.765)" d="m 30.34 21.09 s -0.07 -0.02 -0.09 -0.05 c -0.11 -0.22 -0.22 -0.46 -0.31 -0.69 c -0.02 -0.05 0 -0.11 0.05 -0.12 c 0.05 -0.02 0.11 0 0.12 0.05 c 0.09 0.23 0.19 0.46 0.3 0.67 c 0.02 0.05 0 0.11 -0.04 0.13 c -0.01 0 -0.03 0.01 -0.04 0.01 Z m -0.65 -1.85 s -0.08 -0.03 -0.09 -0.08 c -0.05 -0.25 -0.09 -0.5 -0.11 -0.75 c 0 -0.05 0.03 -0.1 0.09 -0.1 c 0.05 0 0.1 0.03 0.1 0.09 c 0.02 0.24 0.06 0.49 0.11 0.73 c 0.01 0.05 -0.02 0.1 -0.07 0.11 c 0 0 -0.01 0 -0.02 0 Z m -0.13 -1.95 s 0 0 0 0 c -0.05 0 -0.09 -0.05 -0.09 -0.1 c 0.02 -0.25 0.05 -0.5 0.09 -0.75 c 0 -0.05 0.06 -0.09 0.11 -0.08 c 0.05 0 0.09 0.06 0.08 0.11 c -0.04 0.24 -0.07 0.49 -0.09 0.73 c 0 0.05 -0.05 0.09 -0.1 0.09 Z m 0.41 -1.91 s -0.02 0 -0.03 0 c -0.05 -0.02 -0.08 -0.07 -0.06 -0.12 c 0.09 -0.24 0.18 -0.47 0.29 -0.7 c 0.02 -0.05 0.08 -0.07 0.13 -0.04 c 0.05 0.02 0.07 0.08 0.04 0.13 c -0.11 0.22 -0.2 0.45 -0.29 0.68 c -0.01 0.04 -0.05 0.06 -0.09 0.06 Z m 0.91 -1.73 s -0.04 0 -0.06 -0.02 c -0.04 -0.03 -0.05 -0.09 -0.02 -0.13 c 0.15 -0.2 0.3 -0.4 0.47 -0.59 c 0.04 -0.04 0.1 -0.04 0.14 0 c 0.04 0.04 0.04 0.1 0 0.14 c -0.16 0.18 -0.32 0.38 -0.46 0.58 c -0.02 0.03 -0.05 0.04 -0.08 0.04 Z m 1.34 -1.43 s -0.06 -0.01 -0.07 -0.04 c -0.03 -0.04 -0.03 -0.1 0.01 -0.14 c 0.2 -0.16 0.4 -0.31 0.61 -0.44 c 0.04 -0.03 0.1 -0.02 0.13 0.03 c 0.03 0.04 0.02 0.1 -0.03 0.13 c -0.21 0.13 -0.41 0.28 -0.6 0.43 c -0.02 0.01 -0.04 0.02 -0.06 0.02 Z m 1.68 -1.01 s -0.07 -0.02 -0.09 -0.06 c -0.02 -0.05 0 -0.11 0.05 -0.13 c 0.14 -0.06 0.28 -0.12 0.43 -0.17 c 0.09 -0.03 0.19 -0.07 0.28 -0.1 c 0.05 -0.02 0.1 0.01 0.12 0.06 c 0.02 0.05 -0.01 0.1 -0.06 0.12 c -0.09 0.03 -0.18 0.06 -0.28 0.09 c -0.14 0.05 -0.28 0.1 -0.42 0.16 c -0.01 0 -0.03 0 -0.04 0 Z m 1.89 -0.52 s -0.09 -0.03 -0.1 -0.08 c 0 -0.05 0.03 -0.1 0.08 -0.11 c 0.25 -0.03 0.5 -0.05 0.76 -0.06 c 0.05 0 0.1 0.04 0.1 0.09 c 0 0.05 -0.04 0.1 -0.09 0.1 c -0.24 0 -0.49 0.03 -0.73 0.06 c 0 0 0 0 -0.01 0 Z" stroke-linecap="round"/>
</g>
		<g transform="matrix(1 0 0 1 -12.065 -39.3607)" id="Layer_1">
<path style="stroke: none; stroke-width: 1; stroke-dasharray: none; stroke-linecap: butt; stroke-dashoffset: 0; stroke-linejoin: miter; stroke-miterlimit: 4; is-custom-font: none; font-file-url: none; fill: rgb(145,179,250); fill-rule: nonzero; opacity: 1;" transform=" translate(-37.935, -10.6392)" d="m 38.12 10.76 s -0.01 0 -0.02 0 c -0.12 -0.02 -0.25 -0.05 -0.37 -0.06 c -0.05 0 -0.09 -0.06 -0.08 -0.11 c 0 -0.05 0.06 -0.09 0.11 -0.08 c 0.13 0.02 0.26 0.04 0.38 0.07 c 0.05 0.01 0.09 0.06 0.08 0.11 c 0 0.05 -0.05 0.08 -0.09 0.08 Z" stroke-linecap="round"/>
</g>
		<g transform="matrix(1 0 0 1 -7.2915 -36.2587)" id="Layer_1">
<path style="stroke: none; stroke-width: 1; stroke-dasharray: none; stroke-linecap: butt; stroke-dashoffset: 0; stroke-linejoin: miter; stroke-miterlimit: 4; is-custom-font: none; font-file-url: none; fill: rgb(145,179,250); fill-rule: nonzero; opacity: 1;" transform=" translate(-42.7085, -13.7413)" d="m 42.82 14 s -0.06 -0.02 -0.08 -0.05 c -0.07 -0.11 -0.14 -0.21 -0.21 -0.32 c -0.03 -0.04 -0.02 -0.1 0.02 -0.13 c 0.04 -0.03 0.1 -0.02 0.13 0.02 c 0.07 0.1 0.15 0.21 0.21 0.32 c 0.03 0.05 0.01 0.1 -0.03 0.13 c -0.02 0 -0.03 0.01 -0.05 0.01 Z" stroke-linecap="round"/>
</g>
		<g transform="matrix(1 0 0 1 -9.7557 -30.0739)" id="Layer_1">
<path style="stroke: none; stroke-width: 1; stroke-dasharray: none; stroke-linecap: butt; stroke-dashoffset: 0; stroke-linejoin: miter; stroke-miterlimit: 4; is-custom-font: none; font-file-url: none; fill: rgb(145,179,250); fill-rule: nonzero; opacity: 1;" transform=" translate(-40.2444, -19.9262)" d="m 36.73 24.99 c -0.05 0 -0.1 0 -0.15 0 c -0.05 0 -0.1 -0.05 -0.09 -0.1 c 0 -0.05 0.04 -0.1 0.1 -0.09 c 0.24 0 0.49 0 0.73 -0.02 c 0.05 0 0.1 0.03 0.1 0.09 c 0 0.05 -0.03 0.1 -0.09 0.1 c -0.2 0.02 -0.4 0.02 -0.59 0.02 Z m 1.76 -0.22 s -0.08 -0.03 -0.09 -0.07 c -0.01 -0.05 0.02 -0.1 0.07 -0.12 c 0.21 -0.05 0.43 -0.12 0.64 -0.2 l 0.05 -0.02 s 0.1 0 0.12 0.06 c 0.02 0.05 0 0.1 -0.06 0.12 l -0.05 0.02 c -0.22 0.08 -0.44 0.15 -0.66 0.2 c 0 0 -0.02 0 -0.02 0 Z m 1.79 -0.72 s -0.07 -0.02 -0.08 -0.05 c -0.03 -0.05 0 -0.1 0.04 -0.13 c 0.21 -0.12 0.42 -0.25 0.61 -0.39 c 0.04 -0.03 0.1 -0.02 0.13 0.02 c 0.03 0.04 0.02 0.1 -0.02 0.13 c -0.2 0.14 -0.41 0.28 -0.63 0.4 c -0.01 0 -0.03 0.01 -0.05 0.01 Z m 1.53 -1.17 s -0.05 0 -0.07 -0.03 c -0.04 -0.04 -0.04 -0.1 0 -0.14 c 0.17 -0.17 0.33 -0.35 0.49 -0.54 c 0.03 -0.04 0.09 -0.05 0.14 -0.01 c 0.04 0.03 0.05 0.09 0.01 0.14 c -0.16 0.19 -0.32 0.38 -0.5 0.55 c -0.02 0.02 -0.04 0.03 -0.07 0.03 Z m 1.16 -1.53 s -0.03 0 -0.05 -0.01 c -0.05 -0.03 -0.06 -0.08 -0.04 -0.13 c 0.12 -0.21 0.23 -0.43 0.33 -0.65 c 0.02 -0.05 0.08 -0.07 0.13 -0.05 c 0.05 0.02 0.07 0.08 0.05 0.13 c -0.1 0.23 -0.21 0.45 -0.33 0.67 c -0.02 0.03 -0.05 0.05 -0.08 0.05 Z m 0.72 -1.79 s -0.02 0 -0.02 0 c -0.05 -0.01 -0.08 -0.07 -0.07 -0.12 c 0.06 -0.23 0.11 -0.47 0.14 -0.71 c 0 -0.05 0.06 -0.09 0.11 -0.08 c 0.05 0 0.09 0.06 0.08 0.11 c -0.04 0.24 -0.08 0.49 -0.15 0.73 c -0.01 0.04 -0.05 0.07 -0.09 0.07 Z m 0.22 -1.91 c -0.05 0 -0.09 -0.04 -0.1 -0.09 c 0 -0.24 -0.02 -0.48 -0.05 -0.72 c 0 -0.05 0.03 -0.1 0.08 -0.11 c 0.05 0 0.1 0.03 0.11 0.08 c 0.03 0.25 0.05 0.5 0.05 0.74 c 0 0.05 -0.04 0.1 -0.09 0.1 h 0 Z m -0.3 -1.9 s -0.08 -0.03 -0.09 -0.07 c -0.04 -0.12 -0.07 -0.24 -0.12 -0.35 c -0.04 -0.11 -0.08 -0.22 -0.13 -0.33 c -0.02 -0.05 0 -0.11 0.05 -0.13 c 0.05 -0.02 0.11 0 0.13 0.05 c 0.05 0.11 0.09 0.22 0.13 0.34 c 0.04 0.12 0.08 0.24 0.12 0.36 c 0.02 0.05 -0.01 0.1 -0.06 0.12 c 0 0 -0.02 0 -0.03 0 Z" stroke-linecap="round"/>
</g>
		<g transform="matrix(1 0 0 1 -14.7952 -25.2759)" id="Layer_1">
<path style="stroke: none; stroke-width: 1; stroke-dasharray: none; stroke-linecap: butt; stroke-dashoffset: 0; stroke-linejoin: miter; stroke-miterlimit: 4; is-custom-font: none; font-file-url: none; fill: rgb(145,179,250); fill-rule: nonzero; opacity: 1;" transform=" translate(-35.2048, -24.724)" d="m 35.39 24.86 s -0.01 0 -0.02 0 c -0.13 -0.02 -0.25 -0.05 -0.38 -0.08 c -0.05 -0.01 -0.08 -0.06 -0.07 -0.12 c 0.01 -0.05 0.06 -0.08 0.12 -0.07 c 0.12 0.03 0.25 0.06 0.37 0.08 c 0.05 0 0.09 0.06 0.08 0.11 c 0 0.05 -0.05 0.08 -0.09 0.08 Z" stroke-linecap="round"/>
</g>
		<g transform="matrix(1 0 0 1 -13.255 -32.308)" id="Layer_1">
<path style="stroke: none; stroke-width: 1; stroke-dasharray: none; stroke-linecap: butt; stroke-dashoffset: 0; stroke-linejoin: miter; stroke-miterlimit: 4; is-custom-font: none; font-file-url: none; fill: rgb(189,208,251); fill-rule: nonzero; opacity: 1;" transform=" translate(-36.745, -17.692)" d="m 36.74 21.07 c -0.05 0 -0.1 0 -0.15 0 c -0.08 0 -0.16 -0.01 -0.24 -0.02 l 0.03 -0.29 c 0.22 0.03 0.44 0.03 0.66 0 h 0 s 0.02 0 0.02 0 c 0.76 -0.08 1.46 -0.43 1.97 -1 c 0.03 -0.04 0.06 -0.07 0.09 -0.11 c 0.46 -0.56 0.71 -1.24 0.71 -1.96 c 0 -0.1 0 -0.2 -0.01 -0.3 c -0.16 -1.7 -1.68 -2.94 -3.37 -2.78 c -1.6 0.15 -2.79 1.5 -2.79 3.07 c 0 0.1 0 0.2 0.01 0.3 c 0.05 0.56 0.26 1.09 0.59 1.54 l -0.23 0.17 c -0.36 -0.49 -0.58 -1.07 -0.64 -1.68 c -0.01 -0.11 -0.02 -0.22 -0.02 -0.32 c 0 -1.72 1.31 -3.19 3.05 -3.36 c 1.85 -0.18 3.51 1.18 3.68 3.04 c 0.01 0.11 0.02 0.22 0.02 0.33 c 0 0.78 -0.27 1.53 -0.77 2.14 c -0.57 0.7 -1.38 1.13 -2.28 1.21 c -0.11 0.01 -0.22 0.02 -0.33 0.02 Z" stroke-linecap="round"/>
</g>
		<g transform="matrix(1 0 0 1 -14.7798 -3.0913)" id="Layer_1">
<linearGradient id="SVGID_1619" gradientUnits="userSpaceOnUse" gradientTransform="matrix(0.8208 -0.5713 0.5713 0.8208 -2511.61 -1169.12)" x1="1325.41" y1="2485.67" x2="1367.09" y2="2464.75">
<stop offset="0%" style="stop-color:rgb(225,71,61);stop-opacity: 1"/>
<stop offset="100%" style="stop-color:rgb(233,96,90);stop-opacity: 1"/>
</linearGradient>
<path style="stroke: none; stroke-width: 1; stroke-dasharray: none; stroke-linecap: butt; stroke-dashoffset: 0; stroke-linejoin: miter; stroke-miterlimit: 4; is-custom-font: none; font-file-url: none; fill: url(#SVGID_1619); fill-rule: nonzero; opacity: 1;" transform=" translate(-35.2202, -46.9088)" d="m 24.93 68.49 c -0.24 0.25 -0.18 0.66 0.13 0.83 c 1.4 0.77 4.92 2.16 7.88 -1.11 c 3.8 -4.19 13.04 -23.77 14.19 -28.79 c 1.14 -5.03 5.45 -12.77 7.82 -13.68 c 2.37 -0.91 -5.02 -0.39 -7.08 -0.36 c -2.06 0.04 -3.54 -0.98 -2.32 -1.45 c 0 0 -6.26 -2.44 -10.95 4.82 c -2.84 4.39 -11.97 24.69 -19.54 26.92 c -0.28 0.08 1.31 1.16 1.43 1.43 c 0.73 1.57 3.41 6.21 10.43 8.64 c 0 0 -0.91 1.68 -1.99 2.77 Z" stroke-linecap="round"/>
</g>
		<g transform="matrix(1 0 0 1 -1.318 36.864)" id="Layer_1">
<linearGradient id="SVGID_1620" gradientUnits="userSpaceOnUse" gradientTransform="matrix(1 0 0 1 646.41 0)" x1="-602.16" y1="86.86" x2="-593.29" y2="86.86">
<stop offset="0%" style="stop-color:rgb(79,82,255);stop-opacity: 1"/>
<stop offset="100%" style="stop-color:rgb(64,66,226);stop-opacity: 1"/>
</linearGradient>
<path style="stroke: none; stroke-width: 1; stroke-dasharray: none; stroke-linecap: butt; stroke-dashoffset: 0; stroke-linejoin: miter; stroke-miterlimit: 4; is-custom-font: none; font-file-url: none; fill: url(#SVGID_1620); fill-rule: nonzero; opacity: 1;" transform=" translate(-48.682, -86.864)" d="m 52.87 86.43 c -1.52 0.13 -4.16 0.34 -6.24 0.44 c -1.25 0.06 -1.97 -0.07 -2.38 -0.23 c 0 0.05 0 0.09 0 0.13 c 0 0.22 0.19 0.39 0.41 0.41 c 3.93 0.22 7.05 0.08 8.16 0 c 0.23 -0.01 0.37 -0.26 0.25 -0.46 c -0.06 -0.1 -0.13 -0.19 -0.21 -0.29 Z" stroke-linecap="round"/>
</g>
		<g transform="matrix(1 0 0 1 -1.4402 35.1178)" id="Layer_1">
<linearGradient id="SVGID_1621" gradientUnits="userSpaceOnUse" gradientTransform="matrix(1 0 0 1 646.41 0)" x1="-602.16" y1="85.12" x2="-593.54" y2="85.12">
<stop offset="0%" style="stop-color:rgb(9,0,93);stop-opacity: 1"/>
<stop offset="100%" style="stop-color:rgb(26,15,145);stop-opacity: 1"/>
</linearGradient>
<path style="stroke: none; stroke-width: 1; stroke-dasharray: none; stroke-linecap: butt; stroke-dashoffset: 0; stroke-linejoin: miter; stroke-miterlimit: 4; is-custom-font: none; font-file-url: none; fill: url(#SVGID_1621); fill-rule: nonzero; opacity: 1;" transform=" translate(-48.5597, -85.1178)" d="m 46.63 86.87 c 2.08 -0.09 4.72 -0.3 6.24 -0.44 c -1.49 -1.83 -6.24 -3.07 -6.24 -3.07 h -1.34 c -0.92 1.33 -1.05 2.59 -1.04 3.27 c 0.41 0.17 1.13 0.29 2.38 0.23 Z" stroke-linecap="round"/>
</g>
		<g transform="matrix(1 0 0 1 -3.68 32.697)" id="Layer_1">
<linearGradient id="SVGID_1622" gradientUnits="userSpaceOnUse" gradientTransform="matrix(1 0 0 1 646.41 0)" x1="-601.34" y1="82.7" x2="-598.84" y2="82.7">
<stop offset="0%" style="stop-color:rgb(254,187,186);stop-opacity: 1"/>
<stop offset="100%" style="stop-color:rgb(255,146,142);stop-opacity: 1"/>
</linearGradient>
<path style="stroke: none; stroke-width: 1; stroke-dasharray: none; stroke-linecap: butt; stroke-dashoffset: 0; stroke-linejoin: miter; stroke-miterlimit: 4; is-custom-font: none; font-file-url: none; fill: url(#SVGID_1622); fill-rule: nonzero; opacity: 1;" transform=" translate(-46.32, -82.697)" d="m 45.07 81.18 l 0.13 2.48 c 0.01 0.27 0.21 0.49 0.48 0.53 c 0.27 0.04 0.63 0.04 1.01 -0.08 c 0.23 -0.08 0.41 -0.27 0.45 -0.52 l 0.43 -2.41 h -2.5 Z" stroke-linecap="round"/>
</g>
		<g transform="matrix(1 0 0 1 -19.8715 39.0588)" id="Layer_1">
<linearGradient id="SVGID_1623" gradientUnits="userSpaceOnUse" gradientTransform="matrix(1 0 0 1 646.41 0)" x1="-617.99" y1="89.06" x2="-614.59" y2="89.06">
<stop offset="0%" style="stop-color:rgb(79,82,255);stop-opacity: 1"/>
<stop offset="100%" style="stop-color:rgb(64,66,226);stop-opacity: 1"/>
</linearGradient>
<path style="stroke: none; stroke-width: 1; stroke-dasharray: none; stroke-linecap: butt; stroke-dashoffset: 0; stroke-linejoin: miter; stroke-miterlimit: 4; is-custom-font: none; font-file-url: none; fill: url(#SVGID_1623); fill-rule: nonzero; opacity: 1;" transform=" translate(-30.1284, -89.0588)" d="m 29.53 89.29 c -0.66 -0.12 -0.96 -0.56 -1.08 -1.03 c 0 0 0 0 0 0.01 c -0.1 0.5 0.13 1.02 0.58 1.26 c 0.54 0.3 1.14 0.35 1.6 0.32 c 0.49 -0.03 0.95 -0.29 1.2 -0.71 h 0 c -0.5 0.31 -1.19 0.35 -2.29 0.15 Z" stroke-linecap="round"/>
</g>
		<g transform="matrix(1 0 0 1 -19.0551 35.676)" id="Layer_1">
<linearGradient id="SVGID_1624" gradientUnits="userSpaceOnUse" gradientTransform="matrix(1 0 0 1 646.41 0)" x1="-617.97" y1="85.68" x2="-612.98" y2="85.68">
<stop offset="0%" style="stop-color:rgb(9,0,93);stop-opacity: 1"/>
<stop offset="100%" style="stop-color:rgb(26,15,145);stop-opacity: 1"/>
</linearGradient>
<path style="stroke: none; stroke-width: 1; stroke-dasharray: none; stroke-linecap: butt; stroke-dashoffset: 0; stroke-linejoin: miter; stroke-miterlimit: 4; is-custom-font: none; font-file-url: none; fill: url(#SVGID_1624); fill-rule: nonzero; opacity: 1;" transform=" translate(-30.9449, -85.676)" d="m 32.63 81.94 h -1.1 c -1.68 -0.04 -2.74 4.54 -3.08 6.32 c 0.12 0.47 0.42 0.92 1.08 1.03 c 1.1 0.2 1.8 0.16 2.29 -0.16 c 0.91 -1.55 1.36 -3.81 1.58 -5.13 c 0.25 -1.5 -0.76 -2.06 -0.76 -2.06 Z" stroke-linecap="round"/>
</g>
		<g transform="matrix(1 0 0 1 -17.4708 31.3942)" id="Layer_1">
<linearGradient id="SVGID_1625" gradientUnits="userSpaceOnUse" gradientTransform="matrix(1 0 0 1 646.41 0)" x1="-615.37" y1="81.39" x2="-612.39" y2="81.39">
<stop offset="0%" style="stop-color:rgb(254,187,186);stop-opacity: 1"/>
<stop offset="100%" style="stop-color:rgb(255,146,142);stop-opacity: 1"/>
</linearGradient>
<path style="stroke: none; stroke-width: 1; stroke-dasharray: none; stroke-linecap: butt; stroke-dashoffset: 0; stroke-linejoin: miter; stroke-miterlimit: 4; is-custom-font: none; font-file-url: none; fill: url(#SVGID_1625); fill-rule: nonzero; opacity: 1;" transform=" translate(-32.5293, -81.3942)" d="m 31.67 79.64 l -0.61 2.44 c -0.08 0.3 0.07 0.61 0.34 0.75 c 0.34 0.18 0.83 0.36 1.27 0.31 c 0.21 -0.03 0.38 -0.17 0.45 -0.37 l 0.9 -2.57 l -2.35 -0.56 Z" stroke-linecap="round"/>
</g>
		<g transform="matrix(1 0 0 1 -7.775 14.5626)" id="Layer_1">
<linearGradient id="SVGID_1626" gradientUnits="userSpaceOnUse" gradientTransform="matrix(1 0 0 1 646.41 0)" x1="-591.22" y1="49.17" x2="-616.71" y2="90.93">
<stop offset="0%" style="stop-color:rgb(9,0,93);stop-opacity: 1"/>
<stop offset="100%" style="stop-color:rgb(26,15,145);stop-opacity: 1"/>
</linearGradient>
<path style="stroke: none; stroke-width: 1; stroke-dasharray: none; stroke-linecap: butt; stroke-dashoffset: 0; stroke-linejoin: miter; stroke-miterlimit: 4; is-custom-font: none; font-file-url: none; fill: url(#SVGID_1626); fill-rule: nonzero; opacity: 1;" transform=" translate(-42.225, -64.5626)" d="m 53.24 47.52 s -5.48 34.25 -5.39 34.44 c 0 0 -1.51 0.69 -3.16 0.09 c 0 0 0.5 -18.31 1.66 -25.33 c 0 0 -9.35 16.37 -12.32 24.52 c 0 0 -1.55 -0.18 -2.83 -1.03 c 0 0 10.07 -29.46 12.76 -33.38 l 9.29 0.69 Z" stroke-linecap="round"/>
</g>
		<g transform="matrix(1 0 0 1 -1.6446 4.5878)" id="Layer_1">
<linearGradient id="SVGID_1627" gradientUnits="userSpaceOnUse" gradientTransform="matrix(1 0 0 1 0 0)" x1="71.01" y1="6.09" x2="47.45" y2="56.49">
<stop offset="0%" style="stop-color:rgb(79,82,255);stop-opacity: 1"/>
<stop offset="100%" style="stop-color:rgb(64,66,226);stop-opacity: 1"/>
</linearGradient>
<path style="stroke: none; stroke-width: 1; stroke-dasharray: none; stroke-linecap: butt; stroke-dashoffset: 0; stroke-linejoin: miter; stroke-miterlimit: 4; is-custom-font: none; font-file-url: none; fill: url(#SVGID_1627); fill-rule: nonzero; opacity: 1;" transform=" translate(-48.3553, -54.5878)" d="m 46.57 56.51 s -0.05 0 -0.07 -0.02 c -0.06 -0.04 -0.08 -0.12 -0.04 -0.19 l 2.05 -3.27 s 0.05 -0.05 0.09 -0.06 l 1.51 -0.3 c 0.07 -0.02 0.15 0.03 0.16 0.11 c 0.01 0.07 -0.03 0.15 -0.11 0.16 l -1.45 0.29 l -2.02 3.22 s -0.07 0.06 -0.12 0.06 Z" stroke-linecap="round"/>
</g>
		<g transform="matrix(1 0 0 1 -0.3871 -14.0162)" id="Layer_1">
<linearGradient id="SVGID_1628" gradientUnits="userSpaceOnUse" gradientTransform="matrix(1 0 0 1 646.41 0)" x1="-575.53" y1="-19.06" x2="-567.04" y2="-39.51">
<stop offset="0%" style="stop-color:rgb(79,82,255);stop-opacity: 1"/>
<stop offset="100%" style="stop-color:rgb(64,66,226);stop-opacity: 1"/>
</linearGradient>
<path style="stroke: none; stroke-width: 1; stroke-dasharray: none; stroke-linecap: butt; stroke-dashoffset: 0; stroke-linejoin: miter; stroke-miterlimit: 4; is-custom-font: none; font-file-url: none; fill: url(#SVGID_1628); fill-rule: nonzero; opacity: 1;" transform=" translate(-49.613, -35.9838)" d="m 64.3 33.13 c -0.39 -2.61 0.74 -3.44 0.18 -4.19 c -2.42 1.1 -5.21 -3.73 -9.23 -5.12 c -0.37 -0.13 -0.76 -0.2 -1.15 -0.23 c -2.14 -0.13 -9.18 -0.35 -15.01 1.57 c -1.23 0.41 -2.22 1.31 -2.73 2.49 c -1.58 3.62 -4.13 11.86 2.96 16.02 c 0.54 -1.35 1.17 -2.44 1.71 -3.24 c -1.14 -1.93 -1.48 -4.56 0.55 -7.98 c 1.48 3.99 2.17 9.81 2.31 12.38 c 0.05 0.85 -0.1 1.69 -0.43 2.48 l -0.04 0.09 c -0.07 0.17 0.03 0.36 0.21 0.4 c 3.99 0.9 8.14 0.65 9.38 0.55 c 0.22 -0.02 0.41 -0.18 0.46 -0.39 c 1.94 -8.18 1.94 -13.75 1.47 -17.28 c 1.82 0.41 4.96 5.73 9.37 2.44 Z" stroke-linecap="round"/>
</g>
		<g transform="matrix(1 0 0 1 4.23 -21.77)" id="Layer_1">
<linearGradient id="SVGID_1629" gradientUnits="userSpaceOnUse" gradientTransform="matrix(1 0 0 1 0 0)" x1="69.98" y1="14.49" x2="60.9" y2="22.41">
<stop offset="0%" style="stop-color:rgb(79,82,255);stop-opacity: 1"/>
<stop offset="100%" style="stop-color:rgb(64,66,226);stop-opacity: 1"/>
</linearGradient>
<path style="stroke: none; stroke-width: 1; stroke-dasharray: none; stroke-linecap: butt; stroke-dashoffset: 0; stroke-linejoin: miter; stroke-miterlimit: 4; is-custom-font: none; font-file-url: none; fill: url(#SVGID_1629); fill-rule: nonzero; opacity: 1;" transform=" translate(-54.23, -28.23)" d="m 53.52 25.72 s 0.95 1.5 1.42 5.02 l -1.42 -5.02 Z" stroke-linecap="round"/>
</g>
		<g transform="matrix(1 0 0 1 -3.3122 -27.9108)" id="Layer_1">
<linearGradient id="SVGID_1630" gradientUnits="userSpaceOnUse" gradientTransform="matrix(1 0 0 1 646.41 0)" x1="-600.66" y1="28.45" x2="-599.37" y2="21.66">
<stop offset="0%" style="stop-color:rgb(254,187,186);stop-opacity: 1"/>
<stop offset="100%" style="stop-color:rgb(255,146,142);stop-opacity: 1"/>
</linearGradient>
<path style="stroke: none; stroke-width: 1; stroke-dasharray: none; stroke-linecap: butt; stroke-dashoffset: 0; stroke-linejoin: miter; stroke-miterlimit: 4; is-custom-font: none; font-file-url: none; fill: url(#SVGID_1630); fill-rule: nonzero; opacity: 1;" transform=" translate(-46.6878, -22.0892)" d="m 45.09 18.84 s -0.4 4.27 -0.76 5.53 c -0.05 0.19 0.03 0.39 0.2 0.49 c 0.6 0.34 2.05 0.91 4.03 -0.06 c 0.32 -0.16 0.51 -0.49 0.5 -0.85 l -0.17 -4.12 l -3.8 -0.99 Z" stroke-linecap="round"/>
</g>
		<g transform="matrix(1 0 0 1 -2.88 -32.8894)" id="Layer_1">
<linearGradient id="SVGID_1631" gradientUnits="userSpaceOnUse" gradientTransform="matrix(1 0 0 1 646.41 0)" x1="-597.16" y1="15.99" x2="-604.54" y2="21.63">
<stop offset="0%" style="stop-color:rgb(254,187,186);stop-opacity: 1"/>
<stop offset="100%" style="stop-color:rgb(255,146,142);stop-opacity: 1"/>
</linearGradient>
<path style="stroke: none; stroke-width: 1; stroke-dasharray: none; stroke-linecap: butt; stroke-dashoffset: 0; stroke-linejoin: miter; stroke-miterlimit: 4; is-custom-font: none; font-file-url: none; fill: url(#SVGID_1631); fill-rule: nonzero; opacity: 1;" transform=" translate(-47.12, -17.1106)" d="m 48.98 13.38 s 1.29 2.97 1.38 4.52 c 0.09 1.56 0.42 2.57 -1.38 2.88 c -1.8 0.31 -3.32 -0.58 -4.14 -2.13 c 0 0 -1.29 -2.39 -1 -3.37 c 0.29 -0.98 5.14 -1.9 5.14 -1.9 Z" stroke-linecap="round"/>
</g>
		<g transform="matrix(1 0 0 1 -3.946 -35.3372)" id="Layer_1">
<linearGradient id="SVGID_1632" gradientUnits="userSpaceOnUse" gradientTransform="matrix(1 0 0 1 646.41 0)" x1="-602.36" y1="11.51" x2="-595.48" y2="20.37">
<stop offset="0%" style="stop-color:rgb(9,0,93);stop-opacity: 1"/>
<stop offset="100%" style="stop-color:rgb(26,15,145);stop-opacity: 1"/>
</linearGradient>
<path style="stroke: none; stroke-width: 1; stroke-dasharray: none; stroke-linecap: butt; stroke-dashoffset: 0; stroke-linejoin: miter; stroke-miterlimit: 4; is-custom-font: none; font-file-url: none; fill: url(#SVGID_1632); fill-rule: nonzero; opacity: 1;" transform=" translate(-46.054, -14.6628)" d="m 45.45 17.53 l 0.1 -0.05 c 0.13 -0.06 0.19 -0.21 0.12 -0.34 c -0.25 -0.49 -0.75 -1.61 -0.11 -1.88 c 0.82 -0.34 4.09 -1 4.79 -2.16 c 0.68 -1.11 0.08 -2.55 -0.82 -2.96 c -0.06 -0.03 -0.13 0 -0.16 0.05 l -0.08 0.14 c -0.05 0.1 -0.2 0.08 -0.23 -0.02 h 0 c -0.03 -0.1 -0.16 -0.12 -0.22 -0.03 c -0.22 0.35 -0.8 0.91 -2.36 1.2 c -2.22 0.41 -3.69 1.31 -3.73 2.84 c 0 0.1 -0.11 0.15 -0.19 0.1 c -0.16 -0.1 -0.43 -0.15 -0.78 0.15 c -0.61 0.51 -0.36 1.84 0.98 2.94 c 0.06 0.05 0.06 0.15 0 0.2 c -0.24 0.16 -0.6 0.53 0.33 1.03 c 0.97 0.52 1.69 0.48 1.97 0.43 c 0.07 -0.01 0.11 -0.08 0.1 -0.15 l -0.3 -1.35 c -0.02 -0.08 0.04 -0.15 0.12 -0.15 h 0.46 Z" stroke-linecap="round"/>
</g>
		<g transform="matrix(1 0 0 1 -5.3002 -32.5019)" id="Layer_1">
<linearGradient id="SVGID_1633" gradientUnits="userSpaceOnUse" gradientTransform="matrix(1 0 0 1 646.41 0)" x1="-598.08" y1="14.79" x2="-605.46" y2="20.44">
<stop offset="0%" style="stop-color:rgb(254,187,186);stop-opacity: 1"/>
<stop offset="100%" style="stop-color:rgb(255,146,142);stop-opacity: 1"/>
</linearGradient>
<path style="stroke: none; stroke-width: 1; stroke-dasharray: none; stroke-linecap: butt; stroke-dashoffset: 0; stroke-linejoin: miter; stroke-miterlimit: 4; is-custom-font: none; font-file-url: none; fill: url(#SVGID_1633); fill-rule: nonzero; opacity: 1;" transform=" translate(-44.6998, -17.4981)" d="m 45.51 17.81 s -0.49 -1.89 -1.34 -1.36 c -0.85 0.53 0.44 2.12 1.12 2.19 l 0.22 -0.83 Z" stroke-linecap="round"/>
</g>
		<g transform="matrix(1 0 0 1 -4.69 -6.48)" id="Layer_1">
<linearGradient id="SVGID_1634" gradientUnits="userSpaceOnUse" gradientTransform="matrix(1 0 0 1 646.41 0)" x1="-595.15" y1="35.82" x2="-599.39" y2="42.17">
<stop offset="0%" style="stop-color:rgb(254,187,186);stop-opacity: 1"/>
<stop offset="100%" style="stop-color:rgb(255,146,142);stop-opacity: 1"/>
</linearGradient>
<path style="stroke: none; stroke-width: 1; stroke-dasharray: none; stroke-linecap: butt; stroke-dashoffset: 0; stroke-linejoin: miter; stroke-miterlimit: 4; is-custom-font: none; font-file-url: none; fill: url(#SVGID_1634); fill-rule: nonzero; opacity: 1;" transform=" translate(-45.31, -43.52)" d="m 45.47 46.6 l 5.83 -0.13 s -5.08 -1.44 -5.4 -1.05 c 0 0 -3.15 -2.07 -4.87 -4.98 c -0.54 0.8 -1.17 1.89 -1.71 3.24 c 1.55 0.91 3.58 2.49 6.16 2.91 Z" stroke-linecap="round"/>
</g>
		<g transform="matrix(1 0 0 1 -1.0603 -3.408)" id="Layer_1">
<linearGradient id="SVGID_1635" gradientUnits="userSpaceOnUse" gradientTransform="matrix(-1 0 0 1 -6435.47 0)" x1="-6478.28" y1="36.84" x2="-6482.43" y2="43.07">
<stop offset="0%" style="stop-color:rgb(254,187,186);stop-opacity: 1"/>
<stop offset="100%" style="stop-color:rgb(255,146,142);stop-opacity: 1"/>
</linearGradient>
<path style="stroke: none; stroke-width: 1; stroke-dasharray: none; stroke-linecap: butt; stroke-dashoffset: 0; stroke-linejoin: miter; stroke-miterlimit: 4; is-custom-font: none; font-file-url: none; fill: url(#SVGID_1635); fill-rule: nonzero; opacity: 1;" transform=" translate(-48.9397, -46.592)" d="m 45.31 45.59 s -0.12 2.32 2.93 1.98 c 1.66 -0.18 4.33 -1.73 4.33 -1.73 c 0 0 -6.97 -0.02 -7.26 -0.26 Z" stroke-linecap="round"/>
</g>
		<g transform="matrix(1 0 0 1 21.805 -0.07)" id="Layer_1">
<path style="stroke: none; stroke-width: 1; stroke-dasharray: none; stroke-linecap: butt; stroke-dashoffset: 0; stroke-linejoin: miter; stroke-miterlimit: 4; is-custom-font: none; font-file-url: none; fill: rgb(125,151,244); fill-rule: nonzero; opacity: 1;" transform=" translate(-71.805, -49.93)" d="m 57.7 72.98 h 28.45 c 0.91 0 1.64 -1.1 1.64 -2.46 V 29.46 c 0 -1.35 -0.73 -2.45 -1.64 -2.46 l -28.68 -0.12 c -0.91 0 -1.65 1.1 -1.65 2.47 l 0.23 41.18 c 0 1.35 0.74 2.44 1.64 2.44 Z" stroke-linecap="round"/>
</g>
		<g transform="matrix(1 0 0 1 21.8099 0.2353)" id="Layer_1">
<path style="stroke: none; stroke-width: 1; stroke-dasharray: none; stroke-linecap: butt; stroke-dashoffset: 0; stroke-linejoin: miter; stroke-miterlimit: 4; is-custom-font: none; font-file-url: none; fill: rgb(255,255,255); fill-rule: nonzero; opacity: 0.6;" transform=" translate(-71.81, -50.2353)" d="m 59.1 30.04 l 25.44 0.23 c 0.92 0 1.66 1.13 1.66 2.5 l -0.18 34.53 c 0 1.35 -0.73 2.45 -1.64 2.48 l -24.72 0.67 c -0.92 0.03 -1.68 -1.08 -1.7 -2.46 l -0.54 -35.44 c -0.01 -1.4 0.74 -2.53 1.68 -2.53 Z" stroke-linecap="round"/>
</g>
		<g transform="matrix(1 0 0 1 21.75 -1.8)" id="Layer_1">
<path style="stroke: none; stroke-width: 1; stroke-dasharray: none; stroke-linecap: butt; stroke-dashoffset: 0; stroke-linejoin: miter; stroke-miterlimit: 4; is-custom-font: none; font-file-url: none; fill: rgb(255,255,255); fill-rule: nonzero; opacity: 0.6;" transform=" translate(-71.75, -48.2)" d="m 61.45 48.07 v 0.26 c 0 0.41 0.22 0.75 0.5 0.75 h 19.6 c 0.28 0 0.5 -0.33 0.5 -0.75 v -0.26 c 0 -0.41 -0.22 -0.75 -0.5 -0.75 h -19.6 c -0.28 0 -0.5 0.33 -0.5 0.75 Z" stroke-linecap="round"/>
</g>
		<g transform="matrix(1 0 0 1 22.7099 1.555)" id="Layer_1">
<path style="stroke: none; stroke-width: 1; stroke-dasharray: none; stroke-linecap: butt; stroke-dashoffset: 0; stroke-linejoin: miter; stroke-miterlimit: 4; is-custom-font: none; font-file-url: none; fill: rgb(255,255,255); fill-rule: nonzero; opacity: 0.6;" transform=" translate(-72.7098, -51.555)" d="m 63.64 51.37 h 0 c 0.01 0.39 0.23 0.7 0.49 0.7 l 17.14 0.47 c 0.28 0 0.51 -0.33 0.51 -0.75 v -0.06 c 0 -0.41 -0.22 -0.74 -0.49 -0.75 l -17.14 -0.41 c -0.29 0 -0.52 0.35 -0.51 0.79 Z" stroke-linecap="round"/>
</g>
		<g transform="matrix(1 0 0 1 21.88 3.99)" id="Layer_1">
<path style="stroke: none; stroke-width: 1; stroke-dasharray: none; stroke-linecap: butt; stroke-dashoffset: 0; stroke-linejoin: miter; stroke-miterlimit: 4; is-custom-font: none; font-file-url: none; fill: rgb(255,255,255); fill-rule: nonzero; opacity: 1;" transform=" translate(-71.88, -53.99)" d="m 60.57 68.35 c -0.28 0 -0.55 -0.12 -0.78 -0.34 c -0.37 -0.36 -0.59 -0.95 -0.6 -1.59 l -0.56 -24.12 s 0 0 0 0 c -0.01 -1.1 0.58 -1.97 1.35 -2 l 23.15 -0.67 c 0.29 0 0.56 0.11 0.8 0.33 c 0.37 0.36 0.6 0.95 0.6 1.59 l 0.6 24.38 c 0.01 1.09 -0.6 1.99 -1.36 2 l -23.19 0.42 s -0.01 0 -0.02 0 Z m -1.55 -26.06 l 0.56 24.12 c 0 0.54 0.19 1.03 0.48 1.32 c 0.11 0.11 0.29 0.23 0.51 0.23 c 0 0 0 0 0.01 0 l 23.19 -0.42 c 0.54 0 0.99 -0.75 0.98 -1.61 l -0.6 -24.38 c 0 -0.54 -0.19 -1.04 -0.49 -1.32 c -0.11 -0.11 -0.3 -0.23 -0.52 -0.23 l -23.15 0.67 c -0.54 0.02 -0.98 0.75 -0.97 1.61 Z" stroke-linecap="round"/>
</g>
		<g transform="matrix(1 0 0 1 21.755 -5.48)" id="Layer_1">
<path style="stroke: none; stroke-width: 1; stroke-dasharray: none; stroke-linecap: butt; stroke-dashoffset: 0; stroke-linejoin: miter; stroke-miterlimit: 4; is-custom-font: none; font-file-url: none; fill: rgb(255,255,255); fill-rule: nonzero; opacity: 1;" transform=" translate(-71.755, -44.52)" d="m 84.38 44.71 h -25.25 c -0.11 0 -0.19 -0.09 -0.19 -0.19 s 0.09 -0.19 0.19 -0.19 h 25.25 c 0.11 0 0.19 0.09 0.19 0.19 s -0.09 0.19 -0.19 0.19 Z" stroke-linecap="round"/>
</g>
		<g transform="matrix(1 0 0 1 13.905 -15.195)" id="Layer_1">
<linearGradient id="SVGID_1636" gradientUnits="userSpaceOnUse" gradientTransform="matrix(1 0 0 1 3275.85 0)" x1="-3161.18" y1="-87.83" x2="-3153.65" y2="-105.97">
<stop offset="0%" style="stop-color:rgb(79,82,255);stop-opacity: 1"/>
<stop offset="100%" style="stop-color:rgb(64,66,226);stop-opacity: 1"/>
</linearGradient>
<path style="stroke: none; stroke-width: 1; stroke-dasharray: none; stroke-linecap: butt; stroke-dashoffset: 0; stroke-linejoin: miter; stroke-miterlimit: 4; is-custom-font: none; font-file-url: none; fill: url(#SVGID_1636); fill-rule: nonzero; opacity: 1;" transform=" translate(-63.905, -34.805)" d="m 62.27 32 c 0 -0.4 0.31 -0.74 0.71 -0.78 c 0.19 -0.02 0.4 -0.03 0.6 -0.03 c 0.61 0 0.92 0.07 1.23 0.29 c 0.33 0.23 0.59 0.75 0.59 1.5 c 0 0.6 -0.18 1.17 -0.65 1.47 v 0.02 c 0.48 0.23 0.79 0.86 0.79 1.75 c 0 0.69 -0.2 1.24 -0.48 1.6 c -0.31 0.38 -0.81 0.6 -1.68 0.6 c -0.14 0 -0.26 0 -0.37 -0.01 c -0.41 -0.03 -0.73 -0.37 -0.73 -0.79 v -5.63 Z m 1.07 1.93 h 0.23 c 0.5 0 0.73 -0.25 0.73 -0.69 c 0 -0.4 -0.19 -0.63 -0.57 -0.63 c -0.21 0 -0.32 0.02 -0.39 0.04 v 1.28 Z m 0 3.03 c 0.09 0.02 0.19 0.02 0.35 0.02 c 0.38 0 0.69 -0.24 0.69 -0.86 s -0.33 -0.8 -0.76 -0.8 h -0.28 v 1.64 Z" stroke-linecap="round"/>
</g>
		<g transform="matrix(1 0 0 1 17.7182 -15.235)" id="Layer_1">
<linearGradient id="SVGID_1637" gradientUnits="userSpaceOnUse" gradientTransform="matrix(1 0 0 1 3275.85 0)" x1="-3157.77" y1="-86.42" x2="-3150.24" y2="-104.55">
<stop offset="0%" style="stop-color:rgb(79,82,255);stop-opacity: 1"/>
<stop offset="100%" style="stop-color:rgb(64,66,226);stop-opacity: 1"/>
</linearGradient>
<path style="stroke: none; stroke-width: 1; stroke-dasharray: none; stroke-linecap: butt; stroke-dashoffset: 0; stroke-linejoin: miter; stroke-miterlimit: 4; is-custom-font: none; font-file-url: none; fill: url(#SVGID_1637); fill-rule: nonzero; opacity: 1;" transform=" translate(-67.7182, -34.765)" d="m 66.12 31.78 c 0 -0.27 0.2 -0.49 0.46 -0.53 c 0.26 -0.04 0.56 -0.06 0.91 -0.06 c 0.65 0 1.08 0.17 1.38 0.56 c 0.25 0.33 0.4 0.84 0.4 1.56 c 0 0.95 -0.42 1.55 -0.69 1.7 v 0.04 c 0.26 0.2 0.4 0.66 0.51 1.25 c 0.08 0.44 0.16 0.99 0.23 1.42 c 0.05 0.33 -0.2 0.62 -0.53 0.62 h -0.03 c -0.26 0 -0.48 -0.18 -0.53 -0.43 c -0.05 -0.27 -0.12 -0.66 -0.2 -1.19 c -0.12 -0.85 -0.28 -1.02 -0.64 -1.02 h -0.2 v 2.1 c 0 0.3 -0.24 0.54 -0.54 0.54 h 0 c -0.3 0 -0.54 -0.24 -0.54 -0.54 v -6.02 Z m 1.07 2.52 h 0.32 c 0.42 0 0.68 -0.32 0.68 -0.85 s -0.22 -0.81 -0.59 -0.81 c -0.24 0 -0.36 0.02 -0.41 0.04 v 1.62 Z" stroke-linecap="round"/>
</g>
		<g transform="matrix(1 0 0 1 22.1101 -15.205)" id="Layer_1">
<linearGradient id="SVGID_1638" gradientUnits="userSpaceOnUse" gradientTransform="matrix(1 0 0 1 3275.85 0)" x1="-3153.55" y1="-84.66" x2="-3146.02" y2="-102.79">
<stop offset="0%" style="stop-color:rgb(79,82,255);stop-opacity: 1"/>
<stop offset="100%" style="stop-color:rgb(64,66,226);stop-opacity: 1"/>
</linearGradient>
<path style="stroke: none; stroke-width: 1; stroke-dasharray: none; stroke-linecap: butt; stroke-dashoffset: 0; stroke-linejoin: miter; stroke-miterlimit: 4; is-custom-font: none; font-file-url: none; fill: url(#SVGID_1638); fill-rule: nonzero; opacity: 1;" transform=" translate(-72.1101, -34.795)" d="m 71.47 36.9 l -0.17 1.14 c -0.02 0.17 -0.17 0.29 -0.34 0.29 h -0.44 c -0.21 0 -0.38 -0.19 -0.34 -0.4 l 1.11 -6.4 c 0.03 -0.16 0.17 -0.28 0.34 -0.28 h 0.9 c 0.17 0 0.31 0.12 0.34 0.28 l 1.17 6.4 c 0.04 0.21 -0.12 0.41 -0.34 0.41 h -0.5 c -0.17 0 -0.31 -0.12 -0.34 -0.29 l -0.18 -1.15 c -0.03 -0.17 -0.17 -0.29 -0.34 -0.29 h -0.54 c -0.17 0 -0.32 0.12 -0.34 0.29 Z m 0.6 -1.75 c 0.21 0 0.37 -0.19 0.34 -0.4 l -0.14 -0.85 c -0.05 -0.31 -0.12 -0.7 -0.17 -1.05 c 0 -0.05 -0.08 -0.05 -0.09 0 c -0.04 0.31 -0.11 0.79 -0.16 1.06 l -0.13 0.85 c -0.03 0.21 0.13 0.39 0.34 0.39 h 0 Z" stroke-linecap="round"/>
</g>
		<g transform="matrix(1 0 0 1 26.07 -15.21)" id="Layer_1">
<linearGradient id="SVGID_1639" gradientUnits="userSpaceOnUse" gradientTransform="matrix(1 0 0 1 3275.85 0)" x1="-3150.64" y1="-83.45" x2="-3143.1" y2="-101.59">
<stop offset="0%" style="stop-color:rgb(79,82,255);stop-opacity: 1"/>
<stop offset="100%" style="stop-color:rgb(64,66,226);stop-opacity: 1"/>
</linearGradient>
<path style="stroke: none; stroke-width: 1; stroke-dasharray: none; stroke-linecap: butt; stroke-dashoffset: 0; stroke-linejoin: miter; stroke-miterlimit: 4; is-custom-font: none; font-file-url: none; fill: url(#SVGID_1639); fill-rule: nonzero; opacity: 1;" transform=" translate(-76.07, -34.79)" d="m 74.26 37.99 v -6.4 c 0 -0.19 0.16 -0.34 0.35 -0.34 h 0.76 c 0.15 0 0.28 0.1 0.33 0.24 l 0.56 1.81 c 0.21 0.66 0.41 1.44 0.58 2.21 c 0.01 0.05 0.09 0.04 0.09 -0.01 c -0.02 -0.63 -0.04 -1.74 -0.04 -2.4 v -1.51 c 0 -0.19 0.15 -0.34 0.34 -0.34 h 0.32 c 0.19 0 0.34 0.15 0.34 0.34 v 6.4 c 0 0.19 -0.16 0.34 -0.35 0.34 h -0.59 c -0.15 0 -0.29 -0.1 -0.33 -0.25 l -0.62 -2.1 c -0.21 -0.71 -0.45 -1.53 -0.65 -2.36 c -0.01 -0.05 -0.09 -0.04 -0.09 0.01 c 0 0.66 0 2 0 2.79 v 1.57 c 0 0.19 -0.16 0.34 -0.35 0.34 h -0.32 c -0.19 0 -0.34 -0.15 -0.34 -0.34 Z" stroke-linecap="round"/>
</g>
		<g transform="matrix(1 0 0 1 30.335 -15.2)" id="Layer_1">
<linearGradient id="SVGID_1640" gradientUnits="userSpaceOnUse" gradientTransform="matrix(1 0 0 1 3275.85 0)" x1="-3147.38" y1="-82.1" x2="-3139.84" y2="-100.23">
<stop offset="0%" style="stop-color:rgb(79,82,255);stop-opacity: 1"/>
<stop offset="100%" style="stop-color:rgb(64,66,226);stop-opacity: 1"/>
</linearGradient>
<path style="stroke: none; stroke-width: 1; stroke-dasharray: none; stroke-linecap: butt; stroke-dashoffset: 0; stroke-linejoin: miter; stroke-miterlimit: 4; is-custom-font: none; font-file-url: none; fill: url(#SVGID_1640); fill-rule: nonzero; opacity: 1;" transform=" translate(-80.335, -34.8)" d="m 78.4 31.61 c 0 -0.17 0.12 -0.31 0.28 -0.34 c 0.32 -0.06 0.7 -0.09 1.08 -0.09 c 0.81 0 1.31 0.22 1.74 0.72 c 0.45 0.53 0.77 1.39 0.77 2.68 c 0 1.47 -0.33 2.37 -0.71 2.89 c -0.48 0.66 -1.19 0.95 -2.01 0.95 c -0.37 0 -0.65 -0.03 -0.86 -0.06 c -0.17 -0.03 -0.29 -0.17 -0.29 -0.34 v -6.41 Z m 1.08 5.26 c 0.06 0.02 0.17 0.02 0.25 0.02 c 0.79 0.02 1.37 -0.66 1.37 -2.21 c 0 -1.41 -0.55 -2 -1.25 -2 c -0.2 0 -0.32 0.03 -0.38 0.05 v 4.14 Z" stroke-linecap="round"/>
</g>
		<g transform="matrix(1 0 0 1 19.4567 -22.7007)" id="Layer_1">
<linearGradient id="SVGID_1641" gradientUnits="userSpaceOnUse" gradientTransform="matrix(-1 0 0 1 -6435.47 0)" x1="-6506.96" y1="27.3" x2="-6502.88" y2="27.3">
<stop offset="0%" style="stop-color:rgb(254,187,186);stop-opacity: 1"/>
<stop offset="100%" style="stop-color:rgb(255,146,142);stop-opacity: 1"/>
</linearGradient>
<path style="stroke: none; stroke-width: 1; stroke-dasharray: none; stroke-linecap: butt; stroke-dashoffset: 0; stroke-linejoin: miter; stroke-miterlimit: 4; is-custom-font: none; font-file-url: none; fill: url(#SVGID_1641); fill-rule: nonzero; opacity: 1;" transform=" translate(-69.4567, -27.2993)" d="m 70.49 27.87 c -0.53 0.32 -1.19 0.48 -1.77 0.27 c -0.34 -0.12 -1.65 -0.97 -1.22 -1.42 c 0.07 -0.08 0.17 -0.11 0.27 -0.15 c 0.97 -0.32 1.91 -0.18 2.92 -0.15 c 0.29 0 0.73 -0.02 0.8 0.35 c 0.1 0.49 -0.65 0.89 -1 1.09 Z" stroke-linecap="round"/>
</g>
		<g transform="matrix(1 0 0 1 7.4961 -32.9457)" id="Layer_1">
<linearGradient id="SVGID_1642" gradientUnits="userSpaceOnUse" gradientTransform="matrix(0.8346 0.5509 -0.5509 0.8346 166.39 599.32)" x1="-406.23" y1="-220.09" x2="-405.94" y2="-207.84">
<stop offset="0%" style="stop-color:rgb(254,112,98);stop-opacity: 1"/>
<stop offset="100%" style="stop-color:rgb(255,146,142);stop-opacity: 1"/>
</linearGradient>
<path style="stroke: none; stroke-width: 1; stroke-dasharray: none; stroke-linecap: butt; stroke-dashoffset: 0; stroke-linejoin: miter; stroke-miterlimit: 4; is-custom-font: none; font-file-url: none; fill: url(#SVGID_1642); fill-rule: nonzero; opacity: 1;" transform=" translate(-57.4961, -17.0543)" d="m 61.14 14.59 s -0.07 -0.01 -0.11 0 c -0.71 0.09 -1.41 0.2 -2.1 0.31 c -0.15 0.03 -0.31 0.02 -0.46 -0.02 c -0.15 -0.04 -0.29 -0.11 -0.4 -0.21 c -0.53 -0.44 -1.08 -0.88 -1.64 -1.3 c -0.03 -0.02 -0.07 -0.04 -0.1 -0.05 c -0.07 -0.01 -0.14 0 -0.2 0.04 c -0.04 0.03 -0.09 0.07 -0.09 0.15 c -0.03 0.64 -0.06 1.27 -0.09 1.91 c -0.02 0.28 -0.18 0.53 -0.44 0.68 c -0.59 0.33 -1.17 0.67 -1.74 1.02 c -0.11 0.06 -0.11 0.16 -0.1 0.2 c 0 0.04 0.03 0.13 0.15 0.17 c 0.64 0.21 1.27 0.43 1.89 0.67 c 0.27 0.1 0.47 0.33 0.53 0.6 c 0.14 0.62 0.26 1.24 0.38 1.87 c 0.02 0.12 0.11 0.15 0.15 0.16 c 0.04 0 0.13 0.02 0.21 -0.06 c 0.43 -0.48 0.88 -0.95 1.33 -1.42 c 0.2 -0.21 0.49 -0.3 0.78 -0.26 c 0.66 0.1 1.31 0.22 1.96 0.35 c 0.12 0.02 0.19 -0.05 0.22 -0.08 c 0.02 -0.03 0.08 -0.11 0.02 -0.22 c -0.3 -0.58 -0.61 -1.15 -0.93 -1.72 c -0.14 -0.25 -0.15 -0.55 -0.01 -0.8 c 0.31 -0.56 0.63 -1.12 0.95 -1.68 c 0.04 -0.07 0.03 -0.14 0 -0.18 c -0.03 -0.06 -0.08 -0.11 -0.15 -0.13 Z" stroke-linecap="round"/>
</g>
		<g transform="matrix(1 0 0 1 16.5543 -35.1448)" id="Layer_1">
<linearGradient id="SVGID_1643" gradientUnits="userSpaceOnUse" gradientTransform="matrix(0.9309 0.3652 -0.3652 0.9309 141.81 337.64)" x1="-184.4" y1="-142.28" x2="-184.11" y2="-130.04">
<stop offset="0%" style="stop-color:rgb(254,112,98);stop-opacity: 1"/>
<stop offset="100%" style="stop-color:rgb(255,146,142);stop-opacity: 1"/>
</linearGradient>
<path style="stroke: none; stroke-width: 1; stroke-dasharray: none; stroke-linecap: butt; stroke-dashoffset: 0; stroke-linejoin: miter; stroke-miterlimit: 4; is-custom-font: none; font-file-url: none; fill: url(#SVGID_1643); fill-rule: nonzero; opacity: 1;" transform=" translate(-66.5543, -14.8553)" d="m 70.75 11.76 s -0.09 -0.02 -0.14 0 c -0.84 0.13 -1.66 0.27 -2.48 0.43 c -0.18 0.03 -0.36 0.03 -0.54 -0.01 c -0.18 -0.04 -0.35 -0.13 -0.48 -0.24 c -0.65 -0.52 -1.31 -1.03 -1.98 -1.54 c -0.04 -0.03 -0.08 -0.05 -0.12 -0.06 c -0.08 -0.02 -0.17 0 -0.24 0.05 c -0.05 0.03 -0.1 0.09 -0.1 0.19 c -0.01 0.77 -0.03 1.54 -0.05 2.31 c 0 0.34 -0.2 0.65 -0.5 0.83 c -0.69 0.41 -1.36 0.84 -2.02 1.28 c -0.12 0.08 -0.12 0.2 -0.11 0.25 c 0 0.05 0.04 0.16 0.18 0.2 c 0.76 0.24 1.51 0.49 2.25 0.76 c 0.33 0.12 0.57 0.39 0.65 0.72 c 0.18 0.75 0.35 1.5 0.51 2.25 c 0.03 0.14 0.14 0.18 0.18 0.19 c 0.05 0.01 0.16 0.03 0.25 -0.08 c 0.5 -0.59 1.01 -1.17 1.53 -1.75 c 0.23 -0.25 0.57 -0.38 0.92 -0.33 c 0.78 0.11 1.57 0.23 2.35 0.37 c 0.14 0.03 0.23 -0.06 0.26 -0.1 c 0.03 -0.04 0.09 -0.14 0.02 -0.27 c -0.37 -0.69 -0.76 -1.38 -1.17 -2.06 c -0.18 -0.3 -0.2 -0.66 -0.04 -0.96 c 0.35 -0.69 0.71 -1.38 1.07 -2.06 c 0.05 -0.09 0.03 -0.16 0 -0.21 c -0.04 -0.07 -0.1 -0.13 -0.18 -0.15 Z" stroke-linecap="round"/>
</g>
		<g transform="matrix(1 0 0 1 27.464 -33.8232)" id="Layer_1">
<linearGradient id="SVGID_1644" gradientUnits="userSpaceOnUse" gradientTransform="matrix(0.8912 -0.4537 0.4537 0.8912 -333.28 -264.08)" x1="314.26" y1="255.03" x2="322.76" y2="234.58">
<stop offset="0%" style="stop-color:rgb(254,112,98);stop-opacity: 1"/>
<stop offset="100%" style="stop-color:rgb(255,146,142);stop-opacity: 1"/>
</linearGradient>
<path style="stroke: none; stroke-width: 1; stroke-dasharray: none; stroke-linecap: butt; stroke-dashoffset: 0; stroke-linejoin: miter; stroke-miterlimit: 4; is-custom-font: none; font-file-url: none; fill: url(#SVGID_1644); fill-rule: nonzero; opacity: 1;" transform=" translate(-77.464, -16.1768)" d="m 78.46 11.2 s -0.09 0.05 -0.12 0.08 c -0.64 0.67 -1.27 1.35 -1.87 2.04 c -0.13 0.15 -0.3 0.27 -0.48 0.35 c -0.19 0.08 -0.39 0.12 -0.59 0.12 c -0.92 -0.02 -1.85 -0.03 -2.78 -0.01 c -0.05 0 -0.1 0.01 -0.15 0.03 c -0.08 0.04 -0.15 0.12 -0.17 0.2 c -0.02 0.06 -0.02 0.14 0.04 0.23 c 0.52 0.68 1.03 1.36 1.54 2.04 c 0.22 0.3 0.27 0.7 0.13 1.06 c -0.31 0.82 -0.61 1.64 -0.89 2.46 c -0.05 0.15 0.03 0.25 0.07 0.29 c 0.04 0.04 0.14 0.11 0.3 0.06 c 0.82 -0.3 1.65 -0.58 2.48 -0.84 c 0.37 -0.12 0.76 -0.04 1.06 0.19 c 0.67 0.53 1.33 1.07 1.98 1.62 c 0.12 0.1 0.24 0.06 0.29 0.04 c 0.05 -0.02 0.16 -0.08 0.16 -0.24 c 0.03 -0.84 0.08 -1.69 0.14 -2.54 c 0.03 -0.37 0.24 -0.71 0.57 -0.9 c 0.76 -0.43 1.53 -0.84 2.31 -1.25 c 0.14 -0.07 0.16 -0.2 0.16 -0.26 c 0 -0.05 -0.02 -0.18 -0.17 -0.25 c -0.8 -0.35 -1.61 -0.69 -2.44 -1.01 c -0.36 -0.14 -0.62 -0.44 -0.7 -0.81 c -0.16 -0.83 -0.32 -1.67 -0.48 -2.51 c -0.02 -0.11 -0.09 -0.16 -0.14 -0.19 c -0.08 -0.04 -0.18 -0.04 -0.27 -0.01 Z" stroke-linecap="round"/>
</g>
		<g transform="matrix(1 0 0 1 33.2302 -24.6846)" id="Layer_1">
<linearGradient id="SVGID_1645" gradientUnits="userSpaceOnUse" gradientTransform="matrix(1 0 0 1 0 0)" x1="88.09" y1="13.88" x2="96.59" y2="-6.57">
<stop offset="0%" style="stop-color:rgb(254,112,98);stop-opacity: 1"/>
<stop offset="100%" style="stop-color:rgb(255,146,142);stop-opacity: 1"/>
</linearGradient>
<path style="stroke: none; stroke-width: 1; stroke-dasharray: none; stroke-linecap: butt; stroke-dashoffset: 0; stroke-linejoin: miter; stroke-miterlimit: 4; is-custom-font: none; font-file-url: none; fill: url(#SVGID_1645); fill-rule: nonzero; opacity: 1;" transform=" translate(-83.2302, -25.3154)" d="m 89.8 23.33 c -0.05 -0.04 -0.12 -0.06 -0.18 -0.07 c -1.2 -0.18 -2.39 -0.34 -3.58 -0.47 c -0.26 -0.03 -0.51 -0.12 -0.74 -0.25 c -0.23 -0.14 -0.42 -0.32 -0.57 -0.54 c -0.69 -1 -1.39 -2 -2.13 -2.98 c -0.04 -0.06 -0.09 -0.1 -0.15 -0.13 c -0.1 -0.06 -0.23 -0.07 -0.34 -0.03 c -0.07 0.02 -0.17 0.08 -0.21 0.22 c -0.31 1.07 -0.63 2.13 -0.95 3.19 c -0.14 0.47 -0.52 0.82 -1 0.94 c -1.1 0.28 -2.18 0.59 -3.25 0.91 c -0.2 0.06 -0.24 0.22 -0.25 0.29 c 0 0.07 0 0.24 0.17 0.36 c 0.94 0.65 1.87 1.33 2.78 2.02 c 0.4 0.3 0.63 0.78 0.61 1.27 c -0.04 1.12 -0.09 2.23 -0.16 3.34 c -0.01 0.21 0.12 0.31 0.18 0.34 c 0.06 0.04 0.21 0.1 0.38 0 c 0.91 -0.6 1.83 -1.19 2.76 -1.77 c 0.41 -0.25 0.93 -0.28 1.39 -0.06 c 1.04 0.49 2.06 1 3.09 1.54 c 0.19 0.1 0.34 0.02 0.39 -0.02 c 0.05 -0.04 0.18 -0.16 0.13 -0.36 c -0.25 -1.12 -0.53 -2.25 -0.82 -3.38 c -0.13 -0.5 -0.02 -1 0.31 -1.36 c 0.75 -0.8 1.5 -1.6 2.26 -2.4 c 0.1 -0.1 0.1 -0.22 0.08 -0.3 c -0.02 -0.12 -0.09 -0.23 -0.19 -0.29 Z" stroke-linecap="round"/>
</g>
</g>
</g>
</svg>