<svg xmlns="http://www.w3.org/2000/svg" xmlns:xlink="http://www.w3.org/1999/xlink" version="1.1" width="1024" height="1024" viewBox="0 0 1024 1024" xml:space="preserve">
<desc>Created with Fabric.js 3.5.0</desc>
<defs>
</defs>
<rect x="0" y="0" width="100%" height="100%" fill="#fff"/>
<g transform="matrix(1 0 0 1 514.172 972.1296)" style="" id="241745">
		
<path xml:space="preserve" font-family="Lato" font-size="75" font-style="normal" font-weight="normal" style="stroke: none; stroke-width: 0; stroke-dasharray: none; stroke-linecap: butt; stroke-dashoffset: 0; stroke-linejoin: miter; stroke-miterlimit: 4; is-custom-font: none; font-file-url: none; fill: rgb(0,0,0); fill-rule: nonzero; opacity: 1; white-space: pre;" d="M-379.50-25.23L-381.26-21.78Q-381.60-21.21-381.98-20.93Q-382.35-20.65-382.95-20.65L-382.95-20.65Q-383.59-20.65-384.43-21.29Q-385.27-21.93-386.57-22.70Q-387.86-23.46-389.68-24.10Q-391.50-24.74-394.09-24.74L-394.09-24.74Q-396.52-24.74-398.40-24.08Q-400.27-23.43-401.53-22.30Q-402.79-21.18-403.43-19.66Q-404.06-18.14-404.06-16.38L-404.06-16.38Q-404.06-14.13-402.96-12.65Q-401.85-11.16-400.03-10.11Q-398.21-9.06-395.91-8.30Q-393.60-7.53-391.18-6.70Q-388.76-5.88-386.46-4.85Q-384.15-3.81-382.33-2.24Q-380.51-0.66-379.41 1.62Q-378.30 3.91-378.30 7.25L-378.30 7.25Q-378.30 10.77-379.50 13.87Q-380.70 16.96-383.01 19.25Q-385.31 21.54-388.67 22.85Q-392.02 24.16-396.30 24.16L-396.30 24.16Q-401.51 24.16-405.81 22.27Q-410.10 20.37-413.14 17.15L-413.14 17.15L-411.04 13.70Q-410.74 13.29-410.31 13.00Q-409.88 12.72-409.35 12.72L-409.35 12.72Q-408.56 12.72-407.55 13.57Q-406.54 14.41-405.02 15.42Q-403.50 16.44-401.34 17.28Q-399.19 18.12-396.07 18.12L-396.07 18.12Q-393.49 18.12-391.46 17.41Q-389.44 16.70-388.03 15.40Q-386.63 14.11-385.88 12.31Q-385.13 10.51-385.13 8.30L-385.13 8.30Q-385.13 5.86-386.23 4.30Q-387.34 2.75-389.14 1.70Q-390.94 0.65-393.24-0.08Q-395.55-0.81-397.97-1.58Q-400.39-2.35-402.69-3.36Q-405-4.38-406.80-5.99Q-408.60-7.60-409.71-10.02Q-410.81-12.44-410.81-16.00L-410.81-16.00Q-410.81-18.85-409.71-21.51Q-408.60-24.18-406.50-26.24Q-404.40-28.30-401.31-29.54Q-398.21-30.78-394.20-30.78L-394.20-30.78Q-389.70-30.78-385.99-29.35Q-382.27-27.93-379.50-25.23L-379.50-25.23ZM-370.99-14.43L-364.31-14.43L-364.31 9.80Q-364.31 14.11-362.32 16.47Q-360.34 18.84-356.32 18.84L-356.32 18.84Q-353.40 18.84-350.81 17.45Q-348.23 16.06-346.05 13.59L-346.05 13.59L-346.05-14.43L-339.38-14.43L-339.38 23.56L-343.35 23.56Q-344.77 23.56-345.15 22.17L-345.15 22.17L-345.68 18.09Q-348.15 20.82-351.23 22.49Q-354.30 24.16-358.27 24.16L-358.27 24.16Q-361.39 24.16-363.77 23.13Q-366.15 22.10-367.76 20.22Q-369.38 18.35-370.18 15.69Q-370.99 13.02-370.99 9.80L-370.99 9.80L-370.99-14.43ZM-323.85 23.56L-328.16 23.56L-328.16-31.68L-321.45-31.68L-321.45-8.95Q-319.09-11.69-316.03-13.36Q-312.98-15.03-309.04-15.03L-309.04-15.03Q-305.74-15.03-303.07-13.79Q-300.41-12.55-298.54-10.10Q-296.66-7.64-295.65-4.02Q-294.64-0.40-294.64 4.32L-294.64 4.32Q-294.64 8.52-295.76 12.14Q-296.89 15.76-299.01 18.40Q-301.13 21.05-304.18 22.57Q-307.24 24.09-311.06 24.09L-311.06 24.09Q-314.74 24.09-317.31 22.66Q-319.88 21.24-321.79 18.69L-321.79 18.69L-322.13 22.14Q-322.43 23.56-323.85 23.56L-323.85 23.56ZM-311.21-9.70L-311.21-9.70Q-314.48-9.70-316.93-8.20Q-319.39-6.70-321.45-3.96L-321.45-3.96L-321.45 14.41Q-319.65 16.89-317.46 17.90Q-315.26 18.91-312.56 18.91L-312.56 18.91Q-307.24 18.91-304.39 15.12Q-301.54 11.34-301.54 4.32L-301.54 4.32Q-301.54 0.61-302.19-2.05Q-302.85-4.71-304.09-6.42Q-305.32-8.13-307.13-8.91Q-308.93-9.70-311.21-9.70ZM-279.79 23.56L-286.46 23.56L-286.46-14.43L-282.49-14.43Q-281.06-14.43-280.69-13.04L-280.69-13.04L-280.20-9.14Q-278.10-11.73-275.49-13.38Q-272.89-15.03-269.44-15.03L-269.44-15.03Q-265.57-15.03-263.19-12.89Q-260.81-10.75-259.76-7.11L-259.76-7.11Q-258.98-9.18-257.68-10.68Q-256.39-12.18-254.78-13.15Q-253.16-14.13-251.34-14.58Q-249.53-15.03-247.65-15.03L-247.65-15.03Q-244.65-15.03-242.31-14.07Q-239.96-13.11-238.33-11.28Q-236.70-9.44-235.84-6.76Q-234.97-4.08-234.97-0.63L-234.97-0.63L-234.97 23.56L-241.65 23.56L-241.65-0.63Q-241.65-5.09-243.60-7.40Q-245.55-9.70-249.26-9.70L-249.26-9.70Q-250.91-9.70-252.39-9.12Q-253.88-8.54-255-7.41Q-256.13-6.29-256.78-4.58Q-257.44-2.88-257.44-0.63L-257.44-0.63L-257.44 23.56L-264.11 23.56L-264.11-0.63Q-264.11-5.20-265.95-7.45Q-267.79-9.70-271.31-9.70L-271.31-9.70Q-273.79-9.70-275.91-8.37Q-278.02-7.04-279.79-4.75L-279.79-4.75L-279.79 23.56ZM-224.14-14.43L-217.46-14.43L-217.46 23.56L-224.14 23.56L-224.14-14.43ZM-215.96-26.35L-215.96-26.35Q-215.96-25.38-216.36-24.53Q-216.75-23.69-217.41-23.03Q-218.06-22.38-218.93-22.00Q-219.79-21.63-220.76-21.63L-220.76-21.63Q-221.74-21.63-222.58-22.00Q-223.43-22.38-224.08-23.03Q-224.74-23.69-225.11-24.53Q-225.49-25.38-225.49-26.35L-225.49-26.35Q-225.49-27.33-225.11-28.21Q-224.74-29.09-224.08-29.75Q-223.43-30.40-222.58-30.78Q-221.74-31.15-220.76-31.15L-220.76-31.15Q-219.79-31.15-218.93-30.78Q-218.06-30.40-217.41-29.75Q-216.75-29.09-216.36-28.21Q-215.96-27.33-215.96-26.35ZM-182.44-10.60L-183.94-8.16Q-184.39-7.34-185.33-7.34L-185.33-7.34Q-185.89-7.34-186.60-7.75Q-187.31-8.16-188.34-8.67Q-189.38-9.18-190.80-9.61Q-192.23-10.04-194.18-10.04L-194.18-10.04Q-195.86-10.04-197.21-9.61Q-198.56-9.18-199.52-8.43Q-200.48-7.68-200.98-6.68Q-201.49-5.69-201.49-4.53L-201.49-4.53Q-201.49-3.06-200.64-2.09Q-199.80-1.11-198.41-0.40Q-197.03 0.31-195.26 0.85Q-193.50 1.40-191.64 2.02Q-189.79 2.64-188.03 3.39Q-186.26 4.14-184.88 5.26Q-183.49 6.39-182.64 8.02Q-181.80 9.65-181.80 11.94L-181.80 11.94Q-181.80 14.56-182.74 16.79Q-183.68 19.02-185.51 20.65Q-187.35 22.29-190.01 23.22Q-192.68 24.16-196.16 24.16L-196.16 24.16Q-200.14 24.16-203.36 22.87Q-206.59 21.57-208.84 19.55L-208.84 19.55L-207.26 17.00Q-206.96 16.51-206.55 16.25Q-206.14 15.99-205.46 15.99L-205.46 15.99Q-204.79 15.99-204.04 16.51Q-203.29 17.04-202.22 17.67Q-201.15 18.31-199.63 18.84Q-198.11 19.36-195.83 19.36L-195.83 19.36Q-193.88 19.36-192.41 18.85Q-190.95 18.35-189.98 17.49Q-189.00 16.62-188.53 15.50Q-188.06 14.37-188.06 13.10L-188.06 13.10Q-188.06 11.52-188.91 10.49Q-189.75 9.46-191.14 8.73Q-192.53 8.00-194.31 7.45Q-196.09 6.91-197.94 6.31Q-199.80 5.71-201.58 4.94Q-203.36 4.17-204.75 3.01Q-206.14 1.85-206.98 0.14Q-207.83-1.56-207.83-4.00L-207.83-4.00Q-207.83-6.18-206.93-8.18Q-206.03-10.19-204.30-11.71Q-202.58-13.23-200.06-14.13Q-197.55-15.03-194.33-15.03L-194.33-15.03Q-190.58-15.03-187.59-13.85Q-184.61-12.66-182.44-10.60L-182.44-10.60ZM-149.89-10.60L-151.39-8.16Q-151.84-7.34-152.78-7.34L-152.78-7.34Q-153.34-7.34-154.05-7.75Q-154.76-8.16-155.79-8.67Q-156.83-9.18-158.25-9.61Q-159.68-10.04-161.63-10.04L-161.63-10.04Q-163.31-10.04-164.66-9.61Q-166.01-9.18-166.97-8.43Q-167.93-7.68-168.43-6.68Q-168.94-5.69-168.94-4.53L-168.94-4.53Q-168.94-3.06-168.09-2.09Q-167.25-1.11-165.86-0.40Q-164.48 0.31-162.71 0.85Q-160.95 1.40-159.09 2.02Q-157.24 2.64-155.48 3.39Q-153.71 4.14-152.33 5.26Q-150.94 6.39-150.09 8.02Q-149.25 9.65-149.25 11.94L-149.25 11.94Q-149.25 14.56-150.19 16.79Q-151.13 19.02-152.96 20.65Q-154.80 22.29-157.46 23.22Q-160.13 24.16-163.61 24.16L-163.61 24.16Q-167.59 24.16-170.81 22.87Q-174.04 21.57-176.29 19.55L-176.29 19.55L-174.71 17.00Q-174.41 16.51-174 16.25Q-173.59 15.99-172.91 15.99L-172.91 15.99Q-172.24 15.99-171.49 16.51Q-170.74 17.04-169.67 17.67Q-168.60 18.31-167.08 18.84Q-165.56 19.36-163.28 19.36L-163.28 19.36Q-161.33 19.36-159.86 18.85Q-158.40 18.35-157.43 17.49Q-156.45 16.62-155.98 15.50Q-155.51 14.37-155.51 13.10L-155.51 13.10Q-155.51 11.52-156.36 10.49Q-157.20 9.46-158.59 8.73Q-159.98 8.00-161.76 7.45Q-163.54 6.91-165.39 6.31Q-167.25 5.71-169.03 4.94Q-170.81 4.17-172.20 3.01Q-173.59 1.85-174.43 0.14Q-175.28-1.56-175.28-4.00L-175.28-4.00Q-175.28-6.18-174.38-8.18Q-173.48-10.19-171.75-11.71Q-170.03-13.23-167.51-14.13Q-165-15.03-161.78-15.03L-161.78-15.03Q-158.03-15.03-155.04-13.85Q-152.06-12.66-149.89-10.60L-149.89-10.60ZM-139.84-14.43L-133.16-14.43L-133.16 23.56L-139.84 23.56L-139.84-14.43ZM-131.66-26.35L-131.66-26.35Q-131.66-25.38-132.06-24.53Q-132.45-23.69-133.11-23.03Q-133.76-22.38-134.63-22.00Q-135.49-21.63-136.46-21.63L-136.46-21.63Q-137.44-21.63-138.28-22.00Q-139.13-22.38-139.78-23.03Q-140.44-23.69-140.81-24.53Q-141.19-25.38-141.19-26.35L-141.19-26.35Q-141.19-27.33-140.81-28.21Q-140.44-29.09-139.78-29.75Q-139.13-30.40-138.28-30.78Q-137.44-31.15-136.46-31.15L-136.46-31.15Q-135.49-31.15-134.63-30.78Q-133.76-30.40-133.11-29.75Q-132.45-29.09-132.06-28.21Q-131.66-27.33-131.66-26.35ZM-106.01-15.03L-106.01-15.03Q-101.85-15.03-98.49-13.64Q-95.14-12.25-92.79-9.70Q-90.45-7.15-89.19-3.53Q-87.94 0.09-87.94 4.55L-87.94 4.55Q-87.94 9.05-89.19 12.65Q-90.45 16.25-92.79 18.80Q-95.14 21.35-98.49 22.72Q-101.85 24.09-106.01 24.09L-106.01 24.09Q-110.17 24.09-113.53 22.72Q-116.89 21.35-119.25 18.80Q-121.61 16.25-122.89 12.65Q-124.16 9.05-124.16 4.55L-124.16 4.55Q-124.16 0.09-122.89-3.53Q-121.61-7.15-119.25-9.70Q-116.89-12.25-113.53-13.64Q-110.17-15.03-106.01-15.03ZM-106.01 18.87L-106.01 18.87Q-100.39 18.87-97.61 15.10Q-94.84 11.34-94.84 4.59L-94.84 4.59Q-94.84-2.20-97.61-5.99Q-100.39-9.78-106.01-9.78L-106.01-9.78Q-108.86-9.78-110.96-8.80Q-113.06-7.83-114.47-5.99Q-115.88-4.15-116.57-1.47Q-117.26 1.21-117.26 4.59L-117.26 4.59Q-117.26 7.96-116.57 10.62Q-115.88 13.29-114.47 15.10Q-113.06 16.92-110.96 17.90Q-108.86 18.87-106.01 18.87ZM-73.01 23.56L-79.69 23.56L-79.69-14.43L-75.71-14.43Q-74.29-14.43-73.91-13.04L-73.91-13.04L-73.39-8.91Q-70.91-11.65-67.86-13.34Q-64.80-15.03-60.79-15.03L-60.79-15.03Q-57.67-15.03-55.29-14.00Q-52.91-12.96-51.32-11.07Q-49.72-9.18-48.90-6.51Q-48.07-3.85-48.07-0.63L-48.07-0.63L-48.07 23.56L-54.75 23.56L-54.75-0.63Q-54.75-4.94-56.72-7.32Q-58.69-9.70-62.74-9.70L-62.74-9.70Q-65.70-9.70-68.27-8.28Q-70.84-6.85-73.01-4.41L-73.01-4.41L-73.01 23.56ZM-8.14-15.03L-8.14-15.03Q-3.97-15.03-0.62-13.64Q2.74-12.25 5.08-9.70Q7.43-7.15 8.68-3.53Q9.94 0.09 9.94 4.55L9.94 4.55Q9.94 9.05 8.68 12.65Q7.43 16.25 5.08 18.80Q2.74 21.35-0.62 22.72Q-3.97 24.09-8.14 24.09L-8.14 24.09Q-12.30 24.09-15.66 22.72Q-19.01 21.35-21.37 18.80Q-23.74 16.25-25.01 12.65Q-26.29 9.05-26.29 4.55L-26.29 4.55Q-26.29 0.09-25.01-3.53Q-23.74-7.15-21.37-9.70Q-19.01-12.25-15.66-13.64Q-12.30-15.03-8.14-15.03ZM-8.14 18.87L-8.14 18.87Q-2.51 18.87 0.26 15.10Q3.04 11.34 3.04 4.59L3.04 4.59Q3.04-2.20 0.26-5.99Q-2.51-9.78-8.14-9.78L-8.14-9.78Q-10.99-9.78-13.09-8.80Q-15.19-7.83-16.59-5.99Q-18-4.15-18.69-1.47Q-19.39 1.21-19.39 4.59L-19.39 4.59Q-19.39 7.96-18.69 10.62Q-18 13.29-16.59 15.10Q-15.19 16.92-13.09 17.90Q-10.99 18.87-8.14 18.87ZM26.40 23.56L19.69 23.56L19.69-8.73L15.49-9.21Q14.70-9.40 14.19-9.80Q13.69-10.19 13.69-10.94L13.69-10.94L13.69-13.68L19.69-13.68L19.69-17.35Q19.69-20.61 20.61-23.15Q21.52-25.68 23.23-27.42Q24.94-29.16 27.34-30.06Q29.74-30.96 32.74-30.96L32.74-30.96Q35.29-30.96 37.46-30.21L37.46-30.21L37.31-26.88Q37.27-26.13 36.67-25.98Q36.08-25.83 34.99-25.83L34.99-25.83L33.83-25.83Q32.10-25.83 30.69-25.38Q29.29-24.93 28.27-23.91Q27.26-22.90 26.72-21.25Q26.17-19.60 26.17-17.16L26.17-17.16L26.17-13.68L37.16-13.68L37.16-8.84L26.40-8.84L26.40 23.56ZM85.84-0.74L85.84 23.56L82.88 23.56Q81.90 23.56 81.30 23.26Q80.70 22.96 80.51 21.99L80.51 21.99L79.76 18.46Q78.26 19.81 76.84 20.88Q75.41 21.95 73.84 22.68Q72.26 23.41 70.48 23.79Q68.70 24.16 66.53 24.16L66.53 24.16Q64.31 24.16 62.38 23.54Q60.45 22.92 59.02 21.69Q57.60 20.45 56.76 18.55Q55.91 16.66 55.91 14.07L55.91 14.07Q55.91 11.82 57.15 9.74Q58.39 7.66 61.14 6.05Q63.90 4.44 68.36 3.40Q72.83 2.37 79.28 2.22L79.28 2.22L79.28-0.74Q79.28-5.16 77.38-7.43Q75.49-9.70 71.78-9.70L71.78-9.70Q69.34-9.70 67.67-9.08Q66-8.46 64.78-7.70Q63.56-6.93 62.68-6.31Q61.80-5.69 60.94-5.69L60.94-5.69Q60.26-5.69 59.76-6.05Q59.25-6.40 58.95-6.93L58.95-6.93L57.75-9.06Q60.90-12.10 64.54-13.60Q68.17-15.10 72.60-15.10L72.60-15.10Q75.79-15.10 78.26-14.05Q80.74-13.00 82.42-11.13Q84.11-9.25 84.97-6.59Q85.84-3.93 85.84-0.74L85.84-0.74ZM68.51 19.47L68.51 19.47Q70.28 19.47 71.74 19.12Q73.20 18.76 74.49 18.10Q75.79 17.45 76.97 16.51Q78.15 15.57 79.28 14.37L79.28 14.37L79.28 6.46Q74.66 6.61 71.44 7.19Q68.21 7.77 66.19 8.71Q64.16 9.65 63.24 10.92Q62.32 12.20 62.32 13.77L62.32 13.77Q62.32 15.27 62.81 16.36Q63.30 17.45 64.13 18.14Q64.95 18.84 66.08 19.15Q67.20 19.47 68.51 19.47ZM102.64 36.42L95.96 36.42L95.96-14.43L99.94-14.43Q101.36-14.43 101.74-13.04L101.74-13.04L102.30-8.54Q104.74-11.50 107.87-13.30Q111-15.10 115.09-15.10L115.09-15.10Q118.35-15.10 121.01-13.85Q123.67-12.59 125.55-10.13Q127.42-7.68 128.44-4.04Q129.45-0.40 129.45 4.32L129.45 4.32Q129.45 8.52 128.32 12.14Q127.20 15.76 125.10 18.40Q123 21.05 119.94 22.57Q116.89 24.09 113.06 24.09L113.06 24.09Q109.54 24.09 107.04 22.92Q104.55 21.76 102.64 19.62L102.64 19.62L102.64 36.42ZM112.88-9.70L112.88-9.70Q109.61-9.70 107.16-8.20Q104.70-6.70 102.64-3.96L102.64-3.96L102.64 14.41Q104.47 16.89 106.67 17.90Q108.86 18.91 111.56 18.91L111.56 18.91Q116.85 18.91 119.70 15.12Q122.55 11.34 122.55 4.32L122.55 4.32Q122.55 0.61 121.89-2.05Q121.24-4.71 120-6.42Q118.76-8.13 116.96-8.91Q115.16-9.70 112.88-9.70ZM144.04 36.42L137.36 36.42L137.36-14.43L141.34-14.43Q142.76-14.43 143.14-13.04L143.14-13.04L143.70-8.54Q146.14-11.50 149.27-13.30Q152.40-15.10 156.49-15.10L156.49-15.10Q159.75-15.10 162.41-13.85Q165.07-12.59 166.95-10.13Q168.82-7.68 169.84-4.04Q170.85-0.40 170.85 4.32L170.85 4.32Q170.85 8.52 169.72 12.14Q168.60 15.76 166.50 18.40Q164.40 21.05 161.34 22.57Q158.29 24.09 154.46 24.09L154.46 24.09Q150.94 24.09 148.44 22.92Q145.95 21.76 144.04 19.62L144.04 19.62L144.04 36.42ZM154.27-9.70L154.27-9.70Q151.01-9.70 148.56-8.20Q146.10-6.70 144.04-3.96L144.04-3.96L144.04 14.41Q145.88 16.89 148.07 17.90Q150.26 18.91 152.96 18.91L152.96 18.91Q158.25 18.91 161.10 15.12Q163.95 11.34 163.95 4.32L163.95 4.32Q163.95 0.61 163.29-2.05Q162.64-4.71 161.40-6.42Q160.16-8.13 158.36-8.91Q156.56-9.70 154.27-9.70ZM179.51-31.68L186.19-31.68L186.19 23.56L179.51 23.56L179.51-31.68ZM198.71-14.43L205.39-14.43L205.39 23.56L198.71 23.56L198.71-14.43ZM206.89-26.35L206.89-26.35Q206.89-25.38 206.49-24.53Q206.10-23.69 205.44-23.03Q204.79-22.38 203.92-22.00Q203.06-21.63 202.09-21.63L202.09-21.63Q201.11-21.63 200.27-22.00Q199.42-22.38 198.77-23.03Q198.11-23.69 197.74-24.53Q197.36-25.38 197.36-26.35L197.36-26.35Q197.36-27.33 197.74-28.21Q198.11-29.09 198.77-29.75Q199.42-30.40 200.27-30.78Q201.11-31.15 202.09-31.15L202.09-31.15Q203.06-31.15 203.92-30.78Q204.79-30.40 205.44-29.75Q206.10-29.09 206.49-28.21Q206.89-27.33 206.89-26.35ZM244.84-10.08L243.07-7.68Q242.77-7.26 242.47-7.04Q242.17-6.81 241.61-6.81L241.61-6.81Q241.05-6.81 240.39-7.28Q239.74-7.75 238.72-8.31Q237.71-8.88 236.27-9.35Q234.82-9.81 232.72-9.81L232.72-9.81Q229.95-9.81 227.81-8.82Q225.67-7.83 224.23-5.95Q222.79-4.08 222.06-1.41Q221.32 1.25 221.32 4.55L221.32 4.55Q221.32 8.00 222.11 10.68Q222.90 13.36 224.32 15.18Q225.75 17.00 227.79 17.95Q229.84 18.91 232.39 18.91L232.39 18.91Q234.82 18.91 236.40 18.33Q237.97 17.75 239.02 17.04Q240.07 16.32 240.75 15.74Q241.42 15.16 242.10 15.16L242.10 15.16Q242.96 15.16 243.37 15.80L243.37 15.80L245.25 18.24Q242.77 21.27 239.06 22.68Q235.35 24.09 231.22 24.09L231.22 24.09Q227.66 24.09 224.61 22.77Q221.55 21.46 219.30 18.97Q217.05 16.47 215.76 12.84Q214.46 9.20 214.46 4.55L214.46 4.55Q214.46 0.31 215.64-3.29Q216.82-6.89 219.09-9.50Q221.36-12.10 224.70-13.56Q228.04-15.03 232.35-15.03L232.35-15.03Q236.32-15.03 239.40-13.73Q242.47-12.44 244.84-10.08L244.84-10.08ZM280.09-0.74L280.09 23.56L277.13 23.56Q276.15 23.56 275.55 23.26Q274.95 22.96 274.76 21.99L274.76 21.99L274.01 18.46Q272.51 19.81 271.09 20.88Q269.66 21.95 268.09 22.68Q266.51 23.41 264.73 23.79Q262.95 24.16 260.77 24.16L260.77 24.16Q258.56 24.16 256.63 23.54Q254.70 22.92 253.27 21.69Q251.85 20.45 251.01 18.55Q250.16 16.66 250.16 14.07L250.16 14.07Q250.16 11.82 251.40 9.74Q252.64 7.66 255.39 6.05Q258.15 4.44 262.61 3.40Q267.07 2.37 273.52 2.22L273.52 2.22L273.52-0.74Q273.52-5.16 271.63-7.43Q269.74-9.70 266.02-9.70L266.02-9.70Q263.59-9.70 261.92-9.08Q260.25-8.46 259.03-7.70Q257.81-6.93 256.93-6.31Q256.05-5.69 255.19-5.69L255.19-5.69Q254.51-5.69 254.01-6.05Q253.50-6.40 253.20-6.93L253.20-6.93L252.00-9.06Q255.15-12.10 258.79-13.60Q262.42-15.10 266.85-15.10L266.85-15.10Q270.04-15.10 272.51-14.05Q274.99-13.00 276.67-11.13Q278.36-9.25 279.22-6.59Q280.09-3.93 280.09-0.74L280.09-0.74ZM262.76 19.47L262.76 19.47Q264.52 19.47 265.99 19.12Q267.45 18.76 268.74 18.10Q270.04 17.45 271.22 16.51Q272.40 15.57 273.52 14.37L273.52 14.37L273.52 6.46Q268.91 6.61 265.69 7.19Q262.46 7.77 260.44 8.71Q258.41 9.65 257.49 10.92Q256.57 12.20 256.57 13.77L256.57 13.77Q256.57 15.27 257.06 16.36Q257.55 17.45 258.38 18.14Q259.20 18.84 260.32 19.15Q261.45 19.47 262.76 19.47ZM301.72 24.16L301.72 24.16Q297.22 24.16 294.81 21.65Q292.39 19.14 292.39 14.41L292.39 14.41L292.39-8.84L287.81-8.84Q287.21-8.84 286.80-9.20Q286.39-9.55 286.39-10.30L286.39-10.30L286.39-12.96L292.61-13.75L294.15-25.49Q294.22-26.05 294.64-26.41Q295.05-26.76 295.69-26.76L295.69-26.76L299.06-26.76L299.06-13.68L309.94-13.68L309.94-8.84L299.06-8.84L299.06 13.96Q299.06 16.36 300.22 17.52Q301.39 18.69 303.22 18.69L303.22 18.69Q304.27 18.69 305.04 18.40Q305.81 18.12 306.37 17.79Q306.94 17.45 307.33 17.17Q307.72 16.89 308.02 16.89L308.02 16.89Q308.55 16.89 308.96 17.52L308.96 17.52L310.91 20.71Q309.19 22.32 306.75 23.24Q304.31 24.16 301.72 24.16ZM318.94-14.43L325.61-14.43L325.61 23.56L318.94 23.56L318.94-14.43ZM327.11-26.35L327.11-26.35Q327.11-25.38 326.72-24.53Q326.32-23.69 325.67-23.03Q325.01-22.38 324.15-22.00Q323.29-21.63 322.31-21.63L322.31-21.63Q321.34-21.63 320.49-22.00Q319.65-22.38 318.99-23.03Q318.34-23.69 317.96-24.53Q317.59-25.38 317.59-26.35L317.59-26.35Q317.59-27.33 317.96-28.21Q318.34-29.09 318.99-29.75Q319.65-30.40 320.49-30.78Q321.34-31.15 322.31-31.15L322.31-31.15Q323.29-31.15 324.15-30.78Q325.01-30.40 325.67-29.75Q326.32-29.09 326.72-28.21Q327.11-27.33 327.11-26.35ZM352.76-15.03L352.76-15.03Q356.92-15.03 360.28-13.64Q363.64-12.25 365.98-9.70Q368.32-7.15 369.58-3.53Q370.84 0.09 370.84 4.55L370.84 4.55Q370.84 9.05 369.58 12.65Q368.32 16.25 365.98 18.80Q363.64 21.35 360.28 22.72Q356.92 24.09 352.76 24.09L352.76 24.09Q348.60 24.09 345.24 22.72Q341.89 21.35 339.52 18.80Q337.16 16.25 335.89 12.65Q334.61 9.05 334.61 4.55L334.61 4.55Q334.61 0.09 335.89-3.53Q337.16-7.15 339.52-9.70Q341.89-12.25 345.24-13.64Q348.60-15.03 352.76-15.03ZM352.76 18.87L352.76 18.87Q358.39 18.87 361.16 15.10Q363.94 11.34 363.94 4.59L363.94 4.59Q363.94-2.20 361.16-5.99Q358.39-9.78 352.76-9.78L352.76-9.78Q349.91-9.78 347.81-8.80Q345.71-7.83 344.31-5.99Q342.90-4.15 342.21-1.47Q341.51 1.21 341.51 4.59L341.51 4.59Q341.51 7.96 342.21 10.62Q342.90 13.29 344.31 15.10Q345.71 16.92 347.81 17.90Q349.91 18.87 352.76 18.87ZM385.76 23.56L379.09 23.56L379.09-14.43L383.06-14.43Q384.49-14.43 384.86-13.04L384.86-13.04L385.39-8.91Q387.86-11.65 390.92-13.34Q393.97-15.03 397.99-15.03L397.99-15.03Q401.10-15.03 403.48-14.00Q405.86-12.96 407.46-11.07Q409.05-9.18 409.87-6.51Q410.70-3.85 410.70-0.63L410.70-0.63L410.70 23.56L404.02 23.56L404.02-0.63Q404.02-4.94 402.06-7.32Q400.09-9.70 396.04-9.70L396.04-9.70Q393.07-9.70 390.51-8.28Q387.94-6.85 385.76-4.41L385.76-4.41L385.76 23.56Z"/></g>
<g transform="matrix(8.56 0 0 8.56 494.3029 428)" id="319233">
<g style="" vector-effect="non-scaling-stroke">
		<g transform="matrix(1 0 0 1 0.1478 -0.2694)" id="Layer_1">
<linearGradient id="SVGID_1646" gradientUnits="userSpaceOnUse" gradientTransform="matrix(1 0 0 1 0 0)" x1="99.78" y1="112.65" x2="29.37" y2="25.2">
<stop offset="0%" style="stop-color:rgb(218,227,254);stop-opacity: 1"/>
<stop offset="100%" style="stop-color:rgb(233,239,253);stop-opacity: 1"/>
</linearGradient>
<path style="stroke: none; stroke-width: 1; stroke-dasharray: none; stroke-linecap: butt; stroke-dashoffset: 0; stroke-linejoin: miter; stroke-miterlimit: 4; is-custom-font: none; font-file-url: none; fill: url(#SVGID_1646); fill-rule: nonzero; opacity: 1;" transform=" translate(-50.1478, -49.7305)" d="m 80.41 78.16 c -1.62 1.7 -3.15 2.8 -4.36 3.67 c -14.21 10.2 -31.03 7.22 -34.6 6.5 c -5.28 -1.07 -15.48 -3.14 -22.86 -11.82 c -11.16 -13.12 -9.42 -33.8 -0.77 -47.44 c 1.58 -2.5 9.95 -16.35 26.94 -18.57 c 10.29 -1.34 22.28 1.37 30.96 8.64 c 18.23 15.27 16.93 46.12 4.67 59.03 Z" stroke-linecap="round"/>
</g>
		<g transform="matrix(1 0 0 1 -32.4094 2.957)" id="Layer_1">
<path style="stroke: none; stroke-width: 1; stroke-dasharray: none; stroke-linecap: butt; stroke-dashoffset: 0; stroke-linejoin: miter; stroke-miterlimit: 4; is-custom-font: none; font-file-url: none; fill: rgb(145,179,250); fill-rule: nonzero; opacity: 1;" transform=" translate(-17.5906, -52.9569)" d="m 10.03 33.23 c -0.09 -0.14 0.08 -0.31 0.22 -0.22 c 2.26 1.45 10.22 7.23 12.75 18.49 c 2.32 10.3 2.26 17.9 2.12 20.73 c -0.03 0.56 -0.65 0.88 -1.12 0.59 c -2.81 -1.76 -10.42 -7.11 -11.37 -13.85 c -1.13 -8.05 1.64 -18.92 -2.59 -25.74 Z" stroke-linecap="round"/>
</g>
		<g transform="matrix(1 0 0 1 -30.285 6.425)" id="Layer_1">
<path style="stroke: none; stroke-width: 1; stroke-dasharray: none; stroke-linecap: butt; stroke-dashoffset: 0; stroke-linejoin: miter; stroke-miterlimit: 4; is-custom-font: none; font-file-url: none; fill: rgb(255,255,255); fill-rule: nonzero; opacity: 0.5;" transform=" translate(-19.715, -56.425)" d="m 14.98 40.86 s 6.32 6.8 9.47 31.13 c 0 0 -4.46 -24.29 -9.47 -31.13 Z" stroke-linecap="round"/>
</g>
		<g transform="matrix(1 0 0 1 -20.8819 -11.3564)" id="Layer_1">
<path style="stroke: none; stroke-width: 1; stroke-dasharray: none; stroke-linecap: butt; stroke-dashoffset: 0; stroke-linejoin: miter; stroke-miterlimit: 4; is-custom-font: none; font-file-url: none; fill: rgb(189,208,251); fill-rule: nonzero; opacity: 1;" transform=" translate(-29.1181, -38.6436)" d="m 21.94 10.37 c -2.32 5.75 -14.46 39.76 15.41 56.88 c 0 0 13.75 -20.34 -14.51 -57.01 c -0.25 -0.32 -0.75 -0.25 -0.9 0.13 Z" stroke-linecap="round"/>
</g>
		<g transform="matrix(1 0 0 1 -20.6264 -9.502)" id="Layer_1">
<path style="stroke: none; stroke-width: 1; stroke-dasharray: none; stroke-linecap: butt; stroke-dashoffset: 0; stroke-linejoin: miter; stroke-miterlimit: 4; is-custom-font: none; font-file-url: none; fill: rgb(255,255,255); fill-rule: nonzero; opacity: 0.5;" transform=" translate(-29.3736, -40.498)" d="m 23.67 16.54 c -0.06 2.08 -0.03 4.17 0.03 6.25 c 0.07 2.08 0.19 4.16 0.36 6.24 c 0.34 4.15 0.88 8.29 1.69 12.38 c 0.81 4.08 1.89 8.12 3.4 12 c 0.37 0.97 0.78 1.93 1.22 2.87 c 0.43 0.94 0.9 1.87 1.4 2.78 c 1 1.82 2.15 3.55 3.47 5.15 h 0 c 0.07 0.08 0.06 0.21 -0.03 0.28 c -0.08 0.07 -0.21 0.06 -0.27 -0.03 h 0 c -1.33 -1.63 -2.49 -3.39 -3.49 -5.23 c -0.5 -0.92 -0.97 -1.86 -1.4 -2.81 c -0.43 -0.95 -0.84 -1.92 -1.21 -2.89 c -1.5 -3.91 -2.56 -7.97 -3.36 -12.07 c -0.79 -4.1 -1.32 -8.25 -1.64 -12.41 c -0.16 -2.08 -0.27 -4.17 -0.33 -6.25 c -0.06 -2.09 -0.07 -4.17 0 -6.26 c 0 -0.05 0.04 -0.08 0.09 -0.08 c 0.05 0 0.08 0.04 0.08 0.09 h 0 Z" stroke-linecap="round"/>
</g>
		<g transform="matrix(1 0 0 1 0.532 3.7552)" id="Layer_1">
<linearGradient id="SVGID_1647" gradientUnits="userSpaceOnUse" gradientTransform="matrix(1 0 0 1 0 0)" x1="79.33" y1="12.44" x2="24.1" y2="91.96">
<stop offset="0%" style="stop-color:rgb(9,0,93);stop-opacity: 1"/>
<stop offset="100%" style="stop-color:rgb(26,15,145);stop-opacity: 1"/>
</linearGradient>
<path style="stroke: none; stroke-width: 1; stroke-dasharray: none; stroke-linecap: butt; stroke-dashoffset: 0; stroke-linejoin: miter; stroke-miterlimit: 4; is-custom-font: none; font-file-url: none; fill: url(#SVGID_1647); fill-rule: nonzero; opacity: 1;" transform=" translate(-50.532, -53.7552)" d="m 23.45 24.19 c 0 -2.72 2.2 -4.92 4.92 -4.92 h 41.82 c 2.31 0 4.21 1.81 4.33 4.11 l 3.09 60.63 c 0.09 1.8 -1.33 3.32 -3.13 3.36 l -47.93 0.87 c -1.7 0.03 -3.09 -1.34 -3.09 -3.03 V 24.19 Z" stroke-linecap="round"/>
</g>
		<g transform="matrix(1 0 0 1 -20.71 31.43)" id="Layer_1">
<path style="stroke: none; stroke-width: 1; stroke-dasharray: none; stroke-linecap: butt; stroke-dashoffset: 0; stroke-linejoin: miter; stroke-miterlimit: 4; is-custom-font: none; font-file-url: none; fill: rgb(145,179,250); fill-rule: nonzero; opacity: 1;" transform=" translate(-29.29, -81.43)" d="m 33.54 87.21 h 0 l -5.36 -0.07 c -1.79 -0.02 -3.25 -1.5 -3.25 -3.29 v -8.1 c 0 -0.06 0.05 -0.11 0.11 -0.11 s 0.11 0.05 0.11 0.11 v 8.1 c 0 1.67 1.36 3.04 3.03 3.07 l 5.36 0.07 c 0.06 0 0.11 0.05 0.11 0.12 c 0 0.06 -0.05 0.11 -0.11 0.11 Z" stroke-linecap="round"/>
</g>
		<g transform="matrix(1 0 0 1 -24.96 22.595)" id="Layer_1">
<path style="stroke: none; stroke-width: 1; stroke-dasharray: none; stroke-linecap: butt; stroke-dashoffset: 0; stroke-linejoin: miter; stroke-miterlimit: 4; is-custom-font: none; font-file-url: none; fill: rgb(145,179,250); fill-rule: nonzero; opacity: 1;" transform=" translate(-25.04, -72.595)" d="m 25.04 73.36 c -0.06 0 -0.11 -0.05 -0.11 -0.11 v -1.31 c 0 -0.06 0.05 -0.11 0.11 -0.11 s 0.11 0.05 0.11 0.11 v 1.31 c 0 0.06 -0.05 0.11 -0.11 0.11 Z" stroke-linecap="round"/>
</g>
		<g transform="matrix(1 0 0 1 0.7959 2.2559)" id="Layer_1">
<linearGradient id="SVGID_1648" gradientUnits="userSpaceOnUse" gradientTransform="matrix(1 0 0 1 0 0)" x1="29.76" y1="96.2" x2="77.61" y2="-5.26">
<stop offset="0%" style="stop-color:rgb(79,82,255);stop-opacity: 1"/>
<stop offset="100%" style="stop-color:rgb(64,66,226);stop-opacity: 1"/>
</linearGradient>
<path style="stroke: none; stroke-width: 1; stroke-dasharray: none; stroke-linecap: butt; stroke-dashoffset: 0; stroke-linejoin: miter; stroke-miterlimit: 4; is-custom-font: none; font-file-url: none; fill: url(#SVGID_1648); fill-rule: nonzero; opacity: 1;" transform=" translate(-50.7959, -52.2559)" d="m 26.87 20.21 c 0 -0.87 0.76 -1.54 1.62 -1.42 c 5.71 0.77 25.35 3.17 41.58 1.92 c 0.74 -0.06 1.38 0.5 1.42 1.25 l 3.24 60.9 c 0.04 0.84 -0.59 1.55 -1.43 1.6 c -6.83 0.4 -34.95 1.97 -44.98 0.92 c -0.61 -0.06 -1.07 -0.58 -1.08 -1.19 l -0.38 -63.96 Z" stroke-linecap="round"/>
</g>
		<g transform="matrix(1 0 0 1 0.5809 2.5657)" id="Layer_1">
<path style="stroke: none; stroke-width: 1; stroke-dasharray: none; stroke-linecap: butt; stroke-dashoffset: 0; stroke-linejoin: miter; stroke-miterlimit: 4; is-custom-font: none; font-file-url: none; fill: rgb(189,208,251); fill-rule: nonzero; opacity: 1;" transform=" translate(-50.5809, -52.5656)" d="m 27.55 21.73 c 0 -0.84 0.73 -1.48 1.56 -1.37 c 5.5 0.75 24.39 3.05 40.02 1.85 c 0.71 -0.05 1.33 0.49 1.37 1.2 l 3.11 58.61 c 0.04 0.8 -0.57 1.49 -1.37 1.54 c -6.57 0.39 -33.63 1.89 -43.29 0.88 c -0.59 -0.06 -1.03 -0.56 -1.04 -1.15 l -0.36 -61.56 Z" stroke-linecap="round"/>
</g>
		<g transform="matrix(1 0 0 1 -0.08 -21.41)" id="Layer_1">
<rect style="stroke: none; stroke-width: 1; stroke-dasharray: none; stroke-linecap: butt; stroke-dashoffset: 0; stroke-linejoin: miter; stroke-miterlimit: 4; is-custom-font: none; font-file-url: none; fill: rgb(255,255,255); fill-rule: nonzero; opacity: 0.58;" x="-19.01" y="-1.55" rx="0.3" ry="0.3" width="38.02" height="3.1"/>
</g>
		<g transform="matrix(1 0 0 1 -5.58 -9.315)" id="Layer_1">
<rect style="stroke: none; stroke-width: 1; stroke-dasharray: none; stroke-linecap: butt; stroke-dashoffset: 0; stroke-linejoin: miter; stroke-miterlimit: 4; is-custom-font: none; font-file-url: none; fill: rgb(255,255,255); fill-rule: nonzero; opacity: 0.58;" x="-13.47" y="-7.795" rx="0.3" ry="0.3" width="26.94" height="15.59"/>
</g>
		<g transform="matrix(1 0 0 1 -0.08 6.215)" id="Layer_1">
<rect style="stroke: none; stroke-width: 1; stroke-dasharray: none; stroke-linecap: butt; stroke-dashoffset: 0; stroke-linejoin: miter; stroke-miterlimit: 4; is-custom-font: none; font-file-url: none; fill: rgb(255,255,255); fill-rule: nonzero; opacity: 0.58;" x="-19.01" y="-0.975" rx="0.17" ry="0.17" width="38.02" height="1.95"/>
</g>
		<g transform="matrix(1 0 0 1 -11.94 2.62)" id="Layer_1">
<rect style="stroke: none; stroke-width: 1; stroke-dasharray: none; stroke-linecap: butt; stroke-dashoffset: 0; stroke-linejoin: miter; stroke-miterlimit: 4; is-custom-font: none; font-file-url: none; fill: rgb(255,255,255); fill-rule: nonzero; opacity: 0.58;" x="-7.04" y="-0.94" rx="0.17" ry="0.17" width="14.08" height="1.88"/>
</g>
		<g transform="matrix(1 0 0 1 -0.08 9.89)" id="Layer_1">
<rect style="stroke: none; stroke-width: 1; stroke-dasharray: none; stroke-linecap: butt; stroke-dashoffset: 0; stroke-linejoin: miter; stroke-miterlimit: 4; is-custom-font: none; font-file-url: none; fill: rgb(255,255,255); fill-rule: nonzero; opacity: 0.58;" x="-19.01" y="-0.97" rx="0.12" ry="0.12" width="38.02" height="1.94"/>
</g>
		<g transform="matrix(1 0 0 1 -0.08 13.46)" id="Layer_1">
<rect style="stroke: none; stroke-width: 1; stroke-dasharray: none; stroke-linecap: butt; stroke-dashoffset: 0; stroke-linejoin: miter; stroke-miterlimit: 4; is-custom-font: none; font-file-url: none; fill: rgb(255,255,255); fill-rule: nonzero; opacity: 0.58;" x="-19.01" y="-0.9" rx="0.12" ry="0.12" width="38.02" height="1.8"/>
</g>
		<g transform="matrix(1 0 0 1 0.19 22.585)" id="Layer_1">
<rect style="stroke: none; stroke-width: 1; stroke-dasharray: none; stroke-linecap: butt; stroke-dashoffset: 0; stroke-linejoin: miter; stroke-miterlimit: 4; is-custom-font: none; font-file-url: none; fill: rgb(255,255,255); fill-rule: nonzero; opacity: 0.58;" x="-19.01" y="-0.975" rx="0.17" ry="0.17" width="38.02" height="1.95"/>
</g>
		<g transform="matrix(1 0 0 1 -11.67 18.99)" id="Layer_1">
<rect style="stroke: none; stroke-width: 1; stroke-dasharray: none; stroke-linecap: butt; stroke-dashoffset: 0; stroke-linejoin: miter; stroke-miterlimit: 4; is-custom-font: none; font-file-url: none; fill: rgb(255,255,255); fill-rule: nonzero; opacity: 0.58;" x="-7.04" y="-0.94" rx="0.17" ry="0.17" width="14.08" height="1.88"/>
</g>
		<g transform="matrix(1 0 0 1 0.19 26.26)" id="Layer_1">
<rect style="stroke: none; stroke-width: 1; stroke-dasharray: none; stroke-linecap: butt; stroke-dashoffset: 0; stroke-linejoin: miter; stroke-miterlimit: 4; is-custom-font: none; font-file-url: none; fill: rgb(255,255,255); fill-rule: nonzero; opacity: 0.58;" x="-19.01" y="-0.97" rx="0.12" ry="0.12" width="38.02" height="1.94"/>
</g>
		<g transform="matrix(1 0 0 1 0.19 29.84)" id="Layer_1">
<rect style="stroke: none; stroke-width: 1; stroke-dasharray: none; stroke-linecap: butt; stroke-dashoffset: 0; stroke-linejoin: miter; stroke-miterlimit: 4; is-custom-font: none; font-file-url: none; fill: rgb(255,255,255); fill-rule: nonzero; opacity: 0.58;" x="-19.01" y="-0.9" rx="0.12" ry="0.12" width="38.02" height="1.8"/>
</g>
		<g transform="matrix(1 0 0 1 0.003 -36.4732)" id="Layer_1">
<linearGradient id="SVGID_1649" gradientUnits="userSpaceOnUse" gradientTransform="matrix(1 0 0 1 0 0)" x1="56.53" y1="4.77" x2="37.3" y2="30.07">
<stop offset="0%" style="stop-color:rgb(9,0,93);stop-opacity: 1"/>
<stop offset="100%" style="stop-color:rgb(26,15,145);stop-opacity: 1"/>
</linearGradient>
<path style="stroke: none; stroke-width: 1; stroke-dasharray: none; stroke-linecap: butt; stroke-dashoffset: 0; stroke-linejoin: miter; stroke-miterlimit: 4; is-custom-font: none; font-file-url: none; fill: url(#SVGID_1649); fill-rule: nonzero; opacity: 1;" transform=" translate(-50.003, -13.5267)" d="m 51.87 11.01 c -1.51 -1.05 -2.82 -1.03 -3.75 -0.76 c -0.84 0.25 -1.39 1.06 -1.31 1.94 l 0.4 4.35 l 4.74 0.42 s 2.88 -3.89 -0.09 -5.95 Z m -2.09 3.51 c -0.65 0 -1.18 -0.53 -1.18 -1.18 s 0.53 -1.18 1.18 -1.18 s 1.18 0.53 1.18 1.18 s -0.53 1.18 -1.18 1.18 Z" stroke-linecap="round"/>
</g>
		<g transform="matrix(1 0 0 1 -1.0683 -37.2832)" id="Layer_1">
<path style="stroke: none; stroke-width: 1; stroke-dasharray: none; stroke-linecap: butt; stroke-dashoffset: 0; stroke-linejoin: miter; stroke-miterlimit: 4; is-custom-font: none; font-file-url: none; fill: rgb(145,179,250); fill-rule: nonzero; opacity: 1;" transform=" translate(-48.9318, -12.7168)" d="m 47.68 14.71 c -0.06 0 -0.11 -0.04 -0.11 -0.1 l -0.06 -0.69 c 0 -0.06 0.04 -0.12 0.1 -0.12 c 0.06 0 0.12 0.04 0.12 0.1 l 0.06 0.69 c 0 0.06 -0.04 0.12 -0.1 0.12 c 0 0 0 0 -0.01 0 Z m -0.12 -1.36 c -0.06 0 -0.11 -0.04 -0.11 -0.1 l -0.05 -0.53 c -0.08 -0.83 0.45 -1.61 1.25 -1.85 c 0.57 -0.17 1.15 -0.19 1.73 -0.07 c 0.06 0.01 0.1 0.07 0.09 0.14 c -0.01 0.06 -0.07 0.1 -0.14 0.09 c -0.55 -0.11 -1.09 -0.09 -1.62 0.07 c -0.7 0.21 -1.15 0.88 -1.08 1.61 l 0.05 0.53 c 0 0.06 -0.04 0.12 -0.1 0.12 c 0 0 0 0 -0.01 0 Z" stroke-linecap="round"/>
</g>
		<g transform="matrix(1 0 0 1 -0.345 -32.2406)" id="Layer_1">
<linearGradient id="SVGID_1650" gradientUnits="userSpaceOnUse" gradientTransform="matrix(1 0 0 1 0 0)" x1="58.64" y1="6.37" x2="39.41" y2="31.67">
<stop offset="0%" style="stop-color:rgb(9,0,93);stop-opacity: 1"/>
<stop offset="100%" style="stop-color:rgb(26,15,145);stop-opacity: 1"/>
</linearGradient>
<path style="stroke: none; stroke-width: 1; stroke-dasharray: none; stroke-linecap: butt; stroke-dashoffset: 0; stroke-linejoin: miter; stroke-miterlimit: 4; is-custom-font: none; font-file-url: none; fill: url(#SVGID_1650); fill-rule: nonzero; opacity: 1;" transform=" translate(-49.655, -17.7595)" d="m 40.73 19.36 v -2.19 c 0 -0.76 0.63 -1.36 1.38 -1.33 l 15.09 0.52 c 0.67 0.02 1.21 0.55 1.25 1.22 l 0.13 2.1 l -17.84 -0.32 Z" stroke-linecap="round"/>
</g>
		<g transform="matrix(1 0 0 1 -3.965 -33.45)" id="Layer_1">
<path style="stroke: none; stroke-width: 1; stroke-dasharray: none; stroke-linecap: butt; stroke-dashoffset: 0; stroke-linejoin: miter; stroke-miterlimit: 4; is-custom-font: none; font-file-url: none; fill: rgb(145,179,250); fill-rule: nonzero; opacity: 1;" transform=" translate(-46.035, -16.55)" d="m 46.36 16.66 h -0.65 c -0.06 0 -0.11 -0.05 -0.11 -0.11 s 0.05 -0.11 0.11 -0.11 h 0.65 c 0.06 0 0.11 0.05 0.11 0.11 s -0.05 0.11 -0.11 0.11 Z" stroke-linecap="round"/>
</g>
		<g transform="matrix(1 0 0 1 -6.69 -32.45)" id="Layer_1">
<path style="stroke: none; stroke-width: 1; stroke-dasharray: none; stroke-linecap: butt; stroke-dashoffset: 0; stroke-linejoin: miter; stroke-miterlimit: 4; is-custom-font: none; font-file-url: none; fill: rgb(145,179,250); fill-rule: nonzero; opacity: 1;" transform=" translate(-43.31, -17.55)" d="m 41.55 18.67 c -0.06 0 -0.11 -0.05 -0.11 -0.11 v -0.89 c 0 -0.68 0.56 -1.24 1.24 -1.24 h 2.39 c 0.06 0 0.11 0.05 0.11 0.11 s -0.05 0.11 -0.11 0.11 h -2.39 c -0.56 0 -1.01 0.45 -1.01 1.01 v 0.89 c 0 0.06 -0.05 0.11 -0.11 0.11 Z" stroke-linecap="round"/>
</g>
		<g transform="matrix(1 0 0 1 -0.5728 -29.585)" id="Layer_1">
<linearGradient id="SVGID_1651" gradientUnits="userSpaceOnUse" gradientTransform="matrix(1 0 0 1 0 0)" x1="56.22" y1="7.92" x2="42.94" y2="32.31">
<stop offset="0%" style="stop-color:rgb(79,82,255);stop-opacity: 1"/>
<stop offset="100%" style="stop-color:rgb(64,66,226);stop-opacity: 1"/>
</linearGradient>
<path style="stroke: none; stroke-width: 1; stroke-dasharray: none; stroke-linecap: butt; stroke-dashoffset: 0; stroke-linejoin: miter; stroke-miterlimit: 4; is-custom-font: none; font-file-url: none; fill: url(#SVGID_1651); fill-rule: nonzero; opacity: 1;" transform=" translate(-49.4272, -20.415)" d="m 34.58 19.91 c 0.04 -0.76 0.66 -1.35 1.42 -1.35 h 26.38 c 0.95 0 1.76 0.68 1.92 1.62 l 0.02 0.13 c 0.18 1.02 -0.61 1.96 -1.65 1.96 h -27.07 c -0.62 0 -1.12 -0.52 -1.09 -1.14 l 0.06 -1.21 Z" stroke-linecap="round"/>
</g>
		<g transform="matrix(1 0 0 1 8.4012 -2.3461)" id="Layer_1">
<linearGradient id="SVGID_1652" gradientUnits="userSpaceOnUse" gradientTransform="matrix(1 0 0 1 0 0)" x1="89.04" y1="-3.49" x2="78.05" y2="14.82">
<stop offset="0%" style="stop-color:rgb(255,146,142);stop-opacity: 1"/>
<stop offset="100%" style="stop-color:rgb(254,112,98);stop-opacity: 1"/>
</linearGradient>
<path style="stroke: none; stroke-width: 1; stroke-dasharray: none; stroke-linecap: butt; stroke-dashoffset: 0; stroke-linejoin: miter; stroke-miterlimit: 4; is-custom-font: none; font-file-url: none; fill: url(#SVGID_1652); fill-rule: nonzero; opacity: 1;" transform=" translate(-58.4012, -47.6538)" d="m 68.57 56.69 h -21.15 c -0.85 0 -1.55 -0.69 -1.55 -1.55 v -13.77 c 0 -0.82 0.64 -1.5 1.46 -1.54 l 21.97 -1.22 c 0.92 -0.05 1.68 0.71 1.63 1.63 l -0.82 15 c -0.04 0.82 -0.72 1.46 -1.54 1.46 Z" stroke-linecap="round"/>
</g>
		<g transform="matrix(1 0 0 1 8.195 -6.2158)" id="Layer_1">
<linearGradient id="SVGID_1653" gradientUnits="userSpaceOnUse" gradientTransform="matrix(1 0 0 1 0 0)" x1="66.24" y1="28.07" x2="42.67" y2="61.57">
<stop offset="0%" style="stop-color:rgb(255,146,142);stop-opacity: 1"/>
<stop offset="100%" style="stop-color:rgb(254,112,98);stop-opacity: 1"/>
</linearGradient>
<path style="stroke: none; stroke-width: 1; stroke-dasharray: none; stroke-linecap: butt; stroke-dashoffset: 0; stroke-linejoin: miter; stroke-miterlimit: 4; is-custom-font: none; font-file-url: none; fill: url(#SVGID_1653); fill-rule: nonzero; opacity: 1;" transform=" translate(-58.195, -43.7842)" d="m 58.48 48.38 l 11.56 -9.63 c -0.23 -0.11 -0.48 -0.16 -0.75 -0.15 l -21.97 1.22 c -0.38 0.02 -0.72 0.18 -0.97 0.42 l 8.65 8.05 c 0.94 0.87 2.48 0.91 3.48 0.09 Z" stroke-linecap="round"/>
</g>
		<g transform="matrix(1 0 0 1 6.0069 -4.0488)" id="Layer_1">
<path style="stroke: none; stroke-width: 1; stroke-dasharray: none; stroke-linecap: butt; stroke-dashoffset: 0; stroke-linejoin: miter; stroke-miterlimit: 4; is-custom-font: none; font-file-url: none; fill: rgb(255,255,255); fill-rule: nonzero; opacity: 0.5;" transform=" translate(-56.0069, -45.9511)" d="m 56.88 47.9 c -0.57 0 -1.15 -0.21 -1.61 -0.61 l -3.26 -2.88 c -0.1 -0.08 -0.1 -0.23 -0.02 -0.33 c 0.08 -0.1 0.23 -0.1 0.33 -0.02 l 3.26 2.88 c 0.69 0.61 1.7 0.66 2.45 0.12 l 1.69 -1.21 c 0.1 -0.07 0.25 -0.05 0.32 0.05 c 0.07 0.1 0.05 0.25 -0.05 0.32 l -1.69 1.21 c -0.43 0.31 -0.92 0.46 -1.42 0.46 Z" stroke-linecap="round"/>
</g>
		<g transform="matrix(1 0 0 1 0.735 -7.0288)" id="Layer_1">
<path style="stroke: none; stroke-width: 1; stroke-dasharray: none; stroke-linecap: butt; stroke-dashoffset: 0; stroke-linejoin: miter; stroke-miterlimit: 4; is-custom-font: none; font-file-url: none; fill: rgb(255,255,255); fill-rule: nonzero; opacity: 0.5;" transform=" translate(-50.735, -42.9711)" d="m 50.95 43.4 c -0.05 0 -0.11 -0.02 -0.15 -0.06 l -0.44 -0.39 c -0.1 -0.08 -0.1 -0.23 -0.02 -0.33 c 0.08 -0.1 0.23 -0.1 0.33 -0.02 l 0.44 0.39 c 0.1 0.08 0.1 0.23 0.02 0.33 c -0.05 0.05 -0.11 0.08 -0.17 0.08 Z" stroke-linecap="round"/>
</g>
		<g transform="matrix(1 0 0 1 37.9547 38.715)" id="Layer_1">
<linearGradient id="SVGID_1654" gradientUnits="userSpaceOnUse" gradientTransform="matrix(-1 0 0 1 4447.4 0)" x1="4357.87" y1="88.71" x2="4361.03" y2="88.71">
<stop offset="0%" style="stop-color:rgb(9,0,93);stop-opacity: 1"/>
<stop offset="100%" style="stop-color:rgb(26,15,145);stop-opacity: 1"/>
</linearGradient>
<path style="stroke: none; stroke-width: 1; stroke-dasharray: none; stroke-linecap: butt; stroke-dashoffset: 0; stroke-linejoin: miter; stroke-miterlimit: 4; is-custom-font: none; font-file-url: none; fill: url(#SVGID_1654); fill-rule: nonzero; opacity: 1;" transform=" translate(-87.9548, -88.715)" d="m 89.09 87.6 s 0.35 0.55 0.44 2.1 c 0 0.14 -0.11 0.27 -0.25 0.27 h -2.74 c -0.11 0 -0.19 -0.11 -0.15 -0.21 c 0.16 -0.48 0.65 -1.63 1.73 -2.3 l 0.98 0.14 Z" stroke-linecap="round"/>
</g>
		<g transform="matrix(1 0 0 1 38.57 37.2395)" id="Layer_1">
<linearGradient id="SVGID_1655" gradientUnits="userSpaceOnUse" gradientTransform="matrix(-1 0 0 1 4447.4 0)" x1="4358.19" y1="87.24" x2="4359.47" y2="87.24">
<stop offset="0%" style="stop-color:rgb(254,187,186);stop-opacity: 1"/>
<stop offset="100%" style="stop-color:rgb(255,146,142);stop-opacity: 1"/>
</linearGradient>
<path style="stroke: none; stroke-width: 1; stroke-dasharray: none; stroke-linecap: butt; stroke-dashoffset: 0; stroke-linejoin: miter; stroke-miterlimit: 4; is-custom-font: none; font-file-url: none; fill: url(#SVGID_1655); fill-rule: nonzero; opacity: 1;" transform=" translate(-88.57, -87.2395)" d="m 89.21 86.55 l -0.16 1.3 c -0.01 0.11 -0.1 0.2 -0.21 0.21 c -0.15 0.02 -0.37 0.03 -0.58 0 c -0.19 -0.03 -0.33 -0.2 -0.33 -0.4 v -1.26 l 1.28 0.14 Z" stroke-linecap="round"/>
</g>
		<g transform="matrix(1 0 0 1 30.3325 38.645)" id="Layer_1">
<linearGradient id="SVGID_1656" gradientUnits="userSpaceOnUse" gradientTransform="matrix(-1 0 0 1 4447.4 0)" x1="4364.58" y1="88.66" x2="4369.53" y2="88.66">
<stop offset="0%" style="stop-color:rgb(9,0,93);stop-opacity: 1"/>
<stop offset="100%" style="stop-color:rgb(26,15,145);stop-opacity: 1"/>
</linearGradient>
<path style="stroke: none; stroke-width: 1; stroke-dasharray: none; stroke-linecap: butt; stroke-dashoffset: 0; stroke-linejoin: miter; stroke-miterlimit: 4; is-custom-font: none; font-file-url: none; fill: url(#SVGID_1656); fill-rule: nonzero; opacity: 1;" transform=" translate(-80.3325, -88.645)" d="m 82.3 87.45 s 0.52 0.82 0.51 1.93 c 0 0.26 -0.22 0.47 -0.49 0.47 h -4.26 c -0.2 0 -0.28 -0.26 -0.12 -0.37 c 0.81 -0.57 2.39 -1.62 3.53 -2.04 h 0.81 Z" stroke-linecap="round"/>
</g>
		<g transform="matrix(1 0 0 1 32.1065 36.6739)" id="Layer_1">
<linearGradient id="SVGID_1657" gradientUnits="userSpaceOnUse" gradientTransform="matrix(-1 0 0 1 4447.4 0)" x1="4364.65" y1="86.68" x2="4365.93" y2="86.68">
<stop offset="0%" style="stop-color:rgb(254,187,186);stop-opacity: 1"/>
<stop offset="100%" style="stop-color:rgb(255,146,142);stop-opacity: 1"/>
</linearGradient>
<path style="stroke: none; stroke-width: 1; stroke-dasharray: none; stroke-linecap: butt; stroke-dashoffset: 0; stroke-linejoin: miter; stroke-miterlimit: 4; is-custom-font: none; font-file-url: none; fill: url(#SVGID_1657); fill-rule: nonzero; opacity: 1;" transform=" translate(-82.1066, -86.6739)" d="m 82.74 86.05 l -0.33 1.61 c -0.04 0.18 -0.21 0.3 -0.39 0.26 c -0.11 -0.02 -0.24 -0.07 -0.37 -0.16 c -0.13 -0.08 -0.2 -0.24 -0.17 -0.39 l 0.34 -1.95 l 0.92 0.62 Z" stroke-linecap="round"/>
</g>
		<g transform="matrix(1 0 0 1 35.6736 25.3801)" id="Layer_1">
<linearGradient id="SVGID_1658" gradientUnits="userSpaceOnUse" gradientTransform="matrix(-1 0 0 1 4447.4 0)" x1="4357.4" y1="75.39" x2="4366.07" y2="75.39">
<stop offset="0%" style="stop-color:rgb(9,0,93);stop-opacity: 1"/>
<stop offset="100%" style="stop-color:rgb(26,15,145);stop-opacity: 1"/>
</linearGradient>
<path style="stroke: none; stroke-width: 1; stroke-dasharray: none; stroke-linecap: butt; stroke-dashoffset: 0; stroke-linejoin: miter; stroke-miterlimit: 4; is-custom-font: none; font-file-url: none; fill: url(#SVGID_1658); fill-rule: nonzero; opacity: 1;" transform=" translate(-85.6736, -75.3801)" d="m 88.6 63.73 s 1.15 1.01 1.37 2.23 s -0.61 21.04 -0.61 21.04 c 0 0 -1.15 0.19 -1.74 -0.17 c 0 0 -0.7 -12.86 -1.24 -15.84 c 0 0 -2.8 13.33 -3.58 15.73 c 0 0 -1.11 0.13 -1.46 -0.08 c 0 0 0.73 -17.27 1.66 -20.35 l 5.61 -2.58 Z" stroke-linecap="round"/>
</g>
		<g transform="matrix(1 0 0 1 37.174 19.1892)" id="Layer_1">
<path style="stroke: none; stroke-width: 1; stroke-dasharray: none; stroke-linecap: butt; stroke-dashoffset: 0; stroke-linejoin: miter; stroke-miterlimit: 4; is-custom-font: none; font-file-url: none; fill: rgb(102,102,148); fill-rule: nonzero; opacity: 1;" transform=" translate(-87.1739, -69.1892)" d="m 86.4 70.53 s -0.01 0 -0.02 0 c -0.04 -0.01 -0.06 -0.05 -0.05 -0.09 l 0.49 -1.87 s 0.02 -0.03 0.03 -0.04 l 1.06 -0.68 s 0.08 -0.01 0.1 0.02 c 0.02 0.03 0.01 0.08 -0.02 0.1 l -1.03 0.66 l -0.48 1.85 s -0.04 0.05 -0.07 0.05 Z" stroke-linecap="round"/>
</g>
		<g transform="matrix(1 0 0 1 28.115 4.16)" id="Layer_1">
<linearGradient id="SVGID_1659" gradientUnits="userSpaceOnUse" gradientTransform="matrix(1 0 0 1 0 0)" x1="81.97" y1="43.42" x2="71.18" y2="71.18">
<stop offset="0%" style="stop-color:rgb(225,71,61);stop-opacity: 1"/>
<stop offset="100%" style="stop-color:rgb(233,96,90);stop-opacity: 1"/>
</linearGradient>
<path style="stroke: none; stroke-width: 1; stroke-dasharray: none; stroke-linecap: butt; stroke-dashoffset: 0; stroke-linejoin: miter; stroke-miterlimit: 4; is-custom-font: none; font-file-url: none; fill: url(#SVGID_1659); fill-rule: nonzero; opacity: 1;" transform=" translate(-78.115, -54.16)" d="m 77.25 52.27 c 4.84 -0.4 6.11 0.6 6.11 0.6 l -2.33 3.67 s -4.76 -0.09 -8.16 -2.72 c 0.64 -0.69 1.08 -1.45 1.36 -2.04 c 0.88 0.37 1.89 0.58 3.02 0.49 Z" stroke-linecap="round"/>
</g>
		<g transform="matrix(1 0 0 1 21.8648 -0.5728)" id="Layer_1">
<linearGradient id="SVGID_1660" gradientUnits="userSpaceOnUse" gradientTransform="matrix(-1 0 0 1 4447.4 0)" x1="4373.17" y1="49.43" x2="4377.89" y2="49.43">
<stop offset="0%" style="stop-color:rgb(254,187,186);stop-opacity: 1"/>
<stop offset="100%" style="stop-color:rgb(255,146,142);stop-opacity: 1"/>
</linearGradient>
<path style="stroke: none; stroke-width: 1; stroke-dasharray: none; stroke-linecap: butt; stroke-dashoffset: 0; stroke-linejoin: miter; stroke-miterlimit: 4; is-custom-font: none; font-file-url: none; fill: url(#SVGID_1660); fill-rule: nonzero; opacity: 1;" transform=" translate(-71.8648, -49.4272)" d="m 69.67 45.17 c 0 -0.16 0.22 -0.2 0.28 -0.06 l 0.62 1.32 c 0.12 0.25 0.16 0.54 0.11 0.82 l -0.22 0.77 c -0.06 0.37 0.03 0.76 0.27 1.05 c 0.57 0.71 1.78 2.01 3.5 2.72 c -0.28 0.59 -0.73 1.35 -1.36 2.04 c -1.25 -0.96 -2.32 -2.27 -2.91 -4.03 c -0.28 -0.09 -0.47 -0.35 -0.46 -0.64 l 0.17 -3.98 Z" stroke-linecap="round"/>
</g>
		<g transform="matrix(1 0 0 1 30.094 8.9932)" id="Layer_1">
<linearGradient id="SVGID_1661" gradientUnits="userSpaceOnUse" gradientTransform="matrix(1 0 0 1 0 0)" x1="98.01" y1="33.75" x2="91.46" y2="43.96">
<stop offset="0%" style="stop-color:rgb(255,146,142);stop-opacity: 1"/>
<stop offset="100%" style="stop-color:rgb(254,112,98);stop-opacity: 1"/>
</linearGradient>
<path style="stroke: none; stroke-width: 1; stroke-dasharray: none; stroke-linecap: butt; stroke-dashoffset: 0; stroke-linejoin: miter; stroke-miterlimit: 4; is-custom-font: none; font-file-url: none; fill: url(#SVGID_1661); fill-rule: nonzero; opacity: 1;" transform=" translate(-80.094, -58.9932)" d="m 75.66 54.4 c 1.7 -1.84 4.95 -2.67 6.83 -3.01 c 0.82 -0.15 1.63 0.31 1.93 1.09 c 0.85 2.27 3.15 8.19 3.59 9.2 c 0.37 0.83 0.75 1.65 0.99 2.16 c 0.14 0.3 0.02 0.67 -0.29 0.81 c -1.58 0.76 -4.43 1.62 -5.58 1.96 c -0.25 0.07 -0.51 -0.12 -0.51 -0.38 c 0 -0.22 -0.06 -0.44 -0.18 -0.64 l -4.37 -7.28 c -2.72 3.02 -5.11 3.29 -6.94 2.63 c 0.31 -0.95 0.51 -1.91 0.61 -2.86 c 2.71 -0.46 3.91 -3.7 3.91 -3.7 Z" stroke-linecap="round"/>
</g>
		<g transform="matrix(1 0 0 1 19.51 8.96)" id="Layer_1">
<linearGradient id="SVGID_1662" gradientUnits="userSpaceOnUse" gradientTransform="matrix(-1 0 0 1 4447.4 0)" x1="4383.87" y1="50.46" x2="4373.66" y2="63.17">
<stop offset="0%" style="stop-color:rgb(254,187,186);stop-opacity: 1"/>
<stop offset="100%" style="stop-color:rgb(255,146,142);stop-opacity: 1"/>
</linearGradient>
<path style="stroke: none; stroke-width: 1; stroke-dasharray: none; stroke-linecap: butt; stroke-dashoffset: 0; stroke-linejoin: miter; stroke-miterlimit: 4; is-custom-font: none; font-file-url: none; fill: url(#SVGID_1662); fill-rule: nonzero; opacity: 1;" transform=" translate(-69.51, -58.96)" d="m 67.28 57.6 l 0.49 -0.65 c 1.58 1.09 2.9 1.34 3.98 1.16 c -0.1 0.96 -0.3 1.91 -0.61 2.86 c -2.41 -0.87 -3.87 -3.37 -3.87 -3.37 Z" stroke-linecap="round"/>
</g>
		<g transform="matrix(1 0 0 1 15.1159 6.97)" id="Layer_1">
<linearGradient id="SVGID_1663" gradientUnits="userSpaceOnUse" gradientTransform="matrix(-1 0 0 1 4447.4 0)" x1="4385.81" y1="52.01" x2="4375.59" y2="64.72">
<stop offset="0%" style="stop-color:rgb(254,187,186);stop-opacity: 1"/>
<stop offset="100%" style="stop-color:rgb(255,146,142);stop-opacity: 1"/>
</linearGradient>
<path style="stroke: none; stroke-width: 1; stroke-dasharray: none; stroke-linecap: butt; stroke-dashoffset: 0; stroke-linejoin: miter; stroke-miterlimit: 4; is-custom-font: none; font-file-url: none; fill: url(#SVGID_1663); fill-rule: nonzero; opacity: 1;" transform=" translate(-65.1159, -56.97)" d="m 67.62 57.61 l -2.75 0.11 l -2.53 -1.41 c 0.36 -0.23 2.42 0.24 2.42 0.24 c 0 0 2.15 -0.33 2.73 -0.33 c 0.48 0 0.41 0.69 0.38 0.93 c 0 0.05 -0.01 0.08 -0.01 0.08 l -0.23 0.39 Z" stroke-linecap="round"/>
</g>
		<g transform="matrix(1 0 0 1 29.485 0.3237)" id="Layer_1">
<linearGradient id="SVGID_1664" gradientUnits="userSpaceOnUse" gradientTransform="matrix(-1 0 0 1 4447.4 0)" x1="4372.38" y1="42.78" x2="4362.48" y2="60.96">
<stop offset="0%" style="stop-color:rgb(254,187,186);stop-opacity: 1"/>
<stop offset="100%" style="stop-color:rgb(255,146,142);stop-opacity: 1"/>
</linearGradient>
<path style="stroke: none; stroke-width: 1; stroke-dasharray: none; stroke-linecap: butt; stroke-dashoffset: 0; stroke-linejoin: miter; stroke-miterlimit: 4; is-custom-font: none; font-file-url: none; fill: url(#SVGID_1664); fill-rule: nonzero; opacity: 1;" transform=" translate(-79.485, -50.3237)" d="m 79.9 48.03 l 1.45 3.54 s -1.67 1.15 -3.01 1.04 l -0.72 -3.18 l 2.28 -1.4 Z" stroke-linecap="round"/>
</g>
		<g transform="matrix(1 0 0 1 28.195 -2.3643)" id="Layer_1">
<linearGradient id="SVGID_1665" gradientUnits="userSpaceOnUse" gradientTransform="matrix(-0.8169 -0.5767 -0.5767 0.8169 5828.27 -3014.29)" x1="2932.71" y1="5816.04" x2="2928.34" y2="5821.83">
<stop offset="0%" style="stop-color:rgb(254,187,186);stop-opacity: 1"/>
<stop offset="100%" style="stop-color:rgb(255,146,142);stop-opacity: 1"/>
</linearGradient>
<path style="stroke: none; stroke-width: 1; stroke-dasharray: none; stroke-linecap: butt; stroke-dashoffset: 0; stroke-linejoin: miter; stroke-miterlimit: 4; is-custom-font: none; font-file-url: none; fill: url(#SVGID_1665); fill-rule: nonzero; opacity: 1;" transform=" translate(-78.195, -47.6358)" d="m 77.45 45.61 s -1.05 3.72 -1.05 3.72 l 2.11 0.54 l 1.48 -3.34 s -1.98 -1.71 -2.54 -0.92 Z" stroke-linecap="round"/>
</g>
		<g transform="matrix(1 0 0 1 28.5706 -2.5879)" id="Layer_1">
<linearGradient id="SVGID_1666" gradientUnits="userSpaceOnUse" gradientTransform="matrix(1 0 0 1 0 0)" x1="77.2" y1="45.69" x2="82.51" y2="55.56">
<stop offset="0%" style="stop-color:rgb(9,0,93);stop-opacity: 1"/>
<stop offset="100%" style="stop-color:rgb(26,15,145);stop-opacity: 1"/>
</linearGradient>
<path style="stroke: none; stroke-width: 1; stroke-dasharray: none; stroke-linecap: butt; stroke-dashoffset: 0; stroke-linejoin: miter; stroke-miterlimit: 4; is-custom-font: none; font-file-url: none; fill: url(#SVGID_1666); fill-rule: nonzero; opacity: 1;" transform=" translate(-78.5707, -47.4121)" d="m 79.2 47.04 l -0.64 1.82 s -0.02 0.04 -0.03 0.07 c -0.09 0.12 -0.42 0.53 -0.81 0.16 c -0.36 -0.33 -0.69 -0.63 -0.99 -0.68 c -0.14 -0.02 -0.27 0.06 -0.31 0.19 c -0.09 0.33 -0.29 1.09 -0.35 1.77 c -0.01 0.14 0.08 0.26 0.22 0.29 c 0.41 0.08 1.29 0.22 2.02 0.17 c 0.1 0 0.19 -0.07 0.23 -0.16 c 0.2 -0.44 0.82 -1.77 1.05 -2.12 c 0.22 -0.32 0.74 -0.31 0.96 -0.29 c 0.07 0 0.14 -0.02 0.2 -0.06 c 0.19 -0.17 0.56 -0.6 0.04 -1.12 c -0.11 -0.11 -0.11 -0.28 0 -0.39 c 0.22 -0.21 0.46 -0.58 0.09 -1.04 c -0.38 -0.47 -0.87 -0.39 -1.18 -0.28 c -0.12 0.04 -0.26 0 -0.32 -0.12 c -0.04 -0.06 -0.1 -0.11 -0.22 -0.1 c -0.16 0.01 -0.29 -0.12 -0.28 -0.27 c 0 -0.3 -0.1 -0.68 -0.62 -0.84 c -0.92 -0.29 -1.5 0.6 -1.55 1.27 c -0.06 0.66 0.96 0.92 1.56 0.87 c 0.45 -0.03 0.79 0.42 0.93 0.63 c 0.04 0.07 0.05 0.15 0.02 0.23 Z" stroke-linecap="round"/>
</g>
		<g transform="matrix(1 0 0 1 29.9705 -1.2942)" id="Layer_1">
<linearGradient id="SVGID_1667" gradientUnits="userSpaceOnUse" gradientTransform="matrix(-0.8169 -0.5767 -0.5767 0.8169 5828.27 -3014.29)" x1="2926.31" y1="5820.62" x2="2929.81" y2="5817.02">
<stop offset="0%" style="stop-color:rgb(254,187,186);stop-opacity: 1"/>
<stop offset="100%" style="stop-color:rgb(255,146,142);stop-opacity: 1"/>
</linearGradient>
<path style="stroke: none; stroke-width: 1; stroke-dasharray: none; stroke-linecap: butt; stroke-dashoffset: 0; stroke-linejoin: miter; stroke-miterlimit: 4; is-custom-font: none; font-file-url: none; fill: url(#SVGID_1667); fill-rule: nonzero; opacity: 1;" transform=" translate(-79.9705, -48.7058)" d="m 79.32 49.21 s 0.15 -1.15 0.63 -1.21 c 0.48 -0.06 0.95 0.34 0.47 0.99 c -0.59 0.81 -1.1 0.22 -1.1 0.22 Z" stroke-linecap="round"/>
</g>
		<g transform="matrix(1 0 0 1 20.9747 -18.2179)" id="Layer_1">
<path style="stroke: none; stroke-width: 1; stroke-dasharray: none; stroke-linecap: butt; stroke-dashoffset: 0; stroke-linejoin: miter; stroke-miterlimit: 4; is-custom-font: none; font-file-url: none; fill: rgb(125,151,244); fill-rule: nonzero; opacity: 0.3;" transform=" translate(-70.9747, -31.7821)" d="m 64.61 24.41 c 0.15 0.04 0.24 0.2 0.19 0.35 c -0.09 0.29 -0.16 0.59 -0.22 0.9 c -0.03 0.15 -0.18 0.25 -0.33 0.22 c 0 0 0 0 0 0 c -0.15 -0.03 -0.25 -0.18 -0.22 -0.34 c 0.06 -0.32 0.14 -0.63 0.23 -0.94 c 0.04 -0.14 0.18 -0.23 0.32 -0.2 c 0 0 0.02 0 0.03 0 Z m -0.22 2.73 c -0.02 0.31 -0.03 0.62 -0.02 0.92 c 0 0.16 -0.12 0.29 -0.28 0.29 c -0.16 0 -0.29 -0.12 -0.29 -0.28 c 0 -0.32 0 -0.65 0.02 -0.97 c 0 -0.16 0.15 -0.28 0.3 -0.27 c 0.01 0 0.02 0 0.03 0 c 0.14 0.03 0.24 0.15 0.23 0.3 Z m 0.12 2.41 c 0.05 0.3 0.11 0.61 0.19 0.9 c 0.04 0.15 -0.05 0.31 -0.21 0.35 c -0.15 0.04 -0.31 -0.05 -0.35 -0.21 c -0.08 -0.31 -0.15 -0.63 -0.2 -0.95 c -0.03 -0.16 0.08 -0.3 0.24 -0.33 c 0.03 0 0.07 0 0.1 0 c 0.12 0.02 0.21 0.11 0.23 0.23 Z m 0.65 2.33 c 0.12 0.28 0.25 0.57 0.38 0.84 c 0.07 0.14 0.02 0.31 -0.12 0.38 c -0.14 0.07 -0.31 0.02 -0.38 -0.12 c -0.15 -0.29 -0.28 -0.58 -0.4 -0.88 c -0.06 -0.15 0.01 -0.31 0.16 -0.37 c 0.05 -0.02 0.11 -0.03 0.16 -0.02 c 0.09 0.02 0.17 0.08 0.21 0.17 Z m 1.16 2.12 c 0.18 0.25 0.36 0.5 0.56 0.73 c 0.1 0.12 0.08 0.3 -0.04 0.4 c -0.12 0.1 -0.3 0.08 -0.4 -0.04 c -0.21 -0.25 -0.41 -0.51 -0.59 -0.77 c -0.09 -0.13 -0.06 -0.31 0.07 -0.4 c 0.06 -0.05 0.14 -0.06 0.21 -0.05 c 0.07 0.01 0.14 0.05 0.18 0.12 Z m 1.6 1.81 c 0.23 0.21 0.47 0.4 0.71 0.59 c 0.12 0.1 0.15 0.27 0.05 0.4 c -0.1 0.13 -0.27 0.15 -0.4 0.05 c -0.26 -0.2 -0.51 -0.4 -0.75 -0.62 c -0.12 -0.11 -0.13 -0.29 -0.02 -0.4 c 0.07 -0.08 0.17 -0.11 0.26 -0.09 c 0.05 0 0.1 0.03 0.14 0.07 Z m 10.22 2.68 c 0.04 0.15 -0.05 0.31 -0.21 0.35 c -0.31 0.08 -0.63 0.14 -0.95 0.2 c -0.16 0.03 -0.3 -0.08 -0.33 -0.24 c -0.03 -0.16 0.08 -0.3 0.24 -0.33 c 0.3 -0.05 0.61 -0.11 0.9 -0.19 c 0.04 -0.01 0.08 -0.01 0.12 0 c 0.11 0.02 0.2 0.1 0.23 0.21 Z m -8.27 -1.27 c 0.27 0.15 0.54 0.29 0.82 0.42 c 0.14 0.07 0.21 0.23 0.14 0.38 c -0.07 0.14 -0.23 0.21 -0.38 0.14 c -0.29 -0.13 -0.58 -0.28 -0.87 -0.44 c -0.14 -0.08 -0.19 -0.25 -0.11 -0.39 c 0.06 -0.11 0.18 -0.16 0.3 -0.14 c 0.03 0 0.06 0.02 0.09 0.03 Z m 5.82 1.66 c 0 0.16 -0.12 0.29 -0.28 0.29 c -0.32 0 -0.65 0 -0.97 -0.02 c -0.16 0 -0.28 -0.15 -0.27 -0.3 c 0.01 -0.16 0.15 -0.28 0.3 -0.27 c 0.31 0.02 0.62 0.03 0.92 0.02 c 0.02 0 0.04 0 0.06 0 c 0.13 0.02 0.23 0.14 0.23 0.27 Z m -3.59 -0.72 c 0.29 0.09 0.59 0.16 0.89 0.22 c 0.15 0.03 0.25 0.18 0.22 0.34 c -0.03 0.15 -0.18 0.25 -0.33 0.22 c 0 0 0 0 0 0 c -0.32 -0.06 -0.63 -0.14 -0.94 -0.23 c -0.15 -0.04 -0.24 -0.2 -0.19 -0.35 c 0.04 -0.14 0.18 -0.23 0.32 -0.2 c 0 0 0.02 0 0.03 0 Z" stroke-linecap="round"/>
</g>
		<g transform="matrix(1 0 0 1 29.533 -11.9962)" id="Layer_1">
<path style="stroke: none; stroke-width: 1; stroke-dasharray: none; stroke-linecap: butt; stroke-dashoffset: 0; stroke-linejoin: miter; stroke-miterlimit: 4; is-custom-font: none; font-file-url: none; fill: rgb(125,151,244); fill-rule: nonzero; opacity: 0.3;" transform=" translate(-79.533, -38.0038)" d="m 79.8 37.63 c -0.06 -0.01 -0.11 0 -0.17 0.02 c -0.13 0.06 -0.27 0.12 -0.41 0.18 c -0.15 0.06 -0.22 0.23 -0.16 0.37 c 0.06 0.15 0.23 0.22 0.37 0.16 c 0.14 -0.06 0.29 -0.12 0.43 -0.18 c 0.14 -0.07 0.21 -0.23 0.14 -0.38 c -0.04 -0.09 -0.12 -0.15 -0.21 -0.16 Z" stroke-linecap="round"/>
</g>
		<g transform="matrix(1 0 0 1 35.5218 -18.271)" id="Layer_1">
<path style="stroke: none; stroke-width: 1; stroke-dasharray: none; stroke-linecap: butt; stroke-dashoffset: 0; stroke-linejoin: miter; stroke-miterlimit: 4; is-custom-font: none; font-file-url: none; fill: rgb(125,151,244); fill-rule: nonzero; opacity: 0.3;" transform=" translate(-85.5218, -31.729)" d="m 85.66 31.23 c -0.14 -0.02 -0.27 0.05 -0.32 0.19 c -0.05 0.14 -0.1 0.28 -0.16 0.42 c -0.06 0.15 0.01 0.31 0.16 0.37 c 0.15 0.06 0.31 -0.01 0.37 -0.16 c 0.06 -0.14 0.11 -0.29 0.16 -0.44 c 0.05 -0.15 -0.03 -0.31 -0.17 -0.36 c -0.01 0 -0.03 0 -0.04 -0.01 Z" stroke-linecap="round"/>
</g>
		<g transform="matrix(1 0 0 1 29.098 -26.6059)" id="Layer_1">
<path style="stroke: none; stroke-width: 1; stroke-dasharray: none; stroke-linecap: butt; stroke-dashoffset: 0; stroke-linejoin: miter; stroke-miterlimit: 4; is-custom-font: none; font-file-url: none; fill: rgb(125,151,244); fill-rule: nonzero; opacity: 0.3;" transform=" translate(-79.0981, -23.3941)" d="m 77.76 16.74 c 0.15 0.04 0.25 0.19 0.21 0.34 c -0.04 0.15 -0.19 0.25 -0.34 0.21 c -0.29 -0.07 -0.59 -0.12 -0.89 -0.17 c -0.15 -0.02 -0.26 -0.17 -0.24 -0.32 s 0.17 -0.26 0.32 -0.24 c 0.13 0.02 0.26 0.04 0.39 0.06 c 0.18 0.03 0.37 0.07 0.55 0.11 Z m -2.2 -0.01 c 0 0.16 -0.13 0.28 -0.29 0.28 c -0.3 0 -0.61 0 -0.91 0.03 c -0.16 0.01 -0.29 -0.11 -0.3 -0.26 c -0.01 -0.16 0.11 -0.29 0.26 -0.3 c 0.32 -0.02 0.64 -0.03 0.95 -0.03 c 0.02 0 0.03 0 0.05 0 c 0.13 0.02 0.23 0.14 0.23 0.28 Z m 3.69 0.47 c 0.3 0.11 0.59 0.24 0.88 0.38 c 0.14 0.07 0.2 0.24 0.13 0.38 c -0.07 0.14 -0.24 0.2 -0.38 0.13 c -0.27 -0.13 -0.55 -0.25 -0.83 -0.36 c -0.15 -0.06 -0.22 -0.22 -0.16 -0.37 c 0.05 -0.13 0.18 -0.2 0.32 -0.18 c 0.02 0 0.03 0 0.05 0.01 Z m -6.12 -0.29 c 0.03 0.15 -0.07 0.31 -0.22 0.34 c -0.29 0.06 -0.59 0.14 -0.88 0.23 c -0.15 0.05 -0.31 -0.04 -0.36 -0.19 c -0.05 -0.15 0.04 -0.31 0.19 -0.35 c 0.3 -0.09 0.61 -0.17 0.93 -0.24 c 0.04 0 0.07 0 0.11 0 c 0.11 0.02 0.2 0.1 0.23 0.22 Z m 8.34 1.44 c 0.26 0.18 0.52 0.37 0.77 0.56 c 0.12 0.1 0.14 0.28 0.05 0.4 c -0.1 0.12 -0.28 0.14 -0.4 0.05 c -0.24 -0.19 -0.48 -0.37 -0.73 -0.53 c -0.13 -0.09 -0.17 -0.26 -0.08 -0.39 c 0.07 -0.1 0.18 -0.14 0.29 -0.12 c 0.04 0 0.07 0.02 0.11 0.04 Z m 1.92 1.61 c 0.22 0.23 0.43 0.47 0.63 0.72 c 0.1 0.12 0.08 0.3 -0.04 0.4 c -0.12 0.1 -0.3 0.08 -0.4 -0.04 c -0.19 -0.23 -0.39 -0.46 -0.6 -0.68 c -0.11 -0.11 -0.1 -0.29 0 -0.4 c 0.07 -0.07 0.16 -0.09 0.25 -0.07 c 0.06 0.01 0.11 0.04 0.15 0.08 Z m 1.52 1.99 c 0.16 0.27 0.32 0.55 0.46 0.84 c 0.07 0.14 0.01 0.31 -0.13 0.38 c -0.14 0.07 -0.31 0.01 -0.38 -0.13 c -0.13 -0.27 -0.28 -0.54 -0.44 -0.8 c -0.08 -0.13 -0.04 -0.31 0.1 -0.39 c 0.06 -0.04 0.13 -0.05 0.2 -0.04 c 0.08 0.01 0.15 0.06 0.19 0.13 Z m 1.05 2.27 c 0.1 0.3 0.19 0.61 0.26 0.92 c 0.04 0.15 -0.06 0.31 -0.21 0.34 c -0.15 0.04 -0.31 -0.06 -0.34 -0.21 c -0.07 -0.29 -0.16 -0.59 -0.25 -0.87 c -0.05 -0.15 0.03 -0.31 0.18 -0.36 c 0.05 -0.02 0.1 -0.02 0.14 -0.01 c 0.1 0.02 0.19 0.09 0.22 0.19 Z m 0.52 2.45 c 0.03 0.32 0.05 0.64 0.06 0.95 c 0 0.16 -0.12 0.29 -0.28 0.29 c -0.16 0 -0.29 -0.12 -0.29 -0.28 c 0 -0.3 -0.02 -0.61 -0.05 -0.91 c -0.02 -0.16 0.1 -0.3 0.25 -0.31 c 0.03 0 0.05 0 0.08 0 c 0.12 0.02 0.22 0.12 0.23 0.25 Z m -0.03 2.5 c -0.03 0.23 -0.06 0.47 -0.1 0.69 c -0.02 0.08 -0.03 0.17 -0.05 0.25 c -0.03 0.15 -0.18 0.26 -0.34 0.22 c -0.15 -0.03 -0.25 -0.18 -0.22 -0.34 c 0.02 -0.08 0.03 -0.16 0.05 -0.24 c 0.04 -0.22 0.07 -0.44 0.1 -0.66 c 0.02 -0.16 0.16 -0.27 0.32 -0.25 c 0 0 0.01 0 0.02 0 c 0.15 0.03 0.25 0.16 0.23 0.31 Z" stroke-linecap="round"/>
</g>
		<g transform="matrix(1 0 0 1 20.3258 -32.1671)" id="Layer_1">
<path style="stroke: none; stroke-width: 1; stroke-dasharray: none; stroke-linecap: butt; stroke-dashoffset: 0; stroke-linejoin: miter; stroke-miterlimit: 4; is-custom-font: none; font-file-url: none; fill: rgb(125,151,244); fill-rule: nonzero; opacity: 0.3;" transform=" translate(-70.3258, -17.8329)" d="m 70.58 17.46 c -0.06 -0.01 -0.11 0 -0.17 0.02 c -0.14 0.06 -0.28 0.13 -0.42 0.2 c -0.14 0.07 -0.2 0.24 -0.12 0.38 c 0.07 0.14 0.24 0.2 0.38 0.12 c 0.13 -0.07 0.27 -0.13 0.4 -0.19 c 0.14 -0.07 0.21 -0.23 0.14 -0.38 c -0.04 -0.09 -0.12 -0.14 -0.21 -0.16 Z" stroke-linecap="round"/>
</g>
		<g transform="matrix(1 0 0 1 25.14 -22.1)" id="Layer_1">
<path style="stroke: none; stroke-width: 1; stroke-dasharray: none; stroke-linecap: butt; stroke-dashoffset: 0; stroke-linejoin: miter; stroke-miterlimit: 4; is-custom-font: none; font-file-url: none; fill: rgb(125,151,244); fill-rule: nonzero; opacity: 1;" transform=" translate(-75.14, -27.9)" d="m 68.88 22.04 s -0.06 0.1 -0.04 0.15 l 0.59 1.51 c -0.45 0.61 -0.8 1.29 -1.04 2.03 l -1.57 0.4 c -0.05 0.01 -0.09 0.06 -0.1 0.12 l -0.15 1.94 c 0 0.06 0.03 0.11 0.08 0.13 l 1.48 0.65 c 0.12 0.77 0.36 1.5 0.7 2.17 l -0.82 1.39 s -0.02 0.11 0.01 0.15 l 1.26 1.48 s 0.1 0.06 0.15 0.04 l 1.51 -0.59 c 0.61 0.45 1.29 0.8 2.03 1.04 l 0.4 1.57 c 0.01 0.05 0.06 0.09 0.12 0.1 l 1.94 0.15 c 0.06 0 0.11 -0.03 0.13 -0.08 l 0.65 -1.48 c 0.77 -0.12 1.5 -0.36 2.17 -0.7 l 1.39 0.82 s 0.11 0.02 0.15 -0.01 l 1.48 -1.26 s 0.06 -0.1 0.04 -0.15 l -0.59 -1.51 c 0.45 -0.61 0.8 -1.29 1.04 -2.03 l 1.57 -0.4 c 0.05 -0.01 0.09 -0.06 0.1 -0.12 l 0.15 -1.94 c 0 -0.06 -0.03 -0.11 -0.08 -0.13 l -1.48 -0.65 c -0.12 -0.77 -0.36 -1.5 -0.7 -2.17 l 0.82 -1.39 s 0.02 -0.11 -0.01 -0.15 l -1.26 -1.48 s -0.1 -0.06 -0.15 -0.04 l -1.51 0.59 c -0.61 -0.45 -1.29 -0.8 -2.03 -1.04 l -0.4 -1.57 c -0.01 -0.05 -0.06 -0.09 -0.12 -0.1 l -1.94 -0.15 c -0.06 0 -0.11 0.03 -0.13 0.08 l -0.65 1.48 c -0.77 0.12 -1.5 0.36 -2.17 0.7 l -1.39 -0.82 s -0.11 -0.02 -0.15 0.01 l -1.48 1.26 Z" stroke-linecap="round"/>
</g>
		<g transform="matrix(1 0 0 1 25.155 -22.0984)" id="Layer_1">
<path style="stroke: none; stroke-width: 1; stroke-dasharray: none; stroke-linecap: butt; stroke-dashoffset: 0; stroke-linejoin: miter; stroke-miterlimit: 4; is-custom-font: none; font-file-url: none; fill: rgb(145,179,250); fill-rule: nonzero; opacity: 1;" transform=" translate(-75.155, -27.9015)" d="m 75.78 26.05 c 1.02 0.35 1.57 1.46 1.22 2.48 c -0.17 0.49 -0.52 0.89 -0.98 1.12 c -0.47 0.23 -1 0.27 -1.49 0.1 c -1.02 -0.35 -1.57 -1.46 -1.22 -2.48 c 0.31 -0.93 1.26 -1.46 2.2 -1.29 c 0.09 0.02 0.19 0.04 0.28 0.07 Z m 0.04 3.19 c 0.36 -0.18 0.63 -0.48 0.76 -0.86 c 0.26 -0.78 -0.16 -1.63 -0.94 -1.9 c -0.78 -0.27 -1.63 0.16 -1.9 0.94 c -0.26 0.78 0.16 1.63 0.94 1.9 c 0.07 0.02 0.14 0.04 0.21 0.06 c 0.31 0.06 0.64 0.01 0.93 -0.13 Z" stroke-linecap="round"/>
</g>
		<g transform="matrix(1 0 0 1 25.1749 -22.0594)" id="Layer_1">
<path style="stroke: none; stroke-width: 1; stroke-dasharray: none; stroke-linecap: butt; stroke-dashoffset: 0; stroke-linejoin: miter; stroke-miterlimit: 4; is-custom-font: none; font-file-url: none; fill: rgb(145,179,250); fill-rule: nonzero; opacity: 1;" transform=" translate(-75.1749, -27.9406)" d="m 76.05 23.21 c -0.16 -0.03 -0.32 -0.05 -0.49 -0.06 h 0 c -0.05 0 -0.1 0 -0.16 0 c -0.26 -0.01 -0.51 0 -0.77 0.02 c 0 0 0 0 -0.01 0 c 0 0 -0.02 0 -0.03 0 c -0.02 0 -0.04 0 -0.06 0 c -0.05 0 -0.09 0.05 -0.1 0.09 c 0 0.01 0 0.02 0 0.04 c 0 0.06 0.07 0.11 0.13 0.1 c 0.32 -0.04 0.65 -0.05 0.97 -0.03 c 1.62 0.13 2.97 1.09 3.68 2.42 c 0.39 0.74 0.59 1.6 0.52 2.5 c -0.01 0.16 -0.03 0.31 -0.06 0.47 c -0.19 1.03 -0.72 1.96 -1.53 2.65 c -0.93 0.79 -2.11 1.18 -3.33 1.08 c -2.51 -0.2 -4.4 -2.41 -4.19 -4.92 c 0.01 -0.15 0.03 -0.31 0.06 -0.46 c 0.12 -0.66 0.38 -1.28 0.77 -1.83 c 0.01 -0.01 0.02 -0.03 0.02 -0.05 c 0 -0.04 0 -0.09 -0.05 -0.11 c -0.05 -0.04 -0.12 -0.02 -0.16 0.03 c -0.41 0.57 -0.68 1.23 -0.81 1.92 c -0.03 0.16 -0.05 0.32 -0.06 0.48 c -0.21 2.64 1.77 4.96 4.4 5.17 c 1.28 0.1 2.52 -0.3 3.5 -1.13 c 0.85 -0.72 1.41 -1.7 1.61 -2.78 c 0.03 -0.16 0.05 -0.32 0.06 -0.49 c 0.1 -1.28 -0.3 -2.52 -1.13 -3.5 c -0.72 -0.85 -1.7 -1.41 -2.78 -1.61 Z" stroke-linecap="round"/>
</g>
		<g transform="matrix(1 0 0 1 6.2401 -34.3522)" id="Layer_1">
<path style="stroke: none; stroke-width: 1; stroke-dasharray: none; stroke-linecap: butt; stroke-dashoffset: 0; stroke-linejoin: miter; stroke-miterlimit: 4; is-custom-font: none; font-file-url: none; fill: rgb(125,151,244); fill-rule: nonzero; opacity: 0.3;" transform=" translate(-56.2401, -15.6478)" d="m 56.37 15.28 c -0.07 -0.01 -0.15 0.02 -0.19 0.09 c -0.07 0.13 -0.13 0.27 -0.19 0.41 c -0.04 0.09 0 0.19 0.09 0.23 c 0.09 0.04 0.19 0 0.23 -0.09 c 0.06 -0.13 0.12 -0.26 0.18 -0.39 c 0.04 -0.09 0 -0.19 -0.08 -0.24 c -0.02 0 -0.03 -0.01 -0.05 -0.02 Z" stroke-linecap="round"/>
</g>
		<g transform="matrix(1 0 0 1 9.242 -28.5396)" id="Layer_1">
<path style="stroke: none; stroke-width: 1; stroke-dasharray: none; stroke-linecap: butt; stroke-dashoffset: 0; stroke-linejoin: miter; stroke-miterlimit: 4; is-custom-font: none; font-file-url: none; fill: rgb(125,151,244); fill-rule: nonzero; opacity: 0.3;" transform=" translate(-59.242, -21.4604)" d="m 55.89 16.54 c 0.09 0.03 0.15 0.12 0.12 0.22 c -0.07 0.24 -0.13 0.48 -0.17 0.72 c 0 0.05 -0.02 0.1 -0.03 0.15 c -0.02 0.1 -0.11 0.16 -0.2 0.15 c -0.09 -0.02 -0.16 -0.11 -0.15 -0.2 c 0 -0.05 0.02 -0.11 0.03 -0.16 c 0.05 -0.25 0.11 -0.51 0.18 -0.75 c 0.03 -0.09 0.11 -0.14 0.2 -0.12 c 0 0 0.01 0 0.02 0 Z m -0.16 1.98 c -0.01 0.3 0 0.6 0.02 0.89 c 0 0.1 -0.06 0.18 -0.16 0.19 c -0.1 0 -0.18 -0.06 -0.19 -0.16 c -0.03 -0.31 -0.03 -0.62 -0.02 -0.94 c 0 -0.1 0.09 -0.17 0.18 -0.17 c 0 0 0.02 0 0.03 0 c 0.08 0.02 0.15 0.09 0.14 0.18 Z m 0.15 1.78 c 0.06 0.29 0.14 0.58 0.24 0.86 c 0.03 0.09 -0.02 0.19 -0.11 0.22 c -0.09 0.03 -0.19 -0.02 -0.22 -0.11 c -0.1 -0.29 -0.19 -0.6 -0.25 -0.9 c -0.02 -0.09 0.04 -0.19 0.14 -0.21 c 0.02 0 0.05 0 0.07 0 c 0.07 0.01 0.13 0.06 0.14 0.14 Z m 0.58 1.68 c 0.13 0.27 0.28 0.53 0.44 0.77 c 0.05 0.08 0.03 0.19 -0.05 0.24 c -0.08 0.05 -0.19 0.03 -0.24 -0.05 c -0.17 -0.26 -0.33 -0.53 -0.46 -0.81 c -0.04 -0.09 0 -0.19 0.08 -0.24 c 0.04 -0.02 0.07 -0.02 0.11 -0.02 c 0.05 0 0.1 0.04 0.13 0.1 Z m 0.98 1.49 c 0.19 0.23 0.4 0.44 0.62 0.64 c 0.07 0.07 0.08 0.18 0 0.25 c -0.07 0.07 -0.18 0.08 -0.25 0 c -0.23 -0.21 -0.45 -0.44 -0.65 -0.68 c -0.06 -0.07 -0.05 -0.19 0.02 -0.25 c 0.04 -0.04 0.1 -0.05 0.15 -0.04 c 0.04 0 0.08 0.03 0.1 0.06 Z m 1.31 1.21 c 0.24 0.17 0.5 0.33 0.76 0.47 c 0.09 0.05 0.12 0.15 0.07 0.24 c -0.05 0.09 -0.15 0.12 -0.24 0.07 c -0.27 -0.15 -0.54 -0.32 -0.79 -0.5 c -0.08 -0.06 -0.1 -0.17 -0.04 -0.25 c 0.04 -0.06 0.11 -0.08 0.17 -0.07 c 0.02 0 0.05 0.01 0.07 0.03 Z m 1.56 0.85 c 0.28 0.11 0.56 0.2 0.85 0.27 c 0.09 0.02 0.15 0.12 0.13 0.21 c -0.02 0.09 -0.12 0.15 -0.21 0.13 c -0.3 -0.08 -0.6 -0.17 -0.89 -0.29 c -0.09 -0.04 -0.13 -0.14 -0.1 -0.23 c 0.03 -0.08 0.11 -0.12 0.2 -0.11 c 0.01 0 0.02 0 0.03 0 Z m 2.79 0.68 c 0 0.1 -0.08 0.18 -0.18 0.17 c -0.27 0 -0.54 -0.02 -0.81 -0.05 c -0.04 0 -0.08 0 -0.12 -0.01 c -0.1 0 -0.16 -0.1 -0.15 -0.2 c 0.01 -0.1 0.1 -0.16 0.2 -0.15 c 0.04 0 0.08 0 0.12 0.01 c 0.26 0.03 0.52 0.04 0.78 0.05 c 0.01 0 0.02 0 0.03 0 c 0.08 0.02 0.14 0.09 0.14 0.17 Z" stroke-linecap="round"/>
</g>
		<g transform="matrix(1 0 0 1 15.4646 -35.9494)" id="Layer_1">
<path style="stroke: none; stroke-width: 1; stroke-dasharray: none; stroke-linecap: butt; stroke-dashoffset: 0; stroke-linejoin: miter; stroke-miterlimit: 4; is-custom-font: none; font-file-url: none; fill: rgb(125,151,244); fill-rule: nonzero; opacity: 0.3;" transform=" translate(-65.4646, -14.0506)" d="m 64.43 11.34 c 0.3 0.06 0.6 0.14 0.89 0.23 c 0.09 0.03 0.14 0.13 0.11 0.22 c -0.03 0.09 -0.13 0.14 -0.22 0.11 c -0.28 -0.09 -0.56 -0.16 -0.85 -0.22 c -0.1 -0.02 -0.16 -0.11 -0.14 -0.21 c 0.02 -0.09 0.11 -0.16 0.2 -0.14 c 0 0 0 0 0 0 Z m -0.75 0.07 c 0 0.1 -0.09 0.17 -0.19 0.16 c -0.29 -0.02 -0.59 -0.03 -0.88 -0.01 c -0.1 0 -0.18 -0.07 -0.18 -0.17 c 0 -0.1 0.07 -0.18 0.17 -0.18 c 0.31 -0.01 0.62 -0.01 0.92 0.01 c 0 0 0.01 0 0.02 0 c 0.09 0.02 0.15 0.1 0.14 0.19 Z m 2.5 0.5 c 0.28 0.13 0.55 0.28 0.81 0.44 c 0.08 0.05 0.11 0.16 0.06 0.24 c -0.05 0.08 -0.16 0.11 -0.24 0.06 c -0.25 -0.15 -0.51 -0.3 -0.77 -0.42 c -0.09 -0.04 -0.13 -0.15 -0.08 -0.23 c 0.03 -0.07 0.11 -0.11 0.19 -0.1 c 0.01 0 0.03 0 0.04 0.01 Z m -4.29 -0.46 c 0.02 0.1 -0.05 0.19 -0.14 0.2 c -0.29 0.05 -0.58 0.12 -0.86 0.2 c -0.09 0.03 -0.19 -0.03 -0.22 -0.12 c -0.03 -0.09 0.02 -0.19 0.12 -0.22 c 0.29 -0.09 0.59 -0.16 0.9 -0.21 c 0.02 0 0.04 0 0.06 0 c 0.07 0.01 0.13 0.07 0.14 0.14 Z m 5.85 1.44 c 0.24 0.19 0.47 0.4 0.68 0.62 c 0.07 0.07 0.07 0.18 0 0.25 c -0.07 0.07 -0.18 0.07 -0.25 0 c -0.2 -0.21 -0.42 -0.41 -0.65 -0.59 c -0.08 -0.06 -0.09 -0.17 -0.03 -0.25 c 0.04 -0.05 0.11 -0.07 0.17 -0.06 c 0.03 0 0.06 0.02 0.08 0.04 Z m 1.28 1.32 c 0.19 0.24 0.36 0.5 0.51 0.77 c 0.05 0.08 0.02 0.19 -0.06 0.24 c -0.08 0.05 -0.19 0.02 -0.24 -0.06 c -0.15 -0.25 -0.31 -0.5 -0.49 -0.73 c -0.06 -0.08 -0.04 -0.19 0.03 -0.25 c 0.04 -0.03 0.09 -0.04 0.14 -0.03 c 0.04 0 0.08 0.03 0.11 0.07 Z m 0.93 1.59 c 0.12 0.28 0.23 0.57 0.31 0.87 c 0.03 0.09 -0.03 0.19 -0.12 0.22 c -0.09 0.03 -0.19 -0.03 -0.22 -0.12 c -0.08 -0.28 -0.18 -0.56 -0.3 -0.83 c -0.04 -0.09 0 -0.19 0.09 -0.23 c 0.03 -0.01 0.07 -0.02 0.1 -0.01 c 0.06 0.01 0.11 0.05 0.13 0.1 Z" stroke-linecap="round"/>
</g>
		<g transform="matrix(1 0 0 1 9.789 -37.9113)" id="Layer_1">
<path style="stroke: none; stroke-width: 1; stroke-dasharray: none; stroke-linecap: butt; stroke-dashoffset: 0; stroke-linejoin: miter; stroke-miterlimit: 4; is-custom-font: none; font-file-url: none; fill: rgb(125,151,244); fill-rule: nonzero; opacity: 0.3;" transform=" translate(-59.7891, -12.0887)" d="m 60.02 11.82 s -0.07 0 -0.1 0.01 c -0.14 0.06 -0.27 0.13 -0.41 0.19 c -0.09 0.04 -0.12 0.15 -0.08 0.24 c 0.04 0.09 0.15 0.12 0.24 0.08 c 0.13 -0.06 0.26 -0.13 0.39 -0.18 c 0.09 -0.04 0.13 -0.14 0.09 -0.23 c -0.02 -0.06 -0.07 -0.09 -0.13 -0.1 Z" stroke-linecap="round"/>
</g>
		<g transform="matrix(1 0 0 1 12.94 -31.15)" id="Layer_1">
<path style="stroke: none; stroke-width: 1; stroke-dasharray: none; stroke-linecap: butt; stroke-dashoffset: 0; stroke-linejoin: miter; stroke-miterlimit: 4; is-custom-font: none; font-file-url: none; fill: rgb(125,151,244); fill-rule: nonzero; opacity: 1;" transform=" translate(-62.94, -18.85)" d="m 58.76 14.92 s -0.04 0.06 -0.03 0.1 l 0.4 1.01 c -0.3 0.41 -0.54 0.87 -0.7 1.36 l -1.05 0.27 s -0.06 0.04 -0.07 0.08 l -0.1 1.3 s 0.02 0.07 0.05 0.09 l 0.99 0.43 c 0.08 0.51 0.24 1 0.47 1.45 l -0.55 0.93 s -0.02 0.07 0 0.1 l 0.84 0.99 s 0.06 0.04 0.1 0.03 l 1.01 -0.4 c 0.41 0.3 0.87 0.54 1.36 0.7 l 0.27 1.05 s 0.04 0.06 0.08 0.07 l 1.3 0.1 s 0.07 -0.02 0.09 -0.05 l 0.43 -0.99 c 0.51 -0.08 1 -0.24 1.45 -0.47 l 0.93 0.55 s 0.07 0.02 0.1 0 l 0.99 -0.84 s 0.04 -0.06 0.03 -0.1 l -0.4 -1.01 c 0.3 -0.41 0.54 -0.87 0.7 -1.36 l 1.05 -0.27 s 0.06 -0.04 0.07 -0.08 l 0.1 -1.3 s -0.02 -0.07 -0.05 -0.09 l -0.99 -0.43 c -0.08 -0.51 -0.24 -1 -0.47 -1.45 l 0.55 -0.93 s 0.02 -0.07 0 -0.1 l -0.84 -0.99 s -0.06 -0.04 -0.1 -0.03 l -1.01 0.4 c -0.41 -0.3 -0.87 -0.54 -1.36 -0.7 l -0.27 -1.05 s -0.04 -0.06 -0.08 -0.07 l -1.3 -0.1 s -0.07 0.02 -0.09 0.05 l -0.43 0.99 c -0.51 0.08 -1 0.24 -1.45 0.47 l -0.93 -0.55 s -0.07 -0.02 -0.1 0 l -0.99 0.84 Z" stroke-linecap="round"/>
</g>
		<g transform="matrix(1 0 0 1 12.9685 -31.1543)" id="Layer_1">
<path style="stroke: none; stroke-width: 1; stroke-dasharray: none; stroke-linecap: butt; stroke-dashoffset: 0; stroke-linejoin: miter; stroke-miterlimit: 4; is-custom-font: none; font-file-url: none; fill: rgb(125,151,244); fill-rule: nonzero; opacity: 1;" transform=" translate(-62.9685, -18.8456)" d="m 63.39 17.59 c 0.34 0.11 0.61 0.35 0.77 0.67 c 0.16 0.32 0.18 0.68 0.07 1.02 c -0.24 0.69 -0.99 1.07 -1.69 0.83 c -0.69 -0.24 -1.07 -0.99 -0.83 -1.69 c 0.11 -0.34 0.35 -0.61 0.67 -0.77 c 0.26 -0.13 0.55 -0.17 0.82 -0.12 c 0.06 0.01 0.13 0.03 0.19 0.05 Z m 0.5 1.57 c 0.08 -0.25 0.07 -0.51 -0.05 -0.75 c -0.12 -0.23 -0.32 -0.41 -0.56 -0.49 h 0 c -0.25 -0.08 -0.51 -0.07 -0.75 0.05 c -0.23 0.12 -0.41 0.32 -0.49 0.56 c -0.17 0.51 0.1 1.07 0.61 1.24 c 0.05 0.02 0.09 0.03 0.14 0.04 c 0.47 0.09 0.94 -0.18 1.1 -0.65 Z" stroke-linecap="round"/>
</g>
		<g transform="matrix(1 0 0 1 12.9703 -31.1352)" id="Layer_1">
<path style="stroke: none; stroke-width: 1; stroke-dasharray: none; stroke-linecap: butt; stroke-dashoffset: 0; stroke-linejoin: miter; stroke-miterlimit: 4; is-custom-font: none; font-file-url: none; fill: rgb(145,179,250); fill-rule: nonzero; opacity: 1;" transform=" translate(-62.9703, -18.8648)" d="m 63.57 15.61 c -0.11 -0.02 -0.22 -0.03 -0.33 -0.04 c -0.22 -0.02 -0.45 -0.01 -0.67 0.01 c -0.01 0 -0.02 0 -0.03 0 c -0.08 0.01 -0.14 0.07 -0.15 0.14 c 0 0.02 0 0.04 0 0.06 c 0.01 0.1 0.1 0.16 0.2 0.15 c 0.21 -0.03 0.42 -0.03 0.63 -0.02 h 0 s 0.02 0 0.03 0 c 0.5 0.04 0.96 0.21 1.37 0.48 c 0.22 0.15 0.42 0.32 0.6 0.53 c 0 0 0 0 0 0 c 0 0 0 0.01 0.01 0.02 c 0.51 0.6 0.76 1.37 0.7 2.16 c 0 0.1 -0.02 0.2 -0.04 0.3 c -0.12 0.67 -0.47 1.27 -0.99 1.72 c -0.6 0.51 -1.37 0.76 -2.16 0.7 c -0.79 -0.06 -1.5 -0.43 -2.02 -1.03 c -0.51 -0.6 -0.76 -1.37 -0.7 -2.16 c 0 -0.1 0.02 -0.2 0.04 -0.3 c 0.08 -0.43 0.25 -0.83 0.5 -1.18 c 0.02 -0.02 0.03 -0.05 0.03 -0.07 c 0.01 -0.06 -0.01 -0.13 -0.07 -0.17 c -0.08 -0.06 -0.19 -0.04 -0.25 0.04 c -0.28 0.39 -0.47 0.85 -0.56 1.32 c -0.02 0.11 -0.03 0.22 -0.04 0.33 c -0.07 0.88 0.21 1.74 0.78 2.41 c 0.57 0.67 1.37 1.08 2.26 1.15 c 0.88 0.07 1.74 -0.21 2.41 -0.78 c 0.59 -0.5 0.97 -1.17 1.11 -1.92 c 0.02 -0.11 0.04 -0.22 0.04 -0.34 c 0.14 -1.71 -1.05 -3.22 -2.7 -3.52 Z" stroke-linecap="round"/>
</g>
</g>
</g>
</svg>