<svg xmlns="http://www.w3.org/2000/svg" xmlns:xlink="http://www.w3.org/1999/xlink" version="1.1" width="1024" height="1024" viewBox="0 0 1024 1024" xml:space="preserve">
<desc>Created with Fabric.js 3.5.0</desc>
<defs>
</defs>
<rect x="0" y="0" width="100%" height="100%" fill="#fff"/>
<g transform="matrix(1 0 0 1 510.1619 958.691)" style="" id="213492">
		
<path xml:space="preserve" font-family="Lato" font-size="108" font-style="normal" font-weight="normal" style="stroke: none; stroke-width: 0; stroke-dasharray: none; stroke-linecap: butt; stroke-dashoffset: 0; stroke-linejoin: miter; stroke-miterlimit: 4; is-custom-font: none; font-file-url: none; fill: rgb(0,0,0); fill-rule: nonzero; opacity: 1; white-space: pre;" d="M-425.90-43.45L-365.31-43.45L-365.31-34.65L-390.31-34.65L-390.31 33.93L-400.79 33.93L-400.79-34.65L-425.90-34.65L-425.90-43.45ZM-345.49-21.64L-345.49-21.64Q-340.58-21.64-336.42-19.99Q-332.26-18.34-329.24-15.24Q-326.21-12.13-324.51-7.57Q-322.81-3.01-322.81 2.82L-322.81 2.82Q-322.81 5.09-323.30 5.85Q-323.78 6.60-325.13 6.60L-325.13 6.60L-361.53 6.60Q-361.42 11.79-360.13 15.62Q-358.83 19.46-356.56 22.02Q-354.29 24.59-351.16 25.85Q-348.03 27.12-344.14 27.12L-344.14 27.12Q-340.52 27.12-337.91 26.29Q-335.29 25.45-333.40 24.48Q-331.51 23.51-330.24 22.67Q-328.97 21.83-328.05 21.83L-328.05 21.83Q-326.86 21.83-326.21 22.75L-326.21 22.75L-323.51 26.26Q-325.30 28.42-327.78 30.01Q-330.26 31.61-333.10 32.63Q-335.93 33.66-338.96 34.17Q-341.98 34.68-344.95 34.68L-344.95 34.68Q-350.62 34.68-355.40 32.77Q-360.18 30.85-363.66 27.15Q-367.15 23.45-369.09 18.00Q-371.03 12.54-371.03 5.47L-371.03 5.47Q-371.03-0.25-369.28-5.22Q-367.52-10.19-364.23-13.84Q-360.94-17.48-356.18-19.56Q-351.43-21.64-345.49-21.64ZM-345.28-14.56L-345.28-14.56Q-352.24-14.56-356.24-10.54Q-360.23-6.52-361.21 0.61L-361.21 0.61L-331.45 0.61Q-331.45-2.74-332.37-5.52Q-333.29-8.30-335.07-10.33Q-336.85-12.35-339.42-13.46Q-341.98-14.56-345.28-14.56ZM-277.07-15.27L-279.23-11.76Q-279.88-10.57-281.23-10.57L-281.23-10.57Q-282.04-10.57-283.07-11.16Q-284.09-11.76-285.58-12.49Q-287.06-13.21-289.12-13.84Q-291.17-14.46-293.98-14.46L-293.98-14.46Q-296.41-14.46-298.35-13.84Q-300.29-13.21-301.67-12.13Q-303.05-11.05-303.78-9.62Q-304.51-8.19-304.51-6.52L-304.51-6.52Q-304.51-4.41-303.29-3.01Q-302.08-1.60-300.08-0.58Q-298.08 0.45-295.54 1.23Q-293.00 2.01-290.33 2.90Q-287.66 3.80-285.12 4.88Q-282.58 5.96-280.58 7.58Q-278.59 9.20-277.37 11.54Q-276.16 13.89-276.16 17.19L-276.16 17.19Q-276.16 20.97-277.51 24.18Q-278.86 27.39-281.50 29.74Q-284.15 32.09-287.98 33.44Q-291.82 34.79-296.84 34.79L-296.84 34.79Q-302.56 34.79-307.21 32.93Q-311.85 31.07-315.09 28.15L-315.09 28.15L-312.82 24.48Q-312.39 23.78-311.80 23.40Q-311.20 23.02-310.23 23.02L-310.23 23.02Q-309.26 23.02-308.18 23.78Q-307.10 24.53-305.56 25.45Q-304.02 26.37-301.83 27.12Q-299.65 27.88-296.35 27.88L-296.35 27.88Q-293.54 27.88-291.44 27.15Q-289.33 26.42-287.93 25.18Q-286.52 23.94-285.85 22.32Q-285.17 20.70-285.17 18.86L-285.17 18.86Q-285.17 16.59-286.39 15.11Q-287.60 13.62-289.60 12.57Q-291.60 11.52-294.17 10.73Q-296.73 9.95-299.40 9.09Q-302.08 8.22-304.64 7.12Q-307.21 6.01-309.20 4.34Q-311.20 2.66-312.42 0.20Q-313.63-2.25-313.63-5.76L-313.63-5.76Q-313.63-8.89-312.34-11.78Q-311.04-14.67-308.56-16.86Q-306.07-19.05-302.45-20.34Q-298.84-21.64-294.19-21.64L-294.19-21.64Q-288.79-21.64-284.50-19.94Q-280.21-18.24-277.07-15.27L-277.07-15.27ZM-247.10 34.79L-247.10 34.79Q-253.58 34.79-257.07 31.17Q-260.55 27.56-260.55 20.75L-260.55 20.75L-260.55-12.73L-267.14-12.73Q-268.00-12.73-268.60-13.24Q-269.19-13.75-269.19-14.83L-269.19-14.83L-269.19-18.67L-260.23-19.80L-258.01-36.70Q-257.90-37.51-257.31-38.03Q-256.72-38.54-255.80-38.54L-255.80-38.54L-250.94-38.54L-250.94-19.69L-235.28-19.69L-235.28-12.73L-250.94-12.73L-250.94 20.10Q-250.94 23.56-249.26 25.23Q-247.59 26.91-244.94 26.91L-244.94 26.91Q-243.43 26.91-242.33 26.50Q-241.22 26.10-240.41 25.61Q-239.60 25.13-239.03 24.72Q-238.46 24.32-238.03 24.32L-238.03 24.32Q-237.28 24.32-236.68 25.23L-236.68 25.23L-233.87 29.82Q-236.36 32.15-239.87 33.47Q-243.38 34.79-247.10 34.79ZM-222.32-20.77L-212.71-20.77L-212.71 33.93L-222.32 33.93L-222.32-20.77ZM-210.55-37.95L-210.55-37.95Q-210.55-36.54-211.11-35.33Q-211.68-34.11-212.63-33.17Q-213.57-32.22-214.81-31.68Q-216.05-31.14-217.46-31.14L-217.46-31.14Q-218.86-31.14-220.08-31.68Q-221.29-32.22-222.24-33.17Q-223.18-34.11-223.72-35.33Q-224.26-36.54-224.26-37.95L-224.26-37.95Q-224.26-39.35-223.72-40.62Q-223.18-41.89-222.24-42.83Q-221.29-43.78-220.08-44.32Q-218.86-44.86-217.46-44.86L-217.46-44.86Q-216.05-44.86-214.81-44.32Q-213.57-43.78-212.63-42.83Q-211.68-41.89-211.11-40.62Q-210.55-39.35-210.55-37.95ZM-186.14 33.93L-195.75 33.93L-195.75-20.77L-190.03-20.77Q-187.97-20.77-187.43-18.78L-187.43-18.78L-186.68-12.84Q-183.11-16.78-178.71-19.21Q-174.31-21.64-168.53-21.64L-168.53-21.64Q-164.05-21.64-160.62-20.15Q-157.19-18.67-154.90-15.94Q-152.60-13.21-151.42-9.38Q-150.23-5.55-150.23-0.90L-150.23-0.90L-150.23 33.93L-159.84 33.93L-159.84-0.90Q-159.84-7.11-162.68-10.54Q-165.51-13.97-171.34-13.97L-171.34-13.97Q-175.61-13.97-179.31-11.92Q-183.01-9.87-186.14-6.36L-186.14-6.36L-186.14 33.93ZM-117.29-21.69L-117.29-21.69Q-113.72-21.69-110.62-20.91Q-107.51-20.13-104.98-18.61L-104.98-18.61L-90.13-18.61L-90.13-15.05Q-90.13-13.27-92.39-12.78L-92.39-12.78L-98.60-11.92Q-96.77-8.41-96.77-4.09L-96.77-4.09Q-96.77-0.09-98.31 3.17Q-99.85 6.44-102.57 8.76Q-105.30 11.09-109.05 12.33Q-112.81 13.57-117.29 13.57L-117.29 13.57Q-121.12 13.57-124.52 12.65L-124.52 12.65Q-126.25 13.73-127.14 14.97Q-128.03 16.22-128.03 17.40L-128.03 17.40Q-128.03 19.35-126.47 20.35Q-124.90 21.35-122.31 21.78Q-119.72 22.21-116.42 22.32Q-113.13 22.43-109.70 22.67Q-106.27 22.91-102.98 23.51Q-99.68 24.10-97.09 25.45Q-94.50 26.80-92.93 29.18Q-91.37 31.55-91.37 35.33L-91.37 35.33Q-91.37 38.84-93.12 42.14Q-94.88 45.43-98.17 47.99Q-101.47 50.56-106.22 52.10Q-110.97 53.64-116.96 53.64L-116.96 53.64Q-122.96 53.64-127.47 52.45Q-131.98 51.26-134.95 49.26Q-137.92 47.27-139.40 44.65Q-140.89 42.03-140.89 39.17L-140.89 39.17Q-140.89 35.12-138.32 32.28Q-135.76 29.45-131.27 27.77L-131.27 27.77Q-133.60 26.69-134.97 24.88Q-136.35 23.07-136.35 20.05L-136.35 20.05Q-136.35 18.86-135.92 17.59Q-135.49 16.32-134.60 15.08Q-133.70 13.84-132.41 12.71Q-131.11 11.57-129.38 10.71L-129.38 10.71Q-133.43 8.44-135.73 4.69Q-138.02 0.93-138.02-4.09L-138.02-4.09Q-138.02-8.08-136.49-11.35Q-134.95-14.62-132.19-16.91Q-129.44-19.21-125.63-20.45Q-121.82-21.69-117.29-21.69ZM-100.22 36.90L-100.22 36.90Q-100.22 34.85-101.36 33.60Q-102.49 32.36-104.44 31.69Q-106.38 31.01-108.92 30.69Q-111.46 30.36-114.26 30.23Q-117.07 30.09-119.99 29.93Q-122.90 29.77-125.55 29.34L-125.55 29.34Q-128.63 30.80-130.55 32.90Q-132.46 35.01-132.46 37.92L-132.46 37.92Q-132.46 39.76-131.52 41.35Q-130.57 42.95-128.63 44.11Q-126.68 45.27-123.74 45.94Q-120.80 46.62-116.80 46.62L-116.80 46.62Q-112.91 46.62-109.84 45.92Q-106.76 45.21-104.63 43.92Q-102.49 42.62-101.36 40.84Q-100.22 39.06-100.22 36.90ZM-117.29 7.20L-117.29 7.20Q-114.37 7.20-112.13 6.39Q-109.89 5.58-108.38 4.12Q-106.87 2.66-106.11 0.64Q-105.35-1.39-105.35-3.82L-105.35-3.82Q-105.35-8.84-108.41-11.81Q-111.46-14.78-117.29-14.78L-117.29-14.78Q-123.07-14.78-126.12-11.81Q-129.17-8.84-129.17-3.82L-129.17-3.82Q-129.17-1.39-128.39 0.64Q-127.60 2.66-126.09 4.12Q-124.58 5.58-122.36 6.39Q-120.15 7.20-117.29 7.20ZM-47.84 33.93L-57.51 33.93L-57.51-12.57L-63.56-13.27Q-64.69-13.54-65.42-14.11Q-66.15-14.67-66.15-15.75L-66.15-15.75L-66.15-19.69L-57.51-19.69L-57.51-24.99Q-57.51-29.68-56.19-33.33Q-54.86-36.97-52.41-39.49Q-49.95-42.00-46.49-43.29Q-43.04-44.59-38.72-44.59L-38.72-44.59Q-35.05-44.59-31.91-43.51L-31.91-43.51L-32.13-38.70Q-32.18-37.62-33.05-37.41Q-33.91-37.19-35.48-37.19L-35.48-37.19L-37.15-37.19Q-39.64-37.19-41.66-36.54Q-43.69-35.89-45.14-34.44Q-46.60-32.98-47.39-30.60Q-48.17-28.23-48.17-24.72L-48.17-24.72L-48.17-19.69L-32.35-19.69L-32.35-12.73L-47.84-12.73L-47.84 33.93ZM-1.13-21.64L-1.13-21.64Q4.86-21.64 9.69-19.64Q14.53-17.64 17.90-13.97Q21.28-10.30 23.08-5.09Q24.89 0.12 24.89 6.55L24.89 6.55Q24.89 13.03 23.08 18.21Q21.28 23.40 17.90 27.07Q14.53 30.74 9.69 32.71Q4.86 34.68-1.13 34.68L-1.13 34.68Q-7.13 34.68-11.96 32.71Q-16.79 30.74-20.20 27.07Q-23.60 23.40-25.43 18.21Q-27.27 13.03-27.27 6.55L-27.27 6.55Q-27.27 0.12-25.43-5.09Q-23.60-10.30-20.20-13.97Q-16.79-17.64-11.96-19.64Q-7.13-21.64-1.13-21.64ZM-1.13 27.18L-1.13 27.18Q6.97 27.18 10.96 21.75Q14.96 16.32 14.96 6.60L14.96 6.60Q14.96-3.17 10.96-8.62Q6.97-14.08-1.13-14.08L-1.13-14.08Q-5.24-14.08-8.26-12.67Q-11.29-11.27-13.31-8.62Q-15.34-5.98-16.34-2.12Q-17.33 1.74-17.33 6.60L-17.33 6.60Q-17.33 11.46-16.34 15.30Q-15.34 19.13-13.31 21.75Q-11.29 24.37-8.26 25.77Q-5.24 27.18-1.13 27.18ZM46.39 33.93L36.77 33.93L36.77-20.77L42.28-20.77Q43.85-20.77 44.44-20.18Q45.04-19.59 45.25-18.13L45.25-18.13L45.90-9.60Q48.71-15.32 52.84-18.53Q56.97-21.75 62.53-21.75L62.53-21.75Q64.80-21.75 66.64-21.23Q68.47-20.72 70.04-19.80L70.04-19.80L68.80-12.62Q68.42-11.27 67.12-11.27L67.12-11.27Q66.37-11.27 64.80-11.78Q63.23-12.30 60.43-12.30L60.43-12.30Q55.40-12.30 52.03-9.38Q48.65-6.46 46.39-0.90L46.39-0.90L46.39 33.93ZM134.62-15.27L132.46-11.76Q131.81-10.57 130.46-10.57L130.46-10.57Q129.65-10.57 128.63-11.16Q127.60-11.76 126.12-12.49Q124.63-13.21 122.58-13.84Q120.53-14.46 117.72-14.46L117.72-14.46Q115.29-14.46 113.35-13.84Q111.40-13.21 110.02-12.13Q108.65-11.05 107.92-9.62Q107.19-8.19 107.19-6.52L107.19-6.52Q107.19-4.41 108.40-3.01Q109.62-1.60 111.62-0.58Q113.62 0.45 116.15 1.23Q118.69 2.01 121.36 2.90Q124.04 3.80 126.58 4.88Q129.11 5.96 131.11 7.58Q133.11 9.20 134.32 11.54Q135.54 13.89 135.54 17.19L135.54 17.19Q135.54 20.97 134.19 24.18Q132.84 27.39 130.19 29.74Q127.55 32.09 123.71 33.44Q119.88 34.79 114.86 34.79L114.86 34.79Q109.13 34.79 104.49 32.93Q99.85 31.07 96.61 28.15L96.61 28.15L98.87 24.48Q99.31 23.78 99.90 23.40Q100.49 23.02 101.47 23.02L101.47 23.02Q102.44 23.02 103.52 23.78Q104.60 24.53 106.14 25.45Q107.68 26.37 109.86 27.12Q112.05 27.88 115.34 27.88L115.34 27.88Q118.15 27.88 120.26 27.15Q122.36 26.42 123.77 25.18Q125.17 23.94 125.85 22.32Q126.52 20.70 126.52 18.86L126.52 18.86Q126.52 16.59 125.31 15.11Q124.09 13.62 122.09 12.57Q120.10 11.52 117.53 10.73Q114.97 9.95 112.29 9.09Q109.62 8.22 107.05 7.12Q104.49 6.01 102.49 4.34Q100.49 2.66 99.28 0.20Q98.06-2.25 98.06-5.76L98.06-5.76Q98.06-8.89 99.36-11.78Q100.66-14.67 103.14-16.86Q105.62-19.05 109.24-20.34Q112.86-21.64 117.50-21.64L117.50-21.64Q122.90-21.64 127.20-19.94Q131.49-18.24 134.62-15.27L134.62-15.27ZM188.19-1.06L188.19 33.93L183.92 33.93Q182.52 33.93 181.66 33.50Q180.79 33.06 180.52 31.66L180.52 31.66L179.44 26.58Q177.28 28.53 175.23 30.07Q173.18 31.61 170.91 32.66Q168.64 33.71 166.08 34.25Q163.51 34.79 160.38 34.79L160.38 34.79Q157.19 34.79 154.41 33.90Q151.63 33.01 149.58 31.23Q147.53 29.45 146.31 26.72Q145.10 23.99 145.10 20.27L145.10 20.27Q145.10 17.03 146.88 14.03Q148.66 11.03 152.63 8.71Q156.60 6.39 163.03 4.90Q169.45 3.42 178.74 3.20L178.74 3.20L178.74-1.06Q178.74-7.44 176.01-10.70Q173.29-13.97 167.94-13.97L167.94-13.97Q164.43-13.97 162.03-13.08Q159.62-12.19 157.87-11.08Q156.11-9.97 154.84-9.08Q153.58-8.19 152.33-8.19L152.33-8.19Q151.36-8.19 150.63-8.71Q149.90-9.22 149.47-9.97L149.47-9.97L147.74-13.05Q152.28-17.43 157.52-19.59Q162.76-21.75 169.13-21.75L169.13-21.75Q173.72-21.75 177.28-20.23Q180.85-18.72 183.28-16.02Q185.71-13.32 186.95-9.49Q188.19-5.65 188.19-1.06L188.19-1.06ZM163.24 28.04L163.24 28.04Q165.78 28.04 167.89 27.53Q169.99 27.02 171.85 26.07Q173.72 25.13 175.42 23.78Q177.12 22.43 178.74 20.70L178.74 20.70L178.74 9.30Q172.10 9.52 167.45 10.36Q162.81 11.19 159.89 12.54Q156.98 13.89 155.66 15.73Q154.33 17.57 154.33 19.83L154.33 19.83Q154.33 21.99 155.03 23.56Q155.74 25.13 156.92 26.12Q158.11 27.12 159.73 27.58Q161.35 28.04 163.24 28.04ZM212.38 33.93L202.77 33.93L202.77-20.77L208.49-20.77Q210.55-20.77 211.09-18.78L211.09-18.78L211.79-13.16Q214.81-16.89 218.56-19.26Q222.32-21.64 227.29-21.64L227.29-21.64Q232.85-21.64 236.28-18.56Q239.71-15.48 241.22-10.24L241.22-10.24Q242.35-13.21 244.22-15.37Q246.08-17.53 248.40-18.94Q250.72-20.34 253.34-20.99Q255.96-21.64 258.66-21.64L258.66-21.64Q262.98-21.64 266.36-20.26Q269.73-18.88 272.08-16.24Q274.43-13.59 275.67-9.73Q276.91-5.87 276.91-0.90L276.91-0.90L276.91 33.93L267.30 33.93L267.30-0.90Q267.30-7.33 264.49-10.65Q261.68-13.97 256.34-13.97L256.34-13.97Q253.96-13.97 251.83-13.13Q249.70-12.30 248.08-10.68Q246.46-9.06 245.51-6.60Q244.57-4.14 244.57-0.90L244.57-0.90L244.57 33.93L234.95 33.93L234.95-0.90Q234.95-7.49 232.31-10.73Q229.66-13.97 224.59-13.97L224.59-13.97Q221.02-13.97 217.97-12.05Q214.92-10.14 212.38-6.84L212.38-6.84L212.38 33.93ZM301.05 52.45L291.44 52.45L291.44-20.77L297.16-20.77Q299.21-20.77 299.75-18.78L299.75-18.78L300.56-12.30Q304.07-16.56 308.58-19.15Q313.09-21.75 318.98-21.75L318.98-21.75Q323.68-21.75 327.51-19.94Q331.34-18.13 334.04-14.59Q336.74-11.05 338.20-5.82Q339.66-0.58 339.66 6.23L339.66 6.23Q339.66 12.27 338.04 17.48Q336.42 22.70 333.40 26.50Q330.37 30.31 325.97 32.50Q321.57 34.68 316.06 34.68L316.06 34.68Q310.99 34.68 307.39 33.01Q303.80 31.34 301.05 28.26L301.05 28.26L301.05 52.45ZM315.79-13.97L315.79-13.97Q311.09-13.97 307.56-11.81Q304.02-9.65 301.05-5.71L301.05-5.71L301.05 20.75Q303.70 24.32 306.85 25.77Q310.01 27.23 313.90 27.23L313.90 27.23Q321.52 27.23 325.62 21.78Q329.72 16.32 329.72 6.23L329.72 6.23Q329.72 0.88 328.78-2.95Q327.83-6.79 326.05-9.25Q324.27-11.70 321.68-12.84Q319.09-13.97 315.79-13.97ZM352.13-45.61L361.75-45.61L361.75 33.93L352.13 33.93L352.13-45.61ZM400.36-21.64L400.36-21.64Q405.27-21.64 409.43-19.99Q413.59-18.34 416.61-15.24Q419.63-12.13 421.33-7.57Q423.04-3.01 423.04 2.82L423.04 2.82Q423.04 5.09 422.55 5.85Q422.06 6.60 420.71 6.60L420.71 6.60L384.32 6.60Q384.43 11.79 385.72 15.62Q387.02 19.46 389.29 22.02Q391.55 24.59 394.69 25.85Q397.82 27.12 401.71 27.12L401.71 27.12Q405.32 27.12 407.94 26.29Q410.56 25.45 412.45 24.48Q414.34 23.51 415.61 22.67Q416.88 21.83 417.80 21.83L417.80 21.83Q418.99 21.83 419.63 22.75L419.63 22.75L422.33 26.26Q420.55 28.42 418.07 30.01Q415.58 31.61 412.75 32.63Q409.91 33.66 406.89 34.17Q403.87 34.68 400.90 34.68L400.90 34.68Q395.23 34.68 390.45 32.77Q385.67 30.85 382.19 27.15Q378.70 23.45 376.76 18.00Q374.81 12.54 374.81 5.47L374.81 5.47Q374.81-0.25 376.57-5.22Q378.32-10.19 381.62-13.84Q384.91-17.48 389.66-19.56Q394.42-21.64 400.36-21.64ZM400.57-14.56L400.57-14.56Q393.61-14.56 389.61-10.54Q385.61-6.52 384.64 0.61L384.64 0.61L414.40 0.61Q414.40-2.74 413.48-5.52Q412.56-8.30 410.78-10.33Q409.00-12.35 406.43-13.46Q403.87-14.56 400.57-14.56Z"/></g>
<g transform="matrix(8.56 0 0 8.56 512 428)" id="835765">
<g style="" vector-effect="non-scaling-stroke">
		<g transform="matrix(1 0 0 1 0.0024 -0.4869)" id="Layer_1">
<linearGradient id="SVGID_1668" gradientUnits="userSpaceOnUse" gradientTransform="matrix(1 0 0 1 0 0)" x1="95.13" y1="91.12" x2="36.91" y2="40.07">
<stop offset="0%" style="stop-color:rgb(218,227,254);stop-opacity: 1"/>
<stop offset="100%" style="stop-color:rgb(233,239,253);stop-opacity: 1"/>
</linearGradient>
<path style="stroke: none; stroke-width: 1; stroke-dasharray: none; stroke-linecap: butt; stroke-dashoffset: 0; stroke-linejoin: miter; stroke-miterlimit: 4; is-custom-font: none; font-file-url: none; fill: url(#SVGID_1668); fill-rule: nonzero; opacity: 1;" transform=" translate(-50.0024, -49.5131)" d="m 80.37 77.11 c -2.08 2.07 -3.95 3.29 -5.37 4.2 c -13.91 8.96 -29.82 6.37 -34.73 5.49 c -7.93 -1.42 -14.63 -2.43 -20.38 -7.44 c -13.07 -11.39 -12.44 -35.14 -2.45 -49.86 c 1.18 -1.74 11.16 -16 27.1 -18.01 c 0.39 -0.05 0.68 -0.08 0.94 -0.1 c 2.47 -0.25 17.74 -1.58 30.2 8.48 c 1.78 1.44 4.65 4.04 7.31 8 c 9.73 14.49 9.76 36.93 -2.61 49.23 Z" stroke-linecap="round"/>
</g>
		<g transform="matrix(1 0 0 1 -0.47 28.545)" id="Layer_1">
<linearGradient id="SVGID_1669" gradientUnits="userSpaceOnUse" gradientTransform="matrix(1 0 0 1 -49.53 -78.545)" x1="48.73" y1="67.57" x2="50.47" y2="105.92">
<stop offset="0%" style="stop-color:rgb(9,0,93);stop-opacity: 1"/>
<stop offset="100%" style="stop-color:rgb(26,15,145);stop-opacity: 1"/>
</linearGradient>
<polygon style="stroke: none; stroke-width: 1; stroke-dasharray: none; stroke-linecap: butt; stroke-dashoffset: 0; stroke-linejoin: miter; stroke-miterlimit: 4; is-custom-font: none; font-file-url: none; fill: url(#SVGID_1669); fill-rule: nonzero; opacity: 1;" points="-7.17,-6.695 -8.66,6.695 8.66,6.695 6.41,-6.695 -7.17,-6.695 "/>
</g>
		<g transform="matrix(1 0 0 1 -2.1608 7.0165)" id="Layer_1">
<linearGradient id="SVGID_1670" gradientUnits="userSpaceOnUse" gradientTransform="matrix(1 0 0 1 0 0)" x1="47.84" y1="11.16" x2="47.84" y2="74.31">
<stop offset="0%" style="stop-color:rgb(9,0,93);stop-opacity: 1"/>
<stop offset="100%" style="stop-color:rgb(26,15,145);stop-opacity: 1"/>
</linearGradient>
<path style="stroke: none; stroke-width: 1; stroke-dasharray: none; stroke-linecap: butt; stroke-dashoffset: 0; stroke-linejoin: miter; stroke-miterlimit: 4; is-custom-font: none; font-file-url: none; fill: url(#SVGID_1670); fill-rule: nonzero; opacity: 1;" transform=" translate(-47.8392, -57.0165)" d="m 10.16 39.16 v 33.43 c 0 2.75 2.19 5 4.94 5.07 c 12.21 0.31 54.91 1.08 66.53 0.91 c 2 -0.03 3.62 -1.63 3.67 -3.62 c 0.22 -7.77 0.59 -26.44 -0.76 -35.11 c -0.28 -1.83 -1.82 -3.19 -3.67 -3.25 c -10.23 -0.33 -55.49 -1.37 -67.11 -1.11 c -2 0.04 -3.6 1.68 -3.6 3.69 Z" stroke-linecap="round"/>
</g>
		<g transform="matrix(1 0 0 1 -2.395 5.6098)" id="Layer_1">
<linearGradient id="SVGID_1671" gradientUnits="userSpaceOnUse" gradientTransform="matrix(1 0 0 1 0 0)" x1="52.09" y1="26.53" x2="41.08" y2="96.41">
<stop offset="0%" style="stop-color:rgb(253,245,63);stop-opacity: 1"/>
<stop offset="100%" style="stop-color:rgb(217,60,101);stop-opacity: 1"/>
</linearGradient>
<path style="stroke: none; stroke-width: 1; stroke-dasharray: none; stroke-linecap: butt; stroke-dashoffset: 0; stroke-linejoin: miter; stroke-miterlimit: 4; is-custom-font: none; font-file-url: none; fill: url(#SVGID_1671); fill-rule: nonzero; opacity: 1;" transform=" translate(-47.605, -55.6098)" d="m 12.25 38.99 v 31.76 c 0 1.61 1.29 2.91 2.89 2.94 l 64.81 0.8 c 1.59 0.02 2.9 -1.26 2.9 -2.85 l 0.11 -31.47 c 0 -1.14 -0.9 -2.07 -2.04 -2.1 l -66.35 -1.34 c -1.27 -0.03 -2.32 0.99 -2.32 2.26 Z" stroke-linecap="round"/>
</g>
		<g transform="matrix(1 0 0 1 -2.2 25.1)" id="Layer_1">
<path style="stroke: none; stroke-width: 1; stroke-dasharray: none; stroke-linecap: butt; stroke-dashoffset: 0; stroke-linejoin: miter; stroke-miterlimit: 4; is-custom-font: none; font-file-url: none; fill: rgb(145,179,250); fill-rule: nonzero; opacity: 1;" transform=" translate(-47.8, -75.1)" d="m 83.34 75.79 h 0 l -71.09 -1.21 s -0.08 -0.04 -0.08 -0.09 c 0 -0.05 0.04 -0.08 0.09 -0.08 l 71.09 1.21 s 0.08 0.04 0.08 0.09 c 0 0.05 -0.04 0.08 -0.08 0.08 Z" stroke-linecap="round"/>
</g>
		<g transform="matrix(1 0 0 1 -2.395 5.6098)" id="Layer_1">
<linearGradient id="SVGID_1672" gradientUnits="userSpaceOnUse" gradientTransform="matrix(1 0 0 1 0 0)" x1="52.09" y1="26.53" x2="41.08" y2="96.41">
<stop offset="0%" style="stop-color:rgb(254,112,98);stop-opacity: 1"/>
<stop offset="100%" style="stop-color:rgb(255,146,142);stop-opacity: 1"/>
</linearGradient>
<path style="stroke: none; stroke-width: 1; stroke-dasharray: none; stroke-linecap: butt; stroke-dashoffset: 0; stroke-linejoin: miter; stroke-miterlimit: 4; is-custom-font: none; font-file-url: none; fill: url(#SVGID_1672); fill-rule: nonzero; opacity: 1;" transform=" translate(-47.605, -55.6098)" d="m 12.25 38.99 v 31.76 c 0 1.61 1.29 2.91 2.89 2.94 l 64.81 0.8 c 1.59 0.02 2.9 -1.26 2.9 -2.85 l 0.11 -31.47 c 0 -1.14 -0.9 -2.07 -2.04 -2.1 l -66.35 -1.34 c -1.27 -0.03 -2.32 0.99 -2.32 2.26 Z" stroke-linecap="round"/>
</g>
		<g transform="matrix(1 0 0 1 -1.5 26.44)" id="Layer_1">
<path style="stroke: none; stroke-width: 1; stroke-dasharray: none; stroke-linecap: butt; stroke-dashoffset: 0; stroke-linejoin: miter; stroke-miterlimit: 4; is-custom-font: none; font-file-url: none; fill: rgb(145,179,250); fill-rule: nonzero; opacity: 1;" transform=" translate(-48.5, -76.44)" d="m 48.5 77.26 c -0.45 0 -0.82 -0.37 -0.82 -0.82 s 0.37 -0.82 0.82 -0.82 s 0.82 0.37 0.82 0.82 s -0.37 0.82 -0.82 0.82 Z m 0 -1.48 c -0.36 0 -0.66 0.29 -0.66 0.66 s 0.29 0.66 0.66 0.66 s 0.66 -0.29 0.66 -0.66 s -0.29 -0.66 -0.66 -0.66 Z" stroke-linecap="round"/>
</g>
		<g transform="matrix(1 0 0 1 -0.7435 36.0995)" id="Layer_1">
<linearGradient id="SVGID_1673" gradientUnits="userSpaceOnUse" gradientTransform="matrix(1 0 0 1 0 0)" x1="49.25" y1="55.33" x2="49.25" y2="85.35">
<stop offset="0%" style="stop-color:rgb(9,0,93);stop-opacity: 1"/>
<stop offset="100%" style="stop-color:rgb(26,15,145);stop-opacity: 1"/>
</linearGradient>
<path style="stroke: none; stroke-width: 1; stroke-dasharray: none; stroke-linecap: butt; stroke-dashoffset: 0; stroke-linejoin: miter; stroke-miterlimit: 4; is-custom-font: none; font-file-url: none; fill: url(#SVGID_1673); fill-rule: nonzero; opacity: 1;" transform=" translate(-49.2565, -86.0995)" d="m 61.93 87.98 h -25.36 c -0.69 0 -1.21 -0.49 -1.07 -1.02 l 0.33 -1.29 c 0.1 -0.39 0.52 -0.67 1.03 -0.69 l 24.45 -0.76 c 0.53 -0.02 1 0.26 1.11 0.67 l 0.59 2.05 c 0.15 0.53 -0.37 1.04 -1.07 1.04 Z" stroke-linecap="round"/>
</g>
		<g transform="matrix(1 0 0 1 0.75 35.245)" id="Layer_1">
<path style="stroke: none; stroke-width: 1; stroke-dasharray: none; stroke-linecap: butt; stroke-dashoffset: 0; stroke-linejoin: miter; stroke-miterlimit: 4; is-custom-font: none; font-file-url: none; fill: rgb(145,179,250); fill-rule: nonzero; opacity: 1;" transform=" translate(-50.75, -85.245)" d="m 50.22 85.34 s -0.08 -0.04 -0.08 -0.08 c 0 -0.05 0.04 -0.09 0.08 -0.09 l 1.05 -0.02 s 0.09 0.04 0.09 0.08 c 0 0.05 -0.04 0.09 -0.08 0.09 l -1.05 0.02 h 0 Z" stroke-linecap="round"/>
</g>
		<g transform="matrix(1 0 0 1 -7.4659 36.24)" id="Layer_1">
<path style="stroke: none; stroke-width: 1; stroke-dasharray: none; stroke-linecap: butt; stroke-dashoffset: 0; stroke-linejoin: miter; stroke-miterlimit: 4; is-custom-font: none; font-file-url: none; fill: rgb(145,179,250); fill-rule: nonzero; opacity: 1;" transform=" translate(-42.534, -86.24)" d="m 36.43 87.28 s 0 0 -0.01 0 c -0.05 0 -0.08 -0.05 -0.07 -0.1 l 0.15 -0.94 c 0.08 -0.5 0.51 -0.88 1.02 -0.88 l 11.11 -0.16 s 0.09 0.04 0.09 0.08 c 0 0.05 -0.04 0.09 -0.08 0.09 l -11.11 0.16 c -0.43 0 -0.79 0.32 -0.85 0.74 l -0.15 0.94 s -0.04 0.07 -0.08 0.07 Z" stroke-linecap="round"/>
</g>
		<g transform="matrix(1 0 0 1 10.8399 -17.4649)" id="Layer_1">
<path style="stroke: none; stroke-width: 1; stroke-dasharray: none; stroke-linecap: butt; stroke-dashoffset: 0; stroke-linejoin: miter; stroke-miterlimit: 4; is-custom-font: none; font-file-url: none; fill: rgb(145,179,250); fill-rule: nonzero; opacity: 1;" transform=" translate(-60.8399, -32.5351)" d="m 77.94 24.92 l -34.21 -0.16 c -0.41 0 -0.75 0.45 -0.74 1.01 l 0.08 13.54 c 0 0.56 0.35 1.01 0.76 1 l 34.02 -0.73 c 0.4 -0.02 0.71 -0.45 0.72 -0.99 l 0.12 -12.64 c 0 -0.56 -0.32 -1.01 -0.73 -1.02 Z" stroke-linecap="round"/>
</g>
		<g transform="matrix(1 0 0 1 10.825 -17.48)" id="Layer_1">
<path style="stroke: none; stroke-width: 1; stroke-dasharray: none; stroke-linecap: butt; stroke-dashoffset: 0; stroke-linejoin: miter; stroke-miterlimit: 4; is-custom-font: none; font-file-url: none; fill: rgb(189,208,251); fill-rule: nonzero; opacity: 1;" transform=" translate(-60.825, -32.52)" d="m 43.8 39.43 c -0.06 0 -0.11 -0.06 -0.11 -0.14 l -0.08 -13.54 s 0 -0.07 0.03 -0.09 c 0.03 -0.04 0.06 -0.05 0.08 -0.05 l 34.21 0.16 s 0.06 0 0.08 0.05 c 0.02 0.03 0.03 0.06 0.03 0.09 l -0.12 12.64 c 0 0.07 -0.05 0.13 -0.11 0.14 h 0 l -34.02 0.73 Z m -0.08 -13.72 s 0 0 -0.01 0 c 0 0.01 -0.01 0.02 -0.01 0.04 l 0.08 13.54 s 0.02 0.05 0.02 0.05 l 34.02 -0.73 s 0.02 -0.02 0.02 -0.05 l 0.12 -12.64 s 0 -0.03 -0.01 -0.04 c 0 0 -0.01 0 -0.01 0 l -34.21 -0.16 Z" stroke-linecap="round"/>
</g>
		<g transform="matrix(1 0 0 1 -4.055 -14.91)" id="Layer_1">
<rect style="stroke: none; stroke-width: 1; stroke-dasharray: none; stroke-linecap: butt; stroke-dashoffset: 0; stroke-linejoin: miter; stroke-miterlimit: 4; is-custom-font: none; font-file-url: none; fill: rgb(255,255,255); fill-rule: nonzero; opacity: 0.6;" x="-0.835" y="-3.18" rx="0" ry="0" width="1.67" height="6.36"/>
</g>
		<g transform="matrix(1 0 0 1 -1.275 -13.81)" id="Layer_1">
<rect style="stroke: none; stroke-width: 1; stroke-dasharray: none; stroke-linecap: butt; stroke-dashoffset: 0; stroke-linejoin: miter; stroke-miterlimit: 4; is-custom-font: none; font-file-url: none; fill: rgb(255,255,255); fill-rule: nonzero; opacity: 0.6;" x="-0.835" y="-2.09" rx="0" ry="0" width="1.67" height="4.18"/>
</g>
		<g transform="matrix(1 0 0 1 1.515 -16.51)" id="Layer_1">
<rect style="stroke: none; stroke-width: 1; stroke-dasharray: none; stroke-linecap: butt; stroke-dashoffset: 0; stroke-linejoin: miter; stroke-miterlimit: 4; is-custom-font: none; font-file-url: none; fill: rgb(255,255,255); fill-rule: nonzero; opacity: 0.6;" x="-0.835" y="-4.79" rx="0" ry="0" width="1.67" height="9.58"/>
</g>
		<g transform="matrix(1 0 0 1 4.295 -12.87)" id="Layer_1">
<rect style="stroke: none; stroke-width: 1; stroke-dasharray: none; stroke-linecap: butt; stroke-dashoffset: 0; stroke-linejoin: miter; stroke-miterlimit: 4; is-custom-font: none; font-file-url: none; fill: rgb(255,255,255); fill-rule: nonzero; opacity: 0.6;" x="-0.835" y="-1.15" rx="0" ry="0" width="1.67" height="2.3"/>
</g>
		<g transform="matrix(1 0 0 1 7.075 -15.87)" id="Layer_1">
<rect style="stroke: none; stroke-width: 1; stroke-dasharray: none; stroke-linecap: butt; stroke-dashoffset: 0; stroke-linejoin: miter; stroke-miterlimit: 4; is-custom-font: none; font-file-url: none; fill: rgb(255,255,255); fill-rule: nonzero; opacity: 0.6;" x="-0.835" y="-4.15" rx="0" ry="0" width="1.67" height="8.3"/>
</g>
		<g transform="matrix(1 0 0 1 9.855 -15.16)" id="Layer_1">
<rect style="stroke: none; stroke-width: 1; stroke-dasharray: none; stroke-linecap: butt; stroke-dashoffset: 0; stroke-linejoin: miter; stroke-miterlimit: 4; is-custom-font: none; font-file-url: none; fill: rgb(255,255,255); fill-rule: nonzero; opacity: 0.6;" x="-0.835" y="-3.43" rx="0" ry="0" width="1.67" height="6.86"/>
</g>
		<g transform="matrix(1 0 0 1 12.635 -14.37)" id="Layer_1">
<rect style="stroke: none; stroke-width: 1; stroke-dasharray: none; stroke-linecap: butt; stroke-dashoffset: 0; stroke-linejoin: miter; stroke-miterlimit: 4; is-custom-font: none; font-file-url: none; fill: rgb(255,255,255); fill-rule: nonzero; opacity: 0.6;" x="-0.835" y="-2.65" rx="0" ry="0" width="1.67" height="5.3"/>
</g>
		<g transform="matrix(1 0 0 1 15.425 -17.48)" id="Layer_1">
<rect style="stroke: none; stroke-width: 1; stroke-dasharray: none; stroke-linecap: butt; stroke-dashoffset: 0; stroke-linejoin: miter; stroke-miterlimit: 4; is-custom-font: none; font-file-url: none; fill: rgb(255,255,255); fill-rule: nonzero; opacity: 0.6;" x="-0.835" y="-5.76" rx="0" ry="0" width="1.67" height="11.52"/>
</g>
		<g transform="matrix(1 0 0 1 18.205 -16.87)" id="Layer_1">
<rect style="stroke: none; stroke-width: 1; stroke-dasharray: none; stroke-linecap: butt; stroke-dashoffset: 0; stroke-linejoin: miter; stroke-miterlimit: 4; is-custom-font: none; font-file-url: none; fill: rgb(255,255,255); fill-rule: nonzero; opacity: 0.6;" x="-0.835" y="-5.15" rx="0" ry="0" width="1.67" height="10.3"/>
</g>
		<g transform="matrix(1 0 0 1 20.985 -15.95)" id="Layer_1">
<rect style="stroke: none; stroke-width: 1; stroke-dasharray: none; stroke-linecap: butt; stroke-dashoffset: 0; stroke-linejoin: miter; stroke-miterlimit: 4; is-custom-font: none; font-file-url: none; fill: rgb(255,255,255); fill-rule: nonzero; opacity: 0.6;" x="-0.835" y="-4.23" rx="0" ry="0" width="1.67" height="8.46"/>
</g>
		<g transform="matrix(1 0 0 1 23.765 -12.765)" id="Layer_1">
<rect style="stroke: none; stroke-width: 1; stroke-dasharray: none; stroke-linecap: butt; stroke-dashoffset: 0; stroke-linejoin: miter; stroke-miterlimit: 4; is-custom-font: none; font-file-url: none; fill: rgb(255,255,255); fill-rule: nonzero; opacity: 0.6;" x="-0.835" y="-1.045" rx="0" ry="0" width="1.67" height="2.09"/>
</g>
		<g transform="matrix(1 0 0 1 26.555 -14.8)" id="Layer_1">
<rect style="stroke: none; stroke-width: 1; stroke-dasharray: none; stroke-linecap: butt; stroke-dashoffset: 0; stroke-linejoin: miter; stroke-miterlimit: 4; is-custom-font: none; font-file-url: none; fill: rgb(255,255,255); fill-rule: nonzero; opacity: 0.6;" x="-0.835" y="-3.07" rx="0" ry="0" width="1.67" height="6.14"/>
</g>
		<g transform="matrix(1 0 0 1 -22.975 -9.705)" id="Layer_1">
<path style="stroke: none; stroke-width: 1; stroke-dasharray: none; stroke-linecap: butt; stroke-dashoffset: 0; stroke-linejoin: miter; stroke-miterlimit: 4; is-custom-font: none; font-file-url: none; fill: rgb(145,179,250); fill-rule: nonzero; opacity: 1;" transform=" translate(-27.025, -40.295)" d="m 17.85 55.24 h 18.49 c 0.59 0 1.07 -0.48 1.07 -1.07 v -27.7 c 0 -0.59 -0.48 -1.07 -1.06 -1.07 l -18.64 -0.05 c -0.59 0 -1.07 0.48 -1.07 1.07 l 0.15 27.75 c 0 0.59 0.48 1.06 1.07 1.06 Z" stroke-linecap="round"/>
</g>
		<g transform="matrix(1 0 0 1 -22.99 -9.5599)" id="Layer_1">
<path style="stroke: none; stroke-width: 1; stroke-dasharray: none; stroke-linecap: butt; stroke-dashoffset: 0; stroke-linejoin: miter; stroke-miterlimit: 4; is-custom-font: none; font-file-url: none; fill: rgb(189,208,251); fill-rule: nonzero; opacity: 1;" transform=" translate(-27.01, -40.4401)" d="m 18.75 26.73 l 16.53 0.1 c 0.6 0 1.08 0.49 1.08 1.09 l -0.12 24.86 c 0 0.59 -0.48 1.07 -1.06 1.08 l -16.07 0.29 c -0.6 0.01 -1.09 -0.47 -1.1 -1.07 l -0.35 -25.25 c 0 -0.61 0.48 -1.1 1.09 -1.1 Z" stroke-linecap="round"/>
</g>
		<g transform="matrix(1 0 0 1 -23.885 -21.82)" id="Layer_1">
<rect style="stroke: none; stroke-width: 1; stroke-dasharray: none; stroke-linecap: butt; stroke-dashoffset: 0; stroke-linejoin: miter; stroke-miterlimit: 4; is-custom-font: none; font-file-url: none; fill: rgb(255,255,255); fill-rule: nonzero; opacity: 0.6;" x="-6.695" y="-0.38" rx="0.32" ry="0.32" width="13.39" height="0.76"/>
</g>
		<g transform="matrix(1 0 0 1 -23.2553 -20.355)" id="Layer_1">
<path style="stroke: none; stroke-width: 1; stroke-dasharray: none; stroke-linecap: butt; stroke-dashoffset: 0; stroke-linejoin: miter; stroke-miterlimit: 4; is-custom-font: none; font-file-url: none; fill: rgb(255,255,255); fill-rule: nonzero; opacity: 0.6;" transform=" translate(-26.7448, -29.645)" d="m 20.85 29.56 h 0 c 0 0.17 0.15 0.3 0.32 0.31 l 11.14 0.2 c 0.18 0 0.33 -0.14 0.33 -0.32 v -0.03 c 0 -0.18 -0.14 -0.32 -0.32 -0.32 l -11.14 -0.18 c -0.19 0 -0.34 0.15 -0.33 0.34 Z" stroke-linecap="round"/>
</g>
		<g transform="matrix(1 0 0 1 -22.935 -7.93)" id="Layer_1">
<path style="stroke: none; stroke-width: 1; stroke-dasharray: none; stroke-linecap: butt; stroke-dashoffset: 0; stroke-linejoin: miter; stroke-miterlimit: 4; is-custom-font: none; font-file-url: none; fill: rgb(255,255,255); fill-rule: nonzero; opacity: 0.61;" transform=" translate(-27.065, -42.07)" d="m 19.71 53.32 c -0.51 0 -0.93 -0.41 -0.94 -0.92 l -0.36 -20.33 c 0 -0.52 0.4 -0.95 0.92 -0.96 l 15.04 -0.29 c 0.25 0 0.49 0.09 0.67 0.26 c 0.18 0.17 0.28 0.41 0.29 0.66 l 0.39 20.44 c 0 0.25 -0.09 0.49 -0.26 0.67 c -0.18 0.18 -0.41 0.28 -0.66 0.29 l -15.07 0.18 s 0 0 -0.01 0 Z m 14.68 -22.16 s 0 0 -0.01 0 l -15.04 0.29 c -0.33 0 -0.59 0.28 -0.59 0.61 h 0 l 0.36 20.33 c 0 0.33 0.27 0.59 0.6 0.59 c 0 0 0 0 0 0 l 15.07 -0.18 c 0.16 0 0.31 -0.07 0.42 -0.18 c 0.11 -0.12 0.17 -0.27 0.17 -0.43 l -0.39 -20.44 c 0 -0.16 -0.07 -0.31 -0.18 -0.42 c -0.11 -0.11 -0.26 -0.17 -0.42 -0.17 Z" stroke-linecap="round"/>
</g>
		<g transform="matrix(1 0 0 1 -23.025 -16.97)" id="Layer_1">
<path style="stroke: none; stroke-width: 1; stroke-dasharray: none; stroke-linecap: butt; stroke-dashoffset: 0; stroke-linejoin: miter; stroke-miterlimit: 4; is-custom-font: none; font-file-url: none; fill: rgb(255,255,255); fill-rule: nonzero; opacity: 0.61;" transform=" translate(-26.975, -33.03)" d="m 35.18 33.2 h -16.41 c -0.09 0 -0.17 -0.08 -0.17 -0.17 s 0.08 -0.17 0.17 -0.17 h 16.41 c 0.09 0 0.17 0.08 0.17 0.17 s -0.08 0.17 -0.17 0.17 Z" stroke-linecap="round"/>
</g>
		<g transform="matrix(1 0 0 1 -22.56 -7.07)" id="Layer_1">
<path style="stroke: none; stroke-width: 1; stroke-dasharray: none; stroke-linecap: butt; stroke-dashoffset: 0; stroke-linejoin: miter; stroke-miterlimit: 4; is-custom-font: none; font-file-url: none; fill: rgb(255,255,255); fill-rule: nonzero; opacity: 0.73;" transform=" translate(-27.44, -42.93)" d="m 27.44 49.38 c -3.56 0 -6.45 -2.89 -6.45 -6.45 s 2.89 -6.45 6.45 -6.45 s 6.45 2.89 6.45 6.45 s -2.89 6.45 -6.45 6.45 Z m 0 -10.88 c -2.44 0 -4.43 1.99 -4.43 4.43 s 1.99 4.43 4.43 4.43 s 4.43 -1.99 4.43 -4.43 s -1.99 -4.43 -4.43 -4.43 Z" stroke-linecap="round"/>
</g>
		<g transform="matrix(1 0 0 1 -17.26 -6.215)" id="Layer_1">
<path style="stroke: none; stroke-width: 1; stroke-dasharray: none; stroke-linecap: butt; stroke-dashoffset: 0; stroke-linejoin: miter; stroke-miterlimit: 4; is-custom-font: none; font-file-url: none; fill: rgb(125,151,244); fill-rule: nonzero; opacity: 1;" transform=" translate(-32.74, -43.785)" d="m 33.87 42.45 l -2.02 0.15 c 0 0.11 0.01 0.22 0.01 0.33 c 0 0.53 -0.09 1.03 -0.26 1.5 l 1.9 0.69 c 0.25 -0.68 0.38 -1.42 0.38 -2.19 c 0 -0.16 0 -0.32 -0.02 -0.48 Z" stroke-linecap="round"/>
</g>
		<g transform="matrix(1 0 0 1 -22.75 -7.07)" id="Layer_1">
<path style="stroke: none; stroke-width: 1; stroke-dasharray: none; stroke-linecap: butt; stroke-dashoffset: 0; stroke-linejoin: miter; stroke-miterlimit: 4; is-custom-font: none; font-file-url: none; fill: rgb(145,179,250); fill-rule: nonzero; opacity: 1;" transform=" translate(-27.25, -42.93)" d="m 27.44 47.36 c -2.44 0 -4.43 -1.99 -4.43 -4.43 s 1.99 -4.43 4.43 -4.43 c 0.37 0 0.73 0.05 1.08 0.13 l 0.49 -1.96 c -0.5 -0.13 -1.03 -0.19 -1.57 -0.19 c -3.56 0 -6.45 2.89 -6.45 6.45 s 2.89 6.45 6.45 6.45 c 2.79 0 5.17 -1.78 6.07 -4.26 l -1.9 -0.69 c -0.62 1.7 -2.25 2.92 -4.16 2.92 Z" stroke-linecap="round"/>
</g>
		<g transform="matrix(1 0 0 1 -17.355 -8.64)" id="Layer_1">
<path style="stroke: none; stroke-width: 1; stroke-dasharray: none; stroke-linecap: butt; stroke-dashoffset: 0; stroke-linejoin: miter; stroke-miterlimit: 4; is-custom-font: none; font-file-url: none; fill: rgb(145,179,250); fill-rule: nonzero; opacity: 1;" transform=" translate(-32.645, -41.36)" d="m 31.85 42.6 l 2.02 -0.15 c -0.06 -0.83 -0.28 -1.62 -0.63 -2.34 l -1.82 0.89 c 0.24 0.49 0.39 1.03 0.44 1.61 Z" stroke-linecap="round"/>
</g>
		<g transform="matrix(1 0 0 1 -23.215 23.255)" id="Layer_1" clip-path="url(#CLIPPATH_1700)">
<clipPath id="CLIPPATH_1700">
	<path transform="matrix(1 0 0 1 20.82 -17.6452) translate(-47.605, -55.6098)" id="clippath" d="m 12.25 38.99 v 31.76 c 0 1.61 1.29 2.91 2.89 2.94 l 64.81 0.8 c 1.59 0.02 2.9 -1.26 2.9 -2.85 l 0.11 -31.47 c 0 -1.14 -0.9 -2.07 -2.04 -2.1 l -66.35 -1.34 c -1.27 -0.03 -2.32 0.99 -2.32 2.26 Z" stroke-linecap="round"/>
</clipPath>
<path style="stroke: none; stroke-width: 1; stroke-dasharray: none; stroke-linecap: butt; stroke-dashoffset: 0; stroke-linejoin: miter; stroke-miterlimit: 4; is-custom-font: none; font-file-url: none; fill: rgb(145,179,250); fill-rule: nonzero; opacity: 1;" transform=" translate(-26.785, -73.255)" d="m 17.61 88.2 h 18.49 c 0.59 0 1.07 -0.48 1.07 -1.07 v -27.7 c 0 -0.59 -0.48 -1.07 -1.06 -1.07 l -18.64 -0.05 c -0.59 0 -1.07 0.48 -1.07 1.07 l 0.15 27.75 c 0 0.59 0.48 1.06 1.07 1.06 Z" stroke-linecap="round"/>
</g>
		<g transform="matrix(1 0 0 1 -23.23 23.3901)" id="Layer_1" clip-path="url(#CLIPPATH_1701)">
<clipPath id="CLIPPATH_1701">
	<path transform="matrix(1 0 0 1 20.835 -17.7803) translate(-47.605, -55.6098)" id="clippath" d="m 12.25 38.99 v 31.76 c 0 1.61 1.29 2.91 2.89 2.94 l 64.81 0.8 c 1.59 0.02 2.9 -1.26 2.9 -2.85 l 0.11 -31.47 c 0 -1.14 -0.9 -2.07 -2.04 -2.1 l -66.35 -1.34 c -1.27 -0.03 -2.32 0.99 -2.32 2.26 Z" stroke-linecap="round"/>
</clipPath>
<path style="stroke: none; stroke-width: 1; stroke-dasharray: none; stroke-linecap: butt; stroke-dashoffset: 0; stroke-linejoin: miter; stroke-miterlimit: 4; is-custom-font: none; font-file-url: none; fill: rgb(189,208,251); fill-rule: nonzero; opacity: 1;" transform=" translate(-26.77, -73.3901)" d="m 18.51 59.68 l 16.53 0.1 c 0.6 0 1.08 0.49 1.08 1.09 l -0.12 24.86 c 0 0.59 -0.48 1.07 -1.06 1.08 l -16.07 0.29 c -0.6 0.01 -1.09 -0.47 -1.1 -1.07 l -0.35 -25.25 c 0 -0.61 0.48 -1.1 1.09 -1.1 Z" stroke-linecap="round"/>
</g>
		<g transform="matrix(1 0 0 1 -24.115 11.13)" id="Layer_1" clip-path="url(#CLIPPATH_1702)">
<clipPath id="CLIPPATH_1702">
	<path transform="matrix(1 0 0 1 21.72 -5.5202) translate(-47.605, -55.6098)" id="clippath" d="m 12.25 38.99 v 31.76 c 0 1.61 1.29 2.91 2.89 2.94 l 64.81 0.8 c 1.59 0.02 2.9 -1.26 2.9 -2.85 l 0.11 -31.47 c 0 -1.14 -0.9 -2.07 -2.04 -2.1 l -66.35 -1.34 c -1.27 -0.03 -2.32 0.99 -2.32 2.26 Z" stroke-linecap="round"/>
</clipPath>
<rect style="stroke: none; stroke-width: 1; stroke-dasharray: none; stroke-linecap: butt; stroke-dashoffset: 0; stroke-linejoin: miter; stroke-miterlimit: 4; is-custom-font: none; font-file-url: none; fill: rgb(255,255,255); fill-rule: nonzero; opacity: 0.6;" x="-6.695" y="-0.38" rx="0.32" ry="0.32" width="13.39" height="0.76"/>
</g>
		<g transform="matrix(1 0 0 1 -23.4953 12.595)" id="Layer_1" clip-path="url(#CLIPPATH_1703)">
<clipPath id="CLIPPATH_1703">
	<path transform="matrix(1 0 0 1 21.1002 -6.9852) translate(-47.605, -55.6098)" id="clippath" d="m 12.25 38.99 v 31.76 c 0 1.61 1.29 2.91 2.89 2.94 l 64.81 0.8 c 1.59 0.02 2.9 -1.26 2.9 -2.85 l 0.11 -31.47 c 0 -1.14 -0.9 -2.07 -2.04 -2.1 l -66.35 -1.34 c -1.27 -0.03 -2.32 0.99 -2.32 2.26 Z" stroke-linecap="round"/>
</clipPath>
<path style="stroke: none; stroke-width: 1; stroke-dasharray: none; stroke-linecap: butt; stroke-dashoffset: 0; stroke-linejoin: miter; stroke-miterlimit: 4; is-custom-font: none; font-file-url: none; fill: rgb(255,255,255); fill-rule: nonzero; opacity: 0.6;" transform=" translate(-26.5048, -62.595)" d="m 20.61 62.51 h 0 c 0 0.17 0.15 0.3 0.32 0.31 l 11.14 0.2 c 0.18 0 0.33 -0.14 0.33 -0.32 v -0.03 c 0 -0.18 -0.14 -0.32 -0.32 -0.32 l -11.14 -0.18 c -0.19 0 -0.34 0.15 -0.33 0.34 Z" stroke-linecap="round"/>
</g>
		<g transform="matrix(1 0 0 1 -23.175 25.02)" id="Layer_1" clip-path="url(#CLIPPATH_1704)">
<clipPath id="CLIPPATH_1704">
	<path transform="matrix(1 0 0 1 20.78 -19.4102) translate(-47.605, -55.6098)" id="clippath" d="m 12.25 38.99 v 31.76 c 0 1.61 1.29 2.91 2.89 2.94 l 64.81 0.8 c 1.59 0.02 2.9 -1.26 2.9 -2.85 l 0.11 -31.47 c 0 -1.14 -0.9 -2.07 -2.04 -2.1 l -66.35 -1.34 c -1.27 -0.03 -2.32 0.99 -2.32 2.26 Z" stroke-linecap="round"/>
</clipPath>
<path style="stroke: none; stroke-width: 1; stroke-dasharray: none; stroke-linecap: butt; stroke-dashoffset: 0; stroke-linejoin: miter; stroke-miterlimit: 4; is-custom-font: none; font-file-url: none; fill: rgb(255,255,255); fill-rule: nonzero; opacity: 0.61;" transform=" translate(-26.825, -75.02)" d="m 19.47 86.27 c -0.51 0 -0.93 -0.41 -0.94 -0.92 l -0.36 -20.33 c 0 -0.52 0.4 -0.95 0.92 -0.96 l 15.04 -0.29 c 0.25 0 0.49 0.09 0.67 0.26 c 0.18 0.17 0.28 0.41 0.29 0.66 l 0.39 20.44 c 0 0.25 -0.09 0.49 -0.26 0.67 c -0.18 0.18 -0.41 0.28 -0.66 0.29 l -15.07 0.18 s 0 0 -0.01 0 Z m 14.68 -22.16 s 0 0 -0.01 0 l -15.04 0.29 c -0.33 0 -0.59 0.28 -0.59 0.61 h 0 l 0.36 20.33 c 0 0.33 0.28 0.59 0.61 0.59 l 15.07 -0.18 c 0.16 0 0.31 -0.07 0.42 -0.18 c 0.11 -0.12 0.17 -0.27 0.17 -0.43 l -0.39 -20.44 c 0 -0.16 -0.07 -0.31 -0.18 -0.42 c -0.11 -0.11 -0.26 -0.17 -0.42 -0.17 Z" stroke-linecap="round"/>
</g>
		<g transform="matrix(1 0 0 1 -23.255 15.98)" id="Layer_1" clip-path="url(#CLIPPATH_1705)">
<clipPath id="CLIPPATH_1705">
	<path transform="matrix(1 0 0 1 20.86 -10.3702) translate(-47.605, -55.6098)" id="clippath" d="m 12.25 38.99 v 31.76 c 0 1.61 1.29 2.91 2.89 2.94 l 64.81 0.8 c 1.59 0.02 2.9 -1.26 2.9 -2.85 l 0.11 -31.47 c 0 -1.14 -0.9 -2.07 -2.04 -2.1 l -66.35 -1.34 c -1.27 -0.03 -2.32 0.99 -2.32 2.26 Z" stroke-linecap="round"/>
</clipPath>
<path style="stroke: none; stroke-width: 1; stroke-dasharray: none; stroke-linecap: butt; stroke-dashoffset: 0; stroke-linejoin: miter; stroke-miterlimit: 4; is-custom-font: none; font-file-url: none; fill: rgb(255,255,255); fill-rule: nonzero; opacity: 0.61;" transform=" translate(-26.745, -65.98)" d="m 34.95 66.15 h -16.41 c -0.09 0 -0.17 -0.08 -0.17 -0.17 s 0.08 -0.17 0.17 -0.17 h 16.41 c 0.09 0 0.17 0.08 0.17 0.17 s -0.08 0.17 -0.17 0.17 Z" stroke-linecap="round"/>
</g>
		<g transform="matrix(1 0 0 1 10.9399 21.6253)" id="Layer_1" clip-path="url(#CLIPPATH_1706)">
<clipPath id="CLIPPATH_1706">
	<path transform="matrix(1 0 0 1 -13.3349 -16.0156) translate(-47.605, -55.6098)" id="clippath" d="m 12.25 38.99 v 31.76 c 0 1.61 1.29 2.91 2.89 2.94 l 64.81 0.8 c 1.59 0.02 2.9 -1.26 2.9 -2.85 l 0.11 -31.47 c 0 -1.14 -0.9 -2.07 -2.04 -2.1 l -66.35 -1.34 c -1.27 -0.03 -2.32 0.99 -2.32 2.26 Z" stroke-linecap="round"/>
</clipPath>
<path style="stroke: none; stroke-width: 1; stroke-dasharray: none; stroke-linecap: butt; stroke-dashoffset: 0; stroke-linejoin: miter; stroke-miterlimit: 4; is-custom-font: none; font-file-url: none; fill: rgb(145,179,250); fill-rule: nonzero; opacity: 1;" transform=" translate(-60.9399, -71.6253)" d="m 78.48 63.83 l -35.07 -0.17 c -0.42 0 -0.77 0.46 -0.76 1.04 l 0.08 13.87 c 0 0.58 0.36 1.04 0.78 1.02 l 34.87 -0.75 c 0.41 -0.02 0.73 -0.47 0.73 -1.02 l 0.12 -12.96 c 0 -0.57 -0.33 -1.04 -0.75 -1.04 Z" stroke-linecap="round"/>
</g>
		<g transform="matrix(1 0 0 1 10.935 21.63)" id="Layer_1" clip-path="url(#CLIPPATH_1707)">
<clipPath id="CLIPPATH_1707">
	<path transform="matrix(1 0 0 1 -13.33 -16.0202) translate(-47.605, -55.6098)" id="clippath" d="m 12.25 38.99 v 31.76 c 0 1.61 1.29 2.91 2.89 2.94 l 64.81 0.8 c 1.59 0.02 2.9 -1.26 2.9 -2.85 l 0.11 -31.47 c 0 -1.14 -0.9 -2.07 -2.04 -2.1 l -66.35 -1.34 c -1.27 -0.03 -2.32 0.99 -2.32 2.26 Z" stroke-linecap="round"/>
</clipPath>
<path style="stroke: none; stroke-width: 1; stroke-dasharray: none; stroke-linecap: butt; stroke-dashoffset: 0; stroke-linejoin: miter; stroke-miterlimit: 4; is-custom-font: none; font-file-url: none; fill: rgb(189,208,251); fill-rule: nonzero; opacity: 1;" transform=" translate(-60.935, -71.63)" d="m 43.48 78.71 c -0.06 0 -0.12 -0.06 -0.12 -0.14 l -0.08 -13.87 s 0 -0.07 0.03 -0.1 c 0.03 -0.04 0.06 -0.05 0.09 -0.05 l 35.07 0.17 s 0.06 0 0.09 0.05 c 0.02 0.03 0.03 0.06 0.03 0.09 l -0.12 12.96 c 0 0.08 -0.05 0.14 -0.11 0.14 h 0 l -34.87 0.75 Z m -0.08 -14.07 s 0 0 -0.01 0 c 0 0.01 -0.01 0.02 -0.01 0.04 l 0.08 13.87 s 0.02 0.05 0.02 0.05 l 34.87 -0.75 s 0.02 -0.02 0.02 -0.05 l 0.12 -12.96 s 0 -0.03 -0.01 -0.04 c 0 -0.01 -0.01 -0.01 -0.01 -0.01 l -35.07 -0.17 Z" stroke-linecap="round"/>
</g>
		<g transform="matrix(0 -1 1 0 6.1 26.93)" id="Layer_1" clip-path="url(#CLIPPATH_1708)">
<clipPath id="CLIPPATH_1708">
	<path transform="matrix(0 1 -1 0 21.3202 -8.495) translate(-47.605, -55.6098)" id="clippath" d="m 12.25 38.99 v 31.76 c 0 1.61 1.29 2.91 2.89 2.94 l 64.81 0.8 c 1.59 0.02 2.9 -1.26 2.9 -2.85 l 0.11 -31.47 c 0 -1.14 -0.9 -2.07 -2.04 -2.1 l -66.35 -1.34 c -1.27 -0.03 -2.32 0.99 -2.32 2.26 Z" stroke-linecap="round"/>
</clipPath>
<rect style="stroke: none; stroke-width: 1; stroke-dasharray: none; stroke-linecap: butt; stroke-dashoffset: 0; stroke-linejoin: miter; stroke-miterlimit: 4; is-custom-font: none; font-file-url: none; fill: rgb(255,255,255); fill-rule: nonzero; opacity: 0.6;" x="-0.28" y="-4.05" rx="0" ry="0" width="0.56" height="8.1"/>
</g>
		<g transform="matrix(0 -1 1 0 7.5 25.98)" id="Layer_1" clip-path="url(#CLIPPATH_1709)">
<clipPath id="CLIPPATH_1709">
	<path transform="matrix(0 1 -1 0 20.3702 -9.895) translate(-47.605, -55.6098)" id="clippath" d="m 12.25 38.99 v 31.76 c 0 1.61 1.29 2.91 2.89 2.94 l 64.81 0.8 c 1.59 0.02 2.9 -1.26 2.9 -2.85 l 0.11 -31.47 c 0 -1.14 -0.9 -2.07 -2.04 -2.1 l -66.35 -1.34 c -1.27 -0.03 -2.32 0.99 -2.32 2.26 Z" stroke-linecap="round"/>
</clipPath>
<rect style="stroke: none; stroke-width: 1; stroke-dasharray: none; stroke-linecap: butt; stroke-dashoffset: 0; stroke-linejoin: miter; stroke-miterlimit: 4; is-custom-font: none; font-file-url: none; fill: rgb(255,255,255); fill-rule: nonzero; opacity: 0.6;" x="-0.28" y="-2.66" rx="0" ry="0" width="0.56" height="5.32"/>
</g>
		<g transform="matrix(0 -1 1 0 4.05 25.05)" id="Layer_1" clip-path="url(#CLIPPATH_1710)">
<clipPath id="CLIPPATH_1710">
	<path transform="matrix(0 1 -1 0 19.4402 -6.445) translate(-47.605, -55.6098)" id="clippath" d="m 12.25 38.99 v 31.76 c 0 1.61 1.29 2.91 2.89 2.94 l 64.81 0.8 c 1.59 0.02 2.9 -1.26 2.9 -2.85 l 0.11 -31.47 c 0 -1.14 -0.9 -2.07 -2.04 -2.1 l -66.35 -1.34 c -1.27 -0.03 -2.32 0.99 -2.32 2.26 Z" stroke-linecap="round"/>
</clipPath>
<rect style="stroke: none; stroke-width: 1; stroke-dasharray: none; stroke-linecap: butt; stroke-dashoffset: 0; stroke-linejoin: miter; stroke-miterlimit: 4; is-custom-font: none; font-file-url: none; fill: rgb(255,255,255); fill-rule: nonzero; opacity: 0.6;" x="-0.28" y="-6.1" rx="0" ry="0" width="0.56" height="12.2"/>
</g>
		<g transform="matrix(0 -1 1 0 8.685 24.1)" id="Layer_1" clip-path="url(#CLIPPATH_1711)">
<clipPath id="CLIPPATH_1711">
	<path transform="matrix(0 1 -1 0 18.4902 -11.08) translate(-47.605, -55.6098)" id="clippath" d="m 12.25 38.99 v 31.76 c 0 1.61 1.29 2.91 2.89 2.94 l 64.81 0.8 c 1.59 0.02 2.9 -1.26 2.9 -2.85 l 0.11 -31.47 c 0 -1.14 -0.9 -2.07 -2.04 -2.1 l -66.35 -1.34 c -1.27 -0.03 -2.32 0.99 -2.32 2.26 Z" stroke-linecap="round"/>
</clipPath>
<rect style="stroke: none; stroke-width: 1; stroke-dasharray: none; stroke-linecap: butt; stroke-dashoffset: 0; stroke-linejoin: miter; stroke-miterlimit: 4; is-custom-font: none; font-file-url: none; fill: rgb(255,255,255); fill-rule: nonzero; opacity: 0.6;" x="-0.28" y="-1.465" rx="0" ry="0" width="0.56" height="2.93"/>
</g>
		<g transform="matrix(0 -1 1 0 4.865 23.16)" id="Layer_1" clip-path="url(#CLIPPATH_1712)">
<clipPath id="CLIPPATH_1712">
	<path transform="matrix(0 1 -1 0 17.5502 -7.26) translate(-47.605, -55.6098)" id="clippath" d="m 12.25 38.99 v 31.76 c 0 1.61 1.29 2.91 2.89 2.94 l 64.81 0.8 c 1.59 0.02 2.9 -1.26 2.9 -2.85 l 0.11 -31.47 c 0 -1.14 -0.9 -2.07 -2.04 -2.1 l -66.35 -1.34 c -1.27 -0.03 -2.32 0.99 -2.32 2.26 Z" stroke-linecap="round"/>
</clipPath>
<rect style="stroke: none; stroke-width: 1; stroke-dasharray: none; stroke-linecap: butt; stroke-dashoffset: 0; stroke-linejoin: miter; stroke-miterlimit: 4; is-custom-font: none; font-file-url: none; fill: rgb(255,255,255); fill-rule: nonzero; opacity: 0.6;" x="-0.28" y="-5.285" rx="0" ry="0" width="0.56" height="10.57"/>
</g>
		<g transform="matrix(0 -1 1 0 5.79 22.22)" id="Layer_1" clip-path="url(#CLIPPATH_1713)">
<clipPath id="CLIPPATH_1713">
	<path transform="matrix(0 1 -1 0 16.6102 -8.185) translate(-47.605, -55.6098)" id="clippath" d="m 12.25 38.99 v 31.76 c 0 1.61 1.29 2.91 2.89 2.94 l 64.81 0.8 c 1.59 0.02 2.9 -1.26 2.9 -2.85 l 0.11 -31.47 c 0 -1.14 -0.9 -2.07 -2.04 -2.1 l -66.35 -1.34 c -1.27 -0.03 -2.32 0.99 -2.32 2.26 Z" stroke-linecap="round"/>
</clipPath>
<rect style="stroke: none; stroke-width: 1; stroke-dasharray: none; stroke-linecap: butt; stroke-dashoffset: 0; stroke-linejoin: miter; stroke-miterlimit: 4; is-custom-font: none; font-file-url: none; fill: rgb(255,255,255); fill-rule: nonzero; opacity: 0.6;" x="-0.28" y="-4.37" rx="0" ry="0" width="0.56" height="8.74"/>
</g>
		<g transform="matrix(0 -1 1 0 6.775 21.28)" id="Layer_1" clip-path="url(#CLIPPATH_1714)">
<clipPath id="CLIPPATH_1714">
	<path transform="matrix(0 1 -1 0 15.6702 -9.17) translate(-47.605, -55.6098)" id="clippath" d="m 12.25 38.99 v 31.76 c 0 1.61 1.29 2.91 2.89 2.94 l 64.81 0.8 c 1.59 0.02 2.9 -1.26 2.9 -2.85 l 0.11 -31.47 c 0 -1.14 -0.9 -2.07 -2.04 -2.1 l -66.35 -1.34 c -1.27 -0.03 -2.32 0.99 -2.32 2.26 Z" stroke-linecap="round"/>
</clipPath>
<rect style="stroke: none; stroke-width: 1; stroke-dasharray: none; stroke-linecap: butt; stroke-dashoffset: 0; stroke-linejoin: miter; stroke-miterlimit: 4; is-custom-font: none; font-file-url: none; fill: rgb(255,255,255); fill-rule: nonzero; opacity: 0.6;" x="-0.28" y="-3.375" rx="0" ry="0" width="0.56" height="6.75"/>
</g>
		<g transform="matrix(0 -1 1 0 2.825 20.34)" id="Layer_1" clip-path="url(#CLIPPATH_1715)">
<clipPath id="CLIPPATH_1715">
	<path transform="matrix(0 1 -1 0 14.7302 -5.22) translate(-47.605, -55.6098)" id="clippath" d="m 12.25 38.99 v 31.76 c 0 1.61 1.29 2.91 2.89 2.94 l 64.81 0.8 c 1.59 0.02 2.9 -1.26 2.9 -2.85 l 0.11 -31.47 c 0 -1.14 -0.9 -2.07 -2.04 -2.1 l -66.35 -1.34 c -1.27 -0.03 -2.32 0.99 -2.32 2.26 Z" stroke-linecap="round"/>
</clipPath>
<rect style="stroke: none; stroke-width: 1; stroke-dasharray: none; stroke-linecap: butt; stroke-dashoffset: 0; stroke-linejoin: miter; stroke-miterlimit: 4; is-custom-font: none; font-file-url: none; fill: rgb(255,255,255); fill-rule: nonzero; opacity: 0.6;" x="-0.28" y="-7.335" rx="0" ry="0" width="0.56" height="14.67"/>
</g>
		<g transform="matrix(0 -1 1 0 3.6 19.39)" id="Layer_1" clip-path="url(#CLIPPATH_1716)">
<clipPath id="CLIPPATH_1716">
	<path transform="matrix(0 1 -1 0 13.7802 -5.995) translate(-47.605, -55.6098)" id="clippath" d="m 12.25 38.99 v 31.76 c 0 1.61 1.29 2.91 2.89 2.94 l 64.81 0.8 c 1.59 0.02 2.9 -1.26 2.9 -2.85 l 0.11 -31.47 c 0 -1.14 -0.9 -2.07 -2.04 -2.1 l -66.35 -1.34 c -1.27 -0.03 -2.32 0.99 -2.32 2.26 Z" stroke-linecap="round"/>
</clipPath>
<rect style="stroke: none; stroke-width: 1; stroke-dasharray: none; stroke-linecap: butt; stroke-dashoffset: 0; stroke-linejoin: miter; stroke-miterlimit: 4; is-custom-font: none; font-file-url: none; fill: rgb(255,255,255); fill-rule: nonzero; opacity: 0.6;" x="-0.28" y="-6.56" rx="0" ry="0" width="0.56" height="13.12"/>
</g>
		<g transform="matrix(0 -1 1 0 4.775 18.46)" id="Layer_1" clip-path="url(#CLIPPATH_1717)">
<clipPath id="CLIPPATH_1717">
	<path transform="matrix(0 1 -1 0 12.8502 -7.17) translate(-47.605, -55.6098)" id="clippath" d="m 12.25 38.99 v 31.76 c 0 1.61 1.29 2.91 2.89 2.94 l 64.81 0.8 c 1.59 0.02 2.9 -1.26 2.9 -2.85 l 0.11 -31.47 c 0 -1.14 -0.9 -2.07 -2.04 -2.1 l -66.35 -1.34 c -1.27 -0.03 -2.32 0.99 -2.32 2.26 Z" stroke-linecap="round"/>
</clipPath>
<rect style="stroke: none; stroke-width: 1; stroke-dasharray: none; stroke-linecap: butt; stroke-dashoffset: 0; stroke-linejoin: miter; stroke-miterlimit: 4; is-custom-font: none; font-file-url: none; fill: rgb(255,255,255); fill-rule: nonzero; opacity: 0.6;" x="-0.28" y="-5.385" rx="0" ry="0" width="0.56" height="10.77"/>
</g>
		<g transform="matrix(0 -1 1 0 8.82 17.51)" id="Layer_1" clip-path="url(#CLIPPATH_1718)">
<clipPath id="CLIPPATH_1718">
	<path transform="matrix(0 1 -1 0 11.9002 -11.215) translate(-47.605, -55.6098)" id="clippath" d="m 12.25 38.99 v 31.76 c 0 1.61 1.29 2.91 2.89 2.94 l 64.81 0.8 c 1.59 0.02 2.9 -1.26 2.9 -2.85 l 0.11 -31.47 c 0 -1.14 -0.9 -2.07 -2.04 -2.1 l -66.35 -1.34 c -1.27 -0.03 -2.32 0.99 -2.32 2.26 Z" stroke-linecap="round"/>
</clipPath>
<rect style="stroke: none; stroke-width: 1; stroke-dasharray: none; stroke-linecap: butt; stroke-dashoffset: 0; stroke-linejoin: miter; stroke-miterlimit: 4; is-custom-font: none; font-file-url: none; fill: rgb(255,255,255); fill-rule: nonzero; opacity: 0.6;" x="-0.28" y="-1.33" rx="0" ry="0" width="0.56" height="2.66"/>
</g>
		<g transform="matrix(0 -1 1 0 6.245 16.58)" id="Layer_1" clip-path="url(#CLIPPATH_1719)">
<clipPath id="CLIPPATH_1719">
	<path transform="matrix(0 1 -1 0 10.9702 -8.64) translate(-47.605, -55.6098)" id="clippath" d="m 12.25 38.99 v 31.76 c 0 1.61 1.29 2.91 2.89 2.94 l 64.81 0.8 c 1.59 0.02 2.9 -1.26 2.9 -2.85 l 0.11 -31.47 c 0 -1.14 -0.9 -2.07 -2.04 -2.1 l -66.35 -1.34 c -1.27 -0.03 -2.32 0.99 -2.32 2.26 Z" stroke-linecap="round"/>
</clipPath>
<rect style="stroke: none; stroke-width: 1; stroke-dasharray: none; stroke-linecap: butt; stroke-dashoffset: 0; stroke-linejoin: miter; stroke-miterlimit: 4; is-custom-font: none; font-file-url: none; fill: rgb(255,255,255); fill-rule: nonzero; opacity: 0.6;" x="-0.28" y="-3.915" rx="0" ry="0" width="0.56" height="7.83"/>
</g>
		<g transform="matrix(0 -1 1 0 16.16 26.93)" id="Layer_1" clip-path="url(#CLIPPATH_1720)">
<clipPath id="CLIPPATH_1720">
	<path transform="matrix(0 1 -1 0 21.3202 -18.555) translate(-47.605, -55.6098)" id="clippath" d="m 12.25 38.99 v 31.76 c 0 1.61 1.29 2.91 2.89 2.94 l 64.81 0.8 c 1.59 0.02 2.9 -1.26 2.9 -2.85 l 0.11 -31.47 c 0 -1.14 -0.9 -2.07 -2.04 -2.1 l -66.35 -1.34 c -1.27 -0.03 -2.32 0.99 -2.32 2.26 Z" stroke-linecap="round"/>
</clipPath>
<rect style="stroke: none; stroke-width: 1; stroke-dasharray: none; stroke-linecap: butt; stroke-dashoffset: 0; stroke-linejoin: miter; stroke-miterlimit: 4; is-custom-font: none; font-file-url: none; fill: rgb(255,255,255); fill-rule: nonzero; opacity: 0.6;" x="-0.28" y="-4.05" rx="0" ry="0" width="0.56" height="8.1"/>
</g>
		<g transform="matrix(0 -1 1 0 14.77 25.99)" id="Layer_1" clip-path="url(#CLIPPATH_1721)">
<clipPath id="CLIPPATH_1721">
	<path transform="matrix(0 1 -1 0 20.3802 -17.165) translate(-47.605, -55.6098)" id="clippath" d="m 12.25 38.99 v 31.76 c 0 1.61 1.29 2.91 2.89 2.94 l 64.81 0.8 c 1.59 0.02 2.9 -1.26 2.9 -2.85 l 0.11 -31.47 c 0 -1.14 -0.9 -2.07 -2.04 -2.1 l -66.35 -1.34 c -1.27 -0.03 -2.32 0.99 -2.32 2.26 Z" stroke-linecap="round"/>
</clipPath>
<rect style="stroke: none; stroke-width: 1; stroke-dasharray: none; stroke-linecap: butt; stroke-dashoffset: 0; stroke-linejoin: miter; stroke-miterlimit: 4; is-custom-font: none; font-file-url: none; fill: rgb(255,255,255); fill-rule: nonzero; opacity: 0.6;" x="-0.28" y="-2.66" rx="0" ry="0" width="0.56" height="5.32"/>
</g>
		<g transform="matrix(0 -1 1 0 18.21 25.05)" id="Layer_1" clip-path="url(#CLIPPATH_1722)">
<clipPath id="CLIPPATH_1722">
	<path transform="matrix(0 1 -1 0 19.4402 -20.605) translate(-47.605, -55.6098)" id="clippath" d="m 12.25 38.99 v 31.76 c 0 1.61 1.29 2.91 2.89 2.94 l 64.81 0.8 c 1.59 0.02 2.9 -1.26 2.9 -2.85 l 0.11 -31.47 c 0 -1.14 -0.9 -2.07 -2.04 -2.1 l -66.35 -1.34 c -1.27 -0.03 -2.32 0.99 -2.32 2.26 Z" stroke-linecap="round"/>
</clipPath>
<rect style="stroke: none; stroke-width: 1; stroke-dasharray: none; stroke-linecap: butt; stroke-dashoffset: 0; stroke-linejoin: miter; stroke-miterlimit: 4; is-custom-font: none; font-file-url: none; fill: rgb(255,255,255); fill-rule: nonzero; opacity: 0.6;" x="-0.28" y="-6.1" rx="0" ry="0" width="0.56" height="12.2"/>
</g>
		<g transform="matrix(0 -1 1 0 13.575 24.1)" id="Layer_1" clip-path="url(#CLIPPATH_1723)">
<clipPath id="CLIPPATH_1723">
	<path transform="matrix(0 1 -1 0 18.4902 -15.97) translate(-47.605, -55.6098)" id="clippath" d="m 12.25 38.99 v 31.76 c 0 1.61 1.29 2.91 2.89 2.94 l 64.81 0.8 c 1.59 0.02 2.9 -1.26 2.9 -2.85 l 0.11 -31.47 c 0 -1.14 -0.9 -2.07 -2.04 -2.1 l -66.35 -1.34 c -1.27 -0.03 -2.32 0.99 -2.32 2.26 Z" stroke-linecap="round"/>
</clipPath>
<rect style="stroke: none; stroke-width: 1; stroke-dasharray: none; stroke-linecap: butt; stroke-dashoffset: 0; stroke-linejoin: miter; stroke-miterlimit: 4; is-custom-font: none; font-file-url: none; fill: rgb(255,255,255); fill-rule: nonzero; opacity: 0.6;" x="-0.28" y="-1.465" rx="0" ry="0" width="0.56" height="2.93"/>
</g>
		<g transform="matrix(0 -1 1 0 17.395 23.16)" id="Layer_1" clip-path="url(#CLIPPATH_1724)">
<clipPath id="CLIPPATH_1724">
	<path transform="matrix(0 1 -1 0 17.5502 -19.79) translate(-47.605, -55.6098)" id="clippath" d="m 12.25 38.99 v 31.76 c 0 1.61 1.29 2.91 2.89 2.94 l 64.81 0.8 c 1.59 0.02 2.9 -1.26 2.9 -2.85 l 0.11 -31.47 c 0 -1.14 -0.9 -2.07 -2.04 -2.1 l -66.35 -1.34 c -1.27 -0.03 -2.32 0.99 -2.32 2.26 Z" stroke-linecap="round"/>
</clipPath>
<rect style="stroke: none; stroke-width: 1; stroke-dasharray: none; stroke-linecap: butt; stroke-dashoffset: 0; stroke-linejoin: miter; stroke-miterlimit: 4; is-custom-font: none; font-file-url: none; fill: rgb(255,255,255); fill-rule: nonzero; opacity: 0.6;" x="-0.28" y="-5.285" rx="0" ry="0" width="0.56" height="10.57"/>
</g>
		<g transform="matrix(0 -1 1 0 16.49 22.22)" id="Layer_1" clip-path="url(#CLIPPATH_1725)">
<clipPath id="CLIPPATH_1725">
	<path transform="matrix(0 1 -1 0 16.6102 -18.885) translate(-47.605, -55.6098)" id="clippath" d="m 12.25 38.99 v 31.76 c 0 1.61 1.29 2.91 2.89 2.94 l 64.81 0.8 c 1.59 0.02 2.9 -1.26 2.9 -2.85 l 0.11 -31.47 c 0 -1.14 -0.9 -2.07 -2.04 -2.1 l -66.35 -1.34 c -1.27 -0.03 -2.32 0.99 -2.32 2.26 Z" stroke-linecap="round"/>
</clipPath>
<rect style="stroke: none; stroke-width: 1; stroke-dasharray: none; stroke-linecap: butt; stroke-dashoffset: 0; stroke-linejoin: miter; stroke-miterlimit: 4; is-custom-font: none; font-file-url: none; fill: rgb(255,255,255); fill-rule: nonzero; opacity: 0.6;" x="-0.28" y="-4.37" rx="0" ry="0" width="0.56" height="8.74"/>
</g>
		<g transform="matrix(0 -1 1 0 15.485 21.28)" id="Layer_1" clip-path="url(#CLIPPATH_1726)">
<clipPath id="CLIPPATH_1726">
	<path transform="matrix(0 1 -1 0 15.6702 -17.88) translate(-47.605, -55.6098)" id="clippath" d="m 12.25 38.99 v 31.76 c 0 1.61 1.29 2.91 2.89 2.94 l 64.81 0.8 c 1.59 0.02 2.9 -1.26 2.9 -2.85 l 0.11 -31.47 c 0 -1.14 -0.9 -2.07 -2.04 -2.1 l -66.35 -1.34 c -1.27 -0.03 -2.32 0.99 -2.32 2.26 Z" stroke-linecap="round"/>
</clipPath>
<rect style="stroke: none; stroke-width: 1; stroke-dasharray: none; stroke-linecap: butt; stroke-dashoffset: 0; stroke-linejoin: miter; stroke-miterlimit: 4; is-custom-font: none; font-file-url: none; fill: rgb(255,255,255); fill-rule: nonzero; opacity: 0.6;" x="-0.28" y="-3.375" rx="0" ry="0" width="0.56" height="6.75"/>
</g>
		<g transform="matrix(0 -1 1 0 19.445 20.33)" id="Layer_1" clip-path="url(#CLIPPATH_1727)">
<clipPath id="CLIPPATH_1727">
	<path transform="matrix(0 1 -1 0 14.7202 -21.84) translate(-47.605, -55.6098)" id="clippath" d="m 12.25 38.99 v 31.76 c 0 1.61 1.29 2.91 2.89 2.94 l 64.81 0.8 c 1.59 0.02 2.9 -1.26 2.9 -2.85 l 0.11 -31.47 c 0 -1.14 -0.9 -2.07 -2.04 -2.1 l -66.35 -1.34 c -1.27 -0.03 -2.32 0.99 -2.32 2.26 Z" stroke-linecap="round"/>
</clipPath>
<rect style="stroke: none; stroke-width: 1; stroke-dasharray: none; stroke-linecap: butt; stroke-dashoffset: 0; stroke-linejoin: miter; stroke-miterlimit: 4; is-custom-font: none; font-file-url: none; fill: rgb(255,255,255); fill-rule: nonzero; opacity: 0.6;" x="-0.28" y="-7.335" rx="0" ry="0" width="0.56" height="14.67"/>
</g>
		<g transform="matrix(0 -1 1 0 18.68 19.4)" id="Layer_1" clip-path="url(#CLIPPATH_1728)">
<clipPath id="CLIPPATH_1728">
	<path transform="matrix(0 1 -1 0 13.7902 -21.075) translate(-47.605, -55.6098)" id="clippath" d="m 12.25 38.99 v 31.76 c 0 1.61 1.29 2.91 2.89 2.94 l 64.81 0.8 c 1.59 0.02 2.9 -1.26 2.9 -2.85 l 0.11 -31.47 c 0 -1.14 -0.9 -2.07 -2.04 -2.1 l -66.35 -1.34 c -1.27 -0.03 -2.32 0.99 -2.32 2.26 Z" stroke-linecap="round"/>
</clipPath>
<rect style="stroke: none; stroke-width: 1; stroke-dasharray: none; stroke-linecap: butt; stroke-dashoffset: 0; stroke-linejoin: miter; stroke-miterlimit: 4; is-custom-font: none; font-file-url: none; fill: rgb(255,255,255); fill-rule: nonzero; opacity: 0.6;" x="-0.28" y="-6.56" rx="0" ry="0" width="0.56" height="13.12"/>
</g>
		<g transform="matrix(0 -1 1 0 17.505 18.45)" id="Layer_1" clip-path="url(#CLIPPATH_1729)">
<clipPath id="CLIPPATH_1729">
	<path transform="matrix(0 1 -1 0 12.8402 -19.9) translate(-47.605, -55.6098)" id="clippath" d="m 12.25 38.99 v 31.76 c 0 1.61 1.29 2.91 2.89 2.94 l 64.81 0.8 c 1.59 0.02 2.9 -1.26 2.9 -2.85 l 0.11 -31.47 c 0 -1.14 -0.9 -2.07 -2.04 -2.1 l -66.35 -1.34 c -1.27 -0.03 -2.32 0.99 -2.32 2.26 Z" stroke-linecap="round"/>
</clipPath>
<rect style="stroke: none; stroke-width: 1; stroke-dasharray: none; stroke-linecap: butt; stroke-dashoffset: 0; stroke-linejoin: miter; stroke-miterlimit: 4; is-custom-font: none; font-file-url: none; fill: rgb(255,255,255); fill-rule: nonzero; opacity: 0.6;" x="-0.28" y="-5.385" rx="0" ry="0" width="0.56" height="10.77"/>
</g>
		<g transform="matrix(0 -1 1 0 13.44 17.52)" id="Layer_1" clip-path="url(#CLIPPATH_1730)">
<clipPath id="CLIPPATH_1730">
	<path transform="matrix(0 1 -1 0 11.9102 -15.835) translate(-47.605, -55.6098)" id="clippath" d="m 12.25 38.99 v 31.76 c 0 1.61 1.29 2.91 2.89 2.94 l 64.81 0.8 c 1.59 0.02 2.9 -1.26 2.9 -2.85 l 0.11 -31.47 c 0 -1.14 -0.9 -2.07 -2.04 -2.1 l -66.35 -1.34 c -1.27 -0.03 -2.32 0.99 -2.32 2.26 Z" stroke-linecap="round"/>
</clipPath>
<rect style="stroke: none; stroke-width: 1; stroke-dasharray: none; stroke-linecap: butt; stroke-dashoffset: 0; stroke-linejoin: miter; stroke-miterlimit: 4; is-custom-font: none; font-file-url: none; fill: rgb(255,255,255); fill-rule: nonzero; opacity: 0.6;" x="-0.28" y="-1.33" rx="0" ry="0" width="0.56" height="2.66"/>
</g>
		<g transform="matrix(0 -1 1 0 16.035 16.57)" id="Layer_1" clip-path="url(#CLIPPATH_1731)">
<clipPath id="CLIPPATH_1731">
	<path transform="matrix(0 1 -1 0 10.9602 -18.43) translate(-47.605, -55.6098)" id="clippath" d="m 12.25 38.99 v 31.76 c 0 1.61 1.29 2.91 2.89 2.94 l 64.81 0.8 c 1.59 0.02 2.9 -1.26 2.9 -2.85 l 0.11 -31.47 c 0 -1.14 -0.9 -2.07 -2.04 -2.1 l -66.35 -1.34 c -1.27 -0.03 -2.32 0.99 -2.32 2.26 Z" stroke-linecap="round"/>
</clipPath>
<rect style="stroke: none; stroke-width: 1; stroke-dasharray: none; stroke-linecap: butt; stroke-dashoffset: 0; stroke-linejoin: miter; stroke-miterlimit: 4; is-custom-font: none; font-file-url: none; fill: rgb(255,255,255); fill-rule: nonzero; opacity: 0.6;" x="-0.28" y="-3.915" rx="0" ry="0" width="0.56" height="7.83"/>
</g>
		<g transform="matrix(1 0 0 1 15.9399 2.3003)" id="Layer_1">
<linearGradient id="SVGID_1674" gradientUnits="userSpaceOnUse" gradientTransform="matrix(1 0 0 1 0 0)" x1="79.07" y1="36" x2="44.05" y2="77.99">
<stop offset="0%" style="stop-color:rgb(79,82,255);stop-opacity: 1"/>
<stop offset="100%" style="stop-color:rgb(64,66,226);stop-opacity: 1"/>
</linearGradient>
<path style="stroke: none; stroke-width: 1; stroke-dasharray: none; stroke-linecap: butt; stroke-dashoffset: 0; stroke-linejoin: miter; stroke-miterlimit: 4; is-custom-font: none; font-file-url: none; fill: url(#SVGID_1674); fill-rule: nonzero; opacity: 1;" transform=" translate(-65.9399, -52.3003)" d="m 87.89 42.54 l -43.89 -0.21 c -0.53 0 -0.96 0.58 -0.95 1.3 l 0.1 17.36 c 0 0.72 0.44 1.3 0.98 1.28 l 43.63 -0.93 c 0.51 -0.02 0.91 -0.58 0.92 -1.27 l 0.15 -16.22 c 0 -0.72 -0.42 -1.3 -0.94 -1.31 Z" stroke-linecap="round"/>
</g>
		<g transform="matrix(1 0 0 1 15.945 2.305)" id="Layer_1">
<path style="stroke: none; stroke-width: 1; stroke-dasharray: none; stroke-linecap: butt; stroke-dashoffset: 0; stroke-linejoin: miter; stroke-miterlimit: 4; is-custom-font: none; font-file-url: none; fill: rgb(255,255,255); fill-rule: nonzero; opacity: 1;" transform=" translate(-65.945, -52.305)" d="m 44.09 61.16 c -0.08 0 -0.14 -0.08 -0.14 -0.17 l -0.1 -17.36 s 0.01 -0.09 0.04 -0.12 c 0.04 -0.05 0.08 -0.06 0.11 -0.06 l 43.89 0.21 s 0.07 0.01 0.11 0.06 c 0.02 0.03 0.04 0.07 0.04 0.12 l -0.15 16.22 c 0 0.1 -0.06 0.17 -0.14 0.17 h 0 l -43.64 0.93 Z m -0.1 -17.6 s 0 0 -0.02 0.01 c 0 0.01 -0.01 0.03 -0.01 0.05 l 0.1 17.36 s 0.02 0.06 0.03 0.06 l 43.64 -0.93 s 0.03 -0.03 0.03 -0.06 l 0.15 -16.22 s 0 -0.04 -0.01 -0.05 c 0 -0.01 -0.01 -0.01 -0.02 -0.01 l -43.88 -0.21 Z" stroke-linecap="round"/>
</g>
		<g transform="matrix(1 0 0 1 1.78 0.04)" id="Layer_1">
<circle style="stroke: none; stroke-width: 1; stroke-dasharray: none; stroke-linecap: butt; stroke-dashoffset: 0; stroke-linejoin: miter; stroke-miterlimit: 4; is-custom-font: none; font-file-url: none; fill: rgb(255,255,255); fill-rule: nonzero; opacity: 1;" cx="0" cy="0" r="4.54"/>
</g>
		<g transform="matrix(1 0 0 1 13.03 0.04)" id="Layer_1">
<circle style="stroke: none; stroke-width: 1; stroke-dasharray: none; stroke-linecap: butt; stroke-dashoffset: 0; stroke-linejoin: miter; stroke-miterlimit: 4; is-custom-font: none; font-file-url: none; fill: rgb(255,255,255); fill-rule: nonzero; opacity: 1;" cx="0" cy="0" r="4.54"/>
</g>
		<g transform="matrix(1 0 0 1 24.33 0.18)" id="Layer_1">
<circle style="stroke: none; stroke-width: 1; stroke-dasharray: none; stroke-linecap: butt; stroke-dashoffset: 0; stroke-linejoin: miter; stroke-miterlimit: 4; is-custom-font: none; font-file-url: none; fill: rgb(255,255,255); fill-rule: nonzero; opacity: 1;" cx="0" cy="0" r="4.54"/>
</g>
		<g transform="matrix(1 0 0 1 1.78 0.19)" id="Layer_1">
<linearGradient id="SVGID_1675" gradientUnits="userSpaceOnUse" gradientTransform="matrix(1 0 0 1 0 0)" x1="69.13" y1="26.23" x2="60.48" y2="38.17">
<stop offset="0%" style="stop-color:rgb(254,112,98);stop-opacity: 1"/>
<stop offset="100%" style="stop-color:rgb(255,146,142);stop-opacity: 1"/>
</linearGradient>
<path style="stroke: none; stroke-width: 1; stroke-dasharray: none; stroke-linecap: butt; stroke-dashoffset: 0; stroke-linejoin: miter; stroke-miterlimit: 4; is-custom-font: none; font-file-url: none; fill: url(#SVGID_1675); fill-rule: nonzero; opacity: 1;" transform=" translate(-51.78, -50.19)" d="m 54.48 49.08 c 0.14 0.34 0.22 0.72 0.22 1.11 c 0 1.61 -1.31 2.92 -2.92 2.92 s -2.92 -1.31 -2.92 -2.92 s 1.31 -2.92 2.92 -2.92 c 0.05 0 0.1 0 0.15 0 v -0.74 s -0.1 0 -0.15 0 c -2.02 0 -3.66 1.64 -3.66 3.66 s 1.64 3.66 3.66 3.66 s 3.66 -1.64 3.66 -3.66 c 0 -0.5 -0.1 -0.97 -0.28 -1.4 l -0.68 0.29 Z" stroke-linecap="round"/>
</g>
		<g transform="matrix(1 0 0 1 12.15 0.18)" id="Layer_1">
<linearGradient id="SVGID_1676" gradientUnits="userSpaceOnUse" gradientTransform="matrix(1 0 0 1 0 0)" x1="76.4" y1="31.49" x2="67.74" y2="43.43">
<stop offset="0%" style="stop-color:rgb(254,112,98);stop-opacity: 1"/>
<stop offset="100%" style="stop-color:rgb(255,146,142);stop-opacity: 1"/>
</linearGradient>
<path style="stroke: none; stroke-width: 1; stroke-dasharray: none; stroke-linecap: butt; stroke-dashoffset: 0; stroke-linejoin: miter; stroke-miterlimit: 4; is-custom-font: none; font-file-url: none; fill: url(#SVGID_1676); fill-rule: nonzero; opacity: 1;" transform=" translate(-62.15, -50.18)" d="m 64.58 52.65 c -0.45 0.28 -0.98 0.45 -1.56 0.45 c -1.61 0 -2.92 -1.31 -2.92 -2.92 s 1.31 -2.92 2.92 -2.92 c 0.05 0 0.1 0 0.15 0 v -0.74 s -0.1 0 -0.15 0 c -2.02 0 -3.66 1.64 -3.66 3.66 s 1.64 3.66 3.66 3.66 c 0.71 0 1.36 -0.2 1.92 -0.55 l -0.37 -0.64 Z" stroke-linecap="round"/>
</g>
		<g transform="matrix(1 0 0 1 24.065 0.19)" id="Layer_1">
<linearGradient id="SVGID_1677" gradientUnits="userSpaceOnUse" gradientTransform="matrix(1 0 0 1 0 0)" x1="83.96" y1="36.97" x2="75.31" y2="48.91">
<stop offset="0%" style="stop-color:rgb(254,112,98);stop-opacity: 1"/>
<stop offset="100%" style="stop-color:rgb(255,146,142);stop-opacity: 1"/>
</linearGradient>
<path style="stroke: none; stroke-width: 1; stroke-dasharray: none; stroke-linecap: butt; stroke-dashoffset: 0; stroke-linejoin: miter; stroke-miterlimit: 4; is-custom-font: none; font-file-url: none; fill: url(#SVGID_1677); fill-rule: nonzero; opacity: 1;" transform=" translate(-74.065, -50.19)" d="m 76.8 51.83 c -0.53 0.77 -1.41 1.28 -2.41 1.28 c -1.61 0 -2.92 -1.31 -2.92 -2.92 s 1.31 -2.92 2.92 -2.92 c 0.05 0 0.1 0 0.15 0 v -0.74 s -0.1 0 -0.15 0 c -2.02 0 -3.66 1.64 -3.66 3.66 s 1.64 3.66 3.66 3.66 c 1.25 0 2.35 -0.63 3.01 -1.58 l -0.6 -0.43 Z" stroke-linecap="round"/>
</g>
		<g transform="matrix(1 0 0 1 1.82 7.34)" id="Layer_1">
<path style="stroke: none; stroke-width: 1; stroke-dasharray: none; stroke-linecap: butt; stroke-dashoffset: 0; stroke-linejoin: miter; stroke-miterlimit: 4; is-custom-font: none; font-file-url: none; fill: rgb(125,151,244); fill-rule: nonzero; opacity: 1;" transform=" translate(-51.82, -57.34)" d="m 55.52 56.5 h -7.4 c -0.46 0 -0.84 0.38 -0.84 0.84 s 0.38 0.84 0.84 0.84 h 7.4 c 0.46 0 0.84 -0.38 0.84 -0.84 s -0.38 -0.84 -0.84 -0.84 Z" stroke-linecap="round"/>
</g>
		<g transform="matrix(1 0 0 1 13.11 7.34)" id="Layer_1">
<path style="stroke: none; stroke-width: 1; stroke-dasharray: none; stroke-linecap: butt; stroke-dashoffset: 0; stroke-linejoin: miter; stroke-miterlimit: 4; is-custom-font: none; font-file-url: none; fill: rgb(125,151,244); fill-rule: nonzero; opacity: 1;" transform=" translate(-63.11, -57.34)" d="m 66.81 56.5 h -7.4 c -0.46 0 -0.84 0.38 -0.84 0.84 s 0.38 0.84 0.84 0.84 h 7.4 c 0.46 0 0.84 -0.38 0.84 -0.84 s -0.38 -0.84 -0.84 -0.84 Z" stroke-linecap="round"/>
</g>
		<g transform="matrix(1 0 0 1 24.32 7.35)" id="Layer_1">
<path style="stroke: none; stroke-width: 1; stroke-dasharray: none; stroke-linecap: butt; stroke-dashoffset: 0; stroke-linejoin: miter; stroke-miterlimit: 4; is-custom-font: none; font-file-url: none; fill: rgb(125,151,244); fill-rule: nonzero; opacity: 1;" transform=" translate(-74.32, -57.35)" d="m 70.62 58.19 h 7.4 c 0.46 0 0.84 -0.38 0.84 -0.84 s -0.38 -0.84 -0.84 -0.84 h -7.4 c -0.46 0 -0.84 0.38 -0.84 0.84 s 0.38 0.84 0.84 0.84 Z" stroke-linecap="round"/>
</g>
		<g transform="matrix(1 0 0 1 -25.9491 38.5767)" id="Layer_1">
<linearGradient id="SVGID_1678" gradientUnits="userSpaceOnUse" gradientTransform="matrix(1 0 0 1 -1140.73 0)" x1="1162.45" y1="88.57" x2="1167.11" y2="88.57">
<stop offset="0%" style="stop-color:rgb(79,82,255);stop-opacity: 1"/>
<stop offset="100%" style="stop-color:rgb(64,66,226);stop-opacity: 1"/>
</linearGradient>
<path style="stroke: none; stroke-width: 1; stroke-dasharray: none; stroke-linecap: butt; stroke-dashoffset: 0; stroke-linejoin: miter; stroke-miterlimit: 4; is-custom-font: none; font-file-url: none; fill: url(#SVGID_1678); fill-rule: nonzero; opacity: 1;" transform=" translate(-24.0509, -88.5767)" d="m 26.25 88.35 c -0.8 0.07 -2.19 0.18 -3.28 0.23 c -0.66 0.03 -1.04 -0.04 -1.25 -0.12 c 0 0.02 0 0.05 0 0.07 c 0 0.12 0.1 0.21 0.21 0.21 c 2.07 0.12 3.71 0.04 4.3 0 c 0.12 0 0.19 -0.14 0.13 -0.24 c -0.03 -0.05 -0.07 -0.1 -0.11 -0.15 Z" stroke-linecap="round"/>
</g>
		<g transform="matrix(1 0 0 1 -26.015 37.6639)" id="Layer_1">
<linearGradient id="SVGID_1679" gradientUnits="userSpaceOnUse" gradientTransform="matrix(1 0 0 1 -1140.73 0)" x1="1162.45" y1="87.66" x2="1166.98" y2="87.66">
<stop offset="0%" style="stop-color:rgb(9,0,93);stop-opacity: 1"/>
<stop offset="100%" style="stop-color:rgb(26,15,145);stop-opacity: 1"/>
</linearGradient>
<path style="stroke: none; stroke-width: 1; stroke-dasharray: none; stroke-linecap: butt; stroke-dashoffset: 0; stroke-linejoin: miter; stroke-miterlimit: 4; is-custom-font: none; font-file-url: none; fill: url(#SVGID_1679); fill-rule: nonzero; opacity: 1;" transform=" translate(-23.985, -87.6639)" d="m 22.97 88.58 c 1.09 -0.05 2.48 -0.16 3.28 -0.23 c -0.79 -0.96 -3.28 -1.61 -3.28 -1.61 h -0.7 c -0.48 0.7 -0.55 1.36 -0.55 1.72 c 0.22 0.09 0.6 0.15 1.25 0.12 Z" stroke-linecap="round"/>
</g>
		<g transform="matrix(1 0 0 1 -27.19 36.376)" id="Layer_1">
<linearGradient id="SVGID_1680" gradientUnits="userSpaceOnUse" gradientTransform="matrix(1 0 0 1 -1140.73 0)" x1="1162.88" y1="86.38" x2="1164.19" y2="86.38">
<stop offset="0%" style="stop-color:rgb(254,187,186);stop-opacity: 1"/>
<stop offset="100%" style="stop-color:rgb(255,146,142);stop-opacity: 1"/>
</linearGradient>
<path style="stroke: none; stroke-width: 1; stroke-dasharray: none; stroke-linecap: butt; stroke-dashoffset: 0; stroke-linejoin: miter; stroke-miterlimit: 4; is-custom-font: none; font-file-url: none; fill: url(#SVGID_1680); fill-rule: nonzero; opacity: 1;" transform=" translate(-22.81, -86.376)" d="m 22.15 85.58 l 0.07 1.3 c 0 0.14 0.11 0.26 0.25 0.28 c 0.14 0.02 0.33 0.02 0.53 -0.04 c 0.12 -0.04 0.21 -0.14 0.24 -0.27 l 0.23 -1.27 h -1.31 Z" stroke-linecap="round"/>
</g>
		<g transform="matrix(1 0 0 1 -36.7006 38.4711)" id="Layer_1">
<linearGradient id="SVGID_1681" gradientUnits="userSpaceOnUse" gradientTransform="matrix(1 0 0 1 -1140.73 0)" x1="1153.15" y1="88.47" x2="1154.93" y2="88.47">
<stop offset="0%" style="stop-color:rgb(79,82,255);stop-opacity: 1"/>
<stop offset="100%" style="stop-color:rgb(64,66,226);stop-opacity: 1"/>
</linearGradient>
<path style="stroke: none; stroke-width: 1; stroke-dasharray: none; stroke-linecap: butt; stroke-dashoffset: 0; stroke-linejoin: miter; stroke-miterlimit: 4; is-custom-font: none; font-file-url: none; fill: url(#SVGID_1681); fill-rule: nonzero; opacity: 1;" transform=" translate(-13.2994, -88.4711)" d="m 12.99 88.57 c -0.35 -0.05 -0.5 -0.23 -0.57 -0.42 c 0 0 0 0 0 0 c -0.05 0.2 0.07 0.41 0.3 0.51 c 0.29 0.12 0.6 0.14 0.84 0.13 c 0.26 -0.01 0.5 -0.12 0.63 -0.29 h 0 c -0.26 0.13 -0.63 0.14 -1.21 0.06 Z" stroke-linecap="round"/>
</g>
		<g transform="matrix(1 0 0 1 -36.2547 37.0904)" id="Layer_1">
<linearGradient id="SVGID_1682" gradientUnits="userSpaceOnUse" gradientTransform="matrix(1 0 0 1 -1140.73 0)" x1="1153.16" y1="87.09" x2="1155.78" y2="87.09">
<stop offset="0%" style="stop-color:rgb(9,0,93);stop-opacity: 1"/>
<stop offset="100%" style="stop-color:rgb(26,15,145);stop-opacity: 1"/>
</linearGradient>
<path style="stroke: none; stroke-width: 1; stroke-dasharray: none; stroke-linecap: butt; stroke-dashoffset: 0; stroke-linejoin: miter; stroke-miterlimit: 4; is-custom-font: none; font-file-url: none; fill: url(#SVGID_1682); fill-rule: nonzero; opacity: 1;" transform=" translate(-13.7453, -87.0904)" d="m 14.63 85.57 h -0.58 c -0.88 -0.02 -1.44 1.85 -1.62 2.57 c 0.07 0.19 0.22 0.37 0.57 0.42 c 0.58 0.08 0.94 0.07 1.21 -0.06 c 0.48 -0.63 0.72 -1.55 0.83 -2.09 c 0.13 -0.61 -0.4 -0.84 -0.4 -0.84 Z" stroke-linecap="round"/>
</g>
		<g transform="matrix(1 0 0 1 -35.4252 35.2727)" id="Layer_1">
<linearGradient id="SVGID_1683" gradientUnits="userSpaceOnUse" gradientTransform="matrix(1 0 0 1 -1140.73 0)" x1="1154.52" y1="85.29" x2="1156.09" y2="85.29">
<stop offset="0%" style="stop-color:rgb(254,187,186);stop-opacity: 1"/>
<stop offset="100%" style="stop-color:rgb(255,146,142);stop-opacity: 1"/>
</linearGradient>
<path style="stroke: none; stroke-width: 1; stroke-dasharray: none; stroke-linecap: butt; stroke-dashoffset: 0; stroke-linejoin: miter; stroke-miterlimit: 4; is-custom-font: none; font-file-url: none; fill: url(#SVGID_1683); fill-rule: nonzero; opacity: 1;" transform=" translate(-14.5749, -85.2727)" d="m 14.12 84.36 l -0.32 1.28 c -0.04 0.16 0.04 0.32 0.18 0.39 c 0.18 0.09 0.43 0.19 0.67 0.16 c 0.11 -0.01 0.2 -0.09 0.24 -0.19 l 0.47 -1.35 l -1.24 -0.3 Z" stroke-linecap="round"/>
</g>
		<g transform="matrix(1 0 0 1 -30.055 26.2806)" id="Layer_1">
<linearGradient id="SVGID_1684" gradientUnits="userSpaceOnUse" gradientTransform="matrix(1 0 0 1 0 0)" x1="41.69" y1="39.51" x2="29.97" y2="61.59">
<stop offset="0%" style="stop-color:rgb(79,82,255);stop-opacity: 1"/>
<stop offset="100%" style="stop-color:rgb(64,66,226);stop-opacity: 1"/>
</linearGradient>
<path style="stroke: none; stroke-width: 1; stroke-dasharray: none; stroke-linecap: butt; stroke-dashoffset: 0; stroke-linejoin: miter; stroke-miterlimit: 4; is-custom-font: none; font-file-url: none; fill: url(#SVGID_1684); fill-rule: nonzero; opacity: 1;" transform=" translate(-19.945, -76.2806)" d="m 13.74 84.73 c 0.4 0.36 1.71 0.4 1.71 0.4 c 4.7 -11.29 6.63 -12.89 6.63 -12.89 c -0.68 4.26 -0.11 13.69 -0.11 13.69 c 0.78 0.34 1.78 0 1.78 0 c 0.06 -6.97 1.14 -13.06 2.4 -17.85 c -3.18 -0.07 -4.87 -1.16 -5.42 -1.6 c -2.65 4.27 -6.98 18.24 -6.98 18.24 Z" stroke-linecap="round"/>
</g>
		<g transform="matrix(1 0 0 1 -24.5741 10.9216)" id="Layer_1">
<linearGradient id="SVGID_1685" gradientUnits="userSpaceOnUse" gradientTransform="matrix(1 0 0 1 -1140.73 0)" x1="1141.25" y1="93.16" x2="1135.83" y2="100.65">
<stop offset="0%" style="stop-color:rgb(79,82,255);stop-opacity: 1"/>
<stop offset="100%" style="stop-color:rgb(64,66,226);stop-opacity: 1"/>
</linearGradient>
<path style="stroke: none; stroke-width: 1; stroke-dasharray: none; stroke-linecap: butt; stroke-dashoffset: 0; stroke-linejoin: miter; stroke-miterlimit: 4; is-custom-font: none; font-file-url: none; fill: url(#SVGID_1685); fill-rule: nonzero; opacity: 1;" transform=" translate(-25.4259, -60.9217)" d="m 21.53 53.51 c -0.6 3 -0.39 8.37 -0.24 10.82 c 0.04 0.69 -0.44 1.64 -0.83 2.29 c -0.06 0.1 -0.02 0.23 0.08 0.29 c 0.65 0.33 2.85 1.37 5.41 1.5 c 0.17 0 0.32 -0.11 0.37 -0.27 c 1.89 -7.07 4.1 -11.59 4.1 -11.59 c -2.43 -3.88 -8.88 -3.04 -8.88 -3.04 Z" stroke-linecap="round"/>
</g>
		<g transform="matrix(1 0 0 1 -26.7123 21.047)" id="Layer_1">
<linearGradient id="SVGID_1686" gradientUnits="userSpaceOnUse" gradientTransform="matrix(1 0 0 1 -1140.73 0)" x1="1159.82" y1="79.47" x2="1160.57" y2="77.96">
<stop offset="0%" style="stop-color:rgb(83,216,255);stop-opacity: 1"/>
<stop offset="100%" style="stop-color:rgb(56,64,247);stop-opacity: 1"/>
</linearGradient>
<path style="stroke: none; stroke-width: 1; stroke-dasharray: none; stroke-linecap: butt; stroke-dashoffset: 0; stroke-linejoin: miter; stroke-miterlimit: 4; is-custom-font: none; font-file-url: none; fill: url(#SVGID_1686); fill-rule: nonzero; opacity: 1;" transform=" translate(-23.2878, -71.0471)" d="m 22.39 71.98 s -0.05 0 -0.08 -0.02 c -0.07 -0.04 -0.09 -0.14 -0.05 -0.21 c 0.03 -0.04 0.63 -1.02 1.86 -1.62 c 0.07 -0.04 0.16 0 0.2 0.07 c 0.04 0.07 0 0.17 -0.07 0.2 c -1.15 0.55 -1.73 1.49 -1.74 1.5 c -0.03 0.05 -0.08 0.07 -0.13 0.07 Z" stroke-linecap="round"/>
</g>
		<g transform="matrix(1 0 0 1 -31.08 14.2862)" id="Layer_1">
<linearGradient id="SVGID_1687" gradientUnits="userSpaceOnUse" gradientTransform="matrix(1 0 0 1 -1140.73 0)" x1="1161.72" y1="62.39" x2="1156.13" y2="67.34">
<stop offset="0%" style="stop-color:rgb(254,187,186);stop-opacity: 1"/>
<stop offset="100%" style="stop-color:rgb(255,146,142);stop-opacity: 1"/>
</linearGradient>
<path style="stroke: none; stroke-width: 1; stroke-dasharray: none; stroke-linecap: butt; stroke-dashoffset: 0; stroke-linejoin: miter; stroke-miterlimit: 4; is-custom-font: none; font-file-url: none; fill: url(#SVGID_1687); fill-rule: nonzero; opacity: 1;" transform=" translate(-18.92, -64.2861)" d="m 17.75 62.12 c 0.19 1.4 0.76 2.92 1.91 4.54 l 0.43 -0.35 s -0.5 -2.03 -0.22 -4.34 c -0.7 -0.14 -1.54 0 -2.12 0.15 Z" stroke-linecap="round"/>
</g>
		<g transform="matrix(1 0 0 1 -30.0591 7.815)" id="Layer_1">
<linearGradient id="SVGID_1688" gradientUnits="userSpaceOnUse" gradientTransform="matrix(1 0 0 1 -1140.73 0)" x1="1137.52" y1="90.46" x2="1132.1" y2="97.95">
<stop offset="0%" style="stop-color:rgb(79,82,255);stop-opacity: 1"/>
<stop offset="100%" style="stop-color:rgb(64,66,226);stop-opacity: 1"/>
</linearGradient>
<path style="stroke: none; stroke-width: 1; stroke-dasharray: none; stroke-linecap: butt; stroke-dashoffset: 0; stroke-linejoin: miter; stroke-miterlimit: 4; is-custom-font: none; font-file-url: none; fill: url(#SVGID_1688); fill-rule: nonzero; opacity: 1;" transform=" translate(-19.9409, -57.815)" d="m 22.2 57.21 l -0.67 -3.7 s -4.49 3.43 -3.77 8.61 c 0.59 -0.15 1.42 -0.29 2.12 -0.15 c 0.21 -1.66 0.82 -3.47 2.32 -4.76 Z" stroke-linecap="round"/>
</g>
		<g transform="matrix(1 0 0 1 -19.63 10.215)" id="Layer_1">
<linearGradient id="SVGID_1689" gradientUnits="userSpaceOnUse" gradientTransform="matrix(1 0 0 1 -1140.73 0)" x1="1145.56" y1="96.28" x2="1140.13" y2="103.77">
<stop offset="0%" style="stop-color:rgb(79,82,255);stop-opacity: 1"/>
<stop offset="100%" style="stop-color:rgb(64,66,226);stop-opacity: 1"/>
</linearGradient>
<path style="stroke: none; stroke-width: 1; stroke-dasharray: none; stroke-linecap: butt; stroke-dashoffset: 0; stroke-linejoin: miter; stroke-miterlimit: 4; is-custom-font: none; font-file-url: none; fill: url(#SVGID_1689); fill-rule: nonzero; opacity: 1;" transform=" translate(-30.37, -60.215)" d="m 30.41 56.55 l -1.73 3.73 c 0.28 2.25 1.49 3.23 2.8 3.6 c 0.08 -1.03 0.34 -1.86 0.58 -2.43 c -1.67 -1.72 -1.64 -4.9 -1.64 -4.9 Z" stroke-linecap="round"/>
</g>
		<g transform="matrix(1 0 0 1 -16.33 12.8583)" id="Layer_1">
<linearGradient id="SVGID_1690" gradientUnits="userSpaceOnUse" gradientTransform="matrix(1 0 0 1 -1140.73 0)" x1="1172.2" y1="62.86" x2="1176.61" y2="62.86">
<stop offset="0%" style="stop-color:rgb(254,187,186);stop-opacity: 1"/>
<stop offset="100%" style="stop-color:rgb(255,146,142);stop-opacity: 1"/>
</linearGradient>
<path style="stroke: none; stroke-width: 1; stroke-dasharray: none; stroke-linecap: butt; stroke-dashoffset: 0; stroke-linejoin: miter; stroke-miterlimit: 4; is-custom-font: none; font-file-url: none; fill: url(#SVGID_1690); fill-rule: nonzero; opacity: 1;" transform=" translate(-33.67, -62.8583)" d="m 32.05 61.45 c -0.24 0.57 -0.5 1.4 -0.58 2.43 c 3.48 1.35 4.4 -1.27 4.4 -1.27 l -0.64 -0.11 c -1.45 0.15 -2.47 -0.32 -3.18 -1.05 Z" stroke-linecap="round"/>
</g>
		<g transform="matrix(1 0 0 1 -22.8256 3.2911)" id="Layer_1">
<linearGradient id="SVGID_1691" gradientUnits="userSpaceOnUse" gradientTransform="matrix(1 0 0 1 -1140.73 0)" x1="1167.92" y1="51.09" x2="1167.87" y2="59.31">
<stop offset="0%" style="stop-color:rgb(254,187,186);stop-opacity: 1"/>
<stop offset="100%" style="stop-color:rgb(255,146,142);stop-opacity: 1"/>
</linearGradient>
<path style="stroke: none; stroke-width: 1; stroke-dasharray: none; stroke-linecap: butt; stroke-dashoffset: 0; stroke-linejoin: miter; stroke-miterlimit: 4; is-custom-font: none; font-file-url: none; fill: url(#SVGID_1691); fill-rule: nonzero; opacity: 1;" transform=" translate(-27.1744, -53.2911)" d="m 28.81 51.94 l -0.84 3.08 c -0.09 0.35 -0.47 0.53 -0.8 0.4 c -0.36 -0.14 -0.81 -0.34 -1.21 -0.55 c -0.42 -0.23 -0.55 -0.76 -0.28 -1.16 l 1.74 -2.59 l 1.39 0.83 Z" stroke-linecap="round"/>
</g>
		<g transform="matrix(1 0 0 1 -23.5151 16.0719)" id="Layer_1">
<linearGradient id="SVGID_1692" gradientUnits="userSpaceOnUse" gradientTransform="matrix(1 0 0 1 -1140.73 0)" x1="1155.68" y1="66.08" x2="1178.74" y2="66.08">
<stop offset="0%" style="stop-color:rgb(9,0,93);stop-opacity: 1"/>
<stop offset="100%" style="stop-color:rgb(26,15,145);stop-opacity: 1"/>
</linearGradient>
<path style="stroke: none; stroke-width: 1; stroke-dasharray: none; stroke-linecap: butt; stroke-dashoffset: 0; stroke-linejoin: miter; stroke-miterlimit: 4; is-custom-font: none; font-file-url: none; fill: url(#SVGID_1692); fill-rule: nonzero; opacity: 1;" transform=" translate(-26.485, -66.0719)" d="m 37.47 60.55 l -21.44 7.8 c -0.9 0.33 -1.33 1.35 -0.93 2.22 l 0.07 0.14 c 0.35 0.77 1.26 1.11 2.03 0.75 l 20.82 -9.63 l -0.54 -1.29 Z" stroke-linecap="round"/>
</g>
		<g transform="matrix(1 0 0 1 -2.68 5.86)" id="Layer_1">
<linearGradient id="SVGID_1693" gradientUnits="userSpaceOnUse" gradientTransform="matrix(1 0 0 1 -1188.05 -55.86)" x1="1177.47" y1="55.86" x2="1198.64" y2="55.86">
<stop offset="0%" style="stop-color:rgb(179,124,255);stop-opacity: 1"/>
<stop offset="100%" style="stop-color:rgb(248,149,231);stop-opacity: 1"/>
</linearGradient>
<ellipse style="stroke: none; stroke-width: 1; stroke-dasharray: none; stroke-linecap: butt; stroke-dashoffset: 0; stroke-linejoin: miter; stroke-miterlimit: 4; is-custom-font: none; font-file-url: none; fill: url(#SVGID_1693); fill-rule: nonzero; opacity: 0.14;" cx="0" cy="0" rx="10.58" ry="10.39"/>
</g>
		<g transform="matrix(1 0 0 1 -2.68 5.85)" id="Layer_1">
<linearGradient id="SVGID_1694" gradientUnits="userSpaceOnUse" gradientTransform="matrix(1 0 0 1 -1140.73 0)" x1="1176.28" y1="55.86" x2="1199.83" y2="55.86">
<stop offset="0%" style="stop-color:rgb(9,0,93);stop-opacity: 1"/>
<stop offset="100%" style="stop-color:rgb(26,15,145);stop-opacity: 1"/>
</linearGradient>
<path style="stroke: none; stroke-width: 1; stroke-dasharray: none; stroke-linecap: butt; stroke-dashoffset: 0; stroke-linejoin: miter; stroke-miterlimit: 4; is-custom-font: none; font-file-url: none; fill: url(#SVGID_1694); fill-rule: nonzero; opacity: 1;" transform=" translate(-47.32, -55.85)" d="m 47.32 44.29 c -6.5 0 -11.78 5.18 -11.78 11.56 s 5.27 11.56 11.78 11.56 s 11.78 -5.18 11.78 -11.56 s -5.27 -11.56 -11.78 -11.56 Z m 0 21.43 c -5.55 0 -10.05 -4.42 -10.05 -9.87 s 4.5 -9.87 10.05 -9.87 s 10.05 4.42 10.05 9.87 s -4.5 9.87 -10.05 9.87 Z" stroke-linecap="round"/>
</g>
		<g transform="matrix(1 0 0 1 -5.2063 1.16)" id="Layer_1">
<path style="stroke: none; stroke-width: 1; stroke-dasharray: none; stroke-linecap: butt; stroke-dashoffset: 0; stroke-linejoin: miter; stroke-miterlimit: 4; is-custom-font: none; font-file-url: none; fill: rgb(145,179,250); fill-rule: nonzero; opacity: 1;" transform=" translate(-44.7937, -51.16)" d="m 36.44 57.29 s -0.07 -0.03 -0.08 -0.07 c -0.04 -0.28 -0.06 -0.55 -0.07 -0.83 c 0 -0.04 0.03 -0.08 0.08 -0.08 c 0.05 0 0.08 0.03 0.08 0.08 c 0.01 0.27 0.04 0.55 0.07 0.82 c 0 0.04 -0.03 0.08 -0.07 0.09 c 0 0 0 0 -0.01 0 Z m 0.08 -3.23 s 0 0 -0.01 0 c -0.04 0 -0.07 -0.05 -0.06 -0.09 c 0.13 -0.74 0.35 -1.48 0.64 -2.17 h 0 c 1.7 -4.12 5.72 -6.78 10.24 -6.78 c 2.11 0 4.16 0.59 5.93 1.7 c 0.04 0.02 0.05 0.07 0.02 0.11 c -0.02 0.04 -0.07 0.05 -0.11 0.03 c -1.75 -1.09 -3.77 -1.67 -5.85 -1.67 c -4.46 0 -8.42 2.62 -10.1 6.68 c 0 0 0 0 0 0 c -0.28 0.69 -0.49 1.41 -0.63 2.14 c 0 0.04 -0.04 0.07 -0.08 0.07 Z" stroke-linecap="round"/>
</g>
		<g transform="matrix(1 0 0 1 -20.695 1.1093)" id="Layer_1">
<linearGradient id="SVGID_1695" gradientUnits="userSpaceOnUse" gradientTransform="matrix(0.9898 -0.1428 0.1428 0.9898 -1041.8 -1776.58)" x1="799.9" y1="1960.74" x2="795.86" y2="1966.09">
<stop offset="0%" style="stop-color:rgb(254,187,186);stop-opacity: 1"/>
<stop offset="100%" style="stop-color:rgb(255,146,142);stop-opacity: 1"/>
</linearGradient>
<path style="stroke: none; stroke-width: 1; stroke-dasharray: none; stroke-linecap: butt; stroke-dashoffset: 0; stroke-linejoin: miter; stroke-miterlimit: 4; is-custom-font: none; font-file-url: none; fill: url(#SVGID_1695); fill-rule: nonzero; opacity: 1;" transform=" translate(-29.305, -51.1092)" d="m 30.64 49.6 c 0 0.05 -0.7 3.51 -0.7 3.51 l -1.97 -0.44 l 0.18 -3.38 s 2.35 -0.57 2.48 0.31 Z" stroke-linecap="round"/>
</g>
		<g transform="matrix(1 0 0 1 -20.8482 1.11)" id="Layer_1">
<linearGradient id="SVGID_1696" gradientUnits="userSpaceOnUse" gradientTransform="matrix(1 0 0 1 0 0)" x1="26.17" y1="50.62" x2="40.21" y2="52.39">
<stop offset="0%" style="stop-color:rgb(9,0,93);stop-opacity: 1"/>
<stop offset="100%" style="stop-color:rgb(26,15,145);stop-opacity: 1"/>
</linearGradient>
<path style="stroke: none; stroke-width: 1; stroke-dasharray: none; stroke-linecap: butt; stroke-dashoffset: 0; stroke-linejoin: miter; stroke-miterlimit: 4; is-custom-font: none; font-file-url: none; fill: url(#SVGID_1696); fill-rule: nonzero; opacity: 1;" transform=" translate(-29.1518, -51.11)" d="m 28.6 50.04 l -0.23 1.77 s 0 0.05 0 0.07 c 0.02 0.14 0.12 0.61 0.6 0.48 c 0.43 -0.12 0.83 -0.23 1.1 -0.14 c 0.12 0.04 0.2 0.16 0.17 0.29 c -0.06 0.31 -0.22 1.02 -0.45 1.61 c -0.05 0.12 -0.18 0.18 -0.3 0.15 c -0.37 -0.11 -1.15 -0.36 -1.73 -0.71 c -0.08 -0.05 -0.13 -0.13 -0.12 -0.22 c 0.02 -0.45 0.07 -1.8 0.03 -2.19 c -0.04 -0.36 -0.48 -0.57 -0.67 -0.65 c -0.06 -0.03 -0.11 -0.07 -0.14 -0.14 c -0.09 -0.22 -0.21 -0.73 0.43 -0.94 c 0.13 -0.04 0.21 -0.19 0.16 -0.32 c -0.1 -0.27 -0.14 -0.67 0.36 -0.9 c 0.51 -0.23 0.89 0.04 1.09 0.26 c 0.08 0.09 0.22 0.1 0.32 0.04 c 0.06 -0.04 0.13 -0.05 0.22 0 c 0.12 0.08 0.28 0.02 0.35 -0.11 c 0.12 -0.25 0.37 -0.52 0.87 -0.43 c 0.88 0.15 0.98 1.13 0.75 1.7 c -0.23 0.57 -1.18 0.35 -1.65 0.07 c -0.36 -0.22 -0.83 0.01 -1.03 0.13 c -0.06 0.04 -0.11 0.11 -0.12 0.18 Z" stroke-linecap="round"/>
</g>
		<g transform="matrix(1 0 0 1 -22.7484 1.1141)" id="Layer_1">
<linearGradient id="SVGID_1697" gradientUnits="userSpaceOnUse" gradientTransform="matrix(0.9898 -0.1428 0.1428 0.9898 -1041.8 -1776.58)" x1="793.97" y1="1964.98" x2="797.22" y2="1961.65">
<stop offset="0%" style="stop-color:rgb(254,187,186);stop-opacity: 1"/>
<stop offset="100%" style="stop-color:rgb(255,146,142);stop-opacity: 1"/>
</linearGradient>
<path style="stroke: none; stroke-width: 1; stroke-dasharray: none; stroke-linecap: butt; stroke-dashoffset: 0; stroke-linejoin: miter; stroke-miterlimit: 4; is-custom-font: none; font-file-url: none; fill: url(#SVGID_1697); fill-rule: nonzero; opacity: 1;" transform=" translate(-27.2516, -51.1141)" d="m 27.58 51.78 s 0.36 -1.01 0 -1.26 c -0.37 -0.25 -0.92 -0.12 -0.8 0.62 c 0.15 0.91 0.81 0.65 0.81 0.65 Z" stroke-linecap="round"/>
</g>
		<g transform="matrix(1 0 0 1 -28.835 16.5717)" id="Layer_1">
<linearGradient id="SVGID_1698" gradientUnits="userSpaceOnUse" gradientTransform="matrix(1 0 0 1 -1140.73 0)" x1="1163.93" y1="64.88" x2="1158.34" y2="69.83">
<stop offset="0%" style="stop-color:rgb(254,187,186);stop-opacity: 1"/>
<stop offset="100%" style="stop-color:rgb(255,146,142);stop-opacity: 1"/>
</linearGradient>
<path style="stroke: none; stroke-width: 1; stroke-dasharray: none; stroke-linecap: butt; stroke-dashoffset: 0; stroke-linejoin: miter; stroke-miterlimit: 4; is-custom-font: none; font-file-url: none; fill: url(#SVGID_1698); fill-rule: nonzero; opacity: 1;" transform=" translate(-21.165, -66.5717)" d="m 19.91 66.25 l 2.03 -0.17 l 0.88 0.81 s -0.21 0.29 -0.86 0.12 c -0.65 -0.16 -1.54 -0.21 -1.54 -0.21 c 0 0 -0.9 0.4 -0.91 -0.35 l 0.4 -0.21 Z" stroke-linecap="round"/>
</g>
		<g transform="matrix(1 0 0 1 -13.8175 12.3413)" id="Layer_1">
<linearGradient id="SVGID_1699" gradientUnits="userSpaceOnUse" gradientTransform="matrix(1 0 0 1 -1140.73 0)" x1="1176.14" y1="62.34" x2="1177.71" y2="62.34">
<stop offset="0%" style="stop-color:rgb(254,187,186);stop-opacity: 1"/>
<stop offset="100%" style="stop-color:rgb(255,146,142);stop-opacity: 1"/>
</linearGradient>
<path style="stroke: none; stroke-width: 1; stroke-dasharray: none; stroke-linecap: butt; stroke-dashoffset: 0; stroke-linejoin: miter; stroke-miterlimit: 4; is-custom-font: none; font-file-url: none; fill: url(#SVGID_1699); fill-rule: nonzero; opacity: 1;" transform=" translate(-36.1825, -62.3413)" d="m 35.61 63.09 c 0.18 0.14 0.78 -0.15 1.14 -0.35 c 0.18 -0.1 0.27 -0.31 0.2 -0.5 c -0.09 -0.28 -0.24 -0.64 -0.42 -0.68 c -0.3 -0.08 -1.65 0.97 -0.93 1.53 Z" stroke-linecap="round"/>
</g>
		<g transform="matrix(1 0 0 1 -32.8765 19.48)" id="Layer_1">
<path style="stroke: none; stroke-width: 1; stroke-dasharray: none; stroke-linecap: butt; stroke-dashoffset: 0; stroke-linejoin: miter; stroke-miterlimit: 4; is-custom-font: none; font-file-url: none; fill: rgb(145,179,250); fill-rule: nonzero; opacity: 1;" transform=" translate(-17.1235, -69.48)" d="m 16.45 71.17 s -0.02 0 -0.03 0 c -0.84 -0.29 -1.03 -0.78 -1.05 -1.15 c -0.02 -0.53 0.31 -1.03 0.83 -1.23 l 2.57 -1 s 0.09 0 0.1 0.04 c 0.02 0.04 0 0.09 -0.04 0.1 l -2.57 1 c -0.46 0.18 -0.75 0.61 -0.73 1.07 c 0.02 0.46 0.34 0.8 0.94 1.01 c 0.04 0.01 0.06 0.06 0.05 0.1 c -0.01 0.03 -0.04 0.05 -0.07 0.05 Z" stroke-linecap="round"/>
</g>
		<g transform="matrix(1 0 0 1 -30.225 17.49)" id="Layer_1">
<path style="stroke: none; stroke-width: 1; stroke-dasharray: none; stroke-linecap: butt; stroke-dashoffset: 0; stroke-linejoin: miter; stroke-miterlimit: 4; is-custom-font: none; font-file-url: none; fill: rgb(145,179,250); fill-rule: nonzero; opacity: 1;" transform=" translate(-19.775, -67.49)" d="m 19.61 67.63 s -0.06 -0.02 -0.07 -0.05 c -0.02 -0.04 0 -0.09 0.04 -0.1 l 0.33 -0.13 s 0.09 0 0.1 0.04 c 0.02 0.04 0 0.09 -0.04 0.1 l -0.33 0.13 s -0.02 0 -0.03 0 Z" stroke-linecap="round"/>
</g>
</g>
</g>
</svg>