<?xml version="1.0" encoding="UTF-8"?>
<!DOCTYPE svg PUBLIC "-//W3C//DTD SVG 1.1//EN" "http://www.w3.org/Graphics/SVG/1.1/DTD/svg11.dtd">
<svg xmlns="http://www.w3.org/2000/svg" version="1.1" width="100px" height="100px" style="shape-rendering:geometricPrecision; text-rendering:geometricPrecision; image-rendering:optimizeQuality; fill-rule:evenodd; clip-rule:evenodd" xmlns:xlink="http://www.w3.org/1999/xlink">
<g><path style="opacity:0.834" fill="#888988" d="M 2.5,-0.5 C 28.5,-0.5 54.5,-0.5 80.5,-0.5C 80.9867,0.473444 81.4867,1.47344 82,2.5C 82.4998,11.1603 82.6664,19.8269 82.5,28.5C 80.8561,28.7135 79.3561,28.3802 78,27.5C 77.5003,19.8406 77.3336,12.1739 77.5,4.5C 53.2586,4.17234 29.0919,4.50567 5,5.5C 4.33333,34.8333 4.33333,64.1667 5,93.5C 28.7608,94.6605 52.5941,94.8272 76.5,94C 77.3089,88.5829 77.8089,83.0829 78,77.5C 79.3561,76.6198 80.8561,76.2865 82.5,76.5C 82.6663,83.175 82.4996,89.8417 82,96.5C 80.8549,97.6364 79.6883,98.6364 78.5,99.5C 53.5,99.5 28.5,99.5 3.5,99.5C 1.83333,98.5 0.5,97.1667 -0.5,95.5C -0.5,64.5 -0.5,33.5 -0.5,2.5C 0.833333,1.83333 1.83333,0.833333 2.5,-0.5 Z"/></g>
<g><path style="opacity:0.836" fill="#888988" d="M 36.5,9.5 C 52.6674,8.83293 60.1674,16.4996 59,32.5C 53.7686,45.4716 44.602,49.305 31.5,44C 20.9504,34.928 19.9504,24.928 28.5,14C 31.0993,12.205 33.7659,10.705 36.5,9.5 Z M 38.5,14.5 C 47.6665,14.5024 52.9999,19.0024 54.5,28C 54.6373,30.5559 53.804,32.7225 52,34.5C 51,33.5 50,32.5 49,31.5C 48.8404,27.7125 48.1737,24.0458 47,20.5C 39.6706,16.3668 35.1706,18.3668 33.5,26.5C 33.6207,27.8945 33.954,29.2278 34.5,30.5C 33.1349,31.941 31.6349,33.2744 30,34.5C 26.4868,25.1883 29.3202,18.5217 38.5,14.5 Z M 39.5,23.5 C 43.35,23.7007 44.35,25.5341 42.5,29C 41.365,29.7494 40.365,29.5827 39.5,28.5C 38.4647,26.8716 38.4647,25.205 39.5,23.5 Z M 39.5,34.5 C 43.2256,34.5737 46.2256,36.0737 48.5,39C 44.6492,41.6355 40.6492,41.9688 36.5,40C 35.0439,39.5774 34.5439,38.7441 35,37.5C 36.4087,36.2189 37.9087,35.2189 39.5,34.5 Z"/></g>
<g><path style="opacity:0.832" fill="#888988" d="M 99.5,27.5 C 99.5,30.5 99.5,33.5 99.5,36.5C 90.856,49.7723 82.6893,63.439 75,77.5C 70.2363,83.1406 64.403,86.8073 57.5,88.5C 57.4314,81.3828 58.2647,74.3828 60,67.5C 67.7274,54.612 75.2274,41.612 82.5,28.5C 87.7757,22.3008 93.4424,21.9675 99.5,27.5 Z M 89.5,28.5 C 94.8385,29.3506 95.6718,31.684 92,35.5C 90.1072,34.8037 88.2738,33.9704 86.5,33C 87.3862,31.3853 88.3862,29.8853 89.5,28.5 Z M 83.5,37.5 C 85.8525,38.3403 87.8525,39.6736 89.5,41.5C 83.5859,52.3302 77.4193,62.9968 71,73.5C 68.8627,72.5214 67.0294,71.1881 65.5,69.5C 71.524,58.7788 77.524,48.1121 83.5,37.5 Z M 63.5,75.5 C 66.7742,76.3785 67.1075,77.7119 64.5,79.5C 63.5713,78.3112 63.238,76.9778 63.5,75.5 Z"/></g>
<g><path style="opacity:0.666" fill="#888988" d="M 13.5,51.5 C 17.1378,50.7366 18.6378,52.0699 18,55.5C 14.3307,57.0093 12.8307,55.6759 13.5,51.5 Z"/></g>
<g><path style="opacity:0.823" fill="#888988" d="M 22.5,51.5 C 32.8387,51.3335 43.172,51.5002 53.5,52C 54.727,53.5874 54.3937,54.9207 52.5,56C 42.8333,56.6667 33.1667,56.6667 23.5,56C 21.4523,54.7741 21.119,53.2741 22.5,51.5 Z"/></g>
<g><path style="opacity:0.64" fill="#888988" d="M 13.5,62.5 C 15.1667,62.5 16.8333,62.5 18.5,62.5C 19.1693,66.6759 17.6693,68.0093 14,66.5C 13.51,65.2068 13.3433,63.8734 13.5,62.5 Z"/></g>
<g><path style="opacity:0.817" fill="#888988" d="M 22.5,62.5 C 32.8387,62.3335 43.172,62.5002 53.5,63C 54.7111,64.1131 54.7111,65.2798 53.5,66.5C 43.1828,67.6656 32.8494,67.8323 22.5,67C 21.2721,65.5098 21.2721,64.0098 22.5,62.5 Z"/></g>
<g><path style="opacity:0.695" fill="#888988" d="M 13.5,73.5 C 15.1667,73.5 16.8333,73.5 18.5,73.5C 18.7254,75.7159 17.8921,77.3826 16,78.5C 14.1079,77.3826 13.2746,75.7159 13.5,73.5 Z"/></g>
<g><path style="opacity:0.82" fill="#888988" d="M 22.5,73.5 C 32.8387,73.3335 43.172,73.5002 53.5,74C 54.727,75.5874 54.3937,76.9207 52.5,78C 42.8333,78.6667 33.1667,78.6667 23.5,78C 21.4523,76.7741 21.119,75.2741 22.5,73.5 Z"/></g>
<g><path style="opacity:0.81" fill="#888988" d="M 40.5,83.5 C 44.5138,83.3345 48.5138,83.5012 52.5,84C 54.3937,85.0793 54.727,86.4126 53.5,88C 48.8333,88.6667 44.1667,88.6667 39.5,88C 38.2568,86.184 38.5901,84.684 40.5,83.5 Z"/></g>
</svg>
