<svg xmlns="http://www.w3.org/2000/svg" xmlns:xlink="http://www.w3.org/1999/xlink" width="500" zoomAndPan="magnify" viewBox="0 0 375 749.999995" height="1000" preserveAspectRatio="xMidYMid meet" version="1.0"><defs><g/><clipPath id="b69be34082"><path d="M 9.375 0 L 309 0 L 309 537 L 9.375 537 Z M 9.375 0 " clip-rule="nonzero"/></clipPath><clipPath id="88242571d0"><path d="M 45.375 0 L 272.949219 0 C 282.496094 0 291.65625 3.792969 298.40625 10.542969 C 305.15625 17.296875 308.949219 26.453125 308.949219 36 L 308.949219 500.40625 C 308.949219 509.957031 305.15625 519.113281 298.40625 525.863281 C 291.65625 532.613281 282.496094 536.40625 272.949219 536.40625 L 45.375 536.40625 C 35.828125 536.40625 26.671875 532.613281 19.917969 525.863281 C 13.167969 519.113281 9.375 509.957031 9.375 500.40625 L 9.375 36 C 9.375 16.117188 25.492188 0 45.375 0 " clip-rule="nonzero"/></clipPath><clipPath id="a46380a2ca"><path d="M 9.375 0.00390625 L 308.625 0.00390625 L 308.625 536.25 L 9.375 536.25 Z M 9.375 0.00390625 " clip-rule="nonzero"/></clipPath><clipPath id="5eb6de75cd"><path d="M 45.335938 0.00390625 L 272.664062 0.00390625 C 282.203125 0.00390625 291.347656 3.796875 298.09375 10.546875 C 304.835938 17.296875 308.625 26.449219 308.625 35.992188 L 308.625 500.257812 C 308.625 509.800781 304.835938 518.953125 298.09375 525.703125 C 291.347656 532.453125 282.203125 536.246094 272.664062 536.246094 L 45.335938 536.246094 C 35.796875 536.246094 26.652344 532.453125 19.90625 525.703125 C 13.164062 518.953125 9.375 509.800781 9.375 500.257812 L 9.375 35.992188 C 9.375 16.117188 25.476562 0.00390625 45.335938 0.00390625 " clip-rule="nonzero"/></clipPath><clipPath id="c528cef458"><path d="M 252.699219 37.5 L 365.199219 37.5 L 365.199219 111 L 252.699219 111 Z M 252.699219 37.5 " clip-rule="nonzero"/></clipPath><clipPath id="0a1665715a"><path d="M 252.699219 37.5 L 337.074219 37.5 L 365.199219 74.121094 L 337.074219 110.742188 L 252.699219 110.742188 L 280.824219 74.121094 L 252.699219 37.5 " clip-rule="nonzero"/></clipPath><clipPath id="da9299da5f"><path d="M 252.707031 37.5 L 365.191406 37.5 L 365.191406 111 L 252.707031 111 Z M 252.707031 37.5 " clip-rule="nonzero"/></clipPath><clipPath id="4da9f6e89c"><path d="M 252.707031 37.5 L 337.070312 37.5 L 365.191406 74.25 L 337.070312 111 L 252.707031 111 L 280.828125 74.25 L 252.707031 37.5 " clip-rule="nonzero"/></clipPath><clipPath id="7218899c5c"><path d="M 49.515625 205 L 268.515625 205 L 268.515625 332.597656 L 49.515625 332.597656 Z M 49.515625 205 " clip-rule="nonzero"/></clipPath><clipPath id="84c1b55cd9"><path d="M 95 305 L 121 305 L 121 332.597656 L 95 332.597656 Z M 95 305 " clip-rule="nonzero"/></clipPath><clipPath id="6c838a7bad"><path d="M 83 129.347656 L 111 129.347656 L 111 231 L 83 231 Z M 83 129.347656 " clip-rule="nonzero"/></clipPath></defs><g clip-path="url(#b69be34082)"><g clip-path="url(#88242571d0)"><path fill="#082a71" d="M 9.375 0 L 308.203125 0 L 308.203125 536.132812 L 9.375 536.132812 Z M 9.375 0 " fill-opacity="1" fill-rule="nonzero"/></g></g><g clip-path="url(#a46380a2ca)"><g clip-path="url(#5eb6de75cd)"><path stroke-linecap="butt" transform="matrix(0.749208, 0, 0, 0.749787, 9.375001, 0.00521562)" fill="none" stroke-linejoin="miter" d="M 47.998615 -0.00174632 L 351.423281 -0.00174632 C 364.15548 -0.00174632 376.36108 5.056982 385.365383 14.059539 C 394.364472 23.062096 399.421897 35.268688 399.421897 47.996261 L 399.421897 667.192956 C 399.421897 679.92053 394.364472 692.127122 385.365383 701.129678 C 376.36108 710.132235 364.15548 715.190964 351.423281 715.190964 L 47.998615 715.190964 C 35.266416 715.190964 23.060816 710.132235 14.056513 701.129678 C 5.057424 692.127122 -0.00000115872 679.92053 -0.00000115872 667.192956 L -0.00000115872 47.996261 C -0.00000115872 21.488732 21.49145 -0.00174632 47.998615 -0.00174632 " stroke="#082a71" stroke-width="8" stroke-opacity="1" stroke-miterlimit="4"/></g></g><g clip-path="url(#c528cef458)"><g clip-path="url(#0a1665715a)"><path fill="#fffffe" d="M 252.699219 37.5 L 365.199219 37.5 L 365.199219 111.328125 L 252.699219 111.328125 Z M 252.699219 37.5 " fill-opacity="1" fill-rule="nonzero"/></g></g><g clip-path="url(#da9299da5f)"><g clip-path="url(#4da9f6e89c)"><path stroke-linecap="butt" transform="matrix(0.75, 0, 0, 0.75276, 252.707802, 37.500018)" fill="none" stroke-linejoin="miter" d="M -0.00102741 -0.0000241411 L 112.483346 -0.0000241411 L 149.978137 48.820291 L 112.483346 97.640607 L -0.00102741 97.640607 L 37.493764 48.820291 L -0.00102741 -0.0000241411 " stroke="#082a71" stroke-width="8" stroke-opacity="1" stroke-miterlimit="4"/></g></g><path fill="#ffffff" d="M 156.246094 206.9375 C 156.246094 205.949219 157.046875 205.144531 158.035156 205.144531 L 162.992188 205.144531 L 162.992188 201.554688 L 152.199219 201.554688 L 152.199219 215.335938 L 156.246094 217.296875 Z M 156.246094 206.9375 " fill-opacity="1" fill-rule="nonzero"/><path fill="#ffffff" d="M 162.992188 220.5625 L 162.992188 208.730469 L 159.824219 208.730469 L 159.824219 219.027344 Z M 162.992188 220.5625 " fill-opacity="1" fill-rule="nonzero"/><path fill="#ffffff" d="M 194.195312 202.730469 C 194.195312 202.113281 194.511719 201.539062 195.03125 201.210938 C 195.558594 200.886719 196.210938 200.847656 196.761719 201.117188 L 210.195312 207.621094 L 210.195312 193.863281 C 210.195312 181.800781 200.410156 171.984375 188.382812 171.984375 C 186.5 171.984375 184.679688 172.25 182.9375 172.703125 C 182.617188 173.003906 182.191406 173.195312 181.71875 173.195312 C 181.621094 173.195312 181.535156 173.15625 181.4375 173.140625 C 172.808594 176.058594 166.570312 184.234375 166.570312 193.859375 L 166.570312 222.292969 L 194.195312 235.664062 Z M 194.195312 202.730469 " fill-opacity="1" fill-rule="nonzero"/><path fill="#ffffff" d="M 139.082031 137.777344 L 130.132812 137.777344 L 127.917969 203.582031 L 141.519531 210.167969 Z M 139.082031 137.777344 " fill-opacity="1" fill-rule="nonzero"/><g clip-path="url(#7218899c5c)"><path fill="#ffffff" d="M 197.773438 205.589844 L 197.773438 238.523438 C 197.773438 239.140625 197.457031 239.714844 196.9375 240.042969 C 196.414062 240.371094 195.761719 240.410156 195.207031 240.140625 L 125.339844 206.316406 L 123.835938 205.589844 L 123.835938 238.523438 C 123.835938 239.140625 123.519531 239.714844 123 240.042969 C 122.476562 240.371094 121.824219 240.410156 121.269531 240.140625 L 49.894531 205.589844 L 49.894531 332.652344 L 92.367188 332.652344 L 92.367188 303.289062 C 92.367188 302.296875 93.167969 301.496094 94.15625 301.496094 L 122.042969 301.496094 C 123.03125 301.496094 123.832031 302.296875 123.832031 303.289062 L 123.832031 332.652344 L 268.132812 332.652344 L 268.132812 239.648438 Z M 79.652344 278.085938 L 57.671875 278.085938 L 57.671875 256.039062 L 79.652344 256.039062 Z M 255.089844 294.933594 C 255.089844 295.925781 254.289062 296.726562 253.300781 296.726562 L 138.667969 296.726562 C 137.679688 296.726562 136.878906 295.925781 136.878906 294.933594 L 136.878906 259.914062 C 136.878906 258.921875 137.679688 258.121094 138.667969 258.121094 L 253.296875 258.121094 C 254.285156 258.121094 255.085938 258.921875 255.085938 259.914062 L 255.085938 294.933594 Z M 255.089844 294.933594 " fill-opacity="1" fill-rule="nonzero"/></g><g clip-path="url(#84c1b55cd9)"><path fill="#ffffff" d="M 95.945312 305.085938 L 120.257812 305.085938 L 120.257812 332.652344 L 95.945312 332.652344 Z M 95.945312 305.085938 " fill-opacity="1" fill-rule="nonzero"/></g><path fill="#ffffff" d="M 213.773438 209.351562 L 223.984375 214.292969 L 223.984375 208.730469 L 213.773438 208.730469 Z M 213.773438 209.351562 " fill-opacity="1" fill-rule="nonzero"/><path fill="#ffffff" d="M 188.992188 168.425781 L 188.992188 161.5 C 188.992188 160.507812 189.792969 159.703125 190.78125 159.703125 L 242.039062 159.703125 C 243.027344 159.703125 243.828125 160.507812 243.828125 161.5 L 243.828125 187.796875 C 245.65625 187.753906 247.488281 187.828125 249.316406 188.03125 L 249.316406 154.625 L 183.507812 154.625 L 183.507812 168.878906 C 185.085938 168.566406 186.714844 168.394531 188.382812 168.394531 C 188.589844 168.394531 188.789062 168.421875 188.992188 168.425781 Z M 188.992188 168.425781 " fill-opacity="1" fill-rule="nonzero"/><path fill="#ffffff" d="M 213.773438 201.554688 L 223.984375 201.554688 L 223.984375 205.144531 L 213.773438 205.144531 Z M 213.773438 201.554688 " fill-opacity="1" fill-rule="nonzero"/><path fill="#ffffff" d="M 223.984375 194.199219 C 223.984375 193.511719 224.375 192.886719 224.988281 192.585938 C 230.054688 190.105469 235.152344 188.597656 240.25 188.03125 L 240.25 163.292969 L 192.570312 163.292969 L 192.570312 168.773438 C 204.582031 170.785156 213.777344 181.253906 213.777344 193.859375 L 213.777344 197.96875 L 223.988281 197.96875 L 223.988281 194.199219 Z M 223.984375 194.199219 " fill-opacity="1" fill-rule="nonzero"/><path fill="#ffffff" d="M 261.988281 195.332031 C 250.5625 190.058594 238.992188 190.058594 227.5625 195.332031 L 227.5625 216.027344 L 261.988281 232.691406 Z M 261.988281 195.332031 " fill-opacity="1" fill-rule="nonzero"/><g clip-path="url(#6c838a7bad)"><path fill="#ffffff" d="M 101.664062 129.347656 L 91.613281 129.347656 L 83.820312 218.027344 L 110.597656 230.988281 Z M 101.664062 129.347656 " fill-opacity="1" fill-rule="nonzero"/></g><path fill="#ffffff" d="M 168.738281 261.710938 L 194.195312 261.710938 L 194.195312 275.632812 L 168.738281 275.632812 Z M 168.738281 261.710938 " fill-opacity="1" fill-rule="nonzero"/><path fill="#ffffff" d="M 226.808594 279.21875 L 251.507812 279.21875 L 251.507812 293.140625 L 226.808594 293.140625 Z M 226.808594 279.21875 " fill-opacity="1" fill-rule="nonzero"/><path fill="#ffffff" d="M 197.773438 279.21875 L 223.230469 279.21875 L 223.230469 293.140625 L 197.773438 293.140625 Z M 197.773438 279.21875 " fill-opacity="1" fill-rule="nonzero"/><path fill="#ffffff" d="M 226.808594 261.710938 L 251.507812 261.710938 L 251.507812 275.632812 L 226.808594 275.632812 Z M 226.808594 261.710938 " fill-opacity="1" fill-rule="nonzero"/><path fill="#ffffff" d="M 197.773438 261.710938 L 223.230469 261.710938 L 223.230469 275.632812 L 197.773438 275.632812 Z M 197.773438 261.710938 " fill-opacity="1" fill-rule="nonzero"/><path fill="#ffffff" d="M 140.457031 261.710938 L 165.160156 261.710938 L 165.160156 275.632812 L 140.457031 275.632812 Z M 140.457031 261.710938 " fill-opacity="1" fill-rule="nonzero"/><path fill="#ffffff" d="M 140.457031 279.21875 L 165.160156 279.21875 L 165.160156 293.140625 L 140.457031 293.140625 Z M 140.457031 279.21875 " fill-opacity="1" fill-rule="nonzero"/><path fill="#ffffff" d="M 168.738281 279.21875 L 194.195312 279.21875 L 194.195312 293.140625 L 168.738281 293.140625 Z M 168.738281 279.21875 " fill-opacity="1" fill-rule="nonzero"/><g fill="#ffffff" fill-opacity="1"><g transform="translate(63.117186, 407.85)"><g><path d="M 21.375 -27.609375 L 21.375 -23.171875 L 8 -23.171875 L 8 -16.375 L 20.671875 -16.375 L 20.671875 -11.9375 L 8 -11.9375 L 8 -4.453125 L 22.078125 -4.453125 L 22.078125 0 L 3.078125 0 L 3.078125 -27.609375 Z M 21.375 -27.609375 "/></g></g></g><g fill="#ffffff" fill-opacity="1"><g transform="translate(86.94621, 407.85)"><g><path d="M 12.90625 -19.1875 C 15.039062 -19.1875 16.710938 -18.546875 17.921875 -17.265625 C 19.128906 -15.992188 19.734375 -14.226562 19.734375 -11.96875 L 19.734375 0 L 15.046875 0 L 15.046875 -9.71875 C 15.046875 -13.21875 13.90625 -14.96875 11.625 -14.96875 C 10.300781 -14.96875 9.253906 -14.539062 8.484375 -13.6875 C 7.710938 -12.832031 7.328125 -11.703125 7.328125 -10.296875 L 7.328125 0 L 2.65625 0 L 2.65625 -18.71875 L 7.09375 -18.71875 L 7.09375 -15.71875 L 7.171875 -15.71875 C 8.242188 -18.03125 10.15625 -19.1875 12.90625 -19.1875 Z M 12.90625 -19.1875 "/></g></g></g><g fill="#ffffff" fill-opacity="1"><g transform="translate(109.332225, 407.85)"><g><path d="M 9.015625 -24.140625 L 9.015625 -18.71875 L 14.15625 -18.71875 L 14.15625 -14.734375 L 9.015625 -14.734375 L 9.015625 -6.4375 C 9.015625 -4.488281 9.882812 -3.515625 11.625 -3.515625 C 12.789062 -3.515625 13.632812 -3.707031 14.15625 -4.09375 L 14.15625 -0.15625 C 13.269531 0.257812 12.035156 0.46875 10.453125 0.46875 C 8.296875 0.46875 6.734375 -0.00390625 5.765625 -0.953125 C 4.804688 -1.898438 4.328125 -3.570312 4.328125 -5.96875 L 4.328125 -14.734375 L 0.46875 -14.734375 L 0.46875 -18.71875 L 4.328125 -18.71875 L 4.328125 -24.140625 Z M 9.015625 -24.140625 "/></g></g></g><g fill="#ffffff" fill-opacity="1"><g transform="translate(124.503234, 407.85)"><g><path d="M 11.890625 -19.1875 C 14.703125 -19.1875 16.867188 -18.25 18.390625 -16.375 C 19.910156 -14.507812 20.671875 -12.066406 20.671875 -9.046875 L 20.671875 -7.71875 L 6.390625 -7.71875 C 6.546875 -6.363281 7.085938 -5.285156 8.015625 -4.484375 C 8.941406 -3.679688 10.078125 -3.28125 11.421875 -3.28125 C 13.398438 -3.28125 15.078125 -4.125 16.453125 -5.8125 L 19.8125 -3.28125 C 17.78125 -0.78125 15.140625 0.46875 11.890625 0.46875 C 9.035156 0.46875 6.625 -0.4375 4.65625 -2.25 C 2.695312 -4.070312 1.71875 -6.441406 1.71875 -9.359375 C 1.71875 -12.273438 2.695312 -14.640625 4.65625 -16.453125 C 6.625 -18.273438 9.035156 -19.1875 11.890625 -19.1875 Z M 15.984375 -11.234375 C 15.960938 -12.710938 15.507812 -13.820312 14.625 -14.5625 C 13.738281 -15.300781 12.59375 -15.671875 11.1875 -15.671875 C 9.789062 -15.671875 8.6875 -15.257812 7.875 -14.4375 C 7.070312 -13.625 6.578125 -12.554688 6.390625 -11.234375 Z M 15.984375 -11.234375 "/></g></g></g><g fill="#ffffff" fill-opacity="1"><g transform="translate(146.889249, 407.85)"><g><path d="M 12.953125 -19.1875 C 13.335938 -19.1875 13.894531 -19.097656 14.625 -18.921875 L 14.625 -14.390625 C 13.820312 -14.617188 13.066406 -14.734375 12.359375 -14.734375 C 10.828125 -14.734375 9.601562 -14.28125 8.6875 -13.375 C 7.78125 -12.46875 7.328125 -11.257812 7.328125 -9.75 L 7.328125 0 L 2.65625 0 L 2.65625 -18.71875 L 7.328125 -18.71875 L 7.328125 -15.75 L 7.40625 -15.75 C 7.925781 -16.84375 8.664062 -17.6875 9.625 -18.28125 C 10.59375 -18.882812 11.703125 -19.1875 12.953125 -19.1875 Z M 12.953125 -19.1875 "/></g></g></g><g fill="#ffffff" fill-opacity="1"><g transform="translate(162.060257, 407.85)"><g/></g></g><g fill="#ffffff" fill-opacity="1"><g transform="translate(173.604267, 407.85)"><g><path d="M 5.265625 -18.71875 L 10.484375 -5.734375 L 10.5625 -5.734375 L 15.25 -18.71875 L 20.125 -18.71875 L 11.578125 3.203125 C 10.742188 5.222656 10.039062 6.570312 9.46875 7.25 C 8.90625 7.925781 8.207031 8.445312 7.375 8.8125 C 6.539062 9.175781 5.460938 9.359375 4.140625 9.359375 C 2.910156 9.359375 1.710938 9.203125 0.546875 8.890625 L 1.125 4.6875 C 2.007812 4.988281 2.804688 5.140625 3.515625 5.140625 C 4.472656 5.140625 5.203125 4.976562 5.703125 4.65625 C 6.210938 4.332031 6.742188 3.507812 7.296875 2.1875 L 8.109375 0.15625 L 0.109375 -18.71875 Z M 5.265625 -18.71875 "/></g></g></g><g fill="#ffffff" fill-opacity="1"><g transform="translate(193.845283, 407.85)"><g><path d="M 11.890625 -19.1875 C 14.753906 -19.1875 17.164062 -18.273438 19.125 -16.453125 C 21.09375 -14.640625 22.078125 -12.273438 22.078125 -9.359375 C 22.078125 -6.441406 21.09375 -4.070312 19.125 -2.25 C 17.164062 -0.4375 14.753906 0.46875 11.890625 0.46875 C 9.035156 0.46875 6.625 -0.4375 4.65625 -2.25 C 2.695312 -4.070312 1.71875 -6.441406 1.71875 -9.359375 C 1.71875 -12.273438 2.695312 -14.640625 4.65625 -16.453125 C 6.625 -18.273438 9.035156 -19.1875 11.890625 -19.1875 Z M 6.390625 -9.359375 C 6.390625 -7.691406 6.914062 -6.335938 7.96875 -5.296875 C 9.03125 -4.265625 10.335938 -3.75 11.890625 -3.75 C 13.484375 -3.75 14.796875 -4.273438 15.828125 -5.328125 C 16.867188 -6.378906 17.390625 -7.722656 17.390625 -9.359375 C 17.390625 -11.023438 16.863281 -12.375 15.8125 -13.40625 C 14.757812 -14.445312 13.441406 -14.96875 11.859375 -14.96875 C 10.328125 -14.96875 9.03125 -14.4375 7.96875 -13.375 C 6.914062 -12.3125 6.390625 -10.972656 6.390625 -9.359375 Z M 6.390625 -9.359375 "/></g></g></g><g fill="#ffffff" fill-opacity="1"><g transform="translate(217.635305, 407.85)"><g><path d="M 7.328125 -18.71875 L 7.328125 -9.046875 C 7.328125 -7.171875 7.613281 -5.816406 8.1875 -4.984375 C 8.757812 -4.160156 9.617188 -3.75 10.765625 -3.75 C 12.171875 -3.75 13.234375 -4.175781 13.953125 -5.03125 C 14.679688 -5.882812 15.046875 -7.039062 15.046875 -8.5 L 15.046875 -18.71875 L 19.734375 -18.71875 L 19.734375 0 L 15.28125 0 L 15.28125 -3 L 15.203125 -3 C 14.117188 -0.6875 12.210938 0.46875 9.484375 0.46875 C 7.367188 0.46875 5.703125 -0.160156 4.484375 -1.421875 C 3.265625 -2.679688 2.65625 -4.457031 2.65625 -6.75 L 2.65625 -18.71875 Z M 7.328125 -18.71875 "/></g></g></g><g fill="#ffffff" fill-opacity="1"><g transform="translate(240.021321, 407.85)"><g><path d="M 12.953125 -19.1875 C 13.335938 -19.1875 13.894531 -19.097656 14.625 -18.921875 L 14.625 -14.390625 C 13.820312 -14.617188 13.066406 -14.734375 12.359375 -14.734375 C 10.828125 -14.734375 9.601562 -14.28125 8.6875 -13.375 C 7.78125 -12.46875 7.328125 -11.257812 7.328125 -9.75 L 7.328125 0 L 2.65625 0 L 2.65625 -18.71875 L 7.328125 -18.71875 L 7.328125 -15.75 L 7.40625 -15.75 C 7.925781 -16.84375 8.664062 -17.6875 9.625 -18.28125 C 10.59375 -18.882812 11.703125 -19.1875 12.953125 -19.1875 Z M 12.953125 -19.1875 "/></g></g></g><g fill="#ffffff" fill-opacity="1"><g transform="translate(79.347654, 461.849997)"><g><path d="M 7.875 -27.609375 L 7.875 0 L 2.96875 0 L 2.96875 -27.609375 Z M 7.875 -27.609375 "/></g></g></g><g fill="#ffffff" fill-opacity="1"><g transform="translate(90.18966, 461.849997)"><g><path d="M 12.90625 -19.1875 C 15.039062 -19.1875 16.710938 -18.546875 17.921875 -17.265625 C 19.128906 -15.992188 19.734375 -14.226562 19.734375 -11.96875 L 19.734375 0 L 15.046875 0 L 15.046875 -9.71875 C 15.046875 -13.21875 13.90625 -14.96875 11.625 -14.96875 C 10.300781 -14.96875 9.253906 -14.539062 8.484375 -13.6875 C 7.710938 -12.832031 7.328125 -11.703125 7.328125 -10.296875 L 7.328125 0 L 2.65625 0 L 2.65625 -18.71875 L 7.09375 -18.71875 L 7.09375 -15.71875 L 7.171875 -15.71875 C 8.242188 -18.03125 10.15625 -19.1875 12.90625 -19.1875 Z M 12.90625 -19.1875 "/></g></g></g><g fill="#ffffff" fill-opacity="1"><g transform="translate(112.575675, 461.849997)"><g><path d="M 21.921875 -29.484375 L 21.921875 0 L 17.46875 0 L 17.46875 -2.8125 L 17.390625 -2.8125 C 16.085938 -0.625 13.929688 0.46875 10.921875 0.46875 C 8.140625 0.46875 5.910156 -0.453125 4.234375 -2.296875 C 2.554688 -4.140625 1.71875 -6.492188 1.71875 -9.359375 C 1.71875 -12.117188 2.5625 -14.445312 4.25 -16.34375 C 5.9375 -18.238281 8.109375 -19.1875 10.765625 -19.1875 C 13.441406 -19.1875 15.5625 -18.238281 17.125 -16.34375 L 17.234375 -16.34375 L 17.234375 -29.484375 Z M 6.390625 -9.359375 C 6.390625 -7.691406 6.914062 -6.335938 7.96875 -5.296875 C 9.03125 -4.265625 10.335938 -3.75 11.890625 -3.75 C 13.535156 -3.75 14.863281 -4.285156 15.875 -5.359375 C 16.882812 -6.441406 17.390625 -7.773438 17.390625 -9.359375 C 17.390625 -10.972656 16.863281 -12.3125 15.8125 -13.375 C 14.757812 -14.4375 13.453125 -14.96875 11.890625 -14.96875 C 10.359375 -14.96875 9.054688 -14.441406 7.984375 -13.390625 C 6.921875 -12.335938 6.390625 -10.992188 6.390625 -9.359375 Z M 6.390625 -9.359375 "/></g></g></g><g fill="#ffffff" fill-opacity="1"><g transform="translate(137.145693, 461.849997)"><g><path d="M 7.328125 -18.71875 L 7.328125 -9.046875 C 7.328125 -7.171875 7.613281 -5.816406 8.1875 -4.984375 C 8.757812 -4.160156 9.617188 -3.75 10.765625 -3.75 C 12.171875 -3.75 13.234375 -4.175781 13.953125 -5.03125 C 14.679688 -5.882812 15.046875 -7.039062 15.046875 -8.5 L 15.046875 -18.71875 L 19.734375 -18.71875 L 19.734375 0 L 15.28125 0 L 15.28125 -3 L 15.203125 -3 C 14.117188 -0.6875 12.210938 0.46875 9.484375 0.46875 C 7.367188 0.46875 5.703125 -0.160156 4.484375 -1.421875 C 3.265625 -2.679688 2.65625 -4.457031 2.65625 -6.75 L 2.65625 -18.71875 Z M 7.328125 -18.71875 "/></g></g></g><g fill="#ffffff" fill-opacity="1"><g transform="translate(159.531708, 461.849997)"><g><path d="M 9.046875 -19.1875 C 12.117188 -19.1875 14.351562 -18.238281 15.75 -16.34375 L 12.640625 -13.53125 C 11.703125 -14.800781 10.476562 -15.4375 8.96875 -15.4375 C 8.21875 -15.4375 7.570312 -15.253906 7.03125 -14.890625 C 6.5 -14.535156 6.234375 -14.054688 6.234375 -13.453125 C 6.234375 -12.546875 7.160156 -11.894531 9.015625 -11.5 L 10.6875 -11.109375 C 12.738281 -10.671875 14.191406 -9.988281 15.046875 -9.0625 C 15.910156 -8.144531 16.34375 -6.96875 16.34375 -5.53125 C 16.34375 -3.71875 15.613281 -2.265625 14.15625 -1.171875 C 12.695312 -0.078125 10.722656 0.46875 8.234375 0.46875 C 5.085938 0.46875 2.664062 -0.492188 0.96875 -2.421875 L 4.09375 -5.34375 C 4.894531 -4.457031 5.632812 -3.851562 6.3125 -3.53125 C 6.988281 -3.207031 7.734375 -3.046875 8.546875 -3.046875 C 9.398438 -3.046875 10.128906 -3.238281 10.734375 -3.625 C 11.347656 -4.019531 11.65625 -4.539062 11.65625 -5.1875 C 11.65625 -6.25 10.695312 -7.003906 8.78125 -7.453125 C 6.28125 -8.023438 4.71875 -8.472656 4.09375 -8.796875 C 3.46875 -9.117188 2.96875 -9.503906 2.59375 -9.953125 C 2.21875 -10.410156 1.953125 -10.90625 1.796875 -11.4375 C 1.640625 -11.976562 1.5625 -12.546875 1.5625 -13.140625 C 1.5625 -14.984375 2.269531 -16.453125 3.6875 -17.546875 C 5.101562 -18.640625 6.890625 -19.1875 9.046875 -19.1875 Z M 9.046875 -19.1875 "/></g></g></g><g fill="#ffffff" fill-opacity="1"><g transform="translate(176.847728, 461.849997)"><g><path d="M 9.015625 -24.140625 L 9.015625 -18.71875 L 14.15625 -18.71875 L 14.15625 -14.734375 L 9.015625 -14.734375 L 9.015625 -6.4375 C 9.015625 -4.488281 9.882812 -3.515625 11.625 -3.515625 C 12.789062 -3.515625 13.632812 -3.707031 14.15625 -4.09375 L 14.15625 -0.15625 C 13.269531 0.257812 12.035156 0.46875 10.453125 0.46875 C 8.296875 0.46875 6.734375 -0.00390625 5.765625 -0.953125 C 4.804688 -1.898438 4.328125 -3.570312 4.328125 -5.96875 L 4.328125 -14.734375 L 0.46875 -14.734375 L 0.46875 -18.71875 L 4.328125 -18.71875 L 4.328125 -24.140625 Z M 9.015625 -24.140625 "/></g></g></g><g fill="#ffffff" fill-opacity="1"><g transform="translate(192.018737, 461.849997)"><g><path d="M 12.953125 -19.1875 C 13.335938 -19.1875 13.894531 -19.097656 14.625 -18.921875 L 14.625 -14.390625 C 13.820312 -14.617188 13.066406 -14.734375 12.359375 -14.734375 C 10.828125 -14.734375 9.601562 -14.28125 8.6875 -13.375 C 7.78125 -12.46875 7.328125 -11.257812 7.328125 -9.75 L 7.328125 0 L 2.65625 0 L 2.65625 -18.71875 L 7.328125 -18.71875 L 7.328125 -15.75 L 7.40625 -15.75 C 7.925781 -16.84375 8.664062 -17.6875 9.625 -18.28125 C 10.59375 -18.882812 11.703125 -19.1875 12.953125 -19.1875 Z M 12.953125 -19.1875 "/></g></g></g><g fill="#ffffff" fill-opacity="1"><g transform="translate(207.189745, 461.849997)"><g><path d="M 5.265625 -18.71875 L 10.484375 -5.734375 L 10.5625 -5.734375 L 15.25 -18.71875 L 20.125 -18.71875 L 11.578125 3.203125 C 10.742188 5.222656 10.039062 6.570312 9.46875 7.25 C 8.90625 7.925781 8.207031 8.445312 7.375 8.8125 C 6.539062 9.175781 5.460938 9.359375 4.140625 9.359375 C 2.910156 9.359375 1.710938 9.203125 0.546875 8.890625 L 1.125 4.6875 C 2.007812 4.988281 2.804688 5.140625 3.515625 5.140625 C 4.472656 5.140625 5.203125 4.976562 5.703125 4.65625 C 6.210938 4.332031 6.742188 3.507812 7.296875 2.1875 L 8.109375 0.15625 L 0.109375 -18.71875 Z M 5.265625 -18.71875 "/></g></g></g><g fill="#ffffff" fill-opacity="1"><g transform="translate(227.425775, 461.849997)"><g/></g></g></svg>