<?xml version="1.0" encoding="UTF-8"?>
<!DOCTYPE svg PUBLIC "-//W3C//DTD SVG 1.1//EN" "http://www.w3.org/Graphics/SVG/1.1/DTD/svg11.dtd">
<svg xmlns="http://www.w3.org/2000/svg" version="1.1" width="99px" height="99px" style="shape-rendering:geometricPrecision; text-rendering:geometricPrecision; image-rendering:optimizeQuality; fill-rule:evenodd; clip-rule:evenodd" xmlns:xlink="http://www.w3.org/1999/xlink">
<g><path style="opacity:0.819" fill="#888988" d="M 7.5,-0.5 C 32.8333,-0.5 58.1667,-0.5 83.5,-0.5C 87.0006,1.50567 89.1672,4.50567 90,8.5C 90.3333,31.5 90.6667,54.5 91,77.5C 94.4373,79.4324 96.9373,82.0991 98.5,85.5C 98.5,87.1667 98.5,88.8333 98.5,90.5C 96.8333,94.1667 94.1667,96.8333 90.5,98.5C 68.5,98.5 46.5,98.5 24.5,98.5C 21.6603,97.3135 19.4936,95.3135 18,92.5C 17.501,88.1794 17.3343,83.8461 17.5,79.5C 18.8333,79.5 20.1667,79.5 21.5,79.5C 21.021,83.9113 21.6876,88.078 23.5,92C 27.6618,94.5716 30.8284,93.7383 33,89.5C 32.8724,86.5144 32.8724,83.5144 33,80.5C 33.8333,79.6667 34.6667,78.8333 35.5,78C 52.1633,77.5001 68.83,77.3334 85.5,77.5C 85.6666,54.1643 85.5,30.831 85,7.5C 84.1667,6.66667 83.3333,5.83333 82.5,5C 71.9272,3.8552 61.2605,3.3552 50.5,3.5C 40.5,3.83333 30.5,4.16667 20.5,4.5C 21.4752,14.4473 21.8085,24.4473 21.5,34.5C 20.1667,34.5 18.8333,34.5 17.5,34.5C 17.5,29.8333 17.5,25.1667 17.5,20.5C 4.93271,22.1018 -0.23396,16.7685 2,4.5C 3.72969,2.59809 5.56303,0.93142 7.5,-0.5 Z M 10.5,3.5 C 16.3866,5.25703 18.7199,9.25703 17.5,15.5C 14.4816,15.6646 11.4816,15.498 8.5,15C 4.141,10.2725 4.80767,6.43914 10.5,3.5 Z M 39.5,81.5 C 55.5035,81.3334 71.5035,81.5001 87.5,82C 94.068,84.1781 95.068,87.8448 90.5,93C 72.5,93.6667 54.5,93.6667 36.5,93C 38.0121,90.3472 38.3455,87.6805 37.5,85C 37.8618,83.5657 38.5285,82.3991 39.5,81.5 Z"/></g>
<g><path style="opacity:0.855" fill="#888988" d="M 33.5,17.5 C 38.1667,17.5 42.8333,17.5 47.5,17.5C 47.5,18.8333 47.5,20.1667 47.5,21.5C 45.8561,21.2865 44.3561,21.6198 43,22.5C 42.5012,26.4862 42.3345,30.4862 42.5,34.5C 41.1779,34.67 40.0113,34.3366 39,33.5C 38.6667,29.8333 38.3333,26.1667 38,22.5C 36.6439,21.6198 35.1439,21.2865 33.5,21.5C 33.5,20.1667 33.5,18.8333 33.5,17.5 Z"/></g>
<g><path style="opacity:0.801" fill="#888988" d="M 50.5,17.5 C 51.8221,17.33 52.9887,17.6634 54,18.5C 55.9442,22.7225 57.6108,27.0558 59,31.5C 60.8783,29.9571 62.3783,28.1238 63.5,26C 61.9684,23.9656 60.6351,21.7989 59.5,19.5C 60.3482,17.7172 61.6815,17.2172 63.5,18C 65.5538,22.6325 67.5538,22.6325 69.5,18C 70.7932,17.51 72.1266,17.3433 73.5,17.5C 73.4871,20.6903 72.4871,23.5237 70.5,26C 72.273,28.5899 73.273,31.4233 73.5,34.5C 70.1922,35.0262 68.0255,33.6928 67,30.5C 65.561,32.448 63.7277,33.7814 61.5,34.5C 59.9402,33.3929 58.4402,33.3929 57,34.5C 55.3333,33.5 53.6667,32.5 52,31.5C 50.5659,31.9304 49.3992,32.7638 48.5,34C 46.6815,34.7828 45.3482,34.2828 44.5,32.5C 46.5078,27.4712 48.5078,22.4712 50.5,17.5 Z"/></g>
<g><path style="opacity:0.811" fill="#888988" d="M -0.5,62.5 C -0.5,58.8333 -0.5,55.1667 -0.5,51.5C 4.50771,38.824 13.841,33.6573 27.5,36C 40.0455,40.9179 44.8788,50.0846 42,63.5C 34.9381,78.6335 23.7715,82.4668 8.5,75C 4.1179,71.7009 1.1179,67.5343 -0.5,62.5 Z M 18.5,39.5 C 30.3185,39.487 36.9852,45.3204 38.5,57C 37.3401,67.4932 31.5068,73.3266 21,74.5C 10.6304,73.2966 4.79703,67.4633 3.5,57C 4.93339,47.8904 9.93339,42.0571 18.5,39.5 Z"/></g>
<g><path style="opacity:0.788" fill="#888988" d="M 19.5,41.5 C 20.552,41.3505 21.552,41.5172 22.5,42C 24.1704,44.5952 26.0037,47.0952 28,49.5C 28.9859,51.9248 28.3193,53.5915 26,54.5C 24.1327,53.6233 22.966,52.1233 22.5,50C 18.8333,49.3333 17.8333,50.6667 19.5,54C 26.0737,54.5665 28.907,58.0665 28,64.5C 25.968,67.5254 23.6347,70.192 21,72.5C 19.3979,70.3023 17.5646,68.3023 15.5,66.5C 14.6258,64.2534 14.2924,61.9201 14.5,59.5C 15.552,59.3505 16.552,59.5172 17.5,60C 17.966,62.1233 19.1327,63.6233 21,64.5C 23.5,63.6667 24,62.1667 22.5,60C 15.1746,59.338 12.6746,55.5047 15,48.5C 17.5042,46.826 19.0042,44.4926 19.5,41.5 Z"/></g>
<g><path style="opacity:0.827" fill="#888988" d="M 43.5,45.5 C 50.5,45.5 57.5,45.5 64.5,45.5C 64.67,46.8221 64.3366,47.9887 63.5,49C 56.8417,49.4996 50.175,49.6663 43.5,49.5C 43.5,48.1667 43.5,46.8333 43.5,45.5 Z"/></g>
<g><path style="opacity:0.688" fill="#888988" d="M 45.5,54.5 C 55.5056,54.3335 65.5056,54.5002 75.5,55C 77.3348,55.9277 77.6682,57.0944 76.5,58.5C 66.1667,59.8333 55.8333,59.8333 45.5,58.5C 44.6371,57.2736 44.6371,55.9403 45.5,54.5 Z"/></g>
<g><path style="opacity:0.839" fill="#888988" d="M 45.5,64.5 C 55.8387,64.3335 66.172,64.5002 76.5,65C 77.8333,66 77.8333,67 76.5,68C 66.1667,68.6667 55.8333,68.6667 45.5,68C 44.3157,66.8545 44.3157,65.6879 45.5,64.5 Z"/></g>
</svg>
