<svg xmlns="http://www.w3.org/2000/svg" xmlns:xlink="http://www.w3.org/1999/xlink" width="500" zoomAndPan="magnify" viewBox="0 0 375 749.999995" height="1000" preserveAspectRatio="xMidYMid meet" version="1.0"><defs><g/><clipPath id="8210a7722b"><path d="M 9.375 0 L 309 0 L 309 537 L 9.375 537 Z M 9.375 0 " clip-rule="nonzero"/></clipPath><clipPath id="65a3583267"><path d="M 45.375 0 L 272.949219 0 C 282.496094 0 291.65625 3.792969 298.40625 10.542969 C 305.15625 17.296875 308.949219 26.453125 308.949219 36 L 308.949219 500.40625 C 308.949219 509.957031 305.15625 519.113281 298.40625 525.863281 C 291.65625 532.613281 282.496094 536.40625 272.949219 536.40625 L 45.375 536.40625 C 35.828125 536.40625 26.671875 532.613281 19.917969 525.863281 C 13.167969 519.113281 9.375 509.957031 9.375 500.40625 L 9.375 36 C 9.375 16.117188 25.492188 0 45.375 0 " clip-rule="nonzero"/></clipPath><clipPath id="eaf8534b86"><path d="M 9.375 0.00390625 L 308.625 0.00390625 L 308.625 536.25 L 9.375 536.25 Z M 9.375 0.00390625 " clip-rule="nonzero"/></clipPath><clipPath id="c70e41b76e"><path d="M 45.335938 0.00390625 L 272.664062 0.00390625 C 282.203125 0.00390625 291.347656 3.796875 298.09375 10.546875 C 304.835938 17.296875 308.625 26.449219 308.625 35.992188 L 308.625 500.257812 C 308.625 509.800781 304.835938 518.953125 298.09375 525.703125 C 291.347656 532.453125 282.203125 536.246094 272.664062 536.246094 L 45.335938 536.246094 C 35.796875 536.246094 26.652344 532.453125 19.90625 525.703125 C 13.164062 518.953125 9.375 509.800781 9.375 500.257812 L 9.375 35.992188 C 9.375 16.117188 25.476562 0.00390625 45.335938 0.00390625 " clip-rule="nonzero"/></clipPath><clipPath id="28e9e1db91"><path d="M 252.699219 37.5 L 365.199219 37.5 L 365.199219 111 L 252.699219 111 Z M 252.699219 37.5 " clip-rule="nonzero"/></clipPath><clipPath id="095d004972"><path d="M 252.699219 37.5 L 337.074219 37.5 L 365.199219 74.121094 L 337.074219 110.742188 L 252.699219 110.742188 L 280.824219 74.121094 L 252.699219 37.5 " clip-rule="nonzero"/></clipPath><clipPath id="6d6e144fb7"><path d="M 252.707031 37.5 L 365.191406 37.5 L 365.191406 111 L 252.707031 111 Z M 252.707031 37.5 " clip-rule="nonzero"/></clipPath><clipPath id="734252b2ff"><path d="M 252.707031 37.5 L 337.070312 37.5 L 365.191406 74.25 L 337.070312 111 L 252.707031 111 L 280.828125 74.25 L 252.707031 37.5 " clip-rule="nonzero"/></clipPath><clipPath id="1926b8aa6b"><path d="M 84.164062 110.742188 L 234.164062 110.742188 L 234.164062 323.742188 L 84.164062 323.742188 Z M 84.164062 110.742188 " clip-rule="nonzero"/></clipPath></defs><g clip-path="url(#8210a7722b)"><g clip-path="url(#65a3583267)"><path fill="#082a71" d="M 9.375 0 L 308.203125 0 L 308.203125 536.132812 L 9.375 536.132812 Z M 9.375 0 " fill-opacity="1" fill-rule="nonzero"/></g></g><g clip-path="url(#eaf8534b86)"><g clip-path="url(#c70e41b76e)"><path stroke-linecap="butt" transform="matrix(0.749208, 0, 0, 0.749787, 9.375001, 0.00521562)" fill="none" stroke-linejoin="miter" d="M 47.998615 -0.00174632 L 351.423281 -0.00174632 C 364.15548 -0.00174632 376.36108 5.056982 385.365383 14.059539 C 394.364472 23.062096 399.421897 35.268688 399.421897 47.996261 L 399.421897 667.192956 C 399.421897 679.92053 394.364472 692.127122 385.365383 701.129678 C 376.36108 710.132235 364.15548 715.190964 351.423281 715.190964 L 47.998615 715.190964 C 35.266416 715.190964 23.060816 710.132235 14.056513 701.129678 C 5.057424 692.127122 -0.00000115872 679.92053 -0.00000115872 667.192956 L -0.00000115872 47.996261 C -0.00000115872 21.488732 21.49145 -0.00174632 47.998615 -0.00174632 " stroke="#082a71" stroke-width="8" stroke-opacity="1" stroke-miterlimit="4"/></g></g><g clip-path="url(#28e9e1db91)"><g clip-path="url(#095d004972)"><path fill="#fffffe" d="M 252.699219 37.5 L 365.199219 37.5 L 365.199219 111.328125 L 252.699219 111.328125 Z M 252.699219 37.5 " fill-opacity="1" fill-rule="nonzero"/></g></g><g clip-path="url(#6d6e144fb7)"><g clip-path="url(#734252b2ff)"><path stroke-linecap="butt" transform="matrix(0.75, 0, 0, 0.75276, 252.707802, 37.500018)" fill="none" stroke-linejoin="miter" d="M -0.00102741 -0.0000241411 L 112.483346 -0.0000241411 L 149.978137 48.820291 L 112.483346 97.640607 L -0.00102741 97.640607 L 37.493764 48.820291 L -0.00102741 -0.0000241411 " stroke="#082a71" stroke-width="8" stroke-opacity="1" stroke-miterlimit="4"/></g></g><g clip-path="url(#1926b8aa6b)"><path fill="#ffffff" d="M 148.570312 110.742188 C 148.570312 110.742188 148.566406 110.742188 148.566406 110.742188 C 138.226562 110.742188 129.839844 119.121094 129.121094 129.523438 L 121.234375 129.523438 C 119.367188 129.523438 117.625 130.511719 116.613281 131.703125 C 115.601562 132.894531 115.097656 134.207031 114.753906 135.464844 L 113.324219 140.664062 L 93.742188 140.664062 C 88.449219 140.664062 84.21875 145.15625 84.21875 150.464844 L 84.21875 304.632812 C 84.21875 309.945312 88.449219 314.4375 93.742188 314.4375 L 178.492188 314.4375 C 184.394531 320.191406 192.460938 323.742188 201.335938 323.742188 C 219.375 323.742188 234.066406 309.066406 234.066406 291.039062 C 234.066406 277.085938 225.265625 265.140625 212.925781 260.453125 L 212.925781 150.464844 C 212.925781 145.15625 208.695312 140.664062 203.402344 140.664062 L 183.820312 140.664062 L 182.390625 135.464844 L 182.390625 135.460938 C 182.046875 134.207031 181.542969 132.894531 180.53125 131.703125 C 179.523438 130.511719 177.777344 129.523438 175.910156 129.523438 L 168.023438 129.523438 C 167.304688 119.152344 158.96875 110.800781 148.675781 110.746094 C 148.640625 110.746094 148.605469 110.742188 148.574219 110.742188 Z M 148.570312 116.742188 L 148.574219 116.742188 C 156 116.742188 162.085938 123.007812 162.085938 130.964844 C 162.082031 131.390625 162.0625 131.820312 162.023438 132.25 C 161.941406 133.089844 162.222656 133.925781 162.792969 134.546875 C 163.363281 135.171875 164.167969 135.527344 165.011719 135.527344 L 175.910156 135.527344 C 175.917969 135.542969 175.929688 135.558594 175.949219 135.582031 C 176.097656 135.757812 176.394531 136.3125 176.597656 137.054688 L 178.53125 144.09375 C 178.570312 144.339844 178.636719 144.582031 178.730469 144.8125 L 181.898438 156.339844 C 181.640625 156.507812 181.101562 156.714844 180.703125 156.714844 L 116.441406 156.714844 C 116.042969 156.714844 115.507812 156.507812 115.246094 156.339844 L 118.414062 144.820312 C 118.507812 144.589844 118.574219 144.347656 118.609375 144.101562 L 120.546875 137.054688 C 120.75 136.3125 121.046875 135.757812 121.195312 135.585938 C 121.214844 135.558594 121.230469 135.542969 121.238281 135.527344 L 132.140625 135.527344 C 132.988281 135.527344 133.796875 135.167969 134.367188 134.542969 C 134.9375 133.914062 135.214844 133.074219 135.128906 132.230469 C 135.089844 131.804688 135.066406 131.378906 135.058594 130.960938 C 135.066406 123.003906 141.148438 116.742188 148.570312 116.742188 Z M 148.570312 123.292969 C 143.917969 123.292969 140.210938 127.242188 140.210938 131.878906 C 140.210938 136.519531 143.917969 140.46875 148.570312 140.46875 C 153.226562 140.46875 156.933594 136.519531 156.933594 131.878906 C 156.933594 127.242188 153.226562 123.292969 148.570312 123.292969 Z M 148.570312 129.292969 C 149.835938 129.292969 150.925781 130.347656 150.925781 131.878906 C 150.925781 133.414062 149.835938 134.46875 148.570312 134.46875 C 147.308594 134.46875 146.21875 133.414062 146.21875 131.878906 C 146.21875 130.347656 147.308594 129.292969 148.570312 129.292969 Z M 93.742188 146.667969 L 111.675781 146.667969 L 109.332031 155.191406 C 108.699219 157.488281 109.90625 159.761719 111.351562 160.941406 C 112.800781 162.121094 114.546875 162.71875 116.441406 162.71875 L 180.703125 162.71875 C 182.597656 162.71875 184.347656 162.121094 185.792969 160.941406 C 187.242188 159.761719 188.445312 157.488281 187.8125 155.191406 L 185.472656 146.667969 L 203.402344 146.667969 C 205.332031 146.667969 206.917969 148.238281 206.917969 150.464844 L 206.917969 258.808594 C 205.101562 258.496094 203.238281 258.332031 201.335938 258.332031 C 188.359375 258.332031 177.121094 265.921875 171.828125 276.886719 L 135.554688 276.886719 C 134.46875 276.867188 133.457031 277.4375 132.910156 278.371094 C 132.363281 279.308594 132.363281 280.46875 132.910156 281.40625 C 133.457031 282.339844 134.46875 282.910156 135.554688 282.890625 L 169.632812 282.890625 C 168.960938 285.496094 168.601562 288.226562 168.601562 291.039062 C 168.601562 297.425781 170.445312 303.390625 173.628906 308.433594 L 93.742188 308.433594 C 91.8125 308.433594 90.226562 306.859375 90.226562 304.632812 L 90.226562 150.464844 C 90.226562 148.238281 91.8125 146.667969 93.742188 146.667969 Z M 123.710938 179.792969 C 122.929688 179.808594 122.183594 180.125 121.632812 180.675781 L 114.054688 188.046875 L 110.554688 184.660156 C 109.785156 183.890625 108.664062 183.597656 107.621094 183.890625 C 106.574219 184.179688 105.769531 185.011719 105.511719 186.066406 C 105.25 187.117188 105.582031 188.230469 106.375 188.96875 L 111.972656 194.386719 C 113.140625 195.515625 114.996094 195.515625 116.160156 194.382812 L 125.824219 184.976562 C 126.722656 184.125 127.007812 182.808594 126.542969 181.664062 C 126.074219 180.515625 124.949219 179.773438 123.710938 179.792969 Z M 135.554688 189.230469 C 134.476562 189.21875 133.472656 189.792969 132.929688 190.722656 C 132.390625 191.65625 132.390625 192.808594 132.929688 193.742188 C 133.472656 194.671875 134.476562 195.242188 135.554688 195.234375 L 188.671875 195.234375 C 189.75 195.242188 190.75 194.671875 191.292969 193.742188 C 191.835938 192.808594 191.835938 191.65625 191.292969 190.722656 C 190.75 189.792969 189.75 189.21875 188.671875 189.230469 Z M 123.710938 209.011719 C 122.929688 209.027344 122.183594 209.34375 121.632812 209.894531 L 114.054688 217.265625 L 110.554688 213.875 C 109.785156 213.109375 108.664062 212.816406 107.621094 213.105469 C 106.574219 213.398438 105.769531 214.230469 105.511719 215.285156 C 105.25 216.335938 105.582031 217.449219 106.375 218.1875 L 111.972656 223.605469 C 113.140625 224.734375 114.992188 224.734375 116.160156 223.601562 L 125.824219 214.195312 C 126.722656 213.34375 127.007812 212.027344 126.542969 210.882812 C 126.074219 209.734375 124.949219 208.992188 123.710938 209.011719 Z M 135.554688 218.449219 C 134.46875 218.429688 133.457031 219 132.910156 219.933594 C 132.363281 220.871094 132.363281 222.03125 132.910156 222.96875 C 133.457031 223.902344 134.46875 224.472656 135.554688 224.453125 L 188.671875 224.453125 C 189.757812 224.472656 190.765625 223.902344 191.316406 222.96875 C 191.863281 222.03125 191.863281 220.871094 191.316406 219.933594 C 190.765625 219 189.757812 218.429688 188.671875 218.449219 Z M 123.710938 238.230469 C 122.929688 238.246094 122.183594 238.5625 121.632812 239.113281 L 114.054688 246.484375 L 110.554688 243.097656 C 109.785156 242.328125 108.664062 242.035156 107.621094 242.328125 C 106.574219 242.617188 105.769531 243.449219 105.511719 244.503906 C 105.25 245.558594 105.582031 246.667969 106.375 247.410156 L 111.972656 252.824219 C 113.140625 253.957031 114.996094 253.953125 116.160156 252.820312 L 125.824219 243.414062 C 126.722656 242.5625 127.007812 241.246094 126.542969 240.101562 C 126.074219 238.953125 124.949219 238.210938 123.710938 238.230469 Z M 135.554688 247.667969 C 134.476562 247.65625 133.472656 248.230469 132.929688 249.160156 C 132.390625 250.09375 132.390625 251.246094 132.929688 252.179688 C 133.472656 253.109375 134.476562 253.679688 135.554688 253.671875 L 188.671875 253.671875 C 189.75 253.679688 190.75 253.109375 191.292969 252.179688 C 191.835938 251.246094 191.835938 250.09375 191.292969 249.160156 C 190.75 248.230469 189.75 247.65625 188.671875 247.667969 Z M 201.335938 264.335938 C 203.871094 264.335938 206.324219 264.6875 208.644531 265.339844 C 208.910156 265.464844 209.191406 265.550781 209.480469 265.59375 C 220.273438 269.023438 228.058594 279.097656 228.058594 291.039062 C 228.058594 305.820312 216.128906 317.742188 201.335938 317.742188 C 193.824219 317.742188 187.054688 314.671875 182.207031 309.710938 C 182.039062 309.472656 181.835938 309.257812 181.605469 309.074219 C 177.257812 304.332031 174.609375 298.003906 174.609375 291.039062 C 174.609375 287.683594 175.226562 284.476562 176.347656 281.523438 C 176.558594 281.199219 176.707031 280.835938 176.78125 280.457031 C 180.871094 270.960938 190.304688 264.335938 201.335938 264.335938 Z M 123.710938 267.453125 C 122.929688 267.464844 122.183594 267.78125 121.632812 268.332031 L 114.054688 275.703125 L 110.554688 272.316406 C 109.785156 271.546875 108.664062 271.253906 107.621094 271.546875 C 106.574219 271.835938 105.769531 272.667969 105.511719 273.722656 C 105.25 274.777344 105.582031 275.886719 106.375 276.625 L 111.972656 282.042969 C 113.140625 283.175781 114.992188 283.171875 116.160156 282.039062 L 125.824219 272.632812 C 126.722656 271.78125 127.007812 270.464844 126.539062 269.320312 C 126.074219 268.175781 124.949219 267.433594 123.710938 267.453125 Z M 217.8125 277.007812 C 216.929688 276.972656 216.074219 277.332031 215.476562 277.984375 L 196.976562 297.691406 L 187.1875 287.320312 C 186.453125 286.519531 185.347656 286.171875 184.289062 286.417969 C 183.230469 286.660156 182.386719 287.457031 182.082031 288.496094 C 181.773438 289.539062 182.054688 290.664062 182.816406 291.441406 L 194.796875 304.128906 C 195.367188 304.734375 196.160156 305.074219 196.988281 305.074219 C 197.816406 305.070312 198.605469 304.726562 199.171875 304.125 L 219.859375 282.089844 C 220.679688 281.238281 220.925781 279.984375 220.484375 278.886719 C 220.042969 277.789062 218.996094 277.050781 217.8125 277.007812 Z M 217.8125 277.007812 " fill-opacity="1" fill-rule="nonzero"/></g><g fill="#ffffff" fill-opacity="1"><g transform="translate(107.191402, 381.151173)"><g><path d="M 8 -27.609375 L 8 -15.90625 L 8.234375 -15.90625 L 19.65625 -27.609375 L 26.28125 -27.609375 L 13.375 -14.859375 L 27.140625 0 L 20.234375 0 L 8.265625 -13.578125 L 8 -13.578125 L 8 0 L 3.078125 0 L 3.078125 -27.609375 Z M 8 -27.609375 "/></g></g></g><g fill="#ffffff" fill-opacity="1"><g transform="translate(133.906421, 381.151173)"><g><path d="M 12.90625 -19.1875 C 15.039062 -19.1875 16.710938 -18.546875 17.921875 -17.265625 C 19.128906 -15.992188 19.734375 -14.226562 19.734375 -11.96875 L 19.734375 0 L 15.046875 0 L 15.046875 -9.71875 C 15.046875 -13.21875 13.90625 -14.96875 11.625 -14.96875 C 10.300781 -14.96875 9.253906 -14.539062 8.484375 -13.6875 C 7.710938 -12.832031 7.328125 -11.703125 7.328125 -10.296875 L 7.328125 0 L 2.65625 0 L 2.65625 -18.71875 L 7.09375 -18.71875 L 7.09375 -15.71875 L 7.171875 -15.71875 C 8.242188 -18.03125 10.15625 -19.1875 12.90625 -19.1875 Z M 12.90625 -19.1875 "/></g></g></g><g fill="#ffffff" fill-opacity="1"><g transform="translate(156.292436, 381.151173)"><g><path d="M 11.890625 -19.1875 C 14.753906 -19.1875 17.164062 -18.273438 19.125 -16.453125 C 21.09375 -14.640625 22.078125 -12.273438 22.078125 -9.359375 C 22.078125 -6.441406 21.09375 -4.070312 19.125 -2.25 C 17.164062 -0.4375 14.753906 0.46875 11.890625 0.46875 C 9.035156 0.46875 6.625 -0.4375 4.65625 -2.25 C 2.695312 -4.070312 1.71875 -6.441406 1.71875 -9.359375 C 1.71875 -12.273438 2.695312 -14.640625 4.65625 -16.453125 C 6.625 -18.273438 9.035156 -19.1875 11.890625 -19.1875 Z M 6.390625 -9.359375 C 6.390625 -7.691406 6.914062 -6.335938 7.96875 -5.296875 C 9.03125 -4.265625 10.335938 -3.75 11.890625 -3.75 C 13.484375 -3.75 14.796875 -4.273438 15.828125 -5.328125 C 16.867188 -6.378906 17.390625 -7.722656 17.390625 -9.359375 C 17.390625 -11.023438 16.863281 -12.375 15.8125 -13.40625 C 14.757812 -14.445312 13.441406 -14.96875 11.859375 -14.96875 C 10.328125 -14.96875 9.03125 -14.4375 7.96875 -13.375 C 6.914062 -12.3125 6.390625 -10.972656 6.390625 -9.359375 Z M 6.390625 -9.359375 "/></g></g></g><g fill="#ffffff" fill-opacity="1"><g transform="translate(180.082459, 381.151173)"><g><path d="M 5.1875 -18.71875 L 9.25 -5.609375 L 9.328125 -5.609375 L 13.109375 -18.71875 L 18.171875 -18.71875 L 22.234375 -5.609375 L 22.3125 -5.609375 L 26.203125 -18.71875 L 30.921875 -18.71875 L 24.5625 0 L 19.921875 0 L 15.484375 -12.796875 L 15.40625 -12.796875 L 11.46875 0 L 6.625 0 L 0.109375 -18.71875 Z M 5.1875 -18.71875 "/></g></g></g><g fill="#ffffff" fill-opacity="1"><g transform="translate(84.749997, 435.15117)"><g><path d="M 12.953125 -19.1875 C 13.335938 -19.1875 13.894531 -19.097656 14.625 -18.921875 L 14.625 -14.390625 C 13.820312 -14.617188 13.066406 -14.734375 12.359375 -14.734375 C 10.828125 -14.734375 9.601562 -14.28125 8.6875 -13.375 C 7.78125 -12.46875 7.328125 -11.257812 7.328125 -9.75 L 7.328125 0 L 2.65625 0 L 2.65625 -18.71875 L 7.328125 -18.71875 L 7.328125 -15.75 L 7.40625 -15.75 C 7.925781 -16.84375 8.664062 -17.6875 9.625 -18.28125 C 10.59375 -18.882812 11.703125 -19.1875 12.953125 -19.1875 Z M 12.953125 -19.1875 "/></g></g></g><g fill="#ffffff" fill-opacity="1"><g transform="translate(99.921005, 435.15117)"><g><path d="M 11.890625 -19.1875 C 14.703125 -19.1875 16.867188 -18.25 18.390625 -16.375 C 19.910156 -14.507812 20.671875 -12.066406 20.671875 -9.046875 L 20.671875 -7.71875 L 6.390625 -7.71875 C 6.546875 -6.363281 7.085938 -5.285156 8.015625 -4.484375 C 8.941406 -3.679688 10.078125 -3.28125 11.421875 -3.28125 C 13.398438 -3.28125 15.078125 -4.125 16.453125 -5.8125 L 19.8125 -3.28125 C 17.78125 -0.78125 15.140625 0.46875 11.890625 0.46875 C 9.035156 0.46875 6.625 -0.4375 4.65625 -2.25 C 2.695312 -4.070312 1.71875 -6.441406 1.71875 -9.359375 C 1.71875 -12.273438 2.695312 -14.640625 4.65625 -16.453125 C 6.625 -18.273438 9.035156 -19.1875 11.890625 -19.1875 Z M 15.984375 -11.234375 C 15.960938 -12.710938 15.507812 -13.820312 14.625 -14.5625 C 13.738281 -15.300781 12.59375 -15.671875 11.1875 -15.671875 C 9.789062 -15.671875 8.6875 -15.257812 7.875 -14.4375 C 7.070312 -13.625 6.578125 -12.554688 6.390625 -11.234375 Z M 15.984375 -11.234375 "/></g></g></g><g fill="#ffffff" fill-opacity="1"><g transform="translate(122.307021, 435.15117)"><g><path d="M 7.40625 -29.484375 L 7.40625 0 L 2.734375 0 L 2.734375 -29.484375 Z M 7.40625 -29.484375 "/></g></g></g><g fill="#ffffff" fill-opacity="1"><g transform="translate(132.447035, 435.15117)"><g><path d="M 11.890625 -19.1875 C 14.703125 -19.1875 16.867188 -18.25 18.390625 -16.375 C 19.910156 -14.507812 20.671875 -12.066406 20.671875 -9.046875 L 20.671875 -7.71875 L 6.390625 -7.71875 C 6.546875 -6.363281 7.085938 -5.285156 8.015625 -4.484375 C 8.941406 -3.679688 10.078125 -3.28125 11.421875 -3.28125 C 13.398438 -3.28125 15.078125 -4.125 16.453125 -5.8125 L 19.8125 -3.28125 C 17.78125 -0.78125 15.140625 0.46875 11.890625 0.46875 C 9.035156 0.46875 6.625 -0.4375 4.65625 -2.25 C 2.695312 -4.070312 1.71875 -6.441406 1.71875 -9.359375 C 1.71875 -12.273438 2.695312 -14.640625 4.65625 -16.453125 C 6.625 -18.273438 9.035156 -19.1875 11.890625 -19.1875 Z M 15.984375 -11.234375 C 15.960938 -12.710938 15.507812 -13.820312 14.625 -14.5625 C 13.738281 -15.300781 12.59375 -15.671875 11.1875 -15.671875 C 9.789062 -15.671875 8.6875 -15.257812 7.875 -14.4375 C 7.070312 -13.625 6.578125 -12.554688 6.390625 -11.234375 Z M 15.984375 -11.234375 "/></g></g></g><g fill="#ffffff" fill-opacity="1"><g transform="translate(154.83305, 435.15117)"><g><path d="M 5.21875 -18.71875 L 10.21875 -5.609375 L 10.296875 -5.609375 L 15.328125 -18.71875 L 20.125 -18.71875 L 12.75 0 L 7.765625 0 L 0.109375 -18.71875 Z M 5.21875 -18.71875 "/></g></g></g><g fill="#ffffff" fill-opacity="1"><g transform="translate(175.074066, 435.15117)"><g><path d="M 10.5625 -19.1875 C 13.25 -19.1875 15.253906 -18.539062 16.578125 -17.25 C 17.898438 -15.96875 18.5625 -13.945312 18.5625 -11.1875 L 18.5625 0 L 14.359375 0 L 14.359375 -2.578125 L 14.234375 -2.578125 C 12.960938 -0.546875 10.960938 0.46875 8.234375 0.46875 C 6.203125 0.46875 4.554688 -0.0546875 3.296875 -1.109375 C 2.035156 -2.160156 1.40625 -3.503906 1.40625 -5.140625 C 1.40625 -7.328125 2.3125 -8.957031 4.125 -10.03125 C 5.945312 -11.113281 8.875 -11.65625 12.90625 -11.65625 L 14.359375 -11.65625 L 14.359375 -12.203125 C 14.359375 -13.296875 13.96875 -14.144531 13.1875 -14.75 C 12.40625 -15.363281 11.363281 -15.671875 10.0625 -15.671875 C 8.132812 -15.671875 6.46875 -15.023438 5.0625 -13.734375 L 2.609375 -16.1875 C 4.554688 -18.1875 7.207031 -19.1875 10.5625 -19.1875 Z M 6.078125 -5.5 C 6.078125 -4.695312 6.410156 -4.085938 7.078125 -3.671875 C 7.742188 -3.253906 8.519531 -3.046875 9.40625 -3.046875 C 11.007812 -3.046875 12.1875 -3.441406 12.9375 -4.234375 C 13.695312 -5.023438 14.078125 -6.019531 14.078125 -7.21875 L 14.078125 -8.390625 L 12.71875 -8.390625 C 8.289062 -8.390625 6.078125 -7.425781 6.078125 -5.5 Z M 6.078125 -5.5 "/></g></g></g><g fill="#ffffff" fill-opacity="1"><g transform="translate(196.017084, 435.15117)"><g><path d="M 12.90625 -19.1875 C 15.039062 -19.1875 16.710938 -18.546875 17.921875 -17.265625 C 19.128906 -15.992188 19.734375 -14.226562 19.734375 -11.96875 L 19.734375 0 L 15.046875 0 L 15.046875 -9.71875 C 15.046875 -13.21875 13.90625 -14.96875 11.625 -14.96875 C 10.300781 -14.96875 9.253906 -14.539062 8.484375 -13.6875 C 7.710938 -12.832031 7.328125 -11.703125 7.328125 -10.296875 L 7.328125 0 L 2.65625 0 L 2.65625 -18.71875 L 7.09375 -18.71875 L 7.09375 -15.71875 L 7.171875 -15.71875 C 8.242188 -18.03125 10.15625 -19.1875 12.90625 -19.1875 Z M 12.90625 -19.1875 "/></g></g></g><g fill="#ffffff" fill-opacity="1"><g transform="translate(218.4031, 435.15117)"><g><path d="M 9.015625 -24.140625 L 9.015625 -18.71875 L 14.15625 -18.71875 L 14.15625 -14.734375 L 9.015625 -14.734375 L 9.015625 -6.4375 C 9.015625 -4.488281 9.882812 -3.515625 11.625 -3.515625 C 12.789062 -3.515625 13.632812 -3.707031 14.15625 -4.09375 L 14.15625 -0.15625 C 13.269531 0.257812 12.035156 0.46875 10.453125 0.46875 C 8.296875 0.46875 6.734375 -0.00390625 5.765625 -0.953125 C 4.804688 -1.898438 4.328125 -3.570312 4.328125 -5.96875 L 4.328125 -14.734375 L 0.46875 -14.734375 L 0.46875 -18.71875 L 4.328125 -18.71875 L 4.328125 -24.140625 Z M 9.015625 -24.140625 "/></g></g></g><g fill="#ffffff" fill-opacity="1"><g transform="translate(47.554687, 489.151167)"><g><path d="M 11.890625 -19.1875 C 14.722656 -19.1875 16.988281 -18.238281 18.6875 -16.34375 L 15.4375 -13.109375 C 14.269531 -14.347656 13.085938 -14.96875 11.890625 -14.96875 C 10.234375 -14.96875 8.898438 -14.414062 7.890625 -13.3125 C 6.890625 -12.207031 6.390625 -10.890625 6.390625 -9.359375 C 6.390625 -7.691406 6.914062 -6.335938 7.96875 -5.296875 C 9.03125 -4.265625 10.335938 -3.75 11.890625 -3.75 C 13.398438 -3.75 14.609375 -4.332031 15.515625 -5.5 L 18.640625 -2.140625 C 17.910156 -1.410156 16.914062 -0.789062 15.65625 -0.28125 C 14.394531 0.21875 13.140625 0.46875 11.890625 0.46875 C 9.035156 0.46875 6.625 -0.4375 4.65625 -2.25 C 2.695312 -4.070312 1.71875 -6.441406 1.71875 -9.359375 C 1.71875 -12.191406 2.675781 -14.535156 4.59375 -16.390625 C 6.519531 -18.253906 8.953125 -19.1875 11.890625 -19.1875 Z M 11.890625 -19.1875 "/></g></g></g><g fill="#ffffff" fill-opacity="1"><g transform="translate(66.352705, 489.151167)"><g><path d="M 11.890625 -19.1875 C 14.753906 -19.1875 17.164062 -18.273438 19.125 -16.453125 C 21.09375 -14.640625 22.078125 -12.273438 22.078125 -9.359375 C 22.078125 -6.441406 21.09375 -4.070312 19.125 -2.25 C 17.164062 -0.4375 14.753906 0.46875 11.890625 0.46875 C 9.035156 0.46875 6.625 -0.4375 4.65625 -2.25 C 2.695312 -4.070312 1.71875 -6.441406 1.71875 -9.359375 C 1.71875 -12.273438 2.695312 -14.640625 4.65625 -16.453125 C 6.625 -18.273438 9.035156 -19.1875 11.890625 -19.1875 Z M 6.390625 -9.359375 C 6.390625 -7.691406 6.914062 -6.335938 7.96875 -5.296875 C 9.03125 -4.265625 10.335938 -3.75 11.890625 -3.75 C 13.484375 -3.75 14.796875 -4.273438 15.828125 -5.328125 C 16.867188 -6.378906 17.390625 -7.722656 17.390625 -9.359375 C 17.390625 -11.023438 16.863281 -12.375 15.8125 -13.40625 C 14.757812 -14.445312 13.441406 -14.96875 11.859375 -14.96875 C 10.328125 -14.96875 9.03125 -14.4375 7.96875 -13.375 C 6.914062 -12.3125 6.390625 -10.972656 6.390625 -9.359375 Z M 6.390625 -9.359375 "/></g></g></g><g fill="#ffffff" fill-opacity="1"><g transform="translate(90.142728, 489.151167)"><g><path d="M 12.71875 -19.1875 C 15.65625 -19.1875 17.601562 -18.03125 18.5625 -15.71875 C 19.863281 -18.03125 21.914062 -19.1875 24.71875 -19.1875 C 29.21875 -19.1875 31.46875 -16.46875 31.46875 -11.03125 L 31.46875 0 L 26.796875 0 L 26.796875 -10.71875 C 26.796875 -13.550781 25.640625 -14.96875 23.328125 -14.96875 C 22.078125 -14.96875 21.09375 -14.546875 20.375 -13.703125 C 19.664062 -12.859375 19.3125 -11.671875 19.3125 -10.140625 L 19.3125 0 L 14.625 0 L 14.625 -11.265625 C 14.625 -12.441406 14.347656 -13.351562 13.796875 -14 C 13.253906 -14.644531 12.460938 -14.96875 11.421875 -14.96875 C 9.972656 -14.96875 8.894531 -14.515625 8.1875 -13.609375 C 7.488281 -12.703125 7.140625 -11.570312 7.140625 -10.21875 L 7.140625 0 L 2.453125 0 L 2.453125 -18.71875 L 6.90625 -18.71875 L 6.90625 -15.796875 L 6.984375 -15.796875 C 8.078125 -18.054688 9.988281 -19.1875 12.71875 -19.1875 Z M 12.71875 -19.1875 "/></g></g></g><g fill="#ffffff" fill-opacity="1"><g transform="translate(124.072753, 489.151167)"><g><path d="M 13.65625 -19.1875 C 16.351562 -19.1875 18.5625 -18.273438 20.28125 -16.453125 C 22 -14.640625 22.859375 -12.273438 22.859375 -9.359375 C 22.859375 -6.578125 22.019531 -4.242188 20.34375 -2.359375 C 18.664062 -0.472656 16.488281 0.46875 13.8125 0.46875 C 11.082031 0.46875 8.960938 -0.476562 7.453125 -2.375 L 7.328125 -2.375 L 7.328125 8.890625 L 2.65625 8.890625 L 2.65625 -18.71875 L 7.09375 -18.71875 L 7.09375 -15.90625 L 7.171875 -15.90625 C 8.554688 -18.09375 10.71875 -19.1875 13.65625 -19.1875 Z M 7.171875 -9.359375 C 7.171875 -7.742188 7.679688 -6.40625 8.703125 -5.34375 C 9.734375 -4.28125 11.054688 -3.75 12.671875 -3.75 C 14.203125 -3.75 15.5 -4.273438 16.5625 -5.328125 C 17.632812 -6.378906 18.171875 -7.722656 18.171875 -9.359375 C 18.171875 -10.941406 17.644531 -12.269531 16.59375 -13.34375 C 15.539062 -14.425781 14.222656 -14.96875 12.640625 -14.96875 C 11.097656 -14.96875 9.800781 -14.4375 8.75 -13.375 C 7.695312 -12.3125 7.171875 -10.972656 7.171875 -9.359375 Z M 7.171875 -9.359375 "/></g></g></g><g fill="#ffffff" fill-opacity="1"><g transform="translate(148.642771, 489.151167)"><g><path d="M 7.40625 -29.484375 L 7.40625 0 L 2.734375 0 L 2.734375 -29.484375 Z M 7.40625 -29.484375 "/></g></g></g><g fill="#ffffff" fill-opacity="1"><g transform="translate(158.782785, 489.151167)"><g><path d="M 5.03125 -27.890625 C 5.882812 -27.890625 6.601562 -27.617188 7.1875 -27.078125 C 7.78125 -26.546875 8.078125 -25.878906 8.078125 -25.078125 C 8.078125 -24.242188 7.773438 -23.566406 7.171875 -23.046875 C 6.578125 -22.523438 5.863281 -22.265625 5.03125 -22.265625 C 4.195312 -22.265625 3.492188 -22.546875 2.921875 -23.109375 C 2.347656 -23.671875 2.0625 -24.328125 2.0625 -25.078125 C 2.0625 -25.828125 2.347656 -26.484375 2.921875 -27.046875 C 3.492188 -27.609375 4.195312 -27.890625 5.03125 -27.890625 Z M 7.40625 -18.71875 L 7.40625 0 L 2.734375 0 L 2.734375 -18.71875 Z M 7.40625 -18.71875 "/></g></g></g><g fill="#ffffff" fill-opacity="1"><g transform="translate(168.922799, 489.151167)"><g><path d="M 10.5625 -19.1875 C 13.25 -19.1875 15.253906 -18.539062 16.578125 -17.25 C 17.898438 -15.96875 18.5625 -13.945312 18.5625 -11.1875 L 18.5625 0 L 14.359375 0 L 14.359375 -2.578125 L 14.234375 -2.578125 C 12.960938 -0.546875 10.960938 0.46875 8.234375 0.46875 C 6.203125 0.46875 4.554688 -0.0546875 3.296875 -1.109375 C 2.035156 -2.160156 1.40625 -3.503906 1.40625 -5.140625 C 1.40625 -7.328125 2.3125 -8.957031 4.125 -10.03125 C 5.945312 -11.113281 8.875 -11.65625 12.90625 -11.65625 L 14.359375 -11.65625 L 14.359375 -12.203125 C 14.359375 -13.296875 13.96875 -14.144531 13.1875 -14.75 C 12.40625 -15.363281 11.363281 -15.671875 10.0625 -15.671875 C 8.132812 -15.671875 6.46875 -15.023438 5.0625 -13.734375 L 2.609375 -16.1875 C 4.554688 -18.1875 7.207031 -19.1875 10.5625 -19.1875 Z M 6.078125 -5.5 C 6.078125 -4.695312 6.410156 -4.085938 7.078125 -3.671875 C 7.742188 -3.253906 8.519531 -3.046875 9.40625 -3.046875 C 11.007812 -3.046875 12.1875 -3.441406 12.9375 -4.234375 C 13.695312 -5.023438 14.078125 -6.019531 14.078125 -7.21875 L 14.078125 -8.390625 L 12.71875 -8.390625 C 8.289062 -8.390625 6.078125 -7.425781 6.078125 -5.5 Z M 6.078125 -5.5 "/></g></g></g><g fill="#ffffff" fill-opacity="1"><g transform="translate(189.865818, 489.151167)"><g><path d="M 12.90625 -19.1875 C 15.039062 -19.1875 16.710938 -18.546875 17.921875 -17.265625 C 19.128906 -15.992188 19.734375 -14.226562 19.734375 -11.96875 L 19.734375 0 L 15.046875 0 L 15.046875 -9.71875 C 15.046875 -13.21875 13.90625 -14.96875 11.625 -14.96875 C 10.300781 -14.96875 9.253906 -14.539062 8.484375 -13.6875 C 7.710938 -12.832031 7.328125 -11.703125 7.328125 -10.296875 L 7.328125 0 L 2.65625 0 L 2.65625 -18.71875 L 7.09375 -18.71875 L 7.09375 -15.71875 L 7.171875 -15.71875 C 8.242188 -18.03125 10.15625 -19.1875 12.90625 -19.1875 Z M 12.90625 -19.1875 "/></g></g></g><g fill="#ffffff" fill-opacity="1"><g transform="translate(212.251833, 489.151167)"><g><path d="M 11.890625 -19.1875 C 14.722656 -19.1875 16.988281 -18.238281 18.6875 -16.34375 L 15.4375 -13.109375 C 14.269531 -14.347656 13.085938 -14.96875 11.890625 -14.96875 C 10.234375 -14.96875 8.898438 -14.414062 7.890625 -13.3125 C 6.890625 -12.207031 6.390625 -10.890625 6.390625 -9.359375 C 6.390625 -7.691406 6.914062 -6.335938 7.96875 -5.296875 C 9.03125 -4.265625 10.335938 -3.75 11.890625 -3.75 C 13.398438 -3.75 14.609375 -4.332031 15.515625 -5.5 L 18.640625 -2.140625 C 17.910156 -1.410156 16.914062 -0.789062 15.65625 -0.28125 C 14.394531 0.21875 13.140625 0.46875 11.890625 0.46875 C 9.035156 0.46875 6.625 -0.4375 4.65625 -2.25 C 2.695312 -4.070312 1.71875 -6.441406 1.71875 -9.359375 C 1.71875 -12.191406 2.675781 -14.535156 4.59375 -16.390625 C 6.519531 -18.253906 8.953125 -19.1875 11.890625 -19.1875 Z M 11.890625 -19.1875 "/></g></g></g><g fill="#ffffff" fill-opacity="1"><g transform="translate(231.049852, 489.151167)"><g><path d="M 11.890625 -19.1875 C 14.703125 -19.1875 16.867188 -18.25 18.390625 -16.375 C 19.910156 -14.507812 20.671875 -12.066406 20.671875 -9.046875 L 20.671875 -7.71875 L 6.390625 -7.71875 C 6.546875 -6.363281 7.085938 -5.285156 8.015625 -4.484375 C 8.941406 -3.679688 10.078125 -3.28125 11.421875 -3.28125 C 13.398438 -3.28125 15.078125 -4.125 16.453125 -5.8125 L 19.8125 -3.28125 C 17.78125 -0.78125 15.140625 0.46875 11.890625 0.46875 C 9.035156 0.46875 6.625 -0.4375 4.65625 -2.25 C 2.695312 -4.070312 1.71875 -6.441406 1.71875 -9.359375 C 1.71875 -12.273438 2.695312 -14.640625 4.65625 -16.453125 C 6.625 -18.273438 9.035156 -19.1875 11.890625 -19.1875 Z M 15.984375 -11.234375 C 15.960938 -12.710938 15.507812 -13.820312 14.625 -14.5625 C 13.738281 -15.300781 12.59375 -15.671875 11.1875 -15.671875 C 9.789062 -15.671875 8.6875 -15.257812 7.875 -14.4375 C 7.070312 -13.625 6.578125 -12.554688 6.390625 -11.234375 Z M 15.984375 -11.234375 "/></g></g></g><g fill="#ffffff" fill-opacity="1"><g transform="translate(253.435856, 489.151167)"><g><path d="M 9.046875 -19.1875 C 12.117188 -19.1875 14.351562 -18.238281 15.75 -16.34375 L 12.640625 -13.53125 C 11.703125 -14.800781 10.476562 -15.4375 8.96875 -15.4375 C 8.21875 -15.4375 7.570312 -15.253906 7.03125 -14.890625 C 6.5 -14.535156 6.234375 -14.054688 6.234375 -13.453125 C 6.234375 -12.546875 7.160156 -11.894531 9.015625 -11.5 L 10.6875 -11.109375 C 12.738281 -10.671875 14.191406 -9.988281 15.046875 -9.0625 C 15.910156 -8.144531 16.34375 -6.96875 16.34375 -5.53125 C 16.34375 -3.71875 15.613281 -2.265625 14.15625 -1.171875 C 12.695312 -0.078125 10.722656 0.46875 8.234375 0.46875 C 5.085938 0.46875 2.664062 -0.492188 0.96875 -2.421875 L 4.09375 -5.34375 C 4.894531 -4.457031 5.632812 -3.851562 6.3125 -3.53125 C 6.988281 -3.207031 7.734375 -3.046875 8.546875 -3.046875 C 9.398438 -3.046875 10.128906 -3.238281 10.734375 -3.625 C 11.347656 -4.019531 11.65625 -4.539062 11.65625 -5.1875 C 11.65625 -6.25 10.695312 -7.003906 8.78125 -7.453125 C 6.28125 -8.023438 4.71875 -8.472656 4.09375 -8.796875 C 3.46875 -9.117188 2.96875 -9.503906 2.59375 -9.953125 C 2.21875 -10.410156 1.953125 -10.90625 1.796875 -11.4375 C 1.640625 -11.976562 1.5625 -12.546875 1.5625 -13.140625 C 1.5625 -14.984375 2.269531 -16.453125 3.6875 -17.546875 C 5.101562 -18.640625 6.890625 -19.1875 9.046875 -19.1875 Z M 9.046875 -19.1875 "/></g></g></g></svg>