<svg xmlns="http://www.w3.org/2000/svg" xmlns:xlink="http://www.w3.org/1999/xlink" width="500" zoomAndPan="magnify" viewBox="0 0 375 749.999995" height="1000" preserveAspectRatio="xMidYMid meet" version="1.0"><defs><g/><clipPath id="1176ba7215"><path d="M 9.375 0 L 309 0 L 309 537 L 9.375 537 Z M 9.375 0 " clip-rule="nonzero"/></clipPath><clipPath id="a8714ad2c5"><path d="M 45.375 0 L 272.949219 0 C 282.496094 0 291.65625 3.792969 298.40625 10.542969 C 305.15625 17.296875 308.949219 26.453125 308.949219 36 L 308.949219 500.40625 C 308.949219 509.957031 305.15625 519.113281 298.40625 525.863281 C 291.65625 532.613281 282.496094 536.40625 272.949219 536.40625 L 45.375 536.40625 C 35.828125 536.40625 26.671875 532.613281 19.917969 525.863281 C 13.167969 519.113281 9.375 509.957031 9.375 500.40625 L 9.375 36 C 9.375 16.117188 25.492188 0 45.375 0 " clip-rule="nonzero"/></clipPath><clipPath id="5a27631345"><path d="M 9.375 0.00390625 L 308.625 0.00390625 L 308.625 536.25 L 9.375 536.25 Z M 9.375 0.00390625 " clip-rule="nonzero"/></clipPath><clipPath id="ecbe001ed4"><path d="M 45.335938 0.00390625 L 272.664062 0.00390625 C 282.203125 0.00390625 291.347656 3.796875 298.09375 10.546875 C 304.835938 17.296875 308.625 26.449219 308.625 35.992188 L 308.625 500.257812 C 308.625 509.800781 304.835938 518.953125 298.09375 525.703125 C 291.347656 532.453125 282.203125 536.246094 272.664062 536.246094 L 45.335938 536.246094 C 35.796875 536.246094 26.652344 532.453125 19.90625 525.703125 C 13.164062 518.953125 9.375 509.800781 9.375 500.257812 L 9.375 35.992188 C 9.375 16.117188 25.476562 0.00390625 45.335938 0.00390625 " clip-rule="nonzero"/></clipPath><clipPath id="8d3aaa4c13"><path d="M 252.699219 37.5 L 365.199219 37.5 L 365.199219 111 L 252.699219 111 Z M 252.699219 37.5 " clip-rule="nonzero"/></clipPath><clipPath id="2b8643cb5a"><path d="M 252.699219 37.5 L 337.074219 37.5 L 365.199219 74.121094 L 337.074219 110.742188 L 252.699219 110.742188 L 280.824219 74.121094 L 252.699219 37.5 " clip-rule="nonzero"/></clipPath><clipPath id="4896630428"><path d="M 252.707031 37.5 L 365.191406 37.5 L 365.191406 111 L 252.707031 111 Z M 252.707031 37.5 " clip-rule="nonzero"/></clipPath><clipPath id="a4f6b3d499"><path d="M 252.707031 37.5 L 337.070312 37.5 L 365.191406 74.25 L 337.070312 111 L 252.707031 111 L 280.828125 74.25 L 252.707031 37.5 " clip-rule="nonzero"/></clipPath><clipPath id="7260c50651"><path d="M 95 138.257812 L 200 138.257812 L 200 278 L 95 278 Z M 95 138.257812 " clip-rule="nonzero"/></clipPath><clipPath id="71f366efe1"><path d="M 30.007812 201 L 156 201 L 156 347.507812 L 30.007812 347.507812 Z M 30.007812 201 " clip-rule="nonzero"/></clipPath></defs><g clip-path="url(#1176ba7215)"><g clip-path="url(#a8714ad2c5)"><path fill="#082a71" d="M 9.375 0 L 308.203125 0 L 308.203125 536.132812 L 9.375 536.132812 Z M 9.375 0 " fill-opacity="1" fill-rule="nonzero"/></g></g><g clip-path="url(#5a27631345)"><g clip-path="url(#ecbe001ed4)"><path stroke-linecap="butt" transform="matrix(0.749208, 0, 0, 0.749787, 9.375001, 0.00521562)" fill="none" stroke-linejoin="miter" d="M 47.998615 -0.00174632 L 351.423281 -0.00174632 C 364.15548 -0.00174632 376.36108 5.056982 385.365383 14.059539 C 394.364472 23.062096 399.421897 35.268688 399.421897 47.996261 L 399.421897 667.192956 C 399.421897 679.92053 394.364472 692.127122 385.365383 701.129678 C 376.36108 710.132235 364.15548 715.190964 351.423281 715.190964 L 47.998615 715.190964 C 35.266416 715.190964 23.060816 710.132235 14.056513 701.129678 C 5.057424 692.127122 -0.00000115872 679.92053 -0.00000115872 667.192956 L -0.00000115872 47.996261 C -0.00000115872 21.488732 21.49145 -0.00174632 47.998615 -0.00174632 " stroke="#082a71" stroke-width="8" stroke-opacity="1" stroke-miterlimit="4"/></g></g><g clip-path="url(#8d3aaa4c13)"><g clip-path="url(#2b8643cb5a)"><path fill="#fffffe" d="M 252.699219 37.5 L 365.199219 37.5 L 365.199219 111.328125 L 252.699219 111.328125 Z M 252.699219 37.5 " fill-opacity="1" fill-rule="nonzero"/></g></g><g clip-path="url(#4896630428)"><g clip-path="url(#a4f6b3d499)"><path stroke-linecap="butt" transform="matrix(0.75, 0, 0, 0.75276, 252.707802, 37.500018)" fill="none" stroke-linejoin="miter" d="M -0.00102741 -0.0000241411 L 112.483346 -0.0000241411 L 149.978137 48.820291 L 112.483346 97.640607 L -0.00102741 97.640607 L 37.493764 48.820291 L -0.00102741 -0.0000241411 " stroke="#082a71" stroke-width="8" stroke-opacity="1" stroke-miterlimit="4"/></g></g><g clip-path="url(#7260c50651)"><path fill="#ffffff" d="M 103.066406 146.320312 L 191.886719 146.320312 L 191.886719 269.53125 L 103.066406 269.53125 Z M 99.050781 277.578125 L 195.90625 277.578125 C 198.125 277.578125 199.921875 275.777344 199.921875 273.554688 L 199.921875 142.296875 C 199.921875 140.078125 198.125 138.277344 195.90625 138.277344 L 99.050781 138.277344 C 96.832031 138.277344 95.03125 140.078125 95.03125 142.296875 L 95.03125 273.554688 C 95.03125 275.777344 96.832031 277.578125 99.050781 277.578125 " fill-opacity="1" fill-rule="nonzero"/></g><path fill="#ffffff" d="M 122.460938 161.609375 L 135.257812 161.609375 L 135.257812 177.402344 L 122.460938 177.402344 Z M 118.445312 185.449219 L 139.277344 185.449219 C 141.496094 185.449219 143.296875 183.648438 143.296875 181.425781 L 143.296875 157.585938 C 143.296875 155.363281 141.496094 153.5625 139.277344 153.5625 L 118.445312 153.5625 C 116.226562 153.5625 114.425781 155.363281 114.425781 157.585938 L 114.425781 181.425781 C 114.425781 183.648438 116.226562 185.449219 118.445312 185.449219 " fill-opacity="1" fill-rule="nonzero"/><path fill="#ffffff" d="M 177.96875 165.480469 L 156.21875 165.480469 C 154 165.480469 152.199219 167.285156 152.199219 169.503906 C 152.199219 171.726562 154 173.527344 156.21875 173.527344 L 177.96875 173.527344 C 180.1875 173.527344 181.984375 171.726562 181.984375 169.503906 C 181.984375 167.285156 180.1875 165.480469 177.96875 165.480469 " fill-opacity="1" fill-rule="nonzero"/><path fill="#ffffff" d="M 177.96875 177.402344 L 156.21875 177.402344 C 154 177.402344 152.199219 179.203125 152.199219 181.425781 C 152.199219 183.648438 154 185.449219 156.21875 185.449219 L 177.96875 185.449219 C 180.1875 185.449219 181.984375 183.648438 181.984375 181.425781 C 181.984375 179.203125 180.1875 177.402344 177.96875 177.402344 " fill-opacity="1" fill-rule="nonzero"/><path fill="#ffffff" d="M 177.96875 196.8125 L 116.988281 196.8125 C 114.769531 196.8125 112.96875 198.617188 112.96875 200.835938 C 112.96875 203.058594 114.769531 204.859375 116.988281 204.859375 L 177.96875 204.859375 C 180.1875 204.859375 181.984375 203.058594 181.984375 200.835938 C 181.984375 198.617188 180.1875 196.8125 177.96875 196.8125 " fill-opacity="1" fill-rule="nonzero"/><path fill="#ffffff" d="M 177.96875 214.695312 L 116.988281 214.695312 C 114.769531 214.695312 112.96875 216.496094 112.96875 218.71875 C 112.96875 220.9375 114.769531 222.742188 116.988281 222.742188 L 177.96875 222.742188 C 180.1875 222.742188 181.984375 220.9375 181.984375 218.71875 C 181.984375 216.496094 180.1875 214.695312 177.96875 214.695312 " fill-opacity="1" fill-rule="nonzero"/><path fill="#ffffff" d="M 177.96875 232.574219 L 116.988281 232.574219 C 114.769531 232.574219 112.96875 234.375 112.96875 236.597656 C 112.96875 238.820312 114.769531 240.621094 116.988281 240.621094 L 177.96875 240.621094 C 180.1875 240.621094 181.984375 238.820312 181.984375 236.597656 C 181.984375 234.375 180.1875 232.574219 177.96875 232.574219 " fill-opacity="1" fill-rule="nonzero"/><path fill="#ffffff" d="M 177.96875 250.453125 L 116.988281 250.453125 C 114.769531 250.453125 112.96875 252.253906 112.96875 254.476562 C 112.96875 256.699219 114.769531 258.5 116.988281 258.5 L 177.96875 258.5 C 180.1875 258.5 181.984375 256.699219 181.984375 254.476562 C 181.984375 252.253906 180.1875 250.453125 177.96875 250.453125 " fill-opacity="1" fill-rule="nonzero"/><path fill="#ffffff" d="M 284.34375 190.628906 L 208.042969 172.367188 C 205.886719 171.851562 203.71875 173.183594 203.203125 175.34375 C 202.6875 177.507812 204.019531 179.675781 206.175781 180.195312 L 278.570312 197.519531 L 249.960938 317.355469 L 163.578125 296.679688 L 166.289062 285.324219 C 166.804688 283.164062 165.472656 280.996094 163.3125 280.476562 C 161.15625 279.964844 158.988281 281.296875 158.472656 283.457031 L 154.828125 298.722656 C 154.578125 299.761719 154.753906 300.855469 155.3125 301.765625 C 155.867188 302.671875 156.765625 303.320312 157.800781 303.570312 L 252 326.117188 C 252.316406 326.191406 252.628906 326.226562 252.9375 326.226562 C 254.753906 326.226562 256.402344 324.984375 256.84375 323.136719 L 287.316406 195.476562 C 287.832031 193.316406 286.503906 191.144531 284.34375 190.628906 " fill-opacity="1" fill-rule="nonzero"/><path fill="#ffffff" d="M 208.574219 212.722656 C 206.417969 212.210938 204.25 213.542969 203.730469 215.703125 C 203.214844 217.863281 204.546875 220.035156 206.707031 220.550781 L 218.316406 223.328125 C 218.628906 223.40625 218.945312 223.441406 219.253906 223.441406 C 221.070312 223.441406 222.71875 222.199219 223.160156 220.351562 L 228.691406 197.164062 C 228.941406 196.125 228.765625 195.035156 228.207031 194.125 C 227.652344 193.214844 226.757812 192.566406 225.71875 192.316406 L 208.574219 188.214844 C 206.417969 187.699219 204.25 189.03125 203.730469 191.191406 C 203.214844 193.351562 204.546875 195.523438 206.707031 196.039062 L 219.941406 199.207031 L 216.277344 214.570312 L 208.574219 212.722656 " fill-opacity="1" fill-rule="nonzero"/><path fill="#ffffff" d="M 258.714844 220.742188 C 259.027344 220.816406 259.339844 220.851562 259.652344 220.851562 C 261.46875 220.851562 263.113281 219.609375 263.554688 217.765625 C 264.070312 215.605469 262.738281 213.433594 260.582031 212.917969 L 239.429688 207.855469 C 237.273438 207.339844 235.101562 208.671875 234.585938 210.832031 C 234.070312 212.992188 235.402344 215.164062 237.558594 215.679688 L 258.714844 220.742188 " fill-opacity="1" fill-rule="nonzero"/><path fill="#ffffff" d="M 231.820312 222.425781 C 231.304688 224.585938 232.632812 226.753906 234.792969 227.273438 L 255.945312 232.335938 C 256.257812 232.410156 256.574219 232.445312 256.882812 232.445312 C 258.699219 232.445312 260.347656 231.203125 260.785156 229.359375 C 261.300781 227.199219 259.972656 225.023438 257.816406 224.511719 L 236.660156 219.445312 C 234.503906 218.929688 232.335938 220.261719 231.820312 222.425781 " fill-opacity="1" fill-rule="nonzero"/><path fill="#ffffff" d="M 206.707031 240.511719 L 251.4375 251.214844 C 251.753906 251.289062 252.066406 251.328125 252.375 251.328125 C 254.191406 251.328125 255.839844 250.085938 256.28125 248.238281 C 256.796875 246.078125 255.464844 243.90625 253.304688 243.390625 L 208.574219 232.683594 C 206.417969 232.167969 204.25 233.5 203.730469 235.664062 C 203.214844 237.824219 204.546875 239.992188 206.707031 240.511719 " fill-opacity="1" fill-rule="nonzero"/><path fill="#ffffff" d="M 252.128906 265.628906 C 252.644531 263.46875 251.3125 261.296875 249.15625 260.78125 L 211.199219 251.695312 C 209.039062 251.179688 206.871094 252.511719 206.355469 254.671875 C 205.839844 256.835938 207.171875 259.003906 209.332031 259.523438 L 247.289062 268.605469 C 247.601562 268.679688 247.914062 268.71875 248.226562 268.71875 C 250.042969 268.71875 251.6875 267.476562 252.128906 265.628906 " fill-opacity="1" fill-rule="nonzero"/><path fill="#ffffff" d="M 245.003906 278.167969 L 209.375 269.640625 C 207.214844 269.125 205.046875 270.460938 204.53125 272.621094 C 204.015625 274.78125 205.347656 276.953125 207.507812 277.46875 L 243.136719 285.996094 C 243.449219 286.070312 243.765625 286.105469 244.074219 286.105469 C 245.890625 286.105469 247.535156 284.863281 247.976562 283.019531 C 248.492188 280.855469 247.160156 278.6875 245.003906 278.167969 " fill-opacity="1" fill-rule="nonzero"/><path fill="#ffffff" d="M 176.703125 284.339844 C 176.1875 286.503906 177.519531 288.675781 179.675781 289.191406 L 238.984375 303.382812 C 239.296875 303.460938 239.613281 303.496094 239.921875 303.496094 C 241.738281 303.496094 243.386719 302.253906 243.828125 300.40625 C 244.34375 298.246094 243.011719 296.074219 240.851562 295.558594 L 181.546875 281.363281 C 179.386719 280.847656 177.21875 282.179688 176.703125 284.339844 " fill-opacity="1" fill-rule="nonzero"/><g clip-path="url(#71f366efe1)"><path fill="#ffffff" d="M 148.359375 284.613281 C 147.992188 282.421875 145.921875 280.945312 143.734375 281.308594 C 141.546875 281.675781 140.066406 283.75 140.433594 285.941406 L 146.824219 324.195312 L 59.222656 338.863281 L 38.925781 217.339844 L 86.546875 209.367188 C 88.734375 209 90.214844 206.925781 89.847656 204.734375 C 89.480469 202.542969 87.410156 201.070312 85.222656 201.429688 L 33.640625 210.066406 C 32.585938 210.242188 31.648438 210.832031 31.03125 211.699219 C 30.414062 212.566406 30.164062 213.644531 30.335938 214.699219 L 51.957031 344.15625 C 52.285156 346.125 53.988281 347.519531 55.917969 347.519531 C 56.136719 347.519531 56.359375 347.5 56.582031 347.464844 L 152.109375 331.46875 C 153.160156 331.292969 154.097656 330.707031 154.71875 329.835938 C 155.335938 328.96875 155.585938 327.886719 155.410156 326.835938 L 148.359375 284.613281 " fill-opacity="1" fill-rule="nonzero"/></g><path fill="#ffffff" d="M 73.195312 227.101562 L 75.796875 242.679688 L 63.175781 244.792969 L 60.574219 229.214844 Z M 60.539062 253.390625 L 81.085938 249.949219 C 82.136719 249.777344 83.074219 249.1875 83.691406 248.320312 C 84.3125 247.453125 84.5625 246.371094 84.382812 245.320312 L 80.460938 221.808594 C 80.09375 219.613281 78.019531 218.140625 75.832031 218.503906 L 55.285156 221.941406 C 54.234375 222.121094 53.296875 222.703125 52.675781 223.574219 C 52.058594 224.445312 51.808594 225.523438 51.984375 226.574219 L 55.914062 250.085938 C 56.238281 252.054688 57.941406 253.449219 59.871094 253.449219 C 60.089844 253.449219 60.3125 253.429688 60.539062 253.390625 " fill-opacity="1" fill-rule="nonzero"/><path fill="#ffffff" d="M 85.570312 260.722656 L 60.972656 264.84375 C 58.785156 265.207031 57.308594 267.28125 57.671875 269.476562 C 58 271.441406 59.703125 272.835938 61.632812 272.835938 C 61.851562 272.835938 62.074219 272.816406 62.296875 272.78125 L 86.894531 268.660156 C 89.085938 268.292969 90.5625 266.21875 90.195312 264.03125 C 89.832031 261.835938 87.761719 260.359375 85.570312 260.722656 " fill-opacity="1" fill-rule="nonzero"/><path fill="#ffffff" d="M 88.460938 278.367188 L 63.917969 282.476562 C 61.730469 282.84375 60.25 284.917969 60.617188 287.109375 C 60.945312 289.074219 62.648438 290.46875 64.574219 290.46875 C 64.796875 290.46875 65.019531 290.449219 65.242188 290.414062 L 89.785156 286.304688 C 91.976562 285.9375 93.453125 283.863281 93.085938 281.675781 C 92.71875 279.480469 90.648438 278.007812 88.460938 278.367188 " fill-opacity="1" fill-rule="nonzero"/><path fill="#ffffff" d="M 128.332031 297.976562 C 130.519531 297.613281 131.996094 295.539062 131.632812 293.347656 C 131.265625 291.15625 129.195312 289.679688 127.007812 290.042969 L 66.863281 300.113281 C 64.675781 300.480469 63.195312 302.550781 63.5625 304.742188 C 63.890625 306.710938 65.59375 308.101562 67.519531 308.101562 C 67.742188 308.101562 67.964844 308.085938 68.1875 308.046875 L 128.332031 297.976562 " fill-opacity="1" fill-rule="nonzero"/><path fill="#ffffff" d="M 70.464844 325.738281 C 70.683594 325.738281 70.910156 325.722656 71.132812 325.683594 L 131.277344 315.613281 C 133.464844 315.246094 134.941406 313.171875 134.578125 310.984375 C 134.210938 308.789062 132.136719 307.3125 129.949219 307.675781 L 69.808594 317.746094 C 67.617188 318.113281 66.140625 320.1875 66.507812 322.378906 C 66.835938 324.34375 68.535156 325.738281 70.464844 325.738281 " fill-opacity="1" fill-rule="nonzero"/><g fill="#ffffff" fill-opacity="1"><g transform="translate(99.199215, 407.849971)"><g><path d="M 12.28125 -28.3125 C 15.507812 -28.3125 18.148438 -27.363281 20.203125 -25.46875 L 16.609375 -21.6875 C 15.546875 -23.144531 13.9375 -23.875 11.78125 -23.875 C 10.375 -23.875 9.265625 -23.550781 8.453125 -22.90625 C 7.648438 -22.269531 7.25 -21.40625 7.25 -20.3125 C 7.25 -19.382812 7.617188 -18.640625 8.359375 -18.078125 C 9.109375 -17.515625 10.171875 -17.015625 11.546875 -16.578125 C 14.273438 -15.742188 16.140625 -14.988281 17.140625 -14.3125 C 18.140625 -13.632812 18.925781 -12.800781 19.5 -11.8125 C 20.070312 -10.820312 20.359375 -9.585938 20.359375 -8.109375 C 20.359375 -5.429688 19.429688 -3.289062 17.578125 -1.6875 C 15.734375 -0.09375 13.359375 0.703125 10.453125 0.703125 C 6.398438 0.703125 3.316406 -0.546875 1.203125 -3.046875 L 4.90625 -6.625 C 5.507812 -5.71875 6.289062 -5.007812 7.25 -4.5 C 8.21875 -4 9.257812 -3.75 10.375 -3.75 C 11.800781 -3.75 12.960938 -4.117188 13.859375 -4.859375 C 14.753906 -5.597656 15.203125 -6.488281 15.203125 -7.53125 C 15.203125 -8.570312 14.828125 -9.398438 14.078125 -10.015625 C 13.328125 -10.640625 12.050781 -11.226562 10.25 -11.78125 C 7.9375 -12.507812 6.257812 -13.207031 5.21875 -13.875 C 4.1875 -14.550781 3.410156 -15.378906 2.890625 -16.359375 C 2.367188 -17.335938 2.109375 -18.539062 2.109375 -19.96875 C 2.109375 -22.46875 3.050781 -24.484375 4.9375 -26.015625 C 6.820312 -27.546875 9.269531 -28.3125 12.28125 -28.3125 Z M 12.28125 -28.3125 "/></g></g></g><g fill="#ffffff" fill-opacity="1"><g transform="translate(121.585231, 407.849971)"><g><path d="M 5.03125 -27.890625 C 5.882812 -27.890625 6.601562 -27.617188 7.1875 -27.078125 C 7.78125 -26.546875 8.078125 -25.878906 8.078125 -25.078125 C 8.078125 -24.242188 7.773438 -23.566406 7.171875 -23.046875 C 6.578125 -22.523438 5.863281 -22.265625 5.03125 -22.265625 C 4.195312 -22.265625 3.492188 -22.546875 2.921875 -23.109375 C 2.347656 -23.671875 2.0625 -24.328125 2.0625 -25.078125 C 2.0625 -25.828125 2.347656 -26.484375 2.921875 -27.046875 C 3.492188 -27.609375 4.195312 -27.890625 5.03125 -27.890625 Z M 7.40625 -18.71875 L 7.40625 0 L 2.734375 0 L 2.734375 -18.71875 Z M 7.40625 -18.71875 "/></g></g></g><g fill="#ffffff" fill-opacity="1"><g transform="translate(131.725245, 407.849971)"><g><path d="M 10.921875 -19.1875 C 13.929688 -19.1875 16.085938 -18.09375 17.390625 -15.90625 L 17.46875 -15.90625 L 17.46875 -18.71875 L 21.921875 -18.71875 L 21.921875 -1.515625 C 21.921875 1.859375 21.039062 4.515625 19.28125 6.453125 C 17.53125 8.390625 14.882812 9.359375 11.34375 9.359375 C 7.5 9.359375 4.40625 8.332031 2.0625 6.28125 L 4.875 2.453125 C 6.820312 4.242188 8.96875 5.140625 11.3125 5.140625 C 13.5 5.140625 15.03125 4.585938 15.90625 3.484375 C 16.789062 2.378906 17.234375 0.789062 17.234375 -1.28125 L 17.234375 -2.5 L 17.15625 -2.5 C 15.695312 -0.675781 13.65625 0.234375 11.03125 0.234375 C 8.332031 0.234375 6.101562 -0.664062 4.34375 -2.46875 C 2.59375 -4.28125 1.71875 -6.578125 1.71875 -9.359375 C 1.71875 -12.222656 2.554688 -14.578125 4.234375 -16.421875 C 5.910156 -18.265625 8.140625 -19.1875 10.921875 -19.1875 Z M 6.390625 -9.40625 C 6.390625 -7.84375 6.929688 -6.546875 8.015625 -5.515625 C 9.097656 -4.492188 10.390625 -3.984375 11.890625 -3.984375 C 13.585938 -3.984375 14.941406 -4.5 15.953125 -5.53125 C 16.960938 -6.570312 17.46875 -7.890625 17.46875 -9.484375 C 17.46875 -11.191406 16.953125 -12.53125 15.921875 -13.5 C 14.898438 -14.476562 13.554688 -14.96875 11.890625 -14.96875 C 10.285156 -14.96875 8.96875 -14.460938 7.9375 -13.453125 C 6.90625 -12.441406 6.390625 -11.09375 6.390625 -9.40625 Z M 6.390625 -9.40625 "/></g></g></g><g fill="#ffffff" fill-opacity="1"><g transform="translate(156.295262, 407.849971)"><g><path d="M 12.90625 -19.1875 C 15.039062 -19.1875 16.710938 -18.546875 17.921875 -17.265625 C 19.128906 -15.992188 19.734375 -14.226562 19.734375 -11.96875 L 19.734375 0 L 15.046875 0 L 15.046875 -9.71875 C 15.046875 -13.21875 13.90625 -14.96875 11.625 -14.96875 C 10.300781 -14.96875 9.253906 -14.539062 8.484375 -13.6875 C 7.710938 -12.832031 7.328125 -11.703125 7.328125 -10.296875 L 7.328125 0 L 2.65625 0 L 2.65625 -18.71875 L 7.09375 -18.71875 L 7.09375 -15.71875 L 7.171875 -15.71875 C 8.242188 -18.03125 10.15625 -19.1875 12.90625 -19.1875 Z M 12.90625 -19.1875 "/></g></g></g><g fill="#ffffff" fill-opacity="1"><g transform="translate(178.681278, 407.849971)"><g/></g></g><g fill="#ffffff" fill-opacity="1"><g transform="translate(190.225287, 407.849971)"><g><path d="M 12.59375 -28.3125 C 15.09375 -28.3125 17.015625 -27.707031 18.359375 -26.5 C 19.710938 -25.289062 20.390625 -23.722656 20.390625 -21.796875 C 20.390625 -18.910156 18.554688 -16.519531 14.890625 -14.625 L 19.34375 -9.828125 L 22.421875 -14.515625 L 27.921875 -14.515625 L 22.390625 -6.515625 L 28.359375 0 L 22.3125 0 L 19.390625 -3.15625 C 18.160156 -1.75 16.914062 -0.753906 15.65625 -0.171875 C 14.394531 0.410156 12.921875 0.703125 11.234375 0.703125 C 8.503906 0.703125 6.257812 -0.0507812 4.5 -1.5625 C 2.75 -3.070312 1.875 -5.019531 1.875 -7.40625 C 1.875 -9.070312 2.382812 -10.59375 3.40625 -11.96875 C 4.4375 -13.351562 5.914062 -14.421875 7.84375 -15.171875 C 6.644531 -16.441406 5.816406 -17.550781 5.359375 -18.5 C 4.910156 -19.445312 4.6875 -20.457031 4.6875 -21.53125 C 4.6875 -23.53125 5.421875 -25.160156 6.890625 -26.421875 C 8.359375 -27.679688 10.257812 -28.3125 12.59375 -28.3125 Z M 9.359375 -21.328125 C 9.359375 -20.234375 10.226562 -18.894531 11.96875 -17.3125 C 14.46875 -18.59375 15.71875 -20 15.71875 -21.53125 C 15.71875 -22.332031 15.390625 -22.960938 14.734375 -23.421875 C 14.085938 -23.878906 13.398438 -24.109375 12.671875 -24.109375 C 11.765625 -24.109375 10.984375 -23.835938 10.328125 -23.296875 C 9.679688 -22.765625 9.359375 -22.109375 9.359375 -21.328125 Z M 7.015625 -7.6875 C 7.015625 -6.539062 7.4375 -5.554688 8.28125 -4.734375 C 9.132812 -3.921875 10.171875 -3.515625 11.390625 -3.515625 C 13.003906 -3.515625 14.691406 -4.421875 16.453125 -6.234375 L 10.796875 -12.40625 C 9.523438 -11.675781 8.578125 -10.941406 7.953125 -10.203125 C 7.328125 -9.460938 7.015625 -8.625 7.015625 -7.6875 Z M 7.015625 -7.6875 "/></g></g></g><g fill="#ffffff" fill-opacity="1"><g transform="translate(95.953122, 461.849969)"><g><path d="M 7.328125 -18.71875 L 7.328125 -9.046875 C 7.328125 -7.171875 7.613281 -5.816406 8.1875 -4.984375 C 8.757812 -4.160156 9.617188 -3.75 10.765625 -3.75 C 12.171875 -3.75 13.234375 -4.175781 13.953125 -5.03125 C 14.679688 -5.882812 15.046875 -7.039062 15.046875 -8.5 L 15.046875 -18.71875 L 19.734375 -18.71875 L 19.734375 0 L 15.28125 0 L 15.28125 -3 L 15.203125 -3 C 14.117188 -0.6875 12.210938 0.46875 9.484375 0.46875 C 7.367188 0.46875 5.703125 -0.160156 4.484375 -1.421875 C 3.265625 -2.679688 2.65625 -4.457031 2.65625 -6.75 L 2.65625 -18.71875 Z M 7.328125 -18.71875 "/></g></g></g><g fill="#ffffff" fill-opacity="1"><g transform="translate(118.339137, 461.849969)"><g><path d="M 13.65625 -19.1875 C 16.351562 -19.1875 18.5625 -18.273438 20.28125 -16.453125 C 22 -14.640625 22.859375 -12.273438 22.859375 -9.359375 C 22.859375 -6.578125 22.019531 -4.242188 20.34375 -2.359375 C 18.664062 -0.472656 16.488281 0.46875 13.8125 0.46875 C 11.082031 0.46875 8.960938 -0.476562 7.453125 -2.375 L 7.328125 -2.375 L 7.328125 8.890625 L 2.65625 8.890625 L 2.65625 -18.71875 L 7.09375 -18.71875 L 7.09375 -15.90625 L 7.171875 -15.90625 C 8.554688 -18.09375 10.71875 -19.1875 13.65625 -19.1875 Z M 7.171875 -9.359375 C 7.171875 -7.742188 7.679688 -6.40625 8.703125 -5.34375 C 9.734375 -4.28125 11.054688 -3.75 12.671875 -3.75 C 14.203125 -3.75 15.5 -4.273438 16.5625 -5.328125 C 17.632812 -6.378906 18.171875 -7.722656 18.171875 -9.359375 C 18.171875 -10.941406 17.644531 -12.269531 16.59375 -13.34375 C 15.539062 -14.425781 14.222656 -14.96875 12.640625 -14.96875 C 11.097656 -14.96875 9.800781 -14.4375 8.75 -13.375 C 7.695312 -12.3125 7.171875 -10.972656 7.171875 -9.359375 Z M 7.171875 -9.359375 "/></g></g></g><g fill="#ffffff" fill-opacity="1"><g transform="translate(142.909155, 461.849969)"><g><path d="M 7.40625 -29.484375 L 7.40625 0 L 2.734375 0 L 2.734375 -29.484375 Z M 7.40625 -29.484375 "/></g></g></g><g fill="#ffffff" fill-opacity="1"><g transform="translate(153.049169, 461.849969)"><g><path d="M 11.890625 -19.1875 C 14.753906 -19.1875 17.164062 -18.273438 19.125 -16.453125 C 21.09375 -14.640625 22.078125 -12.273438 22.078125 -9.359375 C 22.078125 -6.441406 21.09375 -4.070312 19.125 -2.25 C 17.164062 -0.4375 14.753906 0.46875 11.890625 0.46875 C 9.035156 0.46875 6.625 -0.4375 4.65625 -2.25 C 2.695312 -4.070312 1.71875 -6.441406 1.71875 -9.359375 C 1.71875 -12.273438 2.695312 -14.640625 4.65625 -16.453125 C 6.625 -18.273438 9.035156 -19.1875 11.890625 -19.1875 Z M 6.390625 -9.359375 C 6.390625 -7.691406 6.914062 -6.335938 7.96875 -5.296875 C 9.03125 -4.265625 10.335938 -3.75 11.890625 -3.75 C 13.484375 -3.75 14.796875 -4.273438 15.828125 -5.328125 C 16.867188 -6.378906 17.390625 -7.722656 17.390625 -9.359375 C 17.390625 -11.023438 16.863281 -12.375 15.8125 -13.40625 C 14.757812 -14.445312 13.441406 -14.96875 11.859375 -14.96875 C 10.328125 -14.96875 9.03125 -14.4375 7.96875 -13.375 C 6.914062 -12.3125 6.390625 -10.972656 6.390625 -9.359375 Z M 6.390625 -9.359375 "/></g></g></g><g fill="#ffffff" fill-opacity="1"><g transform="translate(176.839192, 461.849969)"><g><path d="M 10.5625 -19.1875 C 13.25 -19.1875 15.253906 -18.539062 16.578125 -17.25 C 17.898438 -15.96875 18.5625 -13.945312 18.5625 -11.1875 L 18.5625 0 L 14.359375 0 L 14.359375 -2.578125 L 14.234375 -2.578125 C 12.960938 -0.546875 10.960938 0.46875 8.234375 0.46875 C 6.203125 0.46875 4.554688 -0.0546875 3.296875 -1.109375 C 2.035156 -2.160156 1.40625 -3.503906 1.40625 -5.140625 C 1.40625 -7.328125 2.3125 -8.957031 4.125 -10.03125 C 5.945312 -11.113281 8.875 -11.65625 12.90625 -11.65625 L 14.359375 -11.65625 L 14.359375 -12.203125 C 14.359375 -13.296875 13.96875 -14.144531 13.1875 -14.75 C 12.40625 -15.363281 11.363281 -15.671875 10.0625 -15.671875 C 8.132812 -15.671875 6.46875 -15.023438 5.0625 -13.734375 L 2.609375 -16.1875 C 4.554688 -18.1875 7.207031 -19.1875 10.5625 -19.1875 Z M 6.078125 -5.5 C 6.078125 -4.695312 6.410156 -4.085938 7.078125 -3.671875 C 7.742188 -3.253906 8.519531 -3.046875 9.40625 -3.046875 C 11.007812 -3.046875 12.1875 -3.441406 12.9375 -4.234375 C 13.695312 -5.023438 14.078125 -6.019531 14.078125 -7.21875 L 14.078125 -8.390625 L 12.71875 -8.390625 C 8.289062 -8.390625 6.078125 -7.425781 6.078125 -5.5 Z M 6.078125 -5.5 "/></g></g></g><g fill="#ffffff" fill-opacity="1"><g transform="translate(197.78221, 461.849969)"><g><path d="M 21.921875 -29.484375 L 21.921875 0 L 17.46875 0 L 17.46875 -2.8125 L 17.390625 -2.8125 C 16.085938 -0.625 13.929688 0.46875 10.921875 0.46875 C 8.140625 0.46875 5.910156 -0.453125 4.234375 -2.296875 C 2.554688 -4.140625 1.71875 -6.492188 1.71875 -9.359375 C 1.71875 -12.117188 2.5625 -14.445312 4.25 -16.34375 C 5.9375 -18.238281 8.109375 -19.1875 10.765625 -19.1875 C 13.441406 -19.1875 15.5625 -18.238281 17.125 -16.34375 L 17.234375 -16.34375 L 17.234375 -29.484375 Z M 6.390625 -9.359375 C 6.390625 -7.691406 6.914062 -6.335938 7.96875 -5.296875 C 9.03125 -4.265625 10.335938 -3.75 11.890625 -3.75 C 13.535156 -3.75 14.863281 -4.285156 15.875 -5.359375 C 16.882812 -6.441406 17.390625 -7.773438 17.390625 -9.359375 C 17.390625 -10.972656 16.863281 -12.3125 15.8125 -13.375 C 14.757812 -14.4375 13.453125 -14.96875 11.890625 -14.96875 C 10.359375 -14.96875 9.054688 -14.441406 7.984375 -13.390625 C 6.921875 -12.335938 6.390625 -10.992188 6.390625 -9.359375 Z M 6.390625 -9.359375 "/></g></g></g><g fill="#ffffff" fill-opacity="1"><g transform="translate(58.792967, 515.849966)"><g><path d="M 21.921875 -29.484375 L 21.921875 0 L 17.46875 0 L 17.46875 -2.8125 L 17.390625 -2.8125 C 16.085938 -0.625 13.929688 0.46875 10.921875 0.46875 C 8.140625 0.46875 5.910156 -0.453125 4.234375 -2.296875 C 2.554688 -4.140625 1.71875 -6.492188 1.71875 -9.359375 C 1.71875 -12.117188 2.5625 -14.445312 4.25 -16.34375 C 5.9375 -18.238281 8.109375 -19.1875 10.765625 -19.1875 C 13.441406 -19.1875 15.5625 -18.238281 17.125 -16.34375 L 17.234375 -16.34375 L 17.234375 -29.484375 Z M 6.390625 -9.359375 C 6.390625 -7.691406 6.914062 -6.335938 7.96875 -5.296875 C 9.03125 -4.265625 10.335938 -3.75 11.890625 -3.75 C 13.535156 -3.75 14.863281 -4.285156 15.875 -5.359375 C 16.882812 -6.441406 17.390625 -7.773438 17.390625 -9.359375 C 17.390625 -10.972656 16.863281 -12.3125 15.8125 -13.375 C 14.757812 -14.4375 13.453125 -14.96875 11.890625 -14.96875 C 10.359375 -14.96875 9.054688 -14.441406 7.984375 -13.390625 C 6.921875 -12.335938 6.390625 -10.992188 6.390625 -9.359375 Z M 6.390625 -9.359375 "/></g></g></g><g fill="#ffffff" fill-opacity="1"><g transform="translate(83.362985, 515.849966)"><g><path d="M 11.890625 -19.1875 C 14.753906 -19.1875 17.164062 -18.273438 19.125 -16.453125 C 21.09375 -14.640625 22.078125 -12.273438 22.078125 -9.359375 C 22.078125 -6.441406 21.09375 -4.070312 19.125 -2.25 C 17.164062 -0.4375 14.753906 0.46875 11.890625 0.46875 C 9.035156 0.46875 6.625 -0.4375 4.65625 -2.25 C 2.695312 -4.070312 1.71875 -6.441406 1.71875 -9.359375 C 1.71875 -12.273438 2.695312 -14.640625 4.65625 -16.453125 C 6.625 -18.273438 9.035156 -19.1875 11.890625 -19.1875 Z M 6.390625 -9.359375 C 6.390625 -7.691406 6.914062 -6.335938 7.96875 -5.296875 C 9.03125 -4.265625 10.335938 -3.75 11.890625 -3.75 C 13.484375 -3.75 14.796875 -4.273438 15.828125 -5.328125 C 16.867188 -6.378906 17.390625 -7.722656 17.390625 -9.359375 C 17.390625 -11.023438 16.863281 -12.375 15.8125 -13.40625 C 14.757812 -14.445312 13.441406 -14.96875 11.859375 -14.96875 C 10.328125 -14.96875 9.03125 -14.4375 7.96875 -13.375 C 6.914062 -12.3125 6.390625 -10.972656 6.390625 -9.359375 Z M 6.390625 -9.359375 "/></g></g></g><g fill="#ffffff" fill-opacity="1"><g transform="translate(107.153008, 515.849966)"><g><path d="M 11.890625 -19.1875 C 14.722656 -19.1875 16.988281 -18.238281 18.6875 -16.34375 L 15.4375 -13.109375 C 14.269531 -14.347656 13.085938 -14.96875 11.890625 -14.96875 C 10.234375 -14.96875 8.898438 -14.414062 7.890625 -13.3125 C 6.890625 -12.207031 6.390625 -10.890625 6.390625 -9.359375 C 6.390625 -7.691406 6.914062 -6.335938 7.96875 -5.296875 C 9.03125 -4.265625 10.335938 -3.75 11.890625 -3.75 C 13.398438 -3.75 14.609375 -4.332031 15.515625 -5.5 L 18.640625 -2.140625 C 17.910156 -1.410156 16.914062 -0.789062 15.65625 -0.28125 C 14.394531 0.21875 13.140625 0.46875 11.890625 0.46875 C 9.035156 0.46875 6.625 -0.4375 4.65625 -2.25 C 2.695312 -4.070312 1.71875 -6.441406 1.71875 -9.359375 C 1.71875 -12.191406 2.675781 -14.535156 4.59375 -16.390625 C 6.519531 -18.253906 8.953125 -19.1875 11.890625 -19.1875 Z M 11.890625 -19.1875 "/></g></g></g><g fill="#ffffff" fill-opacity="1"><g transform="translate(125.951026, 515.849966)"><g><path d="M 7.328125 -18.71875 L 7.328125 -9.046875 C 7.328125 -7.171875 7.613281 -5.816406 8.1875 -4.984375 C 8.757812 -4.160156 9.617188 -3.75 10.765625 -3.75 C 12.171875 -3.75 13.234375 -4.175781 13.953125 -5.03125 C 14.679688 -5.882812 15.046875 -7.039062 15.046875 -8.5 L 15.046875 -18.71875 L 19.734375 -18.71875 L 19.734375 0 L 15.28125 0 L 15.28125 -3 L 15.203125 -3 C 14.117188 -0.6875 12.210938 0.46875 9.484375 0.46875 C 7.367188 0.46875 5.703125 -0.160156 4.484375 -1.421875 C 3.265625 -2.679688 2.65625 -4.457031 2.65625 -6.75 L 2.65625 -18.71875 Z M 7.328125 -18.71875 "/></g></g></g><g fill="#ffffff" fill-opacity="1"><g transform="translate(148.337042, 515.849966)"><g><path d="M 12.71875 -19.1875 C 15.65625 -19.1875 17.601562 -18.03125 18.5625 -15.71875 C 19.863281 -18.03125 21.914062 -19.1875 24.71875 -19.1875 C 29.21875 -19.1875 31.46875 -16.46875 31.46875 -11.03125 L 31.46875 0 L 26.796875 0 L 26.796875 -10.71875 C 26.796875 -13.550781 25.640625 -14.96875 23.328125 -14.96875 C 22.078125 -14.96875 21.09375 -14.546875 20.375 -13.703125 C 19.664062 -12.859375 19.3125 -11.671875 19.3125 -10.140625 L 19.3125 0 L 14.625 0 L 14.625 -11.265625 C 14.625 -12.441406 14.347656 -13.351562 13.796875 -14 C 13.253906 -14.644531 12.460938 -14.96875 11.421875 -14.96875 C 9.972656 -14.96875 8.894531 -14.515625 8.1875 -13.609375 C 7.488281 -12.703125 7.140625 -11.570312 7.140625 -10.21875 L 7.140625 0 L 2.453125 0 L 2.453125 -18.71875 L 6.90625 -18.71875 L 6.90625 -15.796875 L 6.984375 -15.796875 C 8.078125 -18.054688 9.988281 -19.1875 12.71875 -19.1875 Z M 12.71875 -19.1875 "/></g></g></g><g fill="#ffffff" fill-opacity="1"><g transform="translate(182.267067, 515.849966)"><g><path d="M 11.890625 -19.1875 C 14.703125 -19.1875 16.867188 -18.25 18.390625 -16.375 C 19.910156 -14.507812 20.671875 -12.066406 20.671875 -9.046875 L 20.671875 -7.71875 L 6.390625 -7.71875 C 6.546875 -6.363281 7.085938 -5.285156 8.015625 -4.484375 C 8.941406 -3.679688 10.078125 -3.28125 11.421875 -3.28125 C 13.398438 -3.28125 15.078125 -4.125 16.453125 -5.8125 L 19.8125 -3.28125 C 17.78125 -0.78125 15.140625 0.46875 11.890625 0.46875 C 9.035156 0.46875 6.625 -0.4375 4.65625 -2.25 C 2.695312 -4.070312 1.71875 -6.441406 1.71875 -9.359375 C 1.71875 -12.273438 2.695312 -14.640625 4.65625 -16.453125 C 6.625 -18.273438 9.035156 -19.1875 11.890625 -19.1875 Z M 15.984375 -11.234375 C 15.960938 -12.710938 15.507812 -13.820312 14.625 -14.5625 C 13.738281 -15.300781 12.59375 -15.671875 11.1875 -15.671875 C 9.789062 -15.671875 8.6875 -15.257812 7.875 -14.4375 C 7.070312 -13.625 6.578125 -12.554688 6.390625 -11.234375 Z M 15.984375 -11.234375 "/></g></g></g><g fill="#ffffff" fill-opacity="1"><g transform="translate(204.653082, 515.849966)"><g><path d="M 12.90625 -19.1875 C 15.039062 -19.1875 16.710938 -18.546875 17.921875 -17.265625 C 19.128906 -15.992188 19.734375 -14.226562 19.734375 -11.96875 L 19.734375 0 L 15.046875 0 L 15.046875 -9.71875 C 15.046875 -13.21875 13.90625 -14.96875 11.625 -14.96875 C 10.300781 -14.96875 9.253906 -14.539062 8.484375 -13.6875 C 7.710938 -12.832031 7.328125 -11.703125 7.328125 -10.296875 L 7.328125 0 L 2.65625 0 L 2.65625 -18.71875 L 7.09375 -18.71875 L 7.09375 -15.71875 L 7.171875 -15.71875 C 8.242188 -18.03125 10.15625 -19.1875 12.90625 -19.1875 Z M 12.90625 -19.1875 "/></g></g></g><g fill="#ffffff" fill-opacity="1"><g transform="translate(227.039098, 515.849966)"><g><path d="M 9.015625 -24.140625 L 9.015625 -18.71875 L 14.15625 -18.71875 L 14.15625 -14.734375 L 9.015625 -14.734375 L 9.015625 -6.4375 C 9.015625 -4.488281 9.882812 -3.515625 11.625 -3.515625 C 12.789062 -3.515625 13.632812 -3.707031 14.15625 -4.09375 L 14.15625 -0.15625 C 13.269531 0.257812 12.035156 0.46875 10.453125 0.46875 C 8.296875 0.46875 6.734375 -0.00390625 5.765625 -0.953125 C 4.804688 -1.898438 4.328125 -3.570312 4.328125 -5.96875 L 4.328125 -14.734375 L 0.46875 -14.734375 L 0.46875 -18.71875 L 4.328125 -18.71875 L 4.328125 -24.140625 Z M 9.015625 -24.140625 "/></g></g></g><g fill="#ffffff" fill-opacity="1"><g transform="translate(242.210106, 515.849966)"><g><path d="M 9.046875 -19.1875 C 12.117188 -19.1875 14.351562 -18.238281 15.75 -16.34375 L 12.640625 -13.53125 C 11.703125 -14.800781 10.476562 -15.4375 8.96875 -15.4375 C 8.21875 -15.4375 7.570312 -15.253906 7.03125 -14.890625 C 6.5 -14.535156 6.234375 -14.054688 6.234375 -13.453125 C 6.234375 -12.546875 7.160156 -11.894531 9.015625 -11.5 L 10.6875 -11.109375 C 12.738281 -10.671875 14.191406 -9.988281 15.046875 -9.0625 C 15.910156 -8.144531 16.34375 -6.96875 16.34375 -5.53125 C 16.34375 -3.71875 15.613281 -2.265625 14.15625 -1.171875 C 12.695312 -0.078125 10.722656 0.46875 8.234375 0.46875 C 5.085938 0.46875 2.664062 -0.492188 0.96875 -2.421875 L 4.09375 -5.34375 C 4.894531 -4.457031 5.632812 -3.851562 6.3125 -3.53125 C 6.988281 -3.207031 7.734375 -3.046875 8.546875 -3.046875 C 9.398438 -3.046875 10.128906 -3.238281 10.734375 -3.625 C 11.347656 -4.019531 11.65625 -4.539062 11.65625 -5.1875 C 11.65625 -6.25 10.695312 -7.003906 8.78125 -7.453125 C 6.28125 -8.023438 4.71875 -8.472656 4.09375 -8.796875 C 3.46875 -9.117188 2.96875 -9.503906 2.59375 -9.953125 C 2.21875 -10.410156 1.953125 -10.90625 1.796875 -11.4375 C 1.640625 -11.976562 1.5625 -12.546875 1.5625 -13.140625 C 1.5625 -14.984375 2.269531 -16.453125 3.6875 -17.546875 C 5.101562 -18.640625 6.890625 -19.1875 9.046875 -19.1875 Z M 9.046875 -19.1875 "/></g></g></g></svg>