<svg xmlns="http://www.w3.org/2000/svg" xmlns:xlink="http://www.w3.org/1999/xlink" width="1200" zoomAndPan="magnify" viewBox="0 0 900 525.000007" height="700" preserveAspectRatio="xMidYMid meet" version="1.0"><defs><g/><clipPath id="b5e50df977"><path d="M 183.160156 20.601562 L 752.078125 20.601562 L 752.078125 510.167969 L 183.160156 510.167969 Z M 183.160156 20.601562 " clip-rule="nonzero"/></clipPath><clipPath id="25ec6d4b54"><path d="M 270.722656 136 L 629.289062 136 L 629.289062 493 L 270.722656 493 Z M 270.722656 136 " clip-rule="nonzero"/></clipPath></defs><g clip-path="url(#b5e50df977)"><path stroke-linecap="butt" transform="matrix(0.748097, 0, 0, 0.748556, 183.162052, 20.60213)" fill="none" stroke-linejoin="miter" d="M -0.00253354 -0.000758636 L 760.484002 -0.000758636 L 760.484002 654.013424 L -0.00253354 654.013424 L -0.00253354 -0.000758636 " stroke="#ffffff" stroke-width="8" stroke-opacity="1" stroke-miterlimit="4"/></g><g fill="#082a71" fill-opacity="1"><g transform="translate(282.548512, 103.646101)"><g><path d="M 7 0 L 2.78125 0 L 2.78125 -21.375 L 7 -21.375 Z M 7 0 "/></g></g><g transform="translate(292.344306, 103.646101)"><g><path d="M 7.546875 0.3125 C 6.441406 0.3125 5.429688 0.179688 4.515625 -0.078125 C 3.597656 -0.335938 2.816406 -0.691406 2.171875 -1.140625 C 1.523438 -1.597656 1.046875 -2.117188 0.734375 -2.703125 L 2.984375 -5.125 L 3.28125 -5.125 C 3.820312 -4.40625 4.457031 -3.863281 5.1875 -3.5 C 5.914062 -3.144531 6.710938 -2.96875 7.578125 -2.96875 C 8.359375 -2.96875 8.945312 -3.109375 9.34375 -3.390625 C 9.75 -3.671875 9.953125 -4.078125 9.953125 -4.609375 C 9.953125 -5.015625 9.804688 -5.351562 9.515625 -5.625 C 9.234375 -5.90625 8.769531 -6.125 8.125 -6.28125 L 6 -6.796875 C 4.394531 -7.179688 3.222656 -7.765625 2.484375 -8.546875 C 1.753906 -9.328125 1.390625 -10.320312 1.390625 -11.53125 C 1.390625 -12.539062 1.644531 -13.414062 2.15625 -14.15625 C 2.664062 -14.894531 3.382812 -15.457031 4.3125 -15.84375 C 5.25 -16.238281 6.335938 -16.4375 7.578125 -16.4375 C 9.023438 -16.4375 10.222656 -16.222656 11.171875 -15.796875 C 12.128906 -15.378906 12.878906 -14.820312 13.421875 -14.125 L 11.25 -11.78125 L 10.96875 -11.78125 C 10.519531 -12.289062 10.015625 -12.660156 9.453125 -12.890625 C 8.890625 -13.128906 8.265625 -13.25 7.578125 -13.25 C 5.972656 -13.25 5.171875 -12.75 5.171875 -11.75 C 5.171875 -11.332031 5.316406 -10.988281 5.609375 -10.71875 C 5.910156 -10.457031 6.4375 -10.25 7.1875 -10.09375 L 9.1875 -9.640625 C 10.820312 -9.296875 12.015625 -8.734375 12.765625 -7.953125 C 13.523438 -7.179688 13.90625 -6.144531 13.90625 -4.84375 C 13.90625 -3.8125 13.648438 -2.90625 13.140625 -2.125 C 12.628906 -1.351562 11.894531 -0.753906 10.9375 -0.328125 C 9.988281 0.0976562 8.859375 0.3125 7.546875 0.3125 Z M 7.546875 0.3125 "/></g></g><g transform="translate(307.213445, 103.646101)"><g><path d="M 7.546875 0.3125 C 6.441406 0.3125 5.429688 0.179688 4.515625 -0.078125 C 3.597656 -0.335938 2.816406 -0.691406 2.171875 -1.140625 C 1.523438 -1.597656 1.046875 -2.117188 0.734375 -2.703125 L 2.984375 -5.125 L 3.28125 -5.125 C 3.820312 -4.40625 4.457031 -3.863281 5.1875 -3.5 C 5.914062 -3.144531 6.710938 -2.96875 7.578125 -2.96875 C 8.359375 -2.96875 8.945312 -3.109375 9.34375 -3.390625 C 9.75 -3.671875 9.953125 -4.078125 9.953125 -4.609375 C 9.953125 -5.015625 9.804688 -5.351562 9.515625 -5.625 C 9.234375 -5.90625 8.769531 -6.125 8.125 -6.28125 L 6 -6.796875 C 4.394531 -7.179688 3.222656 -7.765625 2.484375 -8.546875 C 1.753906 -9.328125 1.390625 -10.320312 1.390625 -11.53125 C 1.390625 -12.539062 1.644531 -13.414062 2.15625 -14.15625 C 2.664062 -14.894531 3.382812 -15.457031 4.3125 -15.84375 C 5.25 -16.238281 6.335938 -16.4375 7.578125 -16.4375 C 9.023438 -16.4375 10.222656 -16.222656 11.171875 -15.796875 C 12.128906 -15.378906 12.878906 -14.820312 13.421875 -14.125 L 11.25 -11.78125 L 10.96875 -11.78125 C 10.519531 -12.289062 10.015625 -12.660156 9.453125 -12.890625 C 8.890625 -13.128906 8.265625 -13.25 7.578125 -13.25 C 5.972656 -13.25 5.171875 -12.75 5.171875 -11.75 C 5.171875 -11.332031 5.316406 -10.988281 5.609375 -10.71875 C 5.910156 -10.457031 6.4375 -10.25 7.1875 -10.09375 L 9.1875 -9.640625 C 10.820312 -9.296875 12.015625 -8.734375 12.765625 -7.953125 C 13.523438 -7.179688 13.90625 -6.144531 13.90625 -4.84375 C 13.90625 -3.8125 13.648438 -2.90625 13.140625 -2.125 C 12.628906 -1.351562 11.894531 -0.753906 10.9375 -0.328125 C 9.988281 0.0976562 8.859375 0.3125 7.546875 0.3125 Z M 7.546875 0.3125 "/></g></g><g transform="translate(322.082583, 103.646101)"><g><path d="M 7.375 0.3125 C 5.5625 0.3125 4.222656 -0.179688 3.359375 -1.171875 C 2.503906 -2.160156 2.078125 -3.582031 2.078125 -5.4375 L 2.078125 -16.125 L 6.125 -16.125 L 6.125 -5.953125 C 6.125 -4.960938 6.332031 -4.238281 6.75 -3.78125 C 7.175781 -3.332031 7.835938 -3.109375 8.734375 -3.109375 C 9.847656 -3.109375 10.71875 -3.476562 11.34375 -4.21875 C 11.96875 -4.957031 12.28125 -6.113281 12.28125 -7.6875 L 12.28125 -16.125 L 16.328125 -16.125 L 16.328125 0 L 12.4375 0 L 12.4375 -2.375 L 12.140625 -2.4375 C 11.617188 -1.507812 10.984375 -0.816406 10.234375 -0.359375 C 9.492188 0.0859375 8.539062 0.3125 7.375 0.3125 Z M 7.375 0.3125 "/></g></g><g transform="translate(340.738454, 103.646101)"><g><path d="M 6.28125 0.3125 C 5.25 0.3125 4.351562 0.125 3.59375 -0.25 C 2.832031 -0.632812 2.25 -1.195312 1.84375 -1.9375 C 1.4375 -2.675781 1.234375 -3.5625 1.234375 -4.59375 C 1.234375 -5.539062 1.4375 -6.335938 1.84375 -6.984375 C 2.25 -7.640625 2.878906 -8.171875 3.734375 -8.578125 C 4.597656 -8.992188 5.722656 -9.316406 7.109375 -9.546875 C 8.066406 -9.703125 8.796875 -9.867188 9.296875 -10.046875 C 9.804688 -10.234375 10.144531 -10.441406 10.3125 -10.671875 C 10.488281 -10.910156 10.578125 -11.210938 10.578125 -11.578125 C 10.578125 -12.097656 10.394531 -12.492188 10.03125 -12.765625 C 9.675781 -13.035156 9.082031 -13.171875 8.25 -13.171875 C 7.351562 -13.171875 6.5 -12.96875 5.6875 -12.5625 C 4.875 -12.164062 4.171875 -11.644531 3.578125 -11 L 3.28125 -11 L 1.59375 -13.546875 C 2.414062 -14.453125 3.414062 -15.160156 4.59375 -15.671875 C 5.769531 -16.179688 7.054688 -16.4375 8.453125 -16.4375 C 10.585938 -16.4375 12.128906 -15.984375 13.078125 -15.078125 C 14.035156 -14.171875 14.515625 -12.882812 14.515625 -11.21875 L 14.515625 -4.203125 C 14.515625 -3.484375 14.832031 -3.125 15.46875 -3.125 C 15.707031 -3.125 15.945312 -3.171875 16.1875 -3.265625 L 16.390625 -3.203125 L 16.671875 -0.375 C 16.453125 -0.226562 16.140625 -0.109375 15.734375 -0.015625 C 15.335938 0.0664062 14.898438 0.109375 14.421875 0.109375 C 13.460938 0.109375 12.710938 -0.0703125 12.171875 -0.4375 C 11.628906 -0.8125 11.238281 -1.390625 11 -2.171875 L 10.703125 -2.203125 C 9.910156 -0.523438 8.4375 0.3125 6.28125 0.3125 Z M 7.578125 -2.71875 C 8.503906 -2.71875 9.25 -3.03125 9.8125 -3.65625 C 10.375 -4.289062 10.65625 -5.164062 10.65625 -6.28125 L 10.65625 -7.921875 L 10.375 -7.984375 C 10.132812 -7.785156 9.816406 -7.617188 9.421875 -7.484375 C 9.023438 -7.359375 8.457031 -7.234375 7.71875 -7.109375 C 6.84375 -6.960938 6.210938 -6.707031 5.828125 -6.34375 C 5.441406 -5.988281 5.25 -5.488281 5.25 -4.84375 C 5.25 -4.144531 5.453125 -3.613281 5.859375 -3.25 C 6.265625 -2.894531 6.835938 -2.71875 7.578125 -2.71875 Z M 7.578125 -2.71875 "/></g></g><g transform="translate(357.742198, 103.646101)"><g><path d="M 2.328125 0 L 2.328125 -16.125 L 6.21875 -16.125 L 6.21875 -13.75 L 6.515625 -13.6875 C 7.523438 -15.519531 9.15625 -16.4375 11.40625 -16.4375 C 13.257812 -16.4375 14.625 -15.925781 15.5 -14.90625 C 16.375 -13.894531 16.8125 -12.421875 16.8125 -10.484375 L 16.8125 0 L 12.765625 0 L 12.765625 -9.984375 C 12.765625 -11.054688 12.546875 -11.828125 12.109375 -12.296875 C 11.679688 -12.773438 11 -13.015625 10.0625 -13.015625 C 8.894531 -13.015625 7.988281 -12.640625 7.34375 -11.890625 C 6.695312 -11.140625 6.375 -9.957031 6.375 -8.34375 L 6.375 0 Z M 2.328125 0 "/></g></g><g transform="translate(376.631998, 103.646101)"><g><path d="M 9.40625 0.3125 C 7.84375 0.3125 6.460938 -0.0078125 5.265625 -0.65625 C 4.066406 -1.3125 3.128906 -2.265625 2.453125 -3.515625 C 1.785156 -4.773438 1.453125 -6.285156 1.453125 -8.046875 C 1.453125 -9.828125 1.785156 -11.34375 2.453125 -12.59375 C 3.128906 -13.851562 4.0625 -14.804688 5.25 -15.453125 C 6.4375 -16.109375 7.796875 -16.4375 9.328125 -16.4375 C 12.722656 -16.4375 14.898438 -15.203125 15.859375 -12.734375 L 13.078125 -10.75 L 12.78125 -10.75 C 12.445312 -11.507812 12.015625 -12.070312 11.484375 -12.4375 C 10.953125 -12.8125 10.234375 -13 9.328125 -13 C 8.160156 -13 7.25 -12.59375 6.59375 -11.78125 C 5.9375 -10.96875 5.609375 -9.722656 5.609375 -8.046875 C 5.609375 -6.390625 5.9375 -5.15625 6.59375 -4.34375 C 7.257812 -3.53125 8.195312 -3.125 9.40625 -3.125 C 10.28125 -3.125 11.019531 -3.359375 11.625 -3.828125 C 12.238281 -4.304688 12.675781 -4.988281 12.9375 -5.875 L 13.25 -5.90625 L 16.125 -4.328125 C 15.71875 -2.960938 14.957031 -1.847656 13.84375 -0.984375 C 12.738281 -0.117188 11.257812 0.3125 9.40625 0.3125 Z M 9.40625 0.3125 "/></g></g><g transform="translate(393.255607, 103.646101)"><g><path d="M 15.9375 -7.140625 L 5.5625 -7.140625 C 5.6875 -5.742188 6.085938 -4.722656 6.765625 -4.078125 C 7.453125 -3.441406 8.382812 -3.125 9.5625 -3.125 C 10.488281 -3.125 11.238281 -3.296875 11.8125 -3.640625 C 12.382812 -3.992188 12.847656 -4.519531 13.203125 -5.21875 L 13.5 -5.21875 L 16.203125 -3.5 C 15.671875 -2.363281 14.875 -1.441406 13.8125 -0.734375 C 12.75 -0.0351562 11.332031 0.3125 9.5625 0.3125 C 7.894531 0.3125 6.453125 -0.00390625 5.234375 -0.640625 C 4.023438 -1.273438 3.09375 -2.21875 2.4375 -3.46875 C 1.78125 -4.71875 1.453125 -6.242188 1.453125 -8.046875 C 1.453125 -9.878906 1.796875 -11.425781 2.484375 -12.6875 C 3.171875 -13.945312 4.101562 -14.882812 5.28125 -15.5 C 6.46875 -16.125 7.796875 -16.4375 9.265625 -16.4375 C 11.546875 -16.4375 13.289062 -15.832031 14.5 -14.625 C 15.71875 -13.414062 16.328125 -11.640625 16.328125 -9.296875 C 16.328125 -8.453125 16.296875 -7.796875 16.234375 -7.328125 Z M 12.453125 -9.765625 C 12.410156 -10.992188 12.125 -11.882812 11.59375 -12.4375 C 11.0625 -13 10.285156 -13.28125 9.265625 -13.28125 C 7.222656 -13.28125 6.019531 -12.109375 5.65625 -9.765625 Z M 12.453125 -9.765625 "/></g></g><g transform="translate(410.785693, 103.646101)"><g/></g><g transform="translate(417.847437, 103.646101)"><g><path d="M 9.375 0.3125 C 7.789062 0.3125 6.398438 -0.0078125 5.203125 -0.65625 C 4.015625 -1.3125 3.09375 -2.265625 2.4375 -3.515625 C 1.78125 -4.765625 1.453125 -6.273438 1.453125 -8.046875 C 1.453125 -9.828125 1.78125 -11.34375 2.4375 -12.59375 C 3.09375 -13.851562 4.015625 -14.804688 5.203125 -15.453125 C 6.398438 -16.109375 7.789062 -16.4375 9.375 -16.4375 C 10.945312 -16.4375 12.328125 -16.109375 13.515625 -15.453125 C 14.710938 -14.804688 15.644531 -13.851562 16.3125 -12.59375 C 16.976562 -11.34375 17.3125 -9.828125 17.3125 -8.046875 C 17.3125 -6.273438 16.976562 -4.765625 16.3125 -3.515625 C 15.644531 -2.265625 14.710938 -1.3125 13.515625 -0.65625 C 12.328125 -0.0078125 10.945312 0.3125 9.375 0.3125 Z M 9.375 -3.125 C 11.875 -3.125 13.125 -4.765625 13.125 -8.046875 C 13.125 -9.753906 12.800781 -11.003906 12.15625 -11.796875 C 11.519531 -12.597656 10.59375 -13 9.375 -13 C 6.863281 -13 5.609375 -11.347656 5.609375 -8.046875 C 5.609375 -4.765625 6.863281 -3.125 9.375 -3.125 Z M 9.375 -3.125 "/></g></g><g transform="translate(436.591031, 103.646101)"><g><path d="M 2.828125 0 L 2.828125 -12.921875 L 0.546875 -12.921875 L 0.546875 -16.140625 L 2.828125 -16.140625 C 2.660156 -16.816406 2.578125 -17.453125 2.578125 -18.046875 C 2.578125 -19.078125 2.804688 -19.953125 3.265625 -20.671875 C 3.734375 -21.398438 4.40625 -21.953125 5.28125 -22.328125 C 6.164062 -22.710938 7.210938 -22.90625 8.421875 -22.90625 C 10.203125 -22.90625 11.53125 -22.597656 12.40625 -21.984375 L 11.453125 -19 L 11.15625 -18.9375 C 10.550781 -19.375 9.773438 -19.59375 8.828125 -19.59375 C 8.097656 -19.59375 7.550781 -19.410156 7.1875 -19.046875 C 6.820312 -18.691406 6.640625 -18.207031 6.640625 -17.59375 C 6.640625 -17.332031 6.65625 -17.09375 6.6875 -16.875 C 6.71875 -16.65625 6.78125 -16.410156 6.875 -16.140625 L 11.46875 -16.140625 L 11.46875 -12.921875 L 6.875 -12.921875 L 6.875 0 Z M 2.828125 0 "/></g></g><g transform="translate(448.229019, 103.646101)"><g/></g><g transform="translate(455.290763, 103.646101)"><g><path d="M 9.40625 0.3125 C 7.84375 0.3125 6.460938 -0.0078125 5.265625 -0.65625 C 4.066406 -1.3125 3.128906 -2.265625 2.453125 -3.515625 C 1.785156 -4.773438 1.453125 -6.285156 1.453125 -8.046875 C 1.453125 -9.828125 1.785156 -11.34375 2.453125 -12.59375 C 3.128906 -13.851562 4.0625 -14.804688 5.25 -15.453125 C 6.4375 -16.109375 7.796875 -16.4375 9.328125 -16.4375 C 12.722656 -16.4375 14.898438 -15.203125 15.859375 -12.734375 L 13.078125 -10.75 L 12.78125 -10.75 C 12.445312 -11.507812 12.015625 -12.070312 11.484375 -12.4375 C 10.953125 -12.8125 10.234375 -13 9.328125 -13 C 8.160156 -13 7.25 -12.59375 6.59375 -11.78125 C 5.9375 -10.96875 5.609375 -9.722656 5.609375 -8.046875 C 5.609375 -6.390625 5.9375 -5.15625 6.59375 -4.34375 C 7.257812 -3.53125 8.195312 -3.125 9.40625 -3.125 C 10.28125 -3.125 11.019531 -3.359375 11.625 -3.828125 C 12.238281 -4.304688 12.675781 -4.988281 12.9375 -5.875 L 13.25 -5.90625 L 16.125 -4.328125 C 15.71875 -2.960938 14.957031 -1.847656 13.84375 -0.984375 C 12.738281 -0.117188 11.257812 0.3125 9.40625 0.3125 Z M 9.40625 0.3125 "/></g></g><g transform="translate(471.914372, 103.646101)"><g><path d="M 15.9375 -7.140625 L 5.5625 -7.140625 C 5.6875 -5.742188 6.085938 -4.722656 6.765625 -4.078125 C 7.453125 -3.441406 8.382812 -3.125 9.5625 -3.125 C 10.488281 -3.125 11.238281 -3.296875 11.8125 -3.640625 C 12.382812 -3.992188 12.847656 -4.519531 13.203125 -5.21875 L 13.5 -5.21875 L 16.203125 -3.5 C 15.671875 -2.363281 14.875 -1.441406 13.8125 -0.734375 C 12.75 -0.0351562 11.332031 0.3125 9.5625 0.3125 C 7.894531 0.3125 6.453125 -0.00390625 5.234375 -0.640625 C 4.023438 -1.273438 3.09375 -2.21875 2.4375 -3.46875 C 1.78125 -4.71875 1.453125 -6.242188 1.453125 -8.046875 C 1.453125 -9.878906 1.796875 -11.425781 2.484375 -12.6875 C 3.171875 -13.945312 4.101562 -14.882812 5.28125 -15.5 C 6.46875 -16.125 7.796875 -16.4375 9.265625 -16.4375 C 11.546875 -16.4375 13.289062 -15.832031 14.5 -14.625 C 15.71875 -13.414062 16.328125 -11.640625 16.328125 -9.296875 C 16.328125 -8.453125 16.296875 -7.796875 16.234375 -7.328125 Z M 12.453125 -9.765625 C 12.410156 -10.992188 12.125 -11.882812 11.59375 -12.4375 C 11.0625 -13 10.285156 -13.28125 9.265625 -13.28125 C 7.222656 -13.28125 6.019531 -12.109375 5.65625 -9.765625 Z M 12.453125 -9.765625 "/></g></g><g transform="translate(489.444458, 103.646101)"><g><path d="M 2.328125 0 L 2.328125 -16.125 L 6.25 -16.125 L 6.25 -13.71875 L 6.5625 -13.671875 C 6.945312 -14.566406 7.457031 -15.222656 8.09375 -15.640625 C 8.726562 -16.054688 9.5 -16.265625 10.40625 -16.265625 C 11.320312 -16.265625 12.019531 -16.109375 12.5 -15.796875 L 11.8125 -12.3125 L 11.5 -12.25 C 11.238281 -12.351562 10.984375 -12.429688 10.734375 -12.484375 C 10.492188 -12.535156 10.203125 -12.5625 9.859375 -12.5625 C 8.722656 -12.5625 7.859375 -12.160156 7.265625 -11.359375 C 6.671875 -10.566406 6.375 -9.296875 6.375 -7.546875 L 6.375 0 Z M 2.328125 0 "/></g></g><g transform="translate(502.091267, 103.646101)"><g><path d="M 11.125 -3.84375 L 12.171875 -0.84375 C 11.734375 -0.488281 11.179688 -0.207031 10.515625 0 C 9.859375 0.207031 9.113281 0.3125 8.28125 0.3125 C 6.53125 0.3125 5.203125 -0.160156 4.296875 -1.109375 C 3.390625 -2.066406 2.9375 -3.453125 2.9375 -5.265625 L 2.9375 -12.921875 L 0.484375 -12.921875 L 0.484375 -16.140625 L 2.9375 -16.140625 L 2.9375 -19.28125 L 6.984375 -19.9375 L 6.984375 -16.140625 L 11.5625 -16.140625 L 11.5625 -12.921875 L 6.984375 -12.921875 L 6.984375 -5.5625 C 6.984375 -4.757812 7.148438 -4.175781 7.484375 -3.8125 C 7.816406 -3.445312 8.300781 -3.265625 8.9375 -3.265625 C 9.65625 -3.265625 10.28125 -3.457031 10.8125 -3.84375 Z M 11.125 -3.84375 "/></g></g><g transform="translate(514.621111, 103.646101)"><g><path d="M 4.34375 -18.046875 C 3.613281 -18.046875 3.019531 -18.269531 2.5625 -18.71875 C 2.101562 -19.164062 1.875 -19.738281 1.875 -20.4375 C 1.875 -21.125 2.101562 -21.6875 2.5625 -22.125 C 3.019531 -22.570312 3.613281 -22.796875 4.34375 -22.796875 C 4.832031 -22.796875 5.265625 -22.691406 5.640625 -22.484375 C 6.023438 -22.285156 6.320312 -22.007812 6.53125 -21.65625 C 6.738281 -21.300781 6.84375 -20.894531 6.84375 -20.4375 C 6.84375 -19.976562 6.738281 -19.566406 6.53125 -19.203125 C 6.320312 -18.847656 6.023438 -18.566406 5.640625 -18.359375 C 5.265625 -18.148438 4.832031 -18.046875 4.34375 -18.046875 Z M 2.328125 0 L 2.328125 -16.125 L 6.375 -16.125 L 6.375 0 Z M 2.328125 0 "/></g></g><g transform="translate(523.30574, 103.646101)"><g><path d="M 2.828125 0 L 2.828125 -12.921875 L 0.546875 -12.921875 L 0.546875 -16.140625 L 2.828125 -16.140625 C 2.660156 -16.816406 2.578125 -17.453125 2.578125 -18.046875 C 2.578125 -19.078125 2.804688 -19.953125 3.265625 -20.671875 C 3.734375 -21.398438 4.40625 -21.953125 5.28125 -22.328125 C 6.164062 -22.710938 7.210938 -22.90625 8.421875 -22.90625 C 10.203125 -22.90625 11.53125 -22.597656 12.40625 -21.984375 L 11.453125 -19 L 11.15625 -18.9375 C 10.550781 -19.375 9.773438 -19.59375 8.828125 -19.59375 C 8.097656 -19.59375 7.550781 -19.410156 7.1875 -19.046875 C 6.820312 -18.691406 6.640625 -18.207031 6.640625 -17.59375 C 6.640625 -17.332031 6.65625 -17.09375 6.6875 -16.875 C 6.71875 -16.65625 6.78125 -16.410156 6.875 -16.140625 L 11.46875 -16.140625 L 11.46875 -12.921875 L 6.875 -12.921875 L 6.875 0 Z M 2.828125 0 "/></g></g><g transform="translate(534.943729, 103.646101)"><g><path d="M 4.34375 -18.046875 C 3.613281 -18.046875 3.019531 -18.269531 2.5625 -18.71875 C 2.101562 -19.164062 1.875 -19.738281 1.875 -20.4375 C 1.875 -21.125 2.101562 -21.6875 2.5625 -22.125 C 3.019531 -22.570312 3.613281 -22.796875 4.34375 -22.796875 C 4.832031 -22.796875 5.265625 -22.691406 5.640625 -22.484375 C 6.023438 -22.285156 6.320312 -22.007812 6.53125 -21.65625 C 6.738281 -21.300781 6.84375 -20.894531 6.84375 -20.4375 C 6.84375 -19.976562 6.738281 -19.566406 6.53125 -19.203125 C 6.320312 -18.847656 6.023438 -18.566406 5.640625 -18.359375 C 5.265625 -18.148438 4.832031 -18.046875 4.34375 -18.046875 Z M 2.328125 0 L 2.328125 -16.125 L 6.375 -16.125 L 6.375 0 Z M 2.328125 0 "/></g></g><g transform="translate(543.628358, 103.646101)"><g><path d="M 9.40625 0.3125 C 7.84375 0.3125 6.460938 -0.0078125 5.265625 -0.65625 C 4.066406 -1.3125 3.128906 -2.265625 2.453125 -3.515625 C 1.785156 -4.773438 1.453125 -6.285156 1.453125 -8.046875 C 1.453125 -9.828125 1.785156 -11.34375 2.453125 -12.59375 C 3.128906 -13.851562 4.0625 -14.804688 5.25 -15.453125 C 6.4375 -16.109375 7.796875 -16.4375 9.328125 -16.4375 C 12.722656 -16.4375 14.898438 -15.203125 15.859375 -12.734375 L 13.078125 -10.75 L 12.78125 -10.75 C 12.445312 -11.507812 12.015625 -12.070312 11.484375 -12.4375 C 10.953125 -12.8125 10.234375 -13 9.328125 -13 C 8.160156 -13 7.25 -12.59375 6.59375 -11.78125 C 5.9375 -10.96875 5.609375 -9.722656 5.609375 -8.046875 C 5.609375 -6.390625 5.9375 -5.15625 6.59375 -4.34375 C 7.257812 -3.53125 8.195312 -3.125 9.40625 -3.125 C 10.28125 -3.125 11.019531 -3.359375 11.625 -3.828125 C 12.238281 -4.304688 12.675781 -4.988281 12.9375 -5.875 L 13.25 -5.90625 L 16.125 -4.328125 C 15.71875 -2.960938 14.957031 -1.847656 13.84375 -0.984375 C 12.738281 -0.117188 11.257812 0.3125 9.40625 0.3125 Z M 9.40625 0.3125 "/></g></g><g transform="translate(560.251967, 103.646101)"><g><path d="M 6.28125 0.3125 C 5.25 0.3125 4.351562 0.125 3.59375 -0.25 C 2.832031 -0.632812 2.25 -1.195312 1.84375 -1.9375 C 1.4375 -2.675781 1.234375 -3.5625 1.234375 -4.59375 C 1.234375 -5.539062 1.4375 -6.335938 1.84375 -6.984375 C 2.25 -7.640625 2.878906 -8.171875 3.734375 -8.578125 C 4.597656 -8.992188 5.722656 -9.316406 7.109375 -9.546875 C 8.066406 -9.703125 8.796875 -9.867188 9.296875 -10.046875 C 9.804688 -10.234375 10.144531 -10.441406 10.3125 -10.671875 C 10.488281 -10.910156 10.578125 -11.210938 10.578125 -11.578125 C 10.578125 -12.097656 10.394531 -12.492188 10.03125 -12.765625 C 9.675781 -13.035156 9.082031 -13.171875 8.25 -13.171875 C 7.351562 -13.171875 6.5 -12.96875 5.6875 -12.5625 C 4.875 -12.164062 4.171875 -11.644531 3.578125 -11 L 3.28125 -11 L 1.59375 -13.546875 C 2.414062 -14.453125 3.414062 -15.160156 4.59375 -15.671875 C 5.769531 -16.179688 7.054688 -16.4375 8.453125 -16.4375 C 10.585938 -16.4375 12.128906 -15.984375 13.078125 -15.078125 C 14.035156 -14.171875 14.515625 -12.882812 14.515625 -11.21875 L 14.515625 -4.203125 C 14.515625 -3.484375 14.832031 -3.125 15.46875 -3.125 C 15.707031 -3.125 15.945312 -3.171875 16.1875 -3.265625 L 16.390625 -3.203125 L 16.671875 -0.375 C 16.453125 -0.226562 16.140625 -0.109375 15.734375 -0.015625 C 15.335938 0.0664062 14.898438 0.109375 14.421875 0.109375 C 13.460938 0.109375 12.710938 -0.0703125 12.171875 -0.4375 C 11.628906 -0.8125 11.238281 -1.390625 11 -2.171875 L 10.703125 -2.203125 C 9.910156 -0.523438 8.4375 0.3125 6.28125 0.3125 Z M 7.578125 -2.71875 C 8.503906 -2.71875 9.25 -3.03125 9.8125 -3.65625 C 10.375 -4.289062 10.65625 -5.164062 10.65625 -6.28125 L 10.65625 -7.921875 L 10.375 -7.984375 C 10.132812 -7.785156 9.816406 -7.617188 9.421875 -7.484375 C 9.023438 -7.359375 8.457031 -7.234375 7.71875 -7.109375 C 6.84375 -6.960938 6.210938 -6.707031 5.828125 -6.34375 C 5.441406 -5.988281 5.25 -5.488281 5.25 -4.84375 C 5.25 -4.144531 5.453125 -3.613281 5.859375 -3.25 C 6.265625 -2.894531 6.835938 -2.71875 7.578125 -2.71875 Z M 7.578125 -2.71875 "/></g></g><g transform="translate(577.255711, 103.646101)"><g><path d="M 11.125 -3.84375 L 12.171875 -0.84375 C 11.734375 -0.488281 11.179688 -0.207031 10.515625 0 C 9.859375 0.207031 9.113281 0.3125 8.28125 0.3125 C 6.53125 0.3125 5.203125 -0.160156 4.296875 -1.109375 C 3.390625 -2.066406 2.9375 -3.453125 2.9375 -5.265625 L 2.9375 -12.921875 L 0.484375 -12.921875 L 0.484375 -16.140625 L 2.9375 -16.140625 L 2.9375 -19.28125 L 6.984375 -19.9375 L 6.984375 -16.140625 L 11.5625 -16.140625 L 11.5625 -12.921875 L 6.984375 -12.921875 L 6.984375 -5.5625 C 6.984375 -4.757812 7.148438 -4.175781 7.484375 -3.8125 C 7.816406 -3.445312 8.300781 -3.265625 8.9375 -3.265625 C 9.65625 -3.265625 10.28125 -3.457031 10.8125 -3.84375 Z M 11.125 -3.84375 "/></g></g><g transform="translate(589.785555, 103.646101)"><g><path d="M 4.34375 -18.046875 C 3.613281 -18.046875 3.019531 -18.269531 2.5625 -18.71875 C 2.101562 -19.164062 1.875 -19.738281 1.875 -20.4375 C 1.875 -21.125 2.101562 -21.6875 2.5625 -22.125 C 3.019531 -22.570312 3.613281 -22.796875 4.34375 -22.796875 C 4.832031 -22.796875 5.265625 -22.691406 5.640625 -22.484375 C 6.023438 -22.285156 6.320312 -22.007812 6.53125 -21.65625 C 6.738281 -21.300781 6.84375 -20.894531 6.84375 -20.4375 C 6.84375 -19.976562 6.738281 -19.566406 6.53125 -19.203125 C 6.320312 -18.847656 6.023438 -18.566406 5.640625 -18.359375 C 5.265625 -18.148438 4.832031 -18.046875 4.34375 -18.046875 Z M 2.328125 0 L 2.328125 -16.125 L 6.375 -16.125 L 6.375 0 Z M 2.328125 0 "/></g></g><g transform="translate(598.470185, 103.646101)"><g><path d="M 9.375 0.3125 C 7.789062 0.3125 6.398438 -0.0078125 5.203125 -0.65625 C 4.015625 -1.3125 3.09375 -2.265625 2.4375 -3.515625 C 1.78125 -4.765625 1.453125 -6.273438 1.453125 -8.046875 C 1.453125 -9.828125 1.78125 -11.34375 2.4375 -12.59375 C 3.09375 -13.851562 4.015625 -14.804688 5.203125 -15.453125 C 6.398438 -16.109375 7.789062 -16.4375 9.375 -16.4375 C 10.945312 -16.4375 12.328125 -16.109375 13.515625 -15.453125 C 14.710938 -14.804688 15.644531 -13.851562 16.3125 -12.59375 C 16.976562 -11.34375 17.3125 -9.828125 17.3125 -8.046875 C 17.3125 -6.273438 16.976562 -4.765625 16.3125 -3.515625 C 15.644531 -2.265625 14.710938 -1.3125 13.515625 -0.65625 C 12.328125 -0.0078125 10.945312 0.3125 9.375 0.3125 Z M 9.375 -3.125 C 11.875 -3.125 13.125 -4.765625 13.125 -8.046875 C 13.125 -9.753906 12.800781 -11.003906 12.15625 -11.796875 C 11.519531 -12.597656 10.59375 -13 9.375 -13 C 6.863281 -13 5.609375 -11.347656 5.609375 -8.046875 C 5.609375 -4.765625 6.863281 -3.125 9.375 -3.125 Z M 9.375 -3.125 "/></g></g><g transform="translate(617.213779, 103.646101)"><g><path d="M 2.328125 0 L 2.328125 -16.125 L 6.21875 -16.125 L 6.21875 -13.75 L 6.515625 -13.6875 C 7.523438 -15.519531 9.15625 -16.4375 11.40625 -16.4375 C 13.257812 -16.4375 14.625 -15.925781 15.5 -14.90625 C 16.375 -13.894531 16.8125 -12.421875 16.8125 -10.484375 L 16.8125 0 L 12.765625 0 L 12.765625 -9.984375 C 12.765625 -11.054688 12.546875 -11.828125 12.109375 -12.296875 C 11.679688 -12.773438 11 -13.015625 10.0625 -13.015625 C 8.894531 -13.015625 7.988281 -12.640625 7.34375 -11.890625 C 6.695312 -11.140625 6.375 -9.957031 6.375 -8.34375 L 6.375 0 Z M 2.328125 0 "/></g></g></g><g clip-path="url(#25ec6d4b54)"><path fill="#082a71" d="M 625.28125 182.03125 L 584.222656 140.976562 C 581.65625 138.410156 578.175781 136.964844 574.546875 136.964844 L 355.574219 136.964844 C 348.015625 136.964844 341.890625 143.09375 341.890625 150.652344 L 341.890625 205.226562 C 336.023438 207.246094 330.453125 210.417969 325.515625 214.941406 C 314.109375 215.4375 303.917969 219.601562 296.320312 226.972656 C 288.410156 234.644531 283.839844 245.320312 283.128906 257.503906 C 275.015625 266.605469 270.699219 277.390625 270.867188 288.402344 C 271.027344 298.988281 275.289062 309.144531 283.007812 317.566406 C 283.503906 328.972656 287.667969 339.164062 295.039062 346.761719 C 296.804688 348.582031 298.765625 350.179688 300.832031 351.640625 L 300.832031 438.050781 C 300.832031 443.097656 303.613281 447.734375 308.0625 450.121094 C 312.484375 452.492188 317.890625 452.238281 322.109375 449.4375 L 341.890625 436.25 L 341.890625 479.109375 C 341.890625 486.667969 348.015625 492.796875 355.574219 492.796875 L 615.605469 492.796875 C 623.164062 492.796875 629.289062 486.667969 629.289062 479.109375 L 629.289062 191.707031 C 629.289062 188.078125 627.847656 184.597656 625.28125 182.03125 Z M 574.546875 170.003906 L 596.25 191.707031 L 574.546875 191.707031 Z M 314.683594 327.703125 C 310.527344 323.421875 310.074219 317.320312 310.421875 312.957031 C 310.773438 308.570312 309.003906 304.289062 305.65625 301.441406 C 302.320312 298.601562 298.324219 293.964844 298.238281 287.996094 C 298.164062 283.023438 300.832031 277.945312 305.964844 273.308594 C 309.011719 270.554688 310.65625 266.578125 310.449219 262.476562 C 310.105469 255.566406 311.8125 250.078125 315.378906 246.617188 C 319.667969 242.46875 325.785156 242.0625 330.128906 242.355469 C 334.632812 242.800781 338.796875 240.9375 341.640625 237.589844 C 344.480469 234.257812 349.121094 230.261719 355.085938 230.171875 C 360.039062 229.867188 365.132812 232.765625 369.773438 237.898438 C 372.527344 240.9375 376.472656 242.621094 380.609375 242.382812 C 387.492188 242.066406 393.003906 243.738281 396.464844 247.3125 C 400.621094 251.597656 401.074219 257.699219 400.726562 262.0625 C 400.375 266.445312 402.144531 270.730469 405.492188 273.574219 C 408.828125 276.414062 412.824219 281.054688 412.910156 287.019531 C 412.984375 291.992188 410.316406 297.070312 405.1875 301.710938 C 402.136719 304.460938 400.496094 308.4375 400.703125 312.542969 C 401.042969 319.449219 399.339844 324.9375 395.769531 328.398438 C 391.492188 332.5625 385.398438 332.988281 381.023438 332.664062 C 376.605469 332.308594 372.359375 334.085938 369.507812 337.425781 C 366.667969 340.761719 362.03125 344.757812 356.0625 344.84375 C 351.089844 344.71875 346.011719 342.246094 341.375 337.121094 C 338.65625 334.117188 334.59375 332.398438 330.542969 332.636719 C 323.625 332.921875 318.144531 331.273438 314.683594 327.703125 Z M 347.984375 399.292969 L 328.203125 412.476562 L 328.203125 361.941406 C 336.339844 368.347656 346.058594 372.214844 356.46875 372.214844 C 365.980469 372.070312 375.074219 368.457031 382.945312 362.15625 L 382.945312 412.476562 L 363.167969 399.292969 C 358.570312 396.234375 352.582031 396.234375 347.984375 399.292969 Z M 601.917969 465.421875 L 369.261719 465.421875 L 369.261719 436.25 L 389.039062 449.4375 C 393.199219 452.214844 398.691406 452.480469 403.085938 450.121094 C 407.539062 447.734375 410.316406 443.097656 410.316406 438.050781 L 410.316406 351.644531 C 411.875 350.515625 413.4375 349.394531 414.828125 348.046875 C 422.742188 340.375 427.3125 329.695312 428.019531 317.511719 C 436.132812 308.410156 440.449219 297.625 440.28125 286.613281 C 440.121094 276.027344 435.859375 265.871094 428.140625 257.449219 C 427.644531 246.042969 423.480469 235.851562 416.113281 228.253906 C 408.441406 220.34375 397.761719 215.773438 385.578125 215.0625 C 380.617188 210.640625 375.027344 207.570312 369.261719 205.558594 L 369.261719 164.335938 L 547.175781 164.335938 L 547.175781 205.394531 C 547.175781 212.953125 553.304688 219.078125 560.859375 219.078125 L 601.917969 219.078125 Z M 560.859375 246.453125 C 578.503906 246.453125 578.472656 273.824219 560.859375 273.824219 L 478.746094 273.824219 C 461.105469 273.824219 461.136719 246.453125 478.746094 246.453125 Z M 560.859375 342.25 L 478.746094 342.25 C 461.105469 342.25 461.136719 314.878906 478.746094 314.878906 L 560.859375 314.878906 C 578.503906 314.878906 578.472656 342.25 560.859375 342.25 Z M 560.859375 410.679688 L 478.746094 410.679688 C 461.105469 410.679688 461.136719 383.308594 478.746094 383.308594 L 560.859375 383.308594 C 578.503906 383.308594 578.472656 410.679688 560.859375 410.679688 Z M 560.859375 410.679688 " fill-opacity="1" fill-rule="nonzero"/></g></svg>