<svg xmlns="http://www.w3.org/2000/svg" xmlns:xlink="http://www.w3.org/1999/xlink" width="1200" zoomAndPan="magnify" viewBox="0 0 900 525.000007" height="700" preserveAspectRatio="xMidYMid meet" version="1.0"><defs><g/><clipPath id="6cff52731d"><path d="M 183.160156 20.601562 L 752.078125 20.601562 L 752.078125 510.167969 L 183.160156 510.167969 Z M 183.160156 20.601562 " clip-rule="nonzero"/></clipPath><clipPath id="a6f45dcfab"><path d="M 328.675781 72.269531 L 568.21875 72.269531 L 568.21875 510.183594 L 328.675781 510.183594 Z M 328.675781 72.269531 " clip-rule="nonzero"/></clipPath></defs><g clip-path="url(#6cff52731d)"><path stroke-linecap="butt" transform="matrix(0.748097, 0, 0, 0.748556, 183.162052, 20.602362)" fill="none" stroke-linejoin="miter" d="M -0.00253354 -0.00106872 L 760.484002 -0.00106872 L 760.484002 654.013114 L -0.00253354 654.013114 L -0.00253354 -0.00106872 " stroke="#ffffff" stroke-width="8" stroke-opacity="1" stroke-miterlimit="4"/></g><g fill="#082a71" fill-opacity="1"><g transform="translate(272.922317, 49.795171)"><g><path d="M 16.328125 -21.375 L 16.328125 -17.828125 L 7 -17.828125 L 7 -12.171875 L 15.46875 -12.171875 L 15.46875 -8.6875 L 7 -8.6875 L 7 0 L 2.78125 0 L 2.78125 -21.375 Z M 16.328125 -21.375 "/></g></g><g transform="translate(290.203852, 49.795171)"><g><path d="M 9.375 0.3125 C 7.789062 0.3125 6.398438 -0.0078125 5.203125 -0.65625 C 4.015625 -1.3125 3.09375 -2.265625 2.4375 -3.515625 C 1.78125 -4.765625 1.453125 -6.273438 1.453125 -8.046875 C 1.453125 -9.828125 1.78125 -11.34375 2.4375 -12.59375 C 3.09375 -13.851562 4.015625 -14.804688 5.203125 -15.453125 C 6.398438 -16.109375 7.789062 -16.4375 9.375 -16.4375 C 10.945312 -16.4375 12.328125 -16.109375 13.515625 -15.453125 C 14.710938 -14.804688 15.644531 -13.851562 16.3125 -12.59375 C 16.976562 -11.34375 17.3125 -9.828125 17.3125 -8.046875 C 17.3125 -6.273438 16.976562 -4.765625 16.3125 -3.515625 C 15.644531 -2.265625 14.710938 -1.3125 13.515625 -0.65625 C 12.328125 -0.0078125 10.945312 0.3125 9.375 0.3125 Z M 9.375 -3.125 C 11.875 -3.125 13.125 -4.765625 13.125 -8.046875 C 13.125 -9.753906 12.800781 -11.003906 12.15625 -11.796875 C 11.519531 -12.597656 10.59375 -13 9.375 -13 C 6.863281 -13 5.609375 -11.347656 5.609375 -8.046875 C 5.609375 -4.765625 6.863281 -3.125 9.375 -3.125 Z M 9.375 -3.125 "/></g></g><g transform="translate(308.947446, 49.795171)"><g><path d="M 2.328125 0 L 2.328125 -16.125 L 6.25 -16.125 L 6.25 -13.71875 L 6.5625 -13.671875 C 6.945312 -14.566406 7.457031 -15.222656 8.09375 -15.640625 C 8.726562 -16.054688 9.5 -16.265625 10.40625 -16.265625 C 11.320312 -16.265625 12.019531 -16.109375 12.5 -15.796875 L 11.8125 -12.3125 L 11.5 -12.25 C 11.238281 -12.351562 10.984375 -12.429688 10.734375 -12.484375 C 10.492188 -12.535156 10.203125 -12.5625 9.859375 -12.5625 C 8.722656 -12.5625 7.859375 -12.160156 7.265625 -11.359375 C 6.671875 -10.566406 6.375 -9.296875 6.375 -7.546875 L 6.375 0 Z M 2.328125 0 "/></g></g><g transform="translate(321.594255, 49.795171)"><g><path d="M 15.9375 -7.140625 L 5.5625 -7.140625 C 5.6875 -5.742188 6.085938 -4.722656 6.765625 -4.078125 C 7.453125 -3.441406 8.382812 -3.125 9.5625 -3.125 C 10.488281 -3.125 11.238281 -3.296875 11.8125 -3.640625 C 12.382812 -3.992188 12.847656 -4.519531 13.203125 -5.21875 L 13.5 -5.21875 L 16.203125 -3.5 C 15.671875 -2.363281 14.875 -1.441406 13.8125 -0.734375 C 12.75 -0.0351562 11.332031 0.3125 9.5625 0.3125 C 7.894531 0.3125 6.453125 -0.00390625 5.234375 -0.640625 C 4.023438 -1.273438 3.09375 -2.21875 2.4375 -3.46875 C 1.78125 -4.71875 1.453125 -6.242188 1.453125 -8.046875 C 1.453125 -9.878906 1.796875 -11.425781 2.484375 -12.6875 C 3.171875 -13.945312 4.101562 -14.882812 5.28125 -15.5 C 6.46875 -16.125 7.796875 -16.4375 9.265625 -16.4375 C 11.546875 -16.4375 13.289062 -15.832031 14.5 -14.625 C 15.71875 -13.414062 16.328125 -11.640625 16.328125 -9.296875 C 16.328125 -8.453125 16.296875 -7.796875 16.234375 -7.328125 Z M 12.453125 -9.765625 C 12.410156 -10.992188 12.125 -11.882812 11.59375 -12.4375 C 11.0625 -13 10.285156 -13.28125 9.265625 -13.28125 C 7.222656 -13.28125 6.019531 -12.109375 5.65625 -9.765625 Z M 12.453125 -9.765625 "/></g></g><g transform="translate(339.124341, 49.795171)"><g><path d="M 4.34375 -18.046875 C 3.613281 -18.046875 3.019531 -18.269531 2.5625 -18.71875 C 2.101562 -19.164062 1.875 -19.738281 1.875 -20.4375 C 1.875 -21.125 2.101562 -21.6875 2.5625 -22.125 C 3.019531 -22.570312 3.613281 -22.796875 4.34375 -22.796875 C 4.832031 -22.796875 5.265625 -22.691406 5.640625 -22.484375 C 6.023438 -22.285156 6.320312 -22.007812 6.53125 -21.65625 C 6.738281 -21.300781 6.84375 -20.894531 6.84375 -20.4375 C 6.84375 -19.976562 6.738281 -19.566406 6.53125 -19.203125 C 6.320312 -18.847656 6.023438 -18.566406 5.640625 -18.359375 C 5.265625 -18.148438 4.832031 -18.046875 4.34375 -18.046875 Z M 2.328125 0 L 2.328125 -16.125 L 6.375 -16.125 L 6.375 0 Z M 2.328125 0 "/></g></g><g transform="translate(347.80897, 49.795171)"><g><path d="M 8.359375 6.84375 C 5.703125 6.84375 3.738281 6.453125 2.46875 5.671875 C 1.195312 4.890625 0.5625 3.800781 0.5625 2.40625 C 0.5625 1.5625 0.832031 0.867188 1.375 0.328125 C 1.914062 -0.210938 2.695312 -0.578125 3.71875 -0.765625 L 3.71875 -1.0625 C 3.164062 -1.394531 2.769531 -1.765625 2.53125 -2.171875 C 2.289062 -2.578125 2.171875 -3.046875 2.171875 -3.578125 C 2.171875 -4.878906 3.015625 -5.753906 4.703125 -6.203125 L 4.703125 -6.5 C 3.835938 -7 3.1875 -7.613281 2.75 -8.34375 C 2.3125 -9.082031 2.09375 -9.972656 2.09375 -11.015625 C 2.09375 -12.085938 2.335938 -13.03125 2.828125 -13.84375 C 3.316406 -14.664062 4.035156 -15.300781 4.984375 -15.75 C 5.941406 -16.207031 7.082031 -16.4375 8.40625 -16.4375 C 9.75 -16.4375 10.820312 -16.203125 11.625 -15.734375 C 12.113281 -16.453125 12.398438 -17.285156 12.484375 -18.234375 L 12.796875 -18.421875 L 15.703125 -17.703125 C 15.609375 -16.929688 15.378906 -16.285156 15.015625 -15.765625 C 14.660156 -15.242188 14.101562 -14.78125 13.34375 -14.375 L 13.34375 -14.046875 C 14.25 -13.242188 14.703125 -12.128906 14.703125 -10.703125 C 14.703125 -9.703125 14.453125 -8.804688 13.953125 -8.015625 C 13.460938 -7.234375 12.738281 -6.613281 11.78125 -6.15625 C 10.832031 -5.695312 9.707031 -5.46875 8.40625 -5.46875 L 7.796875 -5.484375 C 7.398438 -5.503906 7.125 -5.515625 6.96875 -5.515625 C 6.601562 -5.515625 6.3125 -5.410156 6.09375 -5.203125 C 5.882812 -5.003906 5.78125 -4.75 5.78125 -4.4375 C 5.78125 -4.101562 5.914062 -3.835938 6.1875 -3.640625 C 6.46875 -3.453125 6.867188 -3.347656 7.390625 -3.328125 L 11 -3.203125 C 14.570312 -3.097656 16.359375 -1.5625 16.359375 1.40625 C 16.359375 2.445312 16.09375 3.375 15.5625 4.1875 C 15.03125 5 14.171875 5.644531 12.984375 6.125 C 11.796875 6.601562 10.253906 6.84375 8.359375 6.84375 Z M 8.40625 -8.296875 C 9.1875 -8.296875 9.796875 -8.523438 10.234375 -8.984375 C 10.671875 -9.441406 10.890625 -10.097656 10.890625 -10.953125 C 10.890625 -11.796875 10.671875 -12.441406 10.234375 -12.890625 C 9.796875 -13.347656 9.1875 -13.578125 8.40625 -13.578125 C 7.613281 -13.578125 7.003906 -13.347656 6.578125 -12.890625 C 6.148438 -12.441406 5.9375 -11.796875 5.9375 -10.953125 C 5.9375 -10.085938 6.148438 -9.425781 6.578125 -8.96875 C 7.003906 -8.519531 7.613281 -8.296875 8.40625 -8.296875 Z M 8.359375 3.90625 C 9.742188 3.90625 10.75 3.707031 11.375 3.3125 C 12.007812 2.925781 12.328125 2.421875 12.328125 1.796875 C 12.328125 1.285156 12.164062 0.910156 11.84375 0.671875 C 11.519531 0.441406 11.007812 0.316406 10.3125 0.296875 L 7.125 0.140625 C 7.007812 0.140625 6.90625 0.132812 6.8125 0.125 C 6.726562 0.113281 6.640625 0.109375 6.546875 0.109375 C 5.867188 0.109375 5.347656 0.253906 4.984375 0.546875 C 4.628906 0.847656 4.453125 1.253906 4.453125 1.765625 C 4.453125 2.453125 4.78125 2.976562 5.4375 3.34375 C 6.09375 3.71875 7.066406 3.90625 8.359375 3.90625 Z M 8.359375 3.90625 "/></g></g><g transform="translate(364.578785, 49.795171)"><g><path d="M 2.328125 0 L 2.328125 -16.125 L 6.21875 -16.125 L 6.21875 -13.75 L 6.515625 -13.6875 C 7.523438 -15.519531 9.15625 -16.4375 11.40625 -16.4375 C 13.257812 -16.4375 14.625 -15.925781 15.5 -14.90625 C 16.375 -13.894531 16.8125 -12.421875 16.8125 -10.484375 L 16.8125 0 L 12.765625 0 L 12.765625 -9.984375 C 12.765625 -11.054688 12.546875 -11.828125 12.109375 -12.296875 C 11.679688 -12.773438 11 -13.015625 10.0625 -13.015625 C 8.894531 -13.015625 7.988281 -12.640625 7.34375 -11.890625 C 6.695312 -11.140625 6.375 -9.957031 6.375 -8.34375 L 6.375 0 Z M 2.328125 0 "/></g></g><g transform="translate(383.468585, 49.795171)"><g/></g><g transform="translate(390.530329, 49.795171)"><g><path d="M 11.65625 0.3125 C 9.695312 0.3125 7.96875 -0.0859375 6.46875 -0.890625 C 4.96875 -1.691406 3.796875 -2.910156 2.953125 -4.546875 C 2.109375 -6.191406 1.6875 -8.238281 1.6875 -10.6875 C 1.6875 -13.132812 2.109375 -15.175781 2.953125 -16.8125 C 3.796875 -18.457031 4.96875 -19.675781 6.46875 -20.46875 C 7.96875 -21.269531 9.695312 -21.671875 11.65625 -21.671875 C 13.613281 -21.671875 15.335938 -21.273438 16.828125 -20.484375 C 18.316406 -19.691406 19.484375 -18.472656 20.328125 -16.828125 C 21.171875 -15.179688 21.59375 -13.132812 21.59375 -10.6875 C 21.59375 -8.238281 21.171875 -6.191406 20.328125 -4.546875 C 19.484375 -2.898438 18.316406 -1.675781 16.828125 -0.875 C 15.335938 -0.0820312 13.613281 0.3125 11.65625 0.3125 Z M 11.65625 -3.359375 C 13.46875 -3.359375 14.847656 -3.941406 15.796875 -5.109375 C 16.753906 -6.273438 17.234375 -8.132812 17.234375 -10.6875 C 17.234375 -13.238281 16.753906 -15.097656 15.796875 -16.265625 C 14.847656 -17.441406 13.46875 -18.03125 11.65625 -18.03125 C 9.832031 -18.03125 8.4375 -17.441406 7.46875 -16.265625 C 6.507812 -15.097656 6.03125 -13.238281 6.03125 -10.6875 C 6.03125 -8.132812 6.507812 -6.273438 7.46875 -5.109375 C 8.4375 -3.941406 9.832031 -3.359375 11.65625 -3.359375 Z M 11.65625 -3.359375 "/></g></g><g transform="translate(413.820926, 49.795171)"><g><path d="M 7 -9.390625 L 7 -3.53125 L 17.203125 -3.53125 L 17.203125 0 L 2.78125 0 L 2.78125 -21.375 L 16.96875 -21.375 L 16.96875 -17.828125 L 7 -17.828125 L 7 -12.828125 L 15.71875 -12.828125 L 15.71875 -9.390625 Z M 7 -9.390625 "/></g></g><g transform="translate(432.199006, 49.795171)"><g><path d="M 6.65625 0 L 2.78125 0 L 2.78125 -21.375 L 8.296875 -21.375 L 13.71875 -5.65625 L 14.015625 -5.65625 L 19.390625 -21.375 L 24.796875 -21.375 L 24.796875 0 L 20.78125 0 L 20.78125 -14.125 L 20.421875 -14.171875 L 15.484375 0 L 11.953125 0 L 7.015625 -14.171875 L 6.65625 -14.125 Z M 6.65625 0 "/></g></g><g transform="translate(459.788056, 49.795171)"><g/></g><g transform="translate(466.8498, 49.795171)"><g><path d="M 2.78125 0 L 2.78125 -21.375 L 11.359375 -21.375 C 13.566406 -21.375 15.234375 -20.863281 16.359375 -19.84375 C 17.484375 -18.820312 18.046875 -17.414062 18.046875 -15.625 C 18.046875 -14.332031 17.71875 -13.269531 17.0625 -12.4375 C 16.40625 -11.613281 15.425781 -10.984375 14.125 -10.546875 L 14.125 -10.234375 C 14.789062 -9.941406 15.332031 -9.503906 15.75 -8.921875 C 16.164062 -8.347656 16.554688 -7.5 16.921875 -6.375 L 19.0625 0 L 14.71875 0 L 12.625 -6.390625 C 12.414062 -7.035156 12.175781 -7.535156 11.90625 -7.890625 C 11.632812 -8.242188 11.289062 -8.5 10.875 -8.65625 C 10.46875 -8.820312 9.929688 -8.90625 9.265625 -8.90625 L 7 -8.90625 L 7 0 Z M 10.84375 -12.25 C 12.894531 -12.25 13.921875 -13.203125 13.921875 -15.109375 C 13.921875 -17.054688 12.894531 -18.03125 10.84375 -18.03125 L 7 -18.03125 L 7 -12.25 Z M 10.84375 -12.25 "/></g></g><g transform="translate(486.836144, 49.795171)"><g><path d="M 15.9375 -7.140625 L 5.5625 -7.140625 C 5.6875 -5.742188 6.085938 -4.722656 6.765625 -4.078125 C 7.453125 -3.441406 8.382812 -3.125 9.5625 -3.125 C 10.488281 -3.125 11.238281 -3.296875 11.8125 -3.640625 C 12.382812 -3.992188 12.847656 -4.519531 13.203125 -5.21875 L 13.5 -5.21875 L 16.203125 -3.5 C 15.671875 -2.363281 14.875 -1.441406 13.8125 -0.734375 C 12.75 -0.0351562 11.332031 0.3125 9.5625 0.3125 C 7.894531 0.3125 6.453125 -0.00390625 5.234375 -0.640625 C 4.023438 -1.273438 3.09375 -2.21875 2.4375 -3.46875 C 1.78125 -4.71875 1.453125 -6.242188 1.453125 -8.046875 C 1.453125 -9.878906 1.796875 -11.425781 2.484375 -12.6875 C 3.171875 -13.945312 4.101562 -14.882812 5.28125 -15.5 C 6.46875 -16.125 7.796875 -16.4375 9.265625 -16.4375 C 11.546875 -16.4375 13.289062 -15.832031 14.5 -14.625 C 15.71875 -13.414062 16.328125 -11.640625 16.328125 -9.296875 C 16.328125 -8.453125 16.296875 -7.796875 16.234375 -7.328125 Z M 12.453125 -9.765625 C 12.410156 -10.992188 12.125 -11.882812 11.59375 -12.4375 C 11.0625 -13 10.285156 -13.28125 9.265625 -13.28125 C 7.222656 -13.28125 6.019531 -12.109375 5.65625 -9.765625 Z M 12.453125 -9.765625 "/></g></g><g transform="translate(504.36623, 49.795171)"><g><path d="M 8.359375 6.84375 C 5.703125 6.84375 3.738281 6.453125 2.46875 5.671875 C 1.195312 4.890625 0.5625 3.800781 0.5625 2.40625 C 0.5625 1.5625 0.832031 0.867188 1.375 0.328125 C 1.914062 -0.210938 2.695312 -0.578125 3.71875 -0.765625 L 3.71875 -1.0625 C 3.164062 -1.394531 2.769531 -1.765625 2.53125 -2.171875 C 2.289062 -2.578125 2.171875 -3.046875 2.171875 -3.578125 C 2.171875 -4.878906 3.015625 -5.753906 4.703125 -6.203125 L 4.703125 -6.5 C 3.835938 -7 3.1875 -7.613281 2.75 -8.34375 C 2.3125 -9.082031 2.09375 -9.972656 2.09375 -11.015625 C 2.09375 -12.085938 2.335938 -13.03125 2.828125 -13.84375 C 3.316406 -14.664062 4.035156 -15.300781 4.984375 -15.75 C 5.941406 -16.207031 7.082031 -16.4375 8.40625 -16.4375 C 9.75 -16.4375 10.820312 -16.203125 11.625 -15.734375 C 12.113281 -16.453125 12.398438 -17.285156 12.484375 -18.234375 L 12.796875 -18.421875 L 15.703125 -17.703125 C 15.609375 -16.929688 15.378906 -16.285156 15.015625 -15.765625 C 14.660156 -15.242188 14.101562 -14.78125 13.34375 -14.375 L 13.34375 -14.046875 C 14.25 -13.242188 14.703125 -12.128906 14.703125 -10.703125 C 14.703125 -9.703125 14.453125 -8.804688 13.953125 -8.015625 C 13.460938 -7.234375 12.738281 -6.613281 11.78125 -6.15625 C 10.832031 -5.695312 9.707031 -5.46875 8.40625 -5.46875 L 7.796875 -5.484375 C 7.398438 -5.503906 7.125 -5.515625 6.96875 -5.515625 C 6.601562 -5.515625 6.3125 -5.410156 6.09375 -5.203125 C 5.882812 -5.003906 5.78125 -4.75 5.78125 -4.4375 C 5.78125 -4.101562 5.914062 -3.835938 6.1875 -3.640625 C 6.46875 -3.453125 6.867188 -3.347656 7.390625 -3.328125 L 11 -3.203125 C 14.570312 -3.097656 16.359375 -1.5625 16.359375 1.40625 C 16.359375 2.445312 16.09375 3.375 15.5625 4.1875 C 15.03125 5 14.171875 5.644531 12.984375 6.125 C 11.796875 6.601562 10.253906 6.84375 8.359375 6.84375 Z M 8.40625 -8.296875 C 9.1875 -8.296875 9.796875 -8.523438 10.234375 -8.984375 C 10.671875 -9.441406 10.890625 -10.097656 10.890625 -10.953125 C 10.890625 -11.796875 10.671875 -12.441406 10.234375 -12.890625 C 9.796875 -13.347656 9.1875 -13.578125 8.40625 -13.578125 C 7.613281 -13.578125 7.003906 -13.347656 6.578125 -12.890625 C 6.148438 -12.441406 5.9375 -11.796875 5.9375 -10.953125 C 5.9375 -10.085938 6.148438 -9.425781 6.578125 -8.96875 C 7.003906 -8.519531 7.613281 -8.296875 8.40625 -8.296875 Z M 8.359375 3.90625 C 9.742188 3.90625 10.75 3.707031 11.375 3.3125 C 12.007812 2.925781 12.328125 2.421875 12.328125 1.796875 C 12.328125 1.285156 12.164062 0.910156 11.84375 0.671875 C 11.519531 0.441406 11.007812 0.316406 10.3125 0.296875 L 7.125 0.140625 C 7.007812 0.140625 6.90625 0.132812 6.8125 0.125 C 6.726562 0.113281 6.640625 0.109375 6.546875 0.109375 C 5.867188 0.109375 5.347656 0.253906 4.984375 0.546875 C 4.628906 0.847656 4.453125 1.253906 4.453125 1.765625 C 4.453125 2.453125 4.78125 2.976562 5.4375 3.34375 C 6.09375 3.71875 7.066406 3.90625 8.359375 3.90625 Z M 8.359375 3.90625 "/></g></g><g transform="translate(521.136045, 49.795171)"><g><path d="M 4.34375 -18.046875 C 3.613281 -18.046875 3.019531 -18.269531 2.5625 -18.71875 C 2.101562 -19.164062 1.875 -19.738281 1.875 -20.4375 C 1.875 -21.125 2.101562 -21.6875 2.5625 -22.125 C 3.019531 -22.570312 3.613281 -22.796875 4.34375 -22.796875 C 4.832031 -22.796875 5.265625 -22.691406 5.640625 -22.484375 C 6.023438 -22.285156 6.320312 -22.007812 6.53125 -21.65625 C 6.738281 -21.300781 6.84375 -20.894531 6.84375 -20.4375 C 6.84375 -19.976562 6.738281 -19.566406 6.53125 -19.203125 C 6.320312 -18.847656 6.023438 -18.566406 5.640625 -18.359375 C 5.265625 -18.148438 4.832031 -18.046875 4.34375 -18.046875 Z M 2.328125 0 L 2.328125 -16.125 L 6.375 -16.125 L 6.375 0 Z M 2.328125 0 "/></g></g><g transform="translate(529.820674, 49.795171)"><g><path d="M 7.546875 0.3125 C 6.441406 0.3125 5.429688 0.179688 4.515625 -0.078125 C 3.597656 -0.335938 2.816406 -0.691406 2.171875 -1.140625 C 1.523438 -1.597656 1.046875 -2.117188 0.734375 -2.703125 L 2.984375 -5.125 L 3.28125 -5.125 C 3.820312 -4.40625 4.457031 -3.863281 5.1875 -3.5 C 5.914062 -3.144531 6.710938 -2.96875 7.578125 -2.96875 C 8.359375 -2.96875 8.945312 -3.109375 9.34375 -3.390625 C 9.75 -3.671875 9.953125 -4.078125 9.953125 -4.609375 C 9.953125 -5.015625 9.804688 -5.351562 9.515625 -5.625 C 9.234375 -5.90625 8.769531 -6.125 8.125 -6.28125 L 6 -6.796875 C 4.394531 -7.179688 3.222656 -7.765625 2.484375 -8.546875 C 1.753906 -9.328125 1.390625 -10.320312 1.390625 -11.53125 C 1.390625 -12.539062 1.644531 -13.414062 2.15625 -14.15625 C 2.664062 -14.894531 3.382812 -15.457031 4.3125 -15.84375 C 5.25 -16.238281 6.335938 -16.4375 7.578125 -16.4375 C 9.023438 -16.4375 10.222656 -16.222656 11.171875 -15.796875 C 12.128906 -15.378906 12.878906 -14.820312 13.421875 -14.125 L 11.25 -11.78125 L 10.96875 -11.78125 C 10.519531 -12.289062 10.015625 -12.660156 9.453125 -12.890625 C 8.890625 -13.128906 8.265625 -13.25 7.578125 -13.25 C 5.972656 -13.25 5.171875 -12.75 5.171875 -11.75 C 5.171875 -11.332031 5.316406 -10.988281 5.609375 -10.71875 C 5.910156 -10.457031 6.4375 -10.25 7.1875 -10.09375 L 9.1875 -9.640625 C 10.820312 -9.296875 12.015625 -8.734375 12.765625 -7.953125 C 13.523438 -7.179688 13.90625 -6.144531 13.90625 -4.84375 C 13.90625 -3.8125 13.648438 -2.90625 13.140625 -2.125 C 12.628906 -1.351562 11.894531 -0.753906 10.9375 -0.328125 C 9.988281 0.0976562 8.859375 0.3125 7.546875 0.3125 Z M 7.546875 0.3125 "/></g></g><g transform="translate(544.689812, 49.795171)"><g><path d="M 11.125 -3.84375 L 12.171875 -0.84375 C 11.734375 -0.488281 11.179688 -0.207031 10.515625 0 C 9.859375 0.207031 9.113281 0.3125 8.28125 0.3125 C 6.53125 0.3125 5.203125 -0.160156 4.296875 -1.109375 C 3.390625 -2.066406 2.9375 -3.453125 2.9375 -5.265625 L 2.9375 -12.921875 L 0.484375 -12.921875 L 0.484375 -16.140625 L 2.9375 -16.140625 L 2.9375 -19.28125 L 6.984375 -19.9375 L 6.984375 -16.140625 L 11.5625 -16.140625 L 11.5625 -12.921875 L 6.984375 -12.921875 L 6.984375 -5.5625 C 6.984375 -4.757812 7.148438 -4.175781 7.484375 -3.8125 C 7.816406 -3.445312 8.300781 -3.265625 8.9375 -3.265625 C 9.65625 -3.265625 10.28125 -3.457031 10.8125 -3.84375 Z M 11.125 -3.84375 "/></g></g><g transform="translate(557.219657, 49.795171)"><g><path d="M 2.328125 0 L 2.328125 -16.125 L 6.25 -16.125 L 6.25 -13.71875 L 6.5625 -13.671875 C 6.945312 -14.566406 7.457031 -15.222656 8.09375 -15.640625 C 8.726562 -16.054688 9.5 -16.265625 10.40625 -16.265625 C 11.320312 -16.265625 12.019531 -16.109375 12.5 -15.796875 L 11.8125 -12.3125 L 11.5 -12.25 C 11.238281 -12.351562 10.984375 -12.429688 10.734375 -12.484375 C 10.492188 -12.535156 10.203125 -12.5625 9.859375 -12.5625 C 8.722656 -12.5625 7.859375 -12.160156 7.265625 -11.359375 C 6.671875 -10.566406 6.375 -9.296875 6.375 -7.546875 L 6.375 0 Z M 2.328125 0 "/></g></g><g transform="translate(569.866465, 49.795171)"><g><path d="M 6.28125 0.3125 C 5.25 0.3125 4.351562 0.125 3.59375 -0.25 C 2.832031 -0.632812 2.25 -1.195312 1.84375 -1.9375 C 1.4375 -2.675781 1.234375 -3.5625 1.234375 -4.59375 C 1.234375 -5.539062 1.4375 -6.335938 1.84375 -6.984375 C 2.25 -7.640625 2.878906 -8.171875 3.734375 -8.578125 C 4.597656 -8.992188 5.722656 -9.316406 7.109375 -9.546875 C 8.066406 -9.703125 8.796875 -9.867188 9.296875 -10.046875 C 9.804688 -10.234375 10.144531 -10.441406 10.3125 -10.671875 C 10.488281 -10.910156 10.578125 -11.210938 10.578125 -11.578125 C 10.578125 -12.097656 10.394531 -12.492188 10.03125 -12.765625 C 9.675781 -13.035156 9.082031 -13.171875 8.25 -13.171875 C 7.351562 -13.171875 6.5 -12.96875 5.6875 -12.5625 C 4.875 -12.164062 4.171875 -11.644531 3.578125 -11 L 3.28125 -11 L 1.59375 -13.546875 C 2.414062 -14.453125 3.414062 -15.160156 4.59375 -15.671875 C 5.769531 -16.179688 7.054688 -16.4375 8.453125 -16.4375 C 10.585938 -16.4375 12.128906 -15.984375 13.078125 -15.078125 C 14.035156 -14.171875 14.515625 -12.882812 14.515625 -11.21875 L 14.515625 -4.203125 C 14.515625 -3.484375 14.832031 -3.125 15.46875 -3.125 C 15.707031 -3.125 15.945312 -3.171875 16.1875 -3.265625 L 16.390625 -3.203125 L 16.671875 -0.375 C 16.453125 -0.226562 16.140625 -0.109375 15.734375 -0.015625 C 15.335938 0.0664062 14.898438 0.109375 14.421875 0.109375 C 13.460938 0.109375 12.710938 -0.0703125 12.171875 -0.4375 C 11.628906 -0.8125 11.238281 -1.390625 11 -2.171875 L 10.703125 -2.203125 C 9.910156 -0.523438 8.4375 0.3125 6.28125 0.3125 Z M 7.578125 -2.71875 C 8.503906 -2.71875 9.25 -3.03125 9.8125 -3.65625 C 10.375 -4.289062 10.65625 -5.164062 10.65625 -6.28125 L 10.65625 -7.921875 L 10.375 -7.984375 C 10.132812 -7.785156 9.816406 -7.617188 9.421875 -7.484375 C 9.023438 -7.359375 8.457031 -7.234375 7.71875 -7.109375 C 6.84375 -6.960938 6.210938 -6.707031 5.828125 -6.34375 C 5.441406 -5.988281 5.25 -5.488281 5.25 -4.84375 C 5.25 -4.144531 5.453125 -3.613281 5.859375 -3.25 C 6.265625 -2.894531 6.835938 -2.71875 7.578125 -2.71875 Z M 7.578125 -2.71875 "/></g></g><g transform="translate(586.87021, 49.795171)"><g><path d="M 11.125 -3.84375 L 12.171875 -0.84375 C 11.734375 -0.488281 11.179688 -0.207031 10.515625 0 C 9.859375 0.207031 9.113281 0.3125 8.28125 0.3125 C 6.53125 0.3125 5.203125 -0.160156 4.296875 -1.109375 C 3.390625 -2.066406 2.9375 -3.453125 2.9375 -5.265625 L 2.9375 -12.921875 L 0.484375 -12.921875 L 0.484375 -16.140625 L 2.9375 -16.140625 L 2.9375 -19.28125 L 6.984375 -19.9375 L 6.984375 -16.140625 L 11.5625 -16.140625 L 11.5625 -12.921875 L 6.984375 -12.921875 L 6.984375 -5.5625 C 6.984375 -4.757812 7.148438 -4.175781 7.484375 -3.8125 C 7.816406 -3.445312 8.300781 -3.265625 8.9375 -3.265625 C 9.65625 -3.265625 10.28125 -3.457031 10.8125 -3.84375 Z M 11.125 -3.84375 "/></g></g><g transform="translate(599.400054, 49.795171)"><g><path d="M 4.34375 -18.046875 C 3.613281 -18.046875 3.019531 -18.269531 2.5625 -18.71875 C 2.101562 -19.164062 1.875 -19.738281 1.875 -20.4375 C 1.875 -21.125 2.101562 -21.6875 2.5625 -22.125 C 3.019531 -22.570312 3.613281 -22.796875 4.34375 -22.796875 C 4.832031 -22.796875 5.265625 -22.691406 5.640625 -22.484375 C 6.023438 -22.285156 6.320312 -22.007812 6.53125 -21.65625 C 6.738281 -21.300781 6.84375 -20.894531 6.84375 -20.4375 C 6.84375 -19.976562 6.738281 -19.566406 6.53125 -19.203125 C 6.320312 -18.847656 6.023438 -18.566406 5.640625 -18.359375 C 5.265625 -18.148438 4.832031 -18.046875 4.34375 -18.046875 Z M 2.328125 0 L 2.328125 -16.125 L 6.375 -16.125 L 6.375 0 Z M 2.328125 0 "/></g></g><g transform="translate(608.084683, 49.795171)"><g><path d="M 9.375 0.3125 C 7.789062 0.3125 6.398438 -0.0078125 5.203125 -0.65625 C 4.015625 -1.3125 3.09375 -2.265625 2.4375 -3.515625 C 1.78125 -4.765625 1.453125 -6.273438 1.453125 -8.046875 C 1.453125 -9.828125 1.78125 -11.34375 2.4375 -12.59375 C 3.09375 -13.851562 4.015625 -14.804688 5.203125 -15.453125 C 6.398438 -16.109375 7.789062 -16.4375 9.375 -16.4375 C 10.945312 -16.4375 12.328125 -16.109375 13.515625 -15.453125 C 14.710938 -14.804688 15.644531 -13.851562 16.3125 -12.59375 C 16.976562 -11.34375 17.3125 -9.828125 17.3125 -8.046875 C 17.3125 -6.273438 16.976562 -4.765625 16.3125 -3.515625 C 15.644531 -2.265625 14.710938 -1.3125 13.515625 -0.65625 C 12.328125 -0.0078125 10.945312 0.3125 9.375 0.3125 Z M 9.375 -3.125 C 11.875 -3.125 13.125 -4.765625 13.125 -8.046875 C 13.125 -9.753906 12.800781 -11.003906 12.15625 -11.796875 C 11.519531 -12.597656 10.59375 -13 9.375 -13 C 6.863281 -13 5.609375 -11.347656 5.609375 -8.046875 C 5.609375 -4.765625 6.863281 -3.125 9.375 -3.125 Z M 9.375 -3.125 "/></g></g><g transform="translate(626.828277, 49.795171)"><g><path d="M 2.328125 0 L 2.328125 -16.125 L 6.21875 -16.125 L 6.21875 -13.75 L 6.515625 -13.6875 C 7.523438 -15.519531 9.15625 -16.4375 11.40625 -16.4375 C 13.257812 -16.4375 14.625 -15.925781 15.5 -14.90625 C 16.375 -13.894531 16.8125 -12.421875 16.8125 -10.484375 L 16.8125 0 L 12.765625 0 L 12.765625 -9.984375 C 12.765625 -11.054688 12.546875 -11.828125 12.109375 -12.296875 C 11.679688 -12.773438 11 -13.015625 10.0625 -13.015625 C 8.894531 -13.015625 7.988281 -12.640625 7.34375 -11.890625 C 6.695312 -11.140625 6.375 -9.957031 6.375 -8.34375 L 6.375 0 Z M 2.328125 0 "/></g></g></g><path fill="#082a71" d="M 448.449219 339.125 C 474.769531 339.125 496.304688 317.570312 496.304688 291.226562 C 496.304688 264.882812 474.769531 243.328125 448.449219 243.328125 C 422.128906 243.328125 400.59375 264.882812 400.59375 291.226562 C 400.59375 317.570312 422.128906 339.125 448.449219 339.125 Z M 448.449219 257.015625 C 467.25 257.015625 482.628906 272.410156 482.628906 291.226562 C 482.628906 310.042969 467.25 325.4375 448.449219 325.4375 C 429.648438 325.4375 414.265625 310.042969 414.265625 291.226562 C 414.265625 272.410156 429.648438 257.015625 448.449219 257.015625 Z M 448.449219 257.015625 " fill-opacity="1" fill-rule="nonzero"/><path fill="#082a71" d="M 437.167969 302.859375 C 438.535156 304.226562 440.246094 304.910156 442.296875 304.910156 C 443.664062 304.910156 445.03125 304.570312 446.054688 303.886719 L 466.566406 290.199219 C 469.640625 288.148438 470.667969 283.699219 468.273438 280.621094 C 466.222656 277.542969 461.777344 276.515625 458.703125 278.910156 L 443.320312 289.515625 L 439.5625 285.410156 C 437.167969 282.671875 432.722656 282.332031 429.988281 285.070312 C 427.253906 287.464844 426.914062 291.910156 429.648438 294.648438 Z M 437.167969 302.859375 " fill-opacity="1" fill-rule="nonzero"/><g clip-path="url(#a6f45dcfab)"><path fill="#082a71" d="M 540.738281 510.183594 C 555.78125 510.183594 568.085938 497.867188 568.085938 482.816406 L 568.085938 99.636719 C 568.085938 84.585938 555.78125 72.269531 540.738281 72.269531 L 356.15625 72.269531 C 341.117188 72.269531 328.8125 84.585938 328.8125 99.636719 L 328.8125 482.816406 C 328.8125 497.867188 341.117188 510.183594 356.15625 510.183594 Z M 462.121094 482.816406 L 434.773438 482.816406 C 431.015625 482.816406 427.9375 479.734375 427.9375 475.972656 C 427.9375 472.210938 431.015625 469.128906 434.773438 469.128906 L 462.121094 469.128906 C 465.882812 469.128906 468.957031 472.210938 468.957031 475.972656 C 468.957031 479.734375 465.882812 482.816406 462.121094 482.816406 Z M 498.695312 85.953125 L 498.011719 92.113281 C 497.671875 96.21875 493.570312 99.636719 489.464844 99.636719 L 407.429688 99.636719 C 403.328125 99.636719 399.226562 96.21875 398.882812 92.113281 L 398.199219 85.953125 Z M 362.992188 283.359375 C 362.992188 276.859375 368.460938 271.382812 374.957031 271.382812 L 382.816406 271.382812 C 382.476562 271.382812 382.816406 271.382812 382.816406 271.042969 C 384.1875 266.9375 385.894531 262.488281 387.945312 258.726562 C 387.945312 258.726562 387.945312 258.382812 387.945312 258.382812 L 382.816406 253.25 C 378.03125 248.460938 378.03125 240.933594 382.816406 236.144531 L 393.757812 225.195312 C 396.148438 222.800781 398.882812 221.777344 402.300781 221.777344 C 405.378906 221.777344 408.453125 223.144531 410.847656 225.195312 L 416.316406 230.671875 C 420.417969 228.277344 424.519531 226.566406 428.964844 225.195312 C 428.964844 225.195312 429.304688 224.855469 429.304688 224.855469 L 429.304688 217.328125 C 429.304688 210.828125 434.773438 205.355469 441.269531 205.355469 L 456.652344 205.355469 C 463.144531 205.355469 468.617188 210.828125 468.617188 217.328125 L 468.617188 225.195312 C 468.617188 225.195312 468.617188 225.195312 468.957031 225.195312 C 473.058594 226.566406 477.503906 228.277344 481.261719 230.328125 L 481.605469 230.328125 L 486.730469 225.195312 C 489.125 222.800781 491.859375 221.777344 495.277344 221.777344 C 498.355469 221.777344 501.429688 223.144531 503.824219 225.195312 L 514.761719 236.144531 C 517.152344 238.539062 518.179688 241.277344 518.179688 244.699219 C 518.179688 247.777344 516.8125 250.855469 514.761719 253.25 L 509.292969 258.726562 C 509.292969 258.726562 509.292969 258.726562 509.292969 259.066406 C 511.34375 262.832031 513.050781 267.277344 514.417969 271.382812 C 514.417969 271.382812 514.761719 271.726562 514.761719 271.726562 L 522.28125 271.726562 C 528.777344 271.726562 534.246094 277.199219 534.246094 283.699219 L 534.246094 299.09375 C 534.246094 305.597656 528.777344 311.070312 522.28125 311.070312 L 514.417969 311.070312 C 514.761719 311.070312 514.417969 311.070312 514.417969 311.410156 C 513.050781 315.515625 511.34375 319.621094 509.292969 323.726562 C 509.292969 323.726562 509.292969 324.070312 509.292969 324.070312 L 514.417969 329.203125 C 516.8125 331.597656 517.835938 334.335938 517.835938 337.753906 C 517.835938 340.835938 516.46875 343.914062 514.417969 346.308594 L 503.480469 357.257812 C 501.089844 359.652344 498.355469 360.675781 494.9375 360.675781 C 491.859375 360.675781 488.78125 359.308594 486.390625 357.257812 L 480.921875 351.78125 C 476.820312 354.175781 472.71875 355.886719 468.273438 357.257812 C 468.273438 357.257812 467.933594 357.597656 467.933594 357.597656 L 467.933594 365.125 C 467.933594 371.625 462.460938 377.097656 455.96875 377.097656 L 440.585938 377.097656 C 434.089844 377.097656 428.621094 371.625 428.621094 365.125 L 428.621094 357.257812 C 428.621094 357.257812 428.621094 357.257812 428.28125 357.257812 C 424.179688 355.886719 419.734375 354.175781 415.976562 352.125 L 415.632812 352.125 L 410.507812 357.257812 C 408.113281 359.652344 405.378906 360.675781 401.960938 360.675781 C 398.882812 360.675781 395.808594 359.308594 393.414062 357.257812 L 382.476562 346.308594 C 377.691406 341.519531 377.691406 333.992188 382.476562 329.203125 L 387.945312 323.726562 C 387.945312 323.726562 387.945312 323.726562 387.945312 323.386719 C 385.894531 319.621094 384.1875 315.175781 382.816406 311.070312 C 382.816406 311.070312 382.476562 310.726562 382.476562 310.726562 L 374.957031 310.726562 C 368.460938 310.726562 362.992188 305.253906 362.992188 298.753906 Z M 362.992188 283.359375 " fill-opacity="1" fill-rule="nonzero"/></g></svg>