<svg xmlns="http://www.w3.org/2000/svg" xmlns:xlink="http://www.w3.org/1999/xlink" width="1200" zoomAndPan="magnify" viewBox="0 0 900 525.000007" height="700" preserveAspectRatio="xMidYMid meet" version="1.0"><defs><g/><clipPath id="385255406b"><path d="M 183.160156 20.601562 L 752.078125 20.601562 L 752.078125 510.167969 L 183.160156 510.167969 Z M 183.160156 20.601562 " clip-rule="nonzero"/></clipPath><clipPath id="196aadfeb3"><path d="M 237.460938 69 L 664.894531 69 L 664.894531 510.511719 L 237.460938 510.511719 Z M 237.460938 69 " clip-rule="nonzero"/></clipPath></defs><g clip-path="url(#385255406b)"><path stroke-linecap="butt" transform="matrix(0.748097, 0, 0, 0.748556, 183.162052, 20.60213)" fill="none" stroke-linejoin="miter" d="M -0.00253354 -0.000758636 L 760.484002 -0.000758636 L 760.484002 654.013424 L -0.00253354 654.013424 L -0.00253354 -0.000758636 " stroke="#ffffff" stroke-width="8" stroke-opacity="1" stroke-miterlimit="4"/></g><g fill="#082a71" fill-opacity="1"><g transform="translate(297.473895, 45.663041)"><g><path d="M 20.515625 0 L 16.0625 0 L 14.453125 -4.921875 L 6.265625 -4.921875 L 4.65625 0 L 0.328125 0 L 7.703125 -21.375 L 13.125 -21.375 Z M 10.15625 -16.90625 L 7.40625 -8.484375 L 13.28125 -8.484375 L 10.53125 -16.90625 Z M 10.15625 -16.90625 "/></g></g><g transform="translate(318.308233, 45.663041)"><g><path d="M 2.328125 6.53125 L 2.328125 -16.125 L 6.375 -16.125 L 6.375 -14.015625 L 6.6875 -13.953125 C 7.15625 -14.773438 7.789062 -15.394531 8.59375 -15.8125 C 9.394531 -16.226562 10.332031 -16.4375 11.40625 -16.4375 C 12.695312 -16.4375 13.828125 -16.128906 14.796875 -15.515625 C 15.765625 -14.898438 16.519531 -13.960938 17.0625 -12.703125 C 17.601562 -11.453125 17.875 -9.898438 17.875 -8.046875 C 17.875 -6.210938 17.585938 -4.671875 17.015625 -3.421875 C 16.453125 -2.171875 15.660156 -1.234375 14.640625 -0.609375 C 13.628906 0.00390625 12.460938 0.3125 11.140625 0.3125 C 10.140625 0.3125 9.269531 0.144531 8.53125 -0.1875 C 7.800781 -0.53125 7.1875 -1.054688 6.6875 -1.765625 L 6.375 -1.703125 L 6.375 6.53125 Z M 10.015625 -3.125 C 11.222656 -3.125 12.140625 -3.519531 12.765625 -4.3125 C 13.390625 -5.101562 13.703125 -6.347656 13.703125 -8.046875 C 13.703125 -9.753906 13.390625 -11.003906 12.765625 -11.796875 C 12.140625 -12.597656 11.222656 -13 10.015625 -13 C 8.878906 -13 7.976562 -12.585938 7.3125 -11.765625 C 6.65625 -10.953125 6.328125 -9.710938 6.328125 -8.046875 C 6.328125 -6.398438 6.65625 -5.164062 7.3125 -4.34375 C 7.976562 -3.53125 8.878906 -3.125 10.015625 -3.125 Z M 10.015625 -3.125 "/></g></g><g transform="translate(337.62203, 45.663041)"><g><path d="M 2.328125 6.53125 L 2.328125 -16.125 L 6.375 -16.125 L 6.375 -14.015625 L 6.6875 -13.953125 C 7.15625 -14.773438 7.789062 -15.394531 8.59375 -15.8125 C 9.394531 -16.226562 10.332031 -16.4375 11.40625 -16.4375 C 12.695312 -16.4375 13.828125 -16.128906 14.796875 -15.515625 C 15.765625 -14.898438 16.519531 -13.960938 17.0625 -12.703125 C 17.601562 -11.453125 17.875 -9.898438 17.875 -8.046875 C 17.875 -6.210938 17.585938 -4.671875 17.015625 -3.421875 C 16.453125 -2.171875 15.660156 -1.234375 14.640625 -0.609375 C 13.628906 0.00390625 12.460938 0.3125 11.140625 0.3125 C 10.140625 0.3125 9.269531 0.144531 8.53125 -0.1875 C 7.800781 -0.53125 7.1875 -1.054688 6.6875 -1.765625 L 6.375 -1.703125 L 6.375 6.53125 Z M 10.015625 -3.125 C 11.222656 -3.125 12.140625 -3.519531 12.765625 -4.3125 C 13.390625 -5.101562 13.703125 -6.347656 13.703125 -8.046875 C 13.703125 -9.753906 13.390625 -11.003906 12.765625 -11.796875 C 12.140625 -12.597656 11.222656 -13 10.015625 -13 C 8.878906 -13 7.976562 -12.585938 7.3125 -11.765625 C 6.65625 -10.953125 6.328125 -9.710938 6.328125 -8.046875 C 6.328125 -6.398438 6.65625 -5.164062 7.3125 -4.34375 C 7.976562 -3.53125 8.878906 -3.125 10.015625 -3.125 Z M 10.015625 -3.125 "/></g></g><g transform="translate(356.935827, 45.663041)"><g><path d="M 6.6875 0.3125 C 5.238281 0.3125 4.128906 -0.078125 3.359375 -0.859375 C 2.597656 -1.648438 2.21875 -2.84375 2.21875 -4.4375 L 2.21875 -22.59375 L 6.265625 -22.59375 L 6.265625 -4.609375 C 6.265625 -3.617188 6.675781 -3.125 7.5 -3.125 C 7.726562 -3.125 7.976562 -3.164062 8.25 -3.25 L 8.453125 -3.1875 L 8.8125 -0.078125 C 8.59375 0.046875 8.296875 0.140625 7.921875 0.203125 C 7.554688 0.273438 7.144531 0.3125 6.6875 0.3125 Z M 6.6875 0.3125 "/></g></g><g transform="translate(366.20528, 45.663041)"><g><path d="M 4.34375 -18.046875 C 3.613281 -18.046875 3.019531 -18.269531 2.5625 -18.71875 C 2.101562 -19.164062 1.875 -19.738281 1.875 -20.4375 C 1.875 -21.125 2.101562 -21.6875 2.5625 -22.125 C 3.019531 -22.570312 3.613281 -22.796875 4.34375 -22.796875 C 4.832031 -22.796875 5.265625 -22.691406 5.640625 -22.484375 C 6.023438 -22.285156 6.320312 -22.007812 6.53125 -21.65625 C 6.738281 -21.300781 6.84375 -20.894531 6.84375 -20.4375 C 6.84375 -19.976562 6.738281 -19.566406 6.53125 -19.203125 C 6.320312 -18.847656 6.023438 -18.566406 5.640625 -18.359375 C 5.265625 -18.148438 4.832031 -18.046875 4.34375 -18.046875 Z M 2.328125 0 L 2.328125 -16.125 L 6.375 -16.125 L 6.375 0 Z M 2.328125 0 "/></g></g><g transform="translate(374.88991, 45.663041)"><g><path d="M 9.40625 0.3125 C 7.84375 0.3125 6.460938 -0.0078125 5.265625 -0.65625 C 4.066406 -1.3125 3.128906 -2.265625 2.453125 -3.515625 C 1.785156 -4.773438 1.453125 -6.285156 1.453125 -8.046875 C 1.453125 -9.828125 1.785156 -11.34375 2.453125 -12.59375 C 3.128906 -13.851562 4.0625 -14.804688 5.25 -15.453125 C 6.4375 -16.109375 7.796875 -16.4375 9.328125 -16.4375 C 12.722656 -16.4375 14.898438 -15.203125 15.859375 -12.734375 L 13.078125 -10.75 L 12.78125 -10.75 C 12.445312 -11.507812 12.015625 -12.070312 11.484375 -12.4375 C 10.953125 -12.8125 10.234375 -13 9.328125 -13 C 8.160156 -13 7.25 -12.59375 6.59375 -11.78125 C 5.9375 -10.96875 5.609375 -9.722656 5.609375 -8.046875 C 5.609375 -6.390625 5.9375 -5.15625 6.59375 -4.34375 C 7.257812 -3.53125 8.195312 -3.125 9.40625 -3.125 C 10.28125 -3.125 11.019531 -3.359375 11.625 -3.828125 C 12.238281 -4.304688 12.675781 -4.988281 12.9375 -5.875 L 13.25 -5.90625 L 16.125 -4.328125 C 15.71875 -2.960938 14.957031 -1.847656 13.84375 -0.984375 C 12.738281 -0.117188 11.257812 0.3125 9.40625 0.3125 Z M 9.40625 0.3125 "/></g></g><g transform="translate(391.513519, 45.663041)"><g><path d="M 6.28125 0.3125 C 5.25 0.3125 4.351562 0.125 3.59375 -0.25 C 2.832031 -0.632812 2.25 -1.195312 1.84375 -1.9375 C 1.4375 -2.675781 1.234375 -3.5625 1.234375 -4.59375 C 1.234375 -5.539062 1.4375 -6.335938 1.84375 -6.984375 C 2.25 -7.640625 2.878906 -8.171875 3.734375 -8.578125 C 4.597656 -8.992188 5.722656 -9.316406 7.109375 -9.546875 C 8.066406 -9.703125 8.796875 -9.867188 9.296875 -10.046875 C 9.804688 -10.234375 10.144531 -10.441406 10.3125 -10.671875 C 10.488281 -10.910156 10.578125 -11.210938 10.578125 -11.578125 C 10.578125 -12.097656 10.394531 -12.492188 10.03125 -12.765625 C 9.675781 -13.035156 9.082031 -13.171875 8.25 -13.171875 C 7.351562 -13.171875 6.5 -12.96875 5.6875 -12.5625 C 4.875 -12.164062 4.171875 -11.644531 3.578125 -11 L 3.28125 -11 L 1.59375 -13.546875 C 2.414062 -14.453125 3.414062 -15.160156 4.59375 -15.671875 C 5.769531 -16.179688 7.054688 -16.4375 8.453125 -16.4375 C 10.585938 -16.4375 12.128906 -15.984375 13.078125 -15.078125 C 14.035156 -14.171875 14.515625 -12.882812 14.515625 -11.21875 L 14.515625 -4.203125 C 14.515625 -3.484375 14.832031 -3.125 15.46875 -3.125 C 15.707031 -3.125 15.945312 -3.171875 16.1875 -3.265625 L 16.390625 -3.203125 L 16.671875 -0.375 C 16.453125 -0.226562 16.140625 -0.109375 15.734375 -0.015625 C 15.335938 0.0664062 14.898438 0.109375 14.421875 0.109375 C 13.460938 0.109375 12.710938 -0.0703125 12.171875 -0.4375 C 11.628906 -0.8125 11.238281 -1.390625 11 -2.171875 L 10.703125 -2.203125 C 9.910156 -0.523438 8.4375 0.3125 6.28125 0.3125 Z M 7.578125 -2.71875 C 8.503906 -2.71875 9.25 -3.03125 9.8125 -3.65625 C 10.375 -4.289062 10.65625 -5.164062 10.65625 -6.28125 L 10.65625 -7.921875 L 10.375 -7.984375 C 10.132812 -7.785156 9.816406 -7.617188 9.421875 -7.484375 C 9.023438 -7.359375 8.457031 -7.234375 7.71875 -7.109375 C 6.84375 -6.960938 6.210938 -6.707031 5.828125 -6.34375 C 5.441406 -5.988281 5.25 -5.488281 5.25 -4.84375 C 5.25 -4.144531 5.453125 -3.613281 5.859375 -3.25 C 6.265625 -2.894531 6.835938 -2.71875 7.578125 -2.71875 Z M 7.578125 -2.71875 "/></g></g><g transform="translate(408.517263, 45.663041)"><g><path d="M 11.125 -3.84375 L 12.171875 -0.84375 C 11.734375 -0.488281 11.179688 -0.207031 10.515625 0 C 9.859375 0.207031 9.113281 0.3125 8.28125 0.3125 C 6.53125 0.3125 5.203125 -0.160156 4.296875 -1.109375 C 3.390625 -2.066406 2.9375 -3.453125 2.9375 -5.265625 L 2.9375 -12.921875 L 0.484375 -12.921875 L 0.484375 -16.140625 L 2.9375 -16.140625 L 2.9375 -19.28125 L 6.984375 -19.9375 L 6.984375 -16.140625 L 11.5625 -16.140625 L 11.5625 -12.921875 L 6.984375 -12.921875 L 6.984375 -5.5625 C 6.984375 -4.757812 7.148438 -4.175781 7.484375 -3.8125 C 7.816406 -3.445312 8.300781 -3.265625 8.9375 -3.265625 C 9.65625 -3.265625 10.28125 -3.457031 10.8125 -3.84375 Z M 11.125 -3.84375 "/></g></g><g transform="translate(421.047107, 45.663041)"><g><path d="M 4.34375 -18.046875 C 3.613281 -18.046875 3.019531 -18.269531 2.5625 -18.71875 C 2.101562 -19.164062 1.875 -19.738281 1.875 -20.4375 C 1.875 -21.125 2.101562 -21.6875 2.5625 -22.125 C 3.019531 -22.570312 3.613281 -22.796875 4.34375 -22.796875 C 4.832031 -22.796875 5.265625 -22.691406 5.640625 -22.484375 C 6.023438 -22.285156 6.320312 -22.007812 6.53125 -21.65625 C 6.738281 -21.300781 6.84375 -20.894531 6.84375 -20.4375 C 6.84375 -19.976562 6.738281 -19.566406 6.53125 -19.203125 C 6.320312 -18.847656 6.023438 -18.566406 5.640625 -18.359375 C 5.265625 -18.148438 4.832031 -18.046875 4.34375 -18.046875 Z M 2.328125 0 L 2.328125 -16.125 L 6.375 -16.125 L 6.375 0 Z M 2.328125 0 "/></g></g><g transform="translate(429.731736, 45.663041)"><g><path d="M 9.375 0.3125 C 7.789062 0.3125 6.398438 -0.0078125 5.203125 -0.65625 C 4.015625 -1.3125 3.09375 -2.265625 2.4375 -3.515625 C 1.78125 -4.765625 1.453125 -6.273438 1.453125 -8.046875 C 1.453125 -9.828125 1.78125 -11.34375 2.4375 -12.59375 C 3.09375 -13.851562 4.015625 -14.804688 5.203125 -15.453125 C 6.398438 -16.109375 7.789062 -16.4375 9.375 -16.4375 C 10.945312 -16.4375 12.328125 -16.109375 13.515625 -15.453125 C 14.710938 -14.804688 15.644531 -13.851562 16.3125 -12.59375 C 16.976562 -11.34375 17.3125 -9.828125 17.3125 -8.046875 C 17.3125 -6.273438 16.976562 -4.765625 16.3125 -3.515625 C 15.644531 -2.265625 14.710938 -1.3125 13.515625 -0.65625 C 12.328125 -0.0078125 10.945312 0.3125 9.375 0.3125 Z M 9.375 -3.125 C 11.875 -3.125 13.125 -4.765625 13.125 -8.046875 C 13.125 -9.753906 12.800781 -11.003906 12.15625 -11.796875 C 11.519531 -12.597656 10.59375 -13 9.375 -13 C 6.863281 -13 5.609375 -11.347656 5.609375 -8.046875 C 5.609375 -4.765625 6.863281 -3.125 9.375 -3.125 Z M 9.375 -3.125 "/></g></g><g transform="translate(448.47533, 45.663041)"><g><path d="M 2.328125 0 L 2.328125 -16.125 L 6.21875 -16.125 L 6.21875 -13.75 L 6.515625 -13.6875 C 7.523438 -15.519531 9.15625 -16.4375 11.40625 -16.4375 C 13.257812 -16.4375 14.625 -15.925781 15.5 -14.90625 C 16.375 -13.894531 16.8125 -12.421875 16.8125 -10.484375 L 16.8125 0 L 12.765625 0 L 12.765625 -9.984375 C 12.765625 -11.054688 12.546875 -11.828125 12.109375 -12.296875 C 11.679688 -12.773438 11 -13.015625 10.0625 -13.015625 C 8.894531 -13.015625 7.988281 -12.640625 7.34375 -11.890625 C 6.695312 -11.140625 6.375 -9.957031 6.375 -8.34375 L 6.375 0 Z M 2.328125 0 "/></g></g><g transform="translate(467.365131, 45.663041)"><g/></g><g transform="translate(474.426875, 45.663041)"><g><path d="M 11.03125 -21.375 C 12.5625 -21.375 13.867188 -21.09375 14.953125 -20.53125 C 16.046875 -19.96875 16.867188 -19.179688 17.421875 -18.171875 C 17.972656 -17.171875 18.25 -16 18.25 -14.65625 C 18.25 -13.320312 17.972656 -12.148438 17.421875 -11.140625 C 16.867188 -10.140625 16.046875 -9.359375 14.953125 -8.796875 C 13.867188 -8.242188 12.5625 -7.96875 11.03125 -7.96875 L 7 -7.96875 L 7 0 L 2.78125 0 L 2.78125 -21.375 Z M 10.484375 -11.3125 C 12.828125 -11.3125 14 -12.425781 14 -14.65625 C 14 -16.90625 12.828125 -18.03125 10.484375 -18.03125 L 7 -18.03125 L 7 -11.3125 Z M 10.484375 -11.3125 "/></g></g><g transform="translate(493.959981, 45.663041)"><g><path d="M 6.28125 0.3125 C 5.25 0.3125 4.351562 0.125 3.59375 -0.25 C 2.832031 -0.632812 2.25 -1.195312 1.84375 -1.9375 C 1.4375 -2.675781 1.234375 -3.5625 1.234375 -4.59375 C 1.234375 -5.539062 1.4375 -6.335938 1.84375 -6.984375 C 2.25 -7.640625 2.878906 -8.171875 3.734375 -8.578125 C 4.597656 -8.992188 5.722656 -9.316406 7.109375 -9.546875 C 8.066406 -9.703125 8.796875 -9.867188 9.296875 -10.046875 C 9.804688 -10.234375 10.144531 -10.441406 10.3125 -10.671875 C 10.488281 -10.910156 10.578125 -11.210938 10.578125 -11.578125 C 10.578125 -12.097656 10.394531 -12.492188 10.03125 -12.765625 C 9.675781 -13.035156 9.082031 -13.171875 8.25 -13.171875 C 7.351562 -13.171875 6.5 -12.96875 5.6875 -12.5625 C 4.875 -12.164062 4.171875 -11.644531 3.578125 -11 L 3.28125 -11 L 1.59375 -13.546875 C 2.414062 -14.453125 3.414062 -15.160156 4.59375 -15.671875 C 5.769531 -16.179688 7.054688 -16.4375 8.453125 -16.4375 C 10.585938 -16.4375 12.128906 -15.984375 13.078125 -15.078125 C 14.035156 -14.171875 14.515625 -12.882812 14.515625 -11.21875 L 14.515625 -4.203125 C 14.515625 -3.484375 14.832031 -3.125 15.46875 -3.125 C 15.707031 -3.125 15.945312 -3.171875 16.1875 -3.265625 L 16.390625 -3.203125 L 16.671875 -0.375 C 16.453125 -0.226562 16.140625 -0.109375 15.734375 -0.015625 C 15.335938 0.0664062 14.898438 0.109375 14.421875 0.109375 C 13.460938 0.109375 12.710938 -0.0703125 12.171875 -0.4375 C 11.628906 -0.8125 11.238281 -1.390625 11 -2.171875 L 10.703125 -2.203125 C 9.910156 -0.523438 8.4375 0.3125 6.28125 0.3125 Z M 7.578125 -2.71875 C 8.503906 -2.71875 9.25 -3.03125 9.8125 -3.65625 C 10.375 -4.289062 10.65625 -5.164062 10.65625 -6.28125 L 10.65625 -7.921875 L 10.375 -7.984375 C 10.132812 -7.785156 9.816406 -7.617188 9.421875 -7.484375 C 9.023438 -7.359375 8.457031 -7.234375 7.71875 -7.109375 C 6.84375 -6.960938 6.210938 -6.707031 5.828125 -6.34375 C 5.441406 -5.988281 5.25 -5.488281 5.25 -4.84375 C 5.25 -4.144531 5.453125 -3.613281 5.859375 -3.25 C 6.265625 -2.894531 6.835938 -2.71875 7.578125 -2.71875 Z M 7.578125 -2.71875 "/></g></g><g transform="translate(510.963725, 45.663041)"><g><path d="M 3.5625 6.84375 C 2.875 6.84375 2.25 6.785156 1.6875 6.671875 C 1.125 6.566406 0.671875 6.425781 0.328125 6.25 L 0.96875 2.984375 L 1.234375 2.890625 C 1.472656 3.015625 1.769531 3.113281 2.125 3.1875 C 2.488281 3.269531 2.863281 3.3125 3.25 3.3125 C 3.894531 3.3125 4.4375 3.226562 4.875 3.0625 C 5.3125 2.894531 5.679688 2.613281 5.984375 2.21875 C 6.285156 1.820312 6.550781 1.269531 6.78125 0.5625 L 0.34375 -16.125 L 4.59375 -16.125 L 8.59375 -4.90625 L 8.953125 -4.90625 L 12.84375 -16.125 L 16.96875 -16.125 L 10.5 1.015625 C 9.976562 2.390625 9.40625 3.5 8.78125 4.34375 C 8.164062 5.1875 7.4375 5.8125 6.59375 6.21875 C 5.75 6.632812 4.738281 6.84375 3.5625 6.84375 Z M 3.5625 6.84375 "/></g></g><g transform="translate(528.274502, 45.663041)"><g><path d="M 2.328125 0 L 2.328125 -16.125 L 6.21875 -16.125 L 6.21875 -13.953125 L 6.515625 -13.90625 C 7.046875 -14.769531 7.660156 -15.40625 8.359375 -15.8125 C 9.066406 -16.226562 9.972656 -16.4375 11.078125 -16.4375 C 12.296875 -16.4375 13.273438 -16.191406 14.015625 -15.703125 C 14.753906 -15.222656 15.296875 -14.519531 15.640625 -13.59375 L 15.953125 -13.59375 C 16.441406 -14.5625 17.078125 -15.273438 17.859375 -15.734375 C 18.648438 -16.203125 19.628906 -16.4375 20.796875 -16.4375 C 24.140625 -16.4375 25.8125 -14.570312 25.8125 -10.84375 L 25.8125 0 L 21.765625 0 L 21.765625 -10.328125 C 21.765625 -11.273438 21.578125 -11.957031 21.203125 -12.375 C 20.835938 -12.800781 20.242188 -13.015625 19.421875 -13.015625 C 17.203125 -13.015625 16.09375 -11.523438 16.09375 -8.546875 L 16.09375 0 L 12.046875 0 L 12.046875 -10.328125 C 12.046875 -11.273438 11.859375 -11.957031 11.484375 -12.375 C 11.109375 -12.800781 10.507812 -13.015625 9.6875 -13.015625 C 8.644531 -13.015625 7.832031 -12.664062 7.25 -11.96875 C 6.664062 -11.269531 6.375 -10.160156 6.375 -8.640625 L 6.375 0 Z M 2.328125 0 "/></g></g><g transform="translate(556.170584, 45.663041)"><g><path d="M 15.9375 -7.140625 L 5.5625 -7.140625 C 5.6875 -5.742188 6.085938 -4.722656 6.765625 -4.078125 C 7.453125 -3.441406 8.382812 -3.125 9.5625 -3.125 C 10.488281 -3.125 11.238281 -3.296875 11.8125 -3.640625 C 12.382812 -3.992188 12.847656 -4.519531 13.203125 -5.21875 L 13.5 -5.21875 L 16.203125 -3.5 C 15.671875 -2.363281 14.875 -1.441406 13.8125 -0.734375 C 12.75 -0.0351562 11.332031 0.3125 9.5625 0.3125 C 7.894531 0.3125 6.453125 -0.00390625 5.234375 -0.640625 C 4.023438 -1.273438 3.09375 -2.21875 2.4375 -3.46875 C 1.78125 -4.71875 1.453125 -6.242188 1.453125 -8.046875 C 1.453125 -9.878906 1.796875 -11.425781 2.484375 -12.6875 C 3.171875 -13.945312 4.101562 -14.882812 5.28125 -15.5 C 6.46875 -16.125 7.796875 -16.4375 9.265625 -16.4375 C 11.546875 -16.4375 13.289062 -15.832031 14.5 -14.625 C 15.71875 -13.414062 16.328125 -11.640625 16.328125 -9.296875 C 16.328125 -8.453125 16.296875 -7.796875 16.234375 -7.328125 Z M 12.453125 -9.765625 C 12.410156 -10.992188 12.125 -11.882812 11.59375 -12.4375 C 11.0625 -13 10.285156 -13.28125 9.265625 -13.28125 C 7.222656 -13.28125 6.019531 -12.109375 5.65625 -9.765625 Z M 12.453125 -9.765625 "/></g></g><g transform="translate(573.70067, 45.663041)"><g><path d="M 2.328125 0 L 2.328125 -16.125 L 6.21875 -16.125 L 6.21875 -13.75 L 6.515625 -13.6875 C 7.523438 -15.519531 9.15625 -16.4375 11.40625 -16.4375 C 13.257812 -16.4375 14.625 -15.925781 15.5 -14.90625 C 16.375 -13.894531 16.8125 -12.421875 16.8125 -10.484375 L 16.8125 0 L 12.765625 0 L 12.765625 -9.984375 C 12.765625 -11.054688 12.546875 -11.828125 12.109375 -12.296875 C 11.679688 -12.773438 11 -13.015625 10.0625 -13.015625 C 8.894531 -13.015625 7.988281 -12.640625 7.34375 -11.890625 C 6.695312 -11.140625 6.375 -9.957031 6.375 -8.34375 L 6.375 0 Z M 2.328125 0 "/></g></g><g transform="translate(592.59047, 45.663041)"><g><path d="M 11.125 -3.84375 L 12.171875 -0.84375 C 11.734375 -0.488281 11.179688 -0.207031 10.515625 0 C 9.859375 0.207031 9.113281 0.3125 8.28125 0.3125 C 6.53125 0.3125 5.203125 -0.160156 4.296875 -1.109375 C 3.390625 -2.066406 2.9375 -3.453125 2.9375 -5.265625 L 2.9375 -12.921875 L 0.484375 -12.921875 L 0.484375 -16.140625 L 2.9375 -16.140625 L 2.9375 -19.28125 L 6.984375 -19.9375 L 6.984375 -16.140625 L 11.5625 -16.140625 L 11.5625 -12.921875 L 6.984375 -12.921875 L 6.984375 -5.5625 C 6.984375 -4.757812 7.148438 -4.175781 7.484375 -3.8125 C 7.816406 -3.445312 8.300781 -3.265625 8.9375 -3.265625 C 9.65625 -3.265625 10.28125 -3.457031 10.8125 -3.84375 Z M 11.125 -3.84375 "/></g></g></g><path fill="#082a71" d="M 617.003906 349.714844 C 617.003906 348.785156 616.636719 347.894531 615.980469 347.238281 L 401.042969 132.257812 C 399.675781 130.894531 397.464844 130.894531 396.097656 132.257812 C 392.5625 135.800781 387.859375 137.746094 382.847656 137.746094 C 377.839844 137.746094 373.136719 135.796875 369.597656 132.257812 C 368.230469 130.890625 366.019531 130.894531 364.652344 132.257812 L 283.402344 213.515625 C 282.746094 214.175781 282.378906 215.0625 282.378906 215.992188 C 282.378906 216.921875 282.746094 217.8125 283.402344 218.472656 C 289.890625 224.96875 290.734375 235.105469 285.410156 242.574219 C 284.414062 243.96875 284.574219 245.878906 285.777344 247.089844 L 463.042969 424.414062 C 463.042969 424.417969 463.042969 424.417969 463.046875 424.417969 L 501.175781 462.527344 C 502.382812 463.734375 504.28125 463.886719 505.660156 462.902344 C 513.160156 457.601562 523.300781 458.445312 529.785156 464.90625 C 530.464844 465.585938 531.359375 465.925781 532.25 465.925781 C 533.148438 465.925781 534.042969 465.582031 534.722656 464.902344 L 615.976562 383.652344 C 616.632812 382.992188 617 382.101562 617 381.171875 C 617 380.242188 616.632812 379.347656 615.976562 378.695312 C 608.679688 371.386719 608.679688 359.5 615.976562 352.195312 C 616.636719 351.535156 617.003906 350.644531 617.003906 349.714844 Z M 510.632812 303.792969 C 510.632812 318.785156 504.796875 332.871094 494.214844 343.453125 C 494.210938 343.457031 494.210938 343.457031 494.207031 343.460938 C 483.640625 354.058594 469.570312 359.898438 454.601562 359.898438 C 439.632812 359.898438 425.554688 354.058594 414.96875 343.457031 C 393.136719 321.597656 393.136719 286 414.96875 264.109375 C 425.898438 253.171875 440.253906 247.710938 454.601562 247.710938 C 468.949219 247.710938 483.296875 253.175781 494.210938 264.105469 C 504.796875 274.710938 510.632812 288.804688 510.632812 303.792969 Z M 510.632812 303.792969 " fill-opacity="1" fill-rule="nonzero"/><g clip-path="url(#196aadfeb3)"><path fill="#082a71" d="M 664.082031 132.792969 C 663.625 131.988281 662.859375 131.394531 661.96875 131.148438 L 504.320312 87.746094 L 499.621094 71.722656 C 499.078125 69.871094 497.140625 68.800781 495.28125 69.347656 L 398.140625 97.867188 L 385.335938 85.046875 C 383.96875 83.675781 381.757812 83.675781 380.390625 85.046875 L 354.945312 110.527344 L 313.605469 122.652344 C 312.714844 122.910156 311.964844 123.515625 311.519531 124.332031 C 311.074219 125.144531 310.972656 126.105469 311.230469 127 L 317.398438 148.050781 L 238.839844 226.644531 C 238.183594 227.308594 237.8125 228.199219 237.8125 229.128906 C 237.8125 230.0625 238.183594 230.949219 238.839844 231.609375 L 384.664062 377.464844 L 402.242188 437.421875 C 402.242188 437.425781 402.246094 437.429688 402.25 437.4375 L 415.855469 483.734375 C 416.304688 485.261719 417.695312 486.246094 419.210938 486.246094 C 419.535156 486.246094 419.867188 486.203125 420.199219 486.109375 L 476.679688 469.5 L 516.664062 509.492188 C 517.347656 510.175781 518.242188 510.519531 519.136719 510.519531 C 520.035156 510.519531 520.929688 510.175781 521.609375 509.496094 L 663.167969 367.929688 C 663.828125 367.269531 664.195312 366.378906 664.195312 365.449219 C 664.195312 364.515625 663.828125 363.625 663.167969 362.96875 L 615.050781 314.835938 L 664.414062 135.460938 C 664.660156 134.558594 664.542969 133.605469 664.082031 132.792969 Z M 493.890625 77.054688 L 542.257812 242.011719 L 521.578125 221.324219 L 491.257812 118.019531 C 490.714844 116.167969 488.78125 115.109375 486.925781 115.648438 C 482.425781 116.964844 477.695312 116.449219 473.582031 114.203125 C 469.464844 111.957031 466.480469 108.253906 465.171875 103.769531 C 464.914062 102.878906 464.308594 102.128906 463.492188 101.679688 C 462.675781 101.230469 461.710938 101.125 460.832031 101.390625 L 415.082031 114.828125 L 403.777344 103.511719 Z M 318.929688 128.390625 L 344.574219 120.867188 L 323.039062 142.414062 Z M 421.574219 478.390625 L 408.960938 435.460938 C 408.960938 435.457031 408.960938 435.457031 408.960938 435.453125 L 394.980469 387.777344 L 471.035156 463.847656 Z M 519.136719 502.0625 L 246.261719 229.128906 L 359.148438 116.191406 C 359.175781 116.164062 359.214844 116.15625 359.246094 116.128906 L 382.867188 92.476562 L 411.59375 121.242188 C 411.625 121.273438 411.671875 121.285156 411.703125 121.316406 L 655.746094 365.445312 Z M 610.066406 306.613281 L 609.367188 309.144531 L 598.535156 298.308594 L 634.054688 169.253906 C 634.296875 168.359375 634.183594 167.402344 633.722656 166.59375 C 633.261719 165.789062 632.5 165.191406 631.609375 164.945312 C 627.285156 163.757812 623.675781 160.949219 621.453125 157.035156 C 619.234375 153.125 618.664062 148.597656 619.851562 144.28125 C 620.097656 143.386719 619.980469 142.429688 619.519531 141.621094 C 619.0625 140.8125 618.304688 140.21875 617.40625 139.972656 L 516.253906 112.089844 C 514.503906 111.617188 512.726562 112.582031 512.09375 114.253906 L 506.636719 95.644531 L 656.738281 136.96875 Z M 610.066406 306.613281 " fill-opacity="1" fill-rule="nonzero"/></g><path fill="#082a71" d="M 477.359375 276.058594 L 471.214844 282.339844 C 468.765625 280.796875 465.953125 279.941406 463 279.941406 C 458.941406 279.941406 454.984375 281.582031 452.136719 284.4375 C 449.265625 287.3125 447.613281 291.292969 447.613281 295.355469 C 447.613281 299.417969 449.265625 303.398438 452.136719 306.273438 C 453.707031 307.847656 454.609375 310.007812 454.609375 312.199219 C 454.609375 314.425781 453.722656 316.546875 452.117188 318.183594 C 448.996094 321.355469 443.359375 321.355469 440.238281 318.183594 C 438.65625 316.574219 437.785156 314.449219 437.785156 312.199219 C 437.785156 309.984375 438.671875 307.824219 440.222656 306.277344 C 441.589844 304.910156 441.589844 302.695312 440.226562 301.320312 C 438.859375 299.953125 436.644531 299.957031 435.277344 301.320312 C 432.425781 304.171875 430.789062 308.136719 430.789062 312.199219 C 430.789062 315.113281 431.625 317.894531 433.125 320.328125 L 426.875 326.613281 C 425.511719 327.984375 425.519531 330.199219 426.886719 331.570312 C 427.566406 332.25 428.460938 332.589844 429.355469 332.589844 C 430.253906 332.589844 431.148438 332.242188 431.835938 331.558594 L 438.058594 325.300781 C 440.46875 326.804688 443.246094 327.648438 446.183594 327.648438 C 450.335938 327.648438 454.21875 326.035156 457.105469 323.101562 C 460.007812 320.144531 461.605469 316.277344 461.605469 312.203125 C 461.605469 308.167969 459.957031 304.199219 457.085938 301.324219 C 455.515625 299.753906 454.613281 297.578125 454.613281 295.359375 C 454.613281 293.144531 455.515625 290.96875 457.089844 289.390625 C 460.195312 286.269531 465.726562 286.207031 469.039062 289.46875 C 472.242188 292.753906 472.210938 298.070312 468.964844 301.324219 C 467.59375 302.695312 467.59375 304.910156 468.964844 306.277344 C 470.332031 307.648438 472.542969 307.648438 473.910156 306.277344 C 478.980469 301.199219 479.730469 293.382812 476.109375 287.359375 L 482.367188 280.960938 C 483.714844 279.578125 483.695312 277.363281 482.308594 276.007812 C 480.933594 274.65625 478.71875 274.675781 477.359375 276.058594 Z M 477.359375 276.058594 " fill-opacity="1" fill-rule="nonzero"/></svg>