<?xml version="1.0" standalone="no"?>
<!DOCTYPE svg PUBLIC "-//W3C//DTD SVG 20010904//EN"
 "http://www.w3.org/TR/2001/REC-SVG-20010904/DTD/svg10.dtd">
<svg version="1.0" xmlns="http://www.w3.org/2000/svg"
 width="512.000000pt" height="512.000000pt" viewBox="0 0 512.000000 512.000000"
 preserveAspectRatio="xMidYMid meet">

<g transform="translate(0.000000,512.000000) scale(0.100000,-0.100000)"
fill="#000000" stroke="none">
<path d="M1125 5111 c-11 -5 -29 -19 -40 -31 -18 -20 -20 -39 -23 -171 -4
-169 8 -228 58 -298 26 -35 98 -92 131 -103 5 -2 11 -57 15 -123 14 -282 64
-577 130 -765 127 -365 292 -575 639 -809 205 -139 235 -172 221 -246 -8 -43
-61 -95 -195 -192 -291 -211 -444 -379 -563 -618 -136 -273 -201 -546 -229
-965 -6 -96 -15 -176 -19 -178 -35 -13 -105 -69 -130 -103 -51 -70 -62 -128
-58 -299 3 -148 3 -150 31 -177 l27 -28 1435 -3 1434 -2 33 29 33 29 3 151 c4
174 -8 233 -61 303 -18 24 -56 57 -84 73 l-51 30 -7 120 c-29 526 -135 902
-336 1195 -109 158 -234 279 -460 443 -134 97 -187 149 -195 192 -13 71 19
110 180 218 159 106 227 157 310 237 308 293 468 731 500 1365 4 66 10 121 15
123 33 11 105 68 131 103 51 70 62 128 58 300 l-3 151 -33 29 -32 29 -1423 -1
c-782 0 -1431 -4 -1442 -8z m2530 -713 c-15 -244 -44 -445 -86 -599 -12 -44
-26 -79 -33 -79 -6 0 -47 12 -91 25 -135 42 -240 58 -385 58 -203 1 -324 -27
-556 -128 -170 -74 -273 -97 -434 -98 -149 0 -223 12 -384 65 l-99 33 -18 60
c-49 158 -89 410 -104 658 l-5 97 1100 0 1101 0 -6 -92z m-428 -809 c58 -9
233 -55 241 -64 7 -6 -66 -133 -116 -204 -26 -36 -81 -100 -123 -141 -77 -76
-114 -104 -384 -290 -82 -56 -180 -127 -217 -157 l-68 -54 -67 54 c-38 30
-158 116 -268 192 -252 173 -312 221 -387 308 -64 74 -133 175 -125 183 3 3
31 -2 63 -10 202 -52 448 -44 649 20 28 9 100 38 160 64 241 106 421 134 642
99z m-767 -1292 l0 -169 34 -34 c25 -24 43 -34 66 -34 23 0 42 10 66 34 l34
34 0 169 c0 92 4 174 8 181 6 9 15 0 28 -30 26 -58 107 -137 239 -233 280
-202 400 -334 513 -561 105 -212 178 -505 197 -789 3 -49 8 -123 11 -162 l6
-73 -40 0 c-81 0 -185 29 -240 67 -29 20 -59 45 -67 56 -47 68 -295 312 -360
356 -214 143 -480 160 -715 45 -92 -45 -101 -52 -305 -259 -242 -244 -260
-256 -393 -263 l-84 -5 6 74 c3 41 8 115 11 164 19 284 92 577 197 789 113
227 233 359 513 561 132 96 213 175 239 233 13 30 22 39 28 30 4 -7 8 -89 8
-181z m257 -1295 c101 -32 192 -100 318 -241 l114 -126 -295 -3 c-162 -1 -427
-1 -590 0 l-296 3 112 124 c157 172 244 231 385 261 58 13 181 4 252 -18z"/>
<path d="M1894 4256 c-46 -46 -46 -86 0 -132 25 -24 43 -34 66 -34 44 0 100
56 100 100 0 44 -56 100 -100 100 -23 0 -41 -9 -66 -34z"/>
<path d="M2294 4256 c-46 -46 -46 -86 0 -132 l34 -34 432 0 432 0 34 34 c46
46 46 86 0 132 l-34 34 -432 0 -432 0 -34 -34z"/>
<path d="M2494 1826 l-34 -34 0 -147 0 -147 34 -34 c25 -24 43 -34 66 -34 23
0 42 10 66 34 l34 34 0 147 0 147 -34 34 c-24 24 -43 34 -66 34 -23 0 -41 -10
-66 -34z"/>
</g>
</svg>
