<svg xmlns="http://www.w3.org/2000/svg" xmlns:xlink="http://www.w3.org/1999/xlink" width="700" zoomAndPan="magnify" viewBox="0 0 525 525.000007" height="700" preserveAspectRatio="xMidYMid meet" version="1.0"><defs><clipPath id="026d0a390a"><path d="M 27.972656 27.472656 L 508.554688 27.472656 L 508.554688 508.054688 L 27.972656 508.054688 Z M 27.972656 27.472656 " clip-rule="nonzero"/></clipPath></defs><g clip-path="url(#026d0a390a)"><path fill="#e63946" d="M 352.550781 27.472656 L 183.976562 27.472656 C 181.507812 27.445312 179.058594 27.664062 176.632812 28.128906 C 174.207031 28.59375 171.847656 29.292969 169.5625 30.230469 C 167.277344 31.167969 165.109375 32.320312 163.054688 33.691406 C 161 35.0625 159.101562 36.625 157.359375 38.378906 L 38.875 156.859375 C 37.125 158.601562 35.5625 160.5 34.191406 162.554688 C 32.820312 164.609375 31.664062 166.777344 30.730469 169.0625 C 29.792969 171.351562 29.09375 173.707031 28.628906 176.132812 C 28.164062 178.558594 27.945312 181.007812 27.972656 183.476562 L 27.972656 352.050781 C 27.945312 354.523438 28.164062 356.96875 28.628906 359.394531 C 29.09375 361.820312 29.792969 364.179688 30.730469 366.464844 C 31.664062 368.75 32.820312 370.921875 34.191406 372.976562 C 35.5625 375.027344 37.125 376.925781 38.875 378.667969 L 157.359375 497.152344 C 159.066406 498.871094 160.925781 500.40625 162.9375 501.757812 C 164.949219 503.113281 167.070312 504.257812 169.308594 505.191406 C 171.542969 506.128906 173.847656 506.835938 176.222656 507.316406 C 178.597656 507.800781 181 508.046875 183.421875 508.054688 L 351.996094 508.054688 C 354.511719 508.121094 357.007812 507.929688 359.488281 507.484375 C 361.964844 507.039062 364.371094 506.347656 366.707031 505.410156 C 369.042969 504.472656 371.261719 503.308594 373.359375 501.917969 C 375.457031 500.527344 377.394531 498.9375 379.167969 497.152344 L 497.648438 378.667969 C 499.402344 376.925781 500.964844 375.027344 502.335938 372.976562 C 503.707031 370.921875 504.859375 368.75 505.796875 366.464844 C 506.734375 364.179688 507.433594 361.820312 507.898438 359.394531 C 508.363281 356.96875 508.582031 354.523438 508.554688 352.050781 L 508.554688 183.476562 C 508.582031 181.007812 508.363281 178.558594 507.898438 176.132812 C 507.433594 173.707031 506.734375 171.351562 505.796875 169.066406 C 504.859375 166.777344 503.707031 164.609375 502.335938 162.554688 C 500.964844 160.5 499.402344 158.601562 497.648438 156.859375 L 379.167969 38.378906 C 377.425781 36.625 375.527344 35.0625 373.472656 33.691406 C 371.417969 32.320312 369.25 31.167969 366.964844 30.230469 C 364.675781 29.292969 362.320312 28.59375 359.894531 28.128906 C 357.46875 27.664062 355.019531 27.445312 352.550781 27.472656 Z M 352.550781 27.472656 " fill-opacity="1" fill-rule="nonzero"/></g><path fill="#edebea" d="M 305.230469 397.152344 C 305.230469 398.363281 305.171875 399.570312 305.054688 400.777344 C 304.933594 401.980469 304.757812 403.175781 304.519531 404.363281 C 304.285156 405.550781 303.992188 406.726562 303.640625 407.882812 C 303.289062 409.042969 302.878906 410.179688 302.417969 411.300781 C 301.953125 412.417969 301.4375 413.511719 300.867188 414.578125 C 300.296875 415.648438 299.671875 416.683594 299 417.691406 C 298.328125 418.699219 297.609375 419.667969 296.839844 420.605469 C 296.070312 421.539062 295.257812 422.4375 294.402344 423.292969 C 293.546875 424.148438 292.652344 424.960938 291.714844 425.730469 C 290.78125 426.496094 289.808594 427.21875 288.800781 427.890625 C 287.792969 428.5625 286.757812 429.183594 285.691406 429.753906 C 284.621094 430.324219 283.527344 430.84375 282.410156 431.304688 C 281.292969 431.769531 280.152344 432.175781 278.996094 432.527344 C 277.835938 432.878906 276.664062 433.175781 275.476562 433.410156 C 274.289062 433.644531 273.089844 433.824219 271.886719 433.941406 C 270.683594 434.0625 269.472656 434.121094 268.261719 434.121094 C 267.050781 434.121094 265.84375 434.0625 264.640625 433.941406 C 263.433594 433.824219 262.238281 433.644531 261.050781 433.410156 C 259.863281 433.175781 258.691406 432.878906 257.53125 432.527344 C 256.375 432.175781 255.234375 431.769531 254.117188 431.304688 C 252.996094 430.84375 251.90625 430.324219 250.835938 429.753906 C 249.769531 429.183594 248.730469 428.5625 247.726562 427.890625 C 246.71875 427.21875 245.746094 426.496094 244.8125 425.730469 C 243.875 424.960938 242.980469 424.148438 242.121094 423.292969 C 241.265625 422.4375 240.453125 421.539062 239.6875 420.605469 C 238.917969 419.667969 238.199219 418.699219 237.527344 417.691406 C 236.851562 416.683594 236.230469 415.648438 235.660156 414.578125 C 235.089844 413.511719 234.574219 412.417969 234.109375 411.300781 C 233.644531 410.179688 233.238281 409.042969 232.886719 407.882812 C 232.535156 406.726562 232.242188 405.550781 232.003906 404.363281 C 231.769531 403.175781 231.59375 401.980469 231.472656 400.777344 C 231.355469 399.570312 231.296875 398.363281 231.296875 397.152344 C 231.296875 395.941406 231.355469 394.734375 231.472656 393.527344 C 231.59375 392.324219 231.769531 391.128906 232.003906 389.941406 C 232.242188 388.753906 232.535156 387.578125 232.886719 386.421875 C 233.238281 385.261719 233.644531 384.125 234.109375 383.003906 C 234.574219 381.886719 235.089844 380.792969 235.660156 379.726562 C 236.230469 378.65625 236.851562 377.621094 237.527344 376.613281 C 238.199219 375.605469 238.917969 374.636719 239.6875 373.699219 C 240.453125 372.765625 241.265625 371.867188 242.121094 371.011719 C 242.980469 370.15625 243.875 369.34375 244.8125 368.574219 C 245.746094 367.808594 246.71875 367.085938 247.726562 366.414062 C 248.730469 365.742188 249.769531 365.121094 250.835938 364.550781 C 251.90625 363.980469 252.996094 363.460938 254.117188 363 C 255.234375 362.535156 256.375 362.128906 257.53125 361.777344 C 258.691406 361.425781 259.863281 361.132812 261.050781 360.894531 C 262.238281 360.660156 263.433594 360.480469 264.640625 360.363281 C 265.84375 360.242188 267.050781 360.183594 268.261719 360.183594 C 269.472656 360.183594 270.683594 360.242188 271.886719 360.363281 C 273.089844 360.480469 274.289062 360.660156 275.476562 360.894531 C 276.664062 361.132812 277.835938 361.425781 278.996094 361.777344 C 280.152344 362.128906 281.292969 362.535156 282.410156 363 C 283.527344 363.460938 284.621094 363.980469 285.691406 364.550781 C 286.757812 365.121094 287.792969 365.742188 288.800781 366.414062 C 289.808594 367.085938 290.78125 367.808594 291.714844 368.574219 C 292.652344 369.34375 293.546875 370.15625 294.402344 371.011719 C 295.257812 371.867188 296.070312 372.765625 296.839844 373.699219 C 297.609375 374.636719 298.328125 375.605469 299 376.613281 C 299.671875 377.621094 300.296875 378.65625 300.867188 379.726562 C 301.4375 380.792969 301.953125 381.886719 302.417969 383.003906 C 302.878906 384.125 303.289062 385.261719 303.640625 386.421875 C 303.992188 387.578125 304.285156 388.753906 304.519531 389.941406 C 304.757812 391.128906 304.933594 392.324219 305.054688 393.527344 C 305.171875 394.734375 305.230469 395.941406 305.230469 397.152344 Z M 305.230469 397.152344 " fill-opacity="1" fill-rule="nonzero"/><path fill="#edebea" d="M 288.597656 286.25 L 247.929688 286.25 C 246.792969 286.253906 245.660156 286.15625 244.539062 285.953125 C 243.417969 285.75 242.324219 285.445312 241.257812 285.039062 C 240.195312 284.632812 239.175781 284.132812 238.203125 283.539062 C 237.230469 282.945312 236.320312 282.265625 235.472656 281.503906 C 234.625 280.742188 233.855469 279.90625 233.164062 279.003906 C 232.46875 278.097656 231.867188 277.136719 231.351562 276.121094 C 230.835938 275.105469 230.417969 274.046875 230.097656 272.953125 C 229.777344 271.859375 229.5625 270.746094 229.445312 269.613281 L 214.660156 121.742188 C 214.59375 121.097656 214.5625 120.453125 214.566406 119.808594 C 214.570312 119.160156 214.605469 118.515625 214.675781 117.875 C 214.746094 117.234375 214.851562 116.597656 214.988281 115.964844 C 215.125 115.332031 215.296875 114.710938 215.5 114.097656 C 215.699219 113.484375 215.933594 112.882812 216.199219 112.292969 C 216.464844 111.707031 216.761719 111.132812 217.085938 110.574219 C 217.414062 110.015625 217.765625 109.476562 218.148438 108.957031 C 218.53125 108.4375 218.9375 107.9375 219.375 107.457031 C 219.808594 106.980469 220.265625 106.527344 220.75 106.097656 C 221.230469 105.667969 221.734375 105.261719 222.257812 104.886719 C 222.785156 104.507812 223.324219 104.160156 223.886719 103.839844 C 224.449219 103.519531 225.023438 103.230469 225.617188 102.96875 C 226.207031 102.710938 226.808594 102.480469 227.425781 102.285156 C 228.042969 102.089844 228.664062 101.925781 229.296875 101.792969 C 229.929688 101.660156 230.566406 101.5625 231.210938 101.5 C 231.851562 101.433594 232.496094 101.40625 233.144531 101.40625 L 303.382812 101.40625 C 304.027344 101.40625 304.671875 101.433594 305.316406 101.5 C 305.957031 101.5625 306.597656 101.660156 307.230469 101.792969 C 307.863281 101.925781 308.484375 102.089844 309.101562 102.285156 C 309.714844 102.480469 310.320312 102.710938 310.910156 102.96875 C 311.503906 103.230469 312.078125 103.519531 312.640625 103.839844 C 313.199219 104.160156 313.742188 104.507812 314.269531 104.886719 C 314.792969 105.261719 315.296875 105.667969 315.777344 106.097656 C 316.261719 106.527344 316.71875 106.980469 317.152344 107.457031 C 317.585938 107.9375 317.996094 108.4375 318.378906 108.957031 C 318.761719 109.476562 319.113281 110.015625 319.441406 110.574219 C 319.765625 111.132812 320.0625 111.707031 320.328125 112.292969 C 320.589844 112.882812 320.824219 113.484375 321.027344 114.097656 C 321.230469 114.710938 321.402344 115.332031 321.539062 115.964844 C 321.675781 116.597656 321.777344 117.234375 321.847656 117.875 C 321.917969 118.515625 321.957031 119.160156 321.960938 119.808594 C 321.960938 120.453125 321.929688 121.097656 321.867188 121.742188 L 307.078125 269.613281 C 306.964844 270.746094 306.75 271.859375 306.429688 272.953125 C 306.109375 274.046875 305.691406 275.105469 305.175781 276.121094 C 304.660156 277.136719 304.054688 278.097656 303.363281 279.003906 C 302.671875 279.90625 301.902344 280.742188 301.054688 281.503906 C 300.207031 282.265625 299.296875 282.945312 298.324219 283.539062 C 297.351562 284.132812 296.332031 284.632812 295.265625 285.039062 C 294.203125 285.445312 293.109375 285.75 291.988281 285.953125 C 290.867188 286.15625 289.734375 286.253906 288.597656 286.25 Z M 288.597656 286.25 " fill-opacity="1" fill-rule="nonzero"/></svg>