<svg xmlns="http://www.w3.org/2000/svg" xmlns:xlink="http://www.w3.org/1999/xlink" width="3400" zoomAndPan="magnify" viewBox="0 0 2550 3224.999865" height="4300" preserveAspectRatio="xMidYMid meet" version="1.0"><defs><g/><clipPath id="7860ef1e65"><path d="M 0 2799.246094 L 2550 2799.246094 L 2550 3225 L 0 3225 Z M 0 2799.246094 " clip-rule="nonzero"/></clipPath></defs><path stroke-linecap="butt" transform="matrix(0.75, 0, 0, 0.75, 0.000116248, 0)" fill="none" stroke-linejoin="miter" d="M -0.000154997 0 L 3399.999911 0 L 3399.999911 4300.000084 L -0.000154997 4300.000084 L -0.000154997 0 " stroke="#ffffff" stroke-width="50" stroke-opacity="1" stroke-miterlimit="4"/><g clip-path="url(#7860ef1e65)"><path fill="#ffffff" d="M -90 2799.246094 L 2602.265625 2799.246094 L 2602.265625 3224.988281 L -90 3224.988281 Z M -90 2799.246094 " fill-opacity="1" fill-rule="nonzero"/></g><g fill="#000000" fill-opacity="1"><g transform="translate(483.849709, 3077.000659)"><g><path d="M 83.640625 -150.515625 L 83.640625 -134.953125 L 31.9375 -134.953125 L 31.9375 -90.234375 L 82.046875 -90.234375 L 82.046875 -74.65625 L 31.9375 -74.65625 L 31.9375 0 L 15.171875 0 L 15.171875 -150.515625 Z M 83.640625 -150.515625 "/></g></g></g><g fill="#000000" fill-opacity="1"><g transform="translate(579.271661, 3077.000659)"><g><path d="M 34.140625 -93.828125 L 34.140625 0 L 18.171875 0 L 18.171875 -93.828125 Z M 14.765625 -129.5625 C 14.765625 -132.488281 15.929688 -135.046875 18.265625 -137.234375 C 20.597656 -139.429688 23.226562 -140.53125 26.15625 -140.53125 C 29.21875 -140.53125 31.878906 -139.429688 34.140625 -137.234375 C 36.398438 -135.046875 37.53125 -132.488281 37.53125 -129.5625 C 37.53125 -126.09375 36.398438 -123.257812 34.140625 -121.0625 C 31.878906 -118.875 29.21875 -117.78125 26.15625 -117.78125 C 23.09375 -117.78125 20.425781 -118.84375 18.15625 -120.96875 C 15.894531 -123.101562 14.765625 -125.96875 14.765625 -129.5625 Z M 14.765625 -129.5625 "/></g></g></g><g fill="#000000" fill-opacity="1"><g transform="translate(631.574078, 3077.000659)"><g><path d="M 30.75 -164.6875 L 30.75 0 L 14.765625 0 L 14.765625 -164.6875 Z M 30.75 -164.6875 "/></g></g></g><g fill="#000000" fill-opacity="1"><g transform="translate(676.889528, 3077.000659)"><g><path d="M 34.140625 -93.828125 L 34.140625 0 L 18.171875 0 L 18.171875 -93.828125 Z M 14.765625 -129.5625 C 14.765625 -132.488281 15.929688 -135.046875 18.265625 -137.234375 C 20.597656 -139.429688 23.226562 -140.53125 26.15625 -140.53125 C 29.21875 -140.53125 31.878906 -139.429688 34.140625 -137.234375 C 36.398438 -135.046875 37.53125 -132.488281 37.53125 -129.5625 C 37.53125 -126.09375 36.398438 -123.257812 34.140625 -121.0625 C 31.878906 -118.875 29.21875 -117.78125 26.15625 -117.78125 C 23.09375 -117.78125 20.425781 -118.84375 18.15625 -120.96875 C 15.894531 -123.101562 14.765625 -125.96875 14.765625 -129.5625 Z M 14.765625 -129.5625 "/></g></g></g><g fill="#000000" fill-opacity="1"><g transform="translate(729.191944, 3077.000659)"><g><path d="M 90.234375 0 L 74.265625 0 L 74.265625 -54.703125 C 74.265625 -64.148438 72.832031 -71 69.96875 -75.25 C 67.101562 -79.507812 61.945312 -81.640625 54.5 -81.640625 C 45.976562 -81.640625 39.953125 -78.710938 36.421875 -72.859375 C 32.898438 -67.003906 31.140625 -58.085938 31.140625 -46.109375 L 31.140625 0 L 15.171875 0 L 15.171875 -93.828125 L 31.140625 -93.828125 L 31.140625 -82.4375 L 31.546875 -82.4375 C 34.867188 -86.96875 38.691406 -90.429688 43.015625 -92.828125 C 47.335938 -95.222656 52.429688 -96.421875 58.296875 -96.421875 C 68.804688 -96.421875 76.753906 -93.191406 82.140625 -86.734375 C 87.535156 -80.285156 90.234375 -70.269531 90.234375 -56.6875 Z M 90.234375 0 "/></g></g></g><g fill="#000000" fill-opacity="1"><g transform="translate(834.595286, 3077.000659)"><g><path d="M 83.84375 -80.453125 L 83.84375 -93.828125 L 99.8125 -93.828125 L 99.8125 3.390625 C 99.8125 19.097656 95.421875 31.175781 86.640625 39.625 C 77.859375 48.070312 66.945312 52.296875 53.90625 52.296875 C 40.59375 52.296875 29.644531 48.335938 21.0625 40.421875 C 12.476562 32.503906 8.050781 22.09375 7.78125 9.1875 L 23.75 9.1875 C 23.75 17.4375 26.507812 24.222656 32.03125 29.546875 C 37.5625 34.867188 44.851562 37.53125 53.90625 37.53125 C 63.75 37.53125 71.195312 34.46875 76.25 28.34375 C 81.3125 22.21875 83.84375 12.101562 83.84375 -2 L 83.84375 -12.96875 L 83.4375 -12.96875 C 79.71875 -8.1875 74.960938 -4.394531 69.171875 -1.59375 C 63.378906 1.195312 57.289062 2.59375 50.90625 2.59375 C 42.25 2.59375 34.523438 0.398438 27.734375 -3.984375 C 20.953125 -8.378906 15.664062 -14.335938 11.875 -21.859375 C 8.082031 -29.378906 6.1875 -37.597656 6.1875 -46.515625 C 6.1875 -55.691406 8.148438 -64.109375 12.078125 -71.765625 C 16.003906 -79.421875 21.425781 -85.441406 28.34375 -89.828125 C 35.269531 -94.222656 42.988281 -96.421875 51.5 -96.421875 C 58.019531 -96.421875 64.007812 -95.019531 69.46875 -92.21875 C 74.925781 -89.425781 79.582031 -85.503906 83.4375 -80.453125 Z M 53.09375 -81.640625 C 47.507812 -81.640625 42.390625 -80.175781 37.734375 -77.25 C 33.078125 -74.320312 29.382812 -70.226562 26.65625 -64.96875 C 23.925781 -59.71875 22.5625 -54.03125 22.5625 -47.90625 C 22.5625 -37.65625 25.421875 -29.132812 31.140625 -22.34375 C 36.859375 -15.5625 44.242188 -12.171875 53.296875 -12.171875 C 62.742188 -12.171875 70.328125 -15.5 76.046875 -22.15625 C 81.773438 -28.8125 84.640625 -37.328125 84.640625 -47.703125 C 84.640625 -57.691406 81.675781 -65.84375 75.75 -72.15625 C 69.832031 -78.476562 62.28125 -81.640625 53.09375 -81.640625 Z M 53.09375 -81.640625 "/></g></g></g><g fill="#000000" fill-opacity="1"><g transform="translate(1011.86452, 3077.000659)"><g><path d="M 70.671875 -157.703125 L 138.34375 0 L 119.78125 0 L 102.015625 -42.71875 L 37.734375 -42.71875 L 19.5625 0 L 1.203125 0 Z M 44.515625 -58.296875 L 95.421875 -58.296875 L 70.265625 -118.578125 Z M 27.15625 -150.515625 Z M 27.15625 -150.515625 "/></g></g></g><g fill="#000000" fill-opacity="1"><g transform="translate(1151.40411, 3077.000659)"><g><path d="M 30.75 -13.171875 L 30.34375 -13.171875 L 30.34375 52.703125 L 14.375 52.703125 L 14.375 -93.828125 L 30.34375 -93.828125 L 30.34375 -80.453125 L 30.75 -80.453125 C 34.601562 -85.640625 39.320312 -89.597656 44.90625 -92.328125 C 50.5 -95.054688 56.554688 -96.421875 63.078125 -96.421875 C 71.460938 -96.421875 79.113281 -94.222656 86.03125 -89.828125 C 92.957031 -85.441406 98.347656 -79.421875 102.203125 -71.765625 C 106.066406 -64.109375 108 -55.757812 108 -46.71875 C 108 -37.664062 106.132812 -29.3125 102.40625 -21.65625 C 98.675781 -14.007812 93.316406 -8.054688 86.328125 -3.796875 C 79.347656 0.460938 71.53125 2.59375 62.875 2.59375 C 56.488281 2.59375 50.5 1.265625 44.90625 -1.390625 C 39.320312 -4.054688 34.601562 -7.984375 30.75 -13.171875 Z M 59.890625 -81.640625 C 54.703125 -81.640625 49.773438 -80.242188 45.109375 -77.453125 C 40.453125 -74.660156 36.691406 -70.601562 33.828125 -65.28125 C 30.972656 -59.957031 29.546875 -54.164062 29.546875 -47.90625 C 29.546875 -37.925781 32.375 -29.472656 38.03125 -22.546875 C 43.6875 -15.628906 51.101562 -12.171875 60.28125 -12.171875 C 66.539062 -12.171875 72.066406 -13.664062 76.859375 -16.65625 C 81.648438 -19.65625 85.304688 -23.882812 87.828125 -29.34375 C 90.359375 -34.800781 91.625 -40.921875 91.625 -47.703125 C 91.625 -57.691406 88.695312 -65.84375 82.84375 -72.15625 C 76.988281 -78.476562 69.335938 -81.640625 59.890625 -81.640625 Z M 59.890625 -81.640625 "/></g></g></g><g fill="#000000" fill-opacity="1"><g transform="translate(1266.589208, 3077.000659)"><g><path d="M 30.75 -13.171875 L 30.34375 -13.171875 L 30.34375 52.703125 L 14.375 52.703125 L 14.375 -93.828125 L 30.34375 -93.828125 L 30.34375 -80.453125 L 30.75 -80.453125 C 34.601562 -85.640625 39.320312 -89.597656 44.90625 -92.328125 C 50.5 -95.054688 56.554688 -96.421875 63.078125 -96.421875 C 71.460938 -96.421875 79.113281 -94.222656 86.03125 -89.828125 C 92.957031 -85.441406 98.347656 -79.421875 102.203125 -71.765625 C 106.066406 -64.109375 108 -55.757812 108 -46.71875 C 108 -37.664062 106.132812 -29.3125 102.40625 -21.65625 C 98.675781 -14.007812 93.316406 -8.054688 86.328125 -3.796875 C 79.347656 0.460938 71.53125 2.59375 62.875 2.59375 C 56.488281 2.59375 50.5 1.265625 44.90625 -1.390625 C 39.320312 -4.054688 34.601562 -7.984375 30.75 -13.171875 Z M 59.890625 -81.640625 C 54.703125 -81.640625 49.773438 -80.242188 45.109375 -77.453125 C 40.453125 -74.660156 36.691406 -70.601562 33.828125 -65.28125 C 30.972656 -59.957031 29.546875 -54.164062 29.546875 -47.90625 C 29.546875 -37.925781 32.375 -29.472656 38.03125 -22.546875 C 43.6875 -15.628906 51.101562 -12.171875 60.28125 -12.171875 C 66.539062 -12.171875 72.066406 -13.664062 76.859375 -16.65625 C 81.648438 -19.65625 85.304688 -23.882812 87.828125 -29.34375 C 90.359375 -34.800781 91.625 -40.921875 91.625 -47.703125 C 91.625 -57.691406 88.695312 -65.84375 82.84375 -72.15625 C 76.988281 -78.476562 69.335938 -81.640625 59.890625 -81.640625 Z M 59.890625 -81.640625 "/></g></g></g><g fill="#000000" fill-opacity="1"><g transform="translate(1381.774307, 3077.000659)"><g><path d="M 30.75 -164.6875 L 30.75 0 L 14.765625 0 L 14.765625 -164.6875 Z M 30.75 -164.6875 "/></g></g></g><g fill="#000000" fill-opacity="1"><g transform="translate(1427.089737, 3077.000659)"><g><path d="M 34.140625 -93.828125 L 34.140625 0 L 18.171875 0 L 18.171875 -93.828125 Z M 14.765625 -129.5625 C 14.765625 -132.488281 15.929688 -135.046875 18.265625 -137.234375 C 20.597656 -139.429688 23.226562 -140.53125 26.15625 -140.53125 C 29.21875 -140.53125 31.878906 -139.429688 34.140625 -137.234375 C 36.398438 -135.046875 37.53125 -132.488281 37.53125 -129.5625 C 37.53125 -126.09375 36.398438 -123.257812 34.140625 -121.0625 C 31.878906 -118.875 29.21875 -117.78125 26.15625 -117.78125 C 23.09375 -117.78125 20.425781 -118.84375 18.15625 -120.96875 C 15.894531 -123.101562 14.765625 -125.96875 14.765625 -129.5625 Z M 14.765625 -129.5625 "/></g></g></g><g fill="#000000" fill-opacity="1"><g transform="translate(1479.392172, 3077.000659)"><g><path d="M 84.84375 -65.875 L 84.4375 -65.875 C 80.976562 -70.53125 76.753906 -74.320312 71.765625 -77.25 C 66.773438 -80.175781 61.285156 -81.640625 55.296875 -81.640625 C 45.984375 -81.640625 38.128906 -78.242188 31.734375 -71.453125 C 25.347656 -64.671875 22.15625 -56.488281 22.15625 -46.90625 C 22.15625 -37.320312 25.21875 -29.132812 31.34375 -22.34375 C 37.46875 -15.5625 45.1875 -12.171875 54.5 -12.171875 C 61.28125 -12.171875 67.097656 -13.601562 71.953125 -16.46875 C 76.816406 -19.332031 81.179688 -23.289062 85.046875 -28.34375 L 85.4375 -28.34375 L 85.4375 -6.984375 C 81.050781 -3.921875 76.394531 -1.5625 71.46875 0.09375 C 66.539062 1.757812 61.285156 2.59375 55.703125 2.59375 C 46.785156 2.59375 38.429688 0.460938 30.640625 -3.796875 C 22.859375 -8.054688 16.769531 -14.007812 12.375 -21.65625 C 7.988281 -29.3125 5.796875 -37.726562 5.796875 -46.90625 C 5.796875 -55.5625 7.957031 -63.710938 12.28125 -71.359375 C 16.601562 -79.015625 22.691406 -85.101562 30.546875 -89.625 C 38.398438 -94.15625 46.847656 -96.421875 55.890625 -96.421875 C 60.679688 -96.421875 65.375 -95.753906 69.96875 -94.421875 C 74.5625 -93.085938 79.519531 -90.625 84.84375 -87.03125 Z M 84.84375 -65.875 "/></g></g></g><g fill="#000000" fill-opacity="1"><g transform="translate(1574.41486, 3077.000659)"><g><path d="M 84.84375 -80.453125 L 84.84375 -93.828125 L 100.8125 -93.828125 L 100.8125 0 L 84.84375 0 L 84.84375 -12.96875 L 84.4375 -12.96875 C 76.1875 -2.59375 65.410156 2.59375 52.109375 2.59375 C 39.054688 2.59375 28.304688 -2.195312 19.859375 -11.78125 C 11.410156 -21.363281 7.1875 -33.007812 7.1875 -46.71875 C 7.1875 -61.082031 11.441406 -72.957031 19.953125 -82.34375 C 28.472656 -91.726562 39.253906 -96.421875 52.296875 -96.421875 C 58.816406 -96.421875 64.835938 -95.019531 70.359375 -92.21875 C 75.890625 -89.425781 80.582031 -85.503906 84.4375 -80.453125 Z M 54.09375 -81.640625 C 45.582031 -81.640625 38.363281 -78.378906 32.4375 -71.859375 C 26.519531 -65.335938 23.5625 -57.351562 23.5625 -47.90625 C 23.5625 -37.789062 26.453125 -29.304688 32.234375 -22.453125 C 38.023438 -15.597656 45.378906 -12.171875 54.296875 -12.171875 C 63.742188 -12.171875 71.328125 -15.429688 77.046875 -21.953125 C 82.773438 -28.472656 85.640625 -37.054688 85.640625 -47.703125 C 85.640625 -57.421875 82.710938 -65.503906 76.859375 -71.953125 C 71.003906 -78.410156 63.414062 -81.640625 54.09375 -81.640625 Z M 54.09375 -81.640625 "/></g></g></g><g fill="#000000" fill-opacity="1"><g transform="translate(1689.599958, 3077.000659)"><g><path d="M 31.9375 -127.5625 L 31.9375 -93.828125 L 48.703125 -93.828125 L 48.703125 -79.046875 L 31.9375 -79.046875 L 31.9375 0 L 15.96875 0 L 15.96875 -79.046875 L 6.1875 -79.046875 L 6.1875 -93.828125 L 15.96875 -93.828125 L 15.96875 -127.5625 Z M 31.9375 -127.5625 "/></g></g></g><g fill="#000000" fill-opacity="1"><g transform="translate(1737.510565, 3077.000659)"><g><path d="M 34.140625 -93.828125 L 34.140625 0 L 18.171875 0 L 18.171875 -93.828125 Z M 14.765625 -129.5625 C 14.765625 -132.488281 15.929688 -135.046875 18.265625 -137.234375 C 20.597656 -139.429688 23.226562 -140.53125 26.15625 -140.53125 C 29.21875 -140.53125 31.878906 -139.429688 34.140625 -137.234375 C 36.398438 -135.046875 37.53125 -132.488281 37.53125 -129.5625 C 37.53125 -126.09375 36.398438 -123.257812 34.140625 -121.0625 C 31.878906 -118.875 29.21875 -117.78125 26.15625 -117.78125 C 23.09375 -117.78125 20.425781 -118.84375 18.15625 -120.96875 C 15.894531 -123.101562 14.765625 -125.96875 14.765625 -129.5625 Z M 14.765625 -129.5625 "/></g></g></g><g fill="#000000" fill-opacity="1"><g transform="translate(1789.812924, 3077.000659)"><g><path d="M 6.78125 -46.71875 C 6.78125 -55.632812 8.976562 -63.953125 13.375 -71.671875 C 17.769531 -79.390625 23.757812 -85.441406 31.34375 -89.828125 C 38.925781 -94.222656 47.175781 -96.421875 56.09375 -96.421875 C 65.007812 -96.421875 73.226562 -94.222656 80.75 -89.828125 C 88.269531 -85.441406 94.257812 -79.421875 98.71875 -71.765625 C 103.175781 -64.109375 105.40625 -55.757812 105.40625 -46.71875 C 105.40625 -37.800781 103.207031 -29.515625 98.8125 -21.859375 C 94.425781 -14.203125 88.4375 -8.210938 80.84375 -3.890625 C 73.257812 0.429688 65.007812 2.59375 56.09375 2.59375 C 47.175781 2.59375 38.890625 0.398438 31.234375 -3.984375 C 23.585938 -8.378906 17.597656 -14.398438 13.265625 -22.046875 C 8.941406 -29.703125 6.78125 -37.925781 6.78125 -46.71875 Z M 55.890625 -81.640625 C 46.441406 -81.640625 38.554688 -78.28125 32.234375 -71.5625 C 25.910156 -64.84375 22.75 -56.625 22.75 -46.90625 C 22.75 -39.71875 24.476562 -33.363281 27.9375 -27.84375 C 31.40625 -22.320312 35.632812 -18.328125 40.625 -15.859375 C 45.613281 -13.398438 50.769531 -12.171875 56.09375 -12.171875 C 62.21875 -12.171875 67.804688 -13.601562 72.859375 -16.46875 C 77.921875 -19.332031 81.945312 -23.457031 84.9375 -28.84375 C 87.9375 -34.238281 89.4375 -40.257812 89.4375 -46.90625 C 89.4375 -53.03125 88.070312 -58.753906 85.34375 -64.078125 C 82.613281 -69.398438 78.648438 -73.65625 73.453125 -76.84375 C 68.265625 -80.039062 62.410156 -81.640625 55.890625 -81.640625 Z M 55.890625 -81.640625 "/></g></g></g><g fill="#000000" fill-opacity="1"><g transform="translate(1902.003581, 3077.000659)"><g><path d="M 90.234375 0 L 74.265625 0 L 74.265625 -54.703125 C 74.265625 -64.148438 72.832031 -71 69.96875 -75.25 C 67.101562 -79.507812 61.945312 -81.640625 54.5 -81.640625 C 45.976562 -81.640625 39.953125 -78.710938 36.421875 -72.859375 C 32.898438 -67.003906 31.140625 -58.085938 31.140625 -46.109375 L 31.140625 0 L 15.171875 0 L 15.171875 -93.828125 L 31.140625 -93.828125 L 31.140625 -82.4375 L 31.546875 -82.4375 C 34.867188 -86.96875 38.691406 -90.429688 43.015625 -92.828125 C 47.335938 -95.222656 52.429688 -96.421875 58.296875 -96.421875 C 68.804688 -96.421875 76.753906 -93.191406 82.140625 -86.734375 C 87.535156 -80.285156 90.234375 -70.269531 90.234375 -56.6875 Z M 90.234375 0 "/></g></g></g><path fill="#ffffff" d="M 626.679688 1042.917969 L 626.679688 1088.253906 L 928.730469 1088.253906 L 928.730469 1042.917969 C 928.730469 983.78125 894.734375 932.554688 845.222656 907.769531 C 864.109375 889.886719 875.898438 864.550781 875.898438 836.492188 C 875.898438 782.292969 831.925781 738.320312 777.730469 738.320312 C 723.535156 738.320312 679.566406 782.292969 679.566406 836.492188 C 679.566406 864.550781 691.351562 889.886719 710.238281 907.769531 C 660.675781 932.554688 626.679688 983.78125 626.679688 1042.917969 Z M 626.679688 1042.917969 " fill-opacity="1" fill-rule="nonzero"/><path fill="#ffffff" d="M 1482.570312 804.253906 L 1039.539062 804.253906 C 1024.480469 804.253906 1012.292969 816.445312 1012.292969 831.507812 C 1012.292969 846.566406 1024.480469 858.757812 1039.539062 858.757812 L 1482.570312 858.757812 C 1497.628906 858.757812 1509.816406 846.566406 1509.816406 831.507812 C 1509.769531 816.445312 1497.578125 804.253906 1482.570312 804.253906 Z M 1482.570312 804.253906 " fill-opacity="1" fill-rule="nonzero"/><path fill="#ffffff" d="M 1482.570312 977.9375 L 1039.539062 977.9375 C 1024.480469 977.9375 1012.292969 990.128906 1012.292969 1005.1875 C 1012.292969 1020.25 1024.480469 1032.441406 1039.539062 1032.441406 L 1482.570312 1032.441406 C 1497.628906 1032.441406 1509.816406 1020.25 1509.816406 1005.1875 C 1509.769531 990.128906 1497.578125 977.9375 1482.570312 977.9375 Z M 1482.570312 977.9375 " fill-opacity="1" fill-rule="nonzero"/><path fill="#ffffff" d="M 1482.570312 1177.511719 L 644.308594 1177.511719 C 629.25 1177.511719 617.058594 1189.703125 617.058594 1204.761719 C 617.058594 1219.824219 629.25 1232.015625 644.308594 1232.015625 L 1482.570312 1232.015625 C 1497.628906 1232.015625 1509.816406 1219.824219 1509.816406 1204.761719 C 1509.769531 1189.703125 1497.578125 1177.511719 1482.570312 1177.511719 Z M 1482.570312 1177.511719 " fill-opacity="1" fill-rule="nonzero"/><path fill="#ffffff" d="M 1482.570312 1355.476562 L 644.308594 1355.476562 C 629.25 1355.476562 617.058594 1367.664062 617.058594 1382.726562 C 617.058594 1397.789062 629.25 1409.976562 644.308594 1409.976562 L 1482.570312 1409.976562 C 1497.628906 1409.976562 1509.816406 1397.789062 1509.816406 1382.726562 C 1509.769531 1367.664062 1497.578125 1355.476562 1482.570312 1355.476562 Z M 1482.570312 1355.476562 " fill-opacity="1" fill-rule="nonzero"/><path fill="#ffffff" d="M 1509.769531 1556.410156 C 1509.769531 1541.347656 1497.578125 1529.15625 1482.519531 1529.15625 L 644.308594 1529.15625 C 629.25 1529.15625 617.058594 1541.347656 617.058594 1556.410156 C 617.058594 1571.46875 629.25 1583.660156 644.308594 1583.660156 L 1482.570312 1583.660156 C 1497.578125 1583.660156 1509.769531 1571.46875 1509.769531 1556.410156 Z M 1509.769531 1556.410156 " fill-opacity="1" fill-rule="nonzero"/><path fill="#ffffff" d="M 1158.105469 1915.007812 C 1167.171875 1924.679688 1181.828125 1926.390625 1192.90625 1919.136719 L 1247.253906 1883.523438 L 1288.152344 1924.929688 C 1293.441406 1930.269531 1300.492188 1933.039062 1307.542969 1933.039062 C 1313.4375 1933.039062 1319.378906 1931.125 1324.316406 1927.246094 L 1378.710938 1884.632812 L 1420.820312 1925.382812 C 1430.640625 1934.902344 1445.851562 1935.507812 1456.378906 1927.398438 C 1459.601562 1931.933594 1466.453125 1933.441406 1471.289062 1929.210938 L 1582.296875 1832.195312 C 1587.738281 1827.410156 1586.578125 1818.644531 1580.03125 1815.523438 L 1475.820312 1765.25 C 1469.324219 1762.128906 1461.71875 1766.660156 1461.363281 1773.863281 L 1456.277344 1883.976562 L 1399.515625 1829.023438 C 1389.742188 1819.550781 1374.480469 1818.746094 1363.804688 1827.160156 L 1309.808594 1869.472656 L 1270.324219 1829.476562 C 1261.207031 1820.257812 1246.851562 1818.746094 1236.023438 1825.847656 L 1222.472656 1834.714844 C 1220.410156 1807.261719 1208.722656 1781.671875 1189.03125 1762.027344 C 1167.269531 1740.265625 1138.308594 1728.226562 1107.484375 1728.226562 C 1076.660156 1728.226562 1047.699219 1740.214844 1025.941406 1762.027344 C 1004.183594 1783.789062 992.144531 1812.753906 992.144531 1843.578125 C 992.144531 1874.40625 1004.132812 1903.371094 1025.941406 1925.132812 C 1036.566406 1935.761719 1053.792969 1935.761719 1064.421875 1925.132812 C 1075.050781 1914.503906 1075.050781 1897.277344 1064.421875 1886.648438 C 1052.9375 1875.164062 1046.589844 1859.851562 1046.589844 1843.578125 C 1046.589844 1810.03125 1073.890625 1782.679688 1107.484375 1782.679688 C 1141.082031 1782.679688 1168.378906 1809.980469 1168.378906 1843.578125 C 1168.378906 1856.878906 1164.199219 1869.519531 1156.242188 1880.097656 C 1148.28125 1890.578125 1149.089844 1905.335938 1158.105469 1915.007812 Z M 1158.105469 1915.007812 " fill-opacity="1" fill-rule="nonzero"/><path fill="#ffffff" d="M 1478.609375 1736.433594 L 1681.945312 1314.640625 L 1799.863281 1371.496094 L 1596.523438 1793.289062 Z M 1478.609375 1736.433594 " fill-opacity="1" fill-rule="nonzero"/><path fill="#ffffff" d="M 1663.386719 2048.695312 C 1663.386719 2054.6875 1658.503906 2059.625 1652.457031 2059.625 L 524.738281 2059.625 C 518.742188 2059.625 513.808594 2054.738281 513.808594 2048.695312 L 513.808594 570.882812 C 513.808594 564.886719 518.691406 559.953125 524.738281 559.953125 L 796.617188 559.953125 L 796.617188 596.019531 C 796.617188 625.886719 820.84375 650.167969 850.761719 650.167969 L 1326.53125 650.167969 C 1356.398438 650.167969 1380.675781 625.9375 1380.675781 596.019531 L 1380.675781 559.953125 L 1652.558594 559.953125 C 1658.550781 559.953125 1663.488281 564.835938 1663.488281 570.882812 L 1663.488281 1267.828125 L 1754.957031 1078.128906 L 1754.957031 570.882812 C 1754.957031 514.414062 1709.019531 468.527344 1652.609375 468.527344 L 1380.726562 468.527344 L 1380.726562 432.460938 C 1380.726562 402.589844 1356.5 378.308594 1326.582031 378.308594 L 1247.003906 378.308594 C 1228.667969 378.308594 1212.804688 365.816406 1208.320312 348.085938 C 1194.820312 294.59375 1146.417969 255 1088.699219 255 C 1031.027344 255 982.574219 294.59375 969.074219 348.085938 C 964.59375 365.816406 948.726562 378.308594 930.394531 378.308594 L 850.8125 378.308594 C 820.945312 378.308594 796.667969 402.539062 796.667969 432.460938 L 796.667969 468.527344 L 524.738281 468.527344 C 468.273438 468.527344 422.390625 514.464844 422.390625 570.882812 L 422.390625 2048.644531 C 422.390625 2105.109375 468.324219 2151 524.738281 2151 L 1652.457031 2151 C 1708.917969 2151 1754.804688 2105.058594 1754.804688 2048.644531 L 1754.804688 1550.011719 L 1663.335938 1739.710938 L 1663.335938 2048.695312 Z M 1088.597656 340.53125 C 1124.761719 340.53125 1154.023438 369.847656 1154.023438 405.964844 C 1154.023438 442.082031 1124.710938 471.398438 1088.597656 471.398438 C 1052.484375 471.398438 1023.171875 442.132812 1023.171875 406.015625 C 1023.171875 369.898438 1052.484375 340.53125 1088.597656 340.53125 Z M 1088.597656 340.53125 " fill-opacity="1" fill-rule="nonzero"/><path fill="#ffffff" d="M 2002.105469 951.894531 L 2014.902344 925.351562 C 2030.613281 892.808594 2016.914062 853.671875 1984.378906 837.953125 C 1951.839844 822.238281 1912.707031 835.941406 1896.992188 868.480469 L 1693.660156 1290.292969 L 1811.566406 1347.164062 L 1984.429688 988.617188 C 2011.273438 1003.726562 2022.152344 1037.425781 2008.554688 1065.585938 L 1905.804688 1278.707031 C 1897.191406 1280.976562 1889.535156 1286.820312 1885.355469 1295.484375 C 1877.800781 1311.148438 1884.398438 1329.9375 1900.011719 1337.492188 C 1915.675781 1345.046875 1934.464844 1338.449219 1942.019531 1322.835938 C 1946.199219 1314.171875 1946.046875 1304.550781 1942.421875 1296.390625 L 2045.171875 1083.265625 C 2068.542969 1034.859375 2049.148438 976.78125 2002.105469 951.894531 Z M 2002.105469 951.894531 " fill-opacity="1" fill-rule="nonzero"/></svg>