<svg xmlns="http://www.w3.org/2000/svg" xmlns:xlink="http://www.w3.org/1999/xlink" width="700" zoomAndPan="magnify" viewBox="0 0 525 525.000007" height="700" preserveAspectRatio="xMidYMid meet" version="1.0"><defs><g/><clipPath id="6e1a6338f7"><path d="M 0.503906 0 L 524.496094 0 L 524.496094 524 L 0.503906 524 Z M 0.503906 0 " clip-rule="nonzero"/></clipPath><clipPath id="8c732163e2"><path d="M 0.5 419.027344 L 524.5 419.027344 L 524.5 524 L 0.5 524 Z M 0.5 419.027344 " clip-rule="nonzero"/></clipPath><clipPath id="6ab198ddc6"><path d="M 100.792969 34.878906 L 363 34.878906 L 363 406.921875 L 100.792969 406.921875 Z M 100.792969 34.878906 " clip-rule="nonzero"/></clipPath></defs><g clip-path="url(#6e1a6338f7)"><path stroke-linecap="butt" transform="matrix(0.748574, 0, 0, 0.74806, 0.502807, 0.000136927)" fill="none" stroke-linejoin="miter" d="M 0.00146884 -0.000183042 L 699.988512 -0.000183042 L 699.988512 705.485961 L 0.00146884 705.485961 L 0.00146884 -0.000183042 " stroke="#ffffff" stroke-width="14" stroke-opacity="1" stroke-miterlimit="4"/></g><g clip-path="url(#8c732163e2)"><path fill="#ffffff" d="M -25.699219 419.027344 L 524.5 419.027344 L 524.5 524.035156 L -25.699219 524.035156 Z M -25.699219 419.027344 " fill-opacity="1" fill-rule="nonzero"/></g><g fill="#000000" fill-opacity="1"><g transform="translate(102.579993, 487.329607)"><g><path d="M 17.5625 -31.59375 L 17.5625 -28.328125 L 6.703125 -28.328125 L 6.703125 -18.9375 L 17.21875 -18.9375 L 17.21875 -15.671875 L 6.703125 -15.671875 L 6.703125 0 L 3.1875 0 L 3.1875 -31.59375 Z M 17.5625 -31.59375 "/></g></g></g><g fill="#000000" fill-opacity="1"><g transform="translate(122.612198, 487.329607)"><g><path d="M 7.171875 -19.703125 L 7.171875 0 L 3.8125 0 L 3.8125 -19.703125 Z M 3.09375 -27.203125 C 3.09375 -27.816406 3.335938 -28.351562 3.828125 -28.8125 C 4.316406 -29.269531 4.867188 -29.5 5.484375 -29.5 C 6.128906 -29.5 6.6875 -29.269531 7.15625 -28.8125 C 7.632812 -28.351562 7.875 -27.816406 7.875 -27.203125 C 7.875 -26.472656 7.632812 -25.875 7.15625 -25.40625 C 6.6875 -24.945312 6.128906 -24.71875 5.484375 -24.71875 C 4.847656 -24.71875 4.289062 -24.941406 3.8125 -25.390625 C 3.332031 -25.835938 3.09375 -26.441406 3.09375 -27.203125 Z M 3.09375 -27.203125 "/></g></g></g><g fill="#000000" fill-opacity="1"><g transform="translate(133.592191, 487.329607)"><g><path d="M 6.453125 -34.578125 L 6.453125 0 L 3.09375 0 L 3.09375 -34.578125 Z M 6.453125 -34.578125 "/></g></g></g><g fill="#000000" fill-opacity="1"><g transform="translate(143.105385, 487.329607)"><g><path d="M 7.171875 -19.703125 L 7.171875 0 L 3.8125 0 L 3.8125 -19.703125 Z M 3.09375 -27.203125 C 3.09375 -27.816406 3.335938 -28.351562 3.828125 -28.8125 C 4.316406 -29.269531 4.867188 -29.5 5.484375 -29.5 C 6.128906 -29.5 6.6875 -29.269531 7.15625 -28.8125 C 7.632812 -28.351562 7.875 -27.816406 7.875 -27.203125 C 7.875 -26.472656 7.632812 -25.875 7.15625 -25.40625 C 6.6875 -24.945312 6.128906 -24.71875 5.484375 -24.71875 C 4.847656 -24.71875 4.289062 -24.941406 3.8125 -25.390625 C 3.332031 -25.835938 3.09375 -26.441406 3.09375 -27.203125 Z M 3.09375 -27.203125 "/></g></g></g><g fill="#000000" fill-opacity="1"><g transform="translate(154.085379, 487.329607)"><g><path d="M 18.9375 0 L 15.59375 0 L 15.59375 -11.484375 C 15.59375 -13.460938 15.289062 -14.898438 14.6875 -15.796875 C 14.082031 -16.691406 13 -17.140625 11.4375 -17.140625 C 9.65625 -17.140625 8.390625 -16.523438 7.640625 -15.296875 C 6.898438 -14.066406 6.53125 -12.195312 6.53125 -9.6875 L 6.53125 0 L 3.1875 0 L 3.1875 -19.703125 L 6.53125 -19.703125 L 6.53125 -17.3125 L 6.625 -17.3125 C 7.320312 -18.257812 8.125 -18.984375 9.03125 -19.484375 C 9.9375 -19.984375 11.003906 -20.234375 12.234375 -20.234375 C 14.441406 -20.234375 16.109375 -19.554688 17.234375 -18.203125 C 18.367188 -16.847656 18.9375 -14.75 18.9375 -11.90625 Z M 18.9375 0 "/></g></g></g><g fill="#000000" fill-opacity="1"><g transform="translate(176.212999, 487.329607)"><g><path d="M 17.59375 -16.890625 L 17.59375 -19.703125 L 20.953125 -19.703125 L 20.953125 0.71875 C 20.953125 4.007812 20.03125 6.539062 18.1875 8.3125 C 16.34375 10.09375 14.050781 10.984375 11.3125 10.984375 C 8.519531 10.984375 6.222656 10.148438 4.421875 8.484375 C 2.617188 6.828125 1.691406 4.640625 1.640625 1.921875 L 4.984375 1.921875 C 4.984375 3.660156 5.5625 5.085938 6.71875 6.203125 C 7.882812 7.316406 9.414062 7.875 11.3125 7.875 C 13.382812 7.875 14.945312 7.226562 16 5.9375 C 17.0625 4.65625 17.59375 2.535156 17.59375 -0.421875 L 17.59375 -2.71875 L 17.515625 -2.71875 C 16.734375 -1.71875 15.734375 -0.921875 14.515625 -0.328125 C 13.304688 0.253906 12.03125 0.546875 10.6875 0.546875 C 8.875 0.546875 7.253906 0.0859375 5.828125 -0.828125 C 4.398438 -1.753906 3.285156 -3.003906 2.484375 -4.578125 C 1.691406 -6.160156 1.296875 -7.890625 1.296875 -9.765625 C 1.296875 -11.691406 1.707031 -13.457031 2.53125 -15.0625 C 3.351562 -16.664062 4.488281 -17.925781 5.9375 -18.84375 C 7.394531 -19.769531 9.019531 -20.234375 10.8125 -20.234375 C 12.175781 -20.234375 13.429688 -19.941406 14.578125 -19.359375 C 15.722656 -18.773438 16.703125 -17.953125 17.515625 -16.890625 Z M 11.140625 -17.140625 C 9.972656 -17.140625 8.898438 -16.832031 7.921875 -16.21875 C 6.941406 -15.601562 6.164062 -14.742188 5.59375 -13.640625 C 5.019531 -12.535156 4.734375 -11.34375 4.734375 -10.0625 C 4.734375 -7.90625 5.332031 -6.113281 6.53125 -4.6875 C 7.738281 -3.269531 9.289062 -2.5625 11.1875 -2.5625 C 13.175781 -2.5625 14.769531 -3.257812 15.96875 -4.65625 C 17.164062 -6.050781 17.765625 -7.835938 17.765625 -10.015625 C 17.765625 -12.109375 17.140625 -13.816406 15.890625 -15.140625 C 14.648438 -16.472656 13.066406 -17.140625 11.140625 -17.140625 Z M 11.140625 -17.140625 "/></g></g></g><g fill="#000000" fill-opacity="1"><g transform="translate(200.519853, 487.329607)"><g/></g></g><g fill="#000000" fill-opacity="1"><g transform="translate(213.427628, 487.329607)"><g><path d="M 14.828125 -33.109375 L 29.046875 0 L 25.140625 0 L 21.421875 -8.96875 L 7.921875 -8.96875 L 4.109375 0 L 0.25 0 Z M 9.34375 -12.234375 L 20.03125 -12.234375 L 14.75 -24.890625 Z M 5.703125 -31.59375 Z M 5.703125 -31.59375 "/></g></g></g><g fill="#000000" fill-opacity="1"><g transform="translate(242.721576, 487.329607)"><g><path d="M 6.453125 -2.765625 L 6.375 -2.765625 L 6.375 11.0625 L 3.015625 11.0625 L 3.015625 -19.703125 L 6.375 -19.703125 L 6.375 -16.890625 L 6.453125 -16.890625 C 7.265625 -17.972656 8.253906 -18.800781 9.421875 -19.375 C 10.597656 -19.945312 11.875 -20.234375 13.25 -20.234375 C 15 -20.234375 16.597656 -19.769531 18.046875 -18.84375 C 19.503906 -17.925781 20.640625 -16.664062 21.453125 -15.0625 C 22.265625 -13.457031 22.671875 -11.707031 22.671875 -9.8125 C 22.671875 -7.90625 22.28125 -6.148438 21.5 -4.546875 C 20.71875 -2.941406 19.59375 -1.691406 18.125 -0.796875 C 16.65625 0.0976562 15.015625 0.546875 13.203125 0.546875 C 11.859375 0.546875 10.597656 0.269531 9.421875 -0.28125 C 8.253906 -0.84375 7.265625 -1.671875 6.453125 -2.765625 Z M 12.578125 -17.140625 C 11.484375 -17.140625 10.445312 -16.84375 9.46875 -16.25 C 8.488281 -15.664062 7.695312 -14.816406 7.09375 -13.703125 C 6.5 -12.585938 6.203125 -11.375 6.203125 -10.0625 C 6.203125 -7.96875 6.796875 -6.191406 7.984375 -4.734375 C 9.171875 -3.285156 10.726562 -2.5625 12.65625 -2.5625 C 13.96875 -2.5625 15.125 -2.875 16.125 -3.5 C 17.132812 -4.125 17.90625 -5.007812 18.4375 -6.15625 C 18.96875 -7.300781 19.234375 -8.585938 19.234375 -10.015625 C 19.234375 -12.109375 18.617188 -13.816406 17.390625 -15.140625 C 16.160156 -16.472656 14.554688 -17.140625 12.578125 -17.140625 Z M 12.578125 -17.140625 "/></g></g></g><g fill="#000000" fill-opacity="1"><g transform="translate(266.902704, 487.329607)"><g><path d="M 6.453125 -2.765625 L 6.375 -2.765625 L 6.375 11.0625 L 3.015625 11.0625 L 3.015625 -19.703125 L 6.375 -19.703125 L 6.375 -16.890625 L 6.453125 -16.890625 C 7.265625 -17.972656 8.253906 -18.800781 9.421875 -19.375 C 10.597656 -19.945312 11.875 -20.234375 13.25 -20.234375 C 15 -20.234375 16.597656 -19.769531 18.046875 -18.84375 C 19.503906 -17.925781 20.640625 -16.664062 21.453125 -15.0625 C 22.265625 -13.457031 22.671875 -11.707031 22.671875 -9.8125 C 22.671875 -7.90625 22.28125 -6.148438 21.5 -4.546875 C 20.71875 -2.941406 19.59375 -1.691406 18.125 -0.796875 C 16.65625 0.0976562 15.015625 0.546875 13.203125 0.546875 C 11.859375 0.546875 10.597656 0.269531 9.421875 -0.28125 C 8.253906 -0.84375 7.265625 -1.671875 6.453125 -2.765625 Z M 12.578125 -17.140625 C 11.484375 -17.140625 10.445312 -16.84375 9.46875 -16.25 C 8.488281 -15.664062 7.695312 -14.816406 7.09375 -13.703125 C 6.5 -12.585938 6.203125 -11.375 6.203125 -10.0625 C 6.203125 -7.96875 6.796875 -6.191406 7.984375 -4.734375 C 9.171875 -3.285156 10.726562 -2.5625 12.65625 -2.5625 C 13.96875 -2.5625 15.125 -2.875 16.125 -3.5 C 17.132812 -4.125 17.90625 -5.007812 18.4375 -6.15625 C 18.96875 -7.300781 19.234375 -8.585938 19.234375 -10.015625 C 19.234375 -12.109375 18.617188 -13.816406 17.390625 -15.140625 C 16.160156 -16.472656 14.554688 -17.140625 12.578125 -17.140625 Z M 12.578125 -17.140625 "/></g></g></g><g fill="#000000" fill-opacity="1"><g transform="translate(291.083832, 487.329607)"><g><path d="M 6.453125 -34.578125 L 6.453125 0 L 3.09375 0 L 3.09375 -34.578125 Z M 6.453125 -34.578125 "/></g></g></g><g fill="#000000" fill-opacity="1"><g transform="translate(300.597037, 487.329607)"><g><path d="M 7.171875 -19.703125 L 7.171875 0 L 3.8125 0 L 3.8125 -19.703125 Z M 3.09375 -27.203125 C 3.09375 -27.816406 3.335938 -28.351562 3.828125 -28.8125 C 4.316406 -29.269531 4.867188 -29.5 5.484375 -29.5 C 6.128906 -29.5 6.6875 -29.269531 7.15625 -28.8125 C 7.632812 -28.351562 7.875 -27.816406 7.875 -27.203125 C 7.875 -26.472656 7.632812 -25.875 7.15625 -25.40625 C 6.6875 -24.945312 6.128906 -24.71875 5.484375 -24.71875 C 4.847656 -24.71875 4.289062 -24.941406 3.8125 -25.390625 C 3.332031 -25.835938 3.09375 -26.441406 3.09375 -27.203125 Z M 3.09375 -27.203125 "/></g></g></g><g fill="#000000" fill-opacity="1"><g transform="translate(311.577031, 487.329607)"><g><path d="M 17.8125 -13.828125 L 17.71875 -13.828125 C 17 -14.804688 16.113281 -15.601562 15.0625 -16.21875 C 14.019531 -16.832031 12.867188 -17.140625 11.609375 -17.140625 C 9.648438 -17.140625 8 -16.425781 6.65625 -15 C 5.320312 -13.570312 4.65625 -11.851562 4.65625 -9.84375 C 4.65625 -7.832031 5.296875 -6.113281 6.578125 -4.6875 C 7.859375 -3.269531 9.476562 -2.5625 11.4375 -2.5625 C 12.863281 -2.5625 14.085938 -2.859375 15.109375 -3.453125 C 16.128906 -4.054688 17.046875 -4.890625 17.859375 -5.953125 L 17.9375 -5.953125 L 17.9375 -1.46875 C 17.007812 -0.820312 16.03125 -0.328125 15 0.015625 C 13.96875 0.367188 12.863281 0.546875 11.6875 0.546875 C 9.820312 0.546875 8.070312 0.0976562 6.4375 -0.796875 C 4.800781 -1.691406 3.519531 -2.941406 2.59375 -4.546875 C 1.675781 -6.148438 1.21875 -7.914062 1.21875 -9.84375 C 1.21875 -11.664062 1.671875 -13.378906 2.578125 -14.984375 C 3.484375 -16.585938 4.757812 -17.863281 6.40625 -18.8125 C 8.0625 -19.757812 9.835938 -20.234375 11.734375 -20.234375 C 12.742188 -20.234375 13.726562 -20.09375 14.6875 -19.8125 C 15.65625 -19.539062 16.695312 -19.023438 17.8125 -18.265625 Z M 17.8125 -13.828125 "/></g></g></g><g fill="#000000" fill-opacity="1"><g transform="translate(331.52543, 487.329607)"><g><path d="M 17.8125 -16.890625 L 17.8125 -19.703125 L 21.15625 -19.703125 L 21.15625 0 L 17.8125 0 L 17.8125 -2.71875 L 17.71875 -2.71875 C 15.988281 -0.539062 13.726562 0.546875 10.9375 0.546875 C 8.195312 0.546875 5.941406 -0.457031 4.171875 -2.46875 C 2.398438 -4.476562 1.515625 -6.925781 1.515625 -9.8125 C 1.515625 -12.820312 2.40625 -15.3125 4.1875 -17.28125 C 5.976562 -19.25 8.242188 -20.234375 10.984375 -20.234375 C 12.347656 -20.234375 13.609375 -19.941406 14.765625 -19.359375 C 15.929688 -18.773438 16.914062 -17.953125 17.71875 -16.890625 Z M 11.359375 -17.140625 C 9.566406 -17.140625 8.046875 -16.453125 6.796875 -15.078125 C 5.554688 -13.710938 4.9375 -12.039062 4.9375 -10.0625 C 4.9375 -7.9375 5.546875 -6.15625 6.765625 -4.71875 C 7.984375 -3.28125 9.53125 -2.5625 11.40625 -2.5625 C 13.382812 -2.5625 14.972656 -3.242188 16.171875 -4.609375 C 17.378906 -5.972656 17.984375 -7.773438 17.984375 -10.015625 C 17.984375 -12.054688 17.367188 -13.753906 16.140625 -15.109375 C 14.910156 -16.460938 13.316406 -17.140625 11.359375 -17.140625 Z M 11.359375 -17.140625 "/></g></g></g><g fill="#000000" fill-opacity="1"><g transform="translate(355.706558, 487.329607)"><g><path d="M 6.703125 -26.78125 L 6.703125 -19.703125 L 10.21875 -19.703125 L 10.21875 -16.59375 L 6.703125 -16.59375 L 6.703125 0 L 3.359375 0 L 3.359375 -16.59375 L 1.296875 -16.59375 L 1.296875 -19.703125 L 3.359375 -19.703125 L 3.359375 -26.78125 Z M 6.703125 -26.78125 "/></g></g></g><g fill="#000000" fill-opacity="1"><g transform="translate(365.764563, 487.329607)"><g><path d="M 7.171875 -19.703125 L 7.171875 0 L 3.8125 0 L 3.8125 -19.703125 Z M 3.09375 -27.203125 C 3.09375 -27.816406 3.335938 -28.351562 3.828125 -28.8125 C 4.316406 -29.269531 4.867188 -29.5 5.484375 -29.5 C 6.128906 -29.5 6.6875 -29.269531 7.15625 -28.8125 C 7.632812 -28.351562 7.875 -27.816406 7.875 -27.203125 C 7.875 -26.472656 7.632812 -25.875 7.15625 -25.40625 C 6.6875 -24.945312 6.128906 -24.71875 5.484375 -24.71875 C 4.847656 -24.71875 4.289062 -24.941406 3.8125 -25.390625 C 3.332031 -25.835938 3.09375 -26.441406 3.09375 -27.203125 Z M 3.09375 -27.203125 "/></g></g></g><g fill="#000000" fill-opacity="1"><g transform="translate(376.744556, 487.329607)"><g><path d="M 1.421875 -9.8125 C 1.421875 -11.675781 1.878906 -13.414062 2.796875 -15.03125 C 3.722656 -16.65625 4.984375 -17.925781 6.578125 -18.84375 C 8.171875 -19.769531 9.90625 -20.234375 11.78125 -20.234375 C 13.644531 -20.234375 15.363281 -19.769531 16.9375 -18.84375 C 18.519531 -17.925781 19.78125 -16.664062 20.71875 -15.0625 C 21.65625 -13.457031 22.125 -11.707031 22.125 -9.8125 C 22.125 -7.9375 21.660156 -6.191406 20.734375 -4.578125 C 19.816406 -2.972656 18.5625 -1.71875 16.96875 -0.8125 C 15.375 0.09375 13.644531 0.546875 11.78125 0.546875 C 9.90625 0.546875 8.164062 0.0859375 6.5625 -0.828125 C 4.957031 -1.753906 3.695312 -3.019531 2.78125 -4.625 C 1.875 -6.238281 1.421875 -7.96875 1.421875 -9.8125 Z M 11.734375 -17.140625 C 9.753906 -17.140625 8.097656 -16.429688 6.765625 -15.015625 C 5.441406 -13.609375 4.78125 -11.882812 4.78125 -9.84375 C 4.78125 -8.332031 5.140625 -7 5.859375 -5.84375 C 6.585938 -4.6875 7.472656 -3.847656 8.515625 -3.328125 C 9.566406 -2.816406 10.65625 -2.5625 11.78125 -2.5625 C 13.0625 -2.5625 14.234375 -2.859375 15.296875 -3.453125 C 16.359375 -4.054688 17.203125 -4.921875 17.828125 -6.046875 C 18.460938 -7.179688 18.78125 -8.445312 18.78125 -9.84375 C 18.78125 -11.132812 18.492188 -12.335938 17.921875 -13.453125 C 17.347656 -14.566406 16.515625 -15.457031 15.421875 -16.125 C 14.328125 -16.800781 13.097656 -17.140625 11.734375 -17.140625 Z M 11.734375 -17.140625 "/></g></g></g><g fill="#000000" fill-opacity="1"><g transform="translate(400.297068, 487.329607)"><g><path d="M 18.9375 0 L 15.59375 0 L 15.59375 -11.484375 C 15.59375 -13.460938 15.289062 -14.898438 14.6875 -15.796875 C 14.082031 -16.691406 13 -17.140625 11.4375 -17.140625 C 9.65625 -17.140625 8.390625 -16.523438 7.640625 -15.296875 C 6.898438 -14.066406 6.53125 -12.195312 6.53125 -9.6875 L 6.53125 0 L 3.1875 0 L 3.1875 -19.703125 L 6.53125 -19.703125 L 6.53125 -17.3125 L 6.625 -17.3125 C 7.320312 -18.257812 8.125 -18.984375 9.03125 -19.484375 C 9.9375 -19.984375 11.003906 -20.234375 12.234375 -20.234375 C 14.441406 -20.234375 16.109375 -19.554688 17.234375 -18.203125 C 18.367188 -16.847656 18.9375 -14.75 18.9375 -11.90625 Z M 18.9375 0 "/></g></g></g><path fill="#ffffff" d="M 140.984375 189.488281 L 140.984375 198.382812 L 200.292969 198.382812 L 200.292969 189.488281 C 200.292969 177.882812 193.617188 167.832031 183.894531 162.96875 C 187.605469 159.460938 189.917969 154.488281 189.917969 148.984375 C 189.917969 138.347656 181.285156 129.71875 170.644531 129.71875 C 160.003906 129.71875 151.367188 138.347656 151.367188 148.984375 C 151.367188 154.488281 153.683594 159.460938 157.390625 162.96875 C 147.660156 167.832031 140.984375 177.882812 140.984375 189.488281 Z M 140.984375 189.488281 " fill-opacity="1" fill-rule="nonzero"/><path fill="#ffffff" d="M 309.039062 142.65625 L 222.050781 142.65625 C 219.09375 142.65625 216.699219 145.050781 216.699219 148.003906 C 216.699219 150.960938 219.09375 153.351562 222.050781 153.351562 L 309.039062 153.351562 C 311.996094 153.351562 314.390625 150.960938 314.390625 148.003906 C 314.378906 145.050781 311.988281 142.65625 309.039062 142.65625 Z M 309.039062 142.65625 " fill-opacity="1" fill-rule="nonzero"/><path fill="#ffffff" d="M 309.039062 176.738281 L 222.050781 176.738281 C 219.09375 176.738281 216.699219 179.128906 216.699219 182.085938 C 216.699219 185.039062 219.09375 187.433594 222.050781 187.433594 L 309.039062 187.433594 C 311.996094 187.433594 314.390625 185.039062 314.390625 182.085938 C 314.378906 179.128906 311.988281 176.738281 309.039062 176.738281 Z M 309.039062 176.738281 " fill-opacity="1" fill-rule="nonzero"/><path fill="#ffffff" d="M 309.039062 215.898438 L 144.445312 215.898438 C 141.488281 215.898438 139.09375 218.292969 139.09375 221.246094 C 139.09375 224.203125 141.488281 226.59375 144.445312 226.59375 L 309.039062 226.59375 C 311.996094 226.59375 314.390625 224.203125 314.390625 221.246094 C 314.378906 218.292969 311.988281 215.898438 309.039062 215.898438 Z M 309.039062 215.898438 " fill-opacity="1" fill-rule="nonzero"/><path fill="#ffffff" d="M 309.039062 250.820312 L 144.445312 250.820312 C 141.488281 250.820312 139.09375 253.210938 139.09375 256.167969 C 139.09375 259.121094 141.488281 261.515625 144.445312 261.515625 L 309.039062 261.515625 C 311.996094 261.515625 314.390625 259.121094 314.390625 256.167969 C 314.378906 253.210938 311.988281 250.820312 309.039062 250.820312 Z M 309.039062 250.820312 " fill-opacity="1" fill-rule="nonzero"/><path fill="#ffffff" d="M 314.378906 290.25 C 314.378906 287.292969 311.988281 284.902344 309.03125 284.902344 L 144.445312 284.902344 C 141.488281 284.902344 139.09375 287.292969 139.09375 290.25 C 139.09375 293.203125 141.488281 295.59375 144.445312 295.59375 L 309.039062 295.59375 C 311.988281 295.59375 314.378906 293.203125 314.378906 290.25 Z M 314.378906 290.25 " fill-opacity="1" fill-rule="nonzero"/><path fill="#ffffff" d="M 245.332031 360.613281 C 247.109375 362.511719 249.988281 362.847656 252.164062 361.425781 L 262.835938 354.4375 L 270.867188 362.5625 C 271.90625 363.609375 273.289062 364.152344 274.671875 364.152344 C 275.832031 364.152344 276.996094 363.777344 277.96875 363.015625 L 288.648438 354.652344 L 296.914062 362.648438 C 298.84375 364.519531 301.832031 364.636719 303.898438 363.046875 C 304.53125 363.933594 305.875 364.230469 306.824219 363.402344 L 328.621094 344.363281 C 329.691406 343.425781 329.460938 341.707031 328.175781 341.09375 L 307.714844 331.226562 C 306.4375 330.617188 304.945312 331.503906 304.875 332.917969 L 303.878906 354.523438 L 292.730469 343.742188 C 290.8125 341.882812 287.816406 341.726562 285.71875 343.375 L 275.117188 351.679688 L 267.363281 343.832031 C 265.574219 342.023438 262.757812 341.726562 260.628906 343.117188 L 257.96875 344.859375 C 257.5625 339.472656 255.269531 334.449219 251.402344 330.59375 C 247.128906 326.324219 241.445312 323.964844 235.390625 323.964844 C 229.339844 323.964844 223.652344 326.316406 219.378906 330.59375 C 215.109375 334.867188 212.746094 340.550781 212.746094 346.597656 C 212.746094 352.648438 215.097656 358.332031 219.378906 362.601562 C 221.46875 364.6875 224.847656 364.6875 226.9375 362.601562 C 229.023438 360.515625 229.023438 357.132812 226.9375 355.050781 C 224.679688 352.796875 223.433594 349.789062 223.433594 346.597656 C 223.433594 340.015625 228.796875 334.648438 235.390625 334.648438 C 241.988281 334.648438 247.347656 340.003906 247.347656 346.597656 C 247.347656 349.207031 246.527344 351.6875 244.964844 353.765625 C 243.402344 355.820312 243.558594 358.714844 245.332031 360.613281 Z M 245.332031 360.613281 " fill-opacity="1" fill-rule="nonzero"/><path fill="#ffffff" d="M 308.261719 325.574219 L 348.1875 242.808594 L 371.339844 253.964844 L 331.414062 336.730469 Z M 308.261719 325.574219 " fill-opacity="1" fill-rule="nonzero"/><g clip-path="url(#6ab198ddc6)"><path fill="#ffffff" d="M 344.542969 386.847656 C 344.542969 388.023438 343.585938 388.992188 342.398438 388.992188 L 120.96875 388.992188 C 119.789062 388.992188 118.820312 388.03125 118.820312 386.847656 L 118.820312 96.863281 C 118.820312 95.6875 119.78125 94.71875 120.96875 94.71875 L 174.351562 94.71875 L 174.351562 101.796875 C 174.351562 107.65625 179.109375 112.421875 184.984375 112.421875 L 278.402344 112.421875 C 284.265625 112.421875 289.035156 107.667969 289.035156 101.796875 L 289.035156 94.71875 L 342.417969 94.71875 C 343.59375 94.71875 344.5625 95.675781 344.5625 96.863281 L 344.5625 233.621094 L 362.523438 196.398438 L 362.523438 96.863281 C 362.523438 85.785156 353.503906 76.777344 342.429688 76.777344 L 289.042969 76.777344 L 289.042969 69.703125 C 289.042969 63.839844 284.285156 59.078125 278.410156 59.078125 L 262.785156 59.078125 C 259.1875 59.078125 256.070312 56.625 255.191406 53.144531 C 252.539062 42.648438 243.035156 34.878906 231.703125 34.878906 C 220.378906 34.878906 210.863281 42.648438 208.214844 53.144531 C 207.335938 56.625 204.21875 59.078125 200.621094 59.078125 L 184.992188 59.078125 C 179.128906 59.078125 174.363281 63.832031 174.363281 69.703125 L 174.363281 76.777344 L 120.96875 76.777344 C 109.882812 76.777344 100.871094 85.792969 100.871094 96.863281 L 100.871094 386.835938 C 100.871094 397.917969 109.890625 406.921875 120.96875 406.921875 L 342.398438 406.921875 C 353.484375 406.921875 362.492188 397.90625 362.492188 386.835938 L 362.492188 288.992188 L 344.535156 326.214844 L 344.535156 386.847656 Z M 231.683594 51.664062 C 238.785156 51.664062 244.53125 57.414062 244.53125 64.503906 C 244.53125 71.589844 238.773438 77.34375 231.683594 77.34375 C 224.59375 77.34375 218.835938 71.601562 218.835938 64.511719 C 218.835938 57.425781 224.59375 51.664062 231.683594 51.664062 Z M 231.683594 51.664062 " fill-opacity="1" fill-rule="nonzero"/></g><path fill="#ffffff" d="M 411.050781 171.628906 L 413.566406 166.417969 C 416.648438 160.035156 413.960938 152.355469 407.570312 149.269531 C 401.183594 146.1875 393.5 148.875 390.414062 155.257812 L 350.488281 238.03125 L 373.640625 249.1875 L 407.582031 178.832031 C 412.851562 181.796875 414.988281 188.410156 412.320312 193.9375 L 392.144531 235.757812 C 390.453125 236.203125 388.949219 237.347656 388.128906 239.046875 C 386.644531 242.121094 387.941406 245.808594 391.007812 247.292969 C 394.082031 248.773438 397.769531 247.480469 399.253906 244.414062 C 400.074219 242.714844 400.046875 240.828125 399.332031 239.226562 L 419.507812 197.40625 C 424.097656 187.90625 420.289062 176.511719 411.050781 171.628906 Z M 411.050781 171.628906 " fill-opacity="1" fill-rule="nonzero"/></svg>