<svg xmlns="http://www.w3.org/2000/svg" xmlns:xlink="http://www.w3.org/1999/xlink" version="1.1" width="1024" height="1024" viewBox="0 0 1024 1024" xml:space="preserve">
<desc>Created with Fabric.js 3.5.0</desc>
<defs>
</defs>
<rect x="0" y="0" width="100%" height="100%" fill="#fff"/>
<g transform="matrix(11.3877 0 0 10.9619 505.3168 438.476)" id="371772">
<g style="" vector-effect="non-scaling-stroke">
		<g transform="matrix(1 0 0 1 0.4282 0.6043)">
<linearGradient id="SVGID_1895" gradientUnits="userSpaceOnUse" gradientTransform="matrix(1 0 0 1 0 0)" x1="90.3376" y1="103.255" x2="20.2282" y2="16.1833">
<stop offset="0%" style="stop-color:rgb(218,227,254);stop-opacity: 1"/>
<stop offset="100%" style="stop-color:rgb(233,239,253);stop-opacity: 1"/>
</linearGradient>
<path style="stroke: none; stroke-width: 1; stroke-dasharray: none; stroke-linecap: butt; stroke-dashoffset: 0; stroke-linejoin: miter; stroke-miterlimit: 4; is-custom-font: none; font-file-url: none; fill: url(#SVGID_1895); fill-rule: nonzero; opacity: 1;" transform=" translate(-40.9282, -40.6044)" d="M 71.0499 68.917 C 69.4396 70.6125 67.9159 71.7056 66.7119 72.5696 C 52.5605 82.7233 35.8159 79.7636 32.2571 79.0407 C 27.0019 77.9733 16.8439 75.9102 9.49994 67.2739 C -1.61092 54.2073 0.119081 33.6219 8.73765 20.033 C 10.3142 17.5473 18.6414 3.75161 35.5665 1.53932 C 45.8094 0.200464 57.7494 2.90075 66.3959 10.145 C 84.5459 25.351 83.2536 56.0699 71.0502 68.9173 L 71.0499 68.917 Z" stroke-linecap="round"/>
</g>
		<g transform="matrix(1 0 0 1 -24.2171 -12.2912)">
<path style="stroke: none; stroke-width: 1; stroke-dasharray: none; stroke-linecap: butt; stroke-dashoffset: 0; stroke-linejoin: miter; stroke-miterlimit: 4; is-custom-font: none; font-file-url: none; fill: rgb(145,179,250); fill-rule: nonzero; opacity: 1;" transform=" translate(-16.2829, -27.7088)" d="M 5.08226 0.564987 C 4.95255 0.164987 5.41912 -0.163585 5.75598 0.0878439 C 9.17826 2.64013 17.5968 10.4916 17.4725 25.899 C 17.3168 45.2298 22.0794 51.7356 27.5057 55.4176 C 27.5057 55.4176 20.4891 54.1936 15.4151 47.6196 C 2.95684 31.4784 7.38626 7.67641 5.08226 0.564987 Z" stroke-linecap="round"/>
</g>
		<g transform="matrix(1 0 0 1 -23.8933 -9.8152)">
<path style="stroke: none; stroke-width: 1; stroke-dasharray: none; stroke-linecap: butt; stroke-dashoffset: 0; stroke-linejoin: miter; stroke-miterlimit: 4; is-custom-font: none; font-file-url: none; fill: rgb(189,208,251); fill-rule: nonzero; opacity: 1;" transform=" translate(-16.6067, -30.1848)" d="M 8.11255 6.25265 C 8.74055 8.33123 9.32741 10.4212 9.83712 12.5295 C 10.3577 14.6349 10.8143 16.7549 11.204 18.8864 C 11.5854 21.0189 11.9268 23.1584 12.1771 25.3092 C 12.4368 27.4589 12.604 29.6172 12.7643 31.7847 C 12.9366 33.9501 13.0977 36.1327 13.4828 38.3052 C 13.8651 40.4735 14.5126 42.6312 15.5348 44.6067 C 15.7903 45.0989 16.0557 45.5884 16.3471 46.0575 C 16.63 46.5321 16.9343 46.9944 17.2463 47.4509 C 17.8754 48.3612 18.566 49.2312 19.318 50.0461 C 20.8263 51.6721 22.5811 53.0672 24.4688 54.2021 C 24.6674 54.3215 24.9254 54.2572 25.0448 54.0587 C 25.1623 53.8635 25.1023 53.6115 24.912 53.4892 L 24.9105 53.4884 C 24.4594 53.1992 24.012 52.9055 23.5791 52.5927 C 23.3603 52.4398 23.1486 52.2772 22.934 52.1189 C 22.7257 51.9527 22.5106 51.7947 22.3077 51.6221 C 21.4843 50.9461 20.7091 50.2129 19.992 49.4261 C 18.5517 47.8612 17.338 46.0732 16.358 44.1878 C 15.8786 43.2392 15.4697 42.2572 15.138 41.2469 C 14.8068 40.2364 14.5531 39.1987 14.3583 38.1458 C 13.9683 36.0389 13.7908 33.8801 13.6031 31.7161 C 13.4126 29.5518 13.206 27.3781 12.9106 25.2164 C 12.7657 24.1352 12.6014 23.0569 12.418 21.9821 C 12.3294 21.4441 12.2303 20.9081 12.1323 20.3718 C 12.0291 19.8364 11.9228 19.3018 11.8126 18.7681 C 11.3666 16.6341 10.8557 14.5147 10.2788 12.4144 C 9.6917 10.3169 9.04912 8.2358 8.32741 6.18265 C 8.30684 6.12408 8.24255 6.09323 8.1837 6.1138 C 8.12684 6.1338 8.09598 6.19523 8.11312 6.25265 H 8.11255 Z" stroke-linecap="round"/>
</g>
		<g transform="matrix(1 0 0 1 -29.4843 5.5749)">
<path style="stroke: none; stroke-width: 1; stroke-dasharray: none; stroke-linecap: butt; stroke-dashoffset: 0; stroke-linejoin: miter; stroke-miterlimit: 4; is-custom-font: none; font-file-url: none; fill: rgb(125,151,244); fill-rule: nonzero; opacity: 1;" transform=" translate(-11.0157, -45.5749)" d="M 21.2397 68.3201 C 21.1054 69.0829 20.2354 69.4606 19.5808 69.0466 C 15.9683 66.7615 6.33882 59.3772 4.59568 44.7246 C 3.12339 32.3509 1.14939 25.7812 0.0465358 22.8609 C -0.186607 22.2435 0.503964 21.6872 1.05825 22.0455 C 7.17454 25.9989 26.1088 40.6746 21.2397 68.3201 Z" stroke-linecap="round"/>
</g>
		<g transform="matrix(1 0 0 1 -26.9852 11.6988)">
<path style="stroke: none; stroke-width: 1; stroke-dasharray: none; stroke-linecap: butt; stroke-dashoffset: 0; stroke-linejoin: miter; stroke-miterlimit: 4; is-custom-font: none; font-file-url: none; fill: rgb(145,179,250); fill-rule: nonzero; opacity: 1;" transform=" translate(-13.5149, -51.6989)" d="M 20.2079 68.5067 C 20.1939 68.5198 20.1785 68.5318 20.1619 68.5427 C 20.021 68.6324 19.8339 68.5907 19.7445 68.4495 C 19.643 68.2898 9.55561 52.2718 6.73161 35.1595 C 6.70447 34.995 6.8159 34.8392 6.98075 34.8118 C 7.14561 34.7847 7.30132 34.8961 7.32847 35.061 C 10.1319 52.0487 20.1542 67.9661 20.255 68.1249 C 20.3339 68.2492 20.311 68.4089 20.2082 68.5064 L 20.2079 68.5067 Z" stroke-linecap="round"/>
</g>
		<g transform="matrix(1 0 0 1 0.7451 -1.2484)">
<linearGradient id="SVGID_1896" gradientUnits="userSpaceOnUse" gradientTransform="matrix(1 0 0 1 0 0)" x1="-34.753" y1="99.9266" x2="55.6119" y2="26.6267">
<stop offset="0%" style="stop-color:rgb(9,0,93);stop-opacity: 1"/>
<stop offset="100%" style="stop-color:rgb(26,15,145);stop-opacity: 1"/>
</linearGradient>
<path style="stroke: none; stroke-width: 1; stroke-dasharray: none; stroke-linecap: butt; stroke-dashoffset: 0; stroke-linejoin: miter; stroke-miterlimit: 4; is-custom-font: none; font-file-url: none; fill: url(#SVGID_1896); fill-rule: nonzero; opacity: 1;" transform=" translate(-41.2451, -38.7516)" d="M 19.4327 1.59866 C 17.4796 1.76837 15.9822 3.40437 15.9765 5.36466 C 15.9425 17.3541 15.8865 58.7087 16.6679 73.3458 C 16.7507 74.8964 18.0219 76.1147 19.5747 76.1315 C 27.255 76.2141 49.3467 76.3661 61.8885 75.5638 C 64.5007 75.3967 66.5333 73.2332 66.5302 70.6155 C 66.515 58.0321 66.3139 22.6438 64.5902 6.46809 C 64.3836 4.53009 62.8256 3.01723 60.8825 2.8658 C 52.5059 2.21323 30.2622 0.65666 19.4325 1.59837 L 19.4327 1.59866 Z" stroke-linecap="round"/>
</g>
		<g transform="matrix(1 0 0 1 0.4279 -2.9786)">
<linearGradient id="SVGID_1897" gradientUnits="userSpaceOnUse" gradientTransform="matrix(1 0 0 1 0 0)" x1="5.73717" y1="86.6584" x2="45.49" y2="29.8407">
<stop offset="0%" style="stop-color:rgb(254,187,186);stop-opacity: 1"/>
<stop offset="100%" style="stop-color:rgb(255,146,142);stop-opacity: 1"/>
</linearGradient>
<path style="stroke: none; stroke-width: 1; stroke-dasharray: none; stroke-linecap: butt; stroke-dashoffset: 0; stroke-linejoin: miter; stroke-miterlimit: 4; is-custom-font: none; font-file-url: none; fill: url(#SVGID_1897); fill-rule: nonzero; opacity: 1;" transform=" translate(-40.9279, -37.0214)" d="M 19.0589 8.50695 C 18.908 18.7629 18.4786 52.8798 19.2283 65.4718 C 19.3377 67.3124 20.7675 68.7652 22.5329 68.8269 C 29.8012 69.0804 48.4392 69.5704 59.0597 68.4018 C 60.972 68.1915 62.4337 66.5338 62.4846 64.5267 C 62.7503 54.0607 63.4677 22.2847 62.7392 9.83352 C 62.6229 7.84724 61.1055 6.26238 59.2032 6.13409 C 51.3335 5.60381 31.1249 4.38095 22.0937 5.13295 C 20.3983 5.27409 19.0852 6.73152 19.0592 8.50724 L 19.0589 8.50695 Z" stroke-linecap="round"/>
</g>
		<g transform="matrix(1 0 0 1 0.2013 -36.5378)">
<linearGradient id="SVGID_1898" gradientUnits="userSpaceOnUse" gradientTransform="matrix(1 0 0 1 0 0)" x1="47.9148" y1="-28.9625" x2="42.0973" y2="-2.78363">
<stop offset="0%" style="stop-color:rgb(64,66,226);stop-opacity: 1"/>
<stop offset="100%" style="stop-color:rgb(79,82,255);stop-opacity: 1"/>
</linearGradient>
<path style="stroke: none; stroke-width: 1; stroke-dasharray: none; stroke-linecap: butt; stroke-dashoffset: 0; stroke-linejoin: miter; stroke-miterlimit: 4; is-custom-font: none; font-file-url: none; fill: url(#SVGID_1898); fill-rule: nonzero; opacity: 1;" transform=" translate(-40.7013, -3.4621)" d="M 36.6199 3.38179 C 36.6262 3.66522 36.8522 3.89408 37.1353 3.90265 C 38.5339 3.94522 42.4736 4.06579 44.2345 4.12922 C 44.5816 4.14179 44.847 3.82408 44.7736 3.48437 C 44.7676 3.47379 44.7225 3.03837 44.2779 3.00722 C 43.0868 2.92437 39.493 2.70122 37.1182 2.83808 C 36.6305 2.86608 36.6039 3.42094 36.6199 3.38179 Z" stroke-linecap="round"/>
</g>
		<g transform="matrix(1 0 0 1 -9.5807 -18.0673)">
<path style="stroke: none; stroke-width: 1; stroke-dasharray: none; stroke-linecap: butt; stroke-dashoffset: 0; stroke-linejoin: miter; stroke-miterlimit: 4; is-custom-font: none; font-file-url: none; fill: rgb(255,255,255); fill-rule: nonzero; opacity: 0.8;" transform=" translate(-30.9193, -21.9327)" d="M 30.9193 31.4653 C 36.184 31.4653 40.4519 27.1974 40.4519 21.9327 C 40.4519 16.668 36.184 12.4001 30.9193 12.4001 C 25.6546 12.4001 21.3867 16.668 21.3867 21.9327 C 21.3867 27.1974 25.6546 31.4653 30.9193 31.4653 Z" stroke-linecap="round"/>
</g>
		<g transform="matrix(1 0 0 1 -9.5431 -20.2349)">
<linearGradient id="SVGID_1899" gradientUnits="userSpaceOnUse" gradientTransform="matrix(1 0 0 1 0 0)" x1="22.6743" y1="48.3862" x2="42.2597" y2="-19.2907">
<stop offset="0%" style="stop-color:rgb(254,112,98);stop-opacity: 1"/>
<stop offset="100%" style="stop-color:rgb(255,146,142);stop-opacity: 1"/>
</linearGradient>
<path style="stroke: none; stroke-width: 1; stroke-dasharray: none; stroke-linecap: butt; stroke-dashoffset: 0; stroke-linejoin: miter; stroke-miterlimit: 4; is-custom-font: none; font-file-url: none; fill: url(#SVGID_1899); fill-rule: nonzero; opacity: 1;" transform=" translate(-30.9569, -19.7651)" d="M 34.5482 20.7361 C 35.0845 18.7527 33.9114 16.71 31.9279 16.1738 C 29.9445 15.6375 27.9018 16.8106 27.3656 18.7941 C 26.8293 20.7775 28.0024 22.8201 29.9859 23.3564 C 31.9693 23.8927 34.0119 22.7195 34.5482 20.7361 Z" stroke-linecap="round"/>
</g>
		<g transform="matrix(1 0 0 1 -9.2899 -12.1083)">
<linearGradient id="SVGID_1900" gradientUnits="userSpaceOnUse" gradientTransform="matrix(1 0 0 1 0 0)" x1="25.5962" y1="49.2324" x2="45.1816" y2="-18.4445">
<stop offset="0%" style="stop-color:rgb(254,112,98);stop-opacity: 1"/>
<stop offset="100%" style="stop-color:rgb(255,146,142);stop-opacity: 1"/>
</linearGradient>
<path style="stroke: none; stroke-width: 1; stroke-dasharray: none; stroke-linecap: butt; stroke-dashoffset: 0; stroke-linejoin: miter; stroke-miterlimit: 4; is-custom-font: none; font-file-url: none; fill: url(#SVGID_1900); fill-rule: nonzero; opacity: 1;" transform=" translate(-31.2102, -27.8916)" d="M 25.305 30.9364 H 37.1579 C 37.8844 30.9364 38.3199 29.9972 37.9287 29.2806 C 36.9219 27.4369 34.8156 24.7286 31.1676 24.8509 C 27.6516 24.9686 25.5676 27.4152 24.5199 29.1698 C 24.075 29.9146 24.5287 30.9364 25.3053 30.9364 H 25.305 Z" stroke-linecap="round"/>
</g>
		<g transform="matrix(1 0 0 1 -1.0909 21.7449)">
<linearGradient id="SVGID_1901" gradientUnits="userSpaceOnUse" gradientTransform="matrix(1 0 0 1 0 0)" x1="46.8096" y1="31.1464" x2="35.6864" y2="77.1364">
<stop offset="0%" style="stop-color:rgb(225,71,61);stop-opacity: 1"/>
<stop offset="100%" style="stop-color:rgb(233,96,90);stop-opacity: 1"/>
</linearGradient>
<path style="stroke: none; stroke-width: 1; stroke-dasharray: none; stroke-linecap: butt; stroke-dashoffset: 0; stroke-linejoin: miter; stroke-miterlimit: 4; is-custom-font: none; font-file-url: none; fill: url(#SVGID_1901); fill-rule: nonzero; opacity: 1;" transform=" translate(-39.4091, -61.745)" d="M 33.4805 59.3541 H 45.3376 C 45.7264 59.3541 46.0422 59.6698 46.0422 60.0587 V 63.4313 C 46.0422 63.8201 45.7264 64.1358 45.3376 64.1358 H 33.4805 C 33.0916 64.1358 32.7759 63.8201 32.7759 63.4313 V 60.0587 C 32.7759 59.6698 33.0916 59.3541 33.4805 59.3541 Z" stroke-linecap="round"/>
</g>
		<g transform="matrix(1 0 0 1 0.338 0.7239)">
<path style="stroke: none; stroke-width: 1; stroke-dasharray: none; stroke-linecap: butt; stroke-dashoffset: 0; stroke-linejoin: miter; stroke-miterlimit: 4; is-custom-font: none; font-file-url: none; fill: rgb(255,255,255); fill-rule: nonzero; opacity: 0.64;" transform=" translate(-40.838, -40.7239)" d="M 27.4634 39.4076 H 54.2126 C 54.4257 39.4076 54.5989 39.5807 54.5989 39.7939 V 41.6539 C 54.5989 41.867 54.4257 42.0402 54.2126 42.0402 H 27.4634 C 27.2503 42.0402 27.0771 41.867 27.0771 41.6539 V 39.7939 C 27.0771 39.5807 27.2503 39.4076 27.4634 39.4076 Z" stroke-linecap="round"/>
</g>
		<g transform="matrix(1 0 0 1 -16.9533 0.7159)">
<path style="stroke: none; stroke-width: 1; stroke-dasharray: none; stroke-linecap: butt; stroke-dashoffset: 0; stroke-linejoin: miter; stroke-miterlimit: 4; is-custom-font: none; font-file-url: none; fill: rgb(255,255,255); fill-rule: nonzero; opacity: 0.64;" transform=" translate(-23.5467, -40.7159)" d="M 23.5467 42.3119 C 24.4281 42.3119 25.1427 41.5973 25.1427 40.7159 C 25.1427 39.8344 24.4281 39.1199 23.5467 39.1199 C 22.6652 39.1199 21.9507 39.8344 21.9507 40.7159 C 21.9507 41.5973 22.6652 42.3119 23.5467 42.3119 Z" stroke-linecap="round"/>
</g>
		<g transform="matrix(1 0 0 1 0.338 5.6642)">
<path style="stroke: none; stroke-width: 1; stroke-dasharray: none; stroke-linecap: butt; stroke-dashoffset: 0; stroke-linejoin: miter; stroke-miterlimit: 4; is-custom-font: none; font-file-url: none; fill: rgb(255,255,255); fill-rule: nonzero; opacity: 0.64;" transform=" translate(-40.838, -45.6642)" d="M 27.4634 44.3479 H 54.2126 C 54.4257 44.3479 54.5989 44.521 54.5989 44.7342 V 46.5942 C 54.5989 46.8073 54.4257 46.9805 54.2126 46.9805 H 27.4634 C 27.2503 46.9805 27.0771 46.8073 27.0771 46.5942 V 44.7342 C 27.0771 44.521 27.2503 44.3479 27.4634 44.3479 Z" stroke-linecap="round"/>
</g>
		<g transform="matrix(1 0 0 1 -16.9526 5.6582)">
<path style="stroke: none; stroke-width: 1; stroke-dasharray: none; stroke-linecap: butt; stroke-dashoffset: 0; stroke-linejoin: miter; stroke-miterlimit: 4; is-custom-font: none; font-file-url: none; fill: rgb(255,255,255); fill-rule: nonzero; opacity: 0.64;" transform=" translate(-23.5474, -45.6583)" d="M 25.1228 45.914 C 25.264 45.0439 24.6732 44.2241 23.8031 44.0829 C 22.9331 43.9416 22.1133 44.5325 21.972 45.4025 C 21.8308 46.2726 22.4216 47.0924 23.2917 47.2336 C 24.1617 47.3749 24.9816 46.784 25.1228 45.914 Z" stroke-linecap="round"/>
</g>
		<g transform="matrix(1 0 0 1 0.338 10.6044)">
<path style="stroke: none; stroke-width: 1; stroke-dasharray: none; stroke-linecap: butt; stroke-dashoffset: 0; stroke-linejoin: miter; stroke-miterlimit: 4; is-custom-font: none; font-file-url: none; fill: rgb(255,255,255); fill-rule: nonzero; opacity: 0.64;" transform=" translate(-40.838, -50.6044)" d="M 27.4634 49.2881 H 54.2126 C 54.4257 49.2881 54.5989 49.4612 54.5989 49.6744 V 51.5344 C 54.5989 51.7475 54.4257 51.9207 54.2126 51.9207 H 27.4634 C 27.2503 51.9207 27.0771 51.7475 27.0771 51.5344 V 49.6744 C 27.0771 49.4612 27.2503 49.2881 27.4634 49.2881 Z" stroke-linecap="round"/>
</g>
		<g transform="matrix(1 0 0 1 -16.9533 10.5964)">
<path style="stroke: none; stroke-width: 1; stroke-dasharray: none; stroke-linecap: butt; stroke-dashoffset: 0; stroke-linejoin: miter; stroke-miterlimit: 4; is-custom-font: none; font-file-url: none; fill: rgb(255,255,255); fill-rule: nonzero; opacity: 0.64;" transform=" translate(-23.5467, -50.5964)" d="M 23.5467 52.1924 C 24.4281 52.1924 25.1427 51.4778 25.1427 50.5964 C 25.1427 49.7149 24.4281 49.0004 23.5467 49.0004 C 22.6652 49.0004 21.9507 49.7149 21.9507 50.5964 C 21.9507 51.4778 22.6652 52.1924 23.5467 52.1924 Z" stroke-linecap="round"/>
</g>
		<g transform="matrix(1 0 0 1 0.338 15.5444)">
<path style="stroke: none; stroke-width: 1; stroke-dasharray: none; stroke-linecap: butt; stroke-dashoffset: 0; stroke-linejoin: miter; stroke-miterlimit: 4; is-custom-font: none; font-file-url: none; fill: rgb(255,255,255); fill-rule: nonzero; opacity: 0.64;" transform=" translate(-40.838, -55.5444)" d="M 27.4634 54.2281 H 54.2126 C 54.4257 54.2281 54.5989 54.4013 54.5989 54.6144 V 56.4744 C 54.5989 56.6876 54.4257 56.8607 54.2126 56.8607 H 27.4634 C 27.2503 56.8607 27.0771 56.6876 27.0771 56.4744 V 54.6144 C 27.0771 54.4013 27.2503 54.2281 27.4634 54.2281 Z" stroke-linecap="round"/>
</g>
		<g transform="matrix(1 0 0 1 -16.9533 15.5367)">
<path style="stroke: none; stroke-width: 1; stroke-dasharray: none; stroke-linecap: butt; stroke-dashoffset: 0; stroke-linejoin: miter; stroke-miterlimit: 4; is-custom-font: none; font-file-url: none; fill: rgb(255,255,255); fill-rule: nonzero; opacity: 0.64;" transform=" translate(-23.5467, -55.5367)" d="M 23.5467 57.1327 C 24.4281 57.1327 25.1427 56.4181 25.1427 55.5367 C 25.1427 54.6552 24.4281 53.9407 23.5467 53.9407 C 22.6652 53.9407 21.9507 54.6552 21.9507 55.5367 C 21.9507 56.4181 22.6652 57.1327 23.5467 57.1327 Z" stroke-linecap="round"/>
</g>
		<g transform="matrix(1 0 0 1 -7.6532 -4.4216)">
<path style="stroke: none; stroke-width: 1; stroke-dasharray: none; stroke-linecap: butt; stroke-dashoffset: 0; stroke-linejoin: miter; stroke-miterlimit: 4; is-custom-font: none; font-file-url: none; fill: rgb(255,255,255); fill-rule: nonzero; opacity: 0.8;" transform=" translate(-32.8468, -35.5784)" d="M 43.3375 34.2621 H 22.356 C 22.1667 34.2621 22.0132 34.4156 22.0132 34.6049 V 36.5518 C 22.0132 36.7412 22.1667 36.8947 22.356 36.8947 H 43.3375 C 43.5268 36.8947 43.6803 36.7412 43.6803 36.5518 V 34.6049 C 43.6803 34.4156 43.5268 34.2621 43.3375 34.2621 Z" stroke-linecap="round"/>
</g>
		<g transform="matrix(1 0 0 1 14.4427 -22.3135)">
<linearGradient id="SVGID_1902" gradientUnits="userSpaceOnUse" gradientTransform="matrix(1 0 0 1 0 0)" x1="93.0788" y1="-41.7171" x2="76.2082" y2="-16.7019">
<stop offset="0%" style="stop-color:rgb(64,66,226);stop-opacity: 1"/>
<stop offset="100%" style="stop-color:rgb(79,82,255);stop-opacity: 1"/>
</linearGradient>
<path style="stroke: none; stroke-width: 1; stroke-dasharray: none; stroke-linecap: butt; stroke-dashoffset: 0; stroke-linejoin: miter; stroke-miterlimit: 4; is-custom-font: none; font-file-url: none; fill: url(#SVGID_1902); fill-rule: nonzero; opacity: 1;" transform=" translate(-54.9428, -17.6865)" d="M 67.5622 10.3509 C 67.5059 9.48007 66.9799 8.70836 66.1913 8.33407 L 55.9768 3.48293 C 55.3225 3.17236 54.5633 3.17236 53.9093 3.48293 L 43.6948 8.33407 C 42.9065 8.70864 42.3805 9.48007 42.3239 10.3509 C 41.3659 25.1612 50.8619 30.5572 53.9748 31.9204 C 54.5922 32.1906 55.2936 32.1906 55.9108 31.9204 C 59.0236 30.5572 68.5199 25.1609 67.5616 10.3509 H 67.5622 Z" stroke-linecap="round"/>
</g>
		<g transform="matrix(1 0 0 1 12.5602 -35.1916)">
<path style="stroke: none; stroke-width: 1; stroke-dasharray: none; stroke-linecap: butt; stroke-dashoffset: 0; stroke-linejoin: miter; stroke-miterlimit: 4; is-custom-font: none; font-file-url: none; fill: rgb(145,179,250); fill-rule: nonzero; opacity: 1;" transform=" translate(-53.0602, -4.8084)" d="M 51.8536 5.52704 C 51.799 5.52704 51.747 5.49647 51.7222 5.44389 C 51.6876 5.37132 51.7185 5.28447 51.791 5.25018 L 54.2045 4.10389 C 54.277 4.06932 54.3639 4.10018 54.3982 4.17275 C 54.4328 4.24532 54.4019 4.33218 54.3293 4.36647 L 51.9159 5.51275 C 51.8956 5.52218 51.8745 5.52675 51.8536 5.52675 V 5.52704 Z" stroke-linecap="round"/>
</g>
		<g transform="matrix(1 0 0 1 6.5069 -30.4009)">
<path style="stroke: none; stroke-width: 1; stroke-dasharray: none; stroke-linecap: butt; stroke-dashoffset: 0; stroke-linejoin: miter; stroke-miterlimit: 4; is-custom-font: none; font-file-url: none; fill: rgb(145,179,250); fill-rule: nonzero; opacity: 1;" transform=" translate(-47.0068, -9.599)" d="M 43.1054 13.5207 C 43.0274 13.5207 42.9628 13.4587 42.9603 13.3801 C 42.928 12.4167 42.9448 11.4127 43.0105 10.3953 C 43.0508 9.77497 43.426 9.22297 43.99 8.95497 L 50.8614 5.69154 C 50.934 5.65697 51.0208 5.68783 51.0551 5.7604 C 51.0897 5.83297 51.0588 5.91983 50.9863 5.95411 L 44.1148 9.21754 C 43.646 9.44011 43.3343 9.89868 43.3008 10.4138 C 43.2357 11.4215 43.2188 12.4164 43.2508 13.3701 C 43.2537 13.4504 43.1905 13.5178 43.1105 13.5204 C 43.1088 13.5204 43.1071 13.5204 43.1054 13.5204 V 13.5207 Z" stroke-linecap="round"/>
</g>
		<g transform="matrix(1 0 0 1 14.4424 -22.3102)">
<linearGradient id="SVGID_1903" gradientUnits="userSpaceOnUse" gradientTransform="matrix(1 0 0 1 0 0)" x1="78.7569" y1="-31.3339" x2="69.0612" y2="-12.7179">
<stop offset="0%" style="stop-color:rgb(9,0,93);stop-opacity: 1"/>
<stop offset="100%" style="stop-color:rgb(26,15,145);stop-opacity: 1"/>
</linearGradient>
<path style="stroke: none; stroke-width: 1; stroke-dasharray: none; stroke-linecap: butt; stroke-dashoffset: 0; stroke-linejoin: miter; stroke-miterlimit: 4; is-custom-font: none; font-file-url: none; fill: url(#SVGID_1903); fill-rule: nonzero; opacity: 1;" transform=" translate(-54.9425, -17.6898)" d="M 65.092 10.9289 C 65.0809 10.7081 64.9492 10.5109 64.7495 10.4161 L 55.2006 5.88095 C 55.0375 5.80352 54.8483 5.80352 54.6852 5.88095 L 45.1363 10.4161 C 44.9366 10.5109 44.8052 10.7081 44.7937 10.9289 C 44.5115 16.4535 45.7875 21.0632 48.5892 24.6358 C 50.7252 27.3598 53.224 28.8195 54.6883 29.5004 C 54.8497 29.5755 55.0352 29.5755 55.1966 29.5004 C 56.6609 28.8192 59.1597 27.3595 61.2957 24.6358 C 64.0975 21.0629 65.3737 16.4535 65.0912 10.9289 H 65.092 Z" stroke-linecap="round"/>
</g>
		<g transform="matrix(1 0 0 1 13.7674 -22.5412)">
<linearGradient id="SVGID_1904" gradientUnits="userSpaceOnUse" gradientTransform="matrix(1 0 0 1 0 0)" x1="51.4758" y1="27.7436" x2="55.5481" y2="9.70957">
<stop offset="0%" style="stop-color:rgb(225,71,61);stop-opacity: 1"/>
<stop offset="100%" style="stop-color:rgb(233,96,90);stop-opacity: 1"/>
</linearGradient>
<path style="stroke: none; stroke-width: 1; stroke-dasharray: none; stroke-linecap: butt; stroke-dashoffset: 0; stroke-linejoin: miter; stroke-miterlimit: 4; is-custom-font: none; font-file-url: none; fill: url(#SVGID_1904); fill-rule: nonzero; opacity: 1;" transform=" translate(-54.2673, -17.4588)" d="M 48.8795 16.9844 C 49.6689 16.4953 50.7063 16.7507 51.1783 17.5507 L 53.3981 21.3133 C 53.6203 21.6899 54.1769 21.6524 54.3463 21.2493 L 59.3401 9.37357 C 59.5892 8.781 60.4666 8.95814 60.4726 9.60071 C 60.5055 13.1959 59.7166 20.0496 54.1126 25.9059 C 54.1126 25.9059 50.9186 24.7521 48.2355 19.2181 C 47.8481 18.4187 48.1246 17.4524 48.8798 16.9844 H 48.8795 Z" stroke-linecap="round"/>
</g>
		<g transform="matrix(1 0 0 1 25.8937 37.8556)">
<linearGradient id="SVGID_1905" gradientUnits="userSpaceOnUse" gradientTransform="matrix(1 0 0 1 0 0)" x1="63.6506" y1="74.9463" x2="81.3077" y2="94.1523">
<stop offset="0%" style="stop-color:rgb(64,66,226);stop-opacity: 1"/>
<stop offset="100%" style="stop-color:rgb(79,82,255);stop-opacity: 1"/>
</linearGradient>
<path style="stroke: none; stroke-width: 1; stroke-dasharray: none; stroke-linecap: butt; stroke-dashoffset: 0; stroke-linejoin: miter; stroke-miterlimit: 4; is-custom-font: none; font-file-url: none; fill: url(#SVGID_1905); fill-rule: nonzero; opacity: 1;" transform=" translate(-66.3937, -77.8556)" d="M 69.2323 76.3772 C 69.2323 76.3772 69.4151 77.4123 69.5049 78.4372 C 69.54 78.8378 69.2311 79.1855 68.8294 79.2021 C 67.4649 79.2589 64.5457 79.3695 63.4983 79.3226 C 63.3409 79.3155 63.238 79.1543 63.2963 79.0081 C 63.3451 78.8852 63.4394 78.7861 63.5594 78.7309 L 68.3811 76.5149 L 69.2326 76.3772 H 69.2323 Z" stroke-linecap="round"/>
</g>
		<g transform="matrix(1 0 0 1 28.0976 36.3731)">
<linearGradient id="SVGID_1906" gradientUnits="userSpaceOnUse" gradientTransform="matrix(1 0 0 1 0 0)" x1="69.3818" y1="76.373" x2="67.8132" y2="76.373">
<stop offset="0%" style="stop-color:rgb(255,146,142);stop-opacity: 1"/>
<stop offset="100%" style="stop-color:rgb(254,179,177);stop-opacity: 1"/>
</linearGradient>
<path style="stroke: none; stroke-width: 1; stroke-dasharray: none; stroke-linecap: butt; stroke-dashoffset: 0; stroke-linejoin: miter; stroke-miterlimit: 4; is-custom-font: none; font-file-url: none; fill: url(#SVGID_1906); fill-rule: nonzero; opacity: 1;" transform=" translate(-68.5977, -76.3731)" d="M 69.3818 75.769 L 69.2349 77.0073 C 69.2349 77.0073 68.3903 77.4005 67.8135 76.9579 L 68.1632 75.5779 L 69.3818 75.769 Z" stroke-linecap="round"/>
</g>
		<g transform="matrix(1 0 0 1 30.008 24.3802)">
<linearGradient id="SVGID_1907" gradientUnits="userSpaceOnUse" gradientTransform="matrix(1 0 0 1 0 0)" x1="73.1007" y1="64.3804" x2="67.915" y2="64.3804">
<stop offset="0%" style="stop-color:rgb(9,0,93);stop-opacity: 1"/>
<stop offset="100%" style="stop-color:rgb(26,15,145);stop-opacity: 1"/>
</linearGradient>
<path style="stroke: none; stroke-width: 1; stroke-dasharray: none; stroke-linecap: butt; stroke-dashoffset: 0; stroke-linejoin: miter; stroke-miterlimit: 4; is-custom-font: none; font-file-url: none; fill: url(#SVGID_1907); fill-rule: nonzero; opacity: 1;" transform=" translate(-70.508, -64.3802)" d="M 69.2716 52.4895 C 69.335 52.813 69.6121 68.6261 67.9218 75.7124 C 67.8941 75.8281 67.953 75.9473 68.063 75.9921 C 68.3221 76.0981 68.8304 76.2515 69.4396 76.2718 C 69.6281 76.2781 69.7973 76.1555 69.8504 75.9744 C 70.3336 74.3304 72.649 66.0927 72.951 58.2233 C 73.2884 49.4301 72.951 57.9238 72.951 57.9238 L 72.753 52.4884 L 69.2716 52.489 V 52.4895 Z" stroke-linecap="round"/>
</g>
		<g transform="matrix(1 0 0 1 33.6023 38.1797)">
<linearGradient id="SVGID_1908" gradientUnits="userSpaceOnUse" gradientTransform="matrix(1 0 0 1 0 0)" x1="67.6117" y1="71.3047" x2="85.2688" y2="90.511">
<stop offset="0%" style="stop-color:rgb(64,66,226);stop-opacity: 1"/>
<stop offset="100%" style="stop-color:rgb(79,82,255);stop-opacity: 1"/>
</linearGradient>
<path style="stroke: none; stroke-width: 1; stroke-dasharray: none; stroke-linecap: butt; stroke-dashoffset: 0; stroke-linejoin: miter; stroke-miterlimit: 4; is-custom-font: none; font-file-url: none; fill: url(#SVGID_1908); fill-rule: nonzero; opacity: 1;" transform=" translate(-74.1024, -78.1797)" d="M 74.7788 76.9172 C 74.7788 76.9172 75.07 77.4398 75.3517 78.8287 C 75.4025 79.0795 75.2274 79.3195 74.9725 79.3447 C 74.522 79.3889 73.8283 79.4458 73.2725 79.4421 C 73.0163 79.4404 72.8165 79.2172 72.8474 78.9629 C 72.9088 78.4561 73.1008 77.6244 73.6931 76.9761 L 74.7788 76.9172 Z" stroke-linecap="round"/>
</g>
		<g transform="matrix(1 0 0 1 33.8573 36.2927)">
<linearGradient id="SVGID_1909" gradientUnits="userSpaceOnUse" gradientTransform="matrix(1 0 0 1 0 0)" x1="75.0342" y1="76.2925" x2="73.6802" y2="76.2925">
<stop offset="0%" style="stop-color:rgb(255,146,142);stop-opacity: 1"/>
<stop offset="100%" style="stop-color:rgb(254,179,177);stop-opacity: 1"/>
</linearGradient>
<path style="stroke: none; stroke-width: 1; stroke-dasharray: none; stroke-linecap: butt; stroke-dashoffset: 0; stroke-linejoin: miter; stroke-miterlimit: 4; is-custom-font: none; font-file-url: none; fill: url(#SVGID_1909); fill-rule: nonzero; opacity: 1;" transform=" translate(-74.3573, -76.2927)" d="M 75.0345 75.3248 L 74.691 77.1974 C 74.691 77.1974 74.3516 77.45 73.6802 77.2668 L 73.8439 75.252 L 75.0342 75.3248 H 75.0345 Z" stroke-linecap="round"/>
</g>
		<g transform="matrix(1 0 0 1 32.3133 24.2106)">
<linearGradient id="SVGID_1910" gradientUnits="userSpaceOnUse" gradientTransform="matrix(1 0 0 1 0 0)" x1="76.494" y1="64.2107" x2="69.1318" y2="64.2107">
<stop offset="0%" style="stop-color:rgb(9,0,93);stop-opacity: 1"/>
<stop offset="100%" style="stop-color:rgb(26,15,145);stop-opacity: 1"/>
</linearGradient>
<path style="stroke: none; stroke-width: 1; stroke-dasharray: none; stroke-linecap: butt; stroke-dashoffset: 0; stroke-linejoin: miter; stroke-miterlimit: 4; is-custom-font: none; font-file-url: none; fill: url(#SVGID_1910); fill-rule: nonzero; opacity: 1;" transform=" translate(-72.8133, -64.2106)" d="M 75.962 52.9747 C 77.3446 61.3178 75.662 73.5955 75.0949 75.9984 C 75.06 76.1455 74.9415 76.2581 74.7923 76.283 C 74.5392 76.325 74.122 76.3592 73.7112 76.2398 C 73.5695 76.1987 73.47 76.071 73.4643 75.9235 C 73.3883 73.9807 73.5252 62.0541 72.2372 57.3404 C 72.172 57.1015 72.026 56.8932 71.8243 56.7498 L 69.324 54.9724 L 69.1323 52.0992 L 75.9623 52.9744 L 75.962 52.9747 Z" stroke-linecap="round"/>
</g>
		<g transform="matrix(1 0 0 1 28.3252 5.2676)">
<linearGradient id="SVGID_1911" gradientUnits="userSpaceOnUse" gradientTransform="matrix(1 0 0 1 0 0)" x1="71.4824" y1="39.2873" x2="63.0461" y2="61.9776">
<stop offset="0%" style="stop-color:rgb(64,66,226);stop-opacity: 1"/>
<stop offset="100%" style="stop-color:rgb(79,82,255);stop-opacity: 1"/>
</linearGradient>
<path style="stroke: none; stroke-width: 1; stroke-dasharray: none; stroke-linecap: butt; stroke-dashoffset: 0; stroke-linejoin: miter; stroke-miterlimit: 4; is-custom-font: none; font-file-url: none; fill: url(#SVGID_1911); fill-rule: nonzero; opacity: 1;" transform=" translate(-68.8252, -45.2676)" d="M 67.1526 37.1662 C 71.2955 37.0976 75.8669 38.2539 75.8669 38.2539 C 77.1018 45.4596 76.0829 53.771 76.0829 53.771 C 72.8755 54.6122 69.2575 53.2567 69.2575 53.2567 C 68.7244 50.245 66.2372 41.7687 66.2372 41.7687 C 64.2129 41.5176 62.5455 40.9336 61.1724 40.1613 C 62.2198 38.947 62.7135 37.4022 62.9281 36.489 C 64.3929 36.9442 65.8749 37.1873 67.1529 37.1662 H 67.1526 Z" stroke-linecap="round"/>
</g>
		<g transform="matrix(1 0 0 1 18.4218 -4.5446)">
<linearGradient id="SVGID_1912" gradientUnits="userSpaceOnUse" gradientTransform="matrix(1 0 0 1 0 0)" x1="74.1752" y1="35.4556" x2="66.1627" y2="35.4556">
<stop offset="0%" style="stop-color:rgb(255,146,142);stop-opacity: 1"/>
<stop offset="100%" style="stop-color:rgb(254,179,177);stop-opacity: 1"/>
</linearGradient>
<path style="stroke: none; stroke-width: 1; stroke-dasharray: none; stroke-linecap: butt; stroke-dashoffset: 0; stroke-linejoin: miter; stroke-miterlimit: 4; is-custom-font: none; font-file-url: none; fill: url(#SVGID_1912); fill-rule: nonzero; opacity: 1;" transform=" translate(-58.9218, -35.4554)" d="M 54.9155 31.0639 C 55.3224 30.5724 55.8375 30.8047 55.8375 30.8047 C 56.4472 33.3802 59.6438 35.4682 62.9281 36.4887 C 62.7135 37.4019 62.2198 38.947 61.1724 40.161 C 55.7221 37.0964 54.9155 31.0636 54.9155 31.0636 V 31.0639 Z" stroke-linecap="round"/>
</g>
		<g transform="matrix(1 0 0 1 13.993 -10.9478)">
<linearGradient id="SVGID_1913" gradientUnits="userSpaceOnUse" gradientTransform="matrix(1 0 0 1 0 0)" x1="58.7732" y1="22.8261" x2="55.0889" y2="28.0618">
<stop offset="0%" style="stop-color:rgb(255,146,142);stop-opacity: 1"/>
<stop offset="100%" style="stop-color:rgb(254,179,177);stop-opacity: 1"/>
</linearGradient>
<path style="stroke: none; stroke-width: 1; stroke-dasharray: none; stroke-linecap: butt; stroke-dashoffset: 0; stroke-linejoin: miter; stroke-miterlimit: 4; is-custom-font: none; font-file-url: none; fill: url(#SVGID_1913); fill-rule: nonzero; opacity: 1;" transform=" translate(-54.4931, -29.0522)" d="M 55.0141 31.1887 C 54.9715 31.3241 55.4646 31.5301 55.7549 30.9764 C 55.7652 30.711 55.9263 29.5741 55.7678 29.3581 C 54.9232 28.2067 53.2861 26.7635 53.2861 26.7635 C 53.0092 27.0367 53.2372 27.3047 53.2372 27.3047 L 54.0315 28.1321 C 53.8655 28.4324 53.6626 28.6858 53.5678 29.049 C 53.4958 29.3241 53.5398 29.6178 53.6786 29.8681 C 53.8181 30.1193 54.0083 30.4458 54.1881 30.7013 C 54.5283 31.185 55.0138 31.1884 55.0138 31.1884 L 55.0141 31.1887 Z" stroke-linecap="round"/>
</g>
		<g transform="matrix(1 0 0 1 14.2743 -10.3604)">
<linearGradient id="SVGID_1914" gradientUnits="userSpaceOnUse" gradientTransform="matrix(1 0 0 1 0 0)" x1="54.9537" y1="30.0385" x2="52.7103" y2="26.589">
<stop offset="0%" style="stop-color:rgb(255,146,142);stop-opacity: 1"/>
<stop offset="100%" style="stop-color:rgb(254,179,177);stop-opacity: 1"/>
</linearGradient>
<path style="stroke: none; stroke-width: 1; stroke-dasharray: none; stroke-linecap: butt; stroke-dashoffset: 0; stroke-linejoin: miter; stroke-miterlimit: 4; is-custom-font: none; font-file-url: none; fill: url(#SVGID_1914); fill-rule: nonzero; opacity: 1;" transform=" translate(-54.7744, -29.6396)" d="M 54.3791 28.6693 L 55.1028 29.283 L 55.33 29.8939 L 54.6845 30.6099 C 54.6845 30.6099 54.4677 29.3976 54.3063 29.1353 C 54.1451 28.873 54.2285 28.7462 54.3788 28.6693 H 54.3791 Z" stroke-linecap="round"/>
</g>
		<g transform="matrix(1 0 0 1 36.8254 1.6864)">
<linearGradient id="SVGID_1915" gradientUnits="userSpaceOnUse" gradientTransform="matrix(1 0 0 1 0 0)" x1="77.9073" y1="41.6759" x2="69.4713" y2="64.3664">
<stop offset="0%" style="stop-color:rgb(64,66,226);stop-opacity: 1"/>
<stop offset="100%" style="stop-color:rgb(79,82,255);stop-opacity: 1"/>
</linearGradient>
<path style="stroke: none; stroke-width: 1; stroke-dasharray: none; stroke-linecap: butt; stroke-dashoffset: 0; stroke-linejoin: miter; stroke-miterlimit: 4; is-custom-font: none; font-file-url: none; fill: url(#SVGID_1915); fill-rule: nonzero; opacity: 1;" transform=" translate(-77.3254, -41.6864)" d="M 74.2778 42.2656 L 75.867 38.2542 C 75.867 38.2542 79.7367 40.8836 80.373 44.217 C 79.6418 44.2707 78.3113 44.461 77.009 45.1187 C 76.7227 43.5447 74.2778 42.2656 74.2778 42.2656 Z" stroke-linecap="round"/>
</g>
		<g transform="matrix(1 0 0 1 34.8913 6.8051)">
<linearGradient id="SVGID_1916" gradientUnits="userSpaceOnUse" gradientTransform="matrix(1 0 0 1 0 0)" x1="80.4613" y1="46.8052" x2="70.321" y2="46.8052">
<stop offset="0%" style="stop-color:rgb(255,146,142);stop-opacity: 1"/>
<stop offset="100%" style="stop-color:rgb(254,179,177);stop-opacity: 1"/>
</linearGradient>
<path style="stroke: none; stroke-width: 1; stroke-dasharray: none; stroke-linecap: butt; stroke-dashoffset: 0; stroke-linejoin: miter; stroke-miterlimit: 4; is-custom-font: none; font-file-url: none; fill: url(#SVGID_1916); fill-rule: nonzero; opacity: 1;" transform=" translate(-75.3913, -46.8051)" d="M 70.8961 46.0401 C 70.8961 46.0401 75.2407 48.4955 76.7067 46.399 C 77.011 45.9635 77.0839 45.531 77.009 45.1184 C 78.3113 44.4607 79.6419 44.2707 80.373 44.2167 C 80.565 45.2215 80.4636 46.2907 79.873 47.371 C 77.305 52.0684 70.3213 47.1112 70.3213 47.1112 L 70.8961 46.0401 Z" stroke-linecap="round"/>
</g>
		<g transform="matrix(1 0 0 1 25.496 4.842)">
<path style="stroke: none; stroke-width: 1; stroke-dasharray: none; stroke-linecap: butt; stroke-dashoffset: 0; stroke-linejoin: miter; stroke-miterlimit: 4; is-custom-font: none; font-file-url: none; fill: rgb(189,208,251); fill-rule: nonzero; opacity: 1;" transform=" translate(-65.9961, -44.8421)" d="M 71.4184 49.1467 L 69.0472 40.8658 C 69.0204 40.7718 68.9401 40.7033 68.843 40.6918 C 68.4132 40.6418 67.1684 40.501 65.7313 40.3796 C 63.9998 40.233 61.9895 40.1144 60.7878 40.2153 C 60.617 40.2296 60.5138 40.4104 60.5898 40.5638 C 61.273 41.9461 64.0832 47.5687 65.4907 49.4104 C 65.5372 49.4716 65.6095 49.507 65.6861 49.5064 L 71.1875 49.4553 C 71.3475 49.4538 71.4624 49.3001 71.4181 49.1464 L 71.4184 49.1467 Z" stroke-linecap="round"/>
</g>
		<g transform="matrix(1 0 0 1 24.1579 -0.135)">
<path style="stroke: none; stroke-width: 1; stroke-dasharray: none; stroke-linecap: butt; stroke-dashoffset: 0; stroke-linejoin: miter; stroke-miterlimit: 4; is-custom-font: none; font-file-url: none; fill: rgb(125,151,244); fill-rule: nonzero; opacity: 1;" transform=" translate(-64.6579, -39.865)" d="M 65.485 39.6616 L 63.7659 39.375 C 63.6744 39.3599 63.5993 39.4473 63.6284 39.5353 L 63.7987 40.051 C 63.8136 40.0959 63.8527 40.1284 63.8996 40.1347 L 65.5539 40.3556 C 65.6396 40.367 65.7102 40.2893 65.6904 40.2053 L 65.585 39.755 C 65.5736 39.7064 65.5342 39.6696 65.485 39.6613 V 39.6616 Z" stroke-linecap="round"/>
</g>
		<g transform="matrix(1 0 0 1 24.2974 0.6043)">
<path style="stroke: none; stroke-width: 1; stroke-dasharray: none; stroke-linecap: butt; stroke-dashoffset: 0; stroke-linejoin: miter; stroke-miterlimit: 4; is-custom-font: none; font-file-url: none; fill: rgb(125,151,244); fill-rule: nonzero; opacity: 1;" transform=" translate(-64.7974, -40.6042)" d="M 66.7721 41.117 L 66.6303 40.3793 C 66.6161 40.3053 66.5549 40.2493 66.4801 40.2419 L 63.0078 39.8896 C 62.8909 39.8776 62.7972 39.9847 62.8246 40.099 L 63.0455 41.0182 C 63.0632 41.0916 63.1272 41.1447 63.2026 41.1487 L 66.5958 41.3196 C 66.7063 41.325 66.7926 41.2259 66.7718 41.117 H 66.7721 Z" stroke-linecap="round"/>
</g>
		<g transform="matrix(1 0 0 1 28.9946 5.7422)">
<linearGradient id="SVGID_1917" gradientUnits="userSpaceOnUse" gradientTransform="matrix(1 0 0 1 0 0)" x1="71.0739" y1="45.7422" x2="67.915" y2="45.7422">
<stop offset="0%" style="stop-color:rgb(255,146,142);stop-opacity: 1"/>
<stop offset="100%" style="stop-color:rgb(254,179,177);stop-opacity: 1"/>
</linearGradient>
<path style="stroke: none; stroke-width: 1; stroke-dasharray: none; stroke-linecap: butt; stroke-dashoffset: 0; stroke-linejoin: miter; stroke-miterlimit: 4; is-custom-font: none; font-file-url: none; fill: url(#SVGID_1917); fill-rule: nonzero; opacity: 1;" transform=" translate(-69.4946, -45.7421)" d="M 70.8453 47.1459 C 70.8453 47.1459 71.1756 45.7876 71.0425 45.3059 C 70.9093 44.8239 70.651 44.2044 69.7905 44.3422 C 68.9299 44.4799 67.915 44.8424 67.915 44.8424 C 67.915 44.8424 67.9662 45.4702 68.6202 45.2676 L 68.2148 45.5813 C 68.2148 45.5813 68.2727 46.0839 68.825 45.8153 L 68.4479 46.2316 C 68.4479 46.2316 68.685 46.6444 69.0916 46.3796 C 69.4979 46.1147 69.6928 47.3096 70.8453 47.1462 V 47.1459 Z" stroke-linecap="round"/>
</g>
		<g transform="matrix(1 0 0 1 30.1709 -4.0351)">
<linearGradient id="SVGID_1918" gradientUnits="userSpaceOnUse" gradientTransform="matrix(1 0 0 1 0 0)" x1="69.5516" y1="32.3602" x2="71.2322" y2="38.6947">
<stop offset="0%" style="stop-color:rgb(255,146,142);stop-opacity: 1"/>
<stop offset="100%" style="stop-color:rgb(254,179,177);stop-opacity: 1"/>
</linearGradient>
<path style="stroke: none; stroke-width: 1; stroke-dasharray: none; stroke-linecap: butt; stroke-dashoffset: 0; stroke-linejoin: miter; stroke-miterlimit: 4; is-custom-font: none; font-file-url: none; fill: url(#SVGID_1918); fill-rule: nonzero; opacity: 1;" transform=" translate(-70.6709, -35.9649)" d="M 71.3494 33.8027 L 72.6676 37.615 C 72.6894 37.6782 72.6636 37.7482 72.6051 37.7804 C 72.2456 37.979 70.9511 38.5533 69.3911 37.5642 C 69.2285 37.461 69.1179 37.293 69.0934 37.1022 L 68.6665 33.8027 H 71.3496 H 71.3494 Z" stroke-linecap="round"/>
</g>
		<g transform="matrix(1 0 0 1 29.0311 -7.4091)">
<linearGradient id="SVGID_1919" gradientUnits="userSpaceOnUse" gradientTransform="matrix(1 0 0 1 0 0)" x1="72.7979" y1="27.1944" x2="67.8853" y2="35.0158">
<stop offset="0%" style="stop-color:rgb(255,146,142);stop-opacity: 1"/>
<stop offset="100%" style="stop-color:rgb(254,179,177);stop-opacity: 1"/>
</linearGradient>
<path style="stroke: none; stroke-width: 1; stroke-dasharray: none; stroke-linecap: butt; stroke-dashoffset: 0; stroke-linejoin: miter; stroke-miterlimit: 4; is-custom-font: none; font-file-url: none; fill: url(#SVGID_1919); fill-rule: nonzero; opacity: 1;" transform=" translate(-69.5311, -32.5909)" d="M 68.481 30.2724 C 68.481 30.2724 67.0336 32.9972 67.219 34.0978 C 67.4045 35.1984 69.1985 35.1195 70.765 34.2255 L 71.8596 31.2832 L 68.4808 30.2721 L 68.481 30.2724 Z" stroke-linecap="round"/>
</g>
		<g transform="matrix(1 0 0 1 30.2959 -8.6777)">
<linearGradient id="SVGID_1920" gradientUnits="userSpaceOnUse" gradientTransform="matrix(1 0 0 1 0 0)" x1="74.4597" y1="27.8855" x2="68.7653" y2="32.3837">
<stop offset="0%" style="stop-color:rgb(9,0,93);stop-opacity: 1"/>
<stop offset="100%" style="stop-color:rgb(26,15,145);stop-opacity: 1"/>
</linearGradient>
<path style="stroke: none; stroke-width: 1; stroke-dasharray: none; stroke-linecap: butt; stroke-dashoffset: 0; stroke-linejoin: miter; stroke-miterlimit: 4; is-custom-font: none; font-file-url: none; fill: url(#SVGID_1920); fill-rule: nonzero; opacity: 1;" transform=" translate(-70.7959, -31.3223)" d="M 70.6962 32.7806 C 70.6325 32.7524 70.609 32.6746 70.647 32.6164 C 70.763 32.4392 70.9805 32.0778 71.0499 31.7612 C 71.0499 31.7612 71.3102 31.5946 70.3876 31.3738 C 69.465 31.1529 68.0893 30.8104 67.8002 30.0249 C 67.5182 29.2592 68.259 27.3341 69.4407 28.8681 C 69.4856 28.9264 69.5739 28.9278 69.6187 28.8692 C 69.8124 28.6169 70.3219 28.0938 71.029 28.4109 C 71.6907 28.7078 71.7653 29.1926 71.7562 29.4372 C 71.7536 29.5092 71.8179 29.5649 71.8885 29.5515 C 72.223 29.4878 73.0259 29.4329 73.4007 30.2566 C 73.7093 30.9352 73.5087 31.3192 73.3262 31.5069 C 73.267 31.5678 73.293 31.6681 73.3742 31.6929 C 73.5942 31.7604 73.8779 31.9466 73.8496 32.4618 C 73.8102 33.1741 73.0139 33.1112 72.7873 33.0789 C 72.7502 33.0735 72.7127 33.0864 72.6876 33.1141 C 72.4933 33.3292 71.6173 34.2426 70.6693 34.3526 C 70.5873 34.3621 70.5236 34.2812 70.5505 34.2029 L 70.9607 33.0104 C 70.9799 32.9549 70.9533 32.8944 70.8999 32.8706 L 70.6965 32.7806 H 70.6962 Z" stroke-linecap="round"/>
</g>
		<g transform="matrix(1 0 0 1 30.4265 -6.9217)">
<linearGradient id="SVGID_1921" gradientUnits="userSpaceOnUse" gradientTransform="matrix(1 0 0 1 0 0)" x1="74.1816" y1="28.0636" x2="69.2691" y2="35.885">
<stop offset="0%" style="stop-color:rgb(255,146,142);stop-opacity: 1"/>
<stop offset="100%" style="stop-color:rgb(254,179,177);stop-opacity: 1"/>
</linearGradient>
<path style="stroke: none; stroke-width: 1; stroke-dasharray: none; stroke-linecap: butt; stroke-dashoffset: 0; stroke-linejoin: miter; stroke-miterlimit: 4; is-custom-font: none; font-file-url: none; fill: url(#SVGID_1921); fill-rule: nonzero; opacity: 1;" transform=" translate(-70.9265, -33.0783)" d="M 70.5311 32.9502 C 70.5311 32.9502 71.5616 32.243 71.6371 32.8385 C 71.7125 33.4339 70.7091 33.701 70.2119 33.479 L 70.5311 32.9502 Z" stroke-linecap="round"/>
</g>
</g>
</g>
<g transform="matrix(1 0 0 1 525.5376 961.3647)" style="" id="435130">
		
<path xml:space="preserve" font-family="Lato" font-size="108" font-style="normal" font-weight="normal" style="stroke: none; stroke-width: 0; stroke-dasharray: none; stroke-linecap: butt; stroke-dashoffset: 0; stroke-linejoin: miter; stroke-miterlimit: 4; is-custom-font: none; font-file-url: none; fill: rgb(0,0,0); fill-rule: nonzero; opacity: 1; white-space: pre;" d="M-398.15-43.45L-350.47-43.45L-350.47-34.92L-387.62-34.92L-387.62-7.87L-355.87-7.87L-355.87 0.66L-387.62 0.66L-387.62 33.93L-398.15 33.93L-398.15-43.45ZM-337.45-20.77L-327.84-20.77L-327.84 33.93L-337.45 33.93L-337.45-20.77ZM-325.68-37.95L-325.68-37.95Q-325.68-36.54-326.25-35.33Q-326.82-34.11-327.76-33.17Q-328.71-32.22-329.95-31.68Q-331.19-31.14-332.59-31.14L-332.59-31.14Q-334.00-31.14-335.21-31.68Q-336.43-32.22-337.37-33.17Q-338.32-34.11-338.86-35.33Q-339.40-36.54-339.40-37.95L-339.40-37.95Q-339.40-39.35-338.86-40.62Q-338.32-41.89-337.37-42.83Q-336.43-43.78-335.21-44.32Q-334.00-44.86-332.59-44.86L-332.59-44.86Q-331.19-44.86-329.95-44.32Q-328.71-43.78-327.76-42.83Q-326.82-41.89-326.25-40.62Q-325.68-39.35-325.68-37.95ZM-309.81-45.61L-300.19-45.61L-300.19 33.93L-309.81 33.93L-309.81-45.61ZM-282.16-20.77L-272.55-20.77L-272.55 33.93L-282.16 33.93L-282.16-20.77ZM-270.39-37.95L-270.39-37.95Q-270.39-36.54-270.95-35.33Q-271.52-34.11-272.47-33.17Q-273.41-32.22-274.65-31.68Q-275.89-31.14-277.30-31.14L-277.30-31.14Q-278.70-31.14-279.92-31.68Q-281.13-32.22-282.08-33.17Q-283.02-34.11-283.56-35.33Q-284.10-36.54-284.10-37.95L-284.10-37.95Q-284.10-39.35-283.56-40.62Q-283.02-41.89-282.08-42.83Q-281.13-43.78-279.92-44.32Q-278.70-44.86-277.30-44.86L-277.30-44.86Q-275.89-44.86-274.65-44.32Q-273.41-43.78-272.47-42.83Q-271.52-41.89-270.95-40.62Q-270.39-39.35-270.39-37.95ZM-245.98 33.93L-255.59 33.93L-255.59-20.77L-249.87-20.77Q-247.81-20.77-247.27-18.78L-247.27-18.78L-246.52-12.84Q-242.95-16.78-238.55-19.21Q-234.15-21.64-228.37-21.64L-228.37-21.64Q-223.89-21.64-220.46-20.15Q-217.03-18.67-214.74-15.94Q-212.44-13.21-211.26-9.38Q-210.07-5.55-210.07-0.90L-210.07-0.90L-210.07 33.93L-219.68 33.93L-219.68-0.90Q-219.68-7.11-222.52-10.54Q-225.35-13.97-231.18-13.97L-231.18-13.97Q-235.45-13.97-239.15-11.92Q-242.85-9.87-245.98-6.36L-245.98-6.36L-245.98 33.93ZM-177.13-21.69L-177.13-21.69Q-173.56-21.69-170.46-20.91Q-167.35-20.13-164.82-18.61L-164.82-18.61L-149.97-18.61L-149.97-15.05Q-149.97-13.27-152.23-12.78L-152.23-12.78L-158.44-11.92Q-156.61-8.41-156.61-4.09L-156.61-4.09Q-156.61-0.09-158.15 3.17Q-159.69 6.44-162.41 8.76Q-165.14 11.09-168.89 12.33Q-172.65 13.57-177.13 13.57L-177.13 13.57Q-180.96 13.57-184.36 12.65L-184.36 12.65Q-186.09 13.73-186.98 14.97Q-187.87 16.22-187.87 17.40L-187.87 17.40Q-187.87 19.35-186.31 20.35Q-184.74 21.35-182.15 21.78Q-179.56 22.21-176.26 22.32Q-172.97 22.43-169.54 22.67Q-166.11 22.91-162.82 23.51Q-159.52 24.10-156.93 25.45Q-154.34 26.80-152.77 29.18Q-151.21 31.55-151.21 35.33L-151.21 35.33Q-151.21 38.84-152.96 42.14Q-154.72 45.43-158.01 47.99Q-161.31 50.56-166.06 52.10Q-170.81 53.64-176.80 53.64L-176.80 53.64Q-182.80 53.64-187.31 52.45Q-191.82 51.26-194.79 49.26Q-197.76 47.27-199.24 44.65Q-200.73 42.03-200.73 39.17L-200.73 39.17Q-200.73 35.12-198.16 32.28Q-195.60 29.45-191.11 27.77L-191.11 27.77Q-193.44 26.69-194.81 24.88Q-196.19 23.07-196.19 20.05L-196.19 20.05Q-196.19 18.86-195.76 17.59Q-195.33 16.32-194.44 15.08Q-193.54 13.84-192.25 12.71Q-190.95 11.57-189.22 10.71L-189.22 10.71Q-193.27 8.44-195.57 4.69Q-197.86 0.93-197.86-4.09L-197.86-4.09Q-197.86-8.08-196.33-11.35Q-194.79-14.62-192.03-16.91Q-189.28-19.21-185.47-20.45Q-181.66-21.69-177.13-21.69ZM-160.06 36.90L-160.06 36.90Q-160.06 34.85-161.20 33.60Q-162.33 32.36-164.28 31.69Q-166.22 31.01-168.76 30.69Q-171.30 30.36-174.10 30.23Q-176.91 30.09-179.83 29.93Q-182.74 29.77-185.39 29.34L-185.39 29.34Q-188.47 30.80-190.39 32.90Q-192.30 35.01-192.30 37.92L-192.30 37.92Q-192.30 39.76-191.36 41.35Q-190.41 42.95-188.47 44.11Q-186.52 45.27-183.58 45.94Q-180.64 46.62-176.64 46.62L-176.64 46.62Q-172.75 46.62-169.68 45.92Q-166.60 45.21-164.47 43.92Q-162.33 42.62-161.20 40.84Q-160.06 39.06-160.06 36.90ZM-177.13 7.20L-177.13 7.20Q-174.21 7.20-171.97 6.39Q-169.73 5.58-168.22 4.12Q-166.71 2.66-165.95 0.64Q-165.19-1.39-165.19-3.82L-165.19-3.82Q-165.19-8.84-168.25-11.81Q-171.30-14.78-177.13-14.78L-177.13-14.78Q-182.91-14.78-185.96-11.81Q-189.01-8.84-189.01-3.82L-189.01-3.82Q-189.01-1.39-188.23 0.64Q-187.44 2.66-185.93 4.12Q-184.42 5.58-182.20 6.39Q-179.99 7.20-177.13 7.20ZM-85.27-43.45L-54.33 33.93L-62.43 33.93Q-63.84 33.93-64.70 33.23Q-65.56 32.52-66.00 31.44L-66.00 31.44L-73.23 12.76L-107.95 12.76L-115.19 31.44Q-115.57 32.42-116.49 33.17Q-117.40 33.93-118.75 33.93L-118.75 33.93L-126.85 33.93L-95.91-43.45L-85.27-43.45ZM-92.89-26.23L-105.04 5.20L-76.15 5.20L-88.30-26.28Q-89.49-29.20-90.62-33.57L-90.62-33.57Q-91.21-31.36-91.78-29.50Q-92.35-27.63-92.89-26.23L-92.89-26.23ZM-36.46 52.45L-46.07 52.45L-46.07-20.77L-40.35-20.77Q-38.29-20.77-37.75-18.78L-37.75-18.78L-36.94-12.30Q-33.43-16.56-28.93-19.15Q-24.42-21.75-18.53-21.75L-18.53-21.75Q-13.83-21.75-10.00-19.94Q-6.16-18.13-3.46-14.59Q-0.76-11.05 0.69-5.82Q2.15-0.58 2.15 6.23L2.15 6.23Q2.15 12.27 0.53 17.48Q-1.09 22.70-4.11 26.50Q-7.14 30.31-11.54 32.50Q-15.94 34.68-21.45 34.68L-21.45 34.68Q-26.52 34.68-30.11 33.01Q-33.70 31.34-36.46 28.26L-36.46 28.26L-36.46 52.45ZM-21.72-13.97L-21.72-13.97Q-26.41-13.97-29.95-11.81Q-33.49-9.65-36.46-5.71L-36.46-5.71L-36.46 20.75Q-33.81 24.32-30.65 25.77Q-27.49 27.23-23.61 27.23L-23.61 27.23Q-15.99 27.23-11.89 21.78Q-7.78 16.32-7.78 6.23L-7.78 6.23Q-7.78 0.88-8.73-2.95Q-9.67-6.79-11.46-9.25Q-13.24-11.70-15.83-12.84Q-18.42-13.97-21.72-13.97ZM23.16 52.45L13.55 52.45L13.55-20.77L19.27-20.77Q21.32-20.77 21.86-18.78L21.86-18.78L22.67-12.30Q26.18-16.56 30.69-19.15Q35.20-21.75 41.09-21.75L41.09-21.75Q45.78-21.75 49.62-19.94Q53.45-18.13 56.15-14.59Q58.85-11.05 60.31-5.82Q61.77-0.58 61.77 6.23L61.77 6.23Q61.77 12.27 60.15 17.48Q58.53 22.70 55.50 26.50Q52.48 30.31 48.08 32.50Q43.68 34.68 38.17 34.68L38.17 34.68Q33.09 34.68 29.50 33.01Q25.91 31.34 23.16 28.26L23.16 28.26L23.16 52.45ZM37.90-13.97L37.90-13.97Q33.20-13.97 29.66-11.81Q26.13-9.65 23.16-5.71L23.16-5.71L23.16 20.75Q25.80 24.32 28.96 25.77Q32.12 27.23 36.01 27.23L36.01 27.23Q43.62 27.23 47.73 21.78Q51.83 16.32 51.83 6.23L51.83 6.23Q51.83 0.88 50.89-2.95Q49.94-6.79 48.16-9.25Q46.38-11.70 43.79-12.84Q41.19-13.97 37.90-13.97ZM74.24-45.61L83.85-45.61L83.85 33.93L74.24 33.93L74.24-45.61ZM101.89-20.77L111.50-20.77L111.50 33.93L101.89 33.93L101.89-20.77ZM113.66-37.95L113.66-37.95Q113.66-36.54 113.09-35.33Q112.53-34.11 111.58-33.17Q110.64-32.22 109.40-31.68Q108.15-31.14 106.75-31.14L106.75-31.14Q105.35-31.14 104.13-31.68Q102.92-32.22 101.97-33.17Q101.03-34.11 100.49-35.33Q99.95-36.54 99.95-37.95L99.95-37.95Q99.95-39.35 100.49-40.62Q101.03-41.89 101.97-42.83Q102.92-43.78 104.13-44.32Q105.35-44.86 106.75-44.86L106.75-44.86Q108.15-44.86 109.40-44.32Q110.64-43.78 111.58-42.83Q112.53-41.89 113.09-40.62Q113.66-39.35 113.66-37.95ZM168.31-14.51L165.77-11.05Q165.34-10.46 164.91-10.14Q164.48-9.81 163.67-9.81L163.67-9.81Q162.86-9.81 161.91-10.49Q160.97-11.16 159.51-11.97Q158.05-12.78 155.97-13.46Q153.89-14.13 150.87-14.13L150.87-14.13Q146.87-14.13 143.79-12.70Q140.72-11.27 138.64-8.57Q136.56-5.87 135.50-2.04Q134.45 1.80 134.45 6.55L134.45 6.55Q134.45 11.52 135.59 15.38Q136.72 19.24 138.77 21.86Q140.82 24.48 143.77 25.85Q146.71 27.23 150.38 27.23L150.38 27.23Q153.89 27.23 156.16 26.39Q158.43 25.56 159.94 24.53Q161.45 23.51 162.42 22.67Q163.40 21.83 164.37 21.83L164.37 21.83Q165.61 21.83 166.20 22.75L166.20 22.75L168.90 26.26Q165.34 30.63 159.99 32.66Q154.65 34.68 148.71 34.68L148.71 34.68Q143.58 34.68 139.18 32.79Q134.78 30.90 131.54 27.31Q128.30 23.72 126.43 18.48Q124.57 13.25 124.57 6.55L124.57 6.55Q124.57 0.45 126.27-4.74Q127.97-9.92 131.24-13.67Q134.51-17.43 139.31-19.53Q144.12-21.64 150.33-21.64L150.33-21.64Q156.05-21.64 160.48-19.78Q164.91-17.91 168.31-14.51L168.31-14.51ZM219.07-1.06L219.07 33.93L214.80 33.93Q213.40 33.93 212.54 33.50Q211.67 33.06 211.40 31.66L211.40 31.66L210.32 26.58Q208.16 28.53 206.11 30.07Q204.06 31.61 201.79 32.66Q199.52 33.71 196.96 34.25Q194.39 34.79 191.26 34.79L191.26 34.79Q188.07 34.79 185.29 33.90Q182.51 33.01 180.46 31.23Q178.41 29.45 177.19 26.72Q175.98 23.99 175.98 20.27L175.98 20.27Q175.98 17.03 177.76 14.03Q179.54 11.03 183.51 8.71Q187.48 6.39 193.91 4.90Q200.33 3.42 209.62 3.20L209.62 3.20L209.62-1.06Q209.62-7.44 206.89-10.70Q204.17-13.97 198.82-13.97L198.82-13.97Q195.31-13.97 192.91-13.08Q190.50-12.19 188.75-11.08Q186.99-9.97 185.72-9.08Q184.46-8.19 183.21-8.19L183.21-8.19Q182.24-8.19 181.51-8.71Q180.78-9.22 180.35-9.97L180.35-9.97L178.62-13.05Q183.16-17.43 188.40-19.59Q193.64-21.75 200.01-21.75L200.01-21.75Q204.60-21.75 208.16-20.23Q211.73-18.72 214.16-16.02Q216.59-13.32 217.83-9.49Q219.07-5.65 219.07-1.06L219.07-1.06ZM194.12 28.04L194.12 28.04Q196.66 28.04 198.77 27.53Q200.87 27.02 202.73 26.07Q204.60 25.13 206.30 23.78Q208.00 22.43 209.62 20.70L209.62 20.70L209.62 9.30Q202.98 9.52 198.33 10.36Q193.69 11.19 190.77 12.54Q187.86 13.89 186.53 15.73Q185.21 17.57 185.21 19.83L185.21 19.83Q185.21 21.99 185.91 23.56Q186.62 25.13 187.80 26.12Q188.99 27.12 190.61 27.58Q192.23 28.04 194.12 28.04ZM250.23 34.79L250.23 34.79Q243.75 34.79 240.26 31.17Q236.78 27.56 236.78 20.75L236.78 20.75L236.78-12.73L230.19-12.73Q229.33-12.73 228.74-13.24Q228.14-13.75 228.14-14.83L228.14-14.83L228.14-18.67L237.11-19.80L239.32-36.70Q239.43-37.51 240.02-38.03Q240.62-38.54 241.53-38.54L241.53-38.54L246.39-38.54L246.39-19.69L262.05-19.69L262.05-12.73L246.39-12.73L246.39 20.10Q246.39 23.56 248.07 25.23Q249.74 26.91 252.39 26.91L252.39 26.91Q253.90 26.91 255.01 26.50Q256.11 26.10 256.92 25.61Q257.73 25.13 258.30 24.72Q258.87 24.32 259.30 24.32L259.30 24.32Q260.06 24.32 260.65 25.23L260.65 25.23L263.46 29.82Q260.97 32.15 257.46 33.47Q253.95 34.79 250.23 34.79ZM275.01-20.77L284.63-20.77L284.63 33.93L275.01 33.93L275.01-20.77ZM286.79-37.95L286.79-37.95Q286.79-36.54 286.22-35.33Q285.65-34.11 284.71-33.17Q283.76-32.22 282.52-31.68Q281.28-31.14 279.87-31.14L279.87-31.14Q278.47-31.14 277.25-31.68Q276.04-32.22 275.09-33.17Q274.15-34.11 273.61-35.33Q273.07-36.54 273.07-37.95L273.07-37.95Q273.07-39.35 273.61-40.62Q274.15-41.89 275.09-42.83Q276.04-43.78 277.25-44.32Q278.47-44.86 279.87-44.86L279.87-44.86Q281.28-44.86 282.52-44.32Q283.76-43.78 284.71-42.83Q285.65-41.89 286.22-40.62Q286.79-39.35 286.79-37.95ZM323.72-21.64L323.72-21.64Q329.72-21.64 334.55-19.64Q339.38-17.64 342.76-13.97Q346.13-10.30 347.94-5.09Q349.75 0.12 349.75 6.55L349.75 6.55Q349.75 13.03 347.94 18.21Q346.13 23.40 342.76 27.07Q339.38 30.74 334.55 32.71Q329.72 34.68 323.72 34.68L323.72 34.68Q317.73 34.68 312.89 32.71Q308.06 30.74 304.66 27.07Q301.26 23.40 299.42 18.21Q297.59 13.03 297.59 6.55L297.59 6.55Q297.59 0.12 299.42-5.09Q301.26-10.30 304.66-13.97Q308.06-17.64 312.89-19.64Q317.73-21.64 323.72-21.64ZM323.72 27.18L323.72 27.18Q331.82 27.18 335.82 21.75Q339.81 16.32 339.81 6.60L339.81 6.60Q339.81-3.17 335.82-8.62Q331.82-14.08 323.72-14.08L323.72-14.08Q319.62-14.08 316.59-12.67Q313.57-11.27 311.54-8.62Q309.52-5.98 308.52-2.12Q307.52 1.74 307.52 6.60L307.52 6.60Q307.52 11.46 308.52 15.30Q309.52 19.13 311.54 21.75Q313.57 24.37 316.59 25.77Q319.62 27.18 323.72 27.18ZM371.24 33.93L361.63 33.93L361.63-20.77L367.35-20.77Q369.41-20.77 369.95-18.78L369.95-18.78L370.70-12.84Q374.27-16.78 378.67-19.21Q383.07-21.64 388.85-21.64L388.85-21.64Q393.33-21.64 396.76-20.15Q400.19-18.67 402.48-15.94Q404.78-13.21 405.96-9.38Q407.15-5.55 407.15-0.90L407.15-0.90L407.15 33.93L397.54 33.93L397.54-0.90Q397.54-7.11 394.70-10.54Q391.87-13.97 386.04-13.97L386.04-13.97Q381.77-13.97 378.07-11.92Q374.37-9.87 371.24-6.36L371.24-6.36L371.24 33.93Z"/></g>
</svg>