<svg xmlns="http://www.w3.org/2000/svg" xmlns:xlink="http://www.w3.org/1999/xlink" width="1200" zoomAndPan="magnify" viewBox="0 0 900 525.000007" height="700" preserveAspectRatio="xMidYMid meet" version="1.0"><defs><g/><clipPath id="00be5c6b76"><path d="M 183.160156 20.601562 L 752.078125 20.601562 L 752.078125 510.167969 L 183.160156 510.167969 Z M 183.160156 20.601562 " clip-rule="nonzero"/></clipPath><clipPath id="df9f72ab89"><path d="M 307.3125 126 L 568 126 L 568 495.796875 L 307.3125 495.796875 Z M 307.3125 126 " clip-rule="nonzero"/></clipPath></defs><g clip-path="url(#00be5c6b76)"><path stroke-linecap="butt" transform="matrix(0.748097, 0, 0, 0.748556, 183.162052, 20.602362)" fill="none" stroke-linejoin="miter" d="M -0.00253354 -0.00106872 L 760.484002 -0.00106872 L 760.484002 654.013114 L -0.00253354 654.013114 L -0.00253354 -0.00106872 " stroke="#ffffff" stroke-width="8" stroke-opacity="1" stroke-miterlimit="4"/></g><g fill="#082a71" fill-opacity="1"><g transform="translate(331.053776, 103.646189)"><g><path d="M 16.328125 -21.375 L 16.328125 -17.828125 L 7 -17.828125 L 7 -12.171875 L 15.46875 -12.171875 L 15.46875 -8.6875 L 7 -8.6875 L 7 0 L 2.78125 0 L 2.78125 -21.375 Z M 16.328125 -21.375 "/></g></g><g transform="translate(348.335311, 103.646189)"><g><path d="M 4.34375 -18.046875 C 3.613281 -18.046875 3.019531 -18.269531 2.5625 -18.71875 C 2.101562 -19.164062 1.875 -19.738281 1.875 -20.4375 C 1.875 -21.125 2.101562 -21.6875 2.5625 -22.125 C 3.019531 -22.570312 3.613281 -22.796875 4.34375 -22.796875 C 4.832031 -22.796875 5.265625 -22.691406 5.640625 -22.484375 C 6.023438 -22.285156 6.320312 -22.007812 6.53125 -21.65625 C 6.738281 -21.300781 6.84375 -20.894531 6.84375 -20.4375 C 6.84375 -19.976562 6.738281 -19.566406 6.53125 -19.203125 C 6.320312 -18.847656 6.023438 -18.566406 5.640625 -18.359375 C 5.265625 -18.148438 4.832031 -18.046875 4.34375 -18.046875 Z M 2.328125 0 L 2.328125 -16.125 L 6.375 -16.125 L 6.375 0 Z M 2.328125 0 "/></g></g><g transform="translate(357.019941, 103.646189)"><g><path d="M 6.6875 0.3125 C 5.238281 0.3125 4.128906 -0.078125 3.359375 -0.859375 C 2.597656 -1.648438 2.21875 -2.84375 2.21875 -4.4375 L 2.21875 -22.59375 L 6.265625 -22.59375 L 6.265625 -4.609375 C 6.265625 -3.617188 6.675781 -3.125 7.5 -3.125 C 7.726562 -3.125 7.976562 -3.164062 8.25 -3.25 L 8.453125 -3.1875 L 8.8125 -0.078125 C 8.59375 0.046875 8.296875 0.140625 7.921875 0.203125 C 7.554688 0.273438 7.144531 0.3125 6.6875 0.3125 Z M 6.6875 0.3125 "/></g></g><g transform="translate(366.289394, 103.646189)"><g><path d="M 4.34375 -18.046875 C 3.613281 -18.046875 3.019531 -18.269531 2.5625 -18.71875 C 2.101562 -19.164062 1.875 -19.738281 1.875 -20.4375 C 1.875 -21.125 2.101562 -21.6875 2.5625 -22.125 C 3.019531 -22.570312 3.613281 -22.796875 4.34375 -22.796875 C 4.832031 -22.796875 5.265625 -22.691406 5.640625 -22.484375 C 6.023438 -22.285156 6.320312 -22.007812 6.53125 -21.65625 C 6.738281 -21.300781 6.84375 -20.894531 6.84375 -20.4375 C 6.84375 -19.976562 6.738281 -19.566406 6.53125 -19.203125 C 6.320312 -18.847656 6.023438 -18.566406 5.640625 -18.359375 C 5.265625 -18.148438 4.832031 -18.046875 4.34375 -18.046875 Z M 2.328125 0 L 2.328125 -16.125 L 6.375 -16.125 L 6.375 0 Z M 2.328125 0 "/></g></g><g transform="translate(374.974023, 103.646189)"><g><path d="M 2.328125 0 L 2.328125 -16.125 L 6.21875 -16.125 L 6.21875 -13.75 L 6.515625 -13.6875 C 7.523438 -15.519531 9.15625 -16.4375 11.40625 -16.4375 C 13.257812 -16.4375 14.625 -15.925781 15.5 -14.90625 C 16.375 -13.894531 16.8125 -12.421875 16.8125 -10.484375 L 16.8125 0 L 12.765625 0 L 12.765625 -9.984375 C 12.765625 -11.054688 12.546875 -11.828125 12.109375 -12.296875 C 11.679688 -12.773438 11 -13.015625 10.0625 -13.015625 C 8.894531 -13.015625 7.988281 -12.640625 7.34375 -11.890625 C 6.695312 -11.140625 6.375 -9.957031 6.375 -8.34375 L 6.375 0 Z M 2.328125 0 "/></g></g><g transform="translate(393.863823, 103.646189)"><g><path d="M 8.359375 6.84375 C 5.703125 6.84375 3.738281 6.453125 2.46875 5.671875 C 1.195312 4.890625 0.5625 3.800781 0.5625 2.40625 C 0.5625 1.5625 0.832031 0.867188 1.375 0.328125 C 1.914062 -0.210938 2.695312 -0.578125 3.71875 -0.765625 L 3.71875 -1.0625 C 3.164062 -1.394531 2.769531 -1.765625 2.53125 -2.171875 C 2.289062 -2.578125 2.171875 -3.046875 2.171875 -3.578125 C 2.171875 -4.878906 3.015625 -5.753906 4.703125 -6.203125 L 4.703125 -6.5 C 3.835938 -7 3.1875 -7.613281 2.75 -8.34375 C 2.3125 -9.082031 2.09375 -9.972656 2.09375 -11.015625 C 2.09375 -12.085938 2.335938 -13.03125 2.828125 -13.84375 C 3.316406 -14.664062 4.035156 -15.300781 4.984375 -15.75 C 5.941406 -16.207031 7.082031 -16.4375 8.40625 -16.4375 C 9.75 -16.4375 10.820312 -16.203125 11.625 -15.734375 C 12.113281 -16.453125 12.398438 -17.285156 12.484375 -18.234375 L 12.796875 -18.421875 L 15.703125 -17.703125 C 15.609375 -16.929688 15.378906 -16.285156 15.015625 -15.765625 C 14.660156 -15.242188 14.101562 -14.78125 13.34375 -14.375 L 13.34375 -14.046875 C 14.25 -13.242188 14.703125 -12.128906 14.703125 -10.703125 C 14.703125 -9.703125 14.453125 -8.804688 13.953125 -8.015625 C 13.460938 -7.234375 12.738281 -6.613281 11.78125 -6.15625 C 10.832031 -5.695312 9.707031 -5.46875 8.40625 -5.46875 L 7.796875 -5.484375 C 7.398438 -5.503906 7.125 -5.515625 6.96875 -5.515625 C 6.601562 -5.515625 6.3125 -5.410156 6.09375 -5.203125 C 5.882812 -5.003906 5.78125 -4.75 5.78125 -4.4375 C 5.78125 -4.101562 5.914062 -3.835938 6.1875 -3.640625 C 6.46875 -3.453125 6.867188 -3.347656 7.390625 -3.328125 L 11 -3.203125 C 14.570312 -3.097656 16.359375 -1.5625 16.359375 1.40625 C 16.359375 2.445312 16.09375 3.375 15.5625 4.1875 C 15.03125 5 14.171875 5.644531 12.984375 6.125 C 11.796875 6.601562 10.253906 6.84375 8.359375 6.84375 Z M 8.40625 -8.296875 C 9.1875 -8.296875 9.796875 -8.523438 10.234375 -8.984375 C 10.671875 -9.441406 10.890625 -10.097656 10.890625 -10.953125 C 10.890625 -11.796875 10.671875 -12.441406 10.234375 -12.890625 C 9.796875 -13.347656 9.1875 -13.578125 8.40625 -13.578125 C 7.613281 -13.578125 7.003906 -13.347656 6.578125 -12.890625 C 6.148438 -12.441406 5.9375 -11.796875 5.9375 -10.953125 C 5.9375 -10.085938 6.148438 -9.425781 6.578125 -8.96875 C 7.003906 -8.519531 7.613281 -8.296875 8.40625 -8.296875 Z M 8.359375 3.90625 C 9.742188 3.90625 10.75 3.707031 11.375 3.3125 C 12.007812 2.925781 12.328125 2.421875 12.328125 1.796875 C 12.328125 1.285156 12.164062 0.910156 11.84375 0.671875 C 11.519531 0.441406 11.007812 0.316406 10.3125 0.296875 L 7.125 0.140625 C 7.007812 0.140625 6.90625 0.132812 6.8125 0.125 C 6.726562 0.113281 6.640625 0.109375 6.546875 0.109375 C 5.867188 0.109375 5.347656 0.253906 4.984375 0.546875 C 4.628906 0.847656 4.453125 1.253906 4.453125 1.765625 C 4.453125 2.453125 4.78125 2.976562 5.4375 3.34375 C 6.09375 3.71875 7.066406 3.90625 8.359375 3.90625 Z M 8.359375 3.90625 "/></g></g><g transform="translate(410.633638, 103.646189)"><g/></g><g transform="translate(417.695382, 103.646189)"><g><path d="M 20.515625 0 L 16.0625 0 L 14.453125 -4.921875 L 6.265625 -4.921875 L 4.65625 0 L 0.328125 0 L 7.703125 -21.375 L 13.125 -21.375 Z M 10.15625 -16.90625 L 7.40625 -8.484375 L 13.28125 -8.484375 L 10.53125 -16.90625 Z M 10.15625 -16.90625 "/></g></g><g transform="translate(438.529721, 103.646189)"><g><path d="M 2.328125 6.53125 L 2.328125 -16.125 L 6.375 -16.125 L 6.375 -14.015625 L 6.6875 -13.953125 C 7.15625 -14.773438 7.789062 -15.394531 8.59375 -15.8125 C 9.394531 -16.226562 10.332031 -16.4375 11.40625 -16.4375 C 12.695312 -16.4375 13.828125 -16.128906 14.796875 -15.515625 C 15.765625 -14.898438 16.519531 -13.960938 17.0625 -12.703125 C 17.601562 -11.453125 17.875 -9.898438 17.875 -8.046875 C 17.875 -6.210938 17.585938 -4.671875 17.015625 -3.421875 C 16.453125 -2.171875 15.660156 -1.234375 14.640625 -0.609375 C 13.628906 0.00390625 12.460938 0.3125 11.140625 0.3125 C 10.140625 0.3125 9.269531 0.144531 8.53125 -0.1875 C 7.800781 -0.53125 7.1875 -1.054688 6.6875 -1.765625 L 6.375 -1.703125 L 6.375 6.53125 Z M 10.015625 -3.125 C 11.222656 -3.125 12.140625 -3.519531 12.765625 -4.3125 C 13.390625 -5.101562 13.703125 -6.347656 13.703125 -8.046875 C 13.703125 -9.753906 13.390625 -11.003906 12.765625 -11.796875 C 12.140625 -12.597656 11.222656 -13 10.015625 -13 C 8.878906 -13 7.976562 -12.585938 7.3125 -11.765625 C 6.65625 -10.953125 6.328125 -9.710938 6.328125 -8.046875 C 6.328125 -6.398438 6.65625 -5.164062 7.3125 -4.34375 C 7.976562 -3.53125 8.878906 -3.125 10.015625 -3.125 Z M 10.015625 -3.125 "/></g></g><g transform="translate(457.843518, 103.646189)"><g><path d="M 2.328125 6.53125 L 2.328125 -16.125 L 6.375 -16.125 L 6.375 -14.015625 L 6.6875 -13.953125 C 7.15625 -14.773438 7.789062 -15.394531 8.59375 -15.8125 C 9.394531 -16.226562 10.332031 -16.4375 11.40625 -16.4375 C 12.695312 -16.4375 13.828125 -16.128906 14.796875 -15.515625 C 15.765625 -14.898438 16.519531 -13.960938 17.0625 -12.703125 C 17.601562 -11.453125 17.875 -9.898438 17.875 -8.046875 C 17.875 -6.210938 17.585938 -4.671875 17.015625 -3.421875 C 16.453125 -2.171875 15.660156 -1.234375 14.640625 -0.609375 C 13.628906 0.00390625 12.460938 0.3125 11.140625 0.3125 C 10.140625 0.3125 9.269531 0.144531 8.53125 -0.1875 C 7.800781 -0.53125 7.1875 -1.054688 6.6875 -1.765625 L 6.375 -1.703125 L 6.375 6.53125 Z M 10.015625 -3.125 C 11.222656 -3.125 12.140625 -3.519531 12.765625 -4.3125 C 13.390625 -5.101562 13.703125 -6.347656 13.703125 -8.046875 C 13.703125 -9.753906 13.390625 -11.003906 12.765625 -11.796875 C 12.140625 -12.597656 11.222656 -13 10.015625 -13 C 8.878906 -13 7.976562 -12.585938 7.3125 -11.765625 C 6.65625 -10.953125 6.328125 -9.710938 6.328125 -8.046875 C 6.328125 -6.398438 6.65625 -5.164062 7.3125 -4.34375 C 7.976562 -3.53125 8.878906 -3.125 10.015625 -3.125 Z M 10.015625 -3.125 "/></g></g><g transform="translate(477.157315, 103.646189)"><g><path d="M 6.6875 0.3125 C 5.238281 0.3125 4.128906 -0.078125 3.359375 -0.859375 C 2.597656 -1.648438 2.21875 -2.84375 2.21875 -4.4375 L 2.21875 -22.59375 L 6.265625 -22.59375 L 6.265625 -4.609375 C 6.265625 -3.617188 6.675781 -3.125 7.5 -3.125 C 7.726562 -3.125 7.976562 -3.164062 8.25 -3.25 L 8.453125 -3.1875 L 8.8125 -0.078125 C 8.59375 0.046875 8.296875 0.140625 7.921875 0.203125 C 7.554688 0.273438 7.144531 0.3125 6.6875 0.3125 Z M 6.6875 0.3125 "/></g></g><g transform="translate(486.426768, 103.646189)"><g><path d="M 4.34375 -18.046875 C 3.613281 -18.046875 3.019531 -18.269531 2.5625 -18.71875 C 2.101562 -19.164062 1.875 -19.738281 1.875 -20.4375 C 1.875 -21.125 2.101562 -21.6875 2.5625 -22.125 C 3.019531 -22.570312 3.613281 -22.796875 4.34375 -22.796875 C 4.832031 -22.796875 5.265625 -22.691406 5.640625 -22.484375 C 6.023438 -22.285156 6.320312 -22.007812 6.53125 -21.65625 C 6.738281 -21.300781 6.84375 -20.894531 6.84375 -20.4375 C 6.84375 -19.976562 6.738281 -19.566406 6.53125 -19.203125 C 6.320312 -18.847656 6.023438 -18.566406 5.640625 -18.359375 C 5.265625 -18.148438 4.832031 -18.046875 4.34375 -18.046875 Z M 2.328125 0 L 2.328125 -16.125 L 6.375 -16.125 L 6.375 0 Z M 2.328125 0 "/></g></g><g transform="translate(495.111397, 103.646189)"><g><path d="M 9.40625 0.3125 C 7.84375 0.3125 6.460938 -0.0078125 5.265625 -0.65625 C 4.066406 -1.3125 3.128906 -2.265625 2.453125 -3.515625 C 1.785156 -4.773438 1.453125 -6.285156 1.453125 -8.046875 C 1.453125 -9.828125 1.785156 -11.34375 2.453125 -12.59375 C 3.128906 -13.851562 4.0625 -14.804688 5.25 -15.453125 C 6.4375 -16.109375 7.796875 -16.4375 9.328125 -16.4375 C 12.722656 -16.4375 14.898438 -15.203125 15.859375 -12.734375 L 13.078125 -10.75 L 12.78125 -10.75 C 12.445312 -11.507812 12.015625 -12.070312 11.484375 -12.4375 C 10.953125 -12.8125 10.234375 -13 9.328125 -13 C 8.160156 -13 7.25 -12.59375 6.59375 -11.78125 C 5.9375 -10.96875 5.609375 -9.722656 5.609375 -8.046875 C 5.609375 -6.390625 5.9375 -5.15625 6.59375 -4.34375 C 7.257812 -3.53125 8.195312 -3.125 9.40625 -3.125 C 10.28125 -3.125 11.019531 -3.359375 11.625 -3.828125 C 12.238281 -4.304688 12.675781 -4.988281 12.9375 -5.875 L 13.25 -5.90625 L 16.125 -4.328125 C 15.71875 -2.960938 14.957031 -1.847656 13.84375 -0.984375 C 12.738281 -0.117188 11.257812 0.3125 9.40625 0.3125 Z M 9.40625 0.3125 "/></g></g><g transform="translate(511.735006, 103.646189)"><g><path d="M 6.28125 0.3125 C 5.25 0.3125 4.351562 0.125 3.59375 -0.25 C 2.832031 -0.632812 2.25 -1.195312 1.84375 -1.9375 C 1.4375 -2.675781 1.234375 -3.5625 1.234375 -4.59375 C 1.234375 -5.539062 1.4375 -6.335938 1.84375 -6.984375 C 2.25 -7.640625 2.878906 -8.171875 3.734375 -8.578125 C 4.597656 -8.992188 5.722656 -9.316406 7.109375 -9.546875 C 8.066406 -9.703125 8.796875 -9.867188 9.296875 -10.046875 C 9.804688 -10.234375 10.144531 -10.441406 10.3125 -10.671875 C 10.488281 -10.910156 10.578125 -11.210938 10.578125 -11.578125 C 10.578125 -12.097656 10.394531 -12.492188 10.03125 -12.765625 C 9.675781 -13.035156 9.082031 -13.171875 8.25 -13.171875 C 7.351562 -13.171875 6.5 -12.96875 5.6875 -12.5625 C 4.875 -12.164062 4.171875 -11.644531 3.578125 -11 L 3.28125 -11 L 1.59375 -13.546875 C 2.414062 -14.453125 3.414062 -15.160156 4.59375 -15.671875 C 5.769531 -16.179688 7.054688 -16.4375 8.453125 -16.4375 C 10.585938 -16.4375 12.128906 -15.984375 13.078125 -15.078125 C 14.035156 -14.171875 14.515625 -12.882812 14.515625 -11.21875 L 14.515625 -4.203125 C 14.515625 -3.484375 14.832031 -3.125 15.46875 -3.125 C 15.707031 -3.125 15.945312 -3.171875 16.1875 -3.265625 L 16.390625 -3.203125 L 16.671875 -0.375 C 16.453125 -0.226562 16.140625 -0.109375 15.734375 -0.015625 C 15.335938 0.0664062 14.898438 0.109375 14.421875 0.109375 C 13.460938 0.109375 12.710938 -0.0703125 12.171875 -0.4375 C 11.628906 -0.8125 11.238281 -1.390625 11 -2.171875 L 10.703125 -2.203125 C 9.910156 -0.523438 8.4375 0.3125 6.28125 0.3125 Z M 7.578125 -2.71875 C 8.503906 -2.71875 9.25 -3.03125 9.8125 -3.65625 C 10.375 -4.289062 10.65625 -5.164062 10.65625 -6.28125 L 10.65625 -7.921875 L 10.375 -7.984375 C 10.132812 -7.785156 9.816406 -7.617188 9.421875 -7.484375 C 9.023438 -7.359375 8.457031 -7.234375 7.71875 -7.109375 C 6.84375 -6.960938 6.210938 -6.707031 5.828125 -6.34375 C 5.441406 -5.988281 5.25 -5.488281 5.25 -4.84375 C 5.25 -4.144531 5.453125 -3.613281 5.859375 -3.25 C 6.265625 -2.894531 6.835938 -2.71875 7.578125 -2.71875 Z M 7.578125 -2.71875 "/></g></g><g transform="translate(528.73875, 103.646189)"><g><path d="M 11.125 -3.84375 L 12.171875 -0.84375 C 11.734375 -0.488281 11.179688 -0.207031 10.515625 0 C 9.859375 0.207031 9.113281 0.3125 8.28125 0.3125 C 6.53125 0.3125 5.203125 -0.160156 4.296875 -1.109375 C 3.390625 -2.066406 2.9375 -3.453125 2.9375 -5.265625 L 2.9375 -12.921875 L 0.484375 -12.921875 L 0.484375 -16.140625 L 2.9375 -16.140625 L 2.9375 -19.28125 L 6.984375 -19.9375 L 6.984375 -16.140625 L 11.5625 -16.140625 L 11.5625 -12.921875 L 6.984375 -12.921875 L 6.984375 -5.5625 C 6.984375 -4.757812 7.148438 -4.175781 7.484375 -3.8125 C 7.816406 -3.445312 8.300781 -3.265625 8.9375 -3.265625 C 9.65625 -3.265625 10.28125 -3.457031 10.8125 -3.84375 Z M 11.125 -3.84375 "/></g></g><g transform="translate(541.268594, 103.646189)"><g><path d="M 4.34375 -18.046875 C 3.613281 -18.046875 3.019531 -18.269531 2.5625 -18.71875 C 2.101562 -19.164062 1.875 -19.738281 1.875 -20.4375 C 1.875 -21.125 2.101562 -21.6875 2.5625 -22.125 C 3.019531 -22.570312 3.613281 -22.796875 4.34375 -22.796875 C 4.832031 -22.796875 5.265625 -22.691406 5.640625 -22.484375 C 6.023438 -22.285156 6.320312 -22.007812 6.53125 -21.65625 C 6.738281 -21.300781 6.84375 -20.894531 6.84375 -20.4375 C 6.84375 -19.976562 6.738281 -19.566406 6.53125 -19.203125 C 6.320312 -18.847656 6.023438 -18.566406 5.640625 -18.359375 C 5.265625 -18.148438 4.832031 -18.046875 4.34375 -18.046875 Z M 2.328125 0 L 2.328125 -16.125 L 6.375 -16.125 L 6.375 0 Z M 2.328125 0 "/></g></g><g transform="translate(549.953224, 103.646189)"><g><path d="M 9.375 0.3125 C 7.789062 0.3125 6.398438 -0.0078125 5.203125 -0.65625 C 4.015625 -1.3125 3.09375 -2.265625 2.4375 -3.515625 C 1.78125 -4.765625 1.453125 -6.273438 1.453125 -8.046875 C 1.453125 -9.828125 1.78125 -11.34375 2.4375 -12.59375 C 3.09375 -13.851562 4.015625 -14.804688 5.203125 -15.453125 C 6.398438 -16.109375 7.789062 -16.4375 9.375 -16.4375 C 10.945312 -16.4375 12.328125 -16.109375 13.515625 -15.453125 C 14.710938 -14.804688 15.644531 -13.851562 16.3125 -12.59375 C 16.976562 -11.34375 17.3125 -9.828125 17.3125 -8.046875 C 17.3125 -6.273438 16.976562 -4.765625 16.3125 -3.515625 C 15.644531 -2.265625 14.710938 -1.3125 13.515625 -0.65625 C 12.328125 -0.0078125 10.945312 0.3125 9.375 0.3125 Z M 9.375 -3.125 C 11.875 -3.125 13.125 -4.765625 13.125 -8.046875 C 13.125 -9.753906 12.800781 -11.003906 12.15625 -11.796875 C 11.519531 -12.597656 10.59375 -13 9.375 -13 C 6.863281 -13 5.609375 -11.347656 5.609375 -8.046875 C 5.609375 -4.765625 6.863281 -3.125 9.375 -3.125 Z M 9.375 -3.125 "/></g></g><g transform="translate(568.696818, 103.646189)"><g><path d="M 2.328125 0 L 2.328125 -16.125 L 6.21875 -16.125 L 6.21875 -13.75 L 6.515625 -13.6875 C 7.523438 -15.519531 9.15625 -16.4375 11.40625 -16.4375 C 13.257812 -16.4375 14.625 -15.925781 15.5 -14.90625 C 16.375 -13.894531 16.8125 -12.421875 16.8125 -10.484375 L 16.8125 0 L 12.765625 0 L 12.765625 -9.984375 C 12.765625 -11.054688 12.546875 -11.828125 12.109375 -12.296875 C 11.679688 -12.773438 11 -13.015625 10.0625 -13.015625 C 8.894531 -13.015625 7.988281 -12.640625 7.34375 -11.890625 C 6.695312 -11.140625 6.375 -9.957031 6.375 -8.34375 L 6.375 0 Z M 2.328125 0 "/></g></g></g><path fill="#082a71" d="M 347.226562 279.675781 L 347.226562 288.515625 L 406.121094 288.515625 L 406.121094 279.675781 C 406.121094 268.140625 399.492188 258.148438 389.839844 253.316406 C 393.523438 249.828125 395.820312 244.886719 395.820312 239.414062 C 395.820312 228.84375 387.246094 220.265625 376.679688 220.265625 C 366.109375 220.265625 357.535156 228.84375 357.535156 239.414062 C 357.535156 244.886719 359.835938 249.828125 363.519531 253.316406 C 353.855469 258.148438 347.226562 268.140625 347.226562 279.675781 Z M 347.226562 279.675781 " fill-opacity="1" fill-rule="nonzero"/><path fill="#082a71" d="M 514.117188 233.125 L 427.730469 233.125 C 424.792969 233.125 422.414062 235.503906 422.414062 238.441406 C 422.414062 241.378906 424.792969 243.757812 427.730469 243.757812 L 514.117188 243.757812 C 517.050781 243.757812 519.429688 241.378906 519.429688 238.441406 C 519.417969 235.503906 517.042969 233.125 514.117188 233.125 Z M 514.117188 233.125 " fill-opacity="1" fill-rule="nonzero"/><path fill="#082a71" d="M 514.117188 267 L 427.730469 267 C 424.792969 267 422.414062 269.378906 422.414062 272.316406 C 422.414062 275.253906 424.792969 277.632812 427.730469 277.632812 L 514.117188 277.632812 C 517.050781 277.632812 519.429688 275.253906 519.429688 272.316406 C 519.417969 269.378906 517.042969 267 514.117188 267 Z M 514.117188 267 " fill-opacity="1" fill-rule="nonzero"/><path fill="#082a71" d="M 514.117188 305.925781 L 350.660156 305.925781 C 347.726562 305.925781 345.347656 308.304688 345.347656 311.242188 C 345.347656 314.179688 347.726562 316.554688 350.660156 316.554688 L 514.117188 316.554688 C 517.050781 316.554688 519.429688 314.179688 519.429688 311.242188 C 519.417969 308.304688 517.042969 305.925781 514.117188 305.925781 Z M 514.117188 305.925781 " fill-opacity="1" fill-rule="nonzero"/><path fill="#082a71" d="M 514.117188 340.636719 L 350.660156 340.636719 C 347.726562 340.636719 345.347656 343.011719 345.347656 345.953125 C 345.347656 348.890625 347.726562 351.265625 350.660156 351.265625 L 514.117188 351.265625 C 517.050781 351.265625 519.429688 348.890625 519.429688 345.953125 C 519.417969 343.011719 517.042969 340.636719 514.117188 340.636719 Z M 514.117188 340.636719 " fill-opacity="1" fill-rule="nonzero"/><path fill="#082a71" d="M 519.417969 379.828125 C 519.417969 376.890625 517.042969 374.511719 514.105469 374.511719 L 350.660156 374.511719 C 347.726562 374.511719 345.347656 376.886719 345.347656 379.828125 C 345.347656 382.765625 347.726562 385.140625 350.660156 385.140625 L 514.117188 385.140625 C 517.042969 385.140625 519.417969 382.765625 519.417969 379.828125 Z M 519.417969 379.828125 " fill-opacity="1" fill-rule="nonzero"/><path fill="#082a71" d="M 450.847656 449.765625 C 452.617188 451.652344 455.472656 451.988281 457.632812 450.574219 L 468.230469 443.625 L 476.207031 451.703125 C 477.238281 452.742188 478.613281 453.285156 479.988281 453.285156 C 481.136719 453.285156 482.296875 452.910156 483.257812 452.15625 L 493.863281 443.84375 L 502.074219 451.789062 C 503.988281 453.648438 506.957031 453.765625 509.007812 452.183594 C 509.636719 453.066406 510.972656 453.363281 511.914062 452.539062 L 533.5625 433.617188 C 534.621094 432.683594 534.394531 430.972656 533.121094 430.363281 L 512.800781 420.558594 C 511.53125 419.949219 510.050781 420.832031 509.980469 422.238281 L 508.988281 443.714844 L 497.921875 432.996094 C 496.015625 431.148438 493.039062 430.992188 490.957031 432.632812 L 480.429688 440.886719 L 472.730469 433.085938 C 470.953125 431.289062 468.152344 430.992188 466.042969 432.378906 L 463.398438 434.105469 C 462.996094 428.753906 460.71875 423.761719 456.878906 419.929688 C 452.636719 415.6875 446.988281 413.335938 440.976562 413.335938 C 434.96875 413.335938 429.320312 415.675781 425.078125 419.929688 C 420.835938 424.175781 418.488281 429.824219 418.488281 435.835938 C 418.488281 441.847656 420.824219 447.496094 425.078125 451.742188 C 427.148438 453.816406 430.507812 453.816406 432.582031 451.742188 C 434.652344 449.667969 434.652344 446.308594 432.582031 444.234375 C 430.339844 441.996094 429.105469 439.007812 429.105469 435.835938 C 429.105469 429.292969 434.425781 423.957031 440.976562 423.957031 C 447.527344 423.957031 452.851562 429.28125 452.851562 435.835938 C 452.851562 438.429688 452.035156 440.894531 450.484375 442.957031 C 448.933594 445.003906 449.089844 447.878906 450.847656 449.765625 Z M 450.847656 449.765625 " fill-opacity="1" fill-rule="nonzero"/><path fill="#082a71" d="M 513.34375 414.9375 L 552.992188 332.671875 L 575.984375 343.761719 L 536.335938 426.027344 Z M 513.34375 414.9375 " fill-opacity="1" fill-rule="nonzero"/><g clip-path="url(#df9f72ab89)"><path fill="#082a71" d="M 549.375 475.839844 C 549.375 477.011719 548.421875 477.972656 547.242188 477.972656 L 327.347656 477.972656 C 326.179688 477.972656 325.214844 477.019531 325.214844 475.839844 L 325.214844 187.609375 C 325.214844 186.441406 326.167969 185.476562 327.347656 185.476562 L 380.359375 185.476562 L 380.359375 192.511719 C 380.359375 198.335938 385.085938 203.074219 390.917969 203.074219 L 483.691406 203.074219 C 489.511719 203.074219 494.246094 198.347656 494.246094 192.511719 L 494.246094 185.476562 L 547.261719 185.476562 C 548.429688 185.476562 549.394531 186.429688 549.394531 187.609375 L 549.394531 323.542969 L 567.226562 286.542969 L 567.226562 187.609375 C 567.226562 176.597656 558.273438 167.644531 547.273438 167.644531 L 494.257812 167.644531 L 494.257812 160.609375 C 494.257812 154.785156 489.535156 150.050781 483.699219 150.050781 L 468.183594 150.050781 C 464.605469 150.050781 461.511719 147.613281 460.640625 144.15625 C 458.007812 133.722656 448.570312 126 437.3125 126 C 426.070312 126 416.621094 133.722656 413.988281 144.15625 C 413.113281 147.613281 410.019531 150.050781 406.445312 150.050781 L 390.929688 150.050781 C 385.105469 150.050781 380.371094 154.777344 380.371094 160.609375 L 380.371094 167.644531 L 327.347656 167.644531 C 316.335938 167.644531 307.390625 176.605469 307.390625 187.609375 L 307.390625 475.832031 C 307.390625 486.84375 316.347656 495.796875 327.347656 495.796875 L 547.242188 495.796875 C 558.25 495.796875 567.199219 486.835938 567.199219 475.832031 L 567.199219 378.578125 L 549.363281 415.578125 L 549.363281 475.839844 Z M 437.292969 142.679688 C 444.347656 142.679688 450.050781 148.398438 450.050781 155.445312 C 450.050781 162.488281 444.335938 168.207031 437.292969 168.207031 C 430.253906 168.207031 424.535156 162.496094 424.535156 155.453125 C 424.535156 148.410156 430.253906 142.679688 437.292969 142.679688 Z M 437.292969 142.679688 " fill-opacity="1" fill-rule="nonzero"/></g><path fill="#082a71" d="M 615.421875 261.921875 L 617.914062 256.746094 C 620.980469 250.398438 618.308594 242.765625 611.964844 239.699219 C 605.621094 236.632812 597.988281 239.304688 594.925781 245.652344 L 555.277344 327.921875 L 578.265625 339.015625 L 611.972656 269.085938 C 617.207031 272.03125 619.328125 278.605469 616.679688 284.097656 L 596.644531 325.664062 C 594.964844 326.105469 593.46875 327.246094 592.65625 328.933594 C 591.183594 331.992188 592.46875 335.65625 595.511719 337.128906 C 598.566406 338.601562 602.230469 337.316406 603.703125 334.269531 C 604.519531 332.578125 604.488281 330.703125 603.78125 329.113281 L 623.816406 287.542969 C 628.375 278.101562 624.59375 266.773438 615.421875 261.921875 Z M 615.421875 261.921875 " fill-opacity="1" fill-rule="nonzero"/></svg>