<svg xmlns="http://www.w3.org/2000/svg" xmlns:xlink="http://www.w3.org/1999/xlink" width="1200" zoomAndPan="magnify" viewBox="0 0 900 525.000007" height="700" preserveAspectRatio="xMidYMid meet" version="1.0"><defs><g/><clipPath id="9771d8ca59"><path d="M 183.160156 20.601562 L 752.078125 20.601562 L 752.078125 510.167969 L 183.160156 510.167969 Z M 183.160156 20.601562 " clip-rule="nonzero"/></clipPath><clipPath id="7d24a6799f"><path d="M 262.09375 77.59375 L 567 77.59375 L 567 510.269531 L 262.09375 510.269531 Z M 262.09375 77.59375 " clip-rule="nonzero"/></clipPath></defs><g clip-path="url(#9771d8ca59)"><path stroke-linecap="butt" transform="matrix(0.748097, 0, 0, 0.748556, 183.162052, 20.602362)" fill="none" stroke-linejoin="miter" d="M -0.00253354 -0.00106872 L 760.484002 -0.00106872 L 760.484002 654.013114 L -0.00253354 654.013114 L -0.00253354 -0.00106872 " stroke="#ffffff" stroke-width="8" stroke-opacity="1" stroke-miterlimit="4"/></g><g fill="#082a71" fill-opacity="1"><g transform="translate(321.726688, 49.795171)"><g><path d="M 16.328125 -21.375 L 16.328125 -17.828125 L 7 -17.828125 L 7 -12.171875 L 15.46875 -12.171875 L 15.46875 -8.6875 L 7 -8.6875 L 7 0 L 2.78125 0 L 2.78125 -21.375 Z M 16.328125 -21.375 "/></g></g><g transform="translate(339.008224, 49.795171)"><g><path d="M 4.34375 -18.046875 C 3.613281 -18.046875 3.019531 -18.269531 2.5625 -18.71875 C 2.101562 -19.164062 1.875 -19.738281 1.875 -20.4375 C 1.875 -21.125 2.101562 -21.6875 2.5625 -22.125 C 3.019531 -22.570312 3.613281 -22.796875 4.34375 -22.796875 C 4.832031 -22.796875 5.265625 -22.691406 5.640625 -22.484375 C 6.023438 -22.285156 6.320312 -22.007812 6.53125 -21.65625 C 6.738281 -21.300781 6.84375 -20.894531 6.84375 -20.4375 C 6.84375 -19.976562 6.738281 -19.566406 6.53125 -19.203125 C 6.320312 -18.847656 6.023438 -18.566406 5.640625 -18.359375 C 5.265625 -18.148438 4.832031 -18.046875 4.34375 -18.046875 Z M 2.328125 0 L 2.328125 -16.125 L 6.375 -16.125 L 6.375 0 Z M 2.328125 0 "/></g></g><g transform="translate(347.692853, 49.795171)"><g><path d="M 6.6875 0.3125 C 5.238281 0.3125 4.128906 -0.078125 3.359375 -0.859375 C 2.597656 -1.648438 2.21875 -2.84375 2.21875 -4.4375 L 2.21875 -22.59375 L 6.265625 -22.59375 L 6.265625 -4.609375 C 6.265625 -3.617188 6.675781 -3.125 7.5 -3.125 C 7.726562 -3.125 7.976562 -3.164062 8.25 -3.25 L 8.453125 -3.1875 L 8.8125 -0.078125 C 8.59375 0.046875 8.296875 0.140625 7.921875 0.203125 C 7.554688 0.273438 7.144531 0.3125 6.6875 0.3125 Z M 6.6875 0.3125 "/></g></g><g transform="translate(356.962306, 49.795171)"><g><path d="M 4.34375 -18.046875 C 3.613281 -18.046875 3.019531 -18.269531 2.5625 -18.71875 C 2.101562 -19.164062 1.875 -19.738281 1.875 -20.4375 C 1.875 -21.125 2.101562 -21.6875 2.5625 -22.125 C 3.019531 -22.570312 3.613281 -22.796875 4.34375 -22.796875 C 4.832031 -22.796875 5.265625 -22.691406 5.640625 -22.484375 C 6.023438 -22.285156 6.320312 -22.007812 6.53125 -21.65625 C 6.738281 -21.300781 6.84375 -20.894531 6.84375 -20.4375 C 6.84375 -19.976562 6.738281 -19.566406 6.53125 -19.203125 C 6.320312 -18.847656 6.023438 -18.566406 5.640625 -18.359375 C 5.265625 -18.148438 4.832031 -18.046875 4.34375 -18.046875 Z M 2.328125 0 L 2.328125 -16.125 L 6.375 -16.125 L 6.375 0 Z M 2.328125 0 "/></g></g><g transform="translate(365.646936, 49.795171)"><g><path d="M 2.328125 0 L 2.328125 -16.125 L 6.21875 -16.125 L 6.21875 -13.75 L 6.515625 -13.6875 C 7.523438 -15.519531 9.15625 -16.4375 11.40625 -16.4375 C 13.257812 -16.4375 14.625 -15.925781 15.5 -14.90625 C 16.375 -13.894531 16.8125 -12.421875 16.8125 -10.484375 L 16.8125 0 L 12.765625 0 L 12.765625 -9.984375 C 12.765625 -11.054688 12.546875 -11.828125 12.109375 -12.296875 C 11.679688 -12.773438 11 -13.015625 10.0625 -13.015625 C 8.894531 -13.015625 7.988281 -12.640625 7.34375 -11.890625 C 6.695312 -11.140625 6.375 -9.957031 6.375 -8.34375 L 6.375 0 Z M 2.328125 0 "/></g></g><g transform="translate(384.536736, 49.795171)"><g><path d="M 8.359375 6.84375 C 5.703125 6.84375 3.738281 6.453125 2.46875 5.671875 C 1.195312 4.890625 0.5625 3.800781 0.5625 2.40625 C 0.5625 1.5625 0.832031 0.867188 1.375 0.328125 C 1.914062 -0.210938 2.695312 -0.578125 3.71875 -0.765625 L 3.71875 -1.0625 C 3.164062 -1.394531 2.769531 -1.765625 2.53125 -2.171875 C 2.289062 -2.578125 2.171875 -3.046875 2.171875 -3.578125 C 2.171875 -4.878906 3.015625 -5.753906 4.703125 -6.203125 L 4.703125 -6.5 C 3.835938 -7 3.1875 -7.613281 2.75 -8.34375 C 2.3125 -9.082031 2.09375 -9.972656 2.09375 -11.015625 C 2.09375 -12.085938 2.335938 -13.03125 2.828125 -13.84375 C 3.316406 -14.664062 4.035156 -15.300781 4.984375 -15.75 C 5.941406 -16.207031 7.082031 -16.4375 8.40625 -16.4375 C 9.75 -16.4375 10.820312 -16.203125 11.625 -15.734375 C 12.113281 -16.453125 12.398438 -17.285156 12.484375 -18.234375 L 12.796875 -18.421875 L 15.703125 -17.703125 C 15.609375 -16.929688 15.378906 -16.285156 15.015625 -15.765625 C 14.660156 -15.242188 14.101562 -14.78125 13.34375 -14.375 L 13.34375 -14.046875 C 14.25 -13.242188 14.703125 -12.128906 14.703125 -10.703125 C 14.703125 -9.703125 14.453125 -8.804688 13.953125 -8.015625 C 13.460938 -7.234375 12.738281 -6.613281 11.78125 -6.15625 C 10.832031 -5.695312 9.707031 -5.46875 8.40625 -5.46875 L 7.796875 -5.484375 C 7.398438 -5.503906 7.125 -5.515625 6.96875 -5.515625 C 6.601562 -5.515625 6.3125 -5.410156 6.09375 -5.203125 C 5.882812 -5.003906 5.78125 -4.75 5.78125 -4.4375 C 5.78125 -4.101562 5.914062 -3.835938 6.1875 -3.640625 C 6.46875 -3.453125 6.867188 -3.347656 7.390625 -3.328125 L 11 -3.203125 C 14.570312 -3.097656 16.359375 -1.5625 16.359375 1.40625 C 16.359375 2.445312 16.09375 3.375 15.5625 4.1875 C 15.03125 5 14.171875 5.644531 12.984375 6.125 C 11.796875 6.601562 10.253906 6.84375 8.359375 6.84375 Z M 8.40625 -8.296875 C 9.1875 -8.296875 9.796875 -8.523438 10.234375 -8.984375 C 10.671875 -9.441406 10.890625 -10.097656 10.890625 -10.953125 C 10.890625 -11.796875 10.671875 -12.441406 10.234375 -12.890625 C 9.796875 -13.347656 9.1875 -13.578125 8.40625 -13.578125 C 7.613281 -13.578125 7.003906 -13.347656 6.578125 -12.890625 C 6.148438 -12.441406 5.9375 -11.796875 5.9375 -10.953125 C 5.9375 -10.085938 6.148438 -9.425781 6.578125 -8.96875 C 7.003906 -8.519531 7.613281 -8.296875 8.40625 -8.296875 Z M 8.359375 3.90625 C 9.742188 3.90625 10.75 3.707031 11.375 3.3125 C 12.007812 2.925781 12.328125 2.421875 12.328125 1.796875 C 12.328125 1.285156 12.164062 0.910156 11.84375 0.671875 C 11.519531 0.441406 11.007812 0.316406 10.3125 0.296875 L 7.125 0.140625 C 7.007812 0.140625 6.90625 0.132812 6.8125 0.125 C 6.726562 0.113281 6.640625 0.109375 6.546875 0.109375 C 5.867188 0.109375 5.347656 0.253906 4.984375 0.546875 C 4.628906 0.847656 4.453125 1.253906 4.453125 1.765625 C 4.453125 2.453125 4.78125 2.976562 5.4375 3.34375 C 6.09375 3.71875 7.066406 3.90625 8.359375 3.90625 Z M 8.359375 3.90625 "/></g></g><g transform="translate(401.306551, 49.795171)"><g/></g><g transform="translate(408.368295, 49.795171)"><g><path d="M 20.515625 0 L 16.0625 0 L 14.453125 -4.921875 L 6.265625 -4.921875 L 4.65625 0 L 0.328125 0 L 7.703125 -21.375 L 13.125 -21.375 Z M 10.15625 -16.90625 L 7.40625 -8.484375 L 13.28125 -8.484375 L 10.53125 -16.90625 Z M 10.15625 -16.90625 "/></g></g><g transform="translate(429.202633, 49.795171)"><g><path d="M 2.328125 6.53125 L 2.328125 -16.125 L 6.375 -16.125 L 6.375 -14.015625 L 6.6875 -13.953125 C 7.15625 -14.773438 7.789062 -15.394531 8.59375 -15.8125 C 9.394531 -16.226562 10.332031 -16.4375 11.40625 -16.4375 C 12.695312 -16.4375 13.828125 -16.128906 14.796875 -15.515625 C 15.765625 -14.898438 16.519531 -13.960938 17.0625 -12.703125 C 17.601562 -11.453125 17.875 -9.898438 17.875 -8.046875 C 17.875 -6.210938 17.585938 -4.671875 17.015625 -3.421875 C 16.453125 -2.171875 15.660156 -1.234375 14.640625 -0.609375 C 13.628906 0.00390625 12.460938 0.3125 11.140625 0.3125 C 10.140625 0.3125 9.269531 0.144531 8.53125 -0.1875 C 7.800781 -0.53125 7.1875 -1.054688 6.6875 -1.765625 L 6.375 -1.703125 L 6.375 6.53125 Z M 10.015625 -3.125 C 11.222656 -3.125 12.140625 -3.519531 12.765625 -4.3125 C 13.390625 -5.101562 13.703125 -6.347656 13.703125 -8.046875 C 13.703125 -9.753906 13.390625 -11.003906 12.765625 -11.796875 C 12.140625 -12.597656 11.222656 -13 10.015625 -13 C 8.878906 -13 7.976562 -12.585938 7.3125 -11.765625 C 6.65625 -10.953125 6.328125 -9.710938 6.328125 -8.046875 C 6.328125 -6.398438 6.65625 -5.164062 7.3125 -4.34375 C 7.976562 -3.53125 8.878906 -3.125 10.015625 -3.125 Z M 10.015625 -3.125 "/></g></g><g transform="translate(448.51643, 49.795171)"><g><path d="M 2.328125 6.53125 L 2.328125 -16.125 L 6.375 -16.125 L 6.375 -14.015625 L 6.6875 -13.953125 C 7.15625 -14.773438 7.789062 -15.394531 8.59375 -15.8125 C 9.394531 -16.226562 10.332031 -16.4375 11.40625 -16.4375 C 12.695312 -16.4375 13.828125 -16.128906 14.796875 -15.515625 C 15.765625 -14.898438 16.519531 -13.960938 17.0625 -12.703125 C 17.601562 -11.453125 17.875 -9.898438 17.875 -8.046875 C 17.875 -6.210938 17.585938 -4.671875 17.015625 -3.421875 C 16.453125 -2.171875 15.660156 -1.234375 14.640625 -0.609375 C 13.628906 0.00390625 12.460938 0.3125 11.140625 0.3125 C 10.140625 0.3125 9.269531 0.144531 8.53125 -0.1875 C 7.800781 -0.53125 7.1875 -1.054688 6.6875 -1.765625 L 6.375 -1.703125 L 6.375 6.53125 Z M 10.015625 -3.125 C 11.222656 -3.125 12.140625 -3.519531 12.765625 -4.3125 C 13.390625 -5.101562 13.703125 -6.347656 13.703125 -8.046875 C 13.703125 -9.753906 13.390625 -11.003906 12.765625 -11.796875 C 12.140625 -12.597656 11.222656 -13 10.015625 -13 C 8.878906 -13 7.976562 -12.585938 7.3125 -11.765625 C 6.65625 -10.953125 6.328125 -9.710938 6.328125 -8.046875 C 6.328125 -6.398438 6.65625 -5.164062 7.3125 -4.34375 C 7.976562 -3.53125 8.878906 -3.125 10.015625 -3.125 Z M 10.015625 -3.125 "/></g></g><g transform="translate(467.830227, 49.795171)"><g><path d="M 6.6875 0.3125 C 5.238281 0.3125 4.128906 -0.078125 3.359375 -0.859375 C 2.597656 -1.648438 2.21875 -2.84375 2.21875 -4.4375 L 2.21875 -22.59375 L 6.265625 -22.59375 L 6.265625 -4.609375 C 6.265625 -3.617188 6.675781 -3.125 7.5 -3.125 C 7.726562 -3.125 7.976562 -3.164062 8.25 -3.25 L 8.453125 -3.1875 L 8.8125 -0.078125 C 8.59375 0.046875 8.296875 0.140625 7.921875 0.203125 C 7.554688 0.273438 7.144531 0.3125 6.6875 0.3125 Z M 6.6875 0.3125 "/></g></g><g transform="translate(477.09968, 49.795171)"><g><path d="M 4.34375 -18.046875 C 3.613281 -18.046875 3.019531 -18.269531 2.5625 -18.71875 C 2.101562 -19.164062 1.875 -19.738281 1.875 -20.4375 C 1.875 -21.125 2.101562 -21.6875 2.5625 -22.125 C 3.019531 -22.570312 3.613281 -22.796875 4.34375 -22.796875 C 4.832031 -22.796875 5.265625 -22.691406 5.640625 -22.484375 C 6.023438 -22.285156 6.320312 -22.007812 6.53125 -21.65625 C 6.738281 -21.300781 6.84375 -20.894531 6.84375 -20.4375 C 6.84375 -19.976562 6.738281 -19.566406 6.53125 -19.203125 C 6.320312 -18.847656 6.023438 -18.566406 5.640625 -18.359375 C 5.265625 -18.148438 4.832031 -18.046875 4.34375 -18.046875 Z M 2.328125 0 L 2.328125 -16.125 L 6.375 -16.125 L 6.375 0 Z M 2.328125 0 "/></g></g><g transform="translate(485.78431, 49.795171)"><g><path d="M 9.40625 0.3125 C 7.84375 0.3125 6.460938 -0.0078125 5.265625 -0.65625 C 4.066406 -1.3125 3.128906 -2.265625 2.453125 -3.515625 C 1.785156 -4.773438 1.453125 -6.285156 1.453125 -8.046875 C 1.453125 -9.828125 1.785156 -11.34375 2.453125 -12.59375 C 3.128906 -13.851562 4.0625 -14.804688 5.25 -15.453125 C 6.4375 -16.109375 7.796875 -16.4375 9.328125 -16.4375 C 12.722656 -16.4375 14.898438 -15.203125 15.859375 -12.734375 L 13.078125 -10.75 L 12.78125 -10.75 C 12.445312 -11.507812 12.015625 -12.070312 11.484375 -12.4375 C 10.953125 -12.8125 10.234375 -13 9.328125 -13 C 8.160156 -13 7.25 -12.59375 6.59375 -11.78125 C 5.9375 -10.96875 5.609375 -9.722656 5.609375 -8.046875 C 5.609375 -6.390625 5.9375 -5.15625 6.59375 -4.34375 C 7.257812 -3.53125 8.195312 -3.125 9.40625 -3.125 C 10.28125 -3.125 11.019531 -3.359375 11.625 -3.828125 C 12.238281 -4.304688 12.675781 -4.988281 12.9375 -5.875 L 13.25 -5.90625 L 16.125 -4.328125 C 15.71875 -2.960938 14.957031 -1.847656 13.84375 -0.984375 C 12.738281 -0.117188 11.257812 0.3125 9.40625 0.3125 Z M 9.40625 0.3125 "/></g></g><g transform="translate(502.407919, 49.795171)"><g><path d="M 6.28125 0.3125 C 5.25 0.3125 4.351562 0.125 3.59375 -0.25 C 2.832031 -0.632812 2.25 -1.195312 1.84375 -1.9375 C 1.4375 -2.675781 1.234375 -3.5625 1.234375 -4.59375 C 1.234375 -5.539062 1.4375 -6.335938 1.84375 -6.984375 C 2.25 -7.640625 2.878906 -8.171875 3.734375 -8.578125 C 4.597656 -8.992188 5.722656 -9.316406 7.109375 -9.546875 C 8.066406 -9.703125 8.796875 -9.867188 9.296875 -10.046875 C 9.804688 -10.234375 10.144531 -10.441406 10.3125 -10.671875 C 10.488281 -10.910156 10.578125 -11.210938 10.578125 -11.578125 C 10.578125 -12.097656 10.394531 -12.492188 10.03125 -12.765625 C 9.675781 -13.035156 9.082031 -13.171875 8.25 -13.171875 C 7.351562 -13.171875 6.5 -12.96875 5.6875 -12.5625 C 4.875 -12.164062 4.171875 -11.644531 3.578125 -11 L 3.28125 -11 L 1.59375 -13.546875 C 2.414062 -14.453125 3.414062 -15.160156 4.59375 -15.671875 C 5.769531 -16.179688 7.054688 -16.4375 8.453125 -16.4375 C 10.585938 -16.4375 12.128906 -15.984375 13.078125 -15.078125 C 14.035156 -14.171875 14.515625 -12.882812 14.515625 -11.21875 L 14.515625 -4.203125 C 14.515625 -3.484375 14.832031 -3.125 15.46875 -3.125 C 15.707031 -3.125 15.945312 -3.171875 16.1875 -3.265625 L 16.390625 -3.203125 L 16.671875 -0.375 C 16.453125 -0.226562 16.140625 -0.109375 15.734375 -0.015625 C 15.335938 0.0664062 14.898438 0.109375 14.421875 0.109375 C 13.460938 0.109375 12.710938 -0.0703125 12.171875 -0.4375 C 11.628906 -0.8125 11.238281 -1.390625 11 -2.171875 L 10.703125 -2.203125 C 9.910156 -0.523438 8.4375 0.3125 6.28125 0.3125 Z M 7.578125 -2.71875 C 8.503906 -2.71875 9.25 -3.03125 9.8125 -3.65625 C 10.375 -4.289062 10.65625 -5.164062 10.65625 -6.28125 L 10.65625 -7.921875 L 10.375 -7.984375 C 10.132812 -7.785156 9.816406 -7.617188 9.421875 -7.484375 C 9.023438 -7.359375 8.457031 -7.234375 7.71875 -7.109375 C 6.84375 -6.960938 6.210938 -6.707031 5.828125 -6.34375 C 5.441406 -5.988281 5.25 -5.488281 5.25 -4.84375 C 5.25 -4.144531 5.453125 -3.613281 5.859375 -3.25 C 6.265625 -2.894531 6.835938 -2.71875 7.578125 -2.71875 Z M 7.578125 -2.71875 "/></g></g><g transform="translate(519.411663, 49.795171)"><g><path d="M 11.125 -3.84375 L 12.171875 -0.84375 C 11.734375 -0.488281 11.179688 -0.207031 10.515625 0 C 9.859375 0.207031 9.113281 0.3125 8.28125 0.3125 C 6.53125 0.3125 5.203125 -0.160156 4.296875 -1.109375 C 3.390625 -2.066406 2.9375 -3.453125 2.9375 -5.265625 L 2.9375 -12.921875 L 0.484375 -12.921875 L 0.484375 -16.140625 L 2.9375 -16.140625 L 2.9375 -19.28125 L 6.984375 -19.9375 L 6.984375 -16.140625 L 11.5625 -16.140625 L 11.5625 -12.921875 L 6.984375 -12.921875 L 6.984375 -5.5625 C 6.984375 -4.757812 7.148438 -4.175781 7.484375 -3.8125 C 7.816406 -3.445312 8.300781 -3.265625 8.9375 -3.265625 C 9.65625 -3.265625 10.28125 -3.457031 10.8125 -3.84375 Z M 11.125 -3.84375 "/></g></g><g transform="translate(531.941507, 49.795171)"><g><path d="M 4.34375 -18.046875 C 3.613281 -18.046875 3.019531 -18.269531 2.5625 -18.71875 C 2.101562 -19.164062 1.875 -19.738281 1.875 -20.4375 C 1.875 -21.125 2.101562 -21.6875 2.5625 -22.125 C 3.019531 -22.570312 3.613281 -22.796875 4.34375 -22.796875 C 4.832031 -22.796875 5.265625 -22.691406 5.640625 -22.484375 C 6.023438 -22.285156 6.320312 -22.007812 6.53125 -21.65625 C 6.738281 -21.300781 6.84375 -20.894531 6.84375 -20.4375 C 6.84375 -19.976562 6.738281 -19.566406 6.53125 -19.203125 C 6.320312 -18.847656 6.023438 -18.566406 5.640625 -18.359375 C 5.265625 -18.148438 4.832031 -18.046875 4.34375 -18.046875 Z M 2.328125 0 L 2.328125 -16.125 L 6.375 -16.125 L 6.375 0 Z M 2.328125 0 "/></g></g><g transform="translate(540.626136, 49.795171)"><g><path d="M 9.375 0.3125 C 7.789062 0.3125 6.398438 -0.0078125 5.203125 -0.65625 C 4.015625 -1.3125 3.09375 -2.265625 2.4375 -3.515625 C 1.78125 -4.765625 1.453125 -6.273438 1.453125 -8.046875 C 1.453125 -9.828125 1.78125 -11.34375 2.4375 -12.59375 C 3.09375 -13.851562 4.015625 -14.804688 5.203125 -15.453125 C 6.398438 -16.109375 7.789062 -16.4375 9.375 -16.4375 C 10.945312 -16.4375 12.328125 -16.109375 13.515625 -15.453125 C 14.710938 -14.804688 15.644531 -13.851562 16.3125 -12.59375 C 16.976562 -11.34375 17.3125 -9.828125 17.3125 -8.046875 C 17.3125 -6.273438 16.976562 -4.765625 16.3125 -3.515625 C 15.644531 -2.265625 14.710938 -1.3125 13.515625 -0.65625 C 12.328125 -0.0078125 10.945312 0.3125 9.375 0.3125 Z M 9.375 -3.125 C 11.875 -3.125 13.125 -4.765625 13.125 -8.046875 C 13.125 -9.753906 12.800781 -11.003906 12.15625 -11.796875 C 11.519531 -12.597656 10.59375 -13 9.375 -13 C 6.863281 -13 5.609375 -11.347656 5.609375 -8.046875 C 5.609375 -4.765625 6.863281 -3.125 9.375 -3.125 Z M 9.375 -3.125 "/></g></g><g transform="translate(559.369731, 49.795171)"><g><path d="M 2.328125 0 L 2.328125 -16.125 L 6.21875 -16.125 L 6.21875 -13.75 L 6.515625 -13.6875 C 7.523438 -15.519531 9.15625 -16.4375 11.40625 -16.4375 C 13.257812 -16.4375 14.625 -15.925781 15.5 -14.90625 C 16.375 -13.894531 16.8125 -12.421875 16.8125 -10.484375 L 16.8125 0 L 12.765625 0 L 12.765625 -9.984375 C 12.765625 -11.054688 12.546875 -11.828125 12.109375 -12.296875 C 11.679688 -12.773438 11 -13.015625 10.0625 -13.015625 C 8.894531 -13.015625 7.988281 -12.640625 7.34375 -11.890625 C 6.695312 -11.140625 6.375 -9.957031 6.375 -8.34375 L 6.375 0 Z M 2.328125 0 "/></g></g></g><path fill="#082a71" d="M 308.800781 257.398438 L 308.800781 267.742188 L 377.71875 267.742188 L 377.71875 257.398438 C 377.71875 243.902344 369.960938 232.210938 358.664062 226.558594 C 362.972656 222.476562 365.664062 216.695312 365.664062 210.292969 C 365.664062 197.921875 355.628906 187.886719 343.265625 187.886719 C 330.898438 187.886719 320.867188 197.921875 320.867188 210.292969 C 320.867188 216.695312 323.554688 222.476562 327.867188 226.558594 C 316.558594 232.210938 308.800781 243.902344 308.800781 257.398438 Z M 308.800781 257.398438 " fill-opacity="1" fill-rule="nonzero"/><path fill="#082a71" d="M 504.082031 202.933594 L 403 202.933594 C 399.5625 202.933594 396.78125 205.714844 396.78125 209.152344 C 396.78125 212.589844 399.5625 215.371094 403 215.371094 L 504.082031 215.371094 C 507.519531 215.371094 510.300781 212.589844 510.300781 209.152344 C 510.289062 205.714844 507.507812 202.933594 504.082031 202.933594 Z M 504.082031 202.933594 " fill-opacity="1" fill-rule="nonzero"/><path fill="#082a71" d="M 504.082031 242.570312 L 403 242.570312 C 399.5625 242.570312 396.78125 245.351562 396.78125 248.789062 C 396.78125 252.226562 399.5625 255.007812 403 255.007812 L 504.082031 255.007812 C 507.519531 255.007812 510.300781 252.226562 510.300781 248.789062 C 510.289062 245.351562 507.507812 242.570312 504.082031 242.570312 Z M 504.082031 242.570312 " fill-opacity="1" fill-rule="nonzero"/><path fill="#082a71" d="M 504.082031 288.113281 L 312.824219 288.113281 C 309.386719 288.113281 306.605469 290.894531 306.605469 294.332031 C 306.605469 297.769531 309.386719 300.550781 312.824219 300.550781 L 504.082031 300.550781 C 507.519531 300.550781 510.300781 297.769531 510.300781 294.332031 C 510.289062 290.894531 507.507812 288.113281 504.082031 288.113281 Z M 504.082031 288.113281 " fill-opacity="1" fill-rule="nonzero"/><path fill="#082a71" d="M 504.082031 328.726562 L 312.824219 328.726562 C 309.386719 328.726562 306.605469 331.507812 306.605469 334.945312 C 306.605469 338.382812 309.386719 341.164062 312.824219 341.164062 L 504.082031 341.164062 C 507.519531 341.164062 510.300781 338.382812 510.300781 334.945312 C 510.289062 331.507812 507.507812 328.726562 504.082031 328.726562 Z M 504.082031 328.726562 " fill-opacity="1" fill-rule="nonzero"/><path fill="#082a71" d="M 510.289062 374.578125 C 510.289062 371.140625 507.507812 368.359375 504.070312 368.359375 L 312.824219 368.359375 C 309.386719 368.359375 306.605469 371.140625 306.605469 374.578125 C 306.605469 378.015625 309.386719 380.796875 312.824219 380.796875 L 504.082031 380.796875 C 507.507812 380.796875 510.289062 378.015625 510.289062 374.578125 Z M 510.289062 374.578125 " fill-opacity="1" fill-rule="nonzero"/><path fill="#082a71" d="M 430.050781 456.414062 C 432.121094 458.621094 435.464844 459.011719 437.992188 457.355469 L 450.390625 449.230469 L 459.722656 458.675781 C 460.929688 459.894531 462.539062 460.527344 464.148438 460.527344 C 465.492188 460.527344 466.847656 460.089844 467.976562 459.207031 L 480.386719 449.480469 L 489.992188 458.78125 C 492.234375 460.953125 495.703125 461.089844 498.105469 459.242188 C 498.84375 460.277344 500.40625 460.621094 501.507812 459.65625 L 526.835938 437.515625 C 528.078125 436.421875 527.8125 434.421875 526.320312 433.710938 L 502.542969 422.238281 C 501.058594 421.527344 499.324219 422.558594 499.246094 424.203125 L 498.082031 449.332031 L 485.132812 436.789062 C 482.902344 434.628906 479.421875 434.445312 476.984375 436.367188 L 464.664062 446.023438 L 455.65625 436.894531 C 453.574219 434.789062 450.300781 434.445312 447.828125 436.066406 L 444.738281 438.089844 C 444.265625 431.824219 441.601562 425.984375 437.109375 421.503906 C 432.144531 416.535156 425.535156 413.789062 418.503906 413.789062 C 411.46875 413.789062 404.863281 416.523438 399.898438 421.503906 C 394.933594 426.46875 392.1875 433.078125 392.1875 440.113281 C 392.1875 447.148438 394.921875 453.757812 399.898438 458.722656 C 402.320312 461.148438 406.253906 461.148438 408.675781 458.722656 C 411.101562 456.296875 411.101562 452.367188 408.675781 449.941406 C 406.058594 447.320312 404.609375 443.824219 404.609375 440.113281 C 404.609375 432.457031 410.835938 426.214844 418.503906 426.214844 C 426.167969 426.214844 432.394531 432.445312 432.394531 440.113281 C 432.394531 443.148438 431.441406 446.03125 429.625 448.445312 C 427.8125 450.839844 427.996094 454.207031 430.050781 456.414062 Z M 430.050781 456.414062 " fill-opacity="1" fill-rule="nonzero"/><path fill="#082a71" d="M 503.179688 415.660156 L 549.574219 319.40625 L 576.476562 332.382812 L 530.082031 428.636719 Z M 503.179688 415.660156 " fill-opacity="1" fill-rule="nonzero"/><g clip-path="url(#7d24a6799f)"><path fill="#082a71" d="M 545.339844 486.921875 C 545.339844 488.289062 544.222656 489.414062 542.84375 489.414062 L 285.542969 489.414062 C 284.171875 489.414062 283.046875 488.300781 283.046875 486.921875 L 283.046875 149.675781 C 283.046875 148.308594 284.160156 147.183594 285.542969 147.183594 L 347.574219 147.183594 L 347.574219 155.414062 C 347.574219 162.230469 353.101562 167.769531 359.929688 167.769531 L 468.480469 167.769531 C 475.296875 167.769531 480.835938 162.242188 480.835938 155.414062 L 480.835938 147.183594 L 542.867188 147.183594 C 544.234375 147.183594 545.363281 148.296875 545.363281 149.675781 L 545.363281 308.722656 L 566.230469 265.433594 L 566.230469 149.675781 C 566.230469 136.792969 555.75 126.320312 542.878906 126.320312 L 480.847656 126.320312 L 480.847656 118.089844 C 480.847656 111.273438 475.320312 105.730469 468.492188 105.730469 L 450.335938 105.730469 C 446.152344 105.730469 442.53125 102.882812 441.507812 98.835938 C 438.429688 86.628906 427.386719 77.59375 414.214844 77.59375 C 401.058594 77.59375 390.003906 86.628906 386.921875 98.835938 C 385.898438 102.882812 382.28125 105.730469 378.097656 105.730469 L 359.941406 105.730469 C 353.125 105.730469 347.585938 111.261719 347.585938 118.089844 L 347.585938 126.320312 L 285.542969 126.320312 C 272.660156 126.320312 262.191406 136.804688 262.191406 149.675781 L 262.191406 486.910156 C 262.191406 499.796875 272.671875 510.269531 285.542969 510.269531 L 542.84375 510.269531 C 555.726562 510.269531 566.195312 499.785156 566.195312 486.910156 L 566.195312 373.121094 L 545.328125 416.410156 L 545.328125 486.921875 Z M 414.191406 97.109375 C 422.445312 97.109375 429.121094 103.800781 429.121094 112.042969 C 429.121094 120.285156 422.433594 126.976562 414.191406 126.976562 C 405.953125 126.976562 399.265625 120.296875 399.265625 112.054688 C 399.265625 103.8125 405.953125 97.109375 414.191406 97.109375 Z M 414.191406 97.109375 " fill-opacity="1" fill-rule="nonzero"/></g><path fill="#082a71" d="M 622.621094 236.625 L 625.539062 230.570312 C 629.125 223.144531 626 214.210938 618.578125 210.625 C 611.152344 207.039062 602.222656 210.164062 598.636719 217.589844 L 552.246094 313.851562 L 579.148438 326.828125 L 618.589844 245.007812 C 624.714844 248.457031 627.195312 256.144531 624.09375 262.570312 L 600.648438 311.207031 C 598.683594 311.722656 596.9375 313.058594 595.984375 315.035156 C 594.257812 318.609375 595.765625 322.898438 599.328125 324.621094 C 602.902344 326.347656 607.1875 324.839844 608.910156 321.277344 C 609.867188 319.300781 609.832031 317.105469 609.003906 315.242188 L 632.445312 266.605469 C 637.78125 255.558594 633.355469 242.304688 622.621094 236.625 Z M 622.621094 236.625 " fill-opacity="1" fill-rule="nonzero"/></svg>