<svg xmlns="http://www.w3.org/2000/svg" xmlns:xlink="http://www.w3.org/1999/xlink" width="1200" zoomAndPan="magnify" viewBox="0 0 900 525.000007" height="700" preserveAspectRatio="xMidYMid meet" version="1.0"><defs><g/><clipPath id="e5f50f9a89"><path d="M 183.160156 20.601562 L 752.078125 20.601562 L 752.078125 510.167969 L 183.160156 510.167969 Z M 183.160156 20.601562 " clip-rule="nonzero"/></clipPath><clipPath id="9a2e245323"><path d="M 294.984375 150 L 633 150 L 633 487.910156 L 294.984375 487.910156 Z M 294.984375 150 " clip-rule="nonzero"/></clipPath><clipPath id="1d4482f943"><path d="M 363 130.089844 L 640.828125 130.089844 L 640.828125 417 L 363 417 Z M 363 130.089844 " clip-rule="nonzero"/></clipPath></defs><g clip-path="url(#e5f50f9a89)"><path stroke-linecap="butt" transform="matrix(0.748097, 0, 0, 0.748556, 183.162052, 20.602128)" fill="none" stroke-linejoin="miter" d="M -0.00253354 -0.000756076 L 760.484002 -0.000756076 L 760.484002 654.013427 L -0.00253354 654.013427 L -0.00253354 -0.000756076 " stroke="#ffffff" stroke-width="8" stroke-opacity="1" stroke-miterlimit="4"/></g><g fill="#082a71" fill-opacity="1"><g transform="translate(392.085964, 103.646189)"><g><path d="M 20.515625 0 L 16.0625 0 L 14.453125 -4.921875 L 6.265625 -4.921875 L 4.65625 0 L 0.328125 0 L 7.703125 -21.375 L 13.125 -21.375 Z M 10.15625 -16.90625 L 7.40625 -8.484375 L 13.28125 -8.484375 L 10.53125 -16.90625 Z M 10.15625 -16.90625 "/></g></g><g transform="translate(412.920302, 103.646189)"><g><path d="M 2.328125 6.53125 L 2.328125 -16.125 L 6.375 -16.125 L 6.375 -14.015625 L 6.6875 -13.953125 C 7.15625 -14.773438 7.789062 -15.394531 8.59375 -15.8125 C 9.394531 -16.226562 10.332031 -16.4375 11.40625 -16.4375 C 12.695312 -16.4375 13.828125 -16.128906 14.796875 -15.515625 C 15.765625 -14.898438 16.519531 -13.960938 17.0625 -12.703125 C 17.601562 -11.453125 17.875 -9.898438 17.875 -8.046875 C 17.875 -6.210938 17.585938 -4.671875 17.015625 -3.421875 C 16.453125 -2.171875 15.660156 -1.234375 14.640625 -0.609375 C 13.628906 0.00390625 12.460938 0.3125 11.140625 0.3125 C 10.140625 0.3125 9.269531 0.144531 8.53125 -0.1875 C 7.800781 -0.53125 7.1875 -1.054688 6.6875 -1.765625 L 6.375 -1.703125 L 6.375 6.53125 Z M 10.015625 -3.125 C 11.222656 -3.125 12.140625 -3.519531 12.765625 -4.3125 C 13.390625 -5.101562 13.703125 -6.347656 13.703125 -8.046875 C 13.703125 -9.753906 13.390625 -11.003906 12.765625 -11.796875 C 12.140625 -12.597656 11.222656 -13 10.015625 -13 C 8.878906 -13 7.976562 -12.585938 7.3125 -11.765625 C 6.65625 -10.953125 6.328125 -9.710938 6.328125 -8.046875 C 6.328125 -6.398438 6.65625 -5.164062 7.3125 -4.34375 C 7.976562 -3.53125 8.878906 -3.125 10.015625 -3.125 Z M 10.015625 -3.125 "/></g></g><g transform="translate(432.234099, 103.646189)"><g><path d="M 2.328125 6.53125 L 2.328125 -16.125 L 6.375 -16.125 L 6.375 -14.015625 L 6.6875 -13.953125 C 7.15625 -14.773438 7.789062 -15.394531 8.59375 -15.8125 C 9.394531 -16.226562 10.332031 -16.4375 11.40625 -16.4375 C 12.695312 -16.4375 13.828125 -16.128906 14.796875 -15.515625 C 15.765625 -14.898438 16.519531 -13.960938 17.0625 -12.703125 C 17.601562 -11.453125 17.875 -9.898438 17.875 -8.046875 C 17.875 -6.210938 17.585938 -4.671875 17.015625 -3.421875 C 16.453125 -2.171875 15.660156 -1.234375 14.640625 -0.609375 C 13.628906 0.00390625 12.460938 0.3125 11.140625 0.3125 C 10.140625 0.3125 9.269531 0.144531 8.53125 -0.1875 C 7.800781 -0.53125 7.1875 -1.054688 6.6875 -1.765625 L 6.375 -1.703125 L 6.375 6.53125 Z M 10.015625 -3.125 C 11.222656 -3.125 12.140625 -3.519531 12.765625 -4.3125 C 13.390625 -5.101562 13.703125 -6.347656 13.703125 -8.046875 C 13.703125 -9.753906 13.390625 -11.003906 12.765625 -11.796875 C 12.140625 -12.597656 11.222656 -13 10.015625 -13 C 8.878906 -13 7.976562 -12.585938 7.3125 -11.765625 C 6.65625 -10.953125 6.328125 -9.710938 6.328125 -8.046875 C 6.328125 -6.398438 6.65625 -5.164062 7.3125 -4.34375 C 7.976562 -3.53125 8.878906 -3.125 10.015625 -3.125 Z M 10.015625 -3.125 "/></g></g><g transform="translate(451.547896, 103.646189)"><g><path d="M 2.328125 0 L 2.328125 -16.125 L 6.25 -16.125 L 6.25 -13.71875 L 6.5625 -13.671875 C 6.945312 -14.566406 7.457031 -15.222656 8.09375 -15.640625 C 8.726562 -16.054688 9.5 -16.265625 10.40625 -16.265625 C 11.320312 -16.265625 12.019531 -16.109375 12.5 -15.796875 L 11.8125 -12.3125 L 11.5 -12.25 C 11.238281 -12.351562 10.984375 -12.429688 10.734375 -12.484375 C 10.492188 -12.535156 10.203125 -12.5625 9.859375 -12.5625 C 8.722656 -12.5625 7.859375 -12.160156 7.265625 -11.359375 C 6.671875 -10.566406 6.375 -9.296875 6.375 -7.546875 L 6.375 0 Z M 2.328125 0 "/></g></g><g transform="translate(464.194705, 103.646189)"><g><path d="M 9.375 0.3125 C 7.789062 0.3125 6.398438 -0.0078125 5.203125 -0.65625 C 4.015625 -1.3125 3.09375 -2.265625 2.4375 -3.515625 C 1.78125 -4.765625 1.453125 -6.273438 1.453125 -8.046875 C 1.453125 -9.828125 1.78125 -11.34375 2.4375 -12.59375 C 3.09375 -13.851562 4.015625 -14.804688 5.203125 -15.453125 C 6.398438 -16.109375 7.789062 -16.4375 9.375 -16.4375 C 10.945312 -16.4375 12.328125 -16.109375 13.515625 -15.453125 C 14.710938 -14.804688 15.644531 -13.851562 16.3125 -12.59375 C 16.976562 -11.34375 17.3125 -9.828125 17.3125 -8.046875 C 17.3125 -6.273438 16.976562 -4.765625 16.3125 -3.515625 C 15.644531 -2.265625 14.710938 -1.3125 13.515625 -0.65625 C 12.328125 -0.0078125 10.945312 0.3125 9.375 0.3125 Z M 9.375 -3.125 C 11.875 -3.125 13.125 -4.765625 13.125 -8.046875 C 13.125 -9.753906 12.800781 -11.003906 12.15625 -11.796875 C 11.519531 -12.597656 10.59375 -13 9.375 -13 C 6.863281 -13 5.609375 -11.347656 5.609375 -8.046875 C 5.609375 -4.765625 6.863281 -3.125 9.375 -3.125 Z M 9.375 -3.125 "/></g></g><g transform="translate(482.938299, 103.646189)"><g><path d="M 11.09375 0 L 6.265625 0 L 0.3125 -16.125 L 4.546875 -16.125 L 8.546875 -4.640625 L 8.890625 -4.640625 L 12.90625 -16.125 L 17.046875 -16.125 Z M 11.09375 0 "/></g></g><g transform="translate(500.278317, 103.646189)"><g><path d="M 6.28125 0.3125 C 5.25 0.3125 4.351562 0.125 3.59375 -0.25 C 2.832031 -0.632812 2.25 -1.195312 1.84375 -1.9375 C 1.4375 -2.675781 1.234375 -3.5625 1.234375 -4.59375 C 1.234375 -5.539062 1.4375 -6.335938 1.84375 -6.984375 C 2.25 -7.640625 2.878906 -8.171875 3.734375 -8.578125 C 4.597656 -8.992188 5.722656 -9.316406 7.109375 -9.546875 C 8.066406 -9.703125 8.796875 -9.867188 9.296875 -10.046875 C 9.804688 -10.234375 10.144531 -10.441406 10.3125 -10.671875 C 10.488281 -10.910156 10.578125 -11.210938 10.578125 -11.578125 C 10.578125 -12.097656 10.394531 -12.492188 10.03125 -12.765625 C 9.675781 -13.035156 9.082031 -13.171875 8.25 -13.171875 C 7.351562 -13.171875 6.5 -12.96875 5.6875 -12.5625 C 4.875 -12.164062 4.171875 -11.644531 3.578125 -11 L 3.28125 -11 L 1.59375 -13.546875 C 2.414062 -14.453125 3.414062 -15.160156 4.59375 -15.671875 C 5.769531 -16.179688 7.054688 -16.4375 8.453125 -16.4375 C 10.585938 -16.4375 12.128906 -15.984375 13.078125 -15.078125 C 14.035156 -14.171875 14.515625 -12.882812 14.515625 -11.21875 L 14.515625 -4.203125 C 14.515625 -3.484375 14.832031 -3.125 15.46875 -3.125 C 15.707031 -3.125 15.945312 -3.171875 16.1875 -3.265625 L 16.390625 -3.203125 L 16.671875 -0.375 C 16.453125 -0.226562 16.140625 -0.109375 15.734375 -0.015625 C 15.335938 0.0664062 14.898438 0.109375 14.421875 0.109375 C 13.460938 0.109375 12.710938 -0.0703125 12.171875 -0.4375 C 11.628906 -0.8125 11.238281 -1.390625 11 -2.171875 L 10.703125 -2.203125 C 9.910156 -0.523438 8.4375 0.3125 6.28125 0.3125 Z M 7.578125 -2.71875 C 8.503906 -2.71875 9.25 -3.03125 9.8125 -3.65625 C 10.375 -4.289062 10.65625 -5.164062 10.65625 -6.28125 L 10.65625 -7.921875 L 10.375 -7.984375 C 10.132812 -7.785156 9.816406 -7.617188 9.421875 -7.484375 C 9.023438 -7.359375 8.457031 -7.234375 7.71875 -7.109375 C 6.84375 -6.960938 6.210938 -6.707031 5.828125 -6.34375 C 5.441406 -5.988281 5.25 -5.488281 5.25 -4.84375 C 5.25 -4.144531 5.453125 -3.613281 5.859375 -3.25 C 6.265625 -2.894531 6.835938 -2.71875 7.578125 -2.71875 Z M 7.578125 -2.71875 "/></g></g><g transform="translate(517.282061, 103.646189)"><g><path d="M 6.6875 0.3125 C 5.238281 0.3125 4.128906 -0.078125 3.359375 -0.859375 C 2.597656 -1.648438 2.21875 -2.84375 2.21875 -4.4375 L 2.21875 -22.59375 L 6.265625 -22.59375 L 6.265625 -4.609375 C 6.265625 -3.617188 6.675781 -3.125 7.5 -3.125 C 7.726562 -3.125 7.976562 -3.164062 8.25 -3.25 L 8.453125 -3.1875 L 8.8125 -0.078125 C 8.59375 0.046875 8.296875 0.140625 7.921875 0.203125 C 7.554688 0.273438 7.144531 0.3125 6.6875 0.3125 Z M 6.6875 0.3125 "/></g></g></g><g clip-path="url(#9a2e245323)"><path fill="#082a71" d="M 463.898438 150.042969 C 370.792969 150.042969 294.984375 225.828125 294.984375 318.90625 C 294.984375 411.980469 370.792969 487.765625 463.898438 487.765625 C 557.003906 487.765625 632.8125 411.980469 632.8125 318.90625 C 632.8125 278.664062 619.191406 242.679688 596.058594 213.199219 L 580.15625 232.042969 C 600.320312 256.863281 608.210938 284.421875 608.210938 318.902344 C 608.210938 398.667969 543.6875 463.136719 463.894531 463.136719 C 384.105469 463.136719 319.582031 398.667969 319.582031 318.902344 C 319.582031 239.140625 384.105469 174.632812 463.894531 174.632812 C 489.179688 174.632812 508.089844 178.269531 528.734375 189.664062 L 543.847656 169.828125 C 519.671875 156.484375 493.398438 150.042969 463.898438 150.042969 Z M 463.898438 150.042969 " fill-opacity="1" fill-rule="evenodd"/></g><g clip-path="url(#1d4482f943)"><path fill="#082a71" d="M 401.382812 296.695312 C 408.195312 296.695312 413.34375 302.285156 416.839844 313.457031 C 423.824219 334.410156 428.800781 344.882812 431.769531 344.882812 C 434.042969 344.882812 436.398438 343.136719 438.84375 339.648438 C 487.921875 261.078125 533.332031 197.527344 575.070312 148.988281 C 585.898438 136.417969 603.101562 130.132812 626.679688 130.132812 C 632.269531 130.132812 636.023438 130.65625 637.945312 131.703125 C 639.867188 132.753906 640.828125 134.0625 640.828125 135.632812 C 640.828125 138.078125 637.945312 142.878906 632.183594 150.035156 C 564.769531 231.050781 502.242188 316.601562 444.609375 406.691406 C 440.589844 412.976562 432.382812 416.121094 419.984375 416.121094 C 407.40625 416.121094 399.984375 415.597656 397.714844 414.550781 C 391.777344 411.929688 384.789062 398.574219 376.757812 374.476562 C 367.675781 347.765625 363.132812 331.003906 363.132812 324.195312 C 363.132812 316.863281 369.246094 309.789062 381.472656 302.980469 C 388.980469 298.789062 395.617188 296.695312 401.382812 296.695312 " fill-opacity="1" fill-rule="nonzero"/></g></svg>