<svg xmlns="http://www.w3.org/2000/svg" xmlns:xlink="http://www.w3.org/1999/xlink" width="3400" zoomAndPan="magnify" viewBox="0 0 2550 3224.999865" height="4300" preserveAspectRatio="xMidYMid meet" version="1.0"><defs><g/><clipPath id="ce96d6ee4d"><path d="M 0 2799.246094 L 2550 2799.246094 L 2550 3225 L 0 3225 Z M 0 2799.246094 " clip-rule="nonzero"/></clipPath><clipPath id="fd3e5d4cf2"><path d="M 344.246094 357 L 2078 357 L 2078 2091.75 L 344.246094 2091.75 Z M 344.246094 357 " clip-rule="nonzero"/></clipPath><clipPath id="d8adcec19c"><path d="M 693 255 L 2118.746094 255 L 2118.746094 1724 L 693 1724 Z M 693 255 " clip-rule="nonzero"/></clipPath></defs><path stroke-linecap="butt" transform="matrix(0.75, 0, 0, 0.75, 0.000116248, 0.0009375)" fill="none" stroke-linejoin="miter" d="M -0.000154997 -0.00125 L 3399.999911 -0.00125 L 3399.999911 4299.998834 L -0.000154997 4299.998834 L -0.000154997 -0.00125 " stroke="#ffffff" stroke-width="50" stroke-opacity="1" stroke-miterlimit="4"/><g clip-path="url(#ce96d6ee4d)"><path fill="#ffffff" d="M -90 2799.246094 L 2602.265625 2799.246094 L 2602.265625 3224.988281 L -90 3224.988281 Z M -90 2799.246094 " fill-opacity="1" fill-rule="nonzero"/></g><g fill="#000000" fill-opacity="1"><g transform="translate(830.614856, 3077.002531)"><g><path d="M 70.671875 -157.703125 L 138.34375 0 L 119.78125 0 L 102.015625 -42.71875 L 37.734375 -42.71875 L 19.5625 0 L 1.203125 0 Z M 44.515625 -58.296875 L 95.421875 -58.296875 L 70.265625 -118.578125 Z M 27.15625 -150.515625 Z M 27.15625 -150.515625 "/></g></g></g><g fill="#000000" fill-opacity="1"><g transform="translate(970.154484, 3077.002531)"><g><path d="M 30.75 -13.171875 L 30.34375 -13.171875 L 30.34375 52.703125 L 14.375 52.703125 L 14.375 -93.828125 L 30.34375 -93.828125 L 30.34375 -80.453125 L 30.75 -80.453125 C 34.601562 -85.640625 39.320312 -89.597656 44.90625 -92.328125 C 50.5 -95.054688 56.554688 -96.421875 63.078125 -96.421875 C 71.460938 -96.421875 79.113281 -94.222656 86.03125 -89.828125 C 92.957031 -85.441406 98.347656 -79.421875 102.203125 -71.765625 C 106.066406 -64.109375 108 -55.757812 108 -46.71875 C 108 -37.664062 106.132812 -29.3125 102.40625 -21.65625 C 98.675781 -14.007812 93.316406 -8.054688 86.328125 -3.796875 C 79.347656 0.460938 71.53125 2.59375 62.875 2.59375 C 56.488281 2.59375 50.5 1.265625 44.90625 -1.390625 C 39.320312 -4.054688 34.601562 -7.984375 30.75 -13.171875 Z M 59.890625 -81.640625 C 54.703125 -81.640625 49.773438 -80.242188 45.109375 -77.453125 C 40.453125 -74.660156 36.691406 -70.601562 33.828125 -65.28125 C 30.972656 -59.957031 29.546875 -54.164062 29.546875 -47.90625 C 29.546875 -37.925781 32.375 -29.472656 38.03125 -22.546875 C 43.6875 -15.628906 51.101562 -12.171875 60.28125 -12.171875 C 66.539062 -12.171875 72.066406 -13.664062 76.859375 -16.65625 C 81.648438 -19.65625 85.304688 -23.882812 87.828125 -29.34375 C 90.359375 -34.800781 91.625 -40.921875 91.625 -47.703125 C 91.625 -57.691406 88.695312 -65.84375 82.84375 -72.15625 C 76.988281 -78.476562 69.335938 -81.640625 59.890625 -81.640625 Z M 59.890625 -81.640625 "/></g></g></g><g fill="#000000" fill-opacity="1"><g transform="translate(1085.339563, 3077.002531)"><g><path d="M 30.75 -13.171875 L 30.34375 -13.171875 L 30.34375 52.703125 L 14.375 52.703125 L 14.375 -93.828125 L 30.34375 -93.828125 L 30.34375 -80.453125 L 30.75 -80.453125 C 34.601562 -85.640625 39.320312 -89.597656 44.90625 -92.328125 C 50.5 -95.054688 56.554688 -96.421875 63.078125 -96.421875 C 71.460938 -96.421875 79.113281 -94.222656 86.03125 -89.828125 C 92.957031 -85.441406 98.347656 -79.421875 102.203125 -71.765625 C 106.066406 -64.109375 108 -55.757812 108 -46.71875 C 108 -37.664062 106.132812 -29.3125 102.40625 -21.65625 C 98.675781 -14.007812 93.316406 -8.054688 86.328125 -3.796875 C 79.347656 0.460938 71.53125 2.59375 62.875 2.59375 C 56.488281 2.59375 50.5 1.265625 44.90625 -1.390625 C 39.320312 -4.054688 34.601562 -7.984375 30.75 -13.171875 Z M 59.890625 -81.640625 C 54.703125 -81.640625 49.773438 -80.242188 45.109375 -77.453125 C 40.453125 -74.660156 36.691406 -70.601562 33.828125 -65.28125 C 30.972656 -59.957031 29.546875 -54.164062 29.546875 -47.90625 C 29.546875 -37.925781 32.375 -29.472656 38.03125 -22.546875 C 43.6875 -15.628906 51.101562 -12.171875 60.28125 -12.171875 C 66.539062 -12.171875 72.066406 -13.664062 76.859375 -16.65625 C 81.648438 -19.65625 85.304688 -23.882812 87.828125 -29.34375 C 90.359375 -34.800781 91.625 -40.921875 91.625 -47.703125 C 91.625 -57.691406 88.695312 -65.84375 82.84375 -72.15625 C 76.988281 -78.476562 69.335938 -81.640625 59.890625 -81.640625 Z M 59.890625 -81.640625 "/></g></g></g><g fill="#000000" fill-opacity="1"><g transform="translate(1200.524643, 3077.002531)"><g><path d="M 58.296875 -77.453125 C 56.691406 -78.648438 55.191406 -79.644531 53.796875 -80.4375 C 52.398438 -81.238281 50.703125 -81.640625 48.703125 -81.640625 C 42.710938 -81.640625 38.15625 -78.976562 35.03125 -73.65625 C 31.90625 -68.332031 30.34375 -59.75 30.34375 -47.90625 L 30.34375 0 L 14.375 0 L 14.375 -93.828125 L 30.34375 -93.828125 L 30.34375 -83.640625 L 30.75 -83.640625 C 34.601562 -88.828125 38.023438 -92.253906 41.015625 -93.921875 C 44.015625 -95.585938 47.507812 -96.421875 51.5 -96.421875 C 53.894531 -96.421875 56.320312 -96.019531 58.78125 -95.21875 C 61.25 -94.414062 63.613281 -93.351562 65.875 -92.03125 Z M 58.296875 -77.453125 "/></g></g></g><g fill="#000000" fill-opacity="1"><g transform="translate(1267.39987, 3077.002531)"><g><path d="M 6.78125 -46.71875 C 6.78125 -55.632812 8.976562 -63.953125 13.375 -71.671875 C 17.769531 -79.390625 23.757812 -85.441406 31.34375 -89.828125 C 38.925781 -94.222656 47.175781 -96.421875 56.09375 -96.421875 C 65.007812 -96.421875 73.226562 -94.222656 80.75 -89.828125 C 88.269531 -85.441406 94.257812 -79.421875 98.71875 -71.765625 C 103.175781 -64.109375 105.40625 -55.757812 105.40625 -46.71875 C 105.40625 -37.800781 103.207031 -29.515625 98.8125 -21.859375 C 94.425781 -14.203125 88.4375 -8.210938 80.84375 -3.890625 C 73.257812 0.429688 65.007812 2.59375 56.09375 2.59375 C 47.175781 2.59375 38.890625 0.398438 31.234375 -3.984375 C 23.585938 -8.378906 17.597656 -14.398438 13.265625 -22.046875 C 8.941406 -29.703125 6.78125 -37.925781 6.78125 -46.71875 Z M 55.890625 -81.640625 C 46.441406 -81.640625 38.554688 -78.28125 32.234375 -71.5625 C 25.910156 -64.84375 22.75 -56.625 22.75 -46.90625 C 22.75 -39.71875 24.476562 -33.363281 27.9375 -27.84375 C 31.40625 -22.320312 35.632812 -18.328125 40.625 -15.859375 C 45.613281 -13.398438 50.769531 -12.171875 56.09375 -12.171875 C 62.21875 -12.171875 67.804688 -13.601562 72.859375 -16.46875 C 77.921875 -19.332031 81.945312 -23.457031 84.9375 -28.84375 C 87.9375 -34.238281 89.4375 -40.257812 89.4375 -46.90625 C 89.4375 -53.03125 88.070312 -58.753906 85.34375 -64.078125 C 82.613281 -69.398438 78.648438 -73.65625 73.453125 -76.84375 C 68.265625 -80.039062 62.410156 -81.640625 55.890625 -81.640625 Z M 55.890625 -81.640625 "/></g></g></g><g fill="#000000" fill-opacity="1"><g transform="translate(1379.590527, 3077.002531)"><g><path d="M 18.359375 -93.828125 L 46.3125 -30.75 L 74.265625 -93.828125 L 92.234375 -93.828125 L 46.3125 6.1875 L 0.203125 -93.828125 Z M 19.5625 0 Z M 19.5625 0 "/></g></g></g><g fill="#000000" fill-opacity="1"><g transform="translate(1472.018037, 3077.002531)"><g><path d="M 84.84375 -80.453125 L 84.84375 -93.828125 L 100.8125 -93.828125 L 100.8125 0 L 84.84375 0 L 84.84375 -12.96875 L 84.4375 -12.96875 C 76.1875 -2.59375 65.410156 2.59375 52.109375 2.59375 C 39.054688 2.59375 28.304688 -2.195312 19.859375 -11.78125 C 11.410156 -21.363281 7.1875 -33.007812 7.1875 -46.71875 C 7.1875 -61.082031 11.441406 -72.957031 19.953125 -82.34375 C 28.472656 -91.726562 39.253906 -96.421875 52.296875 -96.421875 C 58.816406 -96.421875 64.835938 -95.019531 70.359375 -92.21875 C 75.890625 -89.425781 80.582031 -85.503906 84.4375 -80.453125 Z M 54.09375 -81.640625 C 45.582031 -81.640625 38.363281 -78.378906 32.4375 -71.859375 C 26.519531 -65.335938 23.5625 -57.351562 23.5625 -47.90625 C 23.5625 -37.789062 26.453125 -29.304688 32.234375 -22.453125 C 38.023438 -15.597656 45.378906 -12.171875 54.296875 -12.171875 C 63.742188 -12.171875 71.328125 -15.429688 77.046875 -21.953125 C 82.773438 -28.472656 85.640625 -37.054688 85.640625 -47.703125 C 85.640625 -57.421875 82.710938 -65.503906 76.859375 -71.953125 C 71.003906 -78.410156 63.414062 -81.640625 54.09375 -81.640625 Z M 54.09375 -81.640625 "/></g></g></g><g fill="#000000" fill-opacity="1"><g transform="translate(1587.203135, 3077.002531)"><g><path d="M 30.75 -164.6875 L 30.75 0 L 14.765625 0 L 14.765625 -164.6875 Z M 30.75 -164.6875 "/></g></g></g><g clip-path="url(#fd3e5d4cf2)"><path fill="#ffffff" d="M 1210.929688 357.40625 C 733.203125 357.40625 344.246094 746.421875 344.246094 1224.21875 C 344.246094 1702.011719 733.203125 2091.027344 1210.929688 2091.027344 C 1688.65625 2091.027344 2077.617188 1702.011719 2077.617188 1224.21875 C 2077.617188 1017.65625 2007.730469 832.9375 1889.050781 681.601562 L 1807.445312 778.335938 C 1910.910156 905.742188 1951.402344 1047.199219 1951.402344 1224.214844 C 1951.402344 1633.671875 1620.320312 1964.601562 1210.921875 1964.601562 C 801.523438 1964.601562 470.445312 1633.671875 470.445312 1224.214844 C 470.445312 814.761719 801.523438 483.632812 1210.921875 483.632812 C 1340.648438 483.632812 1437.683594 502.285156 1543.609375 560.792969 L 1621.140625 458.964844 C 1497.113281 390.457031 1362.304688 357.402344 1210.929688 357.402344 Z M 1210.929688 357.40625 " fill-opacity="1" fill-rule="evenodd"/></g><g clip-path="url(#d8adcec19c)"><path fill="#ffffff" d="M 890.164062 1110.214844 C 925.113281 1110.214844 951.546875 1138.894531 969.46875 1196.253906 C 1005.3125 1303.804688 1030.855469 1357.582031 1046.089844 1357.582031 C 1057.738281 1357.582031 1069.835938 1348.617188 1082.382812 1330.691406 C 1334.195312 927.386719 1567.1875 601.144531 1781.359375 351.988281 C 1836.917969 287.460938 1925.1875 255.195312 2046.167969 255.195312 C 2074.839844 255.195312 2094.105469 257.882812 2103.964844 263.261719 C 2113.820312 268.640625 2118.75 275.363281 2118.75 283.425781 C 2118.75 295.976562 2103.964844 320.621094 2074.394531 357.367188 C 1728.492188 773.234375 1407.671875 1212.390625 1111.957031 1674.859375 C 1091.34375 1707.125 1049.226562 1723.257812 985.601562 1723.257812 C 921.082031 1723.257812 882.996094 1720.570312 871.34375 1715.191406 C 840.875 1701.746094 805.03125 1633.183594 763.808594 1509.496094 C 717.210938 1372.371094 693.910156 1286.328125 693.914062 1251.375 C 693.910156 1213.734375 725.277344 1177.433594 788.007812 1142.476562 C 826.539062 1120.96875 860.589844 1110.214844 890.164062 1110.210938 " fill-opacity="1" fill-rule="nonzero"/></g></svg>