<svg xmlns="http://www.w3.org/2000/svg" xmlns:xlink="http://www.w3.org/1999/xlink" width="700" zoomAndPan="magnify" viewBox="0 0 525 525.000007" height="700" preserveAspectRatio="xMidYMid meet" version="1.0"><defs><g/><clipPath id="48065b4d7c"><path d="M 0.503906 0 L 524.496094 0 L 524.496094 524 L 0.503906 524 Z M 0.503906 0 " clip-rule="nonzero"/></clipPath><clipPath id="959f60d086"><path d="M 0.5 419.027344 L 524.5 419.027344 L 524.5 524 L 0.5 524 Z M 0.5 419.027344 " clip-rule="nonzero"/></clipPath><clipPath id="b764754aa4"><path d="M 74.601562 51 L 442 51 L 442 419.367188 L 74.601562 419.367188 Z M 74.601562 51 " clip-rule="nonzero"/></clipPath><clipPath id="b3e642470c"><path d="M 148 30.109375 L 450.386719 30.109375 L 450.386719 342 L 148 342 Z M 148 30.109375 " clip-rule="nonzero"/></clipPath></defs><g clip-path="url(#48065b4d7c)"><path stroke-linecap="butt" transform="matrix(0.748574, 0, 0, 0.74806, 0.502807, 0.000019962)" fill="none" stroke-linejoin="miter" d="M 0.00146884 -0.000026685 L 699.988512 -0.000026685 L 699.988512 705.486118 L 0.00146884 705.486118 L 0.00146884 -0.000026685 " stroke="#ffffff" stroke-width="14" stroke-opacity="1" stroke-miterlimit="4"/></g><g clip-path="url(#959f60d086)"><path fill="#ffffff" d="M -25.699219 419.027344 L 524.5 419.027344 L 524.5 524.035156 L -25.699219 524.035156 Z M -25.699219 419.027344 " fill-opacity="1" fill-rule="nonzero"/></g><g fill="#000000" fill-opacity="1"><g transform="translate(178.326338, 487.329488)"><g><path d="M 14.828125 -33.109375 L 29.046875 0 L 25.140625 0 L 21.421875 -8.96875 L 7.921875 -8.96875 L 4.109375 0 L 0.25 0 Z M 9.34375 -12.234375 L 20.03125 -12.234375 L 14.75 -24.890625 Z M 5.703125 -31.59375 Z M 5.703125 -31.59375 "/></g></g></g><g fill="#000000" fill-opacity="1"><g transform="translate(207.620286, 487.329488)"><g><path d="M 6.453125 -2.765625 L 6.375 -2.765625 L 6.375 11.0625 L 3.015625 11.0625 L 3.015625 -19.703125 L 6.375 -19.703125 L 6.375 -16.890625 L 6.453125 -16.890625 C 7.265625 -17.972656 8.253906 -18.800781 9.421875 -19.375 C 10.597656 -19.945312 11.875 -20.234375 13.25 -20.234375 C 15 -20.234375 16.597656 -19.769531 18.046875 -18.84375 C 19.503906 -17.925781 20.640625 -16.664062 21.453125 -15.0625 C 22.265625 -13.457031 22.671875 -11.707031 22.671875 -9.8125 C 22.671875 -7.90625 22.28125 -6.148438 21.5 -4.546875 C 20.71875 -2.941406 19.59375 -1.691406 18.125 -0.796875 C 16.65625 0.0976562 15.015625 0.546875 13.203125 0.546875 C 11.859375 0.546875 10.597656 0.269531 9.421875 -0.28125 C 8.253906 -0.84375 7.265625 -1.671875 6.453125 -2.765625 Z M 12.578125 -17.140625 C 11.484375 -17.140625 10.445312 -16.84375 9.46875 -16.25 C 8.488281 -15.664062 7.695312 -14.816406 7.09375 -13.703125 C 6.5 -12.585938 6.203125 -11.375 6.203125 -10.0625 C 6.203125 -7.96875 6.796875 -6.191406 7.984375 -4.734375 C 9.171875 -3.285156 10.726562 -2.5625 12.65625 -2.5625 C 13.96875 -2.5625 15.125 -2.875 16.125 -3.5 C 17.132812 -4.125 17.90625 -5.007812 18.4375 -6.15625 C 18.96875 -7.300781 19.234375 -8.585938 19.234375 -10.015625 C 19.234375 -12.109375 18.617188 -13.816406 17.390625 -15.140625 C 16.160156 -16.472656 14.554688 -17.140625 12.578125 -17.140625 Z M 12.578125 -17.140625 "/></g></g></g><g fill="#000000" fill-opacity="1"><g transform="translate(231.801414, 487.329488)"><g><path d="M 6.453125 -2.765625 L 6.375 -2.765625 L 6.375 11.0625 L 3.015625 11.0625 L 3.015625 -19.703125 L 6.375 -19.703125 L 6.375 -16.890625 L 6.453125 -16.890625 C 7.265625 -17.972656 8.253906 -18.800781 9.421875 -19.375 C 10.597656 -19.945312 11.875 -20.234375 13.25 -20.234375 C 15 -20.234375 16.597656 -19.769531 18.046875 -18.84375 C 19.503906 -17.925781 20.640625 -16.664062 21.453125 -15.0625 C 22.265625 -13.457031 22.671875 -11.707031 22.671875 -9.8125 C 22.671875 -7.90625 22.28125 -6.148438 21.5 -4.546875 C 20.71875 -2.941406 19.59375 -1.691406 18.125 -0.796875 C 16.65625 0.0976562 15.015625 0.546875 13.203125 0.546875 C 11.859375 0.546875 10.597656 0.269531 9.421875 -0.28125 C 8.253906 -0.84375 7.265625 -1.671875 6.453125 -2.765625 Z M 12.578125 -17.140625 C 11.484375 -17.140625 10.445312 -16.84375 9.46875 -16.25 C 8.488281 -15.664062 7.695312 -14.816406 7.09375 -13.703125 C 6.5 -12.585938 6.203125 -11.375 6.203125 -10.0625 C 6.203125 -7.96875 6.796875 -6.191406 7.984375 -4.734375 C 9.171875 -3.285156 10.726562 -2.5625 12.65625 -2.5625 C 13.96875 -2.5625 15.125 -2.875 16.125 -3.5 C 17.132812 -4.125 17.90625 -5.007812 18.4375 -6.15625 C 18.96875 -7.300781 19.234375 -8.585938 19.234375 -10.015625 C 19.234375 -12.109375 18.617188 -13.816406 17.390625 -15.140625 C 16.160156 -16.472656 14.554688 -17.140625 12.578125 -17.140625 Z M 12.578125 -17.140625 "/></g></g></g><g fill="#000000" fill-opacity="1"><g transform="translate(255.982542, 487.329488)"><g><path d="M 12.234375 -16.265625 C 11.898438 -16.515625 11.585938 -16.722656 11.296875 -16.890625 C 11.003906 -17.054688 10.644531 -17.140625 10.21875 -17.140625 C 8.96875 -17.140625 8.015625 -16.578125 7.359375 -15.453125 C 6.703125 -14.335938 6.375 -12.539062 6.375 -10.0625 L 6.375 0 L 3.015625 0 L 3.015625 -19.703125 L 6.375 -19.703125 L 6.375 -17.5625 L 6.453125 -17.5625 C 7.265625 -18.644531 7.984375 -19.359375 8.609375 -19.703125 C 9.234375 -20.054688 9.96875 -20.234375 10.8125 -20.234375 C 11.3125 -20.234375 11.816406 -20.148438 12.328125 -19.984375 C 12.847656 -19.816406 13.347656 -19.59375 13.828125 -19.3125 Z M 12.234375 -16.265625 "/></g></g></g><g fill="#000000" fill-opacity="1"><g transform="translate(270.021847, 487.329488)"><g><path d="M 1.421875 -9.8125 C 1.421875 -11.675781 1.878906 -13.414062 2.796875 -15.03125 C 3.722656 -16.65625 4.984375 -17.925781 6.578125 -18.84375 C 8.171875 -19.769531 9.90625 -20.234375 11.78125 -20.234375 C 13.644531 -20.234375 15.363281 -19.769531 16.9375 -18.84375 C 18.519531 -17.925781 19.78125 -16.664062 20.71875 -15.0625 C 21.65625 -13.457031 22.125 -11.707031 22.125 -9.8125 C 22.125 -7.9375 21.660156 -6.191406 20.734375 -4.578125 C 19.816406 -2.972656 18.5625 -1.71875 16.96875 -0.8125 C 15.375 0.09375 13.644531 0.546875 11.78125 0.546875 C 9.90625 0.546875 8.164062 0.0859375 6.5625 -0.828125 C 4.957031 -1.753906 3.695312 -3.019531 2.78125 -4.625 C 1.875 -6.238281 1.421875 -7.96875 1.421875 -9.8125 Z M 11.734375 -17.140625 C 9.753906 -17.140625 8.097656 -16.429688 6.765625 -15.015625 C 5.441406 -13.609375 4.78125 -11.882812 4.78125 -9.84375 C 4.78125 -8.332031 5.140625 -7 5.859375 -5.84375 C 6.585938 -4.6875 7.472656 -3.847656 8.515625 -3.328125 C 9.566406 -2.816406 10.65625 -2.5625 11.78125 -2.5625 C 13.0625 -2.5625 14.234375 -2.859375 15.296875 -3.453125 C 16.359375 -4.054688 17.203125 -4.921875 17.828125 -6.046875 C 18.460938 -7.179688 18.78125 -8.445312 18.78125 -9.84375 C 18.78125 -11.132812 18.492188 -12.335938 17.921875 -13.453125 C 17.347656 -14.566406 16.515625 -15.457031 15.421875 -16.125 C 14.328125 -16.800781 13.097656 -17.140625 11.734375 -17.140625 Z M 11.734375 -17.140625 "/></g></g></g><g fill="#000000" fill-opacity="1"><g transform="translate(293.574347, 487.329488)"><g><path d="M 3.859375 -19.703125 L 9.71875 -6.453125 L 15.59375 -19.703125 L 19.359375 -19.703125 L 9.71875 1.296875 L 0.046875 -19.703125 Z M 4.109375 0 Z M 4.109375 0 "/></g></g></g><g fill="#000000" fill-opacity="1"><g transform="translate(312.977924, 487.329488)"><g><path d="M 17.8125 -16.890625 L 17.8125 -19.703125 L 21.15625 -19.703125 L 21.15625 0 L 17.8125 0 L 17.8125 -2.71875 L 17.71875 -2.71875 C 15.988281 -0.539062 13.726562 0.546875 10.9375 0.546875 C 8.195312 0.546875 5.941406 -0.457031 4.171875 -2.46875 C 2.398438 -4.476562 1.515625 -6.925781 1.515625 -9.8125 C 1.515625 -12.820312 2.40625 -15.3125 4.1875 -17.28125 C 5.976562 -19.25 8.242188 -20.234375 10.984375 -20.234375 C 12.347656 -20.234375 13.609375 -19.941406 14.765625 -19.359375 C 15.929688 -18.773438 16.914062 -17.953125 17.71875 -16.890625 Z M 11.359375 -17.140625 C 9.566406 -17.140625 8.046875 -16.453125 6.796875 -15.078125 C 5.554688 -13.710938 4.9375 -12.039062 4.9375 -10.0625 C 4.9375 -7.9375 5.546875 -6.15625 6.765625 -4.71875 C 7.984375 -3.28125 9.53125 -2.5625 11.40625 -2.5625 C 13.382812 -2.5625 14.972656 -3.242188 16.171875 -4.609375 C 17.378906 -5.972656 17.984375 -7.773438 17.984375 -10.015625 C 17.984375 -12.054688 17.367188 -13.753906 16.140625 -15.109375 C 14.910156 -16.460938 13.316406 -17.140625 11.359375 -17.140625 Z M 11.359375 -17.140625 "/></g></g></g><g fill="#000000" fill-opacity="1"><g transform="translate(337.159051, 487.329488)"><g><path d="M 6.453125 -34.578125 L 6.453125 0 L 3.09375 0 L 3.09375 -34.578125 Z M 6.453125 -34.578125 "/></g></g></g><g clip-path="url(#b764754aa4)"><path fill="#ffffff" d="M 258.140625 51.8125 C 156.972656 51.8125 74.601562 134.253906 74.601562 235.511719 C 74.601562 336.765625 156.972656 419.207031 258.140625 419.207031 C 359.308594 419.207031 441.675781 336.765625 441.675781 235.511719 C 441.675781 191.734375 426.878906 152.589844 401.746094 120.519531 L 384.464844 141.019531 C 406.375 168.019531 414.949219 197.996094 414.949219 235.511719 C 414.949219 322.285156 344.835938 392.417969 258.136719 392.417969 C 171.441406 392.417969 101.328125 322.285156 101.328125 235.511719 C 101.328125 148.738281 171.441406 78.5625 258.136719 78.5625 C 285.609375 78.5625 306.160156 82.515625 328.589844 94.917969 L 345.007812 73.335938 C 318.746094 58.816406 290.195312 51.8125 258.140625 51.8125 Z M 258.140625 51.8125 " fill-opacity="1" fill-rule="evenodd"/></g><g clip-path="url(#b3e642470c)"><path fill="#ffffff" d="M 190.210938 211.351562 C 197.613281 211.351562 203.210938 217.429688 207.003906 229.585938 C 214.597656 252.378906 220.003906 263.773438 223.230469 263.773438 C 225.699219 263.773438 228.261719 261.875 230.917969 258.074219 C 284.242188 172.605469 333.582031 103.46875 378.9375 50.664062 C 390.703125 36.992188 409.398438 30.152344 435.015625 30.152344 C 441.089844 30.152344 445.167969 30.722656 447.257812 31.863281 C 449.34375 33.003906 450.386719 34.425781 450.386719 36.136719 C 450.386719 38.796875 447.257812 44.019531 440.996094 51.804688 C 367.742188 139.9375 299.804688 233.003906 237.179688 331.011719 C 232.816406 337.851562 223.894531 341.269531 210.421875 341.269531 C 196.757812 341.269531 188.691406 340.699219 186.226562 339.558594 C 179.773438 336.710938 172.183594 322.179688 163.453125 295.96875 C 153.585938 266.910156 148.652344 248.671875 148.652344 241.265625 C 148.652344 233.289062 155.292969 225.597656 168.578125 218.1875 C 176.738281 213.628906 183.949219 211.351562 190.210938 211.351562 " fill-opacity="1" fill-rule="nonzero"/></g></svg>