<svg xmlns="http://www.w3.org/2000/svg" xmlns:xlink="http://www.w3.org/1999/xlink" version="1.1" width="1024" height="1024" viewBox="0 0 1024 1024" xml:space="preserve">
<desc>Created with Fabric.js 3.5.0</desc>
<defs>
</defs>
<rect x="0" y="0" width="100%" height="100%" fill="#fff"/>
<g transform="matrix(10.7614 0 0 13.2428 512.0017 423.7696)" id="592331">
<g style="" vector-effect="non-scaling-stroke">
		<g transform="matrix(1 0 0 1 1.6136 -1.0608)">
<linearGradient id="SVGID_1821" gradientUnits="userSpaceOnUse" gradientTransform="matrix(1 0 0 1 0 0)" x1="3.22698" y1="30.9396" x2="80.0005" y2="30.9396">
<stop offset="0%" style="stop-color:rgb(218,227,254);stop-opacity: 1"/>
<stop offset="100%" style="stop-color:rgb(233,239,253);stop-opacity: 1"/>
</linearGradient>
<path style="stroke: none; stroke-width: 1; stroke-dasharray: none; stroke-linecap: butt; stroke-dashoffset: 0; stroke-linejoin: miter; stroke-miterlimit: 4; is-custom-font: none; font-file-url: none; fill: url(#SVGID_1821); fill-rule: nonzero; opacity: 1;" transform=" translate(-41.6136, -30.9392)" d="M 23.2768 2.94077 C 22.239 3.71412 20.3667 5.50469 18.7336 8.17607 C 17.5185 10.1637 17.0836 11.4376 15.9552 11.7581 C 15.1281 11.9933 14.1968 11.5675 12.9192 10.6211 C 10.1854 8.59628 6.97436 9.95654 4.65016 15.348 C 2.32596 20.7394 3.20264 25.8448 7.49284 31.8939 C 10.6327 36.3209 6.41042 36.3691 3.96957 44.0412 C 1.52872 51.7127 4.97117 60.3193 16.2969 60.2169 C 27.6382 60.1145 44.783 60.311 44.783 60.311 C 53.7372 60.4134 63.3982 62.2977 71.7218 56.9935 C 74.7298 55.0766 77.3893 52.1205 78.8657 48.3148 C 80.8152 43.2894 80.164 36.9753 77.5881 32.4532 C 75.871 29.4388 73.3994 30.3072 71.3388 28.3233 C 69.1882 26.2526 67.8945 24.0046 70.9696 20.3192 C 74.0447 16.6339 76.3987 14.1508 74.8442 9.26768 C 72.6141 2.26247 67.3958 2.06041 61.2553 4.32766 C 54.3755 6.86817 53.8873 4.01538 48.5891 2.08383 C 43.1683 0.107268 35.5886 4.55085 30.2573 1.57913 C 28.903 0.824138 25.9051 0.982116 23.2768 2.94031 V 2.94077 Z" stroke-linecap="round"/>
</g>
		<g transform="matrix(1 0 0 1 -25.9431 -11.8529)">
<path style="stroke: none; stroke-width: 1; stroke-dasharray: none; stroke-linecap: butt; stroke-dashoffset: 0; stroke-linejoin: miter; stroke-miterlimit: 4; is-custom-font: none; font-file-url: none; fill: rgb(145,179,250); fill-rule: nonzero; opacity: 1;" transform=" translate(-14.0569, -20.1472)" d="M 23.6768 40.2943 C 23.6768 40.2943 21.9717 15.1285 7.80326 0.116941 C 7.61865 -0.0786947 7.29351 -0.0203715 7.19156 0.228535 C 5.57871 4.16145 -3.52751 29.4232 23.6768 40.2943 Z" stroke-linecap="round"/>
</g>
		<g transform="matrix(1 0 0 1 -24.2664 -8.7741)">
<path style="stroke: none; stroke-width: 1; stroke-dasharray: none; stroke-linecap: butt; stroke-dashoffset: 0; stroke-linejoin: miter; stroke-miterlimit: 4; is-custom-font: none; font-file-url: none; fill: rgb(220,229,254); fill-rule: nonzero; opacity: 1;" transform=" translate(-15.7337, -23.2258)" d="M 8.61246 7.38578 C 8.84529 8.83238 9.13737 10.2758 9.48318 11.7022 C 9.8198 13.1313 10.2 14.5494 10.6184 15.9556 C 11.0418 17.36 11.4946 18.7556 11.9998 20.1319 C 12.4981 21.5106 13.0358 22.8749 13.6296 24.2141 C 14.217 25.556 14.8416 26.8827 15.529 28.1759 C 15.6135 28.3385 15.6957 28.502 15.7825 28.6632 L 16.048 29.144 C 16.2271 29.4632 16.3975 29.7879 16.5835 30.1029 L 17.1414 31.0489 L 17.2801 31.2859 L 17.4262 31.5183 L 17.7182 31.9835 C 18.098 32.6103 18.5205 33.2087 18.9246 33.82 C 19.1318 34.1221 19.3504 34.4161 19.5625 34.715 L 19.8831 35.1614 C 19.9915 35.3093 20.1067 35.4516 20.2169 35.5981 L 20.8851 36.4721 L 21.5855 37.3207 L 21.9363 37.7451 L 22.3033 38.1556 L 23.0325 38.9818 L 23.0344 38.9841 C 23.072 39.0268 23.0679 39.0925 23.0252 39.1301 C 22.9843 39.1664 22.9223 39.1637 22.8842 39.1265 C 20.779 37.0548 18.8833 34.7568 17.2668 32.2755 L 16.9609 31.8117 L 16.808 31.5798 L 16.6624 31.3433 L 16.0833 30.3954 C 15.8909 30.079 15.7141 29.7539 15.529 29.4333 L 15.254 28.9507 C 15.1644 28.7886 15.079 28.6246 14.9913 28.4616 C 14.2817 27.1615 13.6508 25.8205 13.0496 24.468 C 11.8611 21.7562 10.8838 18.9549 10.0972 16.1049 C 9.70361 14.6794 9.36469 13.2397 9.07491 11.7908 C 8.93209 11.0656 8.80488 10.3378 8.69007 9.60849 C 8.57434 8.8783 8.47423 8.14811 8.40764 7.40874 C 8.40259 7.35179 8.44438 7.30174 8.50132 7.29623 C 8.55551 7.29117 8.60419 7.32929 8.61292 7.38256 V 7.38578 H 8.61246 Z" stroke-linecap="round"/>
</g>
		<g transform="matrix(1 0 0 1 -29.3658 1.8447)">
<path style="stroke: none; stroke-width: 1; stroke-dasharray: none; stroke-linecap: butt; stroke-dashoffset: 0; stroke-linejoin: miter; stroke-miterlimit: 4; is-custom-font: none; font-file-url: none; fill: rgb(189,208,251); fill-rule: nonzero; opacity: 1;" transform=" translate(-10.6342, -33.8448)" d="M 21.2684 47.716 C 21.2684 47.716 13.9775 23.6648 0.493407 19.9872 C 0.254144 19.922 0.016718 20.0979 0.00799253 20.3459 C -0.0912028 23.2299 0.404314 38.5781 21.2679 47.716 H 21.2684 Z" stroke-linecap="round"/>
</g>
		<g transform="matrix(1 0 0 1 -28.1861 3.3426)">
<path style="stroke: none; stroke-width: 1; stroke-dasharray: none; stroke-linecap: butt; stroke-dashoffset: 0; stroke-linejoin: miter; stroke-miterlimit: 4; is-custom-font: none; font-file-url: none; fill: rgb(220,229,254); fill-rule: nonzero; opacity: 1;" transform=" translate(-11.8139, -35.3427)" d="M 2.75569 23.9032 C 3.3752 24.9507 4.03283 25.9798 4.7001 27.0003 C 5.03627 27.5091 5.37243 28.0179 5.71364 28.5231 C 6.06037 29.0246 6.4002 29.5311 6.75244 30.0289 C 7.10651 30.5254 7.45645 31.0246 7.81419 31.5187 L 8.89937 32.9915 C 9.63783 33.9618 10.3758 34.9331 11.1405 35.8828 C 11.889 36.8458 12.6817 37.7731 13.4573 38.714 L 14.6591 40.0931 C 14.8603 40.3223 15.0582 40.5542 15.2621 40.7811 L 15.8816 41.4538 C 16.2954 41.9016 16.705 42.3535 17.1229 42.7976 L 18.3996 44.1073 C 18.6127 44.3255 18.8221 44.5473 19.038 44.7622 L 19.6951 45.3982 L 21.0099 46.6703 L 21.0118 46.6722 C 21.0471 46.7066 21.048 46.7631 21.0141 46.7989 C 20.9801 46.8343 20.9241 46.8352 20.8887 46.8021 C 19.1073 45.1296 17.3489 43.4272 15.7122 41.6104 L 15.089 40.9381 C 14.8842 40.7117 14.6849 40.4798 14.4823 40.2511 L 13.2732 38.8729 C 12.4924 37.9329 11.6943 37.0061 10.9411 36.0436 C 9.41464 34.134 7.9561 32.1708 6.56185 30.1635 C 6.211 29.6634 5.87208 29.1545 5.52673 28.6508 C 5.18644 28.1433 4.85165 27.6322 4.51687 27.121 C 3.85832 26.091 3.21263 25.0545 2.60093 23.9932 C 2.57613 23.9505 2.59082 23.8958 2.63353 23.871 C 2.67624 23.8467 2.73043 23.8609 2.75523 23.9032 L 2.75615 23.9045 L 2.75569 23.9032 Z" stroke-linecap="round"/>
</g>
		<g transform="matrix(1 0 0 1 -12.7332 -16.0667)">
<linearGradient id="SVGID_1822" gradientUnits="userSpaceOnUse" gradientTransform="matrix(1 0 0 1 0 0)" x1="25.3607" y1="1.8221" x2="29.735" y2="47.8988">
<stop offset="0%" style="stop-color:rgb(254,112,98);stop-opacity: 1"/>
<stop offset="100%" style="stop-color:rgb(255,146,142);stop-opacity: 1"/>
</linearGradient>
<path style="stroke: none; stroke-width: 1; stroke-dasharray: none; stroke-linecap: butt; stroke-dashoffset: 0; stroke-linejoin: miter; stroke-miterlimit: 4; is-custom-font: none; font-file-url: none; fill: url(#SVGID_1822); fill-rule: nonzero; opacity: 1;" transform=" translate(-27.2668, -15.9332)" d="M 15.2024 30.7715 H 11.3379 V 14.6436 C 11.3379 8.30883 15.866 2.95596 21.871 2.19179 L 29.7726 1.18606 C 33.1733 0.752996 36.5955 1.8694 39.1599 4.24871 C 41.7247 6.62802 43.1957 10.0503 43.1957 13.6383 V 27.7181 H 39.3312 V 13.6383 C 39.3312 11.208 38.3346 8.88977 36.5978 7.27831 C 34.8605 5.66684 32.5427 4.91048 30.2392 5.20393 L 22.3376 6.20966 C 18.2701 6.72722 15.2028 10.3534 15.2028 14.644 V 30.772 L 15.2024 30.7715 Z" stroke-linecap="round"/>
</g>
		<g transform="matrix(1 0 0 1 -12.4366 10.9073)">
<linearGradient id="SVGID_1823" gradientUnits="userSpaceOnUse" gradientTransform="matrix(1 0 0 1 0 0)" x1="24.0838" y1="24.2054" x2="36.3432" y2="82.8358">
<stop offset="0%" style="stop-color:rgb(254,112,98);stop-opacity: 1"/>
<stop offset="100%" style="stop-color:rgb(255,146,142);stop-opacity: 1"/>
</linearGradient>
<path style="stroke: none; stroke-width: 1; stroke-dasharray: none; stroke-linecap: butt; stroke-dashoffset: 0; stroke-linejoin: miter; stroke-miterlimit: 4; is-custom-font: none; font-file-url: none; fill: url(#SVGID_1823); fill-rule: nonzero; opacity: 1;" transform=" translate(-27.5635, -42.9073)" d="M 9.50254 26.7679 L 45.3438 24.5948 C 46.7995 24.5066 48.0239 25.7746 48.0239 27.37 V 58.4443 C 48.0239 59.9795 46.8868 61.2241 45.4838 61.2241 H 10.5041 C 9.13377 61.2241 8.01048 60.0342 7.96547 58.5352 L 7.1044 29.634 C 7.0594 28.1245 8.12437 26.8515 9.50254 26.7679 Z" stroke-linecap="round"/>
</g>
		<g transform="matrix(1 0 0 1 -13.3091 11.7606)">
<linearGradient id="SVGID_1824" gradientUnits="userSpaceOnUse" gradientTransform="matrix(1 0 0 1 0 0)" x1="33.7989" y1="23.2482" x2="14.5146" y2="83.5801">
<stop offset="0%" style="stop-color:rgb(225,71,61);stop-opacity: 1"/>
<stop offset="100%" style="stop-color:rgb(233,96,90);stop-opacity: 1"/>
</linearGradient>
<path style="stroke: none; stroke-width: 1; stroke-dasharray: none; stroke-linecap: butt; stroke-dashoffset: 0; stroke-linejoin: miter; stroke-miterlimit: 4; is-custom-font: none; font-file-url: none; fill: url(#SVGID_1824); fill-rule: nonzero; opacity: 1;" transform=" translate(-26.6909, -43.7607)" d="M 32.5347 52.3226 L 30.3652 45.4969 C 30.1044 44.6763 30.2821 43.7587 30.8396 43.1406 C 31.9514 41.908 32.6136 40.1891 32.5351 38.3007 C 32.3969 34.9712 29.9115 32.2718 26.8681 32.1437 C 23.5005 32.0022 20.7295 34.9478 20.7295 38.6024 C 20.7295 40.6295 21.5828 42.438 22.9173 43.6228 C 23.6094 44.2373 23.8941 45.2471 23.6011 46.1683 L 21.6452 52.3226 C 21.1694 53.8192 22.1848 55.3825 23.6328 55.3825 H 30.5462 C 31.9941 55.3825 33.0095 53.8192 32.5337 52.3226 H 32.5347 Z" stroke-linecap="round"/>
</g>
		<g transform="matrix(1 0 0 1 29.1622 -18.6199)">
<path style="stroke: none; stroke-width: 1; stroke-dasharray: none; stroke-linecap: butt; stroke-dashoffset: 0; stroke-linejoin: miter; stroke-miterlimit: 4; is-custom-font: none; font-file-url: none; fill: rgb(125,151,244); fill-rule: nonzero; opacity: 1;" transform=" translate(-69.1622, -13.3802)" d="M 63.5811 14.9214 C 63.5811 14.9214 73.4694 15.9992 74.7433 14.323 C 74.7433 14.323 73.7297 11.3067 70.7208 11.5074 C 67.7114 11.7081 63.5811 14.9214 63.5811 14.9214 Z" stroke-linecap="round"/>
</g>
		<g transform="matrix(1 0 0 1 13.0711 5.4955)">
<linearGradient id="SVGID_1825" gradientUnits="userSpaceOnUse" gradientTransform="matrix(1 0 0 1 0 0)" x1="31.3995" y1="37.4952" x2="74.7428" y2="37.4952">
<stop offset="0%" style="stop-color:rgb(64,66,226);stop-opacity: 1"/>
<stop offset="100%" style="stop-color:rgb(79,82,255);stop-opacity: 1"/>
</linearGradient>
<path style="stroke: none; stroke-width: 1; stroke-dasharray: none; stroke-linecap: butt; stroke-dashoffset: 0; stroke-linejoin: miter; stroke-miterlimit: 4; is-custom-font: none; font-file-url: none; fill: url(#SVGID_1825); fill-rule: nonzero; opacity: 1;" transform=" translate(-53.0711, -37.4956)" d="M 31.4211 18.3152 C 32.2835 28.0055 34.0943 48.5022 34.8824 58.487 C 35.0578 60.7129 36.8419 62.4709 39.0702 62.6142 C 47.0076 63.1235 64.8706 64.1122 71.7252 63.1923 C 70.155 62.4181 69.1658 60.8139 69.1801 59.0629 L 69.5443 14.2596 C 69.5571 12.6766 71.1341 11.5391 72.6166 12.0943 C 73.5506 12.4443 74.2579 13.1901 74.7428 14.323 C 74.0958 12.4369 73.0776 11.0574 70.7204 11.5074 C 70.7204 11.5074 47.6639 11.738 36.4755 12.4319 C 33.4353 12.6202 31.1511 15.2814 31.4211 18.3152 Z" stroke-linecap="round"/>
</g>
		<g transform="matrix(1 0 0 1 10.9323 5.7083)">
<path style="stroke: none; stroke-width: 1; stroke-dasharray: none; stroke-linecap: butt; stroke-dashoffset: 0; stroke-linejoin: miter; stroke-miterlimit: 4; is-custom-font: none; font-file-url: none; fill: rgb(189,208,251); fill-rule: nonzero; opacity: 1;" transform=" translate(-50.9324, -37.7083)" d="M 37.1251 13.714 L 68.1062 12.5214 C 66.8286 21.9812 67.3678 41.2458 67.8555 60.2316 C 67.8844 61.3572 68.5443 62.3702 69.5625 62.8511 C 69.5625 62.8511 48.8981 63.0889 40.0192 62.4593 C 37.9288 62.311 36.2232 60.7289 35.9127 58.6564 C 34.6939 50.5224 31.7773 29.5086 32.3844 18.3835 C 32.5236 15.8361 34.5759 13.8118 37.1251 13.714 Z" stroke-linecap="round"/>
</g>
		<g transform="matrix(1 0 0 1 -0.7462 -3.2465)">
<linearGradient id="SVGID_1826" gradientUnits="userSpaceOnUse" gradientTransform="matrix(1 0 0 1 0 0)" x1="36.777" y1="28.7536" x2="41.7298" y2="28.7536">
<stop offset="0%" style="stop-color:rgb(218,227,254);stop-opacity: 1"/>
<stop offset="100%" style="stop-color:rgb(233,239,253);stop-opacity: 1"/>
</linearGradient>
<path style="stroke: none; stroke-width: 1; stroke-dasharray: none; stroke-linecap: butt; stroke-dashoffset: 0; stroke-linejoin: miter; stroke-miterlimit: 4; is-custom-font: none; font-file-url: none; fill: url(#SVGID_1826); fill-rule: nonzero; opacity: 0.78;" transform=" translate(-39.2538, -28.7535)" d="M 36.7843 27.2106 L 37.1457 30.681 C 37.2119 31.3171 37.7359 31.8075 38.3751 31.8323 L 40.3958 31.9099 C 41.1246 31.938 41.7303 31.3547 41.7303 30.6254 V 26.8817 C 41.7303 26.1304 41.0883 25.5389 40.3397 25.6005 L 37.9577 25.7961 C 37.2394 25.8553 36.7099 26.4932 36.7843 27.2106 Z" stroke-linecap="round"/>
</g>
		<g transform="matrix(1 0 0 1 13.6775 -5.399)">
<linearGradient id="SVGID_1827" gradientUnits="userSpaceOnUse" gradientTransform="matrix(1 0 0 1 0 0)" x1="43.1842" y1="26.6008" x2="64.1714" y2="26.6008">
<stop offset="0%" style="stop-color:rgb(218,227,254);stop-opacity: 1"/>
<stop offset="100%" style="stop-color:rgb(233,239,253);stop-opacity: 1"/>
</linearGradient>
<path style="stroke: none; stroke-width: 1; stroke-dasharray: none; stroke-linecap: butt; stroke-dashoffset: 0; stroke-linejoin: miter; stroke-miterlimit: 4; is-custom-font: none; font-file-url: none; fill: url(#SVGID_1827); fill-rule: nonzero; opacity: 0.78;" transform=" translate(-53.6775, -26.6011)" d="M 43.8891 26.1411 C 47.2521 26.0364 60.1608 25.6171 63.4205 25.511 C 63.8315 25.4977 64.1714 25.8274 64.1714 26.2389 C 64.1714 26.6306 63.8618 26.9521 63.4701 26.9663 L 43.9511 27.691 C 43.575 27.7048 43.2503 27.4302 43.2021 27.0573 L 43.1897 26.9627 C 43.1346 26.536 43.4584 26.1549 43.8882 26.1415 L 43.8891 26.1411 Z" stroke-linecap="round"/>
</g>
		<g transform="matrix(1 0 0 1 10.6126 -2.03)">
<linearGradient id="SVGID_1828" gradientUnits="userSpaceOnUse" gradientTransform="matrix(1 0 0 1 0 0)" x1="43.5688" y1="29.9701" x2="57.6559" y2="29.9701">
<stop offset="0%" style="stop-color:rgb(218,227,254);stop-opacity: 1"/>
<stop offset="100%" style="stop-color:rgb(233,239,253);stop-opacity: 1"/>
</linearGradient>
<path style="stroke: none; stroke-width: 1; stroke-dasharray: none; stroke-linecap: butt; stroke-dashoffset: 0; stroke-linejoin: miter; stroke-miterlimit: 4; is-custom-font: none; font-file-url: none; fill: url(#SVGID_1828); fill-rule: nonzero; opacity: 0.78;" transform=" translate(-50.6126, -29.97)" d="M 43.6777 30.7159 C 43.7346 30.8114 43.8389 30.8693 43.9505 30.867 L 57.3533 30.5758 C 57.5218 30.5722 57.6564 30.4348 57.6564 30.2663 V 29.3827 C 57.6564 29.2073 57.5108 29.0668 57.3349 29.0732 L 44.3059 29.5605 C 43.7254 29.582 43.3805 30.2172 43.6777 30.7159 Z" stroke-linecap="round"/>
</g>
		<g transform="matrix(1 0 0 1 -0.7462 6.3851)">
<linearGradient id="SVGID_1829" gradientUnits="userSpaceOnUse" gradientTransform="matrix(1 0 0 1 0 0)" x1="36.777" y1="38.3847" x2="41.7298" y2="38.3847">
<stop offset="0%" style="stop-color:rgb(218,227,254);stop-opacity: 1"/>
<stop offset="100%" style="stop-color:rgb(233,239,253);stop-opacity: 1"/>
</linearGradient>
<path style="stroke: none; stroke-width: 1; stroke-dasharray: none; stroke-linecap: butt; stroke-dashoffset: 0; stroke-linejoin: miter; stroke-miterlimit: 4; is-custom-font: none; font-file-url: none; fill: url(#SVGID_1829); fill-rule: nonzero; opacity: 0.78;" transform=" translate(-39.2538, -38.3851)" d="M 36.7843 36.8422 L 37.1457 40.3126 C 37.2119 40.9487 37.7359 41.4391 38.3751 41.4639 L 40.3958 41.5415 C 41.1246 41.5695 41.7303 40.9863 41.7303 40.257 V 36.5133 C 41.7303 35.762 41.0883 35.1705 40.3397 35.2321 L 37.9577 35.4277 C 37.2394 35.4869 36.7099 36.1248 36.7843 36.8422 Z" stroke-linecap="round"/>
</g>
		<g transform="matrix(1 0 0 1 13.6775 4.2321)">
<linearGradient id="SVGID_1830" gradientUnits="userSpaceOnUse" gradientTransform="matrix(1 0 0 1 0 0)" x1="43.1842" y1="36.2323" x2="64.1714" y2="36.2323">
<stop offset="0%" style="stop-color:rgb(218,227,254);stop-opacity: 1"/>
<stop offset="100%" style="stop-color:rgb(233,239,253);stop-opacity: 1"/>
</linearGradient>
<path style="stroke: none; stroke-width: 1; stroke-dasharray: none; stroke-linecap: butt; stroke-dashoffset: 0; stroke-linejoin: miter; stroke-miterlimit: 4; is-custom-font: none; font-file-url: none; fill: url(#SVGID_1830); fill-rule: nonzero; opacity: 0.78;" transform=" translate(-53.6775, -36.2322)" d="M 43.8891 35.7722 C 47.2521 35.6675 60.1608 35.2477 63.4205 35.1421 C 63.8315 35.1288 64.1714 35.4585 64.1714 35.87 C 64.1714 36.2617 63.8618 36.5832 63.4701 36.5974 L 43.9511 37.3221 C 43.575 37.3359 43.2503 37.0613 43.2021 36.6884 L 43.1897 36.5938 C 43.1346 36.1671 43.4584 35.786 43.8882 35.7726 L 43.8891 35.7722 Z" stroke-linecap="round"/>
</g>
		<g transform="matrix(1 0 0 1 10.6126 7.6012)">
<linearGradient id="SVGID_1831" gradientUnits="userSpaceOnUse" gradientTransform="matrix(1 0 0 1 0 0)" x1="43.5688" y1="39.6013" x2="57.6559" y2="39.6013">
<stop offset="0%" style="stop-color:rgb(218,227,254);stop-opacity: 1"/>
<stop offset="100%" style="stop-color:rgb(233,239,253);stop-opacity: 1"/>
</linearGradient>
<path style="stroke: none; stroke-width: 1; stroke-dasharray: none; stroke-linecap: butt; stroke-dashoffset: 0; stroke-linejoin: miter; stroke-miterlimit: 4; is-custom-font: none; font-file-url: none; fill: url(#SVGID_1831); fill-rule: nonzero; opacity: 0.78;" transform=" translate(-50.6126, -39.6012)" d="M 43.6777 40.3471 C 43.7346 40.4427 43.8389 40.5005 43.9505 40.4982 L 57.3533 40.2071 C 57.5218 40.2034 57.6564 40.0661 57.6564 39.8975 V 39.014 C 57.6564 38.8385 57.5108 38.698 57.3349 38.7044 L 44.3059 39.1917 C 43.7254 39.2133 43.3805 39.8484 43.6777 40.3476 V 40.3471 Z" stroke-linecap="round"/>
</g>
		<g transform="matrix(1 0 0 1 -0.7462 16.0162)">
<linearGradient id="SVGID_1832" gradientUnits="userSpaceOnUse" gradientTransform="matrix(1 0 0 1 0 0)" x1="36.777" y1="48.0158" x2="41.7298" y2="48.0158">
<stop offset="0%" style="stop-color:rgb(218,227,254);stop-opacity: 1"/>
<stop offset="100%" style="stop-color:rgb(233,239,253);stop-opacity: 1"/>
</linearGradient>
<path style="stroke: none; stroke-width: 1; stroke-dasharray: none; stroke-linecap: butt; stroke-dashoffset: 0; stroke-linejoin: miter; stroke-miterlimit: 4; is-custom-font: none; font-file-url: none; fill: url(#SVGID_1832); fill-rule: nonzero; opacity: 0.78;" transform=" translate(-39.2538, -48.0162)" d="M 36.7843 46.4733 L 37.1457 49.9437 C 37.2119 50.5798 37.7359 51.0702 38.3751 51.095 L 40.3958 51.1726 C 41.1246 51.2007 41.7303 50.6174 41.7303 49.8881 V 46.1444 C 41.7303 45.3931 41.0883 44.8016 40.3397 44.8632 L 37.9577 45.0588 C 37.2394 45.118 36.7099 45.7559 36.7843 46.4733 Z" stroke-linecap="round"/>
</g>
		<g transform="matrix(1 0 0 1 13.6775 13.8637)">
<linearGradient id="SVGID_1833" gradientUnits="userSpaceOnUse" gradientTransform="matrix(1 0 0 1 0 0)" x1="43.1842" y1="45.8635" x2="64.1714" y2="45.8635">
<stop offset="0%" style="stop-color:rgb(218,227,254);stop-opacity: 1"/>
<stop offset="100%" style="stop-color:rgb(233,239,253);stop-opacity: 1"/>
</linearGradient>
<path style="stroke: none; stroke-width: 1; stroke-dasharray: none; stroke-linecap: butt; stroke-dashoffset: 0; stroke-linejoin: miter; stroke-miterlimit: 4; is-custom-font: none; font-file-url: none; fill: url(#SVGID_1833); fill-rule: nonzero; opacity: 0.78;" transform=" translate(-53.6775, -45.8638)" d="M 43.8891 45.4038 C 47.2521 45.2991 60.1608 44.8798 63.4205 44.7737 C 63.8315 44.7604 64.1714 45.0901 64.1714 45.5016 C 64.1714 45.8933 63.8618 46.2148 63.4701 46.229 L 43.9511 46.9537 C 43.575 46.9675 43.2503 46.6929 43.2021 46.32 L 43.1897 46.2254 C 43.1346 45.7987 43.4584 45.4176 43.8882 45.4042 L 43.8891 45.4038 Z" stroke-linecap="round"/>
</g>
		<g transform="matrix(1 0 0 1 10.6126 17.2328)">
<linearGradient id="SVGID_1834" gradientUnits="userSpaceOnUse" gradientTransform="matrix(1 0 0 1 0 0)" x1="43.5688" y1="49.2325" x2="57.6559" y2="49.2325">
<stop offset="0%" style="stop-color:rgb(218,227,254);stop-opacity: 1"/>
<stop offset="100%" style="stop-color:rgb(233,239,253);stop-opacity: 1"/>
</linearGradient>
<path style="stroke: none; stroke-width: 1; stroke-dasharray: none; stroke-linecap: butt; stroke-dashoffset: 0; stroke-linejoin: miter; stroke-miterlimit: 4; is-custom-font: none; font-file-url: none; fill: url(#SVGID_1834); fill-rule: nonzero; opacity: 0.78;" transform=" translate(-50.6126, -49.2328)" d="M 43.6777 49.9787 C 43.7346 50.0742 43.8389 50.1321 43.9505 50.1298 L 57.3533 49.8387 C 57.5218 49.835 57.6564 49.6977 57.6564 49.5291 V 48.6456 C 57.6564 48.4701 57.5108 48.3296 57.3349 48.336 L 44.3059 48.8233 C 43.7254 48.8449 43.3805 49.48 43.6777 49.9787 Z" stroke-linecap="round"/>
</g>
		<g transform="matrix(1 0 0 1 15.8572 24.5215)">
<linearGradient id="SVGID_1835" gradientUnits="userSpaceOnUse" gradientTransform="matrix(1 0 0 1 0 0)" x1="51.5796" y1="56.521" x2="60.1338" y2="56.521">
<stop offset="0%" style="stop-color:rgb(9,0,93);stop-opacity: 1"/>
<stop offset="100%" style="stop-color:rgb(26,15,145);stop-opacity: 1"/>
</linearGradient>
<path style="stroke: none; stroke-width: 1; stroke-dasharray: none; stroke-linecap: butt; stroke-dashoffset: 0; stroke-linejoin: miter; stroke-miterlimit: 4; is-custom-font: none; font-file-url: none; fill: url(#SVGID_1835); fill-rule: nonzero; opacity: 1;" transform=" translate(-55.8572, -56.5215)" d="M 53.7954 60.9077 C 53.6521 60.9077 53.507 60.8383 53.3522 60.6964 C 52.7456 60.1389 52.6055 59.2668 52.5706 58.4503 C 52.2781 58.78 51.9773 59.1006 51.6802 59.417 L 51.5796 59.3228 C 51.9089 58.972 52.2423 58.617 52.5637 58.2491 C 52.5366 57.1534 52.5867 56.0462 52.713 54.9573 C 52.7897 54.2946 52.9004 53.5929 53.1869 52.9546 C 53.2774 52.7534 53.4266 52.4655 53.682 52.2873 C 53.9442 52.1041 54.2863 52.0834 54.515 52.2368 C 54.7731 52.4104 54.8434 52.7442 54.8737 52.9803 C 55.056 54.3989 54.5017 55.7008 54.0048 56.5431 C 53.6328 57.1736 53.1814 57.7509 52.7029 58.2996 C 52.7268 59.1276 52.8393 60.0383 53.4455 60.5949 C 53.5777 60.7166 53.6962 60.7736 53.8064 60.7694 C 53.9892 60.763 54.132 60.5931 54.2473 60.4282 C 54.7506 59.7072 55.1424 58.9247 55.4161 58.0953 C 55.4473 57.8496 55.5157 57.6085 55.62 57.3839 L 55.7495 57.4294 C 55.6921 57.665 55.6259 57.8973 55.5511 58.126 C 55.5221 58.3649 55.5309 58.6078 55.5782 58.8438 C 55.6039 58.9724 55.7127 59.3963 56.0347 59.4574 C 56.2767 59.5038 56.515 59.3343 56.7846 58.9242 L 57.7265 57.4928 L 57.6392 57.868 C 57.5901 58.0792 57.5093 58.5848 57.8174 58.7116 C 57.9942 58.7841 58.1802 58.6799 58.3763 58.5692 C 58.5669 58.4618 58.7639 58.3515 58.9816 58.38 L 59.0528 58.3897 L 59.0404 58.4604 C 58.9898 58.7538 59.0151 59.1152 59.2539 59.1681 C 59.4105 59.2025 59.5377 59.0849 59.6851 58.9485 C 59.8091 58.8337 59.9377 58.7153 60.1021 58.6753 L 60.1347 58.8094 C 60.0052 58.8406 59.8904 58.9472 59.7793 59.05 C 59.6181 59.1988 59.4518 59.3527 59.225 59.3031 C 58.915 59.2346 58.8498 58.864 58.8939 58.5146 C 58.746 58.521 58.599 58.6037 58.4447 58.6905 C 58.2284 58.8126 58.0043 58.9384 57.7655 58.8402 C 57.5419 58.7483 57.4353 58.5045 57.4569 58.1545 L 56.8999 59.0009 C 56.7084 59.2916 56.408 59.67 56.0089 59.5938 C 55.7348 59.5414 55.5235 59.2714 55.4432 58.8719 C 55.4216 58.7653 55.4078 58.6569 55.4014 58.5486 C 55.1364 59.2397 54.7883 59.8955 54.3607 60.5081 C 54.2262 60.701 54.0553 60.8994 53.8119 60.9086 C 53.8064 60.9086 53.8014 60.9086 53.7959 60.9086 L 53.7954 60.9077 Z M 54.1578 52.2712 C 54.0246 52.2712 53.8831 52.3149 53.7614 52.4003 C 53.5341 52.5592 53.3968 52.8251 53.3132 53.0111 C 53.0345 53.6324 52.9261 54.3213 52.8503 54.9734 C 52.7309 56.0053 52.6799 57.0546 52.6988 58.0944 C 53.1355 57.5851 53.5456 57.051 53.8868 56.4728 C 54.3731 55.6494 54.915 54.3778 54.7378 52.9977 C 54.6951 52.6648 54.6 52.4595 54.4388 52.3511 C 54.3594 52.2979 54.2611 52.2712 54.1582 52.2712 H 54.1578 Z" stroke-linecap="round"/>
</g>
		<g transform="matrix(1 0 0 1 -0.7596 -3.1084)">
<linearGradient id="SVGID_1836" gradientUnits="userSpaceOnUse" gradientTransform="matrix(1 0 0 1 0 0)" x1="150.041" y1="-169.763" x2="131.018" y2="-135.679">
<stop offset="0%" style="stop-color:rgb(254,112,98);stop-opacity: 1"/>
<stop offset="100%" style="stop-color:rgb(255,146,142);stop-opacity: 1"/>
</linearGradient>
<path style="stroke: none; stroke-width: 1; stroke-dasharray: none; stroke-linecap: butt; stroke-dashoffset: 0; stroke-linejoin: miter; stroke-miterlimit: 4; is-custom-font: none; font-file-url: none; fill: url(#SVGID_1836); fill-rule: nonzero; opacity: 1;" transform=" translate(-39.2404, -28.8915)" d="M 37.9695 28.7794 C 38.156 28.6641 38.4003 28.7243 38.5119 28.913 L 39.0354 29.8007 C 39.0878 29.8898 39.2191 29.8806 39.2591 29.7856 L 40.437 26.9838 C 40.4958 26.8442 40.7029 26.886 40.7043 27.0375 C 40.7121 27.8857 40.5261 29.5027 39.204 30.8845 C 39.204 30.8845 38.4504 30.6122 37.8175 29.3066 C 37.7261 29.1179 37.7913 28.8901 37.9695 28.7799 V 28.7794 Z" stroke-linecap="round"/>
</g>
		<g transform="matrix(1 0 0 1 -0.7596 6.4469)">
<linearGradient id="SVGID_1837" gradientUnits="userSpaceOnUse" gradientTransform="matrix(1 0 0 1 0 0)" x1="153.619" y1="-166.618" x2="134.595" y2="-132.535">
<stop offset="0%" style="stop-color:rgb(254,112,98);stop-opacity: 1"/>
<stop offset="100%" style="stop-color:rgb(255,146,142);stop-opacity: 1"/>
</linearGradient>
<path style="stroke: none; stroke-width: 1; stroke-dasharray: none; stroke-linecap: butt; stroke-dashoffset: 0; stroke-linejoin: miter; stroke-miterlimit: 4; is-custom-font: none; font-file-url: none; fill: url(#SVGID_1837); fill-rule: nonzero; opacity: 1;" transform=" translate(-39.2404, -38.4468)" d="M 37.9695 38.3347 C 38.156 38.2194 38.4003 38.2796 38.5119 38.4683 L 39.0354 39.356 C 39.0878 39.4451 39.2191 39.4359 39.2591 39.3409 L 40.437 36.5391 C 40.4958 36.3995 40.7029 36.4413 40.7043 36.5928 C 40.7121 37.441 40.5261 39.058 39.204 40.4398 C 39.204 40.4398 38.4504 40.1675 37.8175 38.8619 C 37.7261 38.6732 37.7913 38.4454 37.9695 38.3347 Z" stroke-linecap="round"/>
</g>
		<g transform="matrix(1 0 0 1 -0.4842 16.1272)">
<linearGradient id="SVGID_1838" gradientUnits="userSpaceOnUse" gradientTransform="matrix(1 0 0 1 0 0)" x1="157.663" y1="-163.692" x2="138.64" y2="-129.608">
<stop offset="0%" style="stop-color:rgb(254,112,98);stop-opacity: 1"/>
<stop offset="100%" style="stop-color:rgb(255,146,142);stop-opacity: 1"/>
</linearGradient>
<path style="stroke: none; stroke-width: 1; stroke-dasharray: none; stroke-linecap: butt; stroke-dashoffset: 0; stroke-linejoin: miter; stroke-miterlimit: 4; is-custom-font: none; font-file-url: none; fill: url(#SVGID_1838); fill-rule: nonzero; opacity: 1;" transform=" translate(-39.5158, -48.1271)" d="M 38.2449 48.015 C 38.4314 47.8997 38.6757 47.9599 38.7873 48.1486 L 39.3108 49.0363 C 39.3632 49.1254 39.4945 49.1162 39.5345 49.0212 L 40.7124 46.2194 C 40.7712 46.0798 40.9783 46.1216 40.9797 46.2731 C 40.9875 47.1213 40.8015 48.7383 39.4794 50.1201 C 39.4794 50.1201 38.7257 49.8478 38.0929 48.5422 C 38.0015 48.3535 38.0667 48.1257 38.2449 48.015 Z" stroke-linecap="round"/>
</g>
		<g transform="matrix(1 0 0 1 4.8245 8.8078)">
<linearGradient id="SVGID_1839" gradientUnits="userSpaceOnUse" gradientTransform="matrix(1 0 0 1 0 0)" x1="45.1472" y1="39.8484" x2="43.8852" y2="43.4539">
<stop offset="0%" style="stop-color:rgb(255,146,142);stop-opacity: 1"/>
<stop offset="100%" style="stop-color:rgb(254,179,177);stop-opacity: 1"/>
</linearGradient>
<path style="stroke: none; stroke-width: 1; stroke-dasharray: none; stroke-linecap: butt; stroke-dashoffset: 0; stroke-linejoin: miter; stroke-miterlimit: 4; is-custom-font: none; font-file-url: none; fill: url(#SVGID_1839); fill-rule: nonzero; opacity: 1;" transform=" translate(-44.8245, -40.8078)" d="M 44.5869 41.7823 C 44.6062 41.8438 44.3816 41.9379 44.2489 41.6854 C 44.2443 41.5641 44.1709 41.0456 44.243 40.9474 C 44.6283 40.4225 45.375 39.7639 45.375 39.7639 C 45.5013 39.8884 45.397 40.011 45.397 40.011 L 45.0347 40.3885 C 45.1105 40.5253 45.2028 40.6411 45.2464 40.8064 C 45.279 40.9318 45.2592 41.0659 45.1959 41.1802 C 45.1325 41.2946 45.0457 41.4438 44.9635 41.56 C 44.8083 41.7804 44.5869 41.7823 44.5869 41.7823 Z" stroke-linecap="round"/>
</g>
		<g transform="matrix(1 0 0 1 4.6964 9.0756)">
<linearGradient id="SVGID_1840" gradientUnits="userSpaceOnUse" gradientTransform="matrix(1 0 0 1 0 0)" x1="46.8107" y1="38.3935" x2="44.576" y2="41.3018">
<stop offset="0%" style="stop-color:rgb(255,146,142);stop-opacity: 1"/>
<stop offset="100%" style="stop-color:rgb(254,179,177);stop-opacity: 1"/>
</linearGradient>
<path style="stroke: none; stroke-width: 1; stroke-dasharray: none; stroke-linecap: butt; stroke-dashoffset: 0; stroke-linejoin: miter; stroke-miterlimit: 4; is-custom-font: none; font-file-url: none; fill: url(#SVGID_1840); fill-rule: nonzero; opacity: 1;" transform=" translate(-44.6964, -41.0756)" d="M 44.8769 40.6332 L 44.5467 40.9129 L 44.4429 41.1916 L 44.7372 41.5181 C 44.7372 41.5181 44.836 40.9652 44.9099 40.8458 C 44.9834 40.7259 44.9453 40.6681 44.8769 40.6332 Z" stroke-linecap="round"/>
</g>
		<g transform="matrix(1 0 0 1 -0.6028 31.0658)">
<linearGradient id="SVGID_1841" gradientUnits="userSpaceOnUse" gradientTransform="matrix(1 0 0 1 0 0)" x1="40.6483" y1="61.7388" x2="32.5956" y2="70.4983">
<stop offset="0%" style="stop-color:rgb(9,0,93);stop-opacity: 1"/>
<stop offset="100%" style="stop-color:rgb(26,15,145);stop-opacity: 1"/>
</linearGradient>
<path style="stroke: none; stroke-width: 1; stroke-dasharray: none; stroke-linecap: butt; stroke-dashoffset: 0; stroke-linejoin: miter; stroke-miterlimit: 4; is-custom-font: none; font-file-url: none; fill: url(#SVGID_1841); fill-rule: nonzero; opacity: 1;" transform=" translate(-39.3973, -63.0658)" d="M 38.1028 62.3914 C 38.1028 62.3914 38.0192 62.8635 37.9783 63.331 C 37.9622 63.5137 38.1032 63.6722 38.2864 63.68 C 38.9087 63.7057 40.24 63.7562 40.7177 63.7351 C 40.7893 63.7319 40.8366 63.6584 40.81 63.5913 C 40.7875 63.5353 40.7448 63.4903 40.6901 63.4651 L 38.4908 62.4543 L 38.1023 62.3914 H 38.1028 Z" stroke-linecap="round"/>
</g>
		<g transform="matrix(1 0 0 1 -1.6076 30.3898)">
<linearGradient id="SVGID_1842" gradientUnits="userSpaceOnUse" gradientTransform="matrix(1 0 0 1 0 0)" x1="38.0347" y1="62.3897" x2="38.7497" y2="62.3897">
<stop offset="0%" style="stop-color:rgb(255,146,142);stop-opacity: 1"/>
<stop offset="100%" style="stop-color:rgb(254,179,177);stop-opacity: 1"/>
</linearGradient>
<path style="stroke: none; stroke-width: 1; stroke-dasharray: none; stroke-linecap: butt; stroke-dashoffset: 0; stroke-linejoin: miter; stroke-miterlimit: 4; is-custom-font: none; font-file-url: none; fill: url(#SVGID_1842); fill-rule: nonzero; opacity: 1;" transform=" translate(-38.3924, -62.3898)" d="M 38.0347 62.1141 L 38.1017 62.679 C 38.1017 62.679 38.487 62.8581 38.7502 62.6565 L 38.5908 62.0273 L 38.0351 62.1146 L 38.0347 62.1141 Z" stroke-linecap="round"/>
</g>
		<g transform="matrix(1 0 0 1 -2.4792 24.9203)">
<linearGradient id="SVGID_1843" gradientUnits="userSpaceOnUse" gradientTransform="matrix(1 0 0 1 0 0)" x1="41.2825" y1="51.8331" x2="34.4302" y2="61.1207">
<stop offset="0%" style="stop-color:rgb(9,0,93);stop-opacity: 1"/>
<stop offset="100%" style="stop-color:rgb(26,15,145);stop-opacity: 1"/>
</linearGradient>
<path style="stroke: none; stroke-width: 1; stroke-dasharray: none; stroke-linecap: butt; stroke-dashoffset: 0; stroke-linejoin: miter; stroke-miterlimit: 4; is-custom-font: none; font-file-url: none; fill: url(#SVGID_1843); fill-rule: nonzero; opacity: 1;" transform=" translate(-37.5208, -56.9203)" d="M 38.0848 51.4969 C 38.0559 51.6444 37.9296 58.8562 38.7002 62.0883 C 38.7126 62.1412 38.686 62.1954 38.6359 62.216 C 38.5179 62.2642 38.286 62.3345 38.0081 62.3437 C 37.9222 62.3464 37.8451 62.2909 37.8207 62.2082 C 37.6003 61.4583 36.5445 57.7013 36.4068 54.1123 C 36.2529 50.1022 36.4068 53.9759 36.4068 53.9759 L 36.4972 51.4969 H 38.0853 H 38.0848 Z" stroke-linecap="round"/>
</g>
		<g transform="matrix(1 0 0 1 -4.1188 31.2136)">
<linearGradient id="SVGID_1844" gradientUnits="userSpaceOnUse" gradientTransform="matrix(1 0 0 1 0 0)" x1="38.8414" y1="60.0781" x2="30.7887" y2="68.8377">
<stop offset="0%" style="stop-color:rgb(9,0,93);stop-opacity: 1"/>
<stop offset="100%" style="stop-color:rgb(26,15,145);stop-opacity: 1"/>
</linearGradient>
<path style="stroke: none; stroke-width: 1; stroke-dasharray: none; stroke-linecap: butt; stroke-dashoffset: 0; stroke-linejoin: miter; stroke-miterlimit: 4; is-custom-font: none; font-file-url: none; fill: url(#SVGID_1844); fill-rule: nonzero; opacity: 1;" transform=" translate(-35.8812, -63.2136)" d="M 35.573 62.6379 C 35.573 62.6379 35.4403 62.8763 35.3117 63.5096 C 35.2883 63.6239 35.3682 63.7332 35.4844 63.7447 C 35.6897 63.7649 36.0061 63.7911 36.2596 63.7893 C 36.3762 63.7883 36.4676 63.6868 36.4534 63.5707 C 36.4254 63.3397 36.3376 62.9603 36.0676 62.6646 L 35.5725 62.6379 H 35.573 Z" stroke-linecap="round"/>
</g>
		<g transform="matrix(1 0 0 1 -4.2347 30.3531)">
<linearGradient id="SVGID_1845" gradientUnits="userSpaceOnUse" gradientTransform="matrix(1 0 0 1 0 0)" x1="35.4565" y1="62.3528" x2="36.0742" y2="62.3528">
<stop offset="0%" style="stop-color:rgb(255,146,142);stop-opacity: 1"/>
<stop offset="100%" style="stop-color:rgb(254,179,177);stop-opacity: 1"/>
</linearGradient>
<path style="stroke: none; stroke-width: 1; stroke-dasharray: none; stroke-linecap: butt; stroke-dashoffset: 0; stroke-linejoin: miter; stroke-miterlimit: 4; is-custom-font: none; font-file-url: none; fill: url(#SVGID_1845); fill-rule: nonzero; opacity: 1;" transform=" translate(-35.7653, -62.3531)" d="M 35.4565 61.9115 L 35.6131 62.7657 C 35.6131 62.7657 35.7679 62.8809 36.0742 62.7974 L 35.9994 61.8784 L 35.4565 61.9115 Z" stroke-linecap="round"/>
</g>
		<g transform="matrix(1 0 0 1 -3.5302 24.8429)">
<linearGradient id="SVGID_1846" gradientUnits="userSpaceOnUse" gradientTransform="matrix(1 0 0 1 0 0)" x1="40.0615" y1="50.9321" x2="33.2092" y2="60.2197">
<stop offset="0%" style="stop-color:rgb(9,0,93);stop-opacity: 1"/>
<stop offset="100%" style="stop-color:rgb(26,15,145);stop-opacity: 1"/>
</linearGradient>
<path style="stroke: none; stroke-width: 1; stroke-dasharray: none; stroke-linecap: butt; stroke-dashoffset: 0; stroke-linejoin: miter; stroke-miterlimit: 4; is-custom-font: none; font-file-url: none; fill: url(#SVGID_1846); fill-rule: nonzero; opacity: 1;" transform=" translate(-36.4699, -56.8429)" d="M 35.0337 51.7183 C 34.4032 55.5235 35.1706 61.123 35.4291 62.2188 C 35.4448 62.2858 35.4989 62.3372 35.5674 62.3487 C 35.6831 62.368 35.8732 62.3836 36.0606 62.329 C 36.1253 62.3102 36.1704 62.2518 36.1731 62.1848 C 36.208 61.2989 36.1456 55.8592 36.7329 53.7095 C 36.7628 53.6007 36.8294 53.5056 36.9212 53.44 L 38.0615 52.6294 L 38.1487 51.3192 L 35.0337 51.7183 Z" stroke-linecap="round"/>
</g>
		<g transform="matrix(1 0 0 1 -1.7116 16.2029)">
<linearGradient id="SVGID_1847" gradientUnits="userSpaceOnUse" gradientTransform="matrix(1 0 0 1 0 0)" x1="-99.2093" y1="173.706" x2="-119.954" y2="192.844">
<stop offset="0%" style="stop-color:rgb(64,66,226);stop-opacity: 1"/>
<stop offset="100%" style="stop-color:rgb(79,82,255);stop-opacity: 1"/>
</linearGradient>
<path style="stroke: none; stroke-width: 1; stroke-dasharray: none; stroke-linecap: butt; stroke-dashoffset: 0; stroke-linejoin: miter; stroke-miterlimit: 4; is-custom-font: none; font-file-url: none; fill: url(#SVGID_1847); fill-rule: nonzero; opacity: 1;" transform=" translate(-38.2884, -48.2029)" d="M 39.0511 44.5083 C 37.1618 44.4771 35.0769 45.0043 35.0769 45.0043 C 34.5138 48.2906 34.9786 52.0811 34.9786 52.0811 C 36.4413 52.4646 38.0913 51.8464 38.0913 51.8464 C 38.3342 50.4729 39.4686 46.607 39.4686 46.607 C 40.3916 46.4927 41.1521 46.2263 41.7785 45.8741 C 41.3009 45.3202 41.0754 44.6157 40.9776 44.1992 C 40.3094 44.4068 39.6334 44.5179 39.0507 44.5083 H 39.0511 Z" stroke-linecap="round"/>
</g>
		<g transform="matrix(1 0 0 1 2.8048 11.7284)">
<linearGradient id="SVGID_1848" gradientUnits="userSpaceOnUse" gradientTransform="matrix(1 0 0 1 0 0)" x1="44.0687" y1="39.4704" x2="42.8067" y2="43.0763">
<stop offset="0%" style="stop-color:rgb(255,146,142);stop-opacity: 1"/>
<stop offset="100%" style="stop-color:rgb(254,179,177);stop-opacity: 1"/>
</linearGradient>
<path style="stroke: none; stroke-width: 1; stroke-dasharray: none; stroke-linecap: butt; stroke-dashoffset: 0; stroke-linejoin: miter; stroke-miterlimit: 4; is-custom-font: none; font-file-url: none; fill: url(#SVGID_1848); fill-rule: nonzero; opacity: 1;" transform=" translate(-42.8049, -43.7283)" d="M 44.6322 41.7253 C 44.4466 41.5012 44.2115 41.6072 44.2115 41.6072 C 43.9337 42.782 42.4756 43.734 40.9775 44.1996 C 41.0754 44.6162 41.3004 45.3206 41.7784 45.8745 C 44.2643 44.477 44.6322 41.7253 44.6322 41.7253 Z" stroke-linecap="round"/>
</g>
		<g transform="matrix(1 0 0 1 -5.5886 14.5699)">
<linearGradient id="SVGID_1849" gradientUnits="userSpaceOnUse" gradientTransform="matrix(1 0 0 1 0 0)" x1="-100.964" y1="171.803" x2="-121.709" y2="190.941">
<stop offset="0%" style="stop-color:rgb(64,66,226);stop-opacity: 1"/>
<stop offset="100%" style="stop-color:rgb(79,82,255);stop-opacity: 1"/>
</linearGradient>
<path style="stroke: none; stroke-width: 1; stroke-dasharray: none; stroke-linecap: butt; stroke-dashoffset: 0; stroke-linejoin: miter; stroke-miterlimit: 4; is-custom-font: none; font-file-url: none; fill: url(#SVGID_1849); fill-rule: nonzero; opacity: 1;" transform=" translate(-34.4114, -46.57)" d="M 35.8013 46.8342 L 35.0766 45.0046 C 35.0766 45.0046 33.3117 46.2037 33.0215 47.7242 C 33.3549 47.7486 33.9615 47.8354 34.5558 48.1353 C 34.6862 47.4175 35.8013 46.8342 35.8013 46.8342 Z" stroke-linecap="round"/>
</g>
		<g transform="matrix(1 0 0 1 -2.553 11.9602)">
<linearGradient id="SVGID_1850" gradientUnits="userSpaceOnUse" gradientTransform="matrix(1 0 0 1 0 0)" x1="38.1427" y1="42.6033" x2="36.2139" y2="47.073">
<stop offset="0%" style="stop-color:rgb(255,146,142);stop-opacity: 1"/>
<stop offset="100%" style="stop-color:rgb(254,179,177);stop-opacity: 1"/>
</linearGradient>
<path style="stroke: none; stroke-width: 1; stroke-dasharray: none; stroke-linecap: butt; stroke-dashoffset: 0; stroke-linejoin: miter; stroke-miterlimit: 4; is-custom-font: none; font-file-url: none; fill: url(#SVGID_1850); fill-rule: nonzero; opacity: 1;" transform=" translate(-37.447, -43.9602)" d="M 37.1374 42.9743 L 36.5363 44.713 C 36.5262 44.7419 36.5381 44.7736 36.5648 44.7883 C 36.7287 44.8788 37.3193 45.141 38.0306 44.6896 C 38.1046 44.6427 38.1551 44.5661 38.1666 44.4788 L 38.3613 42.9739 H 37.1374 V 42.9743 Z" stroke-linecap="round"/>
</g>
		<g transform="matrix(1 0 0 1 -2.0336 10.4218)">
<linearGradient id="SVGID_1851" gradientUnits="userSpaceOnUse" gradientTransform="matrix(1 0 0 1 0 0)" x1="109.74" y1="70.5112" x2="106.579" y2="69.2694">
<stop offset="0%" style="stop-color:rgb(255,146,142);stop-opacity: 1"/>
<stop offset="100%" style="stop-color:rgb(254,179,177);stop-opacity: 1"/>
</linearGradient>
<path style="stroke: none; stroke-width: 1; stroke-dasharray: none; stroke-linecap: butt; stroke-dashoffset: 0; stroke-linejoin: miter; stroke-miterlimit: 4; is-custom-font: none; font-file-url: none; fill: url(#SVGID_1851); fill-rule: nonzero; opacity: 1;" transform=" translate(-37.9664, -42.4218)" d="M 38.4455 41.3643 C 38.4455 41.3643 39.1059 42.607 39.0209 43.1089 C 38.9364 43.6109 38.1181 43.575 37.4035 43.1672 L 36.9043 41.8253 L 38.4455 41.3643 Z" stroke-linecap="round"/>
</g>
		<g transform="matrix(1 0 0 1 -2.6097 9.8431)">
<linearGradient id="SVGID_1852" gradientUnits="userSpaceOnUse" gradientTransform="matrix(1 0 0 1 0 0)" x1="35.717" y1="40.2851" x2="38.3144" y2="42.3366">
<stop offset="0%" style="stop-color:rgb(9,0,93);stop-opacity: 1"/>
<stop offset="100%" style="stop-color:rgb(26,15,145);stop-opacity: 1"/>
</linearGradient>
<path style="stroke: none; stroke-width: 1; stroke-dasharray: none; stroke-linecap: butt; stroke-dashoffset: 0; stroke-linejoin: miter; stroke-miterlimit: 4; is-custom-font: none; font-file-url: none; fill: url(#SVGID_1852); fill-rule: nonzero; opacity: 1;" transform=" translate(-37.3903, -41.8431)" d="M 37.4353 42.5083 C 37.4643 42.4954 37.4753 42.4601 37.4578 42.4334 C 37.405 42.3526 37.3058 42.1877 37.2742 42.0435 C 37.2742 42.0435 37.1557 41.9673 37.5763 41.8667 C 37.997 41.7662 38.6243 41.6096 38.7566 41.2514 C 38.8852 40.9023 38.5472 40.0243 38.0085 40.7237 C 37.9878 40.7503 37.9479 40.7508 37.9272 40.7242 C 37.839 40.6093 37.6066 40.3705 37.2838 40.5152 C 36.9821 40.6507 36.9481 40.8716 36.9522 40.9832 C 36.9536 41.0158 36.9242 41.0415 36.8921 41.0351 C 36.7396 41.0061 36.3731 40.9809 36.2023 41.3565 C 36.0613 41.666 36.1532 41.841 36.2363 41.9269 C 36.2634 41.9544 36.2514 42.0004 36.2142 42.0119 C 36.1141 42.0426 35.9846 42.1276 35.9975 42.3627 C 36.0154 42.6874 36.3786 42.6589 36.482 42.6442 C 36.499 42.6419 36.516 42.6474 36.5274 42.6603 C 36.6161 42.7586 37.0156 43.1751 37.4477 43.2252 C 37.4854 43.2293 37.5143 43.1926 37.5019 43.1567 L 37.315 42.613 C 37.3063 42.5877 37.3182 42.5602 37.343 42.5492 L 37.4358 42.5083 H 37.4353 Z" stroke-linecap="round"/>
</g>
		<g transform="matrix(1 0 0 1 -2.6697 10.6439)">
<linearGradient id="SVGID_1853" gradientUnits="userSpaceOnUse" gradientTransform="matrix(1 0 0 1 0 0)" x1="109.528" y1="71.0505" x2="106.368" y2="69.8087">
<stop offset="0%" style="stop-color:rgb(255,146,142);stop-opacity: 1"/>
<stop offset="100%" style="stop-color:rgb(254,179,177);stop-opacity: 1"/>
</linearGradient>
<path style="stroke: none; stroke-width: 1; stroke-dasharray: none; stroke-linecap: butt; stroke-dashoffset: 0; stroke-linejoin: miter; stroke-miterlimit: 4; is-custom-font: none; font-file-url: none; fill: url(#SVGID_1853); fill-rule: nonzero; opacity: 1;" transform=" translate(-37.3302, -42.6439)" d="M 37.5105 42.5855 C 37.5105 42.5855 37.0402 42.2631 37.0062 42.5345 C 36.9718 42.8059 37.4297 42.928 37.6561 42.8266 L 37.5105 42.5855 Z" stroke-linecap="round"/>
</g>
		<g transform="matrix(1 0 0 1 -6.2542 18.2245)">
<linearGradient id="SVGID_1854" gradientUnits="userSpaceOnUse" gradientTransform="matrix(1 0 0 1 0 0)" x1="35.0014" y1="57.4045" x2="33.5149" y2="46.7286">
<stop offset="0%" style="stop-color:rgb(255,146,142);stop-opacity: 1"/>
<stop offset="100%" style="stop-color:rgb(254,179,177);stop-opacity: 1"/>
</linearGradient>
<path style="stroke: none; stroke-width: 1; stroke-dasharray: none; stroke-linecap: butt; stroke-dashoffset: 0; stroke-linejoin: miter; stroke-miterlimit: 4; is-custom-font: none; font-file-url: none; fill: url(#SVGID_1854); fill-rule: nonzero; opacity: 1;" transform=" translate(-33.7457, -50.2245)" d="M 34.556 48.1353 C 34.556 48.1353 33.9392 50.9183 34.4981 52.4829 C 33.8129 52.8007 33.9397 52.7405 33.9397 52.7405 C 33.9397 52.7405 32.5844 48.781 33.0221 47.7243 C 33.8845 47.6329 34.3126 47.8643 34.5564 48.1353 H 34.556 Z" stroke-linecap="round"/>
</g>
		<g transform="matrix(1 0 0 1 -5.6446 21.2667)">
<linearGradient id="SVGID_1855" gradientUnits="userSpaceOnUse" gradientTransform="matrix(1 0 0 1 0 0)" x1="34.8249" y1="56.3773" x2="33.6387" y2="47.8584">
<stop offset="0%" style="stop-color:rgb(255,146,142);stop-opacity: 1"/>
<stop offset="100%" style="stop-color:rgb(254,179,177);stop-opacity: 1"/>
</linearGradient>
<path style="stroke: none; stroke-width: 1; stroke-dasharray: none; stroke-linecap: butt; stroke-dashoffset: 0; stroke-linejoin: miter; stroke-miterlimit: 4; is-custom-font: none; font-file-url: none; fill: url(#SVGID_1855); fill-rule: nonzero; opacity: 1;" transform=" translate(-34.3554, -53.2668)" d="M 34.4984 52.483 C 34.4984 52.483 34.8515 52.9399 34.823 53.1218 C 34.795 53.3036 34.7881 53.378 34.7881 53.378 C 34.7881 53.378 34.6109 53.2568 34.6219 53.1016 C 34.6467 53.5934 34.8111 54.1527 34.6614 54.1261 C 34.5117 54.099 33.7365 53.3849 33.9119 52.623 C 34.3096 52.3466 34.4212 52.3769 34.4984 52.483 Z" stroke-linecap="round"/>
</g>
</g>
</g>
<g transform="matrix(1 0 0 1 533.5692 953.3438)" style="" id="843790">
		
<path xml:space="preserve" font-family="Lato" font-size="108" font-style="normal" font-weight="normal" style="stroke: none; stroke-width: 0; stroke-dasharray: none; stroke-linecap: butt; stroke-dashoffset: 0; stroke-linejoin: miter; stroke-miterlimit: 4; is-custom-font: none; font-file-url: none; fill: rgb(0,0,0); fill-rule: nonzero; opacity: 1; white-space: pre;" d="M-177.56-43.45L-146.62 33.93L-154.72 33.93Q-156.12 33.93-156.99 33.23Q-157.85 32.52-158.28 31.44L-158.28 31.44L-165.52 12.76L-200.24 12.76L-207.48 31.44Q-207.85 32.42-208.77 33.17Q-209.69 33.93-211.04 33.93L-211.04 33.93L-219.14 33.93L-188.20-43.45L-177.56-43.45ZM-185.17-26.23L-197.32 5.20L-168.43 5.20L-180.58-26.28Q-181.77-29.20-182.91-33.57L-182.91-33.57Q-183.50-31.36-184.07-29.50Q-184.63-27.63-185.17-26.23L-185.17-26.23ZM-128.74 52.45L-138.36 52.45L-138.36-20.77L-132.63-20.77Q-130.58-20.77-130.04-18.78L-130.04-18.78L-129.23-12.30Q-125.72-16.56-121.21-19.15Q-116.70-21.75-110.82-21.75L-110.82-21.75Q-106.12-21.75-102.28-19.94Q-98.45-18.13-95.75-14.59Q-93.05-11.05-91.59-5.82Q-90.13-0.58-90.13 6.23L-90.13 6.23Q-90.13 12.27-91.75 17.48Q-93.37 22.70-96.40 26.50Q-99.42 30.31-103.82 32.50Q-108.22 34.68-113.73 34.68L-113.73 34.68Q-118.81 34.68-122.40 33.01Q-125.99 31.34-128.74 28.26L-128.74 28.26L-128.74 52.45ZM-114.00-13.97L-114.00-13.97Q-118.70-13.97-122.24-11.81Q-125.77-9.65-128.74-5.71L-128.74-5.71L-128.74 20.75Q-126.10 24.32-122.94 25.77Q-119.78 27.23-115.89 27.23L-115.89 27.23Q-108.28 27.23-104.17 21.78Q-100.07 16.32-100.07 6.23L-100.07 6.23Q-100.07 0.88-101.02-2.95Q-101.96-6.79-103.74-9.25Q-105.52-11.70-108.12-12.84Q-110.71-13.97-114.00-13.97ZM-69.13 52.45L-78.74 52.45L-78.74-20.77L-73.02-20.77Q-70.96-20.77-70.42-18.78L-70.42-18.78L-69.61-12.30Q-66.10-16.56-61.60-19.15Q-57.09-21.75-51.20-21.75L-51.20-21.75Q-46.50-21.75-42.67-19.94Q-38.83-18.13-36.13-14.59Q-33.43-11.05-31.98-5.82Q-30.52-0.58-30.52 6.23L-30.52 6.23Q-30.52 12.27-32.14 17.48Q-33.76 22.70-36.78 26.50Q-39.81 30.31-44.21 32.50Q-48.61 34.68-54.12 34.68L-54.12 34.68Q-59.19 34.68-62.78 33.01Q-66.37 31.34-69.13 28.26L-69.13 28.26L-69.13 52.45ZM-54.39-13.97L-54.39-13.97Q-59.08-13.97-62.62-11.81Q-66.16-9.65-69.13-5.71L-69.13-5.71L-69.13 20.75Q-66.48 24.32-63.32 25.77Q-60.16 27.23-56.28 27.23L-56.28 27.23Q-48.66 27.23-44.56 21.78Q-40.45 16.32-40.45 6.23L-40.45 6.23Q-40.45 0.88-41.40-2.95Q-42.34-6.79-44.13-9.25Q-45.91-11.70-48.50-12.84Q-51.09-13.97-54.39-13.97ZM-9.51 33.93L-19.12 33.93L-19.12-20.77L-13.62-20.77Q-12.05-20.77-11.46-20.18Q-10.86-19.59-10.65-18.13L-10.65-18.13L-10.00-9.60Q-7.19-15.32-3.06-18.53Q1.07-21.75 6.63-21.75L6.63-21.75Q8.90-21.75 10.74-21.23Q12.57-20.72 14.14-19.80L14.14-19.80L12.90-12.62Q12.52-11.27 11.22-11.27L11.22-11.27Q10.47-11.27 8.90-11.78Q7.34-12.30 4.53-12.30L4.53-12.30Q-0.49-12.30-3.87-9.38Q-7.24-6.46-9.51-0.90L-9.51-0.90L-9.51 33.93ZM46.54-21.64L46.54-21.64Q52.53-21.64 57.37-19.64Q62.20-17.64 65.57-13.97Q68.95-10.30 70.76-5.09Q72.57 0.12 72.57 6.55L72.57 6.55Q72.57 13.03 70.76 18.21Q68.95 23.40 65.57 27.07Q62.20 30.74 57.37 32.71Q52.53 34.68 46.54 34.68L46.54 34.68Q40.55 34.68 35.71 32.71Q30.88 30.74 27.48 27.07Q24.08 23.40 22.24 18.21Q20.40 13.03 20.40 6.55L20.40 6.55Q20.40 0.12 22.24-5.09Q24.08-10.30 27.48-13.97Q30.88-17.64 35.71-19.64Q40.55-21.64 46.54-21.64ZM46.54 27.18L46.54 27.18Q54.64 27.18 58.64 21.75Q62.63 16.32 62.63 6.60L62.63 6.60Q62.63-3.17 58.64-8.62Q54.64-14.08 46.54-14.08L46.54-14.08Q42.44-14.08 39.41-12.67Q36.39-11.27 34.36-8.62Q32.34-5.98 31.34-2.12Q30.34 1.74 30.34 6.60L30.34 6.60Q30.34 11.46 31.34 15.30Q32.34 19.13 34.36 21.75Q36.39 24.37 39.41 25.77Q42.44 27.18 46.54 27.18ZM98.43 33.93L76.13-20.77L84.02-20.77Q85.15-20.77 85.91-20.18Q86.66-19.59 86.99-18.78L86.99-18.78L100.86 16.43Q101.62 18.38 102.05 20.32Q102.48 22.26 102.86 24.15L102.86 24.15Q103.29 22.26 103.78 20.32Q104.27 18.38 105.02 16.43L105.02 16.43L119.06-18.78Q119.39-19.64 120.11-20.21Q120.84-20.77 121.92-20.77L121.92-20.77L129.43-20.77L107.13 33.93L98.43 33.93ZM178.52-1.06L178.52 33.93L174.25 33.93Q172.85 33.93 171.98 33.50Q171.12 33.06 170.85 31.66L170.85 31.66L169.77 26.58Q167.61 28.53 165.56 30.07Q163.50 31.61 161.24 32.66Q158.97 33.71 156.40 34.25Q153.84 34.79 150.71 34.79L150.71 34.79Q147.52 34.79 144.74 33.90Q141.96 33.01 139.91 31.23Q137.85 29.45 136.64 26.72Q135.42 23.99 135.42 20.27L135.42 20.27Q135.42 17.03 137.21 14.03Q138.99 11.03 142.96 8.71Q146.93 6.39 153.35 4.90Q159.78 3.42 169.07 3.20L169.07 3.20L169.07-1.06Q169.07-7.44 166.34-10.70Q163.61-13.97 158.27-13.97L158.27-13.97Q154.76-13.97 152.35-13.08Q149.95-12.19 148.19-11.08Q146.44-9.97 145.17-9.08Q143.90-8.19 142.66-8.19L142.66-8.19Q141.69-8.19 140.96-8.71Q140.23-9.22 139.80-9.97L139.80-9.97L138.07-13.05Q142.61-17.43 147.84-19.59Q153.08-21.75 159.45-21.75L159.45-21.75Q164.04-21.75 167.61-20.23Q171.17-18.72 173.60-16.02Q176.03-13.32 177.27-9.49Q178.52-5.65 178.52-1.06L178.52-1.06ZM153.57 28.04L153.57 28.04Q156.11 28.04 158.21 27.53Q160.32 27.02 162.18 26.07Q164.04 25.13 165.74 23.78Q167.45 22.43 169.07 20.70L169.07 20.70L169.07 9.30Q162.42 9.52 157.78 10.36Q153.14 11.19 150.22 12.54Q147.30 13.89 145.98 15.73Q144.66 17.57 144.66 19.83L144.66 19.83Q144.66 21.99 145.36 23.56Q146.06 25.13 147.25 26.12Q148.44 27.12 150.06 27.58Q151.68 28.04 153.57 28.04ZM194.18-45.61L203.79-45.61L203.79 33.93L194.18 33.93L194.18-45.61Z"/></g>
</svg>