<svg xmlns="http://www.w3.org/2000/svg" xmlns:xlink="http://www.w3.org/1999/xlink" width="1200" zoomAndPan="magnify" viewBox="0 0 900 525.000007" height="700" preserveAspectRatio="xMidYMid meet" version="1.0"><defs><g/><clipPath id="91428b5109"><path d="M 183.160156 20.601562 L 752.078125 20.601562 L 752.078125 510.167969 L 183.160156 510.167969 Z M 183.160156 20.601562 " clip-rule="nonzero"/></clipPath><clipPath id="d9da74884b"><path d="M 335.082031 141.996094 L 591 141.996094 L 591 482.597656 L 335.082031 482.597656 Z M 335.082031 141.996094 " clip-rule="nonzero"/></clipPath><clipPath id="660c806989"><path d="M 494 272 L 675.683594 272 L 675.683594 454 L 494 454 Z M 494 272 " clip-rule="nonzero"/></clipPath></defs><g clip-path="url(#91428b5109)"><path stroke-linecap="butt" transform="matrix(0.748097, 0, 0, 0.748556, 183.162052, 20.60213)" fill="none" stroke-linejoin="miter" d="M -0.00253354 -0.000758636 L 760.484002 -0.000758636 L 760.484002 654.013424 L -0.00253354 654.013424 L -0.00253354 -0.000758636 " stroke="#ffffff" stroke-width="8" stroke-opacity="1" stroke-miterlimit="4"/></g><g fill="#082a71" fill-opacity="1"><g transform="translate(293.42623, 103.646101)"><g><path d="M 2.78125 0 L 2.78125 -21.375 L 11.90625 -21.375 C 13.21875 -21.375 14.328125 -21.164062 15.234375 -20.75 C 16.148438 -20.332031 16.84375 -19.738281 17.3125 -18.96875 C 17.78125 -18.207031 18.015625 -17.304688 18.015625 -16.265625 C 18.015625 -15.328125 17.785156 -14.492188 17.328125 -13.765625 C 16.867188 -13.046875 16.207031 -12.46875 15.34375 -12.03125 L 15.34375 -11.71875 C 16.6875 -11.375 17.722656 -10.738281 18.453125 -9.8125 C 19.191406 -8.882812 19.5625 -7.75 19.5625 -6.40625 C 19.5625 -4.351562 18.941406 -2.769531 17.703125 -1.65625 C 16.472656 -0.550781 14.644531 0 12.21875 0 Z M 11.015625 -12.84375 C 12.984375 -12.84375 13.96875 -13.734375 13.96875 -15.515625 C 13.96875 -16.421875 13.722656 -17.09375 13.234375 -17.53125 C 12.753906 -17.976562 12.015625 -18.203125 11.015625 -18.203125 L 7 -18.203125 L 7 -12.84375 Z M 11.796875 -3.34375 C 14.128906 -3.34375 15.296875 -4.398438 15.296875 -6.515625 C 15.296875 -8.640625 14.128906 -9.703125 11.796875 -9.703125 L 7 -9.703125 L 7 -3.34375 Z M 11.796875 -3.34375 "/></g></g><g transform="translate(314.333671, 103.646101)"><g><path d="M 7 0 L 2.78125 0 L 2.78125 -21.375 L 7 -21.375 Z M 7 0 "/></g></g><g transform="translate(324.129465, 103.646101)"><g><path d="M 9.46875 0.3125 C 7.988281 0.3125 6.671875 0.128906 5.515625 -0.234375 C 4.359375 -0.609375 3.394531 -1.09375 2.625 -1.6875 C 1.851562 -2.28125 1.265625 -2.929688 0.859375 -3.640625 L 3.1875 -6.46875 L 3.546875 -6.46875 C 4.191406 -5.519531 5.007812 -4.757812 6 -4.1875 C 6.988281 -3.625 8.144531 -3.34375 9.46875 -3.34375 C 10.601562 -3.34375 11.457031 -3.582031 12.03125 -4.0625 C 12.601562 -4.539062 12.890625 -5.195312 12.890625 -6.03125 C 12.890625 -6.539062 12.796875 -6.96875 12.609375 -7.3125 C 12.429688 -7.65625 12.125 -7.945312 11.6875 -8.1875 C 11.257812 -8.425781 10.679688 -8.632812 9.953125 -8.8125 L 7.203125 -9.4375 C 5.285156 -9.875 3.851562 -10.601562 2.90625 -11.625 C 1.96875 -12.644531 1.5 -13.96875 1.5 -15.59375 C 1.5 -16.800781 1.800781 -17.863281 2.40625 -18.78125 C 3.007812 -19.695312 3.890625 -20.40625 5.046875 -20.90625 C 6.203125 -21.414062 7.582031 -21.671875 9.1875 -21.671875 C 10.84375 -21.671875 12.253906 -21.453125 13.421875 -21.015625 C 14.597656 -20.585938 15.59375 -19.925781 16.40625 -19.03125 L 14.3125 -16.171875 L 13.953125 -16.171875 C 13.347656 -16.804688 12.65625 -17.28125 11.875 -17.59375 C 11.09375 -17.90625 10.195312 -18.0625 9.1875 -18.0625 C 8.03125 -18.0625 7.148438 -17.859375 6.546875 -17.453125 C 5.941406 -17.046875 5.640625 -16.484375 5.640625 -15.765625 C 5.640625 -15.085938 5.851562 -14.546875 6.28125 -14.140625 C 6.707031 -13.742188 7.441406 -13.4375 8.484375 -13.21875 L 11.28125 -12.625 C 13.363281 -12.1875 14.867188 -11.441406 15.796875 -10.390625 C 16.734375 -9.347656 17.203125 -7.984375 17.203125 -6.296875 C 17.203125 -4.960938 16.914062 -3.800781 16.34375 -2.8125 C 15.769531 -1.820312 14.898438 -1.050781 13.734375 -0.5 C 12.578125 0.0390625 11.15625 0.3125 9.46875 0.3125 Z M 9.46875 0.3125 "/></g></g><g transform="translate(342.492924, 103.646101)"><g/></g><g transform="translate(349.554668, 103.646101)"><g><path d="M 11.03125 -21.375 C 12.5625 -21.375 13.867188 -21.09375 14.953125 -20.53125 C 16.046875 -19.96875 16.867188 -19.179688 17.421875 -18.171875 C 17.972656 -17.171875 18.25 -16 18.25 -14.65625 C 18.25 -13.320312 17.972656 -12.148438 17.421875 -11.140625 C 16.867188 -10.140625 16.046875 -9.359375 14.953125 -8.796875 C 13.867188 -8.242188 12.5625 -7.96875 11.03125 -7.96875 L 7 -7.96875 L 7 0 L 2.78125 0 L 2.78125 -21.375 Z M 10.484375 -11.3125 C 12.828125 -11.3125 14 -12.425781 14 -14.65625 C 14 -16.90625 12.828125 -18.03125 10.484375 -18.03125 L 7 -18.03125 L 7 -11.3125 Z M 10.484375 -11.3125 "/></g></g><g transform="translate(369.087774, 103.646101)"><g><path d="M 9.375 0.3125 C 7.789062 0.3125 6.398438 -0.0078125 5.203125 -0.65625 C 4.015625 -1.3125 3.09375 -2.265625 2.4375 -3.515625 C 1.78125 -4.765625 1.453125 -6.273438 1.453125 -8.046875 C 1.453125 -9.828125 1.78125 -11.34375 2.4375 -12.59375 C 3.09375 -13.851562 4.015625 -14.804688 5.203125 -15.453125 C 6.398438 -16.109375 7.789062 -16.4375 9.375 -16.4375 C 10.945312 -16.4375 12.328125 -16.109375 13.515625 -15.453125 C 14.710938 -14.804688 15.644531 -13.851562 16.3125 -12.59375 C 16.976562 -11.34375 17.3125 -9.828125 17.3125 -8.046875 C 17.3125 -6.273438 16.976562 -4.765625 16.3125 -3.515625 C 15.644531 -2.265625 14.710938 -1.3125 13.515625 -0.65625 C 12.328125 -0.0078125 10.945312 0.3125 9.375 0.3125 Z M 9.375 -3.125 C 11.875 -3.125 13.125 -4.765625 13.125 -8.046875 C 13.125 -9.753906 12.800781 -11.003906 12.15625 -11.796875 C 11.519531 -12.597656 10.59375 -13 9.375 -13 C 6.863281 -13 5.609375 -11.347656 5.609375 -8.046875 C 5.609375 -4.765625 6.863281 -3.125 9.375 -3.125 Z M 9.375 -3.125 "/></g></g><g transform="translate(387.831369, 103.646101)"><g><path d="M 2.328125 0 L 2.328125 -16.125 L 6.25 -16.125 L 6.25 -13.71875 L 6.5625 -13.671875 C 6.945312 -14.566406 7.457031 -15.222656 8.09375 -15.640625 C 8.726562 -16.054688 9.5 -16.265625 10.40625 -16.265625 C 11.320312 -16.265625 12.019531 -16.109375 12.5 -15.796875 L 11.8125 -12.3125 L 11.5 -12.25 C 11.238281 -12.351562 10.984375 -12.429688 10.734375 -12.484375 C 10.492188 -12.535156 10.203125 -12.5625 9.859375 -12.5625 C 8.722656 -12.5625 7.859375 -12.160156 7.265625 -11.359375 C 6.671875 -10.566406 6.375 -9.296875 6.375 -7.546875 L 6.375 0 Z M 2.328125 0 "/></g></g><g transform="translate(400.478178, 103.646101)"><g><path d="M 11.125 -3.84375 L 12.171875 -0.84375 C 11.734375 -0.488281 11.179688 -0.207031 10.515625 0 C 9.859375 0.207031 9.113281 0.3125 8.28125 0.3125 C 6.53125 0.3125 5.203125 -0.160156 4.296875 -1.109375 C 3.390625 -2.066406 2.9375 -3.453125 2.9375 -5.265625 L 2.9375 -12.921875 L 0.484375 -12.921875 L 0.484375 -16.140625 L 2.9375 -16.140625 L 2.9375 -19.28125 L 6.984375 -19.9375 L 6.984375 -16.140625 L 11.5625 -16.140625 L 11.5625 -12.921875 L 6.984375 -12.921875 L 6.984375 -5.5625 C 6.984375 -4.757812 7.148438 -4.175781 7.484375 -3.8125 C 7.816406 -3.445312 8.300781 -3.265625 8.9375 -3.265625 C 9.65625 -3.265625 10.28125 -3.457031 10.8125 -3.84375 Z M 11.125 -3.84375 "/></g></g><g transform="translate(413.008022, 103.646101)"><g><path d="M 6.28125 0.3125 C 5.25 0.3125 4.351562 0.125 3.59375 -0.25 C 2.832031 -0.632812 2.25 -1.195312 1.84375 -1.9375 C 1.4375 -2.675781 1.234375 -3.5625 1.234375 -4.59375 C 1.234375 -5.539062 1.4375 -6.335938 1.84375 -6.984375 C 2.25 -7.640625 2.878906 -8.171875 3.734375 -8.578125 C 4.597656 -8.992188 5.722656 -9.316406 7.109375 -9.546875 C 8.066406 -9.703125 8.796875 -9.867188 9.296875 -10.046875 C 9.804688 -10.234375 10.144531 -10.441406 10.3125 -10.671875 C 10.488281 -10.910156 10.578125 -11.210938 10.578125 -11.578125 C 10.578125 -12.097656 10.394531 -12.492188 10.03125 -12.765625 C 9.675781 -13.035156 9.082031 -13.171875 8.25 -13.171875 C 7.351562 -13.171875 6.5 -12.96875 5.6875 -12.5625 C 4.875 -12.164062 4.171875 -11.644531 3.578125 -11 L 3.28125 -11 L 1.59375 -13.546875 C 2.414062 -14.453125 3.414062 -15.160156 4.59375 -15.671875 C 5.769531 -16.179688 7.054688 -16.4375 8.453125 -16.4375 C 10.585938 -16.4375 12.128906 -15.984375 13.078125 -15.078125 C 14.035156 -14.171875 14.515625 -12.882812 14.515625 -11.21875 L 14.515625 -4.203125 C 14.515625 -3.484375 14.832031 -3.125 15.46875 -3.125 C 15.707031 -3.125 15.945312 -3.171875 16.1875 -3.265625 L 16.390625 -3.203125 L 16.671875 -0.375 C 16.453125 -0.226562 16.140625 -0.109375 15.734375 -0.015625 C 15.335938 0.0664062 14.898438 0.109375 14.421875 0.109375 C 13.460938 0.109375 12.710938 -0.0703125 12.171875 -0.4375 C 11.628906 -0.8125 11.238281 -1.390625 11 -2.171875 L 10.703125 -2.203125 C 9.910156 -0.523438 8.4375 0.3125 6.28125 0.3125 Z M 7.578125 -2.71875 C 8.503906 -2.71875 9.25 -3.03125 9.8125 -3.65625 C 10.375 -4.289062 10.65625 -5.164062 10.65625 -6.28125 L 10.65625 -7.921875 L 10.375 -7.984375 C 10.132812 -7.785156 9.816406 -7.617188 9.421875 -7.484375 C 9.023438 -7.359375 8.457031 -7.234375 7.71875 -7.109375 C 6.84375 -6.960938 6.210938 -6.707031 5.828125 -6.34375 C 5.441406 -5.988281 5.25 -5.488281 5.25 -4.84375 C 5.25 -4.144531 5.453125 -3.613281 5.859375 -3.25 C 6.265625 -2.894531 6.835938 -2.71875 7.578125 -2.71875 Z M 7.578125 -2.71875 "/></g></g><g transform="translate(430.011766, 103.646101)"><g><path d="M 6.6875 0.3125 C 5.238281 0.3125 4.128906 -0.078125 3.359375 -0.859375 C 2.597656 -1.648438 2.21875 -2.84375 2.21875 -4.4375 L 2.21875 -22.59375 L 6.265625 -22.59375 L 6.265625 -4.609375 C 6.265625 -3.617188 6.675781 -3.125 7.5 -3.125 C 7.726562 -3.125 7.976562 -3.164062 8.25 -3.25 L 8.453125 -3.1875 L 8.8125 -0.078125 C 8.59375 0.046875 8.296875 0.140625 7.921875 0.203125 C 7.554688 0.273438 7.144531 0.3125 6.6875 0.3125 Z M 6.6875 0.3125 "/></g></g><g transform="translate(439.281219, 103.646101)"><g/></g><g transform="translate(446.342963, 103.646101)"><g><path d="M 2.78125 0 L 2.78125 -21.375 L 11.359375 -21.375 C 13.566406 -21.375 15.234375 -20.863281 16.359375 -19.84375 C 17.484375 -18.820312 18.046875 -17.414062 18.046875 -15.625 C 18.046875 -14.332031 17.71875 -13.269531 17.0625 -12.4375 C 16.40625 -11.613281 15.425781 -10.984375 14.125 -10.546875 L 14.125 -10.234375 C 14.789062 -9.941406 15.332031 -9.503906 15.75 -8.921875 C 16.164062 -8.347656 16.554688 -7.5 16.921875 -6.375 L 19.0625 0 L 14.71875 0 L 12.625 -6.390625 C 12.414062 -7.035156 12.175781 -7.535156 11.90625 -7.890625 C 11.632812 -8.242188 11.289062 -8.5 10.875 -8.65625 C 10.46875 -8.820312 9.929688 -8.90625 9.265625 -8.90625 L 7 -8.90625 L 7 0 Z M 10.84375 -12.25 C 12.894531 -12.25 13.921875 -13.203125 13.921875 -15.109375 C 13.921875 -17.054688 12.894531 -18.03125 10.84375 -18.03125 L 7 -18.03125 L 7 -12.25 Z M 10.84375 -12.25 "/></g></g><g transform="translate(466.329307, 103.646101)"><g><path d="M 15.9375 -7.140625 L 5.5625 -7.140625 C 5.6875 -5.742188 6.085938 -4.722656 6.765625 -4.078125 C 7.453125 -3.441406 8.382812 -3.125 9.5625 -3.125 C 10.488281 -3.125 11.238281 -3.296875 11.8125 -3.640625 C 12.382812 -3.992188 12.847656 -4.519531 13.203125 -5.21875 L 13.5 -5.21875 L 16.203125 -3.5 C 15.671875 -2.363281 14.875 -1.441406 13.8125 -0.734375 C 12.75 -0.0351562 11.332031 0.3125 9.5625 0.3125 C 7.894531 0.3125 6.453125 -0.00390625 5.234375 -0.640625 C 4.023438 -1.273438 3.09375 -2.21875 2.4375 -3.46875 C 1.78125 -4.71875 1.453125 -6.242188 1.453125 -8.046875 C 1.453125 -9.878906 1.796875 -11.425781 2.484375 -12.6875 C 3.171875 -13.945312 4.101562 -14.882812 5.28125 -15.5 C 6.46875 -16.125 7.796875 -16.4375 9.265625 -16.4375 C 11.546875 -16.4375 13.289062 -15.832031 14.5 -14.625 C 15.71875 -13.414062 16.328125 -11.640625 16.328125 -9.296875 C 16.328125 -8.453125 16.296875 -7.796875 16.234375 -7.328125 Z M 12.453125 -9.765625 C 12.410156 -10.992188 12.125 -11.882812 11.59375 -12.4375 C 11.0625 -13 10.285156 -13.28125 9.265625 -13.28125 C 7.222656 -13.28125 6.019531 -12.109375 5.65625 -9.765625 Z M 12.453125 -9.765625 "/></g></g><g transform="translate(483.859393, 103.646101)"><g><path d="M 8.359375 6.84375 C 5.703125 6.84375 3.738281 6.453125 2.46875 5.671875 C 1.195312 4.890625 0.5625 3.800781 0.5625 2.40625 C 0.5625 1.5625 0.832031 0.867188 1.375 0.328125 C 1.914062 -0.210938 2.695312 -0.578125 3.71875 -0.765625 L 3.71875 -1.0625 C 3.164062 -1.394531 2.769531 -1.765625 2.53125 -2.171875 C 2.289062 -2.578125 2.171875 -3.046875 2.171875 -3.578125 C 2.171875 -4.878906 3.015625 -5.753906 4.703125 -6.203125 L 4.703125 -6.5 C 3.835938 -7 3.1875 -7.613281 2.75 -8.34375 C 2.3125 -9.082031 2.09375 -9.972656 2.09375 -11.015625 C 2.09375 -12.085938 2.335938 -13.03125 2.828125 -13.84375 C 3.316406 -14.664062 4.035156 -15.300781 4.984375 -15.75 C 5.941406 -16.207031 7.082031 -16.4375 8.40625 -16.4375 C 9.75 -16.4375 10.820312 -16.203125 11.625 -15.734375 C 12.113281 -16.453125 12.398438 -17.285156 12.484375 -18.234375 L 12.796875 -18.421875 L 15.703125 -17.703125 C 15.609375 -16.929688 15.378906 -16.285156 15.015625 -15.765625 C 14.660156 -15.242188 14.101562 -14.78125 13.34375 -14.375 L 13.34375 -14.046875 C 14.25 -13.242188 14.703125 -12.128906 14.703125 -10.703125 C 14.703125 -9.703125 14.453125 -8.804688 13.953125 -8.015625 C 13.460938 -7.234375 12.738281 -6.613281 11.78125 -6.15625 C 10.832031 -5.695312 9.707031 -5.46875 8.40625 -5.46875 L 7.796875 -5.484375 C 7.398438 -5.503906 7.125 -5.515625 6.96875 -5.515625 C 6.601562 -5.515625 6.3125 -5.410156 6.09375 -5.203125 C 5.882812 -5.003906 5.78125 -4.75 5.78125 -4.4375 C 5.78125 -4.101562 5.914062 -3.835938 6.1875 -3.640625 C 6.46875 -3.453125 6.867188 -3.347656 7.390625 -3.328125 L 11 -3.203125 C 14.570312 -3.097656 16.359375 -1.5625 16.359375 1.40625 C 16.359375 2.445312 16.09375 3.375 15.5625 4.1875 C 15.03125 5 14.171875 5.644531 12.984375 6.125 C 11.796875 6.601562 10.253906 6.84375 8.359375 6.84375 Z M 8.40625 -8.296875 C 9.1875 -8.296875 9.796875 -8.523438 10.234375 -8.984375 C 10.671875 -9.441406 10.890625 -10.097656 10.890625 -10.953125 C 10.890625 -11.796875 10.671875 -12.441406 10.234375 -12.890625 C 9.796875 -13.347656 9.1875 -13.578125 8.40625 -13.578125 C 7.613281 -13.578125 7.003906 -13.347656 6.578125 -12.890625 C 6.148438 -12.441406 5.9375 -11.796875 5.9375 -10.953125 C 5.9375 -10.085938 6.148438 -9.425781 6.578125 -8.96875 C 7.003906 -8.519531 7.613281 -8.296875 8.40625 -8.296875 Z M 8.359375 3.90625 C 9.742188 3.90625 10.75 3.707031 11.375 3.3125 C 12.007812 2.925781 12.328125 2.421875 12.328125 1.796875 C 12.328125 1.285156 12.164062 0.910156 11.84375 0.671875 C 11.519531 0.441406 11.007812 0.316406 10.3125 0.296875 L 7.125 0.140625 C 7.007812 0.140625 6.90625 0.132812 6.8125 0.125 C 6.726562 0.113281 6.640625 0.109375 6.546875 0.109375 C 5.867188 0.109375 5.347656 0.253906 4.984375 0.546875 C 4.628906 0.847656 4.453125 1.253906 4.453125 1.765625 C 4.453125 2.453125 4.78125 2.976562 5.4375 3.34375 C 6.09375 3.71875 7.066406 3.90625 8.359375 3.90625 Z M 8.359375 3.90625 "/></g></g><g transform="translate(500.629207, 103.646101)"><g><path d="M 4.34375 -18.046875 C 3.613281 -18.046875 3.019531 -18.269531 2.5625 -18.71875 C 2.101562 -19.164062 1.875 -19.738281 1.875 -20.4375 C 1.875 -21.125 2.101562 -21.6875 2.5625 -22.125 C 3.019531 -22.570312 3.613281 -22.796875 4.34375 -22.796875 C 4.832031 -22.796875 5.265625 -22.691406 5.640625 -22.484375 C 6.023438 -22.285156 6.320312 -22.007812 6.53125 -21.65625 C 6.738281 -21.300781 6.84375 -20.894531 6.84375 -20.4375 C 6.84375 -19.976562 6.738281 -19.566406 6.53125 -19.203125 C 6.320312 -18.847656 6.023438 -18.566406 5.640625 -18.359375 C 5.265625 -18.148438 4.832031 -18.046875 4.34375 -18.046875 Z M 2.328125 0 L 2.328125 -16.125 L 6.375 -16.125 L 6.375 0 Z M 2.328125 0 "/></g></g><g transform="translate(509.313837, 103.646101)"><g><path d="M 7.546875 0.3125 C 6.441406 0.3125 5.429688 0.179688 4.515625 -0.078125 C 3.597656 -0.335938 2.816406 -0.691406 2.171875 -1.140625 C 1.523438 -1.597656 1.046875 -2.117188 0.734375 -2.703125 L 2.984375 -5.125 L 3.28125 -5.125 C 3.820312 -4.40625 4.457031 -3.863281 5.1875 -3.5 C 5.914062 -3.144531 6.710938 -2.96875 7.578125 -2.96875 C 8.359375 -2.96875 8.945312 -3.109375 9.34375 -3.390625 C 9.75 -3.671875 9.953125 -4.078125 9.953125 -4.609375 C 9.953125 -5.015625 9.804688 -5.351562 9.515625 -5.625 C 9.234375 -5.90625 8.769531 -6.125 8.125 -6.28125 L 6 -6.796875 C 4.394531 -7.179688 3.222656 -7.765625 2.484375 -8.546875 C 1.753906 -9.328125 1.390625 -10.320312 1.390625 -11.53125 C 1.390625 -12.539062 1.644531 -13.414062 2.15625 -14.15625 C 2.664062 -14.894531 3.382812 -15.457031 4.3125 -15.84375 C 5.25 -16.238281 6.335938 -16.4375 7.578125 -16.4375 C 9.023438 -16.4375 10.222656 -16.222656 11.171875 -15.796875 C 12.128906 -15.378906 12.878906 -14.820312 13.421875 -14.125 L 11.25 -11.78125 L 10.96875 -11.78125 C 10.519531 -12.289062 10.015625 -12.660156 9.453125 -12.890625 C 8.890625 -13.128906 8.265625 -13.25 7.578125 -13.25 C 5.972656 -13.25 5.171875 -12.75 5.171875 -11.75 C 5.171875 -11.332031 5.316406 -10.988281 5.609375 -10.71875 C 5.910156 -10.457031 6.4375 -10.25 7.1875 -10.09375 L 9.1875 -9.640625 C 10.820312 -9.296875 12.015625 -8.734375 12.765625 -7.953125 C 13.523438 -7.179688 13.90625 -6.144531 13.90625 -4.84375 C 13.90625 -3.8125 13.648438 -2.90625 13.140625 -2.125 C 12.628906 -1.351562 11.894531 -0.753906 10.9375 -0.328125 C 9.988281 0.0976562 8.859375 0.3125 7.546875 0.3125 Z M 7.546875 0.3125 "/></g></g><g transform="translate(524.182975, 103.646101)"><g><path d="M 11.125 -3.84375 L 12.171875 -0.84375 C 11.734375 -0.488281 11.179688 -0.207031 10.515625 0 C 9.859375 0.207031 9.113281 0.3125 8.28125 0.3125 C 6.53125 0.3125 5.203125 -0.160156 4.296875 -1.109375 C 3.390625 -2.066406 2.9375 -3.453125 2.9375 -5.265625 L 2.9375 -12.921875 L 0.484375 -12.921875 L 0.484375 -16.140625 L 2.9375 -16.140625 L 2.9375 -19.28125 L 6.984375 -19.9375 L 6.984375 -16.140625 L 11.5625 -16.140625 L 11.5625 -12.921875 L 6.984375 -12.921875 L 6.984375 -5.5625 C 6.984375 -4.757812 7.148438 -4.175781 7.484375 -3.8125 C 7.816406 -3.445312 8.300781 -3.265625 8.9375 -3.265625 C 9.65625 -3.265625 10.28125 -3.457031 10.8125 -3.84375 Z M 11.125 -3.84375 "/></g></g><g transform="translate(536.712819, 103.646101)"><g><path d="M 2.328125 0 L 2.328125 -16.125 L 6.25 -16.125 L 6.25 -13.71875 L 6.5625 -13.671875 C 6.945312 -14.566406 7.457031 -15.222656 8.09375 -15.640625 C 8.726562 -16.054688 9.5 -16.265625 10.40625 -16.265625 C 11.320312 -16.265625 12.019531 -16.109375 12.5 -15.796875 L 11.8125 -12.3125 L 11.5 -12.25 C 11.238281 -12.351562 10.984375 -12.429688 10.734375 -12.484375 C 10.492188 -12.535156 10.203125 -12.5625 9.859375 -12.5625 C 8.722656 -12.5625 7.859375 -12.160156 7.265625 -11.359375 C 6.671875 -10.566406 6.375 -9.296875 6.375 -7.546875 L 6.375 0 Z M 2.328125 0 "/></g></g><g transform="translate(549.359628, 103.646101)"><g><path d="M 6.28125 0.3125 C 5.25 0.3125 4.351562 0.125 3.59375 -0.25 C 2.832031 -0.632812 2.25 -1.195312 1.84375 -1.9375 C 1.4375 -2.675781 1.234375 -3.5625 1.234375 -4.59375 C 1.234375 -5.539062 1.4375 -6.335938 1.84375 -6.984375 C 2.25 -7.640625 2.878906 -8.171875 3.734375 -8.578125 C 4.597656 -8.992188 5.722656 -9.316406 7.109375 -9.546875 C 8.066406 -9.703125 8.796875 -9.867188 9.296875 -10.046875 C 9.804688 -10.234375 10.144531 -10.441406 10.3125 -10.671875 C 10.488281 -10.910156 10.578125 -11.210938 10.578125 -11.578125 C 10.578125 -12.097656 10.394531 -12.492188 10.03125 -12.765625 C 9.675781 -13.035156 9.082031 -13.171875 8.25 -13.171875 C 7.351562 -13.171875 6.5 -12.96875 5.6875 -12.5625 C 4.875 -12.164062 4.171875 -11.644531 3.578125 -11 L 3.28125 -11 L 1.59375 -13.546875 C 2.414062 -14.453125 3.414062 -15.160156 4.59375 -15.671875 C 5.769531 -16.179688 7.054688 -16.4375 8.453125 -16.4375 C 10.585938 -16.4375 12.128906 -15.984375 13.078125 -15.078125 C 14.035156 -14.171875 14.515625 -12.882812 14.515625 -11.21875 L 14.515625 -4.203125 C 14.515625 -3.484375 14.832031 -3.125 15.46875 -3.125 C 15.707031 -3.125 15.945312 -3.171875 16.1875 -3.265625 L 16.390625 -3.203125 L 16.671875 -0.375 C 16.453125 -0.226562 16.140625 -0.109375 15.734375 -0.015625 C 15.335938 0.0664062 14.898438 0.109375 14.421875 0.109375 C 13.460938 0.109375 12.710938 -0.0703125 12.171875 -0.4375 C 11.628906 -0.8125 11.238281 -1.390625 11 -2.171875 L 10.703125 -2.203125 C 9.910156 -0.523438 8.4375 0.3125 6.28125 0.3125 Z M 7.578125 -2.71875 C 8.503906 -2.71875 9.25 -3.03125 9.8125 -3.65625 C 10.375 -4.289062 10.65625 -5.164062 10.65625 -6.28125 L 10.65625 -7.921875 L 10.375 -7.984375 C 10.132812 -7.785156 9.816406 -7.617188 9.421875 -7.484375 C 9.023438 -7.359375 8.457031 -7.234375 7.71875 -7.109375 C 6.84375 -6.960938 6.210938 -6.707031 5.828125 -6.34375 C 5.441406 -5.988281 5.25 -5.488281 5.25 -4.84375 C 5.25 -4.144531 5.453125 -3.613281 5.859375 -3.25 C 6.265625 -2.894531 6.835938 -2.71875 7.578125 -2.71875 Z M 7.578125 -2.71875 "/></g></g><g transform="translate(566.363372, 103.646101)"><g><path d="M 11.125 -3.84375 L 12.171875 -0.84375 C 11.734375 -0.488281 11.179688 -0.207031 10.515625 0 C 9.859375 0.207031 9.113281 0.3125 8.28125 0.3125 C 6.53125 0.3125 5.203125 -0.160156 4.296875 -1.109375 C 3.390625 -2.066406 2.9375 -3.453125 2.9375 -5.265625 L 2.9375 -12.921875 L 0.484375 -12.921875 L 0.484375 -16.140625 L 2.9375 -16.140625 L 2.9375 -19.28125 L 6.984375 -19.9375 L 6.984375 -16.140625 L 11.5625 -16.140625 L 11.5625 -12.921875 L 6.984375 -12.921875 L 6.984375 -5.5625 C 6.984375 -4.757812 7.148438 -4.175781 7.484375 -3.8125 C 7.816406 -3.445312 8.300781 -3.265625 8.9375 -3.265625 C 9.65625 -3.265625 10.28125 -3.457031 10.8125 -3.84375 Z M 11.125 -3.84375 "/></g></g><g transform="translate(578.893216, 103.646101)"><g><path d="M 4.34375 -18.046875 C 3.613281 -18.046875 3.019531 -18.269531 2.5625 -18.71875 C 2.101562 -19.164062 1.875 -19.738281 1.875 -20.4375 C 1.875 -21.125 2.101562 -21.6875 2.5625 -22.125 C 3.019531 -22.570312 3.613281 -22.796875 4.34375 -22.796875 C 4.832031 -22.796875 5.265625 -22.691406 5.640625 -22.484375 C 6.023438 -22.285156 6.320312 -22.007812 6.53125 -21.65625 C 6.738281 -21.300781 6.84375 -20.894531 6.84375 -20.4375 C 6.84375 -19.976562 6.738281 -19.566406 6.53125 -19.203125 C 6.320312 -18.847656 6.023438 -18.566406 5.640625 -18.359375 C 5.265625 -18.148438 4.832031 -18.046875 4.34375 -18.046875 Z M 2.328125 0 L 2.328125 -16.125 L 6.375 -16.125 L 6.375 0 Z M 2.328125 0 "/></g></g><g transform="translate(587.577846, 103.646101)"><g><path d="M 9.375 0.3125 C 7.789062 0.3125 6.398438 -0.0078125 5.203125 -0.65625 C 4.015625 -1.3125 3.09375 -2.265625 2.4375 -3.515625 C 1.78125 -4.765625 1.453125 -6.273438 1.453125 -8.046875 C 1.453125 -9.828125 1.78125 -11.34375 2.4375 -12.59375 C 3.09375 -13.851562 4.015625 -14.804688 5.203125 -15.453125 C 6.398438 -16.109375 7.789062 -16.4375 9.375 -16.4375 C 10.945312 -16.4375 12.328125 -16.109375 13.515625 -15.453125 C 14.710938 -14.804688 15.644531 -13.851562 16.3125 -12.59375 C 16.976562 -11.34375 17.3125 -9.828125 17.3125 -8.046875 C 17.3125 -6.273438 16.976562 -4.765625 16.3125 -3.515625 C 15.644531 -2.265625 14.710938 -1.3125 13.515625 -0.65625 C 12.328125 -0.0078125 10.945312 0.3125 9.375 0.3125 Z M 9.375 -3.125 C 11.875 -3.125 13.125 -4.765625 13.125 -8.046875 C 13.125 -9.753906 12.800781 -11.003906 12.15625 -11.796875 C 11.519531 -12.597656 10.59375 -13 9.375 -13 C 6.863281 -13 5.609375 -11.347656 5.609375 -8.046875 C 5.609375 -4.765625 6.863281 -3.125 9.375 -3.125 Z M 9.375 -3.125 "/></g></g><g transform="translate(606.32144, 103.646101)"><g><path d="M 2.328125 0 L 2.328125 -16.125 L 6.21875 -16.125 L 6.21875 -13.75 L 6.515625 -13.6875 C 7.523438 -15.519531 9.15625 -16.4375 11.40625 -16.4375 C 13.257812 -16.4375 14.625 -15.925781 15.5 -14.90625 C 16.375 -13.894531 16.8125 -12.421875 16.8125 -10.484375 L 16.8125 0 L 12.765625 0 L 12.765625 -9.984375 C 12.765625 -11.054688 12.546875 -11.828125 12.109375 -12.296875 C 11.679688 -12.773438 11 -13.015625 10.0625 -13.015625 C 8.894531 -13.015625 7.988281 -12.640625 7.34375 -11.890625 C 6.695312 -11.140625 6.375 -9.957031 6.375 -8.34375 L 6.375 0 Z M 2.328125 0 "/></g></g></g><path fill="#082a71" d="M 380.320312 211.179688 L 543.96875 211.179688 C 546.894531 211.179688 549.289062 208.785156 549.289062 205.859375 C 549.289062 202.933594 546.894531 200.539062 543.96875 200.539062 L 380.320312 200.539062 C 377.390625 200.539062 374.996094 202.933594 374.996094 205.859375 C 374.996094 208.785156 377.390625 211.179688 380.320312 211.179688 Z M 380.320312 211.179688 " fill-opacity="1" fill-rule="nonzero"/><path fill="#082a71" d="M 550.621094 259.078125 C 550.621094 256.152344 548.226562 253.757812 545.296875 253.757812 L 381.648438 253.757812 C 378.722656 253.757812 376.328125 256.152344 376.328125 259.078125 C 376.328125 262.003906 378.722656 264.398438 381.648438 264.398438 L 545.296875 264.398438 C 548.226562 264.398438 550.621094 262.003906 550.621094 259.078125 Z M 550.621094 259.078125 " fill-opacity="1" fill-rule="nonzero"/><path fill="#082a71" d="M 376.328125 418.734375 C 376.328125 421.660156 378.722656 424.058594 381.648438 424.058594 L 504.851562 424.058594 C 502.191406 420.597656 499.796875 417.136719 497.667969 413.414062 L 381.648438 413.414062 C 378.722656 413.414062 376.328125 415.808594 376.328125 418.734375 Z M 376.328125 418.734375 " fill-opacity="1" fill-rule="nonzero"/><path fill="#082a71" d="M 484.097656 360.195312 L 381.648438 360.195312 C 378.722656 360.195312 376.328125 362.589844 376.328125 365.515625 C 376.328125 368.441406 378.722656 370.835938 381.648438 370.835938 L 484.363281 370.835938 C 484.097656 368.175781 484.097656 365.515625 484.097656 362.855469 C 484.097656 362.058594 484.097656 360.992188 484.097656 360.195312 Z M 484.097656 360.195312 " fill-opacity="1" fill-rule="nonzero"/><path fill="#082a71" d="M 501.125 306.976562 L 381.648438 306.976562 C 378.722656 306.976562 376.328125 309.371094 376.328125 312.296875 C 376.328125 315.222656 378.722656 317.617188 381.648438 317.617188 L 494.738281 317.617188 C 496.601562 313.894531 498.730469 310.433594 501.125 306.976562 Z M 501.125 306.976562 " fill-opacity="1" fill-rule="nonzero"/><g clip-path="url(#d9da74884b)"><path fill="#082a71" d="M 356.371094 482.597656 L 569.246094 482.597656 C 580.15625 482.597656 589.203125 474.347656 590.269531 463.972656 C 588.671875 463.972656 586.808594 463.972656 585.210938 463.972656 C 583.347656 463.972656 581.488281 463.972656 579.625 463.703125 C 578.558594 468.496094 574.300781 471.953125 569.246094 471.953125 L 356.371094 471.953125 C 350.515625 471.953125 345.726562 467.164062 345.726562 461.308594 L 345.726562 163.285156 C 345.726562 157.429688 350.515625 152.640625 356.371094 152.640625 L 569.246094 152.640625 C 575.101562 152.640625 579.890625 157.429688 579.890625 163.285156 L 579.890625 262.003906 C 581.753906 262.003906 583.347656 261.738281 585.210938 261.738281 C 587.074219 261.738281 588.671875 261.738281 590.535156 262.003906 L 590.535156 163.285156 C 590.535156 151.574219 580.953125 141.996094 569.246094 141.996094 L 356.371094 141.996094 C 344.664062 141.996094 335.082031 151.574219 335.082031 163.285156 L 335.082031 461.308594 C 335.082031 473.019531 344.664062 482.597656 356.371094 482.597656 Z M 356.371094 482.597656 " fill-opacity="1" fill-rule="nonzero"/></g><g clip-path="url(#660c806989)"><path fill="#082a71" d="M 585.210938 272.382812 C 535.453125 272.382812 494.738281 313.09375 494.738281 362.855469 C 494.738281 412.613281 535.453125 453.328125 585.210938 453.328125 C 634.972656 453.328125 675.683594 412.613281 675.683594 362.855469 C 675.683594 313.09375 634.972656 272.382812 585.210938 272.382812 Z M 585.210938 442.683594 C 541.304688 442.683594 505.382812 406.761719 505.382812 362.855469 C 505.382812 318.949219 541.304688 283.027344 585.210938 283.027344 C 629.117188 283.027344 665.039062 318.949219 665.039062 362.855469 C 665.039062 406.761719 629.117188 442.683594 585.210938 442.683594 Z M 585.210938 442.683594 " fill-opacity="1" fill-rule="nonzero"/></g><path fill="#082a71" d="M 612.621094 308.835938 L 610.757812 308.039062 C 601.710938 303.515625 590.535156 307.242188 586.011719 316.289062 L 553.8125 379.617188 C 553.8125 379.617188 553.8125 379.617188 553.8125 379.886719 C 553.8125 380.152344 553.546875 380.152344 553.546875 380.417969 C 553.546875 380.683594 553.546875 380.683594 553.28125 380.949219 C 553.28125 381.214844 553.28125 381.214844 553.28125 381.480469 C 553.28125 381.746094 553.28125 381.746094 553.28125 382.015625 C 553.28125 382.015625 553.28125 382.28125 553.28125 382.28125 L 553.546875 413.414062 C 553.546875 415.542969 554.609375 417.136719 556.472656 418.203125 C 558.335938 419 560.464844 419 562.0625 417.671875 L 587.605469 399.042969 C 587.871094 398.777344 588.140625 398.777344 588.140625 398.511719 C 588.140625 398.511719 588.140625 398.511719 588.40625 398.246094 C 588.671875 397.980469 588.9375 397.449219 589.203125 397.179688 L 621.132812 334.117188 C 623.53125 329.59375 623.796875 324.539062 622.199219 319.746094 C 620.601562 314.957031 617.144531 310.964844 612.621094 308.835938 Z M 563.925781 403.035156 L 563.925781 390.796875 L 574.035156 395.851562 Z M 582.019531 387.601562 L 565.785156 379.617188 L 587.605469 336.511719 L 603.839844 344.496094 Z M 611.554688 329.328125 L 608.628906 335.179688 L 592.398438 327.199219 L 595.324219 321.34375 C 597.1875 317.351562 601.976562 315.757812 605.96875 317.886719 L 607.828125 318.683594 C 611.820312 320.28125 613.683594 325.335938 611.554688 329.328125 Z M 611.554688 329.328125 " fill-opacity="1" fill-rule="nonzero"/></svg>