<svg xmlns="http://www.w3.org/2000/svg" xmlns:xlink="http://www.w3.org/1999/xlink" width="700" zoomAndPan="magnify" viewBox="0 0 525 525.000007" height="700" preserveAspectRatio="xMidYMid meet" version="1.0"><defs><g/><clipPath id="5e93b35544"><path d="M 0.503906 0 L 524.496094 0 L 524.496094 524 L 0.503906 524 Z M 0.503906 0 " clip-rule="nonzero"/></clipPath><clipPath id="3d700a1c21"><path d="M 0.5 419.027344 L 524.5 419.027344 L 524.5 524 L 0.5 524 Z M 0.5 419.027344 " clip-rule="nonzero"/></clipPath><clipPath id="78c556a8a8"><path d="M 55.554688 32 L 443.316406 32 L 443.316406 418 L 55.554688 418 Z M 55.554688 32 " clip-rule="nonzero"/></clipPath></defs><g clip-path="url(#5e93b35544)"><path stroke-linecap="butt" transform="matrix(0.748574, 0, 0, 0.74806, 0.502807, 0.000019962)" fill="none" stroke-linejoin="miter" d="M 0.00146884 -0.000026685 L 699.988512 -0.000026685 L 699.988512 705.486118 L 0.00146884 705.486118 L 0.00146884 -0.000026685 " stroke="#ffffff" stroke-width="14" stroke-opacity="1" stroke-miterlimit="4"/></g><g clip-path="url(#3d700a1c21)"><path fill="#ffffff" d="M -25.699219 419.027344 L 524.5 419.027344 L 524.5 524.035156 L -25.699219 524.035156 Z M -25.699219 419.027344 " fill-opacity="1" fill-rule="nonzero"/></g><g fill="#000000" fill-opacity="1"><g transform="translate(68.022771, 487.329559)"><g><path d="M 6.78125 -31.59375 L 6.78125 0 L 3.265625 0 L 3.265625 -31.59375 Z M 6.78125 -31.59375 "/></g></g></g><g fill="#000000" fill-opacity="1"><g transform="translate(78.038868, 487.329559)"><g><path d="M 11.140625 -15.125 C 10.835938 -15.769531 10.445312 -16.265625 9.96875 -16.609375 C 9.5 -16.960938 9 -17.140625 8.46875 -17.140625 C 7.851562 -17.140625 7.289062 -16.921875 6.78125 -16.484375 C 6.28125 -16.054688 6.03125 -15.546875 6.03125 -14.953125 C 6.03125 -13.816406 7.125 -12.847656 9.3125 -12.046875 C 11.507812 -11.253906 13.035156 -10.378906 13.890625 -9.421875 C 14.742188 -8.472656 15.171875 -7.285156 15.171875 -5.859375 C 15.171875 -4.773438 14.914062 -3.757812 14.40625 -2.8125 C 13.90625 -1.863281 13.128906 -1.066406 12.078125 -0.421875 C 11.035156 0.222656 9.84375 0.546875 8.5 0.546875 C 6.882812 0.546875 5.460938 0.113281 4.234375 -0.75 C 3.003906 -1.613281 2.109375 -2.84375 1.546875 -4.4375 L 4.53125 -5.703125 C 5.03125 -4.523438 5.59375 -3.707031 6.21875 -3.25 C 6.851562 -2.789062 7.628906 -2.5625 8.546875 -2.5625 C 9.492188 -2.5625 10.257812 -2.847656 10.84375 -3.421875 C 11.4375 -3.992188 11.734375 -4.710938 11.734375 -5.578125 C 11.734375 -6.296875 11.46875 -6.925781 10.9375 -7.46875 C 10.40625 -8.019531 9.429688 -8.570312 8.015625 -9.125 C 6.609375 -9.6875 5.515625 -10.25 4.734375 -10.8125 C 3.503906 -11.707031 2.875 -12.992188 2.84375 -14.671875 C 2.84375 -16.234375 3.398438 -17.550781 4.515625 -18.625 C 5.640625 -19.695312 7.039062 -20.234375 8.71875 -20.234375 C 9.78125 -20.234375 10.800781 -19.898438 11.78125 -19.234375 C 12.757812 -18.566406 13.484375 -17.6875 13.953125 -16.59375 Z M 11.140625 -15.125 "/></g></g></g><g fill="#000000" fill-opacity="1"><g transform="translate(94.760309, 487.329559)"><g><path d="M 11.140625 -15.125 C 10.835938 -15.769531 10.445312 -16.265625 9.96875 -16.609375 C 9.5 -16.960938 9 -17.140625 8.46875 -17.140625 C 7.851562 -17.140625 7.289062 -16.921875 6.78125 -16.484375 C 6.28125 -16.054688 6.03125 -15.546875 6.03125 -14.953125 C 6.03125 -13.816406 7.125 -12.847656 9.3125 -12.046875 C 11.507812 -11.253906 13.035156 -10.378906 13.890625 -9.421875 C 14.742188 -8.472656 15.171875 -7.285156 15.171875 -5.859375 C 15.171875 -4.773438 14.914062 -3.757812 14.40625 -2.8125 C 13.90625 -1.863281 13.128906 -1.066406 12.078125 -0.421875 C 11.035156 0.222656 9.84375 0.546875 8.5 0.546875 C 6.882812 0.546875 5.460938 0.113281 4.234375 -0.75 C 3.003906 -1.613281 2.109375 -2.84375 1.546875 -4.4375 L 4.53125 -5.703125 C 5.03125 -4.523438 5.59375 -3.707031 6.21875 -3.25 C 6.851562 -2.789062 7.628906 -2.5625 8.546875 -2.5625 C 9.492188 -2.5625 10.257812 -2.847656 10.84375 -3.421875 C 11.4375 -3.992188 11.734375 -4.710938 11.734375 -5.578125 C 11.734375 -6.296875 11.46875 -6.925781 10.9375 -7.46875 C 10.40625 -8.019531 9.429688 -8.570312 8.015625 -9.125 C 6.609375 -9.6875 5.515625 -10.25 4.734375 -10.8125 C 3.503906 -11.707031 2.875 -12.992188 2.84375 -14.671875 C 2.84375 -16.234375 3.398438 -17.550781 4.515625 -18.625 C 5.640625 -19.695312 7.039062 -20.234375 8.71875 -20.234375 C 9.78125 -20.234375 10.800781 -19.898438 11.78125 -19.234375 C 12.757812 -18.566406 13.484375 -17.6875 13.953125 -16.59375 Z M 11.140625 -15.125 "/></g></g></g><g fill="#000000" fill-opacity="1"><g transform="translate(111.481751, 487.329559)"><g><path d="M 6.28125 -19.703125 L 6.28125 -8.421875 C 6.28125 -6.359375 6.601562 -4.863281 7.25 -3.9375 C 7.894531 -3.019531 9.054688 -2.5625 10.734375 -2.5625 C 12.378906 -2.5625 13.53125 -3.015625 14.1875 -3.921875 C 14.84375 -4.828125 15.171875 -6.269531 15.171875 -8.25 L 15.171875 -19.703125 L 18.515625 -19.703125 L 18.515625 -8.125 C 18.515625 -5.28125 17.863281 -3.125 16.5625 -1.65625 C 15.269531 -0.1875 13.328125 0.546875 10.734375 0.546875 C 8.128906 0.546875 6.175781 -0.191406 4.875 -1.671875 C 3.582031 -3.148438 2.9375 -5.300781 2.9375 -8.125 L 2.9375 -19.703125 Z M 6.28125 -19.703125 "/></g></g></g><g fill="#000000" fill-opacity="1"><g transform="translate(132.938835, 487.329559)"><g><path d="M 17.8125 -16.890625 L 17.8125 -19.703125 L 21.15625 -19.703125 L 21.15625 0 L 17.8125 0 L 17.8125 -2.71875 L 17.71875 -2.71875 C 15.988281 -0.539062 13.726562 0.546875 10.9375 0.546875 C 8.195312 0.546875 5.941406 -0.457031 4.171875 -2.46875 C 2.398438 -4.476562 1.515625 -6.925781 1.515625 -9.8125 C 1.515625 -12.820312 2.40625 -15.3125 4.1875 -17.28125 C 5.976562 -19.25 8.242188 -20.234375 10.984375 -20.234375 C 12.347656 -20.234375 13.609375 -19.941406 14.765625 -19.359375 C 15.929688 -18.773438 16.914062 -17.953125 17.71875 -16.890625 Z M 11.359375 -17.140625 C 9.566406 -17.140625 8.046875 -16.453125 6.796875 -15.078125 C 5.554688 -13.710938 4.9375 -12.039062 4.9375 -10.0625 C 4.9375 -7.9375 5.546875 -6.15625 6.765625 -4.71875 C 7.984375 -3.28125 9.53125 -2.5625 11.40625 -2.5625 C 13.382812 -2.5625 14.972656 -3.242188 16.171875 -4.609375 C 17.378906 -5.972656 17.984375 -7.773438 17.984375 -10.015625 C 17.984375 -12.054688 17.367188 -13.753906 16.140625 -15.109375 C 14.910156 -16.460938 13.316406 -17.140625 11.359375 -17.140625 Z M 11.359375 -17.140625 "/></g></g></g><g fill="#000000" fill-opacity="1"><g transform="translate(157.119962, 487.329559)"><g><path d="M 18.9375 0 L 15.59375 0 L 15.59375 -11.484375 C 15.59375 -13.460938 15.289062 -14.898438 14.6875 -15.796875 C 14.082031 -16.691406 13 -17.140625 11.4375 -17.140625 C 9.65625 -17.140625 8.390625 -16.523438 7.640625 -15.296875 C 6.898438 -14.066406 6.53125 -12.195312 6.53125 -9.6875 L 6.53125 0 L 3.1875 0 L 3.1875 -19.703125 L 6.53125 -19.703125 L 6.53125 -17.3125 L 6.625 -17.3125 C 7.320312 -18.257812 8.125 -18.984375 9.03125 -19.484375 C 9.9375 -19.984375 11.003906 -20.234375 12.234375 -20.234375 C 14.441406 -20.234375 16.109375 -19.554688 17.234375 -18.203125 C 18.367188 -16.847656 18.9375 -14.75 18.9375 -11.90625 Z M 18.9375 0 "/></g></g></g><g fill="#000000" fill-opacity="1"><g transform="translate(179.247583, 487.329559)"><g><path d="M 17.8125 -13.828125 L 17.71875 -13.828125 C 17 -14.804688 16.113281 -15.601562 15.0625 -16.21875 C 14.019531 -16.832031 12.867188 -17.140625 11.609375 -17.140625 C 9.648438 -17.140625 8 -16.425781 6.65625 -15 C 5.320312 -13.570312 4.65625 -11.851562 4.65625 -9.84375 C 4.65625 -7.832031 5.296875 -6.113281 6.578125 -4.6875 C 7.859375 -3.269531 9.476562 -2.5625 11.4375 -2.5625 C 12.863281 -2.5625 14.085938 -2.859375 15.109375 -3.453125 C 16.128906 -4.054688 17.046875 -4.890625 17.859375 -5.953125 L 17.9375 -5.953125 L 17.9375 -1.46875 C 17.007812 -0.820312 16.03125 -0.328125 15 0.015625 C 13.96875 0.367188 12.863281 0.546875 11.6875 0.546875 C 9.820312 0.546875 8.070312 0.0976562 6.4375 -0.796875 C 4.800781 -1.691406 3.519531 -2.941406 2.59375 -4.546875 C 1.675781 -6.148438 1.21875 -7.914062 1.21875 -9.84375 C 1.21875 -11.664062 1.671875 -13.378906 2.578125 -14.984375 C 3.484375 -16.585938 4.757812 -17.863281 6.40625 -18.8125 C 8.0625 -19.757812 9.835938 -20.234375 11.734375 -20.234375 C 12.742188 -20.234375 13.726562 -20.09375 14.6875 -19.8125 C 15.65625 -19.539062 16.695312 -19.023438 17.8125 -18.265625 Z M 17.8125 -13.828125 "/></g></g></g><g fill="#000000" fill-opacity="1"><g transform="translate(199.195971, 487.329559)"><g><path d="M 20.328125 -9.140625 L 4.859375 -9.140625 C 4.910156 -7.179688 5.550781 -5.59375 6.78125 -4.375 C 8.007812 -3.164062 9.519531 -2.5625 11.3125 -2.5625 C 12.570312 -2.5625 13.679688 -2.878906 14.640625 -3.515625 C 15.609375 -4.160156 16.5 -5.195312 17.3125 -6.625 L 20.15625 -4.984375 C 19.207031 -3.222656 17.957031 -1.859375 16.40625 -0.890625 C 14.851562 0.0664062 13.070312 0.546875 11.0625 0.546875 C 9.132812 0.546875 7.429688 0.0859375 5.953125 -0.828125 C 4.472656 -1.753906 3.347656 -2.992188 2.578125 -4.546875 C 1.804688 -6.097656 1.421875 -7.78125 1.421875 -9.59375 C 1.421875 -11.601562 1.804688 -13.414062 2.578125 -15.03125 C 3.347656 -16.65625 4.457031 -17.925781 5.90625 -18.84375 C 7.363281 -19.769531 9.054688 -20.234375 10.984375 -20.234375 C 12.847656 -20.234375 14.5 -19.78125 15.9375 -18.875 C 17.382812 -17.96875 18.484375 -16.71875 19.234375 -15.125 C 19.984375 -13.53125 20.359375 -11.742188 20.359375 -9.765625 C 20.359375 -9.566406 20.347656 -9.359375 20.328125 -9.140625 Z M 16.796875 -11.984375 C 16.523438 -13.523438 15.84375 -14.769531 14.75 -15.71875 C 13.65625 -16.664062 12.410156 -17.140625 11.015625 -17.140625 C 9.648438 -17.140625 8.363281 -16.644531 7.15625 -15.65625 C 5.957031 -14.664062 5.25 -13.441406 5.03125 -11.984375 Z M 16.796875 -11.984375 "/></g></g></g><g fill="#000000" fill-opacity="1"><g transform="translate(220.946415, 487.329559)"><g/></g></g><g fill="#000000" fill-opacity="1"><g transform="translate(233.85419, 487.329559)"><g><path d="M 1.421875 -9.8125 C 1.421875 -11.675781 1.878906 -13.414062 2.796875 -15.03125 C 3.722656 -16.65625 4.984375 -17.925781 6.578125 -18.84375 C 8.171875 -19.769531 9.90625 -20.234375 11.78125 -20.234375 C 13.644531 -20.234375 15.363281 -19.769531 16.9375 -18.84375 C 18.519531 -17.925781 19.78125 -16.664062 20.71875 -15.0625 C 21.65625 -13.457031 22.125 -11.707031 22.125 -9.8125 C 22.125 -7.9375 21.660156 -6.191406 20.734375 -4.578125 C 19.816406 -2.972656 18.5625 -1.71875 16.96875 -0.8125 C 15.375 0.09375 13.644531 0.546875 11.78125 0.546875 C 9.90625 0.546875 8.164062 0.0859375 6.5625 -0.828125 C 4.957031 -1.753906 3.695312 -3.019531 2.78125 -4.625 C 1.875 -6.238281 1.421875 -7.96875 1.421875 -9.8125 Z M 11.734375 -17.140625 C 9.753906 -17.140625 8.097656 -16.429688 6.765625 -15.015625 C 5.441406 -13.609375 4.78125 -11.882812 4.78125 -9.84375 C 4.78125 -8.332031 5.140625 -7 5.859375 -5.84375 C 6.585938 -4.6875 7.472656 -3.847656 8.515625 -3.328125 C 9.566406 -2.816406 10.65625 -2.5625 11.78125 -2.5625 C 13.0625 -2.5625 14.234375 -2.859375 15.296875 -3.453125 C 16.359375 -4.054688 17.203125 -4.921875 17.828125 -6.046875 C 18.460938 -7.179688 18.78125 -8.445312 18.78125 -9.84375 C 18.78125 -11.132812 18.492188 -12.335938 17.921875 -13.453125 C 17.347656 -14.566406 16.515625 -15.457031 15.421875 -16.125 C 14.328125 -16.800781 13.097656 -17.140625 11.734375 -17.140625 Z M 11.734375 -17.140625 "/></g></g></g><g fill="#000000" fill-opacity="1"><g transform="translate(257.40669, 487.329559)"><g><path d="M 11.8125 -31.296875 C 11.363281 -31.441406 10.976562 -31.554688 10.65625 -31.640625 C 10.34375 -31.722656 9.972656 -31.765625 9.546875 -31.765625 C 8.546875 -31.765625 7.84375 -31.46875 7.4375 -30.875 C 7.03125 -30.289062 6.828125 -29.203125 6.828125 -27.609375 L 6.828125 -19.703125 L 11.8125 -19.703125 L 11.8125 -16.59375 L 6.828125 -16.59375 L 6.828125 0 L 3.484375 0 L 3.484375 -16.59375 L 1.640625 -16.59375 L 1.640625 -19.703125 L 3.484375 -19.703125 L 3.484375 -28.453125 C 3.484375 -29.960938 3.679688 -31.175781 4.078125 -32.09375 C 4.484375 -33.019531 5.144531 -33.75 6.0625 -34.28125 C 6.988281 -34.8125 8.109375 -35.09375 9.421875 -35.125 C 9.847656 -35.125 10.273438 -35.078125 10.703125 -34.984375 C 11.140625 -34.898438 11.507812 -34.804688 11.8125 -34.703125 Z M 11.8125 -31.296875 "/></g></g></g><g fill="#000000" fill-opacity="1"><g transform="translate(268.889597, 487.329559)"><g/></g></g><g fill="#000000" fill-opacity="1"><g transform="translate(281.797384, 487.329559)"><g><path d="M 17.8125 -13.828125 L 17.71875 -13.828125 C 17 -14.804688 16.113281 -15.601562 15.0625 -16.21875 C 14.019531 -16.832031 12.867188 -17.140625 11.609375 -17.140625 C 9.648438 -17.140625 8 -16.425781 6.65625 -15 C 5.320312 -13.570312 4.65625 -11.851562 4.65625 -9.84375 C 4.65625 -7.832031 5.296875 -6.113281 6.578125 -4.6875 C 7.859375 -3.269531 9.476562 -2.5625 11.4375 -2.5625 C 12.863281 -2.5625 14.085938 -2.859375 15.109375 -3.453125 C 16.128906 -4.054688 17.046875 -4.890625 17.859375 -5.953125 L 17.9375 -5.953125 L 17.9375 -1.46875 C 17.007812 -0.820312 16.03125 -0.328125 15 0.015625 C 13.96875 0.367188 12.863281 0.546875 11.6875 0.546875 C 9.820312 0.546875 8.070312 0.0976562 6.4375 -0.796875 C 4.800781 -1.691406 3.519531 -2.941406 2.59375 -4.546875 C 1.675781 -6.148438 1.21875 -7.914062 1.21875 -9.84375 C 1.21875 -11.664062 1.671875 -13.378906 2.578125 -14.984375 C 3.484375 -16.585938 4.757812 -17.863281 6.40625 -18.8125 C 8.0625 -19.757812 9.835938 -20.234375 11.734375 -20.234375 C 12.742188 -20.234375 13.726562 -20.09375 14.6875 -19.8125 C 15.65625 -19.539062 16.695312 -19.023438 17.8125 -18.265625 Z M 17.8125 -13.828125 "/></g></g></g><g fill="#000000" fill-opacity="1"><g transform="translate(301.74576, 487.329559)"><g><path d="M 20.328125 -9.140625 L 4.859375 -9.140625 C 4.910156 -7.179688 5.550781 -5.59375 6.78125 -4.375 C 8.007812 -3.164062 9.519531 -2.5625 11.3125 -2.5625 C 12.570312 -2.5625 13.679688 -2.878906 14.640625 -3.515625 C 15.609375 -4.160156 16.5 -5.195312 17.3125 -6.625 L 20.15625 -4.984375 C 19.207031 -3.222656 17.957031 -1.859375 16.40625 -0.890625 C 14.851562 0.0664062 13.070312 0.546875 11.0625 0.546875 C 9.132812 0.546875 7.429688 0.0859375 5.953125 -0.828125 C 4.472656 -1.753906 3.347656 -2.992188 2.578125 -4.546875 C 1.804688 -6.097656 1.421875 -7.78125 1.421875 -9.59375 C 1.421875 -11.601562 1.804688 -13.414062 2.578125 -15.03125 C 3.347656 -16.65625 4.457031 -17.925781 5.90625 -18.84375 C 7.363281 -19.769531 9.054688 -20.234375 10.984375 -20.234375 C 12.847656 -20.234375 14.5 -19.78125 15.9375 -18.875 C 17.382812 -17.96875 18.484375 -16.71875 19.234375 -15.125 C 19.984375 -13.53125 20.359375 -11.742188 20.359375 -9.765625 C 20.359375 -9.566406 20.347656 -9.359375 20.328125 -9.140625 Z M 16.796875 -11.984375 C 16.523438 -13.523438 15.84375 -14.769531 14.75 -15.71875 C 13.65625 -16.664062 12.410156 -17.140625 11.015625 -17.140625 C 9.648438 -17.140625 8.363281 -16.644531 7.15625 -15.65625 C 5.957031 -14.664062 5.25 -13.441406 5.03125 -11.984375 Z M 16.796875 -11.984375 "/></g></g></g><g fill="#000000" fill-opacity="1"><g transform="translate(323.496216, 487.329559)"><g><path d="M 12.234375 -16.265625 C 11.898438 -16.515625 11.585938 -16.722656 11.296875 -16.890625 C 11.003906 -17.054688 10.644531 -17.140625 10.21875 -17.140625 C 8.96875 -17.140625 8.015625 -16.578125 7.359375 -15.453125 C 6.703125 -14.335938 6.375 -12.539062 6.375 -10.0625 L 6.375 0 L 3.015625 0 L 3.015625 -19.703125 L 6.375 -19.703125 L 6.375 -17.5625 L 6.453125 -17.5625 C 7.265625 -18.644531 7.984375 -19.359375 8.609375 -19.703125 C 9.234375 -20.054688 9.96875 -20.234375 10.8125 -20.234375 C 11.3125 -20.234375 11.816406 -20.148438 12.328125 -19.984375 C 12.847656 -19.816406 13.347656 -19.59375 13.828125 -19.3125 Z M 12.234375 -16.265625 "/></g></g></g><g fill="#000000" fill-opacity="1"><g transform="translate(337.535521, 487.329559)"><g><path d="M 6.703125 -26.78125 L 6.703125 -19.703125 L 10.21875 -19.703125 L 10.21875 -16.59375 L 6.703125 -16.59375 L 6.703125 0 L 3.359375 0 L 3.359375 -16.59375 L 1.296875 -16.59375 L 1.296875 -19.703125 L 3.359375 -19.703125 L 3.359375 -26.78125 Z M 6.703125 -26.78125 "/></g></g></g><g fill="#000000" fill-opacity="1"><g transform="translate(347.593527, 487.329559)"><g><path d="M 7.171875 -19.703125 L 7.171875 0 L 3.8125 0 L 3.8125 -19.703125 Z M 3.09375 -27.203125 C 3.09375 -27.816406 3.335938 -28.351562 3.828125 -28.8125 C 4.316406 -29.269531 4.867188 -29.5 5.484375 -29.5 C 6.128906 -29.5 6.6875 -29.269531 7.15625 -28.8125 C 7.632812 -28.351562 7.875 -27.816406 7.875 -27.203125 C 7.875 -26.472656 7.632812 -25.875 7.15625 -25.40625 C 6.6875 -24.945312 6.128906 -24.71875 5.484375 -24.71875 C 4.847656 -24.71875 4.289062 -24.941406 3.8125 -25.390625 C 3.332031 -25.835938 3.09375 -26.441406 3.09375 -27.203125 Z M 3.09375 -27.203125 "/></g></g></g><g fill="#000000" fill-opacity="1"><g transform="translate(358.57352, 487.329559)"><g><path d="M 11.8125 -31.296875 C 11.363281 -31.441406 10.976562 -31.554688 10.65625 -31.640625 C 10.34375 -31.722656 9.972656 -31.765625 9.546875 -31.765625 C 8.546875 -31.765625 7.84375 -31.46875 7.4375 -30.875 C 7.03125 -30.289062 6.828125 -29.203125 6.828125 -27.609375 L 6.828125 -19.703125 L 11.8125 -19.703125 L 11.8125 -16.59375 L 6.828125 -16.59375 L 6.828125 0 L 3.484375 0 L 3.484375 -16.59375 L 1.640625 -16.59375 L 1.640625 -19.703125 L 3.484375 -19.703125 L 3.484375 -28.453125 C 3.484375 -29.960938 3.679688 -31.175781 4.078125 -32.09375 C 4.484375 -33.019531 5.144531 -33.75 6.0625 -34.28125 C 6.988281 -34.8125 8.109375 -35.09375 9.421875 -35.125 C 9.847656 -35.125 10.273438 -35.078125 10.703125 -34.984375 C 11.140625 -34.898438 11.507812 -34.804688 11.8125 -34.703125 Z M 11.8125 -31.296875 "/></g></g></g><g fill="#000000" fill-opacity="1"><g transform="translate(370.056416, 487.329559)"><g><path d="M 7.171875 -19.703125 L 7.171875 0 L 3.8125 0 L 3.8125 -19.703125 Z M 3.09375 -27.203125 C 3.09375 -27.816406 3.335938 -28.351562 3.828125 -28.8125 C 4.316406 -29.269531 4.867188 -29.5 5.484375 -29.5 C 6.128906 -29.5 6.6875 -29.269531 7.15625 -28.8125 C 7.632812 -28.351562 7.875 -27.816406 7.875 -27.203125 C 7.875 -26.472656 7.632812 -25.875 7.15625 -25.40625 C 6.6875 -24.945312 6.128906 -24.71875 5.484375 -24.71875 C 4.847656 -24.71875 4.289062 -24.941406 3.8125 -25.390625 C 3.332031 -25.835938 3.09375 -26.441406 3.09375 -27.203125 Z M 3.09375 -27.203125 "/></g></g></g><g fill="#000000" fill-opacity="1"><g transform="translate(381.036409, 487.329559)"><g><path d="M 17.8125 -13.828125 L 17.71875 -13.828125 C 17 -14.804688 16.113281 -15.601562 15.0625 -16.21875 C 14.019531 -16.832031 12.867188 -17.140625 11.609375 -17.140625 C 9.648438 -17.140625 8 -16.425781 6.65625 -15 C 5.320312 -13.570312 4.65625 -11.851562 4.65625 -9.84375 C 4.65625 -7.832031 5.296875 -6.113281 6.578125 -4.6875 C 7.859375 -3.269531 9.476562 -2.5625 11.4375 -2.5625 C 12.863281 -2.5625 14.085938 -2.859375 15.109375 -3.453125 C 16.128906 -4.054688 17.046875 -4.890625 17.859375 -5.953125 L 17.9375 -5.953125 L 17.9375 -1.46875 C 17.007812 -0.820312 16.03125 -0.328125 15 0.015625 C 13.96875 0.367188 12.863281 0.546875 11.6875 0.546875 C 9.820312 0.546875 8.070312 0.0976562 6.4375 -0.796875 C 4.800781 -1.691406 3.519531 -2.941406 2.59375 -4.546875 C 1.675781 -6.148438 1.21875 -7.914062 1.21875 -9.84375 C 1.21875 -11.664062 1.671875 -13.378906 2.578125 -14.984375 C 3.484375 -16.585938 4.757812 -17.863281 6.40625 -18.8125 C 8.0625 -19.757812 9.835938 -20.234375 11.734375 -20.234375 C 12.742188 -20.234375 13.726562 -20.09375 14.6875 -19.8125 C 15.65625 -19.539062 16.695312 -19.023438 17.8125 -18.265625 Z M 17.8125 -13.828125 "/></g></g></g><g fill="#000000" fill-opacity="1"><g transform="translate(400.984786, 487.329559)"><g><path d="M 17.8125 -16.890625 L 17.8125 -19.703125 L 21.15625 -19.703125 L 21.15625 0 L 17.8125 0 L 17.8125 -2.71875 L 17.71875 -2.71875 C 15.988281 -0.539062 13.726562 0.546875 10.9375 0.546875 C 8.195312 0.546875 5.941406 -0.457031 4.171875 -2.46875 C 2.398438 -4.476562 1.515625 -6.925781 1.515625 -9.8125 C 1.515625 -12.820312 2.40625 -15.3125 4.1875 -17.28125 C 5.976562 -19.25 8.242188 -20.234375 10.984375 -20.234375 C 12.347656 -20.234375 13.609375 -19.941406 14.765625 -19.359375 C 15.929688 -18.773438 16.914062 -17.953125 17.71875 -16.890625 Z M 11.359375 -17.140625 C 9.566406 -17.140625 8.046875 -16.453125 6.796875 -15.078125 C 5.554688 -13.710938 4.9375 -12.039062 4.9375 -10.0625 C 4.9375 -7.9375 5.546875 -6.15625 6.765625 -4.71875 C 7.984375 -3.28125 9.53125 -2.5625 11.40625 -2.5625 C 13.382812 -2.5625 14.972656 -3.242188 16.171875 -4.609375 C 17.378906 -5.972656 17.984375 -7.773438 17.984375 -10.015625 C 17.984375 -12.054688 17.367188 -13.753906 16.140625 -15.109375 C 14.910156 -16.460938 13.316406 -17.140625 11.359375 -17.140625 Z M 11.359375 -17.140625 "/></g></g></g><g fill="#000000" fill-opacity="1"><g transform="translate(425.165914, 487.329559)"><g><path d="M 6.703125 -26.78125 L 6.703125 -19.703125 L 10.21875 -19.703125 L 10.21875 -16.59375 L 6.703125 -16.59375 L 6.703125 0 L 3.359375 0 L 3.359375 -16.59375 L 1.296875 -16.59375 L 1.296875 -19.703125 L 3.359375 -19.703125 L 3.359375 -26.78125 Z M 6.703125 -26.78125 "/></g></g></g><g fill="#000000" fill-opacity="1"><g transform="translate(435.223919, 487.329559)"><g><path d="M 20.328125 -9.140625 L 4.859375 -9.140625 C 4.910156 -7.179688 5.550781 -5.59375 6.78125 -4.375 C 8.007812 -3.164062 9.519531 -2.5625 11.3125 -2.5625 C 12.570312 -2.5625 13.679688 -2.878906 14.640625 -3.515625 C 15.609375 -4.160156 16.5 -5.195312 17.3125 -6.625 L 20.15625 -4.984375 C 19.207031 -3.222656 17.957031 -1.859375 16.40625 -0.890625 C 14.851562 0.0664062 13.070312 0.546875 11.0625 0.546875 C 9.132812 0.546875 7.429688 0.0859375 5.953125 -0.828125 C 4.472656 -1.753906 3.347656 -2.992188 2.578125 -4.546875 C 1.804688 -6.097656 1.421875 -7.78125 1.421875 -9.59375 C 1.421875 -11.601562 1.804688 -13.414062 2.578125 -15.03125 C 3.347656 -16.65625 4.457031 -17.925781 5.90625 -18.84375 C 7.363281 -19.769531 9.054688 -20.234375 10.984375 -20.234375 C 12.847656 -20.234375 14.5 -19.78125 15.9375 -18.875 C 17.382812 -17.96875 18.484375 -16.71875 19.234375 -15.125 C 19.984375 -13.53125 20.359375 -11.742188 20.359375 -9.765625 C 20.359375 -9.566406 20.347656 -9.359375 20.328125 -9.140625 Z M 16.796875 -11.984375 C 16.523438 -13.523438 15.84375 -14.769531 14.75 -15.71875 C 13.65625 -16.664062 12.410156 -17.140625 11.015625 -17.140625 C 9.648438 -17.140625 8.363281 -16.644531 7.15625 -15.65625 C 5.957031 -14.664062 5.25 -13.441406 5.03125 -11.984375 Z M 16.796875 -11.984375 "/></g></g></g><g clip-path="url(#78c556a8a8)"><path fill="#ffffff" d="M 438.980469 81.558594 L 394.582031 37.15625 C 391.804688 34.382812 388.042969 32.820312 384.117188 32.820312 L 147.316406 32.820312 C 139.144531 32.820312 132.515625 39.449219 132.515625 47.621094 L 132.515625 106.640625 C 126.175781 108.824219 120.148438 112.253906 114.8125 117.148438 C 102.476562 117.683594 91.453125 122.183594 83.238281 130.15625 C 74.683594 138.453125 69.738281 150 68.972656 163.175781 C 60.199219 173.015625 55.53125 184.679688 55.710938 196.589844 C 55.886719 208.035156 60.496094 219.019531 68.84375 228.125 C 69.378906 240.460938 73.878906 251.484375 81.851562 259.699219 C 83.757812 261.667969 85.882812 263.394531 88.117188 264.976562 L 88.117188 358.421875 C 88.117188 363.878906 91.121094 368.894531 95.933594 371.472656 C 100.71875 374.039062 106.566406 373.765625 111.125 370.738281 L 132.515625 356.476562 L 132.515625 402.824219 C 132.515625 410.996094 139.144531 417.621094 147.316406 417.621094 L 428.515625 417.621094 C 436.691406 417.621094 443.316406 410.996094 443.316406 402.824219 L 443.316406 92.019531 C 443.316406 88.097656 441.757812 84.332031 438.980469 81.558594 Z M 384.117188 68.550781 L 407.589844 92.019531 L 384.117188 92.019531 Z M 103.097656 239.089844 C 98.601562 234.457031 98.109375 227.859375 98.484375 223.140625 C 98.871094 218.398438 96.953125 213.765625 93.332031 210.6875 C 89.726562 207.617188 85.40625 202.601562 85.3125 196.148438 C 85.234375 190.773438 88.117188 185.28125 93.667969 180.265625 C 96.960938 177.289062 98.738281 172.988281 98.515625 168.550781 C 98.148438 161.078125 99.988281 155.144531 103.847656 151.402344 C 108.488281 146.914062 115.101562 146.472656 119.796875 146.792969 C 124.667969 147.277344 129.171875 145.257812 132.25 141.640625 C 135.320312 138.03125 140.335938 133.710938 146.789062 133.617188 C 152.144531 133.285156 157.652344 136.421875 162.671875 141.972656 C 165.648438 145.257812 169.914062 147.082031 174.386719 146.820312 C 181.832031 146.480469 187.792969 148.289062 191.535156 152.152344 C 196.03125 156.785156 196.523438 163.382812 196.144531 168.101562 C 195.761719 172.84375 197.679688 177.476562 201.296875 180.554688 C 204.90625 183.625 209.226562 188.640625 209.320312 195.09375 C 209.398438 200.472656 206.515625 205.964844 200.964844 210.976562 C 197.671875 213.957031 195.894531 218.253906 196.117188 222.691406 C 196.484375 230.164062 194.644531 236.097656 190.785156 239.839844 C 186.160156 244.34375 179.570312 244.804688 174.835938 244.453125 C 170.058594 244.070312 165.46875 245.992188 162.382812 249.605469 C 159.3125 253.210938 154.296875 257.53125 147.84375 257.625 C 142.46875 257.488281 136.976562 254.816406 131.960938 249.273438 C 129.019531 246.023438 124.628906 244.164062 120.246094 244.421875 C 112.765625 244.734375 106.839844 242.949219 103.097656 239.089844 Z M 139.105469 316.507812 L 117.714844 330.765625 L 117.714844 276.117188 C 126.515625 283.042969 137.027344 287.226562 148.285156 287.226562 C 158.570312 287.070312 168.40625 283.160156 176.917969 276.347656 L 176.917969 330.765625 L 155.527344 316.507812 C 150.554688 313.199219 144.078125 313.199219 139.105469 316.507812 Z M 413.71875 388.023438 L 162.117188 388.023438 L 162.117188 356.472656 L 183.507812 370.734375 C 188.003906 373.738281 193.941406 374.023438 198.695312 371.472656 C 203.511719 368.894531 206.515625 363.878906 206.515625 358.421875 L 206.515625 264.980469 C 208.199219 263.757812 209.890625 262.546875 211.394531 261.085938 C 219.949219 252.789062 224.894531 241.242188 225.660156 228.070312 C 234.433594 218.226562 239.101562 206.5625 238.921875 194.652344 C 238.746094 183.207031 234.136719 172.222656 225.789062 163.117188 C 225.253906 150.78125 220.753906 139.761719 212.78125 131.542969 C 204.484375 122.988281 192.9375 118.042969 179.761719 117.277344 C 174.394531 112.492188 168.355469 109.171875 162.117188 106.996094 L 162.117188 62.421875 L 354.515625 62.421875 L 354.515625 106.820312 C 354.515625 114.996094 361.144531 121.621094 369.316406 121.621094 L 413.71875 121.621094 Z M 369.316406 151.222656 C 388.394531 151.222656 388.363281 180.820312 369.316406 180.820312 L 280.515625 180.820312 C 261.441406 180.820312 261.472656 151.222656 280.515625 151.222656 Z M 369.316406 254.820312 L 280.515625 254.820312 C 261.441406 254.820312 261.472656 225.222656 280.515625 225.222656 L 369.316406 225.222656 C 388.394531 225.222656 388.363281 254.820312 369.316406 254.820312 Z M 369.316406 328.820312 L 280.515625 328.820312 C 261.441406 328.820312 261.472656 299.222656 280.515625 299.222656 L 369.316406 299.222656 C 388.394531 299.222656 388.363281 328.820312 369.316406 328.820312 Z M 369.316406 328.820312 " fill-opacity="1" fill-rule="nonzero"/></g></svg>