<svg xmlns="http://www.w3.org/2000/svg" xmlns:xlink="http://www.w3.org/1999/xlink" width="3400" zoomAndPan="magnify" viewBox="0 0 2550 3224.999865" height="4300" preserveAspectRatio="xMidYMid meet" version="1.0"><defs><g/><clipPath id="a513be5632"><path d="M 0 2799.246094 L 2550 2799.246094 L 2550 3225 L 0 3225 Z M 0 2799.246094 " clip-rule="nonzero"/></clipPath><clipPath id="26f4f9ded7"><path d="M 338 262 L 2192.269531 262 L 2192.269531 2103 L 338 2103 Z M 338 262 " clip-rule="nonzero"/></clipPath></defs><path stroke-linecap="butt" transform="matrix(0.75, 0, 0, 0.75, 0.000116248, 0)" fill="none" stroke-linejoin="miter" d="M -0.000154997 0 L 3399.999911 0 L 3399.999911 4300.000084 L -0.000154997 4300.000084 L -0.000154997 0 " stroke="#ffffff" stroke-width="50" stroke-opacity="1" stroke-miterlimit="4"/><g clip-path="url(#a513be5632)"><path fill="#ffffff" d="M -90 2799.246094 L 2602.265625 2799.246094 L 2602.265625 3224.988281 L -90 3224.988281 Z M -90 2799.246094 " fill-opacity="1" fill-rule="nonzero"/></g><g fill="#000000" fill-opacity="1"><g transform="translate(338.4815, 3077.000899)"><g><path d="M 32.34375 -150.515625 L 32.34375 0 L 15.578125 0 L 15.578125 -150.515625 Z M 32.34375 -150.515625 "/></g></g></g><g fill="#000000" fill-opacity="1"><g transform="translate(386.192477, 3077.000899)"><g><path d="M 53.09375 -72.0625 C 51.632812 -75.125 49.769531 -77.484375 47.5 -79.140625 C 45.238281 -80.804688 42.847656 -81.640625 40.328125 -81.640625 C 37.398438 -81.640625 34.738281 -80.609375 32.34375 -78.546875 C 29.945312 -76.484375 28.75 -74.054688 28.75 -71.265625 C 28.75 -65.804688 33.972656 -61.179688 44.421875 -57.390625 C 54.867188 -53.597656 62.117188 -49.4375 66.171875 -44.90625 C 70.234375 -40.382812 72.265625 -34.734375 72.265625 -27.953125 C 72.265625 -22.753906 71.066406 -17.894531 68.671875 -13.375 C 66.273438 -8.851562 62.582031 -5.0625 57.59375 -2 C 52.601562 1.0625 46.914062 2.59375 40.53125 2.59375 C 32.8125 2.59375 26.019531 0.53125 20.15625 -3.59375 C 14.300781 -7.71875 10.046875 -13.570312 7.390625 -21.15625 L 21.5625 -27.15625 C 23.957031 -21.5625 26.648438 -17.664062 29.640625 -15.46875 C 32.640625 -13.269531 36.332031 -12.171875 40.71875 -12.171875 C 45.25 -12.171875 48.910156 -13.535156 51.703125 -16.265625 C 54.492188 -18.992188 55.890625 -22.421875 55.890625 -26.546875 C 55.890625 -30.003906 54.625 -33.03125 52.09375 -35.625 C 49.570312 -38.226562 44.945312 -40.859375 38.21875 -43.515625 C 31.5 -46.179688 26.28125 -48.84375 22.5625 -51.5 C 16.707031 -55.757812 13.710938 -61.882812 13.578125 -69.875 C 13.578125 -77.320312 16.238281 -83.609375 21.5625 -88.734375 C 26.882812 -93.859375 33.535156 -96.421875 41.515625 -96.421875 C 46.578125 -96.421875 51.4375 -94.820312 56.09375 -91.625 C 60.75 -88.4375 64.207031 -84.242188 66.46875 -79.046875 Z M 53.09375 -72.0625 "/></g></g></g><g fill="#000000" fill-opacity="1"><g transform="translate(465.843845, 3077.000899)"><g><path d="M 53.09375 -72.0625 C 51.632812 -75.125 49.769531 -77.484375 47.5 -79.140625 C 45.238281 -80.804688 42.847656 -81.640625 40.328125 -81.640625 C 37.398438 -81.640625 34.738281 -80.609375 32.34375 -78.546875 C 29.945312 -76.484375 28.75 -74.054688 28.75 -71.265625 C 28.75 -65.804688 33.972656 -61.179688 44.421875 -57.390625 C 54.867188 -53.597656 62.117188 -49.4375 66.171875 -44.90625 C 70.234375 -40.382812 72.265625 -34.734375 72.265625 -27.953125 C 72.265625 -22.753906 71.066406 -17.894531 68.671875 -13.375 C 66.273438 -8.851562 62.582031 -5.0625 57.59375 -2 C 52.601562 1.0625 46.914062 2.59375 40.53125 2.59375 C 32.8125 2.59375 26.019531 0.53125 20.15625 -3.59375 C 14.300781 -7.71875 10.046875 -13.570312 7.390625 -21.15625 L 21.5625 -27.15625 C 23.957031 -21.5625 26.648438 -17.664062 29.640625 -15.46875 C 32.640625 -13.269531 36.332031 -12.171875 40.71875 -12.171875 C 45.25 -12.171875 48.910156 -13.535156 51.703125 -16.265625 C 54.492188 -18.992188 55.890625 -22.421875 55.890625 -26.546875 C 55.890625 -30.003906 54.625 -33.03125 52.09375 -35.625 C 49.570312 -38.226562 44.945312 -40.859375 38.21875 -43.515625 C 31.5 -46.179688 26.28125 -48.84375 22.5625 -51.5 C 16.707031 -55.757812 13.710938 -61.882812 13.578125 -69.875 C 13.578125 -77.320312 16.238281 -83.609375 21.5625 -88.734375 C 26.882812 -93.859375 33.535156 -96.421875 41.515625 -96.421875 C 46.578125 -96.421875 51.4375 -94.820312 56.09375 -91.625 C 60.75 -88.4375 64.207031 -84.242188 66.46875 -79.046875 Z M 53.09375 -72.0625 "/></g></g></g><g fill="#000000" fill-opacity="1"><g transform="translate(545.495214, 3077.000899)"><g><path d="M 29.9375 -93.828125 L 29.9375 -40.125 C 29.9375 -30.28125 31.46875 -23.160156 34.53125 -18.765625 C 37.59375 -14.367188 43.117188 -12.171875 51.109375 -12.171875 C 58.953125 -12.171875 64.4375 -14.332031 67.5625 -18.65625 C 70.695312 -22.988281 72.265625 -29.878906 72.265625 -39.328125 L 72.265625 -93.828125 L 88.234375 -93.828125 L 88.234375 -38.734375 C 88.234375 -25.148438 85.140625 -14.863281 78.953125 -7.875 C 72.765625 -0.894531 63.484375 2.59375 51.109375 2.59375 C 38.722656 2.59375 29.4375 -0.929688 23.25 -7.984375 C 17.0625 -15.035156 13.96875 -25.285156 13.96875 -38.734375 L 13.96875 -93.828125 Z M 29.9375 -93.828125 "/></g></g></g><g fill="#000000" fill-opacity="1"><g transform="translate(647.704501, 3077.000899)"><g><path d="M 84.84375 -80.453125 L 84.84375 -93.828125 L 100.8125 -93.828125 L 100.8125 0 L 84.84375 0 L 84.84375 -12.96875 L 84.4375 -12.96875 C 76.1875 -2.59375 65.410156 2.59375 52.109375 2.59375 C 39.054688 2.59375 28.304688 -2.195312 19.859375 -11.78125 C 11.410156 -21.363281 7.1875 -33.007812 7.1875 -46.71875 C 7.1875 -61.082031 11.441406 -72.957031 19.953125 -82.34375 C 28.472656 -91.726562 39.253906 -96.421875 52.296875 -96.421875 C 58.816406 -96.421875 64.835938 -95.019531 70.359375 -92.21875 C 75.890625 -89.425781 80.582031 -85.503906 84.4375 -80.453125 Z M 54.09375 -81.640625 C 45.582031 -81.640625 38.363281 -78.378906 32.4375 -71.859375 C 26.519531 -65.335938 23.5625 -57.351562 23.5625 -47.90625 C 23.5625 -37.789062 26.453125 -29.304688 32.234375 -22.453125 C 38.023438 -15.597656 45.378906 -12.171875 54.296875 -12.171875 C 63.742188 -12.171875 71.328125 -15.429688 77.046875 -21.953125 C 82.773438 -28.472656 85.640625 -37.054688 85.640625 -47.703125 C 85.640625 -57.421875 82.710938 -65.503906 76.859375 -71.953125 C 71.003906 -78.410156 63.414062 -81.640625 54.09375 -81.640625 Z M 54.09375 -81.640625 "/></g></g></g><g fill="#000000" fill-opacity="1"><g transform="translate(762.889561, 3077.000899)"><g><path d="M 90.234375 0 L 74.265625 0 L 74.265625 -54.703125 C 74.265625 -64.148438 72.832031 -71 69.96875 -75.25 C 67.101562 -79.507812 61.945312 -81.640625 54.5 -81.640625 C 45.976562 -81.640625 39.953125 -78.710938 36.421875 -72.859375 C 32.898438 -67.003906 31.140625 -58.085938 31.140625 -46.109375 L 31.140625 0 L 15.171875 0 L 15.171875 -93.828125 L 31.140625 -93.828125 L 31.140625 -82.4375 L 31.546875 -82.4375 C 34.867188 -86.96875 38.691406 -90.429688 43.015625 -92.828125 C 47.335938 -95.222656 52.429688 -96.421875 58.296875 -96.421875 C 68.804688 -96.421875 76.753906 -93.191406 82.140625 -86.734375 C 87.535156 -80.285156 90.234375 -70.269531 90.234375 -56.6875 Z M 90.234375 0 "/></g></g></g><g fill="#000000" fill-opacity="1"><g transform="translate(868.292884, 3077.000899)"><g><path d="M 84.84375 -65.875 L 84.4375 -65.875 C 80.976562 -70.53125 76.753906 -74.320312 71.765625 -77.25 C 66.773438 -80.175781 61.285156 -81.640625 55.296875 -81.640625 C 45.984375 -81.640625 38.128906 -78.242188 31.734375 -71.453125 C 25.347656 -64.671875 22.15625 -56.488281 22.15625 -46.90625 C 22.15625 -37.320312 25.21875 -29.132812 31.34375 -22.34375 C 37.46875 -15.5625 45.1875 -12.171875 54.5 -12.171875 C 61.28125 -12.171875 67.097656 -13.601562 71.953125 -16.46875 C 76.816406 -19.332031 81.179688 -23.289062 85.046875 -28.34375 L 85.4375 -28.34375 L 85.4375 -6.984375 C 81.050781 -3.921875 76.394531 -1.5625 71.46875 0.09375 C 66.539062 1.757812 61.285156 2.59375 55.703125 2.59375 C 46.785156 2.59375 38.429688 0.460938 30.640625 -3.796875 C 22.859375 -8.054688 16.769531 -14.007812 12.375 -21.65625 C 7.988281 -29.3125 5.796875 -37.726562 5.796875 -46.90625 C 5.796875 -55.5625 7.957031 -63.710938 12.28125 -71.359375 C 16.601562 -79.015625 22.691406 -85.101562 30.546875 -89.625 C 38.398438 -94.15625 46.847656 -96.421875 55.890625 -96.421875 C 60.679688 -96.421875 65.375 -95.753906 69.96875 -94.421875 C 74.5625 -93.085938 79.519531 -90.625 84.84375 -87.03125 Z M 84.84375 -65.875 "/></g></g></g><g fill="#000000" fill-opacity="1"><g transform="translate(963.315572, 3077.000899)"><g><path d="M 96.8125 -43.515625 L 23.15625 -43.515625 C 23.425781 -34.203125 26.488281 -26.648438 32.34375 -20.859375 C 38.195312 -15.066406 45.382812 -12.171875 53.90625 -12.171875 C 59.882812 -12.171875 65.171875 -13.703125 69.765625 -16.765625 C 74.359375 -19.828125 78.582031 -24.753906 82.4375 -31.546875 L 96.015625 -23.75 C 91.492188 -15.363281 85.539062 -8.875 78.15625 -4.28125 C 70.769531 0.300781 62.285156 2.59375 52.703125 2.59375 C 43.515625 2.59375 35.394531 0.398438 28.34375 -3.984375 C 21.289062 -8.378906 15.929688 -14.269531 12.265625 -21.65625 C 8.609375 -29.039062 6.78125 -37.0625 6.78125 -45.71875 C 6.78125 -55.300781 8.609375 -63.953125 12.265625 -71.671875 C 15.929688 -79.390625 21.222656 -85.441406 28.140625 -89.828125 C 35.066406 -94.222656 43.117188 -96.421875 52.296875 -96.421875 C 61.210938 -96.421875 69.097656 -94.253906 75.953125 -89.921875 C 82.804688 -85.597656 88.03125 -79.644531 91.625 -72.0625 C 95.21875 -64.476562 97.015625 -55.960938 97.015625 -46.515625 C 97.015625 -45.578125 96.945312 -44.578125 96.8125 -43.515625 Z M 80.046875 -57.09375 C 78.710938 -64.414062 75.453125 -70.335938 70.265625 -74.859375 C 65.078125 -79.378906 59.15625 -81.640625 52.5 -81.640625 C 45.976562 -81.640625 39.851562 -79.273438 34.125 -74.546875 C 28.40625 -69.828125 25.015625 -64.007812 23.953125 -57.09375 Z M 80.046875 -57.09375 "/></g></g></g><g fill="#000000" fill-opacity="1"><g transform="translate(1128.407522, 3077.000899)"><g><path d="M 6.78125 -46.71875 C 6.78125 -55.632812 8.976562 -63.953125 13.375 -71.671875 C 17.769531 -79.390625 23.757812 -85.441406 31.34375 -89.828125 C 38.925781 -94.222656 47.175781 -96.421875 56.09375 -96.421875 C 65.007812 -96.421875 73.226562 -94.222656 80.75 -89.828125 C 88.269531 -85.441406 94.257812 -79.421875 98.71875 -71.765625 C 103.175781 -64.109375 105.40625 -55.757812 105.40625 -46.71875 C 105.40625 -37.800781 103.207031 -29.515625 98.8125 -21.859375 C 94.425781 -14.203125 88.4375 -8.210938 80.84375 -3.890625 C 73.257812 0.429688 65.007812 2.59375 56.09375 2.59375 C 47.175781 2.59375 38.890625 0.398438 31.234375 -3.984375 C 23.585938 -8.378906 17.597656 -14.398438 13.265625 -22.046875 C 8.941406 -29.703125 6.78125 -37.925781 6.78125 -46.71875 Z M 55.890625 -81.640625 C 46.441406 -81.640625 38.554688 -78.28125 32.234375 -71.5625 C 25.910156 -64.84375 22.75 -56.625 22.75 -46.90625 C 22.75 -39.71875 24.476562 -33.363281 27.9375 -27.84375 C 31.40625 -22.320312 35.632812 -18.328125 40.625 -15.859375 C 45.613281 -13.398438 50.769531 -12.171875 56.09375 -12.171875 C 62.21875 -12.171875 67.804688 -13.601562 72.859375 -16.46875 C 77.921875 -19.332031 81.945312 -23.457031 84.9375 -28.84375 C 87.9375 -34.238281 89.4375 -40.257812 89.4375 -46.90625 C 89.4375 -53.03125 88.070312 -58.753906 85.34375 -64.078125 C 82.613281 -69.398438 78.648438 -73.65625 73.453125 -76.84375 C 68.265625 -80.039062 62.410156 -81.640625 55.890625 -81.640625 Z M 55.890625 -81.640625 "/></g></g></g><g fill="#000000" fill-opacity="1"><g transform="translate(1240.598179, 3077.000899)"><g><path d="M 56.296875 -149.125 C 54.160156 -149.789062 52.328125 -150.320312 50.796875 -150.71875 C 49.273438 -151.113281 47.515625 -151.3125 45.515625 -151.3125 C 40.722656 -151.3125 37.359375 -149.914062 35.421875 -147.125 C 33.492188 -144.332031 32.53125 -139.140625 32.53125 -131.546875 L 32.53125 -93.828125 L 56.296875 -93.828125 L 56.296875 -79.046875 L 32.53125 -79.046875 L 32.53125 0 L 16.5625 0 L 16.5625 -79.046875 L 7.78125 -79.046875 L 7.78125 -93.828125 L 16.5625 -93.828125 L 16.5625 -135.546875 C 16.5625 -142.734375 17.523438 -148.519531 19.453125 -152.90625 C 21.390625 -157.300781 24.550781 -160.765625 28.9375 -163.296875 C 33.332031 -165.828125 38.660156 -167.15625 44.921875 -167.28125 C 46.910156 -167.28125 48.9375 -167.082031 51 -166.6875 C 53.0625 -166.289062 54.828125 -165.828125 56.296875 -165.296875 Z M 56.296875 -149.125 "/></g></g></g><g fill="#000000" fill-opacity="1"><g transform="translate(1356.781399, 3077.000899)"><g><path d="M 84.84375 -65.875 L 84.4375 -65.875 C 80.976562 -70.53125 76.753906 -74.320312 71.765625 -77.25 C 66.773438 -80.175781 61.285156 -81.640625 55.296875 -81.640625 C 45.984375 -81.640625 38.128906 -78.242188 31.734375 -71.453125 C 25.347656 -64.671875 22.15625 -56.488281 22.15625 -46.90625 C 22.15625 -37.320312 25.21875 -29.132812 31.34375 -22.34375 C 37.46875 -15.5625 45.1875 -12.171875 54.5 -12.171875 C 61.28125 -12.171875 67.097656 -13.601562 71.953125 -16.46875 C 76.816406 -19.332031 81.179688 -23.289062 85.046875 -28.34375 L 85.4375 -28.34375 L 85.4375 -6.984375 C 81.050781 -3.921875 76.394531 -1.5625 71.46875 0.09375 C 66.539062 1.757812 61.285156 2.59375 55.703125 2.59375 C 46.785156 2.59375 38.429688 0.460938 30.640625 -3.796875 C 22.859375 -8.054688 16.769531 -14.007812 12.375 -21.65625 C 7.988281 -29.3125 5.796875 -37.726562 5.796875 -46.90625 C 5.796875 -55.5625 7.957031 -63.710938 12.28125 -71.359375 C 16.601562 -79.015625 22.691406 -85.101562 30.546875 -89.625 C 38.398438 -94.15625 46.847656 -96.421875 55.890625 -96.421875 C 60.679688 -96.421875 65.375 -95.753906 69.96875 -94.421875 C 74.5625 -93.085938 79.519531 -90.625 84.84375 -87.03125 Z M 84.84375 -65.875 "/></g></g></g><g fill="#000000" fill-opacity="1"><g transform="translate(1451.804087, 3077.000899)"><g><path d="M 96.8125 -43.515625 L 23.15625 -43.515625 C 23.425781 -34.203125 26.488281 -26.648438 32.34375 -20.859375 C 38.195312 -15.066406 45.382812 -12.171875 53.90625 -12.171875 C 59.882812 -12.171875 65.171875 -13.703125 69.765625 -16.765625 C 74.359375 -19.828125 78.582031 -24.753906 82.4375 -31.546875 L 96.015625 -23.75 C 91.492188 -15.363281 85.539062 -8.875 78.15625 -4.28125 C 70.769531 0.300781 62.285156 2.59375 52.703125 2.59375 C 43.515625 2.59375 35.394531 0.398438 28.34375 -3.984375 C 21.289062 -8.378906 15.929688 -14.269531 12.265625 -21.65625 C 8.609375 -29.039062 6.78125 -37.0625 6.78125 -45.71875 C 6.78125 -55.300781 8.609375 -63.953125 12.265625 -71.671875 C 15.929688 -79.390625 21.222656 -85.441406 28.140625 -89.828125 C 35.066406 -94.222656 43.117188 -96.421875 52.296875 -96.421875 C 61.210938 -96.421875 69.097656 -94.253906 75.953125 -89.921875 C 82.804688 -85.597656 88.03125 -79.644531 91.625 -72.0625 C 95.21875 -64.476562 97.015625 -55.960938 97.015625 -46.515625 C 97.015625 -45.578125 96.945312 -44.578125 96.8125 -43.515625 Z M 80.046875 -57.09375 C 78.710938 -64.414062 75.453125 -70.335938 70.265625 -74.859375 C 65.078125 -79.378906 59.15625 -81.640625 52.5 -81.640625 C 45.976562 -81.640625 39.851562 -79.273438 34.125 -74.546875 C 28.40625 -69.828125 25.015625 -64.007812 23.953125 -57.09375 Z M 80.046875 -57.09375 "/></g></g></g><g fill="#000000" fill-opacity="1"><g transform="translate(1555.410759, 3077.000899)"><g><path d="M 58.296875 -77.453125 C 56.691406 -78.648438 55.191406 -79.644531 53.796875 -80.4375 C 52.398438 -81.238281 50.703125 -81.640625 48.703125 -81.640625 C 42.710938 -81.640625 38.15625 -78.976562 35.03125 -73.65625 C 31.90625 -68.332031 30.34375 -59.75 30.34375 -47.90625 L 30.34375 0 L 14.375 0 L 14.375 -93.828125 L 30.34375 -93.828125 L 30.34375 -83.640625 L 30.75 -83.640625 C 34.601562 -88.828125 38.023438 -92.253906 41.015625 -93.921875 C 44.015625 -95.585938 47.507812 -96.421875 51.5 -96.421875 C 53.894531 -96.421875 56.320312 -96.019531 58.78125 -95.21875 C 61.25 -94.414062 63.613281 -93.351562 65.875 -92.03125 Z M 58.296875 -77.453125 "/></g></g></g><g fill="#000000" fill-opacity="1"><g transform="translate(1622.28591, 3077.000899)"><g><path d="M 31.9375 -127.5625 L 31.9375 -93.828125 L 48.703125 -93.828125 L 48.703125 -79.046875 L 31.9375 -79.046875 L 31.9375 0 L 15.96875 0 L 15.96875 -79.046875 L 6.1875 -79.046875 L 6.1875 -93.828125 L 15.96875 -93.828125 L 15.96875 -127.5625 Z M 31.9375 -127.5625 "/></g></g></g><g fill="#000000" fill-opacity="1"><g transform="translate(1670.196517, 3077.000899)"><g><path d="M 34.140625 -93.828125 L 34.140625 0 L 18.171875 0 L 18.171875 -93.828125 Z M 14.765625 -129.5625 C 14.765625 -132.488281 15.929688 -135.046875 18.265625 -137.234375 C 20.597656 -139.429688 23.226562 -140.53125 26.15625 -140.53125 C 29.21875 -140.53125 31.878906 -139.429688 34.140625 -137.234375 C 36.398438 -135.046875 37.53125 -132.488281 37.53125 -129.5625 C 37.53125 -126.09375 36.398438 -123.257812 34.140625 -121.0625 C 31.878906 -118.875 29.21875 -117.78125 26.15625 -117.78125 C 23.09375 -117.78125 20.425781 -118.84375 18.15625 -120.96875 C 15.894531 -123.101562 14.765625 -125.96875 14.765625 -129.5625 Z M 14.765625 -129.5625 "/></g></g></g><g fill="#000000" fill-opacity="1"><g transform="translate(1722.498953, 3077.000899)"><g><path d="M 56.296875 -149.125 C 54.160156 -149.789062 52.328125 -150.320312 50.796875 -150.71875 C 49.273438 -151.113281 47.515625 -151.3125 45.515625 -151.3125 C 40.722656 -151.3125 37.359375 -149.914062 35.421875 -147.125 C 33.492188 -144.332031 32.53125 -139.140625 32.53125 -131.546875 L 32.53125 -93.828125 L 56.296875 -93.828125 L 56.296875 -79.046875 L 32.53125 -79.046875 L 32.53125 0 L 16.5625 0 L 16.5625 -79.046875 L 7.78125 -79.046875 L 7.78125 -93.828125 L 16.5625 -93.828125 L 16.5625 -135.546875 C 16.5625 -142.734375 17.523438 -148.519531 19.453125 -152.90625 C 21.390625 -157.300781 24.550781 -160.765625 28.9375 -163.296875 C 33.332031 -165.828125 38.660156 -167.15625 44.921875 -167.28125 C 46.910156 -167.28125 48.9375 -167.082031 51 -166.6875 C 53.0625 -166.289062 54.828125 -165.828125 56.296875 -165.296875 Z M 56.296875 -149.125 "/></g></g></g><g fill="#000000" fill-opacity="1"><g transform="translate(1777.196972, 3077.000899)"><g><path d="M 34.140625 -93.828125 L 34.140625 0 L 18.171875 0 L 18.171875 -93.828125 Z M 14.765625 -129.5625 C 14.765625 -132.488281 15.929688 -135.046875 18.265625 -137.234375 C 20.597656 -139.429688 23.226562 -140.53125 26.15625 -140.53125 C 29.21875 -140.53125 31.878906 -139.429688 34.140625 -137.234375 C 36.398438 -135.046875 37.53125 -132.488281 37.53125 -129.5625 C 37.53125 -126.09375 36.398438 -123.257812 34.140625 -121.0625 C 31.878906 -118.875 29.21875 -117.78125 26.15625 -117.78125 C 23.09375 -117.78125 20.425781 -118.84375 18.15625 -120.96875 C 15.894531 -123.101562 14.765625 -125.96875 14.765625 -129.5625 Z M 14.765625 -129.5625 "/></g></g></g><g fill="#000000" fill-opacity="1"><g transform="translate(1829.499407, 3077.000899)"><g><path d="M 84.84375 -65.875 L 84.4375 -65.875 C 80.976562 -70.53125 76.753906 -74.320312 71.765625 -77.25 C 66.773438 -80.175781 61.285156 -81.640625 55.296875 -81.640625 C 45.984375 -81.640625 38.128906 -78.242188 31.734375 -71.453125 C 25.347656 -64.671875 22.15625 -56.488281 22.15625 -46.90625 C 22.15625 -37.320312 25.21875 -29.132812 31.34375 -22.34375 C 37.46875 -15.5625 45.1875 -12.171875 54.5 -12.171875 C 61.28125 -12.171875 67.097656 -13.601562 71.953125 -16.46875 C 76.816406 -19.332031 81.179688 -23.289062 85.046875 -28.34375 L 85.4375 -28.34375 L 85.4375 -6.984375 C 81.050781 -3.921875 76.394531 -1.5625 71.46875 0.09375 C 66.539062 1.757812 61.285156 2.59375 55.703125 2.59375 C 46.785156 2.59375 38.429688 0.460938 30.640625 -3.796875 C 22.859375 -8.054688 16.769531 -14.007812 12.375 -21.65625 C 7.988281 -29.3125 5.796875 -37.726562 5.796875 -46.90625 C 5.796875 -55.5625 7.957031 -63.710938 12.28125 -71.359375 C 16.601562 -79.015625 22.691406 -85.101562 30.546875 -89.625 C 38.398438 -94.15625 46.847656 -96.421875 55.890625 -96.421875 C 60.679688 -96.421875 65.375 -95.753906 69.96875 -94.421875 C 74.5625 -93.085938 79.519531 -90.625 84.84375 -87.03125 Z M 84.84375 -65.875 "/></g></g></g><g fill="#000000" fill-opacity="1"><g transform="translate(1924.522095, 3077.000899)"><g><path d="M 84.84375 -80.453125 L 84.84375 -93.828125 L 100.8125 -93.828125 L 100.8125 0 L 84.84375 0 L 84.84375 -12.96875 L 84.4375 -12.96875 C 76.1875 -2.59375 65.410156 2.59375 52.109375 2.59375 C 39.054688 2.59375 28.304688 -2.195312 19.859375 -11.78125 C 11.410156 -21.363281 7.1875 -33.007812 7.1875 -46.71875 C 7.1875 -61.082031 11.441406 -72.957031 19.953125 -82.34375 C 28.472656 -91.726562 39.253906 -96.421875 52.296875 -96.421875 C 58.816406 -96.421875 64.835938 -95.019531 70.359375 -92.21875 C 75.890625 -89.425781 80.582031 -85.503906 84.4375 -80.453125 Z M 54.09375 -81.640625 C 45.582031 -81.640625 38.363281 -78.378906 32.4375 -71.859375 C 26.519531 -65.335938 23.5625 -57.351562 23.5625 -47.90625 C 23.5625 -37.789062 26.453125 -29.304688 32.234375 -22.453125 C 38.023438 -15.597656 45.378906 -12.171875 54.296875 -12.171875 C 63.742188 -12.171875 71.328125 -15.429688 77.046875 -21.953125 C 82.773438 -28.472656 85.640625 -37.054688 85.640625 -47.703125 C 85.640625 -57.421875 82.710938 -65.503906 76.859375 -71.953125 C 71.003906 -78.410156 63.414062 -81.640625 54.09375 -81.640625 Z M 54.09375 -81.640625 "/></g></g></g><g fill="#000000" fill-opacity="1"><g transform="translate(2039.707193, 3077.000899)"><g><path d="M 31.9375 -127.5625 L 31.9375 -93.828125 L 48.703125 -93.828125 L 48.703125 -79.046875 L 31.9375 -79.046875 L 31.9375 0 L 15.96875 0 L 15.96875 -79.046875 L 6.1875 -79.046875 L 6.1875 -93.828125 L 15.96875 -93.828125 L 15.96875 -127.5625 Z M 31.9375 -127.5625 "/></g></g></g><g fill="#000000" fill-opacity="1"><g transform="translate(2087.6178, 3077.000899)"><g><path d="M 96.8125 -43.515625 L 23.15625 -43.515625 C 23.425781 -34.203125 26.488281 -26.648438 32.34375 -20.859375 C 38.195312 -15.066406 45.382812 -12.171875 53.90625 -12.171875 C 59.882812 -12.171875 65.171875 -13.703125 69.765625 -16.765625 C 74.359375 -19.828125 78.582031 -24.753906 82.4375 -31.546875 L 96.015625 -23.75 C 91.492188 -15.363281 85.539062 -8.875 78.15625 -4.28125 C 70.769531 0.300781 62.285156 2.59375 52.703125 2.59375 C 43.515625 2.59375 35.394531 0.398438 28.34375 -3.984375 C 21.289062 -8.378906 15.929688 -14.269531 12.265625 -21.65625 C 8.609375 -29.039062 6.78125 -37.0625 6.78125 -45.71875 C 6.78125 -55.300781 8.609375 -63.953125 12.265625 -71.671875 C 15.929688 -79.390625 21.222656 -85.441406 28.140625 -89.828125 C 35.066406 -94.222656 43.117188 -96.421875 52.296875 -96.421875 C 61.210938 -96.421875 69.097656 -94.253906 75.953125 -89.921875 C 82.804688 -85.597656 88.03125 -79.644531 91.625 -72.0625 C 95.21875 -64.476562 97.015625 -55.960938 97.015625 -46.515625 C 97.015625 -45.578125 96.945312 -44.578125 96.8125 -43.515625 Z M 80.046875 -57.09375 C 78.710938 -64.414062 75.453125 -70.335938 70.265625 -74.859375 C 65.078125 -79.378906 59.15625 -81.640625 52.5 -81.640625 C 45.976562 -81.640625 39.851562 -79.273438 34.125 -74.546875 C 28.40625 -69.828125 25.015625 -64.007812 23.953125 -57.09375 Z M 80.046875 -57.09375 "/></g></g></g><g clip-path="url(#26f4f9ded7)"><path fill="#ffffff" d="M 2171.53125 495.195312 L 1959.152344 282.820312 C 1945.878906 269.546875 1927.871094 262.078125 1909.101562 262.078125 L 776.429688 262.078125 C 737.335938 262.078125 705.636719 293.777344 705.636719 332.871094 L 705.636719 615.171875 C 675.300781 625.617188 646.476562 642.035156 620.949219 665.433594 C 561.945312 667.992188 509.230469 689.527344 469.929688 727.652344 C 429.003906 767.335938 405.359375 822.574219 401.695312 885.589844 C 359.730469 932.667969 337.402344 988.457031 338.265625 1045.421875 C 339.09375 1100.175781 361.148438 1152.714844 401.074219 1196.269531 C 403.632812 1255.277344 425.164062 1307.988281 463.292969 1347.292969 C 472.421875 1356.710938 482.578125 1364.972656 493.261719 1372.523438 L 493.261719 1819.503906 C 493.261719 1845.601562 507.640625 1869.589844 530.664062 1881.929688 C 553.546875 1894.199219 581.511719 1892.886719 603.320312 1878.40625 L 705.636719 1810.1875 L 705.636719 2031.878906 C 705.636719 2070.972656 737.335938 2102.671875 776.429688 2102.671875 L 2121.476562 2102.671875 C 2160.574219 2102.671875 2192.269531 2070.972656 2192.269531 2031.878906 L 2192.269531 545.246094 C 2192.269531 526.476562 2184.804688 508.46875 2171.53125 495.195312 Z M 1909.101562 432.976562 L 2021.375 545.246094 L 1909.101562 545.246094 Z M 564.917969 1248.707031 C 543.417969 1226.550781 541.066406 1194.992188 542.863281 1172.417969 C 544.699219 1149.742188 535.535156 1127.585938 518.21875 1112.863281 C 500.972656 1098.171875 480.300781 1074.179688 479.851562 1043.3125 C 479.472656 1017.597656 493.261719 991.324219 519.808594 967.335938 C 535.574219 953.097656 544.074219 932.527344 543.003906 911.304688 C 541.242188 875.5625 550.054688 847.183594 568.515625 829.28125 C 590.707031 807.8125 622.332031 805.703125 644.800781 807.226562 C 668.101562 809.542969 689.632812 799.898438 704.359375 782.582031 C 719.050781 765.332031 743.039062 744.660156 773.90625 744.210938 C 799.523438 742.621094 825.859375 757.625 849.882812 784.171875 C 864.125 799.898438 884.519531 808.609375 905.917969 807.363281 C 941.519531 805.742188 970.035156 814.382812 987.941406 832.875 C 1009.441406 855.03125 1011.792969 886.589844 1009.996094 909.164062 C 1008.164062 931.839844 1017.324219 953.996094 1034.640625 968.722656 C 1051.890625 983.410156 1072.558594 1007.402344 1073.007812 1038.269531 C 1073.390625 1063.984375 1059.597656 1090.257812 1033.050781 1114.246094 C 1017.289062 1128.488281 1008.785156 1149.054688 1009.855469 1170.277344 C 1011.621094 1206.019531 1002.804688 1234.398438 984.347656 1252.304688 C 962.222656 1273.839844 930.699219 1276.050781 908.058594 1274.355469 C 885.210938 1272.523438 863.261719 1281.71875 848.5 1299 C 833.808594 1316.25 809.820312 1336.921875 778.953125 1337.371094 C 753.234375 1336.714844 726.964844 1323.925781 702.976562 1297.410156 C 688.921875 1281.875 667.910156 1272.988281 646.945312 1274.21875 C 611.167969 1275.703125 582.824219 1267.167969 564.917969 1248.707031 Z M 737.164062 1619.019531 L 634.847656 1687.21875 L 634.847656 1425.8125 C 676.925781 1458.945312 727.210938 1478.953125 781.0625 1478.953125 C 830.257812 1478.207031 877.304688 1459.503906 918.015625 1426.914062 L 918.015625 1687.214844 L 815.699219 1619.015625 C 791.917969 1603.1875 760.945312 1603.1875 737.164062 1619.015625 Z M 2050.6875 1961.085938 L 847.222656 1961.085938 L 847.222656 1810.1875 L 949.539062 1878.402344 C 971.054688 1892.769531 999.457031 1894.128906 1022.195312 1881.929688 C 1045.21875 1869.589844 1059.597656 1845.601562 1059.597656 1819.503906 L 1059.597656 1372.550781 C 1067.644531 1366.699219 1075.742188 1360.90625 1082.929688 1353.925781 C 1123.855469 1314.246094 1147.5 1259.007812 1151.164062 1195.992188 C 1193.128906 1148.914062 1215.457031 1093.125 1214.59375 1036.15625 C 1213.765625 981.40625 1191.710938 928.863281 1151.785156 885.308594 C 1149.230469 826.304688 1127.695312 773.59375 1089.566406 734.289062 C 1049.882812 693.363281 994.648438 669.71875 931.632812 666.054688 C 905.957031 643.167969 877.0625 627.289062 847.222656 616.886719 L 847.222656 403.664062 L 1767.519531 403.664062 L 1767.519531 616.039062 C 1767.519531 655.132812 1799.214844 686.832031 1838.308594 686.832031 L 2050.6875 686.832031 Z M 1838.308594 828.414062 C 1929.5625 828.414062 1929.410156 970 1838.308594 970 L 1413.558594 970 C 1322.308594 970 1322.457031 828.414062 1413.558594 828.414062 Z M 1838.308594 1323.957031 L 1413.558594 1323.957031 C 1322.308594 1323.957031 1322.457031 1182.375 1413.558594 1182.375 L 1838.308594 1182.375 C 1929.5625 1182.375 1929.410156 1323.957031 1838.308594 1323.957031 Z M 1838.308594 1677.917969 L 1413.558594 1677.917969 C 1322.308594 1677.917969 1322.457031 1536.335938 1413.558594 1536.335938 L 1838.308594 1536.335938 C 1929.5625 1536.335938 1929.410156 1677.917969 1838.308594 1677.917969 Z M 1838.308594 1677.917969 " fill-opacity="1" fill-rule="nonzero"/></g></svg>