<svg xmlns="http://www.w3.org/2000/svg" xmlns:xlink="http://www.w3.org/1999/xlink" width="3400" zoomAndPan="magnify" viewBox="0 0 2550 3224.999865" height="4300" preserveAspectRatio="xMidYMid meet" version="1.0"><defs><g/><clipPath id="f5fa25abcc"><path d="M 0 2799.246094 L 2550 2799.246094 L 2550 3225 L 0 3225 Z M 0 2799.246094 " clip-rule="nonzero"/></clipPath><clipPath id="795dd2b96d"><path d="M 477.800781 255 L 2045.300781 255 L 2045.300781 2289.75 L 477.800781 2289.75 Z M 477.800781 255 " clip-rule="nonzero"/></clipPath></defs><path stroke-linecap="butt" transform="matrix(0.75, 0, 0, 0.75, 0.000116248, 0.00046875)" fill="none" stroke-linejoin="miter" d="M -0.000154997 -0.000625 L 3399.999911 -0.000625 L 3399.999911 4299.999459 L -0.000154997 4299.999459 L -0.000154997 -0.000625 " stroke="#ffffff" stroke-width="50" stroke-opacity="1" stroke-miterlimit="4"/><g clip-path="url(#f5fa25abcc)"><path fill="#ffffff" d="M -90 2799.246094 L 2602.265625 2799.246094 L 2602.265625 3224.988281 L -90 3224.988281 Z M -90 2799.246094 " fill-opacity="1" fill-rule="nonzero"/></g><g fill="#000000" fill-opacity="1"><g transform="translate(617.49269, 3077.001139)"><g><path d="M 46.90625 -150.515625 C 60.75 -150.515625 72.660156 -148.414062 82.640625 -144.21875 C 92.617188 -140.03125 100.9375 -134.375 107.59375 -127.25 C 114.25 -120.132812 119.171875 -112.117188 122.359375 -103.203125 C 125.554688 -94.285156 127.15625 -84.769531 127.15625 -74.65625 C 127.15625 -61.75 124.191406 -49.738281 118.265625 -38.625 C 112.347656 -27.507812 103.597656 -18.289062 92.015625 -10.96875 C 80.441406 -3.65625 65.34375 0 46.71875 0 L 15.171875 0 L 15.171875 -150.515625 Z M 47.90625 -15.578125 C 57.09375 -15.578125 65.410156 -16.9375 72.859375 -19.65625 C 80.316406 -22.382812 86.90625 -26.476562 92.625 -31.9375 C 98.34375 -37.394531 102.734375 -43.914062 105.796875 -51.5 C 108.859375 -59.082031 110.390625 -67.003906 110.390625 -75.265625 C 110.390625 -86.171875 107.957031 -96.046875 103.09375 -104.890625 C 98.238281 -113.742188 91.320312 -120.96875 82.34375 -126.5625 C 73.363281 -132.15625 61.285156 -134.953125 46.109375 -134.953125 L 31.9375 -134.953125 L 31.9375 -15.578125 Z M 47.90625 -15.578125 "/></g></g></g><g fill="#000000" fill-opacity="1"><g transform="translate(752.840142, 3077.001139)"><g><path d="M 6.78125 -46.71875 C 6.78125 -55.632812 8.976562 -63.953125 13.375 -71.671875 C 17.769531 -79.390625 23.757812 -85.441406 31.34375 -89.828125 C 38.925781 -94.222656 47.175781 -96.421875 56.09375 -96.421875 C 65.007812 -96.421875 73.226562 -94.222656 80.75 -89.828125 C 88.269531 -85.441406 94.257812 -79.421875 98.71875 -71.765625 C 103.175781 -64.109375 105.40625 -55.757812 105.40625 -46.71875 C 105.40625 -37.800781 103.207031 -29.515625 98.8125 -21.859375 C 94.425781 -14.203125 88.4375 -8.210938 80.84375 -3.890625 C 73.257812 0.429688 65.007812 2.59375 56.09375 2.59375 C 47.175781 2.59375 38.890625 0.398438 31.234375 -3.984375 C 23.585938 -8.378906 17.597656 -14.398438 13.265625 -22.046875 C 8.941406 -29.703125 6.78125 -37.925781 6.78125 -46.71875 Z M 55.890625 -81.640625 C 46.441406 -81.640625 38.554688 -78.28125 32.234375 -71.5625 C 25.910156 -64.84375 22.75 -56.625 22.75 -46.90625 C 22.75 -39.71875 24.476562 -33.363281 27.9375 -27.84375 C 31.40625 -22.320312 35.632812 -18.328125 40.625 -15.859375 C 45.613281 -13.398438 50.769531 -12.171875 56.09375 -12.171875 C 62.21875 -12.171875 67.804688 -13.601562 72.859375 -16.46875 C 77.921875 -19.332031 81.945312 -23.457031 84.9375 -28.84375 C 87.9375 -34.238281 89.4375 -40.257812 89.4375 -46.90625 C 89.4375 -53.03125 88.070312 -58.753906 85.34375 -64.078125 C 82.613281 -69.398438 78.648438 -73.65625 73.453125 -76.84375 C 68.265625 -80.039062 62.410156 -81.640625 55.890625 -81.640625 Z M 55.890625 -81.640625 "/></g></g></g><g fill="#000000" fill-opacity="1"><g transform="translate(865.030799, 3077.001139)"><g><path d="M 84.84375 -65.875 L 84.4375 -65.875 C 80.976562 -70.53125 76.753906 -74.320312 71.765625 -77.25 C 66.773438 -80.175781 61.285156 -81.640625 55.296875 -81.640625 C 45.984375 -81.640625 38.128906 -78.242188 31.734375 -71.453125 C 25.347656 -64.671875 22.15625 -56.488281 22.15625 -46.90625 C 22.15625 -37.320312 25.21875 -29.132812 31.34375 -22.34375 C 37.46875 -15.5625 45.1875 -12.171875 54.5 -12.171875 C 61.28125 -12.171875 67.097656 -13.601562 71.953125 -16.46875 C 76.816406 -19.332031 81.179688 -23.289062 85.046875 -28.34375 L 85.4375 -28.34375 L 85.4375 -6.984375 C 81.050781 -3.921875 76.394531 -1.5625 71.46875 0.09375 C 66.539062 1.757812 61.285156 2.59375 55.703125 2.59375 C 46.785156 2.59375 38.429688 0.460938 30.640625 -3.796875 C 22.859375 -8.054688 16.769531 -14.007812 12.375 -21.65625 C 7.988281 -29.3125 5.796875 -37.726562 5.796875 -46.90625 C 5.796875 -55.5625 7.957031 -63.710938 12.28125 -71.359375 C 16.601562 -79.015625 22.691406 -85.101562 30.546875 -89.625 C 38.398438 -94.15625 46.847656 -96.421875 55.890625 -96.421875 C 60.679688 -96.421875 65.375 -95.753906 69.96875 -94.421875 C 74.5625 -93.085938 79.519531 -90.625 84.84375 -87.03125 Z M 84.84375 -65.875 "/></g></g></g><g fill="#000000" fill-opacity="1"><g transform="translate(960.053468, 3077.001139)"><g><path d="M 29.9375 -93.828125 L 29.9375 -40.125 C 29.9375 -30.28125 31.46875 -23.160156 34.53125 -18.765625 C 37.59375 -14.367188 43.117188 -12.171875 51.109375 -12.171875 C 58.953125 -12.171875 64.4375 -14.332031 67.5625 -18.65625 C 70.695312 -22.988281 72.265625 -29.878906 72.265625 -39.328125 L 72.265625 -93.828125 L 88.234375 -93.828125 L 88.234375 -38.734375 C 88.234375 -25.148438 85.140625 -14.863281 78.953125 -7.875 C 72.765625 -0.894531 63.484375 2.59375 51.109375 2.59375 C 38.722656 2.59375 29.4375 -0.929688 23.25 -7.984375 C 17.0625 -15.035156 13.96875 -25.285156 13.96875 -38.734375 L 13.96875 -93.828125 Z M 29.9375 -93.828125 "/></g></g></g><g fill="#000000" fill-opacity="1"><g transform="translate(1062.262755, 3077.001139)"><g><path d="M 80.046875 -80.84375 C 82.835938 -85.769531 86.726562 -89.597656 91.71875 -92.328125 C 96.71875 -95.054688 102.210938 -96.421875 108.203125 -96.421875 C 118.046875 -96.421875 125.492188 -93.09375 130.546875 -86.4375 C 135.609375 -79.78125 138.140625 -70.332031 138.140625 -58.09375 L 138.140625 0 L 122.171875 0 L 122.171875 -55.703125 C 122.171875 -65.148438 120.769531 -71.832031 117.96875 -75.75 C 115.175781 -79.675781 110.851562 -81.640625 105 -81.640625 C 98.082031 -81.640625 92.957031 -79.109375 89.625 -74.046875 C 86.300781 -68.992188 84.640625 -61.210938 84.640625 -50.703125 L 84.640625 0 L 68.671875 0 L 68.671875 -54.09375 C 68.671875 -63.675781 67.238281 -70.660156 64.375 -75.046875 C 61.519531 -79.441406 57.363281 -81.640625 51.90625 -81.640625 C 45.113281 -81.640625 39.953125 -79.078125 36.421875 -73.953125 C 32.898438 -68.835938 31.140625 -60.6875 31.140625 -49.5 L 31.140625 0 L 15.171875 0 L 15.171875 -93.828125 L 31.140625 -93.828125 L 31.140625 -83.640625 L 31.546875 -83.640625 C 34.066406 -87.503906 37.253906 -90.597656 41.109375 -92.921875 C 44.972656 -95.253906 49.300781 -96.421875 54.09375 -96.421875 C 59.550781 -96.421875 64.609375 -95.054688 69.265625 -92.328125 C 73.921875 -89.597656 77.515625 -85.769531 80.046875 -80.84375 Z M 80.046875 -80.84375 "/></g></g></g><g fill="#000000" fill-opacity="1"><g transform="translate(1215.576685, 3077.001139)"><g><path d="M 96.8125 -43.515625 L 23.15625 -43.515625 C 23.425781 -34.203125 26.488281 -26.648438 32.34375 -20.859375 C 38.195312 -15.066406 45.382812 -12.171875 53.90625 -12.171875 C 59.882812 -12.171875 65.171875 -13.703125 69.765625 -16.765625 C 74.359375 -19.828125 78.582031 -24.753906 82.4375 -31.546875 L 96.015625 -23.75 C 91.492188 -15.363281 85.539062 -8.875 78.15625 -4.28125 C 70.769531 0.300781 62.285156 2.59375 52.703125 2.59375 C 43.515625 2.59375 35.394531 0.398438 28.34375 -3.984375 C 21.289062 -8.378906 15.929688 -14.269531 12.265625 -21.65625 C 8.609375 -29.039062 6.78125 -37.0625 6.78125 -45.71875 C 6.78125 -55.300781 8.609375 -63.953125 12.265625 -71.671875 C 15.929688 -79.390625 21.222656 -85.441406 28.140625 -89.828125 C 35.066406 -94.222656 43.117188 -96.421875 52.296875 -96.421875 C 61.210938 -96.421875 69.097656 -94.253906 75.953125 -89.921875 C 82.804688 -85.597656 88.03125 -79.644531 91.625 -72.0625 C 95.21875 -64.476562 97.015625 -55.960938 97.015625 -46.515625 C 97.015625 -45.578125 96.945312 -44.578125 96.8125 -43.515625 Z M 80.046875 -57.09375 C 78.710938 -64.414062 75.453125 -70.335938 70.265625 -74.859375 C 65.078125 -79.378906 59.15625 -81.640625 52.5 -81.640625 C 45.976562 -81.640625 39.851562 -79.273438 34.125 -74.546875 C 28.40625 -69.828125 25.015625 -64.007812 23.953125 -57.09375 Z M 80.046875 -57.09375 "/></g></g></g><g fill="#000000" fill-opacity="1"><g transform="translate(1319.183358, 3077.001139)"><g><path d="M 90.234375 0 L 74.265625 0 L 74.265625 -54.703125 C 74.265625 -64.148438 72.832031 -71 69.96875 -75.25 C 67.101562 -79.507812 61.945312 -81.640625 54.5 -81.640625 C 45.976562 -81.640625 39.953125 -78.710938 36.421875 -72.859375 C 32.898438 -67.003906 31.140625 -58.085938 31.140625 -46.109375 L 31.140625 0 L 15.171875 0 L 15.171875 -93.828125 L 31.140625 -93.828125 L 31.140625 -82.4375 L 31.546875 -82.4375 C 34.867188 -86.96875 38.691406 -90.429688 43.015625 -92.828125 C 47.335938 -95.222656 52.429688 -96.421875 58.296875 -96.421875 C 68.804688 -96.421875 76.753906 -93.191406 82.140625 -86.734375 C 87.535156 -80.285156 90.234375 -70.269531 90.234375 -56.6875 Z M 90.234375 0 "/></g></g></g><g fill="#000000" fill-opacity="1"><g transform="translate(1424.58668, 3077.001139)"><g><path d="M 31.9375 -127.5625 L 31.9375 -93.828125 L 48.703125 -93.828125 L 48.703125 -79.046875 L 31.9375 -79.046875 L 31.9375 0 L 15.96875 0 L 15.96875 -79.046875 L 6.1875 -79.046875 L 6.1875 -93.828125 L 15.96875 -93.828125 L 15.96875 -127.5625 Z M 31.9375 -127.5625 "/></g></g></g><g fill="#000000" fill-opacity="1"><g transform="translate(1472.497288, 3077.001139)"><g><path d="M 84.84375 -80.453125 L 84.84375 -93.828125 L 100.8125 -93.828125 L 100.8125 0 L 84.84375 0 L 84.84375 -12.96875 L 84.4375 -12.96875 C 76.1875 -2.59375 65.410156 2.59375 52.109375 2.59375 C 39.054688 2.59375 28.304688 -2.195312 19.859375 -11.78125 C 11.410156 -21.363281 7.1875 -33.007812 7.1875 -46.71875 C 7.1875 -61.082031 11.441406 -72.957031 19.953125 -82.34375 C 28.472656 -91.726562 39.253906 -96.421875 52.296875 -96.421875 C 58.816406 -96.421875 64.835938 -95.019531 70.359375 -92.21875 C 75.890625 -89.425781 80.582031 -85.503906 84.4375 -80.453125 Z M 54.09375 -81.640625 C 45.582031 -81.640625 38.363281 -78.378906 32.4375 -71.859375 C 26.519531 -65.335938 23.5625 -57.351562 23.5625 -47.90625 C 23.5625 -37.789062 26.453125 -29.304688 32.234375 -22.453125 C 38.023438 -15.597656 45.378906 -12.171875 54.296875 -12.171875 C 63.742188 -12.171875 71.328125 -15.429688 77.046875 -21.953125 C 82.773438 -28.472656 85.640625 -37.054688 85.640625 -47.703125 C 85.640625 -57.421875 82.710938 -65.503906 76.859375 -71.953125 C 71.003906 -78.410156 63.414062 -81.640625 54.09375 -81.640625 Z M 54.09375 -81.640625 "/></g></g></g><g fill="#000000" fill-opacity="1"><g transform="translate(1587.682386, 3077.001139)"><g><path d="M 31.9375 -127.5625 L 31.9375 -93.828125 L 48.703125 -93.828125 L 48.703125 -79.046875 L 31.9375 -79.046875 L 31.9375 0 L 15.96875 0 L 15.96875 -79.046875 L 6.1875 -79.046875 L 6.1875 -93.828125 L 15.96875 -93.828125 L 15.96875 -127.5625 Z M 31.9375 -127.5625 "/></g></g></g><g fill="#000000" fill-opacity="1"><g transform="translate(1635.592993, 3077.001139)"><g><path d="M 34.140625 -93.828125 L 34.140625 0 L 18.171875 0 L 18.171875 -93.828125 Z M 14.765625 -129.5625 C 14.765625 -132.488281 15.929688 -135.046875 18.265625 -137.234375 C 20.597656 -139.429688 23.226562 -140.53125 26.15625 -140.53125 C 29.21875 -140.53125 31.878906 -139.429688 34.140625 -137.234375 C 36.398438 -135.046875 37.53125 -132.488281 37.53125 -129.5625 C 37.53125 -126.09375 36.398438 -123.257812 34.140625 -121.0625 C 31.878906 -118.875 29.21875 -117.78125 26.15625 -117.78125 C 23.09375 -117.78125 20.425781 -118.84375 18.15625 -120.96875 C 15.894531 -123.101562 14.765625 -125.96875 14.765625 -129.5625 Z M 14.765625 -129.5625 "/></g></g></g><g fill="#000000" fill-opacity="1"><g transform="translate(1687.895429, 3077.001139)"><g><path d="M 6.78125 -46.71875 C 6.78125 -55.632812 8.976562 -63.953125 13.375 -71.671875 C 17.769531 -79.390625 23.757812 -85.441406 31.34375 -89.828125 C 38.925781 -94.222656 47.175781 -96.421875 56.09375 -96.421875 C 65.007812 -96.421875 73.226562 -94.222656 80.75 -89.828125 C 88.269531 -85.441406 94.257812 -79.421875 98.71875 -71.765625 C 103.175781 -64.109375 105.40625 -55.757812 105.40625 -46.71875 C 105.40625 -37.800781 103.207031 -29.515625 98.8125 -21.859375 C 94.425781 -14.203125 88.4375 -8.210938 80.84375 -3.890625 C 73.257812 0.429688 65.007812 2.59375 56.09375 2.59375 C 47.175781 2.59375 38.890625 0.398438 31.234375 -3.984375 C 23.585938 -8.378906 17.597656 -14.398438 13.265625 -22.046875 C 8.941406 -29.703125 6.78125 -37.925781 6.78125 -46.71875 Z M 55.890625 -81.640625 C 46.441406 -81.640625 38.554688 -78.28125 32.234375 -71.5625 C 25.910156 -64.84375 22.75 -56.625 22.75 -46.90625 C 22.75 -39.71875 24.476562 -33.363281 27.9375 -27.84375 C 31.40625 -22.320312 35.632812 -18.328125 40.625 -15.859375 C 45.613281 -13.398438 50.769531 -12.171875 56.09375 -12.171875 C 62.21875 -12.171875 67.804688 -13.601562 72.859375 -16.46875 C 77.921875 -19.332031 81.945312 -23.457031 84.9375 -28.84375 C 87.9375 -34.238281 89.4375 -40.257812 89.4375 -46.90625 C 89.4375 -53.03125 88.070312 -58.753906 85.34375 -64.078125 C 82.613281 -69.398438 78.648438 -73.65625 73.453125 -76.84375 C 68.265625 -80.039062 62.410156 -81.640625 55.890625 -81.640625 Z M 55.890625 -81.640625 "/></g></g></g><g fill="#000000" fill-opacity="1"><g transform="translate(1800.086086, 3077.001139)"><g><path d="M 90.234375 0 L 74.265625 0 L 74.265625 -54.703125 C 74.265625 -64.148438 72.832031 -71 69.96875 -75.25 C 67.101562 -79.507812 61.945312 -81.640625 54.5 -81.640625 C 45.976562 -81.640625 39.953125 -78.710938 36.421875 -72.859375 C 32.898438 -67.003906 31.140625 -58.085938 31.140625 -46.109375 L 31.140625 0 L 15.171875 0 L 15.171875 -93.828125 L 31.140625 -93.828125 L 31.140625 -82.4375 L 31.546875 -82.4375 C 34.867188 -86.96875 38.691406 -90.429688 43.015625 -92.828125 C 47.335938 -95.222656 52.429688 -96.421875 58.296875 -96.421875 C 68.804688 -96.421875 76.753906 -93.191406 82.140625 -86.734375 C 87.535156 -80.285156 90.234375 -70.269531 90.234375 -56.6875 Z M 90.234375 0 "/></g></g></g><g clip-path="url(#795dd2b96d)"><path fill="#ffffff" d="M 1957.519531 478.074219 L 1622.703125 478.074219 L 1446.203125 302.5 C 1443.378906 299.679688 1440.558594 297.484375 1437.738281 295.289062 C 1409.835938 272.089844 1366.257812 255.472656 1331.773438 255.472656 L 565.582031 255.472656 C 517.300781 255.472656 477.800781 294.976562 477.800781 343.257812 L 477.800781 1978.890625 C 477.800781 2027.175781 517.300781 2066.679688 565.582031 2066.679688 L 665.902344 2066.679688 L 665.902344 2201.492188 C 665.902344 2249.773438 705.402344 2289.277344 753.679688 2289.277344 L 1957.519531 2289.277344 C 2005.800781 2289.277344 2045.300781 2249.773438 2045.300781 2201.492188 L 2045.300781 565.542969 C 2045.300781 517.261719 2005.800781 478.074219 1957.519531 478.074219 Z M 1419.554688 376.492188 L 1734.933594 689.699219 L 1435.855469 689.699219 C 1426.765625 689.699219 1419.242188 682.175781 1419.242188 673.082031 L 1419.242188 376.492188 Z M 548.964844 1978.890625 L 548.964844 343.257812 C 548.964844 334.167969 556.488281 326.644531 565.582031 326.644531 L 1331.773438 326.644531 C 1337.105469 326.644531 1343.058594 327.582031 1349.332031 329.152344 C 1348.703125 333.539062 1348.390625 338.242188 1348.390625 342.945312 L 1348.390625 672.769531 C 1348.390625 721.050781 1387.890625 760.554688 1436.171875 760.554688 L 1769.421875 760.554688 C 1774.4375 760.554688 1779.140625 760.242188 1783.214844 759.613281 C 1784.78125 765.882812 1785.722656 771.839844 1785.722656 777.171875 L 1785.722656 1978.578125 C 1785.722656 1987.671875 1778.199219 1995.195312 1769.105469 1995.195312 L 565.582031 1995.195312 C 556.488281 1995.507812 548.964844 1987.984375 548.964844 1978.890625 Z M 1974.136719 2201.492188 C 1974.136719 2210.582031 1966.613281 2218.109375 1957.519531 2218.109375 L 753.679688 2218.109375 C 744.589844 2218.109375 737.066406 2210.582031 737.066406 2201.492188 L 737.066406 2066.679688 L 1769.421875 2066.679688 C 1817.699219 2066.679688 1857.199219 2027.175781 1857.199219 1978.890625 L 1857.199219 777.484375 C 1857.199219 742.996094 1840.585938 700.042969 1817.386719 672.140625 C 1815.191406 669.320312 1812.683594 666.5 1809.546875 663.363281 L 1694.492188 549.242188 L 1957.519531 549.242188 C 1966.613281 549.242188 1974.136719 556.765625 1974.136719 565.859375 Z M 1586.335938 1026.734375 L 748.664062 1026.734375 C 731.734375 1026.734375 718.253906 1012.9375 718.253906 996.320312 C 718.253906 979.703125 732.050781 965.910156 748.664062 965.910156 L 1586.335938 965.910156 C 1603.265625 965.910156 1616.746094 979.703125 1616.746094 996.320312 C 1616.746094 1012.9375 1603.265625 1026.734375 1586.335938 1026.734375 Z M 1586.335938 1249.332031 L 748.664062 1249.332031 C 731.734375 1249.332031 718.253906 1235.535156 718.253906 1218.921875 C 718.253906 1202.304688 732.050781 1188.507812 748.664062 1188.507812 L 1586.335938 1188.507812 C 1603.265625 1188.507812 1616.746094 1202.304688 1616.746094 1218.921875 C 1616.746094 1235.535156 1603.265625 1249.332031 1586.335938 1249.332031 Z M 1586.335938 1471.617188 L 748.664062 1471.617188 C 731.734375 1471.617188 718.253906 1457.824219 718.253906 1441.207031 C 718.253906 1424.589844 732.050781 1410.792969 748.664062 1410.792969 L 1586.335938 1410.792969 C 1603.265625 1410.792969 1616.746094 1424.589844 1616.746094 1441.207031 C 1616.746094 1457.824219 1603.265625 1471.617188 1586.335938 1471.617188 Z M 1107.933594 1694.214844 L 748.664062 1694.214844 C 731.734375 1694.214844 718.253906 1680.421875 718.253906 1663.804688 C 718.253906 1646.875 732.050781 1633.394531 748.664062 1633.394531 L 1107.933594 1633.394531 C 1124.863281 1633.394531 1138.34375 1647.1875 1138.34375 1663.804688 C 1138.34375 1680.421875 1124.863281 1694.214844 1107.933594 1694.214844 Z M 1107.933594 1694.214844 " fill-opacity="1" fill-rule="nonzero"/></g></svg>