<svg xmlns="http://www.w3.org/2000/svg" xmlns:xlink="http://www.w3.org/1999/xlink" width="700" zoomAndPan="magnify" viewBox="0 0 525 525.000007" height="700" preserveAspectRatio="xMidYMid meet" version="1.0"><defs><g/><clipPath id="674215d7ad"><path d="M 0.503906 0 L 524.496094 0 L 524.496094 524 L 0.503906 524 Z M 0.503906 0 " clip-rule="nonzero"/></clipPath><clipPath id="fdc1ff0f0c"><path d="M 0.5 419.027344 L 524.5 419.027344 L 524.5 524 L 0.5 524 Z M 0.5 419.027344 " clip-rule="nonzero"/></clipPath><clipPath id="6e04b64a5d"><path d="M 110.589844 21.605469 L 401.035156 21.605469 L 401.035156 398.886719 L 110.589844 398.886719 Z M 110.589844 21.605469 " clip-rule="nonzero"/></clipPath></defs><g clip-path="url(#674215d7ad)"><path stroke-linecap="butt" transform="matrix(0.748574, 0, 0, 0.74806, 0.502807, 0.000019962)" fill="none" stroke-linejoin="miter" d="M 0.00146884 -0.000026685 L 699.988512 -0.000026685 L 699.988512 705.486118 L 0.00146884 705.486118 L 0.00146884 -0.000026685 " stroke="#ffffff" stroke-width="14" stroke-opacity="1" stroke-miterlimit="4"/></g><g clip-path="url(#fdc1ff0f0c)"><path fill="#ffffff" d="M -25.699219 419.027344 L 524.5 419.027344 L 524.5 524.035156 L -25.699219 524.035156 Z M -25.699219 419.027344 " fill-opacity="1" fill-rule="nonzero"/></g><g fill="#000000" fill-opacity="1"><g transform="translate(127.300486, 487.329488)"><g><path d="M 9.84375 -31.59375 C 12.75 -31.59375 15.25 -31.148438 17.34375 -30.265625 C 19.445312 -29.390625 21.195312 -28.203125 22.59375 -26.703125 C 23.988281 -25.210938 25.019531 -23.53125 25.6875 -21.65625 C 26.351562 -19.789062 26.6875 -17.796875 26.6875 -15.671875 C 26.6875 -12.960938 26.066406 -10.441406 24.828125 -8.109375 C 23.585938 -5.773438 21.75 -3.835938 19.3125 -2.296875 C 16.882812 -0.765625 13.71875 0 9.8125 0 L 3.1875 0 L 3.1875 -31.59375 Z M 10.0625 -3.265625 C 11.988281 -3.265625 13.734375 -3.550781 15.296875 -4.125 C 16.859375 -4.695312 18.238281 -5.554688 19.4375 -6.703125 C 20.644531 -7.847656 21.566406 -9.21875 22.203125 -10.8125 C 22.847656 -12.40625 23.171875 -14.066406 23.171875 -15.796875 C 23.171875 -18.085938 22.660156 -20.160156 21.640625 -22.015625 C 20.617188 -23.878906 19.164062 -25.394531 17.28125 -26.5625 C 15.394531 -27.738281 12.863281 -28.328125 9.6875 -28.328125 L 6.703125 -28.328125 L 6.703125 -3.265625 Z M 10.0625 -3.265625 "/></g></g></g><g fill="#000000" fill-opacity="1"><g transform="translate(155.714354, 487.329488)"><g><path d="M 1.421875 -9.8125 C 1.421875 -11.675781 1.878906 -13.414062 2.796875 -15.03125 C 3.722656 -16.65625 4.984375 -17.925781 6.578125 -18.84375 C 8.171875 -19.769531 9.90625 -20.234375 11.78125 -20.234375 C 13.644531 -20.234375 15.363281 -19.769531 16.9375 -18.84375 C 18.519531 -17.925781 19.78125 -16.664062 20.71875 -15.0625 C 21.65625 -13.457031 22.125 -11.707031 22.125 -9.8125 C 22.125 -7.9375 21.660156 -6.191406 20.734375 -4.578125 C 19.816406 -2.972656 18.5625 -1.71875 16.96875 -0.8125 C 15.375 0.09375 13.644531 0.546875 11.78125 0.546875 C 9.90625 0.546875 8.164062 0.0859375 6.5625 -0.828125 C 4.957031 -1.753906 3.695312 -3.019531 2.78125 -4.625 C 1.875 -6.238281 1.421875 -7.96875 1.421875 -9.8125 Z M 11.734375 -17.140625 C 9.753906 -17.140625 8.097656 -16.429688 6.765625 -15.015625 C 5.441406 -13.609375 4.78125 -11.882812 4.78125 -9.84375 C 4.78125 -8.332031 5.140625 -7 5.859375 -5.84375 C 6.585938 -4.6875 7.472656 -3.847656 8.515625 -3.328125 C 9.566406 -2.816406 10.65625 -2.5625 11.78125 -2.5625 C 13.0625 -2.5625 14.234375 -2.859375 15.296875 -3.453125 C 16.359375 -4.054688 17.203125 -4.921875 17.828125 -6.046875 C 18.460938 -7.179688 18.78125 -8.445312 18.78125 -9.84375 C 18.78125 -11.132812 18.492188 -12.335938 17.921875 -13.453125 C 17.347656 -14.566406 16.515625 -15.457031 15.421875 -16.125 C 14.328125 -16.800781 13.097656 -17.140625 11.734375 -17.140625 Z M 11.734375 -17.140625 "/></g></g></g><g fill="#000000" fill-opacity="1"><g transform="translate(179.266854, 487.329488)"><g><path d="M 17.8125 -13.828125 L 17.71875 -13.828125 C 17 -14.804688 16.113281 -15.601562 15.0625 -16.21875 C 14.019531 -16.832031 12.867188 -17.140625 11.609375 -17.140625 C 9.648438 -17.140625 8 -16.425781 6.65625 -15 C 5.320312 -13.570312 4.65625 -11.851562 4.65625 -9.84375 C 4.65625 -7.832031 5.296875 -6.113281 6.578125 -4.6875 C 7.859375 -3.269531 9.476562 -2.5625 11.4375 -2.5625 C 12.863281 -2.5625 14.085938 -2.859375 15.109375 -3.453125 C 16.128906 -4.054688 17.046875 -4.890625 17.859375 -5.953125 L 17.9375 -5.953125 L 17.9375 -1.46875 C 17.007812 -0.820312 16.03125 -0.328125 15 0.015625 C 13.96875 0.367188 12.863281 0.546875 11.6875 0.546875 C 9.820312 0.546875 8.070312 0.0976562 6.4375 -0.796875 C 4.800781 -1.691406 3.519531 -2.941406 2.59375 -4.546875 C 1.675781 -6.148438 1.21875 -7.914062 1.21875 -9.84375 C 1.21875 -11.664062 1.671875 -13.378906 2.578125 -14.984375 C 3.484375 -16.585938 4.757812 -17.863281 6.40625 -18.8125 C 8.0625 -19.757812 9.835938 -20.234375 11.734375 -20.234375 C 12.742188 -20.234375 13.726562 -20.09375 14.6875 -19.8125 C 15.65625 -19.539062 16.695312 -19.023438 17.8125 -18.265625 Z M 17.8125 -13.828125 "/></g></g></g><g fill="#000000" fill-opacity="1"><g transform="translate(199.215242, 487.329488)"><g><path d="M 6.28125 -19.703125 L 6.28125 -8.421875 C 6.28125 -6.359375 6.601562 -4.863281 7.25 -3.9375 C 7.894531 -3.019531 9.054688 -2.5625 10.734375 -2.5625 C 12.378906 -2.5625 13.53125 -3.015625 14.1875 -3.921875 C 14.84375 -4.828125 15.171875 -6.269531 15.171875 -8.25 L 15.171875 -19.703125 L 18.515625 -19.703125 L 18.515625 -8.125 C 18.515625 -5.28125 17.863281 -3.125 16.5625 -1.65625 C 15.269531 -0.1875 13.328125 0.546875 10.734375 0.546875 C 8.128906 0.546875 6.175781 -0.191406 4.875 -1.671875 C 3.582031 -3.148438 2.9375 -5.300781 2.9375 -8.125 L 2.9375 -19.703125 Z M 6.28125 -19.703125 "/></g></g></g><g fill="#000000" fill-opacity="1"><g transform="translate(220.672326, 487.329488)"><g><path d="M 16.796875 -16.96875 C 17.390625 -18 18.207031 -18.800781 19.25 -19.375 C 20.300781 -19.945312 21.457031 -20.234375 22.71875 -20.234375 C 24.78125 -20.234375 26.34375 -19.535156 27.40625 -18.140625 C 28.46875 -16.742188 29 -14.757812 29 -12.1875 L 29 0 L 25.640625 0 L 25.640625 -11.6875 C 25.640625 -13.675781 25.347656 -15.082031 24.765625 -15.90625 C 24.179688 -16.726562 23.273438 -17.140625 22.046875 -17.140625 C 20.585938 -17.140625 19.507812 -16.609375 18.8125 -15.546875 C 18.113281 -14.484375 17.765625 -12.847656 17.765625 -10.640625 L 17.765625 0 L 14.421875 0 L 14.421875 -11.359375 C 14.421875 -13.367188 14.117188 -14.832031 13.515625 -15.75 C 12.910156 -16.675781 12.035156 -17.140625 10.890625 -17.140625 C 9.472656 -17.140625 8.390625 -16.597656 7.640625 -15.515625 C 6.898438 -14.441406 6.53125 -12.734375 6.53125 -10.390625 L 6.53125 0 L 3.1875 0 L 3.1875 -19.703125 L 6.53125 -19.703125 L 6.53125 -17.5625 L 6.625 -17.5625 C 7.15625 -18.375 7.820312 -19.019531 8.625 -19.5 C 9.4375 -19.988281 10.347656 -20.234375 11.359375 -20.234375 C 12.503906 -20.234375 13.566406 -19.945312 14.546875 -19.375 C 15.523438 -18.800781 16.273438 -18 16.796875 -16.96875 Z M 16.796875 -16.96875 "/></g></g></g><g fill="#000000" fill-opacity="1"><g transform="translate(252.857952, 487.329488)"><g><path d="M 20.328125 -9.140625 L 4.859375 -9.140625 C 4.910156 -7.179688 5.550781 -5.59375 6.78125 -4.375 C 8.007812 -3.164062 9.519531 -2.5625 11.3125 -2.5625 C 12.570312 -2.5625 13.679688 -2.878906 14.640625 -3.515625 C 15.609375 -4.160156 16.5 -5.195312 17.3125 -6.625 L 20.15625 -4.984375 C 19.207031 -3.222656 17.957031 -1.859375 16.40625 -0.890625 C 14.851562 0.0664062 13.070312 0.546875 11.0625 0.546875 C 9.132812 0.546875 7.429688 0.0859375 5.953125 -0.828125 C 4.472656 -1.753906 3.347656 -2.992188 2.578125 -4.546875 C 1.804688 -6.097656 1.421875 -7.78125 1.421875 -9.59375 C 1.421875 -11.601562 1.804688 -13.414062 2.578125 -15.03125 C 3.347656 -16.65625 4.457031 -17.925781 5.90625 -18.84375 C 7.363281 -19.769531 9.054688 -20.234375 10.984375 -20.234375 C 12.847656 -20.234375 14.5 -19.78125 15.9375 -18.875 C 17.382812 -17.96875 18.484375 -16.71875 19.234375 -15.125 C 19.984375 -13.53125 20.359375 -11.742188 20.359375 -9.765625 C 20.359375 -9.566406 20.347656 -9.359375 20.328125 -9.140625 Z M 16.796875 -11.984375 C 16.523438 -13.523438 15.84375 -14.769531 14.75 -15.71875 C 13.65625 -16.664062 12.410156 -17.140625 11.015625 -17.140625 C 9.648438 -17.140625 8.363281 -16.644531 7.15625 -15.65625 C 5.957031 -14.664062 5.25 -13.441406 5.03125 -11.984375 Z M 16.796875 -11.984375 "/></g></g></g><g fill="#000000" fill-opacity="1"><g transform="translate(274.608396, 487.329488)"><g><path d="M 18.9375 0 L 15.59375 0 L 15.59375 -11.484375 C 15.59375 -13.460938 15.289062 -14.898438 14.6875 -15.796875 C 14.082031 -16.691406 13 -17.140625 11.4375 -17.140625 C 9.65625 -17.140625 8.390625 -16.523438 7.640625 -15.296875 C 6.898438 -14.066406 6.53125 -12.195312 6.53125 -9.6875 L 6.53125 0 L 3.1875 0 L 3.1875 -19.703125 L 6.53125 -19.703125 L 6.53125 -17.3125 L 6.625 -17.3125 C 7.320312 -18.257812 8.125 -18.984375 9.03125 -19.484375 C 9.9375 -19.984375 11.003906 -20.234375 12.234375 -20.234375 C 14.441406 -20.234375 16.109375 -19.554688 17.234375 -18.203125 C 18.367188 -16.847656 18.9375 -14.75 18.9375 -11.90625 Z M 18.9375 0 "/></g></g></g><g fill="#000000" fill-opacity="1"><g transform="translate(296.736017, 487.329488)"><g><path d="M 6.703125 -26.78125 L 6.703125 -19.703125 L 10.21875 -19.703125 L 10.21875 -16.59375 L 6.703125 -16.59375 L 6.703125 0 L 3.359375 0 L 3.359375 -16.59375 L 1.296875 -16.59375 L 1.296875 -19.703125 L 3.359375 -19.703125 L 3.359375 -26.78125 Z M 6.703125 -26.78125 "/></g></g></g><g fill="#000000" fill-opacity="1"><g transform="translate(306.794022, 487.329488)"><g><path d="M 17.8125 -16.890625 L 17.8125 -19.703125 L 21.15625 -19.703125 L 21.15625 0 L 17.8125 0 L 17.8125 -2.71875 L 17.71875 -2.71875 C 15.988281 -0.539062 13.726562 0.546875 10.9375 0.546875 C 8.195312 0.546875 5.941406 -0.457031 4.171875 -2.46875 C 2.398438 -4.476562 1.515625 -6.925781 1.515625 -9.8125 C 1.515625 -12.820312 2.40625 -15.3125 4.1875 -17.28125 C 5.976562 -19.25 8.242188 -20.234375 10.984375 -20.234375 C 12.347656 -20.234375 13.609375 -19.941406 14.765625 -19.359375 C 15.929688 -18.773438 16.914062 -17.953125 17.71875 -16.890625 Z M 11.359375 -17.140625 C 9.566406 -17.140625 8.046875 -16.453125 6.796875 -15.078125 C 5.554688 -13.710938 4.9375 -12.039062 4.9375 -10.0625 C 4.9375 -7.9375 5.546875 -6.15625 6.765625 -4.71875 C 7.984375 -3.28125 9.53125 -2.5625 11.40625 -2.5625 C 13.382812 -2.5625 14.972656 -3.242188 16.171875 -4.609375 C 17.378906 -5.972656 17.984375 -7.773438 17.984375 -10.015625 C 17.984375 -12.054688 17.367188 -13.753906 16.140625 -15.109375 C 14.910156 -16.460938 13.316406 -17.140625 11.359375 -17.140625 Z M 11.359375 -17.140625 "/></g></g></g><g fill="#000000" fill-opacity="1"><g transform="translate(330.97515, 487.329488)"><g><path d="M 6.703125 -26.78125 L 6.703125 -19.703125 L 10.21875 -19.703125 L 10.21875 -16.59375 L 6.703125 -16.59375 L 6.703125 0 L 3.359375 0 L 3.359375 -16.59375 L 1.296875 -16.59375 L 1.296875 -19.703125 L 3.359375 -19.703125 L 3.359375 -26.78125 Z M 6.703125 -26.78125 "/></g></g></g><g fill="#000000" fill-opacity="1"><g transform="translate(341.033155, 487.329488)"><g><path d="M 7.171875 -19.703125 L 7.171875 0 L 3.8125 0 L 3.8125 -19.703125 Z M 3.09375 -27.203125 C 3.09375 -27.816406 3.335938 -28.351562 3.828125 -28.8125 C 4.316406 -29.269531 4.867188 -29.5 5.484375 -29.5 C 6.128906 -29.5 6.6875 -29.269531 7.15625 -28.8125 C 7.632812 -28.351562 7.875 -27.816406 7.875 -27.203125 C 7.875 -26.472656 7.632812 -25.875 7.15625 -25.40625 C 6.6875 -24.945312 6.128906 -24.71875 5.484375 -24.71875 C 4.847656 -24.71875 4.289062 -24.941406 3.8125 -25.390625 C 3.332031 -25.835938 3.09375 -26.441406 3.09375 -27.203125 Z M 3.09375 -27.203125 "/></g></g></g><g fill="#000000" fill-opacity="1"><g transform="translate(352.013148, 487.329488)"><g><path d="M 1.421875 -9.8125 C 1.421875 -11.675781 1.878906 -13.414062 2.796875 -15.03125 C 3.722656 -16.65625 4.984375 -17.925781 6.578125 -18.84375 C 8.171875 -19.769531 9.90625 -20.234375 11.78125 -20.234375 C 13.644531 -20.234375 15.363281 -19.769531 16.9375 -18.84375 C 18.519531 -17.925781 19.78125 -16.664062 20.71875 -15.0625 C 21.65625 -13.457031 22.125 -11.707031 22.125 -9.8125 C 22.125 -7.9375 21.660156 -6.191406 20.734375 -4.578125 C 19.816406 -2.972656 18.5625 -1.71875 16.96875 -0.8125 C 15.375 0.09375 13.644531 0.546875 11.78125 0.546875 C 9.90625 0.546875 8.164062 0.0859375 6.5625 -0.828125 C 4.957031 -1.753906 3.695312 -3.019531 2.78125 -4.625 C 1.875 -6.238281 1.421875 -7.96875 1.421875 -9.8125 Z M 11.734375 -17.140625 C 9.753906 -17.140625 8.097656 -16.429688 6.765625 -15.015625 C 5.441406 -13.609375 4.78125 -11.882812 4.78125 -9.84375 C 4.78125 -8.332031 5.140625 -7 5.859375 -5.84375 C 6.585938 -4.6875 7.472656 -3.847656 8.515625 -3.328125 C 9.566406 -2.816406 10.65625 -2.5625 11.78125 -2.5625 C 13.0625 -2.5625 14.234375 -2.859375 15.296875 -3.453125 C 16.359375 -4.054688 17.203125 -4.921875 17.828125 -6.046875 C 18.460938 -7.179688 18.78125 -8.445312 18.78125 -9.84375 C 18.78125 -11.132812 18.492188 -12.335938 17.921875 -13.453125 C 17.347656 -14.566406 16.515625 -15.457031 15.421875 -16.125 C 14.328125 -16.800781 13.097656 -17.140625 11.734375 -17.140625 Z M 11.734375 -17.140625 "/></g></g></g><g fill="#000000" fill-opacity="1"><g transform="translate(375.565659, 487.329488)"><g><path d="M 18.9375 0 L 15.59375 0 L 15.59375 -11.484375 C 15.59375 -13.460938 15.289062 -14.898438 14.6875 -15.796875 C 14.082031 -16.691406 13 -17.140625 11.4375 -17.140625 C 9.65625 -17.140625 8.390625 -16.523438 7.640625 -15.296875 C 6.898438 -14.066406 6.53125 -12.195312 6.53125 -9.6875 L 6.53125 0 L 3.1875 0 L 3.1875 -19.703125 L 6.53125 -19.703125 L 6.53125 -17.3125 L 6.625 -17.3125 C 7.320312 -18.257812 8.125 -18.984375 9.03125 -19.484375 C 9.9375 -19.984375 11.003906 -20.234375 12.234375 -20.234375 C 14.441406 -20.234375 16.109375 -19.554688 17.234375 -18.203125 C 18.367188 -16.847656 18.9375 -14.75 18.9375 -11.90625 Z M 18.9375 0 "/></g></g></g><g clip-path="url(#6e04b64a5d)"><path fill="#ffffff" d="M 384.773438 62.964844 L 322.730469 62.964844 L 290.027344 30.410156 C 289.503906 29.886719 288.980469 29.480469 288.460938 29.074219 C 283.289062 24.769531 275.214844 21.691406 268.824219 21.691406 L 126.855469 21.691406 C 117.910156 21.691406 110.589844 29.015625 110.589844 37.96875 L 110.589844 341.25 C 110.589844 350.203125 117.910156 357.527344 126.855469 357.527344 L 145.445312 357.527344 L 145.445312 382.527344 C 145.445312 391.476562 152.761719 398.804688 161.707031 398.804688 L 384.773438 398.804688 C 393.71875 398.804688 401.035156 391.476562 401.035156 382.527344 L 401.035156 79.183594 C 401.035156 70.230469 393.71875 62.964844 384.773438 62.964844 Z M 285.089844 44.128906 L 343.527344 102.203125 L 288.109375 102.203125 C 286.425781 102.203125 285.03125 100.808594 285.03125 99.125 L 285.03125 44.128906 Z M 123.777344 341.25 L 123.777344 37.96875 C 123.777344 36.28125 125.171875 34.886719 126.855469 34.886719 L 268.824219 34.886719 C 269.8125 34.886719 270.917969 35.058594 272.078125 35.351562 C 271.960938 36.164062 271.902344 37.035156 271.902344 37.910156 L 271.902344 99.066406 C 271.902344 108.019531 279.222656 115.34375 288.167969 115.34375 L 349.917969 115.34375 C 350.847656 115.34375 351.71875 115.285156 352.472656 115.167969 C 352.765625 116.332031 352.9375 117.4375 352.9375 118.425781 L 352.9375 341.191406 C 352.9375 342.878906 351.542969 344.273438 349.859375 344.273438 L 126.855469 344.273438 C 125.171875 344.332031 123.777344 342.9375 123.777344 341.25 Z M 387.851562 382.527344 C 387.851562 384.210938 386.457031 385.605469 384.773438 385.605469 L 161.707031 385.605469 C 160.023438 385.605469 158.628906 384.210938 158.628906 382.527344 L 158.628906 357.527344 L 349.917969 357.527344 C 358.863281 357.527344 366.183594 350.203125 366.183594 341.25 L 366.183594 118.480469 C 366.183594 112.085938 363.105469 104.125 358.804688 98.949219 C 358.398438 98.425781 357.933594 97.902344 357.355469 97.320312 L 336.035156 76.160156 L 384.773438 76.160156 C 386.457031 76.160156 387.851562 77.554688 387.851562 79.242188 Z M 315.992188 164.699219 L 160.777344 164.699219 C 157.640625 164.699219 155.144531 162.140625 155.144531 159.058594 C 155.144531 155.980469 157.699219 153.421875 160.777344 153.421875 L 315.992188 153.421875 C 319.128906 153.421875 321.628906 155.980469 321.628906 159.058594 C 321.628906 162.140625 319.128906 164.699219 315.992188 164.699219 Z M 315.992188 205.972656 L 160.777344 205.972656 C 157.640625 205.972656 155.144531 203.414062 155.144531 200.335938 C 155.144531 197.253906 157.699219 194.695312 160.777344 194.695312 L 315.992188 194.695312 C 319.128906 194.695312 321.628906 197.253906 321.628906 200.335938 C 321.628906 203.414062 319.128906 205.972656 315.992188 205.972656 Z M 315.992188 247.191406 L 160.777344 247.191406 C 157.640625 247.191406 155.144531 244.632812 155.144531 241.550781 C 155.144531 238.46875 157.699219 235.914062 160.777344 235.914062 L 315.992188 235.914062 C 319.128906 235.914062 321.628906 238.46875 321.628906 241.550781 C 321.628906 244.632812 319.128906 247.191406 315.992188 247.191406 Z M 227.347656 288.464844 L 160.777344 288.464844 C 157.640625 288.464844 155.144531 285.90625 155.144531 282.828125 C 155.144531 279.6875 157.699219 277.1875 160.777344 277.1875 L 227.347656 277.1875 C 230.488281 277.1875 232.984375 279.746094 232.984375 282.828125 C 232.984375 285.90625 230.488281 288.464844 227.347656 288.464844 Z M 227.347656 288.464844 " fill-opacity="1" fill-rule="nonzero"/></g></svg>