<svg xmlns="http://www.w3.org/2000/svg" xmlns:xlink="http://www.w3.org/1999/xlink" version="1.1" width="1024" height="1024" viewBox="0 0 1024 1024" xml:space="preserve">
<desc>Created with Fabric.js 3.5.0</desc>
<defs>
</defs>
<rect x="0" y="0" width="100%" height="100%" fill="#ffffff"/>
<g transform="matrix(11.7113 0 0 10.3603 512 414.412)" id="948387">
<g style="" vector-effect="non-scaling-stroke">
		<g transform="matrix(1 0 0 1 -2.0111 -0.2228)">
<linearGradient id="SVGID_1800" gradientUnits="userSpaceOnUse" gradientTransform="matrix(1 0 0 1 0 0)" x1="81.659" y1="88.4326" x2="24.9069" y2="27.1765">
<stop offset="0%" style="stop-color:rgb(218,227,254);stop-opacity: 1"/>
<stop offset="100%" style="stop-color:rgb(233,239,253);stop-opacity: 1"/>
</linearGradient>
<path style="stroke: none; stroke-width: 1; stroke-dasharray: none; stroke-linecap: butt; stroke-dashoffset: 0; stroke-linejoin: miter; stroke-miterlimit: 4; is-custom-font: none; font-file-url: none; fill: url(#SVGID_1800); fill-rule: nonzero; opacity: 1;" transform=" translate(-38.4889, -39.7772)" d="M 73.7501 53.525 C 65.952 71.7522 45.3676 79.5811 29.2392 78.2464 C 24.8354 77.8819 15.9752 77.1486 9.05697 70.6064 C -4.22906 58.0424 -2.18282 31.7799 10.5356 16.318 C 12.1734 14.3267 23.5106 0.986029 41.1774 1.16449 C 54.112 1.29529 63.1908 8.60188 64.2947 9.51222 C 65.6893 10.6621 68.765 13.3946 71.5373 17.7297 C 78.0507 27.9156 78.6233 42.1349 73.7504 53.525 H 73.7501 Z" stroke-linecap="round"/>
</g>
		<g transform="matrix(1 0 0 1 -21.0318 -8.0371)">
<path style="stroke: none; stroke-width: 1; stroke-dasharray: none; stroke-linecap: butt; stroke-dashoffset: 0; stroke-linejoin: miter; stroke-miterlimit: 4; is-custom-font: none; font-file-url: none; fill: rgb(145,179,250); fill-rule: nonzero; opacity: 1;" transform=" translate(-19.4682, -31.9628)" d="M 8.03161 0.427709 C 5.95544 7.23553 -4.50829 47.3456 31.3666 63.9257 C 31.3666 63.9257 45.0529 39.2929 9.04979 0.193728 C 8.73472 -0.148378 8.16735 -0.0169997 8.03161 0.427709 Z" stroke-linecap="round"/>
</g>
		<g transform="matrix(1 0 0 1 -20.9257 -6.0356)">
<path style="stroke: none; stroke-width: 1; stroke-dasharray: none; stroke-linecap: butt; stroke-dashoffset: 0; stroke-linejoin: miter; stroke-miterlimit: 4; is-custom-font: none; font-file-url: none; fill: rgb(255,255,255); fill-rule: nonzero; opacity: 0.52;" transform=" translate(-19.5743, -33.9644)" d="M 10.6309 7.1472 C 10.7701 9.53206 11.009 11.9152 11.295 14.289 C 11.5828 16.6634 11.9281 19.0311 12.3321 21.3883 C 13.1416 26.102 14.174 30.7795 15.5096 35.3699 C 16.8492 39.9565 18.4865 44.4652 20.5958 48.749 C 21.1196 49.8212 21.6838 50.8728 22.2741 51.9087 C 22.8633 52.9455 23.492 53.9593 24.1581 54.947 C 25.4827 56.9275 26.9781 58.7924 28.6421 60.4904 L 28.6436 60.4919 C 28.7302 60.5802 28.7288 60.7224 28.6404 60.809 C 28.552 60.8956 28.4099 60.8941 28.3233 60.8058 L 28.3227 60.8049 C 26.6433 59.0761 25.14 57.183 23.8123 55.1783 C 23.1443 54.1788 22.5153 53.1536 21.9265 52.1066 C 21.3364 51.0606 20.7731 49.9991 20.2511 48.9181 C 18.1485 44.5986 16.526 40.0649 15.2026 35.4586 C 13.8839 30.8481 12.8704 26.1563 12.0807 21.4308 C 11.6868 19.0674 11.3517 16.6948 11.0741 14.3154 C 10.7986 11.9355 10.5701 9.55124 10.4411 7.15592 C 10.4382 7.1036 10.4783 7.05884 10.5309 7.05593 C 10.5832 7.05303 10.628 7.09343 10.6309 7.14575 V 7.1472 Z" stroke-linecap="round"/>
</g>
		<g transform="matrix(1 0 0 1 -26.921 15.015)">
<path style="stroke: none; stroke-width: 1; stroke-dasharray: none; stroke-linecap: butt; stroke-dashoffset: 0; stroke-linejoin: miter; stroke-miterlimit: 4; is-custom-font: none; font-file-url: none; fill: rgb(189,208,251); fill-rule: nonzero; opacity: 1;" transform=" translate(-13.579, -55.015)" d="M 1.75448 36.0745 C 1.28652 40.7669 -0.321992 68.1848 25.1354 74.3159 C 25.1354 74.3159 30.841 56.5383 2.38579 35.7908 C 2.13698 35.6094 1.785 35.7681 1.75448 36.0745 Z" stroke-linecap="round"/>
</g>
		<g transform="matrix(1 0 0 1 -27.4609 16.4085)">
<path style="stroke: none; stroke-width: 1; stroke-dasharray: none; stroke-linecap: butt; stroke-dashoffset: 0; stroke-linejoin: miter; stroke-miterlimit: 4; is-custom-font: none; font-file-url: none; fill: rgb(255,255,255); fill-rule: nonzero; opacity: 0.52;" transform=" translate(-13.039, -56.4085)" d="M 4.35688 40.0922 C 4.76613 41.5848 5.23583 43.0651 5.72705 44.5352 C 6.22146 46.0051 6.74871 47.4636 7.30562 48.9105 C 7.86165 50.358 8.45372 51.7913 9.07689 53.2103 C 9.70268 54.6281 10.352 56.0357 11.0531 57.4172 C 12.4462 60.1837 13.9934 62.8747 15.7597 65.4133 C 15.9734 65.7356 16.2105 66.0408 16.4355 66.355 L 16.777 66.823 C 16.8907 66.9791 17.0136 67.1282 17.1313 67.2811 C 17.3708 67.5839 17.604 67.892 17.8484 68.1905 L 18.5945 69.0756 C 19.6095 70.2374 20.6881 71.3416 21.8453 72.356 L 21.8479 72.3583 C 21.954 72.4513 21.9647 72.6129 21.8717 72.7193 C 21.7787 72.8254 21.6171 72.8361 21.5107 72.7428 L 21.5093 72.7417 C 20.3388 71.6991 19.2532 70.5696 18.2347 69.3851 L 17.4868 68.4835 C 17.2418 68.1798 17.009 67.8664 16.7695 67.5586 C 16.6518 67.4031 16.5288 67.2514 16.4152 67.093 L 16.0739 66.6178 C 15.8495 66.2989 15.6124 65.9888 15.3996 65.6621 C 13.6385 63.088 12.1044 60.3692 10.727 57.5794 C 10.0337 56.1863 9.39313 54.7682 8.77635 53.3405 C 8.16219 51.9116 7.57971 50.4696 7.03385 49.014 C 6.48683 47.5587 5.96975 46.0923 5.48609 44.6152 C 5.00476 43.1366 4.54668 41.6525 4.14673 40.1469 C 4.13133 40.089 4.16592 40.0297 4.22347 40.0143 C 4.28102 39.9989 4.34002 40.0329 4.35572 40.0905 L 4.3563 40.0925 L 4.35688 40.0922 Z" stroke-linecap="round"/>
</g>
		<g transform="matrix(1 0 0 1 3.5162 -0.6714)">
<linearGradient id="SVGID_1801" gradientUnits="userSpaceOnUse" gradientTransform="matrix(1 0 0 1 0 0)" x1="15.7342" y1="39.3287" x2="72.2982" y2="39.3287">
<stop offset="0%" style="stop-color:rgb(9,0,93);stop-opacity: 1"/>
<stop offset="100%" style="stop-color:rgb(26,15,145);stop-opacity: 1"/>
</linearGradient>
<path style="stroke: none; stroke-width: 1; stroke-dasharray: none; stroke-linecap: butt; stroke-dashoffset: 0; stroke-linejoin: miter; stroke-miterlimit: 4; is-custom-font: none; font-file-url: none; fill: url(#SVGID_1801); fill-rule: nonzero; opacity: 1;" transform=" translate(-44.0162, -39.3286)" d="M 68.0345 78.5633 L 19.7499 77.117 C 17.5127 77.0498 15.7339 75.2172 15.7339 72.9789 V 5.20443 C 15.7339 2.95066 17.5368 1.11079 19.7903 1.06545 L 68.0752 0.0929019 C 70.3938 0.0461058 72.2985 1.91301 72.2985 4.23189 V 74.4252 C 72.2985 76.76 70.3685 78.6331 68.0348 78.5633 H 68.0345 Z" stroke-linecap="round"/>
</g>
		<g transform="matrix(1 0 0 1 3.4584 -0.7738)">
<linearGradient id="SVGID_1802" gradientUnits="userSpaceOnUse" gradientTransform="matrix(1 0 0 1 0 0)" x1="21.7315" y1="75.1986" x2="103.131" y2="-54.9981">
<stop offset="0%" style="stop-color:rgb(79,82,255);stop-opacity: 1"/>
<stop offset="100%" style="stop-color:rgb(64,66,226);stop-opacity: 1"/>
</linearGradient>
<path style="stroke: none; stroke-width: 1; stroke-dasharray: none; stroke-linecap: butt; stroke-dashoffset: 0; stroke-linejoin: miter; stroke-miterlimit: 4; is-custom-font: none; font-file-url: none; fill: url(#SVGID_1802); fill-rule: nonzero; opacity: 1;" transform=" translate(-43.9584, -39.2263)" d="M 63.9541 73.1584 L 23.7565 71.9077 C 21.894 71.8499 20.4131 70.2646 20.4131 68.3291 V 9.71422 C 20.4131 7.76506 21.914 6.174 23.7903 6.13476 L 63.9878 5.29359 C 65.9181 5.25319 67.5036 6.86751 67.5036 8.87306 V 69.5795 C 67.5036 71.599 65.8969 73.2186 63.9541 73.1581 V 73.1584 Z" stroke-linecap="round"/>
</g>
		<g transform="matrix(1 0 0 1 3.4198 -0.6)">
<path style="stroke: none; stroke-width: 1; stroke-dasharray: none; stroke-linecap: butt; stroke-dashoffset: 0; stroke-linejoin: miter; stroke-miterlimit: 4; is-custom-font: none; font-file-url: none; fill: rgb(125,151,244); fill-rule: nonzero; opacity: 1;" transform=" translate(-43.9198, -39.4)" d="M 61.6533 70.5612 L 26.0031 69.4125 C 24.3513 69.3593 23.0381 67.9037 23.0381 66.126 V 12.2974 C 23.0381 10.5072 24.3693 9.04607 26.033 9.01003 L 61.6832 8.23775 C 63.3952 8.20054 64.8014 9.68319 64.8014 11.5251 V 67.275 C 64.8014 69.1294 63.3766 70.617 61.6533 70.5614 V 70.5612 Z" stroke-linecap="round"/>
</g>
		<g transform="matrix(1 0 0 1 1.7147 35.3943)">
<path style="stroke: none; stroke-width: 1; stroke-dasharray: none; stroke-linecap: butt; stroke-dashoffset: 0; stroke-linejoin: miter; stroke-miterlimit: 4; is-custom-font: none; font-file-url: none; fill: rgb(125,151,244); fill-rule: nonzero; opacity: 1;" transform=" translate(-42.2146, -75.3943)" d="M 46.6762 75.3582 C 46.6625 75.72 46.4102 76.0092 46.1007 76.0165 C 44.5724 76.0526 40.2666 76.1552 38.3421 76.213 C 37.9625 76.2246 37.6806 75.8154 37.7687 75.3823 L 37.7838 75.3085 C 37.8439 75.0132 38.0631 74.7975 38.3218 74.7795 C 39.6248 74.6891 43.5548 74.451 46.1452 74.6568 C 46.4562 74.6815 46.6901 74.9928 46.6762 75.3576 V 75.3582 Z" stroke-linecap="round"/>
</g>
		<g transform="matrix(1 0 0 1 3.1886 -36.948)">
<path style="stroke: none; stroke-width: 1; stroke-dasharray: none; stroke-linecap: butt; stroke-dashoffset: 0; stroke-linejoin: miter; stroke-miterlimit: 4; is-custom-font: none; font-file-url: none; fill: rgb(125,151,244); fill-rule: nonzero; opacity: 1;" transform=" translate(-43.6887, -3.052)" d="M 43.6886 4.64108 C 44.5662 4.64108 45.2777 3.92964 45.2777 3.05205 C 45.2777 2.17445 44.5662 1.46301 43.6886 1.46301 C 42.811 1.46301 42.0996 2.17445 42.0996 3.05205 C 42.0996 3.92964 42.811 4.64108 43.6886 4.64108 Z" stroke-linecap="round"/>
</g>
		<g transform="matrix(1 0 0 1 10.7776 -23.2309)">
<path style="stroke: none; stroke-width: 1; stroke-dasharray: none; stroke-linecap: butt; stroke-dashoffset: 0; stroke-linejoin: miter; stroke-miterlimit: 4; is-custom-font: none; font-file-url: none; fill: rgb(189,208,251); fill-rule: nonzero; opacity: 1;" transform=" translate(-51.2776, -16.7691)" d="M 39.9986 15.7435 C 43.8848 15.7374 58.8031 15.6885 62.5704 15.676 C 63.0456 15.6746 63.4226 16.1385 63.4037 16.7003 C 63.3857 17.2351 63.0133 17.6615 62.5611 17.6653 L 39.9995 17.8621 C 39.565 17.8659 39.2028 17.4775 39.1642 16.966 L 39.1543 16.8366 C 39.1101 16.2518 39.5016 15.7443 39.9984 15.7435 H 39.9986 Z" stroke-linecap="round"/>
</g>
		<g transform="matrix(1 0 0 1 10.884 -27.8205)">
<path style="stroke: none; stroke-width: 1; stroke-dasharray: none; stroke-linecap: butt; stroke-dashoffset: 0; stroke-linejoin: miter; stroke-miterlimit: 4; is-custom-font: none; font-file-url: none; fill: rgb(189,208,251); fill-rule: nonzero; opacity: 1;" transform=" translate(-51.384, -12.1795)" d="M 40.1051 11.1539 C 43.9912 11.1478 58.9096 11.0989 62.6768 11.0864 C 63.152 11.085 63.529 11.5489 63.5101 12.1107 C 63.4921 12.6455 63.1198 13.0719 62.6675 13.0757 L 40.106 13.2725 C 39.6714 13.2763 39.3093 12.8879 39.2706 12.3764 L 39.2607 12.247 C 39.2165 11.6622 39.6081 11.1547 40.1048 11.1539 H 40.1051 Z" stroke-linecap="round"/>
</g>
		<g transform="matrix(1 0 0 1 10.6003 -18.8165)">
<path style="stroke: none; stroke-width: 1; stroke-dasharray: none; stroke-linecap: butt; stroke-dashoffset: 0; stroke-linejoin: miter; stroke-miterlimit: 4; is-custom-font: none; font-file-url: none; fill: rgb(189,208,251); fill-rule: nonzero; opacity: 1;" transform=" translate(-51.1003, -21.1835)" d="M 39.8214 20.1579 C 43.7075 20.1518 58.6259 20.103 62.3931 20.0905 C 62.8683 20.089 63.2453 20.5529 63.2264 21.1147 C 63.2084 21.6496 62.8361 22.0759 62.3838 22.0797 L 39.8223 22.2765 C 39.3877 22.2803 39.0256 21.892 38.9869 21.3804 L 38.977 21.2511 C 38.9329 20.6663 39.3244 20.1588 39.8211 20.1579 H 39.8214 Z" stroke-linecap="round"/>
</g>
		<g transform="matrix(1 0 0 1 3.2926 -12.4941)">
<path style="stroke: none; stroke-width: 1; stroke-dasharray: none; stroke-linecap: butt; stroke-dashoffset: 0; stroke-linejoin: miter; stroke-miterlimit: 4; is-custom-font: none; font-file-url: none; fill: rgb(189,208,251); fill-rule: nonzero; opacity: 1;" transform=" translate(-43.7926, -27.5059)" d="M 26.3451 26.4493 C 32.347 26.4536 55.3863 26.4452 61.2042 26.4429 C 61.9381 26.4429 62.5336 26.9079 62.5206 27.4698 C 62.5081 28.0046 61.9454 28.4301 61.2469 28.433 L 26.4073 28.5688 C 25.7362 28.5714 25.1659 28.1819 25.0915 27.67 L 25.0726 27.5407 C 24.9875 26.9556 25.5778 26.4487 26.3451 26.4493 Z" stroke-linecap="round"/>
</g>
		<g transform="matrix(1 0 0 1 -0.8581 -7.9337)">
<path style="stroke: none; stroke-width: 1; stroke-dasharray: none; stroke-linecap: butt; stroke-dashoffset: 0; stroke-linejoin: miter; stroke-miterlimit: 4; is-custom-font: none; font-file-url: none; fill: rgb(189,208,251); fill-rule: nonzero; opacity: 1;" transform=" translate(-39.6419, -32.0663)" d="M 26.0677 31.0824 C 30.7395 31.0618 48.6734 30.9571 53.2019 30.9307 C 53.773 30.9272 54.2337 31.3899 54.2195 31.9521 C 54.2061 32.4869 53.7652 32.9147 53.2214 32.9205 L 26.1014 33.2019 C 25.5791 33.2074 25.1376 32.8203 25.0832 32.3087 L 25.0696 32.1794 C 25.0074 31.5945 25.4701 31.0856 26.0674 31.0827 L 26.0677 31.0824 Z" stroke-linecap="round"/>
</g>
		<g transform="matrix(1 0 0 1 3.2336 -1.7947)">
<path style="stroke: none; stroke-width: 1; stroke-dasharray: none; stroke-linecap: butt; stroke-dashoffset: 0; stroke-linejoin: miter; stroke-miterlimit: 4; is-custom-font: none; font-file-url: none; fill: rgb(189,208,251); fill-rule: nonzero; opacity: 1;" transform=" translate(-43.7336, -38.2053)" d="M 26.2861 37.1487 C 32.2879 37.1531 55.3273 37.1447 61.1451 37.1423 C 61.879 37.1423 62.4746 37.6074 62.4615 38.1692 C 62.449 38.704 61.8863 39.1299 61.1878 39.1325 L 26.3483 39.2682 C 25.6771 39.2708 25.1069 38.8813 25.0324 38.3695 L 25.0136 38.2402 C 24.9284 37.6551 25.5187 37.1481 26.2861 37.1487 Z" stroke-linecap="round"/>
</g>
		<g transform="matrix(1 0 0 1 -1.1031 2.9187)">
<path style="stroke: none; stroke-width: 1; stroke-dasharray: none; stroke-linecap: butt; stroke-dashoffset: 0; stroke-linejoin: miter; stroke-miterlimit: 4; is-custom-font: none; font-file-url: none; fill: rgb(189,208,251); fill-rule: nonzero; opacity: 1;" transform=" translate(-39.3969, -42.9187)" d="M 25.764 41.8591 C 30.4578 41.8679 48.4766 41.8766 53.0266 41.8786 C 53.6007 41.8786 54.0605 42.3445 54.0433 42.9064 C 54.0268 43.4412 53.5815 43.8661 53.035 43.8685 L 25.786 43.9783 C 25.2611 43.9804 24.8199 43.5906 24.7682 43.0787 L 24.7551 42.9494 C 24.6958 42.3643 25.1637 41.858 25.764 41.8591 Z" stroke-linecap="round"/>
</g>
		<g transform="matrix(1 0 0 1 2.9377 9.1233)">
<path style="stroke: none; stroke-width: 1; stroke-dasharray: none; stroke-linecap: butt; stroke-dashoffset: 0; stroke-linejoin: miter; stroke-miterlimit: 4; is-custom-font: none; font-file-url: none; fill: rgb(189,208,251); fill-rule: nonzero; opacity: 1;" transform=" translate(-43.4377, -49.1233)" d="M 25.9902 48.0667 C 31.992 48.0711 55.0314 48.0626 60.8492 48.0603 C 61.5831 48.0603 62.1787 48.5254 62.1656 49.0872 C 62.1531 49.622 61.5904 50.0475 60.8919 50.0504 L 26.0524 50.1862 C 25.3812 50.1888 24.811 49.7993 24.7365 49.2875 L 24.7177 49.1581 C 24.6325 48.573 25.2228 48.0661 25.9902 48.0667 Z" stroke-linecap="round"/>
</g>
		<g transform="matrix(1 0 0 1 -1.2394 13.7809)">
<path style="stroke: none; stroke-width: 1; stroke-dasharray: none; stroke-linecap: butt; stroke-dashoffset: 0; stroke-linejoin: miter; stroke-miterlimit: 4; is-custom-font: none; font-file-url: none; fill: rgb(189,208,251); fill-rule: nonzero; opacity: 1;" transform=" translate(-39.2606, -53.7809)" d="M 25.6277 52.7213 C 30.3216 52.73 48.3404 52.7388 52.8904 52.7408 C 53.4644 52.7408 53.9243 53.2067 53.9071 53.7686 C 53.8905 54.3034 53.4452 54.7283 52.8988 54.7306 L 25.6498 54.8405 C 25.1249 54.8425 24.6837 54.4528 24.6319 53.9409 L 24.6188 53.8116 C 24.5595 53.2265 25.0275 52.7202 25.6277 52.7213 Z" stroke-linecap="round"/>
</g>
		<g transform="matrix(1 0 0 1 3.2926 19.9143)">
<path style="stroke: none; stroke-width: 1; stroke-dasharray: none; stroke-linecap: butt; stroke-dashoffset: 0; stroke-linejoin: miter; stroke-miterlimit: 4; is-custom-font: none; font-file-url: none; fill: rgb(189,208,251); fill-rule: nonzero; opacity: 1;" transform=" translate(-43.7926, -59.9143)" d="M 26.3451 58.8577 C 32.347 58.8621 55.3863 58.8536 61.2042 58.8513 C 61.9381 58.8513 62.5336 59.3164 62.5206 59.8782 C 62.5081 60.413 61.9454 60.8386 61.2469 60.8415 L 26.4073 60.9772 C 25.7362 60.9798 25.1659 60.5903 25.0915 60.0785 L 25.0726 59.9491 C 24.9875 59.364 25.5778 58.8571 26.3451 58.8577 Z" stroke-linecap="round"/>
</g>
		<g transform="matrix(1 0 0 1 -1.0332 25.0609)">
<path style="stroke: none; stroke-width: 1; stroke-dasharray: none; stroke-linecap: butt; stroke-dashoffset: 0; stroke-linejoin: miter; stroke-miterlimit: 4; is-custom-font: none; font-file-url: none; fill: rgb(189,208,251); fill-rule: nonzero; opacity: 1;" transform=" translate(-39.4668, -65.0609)" d="M 26.0052 64.0164 C 30.6397 64.0164 48.431 63.9926 52.9234 63.9865 C 53.4902 63.9856 53.9448 64.4503 53.9282 65.0122 C 53.9125 65.547 53.4731 65.9728 52.9336 65.976 L 26.0287 66.1353 C 25.5105 66.1385 25.0745 65.7493 25.0231 65.2374 L 25.01 65.1081 C 24.951 64.523 25.4125 64.0161 26.0052 64.0161 V 64.0164 Z" stroke-linecap="round"/>
</g>
		<g transform="matrix(1 0 0 1 -9.1095 -23.7748)">
<linearGradient id="SVGID_1803" gradientUnits="userSpaceOnUse" gradientTransform="matrix(1 0 0 1 0 0)" x1="26.2739" y1="16.225" x2="36.5072" y2="16.225">
<stop offset="0%" style="stop-color:rgb(218,227,254);stop-opacity: 1"/>
<stop offset="100%" style="stop-color:rgb(233,239,253);stop-opacity: 1"/>
</linearGradient>
<path style="stroke: none; stroke-width: 1; stroke-dasharray: none; stroke-linecap: butt; stroke-dashoffset: 0; stroke-linejoin: miter; stroke-miterlimit: 4; is-custom-font: none; font-file-url: none; fill: url(#SVGID_1803); fill-rule: nonzero; opacity: 1;" transform=" translate(-31.3905, -16.2251)" d="M 29.177 18.493 L 27.9068 22.3396 H 26.2739 L 30.4289 10.1107 H 32.3342 L 36.5072 22.3396 H 34.8199 L 33.5134 18.493 H 29.177 Z M 33.1867 17.2592 L 31.9892 13.7393 C 31.7171 12.9412 31.5357 12.2151 31.3541 11.5076 H 31.3177 C 31.1364 12.2334 30.9367 12.9772 30.701 13.7213 L 29.5034 17.2592 H 33.1867 Z" stroke-linecap="round"/>
</g>
		<g transform="matrix(1 0 0 1 28.7714 -7.6496)">
<linearGradient id="SVGID_1804" gradientUnits="userSpaceOnUse" gradientTransform="matrix(1 0 0 1 0 0)" x1="63.5693" y1="20.8983" x2="70.6006" y2="36.3991">
<stop offset="0%" style="stop-color:rgb(225,71,61);stop-opacity: 1"/>
<stop offset="100%" style="stop-color:rgb(233,96,90);stop-opacity: 1"/>
</linearGradient>
<path style="stroke: none; stroke-width: 1; stroke-dasharray: none; stroke-linecap: butt; stroke-dashoffset: 0; stroke-linejoin: miter; stroke-miterlimit: 4; is-custom-font: none; font-file-url: none; fill: url(#SVGID_1804); fill-rule: nonzero; opacity: 1;" transform=" translate(-69.2714, -32.3504)" d="M 66.2158 25.2651 C 66.2158 25.2651 67.4397 25.8604 67.6647 26.5443 C 67.8452 27.0931 69.1985 27.1637 69.3322 28.2429 C 69.4011 28.8001 69.8135 29.2463 70.3684 29.3315 C 71.7505 29.5433 73.8807 30.261 74.2214 32.661 C 74.4815 34.4927 73.5476 35.1874 72.5678 35.4277 C 71.8481 35.6042 71.3697 36.3044 71.5153 37.031 C 71.6549 37.728 71.4467 38.5337 70.2393 39.1709 C 67.5333 40.5986 64.8311 35.7882 64.8311 35.7882 L 64.2773 27.389 L 66.2158 25.2651 Z" stroke-linecap="round"/>
</g>
		<g transform="matrix(1 0 0 1 16.7426 -9.6412)">
<linearGradient id="SVGID_1805" gradientUnits="userSpaceOnUse" gradientTransform="matrix(1 0 0 1 0 0)" x1="55.5286" y1="27.309" x2="65.2995" y2="40.8137">
<stop offset="0%" style="stop-color:rgb(254,187,186);stop-opacity: 1"/>
<stop offset="100%" style="stop-color:rgb(255,146,142);stop-opacity: 1"/>
</linearGradient>
<path style="stroke: none; stroke-width: 1; stroke-dasharray: none; stroke-linecap: butt; stroke-dashoffset: 0; stroke-linejoin: miter; stroke-miterlimit: 4; is-custom-font: none; font-file-url: none; fill: url(#SVGID_1805); fill-rule: nonzero; opacity: 1;" transform=" translate(-57.2425, -30.3588)" d="M 51.4918 23.2738 C 51.4918 23.2738 56.8946 31.8195 63.3191 33.4701 C 63.3191 33.4701 62.0672 37.0356 61.101 37.4437 C 61.101 37.4437 53.1971 30.8487 51.166 24.4882 L 51.4918 23.2738 Z" stroke-linecap="round"/>
</g>
		<g transform="matrix(1 0 0 1 38.3732 38.6696)">
<linearGradient id="SVGID_1806" gradientUnits="userSpaceOnUse" gradientTransform="matrix(1 0 0 1 0 0)" x1="83.5767" y1="16.8625" x2="80.1873" y2="61.3894">
<stop offset="0%" style="stop-color:rgb(79,82,255);stop-opacity: 1"/>
<stop offset="100%" style="stop-color:rgb(64,66,226);stop-opacity: 1"/>
</linearGradient>
<path style="stroke: none; stroke-width: 1; stroke-dasharray: none; stroke-linecap: butt; stroke-dashoffset: 0; stroke-linejoin: miter; stroke-miterlimit: 4; is-custom-font: none; font-file-url: none; fill: url(#SVGID_1806); fill-rule: nonzero; opacity: 1;" transform=" translate(-78.8732, -78.6696)" d="M 77.338 77.9314 L 77.5129 79.3707 C 77.5461 79.6439 77.7612 79.8596 78.0344 79.891 C 78.4959 79.9436 79.2363 79.9977 79.9609 79.9212 C 80.2789 79.8875 80.4852 79.5655 80.3884 79.2609 C 80.2117 78.7051 79.8888 77.8709 79.4229 77.38 H 77.826 C 77.5307 77.38 77.3019 77.6381 77.3377 77.9314 H 77.338 Z" stroke-linecap="round"/>
</g>
		<g transform="matrix(1 0 0 1 25.272 30.3497)">
<linearGradient id="SVGID_1807" gradientUnits="userSpaceOnUse" gradientTransform="matrix(1 0 0 1 0 0)" x1="64.3263" y1="90.8097" x2="68.7565" y2="39.032">
<stop offset="0%" style="stop-color:rgb(254,187,186);stop-opacity: 1"/>
<stop offset="100%" style="stop-color:rgb(255,146,142);stop-opacity: 1"/>
</linearGradient>
<path style="stroke: none; stroke-width: 1; stroke-dasharray: none; stroke-linecap: butt; stroke-dashoffset: 0; stroke-linejoin: miter; stroke-miterlimit: 4; is-custom-font: none; font-file-url: none; fill: url(#SVGID_1807); fill-rule: nonzero; opacity: 1;" transform=" translate(-65.772, -70.3497)" d="M 64.8312 61.0688 L 64.5617 62.6544 C 64.5617 62.6544 65.4642 71.7968 65.625 75.4536 C 65.6503 76.027 65.5017 76.5935 65.2009 77.0821 L 63.6313 79.6306 L 67.6201 77.2769 L 67.6994 76.79 L 67.0466 75.8922 L 67.9017 65.6505 C 67.952 65.0488 67.8279 64.4454 67.5442 63.9127 L 66.7193 62.3629 L 64.8315 61.0688 H 64.8312 Z" stroke-linecap="round"/>
</g>
		<g transform="matrix(1 0 0 1 25.0229 38.1078)">
<linearGradient id="SVGID_1808" gradientUnits="userSpaceOnUse" gradientTransform="matrix(1 0 0 1 0 0)" x1="70.2969" y1="15.8511" x2="66.9072" y2="60.3778">
<stop offset="0%" style="stop-color:rgb(79,82,255);stop-opacity: 1"/>
<stop offset="100%" style="stop-color:rgb(64,66,226);stop-opacity: 1"/>
</linearGradient>
<path style="stroke: none; stroke-width: 1; stroke-dasharray: none; stroke-linecap: butt; stroke-dashoffset: 0; stroke-linejoin: miter; stroke-miterlimit: 4; is-custom-font: none; font-file-url: none; fill: url(#SVGID_1808); fill-rule: nonzero; opacity: 1;" transform=" translate(-65.5228, -78.1078)" d="M 63.3685 80 H 64.6413 C 64.8796 80 65.1043 79.8907 65.2496 79.7017 C 65.6464 79.1861 66.4686 78.1801 66.8616 78.154 C 67.3909 78.1185 67.3232 80 67.3232 80 H 67.6199 L 67.9958 77.6622 C 68.0902 77.0739 67.7978 76.4914 67.2697 76.2156 C 67.2697 76.2156 67.1488 77.1102 66.4928 77.5058 C 65.8367 77.9014 63.8236 79.3187 63.8236 79.3187 C 63.8236 79.3187 63.5772 79.2835 63.3063 79.3323 C 62.9046 79.405 62.9607 79.9997 63.3688 79.9997 L 63.3685 80 Z" stroke-linecap="round"/>
</g>
		<g transform="matrix(1 0 0 1 34.5737 30.1201)">
<linearGradient id="SVGID_1809" gradientUnits="userSpaceOnUse" gradientTransform="matrix(1 0 0 1 0 0)" x1="73.2377" y1="91.5801" x2="77.6688" y2="39.7887">
<stop offset="0%" style="stop-color:rgb(254,187,186);stop-opacity: 1"/>
<stop offset="100%" style="stop-color:rgb(255,146,142);stop-opacity: 1"/>
</linearGradient>
<path style="stroke: none; stroke-width: 1; stroke-dasharray: none; stroke-linecap: butt; stroke-dashoffset: 0; stroke-linejoin: miter; stroke-miterlimit: 4; is-custom-font: none; font-file-url: none; fill: url(#SVGID_1809); fill-rule: nonzero; opacity: 1;" transform=" translate(-75.0737, -70.1201)" d="M 70.2939 61.8219 C 70.2939 61.8219 75.5816 71.8519 76.4219 74.1417 C 77.2625 76.4318 77.5569 78.3421 77.5683 78.5231 C 77.586 78.806 77.9374 79.0768 78.9068 79.0768 C 79.407 79.0768 79.6517 78.8763 79.7718 78.6824 C 79.8741 78.5167 79.8793 78.3098 79.7933 78.1351 C 79.4875 77.516 78.5167 75.5381 78.1574 74.6408 C 77.7281 73.5697 76.805 68.7151 76.2987 67.0273 C 75.7923 65.3394 75.22 63.5086 73.0151 61.8222 C 73.0151 61.8222 71.5013 60.3398 70.2942 61.8222 L 70.2939 61.8219 Z" stroke-linecap="round"/>
</g>
		<g transform="matrix(1 0 0 1 23.7799 -0.2509)">
<linearGradient id="SVGID_1810" gradientUnits="userSpaceOnUse" gradientTransform="matrix(1 0 0 1 0 0)" x1="59.5151" y1="39.7489" x2="69.0452" y2="39.7489">
<stop offset="0%" style="stop-color:rgb(218,227,254);stop-opacity: 1"/>
<stop offset="100%" style="stop-color:rgb(233,239,253);stop-opacity: 1"/>
</linearGradient>
<path style="stroke: none; stroke-width: 1; stroke-dasharray: none; stroke-linecap: butt; stroke-dashoffset: 0; stroke-linejoin: miter; stroke-miterlimit: 4; is-custom-font: none; font-file-url: none; fill: url(#SVGID_1810); fill-rule: nonzero; opacity: 1;" transform=" translate(-64.2799, -39.7491)" d="M 66.9539 45.3874 C 65.5899 39.6079 69.0452 36.3389 69.0452 36.3389 C 66.865 34.2461 62.8925 33.2939 62.8925 33.2939 C 62.8925 33.2939 59.1021 36.0651 59.5517 38.2343 C 59.8153 39.5056 62.2162 45.849 62.2162 45.849 C 62.2162 45.849 64.4362 46.8997 66.9539 45.3874 Z" stroke-linecap="round"/>
</g>
		<g transform="matrix(1 0 0 1 27.0617 14.1171)">
<linearGradient id="SVGID_1811" gradientUnits="userSpaceOnUse" gradientTransform="matrix(1 0 0 1 0 0)" x1="76.6381" y1="39.6039" x2="65.5619" y2="57.3257">
<stop offset="0%" style="stop-color:rgb(225,71,61);stop-opacity: 1"/>
<stop offset="100%" style="stop-color:rgb(233,96,90);stop-opacity: 1"/>
</linearGradient>
<path style="stroke: none; stroke-width: 1; stroke-dasharray: none; stroke-linecap: butt; stroke-dashoffset: 0; stroke-linejoin: miter; stroke-miterlimit: 4; is-custom-font: none; font-file-url: none; fill: url(#SVGID_1811); fill-rule: nonzero; opacity: 1;" transform=" translate(-67.5616, -54.1171)" d="M 69.9779 48.2487 C 69.4227 46.5765 66.9539 45.3875 66.9539 45.3875 C 64.4362 46.8995 62.2161 45.849 62.2161 45.849 C 62.2161 45.849 61.7182 47.752 62.0618 49.5203 C 62.4054 51.2887 64.5612 62.6543 64.5612 62.6543 C 67.9581 63.3426 73.1824 61.962 73.1824 61.962 C 71.0188 58.1204 70.5328 49.9212 69.9776 48.2487 H 69.9779 Z" stroke-linecap="round"/>
</g>
		<g transform="matrix(1 0 0 1 24.3622 -8.0995)">
<linearGradient id="SVGID_1812" gradientUnits="userSpaceOnUse" gradientTransform="matrix(1 0 0 1 0 0)" x1="63.8403" y1="39.7724" x2="64.6724" y2="33.6843">
<stop offset="0%" style="stop-color:rgb(254,187,186);stop-opacity: 1"/>
<stop offset="100%" style="stop-color:rgb(255,146,142);stop-opacity: 1"/>
</linearGradient>
<path style="stroke: none; stroke-width: 1; stroke-dasharray: none; stroke-linecap: butt; stroke-dashoffset: 0; stroke-linejoin: miter; stroke-miterlimit: 4; is-custom-font: none; font-file-url: none; fill: url(#SVGID_1812); fill-rule: nonzero; opacity: 1;" transform=" translate(-64.8622, -31.9006)" d="M 65.3706 29.4744 L 66.4795 34.4554 C 66.5856 34.894 66.1856 34.8222 65.7421 34.7388 C 65.0157 34.6019 64.0795 34.3197 63.7665 33.7546 C 63.7345 33.6971 63.7188 33.632 63.7098 33.5669 L 63.2334 30.113 C 63.1956 29.8389 63.3438 29.5729 63.5967 29.4607 L 64.5161 29.0532 C 64.8701 28.8963 65.2796 29.0983 65.3709 29.4747 L 65.3706 29.4744 Z" stroke-linecap="round"/>
</g>
		<g transform="matrix(1 0 0 1 27.9014 0.0204)">
<linearGradient id="SVGID_1813" gradientUnits="userSpaceOnUse" gradientTransform="matrix(1 0 0 1 0 0)" x1="81.0641" y1="45.558" x2="62.2753" y2="37.6977">
<stop offset="0%" style="stop-color:rgb(254,187,186);stop-opacity: 1"/>
<stop offset="100%" style="stop-color:rgb(255,146,142);stop-opacity: 1"/>
</linearGradient>
<path style="stroke: none; stroke-width: 1; stroke-dasharray: none; stroke-linecap: butt; stroke-dashoffset: 0; stroke-linejoin: miter; stroke-miterlimit: 4; is-custom-font: none; font-file-url: none; fill: url(#SVGID_1813); fill-rule: nonzero; opacity: 1;" transform=" translate(-68.4014, -40.0204)" d="M 69.0451 36.3389 C 69.0451 36.3389 79.7486 46.9343 64.2259 42.7049 C 64.2259 42.7049 64.0489 41.3655 64.28 41.3885 C 69.3136 41.8907 71.4192 43.0432 67.3273 39.0754 C 67.1825 38.935 67.2273 38.4057 67.3203 38.227 C 67.6037 37.6826 68.2516 36.6019 69.0451 36.3389 Z" stroke-linecap="round"/>
</g>
		<g transform="matrix(1 0 0 1 23.2712 -12.3768)">
<linearGradient id="SVGID_1814" gradientUnits="userSpaceOnUse" gradientTransform="matrix(1 0 0 1 0 0)" x1="62.3545" y1="32.4378" x2="66.9674" y2="18.3511">
<stop offset="0%" style="stop-color:rgb(254,187,186);stop-opacity: 1"/>
<stop offset="100%" style="stop-color:rgb(255,146,142);stop-opacity: 1"/>
</linearGradient>
<path style="stroke: none; stroke-width: 1; stroke-dasharray: none; stroke-linecap: butt; stroke-dashoffset: 0; stroke-linejoin: miter; stroke-miterlimit: 4; is-custom-font: none; font-file-url: none; fill: url(#SVGID_1814); fill-rule: nonzero; opacity: 1;" transform=" translate(-63.7712, -27.6232)" d="M 63.2467 24.9337 C 63.2467 24.9337 62.0661 25.7327 61.5589 27.7679 C 61.0517 29.8031 61.876 30.533 62.7209 30.4882 C 63.5659 30.4435 64.7913 30.1821 65.8528 28.7222 C 66.9143 27.2622 64.7936 23.9571 63.2464 24.9337 H 63.2467 Z" stroke-linecap="round"/>
</g>
		<g transform="matrix(1 0 0 1 24.1897 -13.7403)">
<linearGradient id="SVGID_1815" gradientUnits="userSpaceOnUse" gradientTransform="matrix(1 0 0 1 0 0)" x1="62.6113" y1="21.3328" x2="69.6427" y2="36.8336">
<stop offset="0%" style="stop-color:rgb(225,71,61);stop-opacity: 1"/>
<stop offset="100%" style="stop-color:rgb(233,96,90);stop-opacity: 1"/>
</linearGradient>
<path style="stroke: none; stroke-width: 1; stroke-dasharray: none; stroke-linecap: butt; stroke-dashoffset: 0; stroke-linejoin: miter; stroke-miterlimit: 4; is-custom-font: none; font-file-url: none; fill: url(#SVGID_1815); fill-rule: nonzero; opacity: 1;" transform=" translate(-64.6897, -26.2598)" d="M 64.7823 27.9017 C 64.7823 27.9017 65.2148 24.9855 62.7936 25.4316 L 62.3041 25.9415 C 62.3041 25.9415 61.1191 24.6067 62.4305 23.5979 C 63.742 22.589 65.5618 22.8474 66.5687 24.6841 C 67.5755 26.5207 67.9409 27.8113 67.0971 28.9527 C 66.253 30.0938 65.6182 29.1152 65.6182 29.1152 C 65.6182 29.1152 66.0054 28.1275 65.6842 27.7034 C 65.363 27.2796 64.9488 27.9499 64.9488 27.9499 L 64.7823 27.9019 V 27.9017 Z" stroke-linecap="round"/>
</g>
		<g transform="matrix(1 0 0 1 25.24 -12.0924)">
<linearGradient id="SVGID_1816" gradientUnits="userSpaceOnUse" gradientTransform="matrix(1 0 0 1 0 0)" x1="64.0394" y1="32.9898" x2="68.6524" y2="18.9028">
<stop offset="0%" style="stop-color:rgb(254,187,186);stop-opacity: 1"/>
<stop offset="100%" style="stop-color:rgb(255,146,142);stop-opacity: 1"/>
</linearGradient>
<path style="stroke: none; stroke-width: 1; stroke-dasharray: none; stroke-linecap: butt; stroke-dashoffset: 0; stroke-linejoin: miter; stroke-miterlimit: 4; is-custom-font: none; font-file-url: none; fill: url(#SVGID_1816); fill-rule: nonzero; opacity: 1;" transform=" translate(-65.74, -27.9075)" d="M 65.1133 28.1513 C 65.1133 28.1513 65.3269 26.6509 66.0931 27.0799 C 66.8593 27.509 65.817 28.4815 65.399 28.8123 L 65.1133 28.1513 Z" stroke-linecap="round"/>
</g>
		<g transform="matrix(1 0 0 1 9.7684 -17.3717)">
<linearGradient id="SVGID_1817" gradientUnits="userSpaceOnUse" gradientTransform="matrix(1 0 0 1 0 0)" x1="54.3561" y1="28.1575" x2="64.1269" y2="41.6623">
<stop offset="0%" style="stop-color:rgb(254,187,186);stop-opacity: 1"/>
<stop offset="100%" style="stop-color:rgb(255,146,142);stop-opacity: 1"/>
</linearGradient>
<path style="stroke: none; stroke-width: 1; stroke-dasharray: none; stroke-linecap: butt; stroke-dashoffset: 0; stroke-linejoin: miter; stroke-miterlimit: 4; is-custom-font: none; font-file-url: none; fill: url(#SVGID_1817); fill-rule: nonzero; opacity: 1;" transform=" translate(-50.2683, -22.6283)" d="M 51.5291 25.0331 C 51.5129 25.2093 52.1683 25.3313 52.377 24.5797 C 52.3197 24.2533 52.2177 22.8247 51.9678 22.6026 C 50.6354 21.4205 48.2595 20.0905 48.2595 20.0905 C 47.9939 20.4962 48.3424 20.7633 48.3424 20.7633 L 49.5283 21.5638 C 49.4044 21.9736 49.2239 22.3358 49.2036 22.8038 C 49.1882 23.1581 49.319 23.5048 49.5541 23.7737 C 49.7901 24.0434 50.1078 24.3916 50.3944 24.6558 C 50.9365 25.1561 51.5294 25.0331 51.5294 25.0331 H 51.5291 Z" stroke-linecap="round"/>
</g>
		<g transform="matrix(1 0 0 1 10.2535 -16.7696)">
<linearGradient id="SVGID_1818" gradientUnits="userSpaceOnUse" gradientTransform="matrix(1 0 0 1 0 0)" x1="51.6568" y1="23.2302" x2="49.8507" y2="23.2302">
<stop offset="0%" style="stop-color:rgb(254,187,186);stop-opacity: 1"/>
<stop offset="100%" style="stop-color:rgb(255,146,142);stop-opacity: 1"/>
</linearGradient>
<path style="stroke: none; stroke-width: 1; stroke-dasharray: none; stroke-linecap: butt; stroke-dashoffset: 0; stroke-linejoin: miter; stroke-miterlimit: 4; is-custom-font: none; font-file-url: none; fill: url(#SVGID_1818); fill-rule: nonzero; opacity: 1;" transform=" translate(-50.7536, -23.2304)" d="M 50.8848 24.4507 L 51.0662 24.376 C 51.0421 24.3173 50.473 22.9343 50.1977 22.6466 C 50.0931 22.5373 50.0425 22.444 50.0472 22.3687 C 50.0495 22.328 50.0695 22.2876 50.1079 22.2466 L 51.0677 22.7599 L 51.4914 23.4235 L 51.6565 23.318 L 51.2051 22.6111 L 50.0812 22.01 L 50.0303 22.0513 C 49.9166 22.1443 49.8579 22.244 49.8513 22.3568 C 49.8431 22.4908 49.9097 22.63 50.0556 22.7826 C 50.2631 22.9991 50.7244 24.0603 50.8848 24.4507 Z" stroke-linecap="round"/>
</g>
		<g transform="matrix(1 0 0 1 18.4614 0.1877)">
<linearGradient id="SVGID_1819" gradientUnits="userSpaceOnUse" gradientTransform="matrix(1 0 0 1 0 0)" x1="60.3253" y1="34.4869" x2="54.2615" y2="59.7524">
<stop offset="0%" style="stop-color:rgb(9,0,93);stop-opacity: 1"/>
<stop offset="100%" style="stop-color:rgb(26,15,145);stop-opacity: 1"/>
</linearGradient>
<path style="stroke: none; stroke-width: 1; stroke-dasharray: none; stroke-linecap: butt; stroke-dashoffset: 0; stroke-linejoin: miter; stroke-miterlimit: 4; is-custom-font: none; font-file-url: none; fill: url(#SVGID_1819); fill-rule: nonzero; opacity: 1;" transform=" translate(-58.9614, -40.1876)" d="M 64.7523 44.5434 L 62.3116 36.0204 C 62.2518 35.8108 62.0713 35.6582 61.8547 35.6332 C 61.2711 35.5667 60.0384 35.4315 58.6389 35.3132 C 56.9391 35.1694 54.9925 35.0502 53.6631 35.1074 C 53.2745 35.1243 53.0332 35.5379 53.2064 35.8861 C 54.1613 37.8053 56.8339 43.0875 58.2886 45.0622 C 58.3918 45.202 58.5549 45.284 58.7287 45.2825 L 64.2387 45.2314 C 64.595 45.2282 64.8505 44.8861 64.7523 44.5434 Z" stroke-linecap="round"/>
</g>
		<g transform="matrix(1 0 0 1 22.2503 1.1712)">
<linearGradient id="SVGID_1820" gradientUnits="userSpaceOnUse" gradientTransform="matrix(1 0 0 1 0 0)" x1="64.4759" y1="41.1711" x2="61.0249" y2="41.1711">
<stop offset="0%" style="stop-color:rgb(254,187,186);stop-opacity: 1"/>
<stop offset="100%" style="stop-color:rgb(255,146,142);stop-opacity: 1"/>
</linearGradient>
<path style="stroke: none; stroke-width: 1; stroke-dasharray: none; stroke-linecap: butt; stroke-dashoffset: 0; stroke-linejoin: miter; stroke-miterlimit: 4; is-custom-font: none; font-file-url: none; fill: url(#SVGID_1820); fill-rule: nonzero; opacity: 1;" transform=" translate(-62.7503, -41.1712)" d="M 64.2259 42.7049 C 64.2259 42.7049 64.5866 41.2211 64.4413 40.6947 C 64.2957 40.1683 64.0137 39.4914 63.0738 39.642 C 62.1338 39.7922 61.0249 40.1884 61.0249 40.1884 C 61.0249 40.1884 61.081 40.8741 61.7954 40.6529 L 61.3525 40.9956 C 61.3525 40.9956 61.4158 41.5446 62.0192 41.2513 L 61.6071 41.7059 C 61.6071 41.7059 61.8664 42.1567 62.3102 41.8675 C 62.754 41.5783 62.9671 42.8834 64.2259 42.7049 Z" stroke-linecap="round"/>
</g>
</g>
</g>
<g transform="matrix(1 0 0 1 577.7472 958.4749)" style="" id="420689">
		
<path xml:space="preserve" font-family="Lato" font-size="108" font-style="normal" font-weight="normal" style="stroke: none; stroke-width: 0; stroke-dasharray: none; stroke-linecap: butt; stroke-dashoffset: 0; stroke-linejoin: miter; stroke-miterlimit: 4; is-custom-font: none; font-file-url: none; fill: rgb(0,0,0); fill-rule: nonzero; opacity: 1; white-space: pre;" d="M-303.24-4.74L-303.24-4.74Q-303.24 3.96-305.99 11.09Q-308.74 18.21-313.77 23.29Q-318.79 28.37-325.81 31.15Q-332.83 33.93-341.36 33.93L-341.36 33.93L-370.30 33.93L-370.30-43.45L-341.36-43.45Q-332.83-43.45-325.81-40.67Q-318.79-37.89-313.77-32.79Q-308.74-27.69-305.99-20.56Q-303.24-13.43-303.24-4.74ZM-313.98-4.74L-313.98-4.74Q-313.98-11.86-315.93-17.48Q-317.87-23.10-321.43-26.98Q-325.00-30.87-330.07-32.92Q-335.15-34.98-341.36-34.98L-341.36-34.98L-359.77-34.98L-359.77 25.45L-341.36 25.45Q-335.15 25.45-330.07 23.40Q-325.00 21.35-321.43 17.48Q-317.87 13.62-315.93 8.01Q-313.98 2.39-313.98-4.74ZM-268.35-21.64L-268.35-21.64Q-262.36-21.64-257.52-19.64Q-252.69-17.64-249.32-13.97Q-245.94-10.30-244.13-5.09Q-242.32 0.12-242.32 6.55L-242.32 6.55Q-242.32 13.03-244.13 18.21Q-245.94 23.40-249.32 27.07Q-252.69 30.74-257.52 32.71Q-262.36 34.68-268.35 34.68L-268.35 34.68Q-274.35 34.68-279.18 32.71Q-284.01 30.74-287.41 27.07Q-290.82 23.40-292.65 18.21Q-294.49 13.03-294.49 6.55L-294.49 6.55Q-294.49 0.12-292.65-5.09Q-290.82-10.30-287.41-13.97Q-284.01-17.64-279.18-19.64Q-274.35-21.64-268.35-21.64ZM-268.35 27.18L-268.35 27.18Q-260.25 27.18-256.26 21.75Q-252.26 16.32-252.26 6.60L-252.26 6.60Q-252.26-3.17-256.26-8.62Q-260.25-14.08-268.35-14.08L-268.35-14.08Q-272.46-14.08-275.48-12.67Q-278.50-11.27-280.53-8.62Q-282.55-5.98-283.55-2.12Q-284.55 1.74-284.55 6.60L-284.55 6.60Q-284.55 11.46-283.55 15.30Q-282.55 19.13-280.53 21.75Q-278.50 24.37-275.48 25.77Q-272.46 27.18-268.35 27.18ZM-190.59-14.51L-193.13-11.05Q-193.56-10.46-193.99-10.14Q-194.43-9.81-195.24-9.81L-195.24-9.81Q-196.05-9.81-196.99-10.49Q-197.94-11.16-199.39-11.97Q-200.85-12.78-202.93-13.46Q-205.01-14.13-208.03-14.13L-208.03-14.13Q-212.03-14.13-215.11-12.70Q-218.19-11.27-220.26-8.57Q-222.34-5.87-223.40-2.04Q-224.45 1.80-224.45 6.55L-224.45 6.55Q-224.45 11.52-223.32 15.38Q-222.18 19.24-220.13 21.86Q-218.08 24.48-215.13 25.85Q-212.19 27.23-208.52 27.23L-208.52 27.23Q-205.01 27.23-202.74 26.39Q-200.47 25.56-198.96 24.53Q-197.45 23.51-196.48 22.67Q-195.51 21.83-194.53 21.83L-194.53 21.83Q-193.29 21.83-192.70 22.75L-192.70 22.75L-190.00 26.26Q-193.56 30.63-198.91 32.66Q-204.25 34.68-210.19 34.68L-210.19 34.68Q-215.32 34.68-219.72 32.79Q-224.13 30.90-227.37 27.31Q-230.61 23.72-232.47 18.48Q-234.33 13.25-234.33 6.55L-234.33 6.55Q-234.33 0.45-232.63-4.74Q-230.93-9.92-227.66-13.67Q-224.40-17.43-219.59-19.53Q-214.78-21.64-208.57-21.64L-208.57-21.64Q-202.85-21.64-198.42-19.78Q-193.99-17.91-190.59-14.51L-190.59-14.51ZM-181.30-20.77L-171.69-20.77L-171.69 14.11Q-171.69 20.32-168.83 23.72Q-165.97 27.12-160.19 27.12L-160.19 27.12Q-155.98 27.12-152.25 25.13Q-148.53 23.13-145.39 19.56L-145.39 19.56L-145.39-20.77L-135.78-20.77L-135.78 33.93L-141.51 33.93Q-143.56 33.93-144.10 31.93L-144.10 31.93L-144.85 26.04Q-148.42 29.99-152.85 32.39Q-157.27 34.79-163.00 34.79L-163.00 34.79Q-167.48 34.79-170.91 33.31Q-174.34 31.82-176.66 29.12Q-178.98 26.42-180.14 22.59Q-181.30 18.75-181.30 14.11L-181.30 14.11L-181.30-20.77ZM-110.35 33.93L-119.96 33.93L-119.96-20.77L-114.24-20.77Q-112.18-20.77-111.64-18.78L-111.64-18.78L-110.94-13.16Q-107.92-16.89-104.16-19.26Q-100.41-21.64-95.44-21.64L-95.44-21.64Q-89.88-21.64-86.45-18.56Q-83.02-15.48-81.51-10.24L-81.51-10.24Q-80.38-13.21-78.51-15.37Q-76.65-17.53-74.33-18.94Q-72.01-20.34-69.39-20.99Q-66.77-21.64-64.07-21.64L-64.07-21.64Q-59.75-21.64-56.37-20.26Q-53.00-18.88-50.65-16.24Q-48.30-13.59-47.06-9.73Q-45.82-5.87-45.82-0.90L-45.82-0.90L-45.82 33.93L-55.43 33.93L-55.43-0.90Q-55.43-7.33-58.24-10.65Q-61.05-13.97-66.39-13.97L-66.39-13.97Q-68.77-13.97-70.90-13.13Q-73.03-12.30-74.65-10.68Q-76.27-9.06-77.22-6.60Q-78.16-4.14-78.16-0.90L-78.16-0.90L-78.16 33.93L-87.78 33.93L-87.78-0.90Q-87.78-7.49-90.42-10.73Q-93.07-13.97-98.14-13.97L-98.14-13.97Q-101.71-13.97-104.76-12.05Q-107.81-10.14-110.35-6.84L-110.35-6.84L-110.35 33.93ZM-9.64-21.64L-9.64-21.64Q-4.72-21.64-0.57-19.99Q3.59-18.34 6.62-15.24Q9.64-12.13 11.34-7.57Q13.04-3.01 13.04 2.82L13.04 2.82Q13.04 5.09 12.56 5.85Q12.07 6.60 10.72 6.60L10.72 6.60L-25.68 6.60Q-25.57 11.79-24.27 15.62Q-22.98 19.46-20.71 22.02Q-18.44 24.59-15.31 25.85Q-12.18 27.12-8.29 27.12L-8.29 27.12Q-4.67 27.12-2.05 26.29Q0.57 25.45 2.46 24.48Q4.35 23.51 5.62 22.67Q6.89 21.83 7.80 21.83L7.80 21.83Q8.99 21.83 9.64 22.75L9.64 22.75L12.34 26.26Q10.56 28.42 8.07 30.01Q5.59 31.61 2.76 32.63Q-0.08 33.66-3.10 34.17Q-6.13 34.68-9.10 34.68L-9.10 34.68Q-14.77 34.68-19.55 32.77Q-24.33 30.85-27.81 27.15Q-31.29 23.45-33.24 18.00Q-35.18 12.54-35.18 5.47L-35.18 5.47Q-35.18-0.25-33.42-5.22Q-31.67-10.19-28.38-13.84Q-25.08-17.48-20.33-19.56Q-15.58-21.64-9.64-21.64ZM-9.42-14.56L-9.42-14.56Q-16.39-14.56-20.38-10.54Q-24.38-6.52-25.35 0.61L-25.35 0.61L4.40 0.61Q4.40-2.74 3.48-5.52Q2.57-8.30 0.78-10.33Q-1.00-12.35-3.56-13.46Q-6.13-14.56-9.42-14.56ZM34.91 33.93L25.30 33.93L25.30-20.77L31.02-20.77Q33.08-20.77 33.62-18.78L33.62-18.78L34.37-12.84Q37.94-16.78 42.34-19.21Q46.74-21.64 52.52-21.64L52.52-21.64Q57.00-21.64 60.43-20.15Q63.86-18.67 66.15-15.94Q68.45-13.21 69.63-9.38Q70.82-5.55 70.82-0.90L70.82-0.90L70.82 33.93L61.21 33.93L61.21-0.90Q61.21-7.11 58.38-10.54Q55.54-13.97 49.71-13.97L49.71-13.97Q45.44-13.97 41.74-11.92Q38.04-9.87 34.91-6.36L34.91-6.36L34.91 33.93ZM101.93 34.79L101.93 34.79Q95.45 34.79 91.96 31.17Q88.48 27.56 88.48 20.75L88.48 20.75L88.48-12.73L81.89-12.73Q81.03-12.73 80.43-13.24Q79.84-13.75 79.84-14.83L79.84-14.83L79.84-18.67L88.80-19.80L91.02-36.70Q91.13-37.51 91.72-38.03Q92.31-38.54 93.23-38.54L93.23-38.54L98.09-38.54L98.09-19.69L113.75-19.69L113.75-12.73L98.09-12.73L98.09 20.10Q98.09 23.56 99.77 25.23Q101.44 26.91 104.09 26.91L104.09 26.91Q105.60 26.91 106.71 26.50Q107.81 26.10 108.62 25.61Q109.43 25.13 110.00 24.72Q110.57 24.32 111.00 24.32L111.00 24.32Q111.75 24.32 112.35 25.23L112.35 25.23L115.16 29.82Q112.67 32.15 109.16 33.47Q105.65 34.79 101.93 34.79ZM165.81-1.06L165.81 33.93L161.54 33.93Q160.14 33.93 159.27 33.50Q158.41 33.06 158.14 31.66L158.14 31.66L157.06 26.58Q154.90 28.53 152.85 30.07Q150.80 31.61 148.53 32.66Q146.26 33.71 143.70 34.25Q141.13 34.79 138.00 34.79L138.00 34.79Q134.81 34.79 132.03 33.90Q129.25 33.01 127.20 31.23Q125.15 29.45 123.93 26.72Q122.72 23.99 122.72 20.27L122.72 20.27Q122.72 17.03 124.50 14.03Q126.28 11.03 130.25 8.71Q134.22 6.39 140.64 4.90Q147.07 3.42 156.36 3.20L156.36 3.20L156.36-1.06Q156.36-7.44 153.63-10.70Q150.90-13.97 145.56-13.97L145.56-13.97Q142.05-13.97 139.65-13.08Q137.24-12.19 135.49-11.08Q133.73-9.97 132.46-9.08Q131.19-8.19 129.95-8.19L129.95-8.19Q128.98-8.19 128.25-8.71Q127.52-9.22 127.09-9.97L127.09-9.97L125.36-13.05Q129.90-17.43 135.14-19.59Q140.37-21.75 146.75-21.75L146.75-21.75Q151.34-21.75 154.90-20.23Q158.46-18.72 160.89-16.02Q163.32-13.32 164.57-9.49Q165.81-5.65 165.81-1.06L165.81-1.06ZM140.86 28.04L140.86 28.04Q143.40 28.04 145.50 27.53Q147.61 27.02 149.47 26.07Q151.34 25.13 153.04 23.78Q154.74 22.43 156.36 20.70L156.36 20.70L156.36 9.30Q149.72 9.52 145.07 10.36Q140.43 11.19 137.51 12.54Q134.60 13.89 133.27 15.73Q131.95 17.57 131.95 19.83L131.95 19.83Q131.95 21.99 132.65 23.56Q133.35 25.13 134.54 26.12Q135.73 27.12 137.35 27.58Q138.97 28.04 140.86 28.04ZM196.97 34.79L196.97 34.79Q190.49 34.79 187.00 31.17Q183.52 27.56 183.52 20.75L183.52 20.75L183.52-12.73L176.93-12.73Q176.07-12.73 175.47-13.24Q174.88-13.75 174.88-14.83L174.88-14.83L174.88-18.67L183.84-19.80L186.06-36.70Q186.17-37.51 186.76-38.03Q187.35-38.54 188.27-38.54L188.27-38.54L193.13-38.54L193.13-19.69L208.79-19.69L208.79-12.73L193.13-12.73L193.13 20.10Q193.13 23.56 194.81 25.23Q196.48 26.91 199.13 26.91L199.13 26.91Q200.64 26.91 201.75 26.50Q202.85 26.10 203.66 25.61Q204.47 25.13 205.04 24.72Q205.61 24.32 206.04 24.32L206.04 24.32Q206.79 24.32 207.39 25.23L207.39 25.23L210.20 29.82Q207.71 32.15 204.20 33.47Q200.69 34.79 196.97 34.79ZM221.75-20.77L231.36-20.77L231.36 33.93L221.75 33.93L221.75-20.77ZM233.52-37.95L233.52-37.95Q233.52-36.54 232.96-35.33Q232.39-34.11 231.45-33.17Q230.50-32.22 229.26-31.68Q228.02-31.14 226.61-31.14L226.61-31.14Q225.21-31.14 223.99-31.68Q222.78-32.22 221.83-33.17Q220.89-34.11 220.35-35.33Q219.81-36.54 219.81-37.95L219.81-37.95Q219.81-39.35 220.35-40.62Q220.89-41.89 221.83-42.83Q222.78-43.78 223.99-44.32Q225.21-44.86 226.61-44.86L226.61-44.86Q228.02-44.86 229.26-44.32Q230.50-43.78 231.45-42.83Q232.39-41.89 232.96-40.62Q233.52-39.35 233.52-37.95ZM270.46-21.64L270.46-21.64Q276.45-21.64 281.29-19.64Q286.12-17.64 289.50-13.97Q292.87-10.30 294.68-5.09Q296.49 0.12 296.49 6.55L296.49 6.55Q296.49 13.03 294.68 18.21Q292.87 23.40 289.50 27.07Q286.12 30.74 281.29 32.71Q276.45 34.68 270.46 34.68L270.46 34.68Q264.47 34.68 259.63 32.71Q254.80 30.74 251.40 27.07Q248.00 23.40 246.16 18.21Q244.32 13.03 244.32 6.55L244.32 6.55Q244.32 0.12 246.16-5.09Q248.00-10.30 251.40-13.97Q254.80-17.64 259.63-19.64Q264.47-21.64 270.46-21.64ZM270.46 27.18L270.46 27.18Q278.56 27.18 282.56 21.75Q286.55 16.32 286.55 6.60L286.55 6.60Q286.55-3.17 282.56-8.62Q278.56-14.08 270.46-14.08L270.46-14.08Q266.36-14.08 263.33-12.67Q260.31-11.27 258.28-8.62Q256.26-5.98 255.26-2.12Q254.26 1.74 254.26 6.60L254.26 6.60Q254.26 11.46 255.26 15.30Q256.26 19.13 258.28 21.75Q260.31 24.37 263.33 25.77Q266.36 27.18 270.46 27.18ZM317.98 33.93L308.37 33.93L308.37-20.77L314.09-20.77Q316.14-20.77 316.68-18.78L316.68-18.78L317.44-12.84Q321.00-16.78 325.41-19.21Q329.81-21.64 335.58-21.64L335.58-21.64Q340.07-21.64 343.50-20.15Q346.92-18.67 349.22-15.94Q351.51-13.21 352.70-9.38Q353.89-5.55 353.89-0.90L353.89-0.90L353.89 33.93L344.28 33.93L344.28-0.90Q344.28-7.11 341.44-10.54Q338.61-13.97 332.78-13.97L332.78-13.97Q328.51-13.97 324.81-11.92Q321.11-9.87 317.98-6.36L317.98-6.36L317.98 33.93Z"/></g>
</svg>