<svg xmlns="http://www.w3.org/2000/svg" xmlns:xlink="http://www.w3.org/1999/xlink" width="1200" zoomAndPan="magnify" viewBox="0 0 900 525.000007" height="700" preserveAspectRatio="xMidYMid meet" version="1.0"><defs><g/><clipPath id="a1e9fef7cb"><path d="M 183.160156 20.601562 L 752.078125 20.601562 L 752.078125 510.167969 L 183.160156 510.167969 Z M 183.160156 20.601562 " clip-rule="nonzero"/></clipPath><clipPath id="44b284b43a"><path d="M 249.679688 61.941406 L 586 61.941406 L 586 510.335938 L 249.679688 510.335938 Z M 249.679688 61.941406 " clip-rule="nonzero"/></clipPath><clipPath id="ce261b03fe"><path d="M 459 233 L 698.078125 233 L 698.078125 472 L 459 472 Z M 459 233 " clip-rule="nonzero"/></clipPath></defs><g clip-path="url(#a1e9fef7cb)"><path stroke-linecap="butt" transform="matrix(0.748097, 0, 0, 0.748556, 183.162052, 20.60213)" fill="none" stroke-linejoin="miter" d="M -0.00253354 -0.000758636 L 760.484002 -0.000758636 L 760.484002 654.013424 L -0.00253354 654.013424 L -0.00253354 -0.000758636 " stroke="#ffffff" stroke-width="8" stroke-opacity="1" stroke-miterlimit="4"/></g><g fill="#082a71" fill-opacity="1"><g transform="translate(307.902484, 45.663041)"><g><path d="M 2.78125 0 L 2.78125 -21.375 L 11.90625 -21.375 C 13.21875 -21.375 14.328125 -21.164062 15.234375 -20.75 C 16.148438 -20.332031 16.84375 -19.738281 17.3125 -18.96875 C 17.78125 -18.207031 18.015625 -17.304688 18.015625 -16.265625 C 18.015625 -15.328125 17.785156 -14.492188 17.328125 -13.765625 C 16.867188 -13.046875 16.207031 -12.46875 15.34375 -12.03125 L 15.34375 -11.71875 C 16.6875 -11.375 17.722656 -10.738281 18.453125 -9.8125 C 19.191406 -8.882812 19.5625 -7.75 19.5625 -6.40625 C 19.5625 -4.351562 18.941406 -2.769531 17.703125 -1.65625 C 16.472656 -0.550781 14.644531 0 12.21875 0 Z M 11.015625 -12.84375 C 12.984375 -12.84375 13.96875 -13.734375 13.96875 -15.515625 C 13.96875 -16.421875 13.722656 -17.09375 13.234375 -17.53125 C 12.753906 -17.976562 12.015625 -18.203125 11.015625 -18.203125 L 7 -18.203125 L 7 -12.84375 Z M 11.796875 -3.34375 C 14.128906 -3.34375 15.296875 -4.398438 15.296875 -6.515625 C 15.296875 -8.640625 14.128906 -9.703125 11.796875 -9.703125 L 7 -9.703125 L 7 -3.34375 Z M 11.796875 -3.34375 "/></g></g><g transform="translate(328.809926, 45.663041)"><g><path d="M 7 0 L 2.78125 0 L 2.78125 -21.375 L 7 -21.375 Z M 7 0 "/></g></g><g transform="translate(338.60572, 45.663041)"><g><path d="M 9.46875 0.3125 C 7.988281 0.3125 6.671875 0.128906 5.515625 -0.234375 C 4.359375 -0.609375 3.394531 -1.09375 2.625 -1.6875 C 1.851562 -2.28125 1.265625 -2.929688 0.859375 -3.640625 L 3.1875 -6.46875 L 3.546875 -6.46875 C 4.191406 -5.519531 5.007812 -4.757812 6 -4.1875 C 6.988281 -3.625 8.144531 -3.34375 9.46875 -3.34375 C 10.601562 -3.34375 11.457031 -3.582031 12.03125 -4.0625 C 12.601562 -4.539062 12.890625 -5.195312 12.890625 -6.03125 C 12.890625 -6.539062 12.796875 -6.96875 12.609375 -7.3125 C 12.429688 -7.65625 12.125 -7.945312 11.6875 -8.1875 C 11.257812 -8.425781 10.679688 -8.632812 9.953125 -8.8125 L 7.203125 -9.4375 C 5.285156 -9.875 3.851562 -10.601562 2.90625 -11.625 C 1.96875 -12.644531 1.5 -13.96875 1.5 -15.59375 C 1.5 -16.800781 1.800781 -17.863281 2.40625 -18.78125 C 3.007812 -19.695312 3.890625 -20.40625 5.046875 -20.90625 C 6.203125 -21.414062 7.582031 -21.671875 9.1875 -21.671875 C 10.84375 -21.671875 12.253906 -21.453125 13.421875 -21.015625 C 14.597656 -20.585938 15.59375 -19.925781 16.40625 -19.03125 L 14.3125 -16.171875 L 13.953125 -16.171875 C 13.347656 -16.804688 12.65625 -17.28125 11.875 -17.59375 C 11.09375 -17.90625 10.195312 -18.0625 9.1875 -18.0625 C 8.03125 -18.0625 7.148438 -17.859375 6.546875 -17.453125 C 5.941406 -17.046875 5.640625 -16.484375 5.640625 -15.765625 C 5.640625 -15.085938 5.851562 -14.546875 6.28125 -14.140625 C 6.707031 -13.742188 7.441406 -13.4375 8.484375 -13.21875 L 11.28125 -12.625 C 13.363281 -12.1875 14.867188 -11.441406 15.796875 -10.390625 C 16.734375 -9.347656 17.203125 -7.984375 17.203125 -6.296875 C 17.203125 -4.960938 16.914062 -3.800781 16.34375 -2.8125 C 15.769531 -1.820312 14.898438 -1.050781 13.734375 -0.5 C 12.578125 0.0390625 11.15625 0.3125 9.46875 0.3125 Z M 9.46875 0.3125 "/></g></g><g transform="translate(356.969179, 45.663041)"><g/></g><g transform="translate(364.030923, 45.663041)"><g><path d="M 11.03125 -21.375 C 12.5625 -21.375 13.867188 -21.09375 14.953125 -20.53125 C 16.046875 -19.96875 16.867188 -19.179688 17.421875 -18.171875 C 17.972656 -17.171875 18.25 -16 18.25 -14.65625 C 18.25 -13.320312 17.972656 -12.148438 17.421875 -11.140625 C 16.867188 -10.140625 16.046875 -9.359375 14.953125 -8.796875 C 13.867188 -8.242188 12.5625 -7.96875 11.03125 -7.96875 L 7 -7.96875 L 7 0 L 2.78125 0 L 2.78125 -21.375 Z M 10.484375 -11.3125 C 12.828125 -11.3125 14 -12.425781 14 -14.65625 C 14 -16.90625 12.828125 -18.03125 10.484375 -18.03125 L 7 -18.03125 L 7 -11.3125 Z M 10.484375 -11.3125 "/></g></g><g transform="translate(383.564029, 45.663041)"><g><path d="M 9.375 0.3125 C 7.789062 0.3125 6.398438 -0.0078125 5.203125 -0.65625 C 4.015625 -1.3125 3.09375 -2.265625 2.4375 -3.515625 C 1.78125 -4.765625 1.453125 -6.273438 1.453125 -8.046875 C 1.453125 -9.828125 1.78125 -11.34375 2.4375 -12.59375 C 3.09375 -13.851562 4.015625 -14.804688 5.203125 -15.453125 C 6.398438 -16.109375 7.789062 -16.4375 9.375 -16.4375 C 10.945312 -16.4375 12.328125 -16.109375 13.515625 -15.453125 C 14.710938 -14.804688 15.644531 -13.851562 16.3125 -12.59375 C 16.976562 -11.34375 17.3125 -9.828125 17.3125 -8.046875 C 17.3125 -6.273438 16.976562 -4.765625 16.3125 -3.515625 C 15.644531 -2.265625 14.710938 -1.3125 13.515625 -0.65625 C 12.328125 -0.0078125 10.945312 0.3125 9.375 0.3125 Z M 9.375 -3.125 C 11.875 -3.125 13.125 -4.765625 13.125 -8.046875 C 13.125 -9.753906 12.800781 -11.003906 12.15625 -11.796875 C 11.519531 -12.597656 10.59375 -13 9.375 -13 C 6.863281 -13 5.609375 -11.347656 5.609375 -8.046875 C 5.609375 -4.765625 6.863281 -3.125 9.375 -3.125 Z M 9.375 -3.125 "/></g></g><g transform="translate(402.307623, 45.663041)"><g><path d="M 2.328125 0 L 2.328125 -16.125 L 6.25 -16.125 L 6.25 -13.71875 L 6.5625 -13.671875 C 6.945312 -14.566406 7.457031 -15.222656 8.09375 -15.640625 C 8.726562 -16.054688 9.5 -16.265625 10.40625 -16.265625 C 11.320312 -16.265625 12.019531 -16.109375 12.5 -15.796875 L 11.8125 -12.3125 L 11.5 -12.25 C 11.238281 -12.351562 10.984375 -12.429688 10.734375 -12.484375 C 10.492188 -12.535156 10.203125 -12.5625 9.859375 -12.5625 C 8.722656 -12.5625 7.859375 -12.160156 7.265625 -11.359375 C 6.671875 -10.566406 6.375 -9.296875 6.375 -7.546875 L 6.375 0 Z M 2.328125 0 "/></g></g><g transform="translate(414.954432, 45.663041)"><g><path d="M 11.125 -3.84375 L 12.171875 -0.84375 C 11.734375 -0.488281 11.179688 -0.207031 10.515625 0 C 9.859375 0.207031 9.113281 0.3125 8.28125 0.3125 C 6.53125 0.3125 5.203125 -0.160156 4.296875 -1.109375 C 3.390625 -2.066406 2.9375 -3.453125 2.9375 -5.265625 L 2.9375 -12.921875 L 0.484375 -12.921875 L 0.484375 -16.140625 L 2.9375 -16.140625 L 2.9375 -19.28125 L 6.984375 -19.9375 L 6.984375 -16.140625 L 11.5625 -16.140625 L 11.5625 -12.921875 L 6.984375 -12.921875 L 6.984375 -5.5625 C 6.984375 -4.757812 7.148438 -4.175781 7.484375 -3.8125 C 7.816406 -3.445312 8.300781 -3.265625 8.9375 -3.265625 C 9.65625 -3.265625 10.28125 -3.457031 10.8125 -3.84375 Z M 11.125 -3.84375 "/></g></g><g transform="translate(427.484276, 45.663041)"><g><path d="M 6.28125 0.3125 C 5.25 0.3125 4.351562 0.125 3.59375 -0.25 C 2.832031 -0.632812 2.25 -1.195312 1.84375 -1.9375 C 1.4375 -2.675781 1.234375 -3.5625 1.234375 -4.59375 C 1.234375 -5.539062 1.4375 -6.335938 1.84375 -6.984375 C 2.25 -7.640625 2.878906 -8.171875 3.734375 -8.578125 C 4.597656 -8.992188 5.722656 -9.316406 7.109375 -9.546875 C 8.066406 -9.703125 8.796875 -9.867188 9.296875 -10.046875 C 9.804688 -10.234375 10.144531 -10.441406 10.3125 -10.671875 C 10.488281 -10.910156 10.578125 -11.210938 10.578125 -11.578125 C 10.578125 -12.097656 10.394531 -12.492188 10.03125 -12.765625 C 9.675781 -13.035156 9.082031 -13.171875 8.25 -13.171875 C 7.351562 -13.171875 6.5 -12.96875 5.6875 -12.5625 C 4.875 -12.164062 4.171875 -11.644531 3.578125 -11 L 3.28125 -11 L 1.59375 -13.546875 C 2.414062 -14.453125 3.414062 -15.160156 4.59375 -15.671875 C 5.769531 -16.179688 7.054688 -16.4375 8.453125 -16.4375 C 10.585938 -16.4375 12.128906 -15.984375 13.078125 -15.078125 C 14.035156 -14.171875 14.515625 -12.882812 14.515625 -11.21875 L 14.515625 -4.203125 C 14.515625 -3.484375 14.832031 -3.125 15.46875 -3.125 C 15.707031 -3.125 15.945312 -3.171875 16.1875 -3.265625 L 16.390625 -3.203125 L 16.671875 -0.375 C 16.453125 -0.226562 16.140625 -0.109375 15.734375 -0.015625 C 15.335938 0.0664062 14.898438 0.109375 14.421875 0.109375 C 13.460938 0.109375 12.710938 -0.0703125 12.171875 -0.4375 C 11.628906 -0.8125 11.238281 -1.390625 11 -2.171875 L 10.703125 -2.203125 C 9.910156 -0.523438 8.4375 0.3125 6.28125 0.3125 Z M 7.578125 -2.71875 C 8.503906 -2.71875 9.25 -3.03125 9.8125 -3.65625 C 10.375 -4.289062 10.65625 -5.164062 10.65625 -6.28125 L 10.65625 -7.921875 L 10.375 -7.984375 C 10.132812 -7.785156 9.816406 -7.617188 9.421875 -7.484375 C 9.023438 -7.359375 8.457031 -7.234375 7.71875 -7.109375 C 6.84375 -6.960938 6.210938 -6.707031 5.828125 -6.34375 C 5.441406 -5.988281 5.25 -5.488281 5.25 -4.84375 C 5.25 -4.144531 5.453125 -3.613281 5.859375 -3.25 C 6.265625 -2.894531 6.835938 -2.71875 7.578125 -2.71875 Z M 7.578125 -2.71875 "/></g></g><g transform="translate(444.48802, 45.663041)"><g><path d="M 6.6875 0.3125 C 5.238281 0.3125 4.128906 -0.078125 3.359375 -0.859375 C 2.597656 -1.648438 2.21875 -2.84375 2.21875 -4.4375 L 2.21875 -22.59375 L 6.265625 -22.59375 L 6.265625 -4.609375 C 6.265625 -3.617188 6.675781 -3.125 7.5 -3.125 C 7.726562 -3.125 7.976562 -3.164062 8.25 -3.25 L 8.453125 -3.1875 L 8.8125 -0.078125 C 8.59375 0.046875 8.296875 0.140625 7.921875 0.203125 C 7.554688 0.273438 7.144531 0.3125 6.6875 0.3125 Z M 6.6875 0.3125 "/></g></g><g transform="translate(453.757473, 45.663041)"><g/></g><g transform="translate(460.819217, 45.663041)"><g><path d="M 2.78125 0 L 2.78125 -21.375 L 11.359375 -21.375 C 13.566406 -21.375 15.234375 -20.863281 16.359375 -19.84375 C 17.484375 -18.820312 18.046875 -17.414062 18.046875 -15.625 C 18.046875 -14.332031 17.71875 -13.269531 17.0625 -12.4375 C 16.40625 -11.613281 15.425781 -10.984375 14.125 -10.546875 L 14.125 -10.234375 C 14.789062 -9.941406 15.332031 -9.503906 15.75 -8.921875 C 16.164062 -8.347656 16.554688 -7.5 16.921875 -6.375 L 19.0625 0 L 14.71875 0 L 12.625 -6.390625 C 12.414062 -7.035156 12.175781 -7.535156 11.90625 -7.890625 C 11.632812 -8.242188 11.289062 -8.5 10.875 -8.65625 C 10.46875 -8.820312 9.929688 -8.90625 9.265625 -8.90625 L 7 -8.90625 L 7 0 Z M 10.84375 -12.25 C 12.894531 -12.25 13.921875 -13.203125 13.921875 -15.109375 C 13.921875 -17.054688 12.894531 -18.03125 10.84375 -18.03125 L 7 -18.03125 L 7 -12.25 Z M 10.84375 -12.25 "/></g></g><g transform="translate(480.805562, 45.663041)"><g><path d="M 15.9375 -7.140625 L 5.5625 -7.140625 C 5.6875 -5.742188 6.085938 -4.722656 6.765625 -4.078125 C 7.453125 -3.441406 8.382812 -3.125 9.5625 -3.125 C 10.488281 -3.125 11.238281 -3.296875 11.8125 -3.640625 C 12.382812 -3.992188 12.847656 -4.519531 13.203125 -5.21875 L 13.5 -5.21875 L 16.203125 -3.5 C 15.671875 -2.363281 14.875 -1.441406 13.8125 -0.734375 C 12.75 -0.0351562 11.332031 0.3125 9.5625 0.3125 C 7.894531 0.3125 6.453125 -0.00390625 5.234375 -0.640625 C 4.023438 -1.273438 3.09375 -2.21875 2.4375 -3.46875 C 1.78125 -4.71875 1.453125 -6.242188 1.453125 -8.046875 C 1.453125 -9.878906 1.796875 -11.425781 2.484375 -12.6875 C 3.171875 -13.945312 4.101562 -14.882812 5.28125 -15.5 C 6.46875 -16.125 7.796875 -16.4375 9.265625 -16.4375 C 11.546875 -16.4375 13.289062 -15.832031 14.5 -14.625 C 15.71875 -13.414062 16.328125 -11.640625 16.328125 -9.296875 C 16.328125 -8.453125 16.296875 -7.796875 16.234375 -7.328125 Z M 12.453125 -9.765625 C 12.410156 -10.992188 12.125 -11.882812 11.59375 -12.4375 C 11.0625 -13 10.285156 -13.28125 9.265625 -13.28125 C 7.222656 -13.28125 6.019531 -12.109375 5.65625 -9.765625 Z M 12.453125 -9.765625 "/></g></g><g transform="translate(498.335647, 45.663041)"><g><path d="M 8.359375 6.84375 C 5.703125 6.84375 3.738281 6.453125 2.46875 5.671875 C 1.195312 4.890625 0.5625 3.800781 0.5625 2.40625 C 0.5625 1.5625 0.832031 0.867188 1.375 0.328125 C 1.914062 -0.210938 2.695312 -0.578125 3.71875 -0.765625 L 3.71875 -1.0625 C 3.164062 -1.394531 2.769531 -1.765625 2.53125 -2.171875 C 2.289062 -2.578125 2.171875 -3.046875 2.171875 -3.578125 C 2.171875 -4.878906 3.015625 -5.753906 4.703125 -6.203125 L 4.703125 -6.5 C 3.835938 -7 3.1875 -7.613281 2.75 -8.34375 C 2.3125 -9.082031 2.09375 -9.972656 2.09375 -11.015625 C 2.09375 -12.085938 2.335938 -13.03125 2.828125 -13.84375 C 3.316406 -14.664062 4.035156 -15.300781 4.984375 -15.75 C 5.941406 -16.207031 7.082031 -16.4375 8.40625 -16.4375 C 9.75 -16.4375 10.820312 -16.203125 11.625 -15.734375 C 12.113281 -16.453125 12.398438 -17.285156 12.484375 -18.234375 L 12.796875 -18.421875 L 15.703125 -17.703125 C 15.609375 -16.929688 15.378906 -16.285156 15.015625 -15.765625 C 14.660156 -15.242188 14.101562 -14.78125 13.34375 -14.375 L 13.34375 -14.046875 C 14.25 -13.242188 14.703125 -12.128906 14.703125 -10.703125 C 14.703125 -9.703125 14.453125 -8.804688 13.953125 -8.015625 C 13.460938 -7.234375 12.738281 -6.613281 11.78125 -6.15625 C 10.832031 -5.695312 9.707031 -5.46875 8.40625 -5.46875 L 7.796875 -5.484375 C 7.398438 -5.503906 7.125 -5.515625 6.96875 -5.515625 C 6.601562 -5.515625 6.3125 -5.410156 6.09375 -5.203125 C 5.882812 -5.003906 5.78125 -4.75 5.78125 -4.4375 C 5.78125 -4.101562 5.914062 -3.835938 6.1875 -3.640625 C 6.46875 -3.453125 6.867188 -3.347656 7.390625 -3.328125 L 11 -3.203125 C 14.570312 -3.097656 16.359375 -1.5625 16.359375 1.40625 C 16.359375 2.445312 16.09375 3.375 15.5625 4.1875 C 15.03125 5 14.171875 5.644531 12.984375 6.125 C 11.796875 6.601562 10.253906 6.84375 8.359375 6.84375 Z M 8.40625 -8.296875 C 9.1875 -8.296875 9.796875 -8.523438 10.234375 -8.984375 C 10.671875 -9.441406 10.890625 -10.097656 10.890625 -10.953125 C 10.890625 -11.796875 10.671875 -12.441406 10.234375 -12.890625 C 9.796875 -13.347656 9.1875 -13.578125 8.40625 -13.578125 C 7.613281 -13.578125 7.003906 -13.347656 6.578125 -12.890625 C 6.148438 -12.441406 5.9375 -11.796875 5.9375 -10.953125 C 5.9375 -10.085938 6.148438 -9.425781 6.578125 -8.96875 C 7.003906 -8.519531 7.613281 -8.296875 8.40625 -8.296875 Z M 8.359375 3.90625 C 9.742188 3.90625 10.75 3.707031 11.375 3.3125 C 12.007812 2.925781 12.328125 2.421875 12.328125 1.796875 C 12.328125 1.285156 12.164062 0.910156 11.84375 0.671875 C 11.519531 0.441406 11.007812 0.316406 10.3125 0.296875 L 7.125 0.140625 C 7.007812 0.140625 6.90625 0.132812 6.8125 0.125 C 6.726562 0.113281 6.640625 0.109375 6.546875 0.109375 C 5.867188 0.109375 5.347656 0.253906 4.984375 0.546875 C 4.628906 0.847656 4.453125 1.253906 4.453125 1.765625 C 4.453125 2.453125 4.78125 2.976562 5.4375 3.34375 C 6.09375 3.71875 7.066406 3.90625 8.359375 3.90625 Z M 8.359375 3.90625 "/></g></g><g transform="translate(515.105462, 45.663041)"><g><path d="M 4.34375 -18.046875 C 3.613281 -18.046875 3.019531 -18.269531 2.5625 -18.71875 C 2.101562 -19.164062 1.875 -19.738281 1.875 -20.4375 C 1.875 -21.125 2.101562 -21.6875 2.5625 -22.125 C 3.019531 -22.570312 3.613281 -22.796875 4.34375 -22.796875 C 4.832031 -22.796875 5.265625 -22.691406 5.640625 -22.484375 C 6.023438 -22.285156 6.320312 -22.007812 6.53125 -21.65625 C 6.738281 -21.300781 6.84375 -20.894531 6.84375 -20.4375 C 6.84375 -19.976562 6.738281 -19.566406 6.53125 -19.203125 C 6.320312 -18.847656 6.023438 -18.566406 5.640625 -18.359375 C 5.265625 -18.148438 4.832031 -18.046875 4.34375 -18.046875 Z M 2.328125 0 L 2.328125 -16.125 L 6.375 -16.125 L 6.375 0 Z M 2.328125 0 "/></g></g><g transform="translate(523.790091, 45.663041)"><g><path d="M 7.546875 0.3125 C 6.441406 0.3125 5.429688 0.179688 4.515625 -0.078125 C 3.597656 -0.335938 2.816406 -0.691406 2.171875 -1.140625 C 1.523438 -1.597656 1.046875 -2.117188 0.734375 -2.703125 L 2.984375 -5.125 L 3.28125 -5.125 C 3.820312 -4.40625 4.457031 -3.863281 5.1875 -3.5 C 5.914062 -3.144531 6.710938 -2.96875 7.578125 -2.96875 C 8.359375 -2.96875 8.945312 -3.109375 9.34375 -3.390625 C 9.75 -3.671875 9.953125 -4.078125 9.953125 -4.609375 C 9.953125 -5.015625 9.804688 -5.351562 9.515625 -5.625 C 9.234375 -5.90625 8.769531 -6.125 8.125 -6.28125 L 6 -6.796875 C 4.394531 -7.179688 3.222656 -7.765625 2.484375 -8.546875 C 1.753906 -9.328125 1.390625 -10.320312 1.390625 -11.53125 C 1.390625 -12.539062 1.644531 -13.414062 2.15625 -14.15625 C 2.664062 -14.894531 3.382812 -15.457031 4.3125 -15.84375 C 5.25 -16.238281 6.335938 -16.4375 7.578125 -16.4375 C 9.023438 -16.4375 10.222656 -16.222656 11.171875 -15.796875 C 12.128906 -15.378906 12.878906 -14.820312 13.421875 -14.125 L 11.25 -11.78125 L 10.96875 -11.78125 C 10.519531 -12.289062 10.015625 -12.660156 9.453125 -12.890625 C 8.890625 -13.128906 8.265625 -13.25 7.578125 -13.25 C 5.972656 -13.25 5.171875 -12.75 5.171875 -11.75 C 5.171875 -11.332031 5.316406 -10.988281 5.609375 -10.71875 C 5.910156 -10.457031 6.4375 -10.25 7.1875 -10.09375 L 9.1875 -9.640625 C 10.820312 -9.296875 12.015625 -8.734375 12.765625 -7.953125 C 13.523438 -7.179688 13.90625 -6.144531 13.90625 -4.84375 C 13.90625 -3.8125 13.648438 -2.90625 13.140625 -2.125 C 12.628906 -1.351562 11.894531 -0.753906 10.9375 -0.328125 C 9.988281 0.0976562 8.859375 0.3125 7.546875 0.3125 Z M 7.546875 0.3125 "/></g></g><g transform="translate(538.65923, 45.663041)"><g><path d="M 11.125 -3.84375 L 12.171875 -0.84375 C 11.734375 -0.488281 11.179688 -0.207031 10.515625 0 C 9.859375 0.207031 9.113281 0.3125 8.28125 0.3125 C 6.53125 0.3125 5.203125 -0.160156 4.296875 -1.109375 C 3.390625 -2.066406 2.9375 -3.453125 2.9375 -5.265625 L 2.9375 -12.921875 L 0.484375 -12.921875 L 0.484375 -16.140625 L 2.9375 -16.140625 L 2.9375 -19.28125 L 6.984375 -19.9375 L 6.984375 -16.140625 L 11.5625 -16.140625 L 11.5625 -12.921875 L 6.984375 -12.921875 L 6.984375 -5.5625 C 6.984375 -4.757812 7.148438 -4.175781 7.484375 -3.8125 C 7.816406 -3.445312 8.300781 -3.265625 8.9375 -3.265625 C 9.65625 -3.265625 10.28125 -3.457031 10.8125 -3.84375 Z M 11.125 -3.84375 "/></g></g><g transform="translate(551.189074, 45.663041)"><g><path d="M 2.328125 0 L 2.328125 -16.125 L 6.25 -16.125 L 6.25 -13.71875 L 6.5625 -13.671875 C 6.945312 -14.566406 7.457031 -15.222656 8.09375 -15.640625 C 8.726562 -16.054688 9.5 -16.265625 10.40625 -16.265625 C 11.320312 -16.265625 12.019531 -16.109375 12.5 -15.796875 L 11.8125 -12.3125 L 11.5 -12.25 C 11.238281 -12.351562 10.984375 -12.429688 10.734375 -12.484375 C 10.492188 -12.535156 10.203125 -12.5625 9.859375 -12.5625 C 8.722656 -12.5625 7.859375 -12.160156 7.265625 -11.359375 C 6.671875 -10.566406 6.375 -9.296875 6.375 -7.546875 L 6.375 0 Z M 2.328125 0 "/></g></g><g transform="translate(563.835883, 45.663041)"><g><path d="M 6.28125 0.3125 C 5.25 0.3125 4.351562 0.125 3.59375 -0.25 C 2.832031 -0.632812 2.25 -1.195312 1.84375 -1.9375 C 1.4375 -2.675781 1.234375 -3.5625 1.234375 -4.59375 C 1.234375 -5.539062 1.4375 -6.335938 1.84375 -6.984375 C 2.25 -7.640625 2.878906 -8.171875 3.734375 -8.578125 C 4.597656 -8.992188 5.722656 -9.316406 7.109375 -9.546875 C 8.066406 -9.703125 8.796875 -9.867188 9.296875 -10.046875 C 9.804688 -10.234375 10.144531 -10.441406 10.3125 -10.671875 C 10.488281 -10.910156 10.578125 -11.210938 10.578125 -11.578125 C 10.578125 -12.097656 10.394531 -12.492188 10.03125 -12.765625 C 9.675781 -13.035156 9.082031 -13.171875 8.25 -13.171875 C 7.351562 -13.171875 6.5 -12.96875 5.6875 -12.5625 C 4.875 -12.164062 4.171875 -11.644531 3.578125 -11 L 3.28125 -11 L 1.59375 -13.546875 C 2.414062 -14.453125 3.414062 -15.160156 4.59375 -15.671875 C 5.769531 -16.179688 7.054688 -16.4375 8.453125 -16.4375 C 10.585938 -16.4375 12.128906 -15.984375 13.078125 -15.078125 C 14.035156 -14.171875 14.515625 -12.882812 14.515625 -11.21875 L 14.515625 -4.203125 C 14.515625 -3.484375 14.832031 -3.125 15.46875 -3.125 C 15.707031 -3.125 15.945312 -3.171875 16.1875 -3.265625 L 16.390625 -3.203125 L 16.671875 -0.375 C 16.453125 -0.226562 16.140625 -0.109375 15.734375 -0.015625 C 15.335938 0.0664062 14.898438 0.109375 14.421875 0.109375 C 13.460938 0.109375 12.710938 -0.0703125 12.171875 -0.4375 C 11.628906 -0.8125 11.238281 -1.390625 11 -2.171875 L 10.703125 -2.203125 C 9.910156 -0.523438 8.4375 0.3125 6.28125 0.3125 Z M 7.578125 -2.71875 C 8.503906 -2.71875 9.25 -3.03125 9.8125 -3.65625 C 10.375 -4.289062 10.65625 -5.164062 10.65625 -6.28125 L 10.65625 -7.921875 L 10.375 -7.984375 C 10.132812 -7.785156 9.816406 -7.617188 9.421875 -7.484375 C 9.023438 -7.359375 8.457031 -7.234375 7.71875 -7.109375 C 6.84375 -6.960938 6.210938 -6.707031 5.828125 -6.34375 C 5.441406 -5.988281 5.25 -5.488281 5.25 -4.84375 C 5.25 -4.144531 5.453125 -3.613281 5.859375 -3.25 C 6.265625 -2.894531 6.835938 -2.71875 7.578125 -2.71875 Z M 7.578125 -2.71875 "/></g></g><g transform="translate(580.839627, 45.663041)"><g><path d="M 11.125 -3.84375 L 12.171875 -0.84375 C 11.734375 -0.488281 11.179688 -0.207031 10.515625 0 C 9.859375 0.207031 9.113281 0.3125 8.28125 0.3125 C 6.53125 0.3125 5.203125 -0.160156 4.296875 -1.109375 C 3.390625 -2.066406 2.9375 -3.453125 2.9375 -5.265625 L 2.9375 -12.921875 L 0.484375 -12.921875 L 0.484375 -16.140625 L 2.9375 -16.140625 L 2.9375 -19.28125 L 6.984375 -19.9375 L 6.984375 -16.140625 L 11.5625 -16.140625 L 11.5625 -12.921875 L 6.984375 -12.921875 L 6.984375 -5.5625 C 6.984375 -4.757812 7.148438 -4.175781 7.484375 -3.8125 C 7.816406 -3.445312 8.300781 -3.265625 8.9375 -3.265625 C 9.65625 -3.265625 10.28125 -3.457031 10.8125 -3.84375 Z M 11.125 -3.84375 "/></g></g><g transform="translate(593.369471, 45.663041)"><g><path d="M 4.34375 -18.046875 C 3.613281 -18.046875 3.019531 -18.269531 2.5625 -18.71875 C 2.101562 -19.164062 1.875 -19.738281 1.875 -20.4375 C 1.875 -21.125 2.101562 -21.6875 2.5625 -22.125 C 3.019531 -22.570312 3.613281 -22.796875 4.34375 -22.796875 C 4.832031 -22.796875 5.265625 -22.691406 5.640625 -22.484375 C 6.023438 -22.285156 6.320312 -22.007812 6.53125 -21.65625 C 6.738281 -21.300781 6.84375 -20.894531 6.84375 -20.4375 C 6.84375 -19.976562 6.738281 -19.566406 6.53125 -19.203125 C 6.320312 -18.847656 6.023438 -18.566406 5.640625 -18.359375 C 5.265625 -18.148438 4.832031 -18.046875 4.34375 -18.046875 Z M 2.328125 0 L 2.328125 -16.125 L 6.375 -16.125 L 6.375 0 Z M 2.328125 0 "/></g></g><g transform="translate(602.0541, 45.663041)"><g><path d="M 9.375 0.3125 C 7.789062 0.3125 6.398438 -0.0078125 5.203125 -0.65625 C 4.015625 -1.3125 3.09375 -2.265625 2.4375 -3.515625 C 1.78125 -4.765625 1.453125 -6.273438 1.453125 -8.046875 C 1.453125 -9.828125 1.78125 -11.34375 2.4375 -12.59375 C 3.09375 -13.851562 4.015625 -14.804688 5.203125 -15.453125 C 6.398438 -16.109375 7.789062 -16.4375 9.375 -16.4375 C 10.945312 -16.4375 12.328125 -16.109375 13.515625 -15.453125 C 14.710938 -14.804688 15.644531 -13.851562 16.3125 -12.59375 C 16.976562 -11.34375 17.3125 -9.828125 17.3125 -8.046875 C 17.3125 -6.273438 16.976562 -4.765625 16.3125 -3.515625 C 15.644531 -2.265625 14.710938 -1.3125 13.515625 -0.65625 C 12.328125 -0.0078125 10.945312 0.3125 9.375 0.3125 Z M 9.375 -3.125 C 11.875 -3.125 13.125 -4.765625 13.125 -8.046875 C 13.125 -9.753906 12.800781 -11.003906 12.15625 -11.796875 C 11.519531 -12.597656 10.59375 -13 9.375 -13 C 6.863281 -13 5.609375 -11.347656 5.609375 -8.046875 C 5.609375 -4.765625 6.863281 -3.125 9.375 -3.125 Z M 9.375 -3.125 "/></g></g><g transform="translate(620.797695, 45.663041)"><g><path d="M 2.328125 0 L 2.328125 -16.125 L 6.21875 -16.125 L 6.21875 -13.75 L 6.515625 -13.6875 C 7.523438 -15.519531 9.15625 -16.4375 11.40625 -16.4375 C 13.257812 -16.4375 14.625 -15.925781 15.5 -14.90625 C 16.375 -13.894531 16.8125 -12.421875 16.8125 -10.484375 L 16.8125 0 L 12.765625 0 L 12.765625 -9.984375 C 12.765625 -11.054688 12.546875 -11.828125 12.109375 -12.296875 C 11.679688 -12.773438 11 -13.015625 10.0625 -13.015625 C 8.894531 -13.015625 7.988281 -12.640625 7.34375 -11.890625 C 6.695312 -11.140625 6.375 -9.957031 6.375 -8.34375 L 6.375 0 Z M 2.328125 0 "/></g></g></g><path fill="#082a71" d="M 309.234375 153.019531 L 524.675781 153.019531 C 528.527344 153.019531 531.679688 149.867188 531.679688 146.015625 C 531.679688 142.160156 528.527344 139.007812 524.675781 139.007812 L 309.234375 139.007812 C 305.378906 139.007812 302.226562 142.160156 302.226562 146.015625 C 302.226562 149.867188 305.378906 153.019531 309.234375 153.019531 Z M 309.234375 153.019531 " fill-opacity="1" fill-rule="nonzero"/><path fill="#082a71" d="M 533.433594 216.078125 C 533.433594 212.222656 530.277344 209.070312 526.425781 209.070312 L 310.984375 209.070312 C 307.132812 209.070312 303.980469 212.222656 303.980469 216.078125 C 303.980469 219.929688 307.132812 223.082031 310.984375 223.082031 L 526.425781 223.082031 C 530.277344 223.082031 533.433594 219.929688 533.433594 216.078125 Z M 533.433594 216.078125 " fill-opacity="1" fill-rule="nonzero"/><path fill="#082a71" d="M 303.980469 426.261719 C 303.980469 430.117188 307.132812 433.269531 310.984375 433.269531 L 473.179688 433.269531 C 469.675781 428.714844 466.523438 424.160156 463.71875 419.257812 L 310.984375 419.257812 C 307.132812 419.257812 303.980469 422.410156 303.980469 426.261719 Z M 303.980469 426.261719 " fill-opacity="1" fill-rule="nonzero"/><path fill="#082a71" d="M 445.855469 349.195312 L 310.984375 349.195312 C 307.132812 349.195312 303.980469 352.347656 303.980469 356.199219 C 303.980469 360.054688 307.132812 363.207031 310.984375 363.207031 L 446.203125 363.207031 C 445.855469 359.703125 445.855469 356.199219 445.855469 352.699219 C 445.855469 351.644531 445.855469 350.246094 445.855469 349.195312 Z M 445.855469 349.195312 " fill-opacity="1" fill-rule="nonzero"/><path fill="#082a71" d="M 468.273438 279.132812 L 310.984375 279.132812 C 307.132812 279.132812 303.980469 282.285156 303.980469 286.136719 C 303.980469 289.992188 307.132812 293.144531 310.984375 293.144531 L 459.867188 293.144531 C 462.320312 288.242188 465.121094 283.6875 468.273438 279.132812 Z M 468.273438 279.132812 " fill-opacity="1" fill-rule="nonzero"/><g clip-path="url(#44b284b43a)"><path fill="#082a71" d="M 277.707031 510.335938 L 557.953125 510.335938 C 572.316406 510.335938 584.226562 499.476562 585.628906 485.816406 C 583.527344 485.816406 581.074219 485.816406 578.972656 485.816406 C 576.519531 485.816406 574.066406 485.816406 571.617188 485.464844 C 570.214844 491.769531 564.609375 496.324219 557.953125 496.324219 L 277.707031 496.324219 C 270 496.324219 263.695312 490.019531 263.695312 482.3125 L 263.695312 89.964844 C 263.695312 82.257812 270 75.953125 277.707031 75.953125 L 557.953125 75.953125 C 565.660156 75.953125 571.964844 82.257812 571.964844 89.964844 L 571.964844 219.929688 C 574.417969 219.929688 576.519531 219.578125 578.972656 219.578125 C 581.425781 219.578125 583.527344 219.578125 585.976562 219.929688 L 585.976562 89.964844 C 585.976562 74.550781 573.367188 61.941406 557.953125 61.941406 L 277.707031 61.941406 C 262.292969 61.941406 249.679688 74.550781 249.679688 89.964844 L 249.679688 482.3125 C 249.679688 497.726562 262.292969 510.335938 277.707031 510.335938 Z M 277.707031 510.335938 " fill-opacity="1" fill-rule="nonzero"/></g><g clip-path="url(#ce261b03fe)"><path fill="#082a71" d="M 578.972656 233.59375 C 513.464844 233.59375 459.867188 287.1875 459.867188 352.699219 C 459.867188 418.207031 513.464844 471.800781 578.972656 471.800781 C 644.480469 471.800781 698.078125 418.207031 698.078125 352.699219 C 698.078125 287.1875 644.480469 233.59375 578.972656 233.59375 Z M 578.972656 457.789062 C 521.171875 457.789062 473.878906 410.5 473.878906 352.699219 C 473.878906 294.894531 521.171875 247.605469 578.972656 247.605469 C 636.773438 247.605469 684.066406 294.894531 684.066406 352.699219 C 684.066406 410.5 636.773438 457.789062 578.972656 457.789062 Z M 578.972656 457.789062 " fill-opacity="1" fill-rule="nonzero"/></g><path fill="#082a71" d="M 615.054688 281.585938 L 612.601562 280.535156 C 600.691406 274.578125 585.976562 279.484375 580.023438 291.394531 L 537.636719 374.765625 C 537.636719 374.765625 537.636719 374.765625 537.636719 375.117188 C 537.636719 375.46875 537.285156 375.46875 537.285156 375.816406 C 537.285156 376.167969 537.285156 376.167969 536.933594 376.519531 C 536.933594 376.867188 536.933594 376.867188 536.933594 377.21875 C 536.933594 377.570312 536.933594 377.570312 536.933594 377.917969 C 536.933594 377.917969 536.933594 378.269531 536.933594 378.269531 L 537.285156 419.257812 C 537.285156 422.058594 538.6875 424.160156 541.136719 425.5625 C 543.589844 426.613281 546.394531 426.613281 548.496094 424.859375 L 582.125 400.339844 C 582.476562 399.988281 582.824219 399.988281 582.824219 399.640625 C 582.824219 399.640625 582.824219 399.640625 583.175781 399.289062 C 583.527344 398.9375 583.875 398.238281 584.226562 397.886719 L 626.265625 314.863281 C 629.417969 308.910156 629.765625 302.253906 627.664062 295.945312 C 625.5625 289.640625 621.007812 284.386719 615.054688 281.585938 Z M 550.945312 405.59375 L 550.945312 389.480469 L 564.257812 396.136719 Z M 574.769531 385.277344 L 553.398438 374.765625 L 582.125 318.015625 L 603.492188 328.527344 Z M 613.652344 308.558594 L 609.800781 316.265625 L 588.429688 305.753906 L 592.285156 298.050781 C 594.734375 292.792969 601.042969 290.691406 606.296875 293.496094 L 608.75 294.546875 C 614.003906 296.648438 616.453125 303.304688 613.652344 308.558594 Z M 613.652344 308.558594 " fill-opacity="1" fill-rule="nonzero"/></svg>