<svg xmlns="http://www.w3.org/2000/svg" xmlns:xlink="http://www.w3.org/1999/xlink" width="2500" zoomAndPan="magnify" viewBox="0 0 1874.88 1874.999927" height="2500" preserveAspectRatio="xMidYMid meet" version="1.0"><defs><g/><clipPath id="0c46928cf3"><path d="M 7.890625 0.0625 L 1874.519531 0.0625 L 1874.519531 1874.9375 L 7.890625 1874.9375 Z M 7.890625 0.0625 " clip-rule="nonzero"/></clipPath><clipPath id="b6c3b78a22"><path d="M 393.769531 91.425781 L 1222 91.425781 L 1222 1195.355469 L 393.769531 1195.355469 Z M 393.769531 91.425781 " clip-rule="nonzero"/></clipPath><clipPath id="9c484e6730"><path d="M 911 514 L 1497.699219 514 L 1497.699219 1101 L 911 1101 Z M 911 514 " clip-rule="nonzero"/></clipPath><clipPath id="2188f0a10b"><path d="M 0 1662.042969 L 1874.761719 1662.042969 L 1874.761719 1874.9375 L 0 1874.9375 Z M 0 1662.042969 " clip-rule="nonzero"/></clipPath></defs><g clip-path="url(#0c46928cf3)"><path stroke-linecap="butt" transform="matrix(0.749811, 0, 0, 0.749952, 7.890238, 0.0638191)" fill="none" stroke-linejoin="miter" d="M 0.000515885 -0.0017589 L 2489.467194 -0.0017589 L 2489.467194 2499.991678 L 0.000515885 2499.991678 L 0.000515885 -0.0017589 " stroke="#ffffff" stroke-width="14" stroke-opacity="1" stroke-miterlimit="4"/></g><path fill="#ffffff" d="M 540.382812 315.660156 L 1070.789062 315.660156 C 1080.273438 315.660156 1088.035156 307.898438 1088.035156 298.410156 C 1088.035156 288.925781 1080.273438 281.164062 1070.789062 281.164062 L 540.382812 281.164062 C 530.898438 281.164062 523.136719 288.925781 523.136719 298.410156 C 523.136719 307.898438 530.898438 315.660156 540.382812 315.660156 Z M 540.382812 315.660156 " fill-opacity="1" fill-rule="nonzero"/><path fill="#ffffff" d="M 1092.347656 470.898438 C 1092.347656 461.414062 1084.585938 453.652344 1075.101562 453.652344 L 544.695312 453.652344 C 535.210938 453.652344 527.449219 461.414062 527.449219 470.898438 C 527.449219 480.386719 535.210938 488.148438 544.695312 488.148438 L 1075.101562 488.148438 C 1084.585938 488.148438 1092.347656 480.386719 1092.347656 470.898438 Z M 1092.347656 470.898438 " fill-opacity="1" fill-rule="nonzero"/><path fill="#ffffff" d="M 527.449219 988.367188 C 527.449219 997.855469 535.210938 1005.617188 544.695312 1005.617188 L 944.007812 1005.617188 C 935.382812 994.402344 927.621094 983.191406 920.722656 971.117188 L 544.695312 971.117188 C 535.210938 971.117188 527.449219 978.878906 527.449219 988.367188 Z M 527.449219 988.367188 " fill-opacity="1" fill-rule="nonzero"/><path fill="#ffffff" d="M 876.738281 798.628906 L 544.695312 798.628906 C 535.210938 798.628906 527.449219 806.390625 527.449219 815.878906 C 527.449219 825.363281 535.210938 833.125 544.695312 833.125 L 877.601562 833.125 C 876.738281 824.503906 876.738281 815.878906 876.738281 807.253906 C 876.738281 804.667969 876.738281 801.214844 876.738281 798.628906 Z M 876.738281 798.628906 " fill-opacity="1" fill-rule="nonzero"/><path fill="#ffffff" d="M 931.933594 626.140625 L 544.695312 626.140625 C 535.210938 626.140625 527.449219 633.902344 527.449219 643.390625 C 527.449219 652.875 535.210938 660.636719 544.695312 660.636719 L 911.234375 660.636719 C 917.273438 648.5625 924.171875 637.351562 931.933594 626.140625 Z M 931.933594 626.140625 " fill-opacity="1" fill-rule="nonzero"/><g clip-path="url(#b6c3b78a22)"><path fill="#ffffff" d="M 462.765625 1195.355469 L 1152.71875 1195.355469 C 1188.082031 1195.355469 1217.402344 1168.617188 1220.851562 1134.984375 C 1215.679688 1134.984375 1209.640625 1134.984375 1204.464844 1134.984375 C 1198.429688 1134.984375 1192.390625 1134.984375 1186.355469 1134.121094 C 1182.90625 1149.644531 1169.105469 1160.855469 1152.71875 1160.855469 L 462.765625 1160.855469 C 443.789062 1160.855469 428.265625 1145.332031 428.265625 1126.359375 L 428.265625 160.417969 C 428.265625 141.445312 443.789062 125.921875 462.765625 125.921875 L 1152.71875 125.921875 C 1171.695312 125.921875 1187.21875 141.445312 1187.21875 160.417969 L 1187.21875 480.386719 C 1193.253906 480.386719 1198.429688 479.523438 1204.464844 479.523438 C 1210.503906 479.523438 1215.679688 479.523438 1221.714844 480.386719 L 1221.714844 160.417969 C 1221.714844 122.472656 1190.667969 91.425781 1152.71875 91.425781 L 462.765625 91.425781 C 424.816406 91.425781 393.769531 122.472656 393.769531 160.417969 L 393.769531 1126.359375 C 393.769531 1164.304688 424.816406 1195.355469 462.765625 1195.355469 Z M 462.765625 1195.355469 " fill-opacity="1" fill-rule="nonzero"/></g><g clip-path="url(#9c484e6730)"><path fill="#ffffff" d="M 1204.464844 514.023438 C 1043.191406 514.023438 911.234375 645.976562 911.234375 807.253906 C 911.234375 968.53125 1043.191406 1100.484375 1204.464844 1100.484375 C 1365.742188 1100.484375 1497.699219 968.53125 1497.699219 807.253906 C 1497.699219 645.976562 1365.742188 514.023438 1204.464844 514.023438 Z M 1204.464844 1065.988281 C 1062.164062 1065.988281 945.734375 949.558594 945.734375 807.253906 C 945.734375 664.949219 1062.164062 548.519531 1204.464844 548.519531 C 1346.769531 548.519531 1463.199219 664.949219 1463.199219 807.253906 C 1463.199219 949.558594 1346.769531 1065.988281 1204.464844 1065.988281 Z M 1204.464844 1065.988281 " fill-opacity="1" fill-rule="nonzero"/></g><path fill="#ffffff" d="M 1293.296875 632.175781 L 1287.261719 629.589844 C 1257.9375 614.929688 1221.714844 627.003906 1207.054688 656.324219 L 1102.699219 861.585938 C 1102.699219 861.585938 1102.699219 861.585938 1102.699219 862.449219 C 1102.699219 863.3125 1101.835938 863.3125 1101.835938 864.175781 C 1101.835938 865.039062 1101.835938 865.039062 1100.972656 865.898438 C 1100.972656 866.761719 1100.972656 866.761719 1100.972656 867.625 C 1100.972656 868.488281 1100.972656 868.488281 1100.972656 869.347656 C 1100.972656 869.347656 1100.972656 870.210938 1100.972656 870.210938 L 1101.835938 971.117188 C 1101.835938 978.015625 1105.285156 983.191406 1111.324219 986.640625 C 1117.359375 989.230469 1124.257812 989.230469 1129.433594 984.917969 L 1212.230469 924.546875 C 1213.089844 923.683594 1213.953125 923.683594 1213.953125 922.820312 C 1213.953125 922.820312 1213.953125 922.820312 1214.816406 921.957031 C 1215.679688 921.097656 1216.539062 919.371094 1217.402344 918.507812 L 1320.898438 714.109375 C 1328.660156 699.449219 1329.519531 683.0625 1324.347656 667.539062 C 1319.171875 652.011719 1307.960938 639.078125 1293.296875 632.175781 Z M 1135.472656 937.484375 L 1135.472656 897.808594 L 1168.242188 914.195312 Z M 1194.117188 887.460938 L 1141.507812 861.585938 L 1212.230469 721.871094 L 1264.835938 747.746094 Z M 1289.847656 698.585938 L 1280.363281 717.558594 L 1227.753906 691.6875 L 1237.238281 672.710938 C 1243.277344 659.777344 1258.800781 654.601562 1271.738281 661.5 L 1277.773438 664.085938 C 1290.710938 669.261719 1296.75 685.648438 1289.847656 698.585938 Z M 1289.847656 698.585938 " fill-opacity="1" fill-rule="nonzero"/><g clip-path="url(#2188f0a10b)"><path fill="#ffffff" d="M 0 1662.042969 L 1874.878906 1662.042969 L 1874.878906 1874.722656 L 0 1874.722656 Z M 0 1662.042969 " fill-opacity="1" fill-rule="nonzero"/></g><g fill="#000000" fill-opacity="1"><g transform="translate(540.387557, 1801.488774)"><g><path d="M 21.625 -78.40625 C 28.488281 -78.40625 33.6875 -77.585938 37.21875 -75.953125 C 40.757812 -74.328125 43.617188 -71.78125 45.796875 -68.3125 C 47.984375 -64.851562 49.078125 -60.9375 49.078125 -56.5625 C 49.078125 -50.1875 46.976562 -44.882812 42.78125 -40.65625 C 38.59375 -36.425781 32.304688 -34.3125 23.921875 -34.3125 L 16.640625 -34.3125 L 16.640625 0 L 7.90625 0 L 7.90625 -78.40625 Z M 16.640625 -42.421875 L 21.3125 -42.421875 C 28.175781 -42.421875 33.0625 -43.597656 35.96875 -45.953125 C 38.882812 -48.316406 40.34375 -51.851562 40.34375 -56.5625 C 40.34375 -61.351562 38.90625 -64.835938 36.03125 -67.015625 C 33.15625 -69.203125 28.078125 -70.296875 20.796875 -70.296875 L 16.640625 -70.296875 Z M 16.640625 -42.421875 "/></g></g></g><g fill="#000000" fill-opacity="1"><g transform="translate(592.692233, 1801.488774)"><g><path d="M 3.53125 -24.328125 C 3.53125 -28.972656 4.671875 -33.304688 6.953125 -37.328125 C 9.242188 -41.347656 12.363281 -44.5 16.3125 -46.78125 C 20.269531 -49.070312 24.570312 -50.21875 29.21875 -50.21875 C 33.863281 -50.21875 38.144531 -49.070312 42.0625 -46.78125 C 45.976562 -44.5 49.097656 -41.363281 51.421875 -37.375 C 53.742188 -33.394531 54.90625 -29.046875 54.90625 -24.328125 C 54.90625 -19.679688 53.757812 -15.363281 51.46875 -11.375 C 49.1875 -7.394531 46.066406 -4.273438 42.109375 -2.015625 C 38.160156 0.234375 33.863281 1.359375 29.21875 1.359375 C 24.570312 1.359375 20.253906 0.210938 16.265625 -2.078125 C 12.285156 -4.367188 9.164062 -7.503906 6.90625 -11.484375 C 4.65625 -15.472656 3.53125 -19.753906 3.53125 -24.328125 Z M 29.109375 -42.53125 C 24.191406 -42.53125 20.085938 -40.78125 16.796875 -37.28125 C 13.503906 -33.78125 11.859375 -29.5 11.859375 -24.4375 C 11.859375 -20.695312 12.757812 -17.382812 14.5625 -14.5 C 16.363281 -11.625 18.5625 -9.546875 21.15625 -8.265625 C 23.757812 -6.984375 26.445312 -6.34375 29.21875 -6.34375 C 32.40625 -6.34375 35.316406 -7.085938 37.953125 -8.578125 C 40.585938 -10.066406 42.679688 -12.210938 44.234375 -15.015625 C 45.796875 -17.828125 46.578125 -20.96875 46.578125 -24.4375 C 46.578125 -27.625 45.867188 -30.601562 44.453125 -33.375 C 43.035156 -36.144531 40.972656 -38.363281 38.265625 -40.03125 C 35.554688 -41.695312 32.503906 -42.53125 29.109375 -42.53125 Z M 29.109375 -42.53125 "/></g></g></g><g fill="#000000" fill-opacity="1"><g transform="translate(651.132048, 1801.488774)"><g><path d="M 30.359375 -40.34375 C 29.523438 -40.96875 28.742188 -41.488281 28.015625 -41.90625 C 27.296875 -42.320312 26.414062 -42.53125 25.375 -42.53125 C 22.25 -42.53125 19.875 -41.140625 18.25 -38.359375 C 16.625 -35.585938 15.8125 -31.117188 15.8125 -24.953125 L 15.8125 0 L 7.484375 0 L 7.484375 -48.875 L 15.8125 -48.875 L 15.8125 -43.5625 L 16.015625 -43.5625 C 18.023438 -46.269531 19.804688 -48.054688 21.359375 -48.921875 C 22.921875 -49.785156 24.742188 -50.21875 26.828125 -50.21875 C 28.078125 -50.21875 29.34375 -50.007812 30.625 -49.59375 C 31.90625 -49.1875 33.132812 -48.632812 34.3125 -47.9375 Z M 30.359375 -40.34375 "/></g></g></g><g fill="#000000" fill-opacity="1"><g transform="translate(685.967177, 1801.488774)"><g><path d="M 16.640625 -66.453125 L 16.640625 -48.875 L 25.375 -48.875 L 25.375 -41.171875 L 16.640625 -41.171875 L 16.640625 0 L 8.3125 0 L 8.3125 -41.171875 L 3.21875 -41.171875 L 3.21875 -48.875 L 8.3125 -48.875 L 8.3125 -66.453125 Z M 16.640625 -66.453125 "/></g></g></g><g fill="#000000" fill-opacity="1"><g transform="translate(710.92369, 1801.488774)"><g><path d="M 44.1875 -41.90625 L 44.1875 -48.875 L 52.515625 -48.875 L 52.515625 0 L 44.1875 0 L 44.1875 -6.765625 L 43.984375 -6.765625 C 39.679688 -1.347656 34.066406 1.359375 27.140625 1.359375 C 20.347656 1.359375 14.75 -1.132812 10.34375 -6.125 C 5.945312 -11.125 3.75 -17.191406 3.75 -24.328125 C 3.75 -31.816406 5.960938 -38.003906 10.390625 -42.890625 C 14.828125 -47.773438 20.445312 -50.21875 27.25 -50.21875 C 30.644531 -50.21875 33.78125 -49.488281 36.65625 -48.03125 C 39.53125 -46.582031 41.972656 -44.539062 43.984375 -41.90625 Z M 28.1875 -42.53125 C 23.75 -42.53125 19.984375 -40.832031 16.890625 -37.4375 C 13.804688 -34.039062 12.265625 -29.878906 12.265625 -24.953125 C 12.265625 -19.679688 13.769531 -15.257812 16.78125 -11.6875 C 19.800781 -8.125 23.632812 -6.34375 28.28125 -6.34375 C 33.207031 -6.34375 37.160156 -8.039062 40.140625 -11.4375 C 43.117188 -14.832031 44.609375 -19.304688 44.609375 -24.859375 C 44.609375 -29.910156 43.082031 -34.117188 40.03125 -37.484375 C 36.976562 -40.847656 33.03125 -42.53125 28.1875 -42.53125 Z M 28.1875 -42.53125 "/></g></g></g><g fill="#000000" fill-opacity="1"><g transform="translate(770.923292, 1801.488774)"><g><path d="M 16.015625 -85.78125 L 16.015625 0 L 7.6875 0 L 7.6875 -85.78125 Z M 16.015625 -85.78125 "/></g></g></g><g fill="#000000" fill-opacity="1"><g transform="translate(794.527989, 1801.488774)"><g/></g></g><g fill="#000000" fill-opacity="1"><g transform="translate(826.555501, 1801.488774)"><g><path d="M 19.859375 -78.40625 C 38.578125 -78.40625 47.9375 -71.195312 47.9375 -56.78125 C 47.9375 -50.75 46.1875 -45.773438 42.6875 -41.859375 C 39.1875 -37.941406 34.382812 -35.703125 28.28125 -35.140625 L 53.234375 0 L 42.53125 0 L 18.828125 -34.421875 L 16.640625 -34.421875 L 16.640625 0 L 7.90625 0 L 7.90625 -78.40625 Z M 16.640625 -42.109375 L 20.484375 -42.109375 C 26.648438 -42.109375 31.3125 -43.253906 34.46875 -45.546875 C 37.625 -47.835938 39.203125 -51.375 39.203125 -56.15625 C 39.203125 -61.351562 37.660156 -65.007812 34.578125 -67.125 C 31.492188 -69.238281 27.039062 -70.296875 21.21875 -70.296875 L 16.640625 -70.296875 Z M 16.640625 -42.109375 "/></g></g></g><g fill="#000000" fill-opacity="1"><g transform="translate(882.915623, 1801.488774)"><g><path d="M 50.4375 -22.671875 L 12.0625 -22.671875 C 12.195312 -17.816406 13.789062 -13.878906 16.84375 -10.859375 C 19.894531 -7.847656 23.640625 -6.34375 28.078125 -6.34375 C 31.191406 -6.34375 33.945312 -7.140625 36.34375 -8.734375 C 38.738281 -10.328125 40.941406 -12.890625 42.953125 -16.421875 L 50.015625 -12.375 C 47.660156 -8.007812 44.554688 -4.628906 40.703125 -2.234375 C 36.859375 0.160156 32.441406 1.359375 27.453125 1.359375 C 22.671875 1.359375 18.441406 0.210938 14.765625 -2.078125 C 11.085938 -4.367188 8.296875 -7.4375 6.390625 -11.28125 C 4.484375 -15.125 3.53125 -19.300781 3.53125 -23.8125 C 3.53125 -28.800781 4.484375 -33.304688 6.390625 -37.328125 C 8.296875 -41.347656 11.050781 -44.5 14.65625 -46.78125 C 18.257812 -49.070312 22.457031 -50.21875 27.25 -50.21875 C 31.882812 -50.21875 35.988281 -49.09375 39.5625 -46.84375 C 43.132812 -44.59375 45.851562 -41.488281 47.71875 -37.53125 C 49.59375 -33.582031 50.53125 -29.148438 50.53125 -24.234375 C 50.53125 -23.742188 50.5 -23.222656 50.4375 -22.671875 Z M 41.703125 -29.734375 C 41.003906 -33.546875 39.300781 -36.628906 36.59375 -38.984375 C 33.894531 -41.347656 30.8125 -42.53125 27.34375 -42.53125 C 23.945312 -42.53125 20.757812 -41.296875 17.78125 -38.828125 C 14.800781 -36.367188 13.035156 -33.335938 12.484375 -29.734375 Z M 41.703125 -29.734375 "/></g></g></g><g fill="#000000" fill-opacity="1"><g transform="translate(936.88406, 1801.488774)"><g><path d="M 43.671875 -41.90625 L 43.671875 -48.875 L 51.984375 -48.875 L 51.984375 1.765625 C 51.984375 9.941406 49.695312 16.234375 45.125 20.640625 C 40.550781 25.046875 34.867188 27.25 28.078125 27.25 C 21.140625 27.25 15.4375 25.1875 10.96875 21.0625 C 6.5 16.9375 4.195312 11.507812 4.0625 4.78125 L 12.375 4.78125 C 12.375 9.082031 13.8125 12.617188 16.6875 15.390625 C 19.5625 18.160156 23.359375 19.546875 28.078125 19.546875 C 33.203125 19.546875 37.082031 17.953125 39.71875 14.765625 C 42.351562 11.578125 43.671875 6.304688 43.671875 -1.046875 L 43.671875 -6.765625 L 43.46875 -6.765625 C 41.519531 -4.265625 39.035156 -2.285156 36.015625 -0.828125 C 33.003906 0.628906 29.835938 1.359375 26.515625 1.359375 C 22.003906 1.359375 17.984375 0.210938 14.453125 -2.078125 C 10.921875 -4.367188 8.164062 -7.472656 6.1875 -11.390625 C 4.207031 -15.304688 3.21875 -19.585938 3.21875 -24.234375 C 3.21875 -29.015625 4.238281 -33.394531 6.28125 -37.375 C 8.332031 -41.363281 11.160156 -44.5 14.765625 -46.78125 C 18.367188 -49.070312 22.390625 -50.21875 26.828125 -50.21875 C 30.222656 -50.21875 33.34375 -49.488281 36.1875 -48.03125 C 39.03125 -46.582031 41.457031 -44.539062 43.46875 -41.90625 Z M 27.65625 -42.53125 C 24.75 -42.53125 22.082031 -41.765625 19.65625 -40.234375 C 17.226562 -38.710938 15.300781 -36.582031 13.875 -33.84375 C 12.457031 -31.101562 11.75 -28.140625 11.75 -24.953125 C 11.75 -19.617188 13.238281 -15.179688 16.21875 -11.640625 C 19.195312 -8.109375 23.046875 -6.34375 27.765625 -6.34375 C 32.679688 -6.34375 36.628906 -8.070312 39.609375 -11.53125 C 42.597656 -15 44.09375 -19.441406 44.09375 -24.859375 C 44.09375 -30.054688 42.546875 -34.300781 39.453125 -37.59375 C 36.367188 -40.882812 32.4375 -42.53125 27.65625 -42.53125 Z M 27.65625 -42.53125 "/></g></g></g><g fill="#000000" fill-opacity="1"><g transform="translate(997.195642, 1801.488774)"><g><path d="M 17.78125 -48.875 L 17.78125 0 L 9.46875 0 L 9.46875 -48.875 Z M 7.6875 -67.484375 C 7.6875 -69.015625 8.289062 -70.347656 9.5 -71.484375 C 10.71875 -72.628906 12.09375 -73.203125 13.625 -73.203125 C 15.21875 -73.203125 16.601562 -72.628906 17.78125 -71.484375 C 18.957031 -70.347656 19.546875 -69.015625 19.546875 -67.484375 C 19.546875 -65.679688 18.957031 -64.207031 17.78125 -63.0625 C 16.601562 -61.914062 15.21875 -61.34375 13.625 -61.34375 C 12.03125 -61.34375 10.640625 -61.894531 9.453125 -63 C 8.273438 -64.113281 7.6875 -65.609375 7.6875 -67.484375 Z M 7.6875 -67.484375 "/></g></g></g><g fill="#000000" fill-opacity="1"><g transform="translate(1024.439808, 1801.488774)"><g><path d="M 27.65625 -37.53125 C 26.894531 -39.132812 25.925781 -40.367188 24.75 -41.234375 C 23.570312 -42.097656 22.320312 -42.53125 21 -42.53125 C 19.476562 -42.53125 18.09375 -41.992188 16.84375 -40.921875 C 15.59375 -39.847656 14.96875 -38.582031 14.96875 -37.125 C 14.96875 -34.28125 17.6875 -31.867188 23.125 -29.890625 C 28.570312 -27.921875 32.351562 -25.753906 34.46875 -23.390625 C 36.582031 -21.035156 37.640625 -18.09375 37.640625 -14.5625 C 37.640625 -11.851562 37.015625 -9.320312 35.765625 -6.96875 C 34.523438 -4.613281 32.601562 -2.632812 30 -1.03125 C 27.394531 0.5625 24.429688 1.359375 21.109375 1.359375 C 17.085938 1.359375 13.550781 0.285156 10.5 -1.859375 C 7.445312 -4.015625 5.226562 -7.066406 3.84375 -11.015625 L 11.234375 -14.140625 C 12.484375 -11.234375 13.882812 -9.207031 15.4375 -8.0625 C 17 -6.914062 18.925781 -6.34375 21.21875 -6.34375 C 23.570312 -6.34375 25.472656 -7.050781 26.921875 -8.46875 C 28.378906 -9.894531 29.109375 -11.679688 29.109375 -13.828125 C 29.109375 -15.628906 28.453125 -17.207031 27.140625 -18.5625 C 25.828125 -19.914062 23.414062 -21.285156 19.90625 -22.671875 C 16.40625 -24.054688 13.6875 -25.441406 11.75 -26.828125 C 8.695312 -29.046875 7.140625 -32.234375 7.078125 -36.390625 C 7.078125 -40.273438 8.460938 -43.550781 11.234375 -46.21875 C 14.003906 -48.882812 17.46875 -50.21875 21.625 -50.21875 C 24.257812 -50.21875 26.789062 -49.382812 29.21875 -47.71875 C 31.644531 -46.0625 33.445312 -43.878906 34.625 -41.171875 Z M 27.65625 -37.53125 "/></g></g></g><g fill="#000000" fill-opacity="1"><g transform="translate(1065.929994, 1801.488774)"><g><path d="M 16.640625 -66.453125 L 16.640625 -48.875 L 25.375 -48.875 L 25.375 -41.171875 L 16.640625 -41.171875 L 16.640625 0 L 8.3125 0 L 8.3125 -41.171875 L 3.21875 -41.171875 L 3.21875 -48.875 L 8.3125 -48.875 L 8.3125 -66.453125 Z M 16.640625 -66.453125 "/></g></g></g><g fill="#000000" fill-opacity="1"><g transform="translate(1090.886496, 1801.488774)"><g><path d="M 30.359375 -40.34375 C 29.523438 -40.96875 28.742188 -41.488281 28.015625 -41.90625 C 27.296875 -42.320312 26.414062 -42.53125 25.375 -42.53125 C 22.25 -42.53125 19.875 -41.140625 18.25 -38.359375 C 16.625 -35.585938 15.8125 -31.117188 15.8125 -24.953125 L 15.8125 0 L 7.484375 0 L 7.484375 -48.875 L 15.8125 -48.875 L 15.8125 -43.5625 L 16.015625 -43.5625 C 18.023438 -46.269531 19.804688 -48.054688 21.359375 -48.921875 C 22.921875 -49.785156 24.742188 -50.21875 26.828125 -50.21875 C 28.078125 -50.21875 29.34375 -50.007812 30.625 -49.59375 C 31.90625 -49.1875 33.132812 -48.632812 34.3125 -47.9375 Z M 30.359375 -40.34375 "/></g></g></g><g fill="#000000" fill-opacity="1"><g transform="translate(1125.721636, 1801.488774)"><g><path d="M 44.1875 -41.90625 L 44.1875 -48.875 L 52.515625 -48.875 L 52.515625 0 L 44.1875 0 L 44.1875 -6.765625 L 43.984375 -6.765625 C 39.679688 -1.347656 34.066406 1.359375 27.140625 1.359375 C 20.347656 1.359375 14.75 -1.132812 10.34375 -6.125 C 5.945312 -11.125 3.75 -17.191406 3.75 -24.328125 C 3.75 -31.816406 5.960938 -38.003906 10.390625 -42.890625 C 14.828125 -47.773438 20.445312 -50.21875 27.25 -50.21875 C 30.644531 -50.21875 33.78125 -49.488281 36.65625 -48.03125 C 39.53125 -46.582031 41.972656 -44.539062 43.984375 -41.90625 Z M 28.1875 -42.53125 C 23.75 -42.53125 19.984375 -40.832031 16.890625 -37.4375 C 13.804688 -34.039062 12.265625 -29.878906 12.265625 -24.953125 C 12.265625 -19.679688 13.769531 -15.257812 16.78125 -11.6875 C 19.800781 -8.125 23.632812 -6.34375 28.28125 -6.34375 C 33.207031 -6.34375 37.160156 -8.039062 40.140625 -11.4375 C 43.117188 -14.832031 44.609375 -19.304688 44.609375 -24.859375 C 44.609375 -29.910156 43.082031 -34.117188 40.03125 -37.484375 C 36.976562 -40.847656 33.03125 -42.53125 28.1875 -42.53125 Z M 28.1875 -42.53125 "/></g></g></g><g fill="#000000" fill-opacity="1"><g transform="translate(1185.721227, 1801.488774)"><g><path d="M 16.640625 -66.453125 L 16.640625 -48.875 L 25.375 -48.875 L 25.375 -41.171875 L 16.640625 -41.171875 L 16.640625 0 L 8.3125 0 L 8.3125 -41.171875 L 3.21875 -41.171875 L 3.21875 -48.875 L 8.3125 -48.875 L 8.3125 -66.453125 Z M 16.640625 -66.453125 "/></g></g></g><g fill="#000000" fill-opacity="1"><g transform="translate(1210.677728, 1801.488774)"><g><path d="M 17.78125 -48.875 L 17.78125 0 L 9.46875 0 L 9.46875 -48.875 Z M 7.6875 -67.484375 C 7.6875 -69.015625 8.289062 -70.347656 9.5 -71.484375 C 10.71875 -72.628906 12.09375 -73.203125 13.625 -73.203125 C 15.21875 -73.203125 16.601562 -72.628906 17.78125 -71.484375 C 18.957031 -70.347656 19.546875 -69.015625 19.546875 -67.484375 C 19.546875 -65.679688 18.957031 -64.207031 17.78125 -63.0625 C 16.601562 -61.914062 15.21875 -61.34375 13.625 -61.34375 C 12.03125 -61.34375 10.640625 -61.894531 9.453125 -63 C 8.273438 -64.113281 7.6875 -65.609375 7.6875 -67.484375 Z M 7.6875 -67.484375 "/></g></g></g><g fill="#000000" fill-opacity="1"><g transform="translate(1237.921894, 1801.488774)"><g><path d="M 3.53125 -24.328125 C 3.53125 -28.972656 4.671875 -33.304688 6.953125 -37.328125 C 9.242188 -41.347656 12.363281 -44.5 16.3125 -46.78125 C 20.269531 -49.070312 24.570312 -50.21875 29.21875 -50.21875 C 33.863281 -50.21875 38.144531 -49.070312 42.0625 -46.78125 C 45.976562 -44.5 49.097656 -41.363281 51.421875 -37.375 C 53.742188 -33.394531 54.90625 -29.046875 54.90625 -24.328125 C 54.90625 -19.679688 53.757812 -15.363281 51.46875 -11.375 C 49.1875 -7.394531 46.066406 -4.273438 42.109375 -2.015625 C 38.160156 0.234375 33.863281 1.359375 29.21875 1.359375 C 24.570312 1.359375 20.253906 0.210938 16.265625 -2.078125 C 12.285156 -4.367188 9.164062 -7.503906 6.90625 -11.484375 C 4.65625 -15.472656 3.53125 -19.753906 3.53125 -24.328125 Z M 29.109375 -42.53125 C 24.191406 -42.53125 20.085938 -40.78125 16.796875 -37.28125 C 13.503906 -33.78125 11.859375 -29.5 11.859375 -24.4375 C 11.859375 -20.695312 12.757812 -17.382812 14.5625 -14.5 C 16.363281 -11.625 18.5625 -9.546875 21.15625 -8.265625 C 23.757812 -6.984375 26.445312 -6.34375 29.21875 -6.34375 C 32.40625 -6.34375 35.316406 -7.085938 37.953125 -8.578125 C 40.585938 -10.066406 42.679688 -12.210938 44.234375 -15.015625 C 45.796875 -17.828125 46.578125 -20.96875 46.578125 -24.4375 C 46.578125 -27.625 45.867188 -30.601562 44.453125 -33.375 C 43.035156 -36.144531 40.972656 -38.363281 38.265625 -40.03125 C 35.554688 -41.695312 32.503906 -42.53125 29.109375 -42.53125 Z M 29.109375 -42.53125 "/></g></g></g><g fill="#000000" fill-opacity="1"><g transform="translate(1296.361709, 1801.488774)"><g><path d="M 47 0 L 38.6875 0 L 38.6875 -28.484375 C 38.6875 -33.410156 37.9375 -36.984375 36.4375 -39.203125 C 34.945312 -41.421875 32.265625 -42.53125 28.390625 -42.53125 C 23.953125 -42.53125 20.8125 -41.003906 18.96875 -37.953125 C 17.132812 -34.898438 16.21875 -30.253906 16.21875 -24.015625 L 16.21875 0 L 7.90625 0 L 7.90625 -48.875 L 16.21875 -48.875 L 16.21875 -42.953125 L 16.421875 -42.953125 C 18.160156 -45.304688 20.15625 -47.101562 22.40625 -48.34375 C 24.65625 -49.59375 27.304688 -50.21875 30.359375 -50.21875 C 35.835938 -50.21875 39.976562 -48.535156 42.78125 -45.171875 C 45.59375 -41.816406 47 -36.601562 47 -29.53125 Z M 47 0 "/></g></g></g></svg>