<svg xmlns="http://www.w3.org/2000/svg" xmlns:xlink="http://www.w3.org/1999/xlink" version="1.1" width="1024" height="1024" viewBox="0 0 1024 1024" xml:space="preserve">
<desc>Created with Fabric.js 3.5.0</desc>
<defs>
</defs>
<rect x="0" y="0" width="100%" height="100%" fill="#fff"/>
<g transform="matrix(11.1761 0 0 10.5519 511.9992 422.076)" id="429431">
<g style="" vector-effect="non-scaling-stroke">
		<g transform="matrix(1 0 0 1 -0.2383 0.0093)">
<linearGradient id="SVGID_1922" gradientUnits="userSpaceOnUse" gradientTransform="matrix(1 0 0 1 0 0)" x1="91.1663" y1="103.929" x2="19.6522" y2="15.1126">
<stop offset="0%" style="stop-color:rgb(218,227,254);stop-opacity: 1"/>
<stop offset="100%" style="stop-color:rgb(233,239,253);stop-opacity: 1"/>
</linearGradient>
<path style="stroke: none; stroke-width: 1; stroke-dasharray: none; stroke-linecap: butt; stroke-dashoffset: 0; stroke-linejoin: miter; stroke-miterlimit: 4; is-custom-font: none; font-file-url: none; fill: url(#SVGID_1922); fill-rule: nonzero; opacity: 1;" transform=" translate(-40.7617, -40.0093)" d="M 71.7133 68.7498 C 70.0587 70.4708 68.4927 71.5805 67.2558 72.4573 C 52.7146 82.7643 35.5085 79.7599 31.8519 79.0263 C 26.452 77.9428 16.0142 75.8485 8.46787 67.0816 C -2.94928 53.8179 -1.17136 32.9214 7.68447 19.1273 C 9.30391 16.604 17.8608 2.59988 35.2521 0.354111 C 45.7772 -1.00495 58.0462 1.73625 66.9307 9.08974 C 85.5806 24.5255 84.253 55.7081 71.7133 68.7498 Z" stroke-linecap="round"/>
</g>
		<g transform="matrix(1 0 0 1 20.0749 14.651)">
<path style="stroke: none; stroke-width: 1; stroke-dasharray: none; stroke-linecap: butt; stroke-dashoffset: 0; stroke-linejoin: miter; stroke-miterlimit: 4; is-custom-font: none; font-file-url: none; fill: rgb(125,151,244); fill-rule: nonzero; opacity: 1;" transform=" translate(-61.0749, -54.6511)" d="M 40.9512 76.9041 C 40.9512 76.9041 56.8297 36.7911 80.4184 32.4093 C 80.837 32.3316 81.2185 32.6661 81.1979 33.0914 C 80.9595 38.0392 77.9379 64.2256 40.9515 76.9041 H 40.9512 Z" stroke-linecap="round"/>
</g>
		<g transform="matrix(1 0 0 1 17.8781 17.0729)">
<path style="stroke: none; stroke-width: 1; stroke-dasharray: none; stroke-linecap: butt; stroke-dashoffset: 0; stroke-linejoin: miter; stroke-miterlimit: 4; is-custom-font: none; font-file-url: none; fill: rgb(255,255,255); fill-rule: nonzero; opacity: 0.62;" transform=" translate(-58.878, -57.073)" d="M 76.1802 38.9158 C 74.9757 40.6346 73.7134 42.3084 72.434 43.9695 C 72.1145 44.385 71.788 44.7951 71.4654 45.2081 C 71.1403 45.619 70.8219 46.0356 70.4909 46.4421 L 69.5017 47.6644 C 69.1704 48.0706 68.8464 48.4827 68.5069 48.8821 C 67.833 49.6849 67.1653 50.4934 66.4861 51.292 L 64.4269 53.6692 C 63.0299 55.2326 61.6339 56.7975 60.1941 58.3221 L 59.1224 59.4734 C 58.7694 59.8613 58.3953 60.2289 58.0328 60.6075 L 55.8456 62.8693 L 53.602 65.0757 C 53.2271 65.4425 52.8561 65.8135 52.4741 66.1727 L 51.3169 67.239 C 50.5439 67.9481 49.7788 68.6661 48.9926 69.3609 L 46.6027 71.4088 L 46.0025 71.9174 C 45.8007 72.0849 45.6048 72.2591 45.3984 72.4213 L 44.1638 73.3972 C 43.7534 73.7238 43.3373 74.0433 42.9244 74.3664 C 42.5111 74.689 42.0971 75.0108 41.6807 75.3294 C 41.6489 75.3539 41.6033 75.3477 41.5788 75.3159 C 41.5555 75.2852 41.5602 75.2416 41.589 75.2168 L 41.5909 75.2151 C 41.9887 74.8737 42.3887 74.5359 42.7895 74.1986 C 43.1907 73.8617 43.5884 73.5214 43.9921 73.1881 L 45.1994 72.1843 C 45.5974 71.8445 45.9831 71.4901 46.378 71.1467 L 48.7423 69.0805 L 51.0579 66.9597 L 52.2165 65.9002 C 52.4102 65.7242 52.5946 65.5382 52.7843 65.358 L 53.3523 64.8161 L 55.624 62.6472 C 57.1016 61.1637 58.6039 59.7031 60.0305 58.1692 C 60.7512 57.4092 61.4802 56.657 62.1764 55.8742 C 62.8784 55.097 63.5867 54.3254 64.2834 53.5434 L 66.3495 51.1763 C 67.0313 50.3811 67.7013 49.576 68.3777 48.7763 C 68.7183 48.3782 69.0437 47.9678 69.3762 47.5633 L 70.3693 46.3456 C 70.7014 45.9408 71.0212 45.5256 71.3475 45.1163 C 71.6715 44.7047 71.9994 44.2963 72.32 43.8822 C 73.5983 42.2234 74.8588 40.5479 76.0591 38.8336 L 76.06 38.8325 C 76.0831 38.7995 76.1284 38.7917 76.161 38.8147 C 76.194 38.8378 76.2019 38.8831 76.1791 38.9158 H 76.1802 Z" stroke-linecap="round"/>
</g>
		<g transform="matrix(1 0 0 1 12.7917 -13.0505)">
<path style="stroke: none; stroke-width: 1; stroke-dasharray: none; stroke-linecap: butt; stroke-dashoffset: 0; stroke-linejoin: miter; stroke-miterlimit: 4; is-custom-font: none; font-file-url: none; fill: rgb(145,179,250); fill-rule: nonzero; opacity: 0.79;" transform=" translate(-53.7917, -26.9495)" d="M 37.1033 53.899 C 37.1033 53.899 44.8225 18.4773 68.1249 0.115417 C 68.4286 -0.124135 68.8785 0.0273093 68.9711 0.402823 C 70.4368 6.3342 78.0687 44.166 37.103 53.899 H 37.1033 Z" stroke-linecap="round"/>
</g>
		<g transform="matrix(1 0 0 1 10.9886 -8.6974)">
<path style="stroke: none; stroke-width: 1; stroke-dasharray: none; stroke-linecap: butt; stroke-dashoffset: 0; stroke-linejoin: miter; stroke-miterlimit: 4; is-custom-font: none; font-file-url: none; fill: rgb(255,255,255); fill-rule: nonzero; opacity: 0.4898;" transform=" translate(-51.9886, -31.3026)" d="M 65.651 10.334 C 65.3833 11.3617 65.072 12.374 64.7435 13.3817 C 64.4144 14.3889 64.0684 15.391 63.7011 16.385 C 62.9641 18.3723 62.1613 20.3355 61.2963 22.2713 C 61.0818 22.7561 60.8555 23.2354 60.6356 23.7179 C 60.4144 24.1996 60.1754 24.673 59.9462 25.151 C 59.7185 25.6298 59.4725 26.0997 59.2338 26.5729 L 58.8723 27.2814 L 58.4985 27.9831 C 57.5026 29.8551 56.4532 31.7003 55.3221 33.4951 C 54.1877 35.2871 53.0088 37.0529 51.737 38.7514 C 51.5796 38.9648 51.4251 39.1804 51.2652 39.3918 L 50.7774 40.0204 L 50.2895 40.6487 C 50.126 40.8573 49.9672 41.0701 49.7958 41.2725 L 48.7824 42.4996 L 48.528 42.8053 L 48.2645 43.1034 L 47.7375 43.6993 C 44.9409 46.8903 41.8104 49.7869 38.4257 52.3372 C 38.3978 52.3583 38.3581 52.3527 38.337 52.3248 C 38.3164 52.2975 38.3212 52.2593 38.3474 52.2379 L 38.3488 52.2367 L 39.5778 51.2343 L 40.1932 50.735 L 40.7888 50.2119 L 41.9784 49.1651 L 43.1286 48.0751 C 43.3189 47.8921 43.5151 47.7151 43.7026 47.5293 L 44.2596 46.966 C 44.6293 46.5888 45.0065 46.2189 45.3693 45.8355 C 46.0829 45.0569 46.8134 44.2941 47.4926 43.4848 L 48.0106 42.8858 L 48.2695 42.5863 L 48.5195 42.2789 L 49.5216 41.0524 C 49.6917 40.8503 49.8487 40.638 50.0109 40.4297 L 50.4942 39.8025 L 50.9775 39.1754 C 51.136 38.9643 51.2889 38.7489 51.4448 38.5361 C 52.7045 36.8407 53.8716 35.0782 54.9945 33.2902 C 56.1233 31.5049 57.178 29.6732 58.1765 27.8114 L 58.5517 27.1136 L 58.9143 26.409 C 59.1541 25.9384 59.401 25.4714 59.6296 24.9951 C 60.0985 24.0484 60.5512 23.0939 60.9968 22.1356 C 61.8812 20.2164 62.7032 18.2679 63.4618 16.2949 C 63.8469 15.3105 64.2103 14.3177 64.5574 13.3192 C 64.7316 12.8201 64.8991 12.3191 65.0613 11.816 C 65.226 11.3141 65.3833 10.8086 65.5286 10.3022 V 10.301 C 65.5387 10.2675 65.5736 10.2481 65.6071 10.2577 C 65.6403 10.2673 65.6595 10.3013 65.651 10.3345 V 10.334 Z" stroke-linecap="round"/>
</g>
		<g transform="matrix(1 0 0 1 -28.5033 -12.9239)">
<path style="stroke: none; stroke-width: 1; stroke-dasharray: none; stroke-linecap: butt; stroke-dashoffset: 0; stroke-linejoin: miter; stroke-miterlimit: 4; is-custom-font: none; font-file-url: none; fill: rgb(145,179,250); fill-rule: nonzero; opacity: 0.76;" transform=" translate(-12.4967, -27.0761)" d="M 24.9934 51.9978 C 24.9934 51.9978 21.9834 20.5757 3.73605 2.29116 C 3.49818 2.05274 3.09368 2.13718 2.9746 2.45218 C 1.09394 7.42844 -9.41652 39.3469 24.9934 51.9981 V 51.9978 Z" stroke-linecap="round"/>
</g>
		<g transform="matrix(1 0 0 1 -26.5395 -9.0782)">
<path style="stroke: none; stroke-width: 1; stroke-dasharray: none; stroke-linecap: butt; stroke-dashoffset: 0; stroke-linejoin: miter; stroke-miterlimit: 4; is-custom-font: none; font-file-url: none; fill: rgb(255,255,255); fill-rule: nonzero; opacity: 0.4712;" transform=" translate(-14.4605, -30.9218)" d="M 4.93566 11.3651 C 5.24699 13.1768 5.6501 14.9761 6.1109 16.7572 C 6.56439 18.5404 7.07474 20.3093 7.64223 22.0591 C 7.92936 22.9329 8.2224 23.8047 8.52979 24.6714 C 8.67814 25.1066 8.84337 25.5359 9.00214 25.9674 L 9.24282 26.6137 L 9.49503 27.2555 C 10.1658 28.9676 10.889 30.6596 11.68 32.319 C 12.4651 33.981 13.291 35.6252 14.2042 37.2207 C 14.317 37.4209 14.4268 37.6227 14.5417 37.8217 L 14.8944 38.414 L 15.2471 39.0062 C 15.3656 39.203 15.4793 39.4029 15.6052 39.5951 L 16.3438 40.7591 L 16.5276 41.0507 L 16.7202 41.3364 L 17.1055 41.9079 C 17.6083 42.6778 18.16 43.4133 18.6957 44.1604 C 18.9696 44.5294 19.257 44.8883 19.5371 45.2529 L 19.9599 45.7976 C 20.1026 45.9777 20.2538 46.1511 20.399 46.329 L 21.279 47.3911 L 22.1975 48.4203 L 22.6575 48.9346 L 23.1368 49.4305 L 24.0936 50.4256 L 24.0948 50.4268 C 24.119 50.4521 24.1181 50.4921 24.0931 50.5163 C 24.0686 50.5399 24.0297 50.5396 24.0055 50.5163 C 21.3378 47.9659 18.9274 45.1389 16.8364 42.0914 L 16.4418 41.5217 L 16.2444 41.2368 L 16.0558 40.946 L 15.3059 39.7803 C 15.1784 39.5875 15.0633 39.3874 14.9434 39.19 L 14.5862 38.5961 L 14.2289 38.0021 C 14.1124 37.8028 14.0012 37.6002 13.8869 37.3995 C 12.9622 35.7992 12.125 34.1504 11.329 32.4834 C 10.5368 30.8139 9.82072 29.1097 9.15358 27.3875 L 8.90305 26.7418 L 8.66406 26.0918 C 8.50671 25.6577 8.34259 25.2262 8.19537 24.7885 C 8.04674 24.3513 7.88911 23.9173 7.7478 23.4778 C 7.60789 23.0379 7.46236 22.5996 7.32724 22.1582 C 6.24236 18.6291 5.3413 15.0389 4.80927 11.3823 C 4.8042 11.3477 4.82813 11.3156 4.86275 11.3105 C 4.89682 11.3054 4.92834 11.3285 4.93425 11.3623 L 4.93482 11.3648 L 4.93566 11.3651 Z" stroke-linecap="round"/>
</g>
		<g transform="matrix(1 0 0 1 -8.1843 -1.0891)">
<linearGradient id="SVGID_1923" gradientUnits="userSpaceOnUse" gradientTransform="matrix(1 0 0 1 0 0)" x1="54.2851" y1="-0.0332137" x2="-30.9766" y2="154.656">
<stop offset="0%" style="stop-color:rgb(9,0,93);stop-opacity: 1"/>
<stop offset="100%" style="stop-color:rgb(26,15,145);stop-opacity: 1"/>
</linearGradient>
<path style="stroke: none; stroke-width: 1; stroke-dasharray: none; stroke-linecap: butt; stroke-dashoffset: 0; stroke-linejoin: miter; stroke-miterlimit: 4; is-custom-font: none; font-file-url: none; fill: url(#SVGID_1923); fill-rule: nonzero; opacity: 1;" transform=" translate(-32.8156, -38.9109)" d="M 8.81239 4.15966 C 8.55116 16.4903 7.70358 59.0236 8.10809 74.0959 C 8.15087 75.6926 9.24504 76.9742 10.61 77.0266 C 17.3608 77.285 42.1087 77.94 53.1506 77.3981 C 55.4505 77.2853 57.2793 75.1059 57.3272 72.4137 C 57.5566 59.4711 58.063 23.0685 56.8596 6.39219 C 56.7155 4.39414 55.375 2.80313 53.6694 2.60355 C 46.3176 1.74302 21.4633 -0.360027 11.9237 0.36426 C 10.2033 0.494873 8.85517 2.14359 8.81239 4.15966 Z" stroke-linecap="round"/>
</g>
		<g transform="matrix(1 0 0 1 -8.184 -3.9445)">
<path style="stroke: none; stroke-width: 1; stroke-dasharray: none; stroke-linecap: butt; stroke-dashoffset: 0; stroke-linejoin: miter; stroke-miterlimit: 4; is-custom-font: none; font-file-url: none; fill: rgb(125,151,244); fill-rule: nonzero; opacity: 1;" transform=" translate(-32.816, -36.0555)" d="M 11.8246 7.94294 C 11.4612 17.8958 10.3149 51.006 10.6789 63.2494 C 10.7321 65.0388 11.9377 66.486 13.4657 66.5904 C 19.7571 67.0211 41.2216 67.9709 50.4496 67.1064 C 52.1113 66.9507 53.4152 65.3786 53.5049 63.4315 C 53.9725 53.2777 55.3152 22.4472 54.9665 10.341 C 54.9107 8.40966 53.6319 6.83244 51.9868 6.65961 C 45.1806 5.94461 22.3719 4.24354 14.5303 4.74403 C 13.0584 4.83805 11.8873 6.21963 11.8246 7.94266 V 7.94294 Z" stroke-linecap="round"/>
</g>
		<g transform="matrix(1 0 0 1 -7.6437 -36.9442)">
<linearGradient id="SVGID_1924" gradientUnits="userSpaceOnUse" gradientTransform="matrix(1 0 0 1 0 0)" x1="28.7074" y1="-44.3512" x2="31.6209" y2="-14.6332">
<stop offset="0%" style="stop-color:rgb(79,82,255);stop-opacity: 1"/>
<stop offset="100%" style="stop-color:rgb(64,66,226);stop-opacity: 1"/>
</linearGradient>
<path style="stroke: none; stroke-width: 1; stroke-dasharray: none; stroke-linecap: butt; stroke-dashoffset: 0; stroke-linejoin: miter; stroke-miterlimit: 4; is-custom-font: none; font-file-url: none; fill: url(#SVGID_1924); fill-rule: nonzero; opacity: 1;" transform=" translate(-33.3563, -3.0558)" d="M 28.7007 2.81022 C 28.7007 3.18855 28.9526 3.50072 29.2758 3.52043 C 30.8702 3.61811 35.362 3.89453 37.3693 4.03078 C 37.7651 4.0578 38.0759 3.64147 38.0007 3.18601 L 37.988 3.10832 C 37.9368 2.79755 37.7164 2.56363 37.447 2.53491 C 36.0902 2.38938 31.9956 1.986 29.2828 2.09944 C 28.9568 2.11295 28.7007 2.42907 28.7007 2.8105 V 2.81022 Z" stroke-linecap="round"/>
</g>
		<g transform="matrix(1 0 0 1 -9.1616 -20.5989)">
<linearGradient id="SVGID_1925" gradientUnits="userSpaceOnUse" gradientTransform="matrix(1 0 0 1 0 0)" x1="22.4221" y1="19.4011" x2="41.2544" y2="19.4011">
<stop offset="0%" style="stop-color:rgb(79,82,255);stop-opacity: 1"/>
<stop offset="100%" style="stop-color:rgb(64,66,226);stop-opacity: 1"/>
</linearGradient>
<path style="stroke: none; stroke-width: 1; stroke-dasharray: none; stroke-linecap: butt; stroke-dashoffset: 0; stroke-linejoin: miter; stroke-miterlimit: 4; is-custom-font: none; font-file-url: none; fill: url(#SVGID_1925); fill-rule: nonzero; opacity: 1;" transform=" translate(-31.8384, -19.4011)" d="M 31.8384 28.8171 C 37.0387 28.8171 41.2544 24.6014 41.2544 19.4011 C 41.2544 14.2008 37.0387 9.98511 31.8384 9.98511 C 26.6381 9.98511 22.4224 14.2008 22.4224 19.4011 C 22.4224 24.6014 26.6381 28.8171 31.8384 28.8171 Z" stroke-linecap="round"/>
</g>
		<g transform="matrix(1 0 0 1 -9.1662 -23.8618)">
<path style="stroke: none; stroke-width: 1; stroke-dasharray: none; stroke-linecap: butt; stroke-dashoffset: 0; stroke-linejoin: miter; stroke-miterlimit: 4; is-custom-font: none; font-file-url: none; fill: rgb(255,255,255); fill-rule: nonzero; opacity: 1;" transform=" translate(-31.8338, -16.1382)" d="M 34.7208 15.8431 C 34.7208 17.4375 33.4282 19.1588 31.8338 19.1588 C 30.2394 19.1588 28.9468 17.4375 28.9468 15.8431 C 28.9468 14.2487 30.2394 13.1177 31.8338 13.1177 C 33.4282 13.1177 34.7208 14.2487 34.7208 15.8431 Z" stroke-linecap="round"/>
</g>
		<g transform="matrix(1 0 0 1 -9.181 -17.3115)">
<path style="stroke: none; stroke-width: 1; stroke-dasharray: none; stroke-linecap: butt; stroke-dashoffset: 0; stroke-linejoin: miter; stroke-miterlimit: 4; is-custom-font: none; font-file-url: none; fill: rgb(255,255,255); fill-rule: nonzero; opacity: 1;" transform=" translate(-31.8191, -22.6885)" d="M 28.2516 25.2974 H 35.2991 C 36.0408 25.2974 36.6978 24.818 36.9239 24.1115 L 37.303 22.9261 C 37.5806 22.0583 37.1293 21.1186 36.2736 20.8059 C 33.4055 19.7573 30.4399 19.8919 27.402 20.9027 C 26.5511 21.1859 26.0787 22.0963 26.3135 22.9619 L 26.6054 24.0383 C 26.8069 24.7814 27.4817 25.2974 28.2518 25.2974 H 28.2516 Z" stroke-linecap="round"/>
</g>
		<g transform="matrix(1 0 0 1 -8.2845 1.1824)">
<path style="stroke: none; stroke-width: 1; stroke-dasharray: none; stroke-linecap: butt; stroke-dashoffset: 0; stroke-linejoin: miter; stroke-miterlimit: 4; is-custom-font: none; font-file-url: none; fill: rgb(255,255,255); fill-rule: nonzero; opacity: 0.4615;" transform=" translate(-32.7155, -41.1824)" d="M 49.8982 38.5096 H 15.5328 C 15.4278 38.5096 15.3428 38.5947 15.3428 38.6997 V 43.6652 C 15.3428 43.7702 15.4278 43.8552 15.5328 43.8552 H 49.8982 C 50.0032 43.8552 50.0883 43.7702 50.0883 43.6652 V 38.6997 C 50.0883 38.5947 50.0032 38.5096 49.8982 38.5096 Z" stroke-linecap="round"/>
</g>
		<g transform="matrix(1 0 0 1 -8.472 9.904)">
<path style="stroke: none; stroke-width: 1; stroke-dasharray: none; stroke-linecap: butt; stroke-dashoffset: 0; stroke-linejoin: miter; stroke-miterlimit: 4; is-custom-font: none; font-file-url: none; fill: rgb(255,255,255); fill-rule: nonzero; opacity: 0.4615;" transform=" translate(-32.528, -49.904)" d="M 49.7107 47.2312 H 15.3453 C 15.2403 47.2312 15.1553 47.3163 15.1553 47.4212 V 52.3868 C 15.1553 52.4917 15.2403 52.5768 15.3453 52.5768 H 49.7107 C 49.8157 52.5768 49.9007 52.4917 49.9007 52.3868 V 47.4212 C 49.9007 47.3163 49.8157 47.2312 49.7107 47.2312 Z" stroke-linecap="round"/>
</g>
		<g transform="matrix(1 0 0 1 -8.987 19.5713)">
<path style="stroke: none; stroke-width: 1; stroke-dasharray: none; stroke-linecap: butt; stroke-dashoffset: 0; stroke-linejoin: miter; stroke-miterlimit: 4; is-custom-font: none; font-file-url: none; fill: rgb(255,255,255); fill-rule: nonzero; opacity: 0.4615;" transform=" translate(-32.013, -59.5713)" d="M 21.0245 56.1638 H 43.0014 C 43.1309 56.1638 43.2359 56.2688 43.2359 56.3983 V 62.7443 C 43.2359 62.8738 43.1309 62.9788 43.0014 62.9788 H 21.0245 C 20.895 62.9788 20.79 62.8738 20.79 62.7443 V 56.3983 C 20.79 56.2688 20.895 56.1638 21.0245 56.1638 Z" stroke-linecap="round"/>
</g>
		<g transform="matrix(1 0 0 1 -13.7706 1.2052)">
<path style="stroke: none; stroke-width: 1; stroke-dasharray: none; stroke-linecap: butt; stroke-dashoffset: 0; stroke-linejoin: miter; stroke-miterlimit: 4; is-custom-font: none; font-file-url: none; fill: rgb(255,255,255); fill-rule: nonzero; opacity: 0.75;" transform=" translate(-27.2294, -41.2052)" d="M 37.2393 39.7203 H 17.2196 C 17.0331 39.7203 16.8818 39.8716 16.8818 40.0581 V 42.3523 C 16.8818 42.5389 17.0331 42.6901 17.2196 42.6901 H 37.2393 C 37.4258 42.6901 37.5771 42.5389 37.5771 42.3523 V 40.0581 C 37.5771 39.8716 37.4258 39.7203 37.2393 39.7203 Z" stroke-linecap="round"/>
</g>
		<g transform="matrix(1 0 0 1 -23.3992 9.7552)">
<path style="stroke: none; stroke-width: 1; stroke-dasharray: none; stroke-linecap: butt; stroke-dashoffset: 0; stroke-linejoin: miter; stroke-miterlimit: 4; is-custom-font: none; font-file-url: none; fill: rgb(255,255,255); fill-rule: nonzero; opacity: 0.75;" transform=" translate(-17.6007, -49.7552)" d="M 18.0673 50.8815 C 18.6893 50.6238 18.9847 49.9107 18.7271 49.2886 C 18.4694 48.6665 17.7562 48.3711 17.1342 48.6288 C 16.5121 48.8865 16.2167 49.5996 16.4744 50.2217 C 16.732 50.8438 17.4452 51.1392 18.0673 50.8815 Z" stroke-linecap="round"/>
</g>
		<g transform="matrix(1 0 0 1 -20.0538 9.8176)">
<path style="stroke: none; stroke-width: 1; stroke-dasharray: none; stroke-linecap: butt; stroke-dashoffset: 0; stroke-linejoin: miter; stroke-miterlimit: 4; is-custom-font: none; font-file-url: none; fill: rgb(255,255,255); fill-rule: nonzero; opacity: 0.75;" transform=" translate(-20.9462, -49.8175)" d="M 20.9462 51.0367 C 21.6195 51.0367 22.1654 50.4909 22.1654 49.8175 C 22.1654 49.1442 21.6195 48.5984 20.9462 48.5984 C 20.2729 48.5984 19.7271 49.1442 19.7271 49.8175 C 19.7271 50.4909 20.2729 51.0367 20.9462 51.0367 Z" stroke-linecap="round"/>
</g>
		<g transform="matrix(1 0 0 1 -16.8347 9.9713)">
<path style="stroke: none; stroke-width: 1; stroke-dasharray: none; stroke-linecap: butt; stroke-dashoffset: 0; stroke-linejoin: miter; stroke-miterlimit: 4; is-custom-font: none; font-file-url: none; fill: rgb(255,255,255); fill-rule: nonzero; opacity: 0.75;" transform=" translate(-24.1654, -49.9713)" d="M 25.3519 50.2514 C 25.5066 49.596 25.1007 48.9394 24.4454 48.7848 C 23.7901 48.6301 23.1335 49.0359 22.9788 49.6913 C 22.8241 50.3466 23.23 51.0032 23.8853 51.1579 C 24.5406 51.3125 25.1972 50.9067 25.3519 50.2514 Z" stroke-linecap="round"/>
</g>
		<g transform="matrix(1 0 0 1 -13.4893 10.0365)">
<path style="stroke: none; stroke-width: 1; stroke-dasharray: none; stroke-linecap: butt; stroke-dashoffset: 0; stroke-linejoin: miter; stroke-miterlimit: 4; is-custom-font: none; font-file-url: none; fill: rgb(255,255,255); fill-rule: nonzero; opacity: 0.75;" transform=" translate(-27.5106, -50.0365)" d="M 27.5107 51.2557 C 28.184 51.2557 28.7298 50.7099 28.7298 50.0365 C 28.7298 49.3632 28.184 48.8174 27.5107 48.8174 C 26.8373 48.8174 26.2915 49.3632 26.2915 50.0365 C 26.2915 50.7099 26.8373 51.2557 27.5107 51.2557 Z" stroke-linecap="round"/>
</g>
		<g transform="matrix(1 0 0 1 -10.1441 10.0051)">
<path style="stroke: none; stroke-width: 1; stroke-dasharray: none; stroke-linecap: butt; stroke-dashoffset: 0; stroke-linejoin: miter; stroke-miterlimit: 4; is-custom-font: none; font-file-url: none; fill: rgb(255,255,255); fill-rule: nonzero; opacity: 0.75;" transform=" translate(-30.8559, -50.005)" d="M 30.8559 51.2242 C 31.5292 51.2242 32.075 50.6784 32.075 50.005 C 32.075 49.3317 31.5292 48.7859 30.8559 48.7859 C 30.1826 48.7859 29.6367 49.3317 29.6367 50.005 C 29.6367 50.6784 30.1826 51.2242 30.8559 51.2242 Z" stroke-linecap="round"/>
</g>
		<g transform="matrix(1 0 0 1 -6.7994 10.0678)">
<path style="stroke: none; stroke-width: 1; stroke-dasharray: none; stroke-linecap: butt; stroke-dashoffset: 0; stroke-linejoin: miter; stroke-miterlimit: 4; is-custom-font: none; font-file-url: none; fill: rgb(255,255,255); fill-rule: nonzero; opacity: 0.75;" transform=" translate(-34.2006, -50.0678)" d="M 34.2006 51.2869 C 34.8739 51.2869 35.4198 50.7411 35.4198 50.0678 C 35.4198 49.3945 34.8739 48.8486 34.2006 48.8486 C 33.5273 48.8486 32.9814 49.3945 32.9814 50.0678 C 32.9814 50.7411 33.5273 51.2869 34.2006 51.2869 Z" stroke-linecap="round"/>
</g>
		<g transform="matrix(1 0 0 1 10.4032 26.7294)">
<linearGradient id="SVGID_1926" gradientUnits="userSpaceOnUse" gradientTransform="matrix(1 0 0 1 0 0)" x1="56.4868" y1="78.7946" x2="45.9417" y2="51.6484">
<stop offset="0%" style="stop-color:rgb(254,187,186);stop-opacity: 1"/>
<stop offset="100%" style="stop-color:rgb(255,146,142);stop-opacity: 1"/>
</linearGradient>
<path style="stroke: none; stroke-width: 1; stroke-dasharray: none; stroke-linecap: butt; stroke-dashoffset: 0; stroke-linejoin: miter; stroke-miterlimit: 4; is-custom-font: none; font-file-url: none; fill: url(#SVGID_1926); fill-rule: nonzero; opacity: 1;" transform=" translate(-51.4031, -66.7293)" d="M 48.123 54.0476 L 51.8582 54.9813 L 50.9245 61.9846 C 50.9245 61.9846 52.3252 63.3853 52.7919 65.2527 C 53.2589 67.1202 53.6893 74.9618 53.6893 74.9618 L 54.5755 75.4975 L 54.6833 75.9448 L 52.1048 79.4117 L 52.5324 76.6522 C 52.6002 76.2142 52.4826 75.3258 52.5197 75.3072 C 51.119 71.572 48.123 61.0503 48.123 61.0503 V 54.047 V 54.0476 Z" stroke-linecap="round"/>
</g>
		<g transform="matrix(1 0 0 1 7.0128 23.5634)">
<linearGradient id="SVGID_1927" gradientUnits="userSpaceOnUse" gradientTransform="matrix(1 0 0 1 0 0)" x1="56.6469" y1="166.113" x2="21.7942" y2="-241.227">
<stop offset="0%" style="stop-color:rgb(254,187,186);stop-opacity: 1"/>
<stop offset="100%" style="stop-color:rgb(255,146,142);stop-opacity: 1"/>
</linearGradient>
<path style="stroke: none; stroke-width: 1; stroke-dasharray: none; stroke-linecap: butt; stroke-dashoffset: 0; stroke-linejoin: miter; stroke-miterlimit: 4; is-custom-font: none; font-file-url: none; fill: url(#SVGID_1927); fill-rule: nonzero; opacity: 1;" transform=" translate(-48.0127, -63.5635)" d="M 47.0316 75.9932 C 47.0721 75.9926 47.1118 75.9957 47.1524 75.9932 C 46.9719 73.7415 46.1471 63.8315 45.3215 60.1171 C 44.3878 55.9153 46.7222 47.5112 46.7222 47.5112 L 50.9244 51.7134 L 48.59 59.6504 C 50.1897 62.0502 48.329 76.1032 48.369 76.097 L 48.3665 76.1283 L 48.9756 76.9657 L 48.9016 77.4198 L 45.1805 79.6157 L 46.6446 77.2379 C 46.8771 76.8605 47.0054 76.4326 47.0316 75.9932 Z" stroke-linecap="round"/>
</g>
		<g transform="matrix(1 0 0 1 12.1591 -4.1508)">
<linearGradient id="SVGID_1928" gradientUnits="userSpaceOnUse" gradientTransform="matrix(1 0 0 1 0 0)" x1="55.3939" y1="35.8492" x2="50.9243" y2="35.8492">
<stop offset="0%" style="stop-color:rgb(254,187,186);stop-opacity: 1"/>
<stop offset="100%" style="stop-color:rgb(255,146,142);stop-opacity: 1"/>
</linearGradient>
<path style="stroke: none; stroke-width: 1; stroke-dasharray: none; stroke-linecap: butt; stroke-dashoffset: 0; stroke-linejoin: miter; stroke-miterlimit: 4; is-custom-font: none; font-file-url: none; fill: url(#SVGID_1928); fill-rule: nonzero; opacity: 1;" transform=" translate(-53.1591, -35.8492)" d="M 51.7578 28.8749 C 51.7578 28.8749 59.9392 38.0958 51.7578 42.8235 L 50.9243 42.22 C 50.9243 42.22 54.986 38.3306 50.9243 33.5691 L 51.7578 28.8749 Z" stroke-linecap="round"/>
</g>
		<g transform="matrix(1 0 0 1 5.9452 38.1949)">
<linearGradient id="SVGID_1929" gradientUnits="userSpaceOnUse" gradientTransform="matrix(1 0 0 1 0 0)" x1="47.6606" y1="79.5646" x2="37.0277" y2="63.2514">
<stop offset="0%" style="stop-color:rgb(79,82,255);stop-opacity: 1"/>
<stop offset="100%" style="stop-color:rgb(64,66,226);stop-opacity: 1"/>
</linearGradient>
<path style="stroke: none; stroke-width: 1; stroke-dasharray: none; stroke-linecap: butt; stroke-dashoffset: 0; stroke-linejoin: miter; stroke-miterlimit: 4; is-custom-font: none; font-file-url: none; fill: url(#SVGID_1929); fill-rule: nonzero; opacity: 1;" transform=" translate(-46.9452, -78.1949)" d="M 44.9355 79.9601 H 46.1231 C 46.3455 79.9601 46.5549 79.8582 46.6906 79.682 C 47.0607 79.2009 47.8278 78.2624 48.1946 78.2379 C 48.6883 78.205 48.6253 79.9601 48.6253 79.9601 H 48.902 L 49.2525 77.7791 C 49.3406 77.2304 49.0678 76.6866 48.5749 76.4296 C 48.5749 76.4296 48.462 77.2642 47.85 77.6332 C 47.2381 78.0026 45.3599 79.3245 45.3599 79.3245 C 45.3599 79.3245 45.13 79.2915 44.8772 79.3374 C 44.5025 79.4052 44.5549 79.9601 44.9355 79.9601 Z" stroke-linecap="round"/>
</g>
		<g transform="matrix(1 0 0 1 12.6206 37.5052)">
<linearGradient id="SVGID_1930" gradientUnits="userSpaceOnUse" gradientTransform="matrix(1 0 0 1 0 0)" x1="57.2407" y1="84.5326" x2="45.4427" y2="64.1411">
<stop offset="0%" style="stop-color:rgb(79,82,255);stop-opacity: 1"/>
<stop offset="100%" style="stop-color:rgb(64,66,226);stop-opacity: 1"/>
</linearGradient>
<path style="stroke: none; stroke-width: 1; stroke-dasharray: none; stroke-linecap: butt; stroke-dashoffset: 0; stroke-linejoin: miter; stroke-miterlimit: 4; is-custom-font: none; font-file-url: none; fill: url(#SVGID_1930); fill-rule: nonzero; opacity: 1;" transform=" translate(-53.6206, -77.5052)" d="M 52.0125 79.8246 L 53.1069 79.3641 C 53.3119 79.2779 53.4656 79.1026 53.5222 78.8875 C 53.677 78.3006 54.0198 77.138 54.3483 76.9733 C 54.7906 76.7515 55.413 78.3938 55.413 78.3938 L 55.668 78.2865 L 55.1453 76.1401 C 55.0138 75.6002 54.5513 75.2047 53.9976 75.1588 C 53.9976 75.1588 54.2172 75.9718 53.7963 76.5494 C 53.3755 77.127 52.1569 79.0741 52.1569 79.0741 C 52.1569 79.0741 51.9323 79.1332 51.7169 79.2731 C 51.3977 79.4809 51.6612 79.9721 52.0122 79.8243 L 52.0125 79.8246 Z" stroke-linecap="round"/>
</g>
		<g transform="matrix(1 0 0 1 8.1465 8.6315)">
<linearGradient id="SVGID_1931" gradientUnits="userSpaceOnUse" gradientTransform="matrix(1 0 0 1 0 0)" x1="59.0148" y1="34.8963" x2="49.6925" y2="47.5202">
<stop offset="0%" style="stop-color:rgb(79,82,255);stop-opacity: 1"/>
<stop offset="100%" style="stop-color:rgb(64,66,226);stop-opacity: 1"/>
</linearGradient>
<path style="stroke: none; stroke-width: 1; stroke-dasharray: none; stroke-linecap: butt; stroke-dashoffset: 0; stroke-linejoin: miter; stroke-miterlimit: 4; is-custom-font: none; font-file-url: none; fill: url(#SVGID_1931); fill-rule: nonzero; opacity: 1;" transform=" translate(-49.1465, -48.6315)" d="M 45.6522 40.406 C 45.6522 40.406 45.7896 41.2477 45.5883 43.5613 C 45.3871 45.8749 44.4255 51.3069 44.6214 56.5042 C 44.6214 56.5042 47.3553 57.1412 52.1049 56.8394 C 52.1049 56.8394 54.1095 48.725 53.6211 45.6401 C 53.1327 42.5552 50.4838 40.3424 50.4838 40.3424 L 45.6522 40.406 Z" stroke-linecap="round"/>
</g>
		<g transform="matrix(1 0 0 1 7.9258 -14.1237)">
<linearGradient id="SVGID_1932" gradientUnits="userSpaceOnUse" gradientTransform="matrix(1 0 0 1 0 0)" x1="50.5128" y1="25.8762" x2="47.3384" y2="25.8762">
<stop offset="0%" style="stop-color:rgb(254,187,186);stop-opacity: 1"/>
<stop offset="100%" style="stop-color:rgb(255,146,142);stop-opacity: 1"/>
</linearGradient>
<path style="stroke: none; stroke-width: 1; stroke-dasharray: none; stroke-linecap: butt; stroke-dashoffset: 0; stroke-linejoin: miter; stroke-miterlimit: 4; is-custom-font: none; font-file-url: none; fill: url(#SVGID_1932); fill-rule: nonzero; opacity: 1;" transform=" translate(-48.9258, -25.8763)" d="M 47.6725 24.9461 L 47.3384 28.8749 H 50.5131 L 49.7238 22.8777 L 47.6725 24.9461 Z" stroke-linecap="round"/>
</g>
		<g transform="matrix(1 0 0 1 7.1363 -5.4954)">
<linearGradient id="SVGID_1933" gradientUnits="userSpaceOnUse" gradientTransform="matrix(1 0 0 1 0 0)" x1="87.4038" y1="21.4307" x2="74.3914" y2="25.7035">
<stop offset="0%" style="stop-color:rgb(255,146,142);stop-opacity: 1"/>
<stop offset="100%" style="stop-color:rgb(254,112,98);stop-opacity: 1"/>
</linearGradient>
<path style="stroke: none; stroke-width: 1; stroke-dasharray: none; stroke-linecap: butt; stroke-dashoffset: 0; stroke-linejoin: miter; stroke-miterlimit: 4; is-custom-font: none; font-file-url: none; fill: url(#SVGID_1933); fill-rule: nonzero; opacity: 1;" transform=" translate(-48.1363, -34.5046)" d="M 51.4532 28.3316 C 50.3576 28.271 47.9081 28.1593 46.1727 28.2539 C 45.2589 28.3037 44.4935 28.9593 44.3066 29.855 L 43.8833 31.8835 C 43.7256 32.639 43.7493 33.421 43.9519 34.1658 L 45.6519 40.4063 C 45.6519 40.4063 47.1641 41.3149 50.4835 40.3427 C 50.4835 40.3427 53.3986 33.3909 52.2054 28.9438 C 52.1128 28.5984 51.8099 28.3515 51.4527 28.3318 L 51.4532 28.3316 Z" stroke-linecap="round"/>
</g>
		<g transform="matrix(1 0 0 1 -0.3488 -6.075)">
<linearGradient id="SVGID_1934" gradientUnits="userSpaceOnUse" gradientTransform="matrix(1 0 0 1 0 0)" x1="31.8872" y1="27.6861" x2="59.3431" y2="43.4152">
<stop offset="0%" style="stop-color:rgb(254,187,186);stop-opacity: 1"/>
<stop offset="100%" style="stop-color:rgb(255,146,142);stop-opacity: 1"/>
</linearGradient>
<path style="stroke: none; stroke-width: 1; stroke-dasharray: none; stroke-linecap: butt; stroke-dashoffset: 0; stroke-linejoin: miter; stroke-miterlimit: 4; is-custom-font: none; font-file-url: none; fill: url(#SVGID_1934); fill-rule: nonzero; opacity: 1;" transform=" translate(-40.6512, -33.925)" d="M 44.3898 29.4911 C 43.9223 30.7229 43.4997 32.0144 43.0462 33.2243 C 42.8154 33.8298 42.5815 34.4231 42.3313 34.9681 C 42.2046 35.2395 42.0655 35.4889 41.938 35.7152 C 41.8102 35.939 41.6664 36.1253 41.5912 36.2112 C 41.5766 36.2239 41.6258 36.2337 41.6421 36.2343 C 41.652 36.2354 41.326 36.2878 41.2261 36.3044 L 40.8354 36.3021 C 40.2752 36.2734 39.6407 36.1746 39.0045 36.051 C 37.7209 35.8118 36.3866 35.4757 35.0163 35.2215 L 35.0059 35.2195 C 34.7438 35.1708 34.4916 35.3439 34.4432 35.6063 C 34.4111 35.7791 34.4761 35.948 34.5989 36.0567 C 35.1514 36.5431 35.737 36.9425 36.3444 37.3313 C 36.6501 37.5182 36.9612 37.7014 37.2776 37.8774 C 37.6002 38.0418 37.9233 38.2073 38.2591 38.3607 C 38.9353 38.6554 39.634 38.9268 40.4388 39.101 C 40.6502 39.1365 40.859 39.1737 41.0766 39.2027 C 41.3207 39.2111 41.5422 39.2328 41.8088 39.2173 C 41.9504 39.2032 42.0925 39.1858 42.2344 39.1652 C 42.3101 39.152 42.3656 39.1506 42.4574 39.1252 C 42.5545 39.096 42.6516 39.0633 42.7473 39.0276 C 42.9472 38.9558 43.0764 38.8691 43.2388 38.7787 C 43.3736 38.6898 43.4966 38.5969 43.6157 38.5017 C 44.0557 38.1271 44.3287 37.7549 44.5697 37.398 C 44.8098 37.0413 45.0001 36.6838 45.171 36.3334 C 45.5138 35.6336 45.7812 34.9403 45.9986 34.2421 C 46.4385 32.8431 46.7366 31.468 46.8625 30.0076 C 46.9227 29.3081 46.4045 28.6922 45.705 28.632 C 45.1259 28.5821 44.6043 28.9284 44.4076 29.446 L 44.3909 29.4911 H 44.3898 Z" stroke-linecap="round"/>
</g>
		<g transform="matrix(1 0 0 1 -7.3353 -4.9637)">
<linearGradient id="SVGID_1935" gradientUnits="userSpaceOnUse" gradientTransform="matrix(1 0 0 1 0 0)" x1="29.1591" y1="32.4483" x2="56.615" y2="48.1771">
<stop offset="0%" style="stop-color:rgb(254,187,186);stop-opacity: 1"/>
<stop offset="100%" style="stop-color:rgb(255,146,142);stop-opacity: 1"/>
</linearGradient>
<path style="stroke: none; stroke-width: 1; stroke-dasharray: none; stroke-linecap: butt; stroke-dashoffset: 0; stroke-linejoin: miter; stroke-miterlimit: 4; is-custom-font: none; font-file-url: none; fill: url(#SVGID_1935); fill-rule: nonzero; opacity: 1;" transform=" translate(-33.6647, -35.0363)" d="M 35.4474 35.8493 L 34.8811 34.5046 L 31.8995 33.7617 C 31.8995 33.7617 31.6611 34.2785 32.9131 34.5046 C 32.9131 34.5046 32.4659 34.9989 32.7046 35.5805 C 32.943 36.1617 35.4776 36.7444 35.4477 35.8493 H 35.4474 Z" stroke-linecap="round"/>
</g>
		<g transform="matrix(1 0 0 1 6.8362 -17.3879)">
<linearGradient id="SVGID_1936" gradientUnits="userSpaceOnUse" gradientTransform="matrix(1 0 0 1 0 0)" x1="45.2251" y1="25.8751" x2="51.394" y2="16.8543">
<stop offset="0%" style="stop-color:rgb(254,187,186);stop-opacity: 1"/>
<stop offset="100%" style="stop-color:rgb(255,146,142);stop-opacity: 1"/>
</linearGradient>
<path style="stroke: none; stroke-width: 1; stroke-dasharray: none; stroke-linecap: butt; stroke-dashoffset: 0; stroke-linejoin: miter; stroke-miterlimit: 4; is-custom-font: none; font-file-url: none; fill: url(#SVGID_1936); fill-rule: nonzero; opacity: 1;" transform=" translate(-47.8362, -22.6121)" d="M 46.328 20.4084 C 46.2145 20.4751 45.3216 23.6254 46.0699 24.9458 C 46.8183 26.2666 49.1038 24.7874 49.7231 22.8774 C 50.3424 20.9678 49.3473 18.6274 46.328 20.4081 V 20.4084 Z" stroke-linecap="round"/>
</g>
		<g transform="matrix(1 0 0 1 14.3943 -11.6418)">
<linearGradient id="SVGID_1937" gradientUnits="userSpaceOnUse" gradientTransform="matrix(1 0 0 1 0 0)" x1="48.4926" y1="19.4299" x2="57.2319" y2="30.791">
<stop offset="0%" style="stop-color:rgb(9,0,93);stop-opacity: 1"/>
<stop offset="100%" style="stop-color:rgb(26,15,145);stop-opacity: 1"/>
</linearGradient>
<path style="stroke: none; stroke-width: 1; stroke-dasharray: none; stroke-linecap: butt; stroke-dashoffset: 0; stroke-linejoin: miter; stroke-miterlimit: 4; is-custom-font: none; font-file-url: none; fill: url(#SVGID_1937); fill-rule: nonzero; opacity: 1;" transform=" translate(-55.3942, -28.3582)" d="M 52.2517 22.8776 C 52.7643 25.3891 54.4628 24.702 55.6659 25.8192 C 57.6158 27.6304 60.4049 25.7632 63.1165 27.4795 C 65.0741 28.7186 66.0173 31.8883 65.078 34.4476 C 63.7769 37.9922 59.3304 39.4498 57.0261 38.3703 C 54.824 37.3386 55.1376 34.2483 52.1743 33.0539 C 50.9163 32.547 50.2953 32.8763 49.542 32.125 C 48.2232 30.8096 48.579 28.2567 48.7161 27.2732 C 49.0136 25.1392 49.7289 24.7529 49.3872 23.815 C 48.722 21.9909 45.6197 22.3673 45.3612 21.0794 C 45.1259 19.9067 47.3745 17.6838 49.4905 18.0342 C 52.7646 18.5761 52.0234 21.7587 52.252 22.8776 H 52.2517 Z" stroke-linecap="round"/>
</g>
		<g transform="matrix(1 0 0 1 21.0103 -9.2876)">
<path style="stroke: none; stroke-width: 1; stroke-dasharray: none; stroke-linecap: butt; stroke-dashoffset: 0; stroke-linejoin: miter; stroke-miterlimit: 4; is-custom-font: none; font-file-url: none; fill: rgb(255,255,255); fill-rule: nonzero; opacity: 0.6;" transform=" translate(-62.0103, -30.7125)" d="M 64.1002 33.8473 C 64.139 33.8473 64.1739 33.8211 64.1835 33.7817 C 64.6027 32.0415 64.4126 30.6143 63.618 29.5398 C 62.2995 27.7566 59.737 27.5801 59.7114 27.5784 C 59.6711 27.5716 59.6236 27.6113 59.6208 27.6589 C 59.6179 27.7062 59.6537 27.7467 59.701 27.7495 C 59.726 27.7509 62.2108 27.9235 63.4809 29.6429 C 64.2432 30.6746 64.4236 32.0536 64.0169 33.7417 C 64.0059 33.7876 64.034 33.834 64.0802 33.845 C 64.087 33.8464 64.0937 33.8473 64.1002 33.8473 Z" stroke-linecap="round"/>
</g>
		<g transform="matrix(1 0 0 1 11.5928 -9.3482)">
<path style="stroke: none; stroke-width: 1; stroke-dasharray: none; stroke-linecap: butt; stroke-dashoffset: 0; stroke-linejoin: miter; stroke-miterlimit: 4; is-custom-font: none; font-file-url: none; fill: rgb(255,255,255); fill-rule: nonzero; opacity: 0.72;" transform=" translate(-52.5927, -30.6518)" d="M 55.7074 35.4403 C 55.7108 35.4403 55.7147 35.4397 55.7184 35.4389 C 55.7412 35.433 55.755 35.4093 55.749 35.3865 C 55.3409 33.82 54.6242 32.732 53.6198 32.1527 C 52.8891 31.731 52.2047 31.6919 51.6012 31.6573 C 51.0191 31.6238 50.5163 31.5948 50.1118 31.235 C 49.2755 30.4913 49.3239 28.703 50.2557 25.9199 C 50.2633 25.8973 50.2509 25.8731 50.2286 25.8655 C 50.2061 25.8579 50.1819 25.8703 50.1743 25.8925 C 49.2305 28.7112 49.1902 30.5299 50.0547 31.2987 C 50.4814 31.6784 50.998 31.7082 51.5962 31.7426 C 52.1904 31.7766 52.8637 31.8155 53.577 32.2267 C 54.5609 32.794 55.2637 33.8645 55.666 35.4082 C 55.6711 35.4273 55.6885 35.4403 55.7077 35.4403 H 55.7074 Z" stroke-linecap="round"/>
</g>
		<g transform="matrix(1 0 0 1 7.6267 -18.8616)">
<path style="stroke: none; stroke-width: 1; stroke-dasharray: none; stroke-linecap: butt; stroke-dashoffset: 0; stroke-linejoin: miter; stroke-miterlimit: 4; is-custom-font: none; font-file-url: none; fill: rgb(255,255,255); fill-rule: nonzero; opacity: 0.72;" transform=" translate(-48.6266, -21.1384)" d="M 51.0389 22.2541 C 51.0434 22.2541 51.0479 22.2535 51.0527 22.2518 C 51.0752 22.2442 51.087 22.2198 51.0797 22.1975 C 50.7551 21.232 49.82 21.3753 48.8292 21.5278 C 48.202 21.6244 47.5537 21.7235 47.0037 21.5608 C 46.5932 21.4392 46.3495 21.2506 46.2791 21.0003 C 46.1586 20.5741 46.5803 20.0993 46.5845 20.0942 C 46.6006 20.0767 46.5989 20.0494 46.5814 20.0337 C 46.564 20.0179 46.5367 20.0193 46.5209 20.0368 C 46.502 20.0576 46.0637 20.5513 46.1963 21.0231 C 46.2754 21.3035 46.5386 21.5121 46.9792 21.6424 C 47.5478 21.8107 48.2056 21.71 48.8421 21.612 C 49.8366 21.4594 50.6966 21.3269 50.9983 22.2245 C 51.0043 22.2426 51.0212 22.2535 51.0389 22.2535 V 22.2541 Z" stroke-linecap="round"/>
</g>
</g>
</g>
<g transform="matrix(1 0 0 1 512 962.6055)" style="" id="343718">
		
<path xml:space="preserve" font-family="Lato" font-size="96" font-style="normal" font-weight="normal" style="stroke: none; stroke-width: 0; stroke-dasharray: none; stroke-linecap: butt; stroke-dashoffset: 0; stroke-linejoin: miter; stroke-miterlimit: 4; is-custom-font: none; font-file-url: none; fill: rgb(0,0,0); fill-rule: nonzero; opacity: 1; white-space: pre;" d="M-445.49 30.16L-469.82 30.16L-469.82-38.63L-447.89-38.63Q-441.55-38.63-436.97-37.38Q-432.38-36.13-429.43-33.83Q-426.48-31.52-425.06-28.19Q-423.65-24.85-423.65-20.67L-423.65-20.67Q-423.65-18.13-424.44-15.78Q-425.23-13.43-426.84-11.41Q-428.45-9.39-430.87-7.81Q-433.29-6.23-436.56-5.22L-436.56-5.22Q-429.02-3.73-425.18 0.21Q-421.34 4.14-421.34 10.57L-421.34 10.57Q-421.34 14.94-422.95 18.54Q-424.56 22.14-427.65 24.73Q-430.75 27.33-435.24 28.74Q-439.73 30.16-445.49 30.16L-445.49 30.16ZM-445.68-1.19L-460.51-1.19L-460.51 22.77L-445.63 22.77Q-441.65 22.77-438.79 21.85Q-435.93 20.94-434.09 19.29Q-432.24 17.63-431.37 15.35Q-430.51 13.07-430.51 10.33L-430.51 10.33Q-430.51 5.01-434.28 1.91Q-438.05-1.19-445.68-1.19L-445.68-1.19ZM-460.51-31.28L-460.51-7.81L-448.22-7.81Q-444.29-7.81-441.41-8.67Q-438.53-9.54-436.63-11.07Q-434.73-12.61-433.82-14.79Q-432.91-16.98-432.91-19.57L-432.91-19.57Q-432.91-25.62-436.56-28.45Q-440.21-31.28-447.89-31.28L-447.89-31.28L-460.51-31.28ZM-396.67-38.63L-396.67 30.16L-405.98 30.16L-405.98-38.63L-396.67-38.63ZM-340.75-32.29L-343.01-27.87Q-343.44-27.15-343.92-26.79Q-344.40-26.43-345.17-26.43L-345.17-26.43Q-345.98-26.43-347.06-27.25Q-348.14-28.07-349.80-29.05Q-351.45-30.03-353.78-30.85Q-356.11-31.67-359.42-31.67L-359.42-31.67Q-362.54-31.67-364.94-30.83Q-367.34-29.99-368.95-28.55Q-370.56-27.11-371.37-25.16Q-372.19-23.22-372.19-20.96L-372.19-20.96Q-372.19-18.08-370.77-16.19Q-369.36-14.29-367.03-12.95Q-364.70-11.60-361.75-10.62Q-358.80-9.63-355.70-8.58Q-352.61-7.52-349.65-6.20Q-346.70-4.88-344.37-2.87Q-342.05-0.85-340.63 2.08Q-339.21 5.01-339.21 9.28L-339.21 9.28Q-339.21 13.79-340.75 17.75Q-342.29 21.71-345.24 24.64Q-348.19 27.57-352.49 29.25Q-356.78 30.93-362.25 30.93L-362.25 30.93Q-368.93 30.93-374.42 28.50Q-379.92 26.08-383.81 21.95L-383.81 21.95L-381.12 17.53Q-380.73 17.01-380.18 16.65Q-379.63 16.29-378.96 16.29L-378.96 16.29Q-377.95 16.29-376.65 17.37Q-375.36 18.45-373.41 19.74Q-371.47 21.04-368.71 22.12Q-365.95 23.20-361.97 23.20L-361.97 23.20Q-358.65 23.20-356.06 22.29Q-353.47 21.37-351.67 19.72Q-349.87 18.06-348.91 15.76Q-347.95 13.45-347.95 10.62L-347.95 10.62Q-347.95 7.50-349.37 5.51Q-350.78 3.52-353.09 2.17Q-355.39 0.83-358.34-0.11Q-361.29-1.04-364.39-2.03Q-367.49-3.01-370.44-4.31Q-373.39-5.60-375.69-7.67Q-378.00-9.73-379.41-12.83Q-380.83-15.92-380.83-20.48L-380.83-20.48Q-380.83-24.13-379.41-27.54Q-378.00-30.95-375.31-33.59Q-372.62-36.23-368.66-37.81Q-364.70-39.39-359.57-39.39L-359.57-39.39Q-353.81-39.39-349.05-37.57Q-344.30-35.75-340.75-32.29L-340.75-32.29ZM-287.57 4.43L-298.61 4.43L-298.61 30.16L-307.87 30.16L-307.87-38.63L-287.57-38.63Q-281.04-38.63-276.21-37.11Q-271.39-35.60-268.22-32.82Q-265.05-30.03-263.49-26.10Q-261.93-22.16-261.93-17.31L-261.93-17.31Q-261.93-12.51-263.61-8.53Q-265.29-4.55-268.53-1.67Q-271.77 1.21-276.57 2.82Q-281.37 4.43-287.57 4.43L-287.57 4.43ZM-298.61-31.28L-298.61-2.96L-287.57-2.96Q-283.58-2.96-280.53-4.02Q-277.49-5.07-275.42-6.97Q-273.36-8.87-272.30-11.51Q-271.25-14.15-271.25-17.31L-271.25-17.31Q-271.25-23.89-275.30-27.59Q-279.36-31.28-287.57-31.28L-287.57-31.28L-298.61-31.28ZM-233.28-19.23L-233.28-19.23Q-227.95-19.23-223.65-17.46Q-219.36-15.68-216.36-12.42Q-213.36-9.15-211.75-4.52Q-210.14 0.11-210.14 5.82L-210.14 5.82Q-210.14 11.58-211.75 16.19Q-213.36 20.80-216.36 24.06Q-219.36 27.33-223.65 29.08Q-227.95 30.83-233.28 30.83L-233.28 30.83Q-238.61 30.83-242.90 29.08Q-247.20 27.33-250.22 24.06Q-253.25 20.80-254.88 16.19Q-256.51 11.58-256.51 5.82L-256.51 5.82Q-256.51 0.11-254.88-4.52Q-253.25-9.15-250.22-12.42Q-247.20-15.68-242.90-17.46Q-238.61-19.23-233.28-19.23ZM-233.28 24.16L-233.28 24.16Q-226.08 24.16-222.53 19.33Q-218.97 14.51-218.97 5.87L-218.97 5.87Q-218.97-2.82-222.53-7.67Q-226.08-12.51-233.28-12.51L-233.28-12.51Q-236.93-12.51-239.61-11.27Q-242.30-10.02-244.10-7.67Q-245.90-5.31-246.79-1.88Q-247.68 1.55-247.68 5.87L-247.68 5.87Q-247.68 10.19-246.79 13.60Q-245.90 17.01-244.10 19.33Q-242.30 21.66-239.61 22.91Q-236.93 24.16-233.28 24.16ZM-191.04 30.16L-199.58 30.16L-199.58-18.47L-194.69-18.47Q-193.29-18.47-192.77-17.94Q-192.24-17.41-192.05-16.11L-192.05-16.11L-191.47-8.53Q-188.97-13.62-185.30-16.47Q-181.63-19.33-176.69-19.33L-176.69-19.33Q-174.67-19.33-173.04-18.87Q-171.41-18.42-170.01-17.60L-170.01-17.60L-171.12-11.22Q-171.45-10.02-172.61-10.02L-172.61-10.02Q-173.28-10.02-174.67-10.47Q-176.06-10.93-178.56-10.93L-178.56-10.93Q-183.02-10.93-186.02-8.34Q-189.02-5.75-191.04-0.80L-191.04-0.80L-191.04 30.16ZM-146.16 30.93L-146.16 30.93Q-151.92 30.93-155.01 27.71Q-158.11 24.49-158.11 18.45L-158.11 18.45L-158.11-11.31L-163.97-11.31Q-164.73-11.31-165.26-11.77Q-165.79-12.23-165.79-13.19L-165.79-13.19L-165.79-16.59L-157.82-17.60L-155.85-32.63Q-155.76-33.35-155.23-33.80Q-154.70-34.26-153.89-34.26L-153.89-34.26L-149.57-34.26L-149.57-17.51L-135.65-17.51L-135.65-11.31L-149.57-11.31L-149.57 17.87Q-149.57 20.94-148.08 22.43Q-146.59 23.92-144.24 23.92L-144.24 23.92Q-142.89 23.92-141.91 23.56Q-140.93 23.20-140.21 22.77Q-139.49 22.33-138.98 21.97Q-138.48 21.61-138.09 21.61L-138.09 21.61Q-137.42 21.61-136.89 22.43L-136.89 22.43L-134.40 26.51Q-136.61 28.57-139.73 29.75Q-142.85 30.93-146.16 30.93ZM-89.37-0.95L-89.37 30.16L-93.17 30.16Q-94.41 30.16-95.18 29.77Q-95.95 29.39-96.19 28.14L-96.19 28.14L-97.15 23.63Q-99.07 25.36-100.89 26.73Q-102.72 28.09-104.73 29.03Q-106.75 29.97-109.03 30.45Q-111.31 30.93-114.09 30.93L-114.09 30.93Q-116.93 30.93-119.40 30.13Q-121.87 29.34-123.69 27.76Q-125.52 26.17-126.60 23.75Q-127.68 21.33-127.68 18.01L-127.68 18.01Q-127.68 15.13-126.09 12.47Q-124.51 9.81-120.98 7.74Q-117.45 5.68-111.74 4.36Q-106.03 3.04-97.77 2.85L-97.77 2.85L-97.77-0.95Q-97.77-6.61-100.20-9.51Q-102.62-12.42-107.37-12.42L-107.37-12.42Q-110.49-12.42-112.63-11.63Q-114.77-10.83-116.33-9.85Q-117.89-8.87-119.01-8.07Q-120.14-7.28-121.25-7.28L-121.25-7.28Q-122.11-7.28-122.76-7.74Q-123.41-8.19-123.79-8.87L-123.79-8.87L-125.33-11.60Q-121.29-15.49-116.64-17.41Q-111.98-19.33-106.32-19.33L-106.32-19.33Q-102.24-19.33-99.07-17.99Q-95.90-16.64-93.74-14.24Q-91.58-11.84-90.48-8.43Q-89.37-5.03-89.37-0.95L-89.37-0.95ZM-111.55 24.93L-111.55 24.93Q-109.29 24.93-107.42 24.47Q-105.55 24.01-103.89 23.17Q-102.24 22.33-100.73 21.13Q-99.21 19.93-97.77 18.40L-97.77 18.40L-97.77 8.27Q-103.68 8.46-107.81 9.21Q-111.93 9.95-114.53 11.15Q-117.12 12.35-118.29 13.98Q-119.47 15.61-119.47 17.63L-119.47 17.63Q-119.47 19.55-118.85 20.94Q-118.22 22.33-117.17 23.22Q-116.11 24.11-114.67 24.52Q-113.23 24.93-111.55 24.93ZM-75.45-40.55L-66.91-40.55L-66.91 30.16L-75.45 30.16L-75.45-40.55ZM-14.69 1.45L-21.74 1.45L-21.74 30.16L-31.01 30.16L-31.01-38.63L-11.57-38.63Q-5.04-38.63-0.29-37.31Q4.47-35.99 7.56-33.49Q10.66-30.99 12.15-27.47Q13.63-23.94 13.63-19.57L13.63-19.57Q13.63-15.92 12.48-12.75Q11.33-9.59 9.15-7.07Q6.96-4.55 3.82-2.77Q0.67-0.99-3.31-0.08L-3.31-0.08Q-1.58 0.93-0.24 2.85L-0.24 2.85L19.83 30.16L11.57 30.16Q9.03 30.16 7.83 28.19L7.83 28.19L-10.03 3.61Q-10.85 2.46-11.81 1.96Q-12.77 1.45-14.69 1.45L-14.69 1.45ZM-21.74-31.28L-21.74-5.31L-12.00-5.31Q-7.92-5.31-4.82-6.30Q-1.73-7.28 0.36-9.08Q2.45-10.88 3.51-13.38Q4.56-15.87 4.56-18.90L4.56-18.90Q4.56-25.04 0.51-28.16Q-3.55-31.28-11.57-31.28L-11.57-31.28L-21.74-31.28ZM47.76-19.23L47.76-19.23Q52.13-19.23 55.83-17.77Q59.52-16.31 62.21-13.55Q64.90-10.79 66.41-6.73Q67.92-2.67 67.92 2.51L67.92 2.51Q67.92 4.53 67.49 5.20Q67.06 5.87 65.86 5.87L65.86 5.87L33.51 5.87Q33.60 10.48 34.75 13.89Q35.91 17.29 37.92 19.57Q39.94 21.85 42.72 22.98Q45.51 24.11 48.96 24.11L48.96 24.11Q52.18 24.11 54.51 23.37Q56.83 22.62 58.51 21.76Q60.19 20.89 61.32 20.15Q62.45 19.41 63.27 19.41L63.27 19.41Q64.32 19.41 64.90 20.22L64.90 20.22L67.30 23.34Q65.71 25.26 63.51 26.68Q61.30 28.09 58.78 29.01Q56.26 29.92 53.57 30.37Q50.88 30.83 48.24 30.83L48.24 30.83Q43.20 30.83 38.95 29.13Q34.71 27.42 31.61 24.13Q28.51 20.85 26.79 16.00Q25.06 11.15 25.06 4.86L25.06 4.86Q25.06-0.23 26.62-4.64Q28.18-9.06 31.11-12.30Q34.03-15.54 38.26-17.39Q42.48-19.23 47.76-19.23ZM47.95-12.95L47.95-12.95Q41.76-12.95 38.21-9.37Q34.66-5.79 33.79 0.54L33.79 0.54L60.24 0.54Q60.24-2.43 59.43-4.91Q58.61-7.38 57.03-9.18Q55.44-10.98 53.16-11.96Q50.88-12.95 47.95-12.95ZM95.19-19.28L95.19-19.28Q98.35-19.28 101.11-18.59Q103.87-17.89 106.13-16.55L106.13-16.55L119.33-16.55L119.33-13.38Q119.33-11.79 117.31-11.36L117.31-11.36L111.79-10.59Q113.43-7.47 113.43-3.63L113.43-3.63Q113.43-0.08 112.06 2.82Q110.69 5.73 108.27 7.79Q105.84 9.85 102.51 10.96Q99.17 12.06 95.19 12.06L95.19 12.06Q91.78 12.06 88.75 11.25L88.75 11.25Q87.22 12.21 86.43 13.31Q85.63 14.41 85.63 15.47L85.63 15.47Q85.63 17.20 87.03 18.09Q88.42 18.97 90.72 19.36Q93.03 19.74 95.95 19.84Q98.88 19.93 101.93 20.15Q104.98 20.37 107.91 20.89Q110.83 21.42 113.14 22.62Q115.44 23.82 116.83 25.93Q118.23 28.05 118.23 31.41L118.23 31.41Q118.23 34.53 116.67 37.45Q115.11 40.38 112.18 42.66Q109.25 44.94 105.03 46.31Q100.80 47.68 95.47 47.68L95.47 47.68Q90.15 47.68 86.14 46.62Q82.13 45.57 79.49 43.79Q76.85 42.01 75.53 39.69Q74.21 37.36 74.21 34.81L74.21 34.81Q74.21 31.21 76.49 28.69Q78.77 26.17 82.75 24.69L82.75 24.69Q80.69 23.73 79.47 22.12Q78.24 20.51 78.24 17.82L78.24 17.82Q78.24 16.77 78.63 15.64Q79.01 14.51 79.80 13.41Q80.59 12.30 81.75 11.29Q82.90 10.29 84.43 9.52L84.43 9.52Q80.83 7.50 78.79 4.17Q76.75 0.83 76.75-3.63L76.75-3.63Q76.75-7.19 78.12-10.09Q79.49-12.99 81.94-15.03Q84.39-17.07 87.77-18.18Q91.15-19.28 95.19-19.28ZM110.35 32.80L110.35 32.80Q110.35 30.97 109.35 29.87Q108.34 28.77 106.61 28.17Q104.88 27.57 102.63 27.28Q100.37 26.99 97.87 26.87Q95.38 26.75 92.79 26.61Q90.19 26.46 87.84 26.08L87.84 26.08Q85.11 27.37 83.40 29.25Q81.70 31.12 81.70 33.71L81.70 33.71Q81.70 35.34 82.54 36.76Q83.38 38.17 85.11 39.21Q86.83 40.24 89.45 40.84Q92.07 41.44 95.62 41.44L95.62 41.44Q99.07 41.44 101.81 40.81Q104.55 40.19 106.44 39.04Q108.34 37.89 109.35 36.30Q110.35 34.72 110.35 32.80ZM95.19 6.40L95.19 6.40Q97.78 6.40 99.77 5.68Q101.76 4.96 103.11 3.66Q104.45 2.37 105.12 0.57Q105.79-1.23 105.79-3.39L105.79-3.39Q105.79-7.86 103.08-10.50Q100.37-13.14 95.19-13.14L95.19-13.14Q90.05-13.14 87.34-10.50Q84.63-7.86 84.63-3.39L84.63-3.39Q84.63-1.23 85.32 0.57Q86.02 2.37 87.36 3.66Q88.71 4.96 90.67 5.68Q92.64 6.40 95.19 6.40ZM128.83-18.47L137.38-18.47L137.38 30.16L128.83 30.16L128.83-18.47ZM139.30-33.73L139.30-33.73Q139.30-32.48 138.79-31.40Q138.29-30.32 137.45-29.48Q136.61-28.64 135.51-28.16Q134.40-27.68 133.15-27.68L133.15-27.68Q131.91-27.68 130.83-28.16Q129.75-28.64 128.91-29.48Q128.07-30.32 127.59-31.40Q127.11-32.48 127.11-33.73L127.11-33.73Q127.11-34.98 127.59-36.11Q128.07-37.23 128.91-38.07Q129.75-38.91 130.83-39.39Q131.91-39.87 133.15-39.87L133.15-39.87Q134.40-39.87 135.51-39.39Q136.61-38.91 137.45-38.07Q138.29-37.23 138.79-36.11Q139.30-34.98 139.30-33.73ZM182.21-13.57L180.29-10.45Q179.71-9.39 178.51-9.39L178.51-9.39Q177.79-9.39 176.88-9.92Q175.97-10.45 174.65-11.10Q173.33-11.75 171.51-12.30Q169.68-12.85 167.19-12.85L167.19-12.85Q165.03-12.85 163.30-12.30Q161.57-11.75 160.35-10.79Q159.12-9.83 158.47-8.55Q157.83-7.28 157.83-5.79L157.83-5.79Q157.83-3.92 158.91-2.67Q159.99-1.43 161.76-0.51Q163.54 0.40 165.79 1.09Q168.05 1.79 170.43 2.58Q172.80 3.37 175.06 4.33Q177.31 5.29 179.09 6.73Q180.87 8.17 181.95 10.26Q183.03 12.35 183.03 15.28L183.03 15.28Q183.03 18.64 181.83 21.49Q180.63 24.35 178.27 26.44Q175.92 28.53 172.51 29.73Q169.11 30.93 164.64 30.93L164.64 30.93Q159.55 30.93 155.43 29.27Q151.30 27.61 148.42 25.02L148.42 25.02L150.43 21.76Q150.82 21.13 151.35 20.80Q151.87 20.46 152.74 20.46L152.74 20.46Q153.60 20.46 154.56 21.13Q155.52 21.81 156.89 22.62Q158.26 23.44 160.20 24.11Q162.15 24.78 165.07 24.78L165.07 24.78Q167.57 24.78 169.44 24.13Q171.31 23.49 172.56 22.38Q173.81 21.28 174.41 19.84Q175.01 18.40 175.01 16.77L175.01 16.77Q175.01 14.75 173.93 13.43Q172.85 12.11 171.07 11.17Q169.30 10.24 167.02 9.54Q164.74 8.85 162.36 8.08Q159.99 7.31 157.71 6.33Q155.43 5.34 153.65 3.85Q151.87 2.37 150.79 0.18Q149.71-2.00 149.71-5.12L149.71-5.12Q149.71-7.91 150.87-10.47Q152.02-13.04 154.23-14.99Q156.43-16.93 159.65-18.08Q162.87-19.23 166.99-19.23L166.99-19.23Q171.79-19.23 175.61-17.72Q179.43-16.21 182.21-13.57L182.21-13.57ZM208.85 30.93L208.85 30.93Q203.09 30.93 199.99 27.71Q196.90 24.49 196.90 18.45L196.90 18.45L196.90-11.31L191.04-11.31Q190.27-11.31 189.75-11.77Q189.22-12.23 189.22-13.19L189.22-13.19L189.22-16.59L197.19-17.60L199.15-32.63Q199.25-33.35 199.78-33.80Q200.31-34.26 201.12-34.26L201.12-34.26L205.44-34.26L205.44-17.51L219.36-17.51L219.36-11.31L205.44-11.31L205.44 17.87Q205.44 20.94 206.93 22.43Q208.42 23.92 210.77 23.92L210.77 23.92Q212.11 23.92 213.10 23.56Q214.08 23.20 214.80 22.77Q215.52 22.33 216.03 21.97Q216.53 21.61 216.91 21.61L216.91 21.61Q217.59 21.61 218.11 22.43L218.11 22.43L220.61 26.51Q218.40 28.57 215.28 29.75Q212.16 30.93 208.85 30.93ZM238.47 30.16L229.92 30.16L229.92-18.47L234.82-18.47Q236.21-18.47 236.74-17.94Q237.27-17.41 237.46-16.11L237.46-16.11L238.03-8.53Q240.53-13.62 244.20-16.47Q247.87-19.33 252.82-19.33L252.82-19.33Q254.83-19.33 256.47-18.87Q258.10-18.42 259.49-17.60L259.49-17.60L258.39-11.22Q258.05-10.02 256.90-10.02L256.90-10.02Q256.23-10.02 254.83-10.47Q253.44-10.93 250.95-10.93L250.95-10.93Q246.48-10.93 243.48-8.34Q240.48-5.75 238.47-0.80L238.47-0.80L238.47 30.16ZM302.50-0.95L302.50 30.16L298.71 30.16Q297.46 30.16 296.69 29.77Q295.92 29.39 295.68 28.14L295.68 28.14L294.72 23.63Q292.80 25.36 290.98 26.73Q289.15 28.09 287.14 29.03Q285.12 29.97 282.84 30.45Q280.56 30.93 277.78 30.93L277.78 30.93Q274.95 30.93 272.47 30.13Q270.00 29.34 268.18 27.76Q266.35 26.17 265.27 23.75Q264.19 21.33 264.19 18.01L264.19 18.01Q264.19 15.13 265.78 12.47Q267.36 9.81 270.89 7.74Q274.42 5.68 280.13 4.36Q285.84 3.04 294.10 2.85L294.10 2.85L294.10-0.95Q294.10-6.61 291.67-9.51Q289.25-12.42 284.50-12.42L284.50-12.42Q281.38-12.42 279.24-11.63Q277.11-10.83 275.55-9.85Q273.99-8.87 272.86-8.07Q271.73-7.28 270.63-7.28L270.63-7.28Q269.76-7.28 269.11-7.74Q268.47-8.19 268.08-8.87L268.08-8.87L266.55-11.60Q270.58-15.49 275.23-17.41Q279.89-19.33 285.55-19.33L285.55-19.33Q289.63-19.33 292.80-17.99Q295.97-16.64 298.13-14.24Q300.29-11.84 301.39-8.43Q302.50-5.03 302.50-0.95L302.50-0.95ZM280.32 24.93L280.32 24.93Q282.58 24.93 284.45 24.47Q286.32 24.01 287.98 23.17Q289.63 22.33 291.15 21.13Q292.66 19.93 294.10 18.40L294.10 18.40L294.10 8.27Q288.19 8.46 284.07 9.21Q279.94 9.95 277.35 11.15Q274.75 12.35 273.58 13.98Q272.40 15.61 272.40 17.63L272.40 17.63Q272.40 19.55 273.03 20.94Q273.65 22.33 274.71 23.22Q275.76 24.11 277.20 24.52Q278.64 24.93 280.32 24.93ZM330.19 30.93L330.19 30.93Q324.43 30.93 321.34 27.71Q318.24 24.49 318.24 18.45L318.24 18.45L318.24-11.31L312.39-11.31Q311.62-11.31 311.09-11.77Q310.56-12.23 310.56-13.19L310.56-13.19L310.56-16.59L318.53-17.60L320.50-32.63Q320.59-33.35 321.12-33.80Q321.65-34.26 322.47-34.26L322.47-34.26L326.79-34.26L326.79-17.51L340.71-17.51L340.71-11.31L326.79-11.31L326.79 17.87Q326.79 20.94 328.27 22.43Q329.76 23.92 332.11 23.92L332.11 23.92Q333.46 23.92 334.44 23.56Q335.43 23.20 336.15 22.77Q336.87 22.33 337.37 21.97Q337.87 21.61 338.26 21.61L338.26 21.61Q338.93 21.61 339.46 22.43L339.46 22.43L341.95 26.51Q339.75 28.57 336.63 29.75Q333.51 30.93 330.19 30.93ZM352.23-18.47L360.77-18.47L360.77 30.16L352.23 30.16L352.23-18.47ZM362.69-33.73L362.69-33.73Q362.69-32.48 362.19-31.40Q361.68-30.32 360.84-29.48Q360.00-28.64 358.90-28.16Q357.79-27.68 356.55-27.68L356.55-27.68Q355.30-27.68 354.22-28.16Q353.14-28.64 352.30-29.48Q351.46-30.32 350.98-31.40Q350.50-32.48 350.50-33.73L350.50-33.73Q350.50-34.98 350.98-36.11Q351.46-37.23 352.30-38.07Q353.14-38.91 354.22-39.39Q355.30-39.87 356.55-39.87L356.55-39.87Q357.79-39.87 358.90-39.39Q360.00-38.91 360.84-38.07Q361.68-37.23 362.19-36.11Q362.69-34.98 362.69-33.73ZM395.52-19.23L395.52-19.23Q400.85-19.23 405.15-17.46Q409.44-15.68 412.44-12.42Q415.44-9.15 417.05-4.52Q418.66 0.11 418.66 5.82L418.66 5.82Q418.66 11.58 417.05 16.19Q415.44 20.80 412.44 24.06Q409.44 27.33 405.15 29.08Q400.85 30.83 395.52 30.83L395.52 30.83Q390.19 30.83 385.90 29.08Q381.60 27.33 378.58 24.06Q375.55 20.80 373.92 16.19Q372.29 11.58 372.29 5.82L372.29 5.82Q372.29 0.11 373.92-4.52Q375.55-9.15 378.58-12.42Q381.60-15.68 385.90-17.46Q390.19-19.23 395.52-19.23ZM395.52 24.16L395.52 24.16Q402.72 24.16 406.27 19.33Q409.83 14.51 409.83 5.87L409.83 5.87Q409.83-2.82 406.27-7.67Q402.72-12.51 395.52-12.51L395.52-12.51Q391.87-12.51 389.19-11.27Q386.50-10.02 384.70-7.67Q382.90-5.31 382.01-1.88Q381.12 1.55 381.12 5.87L381.12 5.87Q381.12 10.19 382.01 13.60Q382.90 17.01 384.70 19.33Q386.50 21.66 389.19 22.91Q391.87 24.16 395.52 24.16ZM437.76 30.16L429.22 30.16L429.22-18.47L434.31-18.47Q436.13-18.47 436.61-16.69L436.61-16.69L437.28-11.41Q440.45-14.91 444.36-17.07Q448.27-19.23 453.41-19.23L453.41-19.23Q457.39-19.23 460.44-17.91Q463.49-16.59 465.53-14.17Q467.57-11.75 468.63-8.34Q469.68-4.93 469.68-0.80L469.68-0.80L469.68 30.16L461.14 30.16L461.14-0.80Q461.14-6.32 458.62-9.37Q456.10-12.42 450.91-12.42L450.91-12.42Q447.12-12.42 443.83-10.59Q440.55-8.77 437.76-5.65L437.76-5.65L437.76 30.16Z"/></g>
</svg>