<svg xmlns="http://www.w3.org/2000/svg" xmlns:xlink="http://www.w3.org/1999/xlink" width="3400" zoomAndPan="magnify" viewBox="0 0 2550 3224.999865" height="4300" preserveAspectRatio="xMidYMid meet" version="1.0"><defs><g/><clipPath id="eeab9143ac"><path d="M 0 2799.246094 L 2550 2799.246094 L 2550 3225 L 0 3225 Z M 0 2799.246094 " clip-rule="nonzero"/></clipPath><clipPath id="fc6696a29e"><path d="M 335.902344 255 L 1717 255 L 1717 2095.5 L 335.902344 2095.5 Z M 335.902344 255 " clip-rule="nonzero"/></clipPath><clipPath id="855ede908a"><path d="M 1198 959 L 2176.402344 959 L 2176.402344 1938 L 1198 1938 Z M 1198 959 " clip-rule="nonzero"/></clipPath></defs><path stroke-linecap="butt" transform="matrix(0.75, 0, 0, 0.75, 0.000116248, 0)" fill="none" stroke-linejoin="miter" d="M -0.000154997 0 L 3399.999911 0 L 3399.999911 4300.000084 L -0.000154997 4300.000084 L -0.000154997 0 " stroke="#ffffff" stroke-width="50" stroke-opacity="1" stroke-miterlimit="4"/><g clip-path="url(#eeab9143ac)"><path fill="#ffffff" d="M -90 2799.246094 L 2602.265625 2799.246094 L 2602.265625 3224.988281 L -90 3224.988281 Z M -90 2799.246094 " fill-opacity="1" fill-rule="nonzero"/></g><g fill="#000000" fill-opacity="1"><g transform="translate(310.807556, 3077.000899)"><g><path d="M 40.921875 -150.515625 C 56.753906 -150.515625 68.929688 -147.019531 77.453125 -140.03125 C 85.972656 -133.050781 90.234375 -122.972656 90.234375 -109.796875 C 90.234375 -103.671875 89.066406 -98.113281 86.734375 -93.125 C 84.410156 -88.132812 80.648438 -83.910156 75.453125 -80.453125 C 83.835938 -78.316406 90.691406 -73.6875 96.015625 -66.5625 C 101.335938 -59.445312 104 -51.164062 104 -41.71875 C 104 -28.675781 99.304688 -18.460938 89.921875 -11.078125 C 80.546875 -3.691406 67.609375 0 51.109375 0 L 15.171875 0 L 15.171875 -150.515625 Z M 31.9375 -84.234375 L 39.71875 -84.234375 C 49.4375 -84.234375 56.523438 -85.234375 60.984375 -87.234375 C 65.441406 -89.234375 68.632812 -92.0625 70.5625 -95.71875 C 72.5 -99.375 73.46875 -104.066406 73.46875 -109.796875 C 73.46875 -118.710938 71.171875 -125.132812 66.578125 -129.0625 C 61.984375 -132.988281 52.96875 -134.953125 39.53125 -134.953125 L 31.9375 -134.953125 Z M 49.703125 -15.578125 C 62.078125 -15.578125 71.425781 -17.867188 77.75 -22.453125 C 84.070312 -27.046875 87.234375 -33.9375 87.234375 -43.125 C 87.234375 -51.90625 83.972656 -58.554688 77.453125 -63.078125 C 70.929688 -67.609375 60.953125 -69.875 47.515625 -69.875 L 31.9375 -69.875 L 31.9375 -15.578125 Z M 49.703125 -15.578125 "/></g></g></g><g fill="#000000" fill-opacity="1"><g transform="translate(424.195986, 3077.000899)"><g><path d="M 32.34375 -150.515625 L 32.34375 0 L 15.578125 0 L 15.578125 -150.515625 Z M 32.34375 -150.515625 "/></g></g></g><g fill="#000000" fill-opacity="1"><g transform="translate(471.906963, 3077.000899)"><g><path d="M 83.4375 -121.171875 C 80.113281 -127.023438 76.421875 -131.21875 72.359375 -133.75 C 68.304688 -136.28125 63.414062 -137.546875 57.6875 -137.546875 C 50.375 -137.546875 44.351562 -135.28125 39.625 -130.75 C 34.894531 -126.226562 32.53125 -120.707031 32.53125 -114.1875 C 32.53125 -109.125 34.492188 -104.796875 38.421875 -101.203125 C 42.347656 -97.609375 47.101562 -94.546875 52.6875 -92.015625 C 58.28125 -89.492188 63.335938 -87.300781 67.859375 -85.4375 C 72.390625 -83.570312 77.648438 -80.773438 83.640625 -77.046875 C 89.628906 -73.328125 94.21875 -68.671875 97.40625 -63.078125 C 100.601562 -57.492188 102.203125 -51.109375 102.203125 -43.921875 C 102.203125 -35.671875 100.140625 -27.953125 96.015625 -20.765625 C 91.890625 -13.578125 86.164062 -7.882812 78.84375 -3.6875 C 71.53125 0.5 63.546875 2.59375 54.890625 2.59375 C 43.046875 2.59375 32.898438 -0.894531 24.453125 -7.875 C 16.003906 -14.863281 10.515625 -24.347656 7.984375 -36.328125 L 24.359375 -40.921875 C 25.679688 -32.671875 29.101562 -25.945312 34.625 -20.75 C 40.15625 -15.5625 46.78125 -12.96875 54.5 -12.96875 C 62.882812 -12.96875 70.132812 -15.828125 76.25 -21.546875 C 82.375 -27.273438 85.4375 -34.203125 85.4375 -42.328125 C 85.4375 -49.503906 83.109375 -55.390625 78.453125 -59.984375 C 73.796875 -64.578125 65.273438 -69.332031 52.890625 -74.25 C 40.515625 -79.175781 31.234375 -84.703125 25.046875 -90.828125 C 18.859375 -96.953125 15.765625 -104.9375 15.765625 -114.78125 C 15.765625 -125.957031 19.890625 -135.140625 28.140625 -142.328125 C 36.398438 -149.515625 46.316406 -153.109375 57.890625 -153.109375 C 66.410156 -153.109375 73.960938 -151.113281 80.546875 -147.125 C 87.140625 -143.132812 92.5625 -137.34375 96.8125 -129.75 Z M 83.4375 -121.171875 "/></g></g></g><g fill="#000000" fill-opacity="1"><g transform="translate(644.98402, 3077.000899)"><g><path d="M 41.515625 -150.515625 C 54.691406 -150.515625 64.671875 -148.953125 71.453125 -145.828125 C 78.242188 -142.703125 83.734375 -137.8125 87.921875 -131.15625 C 92.117188 -124.5 94.21875 -116.976562 94.21875 -108.59375 C 94.21875 -96.351562 90.191406 -86.171875 82.140625 -78.046875 C 74.085938 -69.929688 62.007812 -65.875 45.90625 -65.875 L 31.9375 -65.875 L 31.9375 0 L 15.171875 0 L 15.171875 -150.515625 Z M 31.9375 -81.453125 L 40.921875 -81.453125 C 54.097656 -81.453125 63.476562 -83.710938 69.0625 -88.234375 C 74.65625 -92.753906 77.453125 -99.539062 77.453125 -108.59375 C 77.453125 -117.78125 74.691406 -124.46875 69.171875 -128.65625 C 63.648438 -132.851562 53.898438 -134.953125 39.921875 -134.953125 L 31.9375 -134.953125 Z M 31.9375 -81.453125 "/></g></g></g><g fill="#000000" fill-opacity="1"><g transform="translate(745.396657, 3077.000899)"><g><path d="M 6.78125 -46.71875 C 6.78125 -55.632812 8.976562 -63.953125 13.375 -71.671875 C 17.769531 -79.390625 23.757812 -85.441406 31.34375 -89.828125 C 38.925781 -94.222656 47.175781 -96.421875 56.09375 -96.421875 C 65.007812 -96.421875 73.226562 -94.222656 80.75 -89.828125 C 88.269531 -85.441406 94.257812 -79.421875 98.71875 -71.765625 C 103.175781 -64.109375 105.40625 -55.757812 105.40625 -46.71875 C 105.40625 -37.800781 103.207031 -29.515625 98.8125 -21.859375 C 94.425781 -14.203125 88.4375 -8.210938 80.84375 -3.890625 C 73.257812 0.429688 65.007812 2.59375 56.09375 2.59375 C 47.175781 2.59375 38.890625 0.398438 31.234375 -3.984375 C 23.585938 -8.378906 17.597656 -14.398438 13.265625 -22.046875 C 8.941406 -29.703125 6.78125 -37.925781 6.78125 -46.71875 Z M 55.890625 -81.640625 C 46.441406 -81.640625 38.554688 -78.28125 32.234375 -71.5625 C 25.910156 -64.84375 22.75 -56.625 22.75 -46.90625 C 22.75 -39.71875 24.476562 -33.363281 27.9375 -27.84375 C 31.40625 -22.320312 35.632812 -18.328125 40.625 -15.859375 C 45.613281 -13.398438 50.769531 -12.171875 56.09375 -12.171875 C 62.21875 -12.171875 67.804688 -13.601562 72.859375 -16.46875 C 77.921875 -19.332031 81.945312 -23.457031 84.9375 -28.84375 C 87.9375 -34.238281 89.4375 -40.257812 89.4375 -46.90625 C 89.4375 -53.03125 88.070312 -58.753906 85.34375 -64.078125 C 82.613281 -69.398438 78.648438 -73.65625 73.453125 -76.84375 C 68.265625 -80.039062 62.410156 -81.640625 55.890625 -81.640625 Z M 55.890625 -81.640625 "/></g></g></g><g fill="#000000" fill-opacity="1"><g transform="translate(857.587315, 3077.000899)"><g><path d="M 58.296875 -77.453125 C 56.691406 -78.648438 55.191406 -79.644531 53.796875 -80.4375 C 52.398438 -81.238281 50.703125 -81.640625 48.703125 -81.640625 C 42.710938 -81.640625 38.15625 -78.976562 35.03125 -73.65625 C 31.90625 -68.332031 30.34375 -59.75 30.34375 -47.90625 L 30.34375 0 L 14.375 0 L 14.375 -93.828125 L 30.34375 -93.828125 L 30.34375 -83.640625 L 30.75 -83.640625 C 34.601562 -88.828125 38.023438 -92.253906 41.015625 -93.921875 C 44.015625 -95.585938 47.507812 -96.421875 51.5 -96.421875 C 53.894531 -96.421875 56.320312 -96.019531 58.78125 -95.21875 C 61.25 -94.414062 63.613281 -93.351562 65.875 -92.03125 Z M 58.296875 -77.453125 "/></g></g></g><g fill="#000000" fill-opacity="1"><g transform="translate(924.462542, 3077.000899)"><g><path d="M 31.9375 -127.5625 L 31.9375 -93.828125 L 48.703125 -93.828125 L 48.703125 -79.046875 L 31.9375 -79.046875 L 31.9375 0 L 15.96875 0 L 15.96875 -79.046875 L 6.1875 -79.046875 L 6.1875 -93.828125 L 15.96875 -93.828125 L 15.96875 -127.5625 Z M 31.9375 -127.5625 "/></g></g></g><g fill="#000000" fill-opacity="1"><g transform="translate(972.373149, 3077.000899)"><g><path d="M 84.84375 -80.453125 L 84.84375 -93.828125 L 100.8125 -93.828125 L 100.8125 0 L 84.84375 0 L 84.84375 -12.96875 L 84.4375 -12.96875 C 76.1875 -2.59375 65.410156 2.59375 52.109375 2.59375 C 39.054688 2.59375 28.304688 -2.195312 19.859375 -11.78125 C 11.410156 -21.363281 7.1875 -33.007812 7.1875 -46.71875 C 7.1875 -61.082031 11.441406 -72.957031 19.953125 -82.34375 C 28.472656 -91.726562 39.253906 -96.421875 52.296875 -96.421875 C 58.816406 -96.421875 64.835938 -95.019531 70.359375 -92.21875 C 75.890625 -89.425781 80.582031 -85.503906 84.4375 -80.453125 Z M 54.09375 -81.640625 C 45.582031 -81.640625 38.363281 -78.378906 32.4375 -71.859375 C 26.519531 -65.335938 23.5625 -57.351562 23.5625 -47.90625 C 23.5625 -37.789062 26.453125 -29.304688 32.234375 -22.453125 C 38.023438 -15.597656 45.378906 -12.171875 54.296875 -12.171875 C 63.742188 -12.171875 71.328125 -15.429688 77.046875 -21.953125 C 82.773438 -28.472656 85.640625 -37.054688 85.640625 -47.703125 C 85.640625 -57.421875 82.710938 -65.503906 76.859375 -71.953125 C 71.003906 -78.410156 63.414062 -81.640625 54.09375 -81.640625 Z M 54.09375 -81.640625 "/></g></g></g><g fill="#000000" fill-opacity="1"><g transform="translate(1087.558247, 3077.000899)"><g><path d="M 30.75 -164.6875 L 30.75 0 L 14.765625 0 L 14.765625 -164.6875 Z M 30.75 -164.6875 "/></g></g></g><g fill="#000000" fill-opacity="1"><g transform="translate(1194.358954, 3077.000899)"><g><path d="M 38.125 -150.515625 C 74.0625 -150.515625 92.03125 -136.675781 92.03125 -109 C 92.03125 -97.414062 88.664062 -87.863281 81.9375 -80.34375 C 75.21875 -72.820312 66.003906 -68.53125 54.296875 -67.46875 L 102.203125 0 L 81.640625 0 L 36.125 -66.078125 L 31.9375 -66.078125 L 31.9375 0 L 15.171875 0 L 15.171875 -150.515625 Z M 31.9375 -80.84375 L 39.328125 -80.84375 C 51.171875 -80.84375 60.117188 -83.035156 66.171875 -87.421875 C 72.234375 -91.816406 75.265625 -98.609375 75.265625 -107.796875 C 75.265625 -117.773438 72.300781 -124.796875 66.375 -128.859375 C 60.445312 -132.921875 51.894531 -134.953125 40.71875 -134.953125 L 31.9375 -134.953125 Z M 31.9375 -80.84375 "/></g></g></g><g fill="#000000" fill-opacity="1"><g transform="translate(1302.557048, 3077.000899)"><g><path d="M 96.8125 -43.515625 L 23.15625 -43.515625 C 23.425781 -34.203125 26.488281 -26.648438 32.34375 -20.859375 C 38.195312 -15.066406 45.382812 -12.171875 53.90625 -12.171875 C 59.882812 -12.171875 65.171875 -13.703125 69.765625 -16.765625 C 74.359375 -19.828125 78.582031 -24.753906 82.4375 -31.546875 L 96.015625 -23.75 C 91.492188 -15.363281 85.539062 -8.875 78.15625 -4.28125 C 70.769531 0.300781 62.285156 2.59375 52.703125 2.59375 C 43.515625 2.59375 35.394531 0.398438 28.34375 -3.984375 C 21.289062 -8.378906 15.929688 -14.269531 12.265625 -21.65625 C 8.609375 -29.039062 6.78125 -37.0625 6.78125 -45.71875 C 6.78125 -55.300781 8.609375 -63.953125 12.265625 -71.671875 C 15.929688 -79.390625 21.222656 -85.441406 28.140625 -89.828125 C 35.066406 -94.222656 43.117188 -96.421875 52.296875 -96.421875 C 61.210938 -96.421875 69.097656 -94.253906 75.953125 -89.921875 C 82.804688 -85.597656 88.03125 -79.644531 91.625 -72.0625 C 95.21875 -64.476562 97.015625 -55.960938 97.015625 -46.515625 C 97.015625 -45.578125 96.945312 -44.578125 96.8125 -43.515625 Z M 80.046875 -57.09375 C 78.710938 -64.414062 75.453125 -70.335938 70.265625 -74.859375 C 65.078125 -79.378906 59.15625 -81.640625 52.5 -81.640625 C 45.976562 -81.640625 39.851562 -79.273438 34.125 -74.546875 C 28.40625 -69.828125 25.015625 -64.007812 23.953125 -57.09375 Z M 80.046875 -57.09375 "/></g></g></g><g fill="#000000" fill-opacity="1"><g transform="translate(1406.163721, 3077.000899)"><g><path d="M 83.84375 -80.453125 L 83.84375 -93.828125 L 99.8125 -93.828125 L 99.8125 3.390625 C 99.8125 19.097656 95.421875 31.175781 86.640625 39.625 C 77.859375 48.070312 66.945312 52.296875 53.90625 52.296875 C 40.59375 52.296875 29.644531 48.335938 21.0625 40.421875 C 12.476562 32.503906 8.050781 22.09375 7.78125 9.1875 L 23.75 9.1875 C 23.75 17.4375 26.507812 24.222656 32.03125 29.546875 C 37.5625 34.867188 44.851562 37.53125 53.90625 37.53125 C 63.75 37.53125 71.195312 34.46875 76.25 28.34375 C 81.3125 22.21875 83.84375 12.101562 83.84375 -2 L 83.84375 -12.96875 L 83.4375 -12.96875 C 79.71875 -8.1875 74.960938 -4.394531 69.171875 -1.59375 C 63.378906 1.195312 57.289062 2.59375 50.90625 2.59375 C 42.25 2.59375 34.523438 0.398438 27.734375 -3.984375 C 20.953125 -8.378906 15.664062 -14.335938 11.875 -21.859375 C 8.082031 -29.378906 6.1875 -37.597656 6.1875 -46.515625 C 6.1875 -55.691406 8.148438 -64.109375 12.078125 -71.765625 C 16.003906 -79.421875 21.425781 -85.441406 28.34375 -89.828125 C 35.269531 -94.222656 42.988281 -96.421875 51.5 -96.421875 C 58.019531 -96.421875 64.007812 -95.019531 69.46875 -92.21875 C 74.925781 -89.425781 79.582031 -85.503906 83.4375 -80.453125 Z M 53.09375 -81.640625 C 47.507812 -81.640625 42.390625 -80.175781 37.734375 -77.25 C 33.078125 -74.320312 29.382812 -70.226562 26.65625 -64.96875 C 23.925781 -59.71875 22.5625 -54.03125 22.5625 -47.90625 C 22.5625 -37.65625 25.421875 -29.132812 31.140625 -22.34375 C 36.859375 -15.5625 44.242188 -12.171875 53.296875 -12.171875 C 62.742188 -12.171875 70.328125 -15.5 76.046875 -22.15625 C 81.773438 -28.8125 84.640625 -37.328125 84.640625 -47.703125 C 84.640625 -57.691406 81.675781 -65.84375 75.75 -72.15625 C 69.832031 -78.476562 62.28125 -81.640625 53.09375 -81.640625 Z M 53.09375 -81.640625 "/></g></g></g><g fill="#000000" fill-opacity="1"><g transform="translate(1521.947677, 3077.000899)"><g><path d="M 34.140625 -93.828125 L 34.140625 0 L 18.171875 0 L 18.171875 -93.828125 Z M 14.765625 -129.5625 C 14.765625 -132.488281 15.929688 -135.046875 18.265625 -137.234375 C 20.597656 -139.429688 23.226562 -140.53125 26.15625 -140.53125 C 29.21875 -140.53125 31.878906 -139.429688 34.140625 -137.234375 C 36.398438 -135.046875 37.53125 -132.488281 37.53125 -129.5625 C 37.53125 -126.09375 36.398438 -123.257812 34.140625 -121.0625 C 31.878906 -118.875 29.21875 -117.78125 26.15625 -117.78125 C 23.09375 -117.78125 20.425781 -118.84375 18.15625 -120.96875 C 15.894531 -123.101562 14.765625 -125.96875 14.765625 -129.5625 Z M 14.765625 -129.5625 "/></g></g></g><g fill="#000000" fill-opacity="1"><g transform="translate(1574.250113, 3077.000899)"><g><path d="M 53.09375 -72.0625 C 51.632812 -75.125 49.769531 -77.484375 47.5 -79.140625 C 45.238281 -80.804688 42.847656 -81.640625 40.328125 -81.640625 C 37.398438 -81.640625 34.738281 -80.609375 32.34375 -78.546875 C 29.945312 -76.484375 28.75 -74.054688 28.75 -71.265625 C 28.75 -65.804688 33.972656 -61.179688 44.421875 -57.390625 C 54.867188 -53.597656 62.117188 -49.4375 66.171875 -44.90625 C 70.234375 -40.382812 72.265625 -34.734375 72.265625 -27.953125 C 72.265625 -22.753906 71.066406 -17.894531 68.671875 -13.375 C 66.273438 -8.851562 62.582031 -5.0625 57.59375 -2 C 52.601562 1.0625 46.914062 2.59375 40.53125 2.59375 C 32.8125 2.59375 26.019531 0.53125 20.15625 -3.59375 C 14.300781 -7.71875 10.046875 -13.570312 7.390625 -21.15625 L 21.5625 -27.15625 C 23.957031 -21.5625 26.648438 -17.664062 29.640625 -15.46875 C 32.640625 -13.269531 36.332031 -12.171875 40.71875 -12.171875 C 45.25 -12.171875 48.910156 -13.535156 51.703125 -16.265625 C 54.492188 -18.992188 55.890625 -22.421875 55.890625 -26.546875 C 55.890625 -30.003906 54.625 -33.03125 52.09375 -35.625 C 49.570312 -38.226562 44.945312 -40.859375 38.21875 -43.515625 C 31.5 -46.179688 26.28125 -48.84375 22.5625 -51.5 C 16.707031 -55.757812 13.710938 -61.882812 13.578125 -69.875 C 13.578125 -77.320312 16.238281 -83.609375 21.5625 -88.734375 C 26.882812 -93.859375 33.535156 -96.421875 41.515625 -96.421875 C 46.578125 -96.421875 51.4375 -94.820312 56.09375 -91.625 C 60.75 -88.4375 64.207031 -84.242188 66.46875 -79.046875 Z M 53.09375 -72.0625 "/></g></g></g><g fill="#000000" fill-opacity="1"><g transform="translate(1653.901481, 3077.000899)"><g><path d="M 31.9375 -127.5625 L 31.9375 -93.828125 L 48.703125 -93.828125 L 48.703125 -79.046875 L 31.9375 -79.046875 L 31.9375 0 L 15.96875 0 L 15.96875 -79.046875 L 6.1875 -79.046875 L 6.1875 -93.828125 L 15.96875 -93.828125 L 15.96875 -127.5625 Z M 31.9375 -127.5625 "/></g></g></g><g fill="#000000" fill-opacity="1"><g transform="translate(1701.812089, 3077.000899)"><g><path d="M 58.296875 -77.453125 C 56.691406 -78.648438 55.191406 -79.644531 53.796875 -80.4375 C 52.398438 -81.238281 50.703125 -81.640625 48.703125 -81.640625 C 42.710938 -81.640625 38.15625 -78.976562 35.03125 -73.65625 C 31.90625 -68.332031 30.34375 -59.75 30.34375 -47.90625 L 30.34375 0 L 14.375 0 L 14.375 -93.828125 L 30.34375 -93.828125 L 30.34375 -83.640625 L 30.75 -83.640625 C 34.601562 -88.828125 38.023438 -92.253906 41.015625 -93.921875 C 44.015625 -95.585938 47.507812 -96.421875 51.5 -96.421875 C 53.894531 -96.421875 56.320312 -96.019531 58.78125 -95.21875 C 61.25 -94.414062 63.613281 -93.351562 65.875 -92.03125 Z M 58.296875 -77.453125 "/></g></g></g><g fill="#000000" fill-opacity="1"><g transform="translate(1768.68724, 3077.000899)"><g><path d="M 84.84375 -80.453125 L 84.84375 -93.828125 L 100.8125 -93.828125 L 100.8125 0 L 84.84375 0 L 84.84375 -12.96875 L 84.4375 -12.96875 C 76.1875 -2.59375 65.410156 2.59375 52.109375 2.59375 C 39.054688 2.59375 28.304688 -2.195312 19.859375 -11.78125 C 11.410156 -21.363281 7.1875 -33.007812 7.1875 -46.71875 C 7.1875 -61.082031 11.441406 -72.957031 19.953125 -82.34375 C 28.472656 -91.726562 39.253906 -96.421875 52.296875 -96.421875 C 58.816406 -96.421875 64.835938 -95.019531 70.359375 -92.21875 C 75.890625 -89.425781 80.582031 -85.503906 84.4375 -80.453125 Z M 54.09375 -81.640625 C 45.582031 -81.640625 38.363281 -78.378906 32.4375 -71.859375 C 26.519531 -65.335938 23.5625 -57.351562 23.5625 -47.90625 C 23.5625 -37.789062 26.453125 -29.304688 32.234375 -22.453125 C 38.023438 -15.597656 45.378906 -12.171875 54.296875 -12.171875 C 63.742188 -12.171875 71.328125 -15.429688 77.046875 -21.953125 C 82.773438 -28.472656 85.640625 -37.054688 85.640625 -47.703125 C 85.640625 -57.421875 82.710938 -65.503906 76.859375 -71.953125 C 71.003906 -78.410156 63.414062 -81.640625 54.09375 -81.640625 Z M 54.09375 -81.640625 "/></g></g></g><g fill="#000000" fill-opacity="1"><g transform="translate(1883.872338, 3077.000899)"><g><path d="M 31.9375 -127.5625 L 31.9375 -93.828125 L 48.703125 -93.828125 L 48.703125 -79.046875 L 31.9375 -79.046875 L 31.9375 0 L 15.96875 0 L 15.96875 -79.046875 L 6.1875 -79.046875 L 6.1875 -93.828125 L 15.96875 -93.828125 L 15.96875 -127.5625 Z M 31.9375 -127.5625 "/></g></g></g><g fill="#000000" fill-opacity="1"><g transform="translate(1931.782945, 3077.000899)"><g><path d="M 34.140625 -93.828125 L 34.140625 0 L 18.171875 0 L 18.171875 -93.828125 Z M 14.765625 -129.5625 C 14.765625 -132.488281 15.929688 -135.046875 18.265625 -137.234375 C 20.597656 -139.429688 23.226562 -140.53125 26.15625 -140.53125 C 29.21875 -140.53125 31.878906 -139.429688 34.140625 -137.234375 C 36.398438 -135.046875 37.53125 -132.488281 37.53125 -129.5625 C 37.53125 -126.09375 36.398438 -123.257812 34.140625 -121.0625 C 31.878906 -118.875 29.21875 -117.78125 26.15625 -117.78125 C 23.09375 -117.78125 20.425781 -118.84375 18.15625 -120.96875 C 15.894531 -123.101562 14.765625 -125.96875 14.765625 -129.5625 Z M 14.765625 -129.5625 "/></g></g></g><g fill="#000000" fill-opacity="1"><g transform="translate(1984.085381, 3077.000899)"><g><path d="M 6.78125 -46.71875 C 6.78125 -55.632812 8.976562 -63.953125 13.375 -71.671875 C 17.769531 -79.390625 23.757812 -85.441406 31.34375 -89.828125 C 38.925781 -94.222656 47.175781 -96.421875 56.09375 -96.421875 C 65.007812 -96.421875 73.226562 -94.222656 80.75 -89.828125 C 88.269531 -85.441406 94.257812 -79.421875 98.71875 -71.765625 C 103.175781 -64.109375 105.40625 -55.757812 105.40625 -46.71875 C 105.40625 -37.800781 103.207031 -29.515625 98.8125 -21.859375 C 94.425781 -14.203125 88.4375 -8.210938 80.84375 -3.890625 C 73.257812 0.429688 65.007812 2.59375 56.09375 2.59375 C 47.175781 2.59375 38.890625 0.398438 31.234375 -3.984375 C 23.585938 -8.378906 17.597656 -14.398438 13.265625 -22.046875 C 8.941406 -29.703125 6.78125 -37.925781 6.78125 -46.71875 Z M 55.890625 -81.640625 C 46.441406 -81.640625 38.554688 -78.28125 32.234375 -71.5625 C 25.910156 -64.84375 22.75 -56.625 22.75 -46.90625 C 22.75 -39.71875 24.476562 -33.363281 27.9375 -27.84375 C 31.40625 -22.320312 35.632812 -18.328125 40.625 -15.859375 C 45.613281 -13.398438 50.769531 -12.171875 56.09375 -12.171875 C 62.21875 -12.171875 67.804688 -13.601562 72.859375 -16.46875 C 77.921875 -19.332031 81.945312 -23.457031 84.9375 -28.84375 C 87.9375 -34.238281 89.4375 -40.257812 89.4375 -46.90625 C 89.4375 -53.03125 88.070312 -58.753906 85.34375 -64.078125 C 82.613281 -69.398438 78.648438 -73.65625 73.453125 -76.84375 C 68.265625 -80.039062 62.410156 -81.640625 55.890625 -81.640625 Z M 55.890625 -81.640625 "/></g></g></g><g fill="#000000" fill-opacity="1"><g transform="translate(2096.276038, 3077.000899)"><g><path d="M 90.234375 0 L 74.265625 0 L 74.265625 -54.703125 C 74.265625 -64.148438 72.832031 -71 69.96875 -75.25 C 67.101562 -79.507812 61.945312 -81.640625 54.5 -81.640625 C 45.976562 -81.640625 39.953125 -78.710938 36.421875 -72.859375 C 32.898438 -67.003906 31.140625 -58.085938 31.140625 -46.109375 L 31.140625 0 L 15.171875 0 L 15.171875 -93.828125 L 31.140625 -93.828125 L 31.140625 -82.4375 L 31.546875 -82.4375 C 34.867188 -86.96875 38.691406 -90.429688 43.015625 -92.828125 C 47.335938 -95.222656 52.429688 -96.421875 58.296875 -96.421875 C 68.804688 -96.421875 76.753906 -93.191406 82.140625 -86.734375 C 87.535156 -80.285156 90.234375 -70.269531 90.234375 -56.6875 Z M 90.234375 0 "/></g></g></g><path fill="#ffffff" d="M 580.34375 628.851562 L 1464.648438 628.851562 C 1480.464844 628.851562 1493.40625 615.910156 1493.40625 600.09375 C 1493.40625 584.277344 1480.464844 571.335938 1464.648438 571.335938 L 580.34375 571.335938 C 564.527344 571.335938 551.585938 584.277344 551.585938 600.09375 C 551.585938 615.910156 564.527344 628.851562 580.34375 628.851562 Z M 580.34375 628.851562 " fill-opacity="1" fill-rule="nonzero"/><path fill="#ffffff" d="M 1500.59375 887.671875 C 1500.59375 871.855469 1487.652344 858.914062 1471.835938 858.914062 L 587.535156 858.914062 C 571.71875 858.914062 558.777344 871.855469 558.777344 887.671875 C 558.777344 903.488281 571.71875 916.429688 587.535156 916.429688 L 1471.835938 916.429688 C 1487.652344 916.429688 1500.59375 903.488281 1500.59375 887.671875 Z M 1500.59375 887.671875 " fill-opacity="1" fill-rule="nonzero"/><path fill="#ffffff" d="M 558.777344 1750.40625 C 558.777344 1766.222656 571.71875 1779.164062 587.535156 1779.164062 L 1253.277344 1779.164062 C 1238.898438 1760.472656 1225.957031 1741.777344 1214.453125 1721.648438 L 587.535156 1721.648438 C 571.71875 1721.648438 558.777344 1734.589844 558.777344 1750.40625 Z M 558.777344 1750.40625 " fill-opacity="1" fill-rule="nonzero"/><path fill="#ffffff" d="M 1141.121094 1434.070312 L 587.535156 1434.070312 C 571.71875 1434.070312 558.777344 1447.011719 558.777344 1462.828125 C 558.777344 1478.644531 571.71875 1491.585938 587.535156 1491.585938 L 1142.558594 1491.585938 C 1141.121094 1477.207031 1141.121094 1462.828125 1141.121094 1448.449219 C 1141.121094 1444.136719 1141.121094 1438.382812 1141.121094 1434.070312 Z M 1141.121094 1434.070312 " fill-opacity="1" fill-rule="nonzero"/><path fill="#ffffff" d="M 1233.148438 1146.492188 L 587.535156 1146.492188 C 571.71875 1146.492188 558.777344 1159.433594 558.777344 1175.25 C 558.777344 1191.066406 571.71875 1204.007812 587.535156 1204.007812 L 1198.636719 1204.007812 C 1208.703125 1183.878906 1220.207031 1165.183594 1233.148438 1146.492188 Z M 1233.148438 1146.492188 " fill-opacity="1" fill-rule="nonzero"/><g clip-path="url(#fc6696a29e)"><path fill="#ffffff" d="M 450.933594 2095.5 L 1601.246094 2095.5 C 1660.199219 2095.5 1709.089844 2050.925781 1714.839844 1994.847656 C 1706.214844 1994.847656 1696.148438 1994.847656 1687.519531 1994.847656 C 1677.457031 1994.847656 1667.390625 1994.847656 1657.324219 1993.410156 C 1651.574219 2019.292969 1628.566406 2037.984375 1601.246094 2037.984375 L 450.933594 2037.984375 C 419.300781 2037.984375 393.417969 2012.101562 393.417969 1980.46875 L 393.417969 370.03125 C 393.417969 338.398438 419.300781 312.515625 450.933594 312.515625 L 1601.246094 312.515625 C 1632.882812 312.515625 1658.761719 338.398438 1658.761719 370.03125 L 1658.761719 903.488281 C 1668.828125 903.488281 1677.457031 902.050781 1687.519531 902.050781 C 1697.585938 902.050781 1706.214844 902.050781 1716.277344 903.488281 L 1716.277344 370.03125 C 1716.277344 306.765625 1664.515625 255 1601.246094 255 L 450.933594 255 C 387.667969 255 335.902344 306.765625 335.902344 370.03125 L 335.902344 1980.46875 C 335.902344 2043.734375 387.667969 2095.5 450.933594 2095.5 Z M 450.933594 2095.5 " fill-opacity="1" fill-rule="nonzero"/></g><g clip-path="url(#855ede908a)"><path fill="#ffffff" d="M 1687.519531 959.566406 C 1418.636719 959.566406 1198.636719 1179.5625 1198.636719 1448.449219 C 1198.636719 1717.335938 1418.636719 1937.332031 1687.519531 1937.332031 C 1956.40625 1937.332031 2176.402344 1717.335938 2176.402344 1448.449219 C 2176.402344 1179.5625 1956.40625 959.566406 1687.519531 959.566406 Z M 1687.519531 1879.816406 C 1450.269531 1879.816406 1256.152344 1685.699219 1256.152344 1448.449219 C 1256.152344 1211.195312 1450.269531 1017.082031 1687.519531 1017.082031 C 1924.773438 1017.082031 2118.886719 1211.195312 2118.886719 1448.449219 C 2118.886719 1685.699219 1924.773438 1879.816406 1687.519531 1879.816406 Z M 1687.519531 1879.816406 " fill-opacity="1" fill-rule="nonzero"/></g><path fill="#ffffff" d="M 1835.625 1156.558594 L 1825.558594 1152.242188 C 1776.671875 1127.800781 1716.277344 1147.929688 1691.835938 1196.816406 L 1517.851562 1539.035156 C 1517.851562 1539.035156 1517.851562 1539.035156 1517.851562 1540.472656 C 1517.851562 1541.910156 1516.410156 1541.910156 1516.410156 1543.351562 C 1516.410156 1544.789062 1516.410156 1544.789062 1514.972656 1546.226562 C 1514.972656 1547.664062 1514.972656 1547.664062 1514.972656 1549.101562 C 1514.972656 1550.539062 1514.972656 1550.539062 1514.972656 1551.976562 C 1514.972656 1551.976562 1514.972656 1553.414062 1514.972656 1553.414062 L 1516.410156 1721.648438 C 1516.410156 1733.152344 1522.164062 1741.777344 1532.230469 1747.53125 C 1542.292969 1751.84375 1553.796875 1751.84375 1562.425781 1744.65625 L 1700.460938 1644.003906 C 1701.898438 1642.5625 1703.335938 1642.5625 1703.335938 1641.125 C 1703.335938 1641.125 1703.335938 1641.125 1704.777344 1639.6875 C 1706.214844 1638.25 1707.652344 1635.375 1709.089844 1633.9375 L 1881.636719 1293.15625 C 1894.578125 1268.710938 1896.015625 1241.394531 1887.386719 1215.511719 C 1878.761719 1189.628906 1860.066406 1168.058594 1835.625 1156.558594 Z M 1572.488281 1665.570312 L 1572.488281 1599.425781 L 1627.128906 1626.746094 Z M 1670.265625 1582.171875 L 1582.554688 1539.035156 L 1700.460938 1306.097656 L 1788.171875 1349.234375 Z M 1829.871094 1267.273438 L 1814.054688 1298.910156 L 1726.34375 1255.773438 L 1742.160156 1224.136719 C 1752.226562 1202.570312 1778.109375 1193.941406 1799.675781 1205.445312 L 1809.742188 1209.757812 C 1831.308594 1218.386719 1841.375 1245.707031 1829.871094 1267.273438 Z M 1829.871094 1267.273438 " fill-opacity="1" fill-rule="nonzero"/></svg>