<svg xmlns="http://www.w3.org/2000/svg" xmlns:xlink="http://www.w3.org/1999/xlink" width="1200" zoomAndPan="magnify" viewBox="0 0 900 525.000007" height="700" preserveAspectRatio="xMidYMid meet" version="1.0"><defs><g/><clipPath id="72d7ff7c18"><path d="M 183.160156 20.601562 L 752.078125 20.601562 L 752.078125 510.167969 L 183.160156 510.167969 Z M 183.160156 20.601562 " clip-rule="nonzero"/></clipPath><clipPath id="0c00d0c1e1"><path d="M 245 61.96875 L 576 61.96875 L 576 510.367188 L 245 510.367188 Z M 245 61.96875 " clip-rule="nonzero"/></clipPath></defs><g clip-path="url(#72d7ff7c18)"><path stroke-linecap="butt" transform="matrix(0.748097, 0, 0, 0.748556, 183.162052, 20.602128)" fill="none" stroke-linejoin="miter" d="M -0.00253354 -0.000756076 L 760.484002 -0.000756076 L 760.484002 654.013427 L -0.00253354 654.013427 L -0.00253354 -0.000756076 " stroke="#ffffff" stroke-width="8" stroke-opacity="1" stroke-miterlimit="4"/></g><g fill="#082a71" fill-opacity="1"><g transform="translate(356.720013, 45.663041)"><g><path d="M 9.46875 0.3125 C 7.988281 0.3125 6.671875 0.128906 5.515625 -0.234375 C 4.359375 -0.609375 3.394531 -1.09375 2.625 -1.6875 C 1.851562 -2.28125 1.265625 -2.929688 0.859375 -3.640625 L 3.1875 -6.46875 L 3.546875 -6.46875 C 4.191406 -5.519531 5.007812 -4.757812 6 -4.1875 C 6.988281 -3.625 8.144531 -3.34375 9.46875 -3.34375 C 10.601562 -3.34375 11.457031 -3.582031 12.03125 -4.0625 C 12.601562 -4.539062 12.890625 -5.195312 12.890625 -6.03125 C 12.890625 -6.539062 12.796875 -6.96875 12.609375 -7.3125 C 12.429688 -7.65625 12.125 -7.945312 11.6875 -8.1875 C 11.257812 -8.425781 10.679688 -8.632812 9.953125 -8.8125 L 7.203125 -9.4375 C 5.285156 -9.875 3.851562 -10.601562 2.90625 -11.625 C 1.96875 -12.644531 1.5 -13.96875 1.5 -15.59375 C 1.5 -16.800781 1.800781 -17.863281 2.40625 -18.78125 C 3.007812 -19.695312 3.890625 -20.40625 5.046875 -20.90625 C 6.203125 -21.414062 7.582031 -21.671875 9.1875 -21.671875 C 10.84375 -21.671875 12.253906 -21.453125 13.421875 -21.015625 C 14.597656 -20.585938 15.59375 -19.925781 16.40625 -19.03125 L 14.3125 -16.171875 L 13.953125 -16.171875 C 13.347656 -16.804688 12.65625 -17.28125 11.875 -17.59375 C 11.09375 -17.90625 10.195312 -18.0625 9.1875 -18.0625 C 8.03125 -18.0625 7.148438 -17.859375 6.546875 -17.453125 C 5.941406 -17.046875 5.640625 -16.484375 5.640625 -15.765625 C 5.640625 -15.085938 5.851562 -14.546875 6.28125 -14.140625 C 6.707031 -13.742188 7.441406 -13.4375 8.484375 -13.21875 L 11.28125 -12.625 C 13.363281 -12.1875 14.867188 -11.441406 15.796875 -10.390625 C 16.734375 -9.347656 17.203125 -7.984375 17.203125 -6.296875 C 17.203125 -4.960938 16.914062 -3.800781 16.34375 -2.8125 C 15.769531 -1.820312 14.898438 -1.050781 13.734375 -0.5 C 12.578125 0.0390625 11.15625 0.3125 9.46875 0.3125 Z M 9.46875 0.3125 "/></g></g><g transform="translate(375.083472, 45.663041)"><g><path d="M 6.28125 0.3125 C 5.25 0.3125 4.351562 0.125 3.59375 -0.25 C 2.832031 -0.632812 2.25 -1.195312 1.84375 -1.9375 C 1.4375 -2.675781 1.234375 -3.5625 1.234375 -4.59375 C 1.234375 -5.539062 1.4375 -6.335938 1.84375 -6.984375 C 2.25 -7.640625 2.878906 -8.171875 3.734375 -8.578125 C 4.597656 -8.992188 5.722656 -9.316406 7.109375 -9.546875 C 8.066406 -9.703125 8.796875 -9.867188 9.296875 -10.046875 C 9.804688 -10.234375 10.144531 -10.441406 10.3125 -10.671875 C 10.488281 -10.910156 10.578125 -11.210938 10.578125 -11.578125 C 10.578125 -12.097656 10.394531 -12.492188 10.03125 -12.765625 C 9.675781 -13.035156 9.082031 -13.171875 8.25 -13.171875 C 7.351562 -13.171875 6.5 -12.96875 5.6875 -12.5625 C 4.875 -12.164062 4.171875 -11.644531 3.578125 -11 L 3.28125 -11 L 1.59375 -13.546875 C 2.414062 -14.453125 3.414062 -15.160156 4.59375 -15.671875 C 5.769531 -16.179688 7.054688 -16.4375 8.453125 -16.4375 C 10.585938 -16.4375 12.128906 -15.984375 13.078125 -15.078125 C 14.035156 -14.171875 14.515625 -12.882812 14.515625 -11.21875 L 14.515625 -4.203125 C 14.515625 -3.484375 14.832031 -3.125 15.46875 -3.125 C 15.707031 -3.125 15.945312 -3.171875 16.1875 -3.265625 L 16.390625 -3.203125 L 16.671875 -0.375 C 16.453125 -0.226562 16.140625 -0.109375 15.734375 -0.015625 C 15.335938 0.0664062 14.898438 0.109375 14.421875 0.109375 C 13.460938 0.109375 12.710938 -0.0703125 12.171875 -0.4375 C 11.628906 -0.8125 11.238281 -1.390625 11 -2.171875 L 10.703125 -2.203125 C 9.910156 -0.523438 8.4375 0.3125 6.28125 0.3125 Z M 7.578125 -2.71875 C 8.503906 -2.71875 9.25 -3.03125 9.8125 -3.65625 C 10.375 -4.289062 10.65625 -5.164062 10.65625 -6.28125 L 10.65625 -7.921875 L 10.375 -7.984375 C 10.132812 -7.785156 9.816406 -7.617188 9.421875 -7.484375 C 9.023438 -7.359375 8.457031 -7.234375 7.71875 -7.109375 C 6.84375 -6.960938 6.210938 -6.707031 5.828125 -6.34375 C 5.441406 -5.988281 5.25 -5.488281 5.25 -4.84375 C 5.25 -4.144531 5.453125 -3.613281 5.859375 -3.25 C 6.265625 -2.894531 6.835938 -2.71875 7.578125 -2.71875 Z M 7.578125 -2.71875 "/></g></g><g transform="translate(392.087216, 45.663041)"><g><path d="M 2.328125 0 L 2.328125 -16.125 L 6.21875 -16.125 L 6.21875 -13.953125 L 6.515625 -13.90625 C 7.046875 -14.769531 7.660156 -15.40625 8.359375 -15.8125 C 9.066406 -16.226562 9.972656 -16.4375 11.078125 -16.4375 C 12.296875 -16.4375 13.273438 -16.191406 14.015625 -15.703125 C 14.753906 -15.222656 15.296875 -14.519531 15.640625 -13.59375 L 15.953125 -13.59375 C 16.441406 -14.5625 17.078125 -15.273438 17.859375 -15.734375 C 18.648438 -16.203125 19.628906 -16.4375 20.796875 -16.4375 C 24.140625 -16.4375 25.8125 -14.570312 25.8125 -10.84375 L 25.8125 0 L 21.765625 0 L 21.765625 -10.328125 C 21.765625 -11.273438 21.578125 -11.957031 21.203125 -12.375 C 20.835938 -12.800781 20.242188 -13.015625 19.421875 -13.015625 C 17.203125 -13.015625 16.09375 -11.523438 16.09375 -8.546875 L 16.09375 0 L 12.046875 0 L 12.046875 -10.328125 C 12.046875 -11.273438 11.859375 -11.957031 11.484375 -12.375 C 11.109375 -12.800781 10.507812 -13.015625 9.6875 -13.015625 C 8.644531 -13.015625 7.832031 -12.664062 7.25 -11.96875 C 6.664062 -11.269531 6.375 -10.160156 6.375 -8.640625 L 6.375 0 Z M 2.328125 0 "/></g></g><g transform="translate(419.983299, 45.663041)"><g><path d="M 2.328125 6.53125 L 2.328125 -16.125 L 6.375 -16.125 L 6.375 -14.015625 L 6.6875 -13.953125 C 7.15625 -14.773438 7.789062 -15.394531 8.59375 -15.8125 C 9.394531 -16.226562 10.332031 -16.4375 11.40625 -16.4375 C 12.695312 -16.4375 13.828125 -16.128906 14.796875 -15.515625 C 15.765625 -14.898438 16.519531 -13.960938 17.0625 -12.703125 C 17.601562 -11.453125 17.875 -9.898438 17.875 -8.046875 C 17.875 -6.210938 17.585938 -4.671875 17.015625 -3.421875 C 16.453125 -2.171875 15.660156 -1.234375 14.640625 -0.609375 C 13.628906 0.00390625 12.460938 0.3125 11.140625 0.3125 C 10.140625 0.3125 9.269531 0.144531 8.53125 -0.1875 C 7.800781 -0.53125 7.1875 -1.054688 6.6875 -1.765625 L 6.375 -1.703125 L 6.375 6.53125 Z M 10.015625 -3.125 C 11.222656 -3.125 12.140625 -3.519531 12.765625 -4.3125 C 13.390625 -5.101562 13.703125 -6.347656 13.703125 -8.046875 C 13.703125 -9.753906 13.390625 -11.003906 12.765625 -11.796875 C 12.140625 -12.597656 11.222656 -13 10.015625 -13 C 8.878906 -13 7.976562 -12.585938 7.3125 -11.765625 C 6.65625 -10.953125 6.328125 -9.710938 6.328125 -8.046875 C 6.328125 -6.398438 6.65625 -5.164062 7.3125 -4.34375 C 7.976562 -3.53125 8.878906 -3.125 10.015625 -3.125 Z M 10.015625 -3.125 "/></g></g><g transform="translate(439.297096, 45.663041)"><g><path d="M 6.6875 0.3125 C 5.238281 0.3125 4.128906 -0.078125 3.359375 -0.859375 C 2.597656 -1.648438 2.21875 -2.84375 2.21875 -4.4375 L 2.21875 -22.59375 L 6.265625 -22.59375 L 6.265625 -4.609375 C 6.265625 -3.617188 6.675781 -3.125 7.5 -3.125 C 7.726562 -3.125 7.976562 -3.164062 8.25 -3.25 L 8.453125 -3.1875 L 8.8125 -0.078125 C 8.59375 0.046875 8.296875 0.140625 7.921875 0.203125 C 7.554688 0.273438 7.144531 0.3125 6.6875 0.3125 Z M 6.6875 0.3125 "/></g></g><g transform="translate(448.566549, 45.663041)"><g><path d="M 15.9375 -7.140625 L 5.5625 -7.140625 C 5.6875 -5.742188 6.085938 -4.722656 6.765625 -4.078125 C 7.453125 -3.441406 8.382812 -3.125 9.5625 -3.125 C 10.488281 -3.125 11.238281 -3.296875 11.8125 -3.640625 C 12.382812 -3.992188 12.847656 -4.519531 13.203125 -5.21875 L 13.5 -5.21875 L 16.203125 -3.5 C 15.671875 -2.363281 14.875 -1.441406 13.8125 -0.734375 C 12.75 -0.0351562 11.332031 0.3125 9.5625 0.3125 C 7.894531 0.3125 6.453125 -0.00390625 5.234375 -0.640625 C 4.023438 -1.273438 3.09375 -2.21875 2.4375 -3.46875 C 1.78125 -4.71875 1.453125 -6.242188 1.453125 -8.046875 C 1.453125 -9.878906 1.796875 -11.425781 2.484375 -12.6875 C 3.171875 -13.945312 4.101562 -14.882812 5.28125 -15.5 C 6.46875 -16.125 7.796875 -16.4375 9.265625 -16.4375 C 11.546875 -16.4375 13.289062 -15.832031 14.5 -14.625 C 15.71875 -13.414062 16.328125 -11.640625 16.328125 -9.296875 C 16.328125 -8.453125 16.296875 -7.796875 16.234375 -7.328125 Z M 12.453125 -9.765625 C 12.410156 -10.992188 12.125 -11.882812 11.59375 -12.4375 C 11.0625 -13 10.285156 -13.28125 9.265625 -13.28125 C 7.222656 -13.28125 6.019531 -12.109375 5.65625 -9.765625 Z M 12.453125 -9.765625 "/></g></g><g transform="translate(466.096634, 45.663041)"><g/></g><g transform="translate(473.158378, 45.663041)"><g><path d="M 17.125 -21.375 L 17.125 -17.8125 L 10.96875 -17.8125 L 10.96875 0 L 6.75 0 L 6.75 -17.8125 L 0.578125 -17.8125 L 0.578125 -21.375 Z M 17.125 -21.375 "/></g></g><g transform="translate(490.878531, 45.663041)"><g><path d="M 15.9375 -7.140625 L 5.5625 -7.140625 C 5.6875 -5.742188 6.085938 -4.722656 6.765625 -4.078125 C 7.453125 -3.441406 8.382812 -3.125 9.5625 -3.125 C 10.488281 -3.125 11.238281 -3.296875 11.8125 -3.640625 C 12.382812 -3.992188 12.847656 -4.519531 13.203125 -5.21875 L 13.5 -5.21875 L 16.203125 -3.5 C 15.671875 -2.363281 14.875 -1.441406 13.8125 -0.734375 C 12.75 -0.0351562 11.332031 0.3125 9.5625 0.3125 C 7.894531 0.3125 6.453125 -0.00390625 5.234375 -0.640625 C 4.023438 -1.273438 3.09375 -2.21875 2.4375 -3.46875 C 1.78125 -4.71875 1.453125 -6.242188 1.453125 -8.046875 C 1.453125 -9.878906 1.796875 -11.425781 2.484375 -12.6875 C 3.171875 -13.945312 4.101562 -14.882812 5.28125 -15.5 C 6.46875 -16.125 7.796875 -16.4375 9.265625 -16.4375 C 11.546875 -16.4375 13.289062 -15.832031 14.5 -14.625 C 15.71875 -13.414062 16.328125 -11.640625 16.328125 -9.296875 C 16.328125 -8.453125 16.296875 -7.796875 16.234375 -7.328125 Z M 12.453125 -9.765625 C 12.410156 -10.992188 12.125 -11.882812 11.59375 -12.4375 C 11.0625 -13 10.285156 -13.28125 9.265625 -13.28125 C 7.222656 -13.28125 6.019531 -12.109375 5.65625 -9.765625 Z M 12.453125 -9.765625 "/></g></g><g transform="translate(508.408617, 45.663041)"><g><path d="M 7.546875 0.3125 C 6.441406 0.3125 5.429688 0.179688 4.515625 -0.078125 C 3.597656 -0.335938 2.816406 -0.691406 2.171875 -1.140625 C 1.523438 -1.597656 1.046875 -2.117188 0.734375 -2.703125 L 2.984375 -5.125 L 3.28125 -5.125 C 3.820312 -4.40625 4.457031 -3.863281 5.1875 -3.5 C 5.914062 -3.144531 6.710938 -2.96875 7.578125 -2.96875 C 8.359375 -2.96875 8.945312 -3.109375 9.34375 -3.390625 C 9.75 -3.671875 9.953125 -4.078125 9.953125 -4.609375 C 9.953125 -5.015625 9.804688 -5.351562 9.515625 -5.625 C 9.234375 -5.90625 8.769531 -6.125 8.125 -6.28125 L 6 -6.796875 C 4.394531 -7.179688 3.222656 -7.765625 2.484375 -8.546875 C 1.753906 -9.328125 1.390625 -10.320312 1.390625 -11.53125 C 1.390625 -12.539062 1.644531 -13.414062 2.15625 -14.15625 C 2.664062 -14.894531 3.382812 -15.457031 4.3125 -15.84375 C 5.25 -16.238281 6.335938 -16.4375 7.578125 -16.4375 C 9.023438 -16.4375 10.222656 -16.222656 11.171875 -15.796875 C 12.128906 -15.378906 12.878906 -14.820312 13.421875 -14.125 L 11.25 -11.78125 L 10.96875 -11.78125 C 10.519531 -12.289062 10.015625 -12.660156 9.453125 -12.890625 C 8.890625 -13.128906 8.265625 -13.25 7.578125 -13.25 C 5.972656 -13.25 5.171875 -12.75 5.171875 -11.75 C 5.171875 -11.332031 5.316406 -10.988281 5.609375 -10.71875 C 5.910156 -10.457031 6.4375 -10.25 7.1875 -10.09375 L 9.1875 -9.640625 C 10.820312 -9.296875 12.015625 -8.734375 12.765625 -7.953125 C 13.523438 -7.179688 13.90625 -6.144531 13.90625 -4.84375 C 13.90625 -3.8125 13.648438 -2.90625 13.140625 -2.125 C 12.628906 -1.351562 11.894531 -0.753906 10.9375 -0.328125 C 9.988281 0.0976562 8.859375 0.3125 7.546875 0.3125 Z M 7.546875 0.3125 "/></g></g><g transform="translate(523.277755, 45.663041)"><g><path d="M 11.125 -3.84375 L 12.171875 -0.84375 C 11.734375 -0.488281 11.179688 -0.207031 10.515625 0 C 9.859375 0.207031 9.113281 0.3125 8.28125 0.3125 C 6.53125 0.3125 5.203125 -0.160156 4.296875 -1.109375 C 3.390625 -2.066406 2.9375 -3.453125 2.9375 -5.265625 L 2.9375 -12.921875 L 0.484375 -12.921875 L 0.484375 -16.140625 L 2.9375 -16.140625 L 2.9375 -19.28125 L 6.984375 -19.9375 L 6.984375 -16.140625 L 11.5625 -16.140625 L 11.5625 -12.921875 L 6.984375 -12.921875 L 6.984375 -5.5625 C 6.984375 -4.757812 7.148438 -4.175781 7.484375 -3.8125 C 7.816406 -3.445312 8.300781 -3.265625 8.9375 -3.265625 C 9.65625 -3.265625 10.28125 -3.457031 10.8125 -3.84375 Z M 11.125 -3.84375 "/></g></g><g transform="translate(535.807599, 45.663041)"><g><path d="M 4.34375 -18.046875 C 3.613281 -18.046875 3.019531 -18.269531 2.5625 -18.71875 C 2.101562 -19.164062 1.875 -19.738281 1.875 -20.4375 C 1.875 -21.125 2.101562 -21.6875 2.5625 -22.125 C 3.019531 -22.570312 3.613281 -22.796875 4.34375 -22.796875 C 4.832031 -22.796875 5.265625 -22.691406 5.640625 -22.484375 C 6.023438 -22.285156 6.320312 -22.007812 6.53125 -21.65625 C 6.738281 -21.300781 6.84375 -20.894531 6.84375 -20.4375 C 6.84375 -19.976562 6.738281 -19.566406 6.53125 -19.203125 C 6.320312 -18.847656 6.023438 -18.566406 5.640625 -18.359375 C 5.265625 -18.148438 4.832031 -18.046875 4.34375 -18.046875 Z M 2.328125 0 L 2.328125 -16.125 L 6.375 -16.125 L 6.375 0 Z M 2.328125 0 "/></g></g><g transform="translate(544.492229, 45.663041)"><g><path d="M 2.328125 0 L 2.328125 -16.125 L 6.21875 -16.125 L 6.21875 -13.75 L 6.515625 -13.6875 C 7.523438 -15.519531 9.15625 -16.4375 11.40625 -16.4375 C 13.257812 -16.4375 14.625 -15.925781 15.5 -14.90625 C 16.375 -13.894531 16.8125 -12.421875 16.8125 -10.484375 L 16.8125 0 L 12.765625 0 L 12.765625 -9.984375 C 12.765625 -11.054688 12.546875 -11.828125 12.109375 -12.296875 C 11.679688 -12.773438 11 -13.015625 10.0625 -13.015625 C 8.894531 -13.015625 7.988281 -12.640625 7.34375 -11.890625 C 6.695312 -11.140625 6.375 -9.957031 6.375 -8.34375 L 6.375 0 Z M 2.328125 0 "/></g></g><g transform="translate(563.382029, 45.663041)"><g><path d="M 8.359375 6.84375 C 5.703125 6.84375 3.738281 6.453125 2.46875 5.671875 C 1.195312 4.890625 0.5625 3.800781 0.5625 2.40625 C 0.5625 1.5625 0.832031 0.867188 1.375 0.328125 C 1.914062 -0.210938 2.695312 -0.578125 3.71875 -0.765625 L 3.71875 -1.0625 C 3.164062 -1.394531 2.769531 -1.765625 2.53125 -2.171875 C 2.289062 -2.578125 2.171875 -3.046875 2.171875 -3.578125 C 2.171875 -4.878906 3.015625 -5.753906 4.703125 -6.203125 L 4.703125 -6.5 C 3.835938 -7 3.1875 -7.613281 2.75 -8.34375 C 2.3125 -9.082031 2.09375 -9.972656 2.09375 -11.015625 C 2.09375 -12.085938 2.335938 -13.03125 2.828125 -13.84375 C 3.316406 -14.664062 4.035156 -15.300781 4.984375 -15.75 C 5.941406 -16.207031 7.082031 -16.4375 8.40625 -16.4375 C 9.75 -16.4375 10.820312 -16.203125 11.625 -15.734375 C 12.113281 -16.453125 12.398438 -17.285156 12.484375 -18.234375 L 12.796875 -18.421875 L 15.703125 -17.703125 C 15.609375 -16.929688 15.378906 -16.285156 15.015625 -15.765625 C 14.660156 -15.242188 14.101562 -14.78125 13.34375 -14.375 L 13.34375 -14.046875 C 14.25 -13.242188 14.703125 -12.128906 14.703125 -10.703125 C 14.703125 -9.703125 14.453125 -8.804688 13.953125 -8.015625 C 13.460938 -7.234375 12.738281 -6.613281 11.78125 -6.15625 C 10.832031 -5.695312 9.707031 -5.46875 8.40625 -5.46875 L 7.796875 -5.484375 C 7.398438 -5.503906 7.125 -5.515625 6.96875 -5.515625 C 6.601562 -5.515625 6.3125 -5.410156 6.09375 -5.203125 C 5.882812 -5.003906 5.78125 -4.75 5.78125 -4.4375 C 5.78125 -4.101562 5.914062 -3.835938 6.1875 -3.640625 C 6.46875 -3.453125 6.867188 -3.347656 7.390625 -3.328125 L 11 -3.203125 C 14.570312 -3.097656 16.359375 -1.5625 16.359375 1.40625 C 16.359375 2.445312 16.09375 3.375 15.5625 4.1875 C 15.03125 5 14.171875 5.644531 12.984375 6.125 C 11.796875 6.601562 10.253906 6.84375 8.359375 6.84375 Z M 8.40625 -8.296875 C 9.1875 -8.296875 9.796875 -8.523438 10.234375 -8.984375 C 10.671875 -9.441406 10.890625 -10.097656 10.890625 -10.953125 C 10.890625 -11.796875 10.671875 -12.441406 10.234375 -12.890625 C 9.796875 -13.347656 9.1875 -13.578125 8.40625 -13.578125 C 7.613281 -13.578125 7.003906 -13.347656 6.578125 -12.890625 C 6.148438 -12.441406 5.9375 -11.796875 5.9375 -10.953125 C 5.9375 -10.085938 6.148438 -9.425781 6.578125 -8.96875 C 7.003906 -8.519531 7.613281 -8.296875 8.40625 -8.296875 Z M 8.359375 3.90625 C 9.742188 3.90625 10.75 3.707031 11.375 3.3125 C 12.007812 2.925781 12.328125 2.421875 12.328125 1.796875 C 12.328125 1.285156 12.164062 0.910156 11.84375 0.671875 C 11.519531 0.441406 11.007812 0.316406 10.3125 0.296875 L 7.125 0.140625 C 7.007812 0.140625 6.90625 0.132812 6.8125 0.125 C 6.726562 0.113281 6.640625 0.109375 6.546875 0.109375 C 5.867188 0.109375 5.347656 0.253906 4.984375 0.546875 C 4.628906 0.847656 4.453125 1.253906 4.453125 1.765625 C 4.453125 2.453125 4.78125 2.976562 5.4375 3.34375 C 6.09375 3.71875 7.066406 3.90625 8.359375 3.90625 Z M 8.359375 3.90625 "/></g></g></g><path fill="#082a71" d="M 341.746094 265.035156 C 339.167969 262.976562 335.046875 263.492188 332.46875 266.066406 L 310.820312 292.867188 L 304.121094 286.683594 C 301.542969 284.105469 297.421875 284.105469 294.84375 286.683594 C 292.265625 289.261719 292.265625 293.382812 294.84375 295.960938 C 294.84375 295.960938 307.214844 307.300781 307.214844 307.300781 C 310.304688 309.875 314.945312 308.84375 316.492188 306.785156 L 342.261719 274.3125 C 344.839844 271.222656 345.867188 268.128906 341.746094 265.035156 Z M 341.746094 265.035156 " fill-opacity="1" fill-rule="nonzero"/><g clip-path="url(#0c00d0c1e1)"><path fill="#082a71" d="M 569.550781 326.882812 C 565.945312 326.882812 563.367188 329.976562 563.367188 333.070312 L 563.367188 497.480469 L 257.734375 497.480469 L 257.734375 74.855469 L 470.59375 74.855469 L 470.59375 160.410156 C 470.59375 164.019531 473.171875 167.109375 476.78125 167.109375 L 562.335938 167.109375 L 562.335938 175.355469 C 562.335938 178.964844 565.429688 181.542969 568.519531 181.542969 C 571.613281 181.542969 574.707031 178.449219 574.707031 175.355469 L 574.707031 160.410156 C 574.707031 158.863281 574.191406 157.320312 572.644531 155.773438 L 481.933594 64.03125 C 480.902344 62.484375 478.839844 61.96875 477.296875 61.96875 L 251.550781 61.96875 C 247.941406 61.96875 245.367188 65.0625 245.367188 68.15625 L 245.367188 504.179688 C 245.367188 507.789062 248.457031 510.367188 251.550781 510.367188 L 569.550781 510.367188 C 573.160156 510.367188 575.734375 507.273438 575.734375 504.179688 L 575.734375 333.070312 C 575.734375 329.460938 573.160156 326.882812 569.550781 326.882812 Z M 569.550781 326.882812 " fill-opacity="1" fill-rule="nonzero"/></g><path fill="#082a71" d="M 530.382812 195.457031 C 530.382812 191.851562 527.289062 189.273438 524.195312 189.273438 L 370.609375 189.273438 C 367 189.273438 364.421875 192.367188 364.421875 195.457031 C 364.421875 198.550781 367.515625 201.644531 370.609375 201.644531 L 524.195312 201.644531 C 527.804688 202.15625 530.382812 199.066406 530.382812 195.457031 Z M 530.382812 195.457031 " fill-opacity="1" fill-rule="nonzero"/><path fill="#082a71" d="M 370.609375 222.257812 C 367 222.257812 364.421875 225.351562 364.421875 228.441406 C 364.421875 231.535156 367.515625 234.628906 370.609375 234.628906 L 480.902344 234.628906 C 484.511719 234.628906 487.085938 231.535156 487.085938 228.441406 C 487.085938 225.351562 484.511719 222.257812 480.902344 222.257812 Z M 370.609375 222.257812 " fill-opacity="1" fill-rule="nonzero"/><path fill="#082a71" d="M 341.746094 179.996094 C 339.167969 177.933594 335.046875 178.449219 332.46875 181.027344 L 310.820312 207.828125 L 304.121094 201.644531 C 301.542969 199.066406 297.421875 199.066406 294.84375 201.644531 C 292.265625 204.21875 292.265625 208.34375 294.84375 210.917969 C 294.84375 210.917969 307.214844 222.257812 307.214844 222.257812 C 310.304688 224.835938 314.945312 223.804688 316.492188 221.742188 L 342.261719 189.273438 C 344.839844 186.179688 345.351562 183.089844 341.746094 179.996094 Z M 341.746094 179.996094 " fill-opacity="1" fill-rule="nonzero"/><path fill="#082a71" d="M 341.746094 346.984375 C 339.167969 344.921875 335.046875 345.4375 332.46875 348.015625 L 310.820312 374.816406 L 304.121094 368.632812 C 301.542969 366.054688 297.421875 366.054688 294.84375 368.632812 C 292.265625 371.207031 292.265625 375.332031 294.84375 377.910156 C 294.84375 377.910156 307.214844 389.246094 307.214844 389.246094 C 310.304688 391.824219 314.945312 390.792969 316.492188 388.730469 L 342.261719 356.261719 C 344.839844 353.683594 345.351562 350.078125 341.746094 346.984375 Z M 341.746094 346.984375 " fill-opacity="1" fill-rule="nonzero"/><path fill="#082a71" d="M 688.09375 178.964844 L 669.539062 164.535156 L 681.90625 148.558594 C 684.484375 145.464844 687.0625 140.308594 681.394531 135.671875 L 654.59375 114.539062 C 650.46875 110.933594 643.769531 110.933594 640.160156 115.570312 L 627.792969 131.546875 C 626.761719 131.03125 625.214844 130.519531 624.183594 131.03125 C 622.636719 131.03125 621.089844 132.0625 620.058594 133.609375 L 598.414062 161.441406 C 596.867188 164.019531 596.867188 167.109375 598.414062 169.171875 L 516.980469 272.765625 L 370.609375 272.765625 C 367 272.765625 364.421875 275.859375 364.421875 278.953125 C 364.421875 282.042969 367.515625 285.136719 370.609375 285.136719 L 506.671875 285.136719 L 491.210938 305.238281 L 370.609375 305.238281 C 367 305.238281 364.421875 308.328125 364.421875 311.421875 C 364.421875 314.515625 367.515625 317.605469 370.609375 317.605469 L 481.417969 317.605469 L 452.039062 356.261719 L 370.609375 356.261719 C 367 356.261719 364.421875 359.355469 364.421875 362.445312 C 364.421875 365.539062 367.515625 368.632812 370.609375 368.632812 L 441.734375 368.632812 L 428.847656 385.125 C 428.847656 385.125 428.332031 386.671875 427.816406 388.730469 L 370.609375 388.730469 C 367 388.730469 364.421875 391.824219 364.421875 394.917969 C 364.421875 398.007812 367.515625 401.101562 370.609375 401.101562 L 423.695312 401.101562 C 418.539062 417.59375 411.839844 440.785156 411.839844 440.785156 C 410.808594 443.363281 411.839844 446.457031 413.902344 448.003906 C 415.960938 449.550781 419.054688 449.550781 421.117188 448.519531 C 421.117188 448.519531 470.078125 419.140625 471.109375 418.109375 L 639.644531 201.128906 C 640.675781 201.644531 641.707031 202.15625 643.253906 202.15625 C 645.316406 202.15625 647.375 201.128906 648.40625 199.582031 L 665.929688 176.902344 L 675.207031 184.117188 L 622.636719 252.667969 C 620.574219 255.757812 621.089844 259.367188 623.667969 261.945312 C 626.246094 264.519531 630.367188 263.492188 632.945312 260.914062 L 689.640625 188.242188 C 691.699219 185.148438 690.667969 181.027344 688.09375 178.964844 Z M 428.847656 429.449219 L 438.125 398.523438 C 441.734375 400.585938 444.824219 402.648438 447.917969 404.710938 C 451.011719 407.285156 454.101562 409.863281 456.679688 412.441406 Z M 642.222656 187.726562 L 611.8125 164.019531 L 624.699219 147.527344 L 655.105469 171.234375 Z M 642.222656 187.726562 " fill-opacity="1" fill-rule="nonzero"/></svg>