<svg xmlns="http://www.w3.org/2000/svg" xmlns:xlink="http://www.w3.org/1999/xlink" width="3400" zoomAndPan="magnify" viewBox="0 0 2550 3224.999865" height="4300" preserveAspectRatio="xMidYMid meet" version="1.0"><defs><g/><clipPath id="9a81b16b2a"><path d="M 0 2799.246094 L 2550 2799.246094 L 2550 3225 L 0 3225 Z M 0 2799.246094 " clip-rule="nonzero"/></clipPath><clipPath id="b0aff14631"><path d="M 357 255 L 1716 255 L 1716 2099.25 L 357 2099.25 Z M 357 255 " clip-rule="nonzero"/></clipPath></defs><path stroke-linecap="butt" transform="matrix(0.75, 0, 0, 0.75, 0.000116248, 0.000234375)" fill="none" stroke-linejoin="miter" d="M -0.000154997 -0.0003125 L 3399.999911 -0.0003125 L 3399.999911 4299.999771 L -0.000154997 4299.999771 L -0.000154997 -0.0003125 " stroke="#ffffff" stroke-width="50" stroke-opacity="1" stroke-miterlimit="4"/><g clip-path="url(#9a81b16b2a)"><path fill="#ffffff" d="M -90 2799.246094 L 2602.265625 2799.246094 L 2602.265625 3224.988281 L -90 3224.988281 Z M -90 2799.246094 " fill-opacity="1" fill-rule="nonzero"/></g><g fill="#000000" fill-opacity="1"><g transform="translate(622.916257, 3077.000899)"><g><path d="M 83.4375 -121.171875 C 80.113281 -127.023438 76.421875 -131.21875 72.359375 -133.75 C 68.304688 -136.28125 63.414062 -137.546875 57.6875 -137.546875 C 50.375 -137.546875 44.351562 -135.28125 39.625 -130.75 C 34.894531 -126.226562 32.53125 -120.707031 32.53125 -114.1875 C 32.53125 -109.125 34.492188 -104.796875 38.421875 -101.203125 C 42.347656 -97.609375 47.101562 -94.546875 52.6875 -92.015625 C 58.28125 -89.492188 63.335938 -87.300781 67.859375 -85.4375 C 72.390625 -83.570312 77.648438 -80.773438 83.640625 -77.046875 C 89.628906 -73.328125 94.21875 -68.671875 97.40625 -63.078125 C 100.601562 -57.492188 102.203125 -51.109375 102.203125 -43.921875 C 102.203125 -35.671875 100.140625 -27.953125 96.015625 -20.765625 C 91.890625 -13.578125 86.164062 -7.882812 78.84375 -3.6875 C 71.53125 0.5 63.546875 2.59375 54.890625 2.59375 C 43.046875 2.59375 32.898438 -0.894531 24.453125 -7.875 C 16.003906 -14.863281 10.515625 -24.347656 7.984375 -36.328125 L 24.359375 -40.921875 C 25.679688 -32.671875 29.101562 -25.945312 34.625 -20.75 C 40.15625 -15.5625 46.78125 -12.96875 54.5 -12.96875 C 62.882812 -12.96875 70.132812 -15.828125 76.25 -21.546875 C 82.375 -27.273438 85.4375 -34.203125 85.4375 -42.328125 C 85.4375 -49.503906 83.109375 -55.390625 78.453125 -59.984375 C 73.796875 -64.578125 65.273438 -69.332031 52.890625 -74.25 C 40.515625 -79.175781 31.234375 -84.703125 25.046875 -90.828125 C 18.859375 -96.953125 15.765625 -104.9375 15.765625 -114.78125 C 15.765625 -125.957031 19.890625 -135.140625 28.140625 -142.328125 C 36.398438 -149.515625 46.316406 -153.109375 57.890625 -153.109375 C 66.410156 -153.109375 73.960938 -151.113281 80.546875 -147.125 C 87.140625 -143.132812 92.5625 -137.34375 96.8125 -129.75 Z M 83.4375 -121.171875 "/></g></g></g><g fill="#000000" fill-opacity="1"><g transform="translate(734.508037, 3077.000899)"><g><path d="M 84.84375 -80.453125 L 84.84375 -93.828125 L 100.8125 -93.828125 L 100.8125 0 L 84.84375 0 L 84.84375 -12.96875 L 84.4375 -12.96875 C 76.1875 -2.59375 65.410156 2.59375 52.109375 2.59375 C 39.054688 2.59375 28.304688 -2.195312 19.859375 -11.78125 C 11.410156 -21.363281 7.1875 -33.007812 7.1875 -46.71875 C 7.1875 -61.082031 11.441406 -72.957031 19.953125 -82.34375 C 28.472656 -91.726562 39.253906 -96.421875 52.296875 -96.421875 C 58.816406 -96.421875 64.835938 -95.019531 70.359375 -92.21875 C 75.890625 -89.425781 80.582031 -85.503906 84.4375 -80.453125 Z M 54.09375 -81.640625 C 45.582031 -81.640625 38.363281 -78.378906 32.4375 -71.859375 C 26.519531 -65.335938 23.5625 -57.351562 23.5625 -47.90625 C 23.5625 -37.789062 26.453125 -29.304688 32.234375 -22.453125 C 38.023438 -15.597656 45.378906 -12.171875 54.296875 -12.171875 C 63.742188 -12.171875 71.328125 -15.429688 77.046875 -21.953125 C 82.773438 -28.472656 85.640625 -37.054688 85.640625 -47.703125 C 85.640625 -57.421875 82.710938 -65.503906 76.859375 -71.953125 C 71.003906 -78.410156 63.414062 -81.640625 54.09375 -81.640625 Z M 54.09375 -81.640625 "/></g></g></g><g fill="#000000" fill-opacity="1"><g transform="translate(849.693117, 3077.000899)"><g><path d="M 80.046875 -80.84375 C 82.835938 -85.769531 86.726562 -89.597656 91.71875 -92.328125 C 96.71875 -95.054688 102.210938 -96.421875 108.203125 -96.421875 C 118.046875 -96.421875 125.492188 -93.09375 130.546875 -86.4375 C 135.609375 -79.78125 138.140625 -70.332031 138.140625 -58.09375 L 138.140625 0 L 122.171875 0 L 122.171875 -55.703125 C 122.171875 -65.148438 120.769531 -71.832031 117.96875 -75.75 C 115.175781 -79.675781 110.851562 -81.640625 105 -81.640625 C 98.082031 -81.640625 92.957031 -79.109375 89.625 -74.046875 C 86.300781 -68.992188 84.640625 -61.210938 84.640625 -50.703125 L 84.640625 0 L 68.671875 0 L 68.671875 -54.09375 C 68.671875 -63.675781 67.238281 -70.660156 64.375 -75.046875 C 61.519531 -79.441406 57.363281 -81.640625 51.90625 -81.640625 C 45.113281 -81.640625 39.953125 -79.078125 36.421875 -73.953125 C 32.898438 -68.835938 31.140625 -60.6875 31.140625 -49.5 L 31.140625 0 L 15.171875 0 L 15.171875 -93.828125 L 31.140625 -93.828125 L 31.140625 -83.640625 L 31.546875 -83.640625 C 34.066406 -87.503906 37.253906 -90.597656 41.109375 -92.921875 C 44.972656 -95.253906 49.300781 -96.421875 54.09375 -96.421875 C 59.550781 -96.421875 64.609375 -95.054688 69.265625 -92.328125 C 73.921875 -89.597656 77.515625 -85.769531 80.046875 -80.84375 Z M 80.046875 -80.84375 "/></g></g></g><g fill="#000000" fill-opacity="1"><g transform="translate(1003.007047, 3077.000899)"><g><path d="M 30.75 -13.171875 L 30.34375 -13.171875 L 30.34375 52.703125 L 14.375 52.703125 L 14.375 -93.828125 L 30.34375 -93.828125 L 30.34375 -80.453125 L 30.75 -80.453125 C 34.601562 -85.640625 39.320312 -89.597656 44.90625 -92.328125 C 50.5 -95.054688 56.554688 -96.421875 63.078125 -96.421875 C 71.460938 -96.421875 79.113281 -94.222656 86.03125 -89.828125 C 92.957031 -85.441406 98.347656 -79.421875 102.203125 -71.765625 C 106.066406 -64.109375 108 -55.757812 108 -46.71875 C 108 -37.664062 106.132812 -29.3125 102.40625 -21.65625 C 98.675781 -14.007812 93.316406 -8.054688 86.328125 -3.796875 C 79.347656 0.460938 71.53125 2.59375 62.875 2.59375 C 56.488281 2.59375 50.5 1.265625 44.90625 -1.390625 C 39.320312 -4.054688 34.601562 -7.984375 30.75 -13.171875 Z M 59.890625 -81.640625 C 54.703125 -81.640625 49.773438 -80.242188 45.109375 -77.453125 C 40.453125 -74.660156 36.691406 -70.601562 33.828125 -65.28125 C 30.972656 -59.957031 29.546875 -54.164062 29.546875 -47.90625 C 29.546875 -37.925781 32.375 -29.472656 38.03125 -22.546875 C 43.6875 -15.628906 51.101562 -12.171875 60.28125 -12.171875 C 66.539062 -12.171875 72.066406 -13.664062 76.859375 -16.65625 C 81.648438 -19.65625 85.304688 -23.882812 87.828125 -29.34375 C 90.359375 -34.800781 91.625 -40.921875 91.625 -47.703125 C 91.625 -57.691406 88.695312 -65.84375 82.84375 -72.15625 C 76.988281 -78.476562 69.335938 -81.640625 59.890625 -81.640625 Z M 59.890625 -81.640625 "/></g></g></g><g fill="#000000" fill-opacity="1"><g transform="translate(1118.192108, 3077.000899)"><g><path d="M 30.75 -164.6875 L 30.75 0 L 14.765625 0 L 14.765625 -164.6875 Z M 30.75 -164.6875 "/></g></g></g><g fill="#000000" fill-opacity="1"><g transform="translate(1163.507537, 3077.000899)"><g><path d="M 96.8125 -43.515625 L 23.15625 -43.515625 C 23.425781 -34.203125 26.488281 -26.648438 32.34375 -20.859375 C 38.195312 -15.066406 45.382812 -12.171875 53.90625 -12.171875 C 59.882812 -12.171875 65.171875 -13.703125 69.765625 -16.765625 C 74.359375 -19.828125 78.582031 -24.753906 82.4375 -31.546875 L 96.015625 -23.75 C 91.492188 -15.363281 85.539062 -8.875 78.15625 -4.28125 C 70.769531 0.300781 62.285156 2.59375 52.703125 2.59375 C 43.515625 2.59375 35.394531 0.398438 28.34375 -3.984375 C 21.289062 -8.378906 15.929688 -14.269531 12.265625 -21.65625 C 8.609375 -29.039062 6.78125 -37.0625 6.78125 -45.71875 C 6.78125 -55.300781 8.609375 -63.953125 12.265625 -71.671875 C 15.929688 -79.390625 21.222656 -85.441406 28.140625 -89.828125 C 35.066406 -94.222656 43.117188 -96.421875 52.296875 -96.421875 C 61.210938 -96.421875 69.097656 -94.253906 75.953125 -89.921875 C 82.804688 -85.597656 88.03125 -79.644531 91.625 -72.0625 C 95.21875 -64.476562 97.015625 -55.960938 97.015625 -46.515625 C 97.015625 -45.578125 96.945312 -44.578125 96.8125 -43.515625 Z M 80.046875 -57.09375 C 78.710938 -64.414062 75.453125 -70.335938 70.265625 -74.859375 C 65.078125 -79.378906 59.15625 -81.640625 52.5 -81.640625 C 45.976562 -81.640625 39.851562 -79.273438 34.125 -74.546875 C 28.40625 -69.828125 25.015625 -64.007812 23.953125 -57.09375 Z M 80.046875 -57.09375 "/></g></g></g><g fill="#000000" fill-opacity="1"><g transform="translate(1328.599487, 3077.000899)"><g><path d="M 91.828125 -150.515625 L 91.828125 -134.953125 L 55.09375 -134.953125 L 55.09375 0 L 38.328125 0 L 38.328125 -134.953125 L 2 -134.953125 L 2 -150.515625 Z M 91.828125 -150.515625 "/></g></g></g><g fill="#000000" fill-opacity="1"><g transform="translate(1422.424383, 3077.000899)"><g><path d="M 96.8125 -43.515625 L 23.15625 -43.515625 C 23.425781 -34.203125 26.488281 -26.648438 32.34375 -20.859375 C 38.195312 -15.066406 45.382812 -12.171875 53.90625 -12.171875 C 59.882812 -12.171875 65.171875 -13.703125 69.765625 -16.765625 C 74.359375 -19.828125 78.582031 -24.753906 82.4375 -31.546875 L 96.015625 -23.75 C 91.492188 -15.363281 85.539062 -8.875 78.15625 -4.28125 C 70.769531 0.300781 62.285156 2.59375 52.703125 2.59375 C 43.515625 2.59375 35.394531 0.398438 28.34375 -3.984375 C 21.289062 -8.378906 15.929688 -14.269531 12.265625 -21.65625 C 8.609375 -29.039062 6.78125 -37.0625 6.78125 -45.71875 C 6.78125 -55.300781 8.609375 -63.953125 12.265625 -71.671875 C 15.929688 -79.390625 21.222656 -85.441406 28.140625 -89.828125 C 35.066406 -94.222656 43.117188 -96.421875 52.296875 -96.421875 C 61.210938 -96.421875 69.097656 -94.253906 75.953125 -89.921875 C 82.804688 -85.597656 88.03125 -79.644531 91.625 -72.0625 C 95.21875 -64.476562 97.015625 -55.960938 97.015625 -46.515625 C 97.015625 -45.578125 96.945312 -44.578125 96.8125 -43.515625 Z M 80.046875 -57.09375 C 78.710938 -64.414062 75.453125 -70.335938 70.265625 -74.859375 C 65.078125 -79.378906 59.15625 -81.640625 52.5 -81.640625 C 45.976562 -81.640625 39.851562 -79.273438 34.125 -74.546875 C 28.40625 -69.828125 25.015625 -64.007812 23.953125 -57.09375 Z M 80.046875 -57.09375 "/></g></g></g><g fill="#000000" fill-opacity="1"><g transform="translate(1526.031055, 3077.000899)"><g><path d="M 53.09375 -72.0625 C 51.632812 -75.125 49.769531 -77.484375 47.5 -79.140625 C 45.238281 -80.804688 42.847656 -81.640625 40.328125 -81.640625 C 37.398438 -81.640625 34.738281 -80.609375 32.34375 -78.546875 C 29.945312 -76.484375 28.75 -74.054688 28.75 -71.265625 C 28.75 -65.804688 33.972656 -61.179688 44.421875 -57.390625 C 54.867188 -53.597656 62.117188 -49.4375 66.171875 -44.90625 C 70.234375 -40.382812 72.265625 -34.734375 72.265625 -27.953125 C 72.265625 -22.753906 71.066406 -17.894531 68.671875 -13.375 C 66.273438 -8.851562 62.582031 -5.0625 57.59375 -2 C 52.601562 1.0625 46.914062 2.59375 40.53125 2.59375 C 32.8125 2.59375 26.019531 0.53125 20.15625 -3.59375 C 14.300781 -7.71875 10.046875 -13.570312 7.390625 -21.15625 L 21.5625 -27.15625 C 23.957031 -21.5625 26.648438 -17.664062 29.640625 -15.46875 C 32.640625 -13.269531 36.332031 -12.171875 40.71875 -12.171875 C 45.25 -12.171875 48.910156 -13.535156 51.703125 -16.265625 C 54.492188 -18.992188 55.890625 -22.421875 55.890625 -26.546875 C 55.890625 -30.003906 54.625 -33.03125 52.09375 -35.625 C 49.570312 -38.226562 44.945312 -40.859375 38.21875 -43.515625 C 31.5 -46.179688 26.28125 -48.84375 22.5625 -51.5 C 16.707031 -55.757812 13.710938 -61.882812 13.578125 -69.875 C 13.578125 -77.320312 16.238281 -83.609375 21.5625 -88.734375 C 26.882812 -93.859375 33.535156 -96.421875 41.515625 -96.421875 C 46.578125 -96.421875 51.4375 -94.820312 56.09375 -91.625 C 60.75 -88.4375 64.207031 -84.242188 66.46875 -79.046875 Z M 53.09375 -72.0625 "/></g></g></g><g fill="#000000" fill-opacity="1"><g transform="translate(1605.682424, 3077.000899)"><g><path d="M 31.9375 -127.5625 L 31.9375 -93.828125 L 48.703125 -93.828125 L 48.703125 -79.046875 L 31.9375 -79.046875 L 31.9375 0 L 15.96875 0 L 15.96875 -79.046875 L 6.1875 -79.046875 L 6.1875 -93.828125 L 15.96875 -93.828125 L 15.96875 -127.5625 Z M 31.9375 -127.5625 "/></g></g></g><g fill="#000000" fill-opacity="1"><g transform="translate(1653.593031, 3077.000899)"><g><path d="M 34.140625 -93.828125 L 34.140625 0 L 18.171875 0 L 18.171875 -93.828125 Z M 14.765625 -129.5625 C 14.765625 -132.488281 15.929688 -135.046875 18.265625 -137.234375 C 20.597656 -139.429688 23.226562 -140.53125 26.15625 -140.53125 C 29.21875 -140.53125 31.878906 -139.429688 34.140625 -137.234375 C 36.398438 -135.046875 37.53125 -132.488281 37.53125 -129.5625 C 37.53125 -126.09375 36.398438 -123.257812 34.140625 -121.0625 C 31.878906 -118.875 29.21875 -117.78125 26.15625 -117.78125 C 23.09375 -117.78125 20.425781 -118.84375 18.15625 -120.96875 C 15.894531 -123.101562 14.765625 -125.96875 14.765625 -129.5625 Z M 14.765625 -129.5625 "/></g></g></g><g fill="#000000" fill-opacity="1"><g transform="translate(1705.895467, 3077.000899)"><g><path d="M 90.234375 0 L 74.265625 0 L 74.265625 -54.703125 C 74.265625 -64.148438 72.832031 -71 69.96875 -75.25 C 67.101562 -79.507812 61.945312 -81.640625 54.5 -81.640625 C 45.976562 -81.640625 39.953125 -78.710938 36.421875 -72.859375 C 32.898438 -67.003906 31.140625 -58.085938 31.140625 -46.109375 L 31.140625 0 L 15.171875 0 L 15.171875 -93.828125 L 31.140625 -93.828125 L 31.140625 -82.4375 L 31.546875 -82.4375 C 34.867188 -86.96875 38.691406 -90.429688 43.015625 -92.828125 C 47.335938 -95.222656 52.429688 -96.421875 58.296875 -96.421875 C 68.804688 -96.421875 76.753906 -93.191406 82.140625 -86.734375 C 87.535156 -80.285156 90.234375 -70.269531 90.234375 -56.6875 Z M 90.234375 0 "/></g></g></g><g fill="#000000" fill-opacity="1"><g transform="translate(1811.298789, 3077.000899)"><g><path d="M 83.84375 -80.453125 L 83.84375 -93.828125 L 99.8125 -93.828125 L 99.8125 3.390625 C 99.8125 19.097656 95.421875 31.175781 86.640625 39.625 C 77.859375 48.070312 66.945312 52.296875 53.90625 52.296875 C 40.59375 52.296875 29.644531 48.335938 21.0625 40.421875 C 12.476562 32.503906 8.050781 22.09375 7.78125 9.1875 L 23.75 9.1875 C 23.75 17.4375 26.507812 24.222656 32.03125 29.546875 C 37.5625 34.867188 44.851562 37.53125 53.90625 37.53125 C 63.75 37.53125 71.195312 34.46875 76.25 28.34375 C 81.3125 22.21875 83.84375 12.101562 83.84375 -2 L 83.84375 -12.96875 L 83.4375 -12.96875 C 79.71875 -8.1875 74.960938 -4.394531 69.171875 -1.59375 C 63.378906 1.195312 57.289062 2.59375 50.90625 2.59375 C 42.25 2.59375 34.523438 0.398438 27.734375 -3.984375 C 20.953125 -8.378906 15.664062 -14.335938 11.875 -21.859375 C 8.082031 -29.378906 6.1875 -37.597656 6.1875 -46.515625 C 6.1875 -55.691406 8.148438 -64.109375 12.078125 -71.765625 C 16.003906 -79.421875 21.425781 -85.441406 28.34375 -89.828125 C 35.269531 -94.222656 42.988281 -96.421875 51.5 -96.421875 C 58.019531 -96.421875 64.007812 -95.019531 69.46875 -92.21875 C 74.925781 -89.425781 79.582031 -85.503906 83.4375 -80.453125 Z M 53.09375 -81.640625 C 47.507812 -81.640625 42.390625 -80.175781 37.734375 -77.25 C 33.078125 -74.320312 29.382812 -70.226562 26.65625 -64.96875 C 23.925781 -59.71875 22.5625 -54.03125 22.5625 -47.90625 C 22.5625 -37.65625 25.421875 -29.132812 31.140625 -22.34375 C 36.859375 -15.5625 44.242188 -12.171875 53.296875 -12.171875 C 62.742188 -12.171875 70.328125 -15.5 76.046875 -22.15625 C 81.773438 -28.8125 84.640625 -37.328125 84.640625 -47.703125 C 84.640625 -57.691406 81.675781 -65.84375 75.75 -72.15625 C 69.832031 -78.476562 62.28125 -81.640625 53.09375 -81.640625 Z M 53.09375 -81.640625 "/></g></g></g><path fill="#ffffff" d="M 753.550781 1090.210938 C 742.949219 1081.734375 725.992188 1083.851562 715.394531 1094.453125 L 626.359375 1204.683594 L 598.800781 1179.246094 C 588.203125 1168.644531 571.246094 1168.644531 560.644531 1179.246094 C 550.046875 1189.84375 550.046875 1206.804688 560.644531 1217.402344 C 560.644531 1217.402344 611.519531 1264.039062 611.519531 1264.039062 C 624.238281 1274.636719 643.320312 1270.398438 649.679688 1261.917969 L 755.667969 1128.371094 C 766.269531 1115.648438 770.507812 1102.929688 753.550781 1090.210938 Z M 753.550781 1090.210938 " fill-opacity="1" fill-rule="nonzero"/><g clip-path="url(#b0aff14631)"><path fill="#ffffff" d="M 1690.511719 1344.589844 C 1675.675781 1344.589844 1665.074219 1357.308594 1665.074219 1370.03125 L 1665.074219 2046.253906 L 408.019531 2046.253906 L 408.019531 307.996094 L 1283.507812 307.996094 L 1283.507812 659.886719 C 1283.507812 674.726562 1294.105469 687.445312 1308.945312 687.445312 L 1660.835938 687.445312 L 1660.835938 721.363281 C 1660.835938 736.199219 1673.554688 746.800781 1686.273438 746.800781 C 1698.992188 746.800781 1711.710938 734.082031 1711.710938 721.363281 L 1711.710938 659.886719 C 1711.710938 653.527344 1709.589844 647.167969 1703.230469 640.808594 L 1330.144531 263.480469 C 1325.902344 257.121094 1317.421875 255 1311.0625 255 L 382.578125 255 C 367.742188 255 357.140625 267.71875 357.140625 280.4375 L 357.140625 2073.8125 C 357.140625 2088.652344 369.859375 2099.25 382.578125 2099.25 L 1690.511719 2099.25 C 1705.351562 2099.25 1715.953125 2086.53125 1715.953125 2073.8125 L 1715.953125 1370.03125 C 1715.953125 1355.191406 1705.351562 1344.589844 1690.511719 1344.589844 Z M 1690.511719 1344.589844 " fill-opacity="1" fill-rule="nonzero"/></g><path fill="#ffffff" d="M 1529.40625 804.035156 C 1529.40625 789.195312 1516.6875 778.597656 1503.96875 778.597656 L 872.261719 778.597656 C 857.421875 778.597656 846.820312 791.316406 846.820312 804.035156 C 846.820312 816.753906 859.539062 829.472656 872.261719 829.472656 L 1503.96875 829.472656 C 1518.808594 831.59375 1529.40625 818.875 1529.40625 804.035156 Z M 1529.40625 804.035156 " fill-opacity="1" fill-rule="nonzero"/><path fill="#ffffff" d="M 872.261719 914.265625 C 857.421875 914.265625 846.820312 926.984375 846.820312 939.703125 C 846.820312 952.421875 859.539062 965.140625 872.261719 965.140625 L 1325.902344 965.140625 C 1340.742188 965.140625 1351.339844 952.421875 1351.339844 939.703125 C 1351.339844 926.984375 1340.742188 914.265625 1325.902344 914.265625 Z M 872.261719 914.265625 " fill-opacity="1" fill-rule="nonzero"/><path fill="#ffffff" d="M 753.550781 740.441406 C 742.949219 731.960938 725.992188 734.082031 715.394531 744.679688 L 626.359375 854.910156 L 598.800781 829.472656 C 588.203125 818.875 571.246094 818.875 560.644531 829.472656 C 550.046875 840.074219 550.046875 857.03125 560.644531 867.628906 C 560.644531 867.628906 611.519531 914.265625 611.519531 914.265625 C 624.238281 924.867188 643.320312 920.625 649.679688 912.148438 L 755.667969 778.597656 C 766.269531 765.878906 768.386719 753.160156 753.550781 740.441406 Z M 753.550781 740.441406 " fill-opacity="1" fill-rule="nonzero"/><path fill="#ffffff" d="M 753.550781 1427.265625 C 742.949219 1418.785156 725.992188 1420.90625 715.394531 1431.503906 L 626.359375 1541.734375 L 598.800781 1516.296875 C 588.203125 1505.699219 571.246094 1505.699219 560.644531 1516.296875 C 550.046875 1526.898438 550.046875 1543.855469 560.644531 1554.453125 C 560.644531 1554.453125 611.519531 1601.089844 611.519531 1601.089844 C 624.238281 1611.691406 643.320312 1607.449219 649.679688 1598.972656 L 755.667969 1465.421875 C 766.269531 1454.824219 768.386719 1439.984375 753.550781 1427.265625 Z M 753.550781 1427.265625 " fill-opacity="1" fill-rule="nonzero"/><path fill="#ffffff" d="M 2178.074219 736.199219 L 2101.761719 676.847656 L 2152.636719 611.132812 C 2163.234375 598.414062 2173.835938 577.214844 2150.515625 558.136719 L 2040.285156 471.222656 C 2023.328125 456.382812 1995.769531 456.382812 1980.929688 475.460938 L 1930.054688 541.175781 C 1925.8125 539.058594 1919.453125 536.9375 1915.214844 539.058594 C 1908.855469 539.058594 1902.496094 543.296875 1898.257812 549.65625 L 1809.222656 664.125 C 1802.863281 674.726562 1802.863281 687.445312 1809.222656 695.925781 L 1474.289062 1122.007812 L 872.261719 1122.007812 C 857.421875 1122.007812 846.820312 1134.730469 846.820312 1147.449219 C 846.820312 1160.167969 859.539062 1172.886719 872.261719 1172.886719 L 1431.894531 1172.886719 L 1368.300781 1255.558594 L 872.261719 1255.558594 C 857.421875 1255.558594 846.820312 1268.277344 846.820312 1280.996094 C 846.820312 1293.714844 859.539062 1306.433594 872.261719 1306.433594 L 1328.023438 1306.433594 L 1207.191406 1465.421875 L 872.261719 1465.421875 C 857.421875 1465.421875 846.820312 1478.140625 846.820312 1490.859375 C 846.820312 1503.578125 859.539062 1516.296875 872.261719 1516.296875 L 1164.796875 1516.296875 L 1111.800781 1584.132812 C 1111.800781 1584.132812 1109.679688 1590.492188 1107.5625 1598.972656 L 872.261719 1598.972656 C 857.421875 1598.972656 846.820312 1611.691406 846.820312 1624.410156 C 846.820312 1637.128906 859.539062 1649.847656 872.261719 1649.847656 L 1090.601562 1649.847656 C 1069.402344 1717.679688 1041.847656 1813.074219 1041.847656 1813.074219 C 1037.605469 1823.671875 1041.847656 1836.390625 1050.324219 1842.75 C 1058.804688 1849.109375 1071.523438 1849.109375 1080.003906 1844.871094 C 1080.003906 1844.871094 1281.386719 1724.039062 1285.625 1719.800781 L 1978.808594 827.351562 C 1983.050781 829.472656 1987.289062 831.59375 1993.648438 831.59375 C 2002.128906 831.59375 2010.605469 827.351562 2014.847656 820.992188 L 2086.921875 727.722656 L 2125.078125 757.398438 L 1908.855469 1039.335938 C 1900.375 1052.054688 1902.496094 1066.894531 1913.09375 1077.492188 C 1923.695312 1088.09375 1940.652344 1083.851562 1951.253906 1073.253906 L 2184.433594 774.359375 C 2192.914062 761.640625 2188.671875 744.679688 2178.074219 736.199219 Z M 1111.800781 1766.4375 L 1149.957031 1639.246094 C 1164.796875 1647.726562 1177.515625 1656.207031 1190.234375 1664.683594 C 1202.953125 1675.285156 1215.671875 1685.882812 1226.269531 1696.484375 Z M 1989.410156 772.238281 L 1864.339844 674.726562 L 1917.335938 606.890625 L 2042.40625 704.402344 Z M 1989.410156 772.238281 " fill-opacity="1" fill-rule="nonzero"/></svg>