<svg xmlns="http://www.w3.org/2000/svg" xmlns:xlink="http://www.w3.org/1999/xlink" width="700" zoomAndPan="magnify" viewBox="0 0 525 525.000007" height="700" preserveAspectRatio="xMidYMid meet" version="1.0"><defs><g/><clipPath id="44bcc95d7e"><path d="M 0.503906 0 L 524.496094 0 L 524.496094 524 L 0.503906 524 Z M 0.503906 0 " clip-rule="nonzero"/></clipPath><clipPath id="63715a2523"><path d="M 0.5 419.027344 L 524.5 419.027344 L 524.5 524 L 0.5 524 Z M 0.5 419.027344 " clip-rule="nonzero"/></clipPath><clipPath id="357399a8b5"><path d="M 61 30.574219 L 348 30.574219 L 348 419.082031 L 61 419.082031 Z M 61 30.574219 " clip-rule="nonzero"/></clipPath></defs><g clip-path="url(#44bcc95d7e)"><path stroke-linecap="butt" transform="matrix(0.748574, 0, 0, 0.74806, 0.502807, 0.000019962)" fill="none" stroke-linejoin="miter" d="M 0.00146884 -0.000026685 L 699.988512 -0.000026685 L 699.988512 705.486118 L 0.00146884 705.486118 L 0.00146884 -0.000026685 " stroke="#ffffff" stroke-width="14" stroke-opacity="1" stroke-miterlimit="4"/></g><g clip-path="url(#63715a2523)"><path fill="#ffffff" d="M -25.699219 419.027344 L 524.5 419.027344 L 524.5 524.035156 L -25.699219 524.035156 Z M -25.699219 419.027344 " fill-opacity="1" fill-rule="nonzero"/></g><g fill="#000000" fill-opacity="1"><g transform="translate(117.552903, 484.989912)"><g><path d="M 17.515625 -25.4375 C 16.816406 -26.664062 16.039062 -27.546875 15.1875 -28.078125 C 14.332031 -28.609375 13.304688 -28.875 12.109375 -28.875 C 10.578125 -28.875 9.3125 -28.398438 8.3125 -27.453125 C 7.320312 -26.503906 6.828125 -25.34375 6.828125 -23.96875 C 6.828125 -22.90625 7.238281 -21.992188 8.0625 -21.234375 C 8.882812 -20.484375 9.882812 -19.84375 11.0625 -19.3125 C 12.238281 -18.78125 13.300781 -18.316406 14.25 -17.921875 C 15.195312 -17.535156 16.296875 -16.953125 17.546875 -16.171875 C 18.804688 -15.390625 19.769531 -14.410156 20.4375 -13.234375 C 21.113281 -12.066406 21.453125 -10.726562 21.453125 -9.21875 C 21.453125 -7.488281 21.019531 -5.867188 20.15625 -4.359375 C 19.289062 -2.847656 18.085938 -1.648438 16.546875 -0.765625 C 15.015625 0.109375 13.34375 0.546875 11.53125 0.546875 C 9.039062 0.546875 6.90625 -0.1875 5.125 -1.65625 C 3.351562 -3.125 2.203125 -5.113281 1.671875 -7.625 L 5.109375 -8.59375 C 5.390625 -6.863281 6.109375 -5.453125 7.265625 -4.359375 C 8.429688 -3.265625 9.820312 -2.71875 11.4375 -2.71875 C 13.195312 -2.71875 14.71875 -3.316406 16 -4.515625 C 17.289062 -5.722656 17.9375 -7.179688 17.9375 -8.890625 C 17.9375 -10.390625 17.445312 -11.617188 16.46875 -12.578125 C 15.488281 -13.546875 13.695312 -14.546875 11.09375 -15.578125 C 8.5 -16.617188 6.550781 -17.78125 5.25 -19.0625 C 3.957031 -20.351562 3.3125 -22.03125 3.3125 -24.09375 C 3.3125 -26.4375 4.175781 -28.363281 5.90625 -29.875 C 7.632812 -31.382812 9.71875 -32.140625 12.15625 -32.140625 C 13.9375 -32.140625 15.519531 -31.71875 16.90625 -30.875 C 18.289062 -30.039062 19.429688 -28.828125 20.328125 -27.234375 Z M 17.515625 -25.4375 "/></g></g></g><g fill="#000000" fill-opacity="1"><g transform="translate(140.979677, 484.989912)"><g><path d="M 17.8125 -16.890625 L 17.8125 -19.703125 L 21.15625 -19.703125 L 21.15625 0 L 17.8125 0 L 17.8125 -2.71875 L 17.71875 -2.71875 C 15.988281 -0.539062 13.726562 0.546875 10.9375 0.546875 C 8.195312 0.546875 5.941406 -0.457031 4.171875 -2.46875 C 2.398438 -4.476562 1.515625 -6.925781 1.515625 -9.8125 C 1.515625 -12.820312 2.40625 -15.3125 4.1875 -17.28125 C 5.976562 -19.25 8.242188 -20.234375 10.984375 -20.234375 C 12.347656 -20.234375 13.609375 -19.941406 14.765625 -19.359375 C 15.929688 -18.773438 16.914062 -17.953125 17.71875 -16.890625 Z M 11.359375 -17.140625 C 9.566406 -17.140625 8.046875 -16.453125 6.796875 -15.078125 C 5.554688 -13.710938 4.9375 -12.039062 4.9375 -10.0625 C 4.9375 -7.9375 5.546875 -6.15625 6.765625 -4.71875 C 7.984375 -3.28125 9.53125 -2.5625 11.40625 -2.5625 C 13.382812 -2.5625 14.972656 -3.242188 16.171875 -4.609375 C 17.378906 -5.972656 17.984375 -7.773438 17.984375 -10.015625 C 17.984375 -12.054688 17.367188 -13.753906 16.140625 -15.109375 C 14.910156 -16.460938 13.316406 -17.140625 11.359375 -17.140625 Z M 11.359375 -17.140625 "/></g></g></g><g fill="#000000" fill-opacity="1"><g transform="translate(165.160805, 484.989912)"><g><path d="M 16.796875 -16.96875 C 17.390625 -18 18.207031 -18.800781 19.25 -19.375 C 20.300781 -19.945312 21.457031 -20.234375 22.71875 -20.234375 C 24.78125 -20.234375 26.34375 -19.535156 27.40625 -18.140625 C 28.46875 -16.742188 29 -14.757812 29 -12.1875 L 29 0 L 25.640625 0 L 25.640625 -11.6875 C 25.640625 -13.675781 25.347656 -15.082031 24.765625 -15.90625 C 24.179688 -16.726562 23.273438 -17.140625 22.046875 -17.140625 C 20.585938 -17.140625 19.507812 -16.609375 18.8125 -15.546875 C 18.113281 -14.484375 17.765625 -12.847656 17.765625 -10.640625 L 17.765625 0 L 14.421875 0 L 14.421875 -11.359375 C 14.421875 -13.367188 14.117188 -14.832031 13.515625 -15.75 C 12.910156 -16.675781 12.035156 -17.140625 10.890625 -17.140625 C 9.472656 -17.140625 8.390625 -16.597656 7.640625 -15.515625 C 6.898438 -14.441406 6.53125 -12.734375 6.53125 -10.390625 L 6.53125 0 L 3.1875 0 L 3.1875 -19.703125 L 6.53125 -19.703125 L 6.53125 -17.5625 L 6.625 -17.5625 C 7.15625 -18.375 7.820312 -19.019531 8.625 -19.5 C 9.4375 -19.988281 10.347656 -20.234375 11.359375 -20.234375 C 12.503906 -20.234375 13.566406 -19.945312 14.546875 -19.375 C 15.523438 -18.800781 16.273438 -18 16.796875 -16.96875 Z M 16.796875 -16.96875 "/></g></g></g><g fill="#000000" fill-opacity="1"><g transform="translate(197.346432, 484.989912)"><g><path d="M 6.453125 -2.765625 L 6.375 -2.765625 L 6.375 11.0625 L 3.015625 11.0625 L 3.015625 -19.703125 L 6.375 -19.703125 L 6.375 -16.890625 L 6.453125 -16.890625 C 7.265625 -17.972656 8.253906 -18.800781 9.421875 -19.375 C 10.597656 -19.945312 11.875 -20.234375 13.25 -20.234375 C 15 -20.234375 16.597656 -19.769531 18.046875 -18.84375 C 19.503906 -17.925781 20.640625 -16.664062 21.453125 -15.0625 C 22.265625 -13.457031 22.671875 -11.707031 22.671875 -9.8125 C 22.671875 -7.90625 22.28125 -6.148438 21.5 -4.546875 C 20.71875 -2.941406 19.59375 -1.691406 18.125 -0.796875 C 16.65625 0.0976562 15.015625 0.546875 13.203125 0.546875 C 11.859375 0.546875 10.597656 0.269531 9.421875 -0.28125 C 8.253906 -0.84375 7.265625 -1.671875 6.453125 -2.765625 Z M 12.578125 -17.140625 C 11.484375 -17.140625 10.445312 -16.84375 9.46875 -16.25 C 8.488281 -15.664062 7.695312 -14.816406 7.09375 -13.703125 C 6.5 -12.585938 6.203125 -11.375 6.203125 -10.0625 C 6.203125 -7.96875 6.796875 -6.191406 7.984375 -4.734375 C 9.171875 -3.285156 10.726562 -2.5625 12.65625 -2.5625 C 13.96875 -2.5625 15.125 -2.875 16.125 -3.5 C 17.132812 -4.125 17.90625 -5.007812 18.4375 -6.15625 C 18.96875 -7.300781 19.234375 -8.585938 19.234375 -10.015625 C 19.234375 -12.109375 18.617188 -13.816406 17.390625 -15.140625 C 16.160156 -16.472656 14.554688 -17.140625 12.578125 -17.140625 Z M 12.578125 -17.140625 "/></g></g></g><g fill="#000000" fill-opacity="1"><g transform="translate(221.527559, 484.989912)"><g><path d="M 6.453125 -34.578125 L 6.453125 0 L 3.09375 0 L 3.09375 -34.578125 Z M 6.453125 -34.578125 "/></g></g></g><g fill="#000000" fill-opacity="1"><g transform="translate(231.040754, 484.989912)"><g><path d="M 20.328125 -9.140625 L 4.859375 -9.140625 C 4.910156 -7.179688 5.550781 -5.59375 6.78125 -4.375 C 8.007812 -3.164062 9.519531 -2.5625 11.3125 -2.5625 C 12.570312 -2.5625 13.679688 -2.878906 14.640625 -3.515625 C 15.609375 -4.160156 16.5 -5.195312 17.3125 -6.625 L 20.15625 -4.984375 C 19.207031 -3.222656 17.957031 -1.859375 16.40625 -0.890625 C 14.851562 0.0664062 13.070312 0.546875 11.0625 0.546875 C 9.132812 0.546875 7.429688 0.0859375 5.953125 -0.828125 C 4.472656 -1.753906 3.347656 -2.992188 2.578125 -4.546875 C 1.804688 -6.097656 1.421875 -7.78125 1.421875 -9.59375 C 1.421875 -11.601562 1.804688 -13.414062 2.578125 -15.03125 C 3.347656 -16.65625 4.457031 -17.925781 5.90625 -18.84375 C 7.363281 -19.769531 9.054688 -20.234375 10.984375 -20.234375 C 12.847656 -20.234375 14.5 -19.78125 15.9375 -18.875 C 17.382812 -17.96875 18.484375 -16.71875 19.234375 -15.125 C 19.984375 -13.53125 20.359375 -11.742188 20.359375 -9.765625 C 20.359375 -9.566406 20.347656 -9.359375 20.328125 -9.140625 Z M 16.796875 -11.984375 C 16.523438 -13.523438 15.84375 -14.769531 14.75 -15.71875 C 13.65625 -16.664062 12.410156 -17.140625 11.015625 -17.140625 C 9.648438 -17.140625 8.363281 -16.644531 7.15625 -15.65625 C 5.957031 -14.664062 5.25 -13.441406 5.03125 -11.984375 Z M 16.796875 -11.984375 "/></g></g></g><g fill="#000000" fill-opacity="1"><g transform="translate(252.791198, 484.989912)"><g/></g></g><g fill="#000000" fill-opacity="1"><g transform="translate(265.698973, 484.989912)"><g><path d="M 19.28125 -31.59375 L 19.28125 -28.328125 L 11.5625 -28.328125 L 11.5625 0 L 8.046875 0 L 8.046875 -28.328125 L 0.421875 -28.328125 L 0.421875 -31.59375 Z M 19.28125 -31.59375 "/></g></g></g><g fill="#000000" fill-opacity="1"><g transform="translate(285.395909, 484.989912)"><g><path d="M 20.328125 -9.140625 L 4.859375 -9.140625 C 4.910156 -7.179688 5.550781 -5.59375 6.78125 -4.375 C 8.007812 -3.164062 9.519531 -2.5625 11.3125 -2.5625 C 12.570312 -2.5625 13.679688 -2.878906 14.640625 -3.515625 C 15.609375 -4.160156 16.5 -5.195312 17.3125 -6.625 L 20.15625 -4.984375 C 19.207031 -3.222656 17.957031 -1.859375 16.40625 -0.890625 C 14.851562 0.0664062 13.070312 0.546875 11.0625 0.546875 C 9.132812 0.546875 7.429688 0.0859375 5.953125 -0.828125 C 4.472656 -1.753906 3.347656 -2.992188 2.578125 -4.546875 C 1.804688 -6.097656 1.421875 -7.78125 1.421875 -9.59375 C 1.421875 -11.601562 1.804688 -13.414062 2.578125 -15.03125 C 3.347656 -16.65625 4.457031 -17.925781 5.90625 -18.84375 C 7.363281 -19.769531 9.054688 -20.234375 10.984375 -20.234375 C 12.847656 -20.234375 14.5 -19.78125 15.9375 -18.875 C 17.382812 -17.96875 18.484375 -16.71875 19.234375 -15.125 C 19.984375 -13.53125 20.359375 -11.742188 20.359375 -9.765625 C 20.359375 -9.566406 20.347656 -9.359375 20.328125 -9.140625 Z M 16.796875 -11.984375 C 16.523438 -13.523438 15.84375 -14.769531 14.75 -15.71875 C 13.65625 -16.664062 12.410156 -17.140625 11.015625 -17.140625 C 9.648438 -17.140625 8.363281 -16.644531 7.15625 -15.65625 C 5.957031 -14.664062 5.25 -13.441406 5.03125 -11.984375 Z M 16.796875 -11.984375 "/></g></g></g><g fill="#000000" fill-opacity="1"><g transform="translate(307.146353, 484.989912)"><g><path d="M 11.140625 -15.125 C 10.835938 -15.769531 10.445312 -16.265625 9.96875 -16.609375 C 9.5 -16.960938 9 -17.140625 8.46875 -17.140625 C 7.851562 -17.140625 7.289062 -16.921875 6.78125 -16.484375 C 6.28125 -16.054688 6.03125 -15.546875 6.03125 -14.953125 C 6.03125 -13.816406 7.125 -12.847656 9.3125 -12.046875 C 11.507812 -11.253906 13.035156 -10.378906 13.890625 -9.421875 C 14.742188 -8.472656 15.171875 -7.285156 15.171875 -5.859375 C 15.171875 -4.773438 14.914062 -3.757812 14.40625 -2.8125 C 13.90625 -1.863281 13.128906 -1.066406 12.078125 -0.421875 C 11.035156 0.222656 9.84375 0.546875 8.5 0.546875 C 6.882812 0.546875 5.460938 0.113281 4.234375 -0.75 C 3.003906 -1.613281 2.109375 -2.84375 1.546875 -4.4375 L 4.53125 -5.703125 C 5.03125 -4.523438 5.59375 -3.707031 6.21875 -3.25 C 6.851562 -2.789062 7.628906 -2.5625 8.546875 -2.5625 C 9.492188 -2.5625 10.257812 -2.847656 10.84375 -3.421875 C 11.4375 -3.992188 11.734375 -4.710938 11.734375 -5.578125 C 11.734375 -6.296875 11.46875 -6.925781 10.9375 -7.46875 C 10.40625 -8.019531 9.429688 -8.570312 8.015625 -9.125 C 6.609375 -9.6875 5.515625 -10.25 4.734375 -10.8125 C 3.503906 -11.707031 2.875 -12.992188 2.84375 -14.671875 C 2.84375 -16.234375 3.398438 -17.550781 4.515625 -18.625 C 5.640625 -19.695312 7.039062 -20.234375 8.71875 -20.234375 C 9.78125 -20.234375 10.800781 -19.898438 11.78125 -19.234375 C 12.757812 -18.566406 13.484375 -17.6875 13.953125 -16.59375 Z M 11.140625 -15.125 "/></g></g></g><g fill="#000000" fill-opacity="1"><g transform="translate(323.867795, 484.989912)"><g><path d="M 6.703125 -26.78125 L 6.703125 -19.703125 L 10.21875 -19.703125 L 10.21875 -16.59375 L 6.703125 -16.59375 L 6.703125 0 L 3.359375 0 L 3.359375 -16.59375 L 1.296875 -16.59375 L 1.296875 -19.703125 L 3.359375 -19.703125 L 3.359375 -26.78125 Z M 6.703125 -26.78125 "/></g></g></g><g fill="#000000" fill-opacity="1"><g transform="translate(333.9258, 484.989912)"><g><path d="M 7.171875 -19.703125 L 7.171875 0 L 3.8125 0 L 3.8125 -19.703125 Z M 3.09375 -27.203125 C 3.09375 -27.816406 3.335938 -28.351562 3.828125 -28.8125 C 4.316406 -29.269531 4.867188 -29.5 5.484375 -29.5 C 6.128906 -29.5 6.6875 -29.269531 7.15625 -28.8125 C 7.632812 -28.351562 7.875 -27.816406 7.875 -27.203125 C 7.875 -26.472656 7.632812 -25.875 7.15625 -25.40625 C 6.6875 -24.945312 6.128906 -24.71875 5.484375 -24.71875 C 4.847656 -24.71875 4.289062 -24.941406 3.8125 -25.390625 C 3.332031 -25.835938 3.09375 -26.441406 3.09375 -27.203125 Z M 3.09375 -27.203125 "/></g></g></g><g fill="#000000" fill-opacity="1"><g transform="translate(344.905793, 484.989912)"><g><path d="M 18.9375 0 L 15.59375 0 L 15.59375 -11.484375 C 15.59375 -13.460938 15.289062 -14.898438 14.6875 -15.796875 C 14.082031 -16.691406 13 -17.140625 11.4375 -17.140625 C 9.65625 -17.140625 8.390625 -16.523438 7.640625 -15.296875 C 6.898438 -14.066406 6.53125 -12.195312 6.53125 -9.6875 L 6.53125 0 L 3.1875 0 L 3.1875 -19.703125 L 6.53125 -19.703125 L 6.53125 -17.3125 L 6.625 -17.3125 C 7.320312 -18.257812 8.125 -18.984375 9.03125 -19.484375 C 9.9375 -19.984375 11.003906 -20.234375 12.234375 -20.234375 C 14.441406 -20.234375 16.109375 -19.554688 17.234375 -18.203125 C 18.367188 -16.847656 18.9375 -14.75 18.9375 -11.90625 Z M 18.9375 0 "/></g></g></g><g fill="#000000" fill-opacity="1"><g transform="translate(367.033414, 484.989912)"><g><path d="M 17.59375 -16.890625 L 17.59375 -19.703125 L 20.953125 -19.703125 L 20.953125 0.71875 C 20.953125 4.007812 20.03125 6.539062 18.1875 8.3125 C 16.34375 10.09375 14.050781 10.984375 11.3125 10.984375 C 8.519531 10.984375 6.222656 10.148438 4.421875 8.484375 C 2.617188 6.828125 1.691406 4.640625 1.640625 1.921875 L 4.984375 1.921875 C 4.984375 3.660156 5.5625 5.085938 6.71875 6.203125 C 7.882812 7.316406 9.414062 7.875 11.3125 7.875 C 13.382812 7.875 14.945312 7.226562 16 5.9375 C 17.0625 4.65625 17.59375 2.535156 17.59375 -0.421875 L 17.59375 -2.71875 L 17.515625 -2.71875 C 16.734375 -1.71875 15.734375 -0.921875 14.515625 -0.328125 C 13.304688 0.253906 12.03125 0.546875 10.6875 0.546875 C 8.875 0.546875 7.253906 0.0859375 5.828125 -0.828125 C 4.398438 -1.753906 3.285156 -3.003906 2.484375 -4.578125 C 1.691406 -6.160156 1.296875 -7.890625 1.296875 -9.765625 C 1.296875 -11.691406 1.707031 -13.457031 2.53125 -15.0625 C 3.351562 -16.664062 4.488281 -17.925781 5.9375 -18.84375 C 7.394531 -19.769531 9.019531 -20.234375 10.8125 -20.234375 C 12.175781 -20.234375 13.429688 -19.941406 14.578125 -19.359375 C 15.722656 -18.773438 16.703125 -17.953125 17.515625 -16.890625 Z M 11.140625 -17.140625 C 9.972656 -17.140625 8.898438 -16.832031 7.921875 -16.21875 C 6.941406 -15.601562 6.164062 -14.742188 5.59375 -13.640625 C 5.019531 -12.535156 4.734375 -11.34375 4.734375 -10.0625 C 4.734375 -7.90625 5.332031 -6.113281 6.53125 -4.6875 C 7.738281 -3.269531 9.289062 -2.5625 11.1875 -2.5625 C 13.175781 -2.5625 14.769531 -3.257812 15.96875 -4.65625 C 17.164062 -6.050781 17.765625 -7.835938 17.765625 -10.015625 C 17.765625 -12.109375 17.140625 -13.816406 15.890625 -15.140625 C 14.648438 -16.472656 13.066406 -17.140625 11.140625 -17.140625 Z M 11.140625 -17.140625 "/></g></g></g><path fill="#ffffff" d="M 144.613281 206.519531 C 142.382812 204.734375 138.808594 205.179688 136.578125 207.414062 L 117.820312 230.632812 L 112.015625 225.273438 C 109.78125 223.042969 106.210938 223.042969 103.976562 225.273438 C 101.746094 227.507812 101.746094 231.078125 103.976562 233.3125 C 103.976562 233.3125 114.695312 243.136719 114.695312 243.136719 C 117.375 245.371094 121.394531 244.476562 122.734375 242.691406 L 145.0625 214.558594 C 147.292969 211.878906 148.1875 209.199219 144.613281 206.519531 Z M 144.613281 206.519531 " fill-opacity="1" fill-rule="nonzero"/><g clip-path="url(#357399a8b5)"><path fill="#ffffff" d="M 341.996094 260.105469 C 338.871094 260.105469 336.636719 262.785156 336.636719 265.464844 L 336.636719 407.917969 L 71.824219 407.917969 L 71.824219 41.738281 L 256.253906 41.738281 L 256.253906 115.867188 C 256.253906 118.992188 258.488281 121.671875 261.613281 121.671875 L 335.742188 121.671875 L 335.742188 128.816406 C 335.742188 131.941406 338.421875 134.175781 341.101562 134.175781 C 343.78125 134.175781 346.460938 131.496094 346.460938 128.816406 L 346.460938 115.867188 C 346.460938 114.527344 346.015625 113.1875 344.675781 111.847656 L 266.082031 32.359375 C 265.1875 31.019531 263.402344 30.574219 262.0625 30.574219 L 66.464844 30.574219 C 63.339844 30.574219 61.109375 33.253906 61.109375 35.933594 L 61.109375 413.722656 C 61.109375 416.851562 63.789062 419.082031 66.464844 419.082031 L 341.996094 419.082031 C 345.121094 419.082031 347.355469 416.402344 347.355469 413.722656 L 347.355469 265.464844 C 347.355469 262.339844 345.121094 260.105469 341.996094 260.105469 Z M 341.996094 260.105469 " fill-opacity="1" fill-rule="nonzero"/></g><path fill="#ffffff" d="M 308.058594 146.234375 C 308.058594 143.105469 305.378906 140.875 302.699219 140.875 L 169.621094 140.875 C 166.496094 140.875 164.265625 143.554688 164.265625 146.234375 C 164.265625 148.914062 166.941406 151.59375 169.621094 151.59375 L 302.699219 151.59375 C 305.824219 152.039062 308.058594 149.359375 308.058594 146.234375 Z M 308.058594 146.234375 " fill-opacity="1" fill-rule="nonzero"/><path fill="#ffffff" d="M 169.621094 169.453125 C 166.496094 169.453125 164.265625 172.132812 164.265625 174.8125 C 164.265625 177.492188 166.941406 180.171875 169.621094 180.171875 L 265.1875 180.171875 C 268.3125 180.171875 270.546875 177.492188 270.546875 174.8125 C 270.546875 172.132812 268.3125 169.453125 265.1875 169.453125 Z M 169.621094 169.453125 " fill-opacity="1" fill-rule="nonzero"/><path fill="#ffffff" d="M 144.613281 132.835938 C 142.382812 131.050781 138.808594 131.496094 136.578125 133.730469 L 117.820312 156.949219 L 112.015625 151.59375 C 109.78125 149.359375 106.210938 149.359375 103.976562 151.59375 C 101.746094 153.824219 101.746094 157.398438 103.976562 159.628906 C 103.976562 159.628906 114.695312 169.453125 114.695312 169.453125 C 117.375 171.6875 121.394531 170.792969 122.734375 169.007812 L 145.0625 140.875 C 147.292969 138.195312 147.742188 135.515625 144.613281 132.835938 Z M 144.613281 132.835938 " fill-opacity="1" fill-rule="nonzero"/><path fill="#ffffff" d="M 144.613281 277.523438 C 142.382812 275.738281 138.808594 276.183594 136.578125 278.414062 L 117.820312 301.636719 L 112.015625 296.277344 C 109.78125 294.046875 106.210938 294.046875 103.976562 296.277344 C 101.746094 298.511719 101.746094 302.082031 103.976562 304.316406 C 103.976562 304.316406 114.695312 314.140625 114.695312 314.140625 C 117.375 316.375 121.394531 315.480469 122.734375 313.695312 L 145.0625 285.5625 C 147.292969 283.328125 147.742188 280.203125 144.613281 277.523438 Z M 144.613281 277.523438 " fill-opacity="1" fill-rule="nonzero"/><path fill="#ffffff" d="M 444.707031 131.941406 L 428.628906 119.4375 L 439.347656 105.597656 C 441.578125 102.917969 443.8125 98.449219 438.898438 94.433594 L 415.679688 76.121094 C 412.105469 72.996094 406.300781 72.996094 403.175781 77.015625 L 392.457031 90.859375 C 391.566406 90.414062 390.226562 89.964844 389.332031 90.414062 C 387.992188 90.414062 386.652344 91.304688 385.757812 92.644531 L 367.003906 116.761719 C 365.664062 118.992188 365.664062 121.671875 367.003906 123.457031 L 296.445312 213.21875 L 169.621094 213.21875 C 166.496094 213.21875 164.265625 215.898438 164.265625 218.578125 C 164.265625 221.253906 166.941406 223.933594 169.621094 223.933594 L 287.515625 223.933594 L 274.117188 241.351562 L 169.621094 241.351562 C 166.496094 241.351562 164.265625 244.03125 164.265625 246.710938 C 164.265625 249.390625 166.941406 252.070312 169.621094 252.070312 L 265.632812 252.070312 L 240.179688 285.5625 L 169.621094 285.5625 C 166.496094 285.5625 164.265625 288.238281 164.265625 290.917969 C 164.265625 293.597656 166.941406 296.277344 169.621094 296.277344 L 231.25 296.277344 L 220.085938 310.566406 C 220.085938 310.566406 219.636719 311.90625 219.191406 313.695312 L 169.621094 313.695312 C 166.496094 313.695312 164.265625 316.375 164.265625 319.054688 C 164.265625 321.730469 166.941406 324.410156 169.621094 324.410156 L 215.617188 324.410156 C 211.152344 338.703125 205.347656 358.796875 205.347656 358.796875 C 204.453125 361.03125 205.347656 363.710938 207.132812 365.050781 C 208.921875 366.390625 211.597656 366.390625 213.386719 365.496094 C 213.386719 365.496094 255.808594 340.042969 256.703125 339.148438 L 402.730469 151.144531 C 403.621094 151.589844 404.515625 152.039062 405.855469 152.039062 C 407.640625 152.039062 409.425781 151.144531 410.320312 149.804688 L 425.503906 130.15625 L 433.542969 136.410156 L 387.992188 195.800781 C 386.207031 198.480469 386.652344 201.605469 388.886719 203.839844 C 391.117188 206.074219 394.691406 205.179688 396.921875 202.945312 L 446.046875 139.980469 C 447.832031 137.300781 446.9375 133.730469 444.707031 131.941406 Z M 220.085938 348.972656 L 228.121094 322.179688 C 231.25 323.964844 233.925781 325.75 236.605469 327.539062 C 239.285156 329.769531 241.964844 332.003906 244.199219 334.234375 Z M 404.960938 139.535156 L 378.613281 118.992188 L 389.777344 104.703125 L 416.125 125.246094 Z M 404.960938 139.535156 " fill-opacity="1" fill-rule="nonzero"/></svg>