<svg xmlns="http://www.w3.org/2000/svg" xmlns:xlink="http://www.w3.org/1999/xlink" width="1200" zoomAndPan="magnify" viewBox="0 0 900 525.000007" height="700" preserveAspectRatio="xMidYMid meet" version="1.0"><defs><g/><clipPath id="0f2310b05a"><path d="M 37.375 133.585938 L 847 133.585938 L 847 461 L 37.375 461 Z M 37.375 133.585938 " clip-rule="nonzero"/></clipPath><clipPath id="c58a816575"><path d="M 711.578125 133.585938 C 786.226562 133.585938 846.746094 206.714844 846.746094 296.921875 C 846.746094 387.128906 786.226562 460.257812 711.578125 460.257812 L 172.542969 460.257812 C 97.890625 460.257812 37.375 387.128906 37.375 296.921875 C 37.375 206.714844 97.890625 133.585938 172.542969 133.585938 L 711.578125 133.585938 " clip-rule="nonzero"/></clipPath><clipPath id="b469b9b334"><path d="M 96.933594 31.058594 L 277.023438 31.058594 L 277.023438 211.152344 L 96.933594 211.152344 Z M 96.933594 31.058594 " clip-rule="nonzero"/></clipPath><clipPath id="65cc2e76c3"><path d="M 186.976562 31.058594 C 137.246094 31.058594 96.933594 71.375 96.933594 121.105469 C 96.933594 170.835938 137.246094 211.152344 186.976562 211.152344 C 236.710938 211.152344 277.023438 170.835938 277.023438 121.105469 C 277.023438 71.375 236.710938 31.058594 186.976562 31.058594 " clip-rule="nonzero"/></clipPath><clipPath id="43977bb667"><path d="M 96.933594 31.058594 L 277.339844 31.058594 L 277.339844 211.464844 L 96.933594 211.464844 Z M 96.933594 31.058594 " clip-rule="nonzero"/></clipPath><clipPath id="d6e69f100e"><path d="M 187.136719 31.058594 C 137.316406 31.058594 96.933594 71.445312 96.933594 121.261719 C 96.933594 171.082031 137.316406 211.464844 187.136719 211.464844 C 236.953125 211.464844 277.339844 171.082031 277.339844 121.261719 C 277.339844 71.445312 236.953125 31.058594 187.136719 31.058594 " clip-rule="nonzero"/></clipPath></defs><g clip-path="url(#0f2310b05a)"><g clip-path="url(#c58a816575)"><path fill="#082a71" d="M 37.375 133.585938 L 848.371094 133.585938 L 848.371094 463.054688 L 37.375 463.054688 Z M 37.375 133.585938 " fill-opacity="1" fill-rule="nonzero"/></g></g><g clip-path="url(#b469b9b334)"><g clip-path="url(#65cc2e76c3)"><path fill="#ffffff" d="M 96.933594 31.058594 L 277.023438 31.058594 L 277.023438 211.152344 L 96.933594 211.152344 Z M 96.933594 31.058594 " fill-opacity="1" fill-rule="nonzero"/></g></g><g clip-path="url(#43977bb667)"><g clip-path="url(#d6e69f100e)"><path stroke-linecap="butt" transform="matrix(0.749887, 0, 0, 0.749887, 96.93221, 31.059077)" fill="none" stroke-linejoin="miter" d="M 120.290838 -0.00064418 C 53.853725 -0.00064418 0.00184508 53.856445 0.00184508 120.288349 C 0.00184508 186.725462 53.853725 240.577342 120.290838 240.577342 C 186.722742 240.577342 240.579831 186.725462 240.579831 120.288349 C 240.579831 53.856445 186.722742 -0.00064418 120.290838 -0.00064418 " stroke="#55b700" stroke-width="14" stroke-opacity="1" stroke-miterlimit="4"/></g></g><g fill="#000000" fill-opacity="1"><g transform="translate(118.341986, 128.727957)"><g><path d="M 14.765625 -33.296875 C 18.398438 -33.296875 21.367188 -32.488281 23.671875 -30.875 C 25.972656 -29.257812 27.179688 -26.757812 27.296875 -23.375 L 20.671875 -23.09375 C 20.460938 -24.613281 19.90625 -25.785156 19 -26.609375 C 18.101562 -27.441406 16.664062 -27.859375 14.6875 -27.859375 C 13.3125 -27.859375 12.039062 -27.613281 10.875 -27.125 C 9.71875 -26.632812 9.140625 -25.796875 9.140625 -24.609375 C 9.140625 -23.597656 9.65625 -22.796875 10.6875 -22.203125 C 11.726562 -21.609375 13.578125 -21.003906 16.234375 -20.390625 C 18.703125 -19.816406 20.738281 -19.203125 22.34375 -18.546875 C 23.945312 -17.890625 25.328125 -16.835938 26.484375 -15.390625 C 27.640625 -13.941406 28.21875 -11.984375 28.21875 -9.515625 C 28.21875 -8.265625 27.925781 -6.9375 27.34375 -5.53125 C 26.769531 -4.132812 25.828125 -2.929688 24.515625 -1.921875 C 23.535156 -1.128906 22.242188 -0.519531 20.640625 -0.09375 C 19.046875 0.332031 17.195312 0.546875 15.09375 0.546875 C 11.007812 0.546875 7.867188 -0.375 5.671875 -2.21875 C 3.472656 -4.0625 2.128906 -6.875 1.640625 -10.65625 L 8.046875 -11.25 C 8.742188 -7.070312 11.125 -4.984375 15.1875 -4.984375 C 17.320312 -4.984375 18.925781 -5.429688 20 -6.328125 C 21.082031 -7.234375 21.625 -8.296875 21.625 -9.515625 C 21.625 -10.398438 21.359375 -11.097656 20.828125 -11.609375 C 20.296875 -12.128906 19.457031 -12.578125 18.3125 -12.953125 C 17.175781 -13.335938 15.382812 -13.820312 12.9375 -14.40625 C 9.894531 -15.070312 7.445312 -16.195312 5.59375 -17.78125 C 3.75 -19.375 2.828125 -21.492188 2.828125 -24.140625 C 2.828125 -25.578125 3.191406 -26.988281 3.921875 -28.375 C 4.660156 -29.757812 5.921875 -30.925781 7.703125 -31.875 C 9.484375 -32.820312 11.835938 -33.296875 14.765625 -33.296875 Z M 14.765625 -33.296875 "/></g></g></g><g fill="#000000" fill-opacity="1"><g transform="translate(148.849184, 128.727957)"><g><path d="M 9.875 -23.6875 L 14.125 -23.6875 L 14.125 -18.703125 L 9.875 -18.703125 L 9.875 -8.28125 C 9.875 -7.269531 9.910156 -6.519531 9.984375 -6.03125 C 10.066406 -5.550781 10.226562 -5.203125 10.46875 -4.984375 C 10.71875 -4.773438 11.097656 -4.671875 11.609375 -4.671875 C 12.253906 -4.671875 13.09375 -4.867188 14.125 -5.265625 L 14.6875 -0.40625 C 14.039062 -0.101562 13.257812 0.128906 12.34375 0.296875 C 11.425781 0.460938 10.554688 0.546875 9.734375 0.546875 C 8.546875 0.546875 7.492188 0.347656 6.578125 -0.046875 C 5.671875 -0.441406 5.003906 -0.972656 4.578125 -1.640625 C 4.117188 -2.410156 3.832031 -3.257812 3.71875 -4.1875 C 3.613281 -5.113281 3.5625 -6.28125 3.5625 -7.6875 L 3.5625 -18.703125 L 0.6875 -18.703125 L 0.6875 -23.6875 L 3.5625 -23.6875 L 3.5625 -28.40625 L 9.875 -32.109375 Z M 9.875 -23.6875 "/></g></g></g><g fill="#000000" fill-opacity="1"><g transform="translate(164.079927, 128.727957)"><g><path d="M 12.34375 -24.234375 C 16.125 -24.234375 18.941406 -23.003906 20.796875 -20.546875 C 22.660156 -18.097656 23.59375 -14.601562 23.59375 -10.0625 L 7.859375 -10.0625 C 7.921875 -8.476562 8.382812 -7.113281 9.25 -5.96875 C 10.125 -4.820312 11.382812 -4.25 13.03125 -4.25 C 14.070312 -4.25 14.921875 -4.515625 15.578125 -5.046875 C 16.234375 -5.585938 16.710938 -6.421875 17.015625 -7.546875 L 23.28125 -6.5 C 22.488281 -4.175781 21.207031 -2.421875 19.4375 -1.234375 C 17.664062 -0.046875 15.5 0.546875 12.9375 0.546875 C 9.125 0.546875 6.242188 -0.59375 4.296875 -2.875 C 3.378906 -3.945312 2.675781 -5.289062 2.1875 -6.90625 C 1.707031 -8.519531 1.46875 -10.117188 1.46875 -11.703125 C 1.46875 -13.867188 1.851562 -15.90625 2.625 -17.8125 C 3.40625 -19.71875 4.609375 -21.265625 6.234375 -22.453125 C 7.867188 -23.640625 9.90625 -24.234375 12.34375 -24.234375 Z M 8 -13.90625 L 17.375 -13.90625 C 17.34375 -15.820312 16.863281 -17.222656 15.9375 -18.109375 C 15.007812 -18.992188 13.921875 -19.4375 12.671875 -19.4375 C 11.203125 -19.4375 10.054688 -18.910156 9.234375 -17.859375 C 8.410156 -16.804688 8 -15.488281 8 -13.90625 Z M 8 -13.90625 "/></g></g></g><g fill="#000000" fill-opacity="1"><g transform="translate(189.510192, 128.727957)"><g><path d="M 16.328125 -24.234375 C 18.066406 -24.234375 19.691406 -23.757812 21.203125 -22.8125 C 22.710938 -21.875 23.929688 -20.457031 24.859375 -18.5625 C 25.785156 -16.675781 26.25 -14.359375 26.25 -11.609375 C 26.25 -8.960938 25.796875 -6.722656 24.890625 -4.890625 C 23.992188 -3.066406 22.789062 -1.703125 21.28125 -0.796875 C 19.78125 0.0976562 18.113281 0.546875 16.28125 0.546875 C 13.59375 0.546875 11.289062 -0.550781 9.375 -2.75 L 9.375 9.015625 L 3.109375 9.015625 L 3.109375 -23.6875 L 8.96875 -23.6875 L 8.96875 -20.21875 L 9.0625 -20.21875 C 9.789062 -21.3125 10.800781 -22.253906 12.09375 -23.046875 C 13.394531 -23.835938 14.804688 -24.234375 16.328125 -24.234375 Z M 9.828125 -15.359375 C 9.492188 -14.390625 9.328125 -13.050781 9.328125 -11.34375 C 9.328125 -9 9.820312 -7.226562 10.8125 -6.03125 C 11.800781 -4.84375 13.0625 -4.25 14.59375 -4.25 C 16.445312 -4.25 17.773438 -4.976562 18.578125 -6.4375 C 19.390625 -7.90625 19.796875 -9.722656 19.796875 -11.890625 C 19.796875 -14.421875 19.316406 -16.28125 18.359375 -17.46875 C 17.398438 -18.65625 16.203125 -19.25 14.765625 -19.25 C 13.703125 -19.25 12.71875 -18.910156 11.8125 -18.234375 C 10.914062 -17.566406 10.253906 -16.609375 9.828125 -15.359375 Z M 9.828125 -15.359375 "/></g></g></g><g fill="#000000" fill-opacity="1"><g transform="translate(217.456039, 128.727957)"><g/></g></g><g fill="#000000" fill-opacity="1"><g transform="translate(230.1712, 128.727957)"><g><path d="M 18.015625 0 L 11.703125 0 L 11.703125 -23.640625 C 9.390625 -21.503906 6.691406 -19.921875 3.609375 -18.890625 L 3.609375 -24.5625 C 5.285156 -25.164062 7.066406 -26.179688 8.953125 -27.609375 C 10.847656 -29.046875 12.160156 -30.804688 12.890625 -32.890625 L 18.015625 -32.890625 Z M 18.015625 0 "/></g></g></g><g fill="#ffffff" fill-opacity="1"><g transform="translate(71.509719, 281.670157)"><g><path d="M 16.53125 0 L 8.875 0 L 0.953125 -34.625 L 7.765625 -34.625 L 13 -10.28125 L 13.59375 -10.28125 L 19.796875 -34.625 L 25.640625 -34.625 L 31.96875 -10.28125 L 32.5625 -10.28125 L 37.8125 -34.625 L 44.40625 -34.625 L 36.5 0 L 28.828125 0 L 22.765625 -22.328125 L 22.265625 -22.328125 Z M 16.53125 0 "/></g></g></g><g fill="#ffffff" fill-opacity="1"><g transform="translate(116.841299, 281.670157)"><g><path d="M 25.8125 -11.578125 L 9.015625 -11.578125 C 9.210938 -9.304688 9.863281 -7.648438 10.96875 -6.609375 C 12.070312 -5.578125 13.578125 -5.0625 15.484375 -5.0625 C 16.984375 -5.0625 18.195312 -5.34375 19.125 -5.90625 C 20.0625 -6.46875 20.816406 -7.316406 21.390625 -8.453125 L 21.875 -8.453125 L 26.234375 -5.65625 C 25.378906 -3.820312 24.09375 -2.335938 22.375 -1.203125 C 20.65625 -0.0664062 18.359375 0.5 15.484375 0.5 C 12.785156 0.5 10.453125 -0.0078125 8.484375 -1.03125 C 6.523438 -2.0625 5.007812 -3.59375 3.9375 -5.625 C 2.875 -7.65625 2.34375 -10.128906 2.34375 -13.046875 C 2.34375 -16.015625 2.898438 -18.515625 4.015625 -20.546875 C 5.140625 -22.585938 6.65625 -24.109375 8.5625 -25.109375 C 10.476562 -26.117188 12.628906 -26.625 15.015625 -26.625 C 18.710938 -26.625 21.539062 -25.644531 23.5 -23.6875 C 25.46875 -21.726562 26.453125 -18.851562 26.453125 -15.0625 C 26.453125 -13.6875 26.40625 -12.617188 26.3125 -11.859375 Z M 20.171875 -15.8125 C 20.109375 -17.800781 19.644531 -19.25 18.78125 -20.15625 C 17.925781 -21.070312 16.671875 -21.53125 15.015625 -21.53125 C 11.703125 -21.53125 9.753906 -19.625 9.171875 -15.8125 Z M 20.171875 -15.8125 "/></g></g></g><g fill="#ffffff" fill-opacity="1"><g transform="translate(145.238673, 281.670157)"><g><path d="M 10.84375 0.5 C 8.488281 0.5 6.691406 -0.132812 5.453125 -1.40625 C 4.210938 -2.675781 3.59375 -4.609375 3.59375 -7.203125 L 3.59375 -36.609375 L 10.15625 -36.609375 L 10.15625 -7.453125 C 10.15625 -5.859375 10.820312 -5.0625 12.15625 -5.0625 C 12.53125 -5.0625 12.929688 -5.125 13.359375 -5.25 L 13.6875 -5.15625 L 14.28125 -0.125 C 13.914062 0.0703125 13.429688 0.222656 12.828125 0.328125 C 12.234375 0.441406 11.570312 0.5 10.84375 0.5 Z M 10.84375 0.5 "/></g></g></g><g fill="#ffffff" fill-opacity="1"><g transform="translate(160.254463, 281.670157)"><g><path d="M 15.234375 0.5 C 12.703125 0.5 10.460938 -0.0234375 8.515625 -1.078125 C 6.578125 -2.128906 5.0625 -3.671875 3.96875 -5.703125 C 2.882812 -7.742188 2.34375 -10.191406 2.34375 -13.046875 C 2.34375 -15.921875 2.882812 -18.375 3.96875 -20.40625 C 5.0625 -22.445312 6.570312 -23.992188 8.5 -25.046875 C 10.425781 -26.097656 12.628906 -26.625 15.109375 -26.625 C 20.617188 -26.625 24.144531 -24.625 25.6875 -20.625 L 21.1875 -17.40625 L 20.703125 -17.40625 C 20.160156 -18.632812 19.457031 -19.546875 18.59375 -20.140625 C 17.738281 -20.742188 16.578125 -21.046875 15.109375 -21.046875 C 13.210938 -21.046875 11.734375 -20.390625 10.671875 -19.078125 C 9.617188 -17.773438 9.09375 -15.765625 9.09375 -13.046875 C 9.09375 -10.359375 9.628906 -8.351562 10.703125 -7.03125 C 11.773438 -5.71875 13.285156 -5.0625 15.234375 -5.0625 C 16.648438 -5.0625 17.847656 -5.441406 18.828125 -6.203125 C 19.816406 -6.972656 20.523438 -8.078125 20.953125 -9.515625 L 21.453125 -9.5625 L 26.125 -7.015625 C 25.457031 -4.796875 24.226562 -2.988281 22.4375 -1.59375 C 20.644531 -0.195312 18.242188 0.5 15.234375 0.5 Z M 15.234375 0.5 "/></g></g></g><g fill="#ffffff" fill-opacity="1"><g transform="translate(187.183416, 281.670157)"><g><path d="M 15.1875 0.5 C 12.625 0.5 10.375 -0.0234375 8.4375 -1.078125 C 6.507812 -2.128906 5.007812 -3.664062 3.9375 -5.6875 C 2.875 -7.71875 2.34375 -10.171875 2.34375 -13.046875 C 2.34375 -15.921875 2.875 -18.375 3.9375 -20.40625 C 5.007812 -22.445312 6.507812 -23.992188 8.4375 -25.046875 C 10.375 -26.097656 12.625 -26.625 15.1875 -26.625 C 17.738281 -26.625 19.976562 -26.097656 21.90625 -25.046875 C 23.84375 -23.992188 25.347656 -22.445312 26.421875 -20.40625 C 27.503906 -18.375 28.046875 -15.921875 28.046875 -13.046875 C 28.046875 -10.171875 27.503906 -7.71875 26.421875 -5.6875 C 25.347656 -3.664062 23.84375 -2.128906 21.90625 -1.078125 C 19.976562 -0.0234375 17.738281 0.5 15.1875 0.5 Z M 15.1875 -5.0625 C 19.238281 -5.0625 21.265625 -7.722656 21.265625 -13.046875 C 21.265625 -15.804688 20.742188 -17.828125 19.703125 -19.109375 C 18.660156 -20.398438 17.15625 -21.046875 15.1875 -21.046875 C 11.125 -21.046875 9.09375 -18.378906 9.09375 -13.046875 C 9.09375 -7.722656 11.125 -5.0625 15.1875 -5.0625 Z M 15.1875 -5.0625 "/></g></g></g><g fill="#ffffff" fill-opacity="1"><g transform="translate(217.546575, 281.670157)"><g><path d="M 3.765625 0 L 3.765625 -26.125 L 10.0625 -26.125 L 10.0625 -22.609375 L 10.5625 -22.515625 C 11.414062 -23.921875 12.414062 -24.957031 13.5625 -25.625 C 14.707031 -26.289062 16.171875 -26.625 17.953125 -26.625 C 19.921875 -26.625 21.503906 -26.234375 22.703125 -25.453125 C 23.910156 -24.671875 24.789062 -23.53125 25.34375 -22.03125 L 25.84375 -22.03125 C 26.644531 -23.59375 27.679688 -24.75 28.953125 -25.5 C 30.222656 -26.25 31.804688 -26.625 33.703125 -26.625 C 39.117188 -26.625 41.828125 -23.609375 41.828125 -17.578125 L 41.828125 0 L 35.265625 0 L 35.265625 -16.75 C 35.265625 -18.28125 34.960938 -19.382812 34.359375 -20.0625 C 33.765625 -20.738281 32.800781 -21.078125 31.46875 -21.078125 C 27.875 -21.078125 26.078125 -18.671875 26.078125 -13.859375 L 26.078125 0 L 19.515625 0 L 19.515625 -16.75 C 19.515625 -18.28125 19.207031 -19.382812 18.59375 -20.0625 C 17.988281 -20.738281 17.023438 -21.078125 15.703125 -21.078125 C 14.015625 -21.078125 12.695312 -20.507812 11.75 -19.375 C 10.800781 -18.25 10.328125 -16.457031 10.328125 -14 L 10.328125 0 Z M 3.765625 0 "/></g></g></g><g fill="#ffffff" fill-opacity="1"><g transform="translate(262.736049, 281.670157)"><g><path d="M 25.8125 -11.578125 L 9.015625 -11.578125 C 9.210938 -9.304688 9.863281 -7.648438 10.96875 -6.609375 C 12.070312 -5.578125 13.578125 -5.0625 15.484375 -5.0625 C 16.984375 -5.0625 18.195312 -5.34375 19.125 -5.90625 C 20.0625 -6.46875 20.816406 -7.316406 21.390625 -8.453125 L 21.875 -8.453125 L 26.234375 -5.65625 C 25.378906 -3.820312 24.09375 -2.335938 22.375 -1.203125 C 20.65625 -0.0664062 18.359375 0.5 15.484375 0.5 C 12.785156 0.5 10.453125 -0.0078125 8.484375 -1.03125 C 6.523438 -2.0625 5.007812 -3.59375 3.9375 -5.625 C 2.875 -7.65625 2.34375 -10.128906 2.34375 -13.046875 C 2.34375 -16.015625 2.898438 -18.515625 4.015625 -20.546875 C 5.140625 -22.585938 6.65625 -24.109375 8.5625 -25.109375 C 10.476562 -26.117188 12.628906 -26.625 15.015625 -26.625 C 18.710938 -26.625 21.539062 -25.644531 23.5 -23.6875 C 25.46875 -21.726562 26.453125 -18.851562 26.453125 -15.0625 C 26.453125 -13.6875 26.40625 -12.617188 26.3125 -11.859375 Z M 20.171875 -15.8125 C 20.109375 -17.800781 19.644531 -19.25 18.78125 -20.15625 C 17.925781 -21.070312 16.671875 -21.53125 15.015625 -21.53125 C 11.703125 -21.53125 9.753906 -19.625 9.171875 -15.8125 Z M 20.171875 -15.8125 "/></g></g></g><g fill="#ffffff" fill-opacity="1"><g transform="translate(291.133435, 281.670157)"><g/></g></g><g fill="#ffffff" fill-opacity="1"><g transform="translate(302.572903, 281.670157)"><g><path d="M 18.015625 -6.234375 L 19.734375 -1.375 C 19.015625 -0.789062 18.117188 -0.332031 17.046875 0 C 15.972656 0.332031 14.757812 0.5 13.40625 0.5 C 10.582031 0.5 8.4375 -0.269531 6.96875 -1.8125 C 5.5 -3.351562 4.765625 -5.59375 4.765625 -8.53125 L 4.765625 -20.9375 L 0.78125 -20.9375 L 0.78125 -26.140625 L 4.765625 -26.140625 L 4.765625 -31.234375 L 11.3125 -32.296875 L 11.3125 -26.140625 L 18.734375 -26.140625 L 18.734375 -20.9375 L 11.3125 -20.9375 L 11.3125 -9 C 11.3125 -7.707031 11.582031 -6.765625 12.125 -6.171875 C 12.664062 -5.578125 13.445312 -5.28125 14.46875 -5.28125 C 15.632812 -5.28125 16.65625 -5.597656 17.53125 -6.234375 Z M 18.015625 -6.234375 "/></g></g></g><g fill="#ffffff" fill-opacity="1"><g transform="translate(322.870278, 281.670157)"><g><path d="M 15.1875 0.5 C 12.625 0.5 10.375 -0.0234375 8.4375 -1.078125 C 6.507812 -2.128906 5.007812 -3.664062 3.9375 -5.6875 C 2.875 -7.71875 2.34375 -10.171875 2.34375 -13.046875 C 2.34375 -15.921875 2.875 -18.375 3.9375 -20.40625 C 5.007812 -22.445312 6.507812 -23.992188 8.4375 -25.046875 C 10.375 -26.097656 12.625 -26.625 15.1875 -26.625 C 17.738281 -26.625 19.976562 -26.097656 21.90625 -25.046875 C 23.84375 -23.992188 25.347656 -22.445312 26.421875 -20.40625 C 27.503906 -18.375 28.046875 -15.921875 28.046875 -13.046875 C 28.046875 -10.171875 27.503906 -7.71875 26.421875 -5.6875 C 25.347656 -3.664062 23.84375 -2.128906 21.90625 -1.078125 C 19.976562 -0.0234375 17.738281 0.5 15.1875 0.5 Z M 15.1875 -5.0625 C 19.238281 -5.0625 21.265625 -7.722656 21.265625 -13.046875 C 21.265625 -15.804688 20.742188 -17.828125 19.703125 -19.109375 C 18.660156 -20.398438 17.15625 -21.046875 15.1875 -21.046875 C 11.125 -21.046875 9.09375 -18.378906 9.09375 -13.046875 C 9.09375 -7.722656 11.125 -5.0625 15.1875 -5.0625 Z M 15.1875 -5.0625 "/></g></g></g><g fill="#ffffff" fill-opacity="1"><g transform="translate(353.233425, 281.670157)"><g/></g></g><g fill="#ffffff" fill-opacity="1"><g transform="translate(364.672893, 281.670157)"><g><path d="M 18.015625 -6.234375 L 19.734375 -1.375 C 19.015625 -0.789062 18.117188 -0.332031 17.046875 0 C 15.972656 0.332031 14.757812 0.5 13.40625 0.5 C 10.582031 0.5 8.4375 -0.269531 6.96875 -1.8125 C 5.5 -3.351562 4.765625 -5.59375 4.765625 -8.53125 L 4.765625 -20.9375 L 0.78125 -20.9375 L 0.78125 -26.140625 L 4.765625 -26.140625 L 4.765625 -31.234375 L 11.3125 -32.296875 L 11.3125 -26.140625 L 18.734375 -26.140625 L 18.734375 -20.9375 L 11.3125 -20.9375 L 11.3125 -9 C 11.3125 -7.707031 11.582031 -6.765625 12.125 -6.171875 C 12.664062 -5.578125 13.445312 -5.28125 14.46875 -5.28125 C 15.632812 -5.28125 16.65625 -5.597656 17.53125 -6.234375 Z M 18.015625 -6.234375 "/></g></g></g><g fill="#ffffff" fill-opacity="1"><g transform="translate(384.970268, 281.670157)"><g><path d="M 3.765625 0 L 3.765625 -36.609375 L 10.328125 -36.609375 L 10.328125 -22.703125 L 10.828125 -22.609375 C 11.691406 -23.890625 12.753906 -24.878906 14.015625 -25.578125 C 15.285156 -26.273438 16.8125 -26.625 18.59375 -26.625 C 24.351562 -26.625 27.234375 -23.351562 27.234375 -16.8125 L 27.234375 0 L 20.671875 0 L 20.671875 -15.984375 C 20.671875 -17.765625 20.316406 -19.054688 19.609375 -19.859375 C 18.898438 -20.671875 17.796875 -21.078125 16.296875 -21.078125 C 14.460938 -21.078125 13.007812 -20.460938 11.9375 -19.234375 C 10.863281 -18.015625 10.328125 -16.109375 10.328125 -13.515625 L 10.328125 0 Z M 3.765625 0 "/></g></g></g><g fill="#ffffff" fill-opacity="1"><g transform="translate(415.570268, 281.670157)"><g><path d="M 25.8125 -11.578125 L 9.015625 -11.578125 C 9.210938 -9.304688 9.863281 -7.648438 10.96875 -6.609375 C 12.070312 -5.578125 13.578125 -5.0625 15.484375 -5.0625 C 16.984375 -5.0625 18.195312 -5.34375 19.125 -5.90625 C 20.0625 -6.46875 20.816406 -7.316406 21.390625 -8.453125 L 21.875 -8.453125 L 26.234375 -5.65625 C 25.378906 -3.820312 24.09375 -2.335938 22.375 -1.203125 C 20.65625 -0.0664062 18.359375 0.5 15.484375 0.5 C 12.785156 0.5 10.453125 -0.0078125 8.484375 -1.03125 C 6.523438 -2.0625 5.007812 -3.59375 3.9375 -5.625 C 2.875 -7.65625 2.34375 -10.128906 2.34375 -13.046875 C 2.34375 -16.015625 2.898438 -18.515625 4.015625 -20.546875 C 5.140625 -22.585938 6.65625 -24.109375 8.5625 -25.109375 C 10.476562 -26.117188 12.628906 -26.625 15.015625 -26.625 C 18.710938 -26.625 21.539062 -25.644531 23.5 -23.6875 C 25.46875 -21.726562 26.453125 -18.851562 26.453125 -15.0625 C 26.453125 -13.6875 26.40625 -12.617188 26.3125 -11.859375 Z M 20.171875 -15.8125 C 20.109375 -17.800781 19.644531 -19.25 18.78125 -20.15625 C 17.925781 -21.070312 16.671875 -21.53125 15.015625 -21.53125 C 11.703125 -21.53125 9.753906 -19.625 9.171875 -15.8125 Z M 20.171875 -15.8125 "/></g></g></g><g fill="#ffffff" fill-opacity="1"><g transform="translate(443.967655, 281.670157)"><g/></g></g><g fill="#ffffff" fill-opacity="1"><g transform="translate(455.407123, 281.670157)"><g><path d="M 14.015625 0 L 7.15625 0 L 0.953125 -26.125 L 7.03125 -26.125 L 10.875 -8.453125 L 11.375 -8.453125 L 16.34375 -26.125 L 22.03125 -26.125 L 27.15625 -8.453125 L 27.65625 -8.453125 L 31.359375 -26.125 L 37.28125 -26.125 L 31.140625 0 L 24.25 0 L 19.296875 -17.78125 L 18.796875 -17.78125 Z M 14.015625 0 "/></g></g></g><g fill="#ffffff" fill-opacity="1"><g transform="translate(493.609761, 281.670157)"><g><path d="M 15.1875 0.5 C 12.625 0.5 10.375 -0.0234375 8.4375 -1.078125 C 6.507812 -2.128906 5.007812 -3.664062 3.9375 -5.6875 C 2.875 -7.71875 2.34375 -10.171875 2.34375 -13.046875 C 2.34375 -15.921875 2.875 -18.375 3.9375 -20.40625 C 5.007812 -22.445312 6.507812 -23.992188 8.4375 -25.046875 C 10.375 -26.097656 12.625 -26.625 15.1875 -26.625 C 17.738281 -26.625 19.976562 -26.097656 21.90625 -25.046875 C 23.84375 -23.992188 25.347656 -22.445312 26.421875 -20.40625 C 27.503906 -18.375 28.046875 -15.921875 28.046875 -13.046875 C 28.046875 -10.171875 27.503906 -7.71875 26.421875 -5.6875 C 25.347656 -3.664062 23.84375 -2.128906 21.90625 -1.078125 C 19.976562 -0.0234375 17.738281 0.5 15.1875 0.5 Z M 15.1875 -5.0625 C 19.238281 -5.0625 21.265625 -7.722656 21.265625 -13.046875 C 21.265625 -15.804688 20.742188 -17.828125 19.703125 -19.109375 C 18.660156 -20.398438 17.15625 -21.046875 15.1875 -21.046875 C 11.125 -21.046875 9.09375 -18.378906 9.09375 -13.046875 C 9.09375 -7.722656 11.125 -5.0625 15.1875 -5.0625 Z M 15.1875 -5.0625 "/></g></g></g><g fill="#ffffff" fill-opacity="1"><g transform="translate(523.972931, 281.670157)"><g><path d="M 3.765625 0 L 3.765625 -26.125 L 10.140625 -26.125 L 10.140625 -22.234375 L 10.640625 -22.140625 C 11.265625 -23.597656 12.085938 -24.664062 13.109375 -25.34375 C 14.140625 -26.019531 15.390625 -26.359375 16.859375 -26.359375 C 18.347656 -26.359375 19.476562 -26.101562 20.25 -25.59375 L 19.140625 -19.9375 L 18.640625 -19.84375 C 18.210938 -20.019531 17.800781 -20.144531 17.40625 -20.21875 C 17.007812 -20.300781 16.53125 -20.34375 15.96875 -20.34375 C 14.132812 -20.34375 12.734375 -19.695312 11.765625 -18.40625 C 10.804688 -17.125 10.328125 -15.0625 10.328125 -12.21875 L 10.328125 0 Z M 3.765625 0 "/></g></g></g><g fill="#ffffff" fill-opacity="1"><g transform="translate(544.459802, 281.670157)"><g><path d="M 10.84375 0.5 C 8.488281 0.5 6.691406 -0.132812 5.453125 -1.40625 C 4.210938 -2.675781 3.59375 -4.609375 3.59375 -7.203125 L 3.59375 -36.609375 L 10.15625 -36.609375 L 10.15625 -7.453125 C 10.15625 -5.859375 10.820312 -5.0625 12.15625 -5.0625 C 12.53125 -5.0625 12.929688 -5.125 13.359375 -5.25 L 13.6875 -5.15625 L 14.28125 -0.125 C 13.914062 0.0703125 13.429688 0.222656 12.828125 0.328125 C 12.234375 0.441406 11.570312 0.5 10.84375 0.5 Z M 10.84375 0.5 "/></g></g></g><g fill="#ffffff" fill-opacity="1"><g transform="translate(559.475603, 281.670157)"><g><path d="M 12.90625 0.5 C 10.832031 0.5 9.003906 0 7.421875 -1 C 5.835938 -2.007812 4.59375 -3.523438 3.6875 -5.546875 C 2.789062 -7.578125 2.34375 -10.078125 2.34375 -13.046875 C 2.34375 -16.035156 2.800781 -18.539062 3.71875 -20.5625 C 4.644531 -22.59375 5.925781 -24.109375 7.5625 -25.109375 C 9.195312 -26.117188 11.085938 -26.625 13.234375 -26.625 C 14.859375 -26.625 16.265625 -26.34375 17.453125 -25.78125 C 18.648438 -25.21875 19.660156 -24.34375 20.484375 -23.15625 L 20.984375 -23.28125 L 20.984375 -36.609375 L 27.546875 -36.609375 L 27.546875 0 L 20.984375 0 L 20.984375 -3.390625 L 20.484375 -3.484375 C 19.753906 -2.253906 18.757812 -1.28125 17.5 -0.5625 C 16.238281 0.144531 14.707031 0.5 12.90625 0.5 Z M 15.03125 -5.0625 C 16.882812 -5.0625 18.347656 -5.71875 19.421875 -7.03125 C 20.492188 -8.351562 21.03125 -10.359375 21.03125 -13.046875 C 21.03125 -15.734375 20.492188 -17.738281 19.421875 -19.0625 C 18.347656 -20.382812 16.882812 -21.046875 15.03125 -21.046875 C 13.113281 -21.046875 11.644531 -20.398438 10.625 -19.109375 C 9.601562 -17.828125 9.09375 -15.804688 9.09375 -13.046875 C 9.09375 -10.296875 9.601562 -8.273438 10.625 -6.984375 C 11.644531 -5.703125 13.113281 -5.0625 15.03125 -5.0625 Z M 15.03125 -5.0625 "/></g></g></g><g fill="#ffffff" fill-opacity="1"><g transform="translate(590.786141, 281.670157)"><g/></g></g><g fill="#ffffff" fill-opacity="1"><g transform="translate(602.225609, 281.670157)"><g><path d="M 15.1875 0.5 C 12.625 0.5 10.375 -0.0234375 8.4375 -1.078125 C 6.507812 -2.128906 5.007812 -3.664062 3.9375 -5.6875 C 2.875 -7.71875 2.34375 -10.171875 2.34375 -13.046875 C 2.34375 -15.921875 2.875 -18.375 3.9375 -20.40625 C 5.007812 -22.445312 6.507812 -23.992188 8.4375 -25.046875 C 10.375 -26.097656 12.625 -26.625 15.1875 -26.625 C 17.738281 -26.625 19.976562 -26.097656 21.90625 -25.046875 C 23.84375 -23.992188 25.347656 -22.445312 26.421875 -20.40625 C 27.503906 -18.375 28.046875 -15.921875 28.046875 -13.046875 C 28.046875 -10.171875 27.503906 -7.71875 26.421875 -5.6875 C 25.347656 -3.664062 23.84375 -2.128906 21.90625 -1.078125 C 19.976562 -0.0234375 17.738281 0.5 15.1875 0.5 Z M 15.1875 -5.0625 C 19.238281 -5.0625 21.265625 -7.722656 21.265625 -13.046875 C 21.265625 -15.804688 20.742188 -17.828125 19.703125 -19.109375 C 18.660156 -20.398438 17.15625 -21.046875 15.1875 -21.046875 C 11.125 -21.046875 9.09375 -18.378906 9.09375 -13.046875 C 9.09375 -7.722656 11.125 -5.0625 15.1875 -5.0625 Z M 15.1875 -5.0625 "/></g></g></g><g fill="#ffffff" fill-opacity="1"><g transform="translate(632.588778, 281.670157)"><g><path d="M 4.578125 0 L 4.578125 -20.9375 L 0.875 -20.9375 L 0.875 -26.140625 L 4.578125 -26.140625 C 4.304688 -27.242188 4.171875 -28.28125 4.171875 -29.25 C 4.171875 -30.90625 4.546875 -32.320312 5.296875 -33.5 C 6.054688 -34.675781 7.144531 -35.570312 8.5625 -36.1875 C 9.988281 -36.800781 11.679688 -37.109375 13.640625 -37.109375 C 16.523438 -37.109375 18.679688 -36.613281 20.109375 -35.625 L 18.5625 -30.78125 L 18.0625 -30.6875 C 17.082031 -31.382812 15.828125 -31.734375 14.296875 -31.734375 C 13.117188 -31.734375 12.234375 -31.441406 11.640625 -30.859375 C 11.046875 -30.285156 10.75 -29.503906 10.75 -28.515625 C 10.75 -28.085938 10.773438 -27.695312 10.828125 -27.34375 C 10.890625 -26.988281 10.988281 -26.585938 11.125 -26.140625 L 18.59375 -26.140625 L 18.59375 -20.9375 L 11.125 -20.9375 L 11.125 0 Z M 4.578125 0 "/></g></g></g><g fill="#ffffff" fill-opacity="1"><g transform="translate(651.441387, 281.670157)"><g/></g></g><g fill="#ffffff" fill-opacity="1"><g transform="translate(662.880855, 281.670157)"><g><path d="M 3.765625 0 L 3.765625 -36.609375 L 10.328125 -36.609375 L 10.328125 -22.703125 L 10.828125 -22.609375 C 11.691406 -23.890625 12.753906 -24.878906 14.015625 -25.578125 C 15.285156 -26.273438 16.8125 -26.625 18.59375 -26.625 C 24.351562 -26.625 27.234375 -23.351562 27.234375 -16.8125 L 27.234375 0 L 20.671875 0 L 20.671875 -15.984375 C 20.671875 -17.765625 20.316406 -19.054688 19.609375 -19.859375 C 18.898438 -20.671875 17.796875 -21.078125 16.296875 -21.078125 C 14.460938 -21.078125 13.007812 -20.460938 11.9375 -19.234375 C 10.863281 -18.015625 10.328125 -16.109375 10.328125 -13.515625 L 10.328125 0 Z M 3.765625 0 "/></g></g></g><g fill="#ffffff" fill-opacity="1"><g transform="translate(693.480879, 281.670157)"><g><path d="M 10.1875 0.5 C 8.507812 0.5 7.054688 0.191406 5.828125 -0.421875 C 4.597656 -1.035156 3.648438 -1.9375 2.984375 -3.125 C 2.316406 -4.320312 1.984375 -5.757812 1.984375 -7.4375 C 1.984375 -8.976562 2.316406 -10.273438 2.984375 -11.328125 C 3.648438 -12.378906 4.675781 -13.238281 6.0625 -13.90625 C 7.445312 -14.582031 9.265625 -15.101562 11.515625 -15.46875 C 13.078125 -15.71875 14.265625 -15.992188 15.078125 -16.296875 C 15.890625 -16.597656 16.4375 -16.9375 16.71875 -17.3125 C 17 -17.6875 17.140625 -18.164062 17.140625 -18.75 C 17.140625 -19.59375 16.847656 -20.234375 16.265625 -20.671875 C 15.679688 -21.117188 14.710938 -21.34375 13.359375 -21.34375 C 11.898438 -21.34375 10.515625 -21.015625 9.203125 -20.359375 C 7.898438 -19.710938 6.765625 -18.863281 5.796875 -17.8125 L 5.328125 -17.8125 L 2.578125 -21.953125 C 3.910156 -23.421875 5.53125 -24.566406 7.4375 -25.390625 C 9.34375 -26.210938 11.425781 -26.625 13.6875 -26.625 C 17.144531 -26.625 19.644531 -25.890625 21.1875 -24.421875 C 22.738281 -22.953125 23.515625 -20.863281 23.515625 -18.15625 L 23.515625 -6.828125 C 23.515625 -5.648438 24.03125 -5.0625 25.0625 -5.0625 C 25.445312 -5.0625 25.832031 -5.132812 26.21875 -5.28125 L 26.546875 -5.1875 L 27.015625 -0.609375 C 26.648438 -0.378906 26.144531 -0.1875 25.5 -0.03125 C 24.851562 0.113281 24.144531 0.1875 23.375 0.1875 C 21.8125 0.1875 20.59375 -0.109375 19.71875 -0.703125 C 18.84375 -1.304688 18.210938 -2.25 17.828125 -3.53125 L 17.328125 -3.578125 C 16.054688 -0.859375 13.675781 0.5 10.1875 0.5 Z M 12.265625 -4.40625 C 13.785156 -4.40625 15 -4.910156 15.90625 -5.921875 C 16.8125 -6.941406 17.265625 -8.363281 17.265625 -10.1875 L 17.265625 -12.828125 L 16.8125 -12.9375 C 16.414062 -12.613281 15.894531 -12.34375 15.25 -12.125 C 14.613281 -11.914062 13.695312 -11.710938 12.5 -11.515625 C 11.082031 -11.273438 10.0625 -10.863281 9.4375 -10.28125 C 8.8125 -9.707031 8.5 -8.894531 8.5 -7.84375 C 8.5 -6.71875 8.828125 -5.863281 9.484375 -5.28125 C 10.148438 -4.695312 11.078125 -4.40625 12.265625 -4.40625 Z M 12.265625 -4.40625 "/></g></g></g><g fill="#ffffff" fill-opacity="1"><g transform="translate(721.025611, 281.670157)"><g><path d="M 12.21875 0.5 C 10.4375 0.5 8.800781 0.289062 7.3125 -0.125 C 5.832031 -0.550781 4.566406 -1.128906 3.515625 -1.859375 C 2.460938 -2.585938 1.6875 -3.425781 1.1875 -4.375 L 4.828125 -8.3125 L 5.328125 -8.3125 C 6.191406 -7.144531 7.21875 -6.269531 8.40625 -5.6875 C 9.59375 -5.101562 10.878906 -4.8125 12.265625 -4.8125 C 13.546875 -4.8125 14.507812 -5.039062 15.15625 -5.5 C 15.800781 -5.957031 16.125 -6.609375 16.125 -7.453125 C 16.125 -8.117188 15.890625 -8.675781 15.421875 -9.125 C 14.960938 -9.570312 14.210938 -9.925781 13.171875 -10.1875 L 9.703125 -11.015625 C 7.117188 -11.628906 5.226562 -12.570312 4.03125 -13.84375 C 2.84375 -15.113281 2.25 -16.726562 2.25 -18.6875 C 2.25 -20.3125 2.660156 -21.722656 3.484375 -22.921875 C 4.316406 -24.117188 5.488281 -25.035156 7 -25.671875 C 8.507812 -26.304688 10.265625 -26.625 12.265625 -26.625 C 14.617188 -26.625 16.566406 -26.28125 18.109375 -25.59375 C 19.660156 -24.914062 20.867188 -24.007812 21.734375 -22.875 L 18.234375 -19.09375 L 17.765625 -19.09375 C 17.035156 -19.90625 16.21875 -20.5 15.3125 -20.875 C 14.40625 -21.257812 13.390625 -21.453125 12.265625 -21.453125 C 9.679688 -21.453125 8.390625 -20.648438 8.390625 -19.046875 C 8.390625 -18.359375 8.628906 -17.800781 9.109375 -17.375 C 9.585938 -16.957031 10.4375 -16.613281 11.65625 -16.34375 L 14.875 -15.625 C 17.519531 -15.0625 19.453125 -14.148438 20.671875 -12.890625 C 21.898438 -11.640625 22.515625 -9.957031 22.515625 -7.84375 C 22.515625 -6.1875 22.101562 -4.722656 21.28125 -3.453125 C 20.46875 -2.191406 19.285156 -1.21875 17.734375 -0.53125 C 16.191406 0.15625 14.351562 0.5 12.21875 0.5 Z M 12.21875 0.5 "/></g></g></g><g fill="#ffffff" fill-opacity="1"><g transform="translate(745.112482, 281.670157)"><g><path d="M 12.21875 0.5 C 10.4375 0.5 8.800781 0.289062 7.3125 -0.125 C 5.832031 -0.550781 4.566406 -1.128906 3.515625 -1.859375 C 2.460938 -2.585938 1.6875 -3.425781 1.1875 -4.375 L 4.828125 -8.3125 L 5.328125 -8.3125 C 6.191406 -7.144531 7.21875 -6.269531 8.40625 -5.6875 C 9.59375 -5.101562 10.878906 -4.8125 12.265625 -4.8125 C 13.546875 -4.8125 14.507812 -5.039062 15.15625 -5.5 C 15.800781 -5.957031 16.125 -6.609375 16.125 -7.453125 C 16.125 -8.117188 15.890625 -8.675781 15.421875 -9.125 C 14.960938 -9.570312 14.210938 -9.925781 13.171875 -10.1875 L 9.703125 -11.015625 C 7.117188 -11.628906 5.226562 -12.570312 4.03125 -13.84375 C 2.84375 -15.113281 2.25 -16.726562 2.25 -18.6875 C 2.25 -20.3125 2.660156 -21.722656 3.484375 -22.921875 C 4.316406 -24.117188 5.488281 -25.035156 7 -25.671875 C 8.507812 -26.304688 10.265625 -26.625 12.265625 -26.625 C 14.617188 -26.625 16.566406 -26.28125 18.109375 -25.59375 C 19.660156 -24.914062 20.867188 -24.007812 21.734375 -22.875 L 18.234375 -19.09375 L 17.765625 -19.09375 C 17.035156 -19.90625 16.21875 -20.5 15.3125 -20.875 C 14.40625 -21.257812 13.390625 -21.453125 12.265625 -21.453125 C 9.679688 -21.453125 8.390625 -20.648438 8.390625 -19.046875 C 8.390625 -18.359375 8.628906 -17.800781 9.109375 -17.375 C 9.585938 -16.957031 10.4375 -16.613281 11.65625 -16.34375 L 14.875 -15.625 C 17.519531 -15.0625 19.453125 -14.148438 20.671875 -12.890625 C 21.898438 -11.640625 22.515625 -9.957031 22.515625 -7.84375 C 22.515625 -6.1875 22.101562 -4.722656 21.28125 -3.453125 C 20.46875 -2.191406 19.285156 -1.21875 17.734375 -0.53125 C 16.191406 0.15625 14.351562 0.5 12.21875 0.5 Z M 12.21875 0.5 "/></g></g></g><g fill="#ffffff" fill-opacity="1"><g transform="translate(769.199353, 281.670157)"><g><path d="M 10.84375 0.5 C 8.488281 0.5 6.691406 -0.132812 5.453125 -1.40625 C 4.210938 -2.675781 3.59375 -4.609375 3.59375 -7.203125 L 3.59375 -36.609375 L 10.15625 -36.609375 L 10.15625 -7.453125 C 10.15625 -5.859375 10.820312 -5.0625 12.15625 -5.0625 C 12.53125 -5.0625 12.929688 -5.125 13.359375 -5.25 L 13.6875 -5.15625 L 14.28125 -0.125 C 13.914062 0.0703125 13.429688 0.222656 12.828125 0.328125 C 12.234375 0.441406 11.570312 0.5 10.84375 0.5 Z M 10.84375 0.5 "/></g></g></g><g fill="#ffffff" fill-opacity="1"><g transform="translate(784.215154, 281.670157)"><g><path d="M 25.8125 -11.578125 L 9.015625 -11.578125 C 9.210938 -9.304688 9.863281 -7.648438 10.96875 -6.609375 C 12.070312 -5.578125 13.578125 -5.0625 15.484375 -5.0625 C 16.984375 -5.0625 18.195312 -5.34375 19.125 -5.90625 C 20.0625 -6.46875 20.816406 -7.316406 21.390625 -8.453125 L 21.875 -8.453125 L 26.234375 -5.65625 C 25.378906 -3.820312 24.09375 -2.335938 22.375 -1.203125 C 20.65625 -0.0664062 18.359375 0.5 15.484375 0.5 C 12.785156 0.5 10.453125 -0.0078125 8.484375 -1.03125 C 6.523438 -2.0625 5.007812 -3.59375 3.9375 -5.625 C 2.875 -7.65625 2.34375 -10.128906 2.34375 -13.046875 C 2.34375 -16.015625 2.898438 -18.515625 4.015625 -20.546875 C 5.140625 -22.585938 6.65625 -24.109375 8.5625 -25.109375 C 10.476562 -26.117188 12.628906 -26.625 15.015625 -26.625 C 18.710938 -26.625 21.539062 -25.644531 23.5 -23.6875 C 25.46875 -21.726562 26.453125 -18.851562 26.453125 -15.0625 C 26.453125 -13.6875 26.40625 -12.617188 26.3125 -11.859375 Z M 20.171875 -15.8125 C 20.109375 -17.800781 19.644531 -19.25 18.78125 -20.15625 C 17.925781 -21.070312 16.671875 -21.53125 15.015625 -21.53125 C 11.703125 -21.53125 9.753906 -19.625 9.171875 -15.8125 Z M 20.171875 -15.8125 "/></g></g></g><g fill="#ffffff" fill-opacity="1"><g transform="translate(219.493466, 349.041828)"><g><path d="M 4.578125 0 L 4.578125 -20.9375 L 0.875 -20.9375 L 0.875 -26.140625 L 4.578125 -26.140625 C 4.304688 -27.242188 4.171875 -28.28125 4.171875 -29.25 C 4.171875 -30.90625 4.546875 -32.320312 5.296875 -33.5 C 6.054688 -34.675781 7.144531 -35.570312 8.5625 -36.1875 C 9.988281 -36.800781 11.679688 -37.109375 13.640625 -37.109375 C 16.523438 -37.109375 18.679688 -36.613281 20.109375 -35.625 L 18.5625 -30.78125 L 18.0625 -30.6875 C 17.082031 -31.382812 15.828125 -31.734375 14.296875 -31.734375 C 13.117188 -31.734375 12.234375 -31.441406 11.640625 -30.859375 C 11.046875 -30.285156 10.75 -29.503906 10.75 -28.515625 C 10.75 -28.085938 10.773438 -27.695312 10.828125 -27.34375 C 10.890625 -26.988281 10.988281 -26.585938 11.125 -26.140625 L 18.59375 -26.140625 L 18.59375 -20.9375 L 11.125 -20.9375 L 11.125 0 Z M 4.578125 0 "/></g></g></g><g fill="#ffffff" fill-opacity="1"><g transform="translate(238.346098, 349.041828)"><g><path d="M 3.765625 0 L 3.765625 -26.125 L 10.140625 -26.125 L 10.140625 -22.234375 L 10.640625 -22.140625 C 11.265625 -23.597656 12.085938 -24.664062 13.109375 -25.34375 C 14.140625 -26.019531 15.390625 -26.359375 16.859375 -26.359375 C 18.347656 -26.359375 19.476562 -26.101562 20.25 -25.59375 L 19.140625 -19.9375 L 18.640625 -19.84375 C 18.210938 -20.019531 17.800781 -20.144531 17.40625 -20.21875 C 17.007812 -20.300781 16.53125 -20.34375 15.96875 -20.34375 C 14.132812 -20.34375 12.734375 -19.695312 11.765625 -18.40625 C 10.804688 -17.125 10.328125 -15.0625 10.328125 -12.21875 L 10.328125 0 Z M 3.765625 0 "/></g></g></g><g fill="#ffffff" fill-opacity="1"><g transform="translate(258.832946, 349.041828)"><g><path d="M 25.8125 -11.578125 L 9.015625 -11.578125 C 9.210938 -9.304688 9.863281 -7.648438 10.96875 -6.609375 C 12.070312 -5.578125 13.578125 -5.0625 15.484375 -5.0625 C 16.984375 -5.0625 18.195312 -5.34375 19.125 -5.90625 C 20.0625 -6.46875 20.816406 -7.316406 21.390625 -8.453125 L 21.875 -8.453125 L 26.234375 -5.65625 C 25.378906 -3.820312 24.09375 -2.335938 22.375 -1.203125 C 20.65625 -0.0664062 18.359375 0.5 15.484375 0.5 C 12.785156 0.5 10.453125 -0.0078125 8.484375 -1.03125 C 6.523438 -2.0625 5.007812 -3.59375 3.9375 -5.625 C 2.875 -7.65625 2.34375 -10.128906 2.34375 -13.046875 C 2.34375 -16.015625 2.898438 -18.515625 4.015625 -20.546875 C 5.140625 -22.585938 6.65625 -24.109375 8.5625 -25.109375 C 10.476562 -26.117188 12.628906 -26.625 15.015625 -26.625 C 18.710938 -26.625 21.539062 -25.644531 23.5 -23.6875 C 25.46875 -21.726562 26.453125 -18.851562 26.453125 -15.0625 C 26.453125 -13.6875 26.40625 -12.617188 26.3125 -11.859375 Z M 20.171875 -15.8125 C 20.109375 -17.800781 19.644531 -19.25 18.78125 -20.15625 C 17.925781 -21.070312 16.671875 -21.53125 15.015625 -21.53125 C 11.703125 -21.53125 9.753906 -19.625 9.171875 -15.8125 Z M 20.171875 -15.8125 "/></g></g></g><g fill="#ffffff" fill-opacity="1"><g transform="translate(287.23032, 349.041828)"><g><path d="M 25.8125 -11.578125 L 9.015625 -11.578125 C 9.210938 -9.304688 9.863281 -7.648438 10.96875 -6.609375 C 12.070312 -5.578125 13.578125 -5.0625 15.484375 -5.0625 C 16.984375 -5.0625 18.195312 -5.34375 19.125 -5.90625 C 20.0625 -6.46875 20.816406 -7.316406 21.390625 -8.453125 L 21.875 -8.453125 L 26.234375 -5.65625 C 25.378906 -3.820312 24.09375 -2.335938 22.375 -1.203125 C 20.65625 -0.0664062 18.359375 0.5 15.484375 0.5 C 12.785156 0.5 10.453125 -0.0078125 8.484375 -1.03125 C 6.523438 -2.0625 5.007812 -3.59375 3.9375 -5.625 C 2.875 -7.65625 2.34375 -10.128906 2.34375 -13.046875 C 2.34375 -16.015625 2.898438 -18.515625 4.015625 -20.546875 C 5.140625 -22.585938 6.65625 -24.109375 8.5625 -25.109375 C 10.476562 -26.117188 12.628906 -26.625 15.015625 -26.625 C 18.710938 -26.625 21.539062 -25.644531 23.5 -23.6875 C 25.46875 -21.726562 26.453125 -18.851562 26.453125 -15.0625 C 26.453125 -13.6875 26.40625 -12.617188 26.3125 -11.859375 Z M 20.171875 -15.8125 C 20.109375 -17.800781 19.644531 -19.25 18.78125 -20.15625 C 17.925781 -21.070312 16.671875 -21.53125 15.015625 -21.53125 C 11.703125 -21.53125 9.753906 -19.625 9.171875 -15.8125 Z M 20.171875 -15.8125 "/></g></g></g><g fill="#ffffff" fill-opacity="1"><g transform="translate(315.627695, 349.041828)"><g/></g></g><g fill="#ffffff" fill-opacity="1"><g transform="translate(327.067174, 349.041828)"><g><path d="M 3.765625 0 L 3.765625 -26.125 L 10.0625 -26.125 L 10.0625 -22.609375 L 10.5625 -22.515625 C 11.414062 -23.921875 12.414062 -24.957031 13.5625 -25.625 C 14.707031 -26.289062 16.171875 -26.625 17.953125 -26.625 C 19.921875 -26.625 21.503906 -26.234375 22.703125 -25.453125 C 23.910156 -24.671875 24.789062 -23.53125 25.34375 -22.03125 L 25.84375 -22.03125 C 26.644531 -23.59375 27.679688 -24.75 28.953125 -25.5 C 30.222656 -26.25 31.804688 -26.625 33.703125 -26.625 C 39.117188 -26.625 41.828125 -23.609375 41.828125 -17.578125 L 41.828125 0 L 35.265625 0 L 35.265625 -16.75 C 35.265625 -18.28125 34.960938 -19.382812 34.359375 -20.0625 C 33.765625 -20.738281 32.800781 -21.078125 31.46875 -21.078125 C 27.875 -21.078125 26.078125 -18.671875 26.078125 -13.859375 L 26.078125 0 L 19.515625 0 L 19.515625 -16.75 C 19.515625 -18.28125 19.207031 -19.382812 18.59375 -20.0625 C 17.988281 -20.738281 17.023438 -21.078125 15.703125 -21.078125 C 14.015625 -21.078125 12.695312 -20.507812 11.75 -19.375 C 10.800781 -18.25 10.328125 -16.457031 10.328125 -14 L 10.328125 0 Z M 3.765625 0 "/></g></g></g><g fill="#ffffff" fill-opacity="1"><g transform="translate(372.256648, 349.041828)"><g><path d="M 10.1875 0.5 C 8.507812 0.5 7.054688 0.191406 5.828125 -0.421875 C 4.597656 -1.035156 3.648438 -1.9375 2.984375 -3.125 C 2.316406 -4.320312 1.984375 -5.757812 1.984375 -7.4375 C 1.984375 -8.976562 2.316406 -10.273438 2.984375 -11.328125 C 3.648438 -12.378906 4.675781 -13.238281 6.0625 -13.90625 C 7.445312 -14.582031 9.265625 -15.101562 11.515625 -15.46875 C 13.078125 -15.71875 14.265625 -15.992188 15.078125 -16.296875 C 15.890625 -16.597656 16.4375 -16.9375 16.71875 -17.3125 C 17 -17.6875 17.140625 -18.164062 17.140625 -18.75 C 17.140625 -19.59375 16.847656 -20.234375 16.265625 -20.671875 C 15.679688 -21.117188 14.710938 -21.34375 13.359375 -21.34375 C 11.898438 -21.34375 10.515625 -21.015625 9.203125 -20.359375 C 7.898438 -19.710938 6.765625 -18.863281 5.796875 -17.8125 L 5.328125 -17.8125 L 2.578125 -21.953125 C 3.910156 -23.421875 5.53125 -24.566406 7.4375 -25.390625 C 9.34375 -26.210938 11.425781 -26.625 13.6875 -26.625 C 17.144531 -26.625 19.644531 -25.890625 21.1875 -24.421875 C 22.738281 -22.953125 23.515625 -20.863281 23.515625 -18.15625 L 23.515625 -6.828125 C 23.515625 -5.648438 24.03125 -5.0625 25.0625 -5.0625 C 25.445312 -5.0625 25.832031 -5.132812 26.21875 -5.28125 L 26.546875 -5.1875 L 27.015625 -0.609375 C 26.648438 -0.378906 26.144531 -0.1875 25.5 -0.03125 C 24.851562 0.113281 24.144531 0.1875 23.375 0.1875 C 21.8125 0.1875 20.59375 -0.109375 19.71875 -0.703125 C 18.84375 -1.304688 18.210938 -2.25 17.828125 -3.53125 L 17.328125 -3.578125 C 16.054688 -0.859375 13.675781 0.5 10.1875 0.5 Z M 12.265625 -4.40625 C 13.785156 -4.40625 15 -4.910156 15.90625 -5.921875 C 16.8125 -6.941406 17.265625 -8.363281 17.265625 -10.1875 L 17.265625 -12.828125 L 16.8125 -12.9375 C 16.414062 -12.613281 15.894531 -12.34375 15.25 -12.125 C 14.613281 -11.914062 13.695312 -11.710938 12.5 -11.515625 C 11.082031 -11.273438 10.0625 -10.863281 9.4375 -10.28125 C 8.8125 -9.707031 8.5 -8.894531 8.5 -7.84375 C 8.5 -6.71875 8.828125 -5.863281 9.484375 -5.28125 C 10.148438 -4.695312 11.078125 -4.40625 12.265625 -4.40625 Z M 12.265625 -4.40625 "/></g></g></g><g fill="#ffffff" fill-opacity="1"><g transform="translate(399.801391, 349.041828)"><g><path d="M 3.765625 0 L 3.765625 -26.125 L 10.140625 -26.125 L 10.140625 -22.234375 L 10.640625 -22.140625 C 11.265625 -23.597656 12.085938 -24.664062 13.109375 -25.34375 C 14.140625 -26.019531 15.390625 -26.359375 16.859375 -26.359375 C 18.347656 -26.359375 19.476562 -26.101562 20.25 -25.59375 L 19.140625 -19.9375 L 18.640625 -19.84375 C 18.210938 -20.019531 17.800781 -20.144531 17.40625 -20.21875 C 17.007812 -20.300781 16.53125 -20.34375 15.96875 -20.34375 C 14.132812 -20.34375 12.734375 -19.695312 11.765625 -18.40625 C 10.804688 -17.125 10.328125 -15.0625 10.328125 -12.21875 L 10.328125 0 Z M 3.765625 0 "/></g></g></g><g fill="#ffffff" fill-opacity="1"><g transform="translate(420.288239, 349.041828)"><g><path d="M 3.765625 0 L 3.765625 -36.609375 L 10.328125 -36.609375 L 10.328125 -16.296875 L 10.96875 -16.296875 L 18.515625 -26.125 L 25.171875 -26.125 L 25.171875 -25.578125 L 16.296875 -14.109375 L 26.171875 -0.59375 L 26.171875 0 L 19.25 0 L 10.96875 -11.015625 L 10.328125 -11.015625 L 10.328125 0 Z M 3.765625 0 "/></g></g></g><g fill="#ffffff" fill-opacity="1"><g transform="translate(446.506655, 349.041828)"><g><path d="M 25.8125 -11.578125 L 9.015625 -11.578125 C 9.210938 -9.304688 9.863281 -7.648438 10.96875 -6.609375 C 12.070312 -5.578125 13.578125 -5.0625 15.484375 -5.0625 C 16.984375 -5.0625 18.195312 -5.34375 19.125 -5.90625 C 20.0625 -6.46875 20.816406 -7.316406 21.390625 -8.453125 L 21.875 -8.453125 L 26.234375 -5.65625 C 25.378906 -3.820312 24.09375 -2.335938 22.375 -1.203125 C 20.65625 -0.0664062 18.359375 0.5 15.484375 0.5 C 12.785156 0.5 10.453125 -0.0078125 8.484375 -1.03125 C 6.523438 -2.0625 5.007812 -3.59375 3.9375 -5.625 C 2.875 -7.65625 2.34375 -10.128906 2.34375 -13.046875 C 2.34375 -16.015625 2.898438 -18.515625 4.015625 -20.546875 C 5.140625 -22.585938 6.65625 -24.109375 8.5625 -25.109375 C 10.476562 -26.117188 12.628906 -26.625 15.015625 -26.625 C 18.710938 -26.625 21.539062 -25.644531 23.5 -23.6875 C 25.46875 -21.726562 26.453125 -18.851562 26.453125 -15.0625 C 26.453125 -13.6875 26.40625 -12.617188 26.3125 -11.859375 Z M 20.171875 -15.8125 C 20.109375 -17.800781 19.644531 -19.25 18.78125 -20.15625 C 17.925781 -21.070312 16.671875 -21.53125 15.015625 -21.53125 C 11.703125 -21.53125 9.753906 -19.625 9.171875 -15.8125 Z M 20.171875 -15.8125 "/></g></g></g><g fill="#ffffff" fill-opacity="1"><g transform="translate(474.904041, 349.041828)"><g><path d="M 18.015625 -6.234375 L 19.734375 -1.375 C 19.015625 -0.789062 18.117188 -0.332031 17.046875 0 C 15.972656 0.332031 14.757812 0.5 13.40625 0.5 C 10.582031 0.5 8.4375 -0.269531 6.96875 -1.8125 C 5.5 -3.351562 4.765625 -5.59375 4.765625 -8.53125 L 4.765625 -20.9375 L 0.78125 -20.9375 L 0.78125 -26.140625 L 4.765625 -26.140625 L 4.765625 -31.234375 L 11.3125 -32.296875 L 11.3125 -26.140625 L 18.734375 -26.140625 L 18.734375 -20.9375 L 11.3125 -20.9375 L 11.3125 -9 C 11.3125 -7.707031 11.582031 -6.765625 12.125 -6.171875 C 12.664062 -5.578125 13.445312 -5.28125 14.46875 -5.28125 C 15.632812 -5.28125 16.65625 -5.597656 17.53125 -6.234375 Z M 18.015625 -6.234375 "/></g></g></g><g fill="#ffffff" fill-opacity="1"><g transform="translate(495.201416, 349.041828)"><g/></g></g><g fill="#ffffff" fill-opacity="1"><g transform="translate(506.640907, 349.041828)"><g><path d="M 10.1875 0.5 C 8.507812 0.5 7.054688 0.191406 5.828125 -0.421875 C 4.597656 -1.035156 3.648438 -1.9375 2.984375 -3.125 C 2.316406 -4.320312 1.984375 -5.757812 1.984375 -7.4375 C 1.984375 -8.976562 2.316406 -10.273438 2.984375 -11.328125 C 3.648438 -12.378906 4.675781 -13.238281 6.0625 -13.90625 C 7.445312 -14.582031 9.265625 -15.101562 11.515625 -15.46875 C 13.078125 -15.71875 14.265625 -15.992188 15.078125 -16.296875 C 15.890625 -16.597656 16.4375 -16.9375 16.71875 -17.3125 C 17 -17.6875 17.140625 -18.164062 17.140625 -18.75 C 17.140625 -19.59375 16.847656 -20.234375 16.265625 -20.671875 C 15.679688 -21.117188 14.710938 -21.34375 13.359375 -21.34375 C 11.898438 -21.34375 10.515625 -21.015625 9.203125 -20.359375 C 7.898438 -19.710938 6.765625 -18.863281 5.796875 -17.8125 L 5.328125 -17.8125 L 2.578125 -21.953125 C 3.910156 -23.421875 5.53125 -24.566406 7.4375 -25.390625 C 9.34375 -26.210938 11.425781 -26.625 13.6875 -26.625 C 17.144531 -26.625 19.644531 -25.890625 21.1875 -24.421875 C 22.738281 -22.953125 23.515625 -20.863281 23.515625 -18.15625 L 23.515625 -6.828125 C 23.515625 -5.648438 24.03125 -5.0625 25.0625 -5.0625 C 25.445312 -5.0625 25.832031 -5.132812 26.21875 -5.28125 L 26.546875 -5.1875 L 27.015625 -0.609375 C 26.648438 -0.378906 26.144531 -0.1875 25.5 -0.03125 C 24.851562 0.113281 24.144531 0.1875 23.375 0.1875 C 21.8125 0.1875 20.59375 -0.109375 19.71875 -0.703125 C 18.84375 -1.304688 18.210938 -2.25 17.828125 -3.53125 L 17.328125 -3.578125 C 16.054688 -0.859375 13.675781 0.5 10.1875 0.5 Z M 12.265625 -4.40625 C 13.785156 -4.40625 15 -4.910156 15.90625 -5.921875 C 16.8125 -6.941406 17.265625 -8.363281 17.265625 -10.1875 L 17.265625 -12.828125 L 16.8125 -12.9375 C 16.414062 -12.613281 15.894531 -12.34375 15.25 -12.125 C 14.613281 -11.914062 13.695312 -11.710938 12.5 -11.515625 C 11.082031 -11.273438 10.0625 -10.863281 9.4375 -10.28125 C 8.8125 -9.707031 8.5 -8.894531 8.5 -7.84375 C 8.5 -6.71875 8.828125 -5.863281 9.484375 -5.28125 C 10.148438 -4.695312 11.078125 -4.40625 12.265625 -4.40625 Z M 12.265625 -4.40625 "/></g></g></g><g fill="#ffffff" fill-opacity="1"><g transform="translate(534.185639, 349.041828)"><g><path d="M 15.234375 0.5 C 12.703125 0.5 10.460938 -0.0234375 8.515625 -1.078125 C 6.578125 -2.128906 5.0625 -3.671875 3.96875 -5.703125 C 2.882812 -7.742188 2.34375 -10.191406 2.34375 -13.046875 C 2.34375 -15.921875 2.882812 -18.375 3.96875 -20.40625 C 5.0625 -22.445312 6.570312 -23.992188 8.5 -25.046875 C 10.425781 -26.097656 12.628906 -26.625 15.109375 -26.625 C 20.617188 -26.625 24.144531 -24.625 25.6875 -20.625 L 21.1875 -17.40625 L 20.703125 -17.40625 C 20.160156 -18.632812 19.457031 -19.546875 18.59375 -20.140625 C 17.738281 -20.742188 16.578125 -21.046875 15.109375 -21.046875 C 13.210938 -21.046875 11.734375 -20.390625 10.671875 -19.078125 C 9.617188 -17.773438 9.09375 -15.765625 9.09375 -13.046875 C 9.09375 -10.359375 9.628906 -8.351562 10.703125 -7.03125 C 11.773438 -5.71875 13.285156 -5.0625 15.234375 -5.0625 C 16.648438 -5.0625 17.847656 -5.441406 18.828125 -6.203125 C 19.816406 -6.972656 20.523438 -8.078125 20.953125 -9.515625 L 21.453125 -9.5625 L 26.125 -7.015625 C 25.457031 -4.796875 24.226562 -2.988281 22.4375 -1.59375 C 20.644531 -0.195312 18.242188 0.5 15.234375 0.5 Z M 15.234375 0.5 "/></g></g></g><g fill="#ffffff" fill-opacity="1"><g transform="translate(561.114592, 349.041828)"><g><path d="M 15.234375 0.5 C 12.703125 0.5 10.460938 -0.0234375 8.515625 -1.078125 C 6.578125 -2.128906 5.0625 -3.671875 3.96875 -5.703125 C 2.882812 -7.742188 2.34375 -10.191406 2.34375 -13.046875 C 2.34375 -15.921875 2.882812 -18.375 3.96875 -20.40625 C 5.0625 -22.445312 6.570312 -23.992188 8.5 -25.046875 C 10.425781 -26.097656 12.628906 -26.625 15.109375 -26.625 C 20.617188 -26.625 24.144531 -24.625 25.6875 -20.625 L 21.1875 -17.40625 L 20.703125 -17.40625 C 20.160156 -18.632812 19.457031 -19.546875 18.59375 -20.140625 C 17.738281 -20.742188 16.578125 -21.046875 15.109375 -21.046875 C 13.210938 -21.046875 11.734375 -20.390625 10.671875 -19.078125 C 9.617188 -17.773438 9.09375 -15.765625 9.09375 -13.046875 C 9.09375 -10.359375 9.628906 -8.351562 10.703125 -7.03125 C 11.773438 -5.71875 13.285156 -5.0625 15.234375 -5.0625 C 16.648438 -5.0625 17.847656 -5.441406 18.828125 -6.203125 C 19.816406 -6.972656 20.523438 -8.078125 20.953125 -9.515625 L 21.453125 -9.5625 L 26.125 -7.015625 C 25.457031 -4.796875 24.226562 -2.988281 22.4375 -1.59375 C 20.644531 -0.195312 18.242188 0.5 15.234375 0.5 Z M 15.234375 0.5 "/></g></g></g><g fill="#ffffff" fill-opacity="1"><g transform="translate(588.043545, 349.041828)"><g><path d="M 25.8125 -11.578125 L 9.015625 -11.578125 C 9.210938 -9.304688 9.863281 -7.648438 10.96875 -6.609375 C 12.070312 -5.578125 13.578125 -5.0625 15.484375 -5.0625 C 16.984375 -5.0625 18.195312 -5.34375 19.125 -5.90625 C 20.0625 -6.46875 20.816406 -7.316406 21.390625 -8.453125 L 21.875 -8.453125 L 26.234375 -5.65625 C 25.378906 -3.820312 24.09375 -2.335938 22.375 -1.203125 C 20.65625 -0.0664062 18.359375 0.5 15.484375 0.5 C 12.785156 0.5 10.453125 -0.0078125 8.484375 -1.03125 C 6.523438 -2.0625 5.007812 -3.59375 3.9375 -5.625 C 2.875 -7.65625 2.34375 -10.128906 2.34375 -13.046875 C 2.34375 -16.015625 2.898438 -18.515625 4.015625 -20.546875 C 5.140625 -22.585938 6.65625 -24.109375 8.5625 -25.109375 C 10.476562 -26.117188 12.628906 -26.625 15.015625 -26.625 C 18.710938 -26.625 21.539062 -25.644531 23.5 -23.6875 C 25.46875 -21.726562 26.453125 -18.851562 26.453125 -15.0625 C 26.453125 -13.6875 26.40625 -12.617188 26.3125 -11.859375 Z M 20.171875 -15.8125 C 20.109375 -17.800781 19.644531 -19.25 18.78125 -20.15625 C 17.925781 -21.070312 16.671875 -21.53125 15.015625 -21.53125 C 11.703125 -21.53125 9.753906 -19.625 9.171875 -15.8125 Z M 20.171875 -15.8125 "/></g></g></g><g fill="#ffffff" fill-opacity="1"><g transform="translate(616.440931, 349.041828)"><g><path d="M 12.21875 0.5 C 10.4375 0.5 8.800781 0.289062 7.3125 -0.125 C 5.832031 -0.550781 4.566406 -1.128906 3.515625 -1.859375 C 2.460938 -2.585938 1.6875 -3.425781 1.1875 -4.375 L 4.828125 -8.3125 L 5.328125 -8.3125 C 6.191406 -7.144531 7.21875 -6.269531 8.40625 -5.6875 C 9.59375 -5.101562 10.878906 -4.8125 12.265625 -4.8125 C 13.546875 -4.8125 14.507812 -5.039062 15.15625 -5.5 C 15.800781 -5.957031 16.125 -6.609375 16.125 -7.453125 C 16.125 -8.117188 15.890625 -8.675781 15.421875 -9.125 C 14.960938 -9.570312 14.210938 -9.925781 13.171875 -10.1875 L 9.703125 -11.015625 C 7.117188 -11.628906 5.226562 -12.570312 4.03125 -13.84375 C 2.84375 -15.113281 2.25 -16.726562 2.25 -18.6875 C 2.25 -20.3125 2.660156 -21.722656 3.484375 -22.921875 C 4.316406 -24.117188 5.488281 -25.035156 7 -25.671875 C 8.507812 -26.304688 10.265625 -26.625 12.265625 -26.625 C 14.617188 -26.625 16.566406 -26.28125 18.109375 -25.59375 C 19.660156 -24.914062 20.867188 -24.007812 21.734375 -22.875 L 18.234375 -19.09375 L 17.765625 -19.09375 C 17.035156 -19.90625 16.21875 -20.5 15.3125 -20.875 C 14.40625 -21.257812 13.390625 -21.453125 12.265625 -21.453125 C 9.679688 -21.453125 8.390625 -20.648438 8.390625 -19.046875 C 8.390625 -18.359375 8.628906 -17.800781 9.109375 -17.375 C 9.585938 -16.957031 10.4375 -16.613281 11.65625 -16.34375 L 14.875 -15.625 C 17.519531 -15.0625 19.453125 -14.148438 20.671875 -12.890625 C 21.898438 -11.640625 22.515625 -9.957031 22.515625 -7.84375 C 22.515625 -6.1875 22.101562 -4.722656 21.28125 -3.453125 C 20.46875 -2.191406 19.285156 -1.21875 17.734375 -0.53125 C 16.191406 0.15625 14.351562 0.5 12.21875 0.5 Z M 12.21875 0.5 "/></g></g></g><g fill="#ffffff" fill-opacity="1"><g transform="translate(640.527757, 349.041828)"><g><path d="M 12.21875 0.5 C 10.4375 0.5 8.800781 0.289062 7.3125 -0.125 C 5.832031 -0.550781 4.566406 -1.128906 3.515625 -1.859375 C 2.460938 -2.585938 1.6875 -3.425781 1.1875 -4.375 L 4.828125 -8.3125 L 5.328125 -8.3125 C 6.191406 -7.144531 7.21875 -6.269531 8.40625 -5.6875 C 9.59375 -5.101562 10.878906 -4.8125 12.265625 -4.8125 C 13.546875 -4.8125 14.507812 -5.039062 15.15625 -5.5 C 15.800781 -5.957031 16.125 -6.609375 16.125 -7.453125 C 16.125 -8.117188 15.890625 -8.675781 15.421875 -9.125 C 14.960938 -9.570312 14.210938 -9.925781 13.171875 -10.1875 L 9.703125 -11.015625 C 7.117188 -11.628906 5.226562 -12.570312 4.03125 -13.84375 C 2.84375 -15.113281 2.25 -16.726562 2.25 -18.6875 C 2.25 -20.3125 2.660156 -21.722656 3.484375 -22.921875 C 4.316406 -24.117188 5.488281 -25.035156 7 -25.671875 C 8.507812 -26.304688 10.265625 -26.625 12.265625 -26.625 C 14.617188 -26.625 16.566406 -26.28125 18.109375 -25.59375 C 19.660156 -24.914062 20.867188 -24.007812 21.734375 -22.875 L 18.234375 -19.09375 L 17.765625 -19.09375 C 17.035156 -19.90625 16.21875 -20.5 15.3125 -20.875 C 14.40625 -21.257812 13.390625 -21.453125 12.265625 -21.453125 C 9.679688 -21.453125 8.390625 -20.648438 8.390625 -19.046875 C 8.390625 -18.359375 8.628906 -17.800781 9.109375 -17.375 C 9.585938 -16.957031 10.4375 -16.613281 11.65625 -16.34375 L 14.875 -15.625 C 17.519531 -15.0625 19.453125 -14.148438 20.671875 -12.890625 C 21.898438 -11.640625 22.515625 -9.957031 22.515625 -7.84375 C 22.515625 -6.1875 22.101562 -4.722656 21.28125 -3.453125 C 20.46875 -2.191406 19.285156 -1.21875 17.734375 -0.53125 C 16.191406 0.15625 14.351562 0.5 12.21875 0.5 Z M 12.21875 0.5 "/></g></g></g></svg>