<svg xmlns="http://www.w3.org/2000/svg" xmlns:xlink="http://www.w3.org/1999/xlink" width="500" zoomAndPan="magnify" viewBox="0 0 375 749.999995" height="1000" preserveAspectRatio="xMidYMid meet" version="1.0"><defs><g/><clipPath id="604770236a"><path d="M 9.375 0.00390625 L 308.625 0.00390625 L 308.625 536.25 L 9.375 536.25 Z M 9.375 0.00390625 " clip-rule="nonzero"/></clipPath><clipPath id="28550ab178"><path d="M 45.335938 0.00390625 L 272.664062 0.00390625 C 282.203125 0.00390625 291.347656 3.796875 298.09375 10.546875 C 304.835938 17.296875 308.625 26.449219 308.625 35.992188 L 308.625 500.257812 C 308.625 509.800781 304.835938 518.953125 298.09375 525.703125 C 291.347656 532.453125 282.203125 536.246094 272.664062 536.246094 L 45.335938 536.246094 C 35.796875 536.246094 26.652344 532.453125 19.90625 525.703125 C 13.164062 518.953125 9.375 509.800781 9.375 500.257812 L 9.375 35.992188 C 9.375 16.117188 25.476562 0.00390625 45.335938 0.00390625 " clip-rule="nonzero"/></clipPath><clipPath id="51878f0bc5"><path d="M 252.699219 37.5 L 365.199219 37.5 L 365.199219 111 L 252.699219 111 Z M 252.699219 37.5 " clip-rule="nonzero"/></clipPath><clipPath id="d5bec8489d"><path d="M 252.699219 37.5 L 337.074219 37.5 L 365.199219 74.121094 L 337.074219 110.742188 L 252.699219 110.742188 L 280.824219 74.121094 L 252.699219 37.5 " clip-rule="nonzero"/></clipPath><clipPath id="b2db1f85b5"><path d="M 48.089844 128.515625 L 252.839844 128.515625 L 252.839844 333.265625 L 48.089844 333.265625 Z M 48.089844 128.515625 " clip-rule="nonzero"/></clipPath></defs><g clip-path="url(#604770236a)"><g clip-path="url(#28550ab178)"><path stroke-linecap="butt" transform="matrix(0.749208, 0, 0, 0.749787, 9.375001, 0.00521562)" fill="none" stroke-linejoin="miter" d="M 47.998615 -0.00174632 L 351.423281 -0.00174632 C 364.15548 -0.00174632 376.36108 5.056982 385.365383 14.059539 C 394.364472 23.062096 399.421897 35.268688 399.421897 47.996261 L 399.421897 667.192956 C 399.421897 679.92053 394.364472 692.127122 385.365383 701.129678 C 376.36108 710.132235 364.15548 715.190964 351.423281 715.190964 L 47.998615 715.190964 C 35.266416 715.190964 23.060816 710.132235 14.056513 701.129678 C 5.057424 692.127122 -0.00000115872 679.92053 -0.00000115872 667.192956 L -0.00000115872 47.996261 C -0.00000115872 21.488732 21.49145 -0.00174632 47.998615 -0.00174632 " stroke="#082a71" stroke-width="8" stroke-opacity="1" stroke-miterlimit="4"/></g></g><g clip-path="url(#51878f0bc5)"><g clip-path="url(#d5bec8489d)"><path fill="#082a71" d="M 252.699219 37.5 L 365.199219 37.5 L 365.199219 111.328125 L 252.699219 111.328125 Z M 252.699219 37.5 " fill-opacity="1" fill-rule="nonzero"/></g></g><g fill="#082a71" fill-opacity="1"><g transform="translate(86.929685, 407.85)"><g><path d="M 16.1875 -28.3125 C 20.0625 -28.3125 23.285156 -26.859375 25.859375 -23.953125 L 22.03125 -21.140625 C 20.320312 -22.960938 18.382812 -23.875 16.21875 -23.875 C 13.4375 -23.875 11.160156 -22.921875 9.390625 -21.015625 C 7.628906 -19.117188 6.75 -16.78125 6.75 -14 C 6.75 -11.007812 7.628906 -8.550781 9.390625 -6.625 C 11.160156 -4.707031 13.4375 -3.75 16.21875 -3.75 C 18.582031 -3.75 20.648438 -4.863281 22.421875 -7.09375 L 26.484375 -4.21875 C 25.285156 -2.519531 23.773438 -1.273438 21.953125 -0.484375 C 20.140625 0.304688 18.21875 0.703125 16.1875 0.703125 C 11.84375 0.703125 8.320312 -0.644531 5.625 -3.34375 C 2.9375 -6.050781 1.59375 -9.5 1.59375 -13.6875 C 1.59375 -18.03125 2.929688 -21.550781 5.609375 -24.25 C 8.296875 -26.957031 11.820312 -28.3125 16.1875 -28.3125 Z M 16.1875 -28.3125 "/></g></g></g><g fill="#082a71" fill-opacity="1"><g transform="translate(113.644703, 407.85)"><g><path d="M 7.40625 -29.484375 L 7.40625 0 L 2.734375 0 L 2.734375 -29.484375 Z M 7.40625 -29.484375 "/></g></g></g><g fill="#082a71" fill-opacity="1"><g transform="translate(123.784717, 407.85)"><g><path d="M 5.03125 -27.890625 C 5.882812 -27.890625 6.601562 -27.617188 7.1875 -27.078125 C 7.78125 -26.546875 8.078125 -25.878906 8.078125 -25.078125 C 8.078125 -24.242188 7.773438 -23.566406 7.171875 -23.046875 C 6.578125 -22.523438 5.863281 -22.265625 5.03125 -22.265625 C 4.195312 -22.265625 3.492188 -22.546875 2.921875 -23.109375 C 2.347656 -23.671875 2.0625 -24.328125 2.0625 -25.078125 C 2.0625 -25.828125 2.347656 -26.484375 2.921875 -27.046875 C 3.492188 -27.609375 4.195312 -27.890625 5.03125 -27.890625 Z M 7.40625 -18.71875 L 7.40625 0 L 2.734375 0 L 2.734375 -18.71875 Z M 7.40625 -18.71875 "/></g></g></g><g fill="#082a71" fill-opacity="1"><g transform="translate(133.924731, 407.85)"><g><path d="M 11.890625 -19.1875 C 14.722656 -19.1875 16.988281 -18.238281 18.6875 -16.34375 L 15.4375 -13.109375 C 14.269531 -14.347656 13.085938 -14.96875 11.890625 -14.96875 C 10.234375 -14.96875 8.898438 -14.414062 7.890625 -13.3125 C 6.890625 -12.207031 6.390625 -10.890625 6.390625 -9.359375 C 6.390625 -7.691406 6.914062 -6.335938 7.96875 -5.296875 C 9.03125 -4.265625 10.335938 -3.75 11.890625 -3.75 C 13.398438 -3.75 14.609375 -4.332031 15.515625 -5.5 L 18.640625 -2.140625 C 17.910156 -1.410156 16.914062 -0.789062 15.65625 -0.28125 C 14.394531 0.21875 13.140625 0.46875 11.890625 0.46875 C 9.035156 0.46875 6.625 -0.4375 4.65625 -2.25 C 2.695312 -4.070312 1.71875 -6.441406 1.71875 -9.359375 C 1.71875 -12.191406 2.675781 -14.535156 4.59375 -16.390625 C 6.519531 -18.253906 8.953125 -19.1875 11.890625 -19.1875 Z M 11.890625 -19.1875 "/></g></g></g><g fill="#082a71" fill-opacity="1"><g transform="translate(152.72275, 407.85)"><g><path d="M 7.328125 -29.484375 L 7.328125 -10.953125 L 14.546875 -18.71875 L 20.546875 -18.71875 L 12.515625 -10.21875 L 21.0625 0 L 14.859375 0 L 7.40625 -9.5625 L 7.328125 -9.5625 L 7.328125 0 L 2.65625 0 L 2.65625 -29.484375 Z M 7.328125 -29.484375 "/></g></g></g><g fill="#082a71" fill-opacity="1"><g transform="translate(173.665768, 407.85)"><g/></g></g><g fill="#082a71" fill-opacity="1"><g transform="translate(185.209778, 407.85)"><g><path d="M 11.890625 -19.1875 C 14.753906 -19.1875 17.164062 -18.273438 19.125 -16.453125 C 21.09375 -14.640625 22.078125 -12.273438 22.078125 -9.359375 C 22.078125 -6.441406 21.09375 -4.070312 19.125 -2.25 C 17.164062 -0.4375 14.753906 0.46875 11.890625 0.46875 C 9.035156 0.46875 6.625 -0.4375 4.65625 -2.25 C 2.695312 -4.070312 1.71875 -6.441406 1.71875 -9.359375 C 1.71875 -12.273438 2.695312 -14.640625 4.65625 -16.453125 C 6.625 -18.273438 9.035156 -19.1875 11.890625 -19.1875 Z M 6.390625 -9.359375 C 6.390625 -7.691406 6.914062 -6.335938 7.96875 -5.296875 C 9.03125 -4.265625 10.335938 -3.75 11.890625 -3.75 C 13.484375 -3.75 14.796875 -4.273438 15.828125 -5.328125 C 16.867188 -6.378906 17.390625 -7.722656 17.390625 -9.359375 C 17.390625 -11.023438 16.863281 -12.375 15.8125 -13.40625 C 14.757812 -14.445312 13.441406 -14.96875 11.859375 -14.96875 C 10.328125 -14.96875 9.03125 -14.4375 7.96875 -13.375 C 6.914062 -12.3125 6.390625 -10.972656 6.390625 -9.359375 Z M 6.390625 -9.359375 "/></g></g></g><g fill="#082a71" fill-opacity="1"><g transform="translate(208.999801, 407.85)"><g><path d="M 12.90625 -19.1875 C 15.039062 -19.1875 16.710938 -18.546875 17.921875 -17.265625 C 19.128906 -15.992188 19.734375 -14.226562 19.734375 -11.96875 L 19.734375 0 L 15.046875 0 L 15.046875 -9.71875 C 15.046875 -13.21875 13.90625 -14.96875 11.625 -14.96875 C 10.300781 -14.96875 9.253906 -14.539062 8.484375 -13.6875 C 7.710938 -12.832031 7.328125 -11.703125 7.328125 -10.296875 L 7.328125 0 L 2.65625 0 L 2.65625 -18.71875 L 7.09375 -18.71875 L 7.09375 -15.71875 L 7.171875 -15.71875 C 8.242188 -18.03125 10.15625 -19.1875 12.90625 -19.1875 Z M 12.90625 -19.1875 "/></g></g></g><g fill="#082a71" fill-opacity="1"><g transform="translate(44.320312, 461.849997)"><g><path d="M 12.28125 -28.3125 C 15.507812 -28.3125 18.148438 -27.363281 20.203125 -25.46875 L 16.609375 -21.6875 C 15.546875 -23.144531 13.9375 -23.875 11.78125 -23.875 C 10.375 -23.875 9.265625 -23.550781 8.453125 -22.90625 C 7.648438 -22.269531 7.25 -21.40625 7.25 -20.3125 C 7.25 -19.382812 7.617188 -18.640625 8.359375 -18.078125 C 9.109375 -17.515625 10.171875 -17.015625 11.546875 -16.578125 C 14.273438 -15.742188 16.140625 -14.988281 17.140625 -14.3125 C 18.140625 -13.632812 18.925781 -12.800781 19.5 -11.8125 C 20.070312 -10.820312 20.359375 -9.585938 20.359375 -8.109375 C 20.359375 -5.429688 19.429688 -3.289062 17.578125 -1.6875 C 15.734375 -0.09375 13.359375 0.703125 10.453125 0.703125 C 6.398438 0.703125 3.316406 -0.546875 1.203125 -3.046875 L 4.90625 -6.625 C 5.507812 -5.71875 6.289062 -5.007812 7.25 -4.5 C 8.21875 -4 9.257812 -3.75 10.375 -3.75 C 11.800781 -3.75 12.960938 -4.117188 13.859375 -4.859375 C 14.753906 -5.597656 15.203125 -6.488281 15.203125 -7.53125 C 15.203125 -8.570312 14.828125 -9.398438 14.078125 -10.015625 C 13.328125 -10.640625 12.050781 -11.226562 10.25 -11.78125 C 7.9375 -12.507812 6.257812 -13.207031 5.21875 -13.875 C 4.1875 -14.550781 3.410156 -15.378906 2.890625 -16.359375 C 2.367188 -17.335938 2.109375 -18.539062 2.109375 -19.96875 C 2.109375 -22.46875 3.050781 -24.484375 4.9375 -26.015625 C 6.820312 -27.546875 9.269531 -28.3125 12.28125 -28.3125 Z M 12.28125 -28.3125 "/></g></g></g><g fill="#082a71" fill-opacity="1"><g transform="translate(66.706327, 461.849997)"><g><path d="M 9.015625 -24.140625 L 9.015625 -18.71875 L 14.15625 -18.71875 L 14.15625 -14.734375 L 9.015625 -14.734375 L 9.015625 -6.4375 C 9.015625 -4.488281 9.882812 -3.515625 11.625 -3.515625 C 12.789062 -3.515625 13.632812 -3.707031 14.15625 -4.09375 L 14.15625 -0.15625 C 13.269531 0.257812 12.035156 0.46875 10.453125 0.46875 C 8.296875 0.46875 6.734375 -0.00390625 5.765625 -0.953125 C 4.804688 -1.898438 4.328125 -3.570312 4.328125 -5.96875 L 4.328125 -14.734375 L 0.46875 -14.734375 L 0.46875 -18.71875 L 4.328125 -18.71875 L 4.328125 -24.140625 Z M 9.015625 -24.140625 "/></g></g></g><g fill="#082a71" fill-opacity="1"><g transform="translate(81.877335, 461.849997)"><g><path d="M 10.5625 -19.1875 C 13.25 -19.1875 15.253906 -18.539062 16.578125 -17.25 C 17.898438 -15.96875 18.5625 -13.945312 18.5625 -11.1875 L 18.5625 0 L 14.359375 0 L 14.359375 -2.578125 L 14.234375 -2.578125 C 12.960938 -0.546875 10.960938 0.46875 8.234375 0.46875 C 6.203125 0.46875 4.554688 -0.0546875 3.296875 -1.109375 C 2.035156 -2.160156 1.40625 -3.503906 1.40625 -5.140625 C 1.40625 -7.328125 2.3125 -8.957031 4.125 -10.03125 C 5.945312 -11.113281 8.875 -11.65625 12.90625 -11.65625 L 14.359375 -11.65625 L 14.359375 -12.203125 C 14.359375 -13.296875 13.96875 -14.144531 13.1875 -14.75 C 12.40625 -15.363281 11.363281 -15.671875 10.0625 -15.671875 C 8.132812 -15.671875 6.46875 -15.023438 5.0625 -13.734375 L 2.609375 -16.1875 C 4.554688 -18.1875 7.207031 -19.1875 10.5625 -19.1875 Z M 6.078125 -5.5 C 6.078125 -4.695312 6.410156 -4.085938 7.078125 -3.671875 C 7.742188 -3.253906 8.519531 -3.046875 9.40625 -3.046875 C 11.007812 -3.046875 12.1875 -3.441406 12.9375 -4.234375 C 13.695312 -5.023438 14.078125 -6.019531 14.078125 -7.21875 L 14.078125 -8.390625 L 12.71875 -8.390625 C 8.289062 -8.390625 6.078125 -7.425781 6.078125 -5.5 Z M 6.078125 -5.5 "/></g></g></g><g fill="#082a71" fill-opacity="1"><g transform="translate(102.820354, 461.849997)"><g><path d="M 12.953125 -19.1875 C 13.335938 -19.1875 13.894531 -19.097656 14.625 -18.921875 L 14.625 -14.390625 C 13.820312 -14.617188 13.066406 -14.734375 12.359375 -14.734375 C 10.828125 -14.734375 9.601562 -14.28125 8.6875 -13.375 C 7.78125 -12.46875 7.328125 -11.257812 7.328125 -9.75 L 7.328125 0 L 2.65625 0 L 2.65625 -18.71875 L 7.328125 -18.71875 L 7.328125 -15.75 L 7.40625 -15.75 C 7.925781 -16.84375 8.664062 -17.6875 9.625 -18.28125 C 10.59375 -18.882812 11.703125 -19.1875 12.953125 -19.1875 Z M 12.953125 -19.1875 "/></g></g></g><g fill="#082a71" fill-opacity="1"><g transform="translate(117.991362, 461.849997)"><g><path d="M 9.015625 -24.140625 L 9.015625 -18.71875 L 14.15625 -18.71875 L 14.15625 -14.734375 L 9.015625 -14.734375 L 9.015625 -6.4375 C 9.015625 -4.488281 9.882812 -3.515625 11.625 -3.515625 C 12.789062 -3.515625 13.632812 -3.707031 14.15625 -4.09375 L 14.15625 -0.15625 C 13.269531 0.257812 12.035156 0.46875 10.453125 0.46875 C 8.296875 0.46875 6.734375 -0.00390625 5.765625 -0.953125 C 4.804688 -1.898438 4.328125 -3.570312 4.328125 -5.96875 L 4.328125 -14.734375 L 0.46875 -14.734375 L 0.46875 -18.71875 L 4.328125 -18.71875 L 4.328125 -24.140625 Z M 9.015625 -24.140625 "/></g></g></g><g fill="#082a71" fill-opacity="1"><g transform="translate(133.16237, 461.849997)"><g/></g></g><g fill="#082a71" fill-opacity="1"><g transform="translate(144.70638, 461.849997)"><g><path d="M 12.5625 -27.609375 C 15.757812 -27.609375 18.222656 -26.910156 19.953125 -25.515625 C 21.679688 -24.128906 22.546875 -22.1875 22.546875 -19.6875 C 22.546875 -16.800781 21.671875 -14.703125 19.921875 -13.390625 C 18.179688 -12.078125 15.46875 -11.421875 11.78125 -11.421875 L 8 -11.421875 L 8 0 L 3.078125 0 L 3.078125 -27.609375 Z M 11.1875 -15.640625 C 13.476562 -15.640625 15.082031 -15.960938 16 -16.609375 C 16.925781 -17.265625 17.390625 -18.238281 17.390625 -19.53125 C 17.390625 -22.113281 15.476562 -23.40625 11.65625 -23.40625 L 8 -23.40625 L 8 -15.640625 Z M 11.1875 -15.640625 "/></g></g></g><g fill="#082a71" fill-opacity="1"><g transform="translate(168.535404, 461.849997)"><g><path d="M 12.953125 -19.1875 C 13.335938 -19.1875 13.894531 -19.097656 14.625 -18.921875 L 14.625 -14.390625 C 13.820312 -14.617188 13.066406 -14.734375 12.359375 -14.734375 C 10.828125 -14.734375 9.601562 -14.28125 8.6875 -13.375 C 7.78125 -12.46875 7.328125 -11.257812 7.328125 -9.75 L 7.328125 0 L 2.65625 0 L 2.65625 -18.71875 L 7.328125 -18.71875 L 7.328125 -15.75 L 7.40625 -15.75 C 7.925781 -16.84375 8.664062 -17.6875 9.625 -18.28125 C 10.59375 -18.882812 11.703125 -19.1875 12.953125 -19.1875 Z M 12.953125 -19.1875 "/></g></g></g><g fill="#082a71" fill-opacity="1"><g transform="translate(183.706412, 461.849997)"><g><path d="M 11.890625 -19.1875 C 14.753906 -19.1875 17.164062 -18.273438 19.125 -16.453125 C 21.09375 -14.640625 22.078125 -12.273438 22.078125 -9.359375 C 22.078125 -6.441406 21.09375 -4.070312 19.125 -2.25 C 17.164062 -0.4375 14.753906 0.46875 11.890625 0.46875 C 9.035156 0.46875 6.625 -0.4375 4.65625 -2.25 C 2.695312 -4.070312 1.71875 -6.441406 1.71875 -9.359375 C 1.71875 -12.273438 2.695312 -14.640625 4.65625 -16.453125 C 6.625 -18.273438 9.035156 -19.1875 11.890625 -19.1875 Z M 6.390625 -9.359375 C 6.390625 -7.691406 6.914062 -6.335938 7.96875 -5.296875 C 9.03125 -4.265625 10.335938 -3.75 11.890625 -3.75 C 13.484375 -3.75 14.796875 -4.273438 15.828125 -5.328125 C 16.867188 -6.378906 17.390625 -7.722656 17.390625 -9.359375 C 17.390625 -11.023438 16.863281 -12.375 15.8125 -13.40625 C 14.757812 -14.445312 13.441406 -14.96875 11.859375 -14.96875 C 10.328125 -14.96875 9.03125 -14.4375 7.96875 -13.375 C 6.914062 -12.3125 6.390625 -10.972656 6.390625 -9.359375 Z M 6.390625 -9.359375 "/></g></g></g><g fill="#082a71" fill-opacity="1"><g transform="translate(207.496435, 461.849997)"><g><path d="M 5.03125 -27.890625 C 5.882812 -27.890625 6.601562 -27.617188 7.1875 -27.078125 C 7.78125 -26.546875 8.078125 -25.878906 8.078125 -25.078125 C 8.078125 -24.242188 7.773438 -23.566406 7.171875 -23.046875 C 6.578125 -22.523438 5.863281 -22.265625 5.03125 -22.265625 C 4.195312 -22.265625 3.492188 -22.546875 2.921875 -23.109375 C 2.347656 -23.671875 2.0625 -24.328125 2.0625 -25.078125 C 2.0625 -25.828125 2.347656 -26.484375 2.921875 -27.046875 C 3.492188 -27.609375 4.195312 -27.890625 5.03125 -27.890625 Z M 7.40625 -18.71875 L 7.40625 1.359375 C 7.40625 4.242188 6.898438 6.296875 5.890625 7.515625 C 4.878906 8.742188 3.28125 9.359375 1.09375 9.359375 C 0.101562 9.359375 -0.738281 9.242188 -1.4375 9.015625 L -1.09375 4.953125 C -0.675781 5.054688 -0.179688 5.117188 0.390625 5.140625 C 1.171875 5.140625 1.753906 4.878906 2.140625 4.359375 C 2.535156 3.847656 2.734375 2.863281 2.734375 1.40625 L 2.734375 -18.71875 Z M 7.40625 -18.71875 "/></g></g></g><g fill="#082a71" fill-opacity="1"><g transform="translate(217.636449, 461.849997)"><g><path d="M 11.890625 -19.1875 C 14.703125 -19.1875 16.867188 -18.25 18.390625 -16.375 C 19.910156 -14.507812 20.671875 -12.066406 20.671875 -9.046875 L 20.671875 -7.71875 L 6.390625 -7.71875 C 6.546875 -6.363281 7.085938 -5.285156 8.015625 -4.484375 C 8.941406 -3.679688 10.078125 -3.28125 11.421875 -3.28125 C 13.398438 -3.28125 15.078125 -4.125 16.453125 -5.8125 L 19.8125 -3.28125 C 17.78125 -0.78125 15.140625 0.46875 11.890625 0.46875 C 9.035156 0.46875 6.625 -0.4375 4.65625 -2.25 C 2.695312 -4.070312 1.71875 -6.441406 1.71875 -9.359375 C 1.71875 -12.273438 2.695312 -14.640625 4.65625 -16.453125 C 6.625 -18.273438 9.035156 -19.1875 11.890625 -19.1875 Z M 15.984375 -11.234375 C 15.960938 -12.710938 15.507812 -13.820312 14.625 -14.5625 C 13.738281 -15.300781 12.59375 -15.671875 11.1875 -15.671875 C 9.789062 -15.671875 8.6875 -15.257812 7.875 -14.4375 C 7.070312 -13.625 6.578125 -12.554688 6.390625 -11.234375 Z M 15.984375 -11.234375 "/></g></g></g><g fill="#082a71" fill-opacity="1"><g transform="translate(240.022465, 461.849997)"><g><path d="M 11.890625 -19.1875 C 14.722656 -19.1875 16.988281 -18.238281 18.6875 -16.34375 L 15.4375 -13.109375 C 14.269531 -14.347656 13.085938 -14.96875 11.890625 -14.96875 C 10.234375 -14.96875 8.898438 -14.414062 7.890625 -13.3125 C 6.890625 -12.207031 6.390625 -10.890625 6.390625 -9.359375 C 6.390625 -7.691406 6.914062 -6.335938 7.96875 -5.296875 C 9.03125 -4.265625 10.335938 -3.75 11.890625 -3.75 C 13.398438 -3.75 14.609375 -4.332031 15.515625 -5.5 L 18.640625 -2.140625 C 17.910156 -1.410156 16.914062 -0.789062 15.65625 -0.28125 C 14.394531 0.21875 13.140625 0.46875 11.890625 0.46875 C 9.035156 0.46875 6.625 -0.4375 4.65625 -2.25 C 2.695312 -4.070312 1.71875 -6.441406 1.71875 -9.359375 C 1.71875 -12.191406 2.675781 -14.535156 4.59375 -16.390625 C 6.519531 -18.253906 8.953125 -19.1875 11.890625 -19.1875 Z M 11.890625 -19.1875 "/></g></g></g><g fill="#082a71" fill-opacity="1"><g transform="translate(258.820483, 461.849997)"><g><path d="M 9.015625 -24.140625 L 9.015625 -18.71875 L 14.15625 -18.71875 L 14.15625 -14.734375 L 9.015625 -14.734375 L 9.015625 -6.4375 C 9.015625 -4.488281 9.882812 -3.515625 11.625 -3.515625 C 12.789062 -3.515625 13.632812 -3.707031 14.15625 -4.09375 L 14.15625 -0.15625 C 13.269531 0.257812 12.035156 0.46875 10.453125 0.46875 C 8.296875 0.46875 6.734375 -0.00390625 5.765625 -0.953125 C 4.804688 -1.898438 4.328125 -3.570312 4.328125 -5.96875 L 4.328125 -14.734375 L 0.46875 -14.734375 L 0.46875 -18.71875 L 4.328125 -18.71875 L 4.328125 -24.140625 Z M 9.015625 -24.140625 "/></g></g></g><g clip-path="url(#b2db1f85b5)"><path fill="#082a71" d="M 150.46875 333.273438 C 206.855469 333.273438 252.847656 287.28125 252.847656 230.894531 C 252.847656 174.503906 206.855469 128.515625 150.46875 128.515625 C 94.078125 128.515625 48.089844 174.503906 48.089844 230.894531 C 48.089844 287.28125 94.078125 333.273438 150.46875 333.273438 " fill-opacity="1" fill-rule="evenodd"/></g><path fill="#fffffe" d="M 94.480469 200.851562 L 206.457031 200.851562 L 206.457031 260.933594 L 94.480469 260.933594 Z M 100.648438 221.265625 C 100.65625 222.773438 100.871094 224.113281 101.273438 225.285156 C 101.6875 226.457031 102.226562 227.515625 102.90625 228.453125 C 103.578125 229.386719 104.316406 230.25 105.128906 231.035156 C 105.929688 231.820312 106.742188 232.578125 107.542969 233.300781 C 108.355469 234.023438 109.097656 234.765625 109.765625 235.523438 C 110.445312 236.273438 110.984375 237.09375 111.398438 237.964844 C 111.804688 238.839844 112.015625 239.808594 112.023438 240.890625 C 112.023438 241.765625 111.902344 242.46875 111.652344 243 C 111.40625 243.53125 111.0625 243.910156 110.613281 244.148438 C 110.164062 244.375 109.625 244.5 109.007812 244.488281 C 108.390625 244.5 107.851562 244.382812 107.402344 244.148438 C 106.953125 243.910156 106.609375 243.53125 106.363281 243 C 106.117188 242.46875 105.992188 241.773438 105.992188 240.890625 L 105.992188 238.246094 L 100.488281 238.246094 L 100.488281 240.523438 C 100.488281 242.507812 100.816406 244.183594 101.46875 245.566406 C 102.121094 246.949219 103.09375 248.007812 104.378906 248.742188 C 105.667969 249.464844 107.261719 249.824219 109.167969 249.835938 C 111.070312 249.824219 112.667969 249.464844 113.953125 248.742188 C 115.242188 248.007812 116.210938 246.949219 116.867188 245.566406 C 117.519531 244.183594 117.84375 242.507812 117.84375 240.523438 C 117.835938 239.015625 117.625 237.675781 117.214844 236.5 C 116.804688 235.328125 116.265625 234.269531 115.585938 233.335938 C 114.914062 232.402344 114.175781 231.535156 113.363281 230.753906 C 112.5625 229.964844 111.75 229.210938 110.949219 228.484375 C 110.136719 227.761719 109.394531 227.023438 108.726562 226.265625 C 108.046875 225.515625 107.507812 224.695312 107.09375 223.820312 C 106.691406 222.949219 106.476562 221.96875 106.46875 220.894531 C 106.476562 219.578125 106.722656 218.644531 107.226562 218.074219 C 107.730469 217.507812 108.445312 217.226562 109.378906 217.242188 C 110.3125 217.226562 111.027344 217.507812 111.53125 218.074219 C 112.03125 218.644531 112.28125 219.578125 112.289062 220.894531 L 112.289062 222.429688 L 117.792969 222.429688 L 117.792969 221.265625 C 117.792969 219.28125 117.464844 217.597656 116.828125 216.210938 C 116.1875 214.828125 115.226562 213.777344 113.953125 213.046875 C 112.683594 212.324219 111.105469 211.960938 109.21875 211.953125 C 107.332031 211.960938 105.753906 212.324219 104.484375 213.046875 C 103.214844 213.777344 102.253906 214.828125 101.609375 216.210938 C 100.976562 217.597656 100.648438 219.28125 100.648438 221.265625 Z M 120.320312 217.667969 L 126.40625 217.667969 L 126.40625 249.410156 L 132.226562 249.410156 L 132.226562 217.667969 L 138.308594 217.667969 L 138.308594 212.375 L 120.320312 212.375 Z M 152.582031 212.375 L 144.066406 212.375 L 138.140625 249.410156 L 143.484375 249.410156 L 144.488281 242.691406 L 151.632812 242.691406 L 152.636719 249.410156 L 158.507812 249.410156 Z M 148.035156 218.9375 L 145.230469 237.664062 L 150.835938 237.664062 Z M 180.136719 249.410156 C 179.855469 248.730469 179.679688 248.035156 179.601562 247.320312 C 179.53125 246.605469 179.492188 245.804688 179.503906 244.914062 L 179.503906 239.199219 C 179.511719 237.914062 179.386719 236.75 179.152344 235.707031 C 178.902344 234.675781 178.5 233.785156 177.933594 233.046875 C 177.371094 232.304688 176.601562 231.722656 175.640625 231.316406 C 176.9375 230.707031 177.890625 229.78125 178.515625 228.53125 C 179.144531 227.285156 179.453125 225.707031 179.453125 223.804688 L 179.453125 220.894531 C 179.460938 218.988281 179.160156 217.402344 178.550781 216.140625 C 177.953125 214.878906 177.015625 213.9375 175.746094 213.3125 C 174.46875 212.683594 172.828125 212.375 170.828125 212.375 L 162.042969 212.375 L 162.042969 249.410156 L 167.863281 249.410156 L 167.863281 234.332031 L 169.875 234.332031 C 170.757812 234.324219 171.480469 234.480469 172.035156 234.792969 C 172.597656 235.097656 173.015625 235.601562 173.289062 236.289062 C 173.550781 236.988281 173.683594 237.90625 173.683594 239.039062 L 173.683594 244.859375 C 173.683594 245.609375 173.699219 246.226562 173.71875 246.714844 C 173.746094 247.199219 173.78125 247.59375 173.832031 247.914062 C 173.875 248.21875 173.929688 248.492188 174.003906 248.722656 C 174.0625 248.953125 174.132812 249.179688 174.214844 249.410156 Z M 170.667969 217.667969 L 167.863281 217.667969 L 167.863281 229.042969 L 170.140625 229.042969 C 170.863281 229.050781 171.488281 228.925781 172.007812 228.6875 C 172.53125 228.441406 172.925781 228.027344 173.207031 227.457031 C 173.488281 226.882812 173.632812 226.105469 173.632812 225.125 L 173.632812 221.476562 C 173.640625 220.164062 173.402344 219.191406 172.925781 218.574219 C 172.449219 217.96875 171.691406 217.65625 170.667969 217.667969 Z M 182.457031 217.667969 L 188.539062 217.667969 L 188.539062 249.410156 L 194.359375 249.410156 L 194.359375 217.667969 L 200.445312 217.667969 L 200.445312 212.375 L 182.457031 212.375 L 182.457031 217.667969 " fill-opacity="1" fill-rule="nonzero"/></svg>