<svg xmlns="http://www.w3.org/2000/svg" xmlns:xlink="http://www.w3.org/1999/xlink" width="500" zoomAndPan="magnify" viewBox="0 0 375 749.999995" height="1000" preserveAspectRatio="xMidYMid meet" version="1.0"><defs><g/><clipPath id="a83da17dd2"><path d="M 9.375 0.0078125 L 308.625 0.0078125 L 308.625 531.75 L 9.375 531.75 Z M 9.375 0.0078125 " clip-rule="nonzero"/></clipPath><clipPath id="5ffb4f3437"><path d="M 45.335938 0.0078125 L 272.664062 0.0078125 C 282.203125 0.0078125 291.347656 3.800781 298.09375 10.554688 C 304.835938 17.308594 308.625 26.46875 308.625 36.019531 L 308.625 495.730469 C 308.625 505.28125 304.835938 514.441406 298.09375 521.195312 C 291.347656 527.949219 282.203125 531.742188 272.664062 531.742188 L 45.335938 531.742188 C 35.796875 531.742188 26.652344 527.949219 19.90625 521.195312 C 13.164062 514.441406 9.375 505.28125 9.375 495.730469 L 9.375 36.019531 C 9.375 16.128906 25.476562 0.0078125 45.335938 0.0078125 " clip-rule="nonzero"/></clipPath><clipPath id="9fe83fdfe0"><path d="M 252.699219 37.5 L 365.199219 37.5 L 365.199219 111 L 252.699219 111 Z M 252.699219 37.5 " clip-rule="nonzero"/></clipPath><clipPath id="94643f843c"><path d="M 252.699219 37.5 L 337.074219 37.5 L 365.199219 74.121094 L 337.074219 110.742188 L 252.699219 110.742188 L 280.824219 74.121094 L 252.699219 37.5 " clip-rule="nonzero"/></clipPath></defs><g clip-path="url(#a83da17dd2)"><g clip-path="url(#5ffb4f3437)"><path stroke-linecap="butt" transform="matrix(0.749208, 0, 0, 0.750281, 9.375001, 0.00655119)" fill="none" stroke-linejoin="miter" d="M 47.998615 0.00168112 L 351.423281 0.00168112 C 364.15548 0.00168112 376.36108 5.057078 385.365383 14.058912 C 394.364472 23.060747 399.421897 35.269713 399.421897 47.999317 L 399.421897 660.717587 C 399.421897 673.447191 394.364472 685.656157 385.365383 694.657991 C 376.36108 703.659826 364.15548 708.715222 351.423281 708.715222 L 47.998615 708.715222 C 35.266416 708.715222 23.060816 703.659826 14.056513 694.657991 C 5.057424 685.656157 -0.00000115872 673.447191 -0.00000115872 660.717587 L -0.00000115872 47.999317 C -0.00000115872 21.48842 21.49145 0.00168112 47.998615 0.00168112 " stroke="#082a71" stroke-width="8" stroke-opacity="1" stroke-miterlimit="4"/></g></g><g clip-path="url(#9fe83fdfe0)"><g clip-path="url(#94643f843c)"><path fill="#082a71" d="M 252.699219 37.5 L 365.199219 37.5 L 365.199219 111.328125 L 252.699219 111.328125 Z M 252.699219 37.5 " fill-opacity="1" fill-rule="nonzero"/></g></g><path fill="#082a71" d="M 165.789062 133.511719 C 150.0625 132.574219 134.855469 135.042969 120.527344 140.835938 C 119.15625 141.367188 118.289062 142.710938 118.289062 144.242188 C 118.289062 144.878906 118.417969 145.457031 118.691406 145.976562 C 119.601562 147.695312 121.609375 148.417969 123.386719 147.695312 C 136.703125 142.292969 150.855469 140.011719 165.5 140.921875 C 212.710938 143.894531 251.214844 181.617188 255.113281 228.671875 C 257.453125 256.949219 247.34375 284.664062 227.382812 304.695312 C 207.410156 324.726562 179.710938 334.90625 151.449219 332.667969 C 105.824219 329 68.085938 291.914062 63.652344 246.421875 C 61.226562 221.292969 68.476562 196.683594 84.074219 177.097656 C 84.726562 176.273438 85.707031 175.769531 86.746094 175.710938 C 87.84375 175.65625 88.828125 176.042969 89.578125 176.796875 L 93.839844 181.054688 L 96.453125 159.117188 L 74.5 161.890625 L 79.050781 166.222656 C 80.390625 167.566406 80.492188 169.703125 79.28125 171.175781 C 62.382812 191.773438 54.136719 217.855469 56.070312 244.644531 C 59.710938 294.714844 100.164062 335.703125 150.175781 339.976562 C 179.855469 342.488281 209.1875 332.292969 230.632812 311.914062 C 252.066406 291.539062 263.792969 262.882812 262.78125 233.277344 C 260.992188 180.550781 218.386719 136.71875 165.789062 133.511719 " fill-opacity="1" fill-rule="nonzero"/><path fill="#082a71" d="M 158.320312 188.925781 L 120.886719 199.832031 L 159.320312 210.820312 L 197.75 199.832031 L 160.316406 188.925781 C 159.664062 188.738281 158.972656 188.738281 158.320312 188.925781 " fill-opacity="1" fill-rule="nonzero"/><path fill="#082a71" d="M 143.910156 239.039062 C 142.796875 239.039062 141.683594 238.867188 140.585938 238.550781 L 111.253906 229.828125 L 111.253906 274.886719 L 155.621094 287.539062 L 155.621094 229.839844 L 154.019531 232.945312 C 152.039062 236.757812 148.097656 239.027344 143.910156 239.039062 " fill-opacity="1" fill-rule="nonzero"/><path fill="#082a71" d="M 214.386719 218.808594 C 214.804688 218 214.890625 217.089844 214.632812 216.238281 L 209.058594 204.292969 L 164.675781 216.972656 L 171.191406 229.539062 C 172.042969 231.199219 174.078125 232.007812 175.941406 231.457031 L 212.019531 220.742188 C 213.058594 220.425781 213.910156 219.746094 214.386719 218.808594 " fill-opacity="1" fill-rule="nonzero"/><path fill="#082a71" d="M 164.617188 232.945312 L 163.015625 229.839844 L 163.015625 287.550781 L 207.367188 274.886719 L 207.382812 229.828125 L 178.050781 238.550781 C 176.953125 238.867188 175.839844 239.027344 174.726562 239.027344 C 170.539062 239.027344 166.597656 236.757812 164.617188 232.945312 " fill-opacity="1" fill-rule="nonzero"/><path fill="#082a71" d="M 104.003906 216.238281 C 103.746094 217.089844 103.832031 218 104.25 218.808594 C 104.726562 219.746094 105.578125 220.425781 106.621094 220.742188 L 142.695312 231.457031 C 144.542969 232.023438 146.59375 231.183594 147.445312 229.550781 L 153.960938 216.972656 L 109.578125 204.292969 L 104.003906 216.238281 " fill-opacity="1" fill-rule="nonzero"/><g fill="#082a71" fill-opacity="1"><g transform="translate(63.117186, 407.85)"><g><path d="M 21.375 -27.609375 L 21.375 -23.171875 L 8 -23.171875 L 8 -16.375 L 20.671875 -16.375 L 20.671875 -11.9375 L 8 -11.9375 L 8 -4.453125 L 22.078125 -4.453125 L 22.078125 0 L 3.078125 0 L 3.078125 -27.609375 Z M 21.375 -27.609375 "/></g></g></g><g fill="#082a71" fill-opacity="1"><g transform="translate(86.94621, 407.85)"><g><path d="M 12.90625 -19.1875 C 15.039062 -19.1875 16.710938 -18.546875 17.921875 -17.265625 C 19.128906 -15.992188 19.734375 -14.226562 19.734375 -11.96875 L 19.734375 0 L 15.046875 0 L 15.046875 -9.71875 C 15.046875 -13.21875 13.90625 -14.96875 11.625 -14.96875 C 10.300781 -14.96875 9.253906 -14.539062 8.484375 -13.6875 C 7.710938 -12.832031 7.328125 -11.703125 7.328125 -10.296875 L 7.328125 0 L 2.65625 0 L 2.65625 -18.71875 L 7.09375 -18.71875 L 7.09375 -15.71875 L 7.171875 -15.71875 C 8.242188 -18.03125 10.15625 -19.1875 12.90625 -19.1875 Z M 12.90625 -19.1875 "/></g></g></g><g fill="#082a71" fill-opacity="1"><g transform="translate(109.332225, 407.85)"><g><path d="M 9.015625 -24.140625 L 9.015625 -18.71875 L 14.15625 -18.71875 L 14.15625 -14.734375 L 9.015625 -14.734375 L 9.015625 -6.4375 C 9.015625 -4.488281 9.882812 -3.515625 11.625 -3.515625 C 12.789062 -3.515625 13.632812 -3.707031 14.15625 -4.09375 L 14.15625 -0.15625 C 13.269531 0.257812 12.035156 0.46875 10.453125 0.46875 C 8.296875 0.46875 6.734375 -0.00390625 5.765625 -0.953125 C 4.804688 -1.898438 4.328125 -3.570312 4.328125 -5.96875 L 4.328125 -14.734375 L 0.46875 -14.734375 L 0.46875 -18.71875 L 4.328125 -18.71875 L 4.328125 -24.140625 Z M 9.015625 -24.140625 "/></g></g></g><g fill="#082a71" fill-opacity="1"><g transform="translate(124.503234, 407.85)"><g><path d="M 11.890625 -19.1875 C 14.703125 -19.1875 16.867188 -18.25 18.390625 -16.375 C 19.910156 -14.507812 20.671875 -12.066406 20.671875 -9.046875 L 20.671875 -7.71875 L 6.390625 -7.71875 C 6.546875 -6.363281 7.085938 -5.285156 8.015625 -4.484375 C 8.941406 -3.679688 10.078125 -3.28125 11.421875 -3.28125 C 13.398438 -3.28125 15.078125 -4.125 16.453125 -5.8125 L 19.8125 -3.28125 C 17.78125 -0.78125 15.140625 0.46875 11.890625 0.46875 C 9.035156 0.46875 6.625 -0.4375 4.65625 -2.25 C 2.695312 -4.070312 1.71875 -6.441406 1.71875 -9.359375 C 1.71875 -12.273438 2.695312 -14.640625 4.65625 -16.453125 C 6.625 -18.273438 9.035156 -19.1875 11.890625 -19.1875 Z M 15.984375 -11.234375 C 15.960938 -12.710938 15.507812 -13.820312 14.625 -14.5625 C 13.738281 -15.300781 12.59375 -15.671875 11.1875 -15.671875 C 9.789062 -15.671875 8.6875 -15.257812 7.875 -14.4375 C 7.070312 -13.625 6.578125 -12.554688 6.390625 -11.234375 Z M 15.984375 -11.234375 "/></g></g></g><g fill="#082a71" fill-opacity="1"><g transform="translate(146.889249, 407.85)"><g><path d="M 12.953125 -19.1875 C 13.335938 -19.1875 13.894531 -19.097656 14.625 -18.921875 L 14.625 -14.390625 C 13.820312 -14.617188 13.066406 -14.734375 12.359375 -14.734375 C 10.828125 -14.734375 9.601562 -14.28125 8.6875 -13.375 C 7.78125 -12.46875 7.328125 -11.257812 7.328125 -9.75 L 7.328125 0 L 2.65625 0 L 2.65625 -18.71875 L 7.328125 -18.71875 L 7.328125 -15.75 L 7.40625 -15.75 C 7.925781 -16.84375 8.664062 -17.6875 9.625 -18.28125 C 10.59375 -18.882812 11.703125 -19.1875 12.953125 -19.1875 Z M 12.953125 -19.1875 "/></g></g></g><g fill="#082a71" fill-opacity="1"><g transform="translate(162.060257, 407.85)"><g/></g></g><g fill="#082a71" fill-opacity="1"><g transform="translate(173.604267, 407.85)"><g><path d="M 5.265625 -18.71875 L 10.484375 -5.734375 L 10.5625 -5.734375 L 15.25 -18.71875 L 20.125 -18.71875 L 11.578125 3.203125 C 10.742188 5.222656 10.039062 6.570312 9.46875 7.25 C 8.90625 7.925781 8.207031 8.445312 7.375 8.8125 C 6.539062 9.175781 5.460938 9.359375 4.140625 9.359375 C 2.910156 9.359375 1.710938 9.203125 0.546875 8.890625 L 1.125 4.6875 C 2.007812 4.988281 2.804688 5.140625 3.515625 5.140625 C 4.472656 5.140625 5.203125 4.976562 5.703125 4.65625 C 6.210938 4.332031 6.742188 3.507812 7.296875 2.1875 L 8.109375 0.15625 L 0.109375 -18.71875 Z M 5.265625 -18.71875 "/></g></g></g><g fill="#082a71" fill-opacity="1"><g transform="translate(193.845283, 407.85)"><g><path d="M 11.890625 -19.1875 C 14.753906 -19.1875 17.164062 -18.273438 19.125 -16.453125 C 21.09375 -14.640625 22.078125 -12.273438 22.078125 -9.359375 C 22.078125 -6.441406 21.09375 -4.070312 19.125 -2.25 C 17.164062 -0.4375 14.753906 0.46875 11.890625 0.46875 C 9.035156 0.46875 6.625 -0.4375 4.65625 -2.25 C 2.695312 -4.070312 1.71875 -6.441406 1.71875 -9.359375 C 1.71875 -12.273438 2.695312 -14.640625 4.65625 -16.453125 C 6.625 -18.273438 9.035156 -19.1875 11.890625 -19.1875 Z M 6.390625 -9.359375 C 6.390625 -7.691406 6.914062 -6.335938 7.96875 -5.296875 C 9.03125 -4.265625 10.335938 -3.75 11.890625 -3.75 C 13.484375 -3.75 14.796875 -4.273438 15.828125 -5.328125 C 16.867188 -6.378906 17.390625 -7.722656 17.390625 -9.359375 C 17.390625 -11.023438 16.863281 -12.375 15.8125 -13.40625 C 14.757812 -14.445312 13.441406 -14.96875 11.859375 -14.96875 C 10.328125 -14.96875 9.03125 -14.4375 7.96875 -13.375 C 6.914062 -12.3125 6.390625 -10.972656 6.390625 -9.359375 Z M 6.390625 -9.359375 "/></g></g></g><g fill="#082a71" fill-opacity="1"><g transform="translate(217.635305, 407.85)"><g><path d="M 7.328125 -18.71875 L 7.328125 -9.046875 C 7.328125 -7.171875 7.613281 -5.816406 8.1875 -4.984375 C 8.757812 -4.160156 9.617188 -3.75 10.765625 -3.75 C 12.171875 -3.75 13.234375 -4.175781 13.953125 -5.03125 C 14.679688 -5.882812 15.046875 -7.039062 15.046875 -8.5 L 15.046875 -18.71875 L 19.734375 -18.71875 L 19.734375 0 L 15.28125 0 L 15.28125 -3 L 15.203125 -3 C 14.117188 -0.6875 12.210938 0.46875 9.484375 0.46875 C 7.367188 0.46875 5.703125 -0.160156 4.484375 -1.421875 C 3.265625 -2.679688 2.65625 -4.457031 2.65625 -6.75 L 2.65625 -18.71875 Z M 7.328125 -18.71875 "/></g></g></g><g fill="#082a71" fill-opacity="1"><g transform="translate(240.021321, 407.85)"><g><path d="M 12.953125 -19.1875 C 13.335938 -19.1875 13.894531 -19.097656 14.625 -18.921875 L 14.625 -14.390625 C 13.820312 -14.617188 13.066406 -14.734375 12.359375 -14.734375 C 10.828125 -14.734375 9.601562 -14.28125 8.6875 -13.375 C 7.78125 -12.46875 7.328125 -11.257812 7.328125 -9.75 L 7.328125 0 L 2.65625 0 L 2.65625 -18.71875 L 7.328125 -18.71875 L 7.328125 -15.75 L 7.40625 -15.75 C 7.925781 -16.84375 8.664062 -17.6875 9.625 -18.28125 C 10.59375 -18.882812 11.703125 -19.1875 12.953125 -19.1875 Z M 12.953125 -19.1875 "/></g></g></g><g fill="#082a71" fill-opacity="1"><g transform="translate(87.304685, 461.849997)"><g><path d="M 12.5625 -27.609375 C 15.757812 -27.609375 18.222656 -26.910156 19.953125 -25.515625 C 21.679688 -24.128906 22.546875 -22.1875 22.546875 -19.6875 C 22.546875 -16.800781 21.671875 -14.703125 19.921875 -13.390625 C 18.179688 -12.078125 15.46875 -11.421875 11.78125 -11.421875 L 8 -11.421875 L 8 0 L 3.078125 0 L 3.078125 -27.609375 Z M 11.1875 -15.640625 C 13.476562 -15.640625 15.082031 -15.960938 16 -16.609375 C 16.925781 -17.265625 17.390625 -18.238281 17.390625 -19.53125 C 17.390625 -22.113281 15.476562 -23.40625 11.65625 -23.40625 L 8 -23.40625 L 8 -15.640625 Z M 11.1875 -15.640625 "/></g></g></g><g fill="#082a71" fill-opacity="1"><g transform="translate(111.133709, 461.849997)"><g><path d="M 12.953125 -19.1875 C 13.335938 -19.1875 13.894531 -19.097656 14.625 -18.921875 L 14.625 -14.390625 C 13.820312 -14.617188 13.066406 -14.734375 12.359375 -14.734375 C 10.828125 -14.734375 9.601562 -14.28125 8.6875 -13.375 C 7.78125 -12.46875 7.328125 -11.257812 7.328125 -9.75 L 7.328125 0 L 2.65625 0 L 2.65625 -18.71875 L 7.328125 -18.71875 L 7.328125 -15.75 L 7.40625 -15.75 C 7.925781 -16.84375 8.664062 -17.6875 9.625 -18.28125 C 10.59375 -18.882812 11.703125 -19.1875 12.953125 -19.1875 Z M 12.953125 -19.1875 "/></g></g></g><g fill="#082a71" fill-opacity="1"><g transform="translate(126.304717, 461.849997)"><g><path d="M 11.890625 -19.1875 C 14.753906 -19.1875 17.164062 -18.273438 19.125 -16.453125 C 21.09375 -14.640625 22.078125 -12.273438 22.078125 -9.359375 C 22.078125 -6.441406 21.09375 -4.070312 19.125 -2.25 C 17.164062 -0.4375 14.753906 0.46875 11.890625 0.46875 C 9.035156 0.46875 6.625 -0.4375 4.65625 -2.25 C 2.695312 -4.070312 1.71875 -6.441406 1.71875 -9.359375 C 1.71875 -12.273438 2.695312 -14.640625 4.65625 -16.453125 C 6.625 -18.273438 9.035156 -19.1875 11.890625 -19.1875 Z M 6.390625 -9.359375 C 6.390625 -7.691406 6.914062 -6.335938 7.96875 -5.296875 C 9.03125 -4.265625 10.335938 -3.75 11.890625 -3.75 C 13.484375 -3.75 14.796875 -4.273438 15.828125 -5.328125 C 16.867188 -6.378906 17.390625 -7.722656 17.390625 -9.359375 C 17.390625 -11.023438 16.863281 -12.375 15.8125 -13.40625 C 14.757812 -14.445312 13.441406 -14.96875 11.859375 -14.96875 C 10.328125 -14.96875 9.03125 -14.4375 7.96875 -13.375 C 6.914062 -12.3125 6.390625 -10.972656 6.390625 -9.359375 Z M 6.390625 -9.359375 "/></g></g></g><g fill="#082a71" fill-opacity="1"><g transform="translate(150.09474, 461.849997)"><g><path d="M 21.921875 -29.484375 L 21.921875 0 L 17.46875 0 L 17.46875 -2.8125 L 17.390625 -2.8125 C 16.085938 -0.625 13.929688 0.46875 10.921875 0.46875 C 8.140625 0.46875 5.910156 -0.453125 4.234375 -2.296875 C 2.554688 -4.140625 1.71875 -6.492188 1.71875 -9.359375 C 1.71875 -12.117188 2.5625 -14.445312 4.25 -16.34375 C 5.9375 -18.238281 8.109375 -19.1875 10.765625 -19.1875 C 13.441406 -19.1875 15.5625 -18.238281 17.125 -16.34375 L 17.234375 -16.34375 L 17.234375 -29.484375 Z M 6.390625 -9.359375 C 6.390625 -7.691406 6.914062 -6.335938 7.96875 -5.296875 C 9.03125 -4.265625 10.335938 -3.75 11.890625 -3.75 C 13.535156 -3.75 14.863281 -4.285156 15.875 -5.359375 C 16.882812 -6.441406 17.390625 -7.773438 17.390625 -9.359375 C 17.390625 -10.972656 16.863281 -12.3125 15.8125 -13.375 C 14.757812 -14.4375 13.453125 -14.96875 11.890625 -14.96875 C 10.359375 -14.96875 9.054688 -14.441406 7.984375 -13.390625 C 6.921875 -12.335938 6.390625 -10.992188 6.390625 -9.359375 Z M 6.390625 -9.359375 "/></g></g></g><g fill="#082a71" fill-opacity="1"><g transform="translate(174.664758, 461.849997)"><g><path d="M 7.328125 -18.71875 L 7.328125 -9.046875 C 7.328125 -7.171875 7.613281 -5.816406 8.1875 -4.984375 C 8.757812 -4.160156 9.617188 -3.75 10.765625 -3.75 C 12.171875 -3.75 13.234375 -4.175781 13.953125 -5.03125 C 14.679688 -5.882812 15.046875 -7.039062 15.046875 -8.5 L 15.046875 -18.71875 L 19.734375 -18.71875 L 19.734375 0 L 15.28125 0 L 15.28125 -3 L 15.203125 -3 C 14.117188 -0.6875 12.210938 0.46875 9.484375 0.46875 C 7.367188 0.46875 5.703125 -0.160156 4.484375 -1.421875 C 3.265625 -2.679688 2.65625 -4.457031 2.65625 -6.75 L 2.65625 -18.71875 Z M 7.328125 -18.71875 "/></g></g></g><g fill="#082a71" fill-opacity="1"><g transform="translate(197.050773, 461.849997)"><g><path d="M 11.890625 -19.1875 C 14.722656 -19.1875 16.988281 -18.238281 18.6875 -16.34375 L 15.4375 -13.109375 C 14.269531 -14.347656 13.085938 -14.96875 11.890625 -14.96875 C 10.234375 -14.96875 8.898438 -14.414062 7.890625 -13.3125 C 6.890625 -12.207031 6.390625 -10.890625 6.390625 -9.359375 C 6.390625 -7.691406 6.914062 -6.335938 7.96875 -5.296875 C 9.03125 -4.265625 10.335938 -3.75 11.890625 -3.75 C 13.398438 -3.75 14.609375 -4.332031 15.515625 -5.5 L 18.640625 -2.140625 C 17.910156 -1.410156 16.914062 -0.789062 15.65625 -0.28125 C 14.394531 0.21875 13.140625 0.46875 11.890625 0.46875 C 9.035156 0.46875 6.625 -0.4375 4.65625 -2.25 C 2.695312 -4.070312 1.71875 -6.441406 1.71875 -9.359375 C 1.71875 -12.191406 2.675781 -14.535156 4.59375 -16.390625 C 6.519531 -18.253906 8.953125 -19.1875 11.890625 -19.1875 Z M 11.890625 -19.1875 "/></g></g></g><g fill="#082a71" fill-opacity="1"><g transform="translate(215.848792, 461.849997)"><g><path d="M 9.015625 -24.140625 L 9.015625 -18.71875 L 14.15625 -18.71875 L 14.15625 -14.734375 L 9.015625 -14.734375 L 9.015625 -6.4375 C 9.015625 -4.488281 9.882812 -3.515625 11.625 -3.515625 C 12.789062 -3.515625 13.632812 -3.707031 14.15625 -4.09375 L 14.15625 -0.15625 C 13.269531 0.257812 12.035156 0.46875 10.453125 0.46875 C 8.296875 0.46875 6.734375 -0.00390625 5.765625 -0.953125 C 4.804688 -1.898438 4.328125 -3.570312 4.328125 -5.96875 L 4.328125 -14.734375 L 0.46875 -14.734375 L 0.46875 -18.71875 L 4.328125 -18.71875 L 4.328125 -24.140625 Z M 9.015625 -24.140625 "/></g></g></g></svg>