<svg xmlns="http://www.w3.org/2000/svg" xmlns:xlink="http://www.w3.org/1999/xlink" width="1200" zoomAndPan="magnify" viewBox="0 0 900 525.000007" height="700" preserveAspectRatio="xMidYMid meet" version="1.0"><defs><g/><clipPath id="e6c2672791"><path d="M 37.375 133.585938 L 847 133.585938 L 847 461 L 37.375 461 Z M 37.375 133.585938 " clip-rule="nonzero"/></clipPath><clipPath id="b7397ccf9a"><path d="M 711.578125 133.585938 C 786.226562 133.585938 846.746094 206.714844 846.746094 296.921875 C 846.746094 387.128906 786.226562 460.257812 711.578125 460.257812 L 172.542969 460.257812 C 97.890625 460.257812 37.375 387.128906 37.375 296.921875 C 37.375 206.714844 97.890625 133.585938 172.542969 133.585938 L 711.578125 133.585938 " clip-rule="nonzero"/></clipPath><clipPath id="a17d7c7939"><path d="M 96.933594 31.058594 L 277.023438 31.058594 L 277.023438 211.152344 L 96.933594 211.152344 Z M 96.933594 31.058594 " clip-rule="nonzero"/></clipPath><clipPath id="6f709f2212"><path d="M 186.976562 31.058594 C 137.246094 31.058594 96.933594 71.375 96.933594 121.105469 C 96.933594 170.835938 137.246094 211.152344 186.976562 211.152344 C 236.710938 211.152344 277.023438 170.835938 277.023438 121.105469 C 277.023438 71.375 236.710938 31.058594 186.976562 31.058594 " clip-rule="nonzero"/></clipPath><clipPath id="7bb1c7aac3"><path d="M 96.933594 31.058594 L 277.339844 31.058594 L 277.339844 211.464844 L 96.933594 211.464844 Z M 96.933594 31.058594 " clip-rule="nonzero"/></clipPath><clipPath id="b33d46b3db"><path d="M 187.136719 31.058594 C 137.316406 31.058594 96.933594 71.445312 96.933594 121.261719 C 96.933594 171.082031 137.316406 211.464844 187.136719 211.464844 C 236.953125 211.464844 277.339844 171.082031 277.339844 121.261719 C 277.339844 71.445312 236.953125 31.058594 187.136719 31.058594 " clip-rule="nonzero"/></clipPath></defs><g clip-path="url(#e6c2672791)"><g clip-path="url(#b7397ccf9a)"><path fill="#082a71" d="M 37.375 133.585938 L 848.371094 133.585938 L 848.371094 463.054688 L 37.375 463.054688 Z M 37.375 133.585938 " fill-opacity="1" fill-rule="nonzero"/></g></g><g clip-path="url(#a17d7c7939)"><g clip-path="url(#6f709f2212)"><path fill="#ffffff" d="M 96.933594 31.058594 L 277.023438 31.058594 L 277.023438 211.152344 L 96.933594 211.152344 Z M 96.933594 31.058594 " fill-opacity="1" fill-rule="nonzero"/></g></g><g clip-path="url(#7bb1c7aac3)"><g clip-path="url(#b33d46b3db)"><path stroke-linecap="butt" transform="matrix(0.749887, 0, 0, 0.749887, 96.93221, 31.059077)" fill="none" stroke-linejoin="miter" d="M 120.290838 -0.00064418 C 53.853725 -0.00064418 0.00184508 53.856445 0.00184508 120.288349 C 0.00184508 186.725462 53.853725 240.577342 120.290838 240.577342 C 186.722742 240.577342 240.579831 186.725462 240.579831 120.288349 C 240.579831 53.856445 186.722742 -0.00064418 120.290838 -0.00064418 " stroke="#55b700" stroke-width="14" stroke-opacity="1" stroke-miterlimit="4"/></g></g><g fill="#000000" fill-opacity="1"><g transform="translate(118.341986, 128.727957)"><g><path d="M 14.765625 -33.296875 C 18.398438 -33.296875 21.367188 -32.488281 23.671875 -30.875 C 25.972656 -29.257812 27.179688 -26.757812 27.296875 -23.375 L 20.671875 -23.09375 C 20.460938 -24.613281 19.90625 -25.785156 19 -26.609375 C 18.101562 -27.441406 16.664062 -27.859375 14.6875 -27.859375 C 13.3125 -27.859375 12.039062 -27.613281 10.875 -27.125 C 9.71875 -26.632812 9.140625 -25.796875 9.140625 -24.609375 C 9.140625 -23.597656 9.65625 -22.796875 10.6875 -22.203125 C 11.726562 -21.609375 13.578125 -21.003906 16.234375 -20.390625 C 18.703125 -19.816406 20.738281 -19.203125 22.34375 -18.546875 C 23.945312 -17.890625 25.328125 -16.835938 26.484375 -15.390625 C 27.640625 -13.941406 28.21875 -11.984375 28.21875 -9.515625 C 28.21875 -8.265625 27.925781 -6.9375 27.34375 -5.53125 C 26.769531 -4.132812 25.828125 -2.929688 24.515625 -1.921875 C 23.535156 -1.128906 22.242188 -0.519531 20.640625 -0.09375 C 19.046875 0.332031 17.195312 0.546875 15.09375 0.546875 C 11.007812 0.546875 7.867188 -0.375 5.671875 -2.21875 C 3.472656 -4.0625 2.128906 -6.875 1.640625 -10.65625 L 8.046875 -11.25 C 8.742188 -7.070312 11.125 -4.984375 15.1875 -4.984375 C 17.320312 -4.984375 18.925781 -5.429688 20 -6.328125 C 21.082031 -7.234375 21.625 -8.296875 21.625 -9.515625 C 21.625 -10.398438 21.359375 -11.097656 20.828125 -11.609375 C 20.296875 -12.128906 19.457031 -12.578125 18.3125 -12.953125 C 17.175781 -13.335938 15.382812 -13.820312 12.9375 -14.40625 C 9.894531 -15.070312 7.445312 -16.195312 5.59375 -17.78125 C 3.75 -19.375 2.828125 -21.492188 2.828125 -24.140625 C 2.828125 -25.578125 3.191406 -26.988281 3.921875 -28.375 C 4.660156 -29.757812 5.921875 -30.925781 7.703125 -31.875 C 9.484375 -32.820312 11.835938 -33.296875 14.765625 -33.296875 Z M 14.765625 -33.296875 "/></g></g></g><g fill="#000000" fill-opacity="1"><g transform="translate(148.849184, 128.727957)"><g><path d="M 9.875 -23.6875 L 14.125 -23.6875 L 14.125 -18.703125 L 9.875 -18.703125 L 9.875 -8.28125 C 9.875 -7.269531 9.910156 -6.519531 9.984375 -6.03125 C 10.066406 -5.550781 10.226562 -5.203125 10.46875 -4.984375 C 10.71875 -4.773438 11.097656 -4.671875 11.609375 -4.671875 C 12.253906 -4.671875 13.09375 -4.867188 14.125 -5.265625 L 14.6875 -0.40625 C 14.039062 -0.101562 13.257812 0.128906 12.34375 0.296875 C 11.425781 0.460938 10.554688 0.546875 9.734375 0.546875 C 8.546875 0.546875 7.492188 0.347656 6.578125 -0.046875 C 5.671875 -0.441406 5.003906 -0.972656 4.578125 -1.640625 C 4.117188 -2.410156 3.832031 -3.257812 3.71875 -4.1875 C 3.613281 -5.113281 3.5625 -6.28125 3.5625 -7.6875 L 3.5625 -18.703125 L 0.6875 -18.703125 L 0.6875 -23.6875 L 3.5625 -23.6875 L 3.5625 -28.40625 L 9.875 -32.109375 Z M 9.875 -23.6875 "/></g></g></g><g fill="#000000" fill-opacity="1"><g transform="translate(164.079927, 128.727957)"><g><path d="M 12.34375 -24.234375 C 16.125 -24.234375 18.941406 -23.003906 20.796875 -20.546875 C 22.660156 -18.097656 23.59375 -14.601562 23.59375 -10.0625 L 7.859375 -10.0625 C 7.921875 -8.476562 8.382812 -7.113281 9.25 -5.96875 C 10.125 -4.820312 11.382812 -4.25 13.03125 -4.25 C 14.070312 -4.25 14.921875 -4.515625 15.578125 -5.046875 C 16.234375 -5.585938 16.710938 -6.421875 17.015625 -7.546875 L 23.28125 -6.5 C 22.488281 -4.175781 21.207031 -2.421875 19.4375 -1.234375 C 17.664062 -0.046875 15.5 0.546875 12.9375 0.546875 C 9.125 0.546875 6.242188 -0.59375 4.296875 -2.875 C 3.378906 -3.945312 2.675781 -5.289062 2.1875 -6.90625 C 1.707031 -8.519531 1.46875 -10.117188 1.46875 -11.703125 C 1.46875 -13.867188 1.851562 -15.90625 2.625 -17.8125 C 3.40625 -19.71875 4.609375 -21.265625 6.234375 -22.453125 C 7.867188 -23.640625 9.90625 -24.234375 12.34375 -24.234375 Z M 8 -13.90625 L 17.375 -13.90625 C 17.34375 -15.820312 16.863281 -17.222656 15.9375 -18.109375 C 15.007812 -18.992188 13.921875 -19.4375 12.671875 -19.4375 C 11.203125 -19.4375 10.054688 -18.910156 9.234375 -17.859375 C 8.410156 -16.804688 8 -15.488281 8 -13.90625 Z M 8 -13.90625 "/></g></g></g><g fill="#000000" fill-opacity="1"><g transform="translate(189.510192, 128.727957)"><g><path d="M 16.328125 -24.234375 C 18.066406 -24.234375 19.691406 -23.757812 21.203125 -22.8125 C 22.710938 -21.875 23.929688 -20.457031 24.859375 -18.5625 C 25.785156 -16.675781 26.25 -14.359375 26.25 -11.609375 C 26.25 -8.960938 25.796875 -6.722656 24.890625 -4.890625 C 23.992188 -3.066406 22.789062 -1.703125 21.28125 -0.796875 C 19.78125 0.0976562 18.113281 0.546875 16.28125 0.546875 C 13.59375 0.546875 11.289062 -0.550781 9.375 -2.75 L 9.375 9.015625 L 3.109375 9.015625 L 3.109375 -23.6875 L 8.96875 -23.6875 L 8.96875 -20.21875 L 9.0625 -20.21875 C 9.789062 -21.3125 10.800781 -22.253906 12.09375 -23.046875 C 13.394531 -23.835938 14.804688 -24.234375 16.328125 -24.234375 Z M 9.828125 -15.359375 C 9.492188 -14.390625 9.328125 -13.050781 9.328125 -11.34375 C 9.328125 -9 9.820312 -7.226562 10.8125 -6.03125 C 11.800781 -4.84375 13.0625 -4.25 14.59375 -4.25 C 16.445312 -4.25 17.773438 -4.976562 18.578125 -6.4375 C 19.390625 -7.90625 19.796875 -9.722656 19.796875 -11.890625 C 19.796875 -14.421875 19.316406 -16.28125 18.359375 -17.46875 C 17.398438 -18.65625 16.203125 -19.25 14.765625 -19.25 C 13.703125 -19.25 12.71875 -18.910156 11.8125 -18.234375 C 10.914062 -17.566406 10.253906 -16.609375 9.828125 -15.359375 Z M 9.828125 -15.359375 "/></g></g></g><g fill="#000000" fill-opacity="1"><g transform="translate(217.456039, 128.727957)"><g/></g></g><g fill="#000000" fill-opacity="1"><g transform="translate(230.1712, 128.727957)"><g><path d="M 13.859375 -32.890625 C 16.296875 -32.890625 18.359375 -32.1875 20.046875 -30.78125 C 21.742188 -29.375 22.773438 -27.363281 23.140625 -24.75 L 17.109375 -24.0625 C 16.953125 -25.1875 16.578125 -26.066406 15.984375 -26.703125 C 15.390625 -27.347656 14.546875 -27.671875 13.453125 -27.671875 C 11.773438 -27.671875 10.550781 -26.875 9.78125 -25.28125 C 9.019531 -23.695312 8.59375 -21.441406 8.5 -18.515625 C 9.144531 -19.335938 9.953125 -19.992188 10.921875 -20.484375 C 11.898438 -20.972656 13 -21.21875 14.21875 -21.21875 C 15.957031 -21.21875 17.550781 -20.773438 19 -19.890625 C 20.445312 -19.003906 21.601562 -17.742188 22.46875 -16.109375 C 23.34375 -14.484375 23.78125 -12.617188 23.78125 -10.515625 C 23.78125 -8.347656 23.335938 -6.425781 22.453125 -4.75 C 21.566406 -3.070312 20.332031 -1.769531 18.75 -0.84375 C 17.164062 0.0820312 15.335938 0.546875 13.265625 0.546875 C 11.679688 0.546875 10.175781 0.234375 8.75 -0.390625 C 7.332031 -1.015625 6.140625 -1.96875 5.171875 -3.25 C 4.066406 -4.707031 3.25 -6.457031 2.71875 -8.5 C 2.1875 -10.550781 1.921875 -13.050781 1.921875 -16 C 1.921875 -21.34375 2.925781 -25.492188 4.9375 -28.453125 C 6.945312 -31.410156 9.921875 -32.890625 13.859375 -32.890625 Z M 8.96875 -11.0625 C 8.96875 -9.300781 9.378906 -7.796875 10.203125 -6.546875 C 11.023438 -5.296875 12.148438 -4.671875 13.578125 -4.671875 C 14.953125 -4.671875 15.96875 -5.207031 16.625 -6.28125 C 17.28125 -7.363281 17.609375 -8.773438 17.609375 -10.515625 C 17.609375 -12.253906 17.253906 -13.707031 16.546875 -14.875 C 15.847656 -16.050781 14.753906 -16.640625 13.265625 -16.640625 C 12.160156 -16.640625 11.164062 -16.207031 10.28125 -15.34375 C 9.40625 -14.476562 8.96875 -13.050781 8.96875 -11.0625 Z M 8.96875 -11.0625 "/></g></g></g><g fill="#ffffff" fill-opacity="1"><g transform="translate(149.266177, 302.814218)"><g><path d="M 15.28125 -35.21875 C 19.289062 -35.21875 22.570312 -34.035156 25.125 -31.671875 L 20.65625 -26.96875 C 19.332031 -28.78125 17.328125 -29.6875 14.640625 -29.6875 C 12.898438 -29.6875 11.523438 -29.289062 10.515625 -28.5 C 9.515625 -27.707031 9.015625 -26.628906 9.015625 -25.265625 C 9.015625 -24.097656 9.472656 -23.164062 10.390625 -22.46875 C 11.316406 -21.78125 12.640625 -21.160156 14.359375 -20.609375 C 17.753906 -19.578125 20.070312 -18.640625 21.3125 -17.796875 C 22.5625 -16.953125 23.539062 -15.914062 24.25 -14.6875 C 24.957031 -13.46875 25.3125 -11.9375 25.3125 -10.09375 C 25.3125 -6.757812 24.164062 -4.097656 21.875 -2.109375 C 19.582031 -0.117188 16.625 0.875 13 0.875 C 7.957031 0.875 4.125 -0.675781 1.5 -3.78125 L 6.109375 -8.25 C 6.847656 -7.113281 7.816406 -6.226562 9.015625 -5.59375 C 10.210938 -4.96875 11.507812 -4.65625 12.90625 -4.65625 C 14.675781 -4.65625 16.117188 -5.113281 17.234375 -6.03125 C 18.359375 -6.957031 18.921875 -8.066406 18.921875 -9.359375 C 18.921875 -10.648438 18.453125 -11.679688 17.515625 -12.453125 C 16.578125 -13.234375 14.988281 -13.960938 12.75 -14.640625 C 9.875 -15.546875 7.789062 -16.421875 6.5 -17.265625 C 5.207031 -18.109375 4.238281 -19.132812 3.59375 -20.34375 C 2.945312 -21.5625 2.625 -23.054688 2.625 -24.828125 C 2.625 -27.929688 3.796875 -30.4375 6.140625 -32.34375 C 8.484375 -34.257812 11.53125 -35.21875 15.28125 -35.21875 Z M 15.28125 -35.21875 "/></g></g></g><g fill="#ffffff" fill-opacity="1"><g transform="translate(177.094799, 302.814218)"><g><path d="M 6.25 -34.671875 C 7.320312 -34.671875 8.222656 -34.335938 8.953125 -33.671875 C 9.679688 -33.015625 10.046875 -32.1875 10.046875 -31.1875 C 10.046875 -30.15625 9.671875 -29.3125 8.921875 -28.65625 C 8.179688 -28.007812 7.289062 -27.6875 6.25 -27.6875 C 5.21875 -27.6875 4.347656 -28.035156 3.640625 -28.734375 C 2.929688 -29.429688 2.578125 -30.25 2.578125 -31.1875 C 2.578125 -32.125 2.929688 -32.9375 3.640625 -33.625 C 4.347656 -34.320312 5.21875 -34.671875 6.25 -34.671875 Z M 9.21875 -23.28125 L 9.21875 0 L 3.390625 0 L 3.390625 -23.28125 Z M 9.21875 -23.28125 "/></g></g></g><g fill="#ffffff" fill-opacity="1"><g transform="translate(189.700099, 302.814218)"><g><path d="M 13.578125 -23.859375 C 17.328125 -23.859375 20.007812 -22.5 21.625 -19.78125 L 21.734375 -19.78125 L 21.734375 -23.28125 L 27.25 -23.28125 L 27.25 -1.890625 C 27.25 2.304688 26.15625 5.609375 23.96875 8.015625 C 21.789062 10.429688 18.503906 11.640625 14.109375 11.640625 C 9.328125 11.640625 5.484375 10.363281 2.578125 7.8125 L 6.0625 3.0625 C 8.488281 5.289062 11.15625 6.40625 14.0625 6.40625 C 16.78125 6.40625 18.6875 5.71875 19.78125 4.34375 C 20.882812 2.96875 21.4375 0.988281 21.4375 -1.59375 L 21.4375 -3.109375 L 21.34375 -3.109375 C 19.53125 -0.835938 16.988281 0.296875 13.71875 0.296875 C 10.363281 0.296875 7.59375 -0.828125 5.40625 -3.078125 C 3.226562 -5.328125 2.140625 -8.179688 2.140625 -11.640625 C 2.140625 -15.191406 3.179688 -18.113281 5.265625 -20.40625 C 7.347656 -22.707031 10.117188 -23.859375 13.578125 -23.859375 Z M 7.953125 -11.6875 C 7.953125 -9.75 8.625 -8.140625 9.96875 -6.859375 C 11.3125 -5.585938 12.921875 -4.953125 14.796875 -4.953125 C 16.890625 -4.953125 18.566406 -5.597656 19.828125 -6.890625 C 21.097656 -8.179688 21.734375 -9.8125 21.734375 -11.78125 C 21.734375 -13.914062 21.09375 -15.585938 19.8125 -16.796875 C 18.53125 -18.015625 16.859375 -18.625 14.796875 -18.625 C 12.785156 -18.625 11.140625 -17.992188 9.859375 -16.734375 C 8.585938 -15.472656 7.953125 -13.789062 7.953125 -11.6875 Z M 7.953125 -11.6875 "/></g></g></g><g fill="#ffffff" fill-opacity="1"><g transform="translate(220.243708, 302.814218)"><g><path d="M 16.046875 -23.859375 C 18.703125 -23.859375 20.78125 -23.066406 22.28125 -21.484375 C 23.789062 -19.898438 24.546875 -17.703125 24.546875 -14.890625 L 24.546875 0 L 18.71875 0 L 18.71875 -12.078125 C 18.71875 -16.441406 17.296875 -18.625 14.453125 -18.625 C 12.804688 -18.625 11.503906 -18.085938 10.546875 -17.015625 C 9.597656 -15.953125 9.125 -14.546875 9.125 -12.796875 L 9.125 0 L 3.296875 0 L 3.296875 -23.28125 L 8.828125 -23.28125 L 8.828125 -19.546875 L 8.921875 -19.546875 C 10.242188 -22.421875 12.617188 -23.859375 16.046875 -23.859375 Z M 16.046875 -23.859375 "/></g></g></g><g fill="#ffffff" fill-opacity="1"><g transform="translate(248.07233, 302.814218)"><g/></g></g><g fill="#ffffff" fill-opacity="1"><g transform="translate(262.422974, 302.814218)"><g><path d="M 13.140625 -23.859375 C 16.472656 -23.859375 18.960938 -23.054688 20.609375 -21.453125 C 22.265625 -19.859375 23.09375 -17.347656 23.09375 -13.921875 L 23.09375 0 L 17.84375 0 L 17.84375 -3.203125 L 17.703125 -3.203125 C 16.117188 -0.679688 13.628906 0.578125 10.234375 0.578125 C 7.710938 0.578125 5.664062 -0.0703125 4.09375 -1.375 C 2.53125 -2.6875 1.75 -4.363281 1.75 -6.40625 C 1.75 -9.113281 2.878906 -11.140625 5.140625 -12.484375 C 7.398438 -13.828125 11.035156 -14.5 16.046875 -14.5 L 17.84375 -14.5 L 17.84375 -15.1875 C 17.84375 -16.539062 17.359375 -17.597656 16.390625 -18.359375 C 15.421875 -19.117188 14.128906 -19.5 12.515625 -19.5 C 10.117188 -19.5 8.050781 -18.691406 6.3125 -17.078125 L 3.25 -20.125 C 5.675781 -22.613281 8.972656 -23.859375 13.140625 -23.859375 Z M 7.5625 -6.84375 C 7.5625 -5.832031 7.972656 -5.066406 8.796875 -4.546875 C 9.628906 -4.035156 10.59375 -3.78125 11.6875 -3.78125 C 13.695312 -3.78125 15.171875 -4.269531 16.109375 -5.25 C 17.046875 -6.238281 17.515625 -7.476562 17.515625 -8.96875 L 17.515625 -10.421875 L 15.8125 -10.421875 C 10.3125 -10.421875 7.5625 -9.226562 7.5625 -6.84375 Z M 7.5625 -6.84375 "/></g></g></g><g fill="#ffffff" fill-opacity="1"><g transform="translate(288.457765, 302.814218)"><g><path d="M 16.046875 -23.859375 C 18.703125 -23.859375 20.78125 -23.066406 22.28125 -21.484375 C 23.789062 -19.898438 24.546875 -17.703125 24.546875 -14.890625 L 24.546875 0 L 18.71875 0 L 18.71875 -12.078125 C 18.71875 -16.441406 17.296875 -18.625 14.453125 -18.625 C 12.804688 -18.625 11.503906 -18.085938 10.546875 -17.015625 C 9.597656 -15.953125 9.125 -14.546875 9.125 -12.796875 L 9.125 0 L 3.296875 0 L 3.296875 -23.28125 L 8.828125 -23.28125 L 8.828125 -19.546875 L 8.921875 -19.546875 C 10.242188 -22.421875 12.617188 -23.859375 16.046875 -23.859375 Z M 16.046875 -23.859375 "/></g></g></g><g fill="#ffffff" fill-opacity="1"><g transform="translate(316.286387, 302.814218)"><g><path d="M 27.25 -36.671875 L 27.25 0 L 21.734375 0 L 21.734375 -3.484375 L 21.625 -3.484375 C 20.007812 -0.773438 17.328125 0.578125 13.578125 0.578125 C 10.117188 0.578125 7.347656 -0.566406 5.265625 -2.859375 C 3.179688 -5.160156 2.140625 -8.085938 2.140625 -11.640625 C 2.140625 -15.066406 3.1875 -17.957031 5.28125 -20.3125 C 7.382812 -22.675781 10.085938 -23.859375 13.390625 -23.859375 C 16.710938 -23.859375 19.347656 -22.679688 21.296875 -20.328125 L 21.4375 -20.328125 L 21.4375 -36.671875 Z M 7.953125 -11.640625 C 7.953125 -9.566406 8.601562 -7.882812 9.90625 -6.59375 C 11.21875 -5.300781 12.847656 -4.65625 14.796875 -4.65625 C 16.828125 -4.65625 18.472656 -5.328125 19.734375 -6.671875 C 20.992188 -8.015625 21.625 -9.671875 21.625 -11.640625 C 21.625 -13.640625 20.96875 -15.300781 19.65625 -16.625 C 18.351562 -17.957031 16.734375 -18.625 14.796875 -18.625 C 12.890625 -18.625 11.269531 -17.96875 9.9375 -16.65625 C 8.613281 -15.351562 7.953125 -13.679688 7.953125 -11.640625 Z M 7.953125 -11.640625 "/></g></g></g><g fill="#ffffff" fill-opacity="1"><g transform="translate(346.829984, 302.814218)"><g/></g></g><g fill="#ffffff" fill-opacity="1"><g transform="translate(361.18064, 302.814218)"><g><path d="M 9.125 -23.28125 L 9.125 -11.25 C 9.125 -8.925781 9.476562 -7.242188 10.1875 -6.203125 C 10.894531 -5.171875 11.960938 -4.65625 13.390625 -4.65625 C 15.128906 -4.65625 16.453125 -5.1875 17.359375 -6.25 C 18.265625 -7.320312 18.71875 -8.765625 18.71875 -10.578125 L 18.71875 -23.28125 L 24.546875 -23.28125 L 24.546875 0 L 19.015625 0 L 19.015625 -3.734375 L 18.921875 -3.734375 C 17.554688 -0.859375 15.175781 0.578125 11.78125 0.578125 C 9.164062 0.578125 7.097656 -0.203125 5.578125 -1.765625 C 4.054688 -3.335938 3.296875 -5.546875 3.296875 -8.390625 L 3.296875 -23.28125 Z M 9.125 -23.28125 "/></g></g></g><g fill="#ffffff" fill-opacity="1"><g transform="translate(389.009262, 302.814218)"><g><path d="M 16.96875 -23.859375 C 20.332031 -23.859375 23.082031 -22.726562 25.21875 -20.46875 C 27.351562 -18.207031 28.421875 -15.265625 28.421875 -11.640625 C 28.421875 -8.179688 27.378906 -5.28125 25.296875 -2.9375 C 23.210938 -0.59375 20.503906 0.578125 17.171875 0.578125 C 13.773438 0.578125 11.140625 -0.597656 9.265625 -2.953125 L 9.125 -2.953125 L 9.125 11.0625 L 3.296875 11.0625 L 3.296875 -23.28125 L 8.828125 -23.28125 L 8.828125 -19.78125 L 8.921875 -19.78125 C 10.640625 -22.5 13.320312 -23.859375 16.96875 -23.859375 Z M 8.921875 -11.640625 C 8.921875 -9.640625 9.554688 -7.972656 10.828125 -6.640625 C 12.109375 -5.316406 13.753906 -4.65625 15.765625 -4.65625 C 17.671875 -4.65625 19.285156 -5.304688 20.609375 -6.609375 C 21.929688 -7.921875 22.59375 -9.597656 22.59375 -11.640625 C 22.59375 -13.609375 21.9375 -15.265625 20.625 -16.609375 C 19.320312 -17.953125 17.6875 -18.625 15.71875 -18.625 C 13.8125 -18.625 12.203125 -17.957031 10.890625 -16.625 C 9.578125 -15.300781 8.921875 -13.640625 8.921875 -11.640625 Z M 8.921875 -11.640625 "/></g></g></g><g fill="#ffffff" fill-opacity="1"><g transform="translate(419.552882, 302.814218)"><g><path d="M 9.21875 -36.671875 L 9.21875 0 L 3.390625 0 L 3.390625 -36.671875 Z M 9.21875 -36.671875 "/></g></g></g><g fill="#ffffff" fill-opacity="1"><g transform="translate(432.158183, 302.814218)"><g><path d="M 14.796875 -23.859375 C 18.347656 -23.859375 21.34375 -22.726562 23.78125 -20.46875 C 26.226562 -18.207031 27.453125 -15.265625 27.453125 -11.640625 C 27.453125 -8.015625 26.226562 -5.070312 23.78125 -2.8125 C 21.34375 -0.550781 18.347656 0.578125 14.796875 0.578125 C 11.234375 0.578125 8.234375 -0.550781 5.796875 -2.8125 C 3.359375 -5.070312 2.140625 -8.015625 2.140625 -11.640625 C 2.140625 -15.265625 3.359375 -18.207031 5.796875 -20.46875 C 8.234375 -22.726562 11.234375 -23.859375 14.796875 -23.859375 Z M 7.953125 -11.640625 C 7.953125 -9.566406 8.601562 -7.882812 9.90625 -6.59375 C 11.21875 -5.300781 12.847656 -4.65625 14.796875 -4.65625 C 16.765625 -4.65625 18.394531 -5.304688 19.6875 -6.609375 C 20.976562 -7.921875 21.625 -9.597656 21.625 -11.640625 C 21.625 -13.710938 20.96875 -15.394531 19.65625 -16.6875 C 18.351562 -17.976562 16.71875 -18.625 14.75 -18.625 C 12.832031 -18.625 11.21875 -17.957031 9.90625 -16.625 C 8.601562 -15.300781 7.953125 -13.640625 7.953125 -11.640625 Z M 7.953125 -11.640625 "/></g></g></g><g fill="#ffffff" fill-opacity="1"><g transform="translate(461.732138, 302.814218)"><g><path d="M 13.140625 -23.859375 C 16.472656 -23.859375 18.960938 -23.054688 20.609375 -21.453125 C 22.265625 -19.859375 23.09375 -17.347656 23.09375 -13.921875 L 23.09375 0 L 17.84375 0 L 17.84375 -3.203125 L 17.703125 -3.203125 C 16.117188 -0.679688 13.628906 0.578125 10.234375 0.578125 C 7.710938 0.578125 5.664062 -0.0703125 4.09375 -1.375 C 2.53125 -2.6875 1.75 -4.363281 1.75 -6.40625 C 1.75 -9.113281 2.878906 -11.140625 5.140625 -12.484375 C 7.398438 -13.828125 11.035156 -14.5 16.046875 -14.5 L 17.84375 -14.5 L 17.84375 -15.1875 C 17.84375 -16.539062 17.359375 -17.597656 16.390625 -18.359375 C 15.421875 -19.117188 14.128906 -19.5 12.515625 -19.5 C 10.117188 -19.5 8.050781 -18.691406 6.3125 -17.078125 L 3.25 -20.125 C 5.675781 -22.613281 8.972656 -23.859375 13.140625 -23.859375 Z M 7.5625 -6.84375 C 7.5625 -5.832031 7.972656 -5.066406 8.796875 -4.546875 C 9.628906 -4.035156 10.59375 -3.78125 11.6875 -3.78125 C 13.695312 -3.78125 15.171875 -4.269531 16.109375 -5.25 C 17.046875 -6.238281 17.515625 -7.476562 17.515625 -8.96875 L 17.515625 -10.421875 L 15.8125 -10.421875 C 10.3125 -10.421875 7.5625 -9.226562 7.5625 -6.84375 Z M 7.5625 -6.84375 "/></g></g></g><g fill="#ffffff" fill-opacity="1"><g transform="translate(487.766928, 302.814218)"><g><path d="M 27.25 -36.671875 L 27.25 0 L 21.734375 0 L 21.734375 -3.484375 L 21.625 -3.484375 C 20.007812 -0.773438 17.328125 0.578125 13.578125 0.578125 C 10.117188 0.578125 7.347656 -0.566406 5.265625 -2.859375 C 3.179688 -5.160156 2.140625 -8.085938 2.140625 -11.640625 C 2.140625 -15.066406 3.1875 -17.957031 5.28125 -20.3125 C 7.382812 -22.675781 10.085938 -23.859375 13.390625 -23.859375 C 16.710938 -23.859375 19.347656 -22.679688 21.296875 -20.328125 L 21.4375 -20.328125 L 21.4375 -36.671875 Z M 7.953125 -11.640625 C 7.953125 -9.566406 8.601562 -7.882812 9.90625 -6.59375 C 11.21875 -5.300781 12.847656 -4.65625 14.796875 -4.65625 C 16.828125 -4.65625 18.472656 -5.328125 19.734375 -6.671875 C 20.992188 -8.015625 21.625 -9.671875 21.625 -11.640625 C 21.625 -13.640625 20.96875 -15.300781 19.65625 -16.625 C 18.351562 -17.957031 16.734375 -18.625 14.796875 -18.625 C 12.890625 -18.625 11.269531 -17.96875 9.9375 -16.65625 C 8.613281 -15.351562 7.953125 -13.679688 7.953125 -11.640625 Z M 7.953125 -11.640625 "/></g></g></g><g fill="#ffffff" fill-opacity="1"><g transform="translate(518.310525, 302.814218)"><g/></g></g><g fill="#ffffff" fill-opacity="1"><g transform="translate(532.661181, 302.814218)"><g><path d="M 11.203125 -30.015625 L 11.203125 -23.28125 L 17.609375 -23.28125 L 17.609375 -18.328125 L 11.203125 -18.328125 L 11.203125 -8 C 11.203125 -5.570312 12.285156 -4.359375 14.453125 -4.359375 C 15.910156 -4.359375 16.960938 -4.601562 17.609375 -5.09375 L 17.609375 -0.1875 C 16.503906 0.320312 14.96875 0.578125 13 0.578125 C 10.3125 0.578125 8.367188 -0.0078125 7.171875 -1.1875 C 5.984375 -2.363281 5.390625 -4.441406 5.390625 -7.421875 L 5.390625 -18.328125 L 0.578125 -18.328125 L 0.578125 -23.28125 L 5.390625 -23.28125 L 5.390625 -30.015625 Z M 11.203125 -30.015625 "/></g></g></g><g fill="#ffffff" fill-opacity="1"><g transform="translate(551.520643, 302.814218)"><g><path d="M 9.125 -36.671875 L 9.125 -20.03125 L 9.21875 -20.03125 C 9.832031 -21.257812 10.742188 -22.203125 11.953125 -22.859375 C 13.171875 -23.523438 14.535156 -23.859375 16.046875 -23.859375 C 18.734375 -23.859375 20.820312 -23.054688 22.3125 -21.453125 C 23.800781 -19.859375 24.546875 -17.65625 24.546875 -14.84375 L 24.546875 0 L 18.71875 0 L 18.71875 -12.078125 C 18.71875 -16.441406 17.296875 -18.625 14.453125 -18.625 C 12.703125 -18.625 11.375 -18.082031 10.46875 -17 C 9.570312 -15.914062 9.125 -14.5 9.125 -12.75 L 9.125 0 L 3.296875 0 L 3.296875 -36.671875 Z M 9.125 -36.671875 "/></g></g></g><g fill="#ffffff" fill-opacity="1"><g transform="translate(579.349243, 302.814218)"><g><path d="M 14.796875 -23.859375 C 18.285156 -23.859375 20.972656 -22.691406 22.859375 -20.359375 C 24.753906 -18.035156 25.703125 -15 25.703125 -11.25 L 25.703125 -9.609375 L 7.953125 -9.609375 C 8.148438 -7.921875 8.820312 -6.578125 9.96875 -5.578125 C 11.113281 -4.578125 12.523438 -4.078125 14.203125 -4.078125 C 16.660156 -4.078125 18.75 -5.125 20.46875 -7.21875 L 24.640625 -4.078125 C 22.117188 -0.972656 18.835938 0.578125 14.796875 0.578125 C 11.234375 0.578125 8.234375 -0.550781 5.796875 -2.8125 C 3.359375 -5.070312 2.140625 -8.015625 2.140625 -11.640625 C 2.140625 -15.265625 3.359375 -18.207031 5.796875 -20.46875 C 8.234375 -22.726562 11.234375 -23.859375 14.796875 -23.859375 Z M 19.890625 -13.96875 C 19.859375 -15.8125 19.289062 -17.191406 18.1875 -18.109375 C 17.082031 -19.035156 15.660156 -19.5 13.921875 -19.5 C 12.171875 -19.5 10.796875 -18.988281 9.796875 -17.96875 C 8.796875 -16.945312 8.179688 -15.613281 7.953125 -13.96875 Z M 19.890625 -13.96875 "/></g></g></g><g fill="#ffffff" fill-opacity="1"><g transform="translate(607.177888, 302.814218)"><g/></g></g><g fill="#ffffff" fill-opacity="1"><g transform="translate(621.528543, 302.814218)"><g><path d="M 14.109375 -37.25 C 15.566406 -37.25 16.78125 -37.132812 17.75 -36.90625 L 17.359375 -31.96875 C 16.453125 -32.1875 15.644531 -32.296875 14.9375 -32.296875 C 13.644531 -32.296875 12.695312 -31.941406 12.09375 -31.234375 C 11.5 -30.523438 11.203125 -29.34375 11.203125 -27.6875 L 11.203125 -23.28125 L 16.59375 -23.28125 L 16.59375 -18.328125 L 11.203125 -18.328125 L 11.203125 0 L 5.390625 0 L 5.390625 -18.328125 L 0.578125 -18.328125 L 0.578125 -23.28125 L 5.390625 -23.28125 L 5.390625 -26.921875 C 5.390625 -30.566406 6.050781 -33.195312 7.375 -34.8125 C 8.695312 -36.4375 10.941406 -37.25 14.109375 -37.25 Z M 14.109375 -37.25 "/></g></g></g><g fill="#ffffff" fill-opacity="1"><g transform="translate(638.594196, 302.814218)"><g><path d="M 14.796875 -23.859375 C 18.347656 -23.859375 21.34375 -22.726562 23.78125 -20.46875 C 26.226562 -18.207031 27.453125 -15.265625 27.453125 -11.640625 C 27.453125 -8.015625 26.226562 -5.070312 23.78125 -2.8125 C 21.34375 -0.550781 18.347656 0.578125 14.796875 0.578125 C 11.234375 0.578125 8.234375 -0.550781 5.796875 -2.8125 C 3.359375 -5.070312 2.140625 -8.015625 2.140625 -11.640625 C 2.140625 -15.265625 3.359375 -18.207031 5.796875 -20.46875 C 8.234375 -22.726562 11.234375 -23.859375 14.796875 -23.859375 Z M 7.953125 -11.640625 C 7.953125 -9.566406 8.601562 -7.882812 9.90625 -6.59375 C 11.21875 -5.300781 12.847656 -4.65625 14.796875 -4.65625 C 16.765625 -4.65625 18.394531 -5.304688 19.6875 -6.609375 C 20.976562 -7.921875 21.625 -9.597656 21.625 -11.640625 C 21.625 -13.710938 20.96875 -15.394531 19.65625 -16.6875 C 18.351562 -17.976562 16.71875 -18.625 14.75 -18.625 C 12.832031 -18.625 11.21875 -17.957031 9.90625 -16.625 C 8.601562 -15.300781 7.953125 -13.640625 7.953125 -11.640625 Z M 7.953125 -11.640625 "/></g></g></g><g fill="#ffffff" fill-opacity="1"><g transform="translate(668.168174, 302.814218)"><g><path d="M 16.109375 -23.859375 C 16.585938 -23.859375 17.28125 -23.742188 18.1875 -23.515625 L 18.1875 -17.890625 C 17.1875 -18.179688 16.25 -18.328125 15.375 -18.328125 C 13.46875 -18.328125 11.945312 -17.757812 10.8125 -16.625 C 9.6875 -15.5 9.125 -14 9.125 -12.125 L 9.125 0 L 3.296875 0 L 3.296875 -23.28125 L 9.125 -23.28125 L 9.125 -19.59375 L 9.21875 -19.59375 C 9.863281 -20.945312 10.785156 -21.992188 11.984375 -22.734375 C 13.179688 -23.484375 14.554688 -23.859375 16.109375 -23.859375 Z M 16.109375 -23.859375 "/></g></g></g><g fill="#ffffff" fill-opacity="1"><g transform="translate(687.027637, 302.814218)"><g><path d="M 15.8125 -23.859375 C 19.46875 -23.859375 21.894531 -22.421875 23.09375 -19.546875 C 24.707031 -22.421875 27.257812 -23.859375 30.75 -23.859375 C 36.34375 -23.859375 39.140625 -20.476562 39.140625 -13.71875 L 39.140625 0 L 33.3125 0 L 33.3125 -13.34375 C 33.3125 -16.863281 31.875 -18.625 29 -18.625 C 27.445312 -18.625 26.222656 -18.097656 25.328125 -17.046875 C 24.441406 -15.992188 24 -14.515625 24 -12.609375 L 24 0 L 18.1875 0 L 18.1875 -14.015625 C 18.1875 -15.472656 17.847656 -16.601562 17.171875 -17.40625 C 16.492188 -18.21875 15.503906 -18.625 14.203125 -18.625 C 12.398438 -18.625 11.0625 -18.054688 10.1875 -16.921875 C 9.3125 -15.796875 8.875 -14.390625 8.875 -12.703125 L 8.875 0 L 3.0625 0 L 3.0625 -23.28125 L 8.578125 -23.28125 L 8.578125 -19.640625 L 8.6875 -19.640625 C 10.039062 -22.453125 12.414062 -23.859375 15.8125 -23.859375 Z M 15.8125 -23.859375 "/></g></g></g><g fill="#ffffff" fill-opacity="1"><g transform="translate(729.206892, 302.814218)"><g><path d="M 11.25 -23.859375 C 15.0625 -23.859375 17.84375 -22.679688 19.59375 -20.328125 L 15.71875 -16.828125 C 14.550781 -18.410156 13.03125 -19.203125 11.15625 -19.203125 C 10.21875 -19.203125 9.414062 -18.972656 8.75 -18.515625 C 8.09375 -18.066406 7.765625 -17.472656 7.765625 -16.734375 C 7.765625 -15.597656 8.910156 -14.789062 11.203125 -14.3125 L 13.28125 -13.828125 C 15.84375 -13.273438 17.65625 -12.421875 18.71875 -11.265625 C 19.789062 -10.117188 20.328125 -8.660156 20.328125 -6.890625 C 20.328125 -4.617188 19.421875 -2.804688 17.609375 -1.453125 C 15.796875 -0.0976562 13.335938 0.578125 10.234375 0.578125 C 6.316406 0.578125 3.3125 -0.613281 1.21875 -3 L 5.09375 -6.640625 C 6.09375 -5.546875 7.015625 -4.796875 7.859375 -4.390625 C 8.703125 -3.984375 9.625 -3.78125 10.625 -3.78125 C 11.6875 -3.78125 12.597656 -4.019531 13.359375 -4.5 C 14.117188 -4.988281 14.5 -5.640625 14.5 -6.453125 C 14.5 -7.773438 13.300781 -8.710938 10.90625 -9.265625 C 7.800781 -9.972656 5.859375 -10.53125 5.078125 -10.9375 C 4.304688 -11.34375 3.6875 -11.828125 3.21875 -12.390625 C 2.75 -12.953125 2.414062 -13.566406 2.21875 -14.234375 C 2.03125 -14.898438 1.9375 -15.601562 1.9375 -16.34375 C 1.9375 -18.632812 2.816406 -20.457031 4.578125 -21.8125 C 6.335938 -23.175781 8.5625 -23.859375 11.25 -23.859375 Z M 11.25 -23.859375 "/></g></g></g></svg>