<svg xmlns="http://www.w3.org/2000/svg" xmlns:xlink="http://www.w3.org/1999/xlink" width="500" zoomAndPan="magnify" viewBox="0 0 375 749.999995" height="1000" preserveAspectRatio="xMidYMid meet" version="1.0"><defs><g/><clipPath id="de7b6ed0c8"><path d="M 9.375 0.0078125 L 308.625 0.0078125 L 308.625 531.75 L 9.375 531.75 Z M 9.375 0.0078125 " clip-rule="nonzero"/></clipPath><clipPath id="f7fa6b6646"><path d="M 45.335938 0.0078125 L 272.664062 0.0078125 C 282.203125 0.0078125 291.347656 3.800781 298.09375 10.554688 C 304.835938 17.308594 308.625 26.46875 308.625 36.019531 L 308.625 495.730469 C 308.625 505.28125 304.835938 514.441406 298.09375 521.195312 C 291.347656 527.949219 282.203125 531.742188 272.664062 531.742188 L 45.335938 531.742188 C 35.796875 531.742188 26.652344 527.949219 19.90625 521.195312 C 13.164062 514.441406 9.375 505.28125 9.375 495.730469 L 9.375 36.019531 C 9.375 16.128906 25.476562 0.0078125 45.335938 0.0078125 " clip-rule="nonzero"/></clipPath><clipPath id="9fe6b4dbc6"><path d="M 252.699219 37.5 L 365.199219 37.5 L 365.199219 111 L 252.699219 111 Z M 252.699219 37.5 " clip-rule="nonzero"/></clipPath><clipPath id="f8872e1a58"><path d="M 252.699219 37.5 L 337.074219 37.5 L 365.199219 74.121094 L 337.074219 110.742188 L 252.699219 110.742188 L 280.824219 74.121094 L 252.699219 37.5 " clip-rule="nonzero"/></clipPath><clipPath id="cd02335d8b"><path d="M 48.148438 110.742188 L 280.648438 110.742188 L 280.648438 343.242188 L 48.148438 343.242188 Z M 48.148438 110.742188 " clip-rule="nonzero"/></clipPath></defs><g clip-path="url(#de7b6ed0c8)"><g clip-path="url(#f7fa6b6646)"><path stroke-linecap="butt" transform="matrix(0.749208, 0, 0, 0.750281, 9.375001, 0.00655119)" fill="none" stroke-linejoin="miter" d="M 47.998615 0.00168112 L 351.423281 0.00168112 C 364.15548 0.00168112 376.36108 5.057078 385.365383 14.058912 C 394.364472 23.060747 399.421897 35.269713 399.421897 47.999317 L 399.421897 660.717587 C 399.421897 673.447191 394.364472 685.656157 385.365383 694.657991 C 376.36108 703.659826 364.15548 708.715222 351.423281 708.715222 L 47.998615 708.715222 C 35.266416 708.715222 23.060816 703.659826 14.056513 694.657991 C 5.057424 685.656157 -0.00000115872 673.447191 -0.00000115872 660.717587 L -0.00000115872 47.999317 C -0.00000115872 21.48842 21.49145 0.00168112 47.998615 0.00168112 " stroke="#082a71" stroke-width="8" stroke-opacity="1" stroke-miterlimit="4"/></g></g><g clip-path="url(#9fe6b4dbc6)"><g clip-path="url(#f8872e1a58)"><path fill="#082a71" d="M 252.699219 37.5 L 365.199219 37.5 L 365.199219 111.328125 L 252.699219 111.328125 Z M 252.699219 37.5 " fill-opacity="1" fill-rule="nonzero"/></g></g><g clip-path="url(#cd02335d8b)"><path fill="#082a71" d="M 164.398438 110.742188 C 162.496094 110.742188 160.59375 110.785156 158.695312 110.878906 C 156.796875 110.972656 154.898438 111.113281 153.003906 111.300781 C 151.113281 111.488281 149.222656 111.71875 147.34375 112 C 145.460938 112.277344 143.585938 112.601562 141.71875 112.972656 C 139.855469 113.34375 138 113.761719 136.152344 114.222656 C 134.308594 114.6875 132.472656 115.195312 130.652344 115.746094 C 128.832031 116.296875 127.027344 116.894531 125.234375 117.535156 C 123.445312 118.175781 121.671875 118.859375 119.914062 119.589844 C 118.15625 120.316406 116.414062 121.089844 114.695312 121.902344 C 112.976562 122.714844 111.277344 123.570312 109.597656 124.46875 C 107.921875 125.363281 106.265625 126.300781 104.636719 127.28125 C 103.003906 128.257812 101.394531 129.273438 99.8125 130.332031 C 98.230469 131.390625 96.675781 132.484375 95.148438 133.617188 C 93.621094 134.75 92.121094 135.921875 90.652344 137.128906 C 89.179688 138.335938 87.738281 139.578125 86.332031 140.855469 C 84.921875 142.132812 83.542969 143.445312 82.199219 144.789062 C 80.851562 146.132812 79.542969 147.511719 78.265625 148.921875 C 76.984375 150.332031 75.742188 151.769531 74.535156 153.242188 C 73.328125 154.710938 72.160156 156.210938 71.027344 157.738281 C 69.894531 159.269531 68.796875 160.824219 67.742188 162.40625 C 66.683594 163.988281 65.667969 165.59375 64.6875 167.226562 C 63.710938 168.859375 62.773438 170.511719 61.875 172.191406 C 60.980469 173.867188 60.125 175.566406 59.308594 177.285156 C 58.496094 179.007812 57.726562 180.746094 57 182.503906 C 56.269531 184.261719 55.585938 186.035156 54.945312 187.828125 C 54.304688 189.617188 53.707031 191.425781 53.15625 193.246094 C 52.601562 195.066406 52.09375 196.898438 51.632812 198.742188 C 51.171875 200.589844 50.753906 202.445312 50.382812 204.3125 C 50.011719 206.175781 49.6875 208.050781 49.40625 209.933594 C 49.128906 211.816406 48.894531 213.703125 48.710938 215.597656 C 48.523438 217.488281 48.382812 219.386719 48.289062 221.285156 C 48.195312 223.1875 48.148438 225.085938 48.148438 226.992188 C 48.148438 228.894531 48.195312 230.792969 48.289062 232.695312 C 48.382812 234.59375 48.523438 236.492188 48.710938 238.382812 C 48.894531 240.277344 49.128906 242.164062 49.40625 244.046875 C 49.6875 245.929688 50.011719 247.804688 50.382812 249.667969 C 50.753906 251.535156 51.171875 253.390625 51.632812 255.238281 C 52.09375 257.082031 52.601562 258.914062 53.15625 260.734375 C 53.707031 262.554688 54.304688 264.363281 54.945312 266.152344 C 55.585938 267.945312 56.269531 269.71875 57 271.476562 C 57.726562 273.234375 58.496094 274.972656 59.308594 276.695312 C 60.125 278.414062 60.980469 280.113281 61.875 281.789062 C 62.773438 283.46875 63.710938 285.121094 64.6875 286.753906 C 65.667969 288.386719 66.683594 289.992188 67.742188 291.574219 C 68.796875 293.15625 69.894531 294.710938 71.027344 296.242188 C 72.160156 297.769531 73.328125 299.269531 74.535156 300.738281 C 75.742188 302.210938 76.984375 303.648438 78.265625 305.058594 C 79.542969 306.46875 80.851562 307.847656 82.199219 309.191406 C 83.542969 310.535156 84.921875 311.847656 86.332031 313.125 C 87.738281 314.402344 89.179688 315.644531 90.652344 316.851562 C 92.121094 318.058594 93.621094 319.230469 95.148438 320.363281 C 96.675781 321.496094 98.230469 322.589844 99.8125 323.648438 C 101.394531 324.707031 103.003906 325.722656 104.636719 326.703125 C 106.265625 327.679688 107.921875 328.617188 109.597656 329.511719 C 111.277344 330.410156 112.976562 331.265625 114.695312 332.078125 C 116.414062 332.890625 118.15625 333.664062 119.914062 334.390625 C 121.671875 335.121094 123.445312 335.804688 125.234375 336.445312 C 127.027344 337.085938 128.832031 337.683594 130.652344 338.234375 C 132.472656 338.785156 134.308594 339.292969 136.152344 339.757812 C 138 340.21875 139.855469 340.636719 141.71875 341.007812 C 143.585938 341.378906 145.460938 341.703125 147.34375 341.980469 C 149.222656 342.261719 151.113281 342.492188 153.003906 342.679688 C 154.898438 342.867188 156.796875 343.007812 158.695312 343.101562 C 160.59375 343.195312 162.496094 343.242188 164.398438 343.242188 C 166.300781 343.242188 168.203125 343.195312 170.101562 343.101562 C 172.003906 343.007812 173.902344 342.867188 175.792969 342.679688 C 177.6875 342.492188 179.574219 342.261719 181.457031 341.980469 C 183.339844 341.703125 185.210938 341.378906 187.078125 341.007812 C 188.945312 340.636719 190.800781 340.21875 192.644531 339.757812 C 194.492188 339.292969 196.324219 338.785156 198.144531 338.234375 C 199.964844 337.683594 201.769531 337.085938 203.5625 336.445312 C 205.355469 335.804688 207.128906 335.121094 208.886719 334.390625 C 210.644531 333.664062 212.382812 332.890625 214.101562 332.078125 C 215.824219 331.265625 217.519531 330.410156 219.199219 329.511719 C 220.878906 328.617188 222.53125 327.679688 224.164062 326.703125 C 225.796875 325.722656 227.402344 324.707031 228.984375 323.648438 C 230.566406 322.589844 232.121094 321.496094 233.648438 320.363281 C 235.175781 319.230469 236.675781 318.058594 238.148438 316.851562 C 239.617188 315.644531 241.058594 314.402344 242.46875 313.125 C 243.878906 311.847656 245.253906 310.535156 246.601562 309.191406 C 247.945312 307.847656 249.257812 306.46875 250.535156 305.058594 C 251.8125 303.648438 253.054688 302.210938 254.261719 300.738281 C 255.46875 299.269531 256.640625 297.769531 257.773438 296.242188 C 258.90625 294.710938 260 293.15625 261.058594 291.574219 C 262.113281 289.992188 263.132812 288.386719 264.109375 286.753906 C 265.089844 285.121094 266.027344 283.46875 266.921875 281.789062 C 267.820312 280.113281 268.675781 278.414062 269.488281 276.695312 C 270.300781 274.972656 271.070312 273.234375 271.800781 271.476562 C 272.527344 269.71875 273.210938 267.945312 273.855469 266.152344 C 274.496094 264.363281 275.089844 262.554688 275.644531 260.734375 C 276.195312 258.914062 276.703125 257.082031 277.164062 255.238281 C 277.628906 253.390625 278.042969 251.535156 278.414062 249.667969 C 278.785156 247.804688 279.113281 245.929688 279.390625 244.046875 C 279.671875 242.164062 279.902344 240.277344 280.089844 238.382812 C 280.277344 236.492188 280.414062 234.59375 280.507812 232.695312 C 280.601562 230.792969 280.648438 228.894531 280.648438 226.992188 C 280.648438 225.085938 280.601562 223.1875 280.507812 221.285156 C 280.414062 219.386719 280.277344 217.488281 280.089844 215.597656 C 279.902344 213.703125 279.671875 211.816406 279.390625 209.933594 C 279.113281 208.050781 278.785156 206.175781 278.414062 204.3125 C 278.042969 202.445312 277.628906 200.589844 277.164062 198.742188 C 276.703125 196.898438 276.195312 195.066406 275.644531 193.246094 C 275.089844 191.425781 274.496094 189.617188 273.855469 187.828125 C 273.210938 186.035156 272.527344 184.261719 271.800781 182.503906 C 271.070312 180.746094 270.300781 179.007812 269.488281 177.285156 C 268.675781 175.566406 267.820312 173.867188 266.921875 172.191406 C 266.027344 170.511719 265.089844 168.859375 264.109375 167.226562 C 263.132812 165.59375 262.113281 163.988281 261.058594 162.40625 C 260 160.824219 258.90625 159.269531 257.773438 157.738281 C 256.640625 156.210938 255.46875 154.710938 254.261719 153.242188 C 253.054688 151.769531 251.8125 150.332031 250.535156 148.921875 C 249.257812 147.511719 247.945312 146.132812 246.601562 144.789062 C 245.253906 143.445312 243.878906 142.132812 242.46875 140.855469 C 241.058594 139.578125 239.617188 138.335938 238.148438 137.128906 C 236.675781 135.921875 235.175781 134.75 233.648438 133.617188 C 232.121094 132.484375 230.566406 131.390625 228.984375 130.332031 C 227.402344 129.273438 225.796875 128.257812 224.164062 127.28125 C 222.53125 126.300781 220.878906 125.363281 219.199219 124.46875 C 217.519531 123.570312 215.824219 122.714844 214.101562 121.902344 C 212.382812 121.089844 210.644531 120.316406 208.886719 119.589844 C 207.128906 118.859375 205.355469 118.175781 203.5625 117.535156 C 201.769531 116.894531 199.964844 116.296875 198.144531 115.746094 C 196.324219 115.195312 194.492188 114.6875 192.644531 114.222656 C 190.800781 113.761719 188.945312 113.34375 187.078125 112.972656 C 185.210938 112.601562 183.339844 112.277344 181.457031 112 C 179.574219 111.71875 177.6875 111.488281 175.792969 111.300781 C 173.902344 111.113281 172.003906 110.972656 170.101562 110.878906 C 168.203125 110.785156 166.300781 110.742188 164.398438 110.742188 Z M 115.960938 215.945312 C 116.144531 215.503906 116.386719 215.097656 116.6875 214.726562 C 116.988281 214.355469 117.339844 214.039062 117.734375 213.769531 C 118.132812 213.503906 118.558594 213.300781 119.015625 213.160156 C 119.472656 213.015625 119.941406 212.945312 120.417969 212.945312 L 137.660156 212.945312 L 137.660156 164.507812 C 137.660156 164.1875 137.691406 163.871094 137.753906 163.5625 C 137.816406 163.25 137.910156 162.945312 138.03125 162.652344 C 138.152344 162.359375 138.300781 162.078125 138.476562 161.816406 C 138.65625 161.550781 138.855469 161.304688 139.082031 161.082031 C 139.304688 160.855469 139.550781 160.65625 139.816406 160.476562 C 140.078125 160.300781 140.359375 160.152344 140.652344 160.03125 C 140.945312 159.910156 141.25 159.816406 141.558594 159.753906 C 141.871094 159.691406 142.1875 159.664062 142.503906 159.664062 L 186.777344 159.664062 C 187.09375 159.664062 187.410156 159.691406 187.722656 159.753906 C 188.035156 159.816406 188.335938 159.910156 188.632812 160.03125 C 188.925781 160.152344 189.203125 160.300781 189.46875 160.476562 C 189.734375 160.65625 189.976562 160.855469 190.203125 161.082031 C 190.425781 161.304688 190.628906 161.550781 190.804688 161.816406 C 190.980469 162.078125 191.128906 162.359375 191.253906 162.652344 C 191.375 162.945312 191.464844 163.25 191.527344 163.5625 C 191.589844 163.871094 191.621094 164.1875 191.621094 164.507812 L 191.621094 212.945312 L 208.863281 212.945312 C 209.339844 212.949219 209.800781 213.023438 210.253906 213.167969 C 210.707031 213.308594 211.128906 213.515625 211.519531 213.78125 C 211.914062 214.046875 212.257812 214.363281 212.558594 214.734375 C 212.855469 215.101562 213.09375 215.503906 213.277344 215.941406 C 213.457031 216.378906 213.570312 216.835938 213.617188 217.308594 C 213.664062 217.78125 213.640625 218.246094 213.550781 218.714844 C 213.460938 219.179688 213.304688 219.621094 213.085938 220.039062 C 212.863281 220.460938 212.585938 220.839844 212.253906 221.179688 L 190.265625 243.167969 L 167.789062 265.742188 C 166.859375 266.691406 165.730469 267.175781 164.398438 267.195312 C 163.742188 267.195312 163.113281 267.074219 162.507812 266.820312 C 161.902344 266.570312 161.371094 266.207031 160.910156 265.742188 L 138.921875 243.460938 L 116.832031 221.371094 C 116.496094 221.015625 116.214844 220.621094 116 220.179688 C 115.78125 219.742188 115.632812 219.277344 115.554688 218.792969 C 115.476562 218.308594 115.472656 217.824219 115.542969 217.339844 C 115.609375 216.855469 115.75 216.390625 115.960938 215.945312 Z M 213.515625 288.992188 C 213.515625 289.308594 213.484375 289.625 213.421875 289.933594 C 213.359375 290.246094 213.269531 290.550781 213.144531 290.84375 C 213.023438 291.136719 212.875 291.417969 212.699219 291.679688 C 212.523438 291.945312 212.320312 292.191406 212.097656 292.414062 C 211.871094 292.640625 211.625 292.839844 211.363281 293.019531 C 211.097656 293.195312 210.820312 293.34375 210.523438 293.464844 C 210.230469 293.585938 209.929688 293.679688 209.617188 293.742188 C 209.304688 293.804688 208.988281 293.835938 208.671875 293.835938 L 120.128906 293.835938 C 119.808594 293.835938 119.496094 293.804688 119.183594 293.742188 C 118.871094 293.679688 118.566406 293.585938 118.273438 293.464844 C 117.980469 293.34375 117.699219 293.195312 117.4375 293.019531 C 117.171875 292.839844 116.925781 292.640625 116.703125 292.414062 C 116.476562 292.191406 116.277344 291.945312 116.101562 291.679688 C 115.921875 291.417969 115.773438 291.136719 115.652344 290.84375 C 115.53125 290.550781 115.4375 290.246094 115.375 289.933594 C 115.316406 289.625 115.285156 289.308594 115.285156 288.992188 L 115.285156 279.304688 C 115.285156 278.984375 115.316406 278.667969 115.375 278.359375 C 115.4375 278.046875 115.53125 277.742188 115.652344 277.449219 C 115.773438 277.15625 115.921875 276.875 116.101562 276.613281 C 116.277344 276.347656 116.476562 276.101562 116.703125 275.878906 C 116.925781 275.652344 117.171875 275.453125 117.4375 275.273438 C 117.699219 275.097656 117.980469 274.949219 118.273438 274.828125 C 118.566406 274.707031 118.871094 274.613281 119.183594 274.550781 C 119.496094 274.488281 119.808594 274.460938 120.128906 274.460938 L 208.574219 274.460938 C 208.890625 274.460938 209.207031 274.488281 209.519531 274.550781 C 209.832031 274.613281 210.132812 274.707031 210.429688 274.828125 C 210.722656 274.949219 211 275.097656 211.265625 275.273438 C 211.53125 275.453125 211.773438 275.652344 212 275.878906 C 212.222656 276.101562 212.425781 276.347656 212.601562 276.613281 C 212.777344 276.875 212.925781 277.15625 213.050781 277.449219 C 213.171875 277.742188 213.261719 278.046875 213.324219 278.359375 C 213.386719 278.667969 213.417969 278.984375 213.417969 279.304688 L 213.417969 288.992188 Z M 213.515625 288.992188 " fill-opacity="1" fill-rule="nonzero"/></g><g fill="#082a71" fill-opacity="1"><g transform="translate(63.468748, 407.85)"><g><path d="M 22.109375 -27.609375 L 22.109375 -23.171875 L 13.65625 -23.171875 L 13.65625 0 L 8.734375 0 L 8.734375 -23.171875 L 0.265625 -23.171875 L 0.265625 -27.609375 Z M 22.109375 -27.609375 "/></g></g></g><g fill="#082a71" fill-opacity="1"><g transform="translate(85.854764, 407.85)"><g><path d="M 12.953125 -19.1875 C 13.335938 -19.1875 13.894531 -19.097656 14.625 -18.921875 L 14.625 -14.390625 C 13.820312 -14.617188 13.066406 -14.734375 12.359375 -14.734375 C 10.828125 -14.734375 9.601562 -14.28125 8.6875 -13.375 C 7.78125 -12.46875 7.328125 -11.257812 7.328125 -9.75 L 7.328125 0 L 2.65625 0 L 2.65625 -18.71875 L 7.328125 -18.71875 L 7.328125 -15.75 L 7.40625 -15.75 C 7.925781 -16.84375 8.664062 -17.6875 9.625 -18.28125 C 10.59375 -18.882812 11.703125 -19.1875 12.953125 -19.1875 Z M 12.953125 -19.1875 "/></g></g></g><g fill="#082a71" fill-opacity="1"><g transform="translate(101.025772, 407.85)"><g><path d="M 10.5625 -19.1875 C 13.25 -19.1875 15.253906 -18.539062 16.578125 -17.25 C 17.898438 -15.96875 18.5625 -13.945312 18.5625 -11.1875 L 18.5625 0 L 14.359375 0 L 14.359375 -2.578125 L 14.234375 -2.578125 C 12.960938 -0.546875 10.960938 0.46875 8.234375 0.46875 C 6.203125 0.46875 4.554688 -0.0546875 3.296875 -1.109375 C 2.035156 -2.160156 1.40625 -3.503906 1.40625 -5.140625 C 1.40625 -7.328125 2.3125 -8.957031 4.125 -10.03125 C 5.945312 -11.113281 8.875 -11.65625 12.90625 -11.65625 L 14.359375 -11.65625 L 14.359375 -12.203125 C 14.359375 -13.296875 13.96875 -14.144531 13.1875 -14.75 C 12.40625 -15.363281 11.363281 -15.671875 10.0625 -15.671875 C 8.132812 -15.671875 6.46875 -15.023438 5.0625 -13.734375 L 2.609375 -16.1875 C 4.554688 -18.1875 7.207031 -19.1875 10.5625 -19.1875 Z M 6.078125 -5.5 C 6.078125 -4.695312 6.410156 -4.085938 7.078125 -3.671875 C 7.742188 -3.253906 8.519531 -3.046875 9.40625 -3.046875 C 11.007812 -3.046875 12.1875 -3.441406 12.9375 -4.234375 C 13.695312 -5.023438 14.078125 -6.019531 14.078125 -7.21875 L 14.078125 -8.390625 L 12.71875 -8.390625 C 8.289062 -8.390625 6.078125 -7.425781 6.078125 -5.5 Z M 6.078125 -5.5 "/></g></g></g><g fill="#082a71" fill-opacity="1"><g transform="translate(121.96879, 407.85)"><g><path d="M 11.890625 -19.1875 C 14.722656 -19.1875 16.988281 -18.238281 18.6875 -16.34375 L 15.4375 -13.109375 C 14.269531 -14.347656 13.085938 -14.96875 11.890625 -14.96875 C 10.234375 -14.96875 8.898438 -14.414062 7.890625 -13.3125 C 6.890625 -12.207031 6.390625 -10.890625 6.390625 -9.359375 C 6.390625 -7.691406 6.914062 -6.335938 7.96875 -5.296875 C 9.03125 -4.265625 10.335938 -3.75 11.890625 -3.75 C 13.398438 -3.75 14.609375 -4.332031 15.515625 -5.5 L 18.640625 -2.140625 C 17.910156 -1.410156 16.914062 -0.789062 15.65625 -0.28125 C 14.394531 0.21875 13.140625 0.46875 11.890625 0.46875 C 9.035156 0.46875 6.625 -0.4375 4.65625 -2.25 C 2.695312 -4.070312 1.71875 -6.441406 1.71875 -9.359375 C 1.71875 -12.191406 2.675781 -14.535156 4.59375 -16.390625 C 6.519531 -18.253906 8.953125 -19.1875 11.890625 -19.1875 Z M 11.890625 -19.1875 "/></g></g></g><g fill="#082a71" fill-opacity="1"><g transform="translate(140.766809, 407.85)"><g><path d="M 7.328125 -29.484375 L 7.328125 -10.953125 L 14.546875 -18.71875 L 20.546875 -18.71875 L 12.515625 -10.21875 L 21.0625 0 L 14.859375 0 L 7.40625 -9.5625 L 7.328125 -9.5625 L 7.328125 0 L 2.65625 0 L 2.65625 -29.484375 Z M 7.328125 -29.484375 "/></g></g></g><g fill="#082a71" fill-opacity="1"><g transform="translate(161.709827, 407.85)"><g/></g></g><g fill="#082a71" fill-opacity="1"><g transform="translate(173.253837, 407.85)"><g><path d="M 5.265625 -18.71875 L 10.484375 -5.734375 L 10.5625 -5.734375 L 15.25 -18.71875 L 20.125 -18.71875 L 11.578125 3.203125 C 10.742188 5.222656 10.039062 6.570312 9.46875 7.25 C 8.90625 7.925781 8.207031 8.445312 7.375 8.8125 C 6.539062 9.175781 5.460938 9.359375 4.140625 9.359375 C 2.910156 9.359375 1.710938 9.203125 0.546875 8.890625 L 1.125 4.6875 C 2.007812 4.988281 2.804688 5.140625 3.515625 5.140625 C 4.472656 5.140625 5.203125 4.976562 5.703125 4.65625 C 6.210938 4.332031 6.742188 3.507812 7.296875 2.1875 L 8.109375 0.15625 L 0.109375 -18.71875 Z M 5.265625 -18.71875 "/></g></g></g><g fill="#082a71" fill-opacity="1"><g transform="translate(193.494853, 407.85)"><g><path d="M 11.890625 -19.1875 C 14.753906 -19.1875 17.164062 -18.273438 19.125 -16.453125 C 21.09375 -14.640625 22.078125 -12.273438 22.078125 -9.359375 C 22.078125 -6.441406 21.09375 -4.070312 19.125 -2.25 C 17.164062 -0.4375 14.753906 0.46875 11.890625 0.46875 C 9.035156 0.46875 6.625 -0.4375 4.65625 -2.25 C 2.695312 -4.070312 1.71875 -6.441406 1.71875 -9.359375 C 1.71875 -12.273438 2.695312 -14.640625 4.65625 -16.453125 C 6.625 -18.273438 9.035156 -19.1875 11.890625 -19.1875 Z M 6.390625 -9.359375 C 6.390625 -7.691406 6.914062 -6.335938 7.96875 -5.296875 C 9.03125 -4.265625 10.335938 -3.75 11.890625 -3.75 C 13.484375 -3.75 14.796875 -4.273438 15.828125 -5.328125 C 16.867188 -6.378906 17.390625 -7.722656 17.390625 -9.359375 C 17.390625 -11.023438 16.863281 -12.375 15.8125 -13.40625 C 14.757812 -14.445312 13.441406 -14.96875 11.859375 -14.96875 C 10.328125 -14.96875 9.03125 -14.4375 7.96875 -13.375 C 6.914062 -12.3125 6.390625 -10.972656 6.390625 -9.359375 Z M 6.390625 -9.359375 "/></g></g></g><g fill="#082a71" fill-opacity="1"><g transform="translate(217.284875, 407.85)"><g><path d="M 7.328125 -18.71875 L 7.328125 -9.046875 C 7.328125 -7.171875 7.613281 -5.816406 8.1875 -4.984375 C 8.757812 -4.160156 9.617188 -3.75 10.765625 -3.75 C 12.171875 -3.75 13.234375 -4.175781 13.953125 -5.03125 C 14.679688 -5.882812 15.046875 -7.039062 15.046875 -8.5 L 15.046875 -18.71875 L 19.734375 -18.71875 L 19.734375 0 L 15.28125 0 L 15.28125 -3 L 15.203125 -3 C 14.117188 -0.6875 12.210938 0.46875 9.484375 0.46875 C 7.367188 0.46875 5.703125 -0.160156 4.484375 -1.421875 C 3.265625 -2.679688 2.65625 -4.457031 2.65625 -6.75 L 2.65625 -18.71875 Z M 7.328125 -18.71875 "/></g></g></g><g fill="#082a71" fill-opacity="1"><g transform="translate(239.670891, 407.85)"><g><path d="M 12.953125 -19.1875 C 13.335938 -19.1875 13.894531 -19.097656 14.625 -18.921875 L 14.625 -14.390625 C 13.820312 -14.617188 13.066406 -14.734375 12.359375 -14.734375 C 10.828125 -14.734375 9.601562 -14.28125 8.6875 -13.375 C 7.78125 -12.46875 7.328125 -11.257812 7.328125 -9.75 L 7.328125 0 L 2.65625 0 L 2.65625 -18.71875 L 7.328125 -18.71875 L 7.328125 -15.75 L 7.40625 -15.75 C 7.925781 -16.84375 8.664062 -17.6875 9.625 -18.28125 C 10.59375 -18.882812 11.703125 -19.1875 12.953125 -19.1875 Z M 12.953125 -19.1875 "/></g></g></g><g fill="#082a71" fill-opacity="1"><g transform="translate(58.359373, 461.849997)"><g><path d="M 10.5625 -19.1875 C 13.25 -19.1875 15.253906 -18.539062 16.578125 -17.25 C 17.898438 -15.96875 18.5625 -13.945312 18.5625 -11.1875 L 18.5625 0 L 14.359375 0 L 14.359375 -2.578125 L 14.234375 -2.578125 C 12.960938 -0.546875 10.960938 0.46875 8.234375 0.46875 C 6.203125 0.46875 4.554688 -0.0546875 3.296875 -1.109375 C 2.035156 -2.160156 1.40625 -3.503906 1.40625 -5.140625 C 1.40625 -7.328125 2.3125 -8.957031 4.125 -10.03125 C 5.945312 -11.113281 8.875 -11.65625 12.90625 -11.65625 L 14.359375 -11.65625 L 14.359375 -12.203125 C 14.359375 -13.296875 13.96875 -14.144531 13.1875 -14.75 C 12.40625 -15.363281 11.363281 -15.671875 10.0625 -15.671875 C 8.132812 -15.671875 6.46875 -15.023438 5.0625 -13.734375 L 2.609375 -16.1875 C 4.554688 -18.1875 7.207031 -19.1875 10.5625 -19.1875 Z M 6.078125 -5.5 C 6.078125 -4.695312 6.410156 -4.085938 7.078125 -3.671875 C 7.742188 -3.253906 8.519531 -3.046875 9.40625 -3.046875 C 11.007812 -3.046875 12.1875 -3.441406 12.9375 -4.234375 C 13.695312 -5.023438 14.078125 -6.019531 14.078125 -7.21875 L 14.078125 -8.390625 L 12.71875 -8.390625 C 8.289062 -8.390625 6.078125 -7.425781 6.078125 -5.5 Z M 6.078125 -5.5 "/></g></g></g><g fill="#082a71" fill-opacity="1"><g transform="translate(79.302392, 461.849997)"><g><path d="M 13.65625 -19.1875 C 16.351562 -19.1875 18.5625 -18.273438 20.28125 -16.453125 C 22 -14.640625 22.859375 -12.273438 22.859375 -9.359375 C 22.859375 -6.578125 22.019531 -4.242188 20.34375 -2.359375 C 18.664062 -0.472656 16.488281 0.46875 13.8125 0.46875 C 11.082031 0.46875 8.960938 -0.476562 7.453125 -2.375 L 7.328125 -2.375 L 7.328125 8.890625 L 2.65625 8.890625 L 2.65625 -18.71875 L 7.09375 -18.71875 L 7.09375 -15.90625 L 7.171875 -15.90625 C 8.554688 -18.09375 10.71875 -19.1875 13.65625 -19.1875 Z M 7.171875 -9.359375 C 7.171875 -7.742188 7.679688 -6.40625 8.703125 -5.34375 C 9.734375 -4.28125 11.054688 -3.75 12.671875 -3.75 C 14.203125 -3.75 15.5 -4.273438 16.5625 -5.328125 C 17.632812 -6.378906 18.171875 -7.722656 18.171875 -9.359375 C 18.171875 -10.941406 17.644531 -12.269531 16.59375 -13.34375 C 15.539062 -14.425781 14.222656 -14.96875 12.640625 -14.96875 C 11.097656 -14.96875 9.800781 -14.4375 8.75 -13.375 C 7.695312 -12.3125 7.171875 -10.972656 7.171875 -9.359375 Z M 7.171875 -9.359375 "/></g></g></g><g fill="#082a71" fill-opacity="1"><g transform="translate(103.87241, 461.849997)"><g><path d="M 13.65625 -19.1875 C 16.351562 -19.1875 18.5625 -18.273438 20.28125 -16.453125 C 22 -14.640625 22.859375 -12.273438 22.859375 -9.359375 C 22.859375 -6.578125 22.019531 -4.242188 20.34375 -2.359375 C 18.664062 -0.472656 16.488281 0.46875 13.8125 0.46875 C 11.082031 0.46875 8.960938 -0.476562 7.453125 -2.375 L 7.328125 -2.375 L 7.328125 8.890625 L 2.65625 8.890625 L 2.65625 -18.71875 L 7.09375 -18.71875 L 7.09375 -15.90625 L 7.171875 -15.90625 C 8.554688 -18.09375 10.71875 -19.1875 13.65625 -19.1875 Z M 7.171875 -9.359375 C 7.171875 -7.742188 7.679688 -6.40625 8.703125 -5.34375 C 9.734375 -4.28125 11.054688 -3.75 12.671875 -3.75 C 14.203125 -3.75 15.5 -4.273438 16.5625 -5.328125 C 17.632812 -6.378906 18.171875 -7.722656 18.171875 -9.359375 C 18.171875 -10.941406 17.644531 -12.269531 16.59375 -13.34375 C 15.539062 -14.425781 14.222656 -14.96875 12.640625 -14.96875 C 11.097656 -14.96875 9.800781 -14.4375 8.75 -13.375 C 7.695312 -12.3125 7.171875 -10.972656 7.171875 -9.359375 Z M 7.171875 -9.359375 "/></g></g></g><g fill="#082a71" fill-opacity="1"><g transform="translate(128.442427, 461.849997)"><g><path d="M 7.40625 -29.484375 L 7.40625 0 L 2.734375 0 L 2.734375 -29.484375 Z M 7.40625 -29.484375 "/></g></g></g><g fill="#082a71" fill-opacity="1"><g transform="translate(138.582441, 461.849997)"><g><path d="M 5.03125 -27.890625 C 5.882812 -27.890625 6.601562 -27.617188 7.1875 -27.078125 C 7.78125 -26.546875 8.078125 -25.878906 8.078125 -25.078125 C 8.078125 -24.242188 7.773438 -23.566406 7.171875 -23.046875 C 6.578125 -22.523438 5.863281 -22.265625 5.03125 -22.265625 C 4.195312 -22.265625 3.492188 -22.546875 2.921875 -23.109375 C 2.347656 -23.671875 2.0625 -24.328125 2.0625 -25.078125 C 2.0625 -25.828125 2.347656 -26.484375 2.921875 -27.046875 C 3.492188 -27.609375 4.195312 -27.890625 5.03125 -27.890625 Z M 7.40625 -18.71875 L 7.40625 0 L 2.734375 0 L 2.734375 -18.71875 Z M 7.40625 -18.71875 "/></g></g></g><g fill="#082a71" fill-opacity="1"><g transform="translate(148.722455, 461.849997)"><g><path d="M 11.890625 -19.1875 C 14.722656 -19.1875 16.988281 -18.238281 18.6875 -16.34375 L 15.4375 -13.109375 C 14.269531 -14.347656 13.085938 -14.96875 11.890625 -14.96875 C 10.234375 -14.96875 8.898438 -14.414062 7.890625 -13.3125 C 6.890625 -12.207031 6.390625 -10.890625 6.390625 -9.359375 C 6.390625 -7.691406 6.914062 -6.335938 7.96875 -5.296875 C 9.03125 -4.265625 10.335938 -3.75 11.890625 -3.75 C 13.398438 -3.75 14.609375 -4.332031 15.515625 -5.5 L 18.640625 -2.140625 C 17.910156 -1.410156 16.914062 -0.789062 15.65625 -0.28125 C 14.394531 0.21875 13.140625 0.46875 11.890625 0.46875 C 9.035156 0.46875 6.625 -0.4375 4.65625 -2.25 C 2.695312 -4.070312 1.71875 -6.441406 1.71875 -9.359375 C 1.71875 -12.191406 2.675781 -14.535156 4.59375 -16.390625 C 6.519531 -18.253906 8.953125 -19.1875 11.890625 -19.1875 Z M 11.890625 -19.1875 "/></g></g></g><g fill="#082a71" fill-opacity="1"><g transform="translate(167.520474, 461.849997)"><g><path d="M 10.5625 -19.1875 C 13.25 -19.1875 15.253906 -18.539062 16.578125 -17.25 C 17.898438 -15.96875 18.5625 -13.945312 18.5625 -11.1875 L 18.5625 0 L 14.359375 0 L 14.359375 -2.578125 L 14.234375 -2.578125 C 12.960938 -0.546875 10.960938 0.46875 8.234375 0.46875 C 6.203125 0.46875 4.554688 -0.0546875 3.296875 -1.109375 C 2.035156 -2.160156 1.40625 -3.503906 1.40625 -5.140625 C 1.40625 -7.328125 2.3125 -8.957031 4.125 -10.03125 C 5.945312 -11.113281 8.875 -11.65625 12.90625 -11.65625 L 14.359375 -11.65625 L 14.359375 -12.203125 C 14.359375 -13.296875 13.96875 -14.144531 13.1875 -14.75 C 12.40625 -15.363281 11.363281 -15.671875 10.0625 -15.671875 C 8.132812 -15.671875 6.46875 -15.023438 5.0625 -13.734375 L 2.609375 -16.1875 C 4.554688 -18.1875 7.207031 -19.1875 10.5625 -19.1875 Z M 6.078125 -5.5 C 6.078125 -4.695312 6.410156 -4.085938 7.078125 -3.671875 C 7.742188 -3.253906 8.519531 -3.046875 9.40625 -3.046875 C 11.007812 -3.046875 12.1875 -3.441406 12.9375 -4.234375 C 13.695312 -5.023438 14.078125 -6.019531 14.078125 -7.21875 L 14.078125 -8.390625 L 12.71875 -8.390625 C 8.289062 -8.390625 6.078125 -7.425781 6.078125 -5.5 Z M 6.078125 -5.5 "/></g></g></g><g fill="#082a71" fill-opacity="1"><g transform="translate(188.463492, 461.849997)"><g><path d="M 9.015625 -24.140625 L 9.015625 -18.71875 L 14.15625 -18.71875 L 14.15625 -14.734375 L 9.015625 -14.734375 L 9.015625 -6.4375 C 9.015625 -4.488281 9.882812 -3.515625 11.625 -3.515625 C 12.789062 -3.515625 13.632812 -3.707031 14.15625 -4.09375 L 14.15625 -0.15625 C 13.269531 0.257812 12.035156 0.46875 10.453125 0.46875 C 8.296875 0.46875 6.734375 -0.00390625 5.765625 -0.953125 C 4.804688 -1.898438 4.328125 -3.570312 4.328125 -5.96875 L 4.328125 -14.734375 L 0.46875 -14.734375 L 0.46875 -18.71875 L 4.328125 -18.71875 L 4.328125 -24.140625 Z M 9.015625 -24.140625 "/></g></g></g><g fill="#082a71" fill-opacity="1"><g transform="translate(203.634501, 461.849997)"><g><path d="M 5.03125 -27.890625 C 5.882812 -27.890625 6.601562 -27.617188 7.1875 -27.078125 C 7.78125 -26.546875 8.078125 -25.878906 8.078125 -25.078125 C 8.078125 -24.242188 7.773438 -23.566406 7.171875 -23.046875 C 6.578125 -22.523438 5.863281 -22.265625 5.03125 -22.265625 C 4.195312 -22.265625 3.492188 -22.546875 2.921875 -23.109375 C 2.347656 -23.671875 2.0625 -24.328125 2.0625 -25.078125 C 2.0625 -25.828125 2.347656 -26.484375 2.921875 -27.046875 C 3.492188 -27.609375 4.195312 -27.890625 5.03125 -27.890625 Z M 7.40625 -18.71875 L 7.40625 0 L 2.734375 0 L 2.734375 -18.71875 Z M 7.40625 -18.71875 "/></g></g></g><g fill="#082a71" fill-opacity="1"><g transform="translate(213.774515, 461.849997)"><g><path d="M 11.890625 -19.1875 C 14.753906 -19.1875 17.164062 -18.273438 19.125 -16.453125 C 21.09375 -14.640625 22.078125 -12.273438 22.078125 -9.359375 C 22.078125 -6.441406 21.09375 -4.070312 19.125 -2.25 C 17.164062 -0.4375 14.753906 0.46875 11.890625 0.46875 C 9.035156 0.46875 6.625 -0.4375 4.65625 -2.25 C 2.695312 -4.070312 1.71875 -6.441406 1.71875 -9.359375 C 1.71875 -12.273438 2.695312 -14.640625 4.65625 -16.453125 C 6.625 -18.273438 9.035156 -19.1875 11.890625 -19.1875 Z M 6.390625 -9.359375 C 6.390625 -7.691406 6.914062 -6.335938 7.96875 -5.296875 C 9.03125 -4.265625 10.335938 -3.75 11.890625 -3.75 C 13.484375 -3.75 14.796875 -4.273438 15.828125 -5.328125 C 16.867188 -6.378906 17.390625 -7.722656 17.390625 -9.359375 C 17.390625 -11.023438 16.863281 -12.375 15.8125 -13.40625 C 14.757812 -14.445312 13.441406 -14.96875 11.859375 -14.96875 C 10.328125 -14.96875 9.03125 -14.4375 7.96875 -13.375 C 6.914062 -12.3125 6.390625 -10.972656 6.390625 -9.359375 Z M 6.390625 -9.359375 "/></g></g></g><g fill="#082a71" fill-opacity="1"><g transform="translate(237.564538, 461.849997)"><g><path d="M 12.90625 -19.1875 C 15.039062 -19.1875 16.710938 -18.546875 17.921875 -17.265625 C 19.128906 -15.992188 19.734375 -14.226562 19.734375 -11.96875 L 19.734375 0 L 15.046875 0 L 15.046875 -9.71875 C 15.046875 -13.21875 13.90625 -14.96875 11.625 -14.96875 C 10.300781 -14.96875 9.253906 -14.539062 8.484375 -13.6875 C 7.710938 -12.832031 7.328125 -11.703125 7.328125 -10.296875 L 7.328125 0 L 2.65625 0 L 2.65625 -18.71875 L 7.09375 -18.71875 L 7.09375 -15.71875 L 7.171875 -15.71875 C 8.242188 -18.03125 10.15625 -19.1875 12.90625 -19.1875 Z M 12.90625 -19.1875 "/></g></g></g></svg>