<?xml version="1.0" encoding="UTF-8"?>
<!DOCTYPE svg PUBLIC "-//W3C//DTD SVG 1.1//EN" "http://www.w3.org/Graphics/SVG/1.1/DTD/svg11.dtd">
<svg xmlns="http://www.w3.org/2000/svg" version="1.1" width="105px" height="105px" style="shape-rendering:geometricPrecision; text-rendering:geometricPrecision; image-rendering:optimizeQuality; fill-rule:evenodd; clip-rule:evenodd" xmlns:xlink="http://www.w3.org/1999/xlink">
<g><path style="opacity:0.83" fill="#888988" d="M 4.5,-0.5 C 21.5,-0.5 38.5,-0.5 55.5,-0.5C 56.5188,1.10148 58.0188,2.10148 60,2.5C 62.3172,1.58799 64.4839,0.587994 66.5,-0.5C 70.1667,-0.5 73.8333,-0.5 77.5,-0.5C 94.1801,7.00094 98.3468,19.0009 90,35.5C 87.9373,37.7341 85.7706,39.7341 83.5,41.5C 86.5184,41.6646 89.5184,41.498 92.5,41C 97.3267,36.2805 101.327,36.7805 104.5,42.5C 104.5,43.5 104.5,44.5 104.5,45.5C 100.827,50.5706 96.8275,50.7372 92.5,46C 90.5,45.3333 88.5,45.3333 86.5,46C 83.5,49 80.5,52 77.5,55C 71.8042,55.1701 66.1376,55.6701 60.5,56.5C 71.1617,57.5552 81.8284,58.0552 92.5,58C 96.8275,53.2628 100.827,53.4294 104.5,58.5C 104.5,59.5 104.5,60.5 104.5,61.5C 101.191,66.2147 97.1906,66.7147 92.5,63C 81.8177,62.1676 71.1511,62.3343 60.5,63.5C 65.8025,64.3295 71.1358,64.8295 76.5,65C 79.5,68 82.5,71 85.5,74C 88.1667,74.6667 90.8333,74.6667 93.5,74C 97.7944,70.3835 101.461,70.8835 104.5,75.5C 104.5,76.5 104.5,77.5 104.5,78.5C 101.461,83.1165 97.7944,83.6165 93.5,80C 89.7125,79.8404 86.0458,79.1737 82.5,78C 79.8333,75.3333 77.1667,72.6667 74.5,70C 70.1667,69.3333 65.8333,69.3333 61.5,70C 60.6798,79.7562 60.1798,89.5895 60,99.5C 58.5945,101.744 56.7611,103.41 54.5,104.5C 38.1667,104.5 21.8333,104.5 5.5,104.5C 3.20799,103.21 1.20799,101.543 -0.5,99.5C -0.5,67.8333 -0.5,36.1667 -0.5,4.5C 0.833333,2.5 2.5,0.833333 4.5,-0.5 Z M 5.5,4.5 C 22.3213,4.01555 38.9879,4.51555 55.5,6C 53.9186,7.82796 52.5853,9.82796 51.5,12C 35.5035,12.4999 19.5035,12.6666 3.5,12.5C 3.55975,9.65919 4.22642,6.99253 5.5,4.5 Z M 70.5,4.5 C 73.3213,4.31594 74.9879,5.64927 75.5,8.5C 72.8938,9.65173 70.2272,9.8184 67.5,9C 68.3862,7.38533 69.3862,5.88533 70.5,4.5 Z M 62.5,6.5 C 63.7736,7.18944 63.7736,8.02278 62.5,9C 61.5,9.66667 60.5,9.66667 59.5,9C 60.9423,8.62325 61.9423,7.78991 62.5,6.5 Z M 80.5,6.5 C 84.0595,8.28252 84.0595,9.28252 80.5,9.5C 80.5,8.5 80.5,7.5 80.5,6.5 Z M 55.5,14.5 C 57.5,14.5 59.5,14.5 61.5,14.5C 61.7135,16.1439 61.3802,17.6439 60.5,19C 58.5273,19.4955 56.5273,19.6621 54.5,19.5C 54.6287,17.7839 54.962,16.1172 55.5,14.5 Z M 66.5,14.5 C 70.1667,14.5 73.8333,14.5 77.5,14.5C 77.5,16.1667 77.5,17.8333 77.5,19.5C 73.8183,19.6653 70.1516,19.4986 66.5,19C 66.0338,17.7012 66.0338,16.2012 66.5,14.5 Z M 81.5,15.5 C 85.533,13.455 88.1996,14.6217 89.5,19C 87.1902,19.4966 84.8568,19.6633 82.5,19.5C 82.7678,17.901 82.4345,16.5676 81.5,15.5 Z M 3.5,17.5 C 18.8333,17.5 34.1667,17.5 49.5,17.5C 48.5551,25.4967 50.7218,32.4967 56,38.5C 56.6667,55.5 56.6667,72.5 56,89.5C 55.3483,91.7231 53.8483,92.8898 51.5,93C 37.1667,93.6667 22.8333,93.6667 8.5,93C 6.15175,92.8898 4.65175,91.7231 4,89.5C 3.50003,65.5023 3.33337,41.5023 3.5,17.5 Z M 54.5,24.5 C 56.8333,24.5 59.1667,24.5 61.5,24.5C 61.5,26.1667 61.5,27.8333 61.5,29.5C 57.1672,30.3147 54.8338,28.648 54.5,24.5 Z M 65.5,24.5 C 69.5,24.5 73.5,24.5 77.5,24.5C 77.7135,26.1439 77.3802,27.6439 76.5,29C 73.1832,29.4983 69.8499,29.665 66.5,29.5C 66.3713,27.7839 66.038,26.1172 65.5,24.5 Z M 82.5,24.5 C 84.8568,24.3367 87.1902,24.5034 89.5,25C 88.8158,28.9222 86.4825,30.4222 82.5,29.5C 82.5,27.8333 82.5,26.1667 82.5,24.5 Z M 25.5,27.5 C 32.7624,26.9572 37.4291,30.1239 39.5,37C 47.711,36.5216 50.5443,40.0216 48,47.5C 47.2496,48.1258 46.4162,48.6258 45.5,49C 40.3333,49.1667 35.1667,49.3333 30,49.5C 24.0613,49.623 18.228,49.123 12.5,48C 9.3097,42.2038 10.9764,38.3705 17.5,36.5C 18.8216,32.1848 21.4883,29.1848 25.5,27.5 Z M 60.5,35.5 C 61.4971,34.2875 62.4971,34.4542 63.5,36C 62.4232,36.4696 61.4232,36.3029 60.5,35.5 Z M 68.5,34.5 C 76.213,33.3094 77.213,34.9761 71.5,39.5C 69.7377,38.3115 68.7377,36.6449 68.5,34.5 Z M 80.5,36.5 C 80.8425,34.7748 81.8425,34.2748 83.5,35C 82.7562,36.0386 81.7562,36.5386 80.5,36.5 Z M 83.5,41.5 C 80.6675,45.1652 77.3341,48.3318 73.5,51C 69.2452,51.7961 65.0785,51.6295 61,50.5C 60.3333,47.5 60.3333,44.5 61,41.5C 68.479,45.3399 75.979,45.3399 83.5,41.5 Z M 5.5,98.5 C 21.6615,97.3385 37.9948,97.1718 54.5,98C 46.4917,99.1538 38.3251,99.6538 30,99.5C 21.7578,99.4854 13.5911,99.1521 5.5,98.5 Z"/></g>
<g><path style="opacity:0.668" fill="#888988" d="M 6.5,6.5 C 7.83333,6.5 9.16667,6.5 10.5,6.5C 10.8333,9.5 9.5,10.8333 6.5,10.5C 6.5,9.16667 6.5,7.83333 6.5,6.5 Z"/></g>
<g><path style="opacity:0.903" fill="#888988" d="M 19.5,6.5 C 26.5,6.5 33.5,6.5 40.5,6.5C 40.5,7.83333 40.5,9.16667 40.5,10.5C 33.5,10.5 26.5,10.5 19.5,10.5C 19.5,9.16667 19.5,7.83333 19.5,6.5 Z"/></g>
<g><path style="opacity:0.799" fill="#888988" d="M 26.5,22.5 C 34.193,22.5091 39.8596,25.8425 43.5,32.5C 52.5163,34.1831 55.6829,39.5165 53,48.5C 51.5202,51.6626 49.0202,53.496 45.5,54C 35.1667,54.6667 24.8333,54.6667 14.5,54C 6.87404,51.3459 4.37404,46.1793 7,38.5C 11.7293,34.5584 15.896,30.0584 19.5,25C 21.9269,24.0977 24.2603,23.2644 26.5,22.5 Z M 25.5,27.5 C 21.4883,29.1848 18.8216,32.1848 17.5,36.5C 10.9764,38.3705 9.3097,42.2038 12.5,48C 18.228,49.123 24.0613,49.623 30,49.5C 35.1667,49.3333 40.3333,49.1667 45.5,49C 46.4162,48.6258 47.2496,48.1258 48,47.5C 50.5443,40.0216 47.711,36.5216 39.5,37C 37.4291,30.1239 32.7624,26.9572 25.5,27.5 Z"/></g>
<g><path style="opacity:0.784" fill="#888988" d="M 24.5,56.5 C 30.072,55.9896 35.4053,56.8229 40.5,59C 44.2762,61.2453 44.2762,63.0786 40.5,64.5C 34.2034,59.7696 27.87,59.6029 21.5,64C 20.1667,64.6667 18.8333,64.6667 17.5,64C 16.5494,63.2825 16.3828,62.4491 17,61.5C 19.1699,59.1769 21.6699,57.5103 24.5,56.5 Z"/></g>
<g><path style="opacity:0.777" fill="#888988" d="M 28.5,62.5 C 32.5512,62.5939 35.8846,64.0939 38.5,67C 38.3333,68.5 37.5,69.3333 36,69.5C 34.0924,68.5457 32.0924,67.879 30,67.5C 27.5324,68.5032 25.0324,69.0032 22.5,69C 21.4829,67.9505 21.3162,66.7839 22,65.5C 24.166,64.2685 26.3326,63.2685 28.5,62.5 Z"/></g>
<g><path style="opacity:0.82" fill="#888988" d="M 27.5,69.5 C 35.3017,69.7874 37.3017,73.2874 33.5,80C 26.5098,82.0051 23.6764,79.5051 25,72.5C 25.6979,71.3094 26.5313,70.3094 27.5,69.5 Z"/></g>
<g><path style="opacity:0.883" fill="#888988" d="M 22.5,86.5 C 28.5,86.5 34.5,86.5 40.5,86.5C 40.5,87.8333 40.5,89.1667 40.5,90.5C 34.8236,90.6661 29.1569,90.4994 23.5,90C 22.6634,88.9887 22.33,87.8221 22.5,86.5 Z"/></g>
</svg>
