<?xml version="1.0" encoding="UTF-8"?>
<!DOCTYPE svg PUBLIC "-//W3C//DTD SVG 1.1//EN" "http://www.w3.org/Graphics/SVG/1.1/DTD/svg11.dtd">
<svg xmlns="http://www.w3.org/2000/svg" version="1.1" width="104px" height="104px" style="shape-rendering:geometricPrecision; text-rendering:geometricPrecision; image-rendering:optimizeQuality; fill-rule:evenodd; clip-rule:evenodd" xmlns:xlink="http://www.w3.org/1999/xlink">
<g><path style="opacity:0.879" fill="#888988" d="M 40.5,-0.5 C 48.1667,-0.5 55.8333,-0.5 63.5,-0.5C 84.7106,6.04292 98.0439,20.0429 103.5,41.5C 103.5,48.1667 103.5,54.8333 103.5,61.5C 97.4522,84.5248 82.7855,98.5248 59.5,103.5C 54.8333,103.5 50.1667,103.5 45.5,103.5C 20.7337,98.7344 5.40039,84.0678 -0.5,59.5C -0.5,54.1667 -0.5,48.8333 -0.5,43.5C 4.16965,20.4956 17.8363,5.82893 40.5,-0.5 Z M 44.5,6.5 C 72.2301,4.94072 89.3967,17.6074 96,44.5C 97.9328,57.1808 94.9328,68.5141 87,78.5C 82.894,68.061 75.7274,60.561 65.5,56C 74.398,47.4416 76.2313,37.6083 71,26.5C 62.5801,15.6137 52.0801,13.1137 39.5,19C 29.2929,27.1656 26.7929,37.3323 32,49.5C 33.4578,51.96 35.2911,54.1266 37.5,56C 27.0727,60.6815 20.2394,68.5149 17,79.5C 1.51978,56.5433 3.68645,35.3767 23.5,16C 29.848,11.1713 36.848,8.00466 44.5,6.5 Z M 46.5,23.5 C 63.263,23.0786 69.0963,30.7453 64,46.5C 54.1008,56.3601 45.4341,55.3601 38,43.5C 35.6228,34.5905 38.4561,27.9238 46.5,23.5 Z M 48.5,60.5 C 63.0534,60.5648 73.22,67.2315 79,80.5C 79.6667,82.5 79.6667,84.5 79,86.5C 60.8188,99.6797 42.6521,99.6797 24.5,86.5C 24.7174,76.4079 29.3841,68.9079 38.5,64C 41.8502,62.5137 45.1835,61.347 48.5,60.5 Z"/></g>
</svg>
