<svg width="315" height="286" viewBox="0 0 315 286" fill="none" xmlns="http://www.w3.org/2000/svg">
<g filter="url(#filter0_i_87_2)">
<rect width="315" height="248" rx="24" fill="white"/>
</g>
<rect x="2" y="2" width="311" height="244" rx="22" stroke="#55B600" stroke-width="4"/>
<path fill-rule="evenodd" clip-rule="evenodd" d="M212.181 132.843C212.181 157.086 177.163 176.348 162.215 184.573C160.289 185.632 158.682 186.513 157.505 187.216C156.327 186.513 154.72 185.632 152.794 184.573C137.846 176.348 102.828 157.086 102.828 132.843V84.815L157.504 61.216L212.181 84.815V132.843L212.181 132.843ZM157.505 52L94.4163 79.2245V132.843C94.4163 162.109 132.505 183.065 148.765 192.01C150.809 193.137 152.466 194.043 153.601 194.729V194.738C154.804 195.466 156.15 195.831 157.505 195.831C158.881 195.831 160.231 195.45 161.408 194.729C162.543 194.043 164.2 193.137 166.244 192.01C182.504 183.065 220.593 162.109 220.593 132.843V79.2245L157.504 52H157.505ZM131.037 117.142L125.09 123.131L149.089 147.306L194.125 101.954L188.178 95.9657L149.089 135.32L131.037 117.142Z" fill="#55B600"/>
<g filter="url(#filter1_d_87_2)">
<rect x="45" y="222" width="226" height="51" rx="12" fill="#FF8025"/>
<rect x="46" y="223" width="224" height="49" rx="11" stroke="black" stroke-width="2"/>
</g>
<path d="M70.5632 241.4H72.7412V254H70.5632V241.4ZM77.4212 241.4H79.9772L74.6672 247.304L80.2472 254H77.6372L72.0932 247.358L77.4212 241.4ZM86.8737 248.96C86.8737 248.348 86.7477 247.886 86.4957 247.574C86.2437 247.262 85.8537 247.106 85.3257 247.106C84.9657 247.106 84.6477 247.184 84.3717 247.34C84.0957 247.484 83.8797 247.7 83.7237 247.988C83.5677 248.264 83.4897 248.588 83.4897 248.96V254H81.5457V245.72H83.4897V246.998C83.7537 246.506 84.0897 246.14 84.4977 245.9C84.9177 245.66 85.4157 245.54 85.9917 245.54C86.9277 245.54 87.6417 245.828 88.1337 246.404C88.6257 246.968 88.8717 247.748 88.8717 248.744V254H86.8737V248.96ZM90.7243 249.86C90.7243 249.008 90.9163 248.258 91.3003 247.61C91.6963 246.962 92.2303 246.458 92.9023 246.098C93.5743 245.726 94.3363 245.54 95.1883 245.54C96.0403 245.54 96.7963 245.726 97.4563 246.098C98.1283 246.458 98.6623 246.962 99.0583 247.61C99.4543 248.258 99.6523 249.008 99.6523 249.86C99.6523 250.7 99.4543 251.45 99.0583 252.11C98.6623 252.758 98.1283 253.268 97.4563 253.64C96.7963 254 96.0403 254.18 95.1883 254.18C94.3363 254.18 93.5743 254 92.9023 253.64C92.2303 253.268 91.6963 252.758 91.3003 252.11C90.9163 251.45 90.7243 250.7 90.7243 249.86ZM92.7223 249.86C92.7223 250.376 92.8303 250.832 93.0463 251.228C93.2623 251.612 93.5563 251.918 93.9283 252.146C94.3003 252.362 94.7203 252.47 95.1883 252.47C95.6443 252.47 96.0583 252.362 96.4303 252.146C96.8143 251.918 97.1143 251.612 97.3303 251.228C97.5463 250.832 97.6543 250.376 97.6543 249.86C97.6543 249.344 97.5463 248.888 97.3303 248.492C97.1143 248.096 96.8143 247.79 96.4303 247.574C96.0583 247.358 95.6443 247.25 95.1883 247.25C94.7203 247.25 94.3003 247.358 93.9283 247.574C93.5563 247.79 93.2623 248.096 93.0463 248.492C92.8303 248.888 92.7223 249.344 92.7223 249.86ZM99.9912 245.72H102.097L104.041 250.652L106.327 245.09L108.757 250.67L110.701 245.72H112.807L108.937 254.594L106.345 248.996L103.861 254.594L99.9912 245.72ZM126.536 241.4H128.966L124.682 248.69V254H122.522V248.708L118.256 241.4H120.668L123.602 246.8L126.536 241.4ZM127.832 249.86C127.832 249.008 128.024 248.258 128.408 247.61C128.804 246.962 129.338 246.458 130.01 246.098C130.682 245.726 131.444 245.54 132.296 245.54C133.148 245.54 133.904 245.726 134.564 246.098C135.236 246.458 135.77 246.962 136.166 247.61C136.562 248.258 136.76 249.008 136.76 249.86C136.76 250.7 136.562 251.45 136.166 252.11C135.77 252.758 135.236 253.268 134.564 253.64C133.904 254 133.148 254.18 132.296 254.18C131.444 254.18 130.682 254 130.01 253.64C129.338 253.268 128.804 252.758 128.408 252.11C128.024 251.45 127.832 250.7 127.832 249.86ZM129.83 249.86C129.83 250.376 129.938 250.832 130.154 251.228C130.37 251.612 130.664 251.918 131.036 252.146C131.408 252.362 131.828 252.47 132.296 252.47C132.752 252.47 133.166 252.362 133.538 252.146C133.922 251.918 134.222 251.612 134.438 251.228C134.654 250.832 134.762 250.376 134.762 249.86C134.762 249.344 134.654 248.888 134.438 248.492C134.222 248.096 133.922 247.79 133.538 247.574C133.166 247.358 132.752 247.25 132.296 247.25C131.828 247.25 131.408 247.358 131.036 247.574C130.664 247.79 130.37 248.096 130.154 248.492C129.938 248.888 129.83 249.344 129.83 249.86ZM140.602 250.76C140.602 251.348 140.728 251.804 140.98 252.128C141.232 252.452 141.616 252.614 142.132 252.614C142.504 252.614 142.828 252.542 143.104 252.398C143.38 252.242 143.596 252.026 143.752 251.75C143.908 251.462 143.986 251.132 143.986 250.76V245.72H145.93V254H143.986V252.722C143.722 253.202 143.38 253.568 142.96 253.82C142.552 254.06 142.06 254.18 141.484 254.18C140.56 254.18 139.846 253.892 139.342 253.316C138.85 252.74 138.604 251.96 138.604 250.976V245.72H140.602V250.76ZM150.339 245.72V254H148.413V245.72H150.339ZM152.805 247.79C152.625 247.646 152.457 247.538 152.301 247.466C152.145 247.394 151.947 247.358 151.707 247.358C151.383 247.358 151.119 247.442 150.915 247.61C150.711 247.778 150.561 248.012 150.465 248.312C150.381 248.6 150.339 248.942 150.339 249.338L149.691 248.96C149.691 248.3 149.811 247.718 150.051 247.214C150.303 246.698 150.621 246.29 151.005 245.99C151.401 245.69 151.809 245.54 152.229 245.54C152.529 245.54 152.811 245.588 153.075 245.684C153.339 245.768 153.561 245.924 153.741 246.152L152.805 247.79ZM162.199 247.7C162.199 248.588 162.397 249.368 162.793 250.04C163.201 250.712 163.729 251.234 164.377 251.606C165.037 251.966 165.751 252.146 166.519 252.146C167.119 252.146 167.659 252.068 168.139 251.912C168.619 251.756 169.051 251.546 169.435 251.282C169.831 251.006 170.173 250.7 170.461 250.364V252.884C169.933 253.316 169.363 253.646 168.751 253.874C168.139 254.102 167.371 254.216 166.447 254.216C165.523 254.216 164.659 254.06 163.855 253.748C163.063 253.436 162.373 252.986 161.785 252.398C161.197 251.81 160.735 251.12 160.399 250.328C160.075 249.524 159.913 248.648 159.913 247.7C159.913 246.752 160.075 245.882 160.399 245.09C160.735 244.286 161.197 243.59 161.785 243.002C162.373 242.414 163.063 241.964 163.855 241.652C164.659 241.34 165.523 241.184 166.447 241.184C167.371 241.184 168.139 241.298 168.751 241.526C169.363 241.754 169.933 242.084 170.461 242.516V245.036C170.173 244.7 169.831 244.4 169.435 244.136C169.051 243.86 168.619 243.644 168.139 243.488C167.659 243.332 167.119 243.254 166.519 243.254C165.751 243.254 165.037 243.44 164.377 243.812C163.729 244.172 163.201 244.688 162.793 245.36C162.397 246.02 162.199 246.8 162.199 247.7ZM172.287 249.86C172.287 249.008 172.479 248.258 172.863 247.61C173.259 246.962 173.793 246.458 174.465 246.098C175.137 245.726 175.899 245.54 176.751 245.54C177.603 245.54 178.359 245.726 179.019 246.098C179.691 246.458 180.225 246.962 180.621 247.61C181.017 248.258 181.215 249.008 181.215 249.86C181.215 250.7 181.017 251.45 180.621 252.11C180.225 252.758 179.691 253.268 179.019 253.64C178.359 254 177.603 254.18 176.751 254.18C175.899 254.18 175.137 254 174.465 253.64C173.793 253.268 173.259 252.758 172.863 252.11C172.479 251.45 172.287 250.7 172.287 249.86ZM174.285 249.86C174.285 250.376 174.393 250.832 174.609 251.228C174.825 251.612 175.119 251.918 175.491 252.146C175.863 252.362 176.283 252.47 176.751 252.47C177.207 252.47 177.621 252.362 177.993 252.146C178.377 251.918 178.677 251.612 178.893 251.228C179.109 250.832 179.217 250.376 179.217 249.86C179.217 249.344 179.109 248.888 178.893 248.492C178.677 248.096 178.377 247.79 177.993 247.574C177.621 247.358 177.207 247.25 176.751 247.25C176.283 247.25 175.863 247.358 175.491 247.574C175.119 247.79 174.825 248.096 174.609 248.492C174.393 248.888 174.285 249.344 174.285 249.86ZM194.903 248.744V254H192.959V248.96C192.959 248.336 192.845 247.874 192.617 247.574C192.401 247.262 192.053 247.106 191.573 247.106C191.249 247.106 190.961 247.178 190.709 247.322C190.469 247.466 190.277 247.676 190.133 247.952C190.001 248.228 189.935 248.564 189.935 248.96V254H187.991V248.96C187.991 248.336 187.877 247.874 187.649 247.574C187.433 247.262 187.085 247.106 186.605 247.106C186.269 247.106 185.975 247.178 185.723 247.322C185.483 247.466 185.297 247.676 185.165 247.952C185.033 248.228 184.967 248.564 184.967 248.96V254H183.059V245.72H184.967V246.926C185.207 246.47 185.519 246.128 185.903 245.9C186.299 245.66 186.761 245.54 187.289 245.54C187.901 245.54 188.405 245.666 188.801 245.918C189.209 246.17 189.503 246.536 189.683 247.016C189.971 246.536 190.331 246.17 190.763 245.918C191.207 245.666 191.711 245.54 192.275 245.54C192.863 245.54 193.349 245.666 193.733 245.918C194.129 246.158 194.423 246.518 194.615 246.998C194.807 247.478 194.903 248.06 194.903 248.744ZM199.276 257.96H197.314V245.72H199.276V257.96ZM206.134 249.86C206.134 250.772 205.948 251.558 205.576 252.218C205.204 252.866 204.712 253.364 204.1 253.712C203.488 254.048 202.822 254.216 202.102 254.216C201.394 254.216 200.776 254.042 200.248 253.694C199.732 253.334 199.33 252.83 199.042 252.182C198.766 251.522 198.628 250.748 198.628 249.86C198.628 248.96 198.766 248.186 199.042 247.538C199.33 246.89 199.732 246.392 200.248 246.044C200.776 245.684 201.394 245.504 202.102 245.504C202.822 245.504 203.488 245.678 204.1 246.026C204.712 246.362 205.204 246.854 205.576 247.502C205.948 248.15 206.134 248.936 206.134 249.86ZM204.118 249.86C204.118 249.308 204.004 248.84 203.776 248.456C203.548 248.06 203.242 247.766 202.858 247.574C202.486 247.37 202.072 247.268 201.616 247.268C201.244 247.268 200.878 247.37 200.518 247.574C200.158 247.766 199.858 248.054 199.618 248.438C199.39 248.822 199.276 249.296 199.276 249.86C199.276 250.424 199.39 250.898 199.618 251.282C199.858 251.666 200.158 251.96 200.518 252.164C200.878 252.356 201.244 252.452 201.616 252.452C202.072 252.452 202.486 252.356 202.858 252.164C203.242 251.96 203.548 251.666 203.776 251.282C204.004 250.886 204.118 250.412 204.118 249.86ZM207.985 239.96H209.929V254H207.985V239.96ZM212.343 242.426C212.343 242.09 212.463 241.808 212.703 241.58C212.955 241.352 213.243 241.238 213.567 241.238C213.915 241.238 214.203 241.352 214.431 241.58C214.671 241.808 214.791 242.09 214.791 242.426C214.791 242.75 214.671 243.032 214.431 243.272C214.203 243.5 213.915 243.614 213.567 243.614C213.243 243.614 212.955 243.5 212.703 243.272C212.463 243.032 212.343 242.75 212.343 242.426ZM212.613 245.72H214.521V254H212.613V245.72ZM218.42 251.426C218.42 251.702 218.486 251.942 218.618 252.146C218.75 252.338 218.93 252.482 219.158 252.578C219.398 252.674 219.668 252.722 219.968 252.722C220.352 252.722 220.7 252.644 221.012 252.488C221.336 252.332 221.594 252.104 221.786 251.804C221.99 251.492 222.092 251.132 222.092 250.724L222.38 251.804C222.38 252.332 222.224 252.776 221.912 253.136C221.612 253.484 221.228 253.748 220.76 253.928C220.304 254.096 219.836 254.18 219.356 254.18C218.84 254.18 218.36 254.078 217.916 253.874C217.472 253.67 217.118 253.37 216.854 252.974C216.59 252.578 216.458 252.098 216.458 251.534C216.458 250.73 216.74 250.094 217.304 249.626C217.868 249.146 218.666 248.906 219.698 248.906C220.25 248.906 220.724 248.966 221.12 249.086C221.528 249.206 221.864 249.35 222.128 249.518C222.392 249.674 222.578 249.818 222.686 249.95V250.94C222.314 250.676 221.918 250.484 221.498 250.364C221.078 250.244 220.634 250.184 220.166 250.184C219.758 250.184 219.428 250.238 219.176 250.346C218.924 250.442 218.732 250.58 218.6 250.76C218.48 250.94 218.42 251.162 218.42 251.426ZM217.808 247.88L217.016 246.512C217.388 246.284 217.868 246.062 218.456 245.846C219.056 245.63 219.74 245.522 220.508 245.522C221.192 245.522 221.792 245.624 222.308 245.828C222.836 246.032 223.25 246.326 223.55 246.71C223.85 247.082 224 247.544 224 248.096V254H222.092V248.474C222.092 248.21 222.044 247.994 221.948 247.826C221.864 247.658 221.744 247.52 221.588 247.412C221.432 247.304 221.246 247.226 221.03 247.178C220.814 247.13 220.58 247.106 220.328 247.106C219.944 247.106 219.578 247.154 219.23 247.25C218.894 247.334 218.6 247.442 218.348 247.574C218.108 247.694 217.928 247.796 217.808 247.88ZM231.594 248.96C231.594 248.348 231.468 247.886 231.216 247.574C230.964 247.262 230.574 247.106 230.046 247.106C229.686 247.106 229.368 247.184 229.092 247.34C228.816 247.484 228.6 247.7 228.444 247.988C228.288 248.264 228.21 248.588 228.21 248.96V254H226.266V245.72H228.21V246.998C228.474 246.506 228.81 246.14 229.218 245.9C229.638 245.66 230.136 245.54 230.712 245.54C231.648 245.54 232.362 245.828 232.854 246.404C233.346 246.968 233.592 247.748 233.592 248.744V254H231.594V248.96ZM237.371 249.86C237.371 250.388 237.485 250.85 237.713 251.246C237.941 251.63 238.247 251.936 238.631 252.164C239.027 252.392 239.465 252.506 239.945 252.506C240.341 252.506 240.719 252.446 241.079 252.326C241.439 252.206 241.757 252.038 242.033 251.822C242.309 251.606 242.513 251.366 242.645 251.102V253.244C242.357 253.532 241.967 253.76 241.475 253.928C240.983 254.096 240.443 254.18 239.855 254.18C239.003 254.18 238.235 254 237.551 253.64C236.879 253.268 236.345 252.758 235.949 252.11C235.565 251.45 235.373 250.7 235.373 249.86C235.373 249.008 235.565 248.258 235.949 247.61C236.345 246.962 236.879 246.458 237.551 246.098C238.235 245.726 239.003 245.54 239.855 245.54C240.443 245.54 240.983 245.624 241.475 245.792C241.967 245.96 242.357 246.188 242.645 246.476V248.618C242.513 248.342 242.303 248.102 242.015 247.898C241.739 247.682 241.421 247.514 241.061 247.394C240.701 247.274 240.329 247.214 239.945 247.214C239.465 247.214 239.027 247.328 238.631 247.556C238.247 247.784 237.941 248.096 237.713 248.492C237.485 248.888 237.371 249.344 237.371 249.86ZM248.394 254.18C247.554 254.18 246.81 254 246.162 253.64C245.526 253.28 245.034 252.776 244.686 252.128C244.338 251.48 244.164 250.724 244.164 249.86C244.164 248.984 244.338 248.222 244.686 247.574C245.046 246.926 245.55 246.428 246.198 246.08C246.846 245.72 247.608 245.54 248.484 245.54C249.36 245.54 250.104 245.708 250.716 246.044C251.328 246.38 251.796 246.866 252.12 247.502C252.456 248.126 252.624 248.882 252.624 249.77C252.624 249.866 252.618 249.968 252.606 250.076C252.606 250.184 252.6 250.262 252.588 250.31H245.316V248.978H250.932L250.338 249.806C250.374 249.734 250.41 249.638 250.446 249.518C250.494 249.386 250.518 249.278 250.518 249.194C250.518 248.75 250.428 248.366 250.248 248.042C250.08 247.718 249.84 247.466 249.528 247.286C249.228 247.106 248.874 247.016 248.466 247.016C247.974 247.016 247.554 247.124 247.206 247.34C246.858 247.556 246.594 247.868 246.414 248.276C246.234 248.684 246.138 249.188 246.126 249.788C246.126 250.388 246.216 250.898 246.396 251.318C246.576 251.726 246.84 252.038 247.188 252.254C247.548 252.47 247.98 252.578 248.484 252.578C249.012 252.578 249.474 252.47 249.87 252.254C250.266 252.038 250.596 251.708 250.86 251.264L252.534 251.948C252.102 252.692 251.544 253.25 250.86 253.622C250.176 253.994 249.354 254.18 248.394 254.18Z" fill="white"/>
<defs>
<filter id="filter0_i_87_2" x="0" y="0" width="321" height="254" filterUnits="userSpaceOnUse" color-interpolation-filters="sRGB">
<feFlood flood-opacity="0" result="BackgroundImageFix"/>
<feBlend mode="normal" in="SourceGraphic" in2="BackgroundImageFix" result="shape"/>
<feColorMatrix in="SourceAlpha" type="matrix" values="0 0 0 0 0 0 0 0 0 0 0 0 0 0 0 0 0 0 127 0" result="hardAlpha"/>
<feMorphology radius="4" operator="dilate" in="SourceAlpha" result="effect1_innerShadow_87_2"/>
<feOffset dx="8" dy="7"/>
<feGaussianBlur stdDeviation="5"/>
<feComposite in2="hardAlpha" operator="arithmetic" k2="-1" k3="1"/>
<feColorMatrix type="matrix" values="0 0 0 0 0 0 0 0 0 0 0 0 0 0 0 0 0 0 0.25 0"/>
<feBlend mode="normal" in2="shape" result="effect1_innerShadow_87_2"/>
</filter>
<filter id="filter1_d_87_2" x="35" y="211" width="250" height="75" filterUnits="userSpaceOnUse" color-interpolation-filters="sRGB">
<feFlood flood-opacity="0" result="BackgroundImageFix"/>
<feColorMatrix in="SourceAlpha" type="matrix" values="0 0 0 0 0 0 0 0 0 0 0 0 0 0 0 0 0 0 127 0" result="hardAlpha"/>
<feMorphology radius="1" operator="dilate" in="SourceAlpha" result="effect1_dropShadow_87_2"/>
<feOffset dx="2" dy="1"/>
<feGaussianBlur stdDeviation="5.5"/>
<feComposite in2="hardAlpha" operator="out"/>
<feColorMatrix type="matrix" values="0 0 0 0 1 0 0 0 0 1 0 0 0 0 1 0 0 0 0.25 0"/>
<feBlend mode="normal" in2="BackgroundImageFix" result="effect1_dropShadow_87_2"/>
<feBlend mode="normal" in="SourceGraphic" in2="effect1_dropShadow_87_2" result="shape"/>
</filter>
</defs>
</svg>
