<svg xmlns="http://www.w3.org/2000/svg" xmlns:xlink="http://www.w3.org/1999/xlink" width="70" zoomAndPan="magnify" viewBox="0 0 52.5 52.499999" height="70" preserveAspectRatio="xMidYMid meet" version="1.0"><defs><clipPath id="8ef70104e8"><path d="M 2.164062 6.359375 L 50.164062 6.359375 L 50.164062 44.609375 L 2.164062 44.609375 Z M 2.164062 6.359375 " clip-rule="nonzero"/></clipPath></defs><g clip-path="url(#8ef70104e8)"><path fill="#737373" d="M 6.054688 21.84375 C 3.902344 21.84375 2.164062 23.554688 2.164062 25.675781 C 2.164062 27.796875 3.902344 29.511719 6.054688 29.511719 C 8.210938 29.511719 9.949219 27.796875 9.949219 25.675781 C 9.949219 23.554688 8.210938 21.84375 6.054688 21.84375 Z M 6.054688 6.507812 C 3.902344 6.507812 2.164062 8.21875 2.164062 10.34375 C 2.164062 12.464844 3.902344 14.175781 6.054688 14.175781 C 8.210938 14.175781 9.949219 12.464844 9.949219 10.34375 C 9.949219 8.21875 8.210938 6.507812 6.054688 6.507812 Z M 6.054688 37.597656 C 4.148438 37.597656 2.59375 39.121094 2.59375 41.011719 C 2.59375 42.902344 4.148438 44.421875 6.054688 44.421875 C 7.964844 44.421875 9.519531 42.902344 9.519531 41.011719 C 9.519531 39.121094 7.964844 37.597656 6.054688 37.597656 Z M 13.839844 43.566406 L 50.164062 43.566406 L 50.164062 38.457031 L 13.839844 38.457031 Z M 13.839844 28.230469 L 50.164062 28.230469 L 50.164062 23.121094 L 13.839844 23.121094 Z M 13.839844 7.785156 L 13.839844 12.898438 L 50.164062 12.898438 L 50.164062 7.785156 Z M 13.839844 7.785156 " fill-opacity="1" fill-rule="nonzero"/></g></svg>