<svg xmlns="http://www.w3.org/2000/svg" xmlns:xlink="http://www.w3.org/1999/xlink" width="70" zoomAndPan="magnify" viewBox="0 0 52.5 52.499999" height="70" preserveAspectRatio="xMidYMid meet" version="1.0"><defs><g/><clipPath id="b1fc278ce0"><path d="M 5.503906 6.359375 L 47.503906 6.359375 L 47.503906 40 L 5.503906 40 Z M 5.503906 6.359375 " clip-rule="nonzero"/></clipPath></defs><g clip-path="url(#b1fc278ce0)"><path fill="#737373" d="M 8.910156 20.023438 C 7.023438 20.023438 5.503906 21.53125 5.503906 23.402344 C 5.503906 25.273438 7.023438 26.785156 8.910156 26.785156 C 10.792969 26.785156 12.3125 25.273438 12.3125 23.402344 C 12.3125 21.53125 10.792969 20.023438 8.910156 20.023438 Z M 8.910156 6.492188 C 7.023438 6.492188 5.503906 8.003906 5.503906 9.875 C 5.503906 11.746094 7.023438 13.257812 8.910156 13.257812 C 10.792969 13.257812 12.3125 11.746094 12.3125 9.875 C 12.3125 8.003906 10.792969 6.492188 8.910156 6.492188 Z M 8.910156 33.921875 C 7.238281 33.921875 5.878906 35.265625 5.878906 36.933594 C 5.878906 38.601562 7.238281 39.941406 8.910156 39.941406 C 10.578125 39.941406 11.941406 38.601562 11.941406 36.933594 C 11.941406 35.265625 10.578125 33.921875 8.910156 33.921875 Z M 15.71875 39.1875 L 47.503906 39.1875 L 47.503906 34.675781 L 15.71875 34.675781 Z M 15.71875 25.660156 L 47.503906 25.660156 L 47.503906 21.148438 L 15.71875 21.148438 Z M 15.71875 7.621094 L 15.71875 12.128906 L 47.503906 12.128906 L 47.503906 7.621094 Z M 15.71875 7.621094 " fill-opacity="1" fill-rule="nonzero"/></g><g fill="#737373" fill-opacity="1"><g transform="translate(13.802419, 46.149997)"><g><path d="M 2.296875 -2.859375 L 2.296875 -2.375 L 1.46875 -2.375 L 1.46875 0 L 0.90625 0 L 0.90625 -2.375 L 0.078125 -2.375 L 0.078125 -2.859375 Z M 2.296875 -2.859375 "/></g></g></g><g fill="#737373" fill-opacity="1"><g transform="translate(16.167295, 46.149997)"><g><path d="M 0.3125 0 L 0.3125 -2.15625 L 0.84375 -2.15625 L 0.84375 -1.828125 L 0.875 -1.828125 C 0.925781 -1.941406 0.992188 -2.023438 1.078125 -2.078125 C 1.160156 -2.140625 1.265625 -2.171875 1.390625 -2.171875 C 1.515625 -2.171875 1.609375 -2.148438 1.671875 -2.109375 L 1.578125 -1.640625 L 1.53125 -1.640625 C 1.5 -1.648438 1.46875 -1.65625 1.4375 -1.65625 C 1.40625 -1.664062 1.363281 -1.671875 1.3125 -1.671875 C 1.164062 -1.671875 1.050781 -1.617188 0.96875 -1.515625 C 0.894531 -1.410156 0.859375 -1.242188 0.859375 -1.015625 L 0.859375 0 Z M 0.3125 0 "/></g></g></g><g fill="#737373" fill-opacity="1"><g transform="translate(17.855104, 46.149997)"><g><path d="M 0.84375 0.046875 C 0.707031 0.046875 0.585938 0.0195312 0.484375 -0.03125 C 0.378906 -0.0820312 0.300781 -0.15625 0.25 -0.25 C 0.195312 -0.351562 0.171875 -0.472656 0.171875 -0.609375 C 0.171875 -0.742188 0.195312 -0.851562 0.25 -0.9375 C 0.300781 -1.019531 0.382812 -1.085938 0.5 -1.140625 C 0.613281 -1.203125 0.765625 -1.25 0.953125 -1.28125 C 1.078125 -1.300781 1.171875 -1.320312 1.234375 -1.34375 C 1.304688 -1.363281 1.351562 -1.390625 1.375 -1.421875 C 1.40625 -1.453125 1.421875 -1.492188 1.421875 -1.546875 C 1.421875 -1.617188 1.394531 -1.671875 1.34375 -1.703125 C 1.289062 -1.742188 1.210938 -1.765625 1.109375 -1.765625 C 0.984375 -1.765625 0.863281 -1.734375 0.75 -1.671875 C 0.644531 -1.617188 0.554688 -1.550781 0.484375 -1.46875 L 0.4375 -1.46875 L 0.21875 -1.8125 C 0.320312 -1.9375 0.453125 -2.03125 0.609375 -2.09375 C 0.765625 -2.164062 0.9375 -2.203125 1.125 -2.203125 C 1.414062 -2.203125 1.625 -2.140625 1.75 -2.015625 C 1.875 -1.890625 1.9375 -1.71875 1.9375 -1.5 L 1.9375 -0.5625 C 1.9375 -0.46875 1.976562 -0.421875 2.0625 -0.421875 C 2.09375 -0.421875 2.125 -0.425781 2.15625 -0.4375 L 2.1875 -0.421875 L 2.234375 -0.046875 C 2.203125 -0.0234375 2.160156 -0.0078125 2.109375 0 C 2.054688 0.0078125 1.992188 0.015625 1.921875 0.015625 C 1.796875 0.015625 1.695312 -0.0078125 1.625 -0.0625 C 1.550781 -0.113281 1.5 -0.191406 1.46875 -0.296875 L 1.4375 -0.296875 C 1.320312 -0.0664062 1.125 0.046875 0.84375 0.046875 Z M 1.015625 -0.359375 C 1.140625 -0.359375 1.238281 -0.398438 1.3125 -0.484375 C 1.382812 -0.566406 1.421875 -0.6875 1.421875 -0.84375 L 1.421875 -1.0625 L 1.390625 -1.0625 C 1.359375 -1.039062 1.316406 -1.019531 1.265625 -1 C 1.210938 -0.976562 1.132812 -0.960938 1.03125 -0.953125 C 0.914062 -0.929688 0.832031 -0.894531 0.78125 -0.84375 C 0.726562 -0.800781 0.703125 -0.734375 0.703125 -0.640625 C 0.703125 -0.554688 0.726562 -0.488281 0.78125 -0.4375 C 0.832031 -0.382812 0.910156 -0.359375 1.015625 -0.359375 Z M 1.015625 -0.359375 "/></g></g></g><g fill="#737373" fill-opacity="1"><g transform="translate(20.124375, 46.149997)"><g><path d="M 0.3125 0 L 0.3125 -2.15625 L 0.828125 -2.15625 L 0.828125 -1.84375 L 0.875 -1.828125 C 1.007812 -2.078125 1.226562 -2.203125 1.53125 -2.203125 C 1.769531 -2.203125 1.945312 -2.132812 2.0625 -2 C 2.1875 -1.863281 2.25 -1.664062 2.25 -1.40625 L 2.25 0 L 1.703125 0 L 1.703125 -1.328125 C 1.703125 -1.472656 1.671875 -1.578125 1.609375 -1.640625 C 1.554688 -1.703125 1.46875 -1.734375 1.34375 -1.734375 C 1.1875 -1.734375 1.066406 -1.679688 0.984375 -1.578125 C 0.898438 -1.484375 0.859375 -1.328125 0.859375 -1.109375 L 0.859375 0 Z M 0.3125 0 "/></g></g></g><g fill="#737373" fill-opacity="1"><g transform="translate(22.645348, 46.149997)"><g><path d="M 1.015625 0.046875 C 0.859375 0.046875 0.71875 0.03125 0.59375 0 C 0.476562 -0.0390625 0.375 -0.09375 0.28125 -0.15625 C 0.195312 -0.21875 0.132812 -0.285156 0.09375 -0.359375 L 0.40625 -0.6875 L 0.4375 -0.6875 C 0.507812 -0.59375 0.59375 -0.519531 0.6875 -0.46875 C 0.789062 -0.414062 0.898438 -0.390625 1.015625 -0.390625 C 1.117188 -0.390625 1.195312 -0.410156 1.25 -0.453125 C 1.300781 -0.492188 1.328125 -0.546875 1.328125 -0.609375 C 1.328125 -0.671875 1.304688 -0.71875 1.265625 -0.75 C 1.234375 -0.789062 1.175781 -0.820312 1.09375 -0.84375 L 0.796875 -0.90625 C 0.585938 -0.957031 0.429688 -1.035156 0.328125 -1.140625 C 0.234375 -1.242188 0.1875 -1.378906 0.1875 -1.546875 C 0.1875 -1.679688 0.21875 -1.796875 0.28125 -1.890625 C 0.351562 -1.992188 0.453125 -2.070312 0.578125 -2.125 C 0.703125 -2.175781 0.847656 -2.203125 1.015625 -2.203125 C 1.203125 -2.203125 1.359375 -2.171875 1.484375 -2.109375 C 1.617188 -2.054688 1.722656 -1.984375 1.796875 -1.890625 L 1.5 -1.578125 L 1.46875 -1.578125 C 1.40625 -1.640625 1.335938 -1.6875 1.265625 -1.71875 C 1.191406 -1.75 1.109375 -1.765625 1.015625 -1.765625 C 0.796875 -1.765625 0.6875 -1.703125 0.6875 -1.578125 C 0.6875 -1.515625 0.707031 -1.460938 0.75 -1.421875 C 0.789062 -1.390625 0.863281 -1.363281 0.96875 -1.34375 L 1.234375 -1.296875 C 1.453125 -1.242188 1.609375 -1.164062 1.703125 -1.0625 C 1.804688 -0.957031 1.859375 -0.816406 1.859375 -0.640625 C 1.859375 -0.503906 1.820312 -0.382812 1.75 -0.28125 C 1.6875 -0.175781 1.585938 -0.09375 1.453125 -0.03125 C 1.328125 0.0195312 1.179688 0.046875 1.015625 0.046875 Z M 1.015625 0.046875 "/></g></g></g><g fill="#737373" fill-opacity="1"><g transform="translate(24.629742, 46.149997)"><g><path d="M 0.84375 0.046875 C 0.707031 0.046875 0.585938 0.0195312 0.484375 -0.03125 C 0.378906 -0.0820312 0.300781 -0.15625 0.25 -0.25 C 0.195312 -0.351562 0.171875 -0.472656 0.171875 -0.609375 C 0.171875 -0.742188 0.195312 -0.851562 0.25 -0.9375 C 0.300781 -1.019531 0.382812 -1.085938 0.5 -1.140625 C 0.613281 -1.203125 0.765625 -1.25 0.953125 -1.28125 C 1.078125 -1.300781 1.171875 -1.320312 1.234375 -1.34375 C 1.304688 -1.363281 1.351562 -1.390625 1.375 -1.421875 C 1.40625 -1.453125 1.421875 -1.492188 1.421875 -1.546875 C 1.421875 -1.617188 1.394531 -1.671875 1.34375 -1.703125 C 1.289062 -1.742188 1.210938 -1.765625 1.109375 -1.765625 C 0.984375 -1.765625 0.863281 -1.734375 0.75 -1.671875 C 0.644531 -1.617188 0.554688 -1.550781 0.484375 -1.46875 L 0.4375 -1.46875 L 0.21875 -1.8125 C 0.320312 -1.9375 0.453125 -2.03125 0.609375 -2.09375 C 0.765625 -2.164062 0.9375 -2.203125 1.125 -2.203125 C 1.414062 -2.203125 1.625 -2.140625 1.75 -2.015625 C 1.875 -1.890625 1.9375 -1.71875 1.9375 -1.5 L 1.9375 -0.5625 C 1.9375 -0.46875 1.976562 -0.421875 2.0625 -0.421875 C 2.09375 -0.421875 2.125 -0.425781 2.15625 -0.4375 L 2.1875 -0.421875 L 2.234375 -0.046875 C 2.203125 -0.0234375 2.160156 -0.0078125 2.109375 0 C 2.054688 0.0078125 1.992188 0.015625 1.921875 0.015625 C 1.796875 0.015625 1.695312 -0.0078125 1.625 -0.0625 C 1.550781 -0.113281 1.5 -0.191406 1.46875 -0.296875 L 1.4375 -0.296875 C 1.320312 -0.0664062 1.125 0.046875 0.84375 0.046875 Z M 1.015625 -0.359375 C 1.140625 -0.359375 1.238281 -0.398438 1.3125 -0.484375 C 1.382812 -0.566406 1.421875 -0.6875 1.421875 -0.84375 L 1.421875 -1.0625 L 1.390625 -1.0625 C 1.359375 -1.039062 1.316406 -1.019531 1.265625 -1 C 1.210938 -0.976562 1.132812 -0.960938 1.03125 -0.953125 C 0.914062 -0.929688 0.832031 -0.894531 0.78125 -0.84375 C 0.726562 -0.800781 0.703125 -0.734375 0.703125 -0.640625 C 0.703125 -0.554688 0.726562 -0.488281 0.78125 -0.4375 C 0.832031 -0.382812 0.910156 -0.359375 1.015625 -0.359375 Z M 1.015625 -0.359375 "/></g></g></g><g fill="#737373" fill-opacity="1"><g transform="translate(26.899014, 46.149997)"><g><path d="M 1.25 0.046875 C 1.039062 0.046875 0.859375 0.00390625 0.703125 -0.078125 C 0.546875 -0.171875 0.421875 -0.300781 0.328125 -0.46875 C 0.234375 -0.632812 0.1875 -0.835938 0.1875 -1.078125 C 0.1875 -1.316406 0.234375 -1.519531 0.328125 -1.6875 C 0.421875 -1.851562 0.546875 -1.976562 0.703125 -2.0625 C 0.859375 -2.15625 1.039062 -2.203125 1.25 -2.203125 C 1.695312 -2.203125 1.988281 -2.035156 2.125 -1.703125 L 1.75 -1.4375 L 1.703125 -1.4375 C 1.660156 -1.539062 1.601562 -1.613281 1.53125 -1.65625 C 1.457031 -1.707031 1.363281 -1.734375 1.25 -1.734375 C 1.09375 -1.734375 0.96875 -1.675781 0.875 -1.5625 C 0.789062 -1.457031 0.75 -1.296875 0.75 -1.078125 C 0.75 -0.859375 0.789062 -0.691406 0.875 -0.578125 C 0.96875 -0.472656 1.09375 -0.421875 1.25 -0.421875 C 1.375 -0.421875 1.472656 -0.453125 1.546875 -0.515625 C 1.628906 -0.578125 1.691406 -0.664062 1.734375 -0.78125 L 1.765625 -0.796875 L 2.15625 -0.578125 C 2.101562 -0.398438 2 -0.25 1.84375 -0.125 C 1.695312 -0.0078125 1.5 0.046875 1.25 0.046875 Z M 1.25 0.046875 "/></g></g></g><g fill="#737373" fill-opacity="1"><g transform="translate(29.117554, 46.149997)"><g><path d="M 1.484375 -0.515625 L 1.625 -0.109375 C 1.570312 -0.0664062 1.5 -0.03125 1.40625 0 C 1.320312 0.03125 1.222656 0.046875 1.109375 0.046875 C 0.867188 0.046875 0.6875 -0.015625 0.5625 -0.140625 C 0.445312 -0.273438 0.390625 -0.460938 0.390625 -0.703125 L 0.390625 -1.734375 L 0.0625 -1.734375 L 0.0625 -2.15625 L 0.390625 -2.15625 L 0.390625 -2.578125 L 0.9375 -2.671875 L 0.9375 -2.15625 L 1.546875 -2.15625 L 1.546875 -1.734375 L 0.9375 -1.734375 L 0.9375 -0.75 C 0.9375 -0.632812 0.957031 -0.550781 1 -0.5 C 1.039062 -0.457031 1.101562 -0.4375 1.1875 -0.4375 C 1.289062 -0.4375 1.378906 -0.460938 1.453125 -0.515625 Z M 1.484375 -0.515625 "/></g></g></g><g fill="#737373" fill-opacity="1"><g transform="translate(30.789753, 46.149997)"><g><path d="M 0.578125 -2.40625 C 0.484375 -2.40625 0.40625 -2.4375 0.34375 -2.5 C 0.28125 -2.5625 0.25 -2.640625 0.25 -2.734375 C 0.25 -2.828125 0.28125 -2.898438 0.34375 -2.953125 C 0.40625 -3.015625 0.484375 -3.046875 0.578125 -3.046875 C 0.640625 -3.046875 0.695312 -3.03125 0.75 -3 C 0.800781 -2.976562 0.84375 -2.941406 0.875 -2.890625 C 0.90625 -2.847656 0.921875 -2.796875 0.921875 -2.734375 C 0.921875 -2.671875 0.90625 -2.613281 0.875 -2.5625 C 0.84375 -2.519531 0.800781 -2.484375 0.75 -2.453125 C 0.695312 -2.421875 0.640625 -2.40625 0.578125 -2.40625 Z M 0.3125 0 L 0.3125 -2.15625 L 0.859375 -2.15625 L 0.859375 0 Z M 0.3125 0 "/></g></g></g><g fill="#737373" fill-opacity="1"><g transform="translate(31.948776, 46.149997)"><g><path d="M 1.25 0.046875 C 1.039062 0.046875 0.851562 0.00390625 0.6875 -0.078125 C 0.53125 -0.171875 0.40625 -0.300781 0.3125 -0.46875 C 0.226562 -0.632812 0.1875 -0.835938 0.1875 -1.078125 C 0.1875 -1.316406 0.226562 -1.519531 0.3125 -1.6875 C 0.40625 -1.851562 0.53125 -1.976562 0.6875 -2.0625 C 0.851562 -2.15625 1.039062 -2.203125 1.25 -2.203125 C 1.457031 -2.203125 1.640625 -2.15625 1.796875 -2.0625 C 1.960938 -1.976562 2.085938 -1.851562 2.171875 -1.6875 C 2.265625 -1.519531 2.3125 -1.316406 2.3125 -1.078125 C 2.3125 -0.835938 2.265625 -0.632812 2.171875 -0.46875 C 2.085938 -0.300781 1.960938 -0.171875 1.796875 -0.078125 C 1.640625 0.00390625 1.457031 0.046875 1.25 0.046875 Z M 1.25 -0.421875 C 1.582031 -0.421875 1.75 -0.640625 1.75 -1.078125 C 1.75 -1.304688 1.707031 -1.472656 1.625 -1.578125 C 1.539062 -1.679688 1.414062 -1.734375 1.25 -1.734375 C 0.914062 -1.734375 0.75 -1.515625 0.75 -1.078125 C 0.75 -0.640625 0.914062 -0.421875 1.25 -0.421875 Z M 1.25 -0.421875 "/></g></g></g><g fill="#737373" fill-opacity="1"><g transform="translate(34.450237, 46.149997)"><g><path d="M 0.3125 0 L 0.3125 -2.15625 L 0.828125 -2.15625 L 0.828125 -1.84375 L 0.875 -1.828125 C 1.007812 -2.078125 1.226562 -2.203125 1.53125 -2.203125 C 1.769531 -2.203125 1.945312 -2.132812 2.0625 -2 C 2.1875 -1.863281 2.25 -1.664062 2.25 -1.40625 L 2.25 0 L 1.703125 0 L 1.703125 -1.328125 C 1.703125 -1.472656 1.671875 -1.578125 1.609375 -1.640625 C 1.554688 -1.703125 1.46875 -1.734375 1.34375 -1.734375 C 1.1875 -1.734375 1.066406 -1.679688 0.984375 -1.578125 C 0.898438 -1.484375 0.859375 -1.328125 0.859375 -1.109375 L 0.859375 0 Z M 0.3125 0 "/></g></g></g><g fill="#737373" fill-opacity="1"><g transform="translate(36.97121, 46.149997)"><g><path d="M 1.015625 0.046875 C 0.859375 0.046875 0.71875 0.03125 0.59375 0 C 0.476562 -0.0390625 0.375 -0.09375 0.28125 -0.15625 C 0.195312 -0.21875 0.132812 -0.285156 0.09375 -0.359375 L 0.40625 -0.6875 L 0.4375 -0.6875 C 0.507812 -0.59375 0.59375 -0.519531 0.6875 -0.46875 C 0.789062 -0.414062 0.898438 -0.390625 1.015625 -0.390625 C 1.117188 -0.390625 1.195312 -0.410156 1.25 -0.453125 C 1.300781 -0.492188 1.328125 -0.546875 1.328125 -0.609375 C 1.328125 -0.671875 1.304688 -0.71875 1.265625 -0.75 C 1.234375 -0.789062 1.175781 -0.820312 1.09375 -0.84375 L 0.796875 -0.90625 C 0.585938 -0.957031 0.429688 -1.035156 0.328125 -1.140625 C 0.234375 -1.242188 0.1875 -1.378906 0.1875 -1.546875 C 0.1875 -1.679688 0.21875 -1.796875 0.28125 -1.890625 C 0.351562 -1.992188 0.453125 -2.070312 0.578125 -2.125 C 0.703125 -2.175781 0.847656 -2.203125 1.015625 -2.203125 C 1.203125 -2.203125 1.359375 -2.171875 1.484375 -2.109375 C 1.617188 -2.054688 1.722656 -1.984375 1.796875 -1.890625 L 1.5 -1.578125 L 1.46875 -1.578125 C 1.40625 -1.640625 1.335938 -1.6875 1.265625 -1.71875 C 1.191406 -1.75 1.109375 -1.765625 1.015625 -1.765625 C 0.796875 -1.765625 0.6875 -1.703125 0.6875 -1.578125 C 0.6875 -1.515625 0.707031 -1.460938 0.75 -1.421875 C 0.789062 -1.390625 0.863281 -1.363281 0.96875 -1.34375 L 1.234375 -1.296875 C 1.453125 -1.242188 1.609375 -1.164062 1.703125 -1.0625 C 1.804688 -0.957031 1.859375 -0.816406 1.859375 -0.640625 C 1.859375 -0.503906 1.820312 -0.382812 1.75 -0.28125 C 1.6875 -0.175781 1.585938 -0.09375 1.453125 -0.03125 C 1.328125 0.0195312 1.179688 0.046875 1.015625 0.046875 Z M 1.015625 0.046875 "/></g></g></g></svg>