<svg xmlns="http://www.w3.org/2000/svg" xmlns:xlink="http://www.w3.org/1999/xlink" width="70" zoomAndPan="magnify" viewBox="0 0 52.5 52.499999" height="70" preserveAspectRatio="xMidYMid meet" version="1.0"><defs><g/><clipPath id="7083c03a1b"><path d="M 12.789062 3.414062 L 39.789062 3.414062 L 39.789062 39.414062 L 12.789062 39.414062 Z M 12.789062 3.414062 " clip-rule="nonzero"/></clipPath></defs><g clip-path="url(#7083c03a1b)"><path fill="#737373" d="M 39.503906 3.425781 L 13.078125 3.425781 C 12.917969 3.425781 12.789062 3.554688 12.789062 3.710938 L 12.789062 39.117188 C 12.789062 39.273438 12.917969 39.402344 13.078125 39.402344 L 39.503906 39.402344 C 39.660156 39.402344 39.789062 39.273438 39.789062 39.117188 L 39.789062 3.710938 C 39.789062 3.554688 39.660156 3.425781 39.503906 3.425781 Z M 39.214844 38.832031 L 13.363281 38.832031 L 13.363281 3.996094 L 39.214844 3.996094 Z M 39.214844 38.832031 " fill-opacity="1" fill-rule="nonzero"/></g><path fill="#737373" d="M 24.023438 10.777344 L 28.554688 10.777344 C 28.714844 10.777344 28.84375 10.648438 28.84375 10.492188 L 28.84375 7.855469 C 28.84375 7.699219 28.714844 7.570312 28.554688 7.570312 C 28.398438 7.570312 28.269531 7.699219 28.269531 7.855469 L 28.269531 10.207031 L 24.3125 10.207031 L 24.3125 6.257812 L 26.667969 6.257812 C 26.828125 6.257812 26.953125 6.128906 26.953125 5.972656 C 26.953125 5.816406 26.828125 5.6875 26.667969 5.6875 L 24.023438 5.6875 C 23.867188 5.6875 23.738281 5.816406 23.738281 5.972656 L 23.738281 10.492188 C 23.738281 10.648438 23.867188 10.777344 24.023438 10.777344 Z M 24.023438 10.777344 " fill-opacity="1" fill-rule="nonzero"/><path fill="#737373" d="M 21.382812 14.542969 L 35.726562 14.542969 C 35.886719 14.542969 36.015625 14.417969 36.015625 14.257812 C 36.015625 14.101562 35.886719 13.972656 35.726562 13.972656 L 21.382812 13.972656 C 21.222656 13.972656 21.09375 14.101562 21.09375 14.257812 C 21.09375 14.417969 21.222656 14.542969 21.382812 14.542969 Z M 21.382812 14.542969 " fill-opacity="1" fill-rule="nonzero"/><path fill="#737373" d="M 21.382812 16.804688 L 35.726562 16.804688 C 35.886719 16.804688 36.015625 16.675781 36.015625 16.519531 C 36.015625 16.359375 35.886719 16.234375 35.726562 16.234375 L 21.382812 16.234375 C 21.222656 16.234375 21.09375 16.359375 21.09375 16.519531 C 21.09375 16.675781 21.222656 16.804688 21.382812 16.804688 Z M 21.382812 16.804688 " fill-opacity="1" fill-rule="nonzero"/><path fill="#737373" d="M 21.382812 20.945312 L 35.726562 20.945312 C 35.886719 20.945312 36.015625 20.820312 36.015625 20.660156 C 36.015625 20.503906 35.886719 20.375 35.726562 20.375 L 21.382812 20.375 C 21.222656 20.375 21.09375 20.503906 21.09375 20.660156 C 21.09375 20.820312 21.222656 20.945312 21.382812 20.945312 Z M 21.382812 20.945312 " fill-opacity="1" fill-rule="nonzero"/><path fill="#737373" d="M 21.382812 23.207031 L 35.726562 23.207031 C 35.886719 23.207031 36.015625 23.078125 36.015625 22.921875 C 36.015625 22.765625 35.886719 22.636719 35.726562 22.636719 L 21.382812 22.636719 C 21.222656 22.636719 21.09375 22.765625 21.09375 22.921875 C 21.09375 23.078125 21.222656 23.207031 21.382812 23.207031 Z M 21.382812 23.207031 " fill-opacity="1" fill-rule="nonzero"/><path fill="#737373" d="M 21.382812 27.351562 L 35.726562 27.351562 C 35.886719 27.351562 36.015625 27.222656 36.015625 27.066406 C 36.015625 26.90625 35.886719 26.777344 35.726562 26.777344 L 21.382812 26.777344 C 21.222656 26.777344 21.09375 26.90625 21.09375 27.066406 C 21.09375 27.222656 21.222656 27.351562 21.382812 27.351562 Z M 21.382812 27.351562 " fill-opacity="1" fill-rule="nonzero"/><path fill="#737373" d="M 21.382812 29.609375 L 35.726562 29.609375 C 35.886719 29.609375 36.015625 29.480469 36.015625 29.324219 C 36.015625 29.167969 35.886719 29.039062 35.726562 29.039062 L 21.382812 29.039062 C 21.222656 29.039062 21.09375 29.167969 21.09375 29.324219 C 21.09375 29.480469 21.222656 29.609375 21.382812 29.609375 Z M 21.382812 29.609375 " fill-opacity="1" fill-rule="nonzero"/><path fill="#737373" d="M 21.382812 33.753906 L 35.726562 33.753906 C 35.886719 33.753906 36.015625 33.625 36.015625 33.46875 C 36.015625 33.308594 35.886719 33.183594 35.726562 33.183594 L 21.382812 33.183594 C 21.222656 33.183594 21.09375 33.308594 21.09375 33.46875 C 21.09375 33.625 21.222656 33.753906 21.382812 33.753906 Z M 21.382812 33.753906 " fill-opacity="1" fill-rule="nonzero"/><path fill="#737373" d="M 21.382812 36.011719 L 35.726562 36.011719 C 35.886719 36.011719 36.015625 35.886719 36.015625 35.726562 C 36.015625 35.570312 35.886719 35.441406 35.726562 35.441406 L 21.382812 35.441406 C 21.222656 35.441406 21.09375 35.570312 21.09375 35.726562 C 21.09375 35.886719 21.222656 36.011719 21.382812 36.011719 Z M 21.382812 36.011719 " fill-opacity="1" fill-rule="nonzero"/><path fill="#737373" d="M 16.964844 17.378906 C 17.003906 17.476562 17.097656 17.546875 17.207031 17.554688 C 17.214844 17.554688 17.222656 17.558594 17.230469 17.558594 C 17.332031 17.558594 17.425781 17.503906 17.476562 17.417969 L 19.742188 13.652344 C 19.824219 13.515625 19.777344 13.339844 19.644531 13.257812 C 19.507812 13.179688 19.332031 13.222656 19.25 13.359375 L 17.28125 16.628906 L 16.742188 15.28125 C 16.683594 15.136719 16.515625 15.0625 16.367188 15.121094 C 16.222656 15.179688 16.148438 15.347656 16.207031 15.492188 Z M 16.964844 17.378906 " fill-opacity="1" fill-rule="nonzero"/><path fill="#737373" d="M 25.574219 6.996094 C 25.515625 6.851562 25.351562 6.777344 25.203125 6.835938 C 25.054688 6.894531 24.984375 7.0625 25.042969 7.207031 L 25.949219 9.46875 C 25.988281 9.570312 26.082031 9.636719 26.191406 9.644531 C 26.199219 9.648438 26.207031 9.648438 26.214844 9.648438 C 26.316406 9.648438 26.410156 9.59375 26.460938 9.507812 L 29.179688 4.988281 C 29.261719 4.851562 29.214844 4.675781 29.082031 4.597656 C 28.945312 4.515625 28.769531 4.558594 28.6875 4.695312 L 26.265625 8.71875 Z M 25.574219 6.996094 " fill-opacity="1" fill-rule="nonzero"/><path fill="#737373" d="M 16.964844 23.78125 C 17.003906 23.882812 17.097656 23.949219 17.207031 23.960938 C 17.214844 23.960938 17.222656 23.960938 17.230469 23.960938 C 17.332031 23.960938 17.425781 23.90625 17.476562 23.820312 L 19.742188 20.054688 C 19.824219 19.917969 19.777344 19.742188 19.644531 19.664062 C 19.507812 19.582031 19.332031 19.625 19.25 19.761719 L 17.28125 23.03125 L 16.742188 21.6875 C 16.683594 21.539062 16.515625 21.46875 16.367188 21.527344 C 16.222656 21.585938 16.148438 21.75 16.207031 21.898438 Z M 16.964844 23.78125 " fill-opacity="1" fill-rule="nonzero"/><path fill="#737373" d="M 16.964844 30.183594 C 17.003906 30.285156 17.097656 30.355469 17.207031 30.363281 C 17.214844 30.363281 17.222656 30.363281 17.230469 30.363281 C 17.332031 30.363281 17.425781 30.308594 17.476562 30.222656 L 19.742188 26.457031 C 19.824219 26.320312 19.777344 26.148438 19.644531 26.066406 C 19.507812 25.984375 19.332031 26.027344 19.25 26.164062 L 17.28125 29.433594 L 16.742188 28.089844 C 16.683594 27.941406 16.515625 27.871094 16.367188 27.929688 C 16.222656 27.988281 16.148438 28.152344 16.207031 28.300781 Z M 16.964844 30.183594 " fill-opacity="1" fill-rule="nonzero"/><path fill="#737373" d="M 16.964844 36.585938 C 17.003906 36.6875 17.097656 36.757812 17.207031 36.765625 C 17.214844 36.765625 17.222656 36.765625 17.230469 36.765625 C 17.332031 36.765625 17.425781 36.714844 17.476562 36.628906 L 19.742188 32.859375 C 19.824219 32.726562 19.777344 32.550781 19.644531 32.46875 C 19.507812 32.386719 19.332031 32.433594 19.25 32.566406 L 17.28125 35.839844 L 16.742188 34.492188 C 16.683594 34.34375 16.515625 34.273438 16.367188 34.332031 C 16.222656 34.390625 16.148438 34.554688 16.207031 34.703125 Z M 16.964844 36.585938 " fill-opacity="1" fill-rule="nonzero"/><g fill="#737373" fill-opacity="1"><g transform="translate(14.042654, 46.149989)"><g><path d="M 2.734375 0 L 2.140625 0 L 1.9375 -0.65625 L 0.84375 -0.65625 L 0.625 0 L 0.046875 0 L 1.03125 -2.859375 L 1.75 -2.859375 Z M 1.359375 -2.265625 L 0.984375 -1.140625 L 1.78125 -1.140625 L 1.40625 -2.265625 Z M 1.359375 -2.265625 "/></g></g></g><g fill="#737373" fill-opacity="1"><g transform="translate(16.823144, 46.149989)"><g><path d="M 0.3125 0.875 L 0.3125 -2.15625 L 0.859375 -2.15625 L 0.859375 -1.875 L 0.890625 -1.859375 C 0.953125 -1.972656 1.035156 -2.054688 1.140625 -2.109375 C 1.253906 -2.171875 1.382812 -2.203125 1.53125 -2.203125 C 1.695312 -2.203125 1.84375 -2.160156 1.96875 -2.078125 C 2.101562 -1.992188 2.207031 -1.867188 2.28125 -1.703125 C 2.351562 -1.535156 2.390625 -1.328125 2.390625 -1.078125 C 2.390625 -0.828125 2.347656 -0.617188 2.265625 -0.453125 C 2.191406 -0.285156 2.085938 -0.160156 1.953125 -0.078125 C 1.816406 0.00390625 1.660156 0.046875 1.484375 0.046875 C 1.347656 0.046875 1.234375 0.0234375 1.140625 -0.015625 C 1.046875 -0.0664062 0.960938 -0.140625 0.890625 -0.234375 L 0.859375 -0.234375 L 0.859375 0.875 Z M 1.34375 -0.421875 C 1.5 -0.421875 1.617188 -0.472656 1.703125 -0.578125 C 1.785156 -0.679688 1.828125 -0.847656 1.828125 -1.078125 C 1.828125 -1.304688 1.785156 -1.472656 1.703125 -1.578125 C 1.617188 -1.679688 1.5 -1.734375 1.34375 -1.734375 C 1.1875 -1.734375 1.0625 -1.675781 0.96875 -1.5625 C 0.882812 -1.457031 0.84375 -1.296875 0.84375 -1.078125 C 0.84375 -0.859375 0.882812 -0.691406 0.96875 -0.578125 C 1.0625 -0.472656 1.1875 -0.421875 1.34375 -0.421875 Z M 1.34375 -0.421875 "/></g></g></g><g fill="#737373" fill-opacity="1"><g transform="translate(19.400708, 46.149989)"><g><path d="M 0.3125 0.875 L 0.3125 -2.15625 L 0.859375 -2.15625 L 0.859375 -1.875 L 0.890625 -1.859375 C 0.953125 -1.972656 1.035156 -2.054688 1.140625 -2.109375 C 1.253906 -2.171875 1.382812 -2.203125 1.53125 -2.203125 C 1.695312 -2.203125 1.84375 -2.160156 1.96875 -2.078125 C 2.101562 -1.992188 2.207031 -1.867188 2.28125 -1.703125 C 2.351562 -1.535156 2.390625 -1.328125 2.390625 -1.078125 C 2.390625 -0.828125 2.347656 -0.617188 2.265625 -0.453125 C 2.191406 -0.285156 2.085938 -0.160156 1.953125 -0.078125 C 1.816406 0.00390625 1.660156 0.046875 1.484375 0.046875 C 1.347656 0.046875 1.234375 0.0234375 1.140625 -0.015625 C 1.046875 -0.0664062 0.960938 -0.140625 0.890625 -0.234375 L 0.859375 -0.234375 L 0.859375 0.875 Z M 1.34375 -0.421875 C 1.5 -0.421875 1.617188 -0.472656 1.703125 -0.578125 C 1.785156 -0.679688 1.828125 -0.847656 1.828125 -1.078125 C 1.828125 -1.304688 1.785156 -1.472656 1.703125 -1.578125 C 1.617188 -1.679688 1.5 -1.734375 1.34375 -1.734375 C 1.1875 -1.734375 1.0625 -1.675781 0.96875 -1.5625 C 0.882812 -1.457031 0.84375 -1.296875 0.84375 -1.078125 C 0.84375 -0.859375 0.882812 -0.691406 0.96875 -0.578125 C 1.0625 -0.472656 1.1875 -0.421875 1.34375 -0.421875 Z M 1.34375 -0.421875 "/></g></g></g><g fill="#737373" fill-opacity="1"><g transform="translate(21.978272, 46.149989)"><g><path d="M 0.890625 0.046875 C 0.703125 0.046875 0.554688 -0.00390625 0.453125 -0.109375 C 0.347656 -0.222656 0.296875 -0.382812 0.296875 -0.59375 L 0.296875 -3.015625 L 0.84375 -3.015625 L 0.84375 -0.609375 C 0.84375 -0.484375 0.894531 -0.421875 1 -0.421875 C 1.03125 -0.421875 1.066406 -0.425781 1.109375 -0.4375 L 1.125 -0.421875 L 1.171875 -0.015625 C 1.148438 0.00390625 1.113281 0.0195312 1.0625 0.03125 C 1.007812 0.0390625 0.953125 0.046875 0.890625 0.046875 Z M 0.890625 0.046875 "/></g></g></g><g fill="#737373" fill-opacity="1"><g transform="translate(23.215344, 46.149989)"><g><path d="M 0.578125 -2.40625 C 0.484375 -2.40625 0.40625 -2.4375 0.34375 -2.5 C 0.28125 -2.5625 0.25 -2.640625 0.25 -2.734375 C 0.25 -2.828125 0.28125 -2.898438 0.34375 -2.953125 C 0.40625 -3.015625 0.484375 -3.046875 0.578125 -3.046875 C 0.640625 -3.046875 0.695312 -3.03125 0.75 -3 C 0.800781 -2.976562 0.84375 -2.941406 0.875 -2.890625 C 0.90625 -2.847656 0.921875 -2.796875 0.921875 -2.734375 C 0.921875 -2.671875 0.90625 -2.613281 0.875 -2.5625 C 0.84375 -2.519531 0.800781 -2.484375 0.75 -2.453125 C 0.695312 -2.421875 0.640625 -2.40625 0.578125 -2.40625 Z M 0.3125 0 L 0.3125 -2.15625 L 0.859375 -2.15625 L 0.859375 0 Z M 0.3125 0 "/></g></g></g><g fill="#737373" fill-opacity="1"><g transform="translate(24.374367, 46.149989)"><g><path d="M 1.25 0.046875 C 1.039062 0.046875 0.859375 0.00390625 0.703125 -0.078125 C 0.546875 -0.171875 0.421875 -0.300781 0.328125 -0.46875 C 0.234375 -0.632812 0.1875 -0.835938 0.1875 -1.078125 C 0.1875 -1.316406 0.234375 -1.519531 0.328125 -1.6875 C 0.421875 -1.851562 0.546875 -1.976562 0.703125 -2.0625 C 0.859375 -2.15625 1.039062 -2.203125 1.25 -2.203125 C 1.695312 -2.203125 1.988281 -2.035156 2.125 -1.703125 L 1.75 -1.4375 L 1.703125 -1.4375 C 1.660156 -1.539062 1.601562 -1.613281 1.53125 -1.65625 C 1.457031 -1.707031 1.363281 -1.734375 1.25 -1.734375 C 1.09375 -1.734375 0.96875 -1.675781 0.875 -1.5625 C 0.789062 -1.457031 0.75 -1.296875 0.75 -1.078125 C 0.75 -0.859375 0.789062 -0.691406 0.875 -0.578125 C 0.96875 -0.472656 1.09375 -0.421875 1.25 -0.421875 C 1.375 -0.421875 1.472656 -0.453125 1.546875 -0.515625 C 1.628906 -0.578125 1.691406 -0.664062 1.734375 -0.78125 L 1.765625 -0.796875 L 2.15625 -0.578125 C 2.101562 -0.398438 2 -0.25 1.84375 -0.125 C 1.695312 -0.0078125 1.5 0.046875 1.25 0.046875 Z M 1.25 0.046875 "/></g></g></g><g fill="#737373" fill-opacity="1"><g transform="translate(26.592907, 46.149989)"><g><path d="M 0.84375 0.046875 C 0.707031 0.046875 0.585938 0.0195312 0.484375 -0.03125 C 0.378906 -0.0820312 0.300781 -0.15625 0.25 -0.25 C 0.195312 -0.351562 0.171875 -0.472656 0.171875 -0.609375 C 0.171875 -0.742188 0.195312 -0.851562 0.25 -0.9375 C 0.300781 -1.019531 0.382812 -1.085938 0.5 -1.140625 C 0.613281 -1.203125 0.765625 -1.25 0.953125 -1.28125 C 1.078125 -1.300781 1.171875 -1.320312 1.234375 -1.34375 C 1.304688 -1.363281 1.351562 -1.390625 1.375 -1.421875 C 1.40625 -1.453125 1.421875 -1.492188 1.421875 -1.546875 C 1.421875 -1.617188 1.394531 -1.671875 1.34375 -1.703125 C 1.289062 -1.742188 1.210938 -1.765625 1.109375 -1.765625 C 0.984375 -1.765625 0.863281 -1.734375 0.75 -1.671875 C 0.644531 -1.617188 0.554688 -1.550781 0.484375 -1.46875 L 0.4375 -1.46875 L 0.21875 -1.8125 C 0.320312 -1.9375 0.453125 -2.03125 0.609375 -2.09375 C 0.765625 -2.164062 0.9375 -2.203125 1.125 -2.203125 C 1.414062 -2.203125 1.625 -2.140625 1.75 -2.015625 C 1.875 -1.890625 1.9375 -1.71875 1.9375 -1.5 L 1.9375 -0.5625 C 1.9375 -0.46875 1.976562 -0.421875 2.0625 -0.421875 C 2.09375 -0.421875 2.125 -0.425781 2.15625 -0.4375 L 2.1875 -0.421875 L 2.234375 -0.046875 C 2.203125 -0.0234375 2.160156 -0.0078125 2.109375 0 C 2.054688 0.0078125 1.992188 0.015625 1.921875 0.015625 C 1.796875 0.015625 1.695312 -0.0078125 1.625 -0.0625 C 1.550781 -0.113281 1.5 -0.191406 1.46875 -0.296875 L 1.4375 -0.296875 C 1.320312 -0.0664062 1.125 0.046875 0.84375 0.046875 Z M 1.015625 -0.359375 C 1.140625 -0.359375 1.238281 -0.398438 1.3125 -0.484375 C 1.382812 -0.566406 1.421875 -0.6875 1.421875 -0.84375 L 1.421875 -1.0625 L 1.390625 -1.0625 C 1.359375 -1.039062 1.316406 -1.019531 1.265625 -1 C 1.210938 -0.976562 1.132812 -0.960938 1.03125 -0.953125 C 0.914062 -0.929688 0.832031 -0.894531 0.78125 -0.84375 C 0.726562 -0.800781 0.703125 -0.734375 0.703125 -0.640625 C 0.703125 -0.554688 0.726562 -0.488281 0.78125 -0.4375 C 0.832031 -0.382812 0.910156 -0.359375 1.015625 -0.359375 Z M 1.015625 -0.359375 "/></g></g></g><g fill="#737373" fill-opacity="1"><g transform="translate(28.862179, 46.149989)"><g><path d="M 1.484375 -0.515625 L 1.625 -0.109375 C 1.570312 -0.0664062 1.5 -0.03125 1.40625 0 C 1.320312 0.03125 1.222656 0.046875 1.109375 0.046875 C 0.867188 0.046875 0.6875 -0.015625 0.5625 -0.140625 C 0.445312 -0.273438 0.390625 -0.460938 0.390625 -0.703125 L 0.390625 -1.734375 L 0.0625 -1.734375 L 0.0625 -2.15625 L 0.390625 -2.15625 L 0.390625 -2.578125 L 0.9375 -2.671875 L 0.9375 -2.15625 L 1.546875 -2.15625 L 1.546875 -1.734375 L 0.9375 -1.734375 L 0.9375 -0.75 C 0.9375 -0.632812 0.957031 -0.550781 1 -0.5 C 1.039062 -0.457031 1.101562 -0.4375 1.1875 -0.4375 C 1.289062 -0.4375 1.378906 -0.460938 1.453125 -0.515625 Z M 1.484375 -0.515625 "/></g></g></g><g fill="#737373" fill-opacity="1"><g transform="translate(30.534378, 46.149989)"><g><path d="M 0.578125 -2.40625 C 0.484375 -2.40625 0.40625 -2.4375 0.34375 -2.5 C 0.28125 -2.5625 0.25 -2.640625 0.25 -2.734375 C 0.25 -2.828125 0.28125 -2.898438 0.34375 -2.953125 C 0.40625 -3.015625 0.484375 -3.046875 0.578125 -3.046875 C 0.640625 -3.046875 0.695312 -3.03125 0.75 -3 C 0.800781 -2.976562 0.84375 -2.941406 0.875 -2.890625 C 0.90625 -2.847656 0.921875 -2.796875 0.921875 -2.734375 C 0.921875 -2.671875 0.90625 -2.613281 0.875 -2.5625 C 0.84375 -2.519531 0.800781 -2.484375 0.75 -2.453125 C 0.695312 -2.421875 0.640625 -2.40625 0.578125 -2.40625 Z M 0.3125 0 L 0.3125 -2.15625 L 0.859375 -2.15625 L 0.859375 0 Z M 0.3125 0 "/></g></g></g><g fill="#737373" fill-opacity="1"><g transform="translate(31.693401, 46.149989)"><g><path d="M 1.25 0.046875 C 1.039062 0.046875 0.851562 0.00390625 0.6875 -0.078125 C 0.53125 -0.171875 0.40625 -0.300781 0.3125 -0.46875 C 0.226562 -0.632812 0.1875 -0.835938 0.1875 -1.078125 C 0.1875 -1.316406 0.226562 -1.519531 0.3125 -1.6875 C 0.40625 -1.851562 0.53125 -1.976562 0.6875 -2.0625 C 0.851562 -2.15625 1.039062 -2.203125 1.25 -2.203125 C 1.457031 -2.203125 1.640625 -2.15625 1.796875 -2.0625 C 1.960938 -1.976562 2.085938 -1.851562 2.171875 -1.6875 C 2.265625 -1.519531 2.3125 -1.316406 2.3125 -1.078125 C 2.3125 -0.835938 2.265625 -0.632812 2.171875 -0.46875 C 2.085938 -0.300781 1.960938 -0.171875 1.796875 -0.078125 C 1.640625 0.00390625 1.457031 0.046875 1.25 0.046875 Z M 1.25 -0.421875 C 1.582031 -0.421875 1.75 -0.640625 1.75 -1.078125 C 1.75 -1.304688 1.707031 -1.472656 1.625 -1.578125 C 1.539062 -1.679688 1.414062 -1.734375 1.25 -1.734375 C 0.914062 -1.734375 0.75 -1.515625 0.75 -1.078125 C 0.75 -0.640625 0.914062 -0.421875 1.25 -0.421875 Z M 1.25 -0.421875 "/></g></g></g><g fill="#737373" fill-opacity="1"><g transform="translate(34.194862, 46.149989)"><g><path d="M 0.3125 0 L 0.3125 -2.15625 L 0.828125 -2.15625 L 0.828125 -1.84375 L 0.875 -1.828125 C 1.007812 -2.078125 1.226562 -2.203125 1.53125 -2.203125 C 1.769531 -2.203125 1.945312 -2.132812 2.0625 -2 C 2.1875 -1.863281 2.25 -1.664062 2.25 -1.40625 L 2.25 0 L 1.703125 0 L 1.703125 -1.328125 C 1.703125 -1.472656 1.671875 -1.578125 1.609375 -1.640625 C 1.554688 -1.703125 1.46875 -1.734375 1.34375 -1.734375 C 1.1875 -1.734375 1.066406 -1.679688 0.984375 -1.578125 C 0.898438 -1.484375 0.859375 -1.328125 0.859375 -1.109375 L 0.859375 0 Z M 0.3125 0 "/></g></g></g><g fill="#737373" fill-opacity="1"><g transform="translate(36.715835, 46.149989)"><g><path d="M 1.015625 0.046875 C 0.859375 0.046875 0.71875 0.03125 0.59375 0 C 0.476562 -0.0390625 0.375 -0.09375 0.28125 -0.15625 C 0.195312 -0.21875 0.132812 -0.285156 0.09375 -0.359375 L 0.40625 -0.6875 L 0.4375 -0.6875 C 0.507812 -0.59375 0.59375 -0.519531 0.6875 -0.46875 C 0.789062 -0.414062 0.898438 -0.390625 1.015625 -0.390625 C 1.117188 -0.390625 1.195312 -0.410156 1.25 -0.453125 C 1.300781 -0.492188 1.328125 -0.546875 1.328125 -0.609375 C 1.328125 -0.671875 1.304688 -0.71875 1.265625 -0.75 C 1.234375 -0.789062 1.175781 -0.820312 1.09375 -0.84375 L 0.796875 -0.90625 C 0.585938 -0.957031 0.429688 -1.035156 0.328125 -1.140625 C 0.234375 -1.242188 0.1875 -1.378906 0.1875 -1.546875 C 0.1875 -1.679688 0.21875 -1.796875 0.28125 -1.890625 C 0.351562 -1.992188 0.453125 -2.070312 0.578125 -2.125 C 0.703125 -2.175781 0.847656 -2.203125 1.015625 -2.203125 C 1.203125 -2.203125 1.359375 -2.171875 1.484375 -2.109375 C 1.617188 -2.054688 1.722656 -1.984375 1.796875 -1.890625 L 1.5 -1.578125 L 1.46875 -1.578125 C 1.40625 -1.640625 1.335938 -1.6875 1.265625 -1.71875 C 1.191406 -1.75 1.109375 -1.765625 1.015625 -1.765625 C 0.796875 -1.765625 0.6875 -1.703125 0.6875 -1.578125 C 0.6875 -1.515625 0.707031 -1.460938 0.75 -1.421875 C 0.789062 -1.390625 0.863281 -1.363281 0.96875 -1.34375 L 1.234375 -1.296875 C 1.453125 -1.242188 1.609375 -1.164062 1.703125 -1.0625 C 1.804688 -0.957031 1.859375 -0.816406 1.859375 -0.640625 C 1.859375 -0.503906 1.820312 -0.382812 1.75 -0.28125 C 1.6875 -0.175781 1.585938 -0.09375 1.453125 -0.03125 C 1.328125 0.0195312 1.179688 0.046875 1.015625 0.046875 Z M 1.015625 0.046875 "/></g></g></g></svg>