<svg xmlns="http://www.w3.org/2000/svg" xmlns:xlink="http://www.w3.org/1999/xlink" width="70" zoomAndPan="magnify" viewBox="0 0 52.5 52.499999" height="70" preserveAspectRatio="xMidYMid meet" version="1.0"><defs><clipPath id="0f9b70593e"><path d="M 8.519531 2.46875 L 43.769531 2.46875 L 43.769531 49.71875 L 8.519531 49.71875 Z M 8.519531 2.46875 " clip-rule="nonzero"/></clipPath></defs><g clip-path="url(#0f9b70593e)"><path fill="#737373" d="M 43.394531 2.484375 L 8.894531 2.484375 C 8.6875 2.484375 8.519531 2.652344 8.519531 2.859375 L 8.519531 49.324219 C 8.519531 49.53125 8.6875 49.699219 8.894531 49.699219 L 43.394531 49.699219 C 43.601562 49.699219 43.769531 49.53125 43.769531 49.324219 L 43.769531 2.859375 C 43.769531 2.652344 43.601562 2.484375 43.394531 2.484375 Z M 43.019531 48.949219 L 9.269531 48.949219 L 9.269531 3.234375 L 43.019531 3.234375 Z M 43.019531 48.949219 " fill-opacity="1" fill-rule="nonzero"/></g><path fill="#737373" d="M 23.1875 12.132812 L 29.101562 12.132812 C 29.308594 12.132812 29.476562 11.964844 29.476562 11.757812 L 29.476562 8.296875 C 29.476562 8.089844 29.308594 7.921875 29.101562 7.921875 C 28.894531 7.921875 28.726562 8.089844 28.726562 8.296875 L 28.726562 11.382812 L 23.5625 11.382812 L 23.5625 6.199219 L 26.636719 6.199219 C 26.84375 6.199219 27.011719 6.03125 27.011719 5.824219 C 27.011719 5.621094 26.84375 5.453125 26.636719 5.453125 L 23.1875 5.453125 C 22.980469 5.453125 22.8125 5.621094 22.8125 5.824219 L 22.8125 11.757812 C 22.8125 11.964844 22.980469 12.132812 23.1875 12.132812 Z M 23.1875 12.132812 " fill-opacity="1" fill-rule="nonzero"/><path fill="#737373" d="M 19.738281 17.074219 L 38.46875 17.074219 C 38.675781 17.074219 38.84375 16.90625 38.84375 16.699219 C 38.84375 16.492188 38.675781 16.324219 38.46875 16.324219 L 19.738281 16.324219 C 19.53125 16.324219 19.363281 16.492188 19.363281 16.699219 C 19.363281 16.90625 19.53125 17.074219 19.738281 17.074219 Z M 19.738281 17.074219 " fill-opacity="1" fill-rule="nonzero"/><path fill="#737373" d="M 19.738281 20.039062 L 38.46875 20.039062 C 38.675781 20.039062 38.84375 19.871094 38.84375 19.667969 C 38.84375 19.460938 38.675781 19.292969 38.46875 19.292969 L 19.738281 19.292969 C 19.53125 19.292969 19.363281 19.460938 19.363281 19.667969 C 19.363281 19.871094 19.53125 20.039062 19.738281 20.039062 Z M 19.738281 20.039062 " fill-opacity="1" fill-rule="nonzero"/><path fill="#737373" d="M 19.738281 25.476562 L 38.46875 25.476562 C 38.675781 25.476562 38.84375 25.308594 38.84375 25.101562 C 38.84375 24.898438 38.675781 24.730469 38.46875 24.730469 L 19.738281 24.730469 C 19.53125 24.730469 19.363281 24.898438 19.363281 25.101562 C 19.363281 25.308594 19.53125 25.476562 19.738281 25.476562 Z M 19.738281 25.476562 " fill-opacity="1" fill-rule="nonzero"/><path fill="#737373" d="M 19.738281 28.445312 L 38.46875 28.445312 C 38.675781 28.445312 38.84375 28.277344 38.84375 28.070312 C 38.84375 27.863281 38.675781 27.695312 38.46875 27.695312 L 19.738281 27.695312 C 19.53125 27.695312 19.363281 27.863281 19.363281 28.070312 C 19.363281 28.277344 19.53125 28.445312 19.738281 28.445312 Z M 19.738281 28.445312 " fill-opacity="1" fill-rule="nonzero"/><path fill="#737373" d="M 19.738281 33.878906 L 38.46875 33.878906 C 38.675781 33.878906 38.84375 33.714844 38.84375 33.507812 C 38.84375 33.300781 38.675781 33.132812 38.46875 33.132812 L 19.738281 33.132812 C 19.53125 33.132812 19.363281 33.300781 19.363281 33.507812 C 19.363281 33.714844 19.53125 33.878906 19.738281 33.878906 Z M 19.738281 33.878906 " fill-opacity="1" fill-rule="nonzero"/><path fill="#737373" d="M 19.738281 36.847656 L 38.46875 36.847656 C 38.675781 36.847656 38.84375 36.679688 38.84375 36.472656 C 38.84375 36.265625 38.675781 36.097656 38.46875 36.097656 L 19.738281 36.097656 C 19.53125 36.097656 19.363281 36.265625 19.363281 36.472656 C 19.363281 36.679688 19.53125 36.847656 19.738281 36.847656 Z M 19.738281 36.847656 " fill-opacity="1" fill-rule="nonzero"/><path fill="#737373" d="M 19.738281 42.285156 L 38.46875 42.285156 C 38.675781 42.285156 38.84375 42.117188 38.84375 41.910156 C 38.84375 41.703125 38.675781 41.535156 38.46875 41.535156 L 19.738281 41.535156 C 19.53125 41.535156 19.363281 41.703125 19.363281 41.910156 C 19.363281 42.117188 19.53125 42.285156 19.738281 42.285156 Z M 19.738281 42.285156 " fill-opacity="1" fill-rule="nonzero"/><path fill="#737373" d="M 19.738281 45.25 L 38.46875 45.25 C 38.675781 45.25 38.84375 45.082031 38.84375 44.875 C 38.84375 44.667969 38.675781 44.5 38.46875 44.5 L 19.738281 44.5 C 19.53125 44.5 19.363281 44.667969 19.363281 44.875 C 19.363281 45.082031 19.53125 45.25 19.738281 45.25 Z M 19.738281 45.25 " fill-opacity="1" fill-rule="nonzero"/><path fill="#737373" d="M 13.96875 20.792969 C 14.023438 20.925781 14.144531 21.015625 14.289062 21.027344 C 14.296875 21.027344 14.308594 21.027344 14.316406 21.027344 C 14.449219 21.027344 14.570312 20.960938 14.640625 20.847656 L 17.597656 15.902344 C 17.703125 15.726562 17.644531 15.496094 17.464844 15.390625 C 17.289062 15.285156 17.058594 15.339844 16.953125 15.519531 L 14.382812 19.8125 L 13.679688 18.042969 C 13.601562 17.851562 13.382812 17.757812 13.191406 17.835938 C 13 17.910156 12.90625 18.128906 12.984375 18.320312 Z M 13.96875 20.792969 " fill-opacity="1" fill-rule="nonzero"/><path fill="#737373" d="M 25.210938 7.171875 C 25.136719 6.976562 24.917969 6.882812 24.726562 6.960938 C 24.535156 7.039062 24.441406 7.253906 24.515625 7.449219 L 25.699219 10.414062 C 25.75 10.546875 25.875 10.636719 26.015625 10.648438 C 26.027344 10.648438 26.035156 10.648438 26.046875 10.648438 C 26.179688 10.648438 26.300781 10.578125 26.367188 10.464844 L 29.917969 4.535156 C 30.023438 4.355469 29.964844 4.128906 29.789062 4.019531 C 29.609375 3.914062 29.378906 3.972656 29.273438 4.148438 L 26.113281 9.429688 Z M 25.210938 7.171875 " fill-opacity="1" fill-rule="nonzero"/><path fill="#737373" d="M 13.96875 29.195312 C 14.023438 29.328125 14.144531 29.417969 14.289062 29.429688 C 14.296875 29.429688 14.308594 29.433594 14.316406 29.433594 C 14.449219 29.433594 14.570312 29.363281 14.640625 29.25 L 17.597656 24.308594 C 17.703125 24.128906 17.644531 23.898438 17.464844 23.792969 C 17.289062 23.6875 17.058594 23.746094 16.953125 23.921875 L 14.382812 28.214844 L 13.679688 26.445312 C 13.601562 26.253906 13.382812 26.160156 13.191406 26.238281 C 13 26.3125 12.90625 26.53125 12.984375 26.722656 Z M 13.96875 29.195312 " fill-opacity="1" fill-rule="nonzero"/><path fill="#737373" d="M 13.96875 37.597656 C 14.023438 37.730469 14.144531 37.824219 14.289062 37.832031 C 14.296875 37.835938 14.308594 37.835938 14.316406 37.835938 C 14.449219 37.835938 14.570312 37.765625 14.640625 37.652344 L 17.597656 32.710938 C 17.703125 32.53125 17.644531 32.300781 17.464844 32.195312 C 17.289062 32.089844 17.058594 32.148438 16.953125 32.324219 L 14.382812 36.617188 L 13.679688 34.851562 C 13.605469 34.65625 13.386719 34.5625 13.191406 34.640625 C 13 34.71875 12.90625 34.933594 12.984375 35.128906 Z M 13.96875 37.597656 " fill-opacity="1" fill-rule="nonzero"/><path fill="#737373" d="M 13.96875 46.003906 C 14.023438 46.132812 14.144531 46.226562 14.289062 46.238281 C 14.296875 46.238281 14.308594 46.238281 14.316406 46.238281 C 14.449219 46.238281 14.570312 46.167969 14.640625 46.054688 L 17.597656 41.113281 C 17.703125 40.933594 17.644531 40.703125 17.464844 40.597656 C 17.289062 40.492188 17.058594 40.550781 16.953125 40.726562 L 14.382812 45.019531 L 13.679688 43.253906 C 13.601562 43.0625 13.382812 42.964844 13.191406 43.042969 C 13 43.121094 12.90625 43.339844 12.984375 43.53125 Z M 13.96875 46.003906 " fill-opacity="1" fill-rule="nonzero"/></svg>