<svg xmlns="http://www.w3.org/2000/svg" xmlns:xlink="http://www.w3.org/1999/xlink" width="70" zoomAndPan="magnify" viewBox="0 0 52.5 52.499999" height="70" preserveAspectRatio="xMidYMid meet" version="1.0"><defs><clipPath id="2b886172e6"><path d="M 5.25 5.25 L 47.25 5.25 L 47.25 47.25 L 5.25 47.25 Z M 5.25 5.25 " clip-rule="nonzero"/></clipPath></defs><g clip-path="url(#2b886172e6)"><path fill="#737373" d="M 26.25 5.25 C 14.65625 5.25 5.25 14.65625 5.25 26.25 C 5.25 37.84375 14.65625 47.25 26.25 47.25 C 37.84375 47.25 47.25 37.84375 47.25 26.25 C 47.25 14.65625 37.84375 5.25 26.25 5.25 Z M 26.25 7.582031 C 36.585938 7.582031 44.917969 15.914062 44.917969 26.25 C 44.917969 36.585938 36.585938 44.917969 26.25 44.917969 C 15.914062 44.917969 7.582031 36.585938 7.582031 26.25 C 7.582031 15.914062 15.914062 7.582031 26.25 7.582031 Z M 25.082031 13.417969 L 25.082031 15.984375 C 23.214844 16.214844 19.832031 17.847656 19.832031 21.816406 C 19.832031 29.28125 30.683594 25.433594 30.683594 31.03125 C 30.683594 32.898438 29.867188 34.648438 26.25 34.648438 C 22.632812 34.648438 21.582031 31.851562 21.582031 30.332031 L 19.25 30.332031 C 19.601562 35.351562 23.101562 36.515625 25.082031 36.867188 L 25.082031 39.082031 L 27.417969 39.082031 L 27.417969 36.867188 C 29.167969 36.75 33.25 35.46875 33.25 30.800781 C 33.25 26.949219 30.097656 25.898438 27.066406 25.199219 C 24.617188 24.617188 22.398438 24.035156 22.398438 21.582031 C 22.398438 20.535156 22.867188 18.199219 26.367188 18.199219 C 28.816406 18.199219 29.984375 19.714844 30.332031 21.582031 L 32.667969 21.582031 C 31.964844 19.015625 30.800781 16.683594 27.417969 16.101562 L 27.417969 13.417969 Z M 25.082031 13.417969 " fill-opacity="1" fill-rule="nonzero"/></g></svg>