<svg xmlns="http://www.w3.org/2000/svg" xmlns:xlink="http://www.w3.org/1999/xlink" width="70" zoomAndPan="magnify" viewBox="0 0 52.5 52.499999" height="70" preserveAspectRatio="xMidYMid meet" version="1.0"><defs><g/><clipPath id="cd00075d2e"><path d="M 7.96875 5.25 L 41.71875 5.25 L 41.71875 39 L 7.96875 39 Z M 7.96875 5.25 " clip-rule="nonzero"/></clipPath></defs><g clip-path="url(#cd00075d2e)"><path fill="#737373" d="M 24.84375 5.25 C 15.527344 5.25 7.96875 12.808594 7.96875 22.125 C 7.96875 31.441406 15.527344 39 24.84375 39 C 34.160156 39 41.71875 31.441406 41.71875 22.125 C 41.71875 12.808594 34.160156 5.25 24.84375 5.25 Z M 24.84375 7.125 C 33.152344 7.125 39.84375 13.816406 39.84375 22.125 C 39.84375 30.433594 33.152344 37.125 24.84375 37.125 C 16.535156 37.125 9.84375 30.433594 9.84375 22.125 C 9.84375 13.816406 16.535156 7.125 24.84375 7.125 Z M 23.90625 11.8125 L 23.90625 13.875 C 22.40625 14.0625 19.6875 15.375 19.6875 18.5625 C 19.6875 24.5625 28.40625 21.46875 28.40625 25.96875 C 28.40625 27.46875 27.75 28.875 24.84375 28.875 C 21.9375 28.875 21.09375 26.625 21.09375 25.40625 L 19.21875 25.40625 C 19.5 29.4375 22.3125 30.375 23.90625 30.65625 L 23.90625 32.4375 L 25.78125 32.4375 L 25.78125 30.65625 C 27.1875 30.5625 30.46875 29.53125 30.46875 25.78125 C 30.46875 22.6875 27.9375 21.84375 25.5 21.28125 C 23.53125 20.8125 21.75 20.34375 21.75 18.375 C 21.75 17.53125 22.125 15.65625 24.9375 15.65625 C 26.90625 15.65625 27.84375 16.875 28.125 18.375 L 30 18.375 C 29.4375 16.3125 28.5 14.4375 25.78125 13.96875 L 25.78125 11.8125 Z M 23.90625 11.8125 " fill-opacity="1" fill-rule="nonzero"/></g><g fill="#737373" fill-opacity="1"><g transform="translate(17.329762, 46.149999)"><g><path d="M 1.46875 -2.859375 C 1.675781 -2.859375 1.851562 -2.816406 2 -2.734375 C 2.144531 -2.660156 2.253906 -2.554688 2.328125 -2.421875 C 2.398438 -2.296875 2.4375 -2.140625 2.4375 -1.953125 C 2.4375 -1.773438 2.398438 -1.617188 2.328125 -1.484375 C 2.253906 -1.359375 2.144531 -1.253906 2 -1.171875 C 1.851562 -1.097656 1.675781 -1.0625 1.46875 -1.0625 L 0.9375 -1.0625 L 0.9375 0 L 0.375 0 L 0.375 -2.859375 Z M 1.40625 -1.515625 C 1.71875 -1.515625 1.875 -1.660156 1.875 -1.953125 C 1.875 -2.253906 1.71875 -2.40625 1.40625 -2.40625 L 0.9375 -2.40625 L 0.9375 -1.515625 Z M 1.40625 -1.515625 "/></g></g></g><g fill="#737373" fill-opacity="1"><g transform="translate(19.936589, 46.149999)"><g><path d="M 0.84375 0.046875 C 0.707031 0.046875 0.585938 0.0195312 0.484375 -0.03125 C 0.378906 -0.0820312 0.300781 -0.15625 0.25 -0.25 C 0.195312 -0.351562 0.171875 -0.472656 0.171875 -0.609375 C 0.171875 -0.742188 0.195312 -0.851562 0.25 -0.9375 C 0.300781 -1.019531 0.382812 -1.085938 0.5 -1.140625 C 0.613281 -1.203125 0.765625 -1.25 0.953125 -1.28125 C 1.078125 -1.300781 1.171875 -1.320312 1.234375 -1.34375 C 1.304688 -1.363281 1.351562 -1.390625 1.375 -1.421875 C 1.40625 -1.453125 1.421875 -1.492188 1.421875 -1.546875 C 1.421875 -1.617188 1.394531 -1.671875 1.34375 -1.703125 C 1.289062 -1.742188 1.210938 -1.765625 1.109375 -1.765625 C 0.984375 -1.765625 0.863281 -1.734375 0.75 -1.671875 C 0.644531 -1.617188 0.554688 -1.550781 0.484375 -1.46875 L 0.4375 -1.46875 L 0.21875 -1.8125 C 0.320312 -1.9375 0.453125 -2.03125 0.609375 -2.09375 C 0.765625 -2.164062 0.9375 -2.203125 1.125 -2.203125 C 1.414062 -2.203125 1.625 -2.140625 1.75 -2.015625 C 1.875 -1.890625 1.9375 -1.71875 1.9375 -1.5 L 1.9375 -0.5625 C 1.9375 -0.46875 1.976562 -0.421875 2.0625 -0.421875 C 2.09375 -0.421875 2.125 -0.425781 2.15625 -0.4375 L 2.1875 -0.421875 L 2.234375 -0.046875 C 2.203125 -0.0234375 2.160156 -0.0078125 2.109375 0 C 2.054688 0.0078125 1.992188 0.015625 1.921875 0.015625 C 1.796875 0.015625 1.695312 -0.0078125 1.625 -0.0625 C 1.550781 -0.113281 1.5 -0.191406 1.46875 -0.296875 L 1.4375 -0.296875 C 1.320312 -0.0664062 1.125 0.046875 0.84375 0.046875 Z M 1.015625 -0.359375 C 1.140625 -0.359375 1.238281 -0.398438 1.3125 -0.484375 C 1.382812 -0.566406 1.421875 -0.6875 1.421875 -0.84375 L 1.421875 -1.0625 L 1.390625 -1.0625 C 1.359375 -1.039062 1.316406 -1.019531 1.265625 -1 C 1.210938 -0.976562 1.132812 -0.960938 1.03125 -0.953125 C 0.914062 -0.929688 0.832031 -0.894531 0.78125 -0.84375 C 0.726562 -0.800781 0.703125 -0.734375 0.703125 -0.640625 C 0.703125 -0.554688 0.726562 -0.488281 0.78125 -0.4375 C 0.832031 -0.382812 0.910156 -0.359375 1.015625 -0.359375 Z M 1.015625 -0.359375 "/></g></g></g><g fill="#737373" fill-opacity="1"><g transform="translate(22.205861, 46.149999)"><g><path d="M 1.25 0.046875 C 1.039062 0.046875 0.859375 0.00390625 0.703125 -0.078125 C 0.546875 -0.171875 0.421875 -0.300781 0.328125 -0.46875 C 0.234375 -0.632812 0.1875 -0.835938 0.1875 -1.078125 C 0.1875 -1.316406 0.234375 -1.519531 0.328125 -1.6875 C 0.421875 -1.851562 0.546875 -1.976562 0.703125 -2.0625 C 0.859375 -2.15625 1.039062 -2.203125 1.25 -2.203125 C 1.695312 -2.203125 1.988281 -2.035156 2.125 -1.703125 L 1.75 -1.4375 L 1.703125 -1.4375 C 1.660156 -1.539062 1.601562 -1.613281 1.53125 -1.65625 C 1.457031 -1.707031 1.363281 -1.734375 1.25 -1.734375 C 1.09375 -1.734375 0.96875 -1.675781 0.875 -1.5625 C 0.789062 -1.457031 0.75 -1.296875 0.75 -1.078125 C 0.75 -0.859375 0.789062 -0.691406 0.875 -0.578125 C 0.96875 -0.472656 1.09375 -0.421875 1.25 -0.421875 C 1.375 -0.421875 1.472656 -0.453125 1.546875 -0.515625 C 1.628906 -0.578125 1.691406 -0.664062 1.734375 -0.78125 L 1.765625 -0.796875 L 2.15625 -0.578125 C 2.101562 -0.398438 2 -0.25 1.84375 -0.125 C 1.695312 -0.0078125 1.5 0.046875 1.25 0.046875 Z M 1.25 0.046875 "/></g></g></g><g fill="#737373" fill-opacity="1"><g transform="translate(24.424401, 46.149999)"><g><path d="M 0.3125 0 L 0.3125 -3.015625 L 0.859375 -3.015625 L 0.859375 -1.34375 L 0.90625 -1.34375 L 1.53125 -2.15625 L 2.078125 -2.15625 L 2.078125 -2.109375 L 1.34375 -1.171875 L 2.15625 -0.046875 L 2.15625 0 L 1.59375 0 L 0.90625 -0.90625 L 0.859375 -0.90625 L 0.859375 0 Z M 0.3125 0 "/></g></g></g><g fill="#737373" fill-opacity="1"><g transform="translate(26.584404, 46.149999)"><g><path d="M 0.84375 0.046875 C 0.707031 0.046875 0.585938 0.0195312 0.484375 -0.03125 C 0.378906 -0.0820312 0.300781 -0.15625 0.25 -0.25 C 0.195312 -0.351562 0.171875 -0.472656 0.171875 -0.609375 C 0.171875 -0.742188 0.195312 -0.851562 0.25 -0.9375 C 0.300781 -1.019531 0.382812 -1.085938 0.5 -1.140625 C 0.613281 -1.203125 0.765625 -1.25 0.953125 -1.28125 C 1.078125 -1.300781 1.171875 -1.320312 1.234375 -1.34375 C 1.304688 -1.363281 1.351562 -1.390625 1.375 -1.421875 C 1.40625 -1.453125 1.421875 -1.492188 1.421875 -1.546875 C 1.421875 -1.617188 1.394531 -1.671875 1.34375 -1.703125 C 1.289062 -1.742188 1.210938 -1.765625 1.109375 -1.765625 C 0.984375 -1.765625 0.863281 -1.734375 0.75 -1.671875 C 0.644531 -1.617188 0.554688 -1.550781 0.484375 -1.46875 L 0.4375 -1.46875 L 0.21875 -1.8125 C 0.320312 -1.9375 0.453125 -2.03125 0.609375 -2.09375 C 0.765625 -2.164062 0.9375 -2.203125 1.125 -2.203125 C 1.414062 -2.203125 1.625 -2.140625 1.75 -2.015625 C 1.875 -1.890625 1.9375 -1.71875 1.9375 -1.5 L 1.9375 -0.5625 C 1.9375 -0.46875 1.976562 -0.421875 2.0625 -0.421875 C 2.09375 -0.421875 2.125 -0.425781 2.15625 -0.4375 L 2.1875 -0.421875 L 2.234375 -0.046875 C 2.203125 -0.0234375 2.160156 -0.0078125 2.109375 0 C 2.054688 0.0078125 1.992188 0.015625 1.921875 0.015625 C 1.796875 0.015625 1.695312 -0.0078125 1.625 -0.0625 C 1.550781 -0.113281 1.5 -0.191406 1.46875 -0.296875 L 1.4375 -0.296875 C 1.320312 -0.0664062 1.125 0.046875 0.84375 0.046875 Z M 1.015625 -0.359375 C 1.140625 -0.359375 1.238281 -0.398438 1.3125 -0.484375 C 1.382812 -0.566406 1.421875 -0.6875 1.421875 -0.84375 L 1.421875 -1.0625 L 1.390625 -1.0625 C 1.359375 -1.039062 1.316406 -1.019531 1.265625 -1 C 1.210938 -0.976562 1.132812 -0.960938 1.03125 -0.953125 C 0.914062 -0.929688 0.832031 -0.894531 0.78125 -0.84375 C 0.726562 -0.800781 0.703125 -0.734375 0.703125 -0.640625 C 0.703125 -0.554688 0.726562 -0.488281 0.78125 -0.4375 C 0.832031 -0.382812 0.910156 -0.359375 1.015625 -0.359375 Z M 1.015625 -0.359375 "/></g></g></g><g fill="#737373" fill-opacity="1"><g transform="translate(28.853676, 46.149999)"><g><path d="M 1.125 0.921875 C 0.757812 0.921875 0.492188 0.867188 0.328125 0.765625 C 0.160156 0.660156 0.078125 0.515625 0.078125 0.328125 C 0.078125 0.210938 0.113281 0.117188 0.1875 0.046875 C 0.257812 -0.0234375 0.363281 -0.078125 0.5 -0.109375 L 0.5 -0.140625 C 0.425781 -0.179688 0.375 -0.226562 0.34375 -0.28125 C 0.3125 -0.34375 0.296875 -0.410156 0.296875 -0.484375 C 0.296875 -0.648438 0.40625 -0.765625 0.625 -0.828125 L 0.625 -0.875 C 0.507812 -0.9375 0.421875 -1.015625 0.359375 -1.109375 C 0.304688 -1.210938 0.28125 -1.332031 0.28125 -1.46875 C 0.28125 -1.613281 0.3125 -1.738281 0.375 -1.84375 C 0.445312 -1.957031 0.546875 -2.046875 0.671875 -2.109375 C 0.796875 -2.171875 0.945312 -2.203125 1.125 -2.203125 C 1.300781 -2.203125 1.441406 -2.171875 1.546875 -2.109375 C 1.617188 -2.203125 1.660156 -2.3125 1.671875 -2.4375 L 1.703125 -2.46875 L 2.09375 -2.359375 C 2.082031 -2.265625 2.050781 -2.179688 2 -2.109375 C 1.957031 -2.035156 1.882812 -1.972656 1.78125 -1.921875 L 1.78125 -1.875 C 1.90625 -1.769531 1.96875 -1.625 1.96875 -1.4375 C 1.96875 -1.300781 1.929688 -1.179688 1.859375 -1.078125 C 1.796875 -0.972656 1.703125 -0.890625 1.578125 -0.828125 C 1.453125 -0.765625 1.300781 -0.734375 1.125 -0.734375 L 1.046875 -0.734375 C 0.992188 -0.734375 0.957031 -0.734375 0.9375 -0.734375 C 0.882812 -0.734375 0.84375 -0.71875 0.8125 -0.6875 C 0.789062 -0.664062 0.78125 -0.632812 0.78125 -0.59375 C 0.78125 -0.550781 0.796875 -0.515625 0.828125 -0.484375 C 0.867188 -0.460938 0.921875 -0.453125 0.984375 -0.453125 L 1.46875 -0.421875 C 1.945312 -0.410156 2.1875 -0.207031 2.1875 0.1875 C 2.1875 0.320312 2.148438 0.441406 2.078125 0.546875 C 2.003906 0.660156 1.890625 0.75 1.734375 0.8125 C 1.578125 0.882812 1.375 0.921875 1.125 0.921875 Z M 1.125 -1.109375 C 1.226562 -1.109375 1.304688 -1.140625 1.359375 -1.203125 C 1.421875 -1.265625 1.453125 -1.351562 1.453125 -1.46875 C 1.453125 -1.582031 1.421875 -1.664062 1.359375 -1.71875 C 1.304688 -1.78125 1.226562 -1.8125 1.125 -1.8125 C 1.019531 -1.8125 0.9375 -1.78125 0.875 -1.71875 C 0.820312 -1.664062 0.796875 -1.582031 0.796875 -1.46875 C 0.796875 -1.351562 0.820312 -1.265625 0.875 -1.203125 C 0.9375 -1.140625 1.019531 -1.109375 1.125 -1.109375 Z M 1.125 0.515625 C 1.300781 0.515625 1.429688 0.488281 1.515625 0.4375 C 1.597656 0.382812 1.640625 0.316406 1.640625 0.234375 C 1.640625 0.171875 1.617188 0.125 1.578125 0.09375 C 1.535156 0.0625 1.46875 0.046875 1.375 0.046875 L 0.953125 0.015625 C 0.941406 0.015625 0.925781 0.015625 0.90625 0.015625 C 0.894531 0.015625 0.882812 0.015625 0.875 0.015625 C 0.78125 0.015625 0.707031 0.0351562 0.65625 0.078125 C 0.613281 0.117188 0.59375 0.171875 0.59375 0.234375 C 0.59375 0.328125 0.632812 0.394531 0.71875 0.4375 C 0.8125 0.488281 0.945312 0.515625 1.125 0.515625 Z M 1.125 0.515625 "/></g></g></g><g fill="#737373" fill-opacity="1"><g transform="translate(31.091728, 46.149999)"><g><path d="M 2.125 -0.953125 L 0.75 -0.953125 C 0.757812 -0.765625 0.8125 -0.628906 0.90625 -0.546875 C 1 -0.460938 1.125 -0.421875 1.28125 -0.421875 C 1.40625 -0.421875 1.503906 -0.441406 1.578125 -0.484375 C 1.648438 -0.535156 1.710938 -0.609375 1.765625 -0.703125 L 1.8125 -0.703125 L 2.171875 -0.46875 C 2.097656 -0.3125 1.988281 -0.1875 1.84375 -0.09375 C 1.707031 0 1.519531 0.046875 1.28125 0.046875 C 1.050781 0.046875 0.851562 0.00390625 0.6875 -0.078125 C 0.53125 -0.171875 0.40625 -0.300781 0.3125 -0.46875 C 0.226562 -0.632812 0.1875 -0.835938 0.1875 -1.078125 C 0.1875 -1.316406 0.234375 -1.519531 0.328125 -1.6875 C 0.421875 -1.863281 0.546875 -1.992188 0.703125 -2.078125 C 0.859375 -2.160156 1.035156 -2.203125 1.234375 -2.203125 C 1.546875 -2.203125 1.78125 -2.117188 1.9375 -1.953125 C 2.101562 -1.796875 2.1875 -1.5625 2.1875 -1.25 C 2.1875 -1.132812 2.179688 -1.046875 2.171875 -0.984375 Z M 1.671875 -1.3125 C 1.660156 -1.46875 1.617188 -1.582031 1.546875 -1.65625 C 1.472656 -1.738281 1.367188 -1.78125 1.234375 -1.78125 C 0.960938 -1.78125 0.800781 -1.625 0.75 -1.3125 Z M 1.671875 -1.3125 "/></g></g></g><g fill="#737373" fill-opacity="1"><g transform="translate(33.431243, 46.149999)"><g><path d="M 1.015625 0.046875 C 0.859375 0.046875 0.71875 0.03125 0.59375 0 C 0.476562 -0.0390625 0.375 -0.09375 0.28125 -0.15625 C 0.195312 -0.21875 0.132812 -0.285156 0.09375 -0.359375 L 0.40625 -0.6875 L 0.4375 -0.6875 C 0.507812 -0.59375 0.59375 -0.519531 0.6875 -0.46875 C 0.789062 -0.414062 0.898438 -0.390625 1.015625 -0.390625 C 1.117188 -0.390625 1.195312 -0.410156 1.25 -0.453125 C 1.300781 -0.492188 1.328125 -0.546875 1.328125 -0.609375 C 1.328125 -0.671875 1.304688 -0.71875 1.265625 -0.75 C 1.234375 -0.789062 1.175781 -0.820312 1.09375 -0.84375 L 0.796875 -0.90625 C 0.585938 -0.957031 0.429688 -1.035156 0.328125 -1.140625 C 0.234375 -1.242188 0.1875 -1.378906 0.1875 -1.546875 C 0.1875 -1.679688 0.21875 -1.796875 0.28125 -1.890625 C 0.351562 -1.992188 0.453125 -2.070312 0.578125 -2.125 C 0.703125 -2.175781 0.847656 -2.203125 1.015625 -2.203125 C 1.203125 -2.203125 1.359375 -2.171875 1.484375 -2.109375 C 1.617188 -2.054688 1.722656 -1.984375 1.796875 -1.890625 L 1.5 -1.578125 L 1.46875 -1.578125 C 1.40625 -1.640625 1.335938 -1.6875 1.265625 -1.71875 C 1.191406 -1.75 1.109375 -1.765625 1.015625 -1.765625 C 0.796875 -1.765625 0.6875 -1.703125 0.6875 -1.578125 C 0.6875 -1.515625 0.707031 -1.460938 0.75 -1.421875 C 0.789062 -1.390625 0.863281 -1.363281 0.96875 -1.34375 L 1.234375 -1.296875 C 1.453125 -1.242188 1.609375 -1.164062 1.703125 -1.0625 C 1.804688 -0.957031 1.859375 -0.816406 1.859375 -0.640625 C 1.859375 -0.503906 1.820312 -0.382812 1.75 -0.28125 C 1.6875 -0.175781 1.585938 -0.09375 1.453125 -0.03125 C 1.328125 0.0195312 1.179688 0.046875 1.015625 0.046875 Z M 1.015625 0.046875 "/></g></g></g></svg>