<svg xmlns="http://www.w3.org/2000/svg" xmlns:xlink="http://www.w3.org/1999/xlink" width="70" zoomAndPan="magnify" viewBox="0 0 52.5 52.499999" height="70" preserveAspectRatio="xMidYMid meet" version="1.0"><defs><g/><clipPath id="bcc1b13caa"><path d="M 8.148438 5.25 L 33 5.25 L 33 24 L 8.148438 24 Z M 8.148438 5.25 " clip-rule="nonzero"/></clipPath><clipPath id="aaa4ab459f"><path d="M 8.148438 18 L 20 18 L 20 27 L 8.148438 27 Z M 8.148438 18 " clip-rule="nonzero"/></clipPath><clipPath id="27800aa878"><path d="M 8.148438 22 L 20 22 L 20 30 L 8.148438 30 Z M 8.148438 22 " clip-rule="nonzero"/></clipPath><clipPath id="b8cee88944"><path d="M 20 16 L 44.148438 16 L 44.148438 40 L 20 40 Z M 20 16 " clip-rule="nonzero"/></clipPath></defs><g clip-path="url(#bcc1b13caa)"><path fill="#737373" d="M 20.238281 22.078125 C 14.167969 22.078125 9.222656 19.242188 9.222656 15.757812 C 9.226562 15.71875 9.226562 15.683594 9.222656 15.648438 C 11.097656 18.226562 15.339844 20.054688 20.257812 20.054688 C 20.832031 20.054688 21.410156 20.027344 21.980469 19.976562 C 22.125 19.960938 22.238281 19.894531 22.328125 19.785156 C 22.421875 19.671875 22.460938 19.542969 22.449219 19.398438 C 22.433594 19.253906 22.375 19.132812 22.269531 19.039062 C 22.160156 18.945312 22.035156 18.898438 21.890625 18.90625 C 21.351562 18.953125 20.800781 18.980469 20.257812 18.980469 C 14.167969 18.980469 9.222656 16.144531 9.222656 12.65625 C 9.222656 9.171875 14.167969 6.335938 20.238281 6.335938 C 26.3125 6.335938 31.257812 9.15625 31.257812 12.65625 C 31.253906 13.289062 31.101562 13.878906 30.804688 14.433594 C 30.738281 14.566406 30.722656 14.703125 30.765625 14.84375 C 30.808594 14.984375 30.894531 15.089844 31.023438 15.160156 C 31.152344 15.230469 31.289062 15.242188 31.425781 15.199219 C 31.566406 15.15625 31.671875 15.066406 31.738281 14.9375 C 32.117188 14.226562 32.308594 13.464844 32.3125 12.65625 C 32.3125 8.578125 26.894531 5.261719 20.238281 5.261719 C 13.585938 5.261719 8.171875 8.578125 8.171875 12.65625 C 8.183594 13.621094 8.449219 14.507812 8.976562 15.308594 C 8.808594 15.191406 8.628906 15.179688 8.449219 15.277344 C 8.265625 15.375 8.171875 15.527344 8.171875 15.738281 C 8.171875 19.816406 13.585938 23.132812 20.238281 23.132812 C 20.386719 23.132812 20.511719 23.082031 20.613281 22.976562 C 20.71875 22.871094 20.769531 22.742188 20.769531 22.597656 C 20.769531 22.449219 20.71875 22.320312 20.613281 22.214844 C 20.511719 22.113281 20.386719 22.058594 20.238281 22.058594 Z M 20.238281 22.078125 " fill-opacity="1" fill-rule="nonzero"/></g><g clip-path="url(#aaa4ab459f)"><path fill="#737373" d="M 19.316406 25.472656 C 13.65625 25.210938 9.222656 22.441406 9.222656 19.183594 C 9.222656 19.035156 9.171875 18.90625 9.070312 18.804688 C 8.964844 18.699219 8.839844 18.644531 8.695312 18.644531 C 8.550781 18.644531 8.425781 18.699219 8.320312 18.804688 C 8.21875 18.90625 8.167969 19.035156 8.167969 19.183594 C 8.167969 23.082031 12.933594 26.25 19.261719 26.558594 L 19.285156 26.558594 C 19.429688 26.5625 19.558594 26.511719 19.664062 26.410156 C 19.769531 26.308594 19.824219 26.183594 19.824219 26.035156 C 19.828125 25.886719 19.78125 25.757812 19.679688 25.652344 C 19.578125 25.542969 19.457031 25.488281 19.308594 25.484375 Z M 19.316406 25.472656 " fill-opacity="1" fill-rule="nonzero"/></g><g clip-path="url(#27800aa878)"><path fill="#737373" d="M 19.246094 28.90625 C 13.625 28.621094 9.222656 25.851562 9.222656 22.613281 C 9.222656 22.464844 9.171875 22.339844 9.070312 22.234375 C 8.964844 22.128906 8.839844 22.078125 8.695312 22.078125 C 8.550781 22.078125 8.425781 22.128906 8.320312 22.234375 C 8.21875 22.339844 8.167969 22.464844 8.167969 22.613281 C 8.167969 26.476562 12.902344 29.65625 19.1875 29.984375 L 19.214844 29.984375 C 19.359375 29.988281 19.484375 29.941406 19.589844 29.839844 C 19.695312 29.738281 19.75 29.613281 19.753906 29.464844 C 19.757812 29.316406 19.710938 29.1875 19.613281 29.078125 C 19.511719 28.972656 19.386719 28.917969 19.242188 28.910156 Z M 19.246094 28.90625 " fill-opacity="1" fill-rule="nonzero"/></g><path fill="#737373" d="M 33.210938 32.773438 L 33.398438 32.773438 C 33.597656 32.78125 33.789062 32.75 33.972656 32.683594 C 34.160156 32.617188 34.324219 32.515625 34.472656 32.382812 C 34.617188 32.246094 34.734375 32.089844 34.820312 31.910156 C 34.90625 31.726562 34.953125 31.539062 34.964844 31.335938 L 34.964844 29.976562 C 34.964844 29.644531 34.628906 29.25 34.046875 28.894531 L 33.199219 28.59375 Z M 33.210938 32.773438 " fill-opacity="1" fill-rule="nonzero"/><g clip-path="url(#b8cee88944)"><path fill="#737373" d="M 32.554688 16.09375 C 31.796875 16.09375 31.042969 16.171875 30.296875 16.320312 C 29.554688 16.472656 28.832031 16.695312 28.128906 16.988281 C 27.429688 17.285156 26.761719 17.648438 26.128906 18.074219 C 25.5 18.503906 24.914062 18.992188 24.378906 19.535156 C 23.839844 20.082031 23.363281 20.675781 22.941406 21.316406 C 22.519531 21.957031 22.164062 22.636719 21.871094 23.347656 C 21.582031 24.0625 21.363281 24.796875 21.214844 25.550781 C 21.066406 26.308594 20.992188 27.074219 20.992188 27.84375 C 20.992188 28.617188 21.066406 29.378906 21.214844 30.136719 C 21.363281 30.890625 21.582031 31.628906 21.875 32.339844 C 22.164062 33.050781 22.519531 33.730469 22.941406 34.371094 C 23.363281 35.011719 23.84375 35.605469 24.378906 36.152344 C 24.917969 36.695312 25.5 37.183594 26.132812 37.609375 C 26.765625 38.039062 27.429688 38.402344 28.132812 38.695312 C 28.832031 38.992188 29.558594 39.214844 30.300781 39.363281 C 31.046875 39.515625 31.796875 39.589844 32.558594 39.589844 C 33.316406 39.589844 34.070312 39.515625 34.8125 39.363281 C 35.558594 39.210938 36.28125 38.988281 36.980469 38.695312 C 37.683594 38.398438 38.351562 38.035156 38.980469 37.609375 C 39.613281 37.179688 40.195312 36.691406 40.734375 36.148438 C 41.269531 35.601562 41.75 35.007812 42.171875 34.367188 C 42.589844 33.722656 42.949219 33.046875 43.238281 32.335938 C 43.527344 31.621094 43.746094 30.886719 43.894531 30.128906 C 44.042969 29.375 44.117188 28.609375 44.117188 27.839844 C 44.117188 27.066406 44.042969 26.304688 43.890625 25.546875 C 43.742188 24.792969 43.523438 24.058594 43.234375 23.34375 C 42.941406 22.632812 42.585938 21.957031 42.164062 21.316406 C 41.742188 20.675781 41.261719 20.082031 40.726562 19.539062 C 40.191406 18.992188 39.605469 18.503906 38.976562 18.078125 C 38.34375 17.648438 37.679688 17.285156 36.976562 16.992188 C 36.277344 16.695312 35.554688 16.472656 34.808594 16.324219 C 34.066406 16.171875 33.3125 16.097656 32.554688 16.09375 Z M 32.554688 37.285156 C 31.945312 37.285156 31.339844 37.222656 30.742188 37.101562 C 30.140625 36.980469 29.5625 36.800781 28.996094 36.566406 C 28.433594 36.328125 27.898438 36.035156 27.390625 35.691406 C 26.882812 35.347656 26.414062 34.957031 25.980469 34.515625 C 25.550781 34.078125 25.164062 33.601562 24.824219 33.085938 C 24.484375 32.570312 24.199219 32.027344 23.964844 31.453125 C 23.730469 30.878906 23.554688 30.289062 23.4375 29.679688 C 23.316406 29.074219 23.257812 28.457031 23.257812 27.839844 C 23.257812 27.21875 23.316406 26.605469 23.4375 25.996094 C 23.554688 25.386719 23.730469 24.796875 23.964844 24.222656 C 24.199219 23.652344 24.484375 23.105469 24.824219 22.589844 C 25.164062 22.074219 25.550781 21.597656 25.980469 21.160156 C 26.414062 20.71875 26.882812 20.328125 27.390625 19.984375 C 27.898438 19.640625 28.433594 19.347656 28.996094 19.113281 C 29.5625 18.875 30.140625 18.695312 30.742188 18.574219 C 31.339844 18.453125 31.945312 18.390625 32.554688 18.390625 C 33.164062 18.390625 33.769531 18.453125 34.367188 18.574219 C 34.96875 18.695312 35.546875 18.875 36.113281 19.113281 C 36.675781 19.347656 37.210938 19.640625 37.71875 19.984375 C 38.226562 20.328125 38.695312 20.71875 39.128906 21.160156 C 39.558594 21.597656 39.945312 22.074219 40.285156 22.589844 C 40.625 23.105469 40.910156 23.652344 41.144531 24.222656 C 41.378906 24.796875 41.554688 25.386719 41.671875 25.996094 C 41.792969 26.605469 41.851562 27.21875 41.851562 27.839844 C 41.851562 28.457031 41.792969 29.074219 41.671875 29.679688 C 41.554688 30.289062 41.378906 30.878906 41.144531 31.453125 C 40.910156 32.027344 40.625 32.570312 40.285156 33.085938 C 39.945312 33.601562 39.558594 34.078125 39.128906 34.515625 C 38.695312 34.957031 38.226562 35.347656 37.71875 35.691406 C 37.210938 36.035156 36.675781 36.328125 36.113281 36.566406 C 35.546875 36.800781 34.96875 36.980469 34.367188 37.101562 C 33.769531 37.222656 33.164062 37.285156 32.554688 37.285156 Z M 32.554688 37.285156 " fill-opacity="1" fill-rule="nonzero"/></g><path fill="#737373" d="M 30.144531 24.273438 L 30.144531 25.613281 C 30.144531 26.042969 30.617188 26.414062 31.027344 26.660156 L 32.152344 27.070312 L 32.152344 22.839844 L 31.730469 22.839844 C 31.53125 22.828125 31.339844 22.855469 31.152344 22.921875 C 30.960938 22.988281 30.792969 23.089844 30.644531 23.222656 C 30.496094 23.359375 30.378906 23.515625 30.292969 23.699219 C 30.207031 23.882812 30.15625 24.074219 30.144531 24.273438 Z M 30.144531 24.273438 " fill-opacity="1" fill-rule="nonzero"/><path fill="#737373" d="M 32.554688 19.460938 C 32.011719 19.460938 31.476562 19.515625 30.945312 19.621094 C 30.417969 19.730469 29.902344 19.886719 29.402344 20.097656 C 28.902344 20.308594 28.425781 20.566406 27.976562 20.871094 C 27.527344 21.179688 27.109375 21.523438 26.726562 21.914062 C 26.34375 22.300781 26.003906 22.726562 25.703125 23.183594 C 25.402344 23.640625 25.148438 24.121094 24.941406 24.628906 C 24.734375 25.136719 24.578125 25.660156 24.472656 26.199219 C 24.367188 26.738281 24.3125 27.285156 24.3125 27.835938 C 24.3125 28.382812 24.367188 28.929688 24.472656 29.46875 C 24.578125 30.007812 24.734375 30.53125 24.941406 31.039062 C 25.148438 31.546875 25.402344 32.027344 25.703125 32.484375 C 26.003906 32.941406 26.34375 33.367188 26.726562 33.753906 C 27.109375 34.144531 27.527344 34.488281 27.976562 34.796875 C 28.425781 35.101562 28.902344 35.359375 29.402344 35.570312 C 29.902344 35.78125 30.417969 35.9375 30.945312 36.046875 C 31.476562 36.152344 32.011719 36.207031 32.554688 36.207031 C 33.09375 36.207031 33.632812 36.152344 34.164062 36.046875 C 34.691406 35.9375 35.207031 35.78125 35.707031 35.570312 C 36.207031 35.359375 36.683594 35.101562 37.132812 34.796875 C 37.582031 34.488281 38 34.144531 38.382812 33.753906 C 38.765625 33.367188 39.105469 32.941406 39.40625 32.484375 C 39.707031 32.027344 39.960938 31.546875 40.167969 31.039062 C 40.375 30.53125 40.53125 30.007812 40.636719 29.46875 C 40.742188 28.929688 40.796875 28.382812 40.796875 27.835938 C 40.792969 27.285156 40.742188 26.742188 40.632812 26.203125 C 40.527344 25.664062 40.371094 25.140625 40.164062 24.632812 C 39.957031 24.125 39.703125 23.640625 39.402344 23.1875 C 39.101562 22.730469 38.761719 22.304688 38.378906 21.917969 C 37.996094 21.527344 37.578125 21.183594 37.128906 20.875 C 36.679688 20.570312 36.207031 20.3125 35.707031 20.101562 C 35.207031 19.890625 34.691406 19.734375 34.160156 19.625 C 33.632812 19.515625 33.09375 19.460938 32.554688 19.460938 Z M 36.019531 24.898438 C 36.019531 25.046875 35.96875 25.171875 35.863281 25.277344 C 35.761719 25.382812 35.636719 25.433594 35.492188 25.433594 C 35.34375 25.433594 35.222656 25.382812 35.117188 25.277344 C 35.015625 25.171875 34.964844 25.046875 34.964844 24.898438 L 34.964844 24.273438 C 34.953125 24.074219 34.90625 23.882812 34.820312 23.703125 C 34.734375 23.523438 34.617188 23.363281 34.472656 23.230469 C 34.324219 23.097656 34.160156 22.996094 33.972656 22.929688 C 33.789062 22.859375 33.597656 22.832031 33.398438 22.839844 L 33.210938 22.839844 L 33.210938 27.457031 L 34.449219 27.886719 C 34.480469 27.898438 34.507812 27.910156 34.535156 27.929688 C 35.507812 28.503906 36.019531 29.214844 36.019531 29.960938 L 36.019531 31.304688 C 36.011719 31.644531 35.9375 31.976562 35.800781 32.289062 C 35.660156 32.601562 35.46875 32.875 35.222656 33.109375 C 34.976562 33.347656 34.695312 33.523438 34.378906 33.644531 C 34.0625 33.765625 33.738281 33.820312 33.398438 33.8125 L 33.210938 33.8125 L 33.210938 34.238281 C 33.210938 34.386719 33.15625 34.515625 33.054688 34.621094 C 32.953125 34.722656 32.828125 34.777344 32.679688 34.777344 C 32.535156 34.777344 32.410156 34.722656 32.308594 34.621094 C 32.203125 34.515625 32.152344 34.386719 32.152344 34.238281 L 32.152344 33.8125 L 31.730469 33.8125 C 31.390625 33.824219 31.0625 33.773438 30.746094 33.65625 C 30.429688 33.535156 30.144531 33.359375 29.894531 33.125 C 29.648438 32.894531 29.453125 32.621094 29.3125 32.304688 C 29.171875 31.992188 29.097656 31.664062 29.085938 31.320312 L 29.085938 30.695312 C 29.085938 30.546875 29.136719 30.417969 29.238281 30.3125 C 29.34375 30.210938 29.46875 30.15625 29.613281 30.15625 C 29.757812 30.15625 29.882812 30.210938 29.988281 30.3125 C 30.089844 30.417969 30.140625 30.546875 30.140625 30.695312 L 30.140625 31.320312 C 30.152344 31.523438 30.199219 31.714844 30.28125 31.898438 C 30.367188 32.082031 30.484375 32.242188 30.632812 32.378906 C 30.777344 32.511719 30.945312 32.617188 31.132812 32.683594 C 31.320312 32.753906 31.515625 32.78125 31.714844 32.773438 L 32.136719 32.773438 L 32.136719 28.210938 L 30.609375 27.65625 L 30.519531 27.613281 C 29.574219 27.042969 29.085938 26.371094 29.085938 25.613281 L 29.085938 24.273438 C 29.09375 23.929688 29.167969 23.601562 29.304688 23.289062 C 29.445312 22.976562 29.636719 22.699219 29.882812 22.464844 C 30.128906 22.230469 30.410156 22.050781 30.726562 21.929688 C 31.042969 21.808594 31.371094 21.753906 31.710938 21.765625 L 32.132812 21.765625 L 32.132812 21.441406 C 32.132812 21.292969 32.183594 21.167969 32.285156 21.0625 C 32.390625 20.957031 32.515625 20.902344 32.660156 20.902344 C 32.804688 20.902344 32.929688 20.957031 33.035156 21.0625 C 33.136719 21.167969 33.1875 21.292969 33.1875 21.441406 L 33.1875 21.765625 L 33.378906 21.765625 C 33.714844 21.753906 34.042969 21.808594 34.359375 21.933594 C 34.675781 22.054688 34.957031 22.230469 35.203125 22.464844 C 35.449219 22.703125 35.640625 22.976562 35.777344 23.289062 C 35.917969 23.601562 35.988281 23.929688 36 24.273438 Z M 36.019531 24.898438 " fill-opacity="1" fill-rule="nonzero"/><path fill="#737373" d="M 23.167969 10.566406 C 23.320312 10.566406 23.445312 10.515625 23.550781 10.40625 C 23.65625 10.296875 23.710938 10.167969 23.707031 10.015625 L 23.707031 9.585938 C 23.707031 8.480469 22.554688 7.605469 21.085938 7.605469 L 20.898438 7.605469 L 20.898438 7.515625 C 20.898438 7.367188 20.847656 7.242188 20.746094 7.136719 C 20.640625 7.03125 20.515625 6.980469 20.371094 6.980469 C 20.226562 6.980469 20.101562 7.03125 19.996094 7.136719 C 19.894531 7.242188 19.84375 7.367188 19.84375 7.515625 L 19.84375 7.605469 L 19.398438 7.605469 C 17.929688 7.605469 16.777344 8.464844 16.777344 9.585938 L 16.777344 10.566406 C 16.777344 11.523438 17.90625 12.015625 18.285156 12.179688 C 18.304688 12.191406 18.328125 12.203125 18.355469 12.207031 L 19.84375 12.601562 L 19.84375 15.632812 L 19.398438 15.632812 C 18.476562 15.632812 17.835938 15.15625 17.835938 14.730469 L 17.835938 14.257812 C 17.835938 14.109375 17.785156 13.984375 17.679688 13.878906 C 17.578125 13.773438 17.453125 13.722656 17.308594 13.722656 C 17.160156 13.722656 17.035156 13.773438 16.933594 13.878906 C 16.832031 13.984375 16.777344 14.109375 16.777344 14.257812 L 16.777344 14.738281 C 16.777344 15.847656 17.929688 16.714844 19.398438 16.714844 L 19.84375 16.714844 L 19.84375 16.867188 C 19.84375 17.015625 19.894531 17.144531 19.996094 17.246094 C 20.101562 17.351562 20.226562 17.40625 20.371094 17.40625 C 20.515625 17.40625 20.640625 17.351562 20.746094 17.246094 C 20.847656 17.144531 20.898438 17.015625 20.898438 16.867188 L 20.898438 16.714844 L 21.085938 16.714844 C 22.554688 16.714844 23.707031 15.855469 23.707031 14.738281 L 23.707031 13.734375 C 23.707031 13.09375 23.1875 12.539062 22.164062 12.097656 C 22.140625 12.085938 22.117188 12.078125 22.089844 12.074219 L 20.898438 11.753906 L 20.898438 8.667969 L 21.085938 8.667969 C 22.007812 8.667969 22.648438 9.144531 22.648438 9.574219 L 22.648438 10.015625 C 22.644531 10.164062 22.695312 10.292969 22.796875 10.402344 C 22.898438 10.507812 23.023438 10.5625 23.167969 10.566406 Z M 21.773438 13.097656 C 22.484375 13.417969 22.640625 13.6875 22.640625 13.734375 L 22.640625 14.738281 C 22.640625 15.167969 22 15.640625 21.078125 15.640625 L 20.890625 15.640625 L 20.890625 12.867188 Z M 19.84375 11.476562 L 18.664062 11.167969 C 17.984375 10.863281 17.820312 10.621094 17.820312 10.550781 L 17.820312 9.585938 C 17.820312 9.15625 18.460938 8.679688 19.382812 8.679688 L 19.824219 8.679688 Z M 19.84375 11.476562 " fill-opacity="1" fill-rule="nonzero"/><g fill="#737373" fill-opacity="1"><g transform="translate(9.958669, 46.149992)"><g><path d="M 1.46875 -2.859375 C 1.675781 -2.859375 1.851562 -2.816406 2 -2.734375 C 2.144531 -2.660156 2.253906 -2.554688 2.328125 -2.421875 C 2.398438 -2.296875 2.4375 -2.140625 2.4375 -1.953125 C 2.4375 -1.773438 2.398438 -1.617188 2.328125 -1.484375 C 2.253906 -1.359375 2.144531 -1.253906 2 -1.171875 C 1.851562 -1.097656 1.675781 -1.0625 1.46875 -1.0625 L 0.9375 -1.0625 L 0.9375 0 L 0.375 0 L 0.375 -2.859375 Z M 1.40625 -1.515625 C 1.71875 -1.515625 1.875 -1.660156 1.875 -1.953125 C 1.875 -2.253906 1.71875 -2.40625 1.40625 -2.40625 L 0.9375 -2.40625 L 0.9375 -1.515625 Z M 1.40625 -1.515625 "/></g></g></g><g fill="#737373" fill-opacity="1"><g transform="translate(12.565496, 46.149992)"><g><path d="M 0.84375 0.046875 C 0.707031 0.046875 0.585938 0.0195312 0.484375 -0.03125 C 0.378906 -0.0820312 0.300781 -0.15625 0.25 -0.25 C 0.195312 -0.351562 0.171875 -0.472656 0.171875 -0.609375 C 0.171875 -0.742188 0.195312 -0.851562 0.25 -0.9375 C 0.300781 -1.019531 0.382812 -1.085938 0.5 -1.140625 C 0.613281 -1.203125 0.765625 -1.25 0.953125 -1.28125 C 1.078125 -1.300781 1.171875 -1.320312 1.234375 -1.34375 C 1.304688 -1.363281 1.351562 -1.390625 1.375 -1.421875 C 1.40625 -1.453125 1.421875 -1.492188 1.421875 -1.546875 C 1.421875 -1.617188 1.394531 -1.671875 1.34375 -1.703125 C 1.289062 -1.742188 1.210938 -1.765625 1.109375 -1.765625 C 0.984375 -1.765625 0.863281 -1.734375 0.75 -1.671875 C 0.644531 -1.617188 0.554688 -1.550781 0.484375 -1.46875 L 0.4375 -1.46875 L 0.21875 -1.8125 C 0.320312 -1.9375 0.453125 -2.03125 0.609375 -2.09375 C 0.765625 -2.164062 0.9375 -2.203125 1.125 -2.203125 C 1.414062 -2.203125 1.625 -2.140625 1.75 -2.015625 C 1.875 -1.890625 1.9375 -1.71875 1.9375 -1.5 L 1.9375 -0.5625 C 1.9375 -0.46875 1.976562 -0.421875 2.0625 -0.421875 C 2.09375 -0.421875 2.125 -0.425781 2.15625 -0.4375 L 2.1875 -0.421875 L 2.234375 -0.046875 C 2.203125 -0.0234375 2.160156 -0.0078125 2.109375 0 C 2.054688 0.0078125 1.992188 0.015625 1.921875 0.015625 C 1.796875 0.015625 1.695312 -0.0078125 1.625 -0.0625 C 1.550781 -0.113281 1.5 -0.191406 1.46875 -0.296875 L 1.4375 -0.296875 C 1.320312 -0.0664062 1.125 0.046875 0.84375 0.046875 Z M 1.015625 -0.359375 C 1.140625 -0.359375 1.238281 -0.398438 1.3125 -0.484375 C 1.382812 -0.566406 1.421875 -0.6875 1.421875 -0.84375 L 1.421875 -1.0625 L 1.390625 -1.0625 C 1.359375 -1.039062 1.316406 -1.019531 1.265625 -1 C 1.210938 -0.976562 1.132812 -0.960938 1.03125 -0.953125 C 0.914062 -0.929688 0.832031 -0.894531 0.78125 -0.84375 C 0.726562 -0.800781 0.703125 -0.734375 0.703125 -0.640625 C 0.703125 -0.554688 0.726562 -0.488281 0.78125 -0.4375 C 0.832031 -0.382812 0.910156 -0.359375 1.015625 -0.359375 Z M 1.015625 -0.359375 "/></g></g></g><g fill="#737373" fill-opacity="1"><g transform="translate(14.834767, 46.149992)"><g><path d="M 0.484375 0.921875 C 0.390625 0.921875 0.300781 0.910156 0.21875 0.890625 C 0.144531 0.878906 0.0859375 0.863281 0.046875 0.84375 L 0.125 0.40625 L 0.171875 0.390625 C 0.203125 0.398438 0.238281 0.410156 0.28125 0.421875 C 0.332031 0.429688 0.382812 0.4375 0.4375 0.4375 C 0.519531 0.4375 0.585938 0.425781 0.640625 0.40625 C 0.703125 0.382812 0.753906 0.347656 0.796875 0.296875 C 0.835938 0.242188 0.875 0.171875 0.90625 0.078125 L 0.046875 -2.15625 L 0.609375 -2.15625 L 1.15625 -0.65625 L 1.203125 -0.65625 L 1.71875 -2.15625 L 2.265625 -2.15625 L 1.40625 0.140625 C 1.332031 0.316406 1.253906 0.460938 1.171875 0.578125 C 1.085938 0.691406 0.988281 0.773438 0.875 0.828125 C 0.769531 0.890625 0.640625 0.921875 0.484375 0.921875 Z M 0.484375 0.921875 "/></g></g></g><g fill="#737373" fill-opacity="1"><g transform="translate(17.145009, 46.149992)"><g><path d="M 0.3125 0 L 0.3125 -2.15625 L 0.828125 -2.15625 L 0.828125 -1.859375 L 0.875 -1.859375 C 0.945312 -1.972656 1.03125 -2.054688 1.125 -2.109375 C 1.21875 -2.171875 1.335938 -2.203125 1.484375 -2.203125 C 1.640625 -2.203125 1.765625 -2.164062 1.859375 -2.09375 C 1.960938 -2.03125 2.039062 -1.9375 2.09375 -1.8125 L 2.125 -1.8125 C 2.195312 -1.945312 2.285156 -2.046875 2.390625 -2.109375 C 2.492188 -2.171875 2.625 -2.203125 2.78125 -2.203125 C 3.226562 -2.203125 3.453125 -1.953125 3.453125 -1.453125 L 3.453125 0 L 2.90625 0 L 2.90625 -1.375 C 2.90625 -1.507812 2.878906 -1.601562 2.828125 -1.65625 C 2.785156 -1.707031 2.707031 -1.734375 2.59375 -1.734375 C 2.300781 -1.734375 2.15625 -1.535156 2.15625 -1.140625 L 2.15625 0 L 1.609375 0 L 1.609375 -1.375 C 1.609375 -1.507812 1.582031 -1.601562 1.53125 -1.65625 C 1.476562 -1.707031 1.398438 -1.734375 1.296875 -1.734375 C 1.160156 -1.734375 1.050781 -1.6875 0.96875 -1.59375 C 0.894531 -1.5 0.859375 -1.351562 0.859375 -1.15625 L 0.859375 0 Z M 0.3125 0 "/></g></g></g><g fill="#737373" fill-opacity="1"><g transform="translate(20.867932, 46.149992)"><g><path d="M 2.125 -0.953125 L 0.75 -0.953125 C 0.757812 -0.765625 0.8125 -0.628906 0.90625 -0.546875 C 1 -0.460938 1.125 -0.421875 1.28125 -0.421875 C 1.40625 -0.421875 1.503906 -0.441406 1.578125 -0.484375 C 1.648438 -0.535156 1.710938 -0.609375 1.765625 -0.703125 L 1.8125 -0.703125 L 2.171875 -0.46875 C 2.097656 -0.3125 1.988281 -0.1875 1.84375 -0.09375 C 1.707031 0 1.519531 0.046875 1.28125 0.046875 C 1.050781 0.046875 0.851562 0.00390625 0.6875 -0.078125 C 0.53125 -0.171875 0.40625 -0.300781 0.3125 -0.46875 C 0.226562 -0.632812 0.1875 -0.835938 0.1875 -1.078125 C 0.1875 -1.316406 0.234375 -1.519531 0.328125 -1.6875 C 0.421875 -1.863281 0.546875 -1.992188 0.703125 -2.078125 C 0.859375 -2.160156 1.035156 -2.203125 1.234375 -2.203125 C 1.546875 -2.203125 1.78125 -2.117188 1.9375 -1.953125 C 2.101562 -1.796875 2.1875 -1.5625 2.1875 -1.25 C 2.1875 -1.132812 2.179688 -1.046875 2.171875 -0.984375 Z M 1.671875 -1.3125 C 1.660156 -1.46875 1.617188 -1.582031 1.546875 -1.65625 C 1.472656 -1.738281 1.367188 -1.78125 1.234375 -1.78125 C 0.960938 -1.78125 0.800781 -1.625 0.75 -1.3125 Z M 1.671875 -1.3125 "/></g></g></g><g fill="#737373" fill-opacity="1"><g transform="translate(23.207447, 46.149992)"><g><path d="M 0.3125 0 L 0.3125 -2.15625 L 0.828125 -2.15625 L 0.828125 -1.84375 L 0.875 -1.828125 C 1.007812 -2.078125 1.226562 -2.203125 1.53125 -2.203125 C 1.769531 -2.203125 1.945312 -2.132812 2.0625 -2 C 2.1875 -1.863281 2.25 -1.664062 2.25 -1.40625 L 2.25 0 L 1.703125 0 L 1.703125 -1.328125 C 1.703125 -1.472656 1.671875 -1.578125 1.609375 -1.640625 C 1.554688 -1.703125 1.46875 -1.734375 1.34375 -1.734375 C 1.1875 -1.734375 1.066406 -1.679688 0.984375 -1.578125 C 0.898438 -1.484375 0.859375 -1.328125 0.859375 -1.109375 L 0.859375 0 Z M 0.3125 0 "/></g></g></g><g fill="#737373" fill-opacity="1"><g transform="translate(25.72842, 46.149992)"><g><path d="M 1.484375 -0.515625 L 1.625 -0.109375 C 1.570312 -0.0664062 1.5 -0.03125 1.40625 0 C 1.320312 0.03125 1.222656 0.046875 1.109375 0.046875 C 0.867188 0.046875 0.6875 -0.015625 0.5625 -0.140625 C 0.445312 -0.273438 0.390625 -0.460938 0.390625 -0.703125 L 0.390625 -1.734375 L 0.0625 -1.734375 L 0.0625 -2.15625 L 0.390625 -2.15625 L 0.390625 -2.578125 L 0.9375 -2.671875 L 0.9375 -2.15625 L 1.546875 -2.15625 L 1.546875 -1.734375 L 0.9375 -1.734375 L 0.9375 -0.75 C 0.9375 -0.632812 0.957031 -0.550781 1 -0.5 C 1.039062 -0.457031 1.101562 -0.4375 1.1875 -0.4375 C 1.289062 -0.4375 1.378906 -0.460938 1.453125 -0.515625 Z M 1.484375 -0.515625 "/></g></g></g><g fill="#737373" fill-opacity="1"><g transform="translate(27.400619, 46.149992)"><g/></g></g><g fill="#737373" fill-opacity="1"><g transform="translate(28.343063, 46.149992)"><g><path d="M 2.21875 -1.78125 L 2.21875 -2.859375 L 2.78125 -2.859375 L 2.78125 0 L 2.21875 0 L 2.21875 -1.296875 L 0.9375 -1.296875 L 0.9375 0 L 0.375 0 L 0.375 -2.859375 L 0.9375 -2.859375 L 0.9375 -1.78125 Z M 2.21875 -1.78125 "/></g></g></g><g fill="#737373" fill-opacity="1"><g transform="translate(31.490382, 46.149992)"><g><path d="M 0.578125 -2.40625 C 0.484375 -2.40625 0.40625 -2.4375 0.34375 -2.5 C 0.28125 -2.5625 0.25 -2.640625 0.25 -2.734375 C 0.25 -2.828125 0.28125 -2.898438 0.34375 -2.953125 C 0.40625 -3.015625 0.484375 -3.046875 0.578125 -3.046875 C 0.640625 -3.046875 0.695312 -3.03125 0.75 -3 C 0.800781 -2.976562 0.84375 -2.941406 0.875 -2.890625 C 0.90625 -2.847656 0.921875 -2.796875 0.921875 -2.734375 C 0.921875 -2.671875 0.90625 -2.613281 0.875 -2.5625 C 0.84375 -2.519531 0.800781 -2.484375 0.75 -2.453125 C 0.695312 -2.421875 0.640625 -2.40625 0.578125 -2.40625 Z M 0.3125 0 L 0.3125 -2.15625 L 0.859375 -2.15625 L 0.859375 0 Z M 0.3125 0 "/></g></g></g><g fill="#737373" fill-opacity="1"><g transform="translate(32.649406, 46.149992)"><g><path d="M 1.015625 0.046875 C 0.859375 0.046875 0.71875 0.03125 0.59375 0 C 0.476562 -0.0390625 0.375 -0.09375 0.28125 -0.15625 C 0.195312 -0.21875 0.132812 -0.285156 0.09375 -0.359375 L 0.40625 -0.6875 L 0.4375 -0.6875 C 0.507812 -0.59375 0.59375 -0.519531 0.6875 -0.46875 C 0.789062 -0.414062 0.898438 -0.390625 1.015625 -0.390625 C 1.117188 -0.390625 1.195312 -0.410156 1.25 -0.453125 C 1.300781 -0.492188 1.328125 -0.546875 1.328125 -0.609375 C 1.328125 -0.671875 1.304688 -0.71875 1.265625 -0.75 C 1.234375 -0.789062 1.175781 -0.820312 1.09375 -0.84375 L 0.796875 -0.90625 C 0.585938 -0.957031 0.429688 -1.035156 0.328125 -1.140625 C 0.234375 -1.242188 0.1875 -1.378906 0.1875 -1.546875 C 0.1875 -1.679688 0.21875 -1.796875 0.28125 -1.890625 C 0.351562 -1.992188 0.453125 -2.070312 0.578125 -2.125 C 0.703125 -2.175781 0.847656 -2.203125 1.015625 -2.203125 C 1.203125 -2.203125 1.359375 -2.171875 1.484375 -2.109375 C 1.617188 -2.054688 1.722656 -1.984375 1.796875 -1.890625 L 1.5 -1.578125 L 1.46875 -1.578125 C 1.40625 -1.640625 1.335938 -1.6875 1.265625 -1.71875 C 1.191406 -1.75 1.109375 -1.765625 1.015625 -1.765625 C 0.796875 -1.765625 0.6875 -1.703125 0.6875 -1.578125 C 0.6875 -1.515625 0.707031 -1.460938 0.75 -1.421875 C 0.789062 -1.390625 0.863281 -1.363281 0.96875 -1.34375 L 1.234375 -1.296875 C 1.453125 -1.242188 1.609375 -1.164062 1.703125 -1.0625 C 1.804688 -0.957031 1.859375 -0.816406 1.859375 -0.640625 C 1.859375 -0.503906 1.820312 -0.382812 1.75 -0.28125 C 1.6875 -0.175781 1.585938 -0.09375 1.453125 -0.03125 C 1.328125 0.0195312 1.179688 0.046875 1.015625 0.046875 Z M 1.015625 0.046875 "/></g></g></g><g fill="#737373" fill-opacity="1"><g transform="translate(34.633799, 46.149992)"><g><path d="M 1.484375 -0.515625 L 1.625 -0.109375 C 1.570312 -0.0664062 1.5 -0.03125 1.40625 0 C 1.320312 0.03125 1.222656 0.046875 1.109375 0.046875 C 0.867188 0.046875 0.6875 -0.015625 0.5625 -0.140625 C 0.445312 -0.273438 0.390625 -0.460938 0.390625 -0.703125 L 0.390625 -1.734375 L 0.0625 -1.734375 L 0.0625 -2.15625 L 0.390625 -2.15625 L 0.390625 -2.578125 L 0.9375 -2.671875 L 0.9375 -2.15625 L 1.546875 -2.15625 L 1.546875 -1.734375 L 0.9375 -1.734375 L 0.9375 -0.75 C 0.9375 -0.632812 0.957031 -0.550781 1 -0.5 C 1.039062 -0.457031 1.101562 -0.4375 1.1875 -0.4375 C 1.289062 -0.4375 1.378906 -0.460938 1.453125 -0.515625 Z M 1.484375 -0.515625 "/></g></g></g><g fill="#737373" fill-opacity="1"><g transform="translate(36.305999, 46.149992)"><g><path d="M 1.25 0.046875 C 1.039062 0.046875 0.851562 0.00390625 0.6875 -0.078125 C 0.53125 -0.171875 0.40625 -0.300781 0.3125 -0.46875 C 0.226562 -0.632812 0.1875 -0.835938 0.1875 -1.078125 C 0.1875 -1.316406 0.226562 -1.519531 0.3125 -1.6875 C 0.40625 -1.851562 0.53125 -1.976562 0.6875 -2.0625 C 0.851562 -2.15625 1.039062 -2.203125 1.25 -2.203125 C 1.457031 -2.203125 1.640625 -2.15625 1.796875 -2.0625 C 1.960938 -1.976562 2.085938 -1.851562 2.171875 -1.6875 C 2.265625 -1.519531 2.3125 -1.316406 2.3125 -1.078125 C 2.3125 -0.835938 2.265625 -0.632812 2.171875 -0.46875 C 2.085938 -0.300781 1.960938 -0.171875 1.796875 -0.078125 C 1.640625 0.00390625 1.457031 0.046875 1.25 0.046875 Z M 1.25 -0.421875 C 1.582031 -0.421875 1.75 -0.640625 1.75 -1.078125 C 1.75 -1.304688 1.707031 -1.472656 1.625 -1.578125 C 1.539062 -1.679688 1.414062 -1.734375 1.25 -1.734375 C 0.914062 -1.734375 0.75 -1.515625 0.75 -1.078125 C 0.75 -0.640625 0.914062 -0.421875 1.25 -0.421875 Z M 1.25 -0.421875 "/></g></g></g><g fill="#737373" fill-opacity="1"><g transform="translate(38.807459, 46.149992)"><g><path d="M 0.3125 0 L 0.3125 -2.15625 L 0.84375 -2.15625 L 0.84375 -1.828125 L 0.875 -1.828125 C 0.925781 -1.941406 0.992188 -2.023438 1.078125 -2.078125 C 1.160156 -2.140625 1.265625 -2.171875 1.390625 -2.171875 C 1.515625 -2.171875 1.609375 -2.148438 1.671875 -2.109375 L 1.578125 -1.640625 L 1.53125 -1.640625 C 1.5 -1.648438 1.46875 -1.65625 1.4375 -1.65625 C 1.40625 -1.664062 1.363281 -1.671875 1.3125 -1.671875 C 1.164062 -1.671875 1.050781 -1.617188 0.96875 -1.515625 C 0.894531 -1.410156 0.859375 -1.242188 0.859375 -1.015625 L 0.859375 0 Z M 0.3125 0 "/></g></g></g><g fill="#737373" fill-opacity="1"><g transform="translate(40.495268, 46.149992)"><g><path d="M 0.484375 0.921875 C 0.390625 0.921875 0.300781 0.910156 0.21875 0.890625 C 0.144531 0.878906 0.0859375 0.863281 0.046875 0.84375 L 0.125 0.40625 L 0.171875 0.390625 C 0.203125 0.398438 0.238281 0.410156 0.28125 0.421875 C 0.332031 0.429688 0.382812 0.4375 0.4375 0.4375 C 0.519531 0.4375 0.585938 0.425781 0.640625 0.40625 C 0.703125 0.382812 0.753906 0.347656 0.796875 0.296875 C 0.835938 0.242188 0.875 0.171875 0.90625 0.078125 L 0.046875 -2.15625 L 0.609375 -2.15625 L 1.15625 -0.65625 L 1.203125 -0.65625 L 1.71875 -2.15625 L 2.265625 -2.15625 L 1.40625 0.140625 C 1.332031 0.316406 1.253906 0.460938 1.171875 0.578125 C 1.085938 0.691406 0.988281 0.773438 0.875 0.828125 C 0.769531 0.890625 0.640625 0.921875 0.484375 0.921875 Z M 0.484375 0.921875 "/></g></g></g></svg>