<svg xmlns="http://www.w3.org/2000/svg" xmlns:xlink="http://www.w3.org/1999/xlink" width="70" zoomAndPan="magnify" viewBox="0 0 52.5 52.499999" height="70" preserveAspectRatio="xMidYMid meet" version="1.0"><defs><clipPath id="c51116c818"><path d="M 4.457031 5.25 L 34 5.25 L 34 27 L 4.457031 27 Z M 4.457031 5.25 " clip-rule="nonzero"/></clipPath><clipPath id="b0b15aea8a"><path d="M 4.457031 21 L 19 21 L 19 31 L 4.457031 31 Z M 4.457031 21 " clip-rule="nonzero"/></clipPath><clipPath id="ae3e0ec1c1"><path d="M 4.457031 25 L 19 25 L 19 35 L 4.457031 35 Z M 4.457031 25 " clip-rule="nonzero"/></clipPath><clipPath id="568592c45d"><path d="M 19 18 L 47.957031 18 L 47.957031 47 L 19 47 Z M 19 18 " clip-rule="nonzero"/></clipPath></defs><g clip-path="url(#c51116c818)"><path fill="#737373" d="M 19.070312 25.296875 C 11.730469 25.296875 5.757812 21.921875 5.757812 17.769531 C 5.761719 17.726562 5.761719 17.683594 5.757812 17.640625 C 8.023438 20.710938 13.144531 22.890625 19.089844 22.890625 C 19.785156 22.890625 20.484375 22.859375 21.171875 22.796875 C 21.34375 22.777344 21.484375 22.699219 21.59375 22.566406 C 21.703125 22.433594 21.75 22.28125 21.734375 22.109375 C 21.722656 21.9375 21.648438 21.792969 21.519531 21.679688 C 21.390625 21.566406 21.238281 21.515625 21.066406 21.523438 C 20.414062 21.578125 19.75 21.609375 19.089844 21.609375 C 11.730469 21.609375 5.757812 18.230469 5.757812 14.074219 C 5.757812 9.921875 11.730469 6.542969 19.070312 6.542969 C 26.40625 6.542969 32.378906 9.90625 32.378906 14.074219 C 32.375 14.828125 32.195312 15.53125 31.835938 16.191406 C 31.75 16.347656 31.734375 16.511719 31.789062 16.679688 C 31.839844 16.847656 31.945312 16.976562 32.101562 17.058594 C 32.253906 17.140625 32.417969 17.15625 32.585938 17.105469 C 32.753906 17.050781 32.878906 16.949219 32.964844 16.792969 C 33.421875 15.945312 33.652344 15.039062 33.65625 14.074219 C 33.65625 9.214844 27.109375 5.265625 19.070312 5.265625 C 11.027344 5.265625 4.484375 9.214844 4.484375 14.074219 C 4.5 15.226562 4.824219 16.277344 5.460938 17.234375 C 5.253906 17.09375 5.042969 17.082031 4.820312 17.199219 C 4.597656 17.3125 4.488281 17.496094 4.484375 17.746094 C 4.484375 22.609375 11.027344 26.558594 19.070312 26.558594 C 19.246094 26.558594 19.394531 26.496094 19.519531 26.371094 C 19.644531 26.246094 19.707031 26.09375 19.707031 25.917969 C 19.707031 25.742188 19.644531 25.589844 19.519531 25.464844 C 19.394531 25.339844 19.246094 25.277344 19.070312 25.277344 Z M 19.070312 25.296875 " fill-opacity="1" fill-rule="nonzero"/></g><g clip-path="url(#b0b15aea8a)"><path fill="#737373" d="M 17.949219 29.34375 C 11.113281 29.03125 5.757812 25.734375 5.757812 21.851562 C 5.757812 21.675781 5.695312 21.523438 5.570312 21.398438 C 5.445312 21.273438 5.296875 21.210938 5.121094 21.210938 C 4.941406 21.210938 4.792969 21.273438 4.667969 21.398438 C 4.542969 21.523438 4.480469 21.675781 4.480469 21.851562 C 4.480469 26.496094 10.242188 30.269531 17.882812 30.640625 L 17.914062 30.640625 C 18.089844 30.644531 18.242188 30.585938 18.371094 30.460938 C 18.5 30.339844 18.5625 30.191406 18.570312 30.015625 C 18.574219 29.839844 18.515625 29.6875 18.390625 29.558594 C 18.269531 29.429688 18.121094 29.363281 17.945312 29.359375 Z M 17.949219 29.34375 " fill-opacity="1" fill-rule="nonzero"/></g><g clip-path="url(#ae3e0ec1c1)"><path fill="#737373" d="M 17.871094 33.4375 C 11.078125 33.09375 5.757812 29.796875 5.757812 25.9375 C 5.757812 25.761719 5.695312 25.609375 5.570312 25.484375 C 5.445312 25.359375 5.296875 25.296875 5.121094 25.296875 C 4.941406 25.296875 4.792969 25.359375 4.667969 25.484375 C 4.542969 25.609375 4.480469 25.761719 4.480469 25.9375 C 4.480469 30.542969 10.207031 34.328125 17.796875 34.722656 L 17.828125 34.722656 C 18.003906 34.726562 18.15625 34.667969 18.285156 34.546875 C 18.414062 34.425781 18.480469 34.277344 18.484375 34.101562 C 18.488281 33.921875 18.429688 33.769531 18.308594 33.644531 C 18.1875 33.515625 18.039062 33.449219 17.863281 33.441406 Z M 17.871094 33.4375 " fill-opacity="1" fill-rule="nonzero"/></g><path fill="#737373" d="M 34.738281 38.042969 L 34.96875 38.042969 C 35.207031 38.054688 35.4375 38.019531 35.664062 37.9375 C 35.886719 37.855469 36.089844 37.738281 36.265625 37.578125 C 36.441406 37.417969 36.582031 37.230469 36.683594 37.015625 C 36.789062 36.796875 36.84375 36.570312 36.859375 36.332031 L 36.859375 34.710938 C 36.859375 34.316406 36.457031 33.847656 35.75 33.421875 L 34.730469 33.0625 Z M 34.738281 38.042969 " fill-opacity="1" fill-rule="nonzero"/><g clip-path="url(#568592c45d)"><path fill="#737373" d="M 33.949219 18.171875 C 33.03125 18.171875 32.121094 18.261719 31.222656 18.441406 C 30.324219 18.621094 29.449219 18.886719 28.601562 19.238281 C 27.753906 19.589844 26.949219 20.019531 26.1875 20.53125 C 25.421875 21.042969 24.71875 21.621094 24.070312 22.273438 C 23.421875 22.921875 22.839844 23.628906 22.332031 24.394531 C 21.824219 25.15625 21.390625 25.964844 21.042969 26.8125 C 20.691406 27.664062 20.425781 28.539062 20.246094 29.441406 C 20.066406 30.339844 19.976562 31.25 19.976562 32.171875 C 19.976562 33.089844 20.066406 34 20.246094 34.902344 C 20.425781 35.804688 20.691406 36.679688 21.042969 37.527344 C 21.394531 38.375 21.824219 39.183594 22.332031 39.945312 C 22.84375 40.710938 23.421875 41.417969 24.070312 42.066406 C 24.71875 42.71875 25.425781 43.296875 26.1875 43.808594 C 26.953125 44.320312 27.757812 44.75 28.605469 45.101562 C 29.453125 45.453125 30.328125 45.71875 31.226562 45.898438 C 32.125 46.078125 33.035156 46.164062 33.953125 46.164062 C 34.867188 46.164062 35.777344 46.074219 36.675781 45.894531 C 37.578125 45.714844 38.449219 45.449219 39.296875 45.097656 C 40.144531 44.746094 40.949219 44.316406 41.714844 43.804688 C 42.476562 43.292969 43.179688 42.714844 43.828125 42.0625 C 44.476562 41.414062 45.058594 40.707031 45.566406 39.941406 C 46.074219 39.175781 46.507812 38.371094 46.855469 37.519531 C 47.207031 36.671875 47.472656 35.796875 47.652344 34.894531 C 47.828125 33.992188 47.917969 33.082031 47.917969 32.164062 C 47.917969 31.246094 47.828125 30.335938 47.648438 29.433594 C 47.46875 28.535156 47.203125 27.660156 46.851562 26.8125 C 46.5 25.960938 46.070312 25.15625 45.558594 24.390625 C 45.050781 23.628906 44.46875 22.921875 43.820312 22.273438 C 43.171875 21.625 42.46875 21.042969 41.707031 20.535156 C 40.945312 20.023438 40.140625 19.589844 39.292969 19.238281 C 38.445312 18.886719 37.570312 18.621094 36.671875 18.441406 C 35.773438 18.261719 34.867188 18.171875 33.949219 18.171875 Z M 33.949219 43.417969 C 33.210938 43.417969 32.480469 43.347656 31.757812 43.203125 C 31.035156 43.058594 30.332031 42.84375 29.648438 42.5625 C 28.96875 42.277344 28.320312 41.933594 27.707031 41.523438 C 27.09375 41.109375 26.527344 40.644531 26.003906 40.121094 C 25.484375 39.597656 25.019531 39.03125 24.609375 38.417969 C 24.199219 37.800781 23.851562 37.152344 23.570312 36.46875 C 23.289062 35.789062 23.074219 35.085938 22.929688 34.359375 C 22.785156 33.632812 22.714844 32.902344 22.714844 32.164062 C 22.714844 31.425781 22.785156 30.691406 22.929688 29.96875 C 23.074219 29.242188 23.289062 28.539062 23.570312 27.855469 C 23.851562 27.175781 24.199219 26.527344 24.609375 25.910156 C 25.019531 25.296875 25.484375 24.726562 26.003906 24.207031 C 26.527344 23.683594 27.09375 23.214844 27.707031 22.804688 C 28.320312 22.394531 28.96875 22.046875 29.648438 21.765625 C 30.332031 21.484375 31.035156 21.269531 31.757812 21.125 C 32.480469 20.980469 33.210938 20.910156 33.949219 20.910156 C 34.6875 20.910156 35.417969 20.980469 36.140625 21.125 C 36.863281 21.269531 37.566406 21.484375 38.246094 21.765625 C 38.929688 22.046875 39.574219 22.394531 40.1875 22.804688 C 40.800781 23.214844 41.371094 23.683594 41.890625 24.207031 C 42.414062 24.726562 42.878906 25.296875 43.289062 25.910156 C 43.699219 26.527344 44.042969 27.175781 44.328125 27.855469 C 44.609375 28.539062 44.820312 29.242188 44.964844 29.96875 C 45.109375 30.691406 45.183594 31.425781 45.183594 32.164062 C 45.183594 32.902344 45.109375 33.632812 44.964844 34.359375 C 44.820312 35.085938 44.609375 35.789062 44.328125 36.46875 C 44.042969 37.152344 43.699219 37.800781 43.289062 38.417969 C 42.878906 39.03125 42.414062 39.597656 41.890625 40.121094 C 41.371094 40.644531 40.800781 41.109375 40.1875 41.523438 C 39.574219 41.933594 38.929688 42.277344 38.246094 42.5625 C 37.566406 42.84375 36.863281 43.058594 36.140625 43.203125 C 35.417969 43.347656 34.6875 43.417969 33.949219 43.417969 Z M 33.949219 43.417969 " fill-opacity="1" fill-rule="nonzero"/></g><path fill="#737373" d="M 31.039062 27.917969 L 31.039062 29.515625 C 31.039062 30.023438 31.609375 30.464844 32.105469 30.761719 L 33.464844 31.246094 L 33.464844 26.210938 L 32.953125 26.210938 C 32.710938 26.195312 32.480469 26.226562 32.25 26.308594 C 32.023438 26.386719 31.820312 26.503906 31.640625 26.664062 C 31.460938 26.824219 31.320312 27.015625 31.214844 27.230469 C 31.109375 27.449219 31.050781 27.675781 31.039062 27.917969 Z M 31.039062 27.917969 " fill-opacity="1" fill-rule="nonzero"/><path fill="#737373" d="M 33.949219 22.183594 C 33.292969 22.183594 32.648438 22.246094 32.007812 22.375 C 31.363281 22.503906 30.742188 22.691406 30.136719 22.941406 C 29.535156 23.191406 28.960938 23.5 28.417969 23.863281 C 27.871094 24.226562 27.371094 24.640625 26.90625 25.105469 C 26.445312 25.566406 26.03125 26.070312 25.667969 26.617188 C 25.304688 27.160156 25 27.734375 24.75 28.339844 C 24.5 28.945312 24.308594 29.570312 24.183594 30.210938 C 24.054688 30.855469 23.992188 31.503906 23.992188 32.160156 C 23.992188 32.8125 24.054688 33.460938 24.183594 34.105469 C 24.308594 34.746094 24.5 35.371094 24.75 35.976562 C 25 36.582031 25.304688 37.15625 25.667969 37.699219 C 26.03125 38.246094 26.445312 38.75 26.90625 39.210938 C 27.371094 39.675781 27.871094 40.089844 28.417969 40.453125 C 28.960938 40.816406 29.535156 41.125 30.136719 41.375 C 30.742188 41.625 31.363281 41.816406 32.007812 41.941406 C 32.648438 42.070312 33.292969 42.132812 33.949219 42.132812 C 34.601562 42.132812 35.25 42.070312 35.890625 41.941406 C 36.53125 41.816406 37.15625 41.625 37.757812 41.375 C 38.363281 41.125 38.9375 40.816406 39.480469 40.453125 C 40.023438 40.089844 40.527344 39.675781 40.988281 39.210938 C 41.453125 38.75 41.863281 38.246094 42.226562 37.699219 C 42.589844 37.15625 42.898438 36.582031 43.148438 35.976562 C 43.398438 35.371094 43.585938 34.746094 43.714844 34.105469 C 43.839844 33.460938 43.90625 32.8125 43.90625 32.160156 C 43.902344 31.503906 43.839844 30.855469 43.710938 30.214844 C 43.582031 29.570312 43.394531 28.949219 43.144531 28.34375 C 42.894531 27.738281 42.585938 27.164062 42.222656 26.621094 C 41.859375 26.074219 41.445312 25.570312 40.984375 25.109375 C 40.523438 24.644531 40.019531 24.234375 39.476562 23.867188 C 38.933594 23.503906 38.359375 23.199219 37.757812 22.945312 C 37.152344 22.695312 36.53125 22.503906 35.890625 22.378906 C 35.25 22.25 34.601562 22.183594 33.949219 22.183594 Z M 38.136719 28.660156 C 38.136719 28.835938 38.074219 28.988281 37.949219 29.113281 C 37.824219 29.238281 37.671875 29.300781 37.496094 29.300781 C 37.320312 29.300781 37.171875 29.238281 37.046875 29.113281 C 36.921875 28.988281 36.859375 28.835938 36.859375 28.660156 L 36.859375 27.917969 C 36.84375 27.679688 36.789062 27.453125 36.683594 27.238281 C 36.582031 27.023438 36.441406 26.832031 36.265625 26.671875 C 36.089844 26.515625 35.886719 26.394531 35.664062 26.3125 C 35.4375 26.234375 35.207031 26.199219 34.96875 26.210938 L 34.738281 26.210938 L 34.738281 31.707031 L 36.234375 32.21875 C 36.273438 32.234375 36.308594 32.25 36.34375 32.269531 C 37.515625 32.957031 38.136719 33.804688 38.136719 34.691406 L 38.136719 36.292969 C 38.125 36.699219 38.035156 37.09375 37.871094 37.464844 C 37.703125 37.839844 37.46875 38.164062 37.171875 38.445312 C 36.875 38.726562 36.535156 38.9375 36.15625 39.082031 C 35.773438 39.226562 35.378906 39.292969 34.96875 39.28125 L 34.738281 39.28125 L 34.738281 39.792969 C 34.738281 39.96875 34.675781 40.117188 34.554688 40.242188 C 34.429688 40.367188 34.277344 40.429688 34.101562 40.429688 C 33.925781 40.429688 33.773438 40.367188 33.648438 40.242188 C 33.527344 40.117188 33.464844 39.96875 33.464844 39.792969 L 33.464844 39.28125 L 32.953125 39.28125 C 32.542969 39.296875 32.148438 39.234375 31.761719 39.09375 C 31.378906 38.953125 31.035156 38.742188 30.734375 38.464844 C 30.4375 38.1875 30.199219 37.859375 30.03125 37.488281 C 29.859375 37.113281 29.769531 36.722656 29.757812 36.3125 L 29.757812 35.566406 C 29.757812 35.390625 29.820312 35.238281 29.941406 35.113281 C 30.066406 34.988281 30.21875 34.925781 30.394531 34.925781 C 30.570312 34.925781 30.722656 34.988281 30.847656 35.113281 C 30.96875 35.238281 31.03125 35.390625 31.03125 35.566406 L 31.03125 36.3125 C 31.042969 36.554688 31.101562 36.78125 31.203125 37 C 31.304688 37.21875 31.445312 37.410156 31.625 37.570312 C 31.800781 37.734375 32.003906 37.855469 32.230469 37.9375 C 32.457031 38.019531 32.691406 38.054688 32.933594 38.042969 L 33.441406 38.042969 L 33.441406 32.609375 L 31.597656 31.949219 L 31.488281 31.898438 C 30.347656 31.21875 29.757812 30.414062 29.757812 29.515625 L 29.757812 27.917969 C 29.765625 27.507812 29.855469 27.117188 30.023438 26.742188 C 30.191406 26.371094 30.421875 26.042969 30.71875 25.761719 C 31.019531 25.480469 31.359375 25.269531 31.742188 25.125 C 32.125 24.980469 32.519531 24.914062 32.925781 24.929688 L 33.4375 24.929688 L 33.4375 24.542969 C 33.4375 24.363281 33.5 24.214844 33.625 24.089844 C 33.75 23.964844 33.898438 23.902344 34.074219 23.902344 C 34.253906 23.902344 34.402344 23.964844 34.527344 24.089844 C 34.652344 24.214844 34.714844 24.363281 34.714844 24.542969 L 34.714844 24.929688 L 34.945312 24.929688 C 35.351562 24.917969 35.746094 24.980469 36.128906 25.125 C 36.511719 25.269531 36.851562 25.484375 37.148438 25.761719 C 37.445312 26.042969 37.675781 26.371094 37.84375 26.746094 C 38.011719 27.117188 38.097656 27.507812 38.109375 27.917969 Z M 38.136719 28.660156 " fill-opacity="1" fill-rule="nonzero"/><path fill="#737373" d="M 22.609375 11.582031 C 22.789062 11.585938 22.945312 11.523438 23.070312 11.394531 C 23.199219 11.265625 23.261719 11.109375 23.257812 10.929688 L 23.257812 10.417969 C 23.257812 9.097656 21.867188 8.058594 20.089844 8.058594 L 19.867188 8.058594 L 19.867188 7.949219 C 19.867188 7.773438 19.804688 7.625 19.679688 7.5 C 19.554688 7.375 19.402344 7.3125 19.226562 7.3125 C 19.050781 7.3125 18.902344 7.375 18.777344 7.5 C 18.652344 7.625 18.589844 7.773438 18.589844 7.949219 L 18.589844 8.058594 L 18.054688 8.058594 C 16.277344 8.058594 14.886719 9.082031 14.886719 10.417969 L 14.886719 11.582031 C 14.886719 12.722656 16.25 13.3125 16.707031 13.507812 C 16.730469 13.523438 16.761719 13.53125 16.792969 13.539062 L 18.589844 14.007812 L 18.589844 17.621094 L 18.054688 17.621094 C 16.941406 17.621094 16.164062 17.050781 16.164062 16.546875 L 16.164062 15.984375 C 16.164062 15.804688 16.101562 15.65625 15.976562 15.53125 C 15.851562 15.40625 15.703125 15.34375 15.527344 15.34375 C 15.347656 15.34375 15.199219 15.40625 15.074219 15.53125 C 14.949219 15.65625 14.886719 15.804688 14.886719 15.984375 L 14.886719 16.554688 C 14.886719 17.875 16.277344 18.910156 18.054688 18.910156 L 18.589844 18.910156 L 18.589844 19.09375 C 18.589844 19.269531 18.652344 19.421875 18.777344 19.546875 C 18.902344 19.671875 19.050781 19.734375 19.226562 19.734375 C 19.402344 19.734375 19.554688 19.671875 19.679688 19.546875 C 19.804688 19.421875 19.867188 19.269531 19.867188 19.09375 L 19.867188 18.910156 L 20.089844 18.910156 C 21.867188 18.910156 23.257812 17.886719 23.257812 16.554688 L 23.257812 15.359375 C 23.257812 14.597656 22.628906 13.9375 21.390625 13.410156 C 21.367188 13.394531 21.335938 13.382812 21.304688 13.378906 L 19.867188 13 L 19.867188 9.320312 L 20.089844 9.320312 C 21.203125 9.320312 21.980469 9.890625 21.980469 10.402344 L 21.980469 10.929688 C 21.976562 11.105469 22.035156 11.257812 22.15625 11.386719 C 22.28125 11.515625 22.429688 11.582031 22.609375 11.582031 Z M 20.921875 14.601562 C 21.78125 14.980469 21.96875 15.300781 21.96875 15.359375 L 21.96875 16.554688 C 21.96875 17.066406 21.195312 17.628906 20.082031 17.628906 L 19.855469 17.628906 L 19.855469 14.324219 Z M 18.589844 12.667969 L 17.164062 12.300781 C 16.34375 11.9375 16.144531 11.648438 16.144531 11.566406 L 16.144531 10.417969 C 16.144531 9.90625 16.917969 9.335938 18.03125 9.335938 L 18.570312 9.335938 Z M 18.589844 12.667969 " fill-opacity="1" fill-rule="nonzero"/></svg>