<svg xmlns="http://www.w3.org/2000/svg" xmlns:xlink="http://www.w3.org/1999/xlink" width="70" zoomAndPan="magnify" viewBox="0 0 52.5 52.499999" height="70" preserveAspectRatio="xMidYMid meet" version="1.0"><defs><g/><clipPath id="37fc3293a9"><path d="M 17 5.25 L 33 5.25 L 33 33 L 17 33 Z M 17 5.25 " clip-rule="nonzero"/></clipPath><clipPath id="d51862314d"><path d="M 22.425781 13.375 L 39.773438 13.375 L 39.773438 40.292969 L 22.425781 40.292969 Z M 22.425781 13.375 " clip-rule="nonzero"/></clipPath></defs><g clip-path="url(#37fc3293a9)"><path fill="#737373" d="M 25.734375 30.929688 L 23.546875 30.929688 C 23.183594 30.929688 22.894531 30.640625 22.894531 30.273438 C 22.894531 29.914062 23.183594 29.625 23.546875 29.625 L 25.734375 29.625 C 26.097656 29.625 26.382812 29.914062 26.382812 30.273438 C 26.382812 30.640625 26.097656 30.929688 25.734375 30.929688 Z M 23.101562 6.367188 L 26.171875 6.367188 C 26.335938 6.367188 26.472656 6.503906 26.472656 6.671875 C 26.472656 6.835938 26.335938 6.96875 26.171875 6.96875 L 23.101562 6.96875 C 22.9375 6.96875 22.804688 6.835938 22.804688 6.671875 C 22.804688 6.503906 22.9375 6.367188 23.101562 6.367188 Z M 31.234375 31.867188 C 30.800781 30.839844 30.660156 29.675781 30.660156 28.566406 L 17.730469 28.566406 L 17.730469 7.875 L 31.546875 7.875 L 31.546875 12.707031 C 31.769531 12.660156 31.96875 12.6875 32.15625 12.761719 L 32.15625 6.742188 C 32.15625 6.035156 31.589844 5.457031 30.886719 5.457031 L 18.386719 5.457031 C 17.683594 5.457031 17.117188 6.035156 17.117188 6.742188 L 17.117188 30.710938 C 17.117188 31.417969 17.683594 31.988281 18.386719 31.988281 C 31.113281 31.917969 30.898438 32.132812 31.234375 31.863281 L 31.234375 31.867188 " fill-opacity="1" fill-rule="nonzero"/></g><path fill="#737373" d="M 14.421875 13.148438 C 14.421875 13.148438 14.0625 14.476562 16.417969 14.941406 L 16.417969 12.464844 C 16.417969 12.464844 14.761719 12.101562 14.421875 13.148438 " fill-opacity="1" fill-rule="nonzero"/><path fill="#737373" d="M 14.394531 22.835938 C 14.199219 23.34375 14.742188 23.78125 15.375 23.710938 C 15.15625 24.046875 14.894531 24.5 14.738281 24.9375 C 14.320312 26.136719 15.890625 26.875 16.417969 25.929688 L 16.417969 20.480469 C 16.417969 20.480469 14.921875 21.445312 14.394531 22.835938 " fill-opacity="1" fill-rule="nonzero"/><path fill="#737373" d="M 14.082031 20.09375 C 14.429688 20.355469 15.109375 20.609375 16.417969 20.480469 L 16.417969 17.550781 C 16.238281 17.703125 12.785156 19.113281 14.082031 20.09375 " fill-opacity="1" fill-rule="nonzero"/><g clip-path="url(#d51862314d)"><path fill="#737373" d="M 31.546875 14.066406 C 32.308594 13.410156 32.574219 14.972656 33.136719 15.949219 C 31.703125 15.667969 31.527344 14.652344 31.546875 14.066406 Z M 38.167969 33.261719 C 36.351562 30.289062 36.652344 22.125 36.652344 22.125 C 36.730469 20.480469 34.582031 17.765625 33.808594 16.835938 C 32.636719 15.425781 32.324219 12.328125 31.242188 13.742188 C 31.242188 13.742188 30.570312 14.707031 30.5 16.113281 C 30.398438 18.414062 32.710938 20.039062 32.058594 24.195312 C 32.058594 24.195312 30.507812 28.9375 32.039062 31.933594 C 32.0625 32.066406 31.59375 32.691406 30.886719 32.691406 L 22.730469 32.691406 C 23.609375 33.660156 24.734375 34.417969 25.558594 34.898438 C 27.332031 35.9375 27.421875 37.460938 28.921875 40.292969 L 39.789062 36.308594 L 38.167969 33.261719 " fill-opacity="1" fill-rule="nonzero"/></g><path fill="#737373" d="M 23.089844 24.25 L 23.617188 24 C 23.539062 23.828125 23.4375 23.644531 23.316406 23.445312 L 22.820312 23.769531 C 22.933594 23.941406 23.019531 24.101562 23.089844 24.25 " fill-opacity="1" fill-rule="nonzero"/><path fill="#737373" d="M 22.613281 22.46875 L 22.15625 22.835938 L 22.496094 23.300781 L 22.964844 22.949219 L 22.613281 22.46875 " fill-opacity="1" fill-rule="nonzero"/><path fill="#737373" d="M 22.90625 14.242188 L 22.648438 14.269531 L 22.722656 14.855469 L 22.96875 14.828125 C 23.074219 14.816406 23.1875 14.808594 23.292969 14.796875 L 23.246094 14.207031 C 23.132812 14.214844 23.019531 14.226562 22.90625 14.242188 " fill-opacity="1" fill-rule="nonzero"/><path fill="#737373" d="M 22.390625 20.90625 L 22.710938 21.398438 C 22.761719 21.367188 22.808594 21.339844 22.855469 21.3125 C 22.964844 21.25 23.074219 21.195312 23.1875 21.140625 L 22.945312 20.605469 C 22.820312 20.664062 22.691406 20.730469 22.570312 20.796875 C 22.511719 20.832031 22.449219 20.867188 22.390625 20.90625 " fill-opacity="1" fill-rule="nonzero"/><path fill="#737373" d="M 23.628906 17.742188 L 23.628906 17.152344 C 23.441406 17.152344 23.25 17.148438 23.0625 17.136719 L 23.023438 17.722656 C 23.222656 17.738281 23.425781 17.742188 23.628906 17.742188 " fill-opacity="1" fill-rule="nonzero"/><path fill="#737373" d="M 21.785156 17.445312 C 21.976562 17.527344 22.175781 17.59375 22.402344 17.640625 L 22.519531 17.0625 C 22.335938 17.023438 22.175781 16.972656 22.019531 16.90625 L 21.785156 17.445312 " fill-opacity="1" fill-rule="nonzero"/><path fill="#737373" d="M 24.457031 14.179688 C 24.25 14.167969 24.046875 14.167969 23.847656 14.175781 L 23.863281 14.765625 C 24.054688 14.761719 24.242188 14.761719 24.429688 14.769531 L 24.457031 14.179688 " fill-opacity="1" fill-rule="nonzero"/><path fill="#737373" d="M 26.734375 12.625 C 26.027344 12.625 25.453125 12.050781 25.453125 11.335938 C 25.453125 10.625 26.027344 10.054688 26.734375 10.054688 C 27.433594 10.054688 28.007812 10.625 28.007812 11.335938 C 28.007812 12.050781 27.433594 12.625 26.734375 12.625 Z M 26.722656 9.414062 C 25.679688 9.414062 24.816406 10.273438 24.816406 11.335938 C 24.816406 12.019531 25.609375 13.683594 26.167969 14.785156 L 26.054688 15.082031 C 26.179688 15.132812 26.292969 15.191406 26.410156 15.25 C 26.417969 15.269531 26.433594 15.296875 26.445312 15.320312 C 26.570312 15.554688 26.886719 15.554688 27.011719 15.320312 C 27.542969 14.328125 28.640625 12.148438 28.640625 11.335938 C 28.640625 10.273438 27.789062 9.414062 26.722656 9.414062 " fill-opacity="1" fill-rule="nonzero"/><path fill="#737373" d="M 26.636719 17.746094 L 26.265625 18.207031 C 26.394531 18.308594 26.5 18.4375 26.582031 18.570312 L 27.082031 18.265625 C 26.96875 18.074219 26.816406 17.894531 26.636719 17.746094 " fill-opacity="1" fill-rule="nonzero"/><path fill="#737373" d="M 26.054688 17.40625 C 25.863281 17.328125 25.660156 17.269531 25.433594 17.226562 L 25.328125 17.808594 C 25.515625 17.84375 25.683594 17.894531 25.835938 17.953125 L 26.054688 17.40625 " fill-opacity="1" fill-rule="nonzero"/><path fill="#737373" d="M 25.667969 14.347656 C 25.574219 14.324219 25.484375 14.300781 25.386719 14.285156 C 25.28125 14.261719 25.171875 14.246094 25.0625 14.230469 L 24.984375 14.820312 C 25.085938 14.832031 25.183594 14.847656 25.277344 14.867188 C 25.363281 14.882812 25.445312 14.898438 25.53125 14.921875 L 25.667969 14.347656 " fill-opacity="1" fill-rule="nonzero"/><path fill="#737373" d="M 21.320312 16.257812 L 20.796875 16.527344 C 20.894531 16.722656 21.042969 16.914062 21.21875 17.074219 L 21.609375 16.636719 C 21.488281 16.523438 21.386719 16.390625 21.320312 16.257812 " fill-opacity="1" fill-rule="nonzero"/><path fill="#737373" d="M 21.257812 15.652344 C 21.28125 15.582031 21.320312 15.519531 21.363281 15.457031 L 20.894531 15.101562 C 20.816406 15.207031 20.75 15.328125 20.707031 15.449219 C 20.667969 15.5625 20.640625 15.683594 20.636719 15.804688 L 21.222656 15.839844 C 21.222656 15.773438 21.238281 15.710938 21.257812 15.652344 " fill-opacity="1" fill-rule="nonzero"/><path fill="#737373" d="M 24.941406 20.675781 C 25.089844 20.660156 25.238281 20.640625 25.382812 20.617188 L 25.289062 20.03125 C 25.148438 20.054688 25.011719 20.074219 24.871094 20.089844 L 24.714844 20.109375 L 24.792969 20.699219 L 24.941406 20.675781 " fill-opacity="1" fill-rule="nonzero"/><path fill="#737373" d="M 24.117188 20.210938 C 23.914062 20.253906 23.714844 20.3125 23.519531 20.375 L 23.703125 20.9375 C 23.878906 20.878906 24.058594 20.828125 24.238281 20.789062 L 24.117188 20.210938 " fill-opacity="1" fill-rule="nonzero"/><path fill="#737373" d="M 26.59375 20.195312 L 26.277344 19.699219 C 26.144531 19.785156 25.988281 19.859375 25.816406 19.914062 L 25.996094 20.476562 C 26.21875 20.402344 26.421875 20.3125 26.59375 20.195312 " fill-opacity="1" fill-rule="nonzero"/><path fill="#737373" d="M 23.863281 25.066406 C 23.863281 24.921875 23.851562 24.773438 23.824219 24.628906 L 23.246094 24.738281 C 23.269531 24.847656 23.277344 24.957031 23.277344 25.0625 C 23.277344 25.125 23.273438 25.179688 23.269531 25.238281 L 23.847656 25.308594 C 23.859375 25.226562 23.863281 25.148438 23.863281 25.066406 " fill-opacity="1" fill-rule="nonzero"/><path fill="#737373" d="M 27.222656 19.449219 C 27.273438 19.308594 27.296875 19.164062 27.296875 18.964844 L 26.710938 19.015625 C 26.710938 19.09375 26.699219 19.171875 26.671875 19.246094 C 26.65625 19.289062 26.632812 19.335938 26.605469 19.378906 L 27.097656 19.695312 C 27.152344 19.617188 27.191406 19.53125 27.222656 19.449219 " fill-opacity="1" fill-rule="nonzero"/><path fill="#737373" d="M 24.785156 17.75 L 24.8125 17.160156 C 24.644531 17.152344 24.472656 17.152344 24.300781 17.148438 L 24.210938 17.148438 L 24.214844 17.738281 L 24.300781 17.738281 C 24.460938 17.738281 24.621094 17.742188 24.785156 17.75 " fill-opacity="1" fill-rule="nonzero"/><path fill="#737373" d="M 23.511719 26.164062 C 23.558594 26.105469 23.601562 26.039062 23.632812 25.972656 L 23.125 25.6875 C 23.101562 25.726562 23.074219 25.765625 23.046875 25.804688 C 22.984375 25.882812 22.90625 25.960938 22.816406 26.03125 L 23.164062 26.503906 C 23.300781 26.402344 23.417969 26.289062 23.511719 26.164062 " fill-opacity="1" fill-rule="nonzero"/><path fill="#737373" d="M 21.902344 15.058594 C 21.996094 15.015625 22.089844 14.984375 22.191406 14.957031 L 22.035156 14.386719 C 21.910156 14.421875 21.792969 14.460938 21.675781 14.511719 C 21.589844 14.550781 21.503906 14.589844 21.421875 14.636719 L 21.71875 15.148438 C 21.777344 15.113281 21.839844 15.082031 21.902344 15.058594 " fill-opacity="1" fill-rule="nonzero"/><path fill="#737373" d="M 21.332031 27.027344 L 21.3125 26.441406 C 21.199219 26.445312 21.085938 26.445312 20.972656 26.445312 L 20.738281 26.445312 L 20.734375 27.035156 L 20.972656 27.035156 C 21.09375 27.035156 21.210938 27.035156 21.332031 27.027344 " fill-opacity="1" fill-rule="nonzero"/><path fill="#737373" d="M 22.183594 26.933594 C 22.316406 26.90625 22.449219 26.867188 22.574219 26.816406 L 22.375 26.265625 C 22.269531 26.300781 22.164062 26.332031 22.058594 26.355469 C 21.992188 26.371094 21.929688 26.382812 21.863281 26.394531 L 21.949219 26.976562 C 22.027344 26.964844 22.105469 26.949219 22.183594 26.933594 " fill-opacity="1" fill-rule="nonzero"/><path fill="#737373" d="M 22.378906 22.042969 C 22.339844 21.917969 22.335938 21.8125 22.394531 21.699219 L 21.878906 21.421875 C 21.746094 21.679688 21.734375 21.945312 21.820312 22.226562 L 22.378906 22.042969 " fill-opacity="1" fill-rule="nonzero"/><g fill="#737373" fill-opacity="1"><g transform="translate(21.021169, 46.149992)"><g><path d="M 2.296875 -2.859375 L 2.296875 -2.375 L 1.46875 -2.375 L 1.46875 0 L 0.90625 0 L 0.90625 -2.375 L 0.078125 -2.375 L 0.078125 -2.859375 Z M 2.296875 -2.859375 "/></g></g></g><g fill="#737373" fill-opacity="1"><g transform="translate(23.386044, 46.149992)"><g><path d="M 0.3125 0 L 0.3125 -2.15625 L 0.84375 -2.15625 L 0.84375 -1.828125 L 0.875 -1.828125 C 0.925781 -1.941406 0.992188 -2.023438 1.078125 -2.078125 C 1.160156 -2.140625 1.265625 -2.171875 1.390625 -2.171875 C 1.515625 -2.171875 1.609375 -2.148438 1.671875 -2.109375 L 1.578125 -1.640625 L 1.53125 -1.640625 C 1.5 -1.648438 1.46875 -1.65625 1.4375 -1.65625 C 1.40625 -1.664062 1.363281 -1.671875 1.3125 -1.671875 C 1.164062 -1.671875 1.050781 -1.617188 0.96875 -1.515625 C 0.894531 -1.410156 0.859375 -1.242188 0.859375 -1.015625 L 0.859375 0 Z M 0.3125 0 "/></g></g></g><g fill="#737373" fill-opacity="1"><g transform="translate(25.073853, 46.149992)"><g><path d="M 0.84375 0.046875 C 0.707031 0.046875 0.585938 0.0195312 0.484375 -0.03125 C 0.378906 -0.0820312 0.300781 -0.15625 0.25 -0.25 C 0.195312 -0.351562 0.171875 -0.472656 0.171875 -0.609375 C 0.171875 -0.742188 0.195312 -0.851562 0.25 -0.9375 C 0.300781 -1.019531 0.382812 -1.085938 0.5 -1.140625 C 0.613281 -1.203125 0.765625 -1.25 0.953125 -1.28125 C 1.078125 -1.300781 1.171875 -1.320312 1.234375 -1.34375 C 1.304688 -1.363281 1.351562 -1.390625 1.375 -1.421875 C 1.40625 -1.453125 1.421875 -1.492188 1.421875 -1.546875 C 1.421875 -1.617188 1.394531 -1.671875 1.34375 -1.703125 C 1.289062 -1.742188 1.210938 -1.765625 1.109375 -1.765625 C 0.984375 -1.765625 0.863281 -1.734375 0.75 -1.671875 C 0.644531 -1.617188 0.554688 -1.550781 0.484375 -1.46875 L 0.4375 -1.46875 L 0.21875 -1.8125 C 0.320312 -1.9375 0.453125 -2.03125 0.609375 -2.09375 C 0.765625 -2.164062 0.9375 -2.203125 1.125 -2.203125 C 1.414062 -2.203125 1.625 -2.140625 1.75 -2.015625 C 1.875 -1.890625 1.9375 -1.71875 1.9375 -1.5 L 1.9375 -0.5625 C 1.9375 -0.46875 1.976562 -0.421875 2.0625 -0.421875 C 2.09375 -0.421875 2.125 -0.425781 2.15625 -0.4375 L 2.1875 -0.421875 L 2.234375 -0.046875 C 2.203125 -0.0234375 2.160156 -0.0078125 2.109375 0 C 2.054688 0.0078125 1.992188 0.015625 1.921875 0.015625 C 1.796875 0.015625 1.695312 -0.0078125 1.625 -0.0625 C 1.550781 -0.113281 1.5 -0.191406 1.46875 -0.296875 L 1.4375 -0.296875 C 1.320312 -0.0664062 1.125 0.046875 0.84375 0.046875 Z M 1.015625 -0.359375 C 1.140625 -0.359375 1.238281 -0.398438 1.3125 -0.484375 C 1.382812 -0.566406 1.421875 -0.6875 1.421875 -0.84375 L 1.421875 -1.0625 L 1.390625 -1.0625 C 1.359375 -1.039062 1.316406 -1.019531 1.265625 -1 C 1.210938 -0.976562 1.132812 -0.960938 1.03125 -0.953125 C 0.914062 -0.929688 0.832031 -0.894531 0.78125 -0.84375 C 0.726562 -0.800781 0.703125 -0.734375 0.703125 -0.640625 C 0.703125 -0.554688 0.726562 -0.488281 0.78125 -0.4375 C 0.832031 -0.382812 0.910156 -0.359375 1.015625 -0.359375 Z M 1.015625 -0.359375 "/></g></g></g><g fill="#737373" fill-opacity="1"><g transform="translate(27.343125, 46.149992)"><g><path d="M 1.25 0.046875 C 1.039062 0.046875 0.859375 0.00390625 0.703125 -0.078125 C 0.546875 -0.171875 0.421875 -0.300781 0.328125 -0.46875 C 0.234375 -0.632812 0.1875 -0.835938 0.1875 -1.078125 C 0.1875 -1.316406 0.234375 -1.519531 0.328125 -1.6875 C 0.421875 -1.851562 0.546875 -1.976562 0.703125 -2.0625 C 0.859375 -2.15625 1.039062 -2.203125 1.25 -2.203125 C 1.695312 -2.203125 1.988281 -2.035156 2.125 -1.703125 L 1.75 -1.4375 L 1.703125 -1.4375 C 1.660156 -1.539062 1.601562 -1.613281 1.53125 -1.65625 C 1.457031 -1.707031 1.363281 -1.734375 1.25 -1.734375 C 1.09375 -1.734375 0.96875 -1.675781 0.875 -1.5625 C 0.789062 -1.457031 0.75 -1.296875 0.75 -1.078125 C 0.75 -0.859375 0.789062 -0.691406 0.875 -0.578125 C 0.96875 -0.472656 1.09375 -0.421875 1.25 -0.421875 C 1.375 -0.421875 1.472656 -0.453125 1.546875 -0.515625 C 1.628906 -0.578125 1.691406 -0.664062 1.734375 -0.78125 L 1.765625 -0.796875 L 2.15625 -0.578125 C 2.101562 -0.398438 2 -0.25 1.84375 -0.125 C 1.695312 -0.0078125 1.5 0.046875 1.25 0.046875 Z M 1.25 0.046875 "/></g></g></g><g fill="#737373" fill-opacity="1"><g transform="translate(29.561665, 46.149992)"><g><path d="M 0.3125 0 L 0.3125 -3.015625 L 0.859375 -3.015625 L 0.859375 -1.34375 L 0.90625 -1.34375 L 1.53125 -2.15625 L 2.078125 -2.15625 L 2.078125 -2.109375 L 1.34375 -1.171875 L 2.15625 -0.046875 L 2.15625 0 L 1.59375 0 L 0.90625 -0.90625 L 0.859375 -0.90625 L 0.859375 0 Z M 0.3125 0 "/></g></g></g></svg>