<svg xmlns="http://www.w3.org/2000/svg" xmlns:xlink="http://www.w3.org/1999/xlink" width="70" zoomAndPan="magnify" viewBox="0 0 52.5 52.499999" height="70" preserveAspectRatio="xMidYMid meet" version="1.0"><defs><clipPath id="fdd96cf20d"><path d="M 14 5.25 L 34 5.25 L 34 40 L 14 40 Z M 14 5.25 " clip-rule="nonzero"/></clipPath><clipPath id="ff11a2013d"><path d="M 21.347656 15.621094 L 43.511719 15.621094 L 43.511719 49.984375 L 21.347656 49.984375 Z M 21.347656 15.621094 " clip-rule="nonzero"/></clipPath></defs><g clip-path="url(#fdd96cf20d)"><path fill="#737373" d="M 25.574219 38.03125 L 22.777344 38.03125 C 22.3125 38.03125 21.945312 37.664062 21.945312 37.191406 C 21.945312 36.734375 22.3125 36.367188 22.777344 36.367188 L 25.574219 36.367188 C 26.035156 36.367188 26.40625 36.734375 26.40625 37.191406 C 26.40625 37.664062 26.035156 38.03125 25.574219 38.03125 Z M 22.210938 6.675781 L 26.132812 6.675781 C 26.339844 6.675781 26.519531 6.851562 26.519531 7.0625 C 26.519531 7.273438 26.339844 7.441406 26.132812 7.441406 L 22.210938 7.441406 C 22 7.441406 21.828125 7.273438 21.828125 7.0625 C 21.828125 6.851562 22 6.675781 22.210938 6.675781 Z M 32.601562 39.230469 C 32.046875 37.914062 31.871094 36.429688 31.871094 35.019531 L 15.34375 35.019531 L 15.34375 8.601562 L 33 8.601562 L 33 14.769531 C 33.285156 14.710938 33.539062 14.746094 33.78125 14.839844 L 33.78125 7.152344 C 33.78125 6.253906 33.054688 5.515625 32.15625 5.515625 L 16.1875 5.515625 C 15.285156 5.515625 14.5625 6.253906 14.5625 7.152344 L 14.5625 37.753906 C 14.5625 38.652344 15.285156 39.382812 16.1875 39.382812 C 32.445312 39.292969 32.171875 39.570312 32.601562 39.226562 L 32.601562 39.230469 " fill-opacity="1" fill-rule="nonzero"/></g><path fill="#737373" d="M 11.121094 15.335938 C 11.121094 15.335938 10.660156 17.027344 13.667969 17.621094 L 13.667969 14.460938 C 13.667969 14.460938 11.550781 13.996094 11.121094 15.335938 " fill-opacity="1" fill-rule="nonzero"/><path fill="#737373" d="M 11.085938 27.699219 C 10.835938 28.347656 11.527344 28.90625 12.335938 28.816406 C 12.058594 29.246094 11.722656 29.824219 11.523438 30.382812 C 10.988281 31.914062 13 32.859375 13.667969 31.652344 L 13.667969 24.695312 C 13.667969 24.695312 11.757812 25.925781 11.085938 27.703125 L 11.085938 27.699219 " fill-opacity="1" fill-rule="nonzero"/><path fill="#737373" d="M 10.6875 24.199219 C 11.128906 24.53125 12 24.855469 13.667969 24.695312 L 13.667969 20.953125 C 13.441406 21.148438 9.03125 22.949219 10.6875 24.199219 " fill-opacity="1" fill-rule="nonzero"/><g clip-path="url(#ff11a2013d)"><path fill="#737373" d="M 33 16.503906 C 33.972656 15.667969 34.3125 17.664062 35.03125 18.90625 C 33.203125 18.546875 32.976562 17.253906 33 16.503906 Z M 41.460938 41.011719 C 39.140625 37.214844 39.523438 26.789062 39.523438 26.789062 C 39.621094 24.695312 36.878906 21.226562 35.890625 20.039062 C 34.394531 18.238281 33.996094 14.289062 32.609375 16.09375 C 32.609375 16.09375 31.75 17.324219 31.664062 19.117188 C 31.53125 22.054688 34.488281 24.128906 33.65625 29.4375 C 33.65625 29.4375 31.671875 35.492188 33.628906 39.3125 C 33.660156 39.484375 33.058594 40.28125 32.15625 40.28125 L 21.734375 40.28125 C 22.859375 41.515625 24.296875 42.488281 25.351562 43.097656 C 27.613281 44.425781 27.730469 46.371094 29.648438 49.984375 L 43.53125 44.898438 L 41.460938 41.011719 " fill-opacity="1" fill-rule="nonzero"/></g><path fill="#737373" d="M 22.191406 29.503906 L 22.871094 29.1875 C 22.769531 28.964844 22.640625 28.734375 22.484375 28.480469 L 21.851562 28.890625 C 21.992188 29.113281 22.101562 29.3125 22.191406 29.503906 " fill-opacity="1" fill-rule="nonzero"/><path fill="#737373" d="M 21.585938 27.234375 L 21 27.703125 L 21.4375 28.292969 L 22.035156 27.84375 L 21.585938 27.234375 " fill-opacity="1" fill-rule="nonzero"/><path fill="#737373" d="M 21.960938 16.726562 L 21.632812 16.761719 L 21.726562 17.511719 L 22.039062 17.476562 C 22.175781 17.460938 22.316406 17.449219 22.457031 17.4375 L 22.398438 16.683594 C 22.25 16.695312 22.105469 16.710938 21.960938 16.726562 " fill-opacity="1" fill-rule="nonzero"/><path fill="#737373" d="M 21.304688 25.234375 L 21.710938 25.867188 C 21.773438 25.828125 21.835938 25.792969 21.894531 25.757812 C 22.035156 25.675781 22.175781 25.605469 22.320312 25.535156 L 22.011719 24.851562 C 21.847656 24.925781 21.6875 25.011719 21.53125 25.097656 C 21.457031 25.140625 21.378906 25.1875 21.304688 25.234375 " fill-opacity="1" fill-rule="nonzero"/><path fill="#737373" d="M 22.882812 21.195312 L 22.882812 20.441406 C 22.644531 20.441406 22.402344 20.4375 22.160156 20.421875 L 22.109375 21.171875 C 22.367188 21.191406 22.625 21.195312 22.882812 21.195312 " fill-opacity="1" fill-rule="nonzero"/><path fill="#737373" d="M 20.527344 20.816406 C 20.769531 20.925781 21.027344 21.007812 21.316406 21.070312 L 21.46875 20.332031 C 21.234375 20.28125 21.027344 20.214844 20.828125 20.128906 L 20.527344 20.816406 " fill-opacity="1" fill-rule="nonzero"/><path fill="#737373" d="M 23.941406 16.648438 C 23.675781 16.636719 23.417969 16.636719 23.164062 16.644531 L 23.183594 17.398438 C 23.425781 17.390625 23.664062 17.394531 23.90625 17.402344 L 23.941406 16.648438 " fill-opacity="1" fill-rule="nonzero"/><path fill="#737373" d="M 26.851562 14.667969 C 25.949219 14.667969 25.214844 13.933594 25.214844 13.019531 C 25.214844 12.113281 25.949219 11.382812 26.851562 11.382812 C 27.742188 11.382812 28.476562 12.113281 28.476562 13.019531 C 28.476562 13.933594 27.742188 14.667969 26.851562 14.667969 Z M 26.839844 10.566406 C 25.503906 10.566406 24.402344 11.664062 24.402344 13.019531 C 24.402344 13.894531 25.414062 16.015625 26.125 17.421875 L 25.980469 17.800781 C 26.140625 17.863281 26.285156 17.945312 26.441406 18.015625 C 26.449219 18.042969 26.46875 18.078125 26.484375 18.105469 C 26.644531 18.40625 27.046875 18.40625 27.207031 18.105469 C 27.886719 16.839844 29.289062 14.054688 29.289062 13.019531 C 29.289062 11.664062 28.199219 10.566406 26.839844 10.566406 " fill-opacity="1" fill-rule="nonzero"/><path fill="#737373" d="M 26.726562 21.203125 L 26.25 21.789062 C 26.417969 21.921875 26.554688 22.085938 26.65625 22.253906 L 27.296875 21.867188 C 27.152344 21.621094 26.957031 21.394531 26.726562 21.203125 " fill-opacity="1" fill-rule="nonzero"/><path fill="#737373" d="M 25.980469 20.765625 C 25.738281 20.667969 25.480469 20.597656 25.191406 20.542969 L 25.058594 21.285156 C 25.296875 21.328125 25.507812 21.390625 25.703125 21.464844 L 25.980469 20.765625 " fill-opacity="1" fill-rule="nonzero"/><path fill="#737373" d="M 25.492188 16.863281 C 25.371094 16.835938 25.253906 16.804688 25.132812 16.78125 C 24.992188 16.753906 24.855469 16.734375 24.714844 16.714844 L 24.617188 17.464844 C 24.742188 17.480469 24.867188 17.5 24.988281 17.523438 C 25.101562 17.542969 25.207031 17.570312 25.316406 17.597656 L 25.492188 16.863281 " fill-opacity="1" fill-rule="nonzero"/><path fill="#737373" d="M 19.933594 19.300781 L 19.265625 19.644531 C 19.390625 19.898438 19.578125 20.136719 19.804688 20.34375 L 20.304688 19.789062 C 20.148438 19.640625 20.019531 19.472656 19.933594 19.300781 " fill-opacity="1" fill-rule="nonzero"/><path fill="#737373" d="M 19.855469 18.527344 C 19.886719 18.441406 19.933594 18.359375 19.992188 18.277344 L 19.390625 17.824219 C 19.289062 17.964844 19.207031 18.113281 19.148438 18.269531 C 19.097656 18.417969 19.066406 18.570312 19.058594 18.726562 L 19.808594 18.769531 C 19.8125 18.6875 19.828125 18.605469 19.855469 18.527344 " fill-opacity="1" fill-rule="nonzero"/><path fill="#737373" d="M 24.5625 24.941406 C 24.75 24.921875 24.9375 24.894531 25.125 24.867188 L 25.003906 24.121094 C 24.824219 24.148438 24.648438 24.171875 24.46875 24.195312 L 24.273438 24.21875 L 24.371094 24.972656 L 24.5625 24.941406 " fill-opacity="1" fill-rule="nonzero"/><path fill="#737373" d="M 23.503906 24.351562 C 23.246094 24.40625 22.992188 24.476562 22.746094 24.558594 L 22.980469 25.273438 C 23.203125 25.199219 23.429688 25.136719 23.660156 25.089844 L 23.503906 24.351562 " fill-opacity="1" fill-rule="nonzero"/><path fill="#737373" d="M 26.675781 24.328125 L 26.265625 23.695312 C 26.097656 23.804688 25.898438 23.902344 25.679688 23.96875 L 25.90625 24.6875 C 26.191406 24.59375 26.453125 24.476562 26.675781 24.328125 " fill-opacity="1" fill-rule="nonzero"/><path fill="#737373" d="M 23.183594 30.546875 C 23.183594 30.363281 23.167969 30.175781 23.132812 29.988281 L 22.398438 30.128906 C 22.425781 30.269531 22.4375 30.40625 22.4375 30.542969 C 22.4375 30.621094 22.433594 30.691406 22.425781 30.765625 L 23.164062 30.855469 C 23.179688 30.753906 23.183594 30.652344 23.183594 30.546875 " fill-opacity="1" fill-rule="nonzero"/><path fill="#737373" d="M 27.472656 23.375 C 27.539062 23.199219 27.570312 23.011719 27.570312 22.757812 L 26.824219 22.824219 C 26.824219 22.921875 26.808594 23.019531 26.773438 23.113281 C 26.753906 23.171875 26.722656 23.230469 26.6875 23.289062 L 27.316406 23.691406 C 27.382812 23.589844 27.433594 23.480469 27.472656 23.375 " fill-opacity="1" fill-rule="nonzero"/><path fill="#737373" d="M 24.359375 21.207031 L 24.398438 20.453125 C 24.183594 20.441406 23.960938 20.441406 23.742188 20.4375 L 23.625 20.4375 L 23.632812 21.191406 L 23.742188 21.191406 C 23.949219 21.191406 24.152344 21.195312 24.359375 21.207031 " fill-opacity="1" fill-rule="nonzero"/><path fill="#737373" d="M 22.734375 31.945312 C 22.792969 31.871094 22.847656 31.789062 22.890625 31.707031 L 22.238281 31.339844 C 22.207031 31.390625 22.175781 31.441406 22.140625 31.488281 C 22.058594 31.589844 21.960938 31.691406 21.84375 31.777344 L 22.289062 32.378906 C 22.464844 32.253906 22.613281 32.109375 22.734375 31.945312 " fill-opacity="1" fill-rule="nonzero"/><path fill="#737373" d="M 20.675781 17.769531 C 20.796875 17.71875 20.917969 17.675781 21.046875 17.644531 L 20.847656 16.914062 C 20.6875 16.957031 20.535156 17.007812 20.386719 17.074219 C 20.277344 17.121094 20.167969 17.171875 20.066406 17.234375 L 20.441406 17.886719 C 20.519531 17.839844 20.597656 17.800781 20.675781 17.769531 " fill-opacity="1" fill-rule="nonzero"/><path fill="#737373" d="M 19.949219 33.050781 L 19.925781 32.300781 C 19.78125 32.304688 19.632812 32.304688 19.488281 32.304688 L 19.191406 32.304688 L 19.183594 33.058594 L 19.488281 33.058594 C 19.640625 33.058594 19.796875 33.058594 19.949219 33.050781 " fill-opacity="1" fill-rule="nonzero"/><path fill="#737373" d="M 21.039062 32.933594 C 21.207031 32.894531 21.375 32.847656 21.539062 32.785156 L 21.28125 32.078125 C 21.148438 32.125 21.015625 32.164062 20.875 32.195312 C 20.792969 32.210938 20.710938 32.226562 20.625 32.242188 L 20.738281 32.984375 C 20.835938 32.96875 20.9375 32.953125 21.039062 32.933594 " fill-opacity="1" fill-rule="nonzero"/><path fill="#737373" d="M 21.289062 26.6875 C 21.238281 26.53125 21.234375 26.390625 21.308594 26.25 L 20.648438 25.894531 C 20.476562 26.222656 20.460938 26.566406 20.574219 26.921875 L 21.289062 26.6875 " fill-opacity="1" fill-rule="nonzero"/></svg>