<svg xmlns="http://www.w3.org/2000/svg" xmlns:xlink="http://www.w3.org/1999/xlink" width="70" zoomAndPan="magnify" viewBox="0 0 52.5 52.499999" height="70" preserveAspectRatio="xMidYMid meet" version="1.0"><defs><g/><clipPath id="48b4529bb2"><path d="M 17 7 L 40.777344 7 L 40.777344 41.050781 L 17 41.050781 Z M 17 7 " clip-rule="nonzero"/></clipPath><clipPath id="95028ef351"><path d="M 12.277344 3.550781 L 36 3.550781 L 36 38 L 12.277344 38 Z M 12.277344 3.550781 " clip-rule="nonzero"/></clipPath></defs><path fill="#737373" d="M 27.882812 20.960938 L 27.882812 17 C 25.964844 17.320312 24.496094 18.972656 24.496094 20.960938 C 24.496094 23.175781 26.320312 24.980469 28.5625 24.980469 C 30.574219 24.980469 32.246094 23.527344 32.570312 21.632812 L 28.5625 21.632812 C 28.1875 21.632812 27.882812 21.332031 27.882812 20.960938 Z M 27.882812 20.960938 " fill-opacity="1" fill-rule="nonzero"/><path fill="#737373" d="M 29.238281 17 L 29.238281 20.292969 L 32.570312 20.292969 C 32.285156 18.613281 30.9375 17.285156 29.238281 17 Z M 29.238281 17 " fill-opacity="1" fill-rule="nonzero"/><path fill="#737373" d="M 15.007812 10.246094 L 16.363281 10.246094 L 16.363281 12.925781 L 15.007812 12.925781 Z M 15.007812 10.246094 " fill-opacity="1" fill-rule="nonzero"/><path fill="#737373" d="M 19.75 6.230469 L 21.105469 6.230469 L 21.105469 12.925781 L 19.75 12.925781 Z M 19.75 6.230469 " fill-opacity="1" fill-rule="nonzero"/><path fill="#737373" d="M 38.050781 5.558594 L 36.695312 5.558594 L 36.695312 37.703125 C 36.695312 38.074219 36.390625 38.371094 36.015625 38.371094 L 15.007812 38.371094 L 15.007812 39.042969 L 38.050781 39.042969 Z M 38.050781 5.558594 " fill-opacity="1" fill-rule="nonzero"/><path fill="#737373" d="M 24.496094 8.238281 L 25.851562 8.238281 L 25.851562 12.925781 L 24.496094 12.925781 Z M 24.496094 8.238281 " fill-opacity="1" fill-rule="nonzero"/><g clip-path="url(#48b4529bb2)"><path fill="#737373" d="M 39.40625 7.570312 L 39.40625 39.710938 C 39.40625 40.082031 39.101562 40.382812 38.726562 40.382812 L 17.71875 40.382812 L 17.71875 41.050781 L 40.761719 41.050781 L 40.761719 7.570312 Z M 39.40625 7.570312 " fill-opacity="1" fill-rule="nonzero"/></g><g clip-path="url(#95028ef351)"><path fill="#737373" d="M 35.339844 3.550781 L 12.296875 3.550781 L 12.296875 37.03125 L 35.339844 37.03125 Z M 23.140625 7.570312 C 23.140625 7.199219 23.441406 6.898438 23.816406 6.898438 L 26.527344 6.898438 C 26.902344 6.898438 27.207031 7.199219 27.207031 7.570312 L 27.207031 13.59375 C 27.207031 13.964844 26.902344 14.265625 26.527344 14.265625 L 23.816406 14.265625 C 23.441406 14.265625 23.140625 13.964844 23.140625 13.59375 Z M 18.394531 5.558594 C 18.394531 5.191406 18.699219 4.890625 19.074219 4.890625 L 21.785156 4.890625 C 22.160156 4.890625 22.460938 5.191406 22.460938 5.558594 L 22.460938 13.59375 C 22.460938 13.964844 22.160156 14.265625 21.785156 14.265625 L 19.074219 14.265625 C 18.699219 14.265625 18.394531 13.964844 18.394531 13.59375 Z M 21.785156 17.613281 C 21.785156 17.984375 21.480469 18.28125 21.105469 18.28125 L 17.039062 18.28125 C 16.664062 18.28125 16.363281 17.984375 16.363281 17.613281 C 16.363281 17.242188 16.664062 16.945312 17.039062 16.945312 L 21.105469 16.945312 C 21.480469 16.945312 21.785156 17.242188 21.785156 17.613281 Z M 13.652344 9.578125 C 13.652344 9.207031 13.953125 8.90625 14.328125 8.90625 L 17.039062 8.90625 C 17.414062 8.90625 17.71875 9.207031 17.71875 9.578125 L 17.71875 13.59375 C 17.71875 13.964844 17.414062 14.265625 17.039062 14.265625 L 14.328125 14.265625 C 13.953125 14.265625 13.652344 13.964844 13.652344 13.59375 Z M 14.328125 19.621094 L 21.105469 19.621094 C 21.480469 19.621094 21.785156 19.921875 21.785156 20.292969 C 21.785156 20.660156 21.480469 20.960938 21.105469 20.960938 L 14.328125 20.960938 C 13.953125 20.960938 13.652344 20.660156 13.652344 20.292969 C 13.652344 19.921875 13.953125 19.621094 14.328125 19.621094 Z M 14.328125 22.300781 L 21.105469 22.300781 C 21.480469 22.300781 21.785156 22.601562 21.785156 22.96875 C 21.785156 23.339844 21.480469 23.640625 21.105469 23.640625 L 14.328125 23.640625 C 13.953125 23.640625 13.652344 23.339844 13.652344 22.96875 C 13.652344 22.601562 13.953125 22.300781 14.328125 22.300781 Z M 14.328125 24.980469 L 19.074219 24.980469 C 19.449219 24.980469 19.75 25.28125 19.75 25.648438 C 19.75 26.019531 19.449219 26.320312 19.074219 26.320312 L 14.328125 26.320312 C 13.953125 26.320312 13.652344 26.019531 13.652344 25.648438 C 13.652344 25.28125 13.953125 24.980469 14.328125 24.980469 Z M 23.816406 31.007812 C 23.816406 31.375 23.515625 31.675781 23.140625 31.675781 C 22.765625 31.675781 22.460938 31.375 22.460938 31.007812 L 22.460938 30.613281 L 20.90625 32.148438 C 20.703125 32.351562 20.386719 32.402344 20.125 32.273438 L 18.019531 31.234375 L 16.289062 34.652344 C 16.175781 34.882812 15.941406 35.023438 15.683594 35.023438 C 15.429688 35.023438 15.195312 34.882812 15.078125 34.652344 L 13.722656 31.976562 C 13.554688 31.644531 13.691406 31.242188 14.027344 31.078125 C 14.359375 30.910156 14.769531 31.046875 14.933594 31.375 L 15.683594 32.855469 L 17.113281 30.039062 C 17.277344 29.707031 17.6875 29.574219 18.019531 29.738281 L 20.296875 30.859375 L 21.503906 29.667969 L 21.105469 29.667969 C 20.730469 29.667969 20.429688 29.367188 20.429688 28.996094 C 20.429688 28.628906 20.730469 28.328125 21.105469 28.328125 L 23.140625 28.328125 C 23.515625 28.328125 23.816406 28.628906 23.816406 28.996094 Z M 33.304688 34.355469 L 25.851562 34.355469 C 25.476562 34.355469 25.171875 34.054688 25.171875 33.683594 C 25.171875 33.316406 25.476562 33.015625 25.851562 33.015625 L 33.304688 33.015625 C 33.679688 33.015625 33.984375 33.316406 33.984375 33.683594 C 33.984375 34.054688 33.679688 34.355469 33.304688 34.355469 Z M 33.304688 31.675781 L 25.851562 31.675781 C 25.476562 31.675781 25.171875 31.375 25.171875 31.007812 C 25.171875 30.636719 25.476562 30.335938 25.851562 30.335938 L 33.304688 30.335938 C 33.679688 30.335938 33.984375 30.636719 33.984375 31.007812 C 33.984375 31.375 33.679688 31.675781 33.304688 31.675781 Z M 33.304688 28.996094 L 28.5625 28.996094 C 28.1875 28.996094 27.882812 28.699219 27.882812 28.328125 C 27.882812 27.957031 28.1875 27.65625 28.5625 27.65625 L 33.304688 27.65625 C 33.679688 27.65625 33.984375 27.957031 33.984375 28.328125 C 33.984375 28.699219 33.679688 28.996094 33.304688 28.996094 Z M 28.5625 26.320312 C 25.570312 26.320312 23.140625 23.914062 23.140625 20.960938 C 23.140625 18.007812 25.570312 15.605469 28.5625 15.605469 C 31.550781 15.605469 33.984375 18.007812 33.984375 20.960938 C 33.984375 23.914062 31.550781 26.320312 28.5625 26.320312 Z M 33.304688 14.265625 L 29.238281 14.265625 C 28.863281 14.265625 28.5625 13.964844 28.5625 13.59375 C 28.5625 13.226562 28.863281 12.925781 29.238281 12.925781 L 33.304688 12.925781 C 33.679688 12.925781 33.984375 13.226562 33.984375 13.59375 C 33.984375 13.964844 33.679688 14.265625 33.304688 14.265625 Z M 33.304688 11.585938 L 29.238281 11.585938 C 28.863281 11.585938 28.5625 11.285156 28.5625 10.917969 C 28.5625 10.546875 28.863281 10.246094 29.238281 10.246094 L 33.304688 10.246094 C 33.679688 10.246094 33.984375 10.546875 33.984375 10.917969 C 33.984375 11.285156 33.679688 11.585938 33.304688 11.585938 Z M 33.304688 8.90625 L 29.238281 8.90625 C 28.863281 8.90625 28.5625 8.609375 28.5625 8.238281 C 28.5625 7.867188 28.863281 7.570312 29.238281 7.570312 L 33.304688 7.570312 C 33.679688 7.570312 33.984375 7.867188 33.984375 8.238281 C 33.984375 8.609375 33.679688 8.90625 33.304688 8.90625 Z M 33.304688 6.230469 L 31.273438 6.230469 C 30.898438 6.230469 30.59375 5.929688 30.59375 5.558594 C 30.59375 5.191406 30.898438 4.890625 31.273438 4.890625 L 33.304688 4.890625 C 33.679688 4.890625 33.984375 5.191406 33.984375 5.558594 C 33.984375 5.929688 33.679688 6.230469 33.304688 6.230469 Z M 33.304688 6.230469 " fill-opacity="1" fill-rule="nonzero"/></g><g fill="#737373" fill-opacity="1"><g transform="translate(18.665701, 46.149997)"><g><path d="M 0.375 0 L 0.375 -2.859375 L 1.515625 -2.859375 C 1.816406 -2.859375 2.039062 -2.789062 2.1875 -2.65625 C 2.332031 -2.519531 2.40625 -2.332031 2.40625 -2.09375 C 2.40625 -1.914062 2.363281 -1.769531 2.28125 -1.65625 C 2.195312 -1.550781 2.066406 -1.46875 1.890625 -1.40625 L 1.890625 -1.375 C 1.972656 -1.332031 2.039062 -1.269531 2.09375 -1.1875 C 2.15625 -1.113281 2.210938 -1.003906 2.265625 -0.859375 L 2.546875 0 L 1.96875 0 L 1.6875 -0.859375 C 1.65625 -0.941406 1.617188 -1.003906 1.578125 -1.046875 C 1.546875 -1.097656 1.503906 -1.132812 1.453125 -1.15625 C 1.398438 -1.175781 1.328125 -1.1875 1.234375 -1.1875 L 0.9375 -1.1875 L 0.9375 0 Z M 1.453125 -1.640625 C 1.722656 -1.640625 1.859375 -1.765625 1.859375 -2.015625 C 1.859375 -2.273438 1.722656 -2.40625 1.453125 -2.40625 L 0.9375 -2.40625 L 0.9375 -1.640625 Z M 1.453125 -1.640625 "/></g></g></g><g fill="#737373" fill-opacity="1"><g transform="translate(21.333021, 46.149997)"><g><path d="M 2.125 -0.953125 L 0.75 -0.953125 C 0.757812 -0.765625 0.8125 -0.628906 0.90625 -0.546875 C 1 -0.460938 1.125 -0.421875 1.28125 -0.421875 C 1.40625 -0.421875 1.503906 -0.441406 1.578125 -0.484375 C 1.648438 -0.535156 1.710938 -0.609375 1.765625 -0.703125 L 1.8125 -0.703125 L 2.171875 -0.46875 C 2.097656 -0.3125 1.988281 -0.1875 1.84375 -0.09375 C 1.707031 0 1.519531 0.046875 1.28125 0.046875 C 1.050781 0.046875 0.851562 0.00390625 0.6875 -0.078125 C 0.53125 -0.171875 0.40625 -0.300781 0.3125 -0.46875 C 0.226562 -0.632812 0.1875 -0.835938 0.1875 -1.078125 C 0.1875 -1.316406 0.234375 -1.519531 0.328125 -1.6875 C 0.421875 -1.863281 0.546875 -1.992188 0.703125 -2.078125 C 0.859375 -2.160156 1.035156 -2.203125 1.234375 -2.203125 C 1.546875 -2.203125 1.78125 -2.117188 1.9375 -1.953125 C 2.101562 -1.796875 2.1875 -1.5625 2.1875 -1.25 C 2.1875 -1.132812 2.179688 -1.046875 2.171875 -0.984375 Z M 1.671875 -1.3125 C 1.660156 -1.46875 1.617188 -1.582031 1.546875 -1.65625 C 1.472656 -1.738281 1.367188 -1.78125 1.234375 -1.78125 C 0.960938 -1.78125 0.800781 -1.625 0.75 -1.3125 Z M 1.671875 -1.3125 "/></g></g></g><g fill="#737373" fill-opacity="1"><g transform="translate(23.672536, 46.149997)"><g><path d="M 0.3125 0.875 L 0.3125 -2.15625 L 0.859375 -2.15625 L 0.859375 -1.875 L 0.890625 -1.859375 C 0.953125 -1.972656 1.035156 -2.054688 1.140625 -2.109375 C 1.253906 -2.171875 1.382812 -2.203125 1.53125 -2.203125 C 1.695312 -2.203125 1.84375 -2.160156 1.96875 -2.078125 C 2.101562 -1.992188 2.207031 -1.867188 2.28125 -1.703125 C 2.351562 -1.535156 2.390625 -1.328125 2.390625 -1.078125 C 2.390625 -0.828125 2.347656 -0.617188 2.265625 -0.453125 C 2.191406 -0.285156 2.085938 -0.160156 1.953125 -0.078125 C 1.816406 0.00390625 1.660156 0.046875 1.484375 0.046875 C 1.347656 0.046875 1.234375 0.0234375 1.140625 -0.015625 C 1.046875 -0.0664062 0.960938 -0.140625 0.890625 -0.234375 L 0.859375 -0.234375 L 0.859375 0.875 Z M 1.34375 -0.421875 C 1.5 -0.421875 1.617188 -0.472656 1.703125 -0.578125 C 1.785156 -0.679688 1.828125 -0.847656 1.828125 -1.078125 C 1.828125 -1.304688 1.785156 -1.472656 1.703125 -1.578125 C 1.617188 -1.679688 1.5 -1.734375 1.34375 -1.734375 C 1.1875 -1.734375 1.0625 -1.675781 0.96875 -1.5625 C 0.882812 -1.457031 0.84375 -1.296875 0.84375 -1.078125 C 0.84375 -0.859375 0.882812 -0.691406 0.96875 -0.578125 C 1.0625 -0.472656 1.1875 -0.421875 1.34375 -0.421875 Z M 1.34375 -0.421875 "/></g></g></g><g fill="#737373" fill-opacity="1"><g transform="translate(26.2501, 46.149997)"><g><path d="M 1.25 0.046875 C 1.039062 0.046875 0.851562 0.00390625 0.6875 -0.078125 C 0.53125 -0.171875 0.40625 -0.300781 0.3125 -0.46875 C 0.226562 -0.632812 0.1875 -0.835938 0.1875 -1.078125 C 0.1875 -1.316406 0.226562 -1.519531 0.3125 -1.6875 C 0.40625 -1.851562 0.53125 -1.976562 0.6875 -2.0625 C 0.851562 -2.15625 1.039062 -2.203125 1.25 -2.203125 C 1.457031 -2.203125 1.640625 -2.15625 1.796875 -2.0625 C 1.960938 -1.976562 2.085938 -1.851562 2.171875 -1.6875 C 2.265625 -1.519531 2.3125 -1.316406 2.3125 -1.078125 C 2.3125 -0.835938 2.265625 -0.632812 2.171875 -0.46875 C 2.085938 -0.300781 1.960938 -0.171875 1.796875 -0.078125 C 1.640625 0.00390625 1.457031 0.046875 1.25 0.046875 Z M 1.25 -0.421875 C 1.582031 -0.421875 1.75 -0.640625 1.75 -1.078125 C 1.75 -1.304688 1.707031 -1.472656 1.625 -1.578125 C 1.539062 -1.679688 1.414062 -1.734375 1.25 -1.734375 C 0.914062 -1.734375 0.75 -1.515625 0.75 -1.078125 C 0.75 -0.640625 0.914062 -0.421875 1.25 -0.421875 Z M 1.25 -0.421875 "/></g></g></g><g fill="#737373" fill-opacity="1"><g transform="translate(28.751561, 46.149997)"><g><path d="M 0.3125 0 L 0.3125 -2.15625 L 0.84375 -2.15625 L 0.84375 -1.828125 L 0.875 -1.828125 C 0.925781 -1.941406 0.992188 -2.023438 1.078125 -2.078125 C 1.160156 -2.140625 1.265625 -2.171875 1.390625 -2.171875 C 1.515625 -2.171875 1.609375 -2.148438 1.671875 -2.109375 L 1.578125 -1.640625 L 1.53125 -1.640625 C 1.5 -1.648438 1.46875 -1.65625 1.4375 -1.65625 C 1.40625 -1.664062 1.363281 -1.671875 1.3125 -1.671875 C 1.164062 -1.671875 1.050781 -1.617188 0.96875 -1.515625 C 0.894531 -1.410156 0.859375 -1.242188 0.859375 -1.015625 L 0.859375 0 Z M 0.3125 0 "/></g></g></g><g fill="#737373" fill-opacity="1"><g transform="translate(30.43937, 46.149997)"><g><path d="M 1.484375 -0.515625 L 1.625 -0.109375 C 1.570312 -0.0664062 1.5 -0.03125 1.40625 0 C 1.320312 0.03125 1.222656 0.046875 1.109375 0.046875 C 0.867188 0.046875 0.6875 -0.015625 0.5625 -0.140625 C 0.445312 -0.273438 0.390625 -0.460938 0.390625 -0.703125 L 0.390625 -1.734375 L 0.0625 -1.734375 L 0.0625 -2.15625 L 0.390625 -2.15625 L 0.390625 -2.578125 L 0.9375 -2.671875 L 0.9375 -2.15625 L 1.546875 -2.15625 L 1.546875 -1.734375 L 0.9375 -1.734375 L 0.9375 -0.75 C 0.9375 -0.632812 0.957031 -0.550781 1 -0.5 C 1.039062 -0.457031 1.101562 -0.4375 1.1875 -0.4375 C 1.289062 -0.4375 1.378906 -0.460938 1.453125 -0.515625 Z M 1.484375 -0.515625 "/></g></g></g><g fill="#737373" fill-opacity="1"><g transform="translate(32.111569, 46.149997)"><g><path d="M 1.015625 0.046875 C 0.859375 0.046875 0.71875 0.03125 0.59375 0 C 0.476562 -0.0390625 0.375 -0.09375 0.28125 -0.15625 C 0.195312 -0.21875 0.132812 -0.285156 0.09375 -0.359375 L 0.40625 -0.6875 L 0.4375 -0.6875 C 0.507812 -0.59375 0.59375 -0.519531 0.6875 -0.46875 C 0.789062 -0.414062 0.898438 -0.390625 1.015625 -0.390625 C 1.117188 -0.390625 1.195312 -0.410156 1.25 -0.453125 C 1.300781 -0.492188 1.328125 -0.546875 1.328125 -0.609375 C 1.328125 -0.671875 1.304688 -0.71875 1.265625 -0.75 C 1.234375 -0.789062 1.175781 -0.820312 1.09375 -0.84375 L 0.796875 -0.90625 C 0.585938 -0.957031 0.429688 -1.035156 0.328125 -1.140625 C 0.234375 -1.242188 0.1875 -1.378906 0.1875 -1.546875 C 0.1875 -1.679688 0.21875 -1.796875 0.28125 -1.890625 C 0.351562 -1.992188 0.453125 -2.070312 0.578125 -2.125 C 0.703125 -2.175781 0.847656 -2.203125 1.015625 -2.203125 C 1.203125 -2.203125 1.359375 -2.171875 1.484375 -2.109375 C 1.617188 -2.054688 1.722656 -1.984375 1.796875 -1.890625 L 1.5 -1.578125 L 1.46875 -1.578125 C 1.40625 -1.640625 1.335938 -1.6875 1.265625 -1.71875 C 1.191406 -1.75 1.109375 -1.765625 1.015625 -1.765625 C 0.796875 -1.765625 0.6875 -1.703125 0.6875 -1.578125 C 0.6875 -1.515625 0.707031 -1.460938 0.75 -1.421875 C 0.789062 -1.390625 0.863281 -1.363281 0.96875 -1.34375 L 1.234375 -1.296875 C 1.453125 -1.242188 1.609375 -1.164062 1.703125 -1.0625 C 1.804688 -0.957031 1.859375 -0.816406 1.859375 -0.640625 C 1.859375 -0.503906 1.820312 -0.382812 1.75 -0.28125 C 1.6875 -0.175781 1.585938 -0.09375 1.453125 -0.03125 C 1.328125 0.0195312 1.179688 0.046875 1.015625 0.046875 Z M 1.015625 0.046875 "/></g></g></g></svg>