<svg xmlns="http://www.w3.org/2000/svg" xmlns:xlink="http://www.w3.org/1999/xlink" width="70" zoomAndPan="magnify" viewBox="0 0 52.5 52.499999" height="70" preserveAspectRatio="xMidYMid meet" version="1.0"><defs><clipPath id="9e2d464f32"><path d="M 15 8 L 43.136719 8 L 43.136719 48.792969 L 15 48.792969 Z M 15 8 " clip-rule="nonzero"/></clipPath><clipPath id="1e319ca3f4"><path d="M 9.386719 3.792969 L 37 3.792969 L 37 44 L 9.386719 44 Z M 9.386719 3.792969 " clip-rule="nonzero"/></clipPath></defs><path fill="#737373" d="M 27.867188 24.6875 L 27.867188 19.933594 C 25.59375 20.316406 23.855469 22.300781 23.855469 24.6875 C 23.855469 27.34375 26.015625 29.507812 28.671875 29.507812 C 31.050781 29.507812 33.035156 27.765625 33.417969 25.488281 L 28.671875 25.488281 C 28.226562 25.488281 27.867188 25.128906 27.867188 24.6875 Z M 27.867188 24.6875 " fill-opacity="1" fill-rule="nonzero"/><path fill="#737373" d="M 29.472656 19.933594 L 29.472656 23.882812 L 33.417969 23.882812 C 33.078125 21.867188 31.488281 20.273438 29.472656 19.933594 Z M 29.472656 19.933594 " fill-opacity="1" fill-rule="nonzero"/><path fill="#737373" d="M 12.617188 11.828125 L 14.222656 11.828125 L 14.222656 15.042969 L 12.617188 15.042969 Z M 12.617188 11.828125 " fill-opacity="1" fill-rule="nonzero"/><path fill="#737373" d="M 18.234375 7.007812 L 19.839844 7.007812 L 19.839844 15.042969 L 18.234375 15.042969 Z M 18.234375 7.007812 " fill-opacity="1" fill-rule="nonzero"/><path fill="#737373" d="M 39.910156 6.203125 L 38.304688 6.203125 L 38.304688 44.773438 C 38.304688 45.21875 37.945312 45.578125 37.5 45.578125 L 12.617188 45.578125 L 12.617188 46.382812 L 39.910156 46.382812 Z M 39.910156 6.203125 " fill-opacity="1" fill-rule="nonzero"/><path fill="#737373" d="M 23.855469 9.417969 L 25.460938 9.417969 L 25.460938 15.042969 L 23.855469 15.042969 Z M 23.855469 9.417969 " fill-opacity="1" fill-rule="nonzero"/><g clip-path="url(#9e2d464f32)"><path fill="#737373" d="M 41.515625 8.613281 L 41.515625 47.1875 C 41.515625 47.628906 41.15625 47.988281 40.710938 47.988281 L 15.828125 47.988281 L 15.828125 48.792969 L 43.121094 48.792969 L 43.121094 8.613281 Z M 41.515625 8.613281 " fill-opacity="1" fill-rule="nonzero"/></g><g clip-path="url(#1e319ca3f4)"><path fill="#737373" d="M 36.699219 3.792969 L 9.40625 3.792969 L 9.40625 43.972656 L 36.699219 43.972656 Z M 22.25 8.613281 C 22.25 8.171875 22.609375 7.8125 23.050781 7.8125 L 26.261719 7.8125 C 26.707031 7.8125 27.066406 8.171875 27.066406 8.613281 L 27.066406 15.847656 C 27.066406 16.289062 26.707031 16.648438 26.261719 16.648438 L 23.050781 16.648438 C 22.609375 16.648438 22.25 16.289062 22.25 15.847656 Z M 16.628906 6.203125 C 16.628906 5.761719 16.988281 5.398438 17.433594 5.398438 L 20.644531 5.398438 C 21.085938 5.398438 21.445312 5.761719 21.445312 6.203125 L 21.445312 15.847656 C 21.445312 16.289062 21.085938 16.648438 20.644531 16.648438 L 17.433594 16.648438 C 16.988281 16.648438 16.628906 16.289062 16.628906 15.847656 Z M 20.644531 20.667969 C 20.644531 21.113281 20.285156 21.472656 19.839844 21.472656 L 15.023438 21.472656 C 14.582031 21.472656 14.222656 21.113281 14.222656 20.667969 C 14.222656 20.222656 14.582031 19.863281 15.023438 19.863281 L 19.839844 19.863281 C 20.285156 19.863281 20.644531 20.222656 20.644531 20.667969 Z M 11.011719 11.023438 C 11.011719 10.582031 11.371094 10.222656 11.8125 10.222656 L 15.023438 10.222656 C 15.46875 10.222656 15.828125 10.582031 15.828125 11.023438 L 15.828125 15.847656 C 15.828125 16.289062 15.46875 16.648438 15.023438 16.648438 L 11.8125 16.648438 C 11.371094 16.648438 11.011719 16.289062 11.011719 15.847656 Z M 11.8125 23.078125 L 19.839844 23.078125 C 20.285156 23.078125 20.644531 23.4375 20.644531 23.882812 C 20.644531 24.324219 20.285156 24.6875 19.839844 24.6875 L 11.8125 24.6875 C 11.371094 24.6875 11.011719 24.324219 11.011719 23.882812 C 11.011719 23.4375 11.371094 23.078125 11.8125 23.078125 Z M 11.8125 26.292969 L 19.839844 26.292969 C 20.285156 26.292969 20.644531 26.652344 20.644531 27.097656 C 20.644531 27.539062 20.285156 27.898438 19.839844 27.898438 L 11.8125 27.898438 C 11.371094 27.898438 11.011719 27.539062 11.011719 27.097656 C 11.011719 26.652344 11.371094 26.292969 11.8125 26.292969 Z M 11.8125 29.507812 L 17.433594 29.507812 C 17.875 29.507812 18.234375 29.867188 18.234375 30.3125 C 18.234375 30.753906 17.875 31.113281 17.433594 31.113281 L 11.8125 31.113281 C 11.371094 31.113281 11.011719 30.753906 11.011719 30.3125 C 11.011719 29.867188 11.371094 29.507812 11.8125 29.507812 Z M 23.050781 36.738281 C 23.050781 37.183594 22.691406 37.542969 22.25 37.542969 C 21.804688 37.542969 21.445312 37.183594 21.445312 36.738281 L 21.445312 36.269531 L 19.605469 38.109375 C 19.359375 38.355469 18.988281 38.417969 18.679688 38.261719 L 16.183594 37.015625 L 14.136719 41.117188 C 14 41.390625 13.722656 41.5625 13.417969 41.5625 C 13.113281 41.5625 12.835938 41.390625 12.699219 41.117188 L 11.09375 37.902344 C 10.894531 37.503906 11.058594 37.023438 11.453125 36.824219 C 11.851562 36.625 12.332031 36.785156 12.53125 37.183594 L 13.417969 38.960938 L 15.109375 35.578125 C 15.304688 35.179688 15.789062 35.019531 16.183594 35.21875 L 18.878906 36.566406 L 20.308594 35.132812 L 19.839844 35.132812 C 19.398438 35.132812 19.039062 34.773438 19.039062 34.328125 C 19.039062 33.886719 19.398438 33.523438 19.839844 33.523438 L 22.25 33.523438 C 22.691406 33.523438 23.050781 33.886719 23.050781 34.328125 Z M 34.289062 40.757812 L 25.460938 40.757812 C 25.015625 40.757812 24.65625 40.398438 24.65625 39.953125 C 24.65625 39.511719 25.015625 39.148438 25.460938 39.148438 L 34.289062 39.148438 C 34.734375 39.148438 35.09375 39.511719 35.09375 39.953125 C 35.09375 40.398438 34.734375 40.757812 34.289062 40.757812 Z M 34.289062 37.542969 L 25.460938 37.542969 C 25.015625 37.542969 24.65625 37.183594 24.65625 36.738281 C 24.65625 36.296875 25.015625 35.9375 25.460938 35.9375 L 34.289062 35.9375 C 34.734375 35.9375 35.09375 36.296875 35.09375 36.738281 C 35.09375 37.183594 34.734375 37.542969 34.289062 37.542969 Z M 34.289062 34.328125 L 28.671875 34.328125 C 28.226562 34.328125 27.867188 33.96875 27.867188 33.523438 C 27.867188 33.082031 28.226562 32.722656 28.671875 32.722656 L 34.289062 32.722656 C 34.734375 32.722656 35.09375 33.082031 35.09375 33.523438 C 35.09375 33.96875 34.734375 34.328125 34.289062 34.328125 Z M 28.671875 31.113281 C 25.128906 31.113281 22.25 28.230469 22.25 24.6875 C 22.25 21.140625 25.128906 18.257812 28.671875 18.257812 C 32.210938 18.257812 35.09375 21.140625 35.09375 24.6875 C 35.09375 28.230469 32.210938 31.113281 28.671875 31.113281 Z M 34.289062 16.648438 L 29.472656 16.648438 C 29.03125 16.648438 28.671875 16.289062 28.671875 15.847656 C 28.671875 15.402344 29.03125 15.042969 29.472656 15.042969 L 34.289062 15.042969 C 34.734375 15.042969 35.09375 15.402344 35.09375 15.847656 C 35.09375 16.289062 34.734375 16.648438 34.289062 16.648438 Z M 34.289062 13.4375 L 29.472656 13.4375 C 29.03125 13.4375 28.671875 13.074219 28.671875 12.632812 C 28.671875 12.1875 29.03125 11.828125 29.472656 11.828125 L 34.289062 11.828125 C 34.734375 11.828125 35.09375 12.1875 35.09375 12.632812 C 35.09375 13.074219 34.734375 13.4375 34.289062 13.4375 Z M 34.289062 10.222656 L 29.472656 10.222656 C 29.03125 10.222656 28.671875 9.863281 28.671875 9.417969 C 28.671875 8.972656 29.03125 8.613281 29.472656 8.613281 L 34.289062 8.613281 C 34.734375 8.613281 35.09375 8.972656 35.09375 9.417969 C 35.09375 9.863281 34.734375 10.222656 34.289062 10.222656 Z M 34.289062 7.007812 L 31.882812 7.007812 C 31.4375 7.007812 31.078125 6.648438 31.078125 6.203125 C 31.078125 5.761719 31.4375 5.398438 31.882812 5.398438 L 34.289062 5.398438 C 34.734375 5.398438 35.09375 5.761719 35.09375 6.203125 C 35.09375 6.648438 34.734375 7.007812 34.289062 7.007812 Z M 34.289062 7.007812 " fill-opacity="1" fill-rule="nonzero"/></g></svg>