<svg xmlns="http://www.w3.org/2000/svg" xmlns:xlink="http://www.w3.org/1999/xlink" width="70" zoomAndPan="magnify" viewBox="0 0 52.5 52.499999" height="70" preserveAspectRatio="xMidYMid meet" version="1.0"><defs><clipPath id="35c6499809"><path d="M 3.746094 7.394531 L 48.746094 7.394531 L 48.746094 40.394531 L 3.746094 40.394531 Z M 3.746094 7.394531 " clip-rule="nonzero"/></clipPath></defs><g clip-path="url(#35c6499809)"><path fill="#737373" d="M 26.246094 10.738281 C 25.898438 10.738281 25.601562 10.738281 25.253906 10.789062 L 25.253906 8.460938 C 25.253906 7.902344 25.699219 7.449219 26.246094 7.449219 C 26.796875 7.449219 27.242188 7.902344 27.242188 8.460938 L 27.242188 10.789062 C 26.894531 10.738281 26.597656 10.738281 26.246094 10.738281 Z M 26.246094 40.34375 C 27.34375 40.34375 28.289062 39.582031 28.585938 38.570312 L 23.859375 38.570312 C 24.207031 39.582031 25.152344 40.34375 26.246094 40.34375 Z M 35.359375 32.699219 C 34.910156 32.246094 34.710938 31.6875 34.710938 31.03125 L 34.710938 21.363281 C 34.710938 16.65625 30.925781 12.761719 26.246094 12.761719 C 21.570312 12.761719 17.785156 16.609375 17.785156 21.363281 L 17.785156 31.082031 C 17.785156 31.6875 17.535156 32.296875 17.136719 32.75 L 14.648438 35.28125 C 14.601562 35.332031 14.550781 35.433594 14.550781 35.484375 L 14.550781 36.242188 C 14.550781 36.394531 14.699219 36.546875 14.847656 36.546875 L 37.648438 36.546875 C 37.796875 36.546875 37.945312 36.394531 37.945312 36.242188 L 37.945312 35.484375 C 37.945312 35.382812 37.894531 35.332031 37.847656 35.28125 Z M 12.609375 18.074219 C 12.210938 17.671875 11.613281 17.671875 11.214844 18.074219 C 9.621094 19.695312 8.726562 21.871094 8.726562 24.148438 C 8.726562 26.425781 9.621094 28.601562 11.214844 30.222656 C 11.414062 30.421875 11.664062 30.523438 11.910156 30.523438 C 12.160156 30.523438 12.410156 30.421875 12.609375 30.222656 C 13.007812 29.816406 13.007812 29.210938 12.609375 28.804688 C 11.363281 27.539062 10.71875 25.917969 10.71875 24.148438 C 10.71875 22.375 11.414062 20.757812 12.609375 19.492188 C 13.007812 19.085938 13.007812 18.480469 12.609375 18.074219 Z M 5.738281 24.148438 C 5.738281 21.0625 6.933594 18.125 9.074219 15.898438 C 9.472656 15.496094 9.472656 14.886719 9.074219 14.480469 C 8.675781 14.078125 8.078125 14.078125 7.679688 14.480469 C 5.140625 17.0625 3.746094 20.503906 3.746094 24.148438 C 3.746094 27.792969 5.140625 31.234375 7.679688 33.8125 C 7.878906 34.015625 8.128906 34.117188 8.378906 34.117188 C 8.625 34.117188 8.875 34.015625 9.074219 33.8125 C 9.472656 33.410156 9.472656 32.800781 9.074219 32.398438 C 6.933594 30.171875 5.738281 27.234375 5.738281 24.148438 Z M 41.28125 18.074219 C 40.882812 17.671875 40.285156 17.671875 39.886719 18.074219 C 39.488281 18.480469 39.488281 19.085938 39.886719 19.492188 C 42.425781 22.074219 42.425781 26.222656 39.886719 28.804688 C 39.488281 29.210938 39.488281 29.816406 39.886719 30.222656 C 40.085938 30.421875 40.335938 30.523438 40.585938 30.523438 C 40.832031 30.523438 41.082031 30.421875 41.28125 30.222656 C 44.566406 26.882812 44.566406 21.414062 41.28125 18.074219 Z M 44.816406 14.480469 C 44.417969 14.078125 43.820312 14.078125 43.421875 14.480469 C 43.023438 14.886719 43.023438 15.496094 43.421875 15.898438 C 45.5625 18.074219 46.757812 21.011719 46.757812 24.148438 C 46.757812 27.285156 45.5625 30.171875 43.421875 32.398438 C 43.023438 32.800781 43.023438 33.410156 43.421875 33.8125 C 43.621094 34.015625 43.871094 34.117188 44.117188 34.117188 C 44.367188 34.117188 44.617188 34.015625 44.816406 33.8125 C 47.355469 31.234375 48.746094 27.792969 48.746094 24.148438 C 48.746094 20.503906 47.355469 17.0625 44.816406 14.480469 Z M 44.816406 14.480469 " fill-opacity="1" fill-rule="nonzero"/></g></svg>