<svg xmlns="http://www.w3.org/2000/svg" xmlns:xlink="http://www.w3.org/1999/xlink" width="70" zoomAndPan="magnify" viewBox="0 0 52.5 52.499999" height="70" preserveAspectRatio="xMidYMid meet" version="1.0"><defs><g/><clipPath id="2e259d9a3b"><path d="M 3.746094 7.394531 L 48.746094 7.394531 L 48.746094 40.394531 L 3.746094 40.394531 Z M 3.746094 7.394531 " clip-rule="nonzero"/></clipPath></defs><g clip-path="url(#2e259d9a3b)"><path fill="#737373" d="M 26.246094 10.738281 C 25.898438 10.738281 25.601562 10.738281 25.253906 10.789062 L 25.253906 8.460938 C 25.253906 7.902344 25.699219 7.449219 26.246094 7.449219 C 26.796875 7.449219 27.242188 7.902344 27.242188 8.460938 L 27.242188 10.789062 C 26.894531 10.738281 26.597656 10.738281 26.246094 10.738281 Z M 26.246094 40.34375 C 27.34375 40.34375 28.289062 39.582031 28.585938 38.570312 L 23.859375 38.570312 C 24.207031 39.582031 25.152344 40.34375 26.246094 40.34375 Z M 35.359375 32.699219 C 34.910156 32.246094 34.710938 31.6875 34.710938 31.03125 L 34.710938 21.363281 C 34.710938 16.65625 30.925781 12.761719 26.246094 12.761719 C 21.570312 12.761719 17.785156 16.609375 17.785156 21.363281 L 17.785156 31.082031 C 17.785156 31.6875 17.535156 32.296875 17.136719 32.75 L 14.648438 35.28125 C 14.601562 35.332031 14.550781 35.433594 14.550781 35.484375 L 14.550781 36.242188 C 14.550781 36.394531 14.699219 36.546875 14.847656 36.546875 L 37.648438 36.546875 C 37.796875 36.546875 37.945312 36.394531 37.945312 36.242188 L 37.945312 35.484375 C 37.945312 35.382812 37.894531 35.332031 37.847656 35.28125 Z M 12.609375 18.074219 C 12.210938 17.671875 11.613281 17.671875 11.214844 18.074219 C 9.621094 19.695312 8.726562 21.871094 8.726562 24.148438 C 8.726562 26.425781 9.621094 28.601562 11.214844 30.222656 C 11.414062 30.421875 11.664062 30.523438 11.910156 30.523438 C 12.160156 30.523438 12.410156 30.421875 12.609375 30.222656 C 13.007812 29.816406 13.007812 29.210938 12.609375 28.804688 C 11.363281 27.539062 10.71875 25.917969 10.71875 24.148438 C 10.71875 22.375 11.414062 20.757812 12.609375 19.492188 C 13.007812 19.085938 13.007812 18.480469 12.609375 18.074219 Z M 5.738281 24.148438 C 5.738281 21.0625 6.933594 18.125 9.074219 15.898438 C 9.472656 15.496094 9.472656 14.886719 9.074219 14.480469 C 8.675781 14.078125 8.078125 14.078125 7.679688 14.480469 C 5.140625 17.0625 3.746094 20.503906 3.746094 24.148438 C 3.746094 27.792969 5.140625 31.234375 7.679688 33.8125 C 7.878906 34.015625 8.128906 34.117188 8.378906 34.117188 C 8.625 34.117188 8.875 34.015625 9.074219 33.8125 C 9.472656 33.410156 9.472656 32.800781 9.074219 32.398438 C 6.933594 30.171875 5.738281 27.234375 5.738281 24.148438 Z M 41.28125 18.074219 C 40.882812 17.671875 40.285156 17.671875 39.886719 18.074219 C 39.488281 18.480469 39.488281 19.085938 39.886719 19.492188 C 42.425781 22.074219 42.425781 26.222656 39.886719 28.804688 C 39.488281 29.210938 39.488281 29.816406 39.886719 30.222656 C 40.085938 30.421875 40.335938 30.523438 40.585938 30.523438 C 40.832031 30.523438 41.082031 30.421875 41.28125 30.222656 C 44.566406 26.882812 44.566406 21.414062 41.28125 18.074219 Z M 44.816406 14.480469 C 44.417969 14.078125 43.820312 14.078125 43.421875 14.480469 C 43.023438 14.886719 43.023438 15.496094 43.421875 15.898438 C 45.5625 18.074219 46.757812 21.011719 46.757812 24.148438 C 46.757812 27.285156 45.5625 30.171875 43.421875 32.398438 C 43.023438 32.800781 43.023438 33.410156 43.421875 33.8125 C 43.621094 34.015625 43.871094 34.117188 44.117188 34.117188 C 44.367188 34.117188 44.617188 34.015625 44.816406 33.8125 C 47.355469 31.234375 48.746094 27.792969 48.746094 24.148438 C 48.746094 20.503906 47.355469 17.0625 44.816406 14.480469 Z M 44.816406 14.480469 " fill-opacity="1" fill-rule="nonzero"/></g><g fill="#737373" fill-opacity="1"><g transform="translate(13.632498, 46.149989)"><g><path d="M 0.921875 0 L 0.375 0 L 0.375 -2.859375 L 1.015625 -2.859375 L 2.171875 -1.015625 L 2.21875 -1.03125 L 2.21875 -2.859375 L 2.765625 -2.859375 L 2.765625 0 L 2.1875 0 L 0.96875 -1.96875 L 0.921875 -1.953125 Z M 0.921875 0 "/></g></g></g><g fill="#737373" fill-opacity="1"><g transform="translate(16.760305, 46.149989)"><g><path d="M 1.25 0.046875 C 1.039062 0.046875 0.851562 0.00390625 0.6875 -0.078125 C 0.53125 -0.171875 0.40625 -0.300781 0.3125 -0.46875 C 0.226562 -0.632812 0.1875 -0.835938 0.1875 -1.078125 C 0.1875 -1.316406 0.226562 -1.519531 0.3125 -1.6875 C 0.40625 -1.851562 0.53125 -1.976562 0.6875 -2.0625 C 0.851562 -2.15625 1.039062 -2.203125 1.25 -2.203125 C 1.457031 -2.203125 1.640625 -2.15625 1.796875 -2.0625 C 1.960938 -1.976562 2.085938 -1.851562 2.171875 -1.6875 C 2.265625 -1.519531 2.3125 -1.316406 2.3125 -1.078125 C 2.3125 -0.835938 2.265625 -0.632812 2.171875 -0.46875 C 2.085938 -0.300781 1.960938 -0.171875 1.796875 -0.078125 C 1.640625 0.00390625 1.457031 0.046875 1.25 0.046875 Z M 1.25 -0.421875 C 1.582031 -0.421875 1.75 -0.640625 1.75 -1.078125 C 1.75 -1.304688 1.707031 -1.472656 1.625 -1.578125 C 1.539062 -1.679688 1.414062 -1.734375 1.25 -1.734375 C 0.914062 -1.734375 0.75 -1.515625 0.75 -1.078125 C 0.75 -0.640625 0.914062 -0.421875 1.25 -0.421875 Z M 1.25 -0.421875 "/></g></g></g><g fill="#737373" fill-opacity="1"><g transform="translate(19.261766, 46.149989)"><g><path d="M 1.484375 -0.515625 L 1.625 -0.109375 C 1.570312 -0.0664062 1.5 -0.03125 1.40625 0 C 1.320312 0.03125 1.222656 0.046875 1.109375 0.046875 C 0.867188 0.046875 0.6875 -0.015625 0.5625 -0.140625 C 0.445312 -0.273438 0.390625 -0.460938 0.390625 -0.703125 L 0.390625 -1.734375 L 0.0625 -1.734375 L 0.0625 -2.15625 L 0.390625 -2.15625 L 0.390625 -2.578125 L 0.9375 -2.671875 L 0.9375 -2.15625 L 1.546875 -2.15625 L 1.546875 -1.734375 L 0.9375 -1.734375 L 0.9375 -0.75 C 0.9375 -0.632812 0.957031 -0.550781 1 -0.5 C 1.039062 -0.457031 1.101562 -0.4375 1.1875 -0.4375 C 1.289062 -0.4375 1.378906 -0.460938 1.453125 -0.515625 Z M 1.484375 -0.515625 "/></g></g></g><g fill="#737373" fill-opacity="1"><g transform="translate(20.933965, 46.149989)"><g><path d="M 0.578125 -2.40625 C 0.484375 -2.40625 0.40625 -2.4375 0.34375 -2.5 C 0.28125 -2.5625 0.25 -2.640625 0.25 -2.734375 C 0.25 -2.828125 0.28125 -2.898438 0.34375 -2.953125 C 0.40625 -3.015625 0.484375 -3.046875 0.578125 -3.046875 C 0.640625 -3.046875 0.695312 -3.03125 0.75 -3 C 0.800781 -2.976562 0.84375 -2.941406 0.875 -2.890625 C 0.90625 -2.847656 0.921875 -2.796875 0.921875 -2.734375 C 0.921875 -2.671875 0.90625 -2.613281 0.875 -2.5625 C 0.84375 -2.519531 0.800781 -2.484375 0.75 -2.453125 C 0.695312 -2.421875 0.640625 -2.40625 0.578125 -2.40625 Z M 0.3125 0 L 0.3125 -2.15625 L 0.859375 -2.15625 L 0.859375 0 Z M 0.3125 0 "/></g></g></g><g fill="#737373" fill-opacity="1"><g transform="translate(22.092988, 46.149989)"><g><path d="M 0.375 0 L 0.375 -1.734375 L 0.078125 -1.734375 L 0.078125 -2.15625 L 0.375 -2.15625 C 0.351562 -2.25 0.34375 -2.332031 0.34375 -2.40625 C 0.34375 -2.550781 0.375 -2.671875 0.4375 -2.765625 C 0.5 -2.859375 0.585938 -2.929688 0.703125 -2.984375 C 0.828125 -3.035156 0.96875 -3.0625 1.125 -3.0625 C 1.363281 -3.0625 1.539062 -3.019531 1.65625 -2.9375 L 1.53125 -2.546875 L 1.484375 -2.53125 C 1.410156 -2.59375 1.3125 -2.625 1.1875 -2.625 C 1.082031 -2.625 1.003906 -2.597656 0.953125 -2.546875 C 0.910156 -2.492188 0.890625 -2.429688 0.890625 -2.359375 C 0.890625 -2.316406 0.890625 -2.28125 0.890625 -2.25 C 0.898438 -2.226562 0.910156 -2.195312 0.921875 -2.15625 L 1.53125 -2.15625 L 1.53125 -1.734375 L 0.921875 -1.734375 L 0.921875 0 Z M 0.375 0 "/></g></g></g><g fill="#737373" fill-opacity="1"><g transform="translate(23.646157, 46.149989)"><g><path d="M 0.578125 -2.40625 C 0.484375 -2.40625 0.40625 -2.4375 0.34375 -2.5 C 0.28125 -2.5625 0.25 -2.640625 0.25 -2.734375 C 0.25 -2.828125 0.28125 -2.898438 0.34375 -2.953125 C 0.40625 -3.015625 0.484375 -3.046875 0.578125 -3.046875 C 0.640625 -3.046875 0.695312 -3.03125 0.75 -3 C 0.800781 -2.976562 0.84375 -2.941406 0.875 -2.890625 C 0.90625 -2.847656 0.921875 -2.796875 0.921875 -2.734375 C 0.921875 -2.671875 0.90625 -2.613281 0.875 -2.5625 C 0.84375 -2.519531 0.800781 -2.484375 0.75 -2.453125 C 0.695312 -2.421875 0.640625 -2.40625 0.578125 -2.40625 Z M 0.3125 0 L 0.3125 -2.15625 L 0.859375 -2.15625 L 0.859375 0 Z M 0.3125 0 "/></g></g></g><g fill="#737373" fill-opacity="1"><g transform="translate(24.805181, 46.149989)"><g><path d="M 1.25 0.046875 C 1.039062 0.046875 0.859375 0.00390625 0.703125 -0.078125 C 0.546875 -0.171875 0.421875 -0.300781 0.328125 -0.46875 C 0.234375 -0.632812 0.1875 -0.835938 0.1875 -1.078125 C 0.1875 -1.316406 0.234375 -1.519531 0.328125 -1.6875 C 0.421875 -1.851562 0.546875 -1.976562 0.703125 -2.0625 C 0.859375 -2.15625 1.039062 -2.203125 1.25 -2.203125 C 1.695312 -2.203125 1.988281 -2.035156 2.125 -1.703125 L 1.75 -1.4375 L 1.703125 -1.4375 C 1.660156 -1.539062 1.601562 -1.613281 1.53125 -1.65625 C 1.457031 -1.707031 1.363281 -1.734375 1.25 -1.734375 C 1.09375 -1.734375 0.96875 -1.675781 0.875 -1.5625 C 0.789062 -1.457031 0.75 -1.296875 0.75 -1.078125 C 0.75 -0.859375 0.789062 -0.691406 0.875 -0.578125 C 0.96875 -0.472656 1.09375 -0.421875 1.25 -0.421875 C 1.375 -0.421875 1.472656 -0.453125 1.546875 -0.515625 C 1.628906 -0.578125 1.691406 -0.664062 1.734375 -0.78125 L 1.765625 -0.796875 L 2.15625 -0.578125 C 2.101562 -0.398438 2 -0.25 1.84375 -0.125 C 1.695312 -0.0078125 1.5 0.046875 1.25 0.046875 Z M 1.25 0.046875 "/></g></g></g><g fill="#737373" fill-opacity="1"><g transform="translate(27.023721, 46.149989)"><g><path d="M 0.84375 0.046875 C 0.707031 0.046875 0.585938 0.0195312 0.484375 -0.03125 C 0.378906 -0.0820312 0.300781 -0.15625 0.25 -0.25 C 0.195312 -0.351562 0.171875 -0.472656 0.171875 -0.609375 C 0.171875 -0.742188 0.195312 -0.851562 0.25 -0.9375 C 0.300781 -1.019531 0.382812 -1.085938 0.5 -1.140625 C 0.613281 -1.203125 0.765625 -1.25 0.953125 -1.28125 C 1.078125 -1.300781 1.171875 -1.320312 1.234375 -1.34375 C 1.304688 -1.363281 1.351562 -1.390625 1.375 -1.421875 C 1.40625 -1.453125 1.421875 -1.492188 1.421875 -1.546875 C 1.421875 -1.617188 1.394531 -1.671875 1.34375 -1.703125 C 1.289062 -1.742188 1.210938 -1.765625 1.109375 -1.765625 C 0.984375 -1.765625 0.863281 -1.734375 0.75 -1.671875 C 0.644531 -1.617188 0.554688 -1.550781 0.484375 -1.46875 L 0.4375 -1.46875 L 0.21875 -1.8125 C 0.320312 -1.9375 0.453125 -2.03125 0.609375 -2.09375 C 0.765625 -2.164062 0.9375 -2.203125 1.125 -2.203125 C 1.414062 -2.203125 1.625 -2.140625 1.75 -2.015625 C 1.875 -1.890625 1.9375 -1.71875 1.9375 -1.5 L 1.9375 -0.5625 C 1.9375 -0.46875 1.976562 -0.421875 2.0625 -0.421875 C 2.09375 -0.421875 2.125 -0.425781 2.15625 -0.4375 L 2.1875 -0.421875 L 2.234375 -0.046875 C 2.203125 -0.0234375 2.160156 -0.0078125 2.109375 0 C 2.054688 0.0078125 1.992188 0.015625 1.921875 0.015625 C 1.796875 0.015625 1.695312 -0.0078125 1.625 -0.0625 C 1.550781 -0.113281 1.5 -0.191406 1.46875 -0.296875 L 1.4375 -0.296875 C 1.320312 -0.0664062 1.125 0.046875 0.84375 0.046875 Z M 1.015625 -0.359375 C 1.140625 -0.359375 1.238281 -0.398438 1.3125 -0.484375 C 1.382812 -0.566406 1.421875 -0.6875 1.421875 -0.84375 L 1.421875 -1.0625 L 1.390625 -1.0625 C 1.359375 -1.039062 1.316406 -1.019531 1.265625 -1 C 1.210938 -0.976562 1.132812 -0.960938 1.03125 -0.953125 C 0.914062 -0.929688 0.832031 -0.894531 0.78125 -0.84375 C 0.726562 -0.800781 0.703125 -0.734375 0.703125 -0.640625 C 0.703125 -0.554688 0.726562 -0.488281 0.78125 -0.4375 C 0.832031 -0.382812 0.910156 -0.359375 1.015625 -0.359375 Z M 1.015625 -0.359375 "/></g></g></g><g fill="#737373" fill-opacity="1"><g transform="translate(29.292992, 46.149989)"><g><path d="M 1.484375 -0.515625 L 1.625 -0.109375 C 1.570312 -0.0664062 1.5 -0.03125 1.40625 0 C 1.320312 0.03125 1.222656 0.046875 1.109375 0.046875 C 0.867188 0.046875 0.6875 -0.015625 0.5625 -0.140625 C 0.445312 -0.273438 0.390625 -0.460938 0.390625 -0.703125 L 0.390625 -1.734375 L 0.0625 -1.734375 L 0.0625 -2.15625 L 0.390625 -2.15625 L 0.390625 -2.578125 L 0.9375 -2.671875 L 0.9375 -2.15625 L 1.546875 -2.15625 L 1.546875 -1.734375 L 0.9375 -1.734375 L 0.9375 -0.75 C 0.9375 -0.632812 0.957031 -0.550781 1 -0.5 C 1.039062 -0.457031 1.101562 -0.4375 1.1875 -0.4375 C 1.289062 -0.4375 1.378906 -0.460938 1.453125 -0.515625 Z M 1.484375 -0.515625 "/></g></g></g><g fill="#737373" fill-opacity="1"><g transform="translate(30.965191, 46.149989)"><g><path d="M 0.578125 -2.40625 C 0.484375 -2.40625 0.40625 -2.4375 0.34375 -2.5 C 0.28125 -2.5625 0.25 -2.640625 0.25 -2.734375 C 0.25 -2.828125 0.28125 -2.898438 0.34375 -2.953125 C 0.40625 -3.015625 0.484375 -3.046875 0.578125 -3.046875 C 0.640625 -3.046875 0.695312 -3.03125 0.75 -3 C 0.800781 -2.976562 0.84375 -2.941406 0.875 -2.890625 C 0.90625 -2.847656 0.921875 -2.796875 0.921875 -2.734375 C 0.921875 -2.671875 0.90625 -2.613281 0.875 -2.5625 C 0.84375 -2.519531 0.800781 -2.484375 0.75 -2.453125 C 0.695312 -2.421875 0.640625 -2.40625 0.578125 -2.40625 Z M 0.3125 0 L 0.3125 -2.15625 L 0.859375 -2.15625 L 0.859375 0 Z M 0.3125 0 "/></g></g></g><g fill="#737373" fill-opacity="1"><g transform="translate(32.124215, 46.149989)"><g><path d="M 1.25 0.046875 C 1.039062 0.046875 0.851562 0.00390625 0.6875 -0.078125 C 0.53125 -0.171875 0.40625 -0.300781 0.3125 -0.46875 C 0.226562 -0.632812 0.1875 -0.835938 0.1875 -1.078125 C 0.1875 -1.316406 0.226562 -1.519531 0.3125 -1.6875 C 0.40625 -1.851562 0.53125 -1.976562 0.6875 -2.0625 C 0.851562 -2.15625 1.039062 -2.203125 1.25 -2.203125 C 1.457031 -2.203125 1.640625 -2.15625 1.796875 -2.0625 C 1.960938 -1.976562 2.085938 -1.851562 2.171875 -1.6875 C 2.265625 -1.519531 2.3125 -1.316406 2.3125 -1.078125 C 2.3125 -0.835938 2.265625 -0.632812 2.171875 -0.46875 C 2.085938 -0.300781 1.960938 -0.171875 1.796875 -0.078125 C 1.640625 0.00390625 1.457031 0.046875 1.25 0.046875 Z M 1.25 -0.421875 C 1.582031 -0.421875 1.75 -0.640625 1.75 -1.078125 C 1.75 -1.304688 1.707031 -1.472656 1.625 -1.578125 C 1.539062 -1.679688 1.414062 -1.734375 1.25 -1.734375 C 0.914062 -1.734375 0.75 -1.515625 0.75 -1.078125 C 0.75 -0.640625 0.914062 -0.421875 1.25 -0.421875 Z M 1.25 -0.421875 "/></g></g></g><g fill="#737373" fill-opacity="1"><g transform="translate(34.625675, 46.149989)"><g><path d="M 0.3125 0 L 0.3125 -2.15625 L 0.828125 -2.15625 L 0.828125 -1.84375 L 0.875 -1.828125 C 1.007812 -2.078125 1.226562 -2.203125 1.53125 -2.203125 C 1.769531 -2.203125 1.945312 -2.132812 2.0625 -2 C 2.1875 -1.863281 2.25 -1.664062 2.25 -1.40625 L 2.25 0 L 1.703125 0 L 1.703125 -1.328125 C 1.703125 -1.472656 1.671875 -1.578125 1.609375 -1.640625 C 1.554688 -1.703125 1.46875 -1.734375 1.34375 -1.734375 C 1.1875 -1.734375 1.066406 -1.679688 0.984375 -1.578125 C 0.898438 -1.484375 0.859375 -1.328125 0.859375 -1.109375 L 0.859375 0 Z M 0.3125 0 "/></g></g></g><g fill="#737373" fill-opacity="1"><g transform="translate(37.146648, 46.149989)"><g><path d="M 1.015625 0.046875 C 0.859375 0.046875 0.71875 0.03125 0.59375 0 C 0.476562 -0.0390625 0.375 -0.09375 0.28125 -0.15625 C 0.195312 -0.21875 0.132812 -0.285156 0.09375 -0.359375 L 0.40625 -0.6875 L 0.4375 -0.6875 C 0.507812 -0.59375 0.59375 -0.519531 0.6875 -0.46875 C 0.789062 -0.414062 0.898438 -0.390625 1.015625 -0.390625 C 1.117188 -0.390625 1.195312 -0.410156 1.25 -0.453125 C 1.300781 -0.492188 1.328125 -0.546875 1.328125 -0.609375 C 1.328125 -0.671875 1.304688 -0.71875 1.265625 -0.75 C 1.234375 -0.789062 1.175781 -0.820312 1.09375 -0.84375 L 0.796875 -0.90625 C 0.585938 -0.957031 0.429688 -1.035156 0.328125 -1.140625 C 0.234375 -1.242188 0.1875 -1.378906 0.1875 -1.546875 C 0.1875 -1.679688 0.21875 -1.796875 0.28125 -1.890625 C 0.351562 -1.992188 0.453125 -2.070312 0.578125 -2.125 C 0.703125 -2.175781 0.847656 -2.203125 1.015625 -2.203125 C 1.203125 -2.203125 1.359375 -2.171875 1.484375 -2.109375 C 1.617188 -2.054688 1.722656 -1.984375 1.796875 -1.890625 L 1.5 -1.578125 L 1.46875 -1.578125 C 1.40625 -1.640625 1.335938 -1.6875 1.265625 -1.71875 C 1.191406 -1.75 1.109375 -1.765625 1.015625 -1.765625 C 0.796875 -1.765625 0.6875 -1.703125 0.6875 -1.578125 C 0.6875 -1.515625 0.707031 -1.460938 0.75 -1.421875 C 0.789062 -1.390625 0.863281 -1.363281 0.96875 -1.34375 L 1.234375 -1.296875 C 1.453125 -1.242188 1.609375 -1.164062 1.703125 -1.0625 C 1.804688 -0.957031 1.859375 -0.816406 1.859375 -0.640625 C 1.859375 -0.503906 1.820312 -0.382812 1.75 -0.28125 C 1.6875 -0.175781 1.585938 -0.09375 1.453125 -0.03125 C 1.328125 0.0195312 1.179688 0.046875 1.015625 0.046875 Z M 1.015625 0.046875 "/></g></g></g></svg>