<svg xmlns="http://www.w3.org/2000/svg" xmlns:xlink="http://www.w3.org/1999/xlink" width="70" zoomAndPan="magnify" viewBox="0 0 52.5 52.499999" height="70" preserveAspectRatio="xMidYMid meet" version="1.0"><defs><clipPath id="72d7b7461d"><path d="M 11.324219 5.25 L 41.324219 5.25 L 41.324219 42 L 11.324219 42 Z M 11.324219 5.25 " clip-rule="nonzero"/></clipPath></defs><g clip-path="url(#72d7b7461d)"><path fill="#737373" d="M 40.679688 5.25 L 11.972656 5.25 C 11.597656 5.25 11.347656 5.503906 11.347656 5.882812 L 11.347656 41.304688 C 11.347656 41.558594 11.472656 41.746094 11.660156 41.875 C 11.847656 42 12.097656 42 12.285156 41.875 L 26.324219 33.777344 L 40.367188 41.808594 C 40.492188 41.9375 40.554688 41.9375 40.679688 41.9375 C 40.804688 41.9375 40.867188 41.9375 40.992188 41.875 C 41.179688 41.746094 41.304688 41.558594 41.304688 41.304688 L 41.304688 5.882812 C 41.304688 5.503906 41.054688 5.25 40.679688 5.25 Z M 40.679688 5.25 " fill-opacity="1" fill-rule="nonzero"/></g></svg>