<svg xmlns="http://www.w3.org/2000/svg" xmlns:xlink="http://www.w3.org/1999/xlink" width="70" zoomAndPan="magnify" viewBox="0 0 52.5 52.499999" height="70" preserveAspectRatio="xMidYMid meet" version="1.0"><defs><g/><clipPath id="2123a984ba"><path d="M 11.324219 5.25 L 41.324219 5.25 L 41.324219 42 L 11.324219 42 Z M 11.324219 5.25 " clip-rule="nonzero"/></clipPath></defs><g clip-path="url(#2123a984ba)"><path fill="#737373" d="M 40.679688 5.25 L 11.972656 5.25 C 11.597656 5.25 11.347656 5.503906 11.347656 5.882812 L 11.347656 41.304688 C 11.347656 41.558594 11.472656 41.746094 11.660156 41.875 C 11.847656 42 12.097656 42 12.285156 41.875 L 26.324219 33.777344 L 40.367188 41.808594 C 40.492188 41.9375 40.554688 41.9375 40.679688 41.9375 C 40.804688 41.9375 40.867188 41.9375 40.992188 41.875 C 41.179688 41.746094 41.304688 41.558594 41.304688 41.304688 L 41.304688 5.882812 C 41.304688 5.503906 41.054688 5.25 40.679688 5.25 Z M 40.679688 5.25 " fill-opacity="1" fill-rule="nonzero"/></g><g fill="#737373" fill-opacity="1"><g transform="translate(15.484059, 46.149999)"><g><path d="M 0.375 0 L 0.375 -2.859375 L 1.59375 -2.859375 C 1.769531 -2.859375 1.914062 -2.828125 2.03125 -2.765625 C 2.15625 -2.710938 2.25 -2.632812 2.3125 -2.53125 C 2.375 -2.4375 2.40625 -2.316406 2.40625 -2.171875 C 2.40625 -2.046875 2.375 -1.9375 2.3125 -1.84375 C 2.25 -1.75 2.160156 -1.671875 2.046875 -1.609375 L 2.046875 -1.5625 C 2.234375 -1.519531 2.375 -1.4375 2.46875 -1.3125 C 2.5625 -1.1875 2.609375 -1.035156 2.609375 -0.859375 C 2.609375 -0.585938 2.523438 -0.375 2.359375 -0.21875 C 2.203125 -0.0703125 1.960938 0 1.640625 0 Z M 1.46875 -1.71875 C 1.738281 -1.71875 1.875 -1.835938 1.875 -2.078125 C 1.875 -2.191406 1.835938 -2.28125 1.765625 -2.34375 C 1.703125 -2.40625 1.601562 -2.4375 1.46875 -2.4375 L 0.9375 -2.4375 L 0.9375 -1.71875 Z M 1.578125 -0.453125 C 1.890625 -0.453125 2.046875 -0.59375 2.046875 -0.875 C 2.046875 -1.15625 1.890625 -1.296875 1.578125 -1.296875 L 0.9375 -1.296875 L 0.9375 -0.453125 Z M 1.578125 -0.453125 "/></g></g></g><g fill="#737373" fill-opacity="1"><g transform="translate(18.2743, 46.149999)"><g><path d="M 1.25 0.046875 C 1.039062 0.046875 0.851562 0.00390625 0.6875 -0.078125 C 0.53125 -0.171875 0.40625 -0.300781 0.3125 -0.46875 C 0.226562 -0.632812 0.1875 -0.835938 0.1875 -1.078125 C 0.1875 -1.316406 0.226562 -1.519531 0.3125 -1.6875 C 0.40625 -1.851562 0.53125 -1.976562 0.6875 -2.0625 C 0.851562 -2.15625 1.039062 -2.203125 1.25 -2.203125 C 1.457031 -2.203125 1.640625 -2.15625 1.796875 -2.0625 C 1.960938 -1.976562 2.085938 -1.851562 2.171875 -1.6875 C 2.265625 -1.519531 2.3125 -1.316406 2.3125 -1.078125 C 2.3125 -0.835938 2.265625 -0.632812 2.171875 -0.46875 C 2.085938 -0.300781 1.960938 -0.171875 1.796875 -0.078125 C 1.640625 0.00390625 1.457031 0.046875 1.25 0.046875 Z M 1.25 -0.421875 C 1.582031 -0.421875 1.75 -0.640625 1.75 -1.078125 C 1.75 -1.304688 1.707031 -1.472656 1.625 -1.578125 C 1.539062 -1.679688 1.414062 -1.734375 1.25 -1.734375 C 0.914062 -1.734375 0.75 -1.515625 0.75 -1.078125 C 0.75 -0.640625 0.914062 -0.421875 1.25 -0.421875 Z M 1.25 -0.421875 "/></g></g></g><g fill="#737373" fill-opacity="1"><g transform="translate(20.775761, 46.149999)"><g><path d="M 1.25 0.046875 C 1.039062 0.046875 0.851562 0.00390625 0.6875 -0.078125 C 0.53125 -0.171875 0.40625 -0.300781 0.3125 -0.46875 C 0.226562 -0.632812 0.1875 -0.835938 0.1875 -1.078125 C 0.1875 -1.316406 0.226562 -1.519531 0.3125 -1.6875 C 0.40625 -1.851562 0.53125 -1.976562 0.6875 -2.0625 C 0.851562 -2.15625 1.039062 -2.203125 1.25 -2.203125 C 1.457031 -2.203125 1.640625 -2.15625 1.796875 -2.0625 C 1.960938 -1.976562 2.085938 -1.851562 2.171875 -1.6875 C 2.265625 -1.519531 2.3125 -1.316406 2.3125 -1.078125 C 2.3125 -0.835938 2.265625 -0.632812 2.171875 -0.46875 C 2.085938 -0.300781 1.960938 -0.171875 1.796875 -0.078125 C 1.640625 0.00390625 1.457031 0.046875 1.25 0.046875 Z M 1.25 -0.421875 C 1.582031 -0.421875 1.75 -0.640625 1.75 -1.078125 C 1.75 -1.304688 1.707031 -1.472656 1.625 -1.578125 C 1.539062 -1.679688 1.414062 -1.734375 1.25 -1.734375 C 0.914062 -1.734375 0.75 -1.515625 0.75 -1.078125 C 0.75 -0.640625 0.914062 -0.421875 1.25 -0.421875 Z M 1.25 -0.421875 "/></g></g></g><g fill="#737373" fill-opacity="1"><g transform="translate(23.277222, 46.149999)"><g><path d="M 0.3125 0 L 0.3125 -3.015625 L 0.859375 -3.015625 L 0.859375 -1.34375 L 0.90625 -1.34375 L 1.53125 -2.15625 L 2.078125 -2.15625 L 2.078125 -2.109375 L 1.34375 -1.171875 L 2.15625 -0.046875 L 2.15625 0 L 1.59375 0 L 0.90625 -0.90625 L 0.859375 -0.90625 L 0.859375 0 Z M 0.3125 0 "/></g></g></g><g fill="#737373" fill-opacity="1"><g transform="translate(25.437226, 46.149999)"><g><path d="M 0.3125 0 L 0.3125 -2.15625 L 0.828125 -2.15625 L 0.828125 -1.859375 L 0.875 -1.859375 C 0.945312 -1.972656 1.03125 -2.054688 1.125 -2.109375 C 1.21875 -2.171875 1.335938 -2.203125 1.484375 -2.203125 C 1.640625 -2.203125 1.765625 -2.164062 1.859375 -2.09375 C 1.960938 -2.03125 2.039062 -1.9375 2.09375 -1.8125 L 2.125 -1.8125 C 2.195312 -1.945312 2.285156 -2.046875 2.390625 -2.109375 C 2.492188 -2.171875 2.625 -2.203125 2.78125 -2.203125 C 3.226562 -2.203125 3.453125 -1.953125 3.453125 -1.453125 L 3.453125 0 L 2.90625 0 L 2.90625 -1.375 C 2.90625 -1.507812 2.878906 -1.601562 2.828125 -1.65625 C 2.785156 -1.707031 2.707031 -1.734375 2.59375 -1.734375 C 2.300781 -1.734375 2.15625 -1.535156 2.15625 -1.140625 L 2.15625 0 L 1.609375 0 L 1.609375 -1.375 C 1.609375 -1.507812 1.582031 -1.601562 1.53125 -1.65625 C 1.476562 -1.707031 1.398438 -1.734375 1.296875 -1.734375 C 1.160156 -1.734375 1.050781 -1.6875 0.96875 -1.59375 C 0.894531 -1.5 0.859375 -1.351562 0.859375 -1.15625 L 0.859375 0 Z M 0.3125 0 "/></g></g></g><g fill="#737373" fill-opacity="1"><g transform="translate(29.160148, 46.149999)"><g><path d="M 0.84375 0.046875 C 0.707031 0.046875 0.585938 0.0195312 0.484375 -0.03125 C 0.378906 -0.0820312 0.300781 -0.15625 0.25 -0.25 C 0.195312 -0.351562 0.171875 -0.472656 0.171875 -0.609375 C 0.171875 -0.742188 0.195312 -0.851562 0.25 -0.9375 C 0.300781 -1.019531 0.382812 -1.085938 0.5 -1.140625 C 0.613281 -1.203125 0.765625 -1.25 0.953125 -1.28125 C 1.078125 -1.300781 1.171875 -1.320312 1.234375 -1.34375 C 1.304688 -1.363281 1.351562 -1.390625 1.375 -1.421875 C 1.40625 -1.453125 1.421875 -1.492188 1.421875 -1.546875 C 1.421875 -1.617188 1.394531 -1.671875 1.34375 -1.703125 C 1.289062 -1.742188 1.210938 -1.765625 1.109375 -1.765625 C 0.984375 -1.765625 0.863281 -1.734375 0.75 -1.671875 C 0.644531 -1.617188 0.554688 -1.550781 0.484375 -1.46875 L 0.4375 -1.46875 L 0.21875 -1.8125 C 0.320312 -1.9375 0.453125 -2.03125 0.609375 -2.09375 C 0.765625 -2.164062 0.9375 -2.203125 1.125 -2.203125 C 1.414062 -2.203125 1.625 -2.140625 1.75 -2.015625 C 1.875 -1.890625 1.9375 -1.71875 1.9375 -1.5 L 1.9375 -0.5625 C 1.9375 -0.46875 1.976562 -0.421875 2.0625 -0.421875 C 2.09375 -0.421875 2.125 -0.425781 2.15625 -0.4375 L 2.1875 -0.421875 L 2.234375 -0.046875 C 2.203125 -0.0234375 2.160156 -0.0078125 2.109375 0 C 2.054688 0.0078125 1.992188 0.015625 1.921875 0.015625 C 1.796875 0.015625 1.695312 -0.0078125 1.625 -0.0625 C 1.550781 -0.113281 1.5 -0.191406 1.46875 -0.296875 L 1.4375 -0.296875 C 1.320312 -0.0664062 1.125 0.046875 0.84375 0.046875 Z M 1.015625 -0.359375 C 1.140625 -0.359375 1.238281 -0.398438 1.3125 -0.484375 C 1.382812 -0.566406 1.421875 -0.6875 1.421875 -0.84375 L 1.421875 -1.0625 L 1.390625 -1.0625 C 1.359375 -1.039062 1.316406 -1.019531 1.265625 -1 C 1.210938 -0.976562 1.132812 -0.960938 1.03125 -0.953125 C 0.914062 -0.929688 0.832031 -0.894531 0.78125 -0.84375 C 0.726562 -0.800781 0.703125 -0.734375 0.703125 -0.640625 C 0.703125 -0.554688 0.726562 -0.488281 0.78125 -0.4375 C 0.832031 -0.382812 0.910156 -0.359375 1.015625 -0.359375 Z M 1.015625 -0.359375 "/></g></g></g><g fill="#737373" fill-opacity="1"><g transform="translate(31.42942, 46.149999)"><g><path d="M 0.3125 0 L 0.3125 -2.15625 L 0.84375 -2.15625 L 0.84375 -1.828125 L 0.875 -1.828125 C 0.925781 -1.941406 0.992188 -2.023438 1.078125 -2.078125 C 1.160156 -2.140625 1.265625 -2.171875 1.390625 -2.171875 C 1.515625 -2.171875 1.609375 -2.148438 1.671875 -2.109375 L 1.578125 -1.640625 L 1.53125 -1.640625 C 1.5 -1.648438 1.46875 -1.65625 1.4375 -1.65625 C 1.40625 -1.664062 1.363281 -1.671875 1.3125 -1.671875 C 1.164062 -1.671875 1.050781 -1.617188 0.96875 -1.515625 C 0.894531 -1.410156 0.859375 -1.242188 0.859375 -1.015625 L 0.859375 0 Z M 0.3125 0 "/></g></g></g><g fill="#737373" fill-opacity="1"><g transform="translate(33.117229, 46.149999)"><g><path d="M 0.3125 0 L 0.3125 -3.015625 L 0.859375 -3.015625 L 0.859375 -1.34375 L 0.90625 -1.34375 L 1.53125 -2.15625 L 2.078125 -2.15625 L 2.078125 -2.109375 L 1.34375 -1.171875 L 2.15625 -0.046875 L 2.15625 0 L 1.59375 0 L 0.90625 -0.90625 L 0.859375 -0.90625 L 0.859375 0 Z M 0.3125 0 "/></g></g></g><g fill="#737373" fill-opacity="1"><g transform="translate(35.277232, 46.149999)"><g><path d="M 1.015625 0.046875 C 0.859375 0.046875 0.71875 0.03125 0.59375 0 C 0.476562 -0.0390625 0.375 -0.09375 0.28125 -0.15625 C 0.195312 -0.21875 0.132812 -0.285156 0.09375 -0.359375 L 0.40625 -0.6875 L 0.4375 -0.6875 C 0.507812 -0.59375 0.59375 -0.519531 0.6875 -0.46875 C 0.789062 -0.414062 0.898438 -0.390625 1.015625 -0.390625 C 1.117188 -0.390625 1.195312 -0.410156 1.25 -0.453125 C 1.300781 -0.492188 1.328125 -0.546875 1.328125 -0.609375 C 1.328125 -0.671875 1.304688 -0.71875 1.265625 -0.75 C 1.234375 -0.789062 1.175781 -0.820312 1.09375 -0.84375 L 0.796875 -0.90625 C 0.585938 -0.957031 0.429688 -1.035156 0.328125 -1.140625 C 0.234375 -1.242188 0.1875 -1.378906 0.1875 -1.546875 C 0.1875 -1.679688 0.21875 -1.796875 0.28125 -1.890625 C 0.351562 -1.992188 0.453125 -2.070312 0.578125 -2.125 C 0.703125 -2.175781 0.847656 -2.203125 1.015625 -2.203125 C 1.203125 -2.203125 1.359375 -2.171875 1.484375 -2.109375 C 1.617188 -2.054688 1.722656 -1.984375 1.796875 -1.890625 L 1.5 -1.578125 L 1.46875 -1.578125 C 1.40625 -1.640625 1.335938 -1.6875 1.265625 -1.71875 C 1.191406 -1.75 1.109375 -1.765625 1.015625 -1.765625 C 0.796875 -1.765625 0.6875 -1.703125 0.6875 -1.578125 C 0.6875 -1.515625 0.707031 -1.460938 0.75 -1.421875 C 0.789062 -1.390625 0.863281 -1.363281 0.96875 -1.34375 L 1.234375 -1.296875 C 1.453125 -1.242188 1.609375 -1.164062 1.703125 -1.0625 C 1.804688 -0.957031 1.859375 -0.816406 1.859375 -0.640625 C 1.859375 -0.503906 1.820312 -0.382812 1.75 -0.28125 C 1.6875 -0.175781 1.585938 -0.09375 1.453125 -0.03125 C 1.328125 0.0195312 1.179688 0.046875 1.015625 0.046875 Z M 1.015625 0.046875 "/></g></g></g></svg>