<svg xmlns="http://www.w3.org/2000/svg" xmlns:xlink="http://www.w3.org/1999/xlink" width="70" zoomAndPan="magnify" viewBox="0 0 52.5 52.499999" height="70" preserveAspectRatio="xMidYMid meet" version="1.0"><defs><clipPath id="431a428cce"><path d="M 5.683594 6.117188 L 46.933594 6.117188 L 46.933594 47.367188 L 5.683594 47.367188 Z M 5.683594 6.117188 " clip-rule="nonzero"/></clipPath></defs><g clip-path="url(#431a428cce)"><path fill="#737373" d="M 26.308594 6.117188 C 25.632812 6.117188 24.957031 6.148438 24.285156 6.214844 C 23.613281 6.28125 22.945312 6.382812 22.285156 6.511719 C 21.621094 6.644531 20.96875 6.808594 20.320312 7.003906 C 19.675781 7.199219 19.039062 7.429688 18.414062 7.6875 C 17.792969 7.945312 17.179688 8.234375 16.585938 8.550781 C 15.988281 8.871094 15.410156 9.21875 14.851562 9.59375 C 14.289062 9.96875 13.746094 10.371094 13.222656 10.796875 C 12.703125 11.226562 12.203125 11.679688 11.722656 12.15625 C 11.246094 12.636719 10.792969 13.136719 10.363281 13.65625 C 9.9375 14.179688 9.535156 14.722656 9.160156 15.28125 C 8.785156 15.84375 8.4375 16.421875 8.117188 17.019531 C 7.800781 17.613281 7.511719 18.222656 7.253906 18.847656 C 6.996094 19.472656 6.765625 20.109375 6.570312 20.753906 C 6.375 21.402344 6.210938 22.054688 6.078125 22.71875 C 5.949219 23.378906 5.847656 24.046875 5.78125 24.71875 C 5.714844 25.390625 5.683594 26.066406 5.683594 26.742188 C 5.683594 27.417969 5.714844 28.089844 5.78125 28.761719 C 5.847656 29.433594 5.949219 30.101562 6.078125 30.765625 C 6.210938 31.429688 6.375 32.082031 6.570312 32.730469 C 6.765625 33.375 6.996094 34.011719 7.253906 34.632812 C 7.511719 35.257812 7.800781 35.867188 8.117188 36.464844 C 8.4375 37.058594 8.785156 37.636719 9.160156 38.199219 C 9.535156 38.761719 9.9375 39.304688 10.363281 39.824219 C 10.792969 40.347656 11.246094 40.847656 11.722656 41.324219 C 12.203125 41.804688 12.703125 42.257812 13.222656 42.683594 C 13.746094 43.113281 14.289062 43.515625 14.851562 43.890625 C 15.410156 44.265625 15.988281 44.613281 16.585938 44.929688 C 17.179688 45.25 17.792969 45.539062 18.414062 45.796875 C 19.039062 46.054688 19.675781 46.28125 20.320312 46.476562 C 20.96875 46.675781 21.621094 46.839844 22.285156 46.96875 C 22.945312 47.101562 23.613281 47.199219 24.285156 47.265625 C 24.957031 47.332031 25.632812 47.367188 26.308594 47.367188 C 26.984375 47.367188 27.65625 47.332031 28.328125 47.265625 C 29.003906 47.199219 29.667969 47.101562 30.332031 46.96875 C 30.996094 46.839844 31.648438 46.675781 32.296875 46.476562 C 32.941406 46.28125 33.578125 46.054688 34.199219 45.796875 C 34.824219 45.539062 35.433594 45.25 36.03125 44.929688 C 36.625 44.613281 37.207031 44.265625 37.765625 43.890625 C 38.328125 43.515625 38.871094 43.113281 39.394531 42.683594 C 39.914062 42.257812 40.414062 41.804688 40.890625 41.324219 C 41.371094 40.847656 41.824219 40.347656 42.25 39.824219 C 42.679688 39.304688 43.082031 38.761719 43.457031 38.199219 C 43.832031 37.636719 44.179688 37.058594 44.496094 36.464844 C 44.816406 35.867188 45.105469 35.257812 45.363281 34.632812 C 45.621094 34.011719 45.847656 33.375 46.046875 32.730469 C 46.242188 32.082031 46.40625 31.429688 46.535156 30.765625 C 46.667969 30.101562 46.769531 29.433594 46.832031 28.761719 C 46.898438 28.089844 46.933594 27.417969 46.933594 26.742188 C 46.933594 26.066406 46.898438 25.390625 46.832031 24.71875 C 46.765625 24.046875 46.667969 23.378906 46.535156 22.71875 C 46.40625 22.054688 46.242188 21.402344 46.042969 20.753906 C 45.847656 20.109375 45.621094 19.472656 45.363281 18.847656 C 45.105469 18.226562 44.816406 17.613281 44.496094 17.019531 C 44.179688 16.421875 43.832031 15.84375 43.457031 15.285156 C 43.082031 14.722656 42.679688 14.179688 42.25 13.65625 C 41.824219 13.136719 41.371094 12.636719 40.890625 12.15625 C 40.414062 11.679688 39.914062 11.226562 39.390625 10.800781 C 38.871094 10.371094 38.328125 9.96875 37.765625 9.59375 C 37.203125 9.21875 36.625 8.871094 36.03125 8.550781 C 35.433594 8.234375 34.824219 7.945312 34.199219 7.6875 C 33.578125 7.429688 32.941406 7.203125 32.296875 7.003906 C 31.648438 6.808594 30.996094 6.644531 30.332031 6.511719 C 29.667969 6.382812 29.003906 6.28125 28.328125 6.214844 C 27.65625 6.148438 26.984375 6.117188 26.308594 6.117188 Z M 26.308594 13.851562 C 26.796875 13.851562 27.28125 13.90625 27.757812 14.019531 C 28.234375 14.132812 28.695312 14.296875 29.132812 14.515625 C 29.570312 14.734375 29.980469 15 30.355469 15.3125 C 30.734375 15.625 31.070312 15.980469 31.363281 16.371094 C 31.660156 16.761719 31.90625 17.179688 32.101562 17.628906 C 32.300781 18.078125 32.441406 18.542969 32.53125 19.027344 C 32.621094 19.507812 32.652344 19.992188 32.628906 20.484375 C 32.605469 20.972656 32.527344 21.453125 32.390625 21.925781 C 32.257812 22.394531 32.070312 22.84375 31.828125 23.273438 C 31.589844 23.699219 31.304688 24.09375 30.972656 24.453125 C 30.640625 24.816406 30.273438 25.132812 29.867188 25.410156 C 29.460938 25.683594 29.03125 25.910156 28.570312 26.085938 C 28.113281 26.261719 27.640625 26.378906 27.15625 26.445312 C 26.671875 26.511719 26.183594 26.519531 25.695312 26.472656 C 25.207031 26.425781 24.734375 26.324219 24.269531 26.164062 C 23.804688 26.007812 23.367188 25.796875 22.949219 25.535156 C 17.640625 22.171875 19.941406 13.914062 26.308594 13.851562 Z M 33.726562 39.632812 L 18.890625 39.632812 C 18.582031 39.632812 18.277344 39.601562 17.976562 39.539062 C 17.675781 39.480469 17.386719 39.390625 17.101562 39.273438 C 16.816406 39.15625 16.546875 39.011719 16.292969 38.839844 C 16.039062 38.667969 15.800781 38.476562 15.585938 38.257812 C 15.367188 38.042969 15.175781 37.804688 15.003906 37.550781 C 14.835938 37.292969 14.691406 37.023438 14.574219 36.742188 C 14.457031 36.457031 14.367188 36.164062 14.308594 35.863281 C 14.246094 35.5625 14.21875 35.257812 14.21875 34.953125 C 14.21875 30.988281 17.136719 27.566406 21.324219 26.027344 C 21.671875 26.320312 22.039062 26.578125 22.429688 26.804688 C 22.824219 27.03125 23.230469 27.226562 23.65625 27.378906 C 24.082031 27.535156 24.515625 27.652344 24.960938 27.730469 C 25.40625 27.8125 25.855469 27.851562 26.308594 27.851562 C 26.761719 27.851562 27.210938 27.8125 27.65625 27.730469 C 28.101562 27.652344 28.535156 27.535156 28.960938 27.378906 C 29.386719 27.226562 29.792969 27.03125 30.183594 26.804688 C 30.578125 26.578125 30.945312 26.320312 31.289062 26.027344 C 35.480469 27.566406 38.398438 30.988281 38.398438 34.953125 C 38.398438 35.257812 38.371094 35.5625 38.308594 35.863281 C 38.25 36.164062 38.160156 36.457031 38.042969 36.742188 C 37.925781 37.023438 37.78125 37.292969 37.613281 37.550781 C 37.441406 37.804688 37.246094 38.042969 37.03125 38.257812 C 36.8125 38.476562 36.578125 38.667969 36.324219 38.839844 C 36.066406 39.011719 35.796875 39.15625 35.515625 39.273438 C 35.230469 39.390625 34.941406 39.480469 34.636719 39.539062 C 34.335938 39.601562 34.035156 39.632812 33.726562 39.632812 Z M 33.726562 39.632812 " fill-opacity="1" fill-rule="nonzero"/></g></svg>