<svg xmlns="http://www.w3.org/2000/svg" xmlns:xlink="http://www.w3.org/1999/xlink" width="70" zoomAndPan="magnify" viewBox="0 0 52.5 52.499999" height="70" preserveAspectRatio="xMidYMid meet" version="1.0"><defs><g/><clipPath id="47efb691ad"><path d="M 8.742188 5.25 L 43.992188 5.25 L 43.992188 40.5 L 8.742188 40.5 Z M 8.742188 5.25 " clip-rule="nonzero"/></clipPath></defs><g clip-path="url(#47efb691ad)"><path fill="#737373" d="M 26.367188 5.25 C 25.789062 5.25 25.214844 5.277344 24.640625 5.335938 C 24.066406 5.390625 23.496094 5.476562 22.929688 5.589844 C 22.363281 5.703125 21.800781 5.839844 21.25 6.007812 C 20.699219 6.175781 20.15625 6.371094 19.621094 6.589844 C 19.089844 6.8125 18.566406 7.058594 18.058594 7.332031 C 17.550781 7.601562 17.054688 7.898438 16.574219 8.21875 C 16.09375 8.542969 15.632812 8.882812 15.183594 9.25 C 14.738281 9.617188 14.3125 10.003906 13.902344 10.414062 C 13.496094 10.820312 13.109375 11.246094 12.742188 11.695312 C 12.375 12.140625 12.03125 12.601562 11.710938 13.082031 C 11.390625 13.5625 11.09375 14.058594 10.824219 14.566406 C 10.550781 15.074219 10.304688 15.597656 10.082031 16.128906 C 9.863281 16.664062 9.667969 17.207031 9.5 17.757812 C 9.332031 18.3125 9.191406 18.871094 9.082031 19.4375 C 8.96875 20.003906 8.882812 20.574219 8.828125 21.148438 C 8.769531 21.722656 8.742188 22.296875 8.742188 22.875 C 8.742188 23.453125 8.769531 24.027344 8.828125 24.601562 C 8.882812 25.175781 8.96875 25.746094 9.082031 26.3125 C 9.191406 26.878906 9.332031 27.4375 9.5 27.992188 C 9.667969 28.542969 9.863281 29.085938 10.082031 29.621094 C 10.304688 30.152344 10.550781 30.675781 10.824219 31.183594 C 11.09375 31.691406 11.390625 32.1875 11.710938 32.667969 C 12.03125 33.148438 12.375 33.609375 12.742188 34.054688 C 13.109375 34.503906 13.496094 34.929688 13.902344 35.335938 C 14.3125 35.746094 14.738281 36.132812 15.183594 36.5 C 15.632812 36.867188 16.09375 37.207031 16.574219 37.53125 C 17.054688 37.851562 17.550781 38.148438 18.058594 38.417969 C 18.566406 38.691406 19.089844 38.9375 19.621094 39.160156 C 20.15625 39.378906 20.699219 39.574219 21.25 39.742188 C 21.800781 39.910156 22.363281 40.046875 22.929688 40.160156 C 23.496094 40.273438 24.066406 40.359375 24.640625 40.414062 C 25.214844 40.472656 25.789062 40.5 26.367188 40.5 C 26.945312 40.5 27.519531 40.472656 28.09375 40.414062 C 28.667969 40.359375 29.238281 40.273438 29.804688 40.160156 C 30.371094 40.046875 30.929688 39.910156 31.484375 39.742188 C 32.035156 39.574219 32.578125 39.378906 33.109375 39.160156 C 33.644531 38.9375 34.164062 38.691406 34.675781 38.417969 C 35.183594 38.148438 35.679688 37.851562 36.160156 37.53125 C 36.636719 37.207031 37.101562 36.867188 37.546875 36.5 C 37.992188 36.132812 38.421875 35.746094 38.828125 35.335938 C 39.238281 34.929688 39.625 34.503906 39.992188 34.054688 C 40.355469 33.609375 40.699219 33.148438 41.019531 32.667969 C 41.34375 32.1875 41.636719 31.691406 41.910156 31.183594 C 42.183594 30.675781 42.429688 30.152344 42.648438 29.621094 C 42.871094 29.085938 43.066406 28.542969 43.234375 27.992188 C 43.398438 27.4375 43.539062 26.878906 43.652344 26.3125 C 43.765625 25.746094 43.851562 25.175781 43.90625 24.601562 C 43.964844 24.027344 43.992188 23.453125 43.992188 22.875 C 43.992188 22.296875 43.964844 21.722656 43.90625 21.148438 C 43.851562 20.574219 43.765625 20.003906 43.652344 19.4375 C 43.539062 18.871094 43.398438 18.3125 43.230469 17.757812 C 43.066406 17.207031 42.871094 16.664062 42.648438 16.128906 C 42.429688 15.597656 42.183594 15.074219 41.910156 14.566406 C 41.636719 14.058594 41.339844 13.5625 41.019531 13.082031 C 40.699219 12.605469 40.355469 12.140625 39.988281 11.695312 C 39.625 11.25 39.238281 10.820312 38.828125 10.414062 C 38.421875 10.003906 37.992188 9.617188 37.546875 9.25 C 37.101562 8.886719 36.636719 8.542969 36.15625 8.222656 C 35.679688 7.898438 35.183594 7.605469 34.675781 7.332031 C 34.164062 7.058594 33.644531 6.8125 33.109375 6.59375 C 32.578125 6.371094 32.035156 6.175781 31.484375 6.007812 C 30.929688 5.84375 30.371094 5.703125 29.804688 5.589844 C 29.238281 5.476562 28.667969 5.390625 28.09375 5.335938 C 27.519531 5.277344 26.945312 5.25 26.367188 5.25 Z M 26.367188 11.859375 C 26.785156 11.859375 27.199219 11.90625 27.605469 12.003906 C 28.015625 12.097656 28.40625 12.238281 28.78125 12.425781 C 29.15625 12.613281 29.503906 12.839844 29.824219 13.109375 C 30.148438 13.375 30.433594 13.675781 30.6875 14.011719 C 30.9375 14.347656 31.148438 14.707031 31.316406 15.089844 C 31.484375 15.472656 31.609375 15.871094 31.683594 16.28125 C 31.761719 16.695312 31.789062 17.109375 31.769531 17.527344 C 31.75 17.945312 31.679688 18.355469 31.566406 18.757812 C 31.449219 19.160156 31.289062 19.542969 31.082031 19.910156 C 30.878906 20.273438 30.636719 20.613281 30.351562 20.921875 C 30.070312 21.230469 29.753906 21.5 29.40625 21.738281 C 29.0625 21.972656 28.691406 22.164062 28.300781 22.3125 C 27.910156 22.464844 27.507812 22.566406 27.089844 22.621094 C 26.675781 22.679688 26.261719 22.6875 25.84375 22.644531 C 25.425781 22.605469 25.019531 22.515625 24.625 22.382812 C 24.226562 22.246094 23.851562 22.066406 23.496094 21.84375 C 18.957031 18.96875 20.925781 11.914062 26.367188 11.859375 Z M 32.707031 33.890625 L 20.027344 33.890625 C 19.765625 33.890625 19.503906 33.863281 19.246094 33.8125 C 18.992188 33.761719 18.742188 33.683594 18.5 33.585938 C 18.257812 33.484375 18.027344 33.359375 17.808594 33.214844 C 17.589844 33.066406 17.390625 32.902344 17.203125 32.71875 C 17.019531 32.53125 16.851562 32.328125 16.707031 32.109375 C 16.5625 31.894531 16.4375 31.664062 16.339844 31.421875 C 16.238281 31.179688 16.164062 30.929688 16.109375 30.671875 C 16.058594 30.414062 16.035156 30.152344 16.035156 29.890625 C 16.035156 26.503906 18.527344 23.578125 22.109375 22.261719 C 22.402344 22.511719 22.71875 22.734375 23.054688 22.929688 C 23.386719 23.125 23.734375 23.289062 24.097656 23.421875 C 24.460938 23.554688 24.835938 23.652344 25.214844 23.722656 C 25.597656 23.789062 25.980469 23.824219 26.367188 23.824219 C 26.753906 23.824219 27.136719 23.789062 27.519531 23.722656 C 27.898438 23.652344 28.269531 23.554688 28.632812 23.421875 C 28.996094 23.289062 29.34375 23.125 29.679688 22.929688 C 30.015625 22.734375 30.328125 22.511719 30.625 22.261719 C 34.203125 23.578125 36.699219 26.503906 36.699219 29.890625 C 36.699219 30.152344 36.671875 30.414062 36.621094 30.671875 C 36.570312 30.929688 36.496094 31.179688 36.394531 31.421875 C 36.292969 31.664062 36.171875 31.894531 36.027344 32.109375 C 35.878906 32.328125 35.714844 32.53125 35.53125 32.71875 C 35.34375 32.902344 35.140625 33.066406 34.925781 33.214844 C 34.707031 33.359375 34.476562 33.484375 34.234375 33.585938 C 33.992188 33.683594 33.742188 33.761719 33.484375 33.8125 C 33.226562 33.863281 32.96875 33.890625 32.707031 33.890625 Z M 32.707031 33.890625 " fill-opacity="1" fill-rule="nonzero"/></g><g fill="#737373" fill-opacity="1"><g transform="translate(19.831715, 46.149992)"><g><path d="M 1.46875 -2.859375 C 1.675781 -2.859375 1.851562 -2.816406 2 -2.734375 C 2.144531 -2.660156 2.253906 -2.554688 2.328125 -2.421875 C 2.398438 -2.296875 2.4375 -2.140625 2.4375 -1.953125 C 2.4375 -1.773438 2.398438 -1.617188 2.328125 -1.484375 C 2.253906 -1.359375 2.144531 -1.253906 2 -1.171875 C 1.851562 -1.097656 1.675781 -1.0625 1.46875 -1.0625 L 0.9375 -1.0625 L 0.9375 0 L 0.375 0 L 0.375 -2.859375 Z M 1.40625 -1.515625 C 1.71875 -1.515625 1.875 -1.660156 1.875 -1.953125 C 1.875 -2.253906 1.71875 -2.40625 1.40625 -2.40625 L 0.9375 -2.40625 L 0.9375 -1.515625 Z M 1.40625 -1.515625 "/></g></g></g><g fill="#737373" fill-opacity="1"><g transform="translate(22.438541, 46.149992)"><g><path d="M 0.3125 0 L 0.3125 -2.15625 L 0.84375 -2.15625 L 0.84375 -1.828125 L 0.875 -1.828125 C 0.925781 -1.941406 0.992188 -2.023438 1.078125 -2.078125 C 1.160156 -2.140625 1.265625 -2.171875 1.390625 -2.171875 C 1.515625 -2.171875 1.609375 -2.148438 1.671875 -2.109375 L 1.578125 -1.640625 L 1.53125 -1.640625 C 1.5 -1.648438 1.46875 -1.65625 1.4375 -1.65625 C 1.40625 -1.664062 1.363281 -1.671875 1.3125 -1.671875 C 1.164062 -1.671875 1.050781 -1.617188 0.96875 -1.515625 C 0.894531 -1.410156 0.859375 -1.242188 0.859375 -1.015625 L 0.859375 0 Z M 0.3125 0 "/></g></g></g><g fill="#737373" fill-opacity="1"><g transform="translate(24.12635, 46.149992)"><g><path d="M 1.25 0.046875 C 1.039062 0.046875 0.851562 0.00390625 0.6875 -0.078125 C 0.53125 -0.171875 0.40625 -0.300781 0.3125 -0.46875 C 0.226562 -0.632812 0.1875 -0.835938 0.1875 -1.078125 C 0.1875 -1.316406 0.226562 -1.519531 0.3125 -1.6875 C 0.40625 -1.851562 0.53125 -1.976562 0.6875 -2.0625 C 0.851562 -2.15625 1.039062 -2.203125 1.25 -2.203125 C 1.457031 -2.203125 1.640625 -2.15625 1.796875 -2.0625 C 1.960938 -1.976562 2.085938 -1.851562 2.171875 -1.6875 C 2.265625 -1.519531 2.3125 -1.316406 2.3125 -1.078125 C 2.3125 -0.835938 2.265625 -0.632812 2.171875 -0.46875 C 2.085938 -0.300781 1.960938 -0.171875 1.796875 -0.078125 C 1.640625 0.00390625 1.457031 0.046875 1.25 0.046875 Z M 1.25 -0.421875 C 1.582031 -0.421875 1.75 -0.640625 1.75 -1.078125 C 1.75 -1.304688 1.707031 -1.472656 1.625 -1.578125 C 1.539062 -1.679688 1.414062 -1.734375 1.25 -1.734375 C 0.914062 -1.734375 0.75 -1.515625 0.75 -1.078125 C 0.75 -0.640625 0.914062 -0.421875 1.25 -0.421875 Z M 1.25 -0.421875 "/></g></g></g><g fill="#737373" fill-opacity="1"><g transform="translate(26.627811, 46.149992)"><g><path d="M 0.375 0 L 0.375 -1.734375 L 0.078125 -1.734375 L 0.078125 -2.15625 L 0.375 -2.15625 C 0.351562 -2.25 0.34375 -2.332031 0.34375 -2.40625 C 0.34375 -2.550781 0.375 -2.671875 0.4375 -2.765625 C 0.5 -2.859375 0.585938 -2.929688 0.703125 -2.984375 C 0.828125 -3.035156 0.96875 -3.0625 1.125 -3.0625 C 1.363281 -3.0625 1.539062 -3.019531 1.65625 -2.9375 L 1.53125 -2.546875 L 1.484375 -2.53125 C 1.410156 -2.59375 1.3125 -2.625 1.1875 -2.625 C 1.082031 -2.625 1.003906 -2.597656 0.953125 -2.546875 C 0.910156 -2.492188 0.890625 -2.429688 0.890625 -2.359375 C 0.890625 -2.316406 0.890625 -2.28125 0.890625 -2.25 C 0.898438 -2.226562 0.910156 -2.195312 0.921875 -2.15625 L 1.53125 -2.15625 L 1.53125 -1.734375 L 0.921875 -1.734375 L 0.921875 0 Z M 0.375 0 "/></g></g></g><g fill="#737373" fill-opacity="1"><g transform="translate(28.18098, 46.149992)"><g><path d="M 0.578125 -2.40625 C 0.484375 -2.40625 0.40625 -2.4375 0.34375 -2.5 C 0.28125 -2.5625 0.25 -2.640625 0.25 -2.734375 C 0.25 -2.828125 0.28125 -2.898438 0.34375 -2.953125 C 0.40625 -3.015625 0.484375 -3.046875 0.578125 -3.046875 C 0.640625 -3.046875 0.695312 -3.03125 0.75 -3 C 0.800781 -2.976562 0.84375 -2.941406 0.875 -2.890625 C 0.90625 -2.847656 0.921875 -2.796875 0.921875 -2.734375 C 0.921875 -2.671875 0.90625 -2.613281 0.875 -2.5625 C 0.84375 -2.519531 0.800781 -2.484375 0.75 -2.453125 C 0.695312 -2.421875 0.640625 -2.40625 0.578125 -2.40625 Z M 0.3125 0 L 0.3125 -2.15625 L 0.859375 -2.15625 L 0.859375 0 Z M 0.3125 0 "/></g></g></g><g fill="#737373" fill-opacity="1"><g transform="translate(29.340003, 46.149992)"><g><path d="M 0.890625 0.046875 C 0.703125 0.046875 0.554688 -0.00390625 0.453125 -0.109375 C 0.347656 -0.222656 0.296875 -0.382812 0.296875 -0.59375 L 0.296875 -3.015625 L 0.84375 -3.015625 L 0.84375 -0.609375 C 0.84375 -0.484375 0.894531 -0.421875 1 -0.421875 C 1.03125 -0.421875 1.066406 -0.425781 1.109375 -0.4375 L 1.125 -0.421875 L 1.171875 -0.015625 C 1.148438 0.00390625 1.113281 0.0195312 1.0625 0.03125 C 1.007812 0.0390625 0.953125 0.046875 0.890625 0.046875 Z M 0.890625 0.046875 "/></g></g></g><g fill="#737373" fill-opacity="1"><g transform="translate(30.577075, 46.149992)"><g><path d="M 2.125 -0.953125 L 0.75 -0.953125 C 0.757812 -0.765625 0.8125 -0.628906 0.90625 -0.546875 C 1 -0.460938 1.125 -0.421875 1.28125 -0.421875 C 1.40625 -0.421875 1.503906 -0.441406 1.578125 -0.484375 C 1.648438 -0.535156 1.710938 -0.609375 1.765625 -0.703125 L 1.8125 -0.703125 L 2.171875 -0.46875 C 2.097656 -0.3125 1.988281 -0.1875 1.84375 -0.09375 C 1.707031 0 1.519531 0.046875 1.28125 0.046875 C 1.050781 0.046875 0.851562 0.00390625 0.6875 -0.078125 C 0.53125 -0.171875 0.40625 -0.300781 0.3125 -0.46875 C 0.226562 -0.632812 0.1875 -0.835938 0.1875 -1.078125 C 0.1875 -1.316406 0.234375 -1.519531 0.328125 -1.6875 C 0.421875 -1.863281 0.546875 -1.992188 0.703125 -2.078125 C 0.859375 -2.160156 1.035156 -2.203125 1.234375 -2.203125 C 1.546875 -2.203125 1.78125 -2.117188 1.9375 -1.953125 C 2.101562 -1.796875 2.1875 -1.5625 2.1875 -1.25 C 2.1875 -1.132812 2.179688 -1.046875 2.171875 -0.984375 Z M 1.671875 -1.3125 C 1.660156 -1.46875 1.617188 -1.582031 1.546875 -1.65625 C 1.472656 -1.738281 1.367188 -1.78125 1.234375 -1.78125 C 0.960938 -1.78125 0.800781 -1.625 0.75 -1.3125 Z M 1.671875 -1.3125 "/></g></g></g></svg>