<svg xmlns="http://www.w3.org/2000/svg" xmlns:xlink="http://www.w3.org/1999/xlink" width="700" zoomAndPan="magnify" viewBox="0 0 525 525.000007" height="700" preserveAspectRatio="xMidYMid meet" version="1.0"><defs><clipPath id="b277427f36"><path d="M 19.492188 29.167969 L 495.585938 29.167969 L 495.585938 505.261719 L 19.492188 505.261719 Z M 19.492188 29.167969 " clip-rule="nonzero"/></clipPath></defs><g clip-path="url(#b277427f36)"><path fill="#55b700" d="M 495.585938 267.214844 C 495.585938 398.683594 389.007812 505.261719 257.539062 505.261719 C 126.070312 505.261719 19.492188 398.683594 19.492188 267.214844 C 19.492188 135.746094 126.070312 29.167969 257.539062 29.167969 C 389.007812 29.167969 495.585938 135.746094 495.585938 267.214844 Z M 183.269531 302.1875 L 135.070312 253.988281 C 134.375 253.296875 133.652344 252.640625 132.894531 252.019531 C 132.136719 251.398438 131.351562 250.816406 130.539062 250.269531 C 129.722656 249.726562 128.886719 249.226562 128.023438 248.761719 C 127.15625 248.300781 126.273438 247.882812 125.371094 247.507812 C 124.464844 247.136719 123.542969 246.804688 122.605469 246.519531 C 121.671875 246.238281 120.722656 246 119.761719 245.808594 C 118.800781 245.617188 117.835938 245.472656 116.859375 245.378906 C 115.886719 245.28125 114.910156 245.234375 113.929688 245.234375 C 112.949219 245.234375 111.972656 245.28125 111 245.378906 C 110.027344 245.472656 109.058594 245.617188 108.097656 245.808594 C 107.136719 246 106.1875 246.238281 105.253906 246.519531 C 104.316406 246.804688 103.394531 247.136719 102.488281 247.507812 C 101.585938 247.882812 100.703125 248.300781 99.839844 248.761719 C 98.972656 249.226562 98.136719 249.726562 97.320312 250.269531 C 96.507812 250.816406 95.722656 251.398438 94.964844 252.019531 C 94.207031 252.640625 93.484375 253.296875 92.792969 253.988281 C 92.097656 254.679688 91.441406 255.40625 90.820312 256.160156 C 90.199219 256.917969 89.617188 257.703125 89.070312 258.519531 C 88.527344 259.332031 88.023438 260.171875 87.5625 261.035156 C 87.101562 261.898438 86.679688 262.78125 86.304688 263.6875 C 85.929688 264.589844 85.601562 265.511719 85.316406 266.449219 C 85.03125 267.386719 84.796875 268.332031 84.605469 269.292969 C 84.414062 270.253906 84.269531 271.222656 84.171875 272.195312 C 84.078125 273.171875 84.03125 274.148438 84.03125 275.128906 C 84.03125 276.105469 84.078125 277.082031 84.171875 278.058594 C 84.269531 279.03125 84.414062 280 84.605469 280.960938 C 84.796875 281.921875 85.03125 282.867188 85.316406 283.804688 C 85.601562 284.742188 85.929688 285.664062 86.304688 286.566406 C 86.679688 287.472656 87.101562 288.355469 87.5625 289.21875 C 88.023438 290.082031 88.527344 290.921875 89.070312 291.738281 C 89.617188 292.550781 90.199219 293.335938 90.820312 294.09375 C 91.441406 294.847656 92.097656 295.574219 92.792969 296.265625 L 162.128906 365.613281 L 183.269531 386.75 C 183.960938 387.445312 184.683594 388.101562 185.441406 388.722656 C 186.199219 389.34375 186.984375 389.925781 187.800781 390.46875 C 188.613281 391.011719 189.453125 391.515625 190.316406 391.976562 C 191.179688 392.4375 192.066406 392.855469 192.96875 393.230469 C 193.875 393.605469 194.792969 393.9375 195.730469 394.21875 C 196.667969 394.503906 197.617188 394.742188 198.578125 394.933594 C 199.539062 395.125 200.507812 395.265625 201.480469 395.363281 C 202.457031 395.457031 203.433594 395.507812 204.410156 395.507812 C 205.390625 395.507812 206.367188 395.457031 207.34375 395.363281 C 208.316406 395.265625 209.285156 395.125 210.246094 394.933594 C 211.203125 394.742188 212.152344 394.503906 213.089844 394.21875 C 214.027344 393.9375 214.949219 393.605469 215.851562 393.230469 C 216.757812 392.855469 217.640625 392.4375 218.507812 391.976562 C 219.371094 391.515625 220.207031 391.011719 221.023438 390.46875 C 221.835938 389.925781 222.621094 389.34375 223.378906 388.722656 C 224.136719 388.101562 224.863281 387.445312 225.554688 386.75 L 246.691406 365.613281 L 422.3125 189.953125 C 423.007812 189.261719 423.664062 188.539062 424.285156 187.78125 C 424.90625 187.023438 425.492188 186.238281 426.035156 185.425781 C 426.578125 184.609375 427.082031 183.773438 427.542969 182.910156 C 428.003906 182.046875 428.425781 181.160156 428.800781 180.257812 C 429.175781 179.351562 429.503906 178.429688 429.789062 177.496094 C 430.074219 176.558594 430.308594 175.609375 430.5 174.648438 C 430.691406 173.6875 430.835938 172.71875 430.933594 171.746094 C 431.027344 170.773438 431.078125 169.792969 431.078125 168.816406 C 431.078125 167.835938 431.027344 166.859375 430.933594 165.886719 C 430.835938 164.910156 430.691406 163.941406 430.5 162.984375 C 430.308594 162.023438 430.074219 161.074219 429.789062 160.136719 C 429.503906 159.199219 429.175781 158.277344 428.800781 157.375 C 428.425781 156.46875 428.003906 155.585938 427.542969 154.722656 C 427.082031 153.859375 426.578125 153.019531 426.035156 152.207031 C 425.492188 151.390625 424.90625 150.605469 424.285156 149.851562 C 423.664062 149.09375 423.007812 148.367188 422.3125 147.675781 C 421.621094 146.984375 420.898438 146.328125 420.140625 145.707031 C 419.382812 145.085938 418.597656 144.503906 417.785156 143.960938 C 416.96875 143.414062 416.132812 142.914062 415.269531 142.453125 C 414.402344 141.992188 413.519531 141.574219 412.617188 141.199219 C 411.710938 140.824219 410.789062 140.492188 409.851562 140.210938 C 408.917969 139.925781 407.96875 139.6875 407.007812 139.496094 C 406.046875 139.304688 405.082031 139.164062 404.105469 139.066406 C 403.132812 138.972656 402.15625 138.921875 401.175781 138.921875 C 400.195312 138.921875 399.21875 138.972656 398.246094 139.066406 C 397.269531 139.164062 396.304688 139.304688 395.34375 139.496094 C 394.382812 139.6875 393.433594 139.925781 392.5 140.210938 C 391.5625 140.492188 390.640625 140.824219 389.734375 141.199219 C 388.832031 141.574219 387.949219 141.992188 387.085938 142.453125 C 386.21875 142.914062 385.382812 143.414062 384.566406 143.960938 C 383.753906 144.503906 382.96875 145.085938 382.210938 145.707031 C 381.453125 146.328125 380.730469 146.984375 380.039062 147.675781 L 225.527344 302.1875 C 224.832031 302.878906 224.109375 303.535156 223.351562 304.15625 C 222.59375 304.773438 221.808594 305.355469 220.996094 305.898438 C 220.183594 306.441406 219.34375 306.945312 218.480469 307.40625 C 217.617188 307.867188 216.734375 308.285156 215.828125 308.65625 C 214.925781 309.03125 214.003906 309.359375 213.070312 309.644531 C 212.132812 309.925781 211.183594 310.164062 210.226562 310.355469 C 209.265625 310.546875 208.300781 310.6875 207.324219 310.785156 C 206.351562 310.882812 205.375 310.929688 204.398438 310.929688 C 203.417969 310.929688 202.441406 310.882812 201.46875 310.785156 C 200.496094 310.6875 199.527344 310.546875 198.570312 310.355469 C 197.609375 310.164062 196.660156 309.925781 195.726562 309.644531 C 194.789062 309.359375 193.867188 309.03125 192.964844 308.65625 C 192.058594 308.285156 191.175781 307.867188 190.3125 307.40625 C 189.449219 306.945312 188.613281 306.441406 187.796875 305.898438 C 186.984375 305.355469 186.199219 304.773438 185.441406 304.15625 C 184.683594 303.535156 183.960938 302.878906 183.269531 302.1875 Z M 183.269531 302.1875 " fill-opacity="1" fill-rule="nonzero"/></g></svg>