<svg xmlns="http://www.w3.org/2000/svg" xmlns:xlink="http://www.w3.org/1999/xlink" width="100" zoomAndPan="magnify" viewBox="0 0 75 74.999997" height="100" preserveAspectRatio="xMidYMid meet" version="1.0"><defs><clipPath id="dad8ccb297"><path d="M 10.371094 5 L 64.371094 5 L 64.371094 72.59375 L 10.371094 72.59375 Z M 10.371094 5 " clip-rule="nonzero"/></clipPath><clipPath id="44305ac77b"><path d="M 27 2.09375 L 54 2.09375 L 54 60 L 27 60 Z M 27 2.09375 " clip-rule="nonzero"/></clipPath></defs><g clip-path="url(#dad8ccb297)"><path fill="#737373" d="M 59.144531 5.398438 L 56.34375 5.398438 C 56.351562 5.511719 56.359375 5.621094 56.359375 5.734375 C 56.359375 6.386719 56.261719 7.011719 56.089844 7.601562 L 59.144531 7.601562 C 60.828125 7.601562 62.144531 8.925781 62.144531 10.617188 L 62.144531 67.324219 C 62.144531 69.015625 60.800781 70.390625 59.144531 70.390625 L 15.59375 70.390625 C 13.941406 70.390625 12.597656 69.015625 12.597656 67.324219 L 12.597656 10.617188 C 12.597656 8.925781 13.914062 7.601562 15.59375 7.601562 L 42.4375 7.601562 C 42.363281 7.210938 42.324219 6.800781 42.324219 6.378906 C 42.324219 6.042969 42.359375 5.71875 42.410156 5.398438 L 15.59375 5.398438 C 12.722656 5.398438 10.394531 7.707031 10.394531 10.617188 L 10.394531 67.324219 C 10.394531 70.234375 12.722656 72.59375 15.59375 72.59375 L 59.144531 72.59375 C 62.019531 72.59375 64.347656 70.234375 64.347656 67.324219 L 64.347656 10.617188 C 64.347656 7.707031 62.019531 5.398438 59.144531 5.398438 Z M 59.144531 5.398438 " fill-opacity="1" fill-rule="nonzero"/></g><g clip-path="url(#44305ac77b)"><path fill="#737373" d="M 41.03125 19.421875 C 41.40625 18.460938 40.914062 17.894531 40.5 17.976562 C 38.574219 18.371094 37.402344 20.921875 36.449219 20.921875 C 36.074219 20.921875 35.753906 20.546875 35.753906 20.226562 C 35.753906 19.261719 36.667969 18.726562 37.359375 18.03125 C 39.488281 15.996094 42.253906 14.441406 45.339844 14.441406 C 47.625 14.441406 50.078125 15.835938 48.160156 21.03125 L 36.960938 50.824219 C 36.640625 51.625 36.058594 52.96875 36.058594 53.824219 C 36.058594 54.195312 36.269531 54.570312 36.695312 54.570312 C 38.289062 54.570312 39.402344 52 40.148438 52 C 40.414062 52 40.785156 52.320312 40.785156 52.804688 C 40.785156 54.355469 36.375 59.015625 31 59.015625 C 29.085938 59.015625 27.753906 58.105469 27.753906 56.070312 C 27.753906 53.5 29.5625 49.109375 29.9375 48.199219 Z M 45.394531 6.378906 C 45.394531 4.019531 47.414062 2.09375 49.757812 2.09375 C 51.882812 2.09375 53.425781 3.539062 53.425781 5.734375 C 53.425781 8.199219 51.40625 10.019531 49.011719 10.019531 C 46.832031 10.019531 45.394531 8.574219 45.394531 6.378906 Z M 45.394531 6.378906 " fill-opacity="1" fill-rule="nonzero"/></g><path fill="#737373" d="M 57.191406 18.617188 L 51.59375 18.617188 C 51.523438 19.304688 51.367188 20.042969 51.132812 20.820312 L 57.191406 20.820312 C 57.796875 20.820312 58.289062 20.328125 58.289062 19.71875 C 58.289062 19.109375 57.796875 18.617188 57.191406 18.617188 Z M 57.191406 18.617188 " fill-opacity="1" fill-rule="nonzero"/><path fill="#737373" d="M 32.964844 20.226562 C 32.964844 19.601562 33.117188 19.074219 33.34375 18.617188 L 17.550781 18.617188 C 16.941406 18.617188 16.449219 19.109375 16.449219 19.71875 C 16.449219 20.328125 16.941406 20.820312 17.550781 20.820312 L 33.03125 20.820312 C 32.988281 20.628906 32.964844 20.429688 32.964844 20.226562 Z M 32.964844 20.226562 " fill-opacity="1" fill-rule="nonzero"/><path fill="#737373" d="M 35.167969 26.328125 L 17.550781 26.328125 C 16.941406 26.328125 16.449219 26.820312 16.449219 27.429688 C 16.449219 28.039062 16.941406 28.53125 17.550781 28.53125 L 34.320312 28.53125 Z M 35.167969 26.328125 " fill-opacity="1" fill-rule="nonzero"/><path fill="#737373" d="M 57.191406 26.328125 L 49.210938 26.328125 L 48.382812 28.53125 L 57.191406 28.53125 C 57.796875 28.53125 58.289062 28.039062 58.289062 27.429688 C 58.289062 26.820312 57.796875 26.328125 57.191406 26.328125 Z M 57.191406 26.328125 " fill-opacity="1" fill-rule="nonzero"/><path fill="#737373" d="M 32.414062 34.039062 L 17.550781 34.039062 C 16.941406 34.039062 16.449219 34.53125 16.449219 35.140625 C 16.449219 35.75 16.941406 36.242188 17.550781 36.242188 L 31.566406 36.242188 Z M 32.414062 34.039062 " fill-opacity="1" fill-rule="nonzero"/><path fill="#737373" d="M 57.191406 34.039062 L 46.179688 34.039062 L 45.351562 36.242188 L 57.191406 36.242188 C 57.796875 36.242188 58.289062 35.75 58.289062 35.140625 C 58.289062 34.53125 57.796875 34.039062 57.191406 34.039062 Z M 57.191406 34.039062 " fill-opacity="1" fill-rule="nonzero"/><path fill="#737373" d="M 57.191406 41.75 L 43.425781 41.75 L 42.597656 43.953125 L 57.191406 43.953125 C 57.796875 43.953125 58.289062 43.460938 58.289062 42.851562 C 58.289062 42.242188 57.796875 41.75 57.191406 41.75 Z M 57.191406 41.75 " fill-opacity="1" fill-rule="nonzero"/><path fill="#737373" d="M 29.410156 41.75 L 17.550781 41.75 C 16.941406 41.75 16.449219 42.242188 16.449219 42.851562 C 16.449219 43.460938 16.941406 43.953125 17.550781 43.953125 L 28.5625 43.953125 Z M 29.410156 41.75 " fill-opacity="1" fill-rule="nonzero"/><path fill="#737373" d="M 26.359375 49.460938 L 17.550781 49.460938 C 16.941406 49.460938 16.449219 49.953125 16.449219 50.5625 C 16.449219 51.171875 16.941406 51.664062 17.550781 51.664062 L 25.625 51.664062 C 25.832031 50.976562 26.074219 50.242188 26.359375 49.460938 Z M 26.359375 49.460938 " fill-opacity="1" fill-rule="nonzero"/><path fill="#737373" d="M 57.191406 49.460938 L 40.484375 49.460938 L 40.34375 49.839844 C 40.492188 49.8125 40.644531 49.796875 40.808594 49.796875 C 41.96875 49.796875 42.992188 50.582031 43.425781 51.667969 L 57.191406 51.667969 C 57.796875 51.667969 58.289062 51.171875 58.289062 50.566406 C 58.289062 49.957031 57.796875 49.460938 57.191406 49.460938 Z M 57.191406 49.460938 " fill-opacity="1" fill-rule="nonzero"/><path fill="#737373" d="M 24.824219 57.171875 L 17.550781 57.171875 C 16.941406 57.171875 16.449219 57.664062 16.449219 58.273438 C 16.449219 58.882812 16.941406 59.375 17.550781 59.375 L 25.808594 59.375 C 25.316406 58.765625 24.980469 58.027344 24.824219 57.171875 Z M 24.824219 57.171875 " fill-opacity="1" fill-rule="nonzero"/><path fill="#737373" d="M 57.191406 57.171875 L 41.222656 57.171875 C 40.386719 57.976562 39.378906 58.734375 38.253906 59.375 L 57.191406 59.375 C 57.796875 59.375 58.289062 58.882812 58.289062 58.273438 C 58.289062 57.664062 57.796875 57.171875 57.191406 57.171875 Z M 57.191406 57.171875 " fill-opacity="1" fill-rule="nonzero"/></svg>